<svg width="40" height="40" viewBox="0 0 40 40" fill="none" xmlns="http://www.w3.org/2000/svg">
<rect width="40" height="40" rx="20" fill="#DCDCDC"/>
<path d="M20.472 10.0001C20.9928 10.0004 21.4154 10.4226 21.4154 10.9435V13.0841C22.6519 13.2078 23.8401 13.4897 24.6898 13.7755C25.1833 13.9417 25.4493 14.4772 25.2836 14.9708C25.1175 15.4645 24.5819 15.7303 24.0882 15.5646C22.9621 15.1858 21.166 14.8246 19.6547 14.922C18.8979 14.9709 18.3006 15.1296 17.8998 15.379C17.5405 15.6029 17.3151 15.9095 17.2562 16.4044C17.1839 17.0136 17.2648 17.4212 17.3959 17.7042C17.5259 17.9845 17.7395 18.2173 18.059 18.423C18.7527 18.8695 19.7776 19.0957 21.0218 19.34C21.6091 19.4552 22.2407 19.576 22.8236 19.7335C23.4048 19.8906 24.0025 20.1006 24.516 20.424C25.0433 20.7561 25.5079 21.2251 25.7582 21.8907C26.0049 22.5473 26.0029 23.2873 25.806 24.0919C25.5334 25.2052 24.7555 25.9263 23.8509 26.3546C23.1179 26.7016 22.2658 26.8752 21.4154 26.9435V29.0568C21.4154 29.5776 20.9928 29.9999 20.472 30.0001C19.951 30.0001 19.5287 29.5778 19.5287 29.0568V26.9415C17.9405 26.8225 16.3995 26.4366 15.5043 25.965C15.0434 25.7221 14.866 25.1515 15.1088 24.6906C15.3518 24.23 15.9224 24.0533 16.3832 24.296C17.1709 24.711 19.0473 25.1455 20.8324 25.089C21.7134 25.0611 22.4837 24.9149 23.0443 24.6495C23.5836 24.3941 23.8703 24.0629 23.973 23.6437C24.1091 23.0877 24.0668 22.7552 23.9916 22.5548C23.9196 22.3636 23.7794 22.1897 23.5111 22.0206C23.2288 21.8428 22.8381 21.6918 22.3314 21.5548C21.8265 21.4184 21.2686 21.3115 20.6576 21.1915C19.5047 20.9652 18.0928 20.6892 17.0375 20.0099C16.4826 19.6527 15.9939 19.1661 15.684 18.4972C15.3752 17.8306 15.2782 17.0571 15.3822 16.1818C15.5131 15.0804 16.0899 14.2837 16.9027 13.7775C17.6733 13.2976 18.6179 13.0974 19.5287 13.0382V10.9435C19.5287 10.4225 19.951 10.0001 20.472 10.0001Z" fill="#2D2D2D"/>
</svg>
