<svg width="40" height="40" viewBox="0 0 40 40" fill="none" xmlns="http://www.w3.org/2000/svg">
<rect width="40" height="40" rx="20" fill="#DCDCDC"/>
<path d="M18.8115 13.5184C19.9414 12.9645 21.1958 12.8094 22.4102 13.0799C23.6227 13.3501 24.7223 14.0284 25.5781 15.0067C25.8504 15.3184 25.8184 15.7917 25.5068 16.0643C25.1951 16.337 24.721 16.3057 24.4482 15.994C23.7852 15.2361 22.9602 14.739 22.084 14.5438C21.2096 14.349 20.3032 14.458 19.4727 14.8651C18.6395 15.2735 17.9087 15.9699 17.3877 16.8846C17.2842 17.0664 17.1927 17.256 17.1084 17.45H21.2334L21.3096 17.4539C21.6879 17.4922 21.9834 17.8116 21.9834 18.2C21.9834 18.5885 21.6879 18.9079 21.3096 18.9461L21.2334 18.95H16.6719C16.6162 19.294 16.584 19.645 16.584 19.9998C16.584 20.3546 16.6162 20.7057 16.6719 21.0497H21.2334C21.6474 21.0498 21.9832 21.3857 21.9834 21.7997C21.9834 22.2138 21.6475 22.5495 21.2334 22.5497H17.1074C17.1919 22.7441 17.284 22.9339 17.3877 23.1161C17.9087 24.0307 18.6396 24.7262 19.4727 25.1346C20.3032 25.5417 21.2096 25.6507 22.084 25.4559C22.96 25.2607 23.7852 24.7644 24.4482 24.0067C24.7209 23.695 25.1951 23.6628 25.5068 23.9354C25.8185 24.2081 25.8507 24.6822 25.5781 24.994C24.7222 25.9723 23.6227 26.6506 22.4102 26.9207C21.1958 27.1913 19.9414 27.0352 18.8115 26.4813C17.6844 25.9286 16.7409 25.0097 16.085 23.8582C15.8492 23.4443 15.6549 23.0052 15.501 22.5497H14.0332C13.619 22.5497 13.2832 22.2139 13.2832 21.7997C13.2834 21.3856 13.6191 21.0497 14.0332 21.0497H15.1533C15.1079 20.7031 15.084 20.3523 15.084 19.9998C15.084 19.6474 15.1079 19.2965 15.1533 18.95H14.0332C13.619 18.95 13.2832 18.6142 13.2832 18.2C13.2832 17.7858 13.619 17.45 14.0332 17.45H15.501C15.6548 16.9949 15.8493 16.5562 16.085 16.1424C16.7409 14.9908 17.6842 14.0711 18.8115 13.5184Z" fill="#2D2D2D"/>
</svg>
