<svg width="40" height="40" viewBox="0 0 40 40" fill="none" xmlns="http://www.w3.org/2000/svg">
<rect width="40" height="40" rx="20" fill="#DCDCDC"/>
<path d="M14.568 28.008C13.576 28.008 12.68 27.8693 11.88 27.592C11.0907 27.3147 10.4613 26.8827 9.992 26.296C9.52267 25.72 9.288 24.9787 9.288 24.072C9.288 23.8267 9.304 23.5493 9.336 23.24C9.37867 22.92 9.464 22.5467 9.592 22.12C9.72 21.6827 9.91733 21.176 10.184 20.6L12.136 21.352C11.9867 21.736 11.864 22.0613 11.768 22.328C11.6827 22.584 11.6187 22.8187 11.576 23.032C11.544 23.2347 11.528 23.4427 11.528 23.656C11.528 24.1147 11.6507 24.5093 11.896 24.84C12.1413 25.1707 12.4933 25.4213 12.952 25.592C13.4213 25.7733 13.9813 25.864 14.632 25.864C15.5707 25.864 16.2907 25.6987 16.792 25.368C17.2933 25.0373 17.6347 24.5573 17.816 23.928C17.9973 23.288 18.0667 22.5093 18.024 21.592L17.736 13.576H20.008L20.264 21.448C20.2853 22.312 20.2107 23.1387 20.04 23.928C19.88 24.7067 19.5813 25.4053 19.144 26.024C18.7173 26.6427 18.1307 27.128 17.384 27.48C16.6373 27.832 15.6987 28.008 14.568 28.008ZM24.92 28.152C24.6427 28.152 24.3973 28.0507 24.184 27.848C23.9813 27.656 23.88 27.4213 23.88 27.144C23.88 26.8453 23.9813 26.5893 24.184 26.376C24.3973 26.1733 24.6427 26.072 24.92 26.072C25.208 26.072 25.4533 26.1733 25.656 26.376C25.8587 26.5893 25.96 26.8453 25.96 27.144C25.96 27.4213 25.8587 27.656 25.656 27.848C25.4533 28.0507 25.208 28.152 24.92 28.152ZM27.384 28.152C27.0853 28.152 26.8347 28.0507 26.632 27.848C26.44 27.656 26.344 27.4213 26.344 27.144C26.344 26.8453 26.44 26.5893 26.632 26.376C26.8347 26.1733 27.0853 26.072 27.384 26.072C27.6613 26.072 27.9013 26.1733 28.104 26.376C28.3173 26.5893 28.424 26.8453 28.424 27.144C28.424 27.4213 28.3173 27.656 28.104 27.848C27.9013 28.0507 27.6613 28.152 27.384 28.152ZM15.352 22.904C14.7653 22.904 14.2853 22.792 13.912 22.568C13.5493 22.344 13.2827 22.0453 13.112 21.672C12.9413 21.288 12.856 20.8667 12.856 20.408C12.856 19.8853 12.9733 19.32 13.208 18.712C13.4427 18.0933 13.8373 17.496 14.392 16.92L16.024 18.024C15.704 18.3547 15.4587 18.7173 15.288 19.112C15.1173 19.496 15.032 19.816 15.032 20.072C15.032 20.296 15.0907 20.4773 15.208 20.616C15.336 20.744 15.5227 20.808 15.768 20.808C15.9707 20.8187 16.184 20.776 16.408 20.68C16.632 20.584 16.8987 20.424 17.208 20.2C17.528 19.976 17.9227 19.6773 18.392 19.304C18.872 18.92 19.464 18.456 20.168 17.912C21.032 17.2293 21.768 16.664 22.376 16.216C22.984 15.768 23.5333 15.4373 24.024 15.224C24.5253 15 25.032 14.8987 25.544 14.92C26.1413 14.9413 26.6747 15.1653 27.144 15.592C27.6133 16.008 27.9227 16.632 28.072 17.464L26.216 18.008C26.1413 17.7627 26.0507 17.56 25.944 17.4C25.8373 17.2293 25.7147 17.1067 25.576 17.032C25.448 16.9467 25.304 16.904 25.144 16.904C24.952 16.904 24.7547 16.952 24.552 17.048C24.3493 17.144 24.1093 17.2987 23.832 17.512C23.5547 17.7253 23.208 17.9973 22.792 18.328C22.3867 18.6587 21.88 19.064 21.272 19.544C20.3973 20.2373 19.6613 20.808 19.064 21.256C18.4667 21.6933 17.9547 22.0347 17.528 22.28C17.112 22.5147 16.7333 22.68 16.392 22.776C16.0613 22.8613 15.7147 22.904 15.352 22.904ZM25.16 25.08C24.168 25.08 23.4 24.9787 22.856 24.776C22.3227 24.5733 21.9493 24.2587 21.736 23.832C21.5227 23.3947 21.4053 22.8453 21.384 22.184L21.048 13.576H23.304L23.64 21.112C23.6613 21.5067 23.6933 21.8267 23.736 22.072C23.7787 22.3067 23.8587 22.488 23.976 22.616C24.0933 22.744 24.2587 22.8293 24.472 22.872C24.6853 22.9147 24.968 22.936 25.32 22.936C25.7893 22.936 26.152 22.9093 26.408 22.856C26.664 22.792 26.84 22.6853 26.936 22.536C27.0427 22.376 27.096 22.1573 27.096 21.88C27.096 21.5387 27.0267 21.144 26.888 20.696C26.76 20.2373 26.616 19.7787 26.456 19.32L28.536 18.712C28.6427 19 28.7493 19.3307 28.856 19.704C28.9733 20.0773 29.0693 20.4667 29.144 20.872C29.2187 21.2667 29.256 21.6507 29.256 22.024C29.256 22.5573 29.1707 23.0213 29 23.416C28.84 23.8 28.5893 24.1147 28.248 24.36C27.9173 24.6053 27.4907 24.7867 26.968 24.904C26.456 25.0213 25.8533 25.08 25.16 25.08Z" fill="#2D2D2D"/>
</svg>
