<svg width="40" height="40" viewBox="0 0 40 40" fill="none" xmlns="http://www.w3.org/2000/svg">
<rect width="40" height="40" rx="20" fill="#DCDCDC"/>
<path d="M11.802 25V13.8H15.818C16.7033 13.8 17.434 13.9547 18.01 14.264C18.5967 14.5627 19.0287 14.968 19.306 15.48C19.594 15.9813 19.738 16.552 19.738 17.192C19.738 17.7893 19.5993 18.344 19.322 18.856C19.0447 19.368 18.6127 19.7787 18.026 20.088C17.4393 20.3973 16.6873 20.552 15.77 20.552H13.722V25H11.802ZM17.642 25L15.29 20.056H17.37L19.834 25H17.642ZM13.722 19.128H15.69C16.4047 19.128 16.9273 18.9573 17.258 18.616C17.5993 18.264 17.77 17.8053 17.77 17.24C17.77 16.6853 17.6047 16.2427 17.274 15.912C16.9433 15.5707 16.4153 15.4 15.69 15.4H13.722V19.128ZM24.7196 25.192C24.005 25.192 23.381 25.08 22.8476 24.856C22.325 24.6213 21.909 24.3013 21.5996 23.896C21.301 23.48 21.125 23.0053 21.0716 22.472H22.9916C23.045 22.696 23.141 22.904 23.2796 23.096C23.4183 23.2773 23.605 23.4213 23.8396 23.528C24.085 23.6347 24.373 23.688 24.7036 23.688C25.0236 23.688 25.285 23.6453 25.4876 23.56C25.6903 23.464 25.8396 23.3413 25.9356 23.192C26.0316 23.0427 26.0796 22.8827 26.0796 22.712C26.0796 22.456 26.0103 22.2587 25.8716 22.12C25.733 21.9813 25.5303 21.8747 25.2636 21.8C25.0076 21.7147 24.6983 21.6347 24.3356 21.56C23.9516 21.4853 23.5783 21.3947 23.2156 21.288C22.8636 21.1707 22.5436 21.0267 22.2556 20.856C21.9783 20.6853 21.7543 20.4667 21.5836 20.2C21.4236 19.9333 21.3436 19.608 21.3436 19.224C21.3436 18.7547 21.4663 18.3333 21.7116 17.96C21.9676 17.5867 22.3303 17.2933 22.7996 17.08C23.2796 16.856 23.8503 16.744 24.5116 16.744C25.4503 16.744 26.197 16.9627 26.7516 17.4C27.317 17.8267 27.6476 18.4293 27.7436 19.208H25.9196C25.8663 18.9093 25.717 18.68 25.4716 18.52C25.2263 18.3493 24.901 18.264 24.4956 18.264C24.0796 18.264 23.7596 18.344 23.5356 18.504C23.3223 18.6533 23.2156 18.856 23.2156 19.112C23.2156 19.272 23.2796 19.4213 23.4076 19.56C23.5463 19.688 23.7436 19.8 23.9996 19.896C24.2556 19.9813 24.5703 20.0667 24.9436 20.152C25.541 20.2693 26.069 20.408 26.5276 20.568C26.9863 20.728 27.349 20.9627 27.6156 21.272C27.8823 21.5813 28.0156 22.0187 28.0156 22.584C28.0263 23.096 27.893 23.5493 27.6156 23.944C27.349 24.3387 26.9703 24.648 26.4796 24.872C25.989 25.0853 25.4023 25.192 24.7196 25.192Z" fill="#2D2D2D"/>
</svg>
