<svg width="40" height="40" viewBox="0 0 40 40" fill="none" xmlns="http://www.w3.org/2000/svg">
<rect width="40" height="40" rx="20" fill="#DCDCDC"/>
<path d="M15.618 25.168C14.9087 25.168 14.2787 25.042 13.728 24.79C13.1773 24.538 12.748 24.1787 12.44 23.712C12.132 23.2453 11.9733 22.69 11.964 22.046H13.742C13.742 22.3727 13.8167 22.6667 13.966 22.928C14.1247 23.18 14.3393 23.3807 14.61 23.53C14.89 23.6793 15.226 23.754 15.618 23.754C15.954 23.754 16.2433 23.7027 16.486 23.6C16.738 23.488 16.9293 23.334 17.06 23.138C17.2 22.9327 17.27 22.6947 17.27 22.424C17.27 22.116 17.1953 21.864 17.046 21.668C16.906 21.4627 16.71 21.29 16.458 21.15C16.206 21.01 15.9167 20.8887 15.59 20.786C15.2633 20.674 14.918 20.5573 14.554 20.436C13.7793 20.1747 13.196 19.8433 12.804 19.442C12.412 19.0313 12.216 18.4853 12.216 17.804C12.216 17.2347 12.3513 16.7447 12.622 16.334C12.8927 15.9233 13.2707 15.606 13.756 15.382C14.2507 15.1487 14.82 15.032 15.464 15.032C16.1173 15.032 16.6867 15.1487 17.172 15.382C17.6667 15.6153 18.054 15.942 18.334 16.362C18.6233 16.7727 18.7727 17.2673 18.782 17.846H16.99C16.9807 17.6033 16.9153 17.3793 16.794 17.174C16.6727 16.9593 16.4953 16.7867 16.262 16.656C16.038 16.516 15.7627 16.446 15.436 16.446C15.156 16.4367 14.904 16.4833 14.68 16.586C14.4653 16.6793 14.2927 16.8193 14.162 17.006C14.0407 17.1833 13.98 17.4073 13.98 17.678C13.98 17.9393 14.036 18.1587 14.148 18.336C14.2693 18.504 14.442 18.6487 14.666 18.77C14.89 18.882 15.1513 18.9893 15.45 19.092C15.7487 19.1947 16.0753 19.3067 16.43 19.428C16.9153 19.5867 17.354 19.7827 17.746 20.016C18.1473 20.24 18.4647 20.534 18.698 20.898C18.9313 21.262 19.048 21.7333 19.048 22.312C19.048 22.816 18.9173 23.2873 18.656 23.726C18.3947 24.1553 18.012 24.5053 17.508 24.776C17.004 25.0373 16.374 25.168 15.618 25.168ZM20.6815 25V15.2H26.9395V16.558H22.3615V19.428H26.0995V20.758H22.3615V25H20.6815Z" fill="#555555"/>
</svg>
