<svg width="40" height="40" viewBox="0 0 40 40" fill="none" xmlns="http://www.w3.org/2000/svg">
<rect width="40" height="40" rx="20" fill="#DCDCDC"/>
<path d="M13.95 25.168C13.2407 25.168 12.6107 25.042 12.06 24.79C11.5093 24.538 11.08 24.1787 10.772 23.712C10.464 23.2453 10.3053 22.69 10.296 22.046H12.074C12.074 22.3727 12.1487 22.6667 12.298 22.928C12.4567 23.18 12.6713 23.3807 12.942 23.53C13.222 23.6793 13.558 23.754 13.95 23.754C14.286 23.754 14.5753 23.7027 14.818 23.6C15.07 23.488 15.2613 23.334 15.392 23.138C15.532 22.9327 15.602 22.6947 15.602 22.424C15.602 22.116 15.5273 21.864 15.378 21.668C15.238 21.4627 15.042 21.29 14.79 21.15C14.538 21.01 14.2487 20.8887 13.922 20.786C13.5953 20.674 13.25 20.5573 12.886 20.436C12.1113 20.1747 11.528 19.8433 11.136 19.442C10.744 19.0313 10.548 18.4853 10.548 17.804C10.548 17.2347 10.6833 16.7447 10.954 16.334C11.2247 15.9233 11.6027 15.606 12.088 15.382C12.5827 15.1487 13.152 15.032 13.796 15.032C14.4493 15.032 15.0187 15.1487 15.504 15.382C15.9987 15.6153 16.386 15.942 16.666 16.362C16.9553 16.7727 17.1047 17.2673 17.114 17.846H15.322C15.3127 17.6033 15.2473 17.3793 15.126 17.174C15.0047 16.9593 14.8273 16.7867 14.594 16.656C14.37 16.516 14.0947 16.446 13.768 16.446C13.488 16.4367 13.236 16.4833 13.012 16.586C12.7973 16.6793 12.6247 16.8193 12.494 17.006C12.3727 17.1833 12.312 17.4073 12.312 17.678C12.312 17.9393 12.368 18.1587 12.48 18.336C12.6013 18.504 12.774 18.6487 12.998 18.77C13.222 18.882 13.4833 18.9893 13.782 19.092C14.0807 19.1947 14.4073 19.3067 14.762 19.428C15.2473 19.5867 15.686 19.7827 16.078 20.016C16.4793 20.24 16.7967 20.534 17.03 20.898C17.2633 21.262 17.38 21.7333 17.38 22.312C17.38 22.816 17.2493 23.2873 16.988 23.726C16.7267 24.1553 16.344 24.5053 15.84 24.776C15.336 25.0373 14.706 25.168 13.95 25.168ZM19.0135 25V15.2H21.0015L24.1375 21.528L27.2455 15.2H29.2475V25H27.5675V18.084L24.7955 23.628H23.4795L20.6935 18.098V25H19.0135Z" fill="#2D2D2D"/>
</svg>
