<svg width="40" height="40" viewBox="0 0 40 40" fill="none" xmlns="http://www.w3.org/2000/svg">
<rect width="40" height="40" rx="20" fill="#DCDCDC"/>
<path d="M16.284 25.168C15.5747 25.168 14.9447 25.042 14.394 24.79C13.8433 24.538 13.414 24.1787 13.106 23.712C12.798 23.2453 12.6393 22.69 12.63 22.046H14.408C14.408 22.3727 14.4827 22.6667 14.632 22.928C14.7907 23.18 15.0053 23.3807 15.276 23.53C15.556 23.6793 15.892 23.754 16.284 23.754C16.62 23.754 16.9093 23.7027 17.152 23.6C17.404 23.488 17.5953 23.334 17.726 23.138C17.866 22.9327 17.936 22.6947 17.936 22.424C17.936 22.116 17.8613 21.864 17.712 21.668C17.572 21.4627 17.376 21.29 17.124 21.15C16.872 21.01 16.5827 20.8887 16.256 20.786C15.9293 20.674 15.584 20.5573 15.22 20.436C14.4453 20.1747 13.862 19.8433 13.47 19.442C13.078 19.0313 12.882 18.4853 12.882 17.804C12.882 17.2347 13.0173 16.7447 13.288 16.334C13.5587 15.9233 13.9367 15.606 14.422 15.382C14.9167 15.1487 15.486 15.032 16.13 15.032C16.7833 15.032 17.3527 15.1487 17.838 15.382C18.3327 15.6153 18.72 15.942 19 16.362C19.2893 16.7727 19.4387 17.2673 19.448 17.846H17.656C17.6467 17.6033 17.5813 17.3793 17.46 17.174C17.3387 16.9593 17.1613 16.7867 16.928 16.656C16.704 16.516 16.4287 16.446 16.102 16.446C15.822 16.4367 15.57 16.4833 15.346 16.586C15.1313 16.6793 14.9587 16.8193 14.828 17.006C14.7067 17.1833 14.646 17.4073 14.646 17.678C14.646 17.9393 14.702 18.1587 14.814 18.336C14.9353 18.504 15.108 18.6487 15.332 18.77C15.556 18.882 15.8173 18.9893 16.116 19.092C16.4147 19.1947 16.7413 19.3067 17.096 19.428C17.5813 19.5867 18.02 19.7827 18.412 20.016C18.8133 20.24 19.1307 20.534 19.364 20.898C19.5973 21.262 19.714 21.7333 19.714 22.312C19.714 22.816 19.5833 23.2873 19.322 23.726C19.0607 24.1553 18.678 24.5053 18.174 24.776C17.67 25.0373 17.04 25.168 16.284 25.168ZM23.4157 25V21.472L20.1537 15.2H22.0577L24.4517 20.184H24.0877L26.4817 15.2H28.3717L25.0957 21.472V25H23.4157Z" fill="#555555"/>
</svg>
