<svg width="40" height="40" viewBox="0 0 40 40" fill="none" xmlns="http://www.w3.org/2000/svg">
<rect width="40" height="40" rx="20" fill="#DCDCDC"/>
<path d="M12.614 25L12.278 13.288H14.518L14.854 25H12.614ZM12.518 29.944L12.246 28.824C12.6193 28.76 12.8967 28.7067 13.078 28.664C13.27 28.6213 13.4727 28.5733 13.686 28.52L13.526 28.92C13.2487 28.824 12.982 28.632 12.726 28.344C12.4807 28.0667 12.358 27.7467 12.358 27.384C12.358 27 12.4433 26.6907 12.614 26.456C12.7847 26.2213 13.0033 26.0507 13.27 25.944C13.5367 25.8373 13.814 25.784 14.102 25.784C14.262 25.784 14.4113 25.7947 14.55 25.816C14.6993 25.8373 14.8327 25.8693 14.95 25.912L14.822 27.064C14.7153 27.0427 14.6087 27.0213 14.502 27C14.3953 26.9787 14.278 26.968 14.15 26.968C14.0113 26.968 13.8833 27.0107 13.766 27.096C13.6593 27.192 13.606 27.304 13.606 27.432C13.606 27.6133 13.67 27.7733 13.798 27.912C13.926 28.0507 14.0753 28.1573 14.246 28.232C14.4273 28.3173 14.5767 28.3653 14.694 28.376L13.814 28.472C14.102 28.3973 14.374 28.3173 14.63 28.232C14.886 28.1573 15.126 28.0773 15.35 27.992L15.67 29.064C15.4033 29.16 15.0887 29.2613 14.726 29.368C14.374 29.4853 14.006 29.592 13.622 29.688C13.2487 29.784 12.8807 29.8693 12.518 29.944ZM17.613 25.08C17.2503 25.08 16.957 24.968 16.733 24.744C16.509 24.52 16.397 24.2533 16.397 23.944C16.397 23.6133 16.509 23.336 16.733 23.112C16.957 22.888 17.2503 22.776 17.613 22.776C17.965 22.776 18.253 22.888 18.477 23.112C18.701 23.336 18.813 23.6133 18.813 23.944C18.813 24.2533 18.701 24.52 18.477 24.744C18.253 24.968 17.965 25.08 17.613 25.08ZM20.0502 24.36L20.8342 22.328C21.2289 22.4987 21.6076 22.6267 21.9702 22.712C22.3329 22.7973 22.6956 22.84 23.0582 22.84C23.4316 22.84 23.7409 22.808 23.9862 22.744C24.2422 22.6693 24.4342 22.5627 24.5622 22.424C24.6902 22.2853 24.7542 22.12 24.7542 21.928C24.7542 21.7467 24.6956 21.496 24.5782 21.176C24.4716 20.856 24.2742 20.44 23.9862 19.928C23.6982 19.4053 23.2769 18.76 22.7222 17.992L24.6262 16.728C25.1382 17.4533 25.5809 18.1627 25.9542 18.856C26.3276 19.5387 26.6156 20.1787 26.8182 20.776C27.0316 21.3627 27.1382 21.88 27.1382 22.328C27.1382 22.8827 26.9889 23.368 26.6902 23.784C26.4022 24.1893 25.9702 24.5093 25.3942 24.744C24.8289 24.9787 24.1302 25.096 23.2982 25.096C22.9889 25.096 22.6422 25.0693 22.2582 25.016C21.8742 24.9627 21.4849 24.8827 21.0902 24.776C20.7062 24.6693 20.3596 24.5307 20.0502 24.36Z" fill="#2D2D2D"/>
</svg>
