<svg width="32" height="32" viewBox="0 0 32 32" fill="none" xmlns="http://www.w3.org/2000/svg">
<path d="M27.1126 26.04L23.9126 19.64C23.8461 19.508 23.7444 19.3971 23.6187 19.3194C23.493 19.2418 23.3483 19.2004 23.2006 19.2H16.8006V15.936C18.2018 15.7337 19.4745 15.0082 20.3624 13.9054C21.2503 12.8027 21.6876 11.4045 21.5862 9.99238C21.4848 8.58023 20.8523 7.25888 19.8159 6.29428C18.7796 5.32968 17.4163 4.79341 16.0006 4.79341C14.5848 4.79341 13.2215 5.32968 12.1852 6.29428C11.1488 7.25888 10.5163 8.58023 10.4149 9.99238C10.3135 11.4045 10.7508 12.8027 11.6387 13.9054C12.5266 15.0082 13.7993 15.7337 15.2006 15.936V19.2H8.80056C8.65282 19.2004 8.5081 19.2418 8.38243 19.3194C8.25675 19.3971 8.15504 19.508 8.08856 19.64L4.88856 26.04C4.82719 26.1618 4.79797 26.2972 4.80368 26.4335C4.80939 26.5697 4.84983 26.7022 4.92117 26.8185C4.99251 26.9347 5.09237 27.0308 5.21128 27.0975C5.33018 27.1643 5.46419 27.1996 5.60056 27.2H26.4006C26.5369 27.1996 26.6709 27.1643 26.7898 27.0975C26.9087 27.0308 27.0086 26.9347 27.0799 26.8185C27.1513 26.7022 27.1917 26.5697 27.1974 26.4335C27.2031 26.2972 27.1739 26.1618 27.1126 26.04ZM12.0006 10.4C12.0006 9.60885 12.2352 8.83549 12.6747 8.17769C13.1142 7.5199 13.7389 7.00721 14.4698 6.70446C15.2007 6.40171 16.005 6.32249 16.7809 6.47683C17.5568 6.63117 18.2696 7.01214 18.829 7.57155C19.3884 8.13096 19.7694 8.84369 19.9237 9.61961C20.078 10.3955 19.9988 11.1998 19.6961 11.9307C19.3933 12.6616 18.8806 13.2863 18.2228 13.7259C17.565 14.1654 16.7917 14.4 16.0006 14.4C14.9397 14.4 13.9223 13.9785 13.1721 13.2284C12.422 12.4783 12.0006 11.4608 12.0006 10.4ZM6.89656 25.6L9.29656 20.8H15.2006V23.2C15.2006 23.4121 15.2848 23.6156 15.4349 23.7657C15.5849 23.9157 15.7884 24 16.0006 24C16.2127 24 16.4162 23.9157 16.5662 23.7657C16.7163 23.6156 16.8006 23.4121 16.8006 23.2V20.8H22.7046L25.1046 25.6H6.89656Z" fill="#4A5565"/>
</svg>
