<svg width="32" height="32" viewBox="0 0 32 32" fill="none" xmlns="http://www.w3.org/2000/svg">
<path d="M24.2394 28.8H9.75938C9.55938 28.8 9.35938 28.64 9.35938 28.4V5.43999C9.35938 5.23999 9.51937 5.03999 9.75938 5.03999H24.2794C24.4794 5.03999 24.6794 5.19999 24.6794 5.43999V28.4C24.6394 28.64 24.4794 28.8 24.2394 28.8ZM10.1194 28.04H23.8394V5.83999H10.1194V28.04Z" fill="#A53B7B"/>
<path d="M9.75893 28.8002H6.79893C6.59893 28.8002 6.39893 28.6402 6.39893 28.4002V16.5202C6.39893 16.3202 6.55893 16.1202 6.79893 16.1202H9.75893C9.95893 16.1202 10.1589 16.2802 10.1589 16.5202C10.1589 16.7602 9.99893 16.9202 9.75893 16.9202H7.19893V28.0402H9.75893C9.95893 28.0402 10.1589 28.2002 10.1589 28.4402C10.1189 28.6402 9.95893 28.8002 9.75893 28.8002Z" fill="#A53B7B"/>
<path d="M13.6791 11H11.5191C11.3191 11 11.1191 10.84 11.1191 10.6V7.99999C11.1191 7.79999 11.2791 7.59999 11.5191 7.59999H13.6791C13.8791 7.59999 14.0791 7.75999 14.0791 7.99999V10.6C14.0391 10.84 13.8791 11 13.6791 11ZM11.8791 10.24H13.2791V8.39999H11.8791V10.24Z" fill="#A53B7B"/>
<path d="M17.9992 11H15.8392C15.6392 11 15.4392 10.84 15.4392 10.6V7.99999C15.4392 7.79999 15.5992 7.59999 15.8392 7.59999H17.9992C18.1992 7.59999 18.3992 7.75999 18.3992 7.99999V10.6C18.3592 10.84 18.1992 11 17.9992 11ZM16.1992 10.24H17.5992V8.39999H16.1992V10.24Z" fill="#A53B7B"/>
<path d="M22.3193 11H20.1593C19.9593 11 19.7593 10.84 19.7593 10.6V7.99999C19.7593 7.79999 19.9193 7.59999 20.1593 7.59999H22.3193C22.5193 7.59999 22.7193 7.75999 22.7193 7.99999V10.6C22.6793 10.84 22.5193 11 22.3193 11ZM20.5193 10.24H21.9193V8.39999H20.5193V10.24Z" fill="#A53B7B"/>
<path d="M13.6791 16.4H11.5191C11.3191 16.4 11.1191 16.24 11.1191 16V13.4C11.1191 13.2 11.2791 13 11.5191 13H13.6791C13.8791 13 14.0791 13.16 14.0791 13.4V16C14.0391 16.2 13.8791 16.4 13.6791 16.4ZM11.8791 15.6H13.2791V13.8H11.8791V15.6Z" fill="#A53B7B"/>
<path d="M17.9992 16.4H15.8392C15.6392 16.4 15.4392 16.24 15.4392 16V13.4C15.4392 13.2 15.5992 13 15.8392 13H17.9992C18.1992 13 18.3992 13.16 18.3992 13.4V16C18.3592 16.2 18.1992 16.4 17.9992 16.4ZM16.1992 15.6H17.5992V13.8H16.1992V15.6Z" fill="#A53B7B"/>
<path d="M22.3193 16.4H20.1593C19.9593 16.4 19.7593 16.24 19.7593 16V13.4C19.7593 13.2 19.9193 13 20.1593 13H22.3193C22.5193 13 22.7193 13.16 22.7193 13.4V16C22.6793 16.2 22.5193 16.4 22.3193 16.4ZM20.5193 15.6H21.9193V13.8H20.5193V15.6Z" fill="#A53B7B"/>
<path d="M13.6791 21.76H11.5191C11.3191 21.76 11.1191 21.6 11.1191 21.36V18.8C11.1191 18.6 11.2791 18.4 11.5191 18.4H13.6791C13.8791 18.4 14.0791 18.56 14.0791 18.8V21.4C14.0391 21.6 13.8791 21.76 13.6791 21.76ZM11.8791 21H13.2791V19.2H11.8791V21Z" fill="#A53B7B"/>
<path d="M17.9992 21.76H15.8392C15.6392 21.76 15.4392 21.6 15.4392 21.36V18.8C15.4392 18.6 15.5992 18.4 15.8392 18.4H17.9992C18.1992 18.4 18.3992 18.56 18.3992 18.8V21.4C18.3592 21.6 18.1992 21.76 17.9992 21.76ZM16.1992 21H17.5992V19.2H16.1992V21Z" fill="#A53B7B"/>
<path d="M22.3193 21.76H20.1593C19.9593 21.76 19.7593 21.6 19.7593 21.36V18.8C19.7593 18.6 19.9193 18.4 20.1593 18.4H22.3193C22.5193 18.4 22.7193 18.56 22.7193 18.8V21.4C22.6793 21.6 22.5193 21.76 22.3193 21.76ZM20.5193 21H21.9193V19.2H20.5193V21Z" fill="#A53B7B"/>
<path d="M13.6791 27.12H11.5191C11.3191 27.12 11.1191 26.96 11.1191 26.72V24.12C11.1191 23.92 11.2791 23.72 11.5191 23.72H13.6791C13.8791 23.72 14.0791 23.88 14.0791 24.12V26.72C14.0391 26.96 13.8791 27.12 13.6791 27.12ZM11.8791 26.36H13.2791V24.56H11.8791V26.36Z" fill="#A53B7B"/>
<path d="M17.9992 27.12H15.8392C15.6392 27.12 15.4392 26.96 15.4392 26.72V24.12C15.4392 23.92 15.5992 23.72 15.8392 23.72H17.9992C18.1992 23.72 18.3992 23.88 18.3992 24.12V26.72C18.3592 26.96 18.1992 27.12 17.9992 27.12ZM16.1992 26.36H17.5992V24.56H16.1992V26.36Z" fill="#A53B7B"/>
<path d="M22.4393 28.8C22.2393 28.8 22.0393 28.64 22.0393 28.4V24.52H20.1193V28.4C20.1193 28.6 19.9593 28.8 19.7193 28.8C19.5193 28.8 19.3193 28.64 19.3193 28.4V24.16C19.3193 23.96 19.4793 23.76 19.7193 23.76H22.3993C22.5993 23.76 22.7993 23.92 22.7993 24.16V28.4C22.8393 28.64 22.6793 28.8 22.4393 28.8Z" fill="#A53B7B"/>
<path d="M20.7588 5.83998C20.5588 5.83998 20.3588 5.67998 20.3588 5.43998V3.95998H13.5988V5.43998C13.5988 5.63998 13.4388 5.83998 13.1988 5.83998C12.9988 5.83998 12.7988 5.67998 12.7988 5.43998V3.59998C12.7988 3.39998 12.9588 3.19998 13.1988 3.19998H20.7588C20.9588 3.19998 21.1588 3.35998 21.1588 3.59998V5.43998C21.1588 5.63998 20.9988 5.83998 20.7588 5.83998Z" fill="#A53B7B"/>
</svg>
