<svg width="32" height="32" viewBox="0 0 32 32" fill="none" xmlns="http://www.w3.org/2000/svg">
<path d="M26.6666 26.6667H5.33325" stroke="#448398" stroke-width="1.6" stroke-linecap="round"/>
<path d="M5.33325 14.9332L14.0009 7.99911C15.1696 7.06416 16.8302 7.06416 17.999 7.99911L26.6666 14.9332" stroke="#448398" stroke-width="1.6" stroke-linecap="round"/>
<path d="M19.7334 9.06665V6.93331C19.7334 6.63876 19.9722 6.39998 20.2667 6.39998H22.9334C23.2279 6.39998 23.4667 6.63876 23.4667 6.93331V12.2666" stroke="#448398" stroke-width="1.6" stroke-linecap="round"/>
<path d="M7.46655 26.6666V13.3333" stroke="#448398" stroke-width="1.6" stroke-linecap="round"/>
<path d="M24.5334 26.6666V13.3333" stroke="#448398" stroke-width="1.6" stroke-linecap="round"/>
<path d="M19.2 26.6666V21.3333C19.2 19.8248 19.2 19.0706 18.7315 18.6019C18.2628 18.1333 17.5085 18.1333 16 18.1333C14.4916 18.1333 13.7373 18.1333 13.2687 18.6019C12.8 19.0706 12.8 19.8248 12.8 21.3333V26.6666" stroke="#448398" stroke-width="1.6"/>
<path d="M18.1334 13.3333C18.1334 14.5116 17.1783 15.4666 16 15.4666C14.8218 15.4666 13.8667 14.5116 13.8667 13.3333C13.8667 12.1551 14.8218 11.2 16 11.2C17.1783 11.2 18.1334 12.1551 18.1334 13.3333Z" stroke="#448398" stroke-width="1.6"/>
</svg>
