<svg width="32" height="32" viewBox="0 0 32 32" fill="none" xmlns="http://www.w3.org/2000/svg">
<path d="M5.68183 23.6627C5.54113 23.5907 5.3776 23.5773 5.22707 23.6256C5.07654 23.6739 4.95132 23.7799 4.87885 23.9204V23.9205C4.82498 24.0254 4.80342 24.1438 4.81689 24.261C4.83036 24.3781 4.87825 24.4886 4.95451 24.5785C5.03076 24.6684 5.13197 24.7337 5.24532 24.7661C5.35867 24.7985 5.47909 24.7965 5.59134 24.7605C5.70359 24.7245 5.80263 24.656 5.87595 24.5636C5.94928 24.4713 5.99358 24.3593 6.00326 24.2418C6.01295 24.1244 5.98758 24.0066 5.93037 23.9035C5.87315 23.8005 5.78666 23.7167 5.68183 23.6627Z" fill="#3A8E6B"/>
<path d="M7.20154 24.6416C7.08927 24.6777 6.99021 24.7463 6.91689 24.8386C6.84357 24.931 6.79928 25.043 6.78961 25.1605C6.77994 25.2781 6.80532 25.3958 6.86256 25.4989C6.91979 25.602 7.00631 25.6858 7.11117 25.7398C7.21603 25.7937 7.33453 25.8154 7.45169 25.802C7.56885 25.7886 7.67941 25.7408 7.7694 25.6646C7.85939 25.5884 7.92477 25.4872 7.95728 25.3738C7.98978 25.2605 7.98795 25.14 7.95202 25.0277C7.92811 24.9531 7.88973 24.8839 7.83907 24.8241C7.78841 24.7643 7.72646 24.7151 7.65677 24.6792C7.58707 24.6433 7.511 24.6216 7.43289 24.6151C7.35478 24.6087 7.27616 24.6177 7.20154 24.6416Z" fill="#3A8E6B"/>
<path d="M15.5696 15.3049C15.6157 15.3606 15.6732 15.4057 15.7384 15.437C15.8035 15.4683 15.8747 15.4851 15.9469 15.4863C16.0192 15.4875 16.0909 15.4729 16.157 15.4438C16.2231 15.4146 16.2821 15.3714 16.3299 15.3172C16.4775 15.1499 19.9521 11.1987 20.6027 9.2923C21.3549 7.08814 21.212 5.28699 20.1778 3.93888C18.9994 2.40256 16.9421 1.93802 15.9216 2.00654C13.9944 2.13544 12.5883 2.84025 11.7427 4.10136C10.7627 5.56284 10.7746 7.56483 11.2211 8.90055C11.8555 10.7981 15.4182 15.1218 15.5696 15.3049ZM12.5733 4.6583C13.2373 3.66794 14.3864 3.11146 15.9884 3.00431C17.0147 2.93553 18.5764 3.4942 19.3844 4.54752C20.2023 5.61371 20.2937 7.10142 19.6563 8.9693C19.2246 10.234 17.1147 12.864 15.9669 14.209C14.7915 12.7461 12.5962 9.85981 12.1695 8.5835C11.8941 7.75986 11.6693 6.00629 12.5733 4.6583Z" fill="#3A8E6B"/>
<path d="M28.3525 19.3169C18.4724 14.9141 20.2708 15.7252 18.4603 14.8833C18.4007 14.8556 18.3363 14.8398 18.2707 14.837C18.205 14.8342 18.1395 14.8443 18.0778 14.8668C18.0161 14.8893 17.9594 14.9238 17.911 14.9682C17.8626 15.0126 17.8234 15.0662 17.7957 15.1257C17.768 15.1853 17.7524 15.2497 17.7496 15.3154C17.7468 15.381 17.757 15.4465 17.7795 15.5082C17.8021 15.5699 17.8366 15.6266 17.881 15.6749C17.9255 15.7233 17.979 15.7624 18.0386 15.7901L18.423 15.9688L16.0044 17.2113L13.4835 15.9163L13.8746 15.7329C13.9341 15.7051 13.9876 15.6658 14.0319 15.6173C14.0762 15.5688 14.1106 15.5121 14.133 15.4503C14.1553 15.3885 14.1653 15.323 14.1624 15.2573C14.1594 15.1917 14.1435 15.1273 14.1156 15.0678C14.0877 15.0083 14.0484 14.9549 13.9998 14.9106C13.9513 14.8663 13.8945 14.832 13.8327 14.8097C13.7709 14.7874 13.7053 14.7775 13.6397 14.7805C13.5741 14.7836 13.5097 14.7995 13.4502 14.8275L3.63446 19.323C3.54746 19.3631 3.47373 19.4272 3.42192 19.5078C3.37012 19.5884 3.34241 19.6821 3.34204 19.7779V23.3241C3.34204 23.4567 3.39472 23.5838 3.48849 23.6776C3.58226 23.7714 3.70943 23.8241 3.84204 23.8241C3.97465 23.8241 4.10183 23.7714 4.19559 23.6776C4.28936 23.5838 4.34204 23.4567 4.34204 23.3241V20.5969L15.3637 26.259V28.681L9.50433 25.6709C9.44593 25.6408 9.38217 25.6226 9.31671 25.6172C9.25125 25.6118 9.18537 25.6193 9.12283 25.6394C9.0603 25.6595 9.00233 25.6917 8.95223 25.7342C8.90214 25.7767 8.86091 25.8286 8.8309 25.887C8.80089 25.9454 8.78269 26.0092 8.77733 26.0747C8.77197 26.1401 8.77956 26.206 8.79966 26.2685C8.81977 26.3311 8.852 26.389 8.89451 26.4391C8.93702 26.4891 8.98898 26.5303 9.04742 26.5603L15.6353 29.9447C15.7054 29.9803 15.7828 29.999 15.8614 29.9994C15.9401 29.9997 16.0177 29.9817 16.0881 29.9468L28.383 23.7709C28.4658 23.7293 28.5355 23.6654 28.5841 23.5865C28.6328 23.5076 28.6586 23.4168 28.6586 23.3241V19.7779C28.658 19.6796 28.6288 19.5836 28.5744 19.5017C28.52 19.4198 28.4429 19.3556 28.3525 19.3169ZM15.8663 25.393L13.0243 23.933L16.0123 22.3979L18.8817 23.8783L15.8663 25.393ZM9.06655 21.8998L12.063 20.3604L14.9205 21.8346L11.9301 23.3709L9.06655 21.8998ZM19.5761 16.5006L22.643 17.8674L19.9622 19.2446L17.0986 17.7734L19.5761 16.5006ZM16.0044 18.3355L18.868 19.8067L16.0133 21.2732L13.1558 19.799L16.0044 18.3355ZM19.9868 23.3232L17.1051 21.8365L19.9622 20.3688L22.8821 21.8688L19.9868 23.3232ZM23.9885 21.313L21.0563 19.8067L23.8148 18.3896L26.9908 19.8049L23.9885 21.313ZM14.9103 17.7734L12.064 19.2357L9.32781 17.8241L12.3364 16.4511L14.9103 17.7734ZM8.1705 18.3522L10.9712 19.7971L7.97241 21.3377L4.98804 19.8045L8.1705 18.3522ZM16.3637 28.6893V26.2622L27.6586 20.5886V23.0157L16.3637 28.6893Z" fill="#3A8E6B"/>
<path d="M16.0001 9.24318C16.4129 9.24319 16.8164 9.12078 17.1597 8.89143C17.5029 8.66208 17.7705 8.3361 17.9284 7.95471C18.0864 7.57331 18.1278 7.15364 18.0472 6.74875C17.9667 6.34386 17.7679 5.97194 17.476 5.68003C17.1841 5.38812 16.8122 5.18933 16.4073 5.10879C16.0024 5.02825 15.5827 5.06958 15.2013 5.22756C14.8199 5.38554 14.494 5.65307 14.2646 5.99631C14.0353 6.33956 13.9128 6.74311 13.9128 7.15593C13.9135 7.70931 14.1336 8.23984 14.5249 8.63114C14.9162 9.02244 15.4467 9.24255 16.0001 9.24318ZM16.0001 6.06868C16.2151 6.06867 16.4253 6.13244 16.6041 6.2519C16.7829 6.37137 16.9223 6.54117 17.0046 6.73984C17.0869 6.93851 17.1084 7.15712 17.0665 7.36802C17.0245 7.57893 16.921 7.77266 16.7689 7.92472C16.6169 8.07678 16.4231 8.18033 16.2122 8.22229C16.0013 8.26424 15.7827 8.24271 15.584 8.16042C15.3854 8.07813 15.2155 7.93878 15.0961 7.75998C14.9766 7.58118 14.9128 7.37097 14.9128 7.15593C14.9132 6.86768 15.0278 6.59132 15.2316 6.3875C15.4355 6.18367 15.7118 6.06901 16.0001 6.06868Z" fill="#3A8E6B"/>
</svg>
