<svg width="24" height="24" viewBox="0 0 24 24" fill="none" xmlns="http://www.w3.org/2000/svg">
<path fill-rule="evenodd" clip-rule="evenodd" d="M13.9922 6.69675L17.1741 3.51477L20.3561 6.69675L19.2955 7.75741L17.9241 6.38609V17.6141L19.2955 16.2427L20.3561 17.3034L17.1741 20.4854L13.9922 17.3034L15.0528 16.2427L16.4241 17.6141V6.38609L15.0528 7.75741L13.9922 6.69675Z" fill="#447158"/>
<path fill-rule="evenodd" clip-rule="evenodd" d="M3.75 4.5L4.5 3.75H12L12.75 4.5V19.5L12 20.25H4.5L3.75 19.5V4.5ZM5.25 5.25V18.75H11.25V17.25H8.25V15.75H11.25V14.25H8.25V12.75H11.25V11.25H7.5V9.75H11.25V8.25H8.25V6.75H11.25V5.25H5.25Z" fill="#447158"/>
</svg>
