<svg width="24" height="24" viewBox="0 0 24 24" fill="none" xmlns="http://www.w3.org/2000/svg">
<path d="M11.6 21.2C16.9019 21.2 21.2 16.902 21.2 11.6C21.2 6.29806 16.9019 2 11.6 2C6.29806 2 2 6.29806 2 11.6C2 16.902 6.29806 21.2 11.6 21.2Z" stroke="#447158" stroke-width="1.44" stroke-linecap="round" stroke-linejoin="round"/>
<path d="M12.2725 15.6228V16.6789C12.2725 16.8495 12.2047 17.0132 12.0842 17.1338C11.9635 17.2545 11.7999 17.322 11.6293 17.322C11.4587 17.322 11.2951 17.2545 11.1746 17.1338C11.0539 17.0132 10.9861 16.8495 10.9861 16.6789V15.5942C10.5602 15.5243 10.1523 15.3703 9.78649 15.1412C9.42057 14.9121 9.10391 14.6124 8.85494 14.2596C8.76426 14.1445 8.7137 14.003 8.71094 13.8565C8.71085 13.7734 8.72763 13.6909 8.76029 13.6144C8.79295 13.538 8.84081 13.4689 8.90095 13.4115C8.96109 13.3541 9.03226 13.3093 9.11015 13.2803C9.18806 13.2511 9.27107 13.2381 9.35414 13.242C9.43658 13.2416 9.5181 13.2594 9.5928 13.2943C9.66752 13.3291 9.7335 13.3804 9.78611 13.4438C10.0932 13.845 10.51 14.1484 10.9861 14.3173V11.8789C9.70931 11.3797 9.06614 10.6308 9.06614 9.66125C9.08538 9.14218 9.2894 8.64704 9.64143 8.26508C9.99347 7.88313 10.4703 7.63956 10.9861 7.57813V6.52203C10.9861 6.35145 11.0539 6.18797 11.1746 6.06734C11.2951 5.94672 11.4587 5.87891 11.6293 5.87891C11.7999 5.87891 11.9635 5.94672 12.0842 6.06734C12.2047 6.18797 12.2725 6.35145 12.2725 6.52203V7.56852C12.6297 7.62449 12.9721 7.75193 13.2789 7.94328C13.5857 8.13463 13.8507 8.38586 14.0581 8.68203C14.1496 8.79 14.2035 8.92493 14.2117 9.06614C14.2143 9.14842 14.2003 9.2303 14.1706 9.3071C14.1409 9.3839 14.096 9.45398 14.0387 9.51312C13.9814 9.57226 13.9128 9.6191 13.8369 9.65117C13.7612 9.68323 13.6797 9.69974 13.5973 9.69965C13.5113 9.69917 13.4264 9.68016 13.3486 9.64368C13.2707 9.6072 13.2016 9.55421 13.1461 9.48854C12.9172 9.20256 12.6154 8.98378 12.2725 8.85504V11.015L12.5125 11.1108C13.7317 11.5908 14.4901 12.2821 14.4901 13.3765C14.4759 13.9629 14.2385 14.5217 13.8265 14.9391C13.4144 15.3565 12.8587 15.601 12.2725 15.6228ZM10.9861 10.4581V8.89325C10.8312 8.94941 10.6978 9.0529 10.6048 9.18902C10.5119 9.32506 10.4639 9.48691 10.4677 9.65165C10.4661 9.82195 10.5144 9.98909 10.6064 10.1323C10.6986 10.2756 10.8305 10.3889 10.9861 10.4581ZM13.0885 13.4053C13.0885 12.9445 12.7717 12.6661 12.2725 12.4453V14.3653C12.5015 14.3307 12.7101 14.2143 12.86 14.038C13.01 13.8615 13.0912 13.6369 13.0885 13.4053Z" fill="#447158"/>
</svg>
