<svg width="24" height="24" viewBox="0 0 24 24" fill="none" xmlns="http://www.w3.org/2000/svg">
<path d="M3.07227 3.0957C5.694 0.863076 9.23678 1.55663 11.4307 4.11328C11.5731 4.27933 11.7812 4.375 12 4.375C12.2188 4.375 12.4269 4.27933 12.5693 4.11328C14.7578 1.56295 18.2385 0.881991 20.9189 3.10254C23.6568 5.37089 23.9925 9.21743 21.875 11.9336C20.9346 13.1397 19.0011 15.0583 17.0215 16.9209C15.0565 18.7698 13.092 20.5208 12.1211 21.3779C12.069 21.4239 12.027 21.4595 11.9912 21.4902C11.9556 21.4596 11.915 21.4236 11.8633 21.3779C10.8925 20.5209 8.92726 18.7701 6.96191 16.9209C4.98223 15.0582 3.0487 13.1396 2.1084 11.9336C-0.00243087 9.22595 0.368251 5.39876 3.07227 3.0957Z" stroke="white" stroke-width="1.5" stroke-linecap="round" stroke-linejoin="round"/>
</svg>
