<svg width="24" height="24" viewBox="0 0 24 24" fill="none" xmlns="http://www.w3.org/2000/svg">
<path fill-rule="evenodd" clip-rule="evenodd" d="M13.9922 6.69663L17.1741 3.51465L20.3561 6.69663L19.2955 7.75729L17.9241 6.38597V17.6139L19.2955 16.2425L20.3561 17.3032L17.1741 20.4852L13.9922 17.3032L15.0528 16.2425L16.4241 17.6139V6.38597L15.0528 7.75729L13.9922 6.69663Z" fill="#737678"/>
<path fill-rule="evenodd" clip-rule="evenodd" d="M3.75 4.5L4.5 3.75H12L12.75 4.5V19.5L12 20.25H4.5L3.75 19.5V4.5ZM5.25 5.25V18.75H11.25V17.25H8.25V15.75H11.25V14.25H8.25V12.75H11.25V11.25H7.5V9.75H11.25V8.25H8.25V6.75H11.25V5.25H5.25Z" fill="#737678"/>
</svg>
