<svg width="24" height="24" viewBox="0 0 24 24" fill="none" xmlns="http://www.w3.org/2000/svg">
<g clip-path="url(#clip0_208_63062)">
<path d="M12 0.541027C18.3096 0.541042 23.4588 5.68886 23.459 12C23.459 18.3098 18.3097 23.46 12 23.46C5.68892 23.46 0.541016 18.3099 0.541016 12C0.541204 5.68881 5.68899 0.541078 12 0.541027Z" stroke="white" stroke-width="1.08202" stroke-miterlimit="10" stroke-linecap="round" stroke-linejoin="round"/>
<path d="M7.55664 1.3128C8.7591 2.20202 9.74762 3.48849 10.1865 5.81964C10.2281 6.04017 10.4332 6.19122 10.6562 6.16632C11.1359 6.11271 11.5625 5.91074 11.9355 5.69171C12.1229 5.58171 12.3055 5.46186 12.4775 5.34894C12.6529 5.23387 12.8178 5.12565 12.9814 5.02862C13.3115 4.83297 13.5991 4.70679 13.8779 4.67804C14.1394 4.65114 14.4304 4.70647 14.7812 4.94855C14.7925 4.95628 14.8045 4.96339 14.8164 4.97003C15.8585 5.55113 16.9083 5.52767 17.8936 5.22198C18.7486 4.95664 19.5718 4.47092 20.3301 3.97589C22.3348 6.05639 23.5712 8.88243 23.5713 12.0003C23.5713 12.0432 23.57 12.0874 23.5684 12.1409L23.5674 12.1439C23.5542 12.729 23.4612 13.6761 23.3008 14.4681L19.3906 13.6673C19.2382 13.6361 19.08 13.69 18.9785 13.8079C18.8771 13.9258 18.8478 14.0896 18.9014 14.2357C19.349 15.4557 19.4404 16.3046 19.2832 16.8362C19.2091 17.0866 19.0805 17.2652 18.8984 17.3939C18.7154 17.5231 18.4524 17.6182 18.082 17.6556C16.3732 17.4954 14.626 16.6091 12.8369 14.6663C12.7378 14.5587 12.5904 14.509 12.4463 14.5345C12.3383 14.5536 12.2432 14.6131 12.1787 14.6985L12.125 14.7923C11.7222 15.7607 11.1654 16.145 10.5996 16.6321C10.3159 16.8764 10.0218 17.1559 9.79688 17.5482C9.56938 17.9449 9.42834 18.4281 9.39648 19.0657C9.3953 19.0895 9.39665 19.1134 9.39941 19.137L9.89844 23.3792L9.81934 23.3665L9.79199 23.3607L9.78613 23.3587L9.37891 23.2728C9.24424 23.2417 9.10991 23.2077 8.97754 23.1722L8.95703 23.1663L8.83203 23.5765L8.95703 23.1653L8.94434 23.1624L8.54883 23.0472C8.41767 23.0065 8.28678 22.9634 8.15723 22.9183L8.13574 22.9105L8.13086 22.9085L7.74609 22.764L7.36719 22.6058L7.34277 22.595L7.3418 22.5941C7.09209 22.4853 6.8457 22.3658 6.60449 22.2386H6.60352L6.58789 22.2298L6.58594 22.2288L6.22559 22.0296C6.10837 21.962 5.99254 21.8921 5.87793 21.8206L5.87109 21.8157L5.86035 21.8099L5.51562 21.5843C5.40201 21.5072 5.29014 21.428 5.17969 21.347L5.1748 21.3441L5.16406 21.3362C4.94265 21.1748 4.72696 21.0041 4.51855 20.8265C4.51503 20.8235 4.51143 20.8206 4.50781 20.8177C2.82488 19.387 1.55967 17.4826 0.913086 15.3118L4.46191 12.2181C5.58081 11.9512 6.27227 12.1246 6.9375 12.2386C7.2836 12.2979 7.65632 12.3472 8.05957 12.2728C8.47109 12.1968 8.87589 12.0002 9.31738 11.6351C9.36615 11.5946 9.40577 11.544 9.43262 11.4866C9.93434 10.4141 9.91632 9.04764 9.50391 7.96222C9.09291 6.88074 8.22166 5.93879 6.93359 6.00714L6.8418 6.02179L3.95117 6.82355L2.51074 5.38214C2.65717 5.17226 2.80774 4.96642 2.9668 4.76886C2.96782 4.76759 2.96872 4.76623 2.96973 4.76495C3.03854 4.67964 3.10635 4.59704 3.1748 4.5169L3.17773 4.513L3.18164 4.50909C3.22946 4.45356 3.27501 4.40094 3.32129 4.34894L3.3252 4.34405L3.34082 4.32648C3.40236 4.2576 3.45996 4.19216 3.51855 4.12921C3.53018 4.11758 3.54042 4.10671 3.54492 4.10187C3.55081 4.09553 3.55057 4.09524 3.5498 4.09601L3.55859 4.08722C3.58006 4.0643 3.60245 4.04061 3.62598 4.01593C3.64909 3.99168 3.67382 3.9658 3.69824 3.93976L3.73145 3.90655C3.76027 3.87773 3.78844 3.84896 3.81543 3.82159C3.83904 3.79765 3.86209 3.775 3.88477 3.75226C3.90072 3.73742 3.92625 3.71349 3.95312 3.68585C3.99439 3.64603 4.03623 3.60649 4.08105 3.56476L4.08203 3.56378C4.11957 3.52854 4.12515 3.52142 4.14258 3.50616H4.14355L4.15234 3.49835C4.19377 3.45993 4.23198 3.42435 4.26953 3.39093L4.27246 3.388C4.30194 3.36124 4.33423 3.33344 4.36719 3.30499C4.37069 3.30197 4.37453 3.29836 4.37793 3.29523C4.41901 3.25729 4.42971 3.25091 4.49316 3.19464L4.49219 3.19366C4.52722 3.16448 4.56091 3.13647 4.59082 3.11065C4.62308 3.08418 4.65455 3.05981 4.68555 3.03448L4.69043 3.0296C4.72233 3.00259 4.75706 2.97595 4.7998 2.94269L4.80273 2.94073V2.93976L4.80469 2.93878H4.80566V2.9378H4.80664L4.80762 2.93683L4.80957 2.93487H4.81055V2.9339H4.81152L4.8125 2.93292L4.81348 2.93194L4.81445 2.93097H4.81543L4.81641 2.92999V2.92901H4.81738V2.92804L4.81934 2.92706H4.82031L4.82129 2.92608V2.92511H4.82227L4.82324 2.92413H4.82422V2.92315H4.8252L4.82617 2.92218L4.82812 2.92023H4.8291V2.91925H4.83008L4.83105 2.91827V2.9173H4.83203L4.83301 2.91632H4.83398V2.91534H4.83496L4.83594 2.91437V2.91339L4.83789 2.91241H4.83887L4.83984 2.91144V2.91046H4.84082L4.8418 2.90948L4.84277 2.90851H4.84375L4.84473 2.90753V2.90655H4.8457L4.84668 2.90558H4.84766V2.9046H4.84863V2.90362H4.84961L4.85059 2.90265L4.85156 2.90167H4.85254V2.90069H4.85352L4.85449 2.89972V2.89874L4.85645 2.89776H4.85742L4.8584 2.89679V2.89581H4.85938L4.86035 2.89483L4.86133 2.89386H4.8623V2.89288H4.86328L4.86426 2.8919L4.86523 2.89093H4.86621V2.88995H4.86719V2.88898H4.86816L4.86914 2.888L4.87012 2.88702H4.87109V2.88605H4.87207L4.87305 2.88507V2.88409L4.875 2.88312H4.87598V2.88214H4.87695L4.87793 2.88116L4.87891 2.88019L4.87988 2.87921H4.88086V2.87823H4.88184L4.88281 2.87726L4.88379 2.87628H4.88477V2.8753H4.88574V2.87433H4.88672L4.8877 2.87335L4.88867 2.87237H4.88965V2.8714H4.89062L4.8916 2.87042V2.86944L4.89355 2.86847L4.89453 2.86749H4.89551L4.89648 2.86651V2.86554L4.89844 2.86456H4.89941V2.86358H4.90039L4.90137 2.86261L4.90332 2.86065H4.9043V2.85968H4.90527L4.90625 2.8587L4.90723 2.85773L4.9082 2.85675H4.90918L4.91016 2.85577V2.8548H4.91113L4.91211 2.85382H4.91309V2.85284C4.95362 2.82067 4.99531 2.78902 5.03613 2.75909H5.03711L5.04395 2.75323L5.11816 2.69757C5.16631 2.66186 5.21063 2.62966 5.25391 2.59894L5.25488 2.59796C5.31149 2.55756 5.28803 2.57283 5.34863 2.5296C5.37215 2.51302 5.39713 2.49757 5.42285 2.4798L5.50391 2.42315C5.52912 2.40684 5.55384 2.39119 5.56738 2.38214L5.57129 2.37921C5.6202 2.34566 5.66907 2.31317 5.71777 2.28253L5.72754 2.27569C5.73707 2.26934 5.74746 2.26331 5.76172 2.25421C5.77368 2.24657 5.78854 2.2356 5.80469 2.22491L5.80566 2.22589C5.85972 2.19084 5.91234 2.15724 5.96484 2.12628C5.96949 2.12354 5.97397 2.12041 5.97852 2.11749C5.99254 2.10848 6.0098 2.09866 6.02637 2.08917L6.03516 2.08429C6.09073 2.05066 6.14806 2.01611 6.2041 1.9837L6.20996 1.98077C6.23564 1.96539 6.24851 1.95746 6.25977 1.95148L6.27148 1.94562C6.30246 1.92791 6.33356 1.90937 6.36621 1.89093C6.3985 1.87269 6.43166 1.85326 6.46484 1.83429C6.48057 1.82631 6.49529 1.81844 6.50879 1.81085L6.50977 1.81183C6.58481 1.77256 6.63598 1.7443 6.69629 1.71417L6.70703 1.70831C6.72068 1.70097 6.73363 1.69455 6.75293 1.68487L6.75879 1.68194C6.82482 1.6475 6.89123 1.61479 6.95703 1.58331L6.96387 1.5794C6.96571 1.57849 6.96863 1.5771 6.97852 1.57257C6.98563 1.56931 6.99777 1.5628 7.01172 1.55597L7.0127 1.55694L7.21387 1.46222C7.22285 1.45831 7.23064 1.45509 7.23633 1.45245C7.25023 1.44601 7.25084 1.44585 7.25781 1.44269L7.25879 1.44171C7.3264 1.41076 7.39682 1.38037 7.47168 1.34894V1.34991L7.4834 1.34405C7.5001 1.33645 7.51017 1.33081 7.52051 1.32648L7.52148 1.32745C7.53311 1.32265 7.54496 1.31759 7.55664 1.3128Z" stroke="white" stroke-width="0.858049" stroke-miterlimit="10" stroke-linecap="round" stroke-linejoin="round"/>
</g>
<defs>
<clipPath id="clip0_208_63062">
<rect width="24" height="24" fill="white"/>
</clipPath>
</defs>
</svg>
