<svg width="24" height="24" viewBox="0 0 24 24" fill="none" xmlns="http://www.w3.org/2000/svg">
<path d="M12 0.541016C18.3096 0.54103 23.4588 5.68885 23.459 12C23.459 18.3098 18.3097 23.4599 12 23.46C5.68892 23.46 0.541016 18.3099 0.541016 12C0.541204 5.6888 5.68899 0.541067 12 0.541016Z" stroke="white" stroke-width="1.08202" stroke-miterlimit="10" stroke-linecap="round" stroke-linejoin="round"/>
<path d="M7.55676 1.31279C8.75922 2.20201 9.74774 3.48847 10.1866 5.81963C10.2283 6.04015 10.4333 6.19121 10.6564 6.16631C11.136 6.1127 11.5626 5.91073 11.9357 5.6917C12.123 5.5817 12.3056 5.46185 12.4777 5.34892C12.653 5.23386 12.8179 5.12564 12.9816 5.02861C13.3117 4.83296 13.5993 4.70678 13.8781 4.67803C14.1396 4.65113 14.4305 4.70646 14.7814 4.94853C14.7926 4.95627 14.8046 4.96338 14.8165 4.97002C15.8586 5.55112 16.9084 5.52766 17.8937 5.22197C18.7487 4.95663 19.5719 4.4709 20.3302 3.97588C22.3349 6.05637 23.5714 8.88242 23.5714 12.0003C23.5714 12.0432 23.5701 12.0873 23.5685 12.1409L23.5675 12.1438C23.5543 12.729 23.4613 13.6761 23.3009 14.4681L19.3907 13.6673C19.2383 13.6361 19.0801 13.69 18.9786 13.8079C18.8772 13.9258 18.8479 14.0896 18.9015 14.2356C19.3491 15.4556 19.4405 16.3046 19.2833 16.8362C19.2092 17.0866 19.0806 17.2652 18.8986 17.3938C18.7156 17.5231 18.4525 17.6181 18.0822 17.6556C16.3733 17.4954 14.6262 16.6091 12.837 14.6663C12.7379 14.5587 12.5905 14.509 12.4464 14.5345C12.3384 14.5536 12.2434 14.613 12.1788 14.6985L12.1251 14.7923C11.7224 15.7606 11.1655 16.145 10.5997 16.6321C10.316 16.8764 10.022 17.1559 9.797 17.5481C9.5695 17.9449 9.42846 18.428 9.39661 19.0657C9.39542 19.0895 9.39677 19.1134 9.39954 19.137L9.89856 23.3792L9.81946 23.3665L9.79211 23.3606L9.78625 23.3587L9.37903 23.2728C9.24436 23.2417 9.11003 23.2077 8.97766 23.1722L8.95715 23.1663L8.83215 23.5765L8.95715 23.1653L8.94446 23.1624L8.54895 23.0472C8.4178 23.0065 8.2869 22.9634 8.15735 22.9183L8.13586 22.9104L8.13098 22.9085L7.74622 22.764L7.36731 22.6058L7.3429 22.595L7.34192 22.594C7.09222 22.4853 6.84582 22.3658 6.60461 22.2386H6.60364L6.58801 22.2298L6.58606 22.2288L6.22571 22.0296C6.1085 21.962 5.99266 21.8921 5.87805 21.8206L5.87122 21.8157L5.86047 21.8099L5.51575 21.5843C5.40213 21.5072 5.29026 21.428 5.17981 21.347L5.17493 21.344L5.16418 21.3362C4.94277 21.1748 4.72708 21.0041 4.51868 20.8265C4.51515 20.8235 4.51155 20.8206 4.50793 20.8177C2.825 19.387 1.55979 17.4826 0.913208 15.3118L4.46204 12.2181C5.58093 11.9512 6.27239 12.1246 6.93762 12.2386C7.28372 12.2979 7.65644 12.3472 8.05969 12.2728C8.47121 12.1968 8.87601 12.0002 9.3175 11.6351C9.36627 11.5946 9.4059 11.544 9.43274 11.4866C9.93446 10.4141 9.91644 9.04763 9.50403 7.96221C9.09303 6.88072 8.22178 5.93878 6.93372 6.00713L6.84192 6.02178L3.95129 6.82353L2.51086 5.38213C2.65729 5.17225 2.80786 4.96641 2.96692 4.76885C2.96794 4.76758 2.96884 4.76622 2.96985 4.76494C3.03867 4.67962 3.10648 4.59702 3.17493 4.51689L3.17786 4.51299L3.18176 4.50908C3.22958 4.45355 3.27513 4.40093 3.32141 4.34892L3.32532 4.34404L3.34094 4.32646C3.40249 4.25759 3.46008 4.19215 3.51868 4.1292C3.5303 4.11757 3.54054 4.1067 3.54504 4.10185C3.55093 4.09552 3.55069 4.09523 3.54993 4.09599L3.55872 4.08721C3.58018 4.06429 3.60257 4.0406 3.6261 4.01592C3.64922 3.99166 3.67394 3.96579 3.69836 3.93974L3.73157 3.90654C3.76039 3.87772 3.78856 3.84895 3.81555 3.82158C3.83917 3.79764 3.86221 3.77498 3.88489 3.75224C3.90085 3.7374 3.92637 3.71348 3.95325 3.68584C3.99451 3.64602 4.03636 3.60648 4.08118 3.56474L4.08215 3.56377C4.11969 3.52853 4.12528 3.52141 4.1427 3.50615H4.14368L4.15247 3.49834C4.19389 3.45992 4.2321 3.42434 4.26965 3.39092L4.27258 3.38799C4.30206 3.36122 4.33436 3.33343 4.36731 3.30498C4.37081 3.30196 4.37465 3.29835 4.37805 3.29521C4.41914 3.25728 4.42983 3.2509 4.49329 3.19463L4.49231 3.19365C4.52734 3.16447 4.56103 3.13646 4.59094 3.11064C4.6232 3.08417 4.65467 3.0598 4.68567 3.03447L4.69055 3.02959C4.72246 3.00258 4.75718 2.97594 4.79993 2.94267L4.80286 2.94072V2.93974L4.80481 2.93877H4.80579V2.93779H4.80676L4.80774 2.93682L4.80969 2.93486H4.81067V2.93389H4.81165L4.81262 2.93291L4.8136 2.93193L4.81458 2.93096H4.81555L4.81653 2.92998V2.929H4.8175V2.92803L4.81946 2.92705H4.82043L4.82141 2.92607V2.9251H4.82239L4.82336 2.92412H4.82434V2.92314H4.82532L4.82629 2.92217L4.82825 2.92021H4.82922V2.91924H4.8302L4.83118 2.91826V2.91728H4.83215L4.83313 2.91631H4.83411V2.91533H4.83508L4.83606 2.91435V2.91338L4.83801 2.9124H4.83899L4.83997 2.91142V2.91045H4.84094L4.84192 2.90947L4.8429 2.90849H4.84387L4.84485 2.90752V2.90654H4.84583L4.8468 2.90557H4.84778V2.90459H4.84875V2.90361H4.84973L4.85071 2.90264L4.85168 2.90166H4.85266V2.90068H4.85364L4.85461 2.89971V2.89873L4.85657 2.89775H4.85754L4.85852 2.89678V2.8958H4.8595L4.86047 2.89482L4.86145 2.89385H4.86243V2.89287H4.8634L4.86438 2.89189L4.86536 2.89092H4.86633V2.88994H4.86731V2.88896H4.86829L4.86926 2.88799L4.87024 2.88701H4.87122V2.88603H4.87219L4.87317 2.88506V2.88408L4.87512 2.8831H4.8761V2.88213H4.87708L4.87805 2.88115L4.87903 2.88017L4.88 2.8792H4.88098V2.87822H4.88196L4.88293 2.87724L4.88391 2.87627H4.88489V2.87529H4.88586V2.87432H4.88684L4.88782 2.87334L4.88879 2.87236H4.88977V2.87139H4.89075L4.89172 2.87041V2.86943L4.89368 2.86846L4.89465 2.86748H4.89563L4.89661 2.8665V2.86553L4.89856 2.86455H4.89954V2.86357H4.90051L4.90149 2.8626L4.90344 2.86064H4.90442V2.85967H4.9054L4.90637 2.85869L4.90735 2.85771L4.90833 2.85674H4.9093L4.91028 2.85576V2.85478H4.91125L4.91223 2.85381H4.91321V2.85283C4.95375 2.82066 4.99543 2.78901 5.03625 2.75908H5.03723L5.04407 2.75322L5.11829 2.69756C5.16643 2.66185 5.21075 2.62965 5.25403 2.59892L5.255 2.59795C5.31161 2.55754 5.28815 2.57282 5.34875 2.52959C5.37227 2.51301 5.39726 2.49756 5.42297 2.47978L5.50403 2.42314C5.52925 2.40683 5.55397 2.39118 5.5675 2.38213L5.57141 2.3792C5.62032 2.34565 5.66919 2.31316 5.7179 2.28252L5.72766 2.27568C5.73719 2.26932 5.74759 2.2633 5.76184 2.2542C5.7738 2.24656 5.78866 2.23559 5.80481 2.2249L5.80579 2.22588C5.85984 2.19083 5.91247 2.15723 5.96497 2.12627C5.96962 2.12353 5.97409 2.1204 5.97864 2.11748C5.99266 2.10847 6.00992 2.09865 6.02649 2.08916L6.03528 2.08428C6.09086 2.05065 6.14818 2.0161 6.20422 1.98369L6.21008 1.98076C6.23576 1.96538 6.24863 1.95745 6.25989 1.95146L6.27161 1.9456C6.30258 1.9279 6.33368 1.90936 6.36633 1.89092C6.39862 1.87268 6.43178 1.85325 6.46497 1.83428C6.48069 1.8263 6.49542 1.81843 6.50891 1.81084L6.50989 1.81182C6.58493 1.77254 6.6361 1.74429 6.69641 1.71416L6.70715 1.7083C6.7208 1.70096 6.73376 1.69454 6.75305 1.68486L6.75891 1.68193C6.82494 1.64749 6.89135 1.61478 6.95715 1.5833L6.96399 1.57939C6.96583 1.57848 6.96875 1.57709 6.97864 1.57256C6.98575 1.5693 6.99789 1.56279 7.01184 1.55596L7.01282 1.55693L7.21399 1.46221C7.22297 1.4583 7.23076 1.45508 7.23645 1.45244C7.25035 1.446 7.25096 1.44584 7.25793 1.44267L7.25891 1.4417C7.32652 1.41075 7.39694 1.38036 7.4718 1.34892V1.3499L7.48352 1.34404C7.50022 1.33644 7.5103 1.33079 7.52063 1.32646L7.52161 1.32744C7.53323 1.32264 7.54509 1.31758 7.55676 1.31279Z" stroke="white" stroke-width="0.858049" stroke-miterlimit="10" stroke-linecap="round" stroke-linejoin="round"/>
</svg>
