<svg width="72" height="67" viewBox="0 0 72 67" fill="none" xmlns="http://www.w3.org/2000/svg">
<path d="M10.5439 30.1614C-3.51538 38.2214 -3.5139 51.2639 10.5439 59.3239C24.6017 67.3839 47.3968 67.3766 61.4561 59.3239C75.5154 51.2713 75.5139 38.2214 61.4561 30.1614C47.3983 22.1014 24.6032 22.1087 10.5439 30.1614Z" fill="#FAFAFA"/>
<path d="M46.7875 56.2115L15.3809 38.223L25.0885 32.6631L56.4952 50.6515L46.7875 56.2115Z" fill="#E0E0E0"/>
<path d="M16.8217 49.2471C18.9591 50.4854 18.9591 52.4931 16.8217 53.7299C14.6843 54.9668 11.219 54.9682 9.08157 53.7299C6.94416 52.4916 6.94416 50.4854 9.08157 49.2471C11.219 48.0088 14.6843 48.0088 16.8217 49.2471Z" fill="#E0E0E0"/>
<path d="M20.084 17.3168V23.0526L27.8699 18.5903L27.8729 12.8545L20.084 17.3168Z" fill="#73A7D0"/>
<path d="M20.084 23.0531L28.9852 28.1514L36.777 23.6906L27.8699 18.5908L20.084 23.0531Z" fill="#73A7D0"/>
<path opacity="0.3" d="M20.084 23.0531L28.9852 28.1514L36.777 23.6906L27.8699 18.5908L20.084 23.0531Z" fill="white"/>
<path d="M36.7782 23.6904L36.7752 29.4262L28.9863 33.8885V28.1513L36.7782 23.6904Z" fill="#73A7D0"/>
<path d="M28.9863 33.8881L37.8875 38.9864L45.6779 34.5256L36.7752 29.4258L28.9863 33.8881Z" fill="#73A7D0"/>
<path opacity="0.3" d="M28.9863 33.8881L37.8875 38.9864L45.6779 34.5256L36.7752 29.4258L28.9863 33.8881Z" fill="white"/>
<path d="M45.6771 34.5254V40.2612L37.8867 44.722V38.9862L45.6771 34.5254Z" fill="#73A7D0"/>
<path d="M37.8867 44.7226L46.7894 49.8223L54.5783 45.3615L45.6771 40.2617L37.8867 44.7226Z" fill="#73A7D0"/>
<path opacity="0.3" d="M37.8867 44.7226L46.7894 49.8223L54.5783 45.3615L45.6771 40.2617L37.8867 44.7226Z" fill="white"/>
<path d="M54.578 45.3613V51.0971L46.7891 55.558V49.8222L54.578 45.3613Z" fill="#73A7D0"/>
<path d="M20.0838 17.317L11.738 12.5367L8.95508 14.1296L10.0688 7.11892L22.3083 6.48145L19.5269 8.07439L27.8727 12.8547L20.0838 17.317Z" fill="#73A7D0"/>
<path opacity="0.3" d="M20.0838 17.317L11.738 12.5367L8.95508 14.1296L10.0688 7.11892L22.3083 6.48145L19.5269 8.07439L27.8727 12.8547L20.0838 17.317Z" fill="white"/>
<path d="M37.8861 44.7229V38.9871L28.9849 33.8888V28.1515L20.0838 23.0532V17.3174L11.738 12.5371L8.95508 14.1301V15.405L11.738 13.8121L18.97 17.9534V23.6907L27.8727 28.7905V34.5262L36.7738 39.6246V45.3603L45.6765 50.4601V54.921L46.7887 55.5584V49.8227L37.8861 44.7229Z" fill="#73A7D0"/>
<path opacity="0.3" d="M37.8861 44.7229V38.9871L28.9849 33.8888V28.1515L20.0838 23.0532V17.3174L11.738 12.5371L8.95508 14.1301V15.405L11.738 13.8121L18.97 17.9534V23.6907L27.8727 28.7905V34.5262L36.7738 39.6246V45.3603L45.6765 50.4601V54.921L46.7887 55.5584V49.8227L37.8861 44.7229Z" fill="black"/>
<path d="M22.3088 6.48145V7.75639L20.6396 8.71187L19.5273 8.07439L22.3088 6.48145Z" fill="#73A7D0"/>
<path opacity="0.3" d="M22.3088 6.48145V7.75639L20.6396 8.71187L19.5273 8.07439L22.3088 6.48145Z" fill="black"/>
<path d="M24.7632 21.9259H24.7736C24.9141 21.8983 25.0574 21.8874 25.2005 21.8937C25.212 21.8941 25.2232 21.8901 25.2318 21.8824C25.2403 21.8747 25.2455 21.8641 25.2463 21.8527C25.2463 21.8411 25.2419 21.83 25.2339 21.8215C25.226 21.8131 25.2151 21.808 25.2034 21.8072C25.0549 21.8012 24.9062 21.8125 24.7603 21.841C24.749 21.8434 24.7391 21.8502 24.7328 21.8597C24.7264 21.8693 24.7241 21.881 24.7263 21.8922C24.7283 21.9009 24.7329 21.9088 24.7395 21.9148C24.7461 21.9208 24.7544 21.9247 24.7632 21.9259ZM23.9036 22.6499C23.9032 22.5454 23.9346 22.4433 23.9937 22.3568C23.998 22.3472 23.9988 22.3363 23.9957 22.3262C23.9927 22.3161 23.9861 22.3074 23.9772 22.3017C23.9682 22.296 23.9575 22.2937 23.9469 22.2952C23.9364 22.2967 23.9268 22.3019 23.9198 22.3099C23.8521 22.41 23.8161 22.5279 23.8164 22.6484C23.8168 22.7082 23.8242 22.7677 23.8386 22.8257C23.8414 22.8349 23.847 22.843 23.8547 22.8488C23.8624 22.8545 23.8717 22.8578 23.8814 22.858H23.8873C23.8986 22.8552 23.9084 22.8481 23.9145 22.8382C23.9206 22.8283 23.9225 22.8165 23.9198 22.8052C23.9081 22.7543 23.9026 22.7021 23.9036 22.6499ZM24.8593 23.8516C24.7972 23.8149 24.7381 23.7783 24.685 23.7416C24.6165 23.6961 24.5505 23.6472 24.487 23.5951C24.479 23.5871 24.4681 23.5827 24.4567 23.5827C24.4454 23.5827 24.4345 23.5871 24.4265 23.5951C24.4223 23.5991 24.4189 23.6038 24.4166 23.6091C24.4143 23.6144 24.4132 23.6201 24.4132 23.6259C24.4132 23.6316 24.4143 23.6373 24.4166 23.6426C24.4189 23.6479 24.4223 23.6527 24.4265 23.6566C24.4914 23.7122 24.5595 23.764 24.6303 23.812C24.6864 23.8501 24.747 23.8882 24.8105 23.9263C24.8178 23.9276 24.8253 23.9276 24.8327 23.9263C24.8404 23.926 24.8479 23.9239 24.8546 23.92C24.8613 23.9162 24.867 23.9108 24.8711 23.9043C24.8756 23.8955 24.8769 23.8855 24.8747 23.8758C24.8726 23.8662 24.8671 23.8576 24.8593 23.8516ZM25.4161 24.1446C25.2788 24.0802 25.1517 24.0172 25.0409 23.9585C25.0359 23.9559 25.0304 23.9543 25.0247 23.9539C25.0191 23.9534 25.0134 23.954 25.0079 23.9557C25.0025 23.9574 24.9975 23.9601 24.9932 23.9638C24.9888 23.9674 24.9852 23.9718 24.9826 23.9769C24.98 23.9819 24.9784 23.9873 24.9779 23.9929C24.9774 23.9986 24.978 24.0042 24.9797 24.0096C24.9815 24.015 24.9842 24.0199 24.9879 24.0243C24.9915 24.0286 24.996 24.0321 25.0011 24.0347C25.1118 24.0948 25.2404 24.1578 25.3792 24.2223C25.385 24.2236 25.3911 24.2236 25.3969 24.2223C25.4053 24.2225 25.4136 24.2202 25.4206 24.2158C25.4277 24.2114 25.4334 24.205 25.4368 24.1974C25.4395 24.1922 25.4412 24.1866 25.4416 24.1808C25.442 24.175 25.4412 24.1691 25.4393 24.1636C25.4374 24.1581 25.4343 24.1531 25.4303 24.1488C25.4263 24.1445 25.4215 24.1411 25.4161 24.1388V24.1446ZM24.0129 23.0353C24.0102 23.0302 24.0066 23.0257 24.0022 23.0221C23.9977 23.0184 23.9926 23.0157 23.9871 23.014C23.9816 23.0124 23.9758 23.0119 23.9701 23.0125C23.9643 23.0131 23.9588 23.0149 23.9538 23.0177C23.9435 23.023 23.9357 23.0322 23.9321 23.0431C23.9285 23.0541 23.9294 23.066 23.9346 23.0763C24.0184 23.2263 24.1222 23.3643 24.2433 23.4867C24.2515 23.4949 24.2626 23.4997 24.2743 23.4998C24.28 23.5001 24.2857 23.4992 24.2911 23.4972C24.2964 23.4952 24.3013 23.4921 24.3053 23.4881C24.3135 23.4799 24.318 23.4689 24.318 23.4573C24.318 23.4458 24.3135 23.4348 24.3053 23.4266C24.1892 23.3087 24.0907 23.175 24.0129 23.0294V23.0353ZM24.5934 21.9303C24.5891 21.9198 24.5809 21.9112 24.5705 21.9063C24.5601 21.9014 24.5482 21.9006 24.5372 21.904C24.4661 21.928 24.3966 21.9564 24.329 21.989C24.25 22.0265 24.1752 22.0722 24.1059 22.1252C24.1013 22.1286 24.0974 22.1328 24.0945 22.1376C24.0915 22.1425 24.0896 22.1478 24.0888 22.1534C24.0879 22.159 24.0882 22.1647 24.0897 22.1702C24.0911 22.1757 24.0936 22.1808 24.0971 22.1853C24.1045 22.1941 24.1151 22.1998 24.1266 22.2011C24.1381 22.2025 24.1497 22.1995 24.1591 22.1927C24.2246 22.1446 24.2943 22.1024 24.3674 22.0666C24.4317 22.0359 24.4978 22.009 24.5653 21.986C24.5716 21.9843 24.5774 21.9813 24.5823 21.9771C24.5873 21.9729 24.5912 21.9677 24.5939 21.9618C24.5966 21.9559 24.5979 21.9495 24.5978 21.9431C24.5977 21.9366 24.5962 21.9303 24.5934 21.9245V21.9303ZM28.784 24.3088C28.9081 24.3777 29.0292 24.4436 29.1459 24.5051C29.1527 24.5067 29.1598 24.5067 29.1666 24.5051C29.1764 24.5056 29.186 24.5026 29.1939 24.4968C29.2018 24.4909 29.2074 24.4826 29.2099 24.4732C29.2123 24.4637 29.2114 24.4537 29.2072 24.4449C29.2031 24.436 29.1961 24.4288 29.1872 24.4245C29.0706 24.363 28.9509 24.2985 28.8268 24.2282C28.8166 24.2227 28.8046 24.2213 28.7933 24.2243C28.7821 24.2273 28.7724 24.2345 28.7663 24.2443C28.761 24.2544 28.7598 24.2662 28.7632 24.2772C28.7665 24.2881 28.7739 24.2973 28.784 24.3029V24.3088ZM29.8667 24.895C29.9302 24.9345 29.9849 24.9697 30.0351 25.0063C30.0872 25.0443 30.1366 25.086 30.1828 25.1309C30.1868 25.1351 30.1916 25.1384 30.197 25.1406C30.2023 25.1429 30.208 25.1441 30.2138 25.1441C30.2257 25.1432 30.2367 25.138 30.2449 25.1294C30.2529 25.1215 30.2574 25.1107 30.2574 25.0994C30.2574 25.0881 30.2529 25.0773 30.2449 25.0693C30.1936 25.0215 30.1393 24.977 30.0824 24.936C30.0307 24.8994 29.9731 24.8613 29.9066 24.8217C29.8968 24.8159 29.8851 24.8141 29.874 24.8169C29.8629 24.8196 29.8534 24.8266 29.8475 24.8363C29.8416 24.8461 29.8399 24.8577 29.8427 24.8687C29.8454 24.8797 29.8525 24.8891 29.8623 24.895H29.8667ZM25.4132 21.9186C25.5553 21.9403 25.6953 21.9746 25.8312 22.0212H25.8445C25.8548 22.0209 25.8646 22.0172 25.8724 22.0105C25.8801 22.0039 25.8853 21.9948 25.8871 21.9847C25.8888 21.9747 25.887 21.9644 25.8819 21.9555C25.8769 21.9467 25.8689 21.9399 25.8593 21.9362C25.7184 21.8882 25.5736 21.8524 25.4265 21.8292C25.4207 21.8282 25.4148 21.8283 25.4091 21.8296C25.4035 21.8309 25.3981 21.8334 25.3934 21.8368C25.3887 21.8402 25.3847 21.8446 25.3818 21.8496C25.3789 21.8546 25.377 21.8601 25.3763 21.8659C25.3754 21.8715 25.3757 21.8771 25.3771 21.8826C25.3785 21.8881 25.381 21.8932 25.3845 21.8977C25.3879 21.9022 25.3922 21.906 25.3972 21.9088C25.4021 21.9117 25.4075 21.9135 25.4132 21.9142V21.9186ZM28.4265 24.0992L28.6038 24.2047C28.611 24.2067 28.6187 24.2067 28.6259 24.2047C28.6337 24.2047 28.6414 24.2027 28.6481 24.1988C28.6548 24.195 28.6604 24.1894 28.6643 24.1827C28.6672 24.1779 28.6691 24.1724 28.6698 24.1668C28.6706 24.1612 28.6702 24.1555 28.6687 24.15C28.6671 24.1446 28.6645 24.1395 28.661 24.135C28.6575 24.1306 28.6531 24.1269 28.6481 24.1241L28.4723 24.0186C28.4015 23.9738 28.3334 23.9249 28.2685 23.8721C28.2589 23.8654 28.2472 23.8627 28.2357 23.8643C28.2242 23.8659 28.2137 23.8718 28.2064 23.8809C28.203 23.8854 28.2005 23.8905 28.199 23.896C28.1976 23.9015 28.1973 23.9072 28.1981 23.9128C28.199 23.9183 28.2009 23.9237 28.2038 23.9286C28.2068 23.9334 28.2107 23.9376 28.2153 23.9409C28.2847 24.0025 28.3571 24.0509 28.4265 24.0948V24.0992ZM27.4531 23.2082L27.4856 23.2434C27.4941 23.2523 27.5057 23.2576 27.5181 23.258C27.529 23.2576 27.5394 23.2535 27.5476 23.2463C27.5557 23.2384 27.5602 23.2275 27.5602 23.2163C27.5602 23.205 27.5557 23.1942 27.5476 23.1862L27.5151 23.1496C27.4147 23.0382 27.3098 22.9225 27.2049 22.814C27.2012 22.8089 27.1965 22.8046 27.191 22.8015C27.1855 22.7984 27.1794 22.7964 27.1731 22.7958C27.1668 22.7953 27.1604 22.796 27.1544 22.7981C27.1484 22.8001 27.1429 22.8035 27.1383 22.8078C27.1337 22.8121 27.1301 22.8174 27.1278 22.8232C27.1254 22.8291 27.1244 22.8354 27.1247 22.8416C27.1249 22.8479 27.1266 22.8541 27.1295 22.8597C27.1324 22.8653 27.1364 22.8702 27.1414 22.8741C27.2493 22.9767 27.3527 23.091 27.4531 23.2038V23.2082ZM28.0174 23.7944C28.0212 23.7983 28.0258 23.8013 28.0309 23.8033C28.036 23.8053 28.0414 23.8063 28.0469 23.8061C28.0531 23.8062 28.0592 23.805 28.0648 23.8025C28.0704 23.7999 28.0754 23.7962 28.0794 23.7915C28.0836 23.7876 28.0869 23.783 28.0891 23.7778C28.0914 23.7726 28.0926 23.7671 28.0926 23.7614C28.0926 23.7558 28.0914 23.7502 28.0891 23.745C28.0869 23.7399 28.0836 23.7352 28.0794 23.7314C27.973 23.6347 27.8608 23.5218 27.7249 23.3767C27.7166 23.3687 27.7055 23.3642 27.6939 23.3642C27.6823 23.3642 27.6711 23.3687 27.6628 23.3767C27.6548 23.3847 27.6503 23.3955 27.6503 23.4068C27.6503 23.4181 27.6548 23.4289 27.6628 23.4368C27.7769 23.5586 27.8972 23.6746 28.0233 23.7841L28.0174 23.7944ZM26.7766 22.5444C26.8386 22.5927 26.9006 22.6455 26.9656 22.7056C26.974 22.7123 26.9844 22.716 26.9952 22.7158C27.0012 22.7159 27.0072 22.7147 27.0128 22.7124C27.0183 22.7102 27.0234 22.7068 27.0277 22.7026C27.0358 22.6944 27.0404 22.6834 27.0404 22.6719C27.0404 22.6604 27.0358 22.6493 27.0277 22.6411C26.9612 22.5795 26.8977 22.5253 26.8327 22.4755C26.7825 22.4359 26.7219 22.392 26.654 22.3451C26.6444 22.3399 26.6332 22.3384 26.6226 22.3409C26.612 22.3434 26.6027 22.3497 26.5964 22.3586C26.5902 22.3675 26.5875 22.3784 26.5889 22.3891C26.5902 22.3999 26.5955 22.4098 26.6037 22.4169C26.6717 22.4623 26.7293 22.5048 26.7795 22.5444H26.7766ZM28.7825 25.8153C28.6992 25.7782 28.6183 25.7361 28.5403 25.6892L28.3719 25.5823C28.3622 25.5779 28.3512 25.5772 28.341 25.5802C28.3308 25.5832 28.3221 25.5897 28.3163 25.5986C28.3106 25.6075 28.3083 25.6182 28.3098 25.6286C28.3113 25.6391 28.3166 25.6486 28.3246 25.6555C28.3807 25.6922 28.4369 25.7273 28.4959 25.7625C28.5768 25.8116 28.6607 25.8557 28.7471 25.8944C28.7529 25.8957 28.759 25.8957 28.7648 25.8944C28.7733 25.8943 28.7816 25.8917 28.7886 25.887C28.7957 25.8823 28.8013 25.8757 28.8047 25.868C28.8079 25.8625 28.8099 25.8564 28.8105 25.8501C28.8111 25.8438 28.8103 25.8374 28.8082 25.8315C28.8061 25.8255 28.8027 25.82 28.7983 25.8154C28.7938 25.8109 28.7885 25.8073 28.7825 25.805V25.8153ZM29.5743 25.9897C29.3929 25.9941 29.212 25.9678 29.0395 25.912C29.034 25.9102 29.0282 25.9095 29.0224 25.9101C29.0166 25.9106 29.011 25.9123 29.0059 25.915C29.0007 25.9177 28.9963 25.9215 28.9926 25.926C28.989 25.9305 28.9864 25.9357 28.9849 25.9413C28.9816 25.9522 28.9827 25.9639 28.9879 25.974C28.9931 25.9841 29.0021 25.9918 29.0129 25.9955C29.1812 26.0483 29.3564 26.0759 29.5329 26.0776H29.5772C29.583 26.0776 29.5886 26.0764 29.5939 26.0742C29.5992 26.072 29.604 26.0687 29.608 26.0646C29.612 26.0605 29.6152 26.0557 29.6172 26.0503C29.6193 26.045 29.6202 26.0393 29.62 26.0336C29.6214 26.027 29.6212 26.0201 29.6195 26.0135C29.6178 26.0069 29.6146 26.0008 29.6102 25.9956C29.6058 25.9904 29.6003 25.9863 29.5941 25.9835C29.5879 25.9807 29.5811 25.9793 29.5743 25.9794V25.9897ZM25.9907 24.404L25.6067 24.2355C25.5961 24.231 25.5841 24.2308 25.5734 24.2349C25.5626 24.239 25.5539 24.2471 25.5491 24.2575C25.5466 24.2626 25.5452 24.2681 25.5449 24.2738C25.5445 24.2794 25.5454 24.285 25.5473 24.2904C25.5492 24.2957 25.5522 24.3006 25.5561 24.3048C25.5599 24.3089 25.5646 24.3123 25.5698 24.3146C25.6953 24.3703 25.8253 24.4275 25.9568 24.4832C25.9626 24.4846 25.9687 24.4846 25.9745 24.4832C25.9845 24.4833 25.9943 24.48 26.0021 24.4737C26.0099 24.4674 26.0152 24.4586 26.0172 24.4489C26.0191 24.4391 26.0175 24.429 26.0127 24.4202C26.0078 24.4115 26.0001 24.4047 25.9907 24.4011V24.404ZM30.3867 25.2232C30.3799 25.2141 30.3698 25.2079 30.3585 25.206C30.3472 25.2041 30.3356 25.2066 30.3261 25.213C30.3214 25.2162 30.3174 25.2203 30.3143 25.2251C30.3112 25.2299 30.3091 25.2352 30.3081 25.2408C30.3072 25.2464 30.3074 25.2522 30.3087 25.2577C30.31 25.2632 30.3124 25.2685 30.3158 25.273C30.3667 25.3395 30.3961 25.4197 30.4 25.5031C30.4001 25.5405 30.392 25.5775 30.3763 25.6116C30.3738 25.6167 30.3724 25.6222 30.3721 25.6278C30.3718 25.6335 30.3726 25.6391 30.3746 25.6445C30.3765 25.6498 30.3795 25.6547 30.3833 25.6588C30.3872 25.663 30.3918 25.6664 30.397 25.6687C30.4033 25.6702 30.4099 25.6702 30.4162 25.6687C30.4245 25.6685 30.4326 25.6661 30.4396 25.6617C30.4467 25.6574 30.4523 25.6512 30.4561 25.6438C30.4767 25.5977 30.4873 25.5477 30.4871 25.4973C30.4818 25.3981 30.4468 25.3027 30.3867 25.2232ZM30.2596 25.7522C30.2082 25.7923 30.1522 25.8263 30.0927 25.8534C30.0123 25.8931 29.9275 25.9236 29.8401 25.9442C29.8288 25.947 29.819 25.9541 29.813 25.964C29.8069 25.9739 29.805 25.9857 29.8076 25.997C29.81 26.0064 29.8155 26.0147 29.8233 26.0206C29.8311 26.0265 29.8407 26.0295 29.8505 26.0292H29.8608C29.9542 26.0062 30.0448 25.9732 30.1311 25.931C30.1963 25.9011 30.2578 25.8637 30.3143 25.8197C30.3185 25.8157 30.3218 25.8109 30.3241 25.8056C30.3264 25.8003 30.3276 25.7946 30.3276 25.7889C30.3276 25.7831 30.3264 25.7774 30.3241 25.7721C30.3218 25.7669 30.3185 25.7621 30.3143 25.7581C30.3077 25.7514 30.2989 25.7472 30.2895 25.7461C30.2801 25.745 30.2706 25.7472 30.2626 25.7522H30.2596ZM29.7293 24.7132L29.366 24.5183C29.3558 24.5131 29.3439 24.512 29.3328 24.5153C29.3218 24.5185 29.3125 24.5259 29.3069 24.5359C29.3041 24.5409 29.3023 24.5464 29.3017 24.5521C29.301 24.5577 29.3015 24.5635 29.3032 24.569C29.3049 24.5744 29.3076 24.5795 29.3113 24.5839C29.315 24.5883 29.3195 24.5919 29.3246 24.5945C29.4546 24.6634 29.5757 24.7264 29.6865 24.788C29.6932 24.7901 29.7005 24.7901 29.7072 24.788C29.715 24.7883 29.7228 24.7864 29.7296 24.7825C29.7364 24.7786 29.742 24.7729 29.7456 24.766C29.7499 24.757 29.751 24.7469 29.7486 24.7372C29.7461 24.7276 29.7404 24.7191 29.7323 24.7132H29.7293ZM27.8637 25.2452C27.8537 25.2392 27.8418 25.2374 27.8304 25.2402C27.8191 25.2429 27.8093 25.25 27.8032 25.2599C27.8002 25.2647 27.7983 25.27 27.7974 25.2755C27.7966 25.2811 27.7969 25.2868 27.7982 25.2922C27.7996 25.2977 27.8021 25.3028 27.8054 25.3073C27.8088 25.3118 27.8131 25.3156 27.8179 25.3185C27.945 25.3961 28.0587 25.465 28.1547 25.5339C28.1625 25.536 28.1706 25.536 28.1784 25.5339C28.1856 25.5338 28.1927 25.5321 28.1991 25.5288C28.2056 25.5255 28.2111 25.5207 28.2153 25.5148C28.2216 25.5053 28.2239 25.4936 28.2217 25.4824C28.2195 25.4712 28.2129 25.4613 28.2035 25.4548C28.1089 25.3976 27.9952 25.3229 27.8667 25.2452H27.8637ZM26.4368 22.2967C26.4444 22.2967 26.4519 22.2949 26.4587 22.2913C26.4654 22.2877 26.4711 22.2825 26.4752 22.2762C26.4809 22.2662 26.4825 22.2544 26.4797 22.2433C26.477 22.2321 26.4701 22.2224 26.4605 22.2161C26.3328 22.1411 26.2006 22.0741 26.0646 22.0153C26.0594 22.0129 26.0537 22.0116 26.048 22.0114C26.0422 22.0112 26.0365 22.0121 26.0311 22.0142C26.0257 22.0162 26.0208 22.0193 26.0167 22.0233C26.0125 22.0273 26.0092 22.0321 26.007 22.0373C26.0045 22.0425 26.0032 22.0481 26.003 22.0538C26.0028 22.0595 26.0037 22.0652 26.0058 22.0706C26.0079 22.0759 26.011 22.0808 26.015 22.0849C26.019 22.089 26.0238 22.0923 26.0291 22.0945C26.1617 22.1517 26.2905 22.2173 26.4147 22.2908C26.4222 22.2954 26.431 22.2975 26.4398 22.2967H26.4368ZM26.5713 24.6414C26.4398 24.5872 26.3098 24.5345 26.1828 24.4802C26.172 24.4758 26.1599 24.4758 26.1491 24.4802C26.1383 24.4846 26.1297 24.493 26.1252 24.5037C26.1228 24.5088 26.1215 24.5144 26.1214 24.5201C26.1213 24.5258 26.1224 24.5314 26.1246 24.5367C26.1269 24.5419 26.1302 24.5466 26.1343 24.5505C26.1385 24.5544 26.1434 24.5574 26.1488 24.5594L26.5373 24.7206C26.5426 24.7219 26.5482 24.7219 26.5535 24.7206C26.5637 24.7211 26.5737 24.718 26.5818 24.7119C26.5899 24.7057 26.5955 24.6969 26.5977 24.687C26.5998 24.6771 26.5983 24.6668 26.5935 24.6579C26.5886 24.649 26.5807 24.6422 26.5713 24.6385V24.6414ZM27.688 25.1499C27.5742 25.0855 27.4561 25.0254 27.329 24.9653C27.3188 24.9606 27.3071 24.96 27.2964 24.9635C27.2857 24.967 27.2768 24.9745 27.2714 24.9843C27.2663 24.9948 27.2657 25.0069 27.2695 25.0179C27.2734 25.0289 27.2815 25.0379 27.2921 25.043C27.4162 25.1031 27.5329 25.1617 27.6466 25.2247C27.6533 25.2268 27.6606 25.2268 27.6673 25.2247C27.6751 25.2247 27.6827 25.2227 27.6895 25.2188C27.6962 25.2149 27.7018 25.2094 27.7057 25.2027C27.7086 25.1979 27.7106 25.1926 27.7114 25.187C27.7123 25.1815 27.712 25.1758 27.7106 25.1703C27.7093 25.1649 27.7068 25.1598 27.7034 25.1553C27.7 25.1507 27.6958 25.1469 27.6909 25.1441L27.688 25.1499ZM27.1444 24.8803C27.0868 24.8539 27.0247 24.8275 26.9597 24.8012L26.7648 24.7206C26.7545 24.7183 26.7437 24.7197 26.7344 24.7246C26.7251 24.7294 26.7178 24.7374 26.7139 24.7471C26.71 24.7568 26.7097 24.7676 26.7131 24.7775C26.7164 24.7874 26.7232 24.7958 26.7323 24.8012L26.9258 24.8803C26.9893 24.9067 27.0513 24.9331 27.1089 24.9594C27.1148 24.9608 27.1208 24.9608 27.1266 24.9594C27.1352 24.9597 27.1437 24.9573 27.1508 24.9526C27.158 24.9478 27.1635 24.941 27.1665 24.9331C27.1693 24.928 27.171 24.9224 27.1715 24.9167C27.1721 24.9109 27.1714 24.9051 27.1696 24.8997C27.1678 24.8942 27.1649 24.8891 27.1611 24.8848C27.1573 24.8804 27.1526 24.8769 27.1473 24.8744L27.1444 24.8803Z" fill="white"/>
<path d="M36.7872 33.0051C36.7104 32.9773 36.6395 32.948 36.5656 32.9187C36.4918 32.8894 36.4282 32.8586 36.3529 32.822C36.3478 32.8195 36.3422 32.8181 36.3365 32.8178C36.3308 32.8175 36.3251 32.8183 36.3198 32.8202C36.3144 32.8221 36.3095 32.8251 36.3053 32.8289C36.3011 32.8327 36.2977 32.8373 36.2953 32.8425C36.2901 32.8528 36.2892 32.8647 36.2928 32.8757C36.2964 32.8866 36.3042 32.8958 36.3145 32.9011C36.3913 32.9377 36.4622 32.97 36.5316 32.9978C36.6011 33.0256 36.6794 33.0579 36.7576 33.0872H36.7724C36.7815 33.0869 36.7902 33.084 36.7976 33.0788C36.8049 33.0735 36.8106 33.0663 36.8138 33.0579C36.8167 33.0474 36.8156 33.0362 36.8107 33.0264C36.8058 33.0167 36.7974 33.0091 36.7872 33.0051ZM36.7695 31.273C36.7687 31.2617 36.7638 31.2511 36.7556 31.2432C36.7474 31.2354 36.7365 31.2308 36.7251 31.2305C36.5448 31.2344 36.3655 31.258 36.1904 31.3008C36.1791 31.3036 36.1693 31.3107 36.1632 31.3206C36.1572 31.3304 36.1553 31.3423 36.1579 31.3536C36.1607 31.3627 36.1664 31.3708 36.1741 31.3766C36.1818 31.3824 36.1911 31.3856 36.2008 31.3858H36.2111C36.38 31.3448 36.5528 31.3222 36.7266 31.3184C36.7326 31.3184 36.7386 31.3172 36.7441 31.3148C36.7496 31.3124 36.7546 31.3089 36.7586 31.3044C36.7626 31.3 36.7657 31.2948 36.7676 31.2891C36.7694 31.2834 36.7701 31.2774 36.7695 31.2715V31.273ZM37.477 33.2264C37.3204 33.1795 37.1668 33.1312 37.0206 33.0799C37.015 33.078 37.0092 33.0773 37.0034 33.0777C36.9976 33.0781 36.9919 33.0797 36.9867 33.0822C36.9815 33.0848 36.9768 33.0884 36.973 33.0928C36.9692 33.0971 36.9663 33.1022 36.9644 33.1077C36.9626 33.1131 36.9619 33.1188 36.9623 33.1245C36.9627 33.1301 36.9643 33.1357 36.9669 33.1407C36.9695 33.1458 36.9732 33.1502 36.9775 33.1539C36.9819 33.1575 36.987 33.1603 36.9925 33.1619C37.1402 33.2118 37.2879 33.2587 37.4519 33.3085H37.4652C37.4745 33.3083 37.4834 33.3052 37.4909 33.2997C37.4983 33.2942 37.5038 33.2865 37.5065 33.2777C37.5093 33.267 37.5077 33.2557 37.5022 33.2461C37.4967 33.2366 37.4877 33.2295 37.477 33.2264ZM36.1476 32.7135C36.0113 32.6405 35.8818 32.5557 35.7606 32.46C35.7525 32.452 35.7417 32.4475 35.7303 32.4475C35.7189 32.4475 35.7081 32.452 35.7 32.46C35.6958 32.464 35.6925 32.4687 35.6902 32.474C35.6879 32.4793 35.6867 32.485 35.6867 32.4908C35.6867 32.4965 35.6879 32.5022 35.6902 32.5075C35.6925 32.5128 35.6958 32.5176 35.7 32.5215C35.8249 32.6205 35.9583 32.7083 36.0988 32.7839C36.1056 32.786 36.1128 32.786 36.1195 32.7839C36.1273 32.7837 36.1349 32.7816 36.1416 32.7778C36.1483 32.7739 36.1539 32.7685 36.1579 32.7619C36.1616 32.7535 36.1626 32.7442 36.1608 32.7353C36.1589 32.7264 36.1543 32.7183 36.1476 32.712V32.7135ZM37.5272 31.2949C37.3514 31.2638 37.1738 31.2433 36.9955 31.2334C36.9896 31.233 36.9838 31.2337 36.9783 31.2356C36.9727 31.2374 36.9676 31.2404 36.9632 31.2442C36.9588 31.248 36.9553 31.2526 36.9527 31.2578C36.9501 31.263 36.9486 31.2687 36.9482 31.2744C36.9481 31.2858 36.9523 31.2967 36.96 31.3051C36.9676 31.3135 36.9782 31.3188 36.9896 31.3199C37.1644 31.3299 37.3385 31.3499 37.511 31.3799C37.5213 31.3802 37.5315 31.3767 37.5396 31.3703C37.5476 31.3639 37.5532 31.3549 37.5553 31.3448C37.557 31.3344 37.5549 31.3237 37.5495 31.3146C37.5441 31.3055 37.5357 31.2986 37.5257 31.2949H37.5272ZM38.1624 33.433L37.7281 33.2982L37.7 33.2894C37.6945 33.2876 37.6887 33.287 37.6829 33.2875C37.6771 33.288 37.6715 33.2897 37.6664 33.2924C37.6613 33.2952 37.6568 33.2989 37.6532 33.3035C37.6496 33.308 37.6469 33.3132 37.6454 33.3187C37.6425 33.3298 37.644 33.3415 37.6495 33.3516C37.655 33.3616 37.664 33.3693 37.6749 33.373L37.703 33.3803L38.1358 33.5092H38.1476C38.1578 33.5087 38.1674 33.5047 38.1749 33.4979C38.1825 33.4912 38.1874 33.4821 38.189 33.4721C38.1905 33.4621 38.1886 33.452 38.1835 33.4432C38.1784 33.4345 38.1704 33.4278 38.1609 33.4243L38.1624 33.433ZM40.2067 32.7589C40.2149 32.7666 40.2258 32.7708 40.237 32.7708C40.2483 32.7708 40.2591 32.7666 40.2673 32.7589C40.275 32.7508 40.2793 32.7401 40.2793 32.7289C40.2793 32.7177 40.275 32.707 40.2673 32.6989C40.1344 32.5933 40.0014 32.4878 39.87 32.3867C39.8605 32.3797 39.8487 32.3767 39.8371 32.3784C39.8255 32.38 39.815 32.3862 39.8079 32.3955C39.8045 32.4 39.8019 32.4051 39.8005 32.4106C39.7991 32.4161 39.7988 32.4218 39.7996 32.4274C39.8004 32.433 39.8024 32.4384 39.8053 32.4432C39.8083 32.448 39.8122 32.4523 39.8168 32.4556C39.9409 32.5494 40.0723 32.6534 40.2053 32.7589H40.2067ZM35.4563 31.991C35.4563 31.9654 35.4593 31.9398 35.4652 31.9148C35.4667 31.9093 35.4671 31.9036 35.4664 31.898C35.4657 31.8923 35.4638 31.8869 35.4609 31.8819C35.458 31.877 35.4542 31.8727 35.4496 31.8693C35.445 31.8659 35.4397 31.8634 35.4341 31.8621C35.4228 31.8598 35.411 31.8619 35.4012 31.8678C35.3913 31.8738 35.3841 31.8833 35.381 31.8943C35.3734 31.926 35.3695 31.9585 35.3691 31.991C35.3772 32.1291 35.4342 32.2599 35.5301 32.3603C35.5391 32.3695 35.5513 32.3747 35.5641 32.375C35.5726 32.3753 35.581 32.3731 35.5883 32.3686C35.5955 32.3641 35.6012 32.3576 35.6047 32.3499C35.6082 32.3422 35.6093 32.3337 35.6078 32.3253C35.6064 32.317 35.6025 32.3093 35.5966 32.3032C35.5132 32.2193 35.4629 32.1086 35.4548 31.991H35.4563ZM38.3027 31.4928C38.1358 31.4371 37.9615 31.3887 37.7887 31.3462C37.783 31.3447 37.7772 31.3444 37.7714 31.3452C37.7656 31.346 37.7601 31.348 37.7551 31.351C37.7501 31.354 37.7458 31.358 37.7424 31.3627C37.7391 31.3675 37.7367 31.3728 37.7355 31.3785C37.7333 31.3897 37.7356 31.4014 37.742 31.411C37.7483 31.4206 37.7582 31.4273 37.7695 31.4298C37.9393 31.4693 38.1092 31.5177 38.2747 31.5763H38.2894C38.2996 31.5758 38.3092 31.5718 38.3167 31.565C38.3243 31.5582 38.3292 31.5491 38.3308 31.5392C38.3323 31.5292 38.3304 31.519 38.3253 31.5103C38.3202 31.5016 38.3122 31.4949 38.3027 31.4913V31.4928ZM41.4372 33.6177C41.5613 33.6836 41.6794 33.7423 41.7917 33.7979C41.798 33.7993 41.8046 33.7993 41.8109 33.7979C41.8191 33.7981 41.8271 33.7959 41.8342 33.7918C41.8412 33.7877 41.847 33.7817 41.8508 33.7745C41.8556 33.7641 41.8563 33.7523 41.8527 33.7415C41.8492 33.7306 41.8416 33.7215 41.8316 33.7159C41.7193 33.6617 41.6011 33.603 41.4785 33.5371C41.4735 33.5331 41.4676 33.5302 41.4613 33.5288C41.455 33.5273 41.4484 33.5272 41.4421 33.5285C41.4357 33.5298 41.4297 33.5324 41.4245 33.5363C41.4193 33.5401 41.415 33.545 41.412 33.5507C41.4089 33.5563 41.4071 33.5626 41.4067 33.569C41.4064 33.5754 41.4074 33.5819 41.4098 33.5878C41.4122 33.5938 41.4159 33.5992 41.4207 33.6036C41.4254 33.608 41.431 33.6113 41.4372 33.6133V33.6177ZM39.1964 32.0145C39.3249 32.0951 39.4593 32.1889 39.6085 32.2973C39.6163 32.3028 39.6255 32.3059 39.6351 32.3061C39.642 32.3061 39.6488 32.3045 39.6549 32.3015C39.6611 32.2984 39.6664 32.294 39.6705 32.2885C39.6739 32.2839 39.6763 32.2787 39.6776 32.2732C39.6789 32.2677 39.6791 32.2619 39.6782 32.2563C39.6772 32.2507 39.6751 32.2454 39.672 32.2406C39.6689 32.2358 39.6649 32.2317 39.6602 32.2284C39.5125 32.1171 39.3722 32.0233 39.2422 31.9354C39.2375 31.9322 39.2322 31.93 39.2266 31.9289C39.221 31.9279 39.2153 31.9279 39.2097 31.9292C39.2042 31.9304 39.199 31.9328 39.1944 31.9361C39.1898 31.9394 39.1859 31.9437 39.1831 31.9485C39.1787 31.9533 39.1755 31.9591 39.1738 31.9653C39.172 31.9715 39.1716 31.978 39.1728 31.9844C39.1739 31.9907 39.1765 31.9967 39.1803 32.002C39.1842 32.0072 39.1892 32.0115 39.1949 32.0145H39.1964ZM35.5375 31.7463C35.5437 31.7462 35.5497 31.7449 35.5553 31.7424C35.5609 31.7398 35.5659 31.7362 35.57 31.7317C35.6208 31.6759 35.6784 31.6267 35.7414 31.5851C35.8117 31.5368 35.8869 31.4961 35.9659 31.4635C35.9712 31.4613 35.976 31.458 35.98 31.4539C35.984 31.4498 35.9872 31.4449 35.9892 31.4396C35.9913 31.4342 35.9923 31.4285 35.9921 31.4228C35.9919 31.4171 35.9905 31.4115 35.9881 31.4063C35.986 31.4011 35.9828 31.3964 35.9788 31.3924C35.9748 31.3884 35.9701 31.3853 35.9648 31.3833C35.9595 31.3812 35.9539 31.3802 35.9482 31.3804C35.9426 31.3806 35.937 31.3819 35.9319 31.3843C35.8481 31.4194 35.7679 31.4626 35.6926 31.5133C35.6243 31.5589 35.5614 31.612 35.505 31.6716C35.4969 31.6798 35.4924 31.6908 35.4924 31.7023C35.4924 31.7139 35.4969 31.7249 35.505 31.7331C35.5089 31.7374 35.5137 31.7409 35.5191 31.7431C35.5244 31.7454 35.5302 31.7465 35.5361 31.7463H35.5375ZM42.5376 34.1438C42.5335 34.1399 42.5286 34.1369 42.5232 34.135C42.5179 34.133 42.5122 34.1321 42.5065 34.1323C42.5008 34.1325 42.4952 34.1338 42.4901 34.1362C42.4849 34.1385 42.4802 34.1419 42.4763 34.146C42.4725 34.1501 42.4694 34.155 42.4675 34.1603C42.4655 34.1656 42.4645 34.1712 42.4648 34.1769C42.465 34.1825 42.4663 34.1881 42.4687 34.1932C42.471 34.1983 42.4744 34.203 42.4786 34.2068C42.5285 34.2441 42.5703 34.2912 42.6013 34.3452C42.6323 34.3991 42.6518 34.4587 42.6588 34.5204C42.6587 34.5261 42.6599 34.5316 42.6622 34.5368C42.6644 34.542 42.6677 34.5467 42.6719 34.5505C42.6761 34.5544 42.681 34.5573 42.6863 34.5592C42.6917 34.5611 42.6974 34.5618 42.7031 34.5614C42.7148 34.5603 42.7257 34.5549 42.7337 34.5462C42.7416 34.5376 42.746 34.5263 42.7459 34.5145C42.7386 34.4417 42.7162 34.3712 42.6801 34.3074C42.644 34.2436 42.595 34.1879 42.5362 34.1438H42.5376ZM41.9468 34.9938C41.7643 35.0093 41.5805 34.9969 41.4017 34.9571C41.3912 34.9567 41.3809 34.9599 41.3726 34.9664C41.3643 34.9728 41.3585 34.9819 41.3564 34.9921C41.3543 35.0024 41.3559 35.013 41.3609 35.0222C41.366 35.0313 41.3742 35.0384 41.384 35.0421C41.5195 35.0711 41.6575 35.0864 41.7961 35.0875C41.8494 35.0876 41.9027 35.0847 41.9557 35.0787C41.967 35.0776 41.9774 35.072 41.9846 35.0632C41.9918 35.0544 41.9952 35.0431 41.9941 35.0319C41.9929 35.0206 41.9872 35.0102 41.9784 35.0031C41.9695 34.9959 41.9582 34.9926 41.9468 34.9938ZM41.3042 33.4448C41.1875 33.3774 41.0782 33.3099 40.9719 33.2367C40.9672 33.2326 40.9617 33.2296 40.9557 33.2278C40.9498 33.226 40.9435 33.2254 40.9373 33.2262C40.9311 33.227 40.9252 33.229 40.9199 33.2322C40.9145 33.2354 40.9099 33.2397 40.9064 33.2448C40.9028 33.2499 40.9004 33.2556 40.8993 33.2617C40.8981 33.2678 40.8982 33.274 40.8997 33.28C40.9011 33.286 40.9038 33.2917 40.9076 33.2966C40.9114 33.3015 40.9162 33.3055 40.9217 33.3085C41.031 33.3818 41.1418 33.455 41.2614 33.5195C41.2686 33.5219 41.2764 33.5219 41.2836 33.5195C41.2912 33.5197 41.2987 33.5178 41.3053 33.5139C41.3118 33.51 41.3171 33.5043 41.3205 33.4975C41.3245 33.4883 41.3251 33.4778 41.3222 33.4682C41.3192 33.4585 41.3128 33.4502 41.3042 33.4448ZM41.1314 34.8838C41.0439 34.855 40.9581 34.8212 40.8744 34.7827C40.8138 34.7549 40.7547 34.7241 40.6942 34.6919C40.6839 34.687 40.6721 34.6861 40.6612 34.6893C40.6503 34.6926 40.641 34.6997 40.6351 34.7095C40.6323 34.7144 40.6305 34.7199 40.6299 34.7256C40.6292 34.7313 40.6298 34.737 40.6314 34.7425C40.6331 34.748 40.6358 34.7531 40.6395 34.7575C40.6432 34.7618 40.6477 34.7655 40.6528 34.7681C40.7149 34.8018 40.7769 34.8326 40.8375 34.8604C40.9241 34.9003 41.0129 34.9356 41.1033 34.9659H41.1166C41.1258 34.9663 41.1349 34.9636 41.1424 34.9583C41.1499 34.953 41.1554 34.9454 41.158 34.9366C41.1609 34.9263 41.1598 34.9153 41.1548 34.9058C41.1499 34.8963 41.1415 34.889 41.1314 34.8853V34.8838ZM42.3412 34.0896C42.3484 34.0895 42.3555 34.0878 42.362 34.0844C42.3684 34.0811 42.3739 34.0764 42.3781 34.0705C42.3814 34.0658 42.3837 34.0605 42.3849 34.055C42.3861 34.0494 42.3862 34.0436 42.3851 34.038C42.384 34.0324 42.3817 34.027 42.3785 34.0223C42.3753 34.0176 42.3711 34.0135 42.3663 34.0104C42.3076 33.9708 42.247 33.9341 42.1846 33.9005C42.127 33.8697 42.0679 33.839 42.0074 33.8097C42.0022 33.8069 41.9966 33.8052 41.9908 33.8047C41.985 33.8042 41.9792 33.8048 41.9737 33.8066C41.9682 33.8084 41.9631 33.8113 41.9587 33.8151C41.9543 33.8189 41.9508 33.8235 41.9483 33.8287C41.9435 33.8389 41.9429 33.8504 41.9464 33.8611C41.95 33.8717 41.9575 33.8806 41.9675 33.8859C42.028 33.9166 42.0856 33.946 42.1418 33.9767C42.2053 34.0119 42.2644 34.0471 42.3175 34.0837C42.3247 34.0881 42.3328 34.0907 42.3412 34.091V34.0896ZM42.5923 34.6875C42.5502 34.7383 42.5004 34.7823 42.4446 34.8179C42.3699 34.8674 42.2889 34.9068 42.2038 34.9351C42.1931 34.9394 42.1845 34.9475 42.1795 34.9578C42.1746 34.9681 42.1738 34.9799 42.1772 34.9908C42.1803 34.9993 42.1858 35.0067 42.1932 35.0119C42.2006 35.0172 42.2095 35.02 42.2186 35.0201H42.2319C42.3253 34.9898 42.4138 34.9463 42.4948 34.8912C42.5569 34.8512 42.6122 34.8017 42.6588 34.7446C42.666 34.7355 42.6692 34.7239 42.6679 34.7123C42.6665 34.7008 42.6606 34.6903 42.6514 34.6831C42.6424 34.6769 42.6316 34.6741 42.6207 34.6752C42.6099 34.6763 42.5998 34.6812 42.5923 34.6889V34.6875ZM40.5169 34.5922C40.4076 34.5277 40.2924 34.4574 40.1698 34.3812C40.1651 34.378 40.1598 34.3758 40.1542 34.3748C40.1487 34.3737 40.1429 34.3738 40.1374 34.375C40.1318 34.3763 40.1266 34.3786 40.122 34.382C40.1174 34.3853 40.1136 34.3895 40.1107 34.3944C40.1075 34.3992 40.1053 34.4045 40.1042 34.4102C40.1031 34.4158 40.1032 34.4216 40.1044 34.4273C40.1056 34.4329 40.108 34.4382 40.1114 34.4429C40.1148 34.4475 40.1191 34.4515 40.124 34.4545C40.2466 34.5307 40.3618 34.601 40.4726 34.667C40.4799 34.669 40.4875 34.669 40.4948 34.667C40.5024 34.667 40.5099 34.6651 40.5166 34.6615C40.5233 34.6579 40.529 34.6528 40.5332 34.6464C40.5367 34.6371 40.537 34.6269 40.534 34.6173C40.5311 34.6078 40.5251 34.5995 40.5169 34.5937V34.5922ZM39.0236 31.8079C38.9467 31.7639 38.8714 31.7243 38.7976 31.6892C38.7252 31.654 38.6425 31.6173 38.5524 31.5822C38.547 31.5801 38.5413 31.579 38.5356 31.5792C38.5299 31.5793 38.5242 31.5805 38.519 31.5829C38.5137 31.5852 38.509 31.5885 38.5051 31.5927C38.5012 31.5968 38.4982 31.6017 38.4962 31.6071C38.4938 31.6123 38.4926 31.6179 38.4925 31.6235C38.4924 31.6292 38.4935 31.6348 38.4957 31.6401C38.4979 31.6453 38.5012 31.65 38.5054 31.6539C38.5095 31.6578 38.5145 31.6609 38.5199 31.6628C38.6085 31.6979 38.6897 31.7331 38.7591 31.7668C38.8286 31.8005 38.9069 31.8401 38.9807 31.8826C38.9874 31.8847 38.9947 31.8847 39.0014 31.8826C39.0091 31.8829 39.0167 31.8812 39.0234 31.8776C39.0302 31.8739 39.0358 31.8686 39.0398 31.8621C39.0436 31.8528 39.044 31.8425 39.0411 31.8329C39.0381 31.8233 39.0319 31.815 39.0236 31.8093V31.8079ZM39.4667 33.9591L39.2865 33.861C39.2215 33.8258 39.1476 33.7906 39.0679 33.7554C39.0578 33.7529 39.0471 33.7541 39.0377 33.7586C39.0283 33.7631 39.0209 33.7708 39.0167 33.7803C39.0124 33.7897 39.0117 33.8003 39.0146 33.8103C39.0175 33.8202 39.0238 33.8288 39.0324 33.8346C39.1107 33.8683 39.1801 33.9035 39.2451 33.9372C39.3101 33.9709 39.3662 34.0031 39.4239 34.0353C39.4307 34.0368 39.4377 34.0368 39.4445 34.0353C39.4523 34.0354 39.46 34.0333 39.4667 34.0295C39.4735 34.0256 39.479 34.0201 39.4829 34.0134C39.487 34.0044 39.4879 33.9943 39.4855 33.9847C39.4831 33.9751 39.4775 33.9666 39.4696 33.9606L39.4667 33.9591ZM39.994 34.2728C39.8847 34.2053 39.768 34.135 39.644 34.0617C39.6391 34.0588 39.6337 34.0569 39.6281 34.056C39.6225 34.0552 39.6168 34.0555 39.6113 34.0568C39.6058 34.0582 39.6007 34.0606 39.5961 34.064C39.5916 34.0673 39.5877 34.0715 39.5849 34.0764C39.5789 34.0863 39.577 34.0982 39.5798 34.1094C39.5826 34.1207 39.5897 34.1304 39.5996 34.1365C39.7237 34.2083 39.8389 34.283 39.9482 34.346C39.9555 34.3479 39.9631 34.3479 39.9704 34.346C39.978 34.346 39.9855 34.3442 39.9922 34.3406C39.9989 34.337 40.0046 34.3318 40.0088 34.3255C40.0124 34.3168 40.0133 34.3072 40.0111 34.298C40.009 34.2888 40.0041 34.2805 39.997 34.2742L39.994 34.2728ZM40.7813 33.2015C40.7881 33.2013 40.7948 33.1995 40.8007 33.1962C40.8067 33.1929 40.8117 33.1882 40.8153 33.1825C40.8188 33.178 40.8213 33.1728 40.8227 33.1673C40.8241 33.1619 40.8244 33.1562 40.8236 33.1506C40.8228 33.145 40.8208 33.1396 40.8179 33.1348C40.8149 33.1299 40.8111 33.1257 40.8064 33.1224L40.6528 33.0051L40.4564 32.8483C40.4482 32.8407 40.4373 32.8365 40.4261 32.8365C40.4148 32.8365 40.404 32.8407 40.3958 32.8483C40.3916 32.8523 40.3883 32.8571 40.386 32.8624C40.3837 32.8677 40.3825 32.8733 40.3825 32.8791C40.3825 32.8849 40.3837 32.8906 40.386 32.8958C40.3883 32.9011 40.3916 32.9059 40.3958 32.9099L40.5937 33.0667C40.6469 33.1092 40.7001 33.1502 40.7518 33.1883C40.7559 33.1929 40.7609 33.1965 40.7665 33.199C40.7721 33.2016 40.7781 33.2029 40.7843 33.203L40.7813 33.2015ZM38.8433 33.6631C38.7104 33.6118 38.5612 33.5591 38.3884 33.5034C38.3772 33.5001 38.3652 33.5011 38.3548 33.5063C38.3443 33.5114 38.3363 33.5204 38.3323 33.5312C38.329 33.5421 38.33 33.5538 38.3353 33.5639C38.3405 33.5741 38.3495 33.5818 38.3603 33.5855C38.5331 33.6411 38.6809 33.6924 38.8123 33.7437H38.8286C38.8373 33.7437 38.8458 33.741 38.8529 33.736C38.86 33.731 38.8655 33.724 38.8685 33.7159C38.8713 33.7061 38.8707 33.6957 38.8666 33.6863C38.8626 33.6769 38.8554 33.6693 38.8463 33.6646L38.8433 33.6631Z" fill="white"/>
<path d="M53.9388 57.7708C55.0392 57.2359 56.1958 57.9408 56.6567 58.2984C57.2859 58.7864 57.7542 59.5792 58.4795 60.0232C59.2047 60.4673 59.8709 60.756 60.2609 61.0285C60.6508 61.3011 60.9581 61.7451 60.3229 62.0544C59.6878 62.3636 58.9935 62.1218 58.5504 61.858C58.1072 61.5942 57.7527 61.2718 56.8103 60.8835C55.8679 60.4951 54.8546 60.1009 54.2815 59.7111C53.7083 59.3213 52.8117 58.3101 53.9388 57.7708Z" fill="#E0E0E0"/>
<path opacity="0.8" d="M41.9881 44.7282C42.9822 44.246 44.0265 44.882 44.4431 45.2059C45.0118 45.6455 45.4342 46.3621 46.0901 46.7637C46.7459 47.1652 47.3471 47.4202 47.7001 47.6723C48.0532 47.9243 48.3309 48.32 47.7548 48.5984C47.1787 48.8769 46.5524 48.6585 46.158 48.4211C45.7636 48.1837 45.4372 47.8935 44.5849 47.5418C43.7326 47.1901 42.8123 46.8355 42.2998 46.4838C41.7872 46.1321 40.9703 45.222 41.9881 44.7282Z" fill="#73A7D0"/>
<path d="M55.445 53.0816C54.5129 53.7117 55.7404 54.3741 56.3667 54.6379C57.219 54.9984 58.6031 55.2666 59.3771 55.6813C60.1511 56.096 60.646 56.4785 61.1334 56.7071C61.6209 56.9357 62.3846 57.1057 62.9237 56.7423C63.4629 56.3789 63.0404 55.9803 62.581 55.7297C62.1216 55.4791 61.5618 55.2724 60.8794 54.7317C60.1969 54.1909 59.513 53.6121 58.835 53.2838C58.157 52.9556 56.3992 52.4397 55.445 53.0816Z" fill="#E0E0E0"/>
<path d="M67.7299 46.9496L66.0371 47.9183L63.2513 46.3239V25.8251L61.3945 24.7612L64.5807 22.3315L66.272 21.3613L69.5867 27.5148L67.8939 28.4834L67.7299 28.3896V46.9496Z" fill="#73A7D0"/>
<path opacity="0.8" d="M67.7299 46.9496L66.0371 47.9183L63.2513 46.3239V25.8251L61.3945 24.7612L64.5807 22.3315L66.272 21.3613L69.5867 27.5148L67.8939 28.4834L67.7299 28.3896V46.9496Z" fill="white"/>
<path d="M66.0371 47.9189L63.2513 46.3244V25.8257L61.3945 24.7618L64.5807 22.332L67.8939 28.484L66.0371 27.4201V47.9189Z" fill="#73A7D0"/>
<path opacity="0.7" d="M66.0371 47.9189L63.2513 46.3244V25.8257L61.3945 24.7618L64.5807 22.332L67.8939 28.484L66.0371 27.4201V47.9189Z" fill="white"/>
<path d="M67.7299 46.95L66.0371 47.9187V27.4199L67.7299 28.3901V46.95Z" fill="#73A7D0"/>
<path opacity="0.5" d="M67.7299 46.95L66.0371 47.9187V27.4199L67.7299 28.3901V46.95Z" fill="white"/>
<path d="M29.5297 57.0176L31.1797 57.9629L33.8961 56.4065V42.454L35.7071 41.4164L32.6007 39.0468L30.9507 38.1016L27.7188 44.1011L29.3687 45.0464L29.5297 44.954V57.0176Z" fill="#455A64"/>
<path d="M31.1801 57.963L33.8965 56.4066V42.4541L35.7075 41.4165L32.6011 39.0469L29.3691 45.0464L31.1801 44.0089V57.963Z" fill="#37474F"/>
<path d="M29.5293 57.0176L31.1792 57.9628V44.0088L29.5293 44.954V57.0176Z" fill="#263238"/>
<path d="M23.5547 56.7025L24.7911 57.4104L26.8266 56.2439V48.455L28.1841 47.6783L25.8546 45.9022L24.6183 45.1943L22.1973 49.6903L23.4336 50.3982L23.5547 50.3293V56.7025Z" fill="#73A7D0"/>
<path opacity="0.1" d="M23.4336 50.3982L25.8546 45.9022L24.6183 45.1943L22.1973 49.6903L23.4336 50.3982Z" fill="white"/>
<path d="M24.7911 57.4106L26.8266 56.244V48.4552L28.184 47.6785L25.8546 45.9023L23.4336 50.3984L24.7911 49.6217V57.4106Z" fill="#73A7D0"/>
<path opacity="0.1" d="M24.7911 57.4106L26.8266 56.244V48.4552L28.184 47.6785L25.8546 45.9023L23.4336 50.3984L24.7911 49.6217V57.4106Z" fill="black"/>
<path opacity="0.3" d="M23.5547 56.7022L24.791 57.41V49.6211L23.5547 50.3289V56.7022Z" fill="black"/>
<path d="M4.72821 42.2429V22.3655L4.45789 22.5209L2.94531 21.6533L6.08864 15.8164L7.64996 16.7103L10.6293 18.9847L8.89666 19.9768V41.6289L6.27771 43.1295L4.72821 42.2429Z" fill="#F5F5F5"/>
<path d="M6.13371 15.9659L7.58425 16.7969L10.4351 18.9716L8.89741 19.8509L8.78958 19.9139V41.566L6.27846 43.005L4.83383 42.18V22.178L4.50591 22.3656L4.45421 22.3949L3.08787 21.6123L6.13371 15.9659ZM6.04656 15.6729L2.79688 21.7017L4.45569 22.6513L4.6167 22.559V42.3045L6.27551 43.2542L9.00377 41.692V20.0399L10.8236 18.998L7.70537 16.6166L6.04656 15.667V15.6729Z" fill="#E6E6E6"/>
<path d="M6.27685 43.2538L9.00511 41.6916V20.0395L10.8249 18.9976L7.70376 16.6162L4.45703 22.6451L6.27685 21.6032V43.2538Z" fill="#EBEBEB"/>
<path d="M4.61914 42.3045L6.27796 43.2541V21.6035L4.61914 22.5531V42.3045Z" fill="#E0E0E0"/>
<path d="M11.9061 40.49V27.2789L11.6506 27.4255L10.2207 26.6063L13.1927 21.0889L14.6669 21.9344L17.4837 24.0828L15.8456 25.0221V39.9112L13.3699 41.3297L11.9061 40.49Z" fill="#F5F5F5"/>
<path d="M13.2313 21.2311L14.602 22.0166L17.2978 24.0682L15.8443 24.9006L15.7424 24.9592V39.8482L13.3686 41.2111L12.0067 40.4315V27.0958L11.6965 27.2731L11.6478 27.301L10.3553 26.5609L13.2298 21.2252M13.1485 20.9424L10.082 26.6459L11.6493 27.5428L11.797 27.4563V40.5502L13.3642 41.447L15.9433 39.9698V25.0808L17.6626 24.096L14.7084 21.8451L13.1412 20.9482L13.1485 20.9424Z" fill="#E6E6E6"/>
<path d="M13.3698 41.4466L15.9488 39.9695V25.0804L17.6682 24.0957L14.7184 21.8447L11.6504 27.5424L13.3698 26.5576V41.4466Z" fill="#EBEBEB"/>
<path d="M11.8027 40.5507L13.37 41.4476V26.5586L11.8027 27.4555V40.5507Z" fill="#E0E0E0"/>
<path d="M17.5391 47.5205H8.38086L9.3277 51.4362C9.40008 51.9081 9.75016 52.3697 10.3809 52.7302C11.8063 53.5465 14.1165 53.5465 15.5405 52.7302C16.22 52.3419 16.5745 51.8377 16.604 51.3278L17.5391 47.5205Z" fill="#37474F"/>
<path d="M16.4179 50.2052C16.6122 50.094 16.7965 49.9666 16.9689 49.8242L17.4844 47.7315C17.2168 48.0235 16.9036 48.2709 16.5568 48.4643C14.6232 49.5707 11.5257 49.5985 9.52711 48.5537L9.7605 47.6216L9.68812 47.5234H8.38086L9.3277 51.4377C9.40008 51.9095 9.75016 52.3712 10.3809 52.7317C11.3957 53.3178 12.8595 53.479 14.1328 53.2314C11.8506 53.3999 10.2834 52.4107 10.0485 51.4977C9.95548 51.1328 9.79152 50.3254 9.79152 50.3254C11.6926 51.2853 14.5966 51.2472 16.4179 50.2052Z" fill="#263238"/>
<path d="M18.0112 46.3624C17.9587 46.6161 17.8547 46.8564 17.7055 47.0688C17.4058 47.4893 17.0126 47.8358 16.5563 48.0814C14.568 49.2215 11.342 49.2215 9.35231 48.0814C8.89647 47.8371 8.50329 47.4921 8.20311 47.0732C8.05492 46.8604 7.95144 46.6202 7.89882 46.3668C7.72156 45.511 8.20754 44.6185 9.35379 43.9606C11.3435 42.8204 14.5695 42.8204 16.5577 43.9606C17.7025 44.6142 18.1885 45.5066 18.0112 46.3624Z" fill="#455A64"/>
<path d="M17.7051 47.0735C17.4054 47.4941 17.0122 47.8406 16.5559 48.0862C14.5677 49.2263 11.3416 49.2263 9.35193 48.0862C8.89561 47.8406 8.5024 47.4941 8.20273 47.0735C8.05454 46.8607 7.95106 46.6205 7.89844 46.3672L8.12444 47.9074C8.22784 48.5273 8.69313 49.1325 9.52328 49.6073C11.4199 50.6917 14.4909 50.6917 16.3875 49.6073C17.2058 49.1384 17.6711 48.5405 17.7819 47.9294L17.7937 47.8502L18.0123 46.3672C17.9594 46.6209 17.8549 46.8613 17.7051 47.0735Z" fill="#37474F"/>
<path d="M15.9549 44.2991C14.2961 43.3495 11.6092 43.3495 9.95188 44.2991C9.01391 44.8384 8.6077 45.5638 8.7303 46.2643C8.82483 46.8021 9.23252 47.3253 9.95188 47.7298C11.6092 48.6794 14.2961 48.6794 15.9549 47.7298C16.6728 47.318 17.0805 46.7948 17.175 46.2643C17.2991 45.5638 16.8929 44.8384 15.9549 44.2991Z" fill="#263238"/>
<path d="M9.01172 46.915C9.25972 47.2551 9.5812 47.536 9.95265 47.7371C11.61 48.6867 14.2969 48.6867 15.9557 47.7371C16.3271 47.536 16.6486 47.2551 16.8966 46.915C16.8848 46.3464 16.5008 45.7807 15.743 45.347C14.2023 44.4677 11.7045 44.4677 10.1654 45.347C9.4135 45.7807 9.02354 46.3405 9.01172 46.915Z" fill="#FAFAFA"/>
<path d="M10.6518 32.3949L13.0699 34.826L10.6267 33.3269C10.529 34.1595 10.579 35.0027 10.7744 35.8182C10.7744 35.8182 11.9561 36.7267 12.6164 37.48L10.7286 36.4586C10.7286 36.4586 10.4332 37.7394 10.7286 39.7851C10.8084 40.3215 11.2737 41.3825 11.5529 42.1665C11.6803 42.529 11.8323 42.8825 12.0078 43.2246L12.0403 43.289C12.5258 43.0868 13.028 42.8943 13.547 42.7116C13.9488 42.0844 14.5662 40.49 14.8764 39.1623C16.0832 34.0772 12.513 30.6466 9.48047 29.2734C9.49081 29.2734 10.4096 30.755 10.6518 32.3949Z" fill="#73A7D0"/>
<path d="M12.8638 32.8828C13.3439 33.4939 13.5758 34.2501 13.7324 34.9975C13.8834 35.7504 13.9507 36.5175 13.9333 37.285C13.9154 38.8216 13.5312 40.3321 12.8121 41.6931C12.8073 41.7017 12.8042 41.7112 12.8032 41.7211C12.8021 41.7309 12.803 41.7408 12.8059 41.7502C12.8088 41.7597 12.8136 41.7684 12.82 41.776C12.8264 41.7836 12.8343 41.7898 12.8432 41.7942C12.8608 41.8036 12.8814 41.8056 12.9005 41.7998C12.9197 41.794 12.9357 41.781 12.9451 41.7635C13.649 40.3749 14.0119 38.8408 14.0042 37.2865C14.0089 36.5142 13.9287 35.7437 13.7649 34.9887C13.5994 34.2428 13.3542 33.4866 12.8638 32.8828Z" fill="white"/>
<path d="M21.7087 35.3496C21.6452 35.4405 20.6024 36.9308 19.1149 39.7811L16.2626 40.5139L18.4251 40.6853L17.4457 42.5904L14.651 43.436L16.9095 43.5913C16.9095 43.5913 16.493 45.8027 14.9893 46.8476C14.1562 47.4235 13.7751 47.4704 13.4457 47.3136C13.0424 47.1231 12.8031 46.5208 12.5594 45.6137C12.3157 44.7065 12.4678 42.8132 13.1768 40.9242C13.3702 40.4181 13.6353 39.9419 13.9642 39.51C15.8578 36.9895 19.7368 35.4962 21.7087 35.3496Z" fill="#73A7D0"/>
<path opacity="0.1" d="M21.7087 35.3496C21.6452 35.4405 20.6024 36.9308 19.1149 39.7811L16.2626 40.5139L18.4251 40.6853L17.4457 42.5904L14.651 43.436L16.9095 43.5913C16.9095 43.5913 16.493 45.8027 14.9893 46.8476C14.1562 47.4235 13.7751 47.4704 13.4457 47.3136C13.0424 47.1231 12.8031 46.5208 12.5594 45.6137C12.3157 44.7065 12.4678 42.8132 13.1768 40.9242C13.3702 40.4181 13.6353 39.9419 13.9642 39.51C15.8578 36.9895 19.7368 35.4962 21.7087 35.3496Z" fill="black"/>
<path d="M18.7672 36.5654C17.3314 37.3553 15.9976 38.3797 14.9976 39.6956C14.4895 40.349 14.0877 41.0774 13.807 41.8543C13.5397 42.6328 13.4034 43.4498 13.4038 44.2723C13.4022 44.2729 13.4008 44.2741 13.3999 44.2755C13.3989 44.2769 13.3984 44.2786 13.3984 44.2803C13.3984 44.282 13.3989 44.2837 13.3999 44.2851C13.4008 44.2866 13.4022 44.2877 13.4038 44.2884C13.4043 44.2872 13.4046 44.286 13.4046 44.2847C13.4046 44.2834 13.4043 44.2822 13.4038 44.281C13.4839 43.4729 13.667 42.6782 13.9488 41.9158C14.229 41.1551 14.6132 40.4362 15.0906 39.7792C16.0537 38.4603 17.3536 37.4154 18.7643 36.5874C18.7652 36.5867 18.7659 36.5858 18.7664 36.5848C18.7669 36.5838 18.7672 36.5827 18.7672 36.5816C18.7672 36.5804 18.7669 36.5793 18.7664 36.5783C18.7659 36.5773 18.7652 36.5764 18.7643 36.5757C18.7658 36.5745 18.7669 36.5729 18.7675 36.5711C18.768 36.5692 18.7679 36.5672 18.7672 36.5654Z" fill="white"/>
<path d="M3.89844 34.8477C4.18601 34.8669 4.47213 34.9036 4.75517 34.9576C5.86965 35.1797 6.95222 35.5375 7.97826 36.023C8.35936 36.2003 8.73898 36.3966 9.11122 36.6091C9.29734 36.7166 9.48149 36.829 9.66367 36.9462C10.5633 37.5109 11.362 38.2201 12.0271 39.0447C12.3351 39.4404 12.5921 39.8726 12.7922 40.3314C12.8173 40.39 12.8454 40.4486 12.869 40.5087C12.9296 40.664 12.9828 40.815 13.033 40.9645C13.6238 42.6556 13.5899 43.7913 13.4392 45.0428C13.3225 46.0129 12.8956 47.0945 12.6903 47.2644C12.6623 47.2868 12.6315 47.3055 12.5987 47.3201C12.3033 47.474 11.869 47.3348 11.0758 46.8043C9.48789 45.7433 9.02998 43.3473 9.02998 43.3473L11.3786 43.148L8.45538 42.3156L7.40366 40.346L9.65924 40.1292L6.67839 39.4199C5.08014 36.4787 3.96934 34.9458 3.90139 34.8521L3.89844 34.8477Z" fill="#73A7D0"/>
<path d="M4.75565 34.9581C5.87013 35.1802 6.95269 35.538 7.97874 36.0234C8.35984 36.2008 8.73946 36.3971 9.1117 36.6096C9.29781 36.7171 9.48196 36.8294 9.66414 36.9467C10.5638 37.5114 11.3625 38.2205 12.0275 39.0452C12.3356 39.4408 12.5926 39.8731 12.7927 40.3319C12.8178 40.3905 12.8459 40.4491 12.8695 40.5092C12.9301 40.6645 12.9832 40.8155 13.0335 40.965C13.6243 42.6561 13.5903 43.7918 13.4397 45.0433C13.323 46.0134 12.8961 47.0949 12.6908 47.2649C12.6628 47.2873 12.632 47.306 12.5992 47.3206C12.5401 47.35 12.476 47.3679 12.4101 47.3734C12.7425 45.8801 12.3141 41.9937 11.3126 40.326C10.2786 38.5924 7.67593 35.9883 3.90039 34.8525C4.18734 34.8708 4.47293 34.9061 4.75565 34.9581Z" fill="#73A7D0"/>
<path opacity="0.2" d="M4.75565 34.9581C5.87013 35.1802 6.95269 35.538 7.97874 36.0234C8.35984 36.2008 8.73946 36.3971 9.1117 36.6096C9.29781 36.7171 9.48196 36.8294 9.66414 36.9467C10.5638 37.5114 11.3625 38.2205 12.0275 39.0452C12.3356 39.4408 12.5926 39.8731 12.7927 40.3319C12.8178 40.3905 12.8459 40.4491 12.8695 40.5092C12.9301 40.6645 12.9832 40.8155 13.0335 40.965C13.6243 42.6561 13.5903 43.7918 13.4397 45.0433C13.323 46.0134 12.8961 47.0949 12.6908 47.2649C12.6628 47.2873 12.632 47.306 12.5992 47.3206C12.5401 47.35 12.476 47.3679 12.4101 47.3734C12.7425 45.8801 12.3141 41.9937 11.3126 40.326C10.2786 38.5924 7.67593 35.9883 3.90039 34.8525C4.18734 34.8708 4.47293 34.9061 4.75565 34.9581Z" fill="black"/>
<path d="M12.4231 47.3729C12.5888 46.262 12.6091 45.1346 12.4837 44.0185C12.372 42.8957 12.0845 41.7971 11.6314 40.7623C11.1439 39.7365 10.3935 38.8572 9.58259 38.0746C8.75768 37.3016 7.83216 36.6417 6.8307 36.1124C6.82874 36.1111 6.82643 36.1104 6.82405 36.1104C6.82168 36.1104 6.81937 36.1111 6.81741 36.1124C6.81649 36.1131 6.81575 36.1139 6.81523 36.115C6.81472 36.116 6.81445 36.1171 6.81445 36.1182C6.81445 36.1194 6.81472 36.1205 6.81523 36.1215C6.81575 36.1225 6.81649 36.1234 6.81741 36.1241C7.76317 36.7275 8.64463 37.4247 9.44817 38.205C9.85304 38.589 10.2306 39.0003 10.5782 39.436C10.9343 39.8627 11.241 40.3278 11.4925 40.8224C11.9537 41.8381 12.2527 42.9188 12.3788 44.0258C12.5292 45.1343 12.5342 46.2574 12.3936 47.3671C12.3936 47.3671 12.3936 47.3759 12.3936 47.3773C12.3942 47.3812 12.3963 47.3847 12.3995 47.387C12.4026 47.3894 12.4066 47.3904 12.4106 47.3898C12.4145 47.3892 12.418 47.3871 12.4203 47.3839C12.4227 47.3808 12.4237 47.3768 12.4231 47.3729Z" fill="white"/>
<path d="M38.1933 2.08345C38.8669 1.69657 39.7989 1.75225 40.8285 2.34137C42.8846 3.51373 44.5523 6.38455 44.5508 8.741C44.5508 9.92362 44.1313 10.7531 43.4533 11.137C43.2761 11.2367 42.5671 11.6631 42.3854 11.7657C41.7118 12.1526 40.7812 12.0969 39.7531 11.5078C37.6955 10.3354 36.0293 7.46459 36.0293 5.10814C36.0293 3.93578 36.4458 3.1034 37.1194 2.71799" fill="#73A7D0"/>
<path opacity="0.5" d="M38.1933 2.08345C38.8669 1.69657 39.7989 1.75225 40.8285 2.34137C42.8846 3.51373 44.5523 6.38455 44.5508 8.741C44.5508 9.92362 44.1313 10.7531 43.4533 11.137C43.2761 11.2367 42.5671 11.6631 42.3854 11.7657C41.7118 12.1526 40.7812 12.0969 39.7531 11.5078C37.6955 10.3354 36.0293 7.46459 36.0293 5.10814C36.0293 3.93578 36.4458 3.1034 37.1194 2.71799" fill="white"/>
<path opacity="0.2" d="M44.0081 6.20605C44.3495 7.00775 44.5334 7.86674 44.5502 8.73689L39.7524 11.5037C39.0012 11.0539 38.3435 10.466 37.8145 9.7715L44.0081 6.20605Z" fill="white"/>
<path opacity="0.3" d="M37.8151 9.77122C36.7442 8.40834 36.0293 6.64687 36.0293 5.10375C36.0293 3.93138 36.4458 3.09901 37.1194 2.71359L38.1933 2.08345C38.8669 1.69657 39.7989 1.75225 40.8285 2.34137C42.1741 3.11366 43.3544 4.60842 44.0087 6.21016L37.8151 9.77122Z" fill="white"/>
<path d="M39.7531 2.97008C41.8093 4.14977 43.477 7.01327 43.477 9.36972C43.477 11.7262 41.8093 12.6816 39.7531 11.5034C37.697 10.3252 36.0263 7.46023 36.0293 5.10378C36.0323 2.74733 37.6985 1.79039 39.7531 2.97008Z" fill="#73A7D0"/>
<path d="M39.7522 4.03729C41.2944 4.91657 42.5455 7.06932 42.5455 8.83812C42.5455 10.6069 41.2944 11.3294 39.7522 10.4384C38.2101 9.5474 36.959 7.40491 36.959 5.63757C36.959 3.87023 38.2131 3.15216 39.7522 4.03729Z" fill="#FAFAFA"/>
<path d="M39.7535 5.01405C40.8288 5.62954 41.7004 7.12723 41.7004 8.35968C41.7004 9.59212 40.8274 10.0904 39.7535 9.47342C38.6796 8.85647 37.8066 7.35877 37.8066 6.12193C37.8066 4.88508 38.6781 4.38976 39.7535 5.01405Z" fill="#73A7D0"/>
<path d="M39.7541 6.00188C40.0677 6.20495 40.3286 6.4785 40.5157 6.80034C40.7028 7.12217 40.8108 7.48322 40.8309 7.85421C40.8309 8.53565 40.3494 8.81262 39.7541 8.47117C39.4412 8.26898 39.1806 7.99666 38.9933 7.67617C38.806 7.35569 38.6972 6.99601 38.6758 6.62616C38.6758 5.9374 39.1588 5.66189 39.7541 6.00188Z" fill="#FAFAFA"/>
<path d="M39.7518 6.71564C39.8842 6.80125 39.9943 6.91658 40.0733 7.05228C40.1524 7.18798 40.1981 7.34024 40.2068 7.49673C40.2068 7.78982 40.0029 7.9012 39.7518 7.75758C39.6195 7.67198 39.5094 7.55665 39.4303 7.42095C39.3513 7.28525 39.3056 7.13299 39.2969 6.9765C39.2969 6.68927 39.5007 6.57203 39.7518 6.71564Z" fill="#73A7D0"/>
<path d="M34.5204 10.2354C34.5204 10.2354 34.4288 11.374 33.8985 11.6774C33.3682 11.9807 33.0816 11.0589 33.4243 10.8626L34.5204 10.2354Z" fill="#37474F"/>
<path d="M34.5195 10.2357C34.5195 10.2357 33.4855 9.74482 32.9508 10.0482C32.416 10.3515 33.0807 11.0593 33.4234 10.863L34.5195 10.2357Z" fill="#455A64"/>
<path d="M38.6495 8.00353L32.6465 11.443L32.5312 11.2407L38.6672 7.72656L38.6495 8.00353Z" fill="#263238"/>
<path d="M32.7895 11.0133C32.8482 11.047 32.8955 11.0971 32.9254 11.1574C32.9554 11.2177 32.9667 11.2855 32.9578 11.3521C32.949 11.4188 32.9204 11.4813 32.8758 11.5319C32.8311 11.5825 32.7723 11.6187 32.7068 11.6361C32.6414 11.6536 32.5722 11.6513 32.508 11.6297C32.4438 11.6081 32.3876 11.5681 32.3463 11.5148C32.305 11.4615 32.2806 11.3972 32.2761 11.3301C32.2717 11.263 32.2874 11.1962 32.3212 11.1379C32.3437 11.0992 32.3737 11.0653 32.4094 11.0381C32.4451 11.0109 32.4858 10.9909 32.5293 10.9794C32.5728 10.9678 32.6182 10.9649 32.6628 10.9707C32.7074 10.9765 32.7505 10.991 32.7895 11.0133Z" fill="#263238"/>
<path d="M38.5325 7.93193C38.3138 8.22502 38.7112 8.71741 38.7112 8.71741L39.7452 7.2373L38.5325 7.93193Z" fill="#73A7D0"/>
<path d="M38.5325 7.93193C38.3138 8.22502 38.7112 8.71741 38.7112 8.71741L39.7452 7.2373L38.5325 7.93193Z" fill="#37474F"/>
<path d="M37.9375 7.38678C37.9375 7.38678 38.1724 7.97296 38.5284 7.93193L39.7426 7.2373L37.9375 7.38678Z" fill="#455A64"/>
<path d="M41.8906 11.7349C42.117 12.0985 42.4274 12.4034 42.7961 12.6244C43.2073 12.8623 43.6779 12.9801 44.1536 12.9644C44.1758 12.9645 44.1976 12.9589 44.2171 12.9483C44.2895 12.9043 45.2732 12.3445 45.291 12.3343C45.3097 12.3236 45.3252 12.3083 45.3361 12.2897C45.3469 12.2712 45.3526 12.2502 45.3526 12.2288C45.3526 12.2074 45.3469 12.1863 45.3361 12.1678C45.3252 12.1493 45.3097 12.1339 45.291 12.1233C44.9782 11.9547 44.7117 11.713 44.5145 11.419C44.3173 11.1251 44.1954 10.7878 44.1595 10.4365L41.8906 11.7349Z" fill="#73A7D0"/>
<path opacity="0.3" d="M41.8906 11.7349C42.117 12.0985 42.4274 12.4034 42.7961 12.6244C43.2073 12.8623 43.6779 12.9801 44.1536 12.9644C44.1758 12.9645 44.1976 12.9589 44.2171 12.9483C44.2895 12.9043 45.2732 12.3445 45.291 12.3343C45.3097 12.3236 45.3252 12.3083 45.3361 12.2897C45.3469 12.2712 45.3526 12.2502 45.3526 12.2288C45.3526 12.2074 45.3469 12.1863 45.3361 12.1678C45.3252 12.1493 45.3097 12.1339 45.291 12.1233C44.9782 11.9547 44.7117 11.713 44.5145 11.419C44.3173 11.1251 44.1954 10.7878 44.1595 10.4365L41.8906 11.7349Z" fill="white"/>
<path d="M43.0955 10.5127C43.0301 10.9522 43.1022 11.4011 43.3022 11.7987C43.5022 12.1962 43.8203 12.5233 44.2137 12.7358C44.2367 12.7495 44.2546 12.7702 44.2647 12.7949C44.2749 12.8196 44.2767 12.8469 44.2698 12.8726C44.263 12.8984 44.2479 12.9213 44.2269 12.9378C44.2058 12.9544 44.1799 12.9637 44.1531 12.9644C43.6769 12.9798 43.206 12.862 42.7941 12.6244C41.8325 12.0192 41.7129 11.3055 41.7129 11.3055L43.0955 10.5127Z" fill="#73A7D0"/>
<path d="M59.7418 48.5747C59.5438 48.0032 59.4375 46.6007 59.2366 45.0869L56.2129 45.8079C56.2129 45.8079 57.3636 49.281 57.5024 49.6254C57.7314 50.1926 59.7418 48.5747 59.7418 48.5747Z" fill="#FFBDA7"/>
<path d="M60.4464 49.3081C60.3937 49.0486 60.2792 48.8055 60.1126 48.5988C60.0444 48.5229 59.9725 48.4505 59.8969 48.3819C59.8264 48.2781 59.7717 48.1645 59.7344 48.0449C59.717 48.0006 59.6931 47.9592 59.6635 47.9218C59.6096 47.8667 59.54 47.8294 59.4641 47.8148C59.1332 47.7269 58.7832 47.8148 58.4656 47.9423C58.027 48.0974 57.6306 48.3512 57.3075 48.6838C57.2542 48.7353 57.2172 48.8012 57.2012 48.8734C57.1852 48.9455 57.1908 49.0207 57.2174 49.0897C57.2794 49.3491 57.5128 50.3808 57.5025 50.6285C57.5162 50.9618 57.4629 51.2946 57.3459 51.6074C57.3101 51.7082 57.2666 51.8062 57.2159 51.9005C57.1841 51.9604 57.1365 52.0106 57.0783 52.0459C57.0201 52.0813 56.9533 52.1004 56.885 52.1012C56.5136 52.1082 56.1484 52.1967 55.8156 52.3606C55.651 52.4306 55.5159 52.555 55.4333 52.7126C55.3506 52.8702 55.3255 53.0513 55.3621 53.2252C55.3621 53.2252 55.4271 53.637 56.049 54.0034C56.405 54.213 57.2455 54.4592 57.7698 54.2965C57.8068 54.2818 57.8407 54.2701 57.8747 54.254C58.4493 53.9858 59.8703 53.2883 59.8836 53.1842C59.8836 53.1842 59.8836 53.1725 59.8836 53.1666C59.9102 52.8296 59.9442 52.494 59.9782 52.1584C60.0043 51.9075 60.0433 51.658 60.0948 51.411C60.1185 51.304 60.1377 51.1971 60.1539 51.0857C60.2263 50.6373 60.4523 49.3638 60.4464 49.3081Z" fill="#455A64"/>
<path d="M60.6396 49.5345C60.8893 49.6561 60.6913 50.4445 60.4742 50.9999C60.2113 51.6711 60.102 51.7766 60.1389 52.3642C60.1758 52.9519 60.1906 53.3212 59.9454 53.5161C59.7002 53.711 57.9395 54.561 57.9395 54.561C58.2437 53.8776 58.4385 53.1512 58.517 52.4082C58.6647 51.123 58.8124 50.2994 59.4373 49.7587C60.0621 49.2179 60.6396 49.5345 60.6396 49.5345Z" fill="black"/>
<path d="M55.3621 53.2275C55.3621 53.2275 55.6871 53.9002 56.9604 54.1566C57.7683 54.3193 58.1642 53.9427 58.2647 52.9432C58.374 51.8588 58.5158 50.5208 58.9427 49.9434C59.3695 49.3661 60.0136 49.1843 60.4464 49.2957C60.5617 49.3541 60.6492 49.4552 60.6901 49.5771C60.6901 49.5771 60.1982 49.2356 59.5084 49.8145C58.9545 50.282 58.8053 51.4499 58.7063 52.4347C58.6073 53.4195 58.4759 54.5596 57.7063 54.6197C56.9367 54.6798 55.9264 54.3017 55.4552 53.8269C55.3792 53.7487 55.3295 53.6492 55.3128 53.5419C55.2962 53.4345 55.3134 53.3248 55.3621 53.2275Z" fill="#37474F"/>
<path d="M57.2721 51.7627C57.2405 51.7818 57.213 51.8069 57.1912 51.8366C57.1694 51.8662 57.1537 51.8999 57.1451 51.9356C57.1322 52.0383 57.1473 52.1425 57.1889 52.2373C57.2305 52.3322 57.297 52.4143 57.3814 52.4749C57.4804 52.5438 57.5705 52.5277 57.4213 52.3064C57.3253 52.1409 57.2739 51.9536 57.2721 51.7627Z" fill="#FAFAFA"/>
<path d="M57.4609 51.1758C57.4173 51.2136 57.3885 51.2655 57.3796 51.3223C57.3678 51.4132 57.5008 51.7957 57.6751 51.8924C57.8494 51.9891 57.7666 51.7781 57.6913 51.6755C57.6022 51.5148 57.5252 51.3477 57.4609 51.1758Z" fill="#FAFAFA"/>
<path d="M57.4888 50.46C57.4563 50.5264 57.4469 50.6017 57.4623 50.6739C57.563 50.8234 57.7136 50.9329 57.8877 50.9831C58.0029 50.9831 58.0502 50.9201 57.898 50.8366C57.7784 50.7706 57.5243 50.5684 57.4888 50.46Z" fill="#FAFAFA"/>
<path d="M59.0201 23.416C59.2358 24.7906 59.3333 25.8238 59.0881 29.2602C58.9788 30.7726 58.5209 37.2851 58.5209 37.2851C58.9208 38.6558 59.1573 40.0684 59.2255 41.4939C59.3141 43.8694 59.4928 46.7871 59.4928 46.7871C59.4928 46.7871 58.9891 46.4515 57.9994 46.7329C57.4906 46.8981 57.0445 47.2129 56.7202 47.6356C56.7202 47.6356 55.4706 44.0218 54.7527 41.4191C54.252 39.599 53.9078 38.9997 53.6301 36.5025C53.2889 33.4339 52.732 29.124 52.732 29.124L51.0215 23.4189L59.0201 23.416Z" fill="#37474F"/>
<path d="M54.7084 30.6231C53.7675 31.4467 53.5651 32.134 53.5149 32.6279C53.4647 33.1217 53.7586 37.5049 53.7586 37.5225C53.7158 37.2221 53.6729 36.8865 53.6301 36.4967C53.2889 33.4309 52.7335 29.124 52.732 29.1181L51.0215 23.4131H56.4381L55.9802 26.6869C56.1176 28.0967 55.6479 29.7995 54.7084 30.6231Z" fill="#263238"/>
<path d="M48.6173 46.877C48.6852 47.1701 48.765 47.3972 48.4903 47.7562C48.2155 48.1153 47.6187 48.3014 47.0264 48.2838C46.6018 48.2646 46.1969 48.1005 45.8802 47.8193C45.5375 47.5555 45.2982 47.3254 45.1697 47.217C45.0412 47.1085 44.5316 46.9693 44.0471 46.8726C43.5389 46.7715 42.5581 46.5604 42.0603 45.838C41.5625 45.1155 41.6482 44.4854 41.6482 44.4854L48.6173 46.877Z" fill="#263238"/>
<path d="M44.8758 44.0221C45.9171 44.3782 47.5006 44.5951 48.4445 44.8427C48.7281 45.105 48.6675 46.2921 48.6705 47.0922C48.3086 47.9158 47.152 48.1268 46.3854 47.7971C45.988 47.5802 45.7222 47.2739 45.3322 47.0365C45.0194 46.8641 44.6792 46.7461 44.3263 46.6877C43.9178 46.595 43.5161 46.4751 43.1239 46.3287C42.1002 45.8627 41.5906 44.9981 41.6468 44.2961C41.6999 43.6806 42.1091 43.2454 43.1239 43.3978C43.5848 43.4652 44.1594 43.7788 44.8758 44.0221Z" fill="#455A64"/>
<path d="M45.9405 44.2882C45.7558 44.0493 45.3998 44.19 45.1221 44.527C44.8444 44.8641 44.7706 45.4063 44.8046 45.5074C44.8385 45.6085 44.9715 45.6891 45.0099 45.5499C45.0483 45.4107 45.1148 44.9359 45.3349 44.6472C45.4688 44.4701 45.6545 44.3381 45.8666 44.2691L45.9405 44.2882Z" fill="#E0E0E0"/>
<path d="M44.6204 43.9306C44.4535 43.6888 44.0487 43.8045 43.7622 44.1152C43.4756 44.4259 43.384 44.8391 43.4106 44.9373C43.4372 45.0355 43.5583 45.1234 43.6086 44.9901C43.6861 44.7147 43.8159 44.4565 43.9911 44.2295C44.1359 44.0631 44.3323 43.9492 44.5495 43.9057L44.6204 43.9306Z" fill="#E0E0E0"/>
<path d="M45.2158 44.1289C45.0488 43.8871 44.6973 44.0058 44.4092 44.3165C44.1863 44.5772 44.0593 44.9053 44.0488 45.247C44.0754 45.3452 44.1965 45.4331 44.2453 45.2983C44.294 45.1635 44.3812 44.7121 44.6087 44.444C44.7483 44.2796 44.9355 44.162 45.1449 44.1069L45.2158 44.1289Z" fill="#E0E0E0"/>
<path d="M48.4753 44.0217C48.4753 44.0554 48.4325 45.1178 48.4325 45.1178C48.4325 45.1178 48.335 45.534 47.4059 45.6512C46.4768 45.7685 45.7988 45.4197 45.6215 45.1735C45.6215 45.1735 45.5078 44.0729 45.4531 43.6143L48.4753 44.0217Z" fill="#FFBDA7"/>
<path d="M56.4364 25.9117C56.3344 27.4944 55.6579 29.5416 53.3566 31.0862C52.3078 31.8922 51.5456 32.6982 50.677 33.5555C49.6002 34.6135 48.8425 35.2554 48.8425 35.2554C49.0092 36.5006 49.0616 37.7582 48.999 39.0128C48.8971 41.1612 48.5086 44.0086 48.5086 44.0086C48.0069 44.3604 47.3953 44.5235 46.7833 44.4687C45.7745 44.372 45.4111 43.9968 45.4111 43.9968C45.4111 43.9968 44.4125 37.3686 44.2767 36.0585C44.1408 34.7484 43.8852 34.0068 45.0152 31.8893C45.9015 30.2494 49.7893 23.4189 49.7893 23.4189H56.4364V25.9117Z" fill="#37474F"/>
<path d="M36.368 25.9502L33.4861 30.5341C33.4677 30.5633 33.459 30.5975 33.4613 30.6318C33.4635 30.6662 33.4766 30.6989 33.4986 30.7255C33.5207 30.7521 33.5506 30.7711 33.5841 30.7799C33.6177 30.7887 33.6531 30.7868 33.6855 30.7745L38.8126 28.8694L36.368 25.9502Z" fill="#FFA8A7"/>
<path d="M33.6855 30.7744C33.6531 30.7867 33.6177 30.7886 33.5841 30.7798C33.5506 30.771 33.5207 30.752 33.4986 30.7254C33.4766 30.6989 33.4635 30.6661 33.4613 30.6318C33.459 30.5974 33.4677 30.5632 33.4861 30.5341L34.0489 29.6387C34.0808 29.8029 34.1576 29.9553 34.2709 30.0791C34.3843 30.2029 34.5298 30.2934 34.6915 30.3406L34.7816 30.3655L33.6855 30.7744Z" fill="#263238"/>
<path d="M63.4613 8.88941L63.0714 9.20595L62.6017 9.58989L38.8199 28.8665C38.207 28.8215 37.634 28.5482 37.2157 28.1015C36.5584 27.4508 36.195 26.5305 36.3767 25.9517L60.1585 6.6839L61.0581 5.95117C60.4938 6.45822 62.8971 9.38766 63.4613 8.88941Z" fill="#73A7D0"/>
<path d="M61.9793 10.0984L61.1077 10.8047C60.8611 11.0172 60.2599 10.6142 59.6956 10.0427C58.9452 9.28653 58.378 8.13762 58.703 7.85772L59.3455 7.33601L59.5789 7.1543C59.2525 7.43566 59.8197 8.58311 60.5701 9.34075C61.1107 9.88737 61.6897 10.2801 61.9512 10.1189C61.9626 10.1154 61.9725 10.1082 61.9793 10.0984Z" fill="#EBEBEB"/>
<path d="M61.7602 10.273C61.19 10.7683 58.7882 7.82277 59.3584 7.32744L60.2225 6.61816C59.6523 7.11495 62.0541 10.059 62.6243 9.56373L61.7602 10.273Z" fill="#73A7D0"/>
<path d="M63.4616 8.88941L62.6019 9.58989C62.0451 10.0794 59.7038 7.25689 60.1499 6.6839C60.158 6.67258 60.1674 6.66225 60.178 6.65312L61.0495 5.9541C60.4941 6.45822 62.8974 9.38766 63.4616 8.88941Z" fill="#EBEBEB"/>
<path opacity="0.15" d="M33.5085 30.7338L33.4863 30.5345L36.8497 27.69L61.6138 7.6265C61.571 7.56935 61.5783 7.54004 61.6256 7.53125C62.2519 8.37389 63.1441 9.16816 63.4602 8.88973L63.0702 9.20626L62.6005 9.59021L38.8188 28.8668L33.6916 30.7719C33.6609 30.7853 33.6268 30.7888 33.5939 30.7819C33.5611 30.7751 33.5312 30.7583 33.5085 30.7338Z" fill="black"/>
<path d="M67.111 5.92071L63.461 8.88972C63.2202 9.10221 62.622 8.70801 62.0592 8.14381C61.3059 7.3891 60.7298 6.23872 61.0489 5.95442L64.7121 2.97808C65.4433 2.3919 66.8318 3.71081 67.2469 4.83481C67.4079 5.24954 67.3975 5.64667 67.111 5.92071Z" fill="#F28F8F"/>
<path opacity="0.1" d="M65.8365 5.69761C65.0581 5.16125 64.479 4.13544 64.544 3.43495C64.5454 3.32801 64.573 3.22301 64.6245 3.12904C64.676 3.03507 64.7498 2.95496 64.8395 2.89566C65.5943 2.52637 66.8587 3.76614 67.2516 4.83006C67.4067 5.24039 67.3993 5.6302 67.1275 5.90424C66.8484 6.12552 66.3653 6.0669 65.8365 5.69761Z" fill="black"/>
<path d="M56.3231 11.5663C55.9745 11.2732 55.7795 10.3529 55.9553 9.85023C56.1311 9.34758 56.8416 8.16057 56.9361 6.72296C57.0307 5.28535 55.0823 3.08277 53.4028 3.25569C51.7233 3.42862 50.8297 4.35039 50.3777 5.60042C50.1029 6.35952 50.3127 6.46504 50.2063 6.90028C49.9981 7.7605 49.7957 8.93579 50.1694 10.0832C50.2482 10.3345 50.3962 10.559 50.5966 10.7314C50.797 10.9039 51.0419 11.0174 51.3038 11.0592C51.6614 11.1297 52.0281 11.1416 52.3895 11.0944C52.4123 11.4657 52.4152 11.838 52.3984 12.2096C52.3949 12.3376 52.3429 12.4597 52.2529 12.5514C52.1629 12.6432 52.0413 12.698 51.9124 12.7049C51.9124 12.7049 56.6791 11.8594 56.3231 11.5663Z" fill="#FFBDA7"/>
<path d="M51.4141 9.21594C51.4562 9.34166 51.5457 9.44633 51.6639 9.50803C51.7821 9.56973 51.9197 9.58366 52.0481 9.54691C52.1764 9.51017 52.2854 9.42559 52.3522 9.3109C52.4191 9.1962 52.4386 9.0603 52.4067 8.93164L51.4141 9.21594Z" fill="#B16668"/>
<path d="M51.8047 9.57197C51.8531 9.44365 51.9373 9.3316 52.0474 9.24885C52.1574 9.1661 52.2889 9.11604 52.4266 9.10449C52.4231 9.17825 52.4033 9.25034 52.3686 9.31567C52.3339 9.381 52.2852 9.43798 52.2259 9.48257C52.1665 9.52717 52.0981 9.55829 52.0253 9.57374C51.9525 9.58918 51.8772 9.58858 51.8047 9.57197Z" fill="#F28F8F"/>
<path d="M52.4872 7.25694C52.4756 7.29061 52.4709 7.32623 52.4732 7.36173C52.4756 7.39723 52.485 7.43192 52.5009 7.46379C52.5169 7.49567 52.539 7.5241 52.566 7.54745C52.5931 7.57081 52.6245 7.58862 52.6586 7.59986C52.711 7.61871 52.7679 7.62156 52.822 7.60804C52.876 7.59452 52.9248 7.56525 52.9619 7.524C52.9991 7.48276 53.0229 7.43142 53.0304 7.37661C53.0378 7.32179 53.0286 7.26601 53.0038 7.21646C52.9791 7.1669 52.9399 7.12583 52.8914 7.09854C52.8429 7.07126 52.7873 7.059 52.7317 7.06336C52.6761 7.06772 52.6232 7.08848 52.5796 7.12298C52.536 7.15749 52.5038 7.20414 52.4872 7.25694Z" fill="#263238"/>
<path d="M52.5078 6.2627L53.1208 6.49425C53.1504 6.41116 53.1465 6.31992 53.1099 6.23962C53.0733 6.15932 53.0068 6.09618 52.9244 6.0634C52.8839 6.04823 52.8407 6.04139 52.7975 6.04328C52.7543 6.04517 52.7119 6.05575 52.673 6.07439C52.634 6.09303 52.5993 6.11934 52.5709 6.15171C52.5425 6.18408 52.521 6.22185 52.5078 6.2627Z" fill="#263238"/>
<path d="M50.4762 6.40846L51.0922 6.16959C51.0786 6.12896 51.0567 6.09151 51.028 6.05954C50.9993 6.02757 50.9643 6.00174 50.9251 5.98364C50.886 5.96553 50.8436 5.95553 50.8004 5.95424C50.7573 5.95296 50.7143 5.96041 50.6742 5.97615C50.5916 6.00925 50.525 6.07259 50.4881 6.15306C50.4513 6.23353 50.447 6.32497 50.4762 6.40846Z" fill="#263238"/>
<path d="M50.5958 7.12902C50.5978 7.17699 50.614 7.22332 50.6424 7.26222C50.6708 7.30112 50.71 7.33088 50.7553 7.3478C50.8006 7.36471 50.85 7.36803 50.8972 7.35734C50.9443 7.34665 50.9873 7.32243 51.0207 7.28769C51.0541 7.25294 51.0765 7.20921 51.085 7.16195C51.0936 7.11468 51.0879 7.06597 51.0688 7.02187C51.0496 6.97778 51.0178 6.94025 50.9773 6.91396C50.9368 6.88767 50.8894 6.87378 50.841 6.87403C50.808 6.87479 50.7755 6.88199 50.7453 6.89521C50.7151 6.90844 50.6879 6.92744 50.6651 6.95112C50.6424 6.9748 50.6245 7.0027 50.6126 7.03322C50.6007 7.06375 50.595 7.0963 50.5958 7.12902Z" fill="#263238"/>
<path d="M50.3848 8.3268L51.3419 8.75178L51.6448 6.88772C51.2888 6.76023 50.8264 7.61605 50.3848 8.3268Z" fill="#F0997A"/>
<path d="M52.3965 11.0899C52.3965 11.0899 53.3049 10.9551 53.5619 10.81C54.2606 10.4144 54.5147 10.1096 54.6698 9.67578C54.623 9.97158 54.5045 10.2517 54.3244 10.4919C54.1442 10.7321 53.9079 10.9253 53.6358 11.0548C53.2412 11.22 52.8303 11.3437 52.4098 11.4241L52.3965 11.0899Z" fill="#F0997A"/>
<path d="M57.3495 5.98748C57.3052 5.66692 57.1482 5.37217 56.9064 5.1551C56.8686 5.12508 56.8255 5.10223 56.7793 5.08769C56.995 3.75266 55.9581 3.20898 55.4219 3.11958C55.1726 3.08754 54.9258 3.03857 54.6833 2.97304C54.6211 2.9515 54.562 2.92194 54.5075 2.88511C54.3406 2.77081 54.2505 2.60521 54.0644 2.46892C53.6434 2.15971 52.9713 2.19781 52.7497 2.72391C52.4617 2.40005 52.1028 2.43082 51.6936 2.56711C51.5805 2.59971 51.4775 2.66023 51.3943 2.743C51.3112 2.82577 51.2505 2.92811 51.218 3.04045C51.1864 3.15758 51.1813 3.28019 51.2032 3.39949C51.1089 3.34978 51.0052 3.3202 50.8987 3.31264C50.7922 3.30508 50.6853 3.31971 50.5849 3.3556C50.4844 3.39149 50.3927 3.44783 50.3155 3.52101C50.2383 3.59419 50.1774 3.68258 50.1367 3.7805C50.1253 3.81271 50.1178 3.84617 50.1146 3.88015C50.1124 3.91676 50.1124 3.95346 50.1146 3.99006C50.1146 4.18497 50.1397 4.35643 50.02 4.54547C49.9949 4.58535 49.9635 4.62098 49.927 4.65098C49.8929 4.68626 49.8518 4.71396 49.8061 4.73225C49.7605 4.75053 49.7115 4.75898 49.6623 4.75704C49.6132 4.7551 49.565 4.74281 49.5209 4.72099C49.4769 4.69917 49.4381 4.66831 49.407 4.63047C49.373 4.97338 49.5237 5.21665 49.8945 5.18001C49.8376 5.27864 49.8035 5.38853 49.7946 5.50179C49.7856 5.61505 49.8021 5.72887 49.8428 5.83507C49.8781 5.92577 49.9327 6.0079 50.0027 6.0759C50.0728 6.14391 50.1568 6.19621 50.249 6.22928C50.2669 6.01414 50.3167 5.8028 50.3967 5.60206C50.4484 5.45552 50.5075 5.3207 50.571 5.18441C50.8145 5.28769 51.0708 5.35817 51.3332 5.39397C52.288 5.55374 53.2685 5.45813 54.1737 5.117C54.0354 5.42744 53.9328 5.75239 53.8679 6.08566C53.8448 6.23397 53.8554 6.38553 53.8988 6.52928C53.9423 6.67303 54.0175 6.80535 54.119 6.91657C54.2165 7.00597 54.1811 7.16717 54.156 7.27854C54.1074 7.41385 54.0795 7.55562 54.0733 7.69913C54.0742 7.7201 54.0782 7.74083 54.0851 7.76068C54.0969 7.79451 54.1164 7.82522 54.142 7.85048C54.1676 7.87574 54.1986 7.89488 54.2328 7.90647C54.267 7.91805 54.3033 7.92176 54.3392 7.91732C54.375 7.91288 54.4093 7.9004 54.4396 7.88084C54.5407 7.78316 54.6207 7.66596 54.6744 7.53646C55.0083 6.85063 55.7276 6.83304 56.0216 7.17596C56.3155 7.51888 56.3022 7.87352 56.0216 8.49487C55.8325 8.90813 55.3997 9.11182 55.0777 8.97847C55.0191 8.95428 54.9655 8.9195 54.9196 8.87589C54.9108 9.1426 54.9802 9.49577 55.2564 9.69361C55.4652 9.82161 55.7111 9.8768 55.9551 9.85041C56.0393 9.60861 56.2505 9.21147 56.4485 8.70296C56.5962 8.44944 56.7439 8.20324 56.8695 7.97024C56.9093 7.89696 56.9448 7.82369 56.9758 7.75042C57.2698 7.08803 57.4278 6.58245 57.3495 5.98748Z" fill="#263238"/>
<path d="M56.8906 11.6433C58.6632 11.4806 59.4254 12.0829 59.87 12.6002C60.3146 13.1175 62.3191 16.4104 63.1197 18.2671C63.4432 19.0189 63.6234 19.6109 62.9306 20.288C62.192 21.009 58.7843 23.871 58.7843 23.871L57.5347 21.9234L59.9143 18.8167L57.8463 15.4461L56.8906 11.6433Z" fill="#37474F"/>
<path d="M57.889 11.9017C58.7856 12.3414 59.409 14.1131 59.4887 15.4599C59.5508 16.5077 59.3174 17.8793 59.1682 19.8386C59.1008 20.7306 59.0924 21.6259 59.1431 22.5189C59.1904 23.4451 59.2686 25.0718 59.2686 25.0718C59.2686 25.0718 58.3824 26.8523 55.1888 27.1659C50.5432 27.6231 48.6895 25.359 48.6895 25.359C48.6895 25.359 49.0115 24.3332 49.0484 20.523C49.0765 17.6742 48.7869 14.925 49.3542 13.9094C49.5994 13.5709 49.5979 13.2353 50.2404 12.9979C50.6836 12.8338 52.6999 12.3458 53.4901 12.1772C56.1253 11.6189 56.951 11.443 57.889 11.9017Z" fill="#455A64"/>
<path d="M51.9527 12.5574C52.3575 12.66 52.5436 12.7582 53.1566 12.893C54.0291 13.1078 54.9501 13.0075 55.7549 12.6102C56.5067 12.2248 56.6411 11.7119 56.6411 11.7119C56.6411 11.7119 56.3236 11.1535 56.198 10.9704C56.0724 10.7872 55.9513 10.8062 55.9513 10.8062L56.006 11.0187C56.006 11.0187 56.006 11.3734 55.1419 11.5888C54.2556 11.8101 52.8242 11.8277 52.4136 11.706V11.5873C52.2009 11.643 52.1329 11.7983 51.8922 12.1237C51.743 12.3248 51.5828 12.5175 51.4121 12.7011L51.9527 12.5574Z" fill="#37474F"/>
<path d="M40.1536 24.1475C39.3751 24.3321 39.0103 24.6033 38.6306 24.6472C38.4082 24.6738 38.1838 24.6811 37.96 24.6692L37.248 25.2378C37.248 25.2378 37.3958 24.0112 37.607 23.5511C37.8182 23.0909 38.0102 23.3664 38.1535 23.0821C38.2968 22.7978 38.2628 22.5941 38.5716 22.4842C38.8803 22.3743 38.8108 22.0915 39.288 22.005C39.7651 21.9185 41.6661 22.1955 41.6661 22.1955L40.1536 24.1475Z" fill="#FFA8A7"/>
<path d="M50.3473 12.9629C48.368 13.4025 47.8717 13.9022 46.9337 15.6623C45.879 17.6406 44.5836 20.1656 44.5836 20.1656C44.5836 20.1656 41.8922 21.2412 40.2896 21.8098C39.7711 21.9945 38.7873 24.4154 39.6441 24.4726C39.6441 24.4726 44.04 23.712 45.3413 23.4614C46.9056 23.1595 47.1538 22.8459 48.0002 21.5666C48.8466 20.2872 50.7713 16.6456 50.7713 16.6456C50.7713 16.6456 51.6812 13.9828 50.3473 12.9629Z" fill="#37474F"/>
</svg>
