<svg width="72" height="67" viewBox="0 0 72 67" fill="none" xmlns="http://www.w3.org/2000/svg">
<path d="M36.6485 66.8985C56.1726 66.8985 72.0001 65.9738 72.0001 64.8331C72.0001 63.6923 56.1726 62.7676 36.6485 62.7676C17.1243 62.7676 1.29688 63.6923 1.29688 64.8331C1.29688 65.9738 17.1243 66.8985 36.6485 66.8985Z" fill="white"/>
<path d="M60.7751 8.08109C60.7984 7.78703 60.7602 7.49134 60.6629 7.2129C60.5656 6.93446 60.4114 6.67938 60.21 6.46398C60.0086 6.24857 59.7646 6.07757 59.4934 5.96189C59.2223 5.84621 58.93 5.78841 58.6353 5.79216H23.4553C22.8366 5.80096 22.2434 6.04043 21.7917 6.46375C21.34 6.88707 21.0624 7.46377 21.0131 8.08109L20.2049 20.276L15.14 57.7659C15.0906 58.0514 15.1052 58.3442 15.1826 58.6233C15.2601 58.9024 15.3985 59.1608 15.588 59.3798C15.7774 59.5988 16.0131 59.773 16.278 59.8897C16.5429 60.0065 16.8304 60.0629 17.1197 60.0549H52.3022C52.9347 60.038 53.5412 59.7997 54.0163 59.3815C54.4913 58.9633 54.8047 58.3916 54.902 57.7659L59.9669 20.276L60.7751 8.08109Z" fill="#EDC86C"/>
<path opacity="0.2" d="M58.6357 5.85645C58.9215 5.8528 59.2049 5.90937 59.4678 6.02148C59.7307 6.13365 59.9678 6.29895 60.1631 6.50781C60.3584 6.71669 60.5082 6.96437 60.6025 7.23438C60.6968 7.50429 60.7336 7.79114 60.7109 8.07617V8.07715L59.9023 20.2715L54.8379 57.7578C54.7426 58.3679 54.4369 58.9251 53.9736 59.333C53.51 59.7412 52.9181 59.9737 52.3008 59.9902H17.1182C16.8383 59.998 16.5599 59.944 16.3037 59.8311C16.0476 59.7182 15.8199 59.5496 15.6367 59.3379C15.4536 59.1261 15.3191 58.8763 15.2441 58.6064C15.1693 58.3367 15.1554 58.0532 15.2031 57.7773L15.2041 57.7744L20.2686 20.2842L20.2695 20.2803L21.0771 8.08594C21.1252 7.48467 21.396 6.92305 21.8359 6.51074C22.2209 6.15002 22.7111 5.92617 23.2314 5.87012L23.4561 5.85645H58.6357Z" fill="black" stroke="black" stroke-width="0.128571"/>
<path d="M58.6406 20.3398L53.5859 57.7559C53.4914 58.367 53.1854 58.9253 52.7217 59.334C52.2579 59.7427 51.6656 59.9756 51.0479 59.9922H15.8652C15.5857 59.9994 15.3076 59.945 15.0518 59.832C14.796 59.719 14.5688 59.5504 14.3857 59.3389C14.2026 59.1271 14.0683 58.8772 13.9932 58.6074C13.9181 58.3377 13.9038 58.0543 13.9512 57.7783V57.7764L19.0088 20.3398H58.6406Z" fill="#EDC86C" stroke="black" stroke-width="0.128571"/>
<path d="M28.6856 4.89648H23.4453V5.15081H28.6856V4.89648Z" fill="#EDC86C"/>
<path d="M20.9681 5.42294L20.8613 5.1915C21.2821 4.99748 21.7399 4.89683 22.2032 4.89648V5.15081C21.7766 5.15111 21.3553 5.24396 20.9681 5.42294Z" fill="#EDC86C"/>
<path d="M57.3848 5.84375C57.6713 5.84027 57.9554 5.89676 58.2188 6.00977C58.4821 6.1228 58.7191 6.28988 58.9141 6.5C59.1091 6.71023 59.2585 6.95918 59.3516 7.23047C59.4446 7.50166 59.4798 7.78953 59.4551 8.0752V8.07715L58.6533 20.2119H19.0205L19.8232 8.07324C19.8713 7.47196 20.1421 6.91036 20.582 6.49805C20.9669 6.13731 21.4573 5.9135 21.9775 5.85742L22.2021 5.84375H57.3848Z" fill="#EDC86C" stroke="black" stroke-width="0.128571"/>
<path opacity="0.9" d="M20.9157 17.2898L21.4798 8.76226C21.5058 8.43718 21.6519 8.13347 21.8897 7.91052C22.1276 7.68757 22.4399 7.56143 22.7658 7.55676H56.5836C56.7388 7.55446 56.8929 7.5847 57.0357 7.64553C57.1786 7.70636 57.3072 7.79643 57.4133 7.90997C57.5193 8.0235 57.6004 8.15799 57.6514 8.30477C57.7024 8.45155 57.7222 8.60739 57.7094 8.76226L57.1452 17.2898C57.1187 17.6146 56.9724 17.918 56.7347 18.1409C56.497 18.3637 56.1849 18.49 55.8593 18.4953H22.0415C21.8863 18.4972 21.7325 18.4667 21.5898 18.4057C21.4471 18.3447 21.3186 18.2547 21.2127 18.1412C21.1067 18.0278 21.0256 17.8934 20.9744 17.7468C20.9233 17.6002 20.9033 17.4446 20.9157 17.2898Z" fill="white"/>
<g opacity="0.4">
<path d="M54.1492 8.95244L53.7655 9.31104C53.7561 9.32018 53.7449 9.32737 53.7327 9.33217C53.7205 9.33697 53.7075 9.3393 53.6943 9.33902H51.6613C51.6469 9.33935 51.6327 9.33657 51.6195 9.33087C51.6063 9.32516 51.5946 9.31666 51.585 9.30595L51.2546 8.9499C51.2408 8.93504 51.2315 8.91645 51.2281 8.89641C51.2246 8.87637 51.2271 8.85576 51.2352 8.83711C51.2433 8.81846 51.2567 8.80259 51.2737 8.79145C51.2907 8.78031 51.3106 8.77439 51.3309 8.77441H54.0832C54.1037 8.77465 54.1237 8.78111 54.1405 8.79295C54.1573 8.80478 54.1702 8.82144 54.1773 8.84072C54.1845 8.86 54.1856 8.88099 54.1806 8.90094C54.1756 8.92088 54.1647 8.93884 54.1492 8.95244Z" fill="#A9883A"/>
<path d="M53.6086 15.5627H50.8563C50.8354 15.5627 50.8149 15.5564 50.7976 15.5446C50.7803 15.5329 50.7669 15.5162 50.7592 15.4967C50.7515 15.4772 50.7499 15.4558 50.7545 15.4354C50.7591 15.415 50.7698 15.3964 50.7851 15.3821L51.1663 15.0261C51.1859 15.0085 51.2112 14.9985 51.2375 14.9981H53.2706C53.2852 14.9977 53.2997 15.0007 53.3129 15.0069C53.3261 15.0131 53.3377 15.0222 53.3468 15.0337L53.6797 15.3897C53.6926 15.4043 53.7011 15.4223 53.7043 15.4415C53.7075 15.4606 53.7053 15.4804 53.6979 15.4983C53.6905 15.5163 53.6782 15.5319 53.6624 15.5433C53.6466 15.5546 53.628 15.5614 53.6086 15.5627Z" fill="#A9883A"/>
<path d="M53.8762 12.2383L53.6805 12.4239C53.6609 12.4415 53.6357 12.4515 53.6094 12.4519H51.223C51.2089 12.4516 51.195 12.4484 51.1821 12.4426C51.1692 12.4367 51.1577 12.4283 51.1482 12.4178C51.1387 12.4073 51.1314 12.395 51.1268 12.3817C51.1222 12.3683 51.1203 12.3541 51.1214 12.34L51.1468 11.9814C51.1487 11.9551 51.1605 11.9305 51.1799 11.9126C51.1992 11.8946 51.2246 11.8847 51.251 11.8848H53.6449C53.6593 11.8846 53.6734 11.8875 53.6866 11.8932C53.6997 11.8989 53.7115 11.9073 53.7212 11.9178L53.8838 12.0933C53.8929 12.1033 53.9 12.115 53.9046 12.1277C53.9091 12.1404 53.9111 12.1539 53.9104 12.1674C53.9097 12.1809 53.9063 12.1941 53.9004 12.2063C53.8946 12.2185 53.8863 12.2293 53.8762 12.2383Z" fill="#A9883A"/>
<path d="M54.2002 12.4346L53.9994 15.1889C53.9975 15.209 53.9899 15.2281 53.9774 15.244C53.9649 15.2598 53.9481 15.2717 53.929 15.2781C53.9099 15.2846 53.8893 15.2854 53.8698 15.2804C53.8503 15.2754 53.8326 15.2648 53.8189 15.25L53.4911 14.8939C53.4813 14.8834 53.4737 14.871 53.4689 14.8574C53.4641 14.8439 53.4621 14.8294 53.4632 14.8151L53.6131 12.7678C53.6135 12.7546 53.6167 12.7418 53.6224 12.7299C53.628 12.7181 53.6361 12.7076 53.6461 12.6991L54.0273 12.343C54.0432 12.3288 54.0631 12.3198 54.0842 12.3172C54.1054 12.3146 54.1268 12.3185 54.1456 12.3285C54.1645 12.3385 54.1798 12.354 54.1895 12.373C54.1993 12.392 54.203 12.4135 54.2002 12.4346Z" fill="#A9883A"/>
<path d="M54.4365 9.16603L54.2357 11.928C54.2343 11.9483 54.227 11.9678 54.2147 11.9839C54.2024 12.0001 54.1856 12.0124 54.1664 12.0191C54.1472 12.0259 54.1265 12.0269 54.1067 12.022C54.087 12.0171 54.0691 12.0065 54.0553 11.9916L53.7249 11.633C53.7158 11.6226 53.7089 11.6105 53.7046 11.5974C53.7002 11.5843 53.6985 11.5705 53.6995 11.5567L53.8469 9.50937C53.8493 9.48326 53.8611 9.45889 53.8799 9.4407L54.2611 9.08211C54.2764 9.06767 54.2958 9.05821 54.3165 9.05496C54.3373 9.05171 54.3586 9.05484 54.3776 9.06392C54.3965 9.073 54.4123 9.08761 54.4228 9.10584C54.4334 9.12406 54.4381 9.14505 54.4365 9.16603Z" fill="#A9883A"/>
</g>
<path opacity="0.4" d="M49.7396 16.7149C49.7477 16.6199 49.7906 16.5313 49.86 16.466C49.9295 16.4008 50.0205 16.3635 50.1157 16.3613H54.436C54.4865 16.3609 54.5366 16.3709 54.583 16.3907C54.6294 16.4105 54.6713 16.4397 54.7059 16.4765C54.7405 16.5133 54.7671 16.5568 54.7841 16.6044C54.8011 16.652 54.808 16.7026 54.8045 16.753C54.7964 16.8484 54.7531 16.9374 54.6832 17.0027C54.6132 17.068 54.5215 17.105 54.4259 17.1065H50.1157C50.0644 17.1089 50.0131 17.1002 49.9654 17.0812C49.9177 17.0621 49.8746 17.0331 49.839 16.996C49.8034 16.9589 49.7761 16.9147 49.7589 16.8662C49.7418 16.8177 49.7352 16.7661 49.7396 16.7149Z" fill="#A9883A"/>
<path opacity="0.4" d="M44.3372 16.7149C44.3454 16.6199 44.3882 16.5313 44.4577 16.466C44.5271 16.4008 44.6181 16.3635 44.7133 16.3613H49.0336C49.0841 16.3609 49.1342 16.3709 49.1806 16.3907C49.2271 16.4105 49.2689 16.4397 49.3035 16.4765C49.3381 16.5133 49.3648 16.5568 49.3817 16.6044C49.3987 16.652 49.4057 16.7026 49.4021 16.753C49.394 16.8484 49.3507 16.9374 49.2808 17.0027C49.2108 17.068 49.1191 17.105 49.0235 17.1065H44.7032C44.6527 17.1074 44.6026 17.0977 44.5561 17.078C44.5096 17.0583 44.4677 17.029 44.4332 16.9921C44.3987 16.9552 44.3724 16.9114 44.3558 16.8637C44.3393 16.8159 44.333 16.7652 44.3372 16.7149Z" fill="#A9883A"/>
<path opacity="0.4" d="M38.9349 16.7148C38.943 16.6199 38.9859 16.5313 39.0553 16.466C39.1247 16.4008 39.2158 16.3635 39.311 16.3613H43.6313C43.6816 16.3612 43.7313 16.3715 43.7775 16.3914C43.8236 16.4114 43.8652 16.4407 43.8995 16.4774C43.9338 16.5142 43.9602 16.5576 43.9771 16.605C43.9939 16.6524 44.0008 16.7028 43.9973 16.753C43.9897 16.8486 43.9466 16.9379 43.8765 17.0033C43.8064 17.0687 43.7144 17.1055 43.6186 17.1065H39.2983C39.248 17.107 39.1982 17.097 39.152 17.0772C39.1058 17.0573 39.0642 17.028 39.03 16.9911C38.9958 16.9542 38.9697 16.9106 38.9533 16.863C38.9369 16.8155 38.9306 16.765 38.9349 16.7148Z" fill="#A9883A"/>
<path opacity="0.4" d="M33.5306 16.7148C33.5387 16.6199 33.5816 16.5313 33.651 16.466C33.7204 16.4008 33.8115 16.3635 33.9067 16.3613H38.227C38.2773 16.3612 38.327 16.3715 38.3732 16.3914C38.4193 16.4114 38.4609 16.4407 38.4952 16.4774C38.5295 16.5142 38.5559 16.5576 38.5728 16.605C38.5896 16.6524 38.5965 16.7028 38.593 16.753C38.5854 16.8486 38.5423 16.9379 38.4722 17.0033C38.4021 17.0687 38.3101 17.1055 38.2143 17.1065H33.894C33.8437 17.107 33.7939 17.097 33.7477 17.0772C33.7015 17.0573 33.6599 17.028 33.6257 16.9911C33.5915 16.9542 33.5654 16.9106 33.549 16.863C33.5326 16.8155 33.5263 16.765 33.5306 16.7148Z" fill="#A9883A"/>
<path opacity="0.1" d="M21.5998 37.6639L23.1907 25.8963C23.2501 25.5106 23.4429 25.1581 23.7355 24.9001C24.0281 24.6421 24.402 24.4952 24.7918 24.4848H36.5506C36.729 24.4799 36.9062 24.5148 37.0695 24.5868C37.2328 24.6588 37.378 24.7662 37.4948 24.9013C37.6115 25.0364 37.6968 25.1957 37.7445 25.3678C37.7921 25.5399 37.801 25.7204 37.7705 25.8963L36.1796 37.6639C36.1207 38.0494 35.9284 38.4019 35.6362 38.6599C35.3441 38.9179 34.9706 39.065 34.5811 39.0754H22.8197C22.6413 39.0803 22.4641 39.0455 22.3008 38.9735C22.1375 38.9015 21.9922 38.794 21.8755 38.659C21.7588 38.5239 21.6735 38.3646 21.6258 38.1925C21.5781 38.0204 21.5693 37.8399 21.5998 37.6639Z" fill="#263238"/>
<path opacity="0.1" d="M38.3523 37.664L39.9508 25.8964C40.0102 25.5107 40.203 25.1582 40.4956 24.9002C40.7882 24.6422 41.162 24.4953 41.5518 24.4849H53.3107C53.4892 24.4796 53.6666 24.5141 53.8302 24.5859C53.9937 24.6578 54.1391 24.7652 54.2559 24.9004C54.3728 25.0356 54.458 25.1951 54.5055 25.3674C54.553 25.5397 54.5616 25.7204 54.5305 25.8964L52.9422 37.664C52.8823 38.0495 52.6894 38.4018 52.3968 38.6597C52.1043 38.9175 51.7308 39.0647 51.3411 39.0755H39.5696C39.3913 39.0805 39.2141 39.0457 39.0509 38.9737C38.8877 38.9016 38.7426 38.7941 38.626 38.659C38.5095 38.5239 38.4245 38.3645 38.3771 38.1924C38.3298 38.0203 38.3213 37.8398 38.3523 37.664Z" fill="#263238"/>
<path opacity="0.1" d="M19.3353 54.4288L20.9262 42.6561C20.986 42.2706 21.179 41.9183 21.4715 41.6604C21.764 41.4026 22.1376 41.2554 22.5272 41.2446H34.2861C34.4644 41.2397 34.6417 41.2745 34.8049 41.3465C34.9682 41.4186 35.1135 41.526 35.2302 41.6611C35.3469 41.7961 35.4322 41.9555 35.4799 42.1275C35.5276 42.2996 35.5365 42.4802 35.5059 42.6561L33.915 54.4262C33.8556 54.8113 33.6631 55.1632 33.371 55.4207C33.0788 55.6782 32.7057 55.8249 32.3165 55.8352H20.5551C20.3773 55.84 20.2006 55.8052 20.0377 55.7335C19.8748 55.6618 19.7299 55.5548 19.6133 55.4203C19.4966 55.2859 19.4112 55.1272 19.3631 54.9558C19.3151 54.7843 19.3056 54.6043 19.3353 54.4288Z" fill="#263238"/>
<path opacity="0.1" d="M36.0897 54.4288L37.678 42.6561C37.7379 42.2706 37.9308 41.9183 38.2233 41.6604C38.5158 41.4026 38.8894 41.2554 39.2791 41.2446H51.0379C51.2163 41.2397 51.3935 41.2745 51.5568 41.3465C51.7201 41.4186 51.8653 41.526 51.9821 41.6611C52.0988 41.7961 52.1841 41.9555 52.2318 42.1275C52.2794 42.2996 52.2883 42.4802 52.2578 42.6561L50.6694 54.4262C50.609 54.8113 50.4158 55.163 50.1234 55.4203C49.8309 55.6777 49.4576 55.8245 49.0683 55.8352H37.307C37.1292 55.84 36.9525 55.8053 36.7898 55.7336C36.627 55.6618 36.4822 55.5548 36.3657 55.4203C36.2493 55.2857 36.1641 55.127 36.1164 54.9556C36.0686 54.7841 36.0595 54.6042 36.0897 54.4288Z" fill="#263238"/>
<path d="M20.8166 37.6639L22.4151 25.8963C22.4745 25.5106 22.6674 25.1581 22.96 24.9001C23.2526 24.6421 23.6264 24.4952 24.0162 24.4848H35.775C35.9534 24.4799 36.1306 24.5148 36.2939 24.5868C36.4572 24.6588 36.6025 24.7662 36.7192 24.9013C36.8359 25.0364 36.9212 25.1957 36.9689 25.3678C37.0166 25.5399 37.0254 25.7204 36.9949 25.8963L35.404 37.6639C35.3451 38.0494 35.1528 38.4019 34.8607 38.6599C34.5685 38.9179 34.195 39.065 33.8055 39.0754H22.0365C21.8581 39.0803 21.6809 39.0455 21.5176 38.9735C21.3543 38.9015 21.209 38.794 21.0923 38.659C20.9756 38.5239 20.8903 38.3646 20.8426 38.1925C20.7949 38.0204 20.7861 37.8399 20.8166 37.6639Z" fill="#EDC86C"/>
<path opacity="0.2" d="M20.8166 37.6639L22.4151 25.8963C22.4745 25.5106 22.6674 25.1581 22.96 24.9001C23.2526 24.6421 23.6264 24.4952 24.0162 24.4848H35.775C35.9534 24.4799 36.1306 24.5148 36.2939 24.5868C36.4572 24.6588 36.6025 24.7662 36.7192 24.9013C36.8359 25.0364 36.9212 25.1957 36.9689 25.3678C37.0166 25.5399 37.0254 25.7204 36.9949 25.8963L35.404 37.6639C35.3451 38.0494 35.1528 38.4019 34.8607 38.6599C34.5685 38.9179 34.195 39.065 33.8055 39.0754H22.0365C21.8581 39.0803 21.6809 39.0455 21.5176 38.9735C21.3543 38.9015 21.209 38.794 21.0923 38.659C20.9756 38.5239 20.8903 38.3646 20.8426 38.1925C20.7949 38.0204 20.7861 37.8399 20.8166 37.6639Z" fill="white"/>
<path d="M37.5691 37.664L39.1574 25.8964C39.2168 25.5107 39.4096 25.1582 39.7022 24.9002C39.9948 24.6422 40.3686 24.4953 40.7585 24.4849H52.5173C52.6958 24.4796 52.8733 24.5141 53.0368 24.5859C53.2003 24.6578 53.3458 24.7652 53.4626 24.9004C53.5794 25.0356 53.6647 25.1951 53.7122 25.3674C53.7597 25.5397 53.7682 25.7204 53.7372 25.8964L52.1488 37.664C52.0889 38.0495 51.896 38.4018 51.6035 38.6597C51.311 38.9175 50.9374 39.0647 50.5478 39.0755H38.7864C38.6081 39.0805 38.4309 39.0457 38.2677 38.9737C38.1045 38.9016 37.9594 38.7941 37.8428 38.659C37.7263 38.5239 37.6413 38.3645 37.5939 38.1924C37.5466 38.0203 37.5381 37.8398 37.5691 37.664Z" fill="#EDC86C"/>
<path opacity="0.2" d="M37.5691 37.664L39.1574 25.8964C39.2168 25.5107 39.4096 25.1582 39.7022 24.9002C39.9948 24.6422 40.3686 24.4953 40.7585 24.4849H52.5173C52.6958 24.4796 52.8733 24.5141 53.0368 24.5859C53.2003 24.6578 53.3458 24.7652 53.4626 24.9004C53.5794 25.0356 53.6647 25.1951 53.7122 25.3674C53.7597 25.5397 53.7682 25.7204 53.7372 25.8964L52.1488 37.664C52.0889 38.0495 51.896 38.4018 51.6035 38.6597C51.311 38.9175 50.9374 39.0647 50.5478 39.0755H38.7864C38.6081 39.0805 38.4309 39.0457 38.2677 38.9737C38.1045 38.9016 37.9594 38.7941 37.8428 38.659C37.7263 38.5239 37.6413 38.3645 37.5939 38.1924C37.5466 38.0203 37.5381 37.8398 37.5691 37.664Z" fill="white"/>
<path d="M18.554 54.4288L20.1449 42.6561C20.2048 42.2706 20.3977 41.9183 20.6902 41.6604C20.9827 41.4026 21.3563 41.2554 21.746 41.2446H33.5048C33.6832 41.2397 33.8604 41.2745 34.0237 41.3465C34.187 41.4186 34.3322 41.526 34.449 41.6611C34.5657 41.7961 34.651 41.9555 34.6987 42.1275C34.7463 42.2996 34.7552 42.4802 34.7247 42.6561L33.1338 54.4262C33.0744 54.8113 32.8818 55.1632 32.5897 55.4207C32.2976 55.6782 31.9244 55.8249 31.5353 55.8352H19.7739C19.596 55.84 19.4193 55.8052 19.2564 55.7335C19.0936 55.6618 18.9486 55.5548 18.832 55.4203C18.7154 55.2859 18.63 55.1272 18.5819 54.9558C18.5338 54.7843 18.5243 54.6043 18.554 54.4288Z" fill="#EDC86C"/>
<path opacity="0.2" d="M18.554 54.4288L20.1449 42.6561C20.2048 42.2706 20.3977 41.9183 20.6902 41.6604C20.9827 41.4026 21.3563 41.2554 21.746 41.2446H33.5048C33.6832 41.2397 33.8604 41.2745 34.0237 41.3465C34.187 41.4186 34.3322 41.526 34.449 41.6611C34.5657 41.7961 34.651 41.9555 34.6987 42.1275C34.7463 42.2996 34.7552 42.4802 34.7247 42.6561L33.1338 54.4262C33.0744 54.8113 32.8818 55.1632 32.5897 55.4207C32.2976 55.6782 31.9244 55.8249 31.5353 55.8352H19.7739C19.596 55.84 19.4193 55.8052 19.2564 55.7335C19.0936 55.6618 18.9486 55.5548 18.832 55.4203C18.7154 55.2859 18.63 55.1272 18.5819 54.9558C18.5338 54.7843 18.5243 54.6043 18.554 54.4288Z" fill="white"/>
<path d="M35.3045 54.4288L36.9005 42.6561C36.9603 42.2706 37.1533 41.9183 37.4458 41.6604C37.7383 41.4026 38.1119 41.2554 38.5015 41.2446H50.2604C50.4387 41.2397 50.616 41.2745 50.7793 41.3465C50.9425 41.4186 51.0878 41.526 51.2045 41.6611C51.3213 41.7961 51.4065 41.9555 51.4542 42.1275C51.5019 42.2996 51.5108 42.4802 51.4802 42.6561L49.8919 54.4262C49.8315 54.8113 49.6383 55.163 49.3458 55.4203C49.0534 55.6777 48.6801 55.8245 48.2908 55.8352H36.5218C36.344 55.84 36.1674 55.8053 36.0046 55.7336C35.8418 55.6618 35.697 55.5548 35.5806 55.4203C35.4641 55.2857 35.379 55.127 35.3312 54.9556C35.2835 54.7841 35.2744 54.6042 35.3045 54.4288Z" fill="#EDC86C"/>
<path opacity="0.2" d="M35.3045 54.4288L36.9005 42.6561C36.9603 42.2706 37.1533 41.9183 37.4458 41.6604C37.7383 41.4026 38.1119 41.2554 38.5015 41.2446H50.2604C50.4387 41.2397 50.616 41.2745 50.7793 41.3465C50.9425 41.4186 51.0878 41.526 51.2045 41.6611C51.3213 41.7961 51.4065 41.9555 51.4542 42.1275C51.5019 42.2996 51.5108 42.4802 51.4802 42.6561L49.8919 54.4262C49.8315 54.8113 49.6383 55.163 49.3458 55.4203C49.0534 55.6777 48.6801 55.8245 48.2908 55.8352H36.5218C36.344 55.84 36.1674 55.8053 36.0046 55.7336C35.8418 55.6618 35.697 55.5548 35.5806 55.4203C35.4641 55.2857 35.379 55.127 35.3312 54.9556C35.2835 54.7841 35.2744 54.6042 35.3045 54.4288Z" fill="white"/>
<path d="M28.2406 36.6772C28.0625 36.6812 27.8857 36.6458 27.7229 36.5735C27.56 36.5011 27.4152 36.3937 27.2986 36.2589C27.1821 36.124 27.0968 35.9651 27.0487 35.7934C27.0007 35.6217 26.9911 35.4415 27.0207 35.2657L27.9636 28.2972C28.0238 27.9117 28.2168 27.5594 28.5092 27.3012C28.8016 27.043 29.1749 26.8951 29.5646 26.8832C29.7431 26.8787 29.9204 26.9139 30.0837 26.9862C30.2469 27.0585 30.3921 27.1662 30.5088 27.3014C30.6255 27.4367 30.7107 27.5962 30.7584 27.7684C30.8061 27.9405 30.815 28.1212 30.7845 28.2972L29.8442 35.2657C29.7833 35.6512 29.5897 36.0033 29.2969 36.261C29.004 36.5188 28.6304 36.666 28.2406 36.6772Z" fill="white"/>
<path d="M24.009 31.7815C24.0699 31.3958 24.2634 31.0434 24.5561 30.7852C24.8489 30.5271 25.2226 30.3793 25.6126 30.3675H32.581C32.7594 30.3635 32.9364 30.3989 33.0995 30.4714C33.2625 30.5439 33.4075 30.6515 33.5241 30.7867C33.6407 30.9218 33.726 31.0811 33.7738 31.2531C33.8217 31.4251 33.8309 31.6056 33.8009 31.7815C33.7401 32.1666 33.5469 32.5184 33.2545 32.7761C32.9622 33.0338 32.5892 33.1812 32.1998 33.193H25.2365C25.0578 33.1982 24.8801 33.1636 24.7164 33.0918C24.5526 33.0199 24.4067 32.9127 24.2894 32.7777C24.172 32.6427 24.0859 32.4833 24.0375 32.3111C23.989 32.1389 23.9793 31.958 24.009 31.7815Z" fill="white"/>
<path d="M22.7119 52.0052C22.2367 51.4559 22.3586 50.5581 22.9813 50.0088L28.5723 45.08C29.1949 44.5306 30.0971 44.5306 30.5672 45.08C31.0424 45.6293 30.9205 46.5296 30.2978 47.079L24.7069 52.0052C24.0842 52.5546 23.1795 52.5546 22.7119 52.0052Z" fill="white"/>
<path d="M23.6453 45.08C24.268 44.5306 25.1702 44.5306 25.6428 45.08L29.8996 50.0088C30.3748 50.5581 30.2529 51.4559 29.6302 52.0052C29.0076 52.5546 28.1054 52.5546 27.6353 52.0052L23.376 47.079C22.9007 46.5296 23.0227 45.6293 23.6453 45.08Z" fill="white"/>
<path d="M40.759 31.7816C40.8198 31.3959 41.0134 31.0435 41.3061 30.7853C41.5989 30.5271 41.9726 30.3794 42.3626 30.3676H49.3259C49.5044 30.3631 49.6817 30.3982 49.845 30.4706C50.0082 30.5429 50.1535 30.6505 50.2701 30.7858C50.3868 30.9211 50.4721 31.0805 50.5197 31.2527C50.5674 31.4249 50.5763 31.6056 50.5458 31.7816C50.485 32.1667 50.2918 32.5184 49.9995 32.7761C49.7071 33.0338 49.3341 33.1813 48.9447 33.1931H41.984C41.8054 33.1979 41.6281 33.163 41.4646 33.091C41.3012 33.019 41.1556 32.9117 41.0385 32.7768C40.9214 32.6418 40.8356 32.4826 40.7873 32.3105C40.739 32.1385 40.7293 31.9579 40.759 31.7816Z" fill="white"/>
<path d="M38.7927 46.3464C38.8535 45.9609 39.0471 45.6088 39.34 45.3511C39.6328 45.0933 40.0064 44.9461 40.3962 44.9349H47.3595C47.5377 44.9309 47.7144 44.9663 47.8773 45.0387C48.0401 45.111 48.185 45.2184 48.3015 45.3532C48.418 45.4881 48.5034 45.647 48.5514 45.8187C48.5995 45.9904 48.609 46.1706 48.5794 46.3464C48.5191 46.7319 48.3261 47.0842 48.0338 47.3424C47.7414 47.6007 47.3681 47.7485 46.9783 47.7604H40.0125C39.8341 47.7645 39.6571 47.729 39.4941 47.6565C39.331 47.584 39.186 47.4764 39.0694 47.3412C38.9528 47.2061 38.8676 47.0468 38.8197 46.8748C38.7719 46.7028 38.7626 46.5224 38.7927 46.3464Z" fill="white"/>
<path d="M38.2013 50.739C38.2621 50.3539 38.4554 50.0022 38.7477 49.7445C39.04 49.4868 39.413 49.3393 39.8024 49.3275H46.7657C46.944 49.3231 47.1211 49.3583 47.2842 49.4305C47.4474 49.5026 47.5926 49.61 47.7094 49.7449C47.8262 49.8798 47.9118 50.0389 47.96 50.2107C48.0081 50.3826 48.0177 50.563 47.9881 50.739C47.9273 51.1248 47.7338 51.4771 47.441 51.7353C47.1482 51.9935 46.7745 52.1412 46.3845 52.1531H39.4212C39.2427 52.1576 39.0654 52.1224 38.9022 52.0501C38.7389 51.9777 38.5937 51.8701 38.477 51.7348C38.3603 51.5996 38.2751 51.4401 38.2274 51.2679C38.1797 51.0957 38.1708 50.9151 38.2013 50.739Z" fill="white"/>
</svg>
