<svg width="30" height="30" viewBox="0 0 30 30" fill="none" xmlns="http://www.w3.org/2000/svg">
<path d="M15 30C23.2843 30 30 23.2843 30 15C30 6.71573 23.2843 0 15 0C6.71573 0 0 6.71573 0 15C0 23.2843 6.71573 30 15 30Z" fill="url(#paint0_linear_2472_79494)"/>
<path d="M19.656 9.32617C19.0867 9.32617 18.625 9.78783 18.625 10.3572C18.625 10.9266 19.0867 11.3883 19.656 11.3883C20.2254 11.3883 20.6871 10.9266 20.6871 10.3572C20.6871 9.78783 20.2254 9.32617 19.656 9.32617Z" fill="white"/>
<path d="M15.0717 10.6484C12.6833 10.6484 10.7402 12.5915 10.7402 14.9799C10.7402 17.3682 12.6833 19.3113 15.0717 19.3113C17.46 19.3113 19.4031 17.3682 19.4031 14.9799C19.4031 12.5915 17.46 10.6484 15.0717 10.6484ZM15.0717 17.754C13.542 17.754 12.2966 16.5095 12.2966 14.9799C12.2966 13.4502 13.541 12.2058 15.0717 12.2058C16.6013 12.2058 17.8458 13.4502 17.8458 14.9799C17.8468 16.5095 16.6023 17.754 15.0717 17.754Z" fill="white"/>
<path d="M18.51 23.7729H11.4875C8.57496 23.7729 6.20508 21.403 6.20508 18.4904V11.468C6.20508 8.55439 8.57496 6.18555 11.4875 6.18555H18.51C21.4226 6.18555 23.7935 8.55542 23.7935 11.468V18.4904C23.7935 21.403 21.4236 23.7729 18.51 23.7729ZM11.4886 7.84036C9.48803 7.84036 7.85989 9.46746 7.85989 11.469V18.4915C7.85989 20.492 9.487 22.1202 11.4886 22.1202H18.511C20.5116 22.1202 22.1397 20.493 22.1397 18.4915V11.469C22.1397 9.46849 20.5116 7.84036 18.511 7.84036H11.4886Z" fill="white"/>
<defs>
<linearGradient id="paint0_linear_2472_79494" x1="25.6069" y1="4.3933" x2="4.3931" y2="25.6071" gradientUnits="userSpaceOnUse">
<stop offset="0.0011" stop-color="#FBE18A"/>
<stop offset="0.2094" stop-color="#FCBB45"/>
<stop offset="0.3765" stop-color="#F75274"/>
<stop offset="0.5238" stop-color="#D53692"/>
<stop offset="0.7394" stop-color="#8F39CE"/>
<stop offset="1" stop-color="#5B4FE9"/>
</linearGradient>
</defs>
</svg>
