<svg width="166" height="24" viewBox="0 0 166 24" fill="none" xmlns="http://www.w3.org/2000/svg">
<path d="M12 12L154 12" stroke="#2D2D2D" stroke-dasharray="6 6"/>
<path d="M152.205 19.1998C152.126 19.2002 152.048 19.1851 151.975 19.1553C151.902 19.1254 151.835 19.0814 151.779 19.0258C151.723 18.9701 151.678 18.9037 151.648 18.8306C151.617 18.7575 151.602 18.6791 151.602 18.5999C151.602 18.5207 151.617 18.4423 151.648 18.3692C151.678 18.2961 151.723 18.2297 151.779 18.174L156.68 13.2728C157.017 12.9354 157.207 12.4779 157.207 12.001C157.207 11.5241 157.017 11.0667 156.68 10.7292L151.779 5.82808C151.666 5.71512 151.603 5.56191 151.603 5.40216C151.603 5.2424 151.666 5.08919 151.779 4.97623C151.892 4.86327 152.045 4.7998 152.205 4.7998C152.365 4.7998 152.518 4.86327 152.631 4.97623L157.532 9.87739C157.811 10.156 158.033 10.487 158.184 10.8514C158.335 11.2158 158.413 11.6065 158.413 12.001C158.413 12.3956 158.335 12.7862 158.184 13.1506C158.033 13.515 157.811 13.846 157.532 14.1247L152.631 19.0258C152.575 19.0814 152.508 19.1254 152.435 19.1553C152.362 19.1851 152.284 19.2002 152.205 19.1998Z" fill="#2D2D2D"/>
</svg>
