<svg width="30" height="30" viewBox="0 0 30 30" fill="none" xmlns="http://www.w3.org/2000/svg">
<path d="M15 30C23.2843 30 30 23.2843 30 15C30 6.71573 23.2843 0 15 0C6.71573 0 0 6.71573 0 15C0 23.2843 6.71573 30 15 30Z" fill="url(#paint0_linear_2472_79501)"/>
<path d="M8.71038 12.2065H11.6158V21.5393H8.71038V12.2065ZM10.1631 7.56934C11.0926 7.56934 11.8446 8.32339 11.8446 9.2498C11.8446 10.1783 11.0915 10.9333 10.1631 10.9333C9.23154 10.9333 8.47852 10.1783 8.47852 9.2498C8.47954 8.32236 9.23154 7.56934 10.1631 7.56934Z" fill="white"/>
<path d="M13.4355 12.2064H16.2178V13.4827H16.2558C16.6436 12.7481 17.5895 11.9756 19.0032 11.9756C21.9404 11.9756 22.4821 13.9074 22.4821 16.4209V21.5392H19.5829V17.0016C19.5829 15.9182 19.5613 14.5271 18.0748 14.5271C16.5646 14.5271 16.3348 15.7058 16.3348 16.9226V21.5392H13.4355V12.2064Z" fill="white"/>
<defs>
<linearGradient id="paint0_linear_2472_79501" x1="25.6065" y1="4.39351" x2="4.39269" y2="25.6073" gradientUnits="userSpaceOnUse">
<stop stop-color="#007AB5"/>
<stop offset="1" stop-color="#0046E5"/>
</linearGradient>
</defs>
</svg>
