<svg width="159" height="51" viewBox="0 0 159 51" fill="none" xmlns="http://www.w3.org/2000/svg">
<path d="M10.2535 14.9413L15.3928 11.5051C15.6435 11.3866 15.7688 11.1497 15.7688 10.9127V9.13534C15.7688 7.83195 14.6407 6.88403 13.3872 6.88403H11.3816C10.0028 6.88403 9 7.95044 9 9.13534V14.4674C9 14.9413 9.75209 15.2968 10.2535 14.9413Z" fill="#1B573E"/>
<path d="M50.2396 45.9854C52.3705 45.9854 54 44.445 54 42.4307V18.4957C54 17.3108 53.3733 16.1259 52.2451 15.5335L32.6908 3.56599C31.4373 2.73656 29.6824 2.85505 28.429 3.68448L10.6295 15.652C9.62674 16.3629 9 17.4293 9 18.4957V42.3122C9 44.3265 10.6295 45.8669 12.7604 45.8669L50.2396 45.9854Z" fill="#1B573E"/>
<path d="M24.6683 26.3163H26.7992V16.0077H33.3173C33.3173 16.0077 40.5875 16.9556 40.8382 24.4204C40.8382 24.4204 40.9636 31.4113 33.3173 32.7147H24.543V47.8814H26.7992V34.966L32.6906 35.0845C32.6906 35.0845 42.3424 34.6106 43.0945 24.3019C43.0945 24.3019 43.3452 16.0077 33.8187 13.7563H24.543V26.3163H24.6683Z" fill="white"/>
<path d="M29.1807 18.0225H33.0665C33.0665 18.0225 38.4565 19.3258 38.5818 23.8285C38.5818 23.8285 39.4592 29.3975 32.8158 30.7009H22.4119V48.0004H20.0303V18.0225H29.1807Z" fill="white"/>
<path fill-rule="evenodd" clip-rule="evenodd" d="M34.9465 26.3161C34.1944 27.027 32.9409 27.738 31.3114 27.6195C27.551 27.501 25.4201 23.5908 27.3003 20.6286C27.4256 20.3916 27.6763 20.1546 27.8017 19.9176C28.0524 19.6807 28.1777 19.5622 28.4284 19.3252C28.0524 19.3252 27.551 19.6807 27.3003 19.7992C26.2975 20.3916 25.4201 21.458 25.044 22.5244C23.4145 27.264 29.4312 31.0557 33.4423 27.975C33.9437 27.8565 34.8212 26.9085 34.9465 26.3161Z" fill="#1B573E"/>
<path fill-rule="evenodd" clip-rule="evenodd" d="M31.1855 21.9321L29.4307 22.6431L31.1855 22.9985L31.4362 24.8944L32.439 23.354L34.3192 23.7095L33.0658 22.4061L34.0685 20.7472L32.1883 21.4582L30.9348 20.1548L31.1855 21.9321Z" fill="#1B573E"/>
<path d="M60.1699 30.1531H62.9613C63.8072 30.1531 64.8222 30.6472 64.8222 31.9648C64.8222 33.5295 63.8072 33.9413 63.0459 33.9413H60.6774V35.9177H60.1699V30.1531ZM60.6774 30.5648V33.4472H62.9613C63.5534 33.4472 64.3147 33.2001 64.3147 31.9648C64.3147 30.8119 63.638 30.5648 62.9613 30.5648H60.6774Z" fill="black"/>
<path d="M71.5036 33.6939C71.9265 34.0233 72.1803 34.6821 72.434 35.3409L72.6878 35.9174H72.1803L71.8419 35.0115C71.5036 34.1057 71.0807 33.7763 70.404 33.7763H68.6276V35.9998H68.1201V30.2351H70.9115C71.8419 30.2351 72.7724 30.6469 72.7724 31.9645C72.7724 32.2939 72.6878 33.4468 71.5036 33.6939ZM70.8269 33.2821C71.5036 33.2821 72.1803 33.2821 72.1803 31.8822C72.1803 30.7292 71.5036 30.5645 70.8269 30.5645H68.6276V33.2821H70.8269Z" fill="black"/>
<path d="M75.9023 32.8703C75.9023 30.8115 77.5095 30.0703 78.8629 30.0703C80.2163 30.0703 81.7388 30.8115 81.7388 32.8703C81.7388 35.4232 79.9625 35.9173 78.8629 35.9173C77.6787 35.9997 75.9023 35.4232 75.9023 32.8703ZM81.2313 32.9526C81.2313 31.1409 80.0471 30.5644 78.8629 30.5644C77.6787 30.5644 76.4099 31.1409 76.4099 32.9526C76.4099 35.0938 77.8478 35.5056 78.8629 35.5056C79.7933 35.5056 81.2313 35.0938 81.2313 32.9526Z" fill="black"/>
<path d="M85.207 30.1531H87.9984C88.8443 30.1531 89.8593 30.6472 89.8593 31.9648C89.8593 33.5295 88.8443 33.9413 88.083 33.9413H85.7146V35.9177H85.207V30.1531ZM85.7146 30.5648V33.4472H87.9984C88.5905 33.4472 89.3518 33.2001 89.3518 31.9648C89.3518 30.8119 88.6751 30.5648 87.9984 30.5648H85.7146Z" fill="black"/>
<path d="M93.6657 30.5648V32.706H96.5417V33.2001H93.6657V35.4236H97.2184V35.9177H93.1582V30.1531H97.2184V30.6472H93.6657V30.5648Z" fill="black"/>
<path d="M104.154 33.6939C104.577 34.0233 104.831 34.6821 105.085 35.3409L105.339 35.9174H104.831L104.493 35.0115C104.154 34.1057 103.732 33.7763 103.055 33.7763H101.279V35.9998H100.771V30.2351H103.562C104.493 30.2351 105.423 30.6469 105.423 31.9645C105.423 32.2939 105.339 33.4468 104.154 33.6939ZM103.562 33.2821C104.239 33.2821 104.916 33.2821 104.916 31.8822C104.916 30.7292 104.239 30.5645 103.562 30.5645H101.363V33.2821H103.562Z" fill="black"/>
<path d="M108.384 30.1531H112.951V30.6472H110.921V36.0001H110.414V30.6472H108.384V30.1531Z" fill="black"/>
<path d="M120.48 30.1531H121.072L118.788 33.9413V35.9177H118.28V33.9413L115.997 30.1531H116.589L118.619 33.4472L120.48 30.1531Z" fill="black"/>
<path d="M123.019 35.4236H123.527V35.9189H123.019V35.4236Z" fill="black"/>
<path d="M127.5 32.9526C127.5 35.0938 128.938 35.5056 130.037 35.5056C130.545 35.5056 131.052 35.4232 131.56 35.1761L131.814 35.5056C131.306 35.835 130.629 35.9173 130.122 35.9173C129.022 35.9173 126.992 35.4232 126.992 32.8703C126.992 30.7291 128.515 30.0703 130.122 30.0703C130.714 30.0703 131.306 30.235 131.814 30.4821L131.56 30.8115C131.052 30.5644 130.545 30.4821 130.122 30.4821C128.853 30.5644 127.5 30.9762 127.5 32.9526Z" fill="black"/>
<path d="M134.86 32.8703C134.86 30.8115 136.467 30.0703 137.821 30.0703C139.174 30.0703 140.697 30.8115 140.697 32.8703C140.697 35.4232 138.921 35.9173 137.821 35.9173C136.637 35.9997 134.86 35.4232 134.86 32.8703ZM140.189 32.9526C140.189 31.1409 139.005 30.5644 137.821 30.5644C136.637 30.5644 135.368 31.1409 135.368 32.9526C135.368 35.0938 136.806 35.5056 137.821 35.5056C138.751 35.5056 140.189 35.0938 140.189 32.9526Z" fill="black"/>
<path d="M146.871 34.5177L144.672 31.306V35.9177H144.164V30.1531H144.502L147.04 34.0236L149.578 30.1531H149.916V35.9177H149.408V31.306L147.294 34.5177H146.871Z" fill="black"/>
<path d="M65.9211 15.0828C66.5978 15.0828 67.1899 15.1651 67.782 15.4122C68.3741 15.6592 68.8816 15.9886 69.3045 16.4004C69.7275 16.8122 70.0658 17.3063 70.3196 17.8827C70.5733 18.4592 70.6579 19.0357 70.6579 19.6945C70.6579 20.3533 70.5733 20.9298 70.3196 21.4239C70.0658 22.0003 69.8121 22.4121 69.3891 22.8239C68.9662 23.2356 68.4587 23.565 67.782 23.8121C67.1053 24.0592 66.4286 24.1415 65.4981 24.1415H62.5376V28.0121H60V15.0828H65.9211ZM65.9211 21.918C66.2594 21.918 66.5978 21.8356 66.9361 21.7533C67.1899 21.5886 67.4436 21.4239 67.6128 21.2592C67.782 21.0121 67.9511 20.8474 68.0357 20.518C68.1203 20.271 68.2049 19.9415 68.2049 19.6945C68.2049 19.3651 68.1203 19.118 68.0357 18.7886C67.9511 18.4592 67.782 18.2121 67.5282 18.0474C67.359 17.8004 67.1053 17.6357 66.7669 17.471C66.4286 17.3063 66.0902 17.2239 65.7519 17.2239H62.5376V21.918H65.9211Z" fill="black"/>
<path d="M69.1357 28.0118L75.9027 15.0825H76.1564L82.9234 28.0118H80.132L79.117 25.953H72.8576L71.8425 28.0118H69.1357ZM74.1263 23.8119H77.9327L76.0718 19.9413L74.1263 23.8119Z" fill="black"/>
<path d="M92.6506 28.0118L87.0679 22.1648V28.0118H84.5303V15.0825H87.0679V21.6707L92.3122 15.0825H95.442L89.9438 21.753L95.9495 28.0118H92.6506Z" fill="black"/>
<path d="M100.771 28.0118H98.2339V15.0825H100.771V28.0118Z" fill="black"/>
<path d="M103.478 26.2823L104.831 24.3058C105.508 24.7176 106.184 25.1293 106.861 25.4587C107.538 25.7881 108.299 25.9528 109.06 25.9528C109.483 25.9528 109.822 25.8705 110.16 25.7881C110.498 25.7058 110.752 25.5411 110.921 25.3764C111.175 25.2117 111.344 25.047 111.429 24.7999C111.513 24.6352 111.598 24.3882 111.598 24.2234C111.598 23.9764 111.513 23.7293 111.344 23.5646C111.175 23.3999 110.921 23.2352 110.667 23.1529C110.414 23.0705 110.075 22.9058 109.737 22.8235C109.399 22.7411 108.976 22.6588 108.553 22.5764C108.299 22.4941 107.961 22.494 107.622 22.4117C107.284 22.3293 106.946 22.247 106.523 22.1646C106.184 22.0823 105.761 21.9176 105.423 21.7529C105.085 21.5882 104.746 21.3411 104.408 21.0941C104.154 20.847 103.9 20.5176 103.731 20.1058C103.562 19.6941 103.478 19.2823 103.478 18.7882C103.478 18.047 103.647 17.3882 103.985 16.8941C104.323 16.4 104.662 15.9882 105.169 15.7412C105.677 15.4118 106.184 15.2471 106.776 15.1647C107.369 15.0824 107.961 15 108.468 15C109.06 15 109.483 15 109.991 15.0824C110.414 15.1647 110.837 15.2471 111.175 15.4118C111.513 15.5765 111.936 15.7412 112.275 15.9059C112.613 16.1529 113.036 16.3176 113.459 16.647L112.021 18.6235C111.429 18.2117 110.752 17.8823 110.244 17.6353C109.652 17.3882 109.06 17.3059 108.384 17.3059C108.13 17.3059 107.961 17.3059 107.622 17.3882C107.369 17.4706 107.115 17.5529 106.861 17.6353C106.607 17.7176 106.438 17.8823 106.269 18.047C106.1 18.2117 106.015 18.4588 106.015 18.7058C106.015 18.9529 106.1 19.2 106.269 19.3647C106.438 19.5294 106.692 19.6941 107.03 19.7764C107.369 19.8588 107.707 20.0235 108.045 20.1058C108.384 20.1882 108.722 20.2705 109.06 20.3529C109.314 20.4352 109.652 20.4352 109.991 20.5176C110.329 20.5999 110.667 20.6823 111.09 20.7647C111.429 20.847 111.852 21.0117 112.19 21.1764C112.528 21.3411 112.867 21.5882 113.12 21.8352C113.374 22.0823 113.628 22.494 113.797 22.8235C113.966 23.1529 114.051 23.7293 114.051 24.3058C114.051 24.9646 113.966 25.5411 113.713 26.0352C113.459 26.5293 113.12 26.9411 112.697 27.2705C112.275 27.5999 111.682 27.8469 111.09 28.0116C110.498 28.1763 109.822 28.2587 109.06 28.2587C108.384 28.2587 107.791 28.1764 107.199 28.094C106.692 28.0116 106.184 27.8469 105.761 27.6822C105.338 27.5175 104.916 27.2705 104.493 27.1058C104.323 26.8587 103.9 26.6117 103.478 26.2823Z" fill="black"/>
<path d="M124.793 17.2235H120.987V27.9293H118.449V17.2235H114.643V15H124.793V17.2235Z" fill="black"/>
<path d="M123.102 28.0118L129.868 15.0825H130.122L136.889 28.0118H134.098L133.083 25.953H126.823L125.808 28.0118H123.102ZM128.092 23.8119H131.899L130.038 19.9413L128.092 23.8119Z" fill="black"/>
<path d="M149.747 28.0118L141.034 20.3531V28.0118H138.497V15.0825H138.75L147.463 22.906V15.0825H150V28.0118H149.747Z" fill="black"/>
</svg>
