<svg width="870" height="535" viewBox="0 0 870 535" fill="none" xmlns="http://www.w3.org/2000/svg">
<rect width="870" height="535" rx="4" fill="#BBBBBB"/>
<path d="M368.278 383V370.4H370.438L376.504 379.508V370.4H378.664V383H376.504L370.438 373.91V383H368.278ZM385.356 383.216C384.492 383.216 383.712 383.018 383.016 382.622C382.332 382.214 381.792 381.656 381.396 380.948C381.012 380.228 380.82 379.406 380.82 378.482C380.82 377.534 381.018 376.706 381.414 375.998C381.81 375.278 382.35 374.72 383.034 374.324C383.73 373.916 384.51 373.712 385.374 373.712C386.238 373.712 387.012 373.916 387.696 374.324C388.392 374.72 388.932 375.272 389.316 375.98C389.712 376.688 389.91 377.516 389.91 378.464C389.91 379.412 389.712 380.24 389.316 380.948C388.92 381.656 388.374 382.214 387.678 382.622C386.994 383.018 386.22 383.216 385.356 383.216ZM385.356 381.362C385.788 381.362 386.178 381.254 386.526 381.038C386.886 380.822 387.174 380.498 387.39 380.066C387.606 379.634 387.714 379.1 387.714 378.464C387.714 377.828 387.606 377.3 387.39 376.88C387.186 376.448 386.904 376.124 386.544 375.908C386.196 375.692 385.806 375.584 385.374 375.584C384.954 375.584 384.564 375.692 384.204 375.908C383.844 376.124 383.556 376.448 383.34 376.88C383.124 377.3 383.016 377.828 383.016 378.464C383.016 379.1 383.124 379.634 383.34 380.066C383.556 380.498 383.838 380.822 384.186 381.038C384.546 381.254 384.936 381.362 385.356 381.362ZM396.509 383V373.928H398.669V383H396.509ZM397.589 372.488C397.193 372.488 396.863 372.368 396.599 372.128C396.347 371.876 396.221 371.57 396.221 371.21C396.221 370.838 396.347 370.538 396.599 370.31C396.863 370.07 397.193 369.95 397.589 369.95C397.985 369.95 398.309 370.07 398.561 370.31C398.825 370.538 398.957 370.838 398.957 371.21C398.957 371.57 398.825 371.876 398.561 372.128C398.309 372.368 397.985 372.488 397.589 372.488ZM401.165 383V373.928H403.073L403.253 375.17C403.541 374.714 403.919 374.36 404.387 374.108C404.867 373.844 405.413 373.712 406.025 373.712C406.481 373.712 406.889 373.772 407.249 373.892C407.621 374.012 407.945 374.192 408.221 374.432C408.509 374.672 408.743 374.972 408.923 375.332C409.259 374.828 409.697 374.432 410.237 374.144C410.777 373.856 411.365 373.712 412.001 373.712C412.757 373.712 413.399 373.868 413.927 374.18C414.455 374.48 414.857 374.93 415.133 375.53C415.409 376.118 415.547 376.844 415.547 377.708V383H413.405V377.924C413.405 377.156 413.249 376.568 412.937 376.16C412.625 375.752 412.163 375.548 411.551 375.548C411.131 375.548 410.759 375.65 410.435 375.854C410.123 376.058 409.877 376.358 409.697 376.754C409.517 377.138 409.427 377.612 409.427 378.176V383H407.285V377.924C407.285 377.156 407.129 376.568 406.817 376.16C406.505 375.752 406.037 375.548 405.413 375.548C405.017 375.548 404.657 375.65 404.333 375.854C404.021 376.058 403.775 376.358 403.595 376.754C403.415 377.138 403.325 377.612 403.325 378.176V383H401.165ZM420.853 383.216C420.109 383.216 419.491 383.09 418.999 382.838C418.507 382.586 418.141 382.25 417.901 381.83C417.661 381.41 417.541 380.954 417.541 380.462C417.541 379.886 417.685 379.388 417.973 378.968C418.273 378.548 418.711 378.224 419.287 377.996C419.863 377.756 420.571 377.636 421.411 377.636H423.697C423.697 377.156 423.631 376.76 423.499 376.448C423.367 376.124 423.163 375.884 422.887 375.728C422.611 375.572 422.257 375.494 421.825 375.494C421.333 375.494 420.913 375.608 420.565 375.836C420.217 376.052 420.001 376.388 419.917 376.844H417.793C417.865 376.196 418.081 375.644 418.441 375.188C418.801 374.72 419.275 374.36 419.863 374.108C420.463 373.844 421.117 373.712 421.825 373.712C422.677 373.712 423.403 373.862 424.003 374.162C424.603 374.45 425.059 374.87 425.371 375.422C425.695 375.962 425.857 376.616 425.857 377.384V383H424.021L423.805 381.542C423.685 381.782 423.529 382.004 423.337 382.208C423.157 382.412 422.947 382.592 422.707 382.748C422.467 382.892 422.191 383.006 421.879 383.09C421.579 383.174 421.237 383.216 420.853 383.216ZM421.339 381.506C421.687 381.506 421.993 381.446 422.257 381.326C422.533 381.194 422.767 381.014 422.959 380.786C423.163 380.546 423.319 380.282 423.427 379.994C423.535 379.706 423.607 379.4 423.643 379.076V379.04H421.645C421.225 379.04 420.877 379.094 420.601 379.202C420.325 379.298 420.127 379.442 420.007 379.634C419.887 379.826 419.827 380.048 419.827 380.3C419.827 380.552 419.887 380.768 420.007 380.948C420.127 381.128 420.301 381.266 420.529 381.362C420.757 381.458 421.027 381.506 421.339 381.506ZM431.981 387.176C431.129 387.176 430.379 387.068 429.731 386.852C429.095 386.648 428.597 386.33 428.237 385.898C427.889 385.478 427.715 384.95 427.715 384.314C427.715 383.942 427.805 383.576 427.985 383.216C428.177 382.868 428.459 382.544 428.831 382.244C429.215 381.932 429.701 381.662 430.289 381.434L431.243 382.478C430.667 382.682 430.265 382.928 430.037 383.216C429.809 383.504 429.695 383.798 429.695 384.098C429.695 384.41 429.791 384.668 429.983 384.872C430.187 385.088 430.457 385.25 430.793 385.358C431.141 385.466 431.531 385.52 431.963 385.52C432.383 385.52 432.749 385.46 433.061 385.34C433.373 385.232 433.613 385.076 433.781 384.872C433.961 384.668 434.051 384.422 434.051 384.134C434.051 383.774 433.925 383.48 433.673 383.252C433.421 383.036 432.923 382.904 432.179 382.856C431.543 382.808 430.985 382.742 430.505 382.658C430.025 382.562 429.611 382.454 429.263 382.334C428.927 382.214 428.639 382.082 428.399 381.938C428.159 381.782 427.961 381.626 427.805 381.47V381.056L429.695 379.076L431.297 379.598L429.173 381.668L429.731 380.624C429.851 380.708 429.971 380.786 430.091 380.858C430.223 380.93 430.385 380.996 430.577 381.056C430.781 381.104 431.045 381.152 431.369 381.2C431.693 381.248 432.113 381.296 432.629 381.344C433.433 381.404 434.087 381.548 434.591 381.776C435.095 382.004 435.467 382.31 435.707 382.694C435.947 383.078 436.067 383.54 436.067 384.08C436.067 384.608 435.917 385.106 435.617 385.574C435.329 386.042 434.885 386.426 434.285 386.726C433.685 387.026 432.917 387.176 431.981 387.176ZM431.981 380.282C431.225 380.282 430.571 380.138 430.019 379.85C429.479 379.55 429.065 379.154 428.777 378.662C428.489 378.158 428.345 377.606 428.345 377.006C428.345 376.394 428.489 375.842 428.777 375.35C429.065 374.858 429.479 374.462 430.019 374.162C430.571 373.862 431.225 373.712 431.981 373.712C432.737 373.712 433.385 373.862 433.925 374.162C434.465 374.462 434.879 374.858 435.167 375.35C435.455 375.842 435.599 376.394 435.599 377.006C435.599 377.606 435.455 378.158 435.167 378.662C434.879 379.154 434.465 379.55 433.925 379.85C433.385 380.138 432.737 380.282 431.981 380.282ZM431.981 378.608C432.497 378.608 432.911 378.47 433.223 378.194C433.535 377.918 433.691 377.522 433.691 377.006C433.691 376.49 433.535 376.1 433.223 375.836C432.911 375.56 432.497 375.422 431.981 375.422C431.465 375.422 431.045 375.56 430.721 375.836C430.397 376.1 430.235 376.49 430.235 377.006C430.235 377.522 430.397 377.918 430.721 378.194C431.045 378.47 431.465 378.608 431.981 378.608ZM433.475 375.512L433.061 373.928H436.787V375.278L433.475 375.512ZM442.591 383.216C441.691 383.216 440.899 383.024 440.215 382.64C439.531 382.244 438.997 381.692 438.613 380.984C438.229 380.276 438.037 379.46 438.037 378.536C438.037 377.576 438.223 376.736 438.595 376.016C438.979 375.296 439.513 374.732 440.197 374.324C440.893 373.916 441.697 373.712 442.609 373.712C443.497 373.712 444.271 373.91 444.931 374.306C445.591 374.702 446.101 375.236 446.461 375.908C446.821 376.568 447.001 377.312 447.001 378.14C447.001 378.26 447.001 378.392 447.001 378.536C447.001 378.68 446.989 378.83 446.965 378.986H439.585V377.6H444.823C444.799 376.94 444.577 376.424 444.157 376.052C443.737 375.668 443.215 375.476 442.591 375.476C442.147 375.476 441.739 375.578 441.367 375.782C440.995 375.986 440.701 376.292 440.485 376.7C440.269 377.096 440.161 377.6 440.161 378.212V378.734C440.161 379.298 440.263 379.784 440.467 380.192C440.683 380.6 440.971 380.912 441.331 381.128C441.703 381.332 442.117 381.434 442.573 381.434C443.077 381.434 443.491 381.326 443.815 381.11C444.151 380.894 444.397 380.606 444.553 380.246H446.749C446.581 380.81 446.305 381.32 445.921 381.776C445.537 382.22 445.063 382.574 444.499 382.838C443.935 383.09 443.299 383.216 442.591 383.216ZM453.84 383V372.938C453.84 372.242 453.954 371.684 454.182 371.264C454.422 370.832 454.764 370.52 455.208 370.328C455.652 370.136 456.18 370.04 456.792 370.04H457.872V371.876H457.116C456.72 371.876 456.432 371.96 456.252 372.128C456.084 372.284 456 372.56 456 372.956V383H453.84ZM452.544 375.746V373.928H458.052V375.746H452.544ZM463.79 383.216C462.926 383.216 462.146 383.018 461.45 382.622C460.766 382.214 460.226 381.656 459.83 380.948C459.446 380.228 459.254 379.406 459.254 378.482C459.254 377.534 459.452 376.706 459.848 375.998C460.244 375.278 460.784 374.72 461.468 374.324C462.164 373.916 462.944 373.712 463.808 373.712C464.672 373.712 465.446 373.916 466.13 374.324C466.826 374.72 467.366 375.272 467.75 375.98C468.146 376.688 468.344 377.516 468.344 378.464C468.344 379.412 468.146 380.24 467.75 380.948C467.354 381.656 466.808 382.214 466.112 382.622C465.428 383.018 464.654 383.216 463.79 383.216ZM463.79 381.362C464.222 381.362 464.612 381.254 464.96 381.038C465.32 380.822 465.608 380.498 465.824 380.066C466.04 379.634 466.148 379.1 466.148 378.464C466.148 377.828 466.04 377.3 465.824 376.88C465.62 376.448 465.338 376.124 464.978 375.908C464.63 375.692 464.24 375.584 463.808 375.584C463.388 375.584 462.998 375.692 462.638 375.908C462.278 376.124 461.99 376.448 461.774 376.88C461.558 377.3 461.45 377.828 461.45 378.464C461.45 379.1 461.558 379.634 461.774 380.066C461.99 380.498 462.272 380.822 462.62 381.038C462.98 381.254 463.37 381.362 463.79 381.362ZM473.824 383.216C473.092 383.216 472.462 383.072 471.934 382.784C471.418 382.484 471.022 382.04 470.746 381.452C470.47 380.852 470.332 380.114 470.332 379.238V373.928H472.492V379.022C472.492 379.802 472.654 380.396 472.978 380.804C473.314 381.2 473.818 381.398 474.49 381.398C474.922 381.398 475.306 381.296 475.642 381.092C475.99 380.888 476.26 380.594 476.452 380.21C476.656 379.814 476.758 379.334 476.758 378.77V373.928H478.918V383H477.01L476.848 381.488C476.572 382.016 476.17 382.436 475.642 382.748C475.126 383.06 474.52 383.216 473.824 383.216ZM481.321 383V373.928H483.229L483.391 375.44C483.667 374.912 484.063 374.492 484.579 374.18C485.095 373.868 485.707 373.712 486.415 373.712C487.147 373.712 487.771 373.868 488.287 374.18C488.803 374.48 489.199 374.924 489.475 375.512C489.763 376.1 489.907 376.832 489.907 377.708V383H487.747V377.906C487.747 377.15 487.579 376.568 487.243 376.16C486.907 375.752 486.409 375.548 485.749 375.548C485.317 375.548 484.927 375.65 484.579 375.854C484.243 376.058 483.973 376.358 483.769 376.754C483.577 377.138 483.481 377.606 483.481 378.158V383H481.321ZM496.217 383.216C495.377 383.216 494.627 383.012 493.967 382.604C493.307 382.196 492.791 381.632 492.419 380.912C492.059 380.192 491.879 379.376 491.879 378.464C491.879 377.552 492.065 376.742 492.437 376.034C492.809 375.314 493.325 374.75 493.985 374.342C494.657 373.922 495.413 373.712 496.253 373.712C496.937 373.712 497.531 373.844 498.035 374.108C498.551 374.36 498.959 374.72 499.259 375.188V370.04H501.419V383H499.475L499.259 381.686C499.067 381.95 498.833 382.202 498.557 382.442C498.281 382.67 497.951 382.856 497.567 383C497.183 383.144 496.733 383.216 496.217 383.216ZM496.667 381.344C497.183 381.344 497.639 381.224 498.035 380.984C498.431 380.732 498.737 380.39 498.953 379.958C499.169 379.526 499.277 379.028 499.277 378.464C499.277 377.9 499.169 377.402 498.953 376.97C498.737 376.538 498.431 376.202 498.035 375.962C497.639 375.722 497.183 375.602 496.667 375.602C496.175 375.602 495.731 375.722 495.335 375.962C494.939 376.202 494.627 376.538 494.399 376.97C494.183 377.402 494.075 377.9 494.075 378.464C494.075 379.028 494.183 379.526 494.399 379.958C494.627 380.39 494.939 380.732 495.335 380.984C495.731 381.224 496.175 381.344 496.667 381.344Z" fill="#2D2D2D"/>
<g clip-path="url(#clip0_3480_70808)">
<path d="M396.069 186.667H510.001C512.211 186.67 514.329 187.549 515.891 189.111C517.453 190.673 518.332 192.791 518.335 195.001V280.776L458.781 221.221C458.394 220.834 457.935 220.527 457.429 220.318C456.924 220.109 456.382 220.001 455.835 220.001C455.288 220.001 454.746 220.109 454.24 220.318C453.735 220.527 453.276 220.834 452.889 221.221L443.84 230.271C443.071 231.055 442.643 232.11 442.649 233.208C442.655 234.306 443.093 235.357 443.869 236.133C444.645 236.909 445.696 237.348 446.794 237.353C447.892 237.359 448.947 236.931 449.731 236.162L455.835 230.059L518.335 292.559V295.001C518.326 296.205 518.055 297.393 517.541 298.483C517.027 299.572 516.281 300.536 515.356 301.308C514.519 302.025 514 303.044 513.913 304.143C513.825 305.242 514.177 306.331 514.89 307.171C515.604 308.012 516.621 308.535 517.719 308.628C518.818 308.72 519.908 308.373 520.752 307.663C522.598 306.109 524.084 304.171 525.106 301.984C526.128 299.798 526.661 297.414 526.668 295.001V195.001C526.664 190.582 524.906 186.345 521.782 183.22C518.657 180.096 514.42 178.338 510.001 178.334H396.069C394.964 178.334 393.904 178.773 393.123 179.554C392.341 180.336 391.902 181.396 391.902 182.501C391.902 183.606 392.341 184.666 393.123 185.447C393.904 186.228 394.964 186.667 396.069 186.667Z" fill="#737678"/>
<path d="M533.779 337.889L342.112 146.222C341.326 145.463 340.274 145.043 339.181 145.053C338.089 145.062 337.044 145.501 336.271 146.273C335.499 147.046 335.06 148.091 335.051 149.183C335.041 150.276 335.461 151.328 336.22 152.114L362.441 178.335H359.999C355.58 178.339 351.344 180.097 348.219 183.221C345.095 186.346 343.337 190.583 343.333 195.002V295.002C343.337 299.421 345.095 303.657 348.219 306.782C351.344 309.907 355.58 311.664 359.999 311.668H495.774L527.887 343.781C528.673 344.54 529.725 344.96 530.818 344.951C531.91 344.941 532.955 344.503 533.728 343.73C534.5 342.958 534.939 341.913 534.948 340.82C534.958 339.728 534.538 338.675 533.779 337.889ZM394.583 210.478L411.19 227.084C408.866 228.214 406.247 228.592 403.699 228.164C401.15 227.736 398.799 226.524 396.972 224.696C395.144 222.869 393.932 220.517 393.504 217.969C393.076 215.42 393.453 212.802 394.583 210.478ZM359.999 186.668H370.774L388.453 204.348C385.805 208.354 384.622 213.151 385.105 217.929C385.587 222.707 387.705 227.171 391.101 230.567C394.497 233.963 398.961 236.081 403.739 236.563C408.517 237.046 413.314 235.863 417.32 233.214L429.212 245.106L408.022 266.299L392.112 250.389C391.725 250.002 391.266 249.695 390.761 249.486C390.255 249.276 389.713 249.169 389.166 249.169C388.619 249.169 388.077 249.276 387.572 249.486C387.066 249.695 386.607 250.002 386.22 250.389L351.666 284.943V195.002C351.669 192.792 352.548 190.675 354.11 189.112C355.672 187.55 357.79 186.671 359.999 186.668ZM359.999 303.335C358.061 303.316 356.192 302.614 354.721 301.352C353.249 300.09 352.27 298.349 351.956 296.437L389.166 259.227L415.387 285.447C416.173 286.206 417.225 286.626 418.318 286.617C419.41 286.607 420.455 286.169 421.228 285.397C422 284.624 422.438 283.579 422.448 282.487C422.457 281.394 422.037 280.342 421.278 279.556L413.913 272.191L435.103 250.998L487.441 303.335H359.999Z" fill="#737678"/>
</g>
<defs>
<clipPath id="clip0_3480_70808">
<rect width="200" height="200" fill="white" transform="translate(335 145)"/>
</clipPath>
</defs>
</svg>
