<svg width="870" height="535" viewBox="0 0 870 535" fill="none" xmlns="http://www.w3.org/2000/svg">
<rect width="870" height="535" rx="4" fill="#DBDBDB"/>
<path d="M371.278 381V368.4H373.438L379.504 377.508V368.4H381.664V381H379.504L373.438 371.91V381H371.278ZM388.356 381.216C387.492 381.216 386.712 381.018 386.016 380.622C385.332 380.214 384.792 379.656 384.396 378.948C384.012 378.228 383.82 377.406 383.82 376.482C383.82 375.534 384.018 374.706 384.414 373.998C384.81 373.278 385.35 372.72 386.034 372.324C386.73 371.916 387.51 371.712 388.374 371.712C389.238 371.712 390.012 371.916 390.696 372.324C391.392 372.72 391.932 373.272 392.316 373.98C392.712 374.688 392.91 375.516 392.91 376.464C392.91 377.412 392.712 378.24 392.316 378.948C391.92 379.656 391.374 380.214 390.678 380.622C389.994 381.018 389.22 381.216 388.356 381.216ZM388.356 379.362C388.788 379.362 389.178 379.254 389.526 379.038C389.886 378.822 390.174 378.498 390.39 378.066C390.606 377.634 390.714 377.1 390.714 376.464C390.714 375.828 390.606 375.3 390.39 374.88C390.186 374.448 389.904 374.124 389.544 373.908C389.196 373.692 388.806 373.584 388.374 373.584C387.954 373.584 387.564 373.692 387.204 373.908C386.844 374.124 386.556 374.448 386.34 374.88C386.124 375.3 386.016 375.828 386.016 376.464C386.016 377.1 386.124 377.634 386.34 378.066C386.556 378.498 386.838 378.822 387.186 379.038C387.546 379.254 387.936 379.362 388.356 379.362ZM401.903 381L398.555 371.928H400.823L403.217 378.948L405.611 371.928H407.843L404.495 381H401.903ZM409.476 381V371.928H411.636V381H409.476ZM410.556 370.488C410.16 370.488 409.83 370.368 409.566 370.128C409.314 369.876 409.188 369.57 409.188 369.21C409.188 368.838 409.314 368.538 409.566 368.31C409.83 368.07 410.16 367.95 410.556 367.95C410.952 367.95 411.276 368.07 411.528 368.31C411.792 368.538 411.924 368.838 411.924 369.21C411.924 369.57 411.792 369.876 411.528 370.128C411.276 370.368 410.952 370.488 410.556 370.488ZM418.164 381.216C417.324 381.216 416.574 381.012 415.914 380.604C415.254 380.196 414.738 379.632 414.366 378.912C414.006 378.192 413.826 377.376 413.826 376.464C413.826 375.552 414.012 374.742 414.384 374.034C414.756 373.314 415.272 372.75 415.932 372.342C416.604 371.922 417.36 371.712 418.2 371.712C418.884 371.712 419.478 371.844 419.982 372.108C420.498 372.36 420.906 372.72 421.206 373.188V368.04H423.366V381H421.422L421.206 379.686C421.014 379.95 420.78 380.202 420.504 380.442C420.228 380.67 419.898 380.856 419.514 381C419.13 381.144 418.68 381.216 418.164 381.216ZM418.614 379.344C419.13 379.344 419.586 379.224 419.982 378.984C420.378 378.732 420.684 378.39 420.9 377.958C421.116 377.526 421.224 377.028 421.224 376.464C421.224 375.9 421.116 375.402 420.9 374.97C420.684 374.538 420.378 374.202 419.982 373.962C419.586 373.722 419.13 373.602 418.614 373.602C418.122 373.602 417.678 373.722 417.282 373.962C416.886 374.202 416.574 374.538 416.346 374.97C416.13 375.402 416.022 375.9 416.022 376.464C416.022 377.028 416.13 377.526 416.346 377.958C416.574 378.39 416.886 378.732 417.282 378.984C417.678 379.224 418.122 379.344 418.614 379.344ZM430.017 381.216C429.117 381.216 428.325 381.024 427.641 380.64C426.957 380.244 426.423 379.692 426.039 378.984C425.655 378.276 425.463 377.46 425.463 376.536C425.463 375.576 425.649 374.736 426.021 374.016C426.405 373.296 426.939 372.732 427.623 372.324C428.319 371.916 429.123 371.712 430.035 371.712C430.923 371.712 431.697 371.91 432.357 372.306C433.017 372.702 433.527 373.236 433.887 373.908C434.247 374.568 434.427 375.312 434.427 376.14C434.427 376.26 434.427 376.392 434.427 376.536C434.427 376.68 434.415 376.83 434.391 376.986H427.011V375.6H432.249C432.225 374.94 432.003 374.424 431.583 374.052C431.163 373.668 430.641 373.476 430.017 373.476C429.573 373.476 429.165 373.578 428.793 373.782C428.421 373.986 428.127 374.292 427.911 374.7C427.695 375.096 427.587 375.6 427.587 376.212V376.734C427.587 377.298 427.689 377.784 427.893 378.192C428.109 378.6 428.397 378.912 428.757 379.128C429.129 379.332 429.543 379.434 429.999 379.434C430.503 379.434 430.917 379.326 431.241 379.11C431.577 378.894 431.823 378.606 431.979 378.246H434.175C434.007 378.81 433.731 379.32 433.347 379.776C432.963 380.22 432.489 380.574 431.925 380.838C431.361 381.09 430.725 381.216 430.017 381.216ZM440.651 381.216C439.787 381.216 439.007 381.018 438.311 380.622C437.627 380.214 437.087 379.656 436.691 378.948C436.307 378.228 436.115 377.406 436.115 376.482C436.115 375.534 436.313 374.706 436.709 373.998C437.105 373.278 437.645 372.72 438.329 372.324C439.025 371.916 439.805 371.712 440.669 371.712C441.533 371.712 442.307 371.916 442.991 372.324C443.687 372.72 444.227 373.272 444.611 373.98C445.007 374.688 445.205 375.516 445.205 376.464C445.205 377.412 445.007 378.24 444.611 378.948C444.215 379.656 443.669 380.214 442.973 380.622C442.289 381.018 441.515 381.216 440.651 381.216ZM440.651 379.362C441.083 379.362 441.473 379.254 441.821 379.038C442.181 378.822 442.469 378.498 442.685 378.066C442.901 377.634 443.009 377.1 443.009 376.464C443.009 375.828 442.901 375.3 442.685 374.88C442.481 374.448 442.199 374.124 441.839 373.908C441.491 373.692 441.101 373.584 440.669 373.584C440.249 373.584 439.859 373.692 439.499 373.908C439.139 374.124 438.851 374.448 438.635 374.88C438.419 375.3 438.311 375.828 438.311 376.464C438.311 377.1 438.419 377.634 438.635 378.066C438.851 378.498 439.133 378.822 439.481 379.038C439.841 379.254 440.231 379.362 440.651 379.362ZM452.164 381V370.938C452.164 370.242 452.278 369.684 452.506 369.264C452.746 368.832 453.088 368.52 453.532 368.328C453.976 368.136 454.504 368.04 455.116 368.04H456.196V369.876H455.44C455.044 369.876 454.756 369.96 454.576 370.128C454.408 370.284 454.324 370.56 454.324 370.956V381H452.164ZM450.868 373.746V371.928H456.376V373.746H450.868ZM462.114 381.216C461.25 381.216 460.47 381.018 459.774 380.622C459.09 380.214 458.55 379.656 458.154 378.948C457.77 378.228 457.578 377.406 457.578 376.482C457.578 375.534 457.776 374.706 458.172 373.998C458.568 373.278 459.108 372.72 459.792 372.324C460.488 371.916 461.268 371.712 462.132 371.712C462.996 371.712 463.77 371.916 464.454 372.324C465.15 372.72 465.69 373.272 466.074 373.98C466.47 374.688 466.668 375.516 466.668 376.464C466.668 377.412 466.47 378.24 466.074 378.948C465.678 379.656 465.132 380.214 464.436 380.622C463.752 381.018 462.978 381.216 462.114 381.216ZM462.114 379.362C462.546 379.362 462.936 379.254 463.284 379.038C463.644 378.822 463.932 378.498 464.148 378.066C464.364 377.634 464.472 377.1 464.472 376.464C464.472 375.828 464.364 375.3 464.148 374.88C463.944 374.448 463.662 374.124 463.302 373.908C462.954 373.692 462.564 373.584 462.132 373.584C461.712 373.584 461.322 373.692 460.962 373.908C460.602 374.124 460.314 374.448 460.098 374.88C459.882 375.3 459.774 375.828 459.774 376.464C459.774 377.1 459.882 377.634 460.098 378.066C460.314 378.498 460.596 378.822 460.944 379.038C461.304 379.254 461.694 379.362 462.114 379.362ZM472.148 381.216C471.416 381.216 470.786 381.072 470.258 380.784C469.742 380.484 469.346 380.04 469.07 379.452C468.794 378.852 468.656 378.114 468.656 377.238V371.928H470.816V377.022C470.816 377.802 470.978 378.396 471.302 378.804C471.638 379.2 472.142 379.398 472.814 379.398C473.246 379.398 473.63 379.296 473.966 379.092C474.314 378.888 474.584 378.594 474.776 378.21C474.98 377.814 475.082 377.334 475.082 376.77V371.928H477.242V381H475.334L475.172 379.488C474.896 380.016 474.494 380.436 473.966 380.748C473.45 381.06 472.844 381.216 472.148 381.216ZM479.645 381V371.928H481.553L481.715 373.44C481.991 372.912 482.387 372.492 482.903 372.18C483.419 371.868 484.031 371.712 484.739 371.712C485.471 371.712 486.095 371.868 486.611 372.18C487.127 372.48 487.523 372.924 487.799 373.512C488.087 374.1 488.231 374.832 488.231 375.708V381H486.071V375.906C486.071 375.15 485.903 374.568 485.567 374.16C485.231 373.752 484.733 373.548 484.073 373.548C483.641 373.548 483.251 373.65 482.903 373.854C482.567 374.058 482.297 374.358 482.093 374.754C481.901 375.138 481.805 375.606 481.805 376.158V381H479.645ZM494.541 381.216C493.701 381.216 492.951 381.012 492.291 380.604C491.631 380.196 491.115 379.632 490.743 378.912C490.383 378.192 490.203 377.376 490.203 376.464C490.203 375.552 490.389 374.742 490.761 374.034C491.133 373.314 491.649 372.75 492.309 372.342C492.981 371.922 493.737 371.712 494.577 371.712C495.261 371.712 495.855 371.844 496.359 372.108C496.875 372.36 497.283 372.72 497.583 373.188V368.04H499.743V381H497.799L497.583 379.686C497.391 379.95 497.157 380.202 496.881 380.442C496.605 380.67 496.275 380.856 495.891 381C495.507 381.144 495.057 381.216 494.541 381.216ZM494.991 379.344C495.507 379.344 495.963 379.224 496.359 378.984C496.755 378.732 497.061 378.39 497.277 377.958C497.493 377.526 497.601 377.028 497.601 376.464C497.601 375.9 497.493 375.402 497.277 374.97C497.061 374.538 496.755 374.202 496.359 373.962C495.963 373.722 495.507 373.602 494.991 373.602C494.499 373.602 494.055 373.722 493.659 373.962C493.263 374.202 492.951 374.538 492.723 374.97C492.507 375.402 492.399 375.9 492.399 376.464C492.399 377.028 492.507 377.526 492.723 377.958C492.951 378.39 493.263 378.732 493.659 378.984C494.055 379.224 494.499 379.344 494.991 379.344Z" fill="#2D2D2D"/>
<path d="M357.813 159.219C354.875 156.281 350.125 156.281 347.219 159.219C344.313 162.156 344.281 166.906 347.188 169.844L512.188 334.844C515.125 337.781 519.875 337.781 522.781 334.844C525.688 331.906 525.719 327.156 522.781 324.25L474.969 276.438V207C474.969 195.969 466 187 454.969 187H385.563L357.813 159.219ZM355 207V287C355 298.031 363.969 307 375 307H455C457.438 307 459.781 306.563 461.938 305.75L356.25 200.062C355.438 202.219 355 204.562 355 207ZM490 272L512.969 290.375C514.281 291.438 515.906 292 517.594 292C521.688 292 525 288.688 525 284.594V209.406C525 205.312 521.688 202 517.594 202C515.906 202 514.281 202.562 512.969 203.625L490 222V272Z" fill="#737678"/>
</svg>
