<svg width="24" height="24" viewBox="0 0 24 24" fill="none" xmlns="http://www.w3.org/2000/svg">
<g clip-path="url(#clip0_658_62419)">
<path d="M22.9952 11.6876C22.9947 11.6673 22.9937 11.6471 22.993 11.6269C22.99 11.5359 22.9859 11.4453 22.9807 11.3547C22.9801 11.3449 22.9795 11.3351 22.9789 11.3252C22.8175 8.64079 21.6958 6.13953 19.7781 4.22175C17.7006 2.14417 14.9382 1 12 1C9.06188 1 6.29947 2.14417 4.22188 4.22184C2.43417 6.00951 1.33838 8.3043 1.06712 10.7817C1.06613 10.7906 1.06514 10.7994 1.0642 10.8083C1.05809 10.8653 1.05229 10.9223 1.04709 10.9794C1.04473 11.0048 1.04275 11.0302 1.04056 11.0557C1.03506 11.121 1.02995 11.1864 1.02557 11.252C1.02183 11.3072 1.01835 11.3626 1.01543 11.4179C1.01379 11.4491 1.01255 11.4804 1.01117 11.5116C1.00877 11.5663 1.00679 11.621 1.00516 11.6758C1.00438 11.7025 1.00357 11.7292 1.00296 11.7559C1.0012 11.8373 1 11.9185 1 12C1 12.1046 1.00185 12.209 1.00473 12.3131C1.00533 12.3334 1.00627 12.3538 1.00696 12.3742C1.00997 12.4652 1.01409 12.5561 1.01934 12.6467C1.01994 12.6568 1.02054 12.6669 1.02118 12.677C1.18305 15.3605 2.30462 17.8609 4.22184 19.7781C6.29947 21.8558 9.06184 23 12 23C14.8644 23 17.5613 21.9122 19.6199 19.9325C19.6297 19.9231 19.6394 19.9136 19.6491 19.9041C19.6923 19.8623 19.7355 19.8207 19.7782 19.7781C19.798 19.7583 19.8173 19.7379 19.837 19.7179C19.8529 19.7018 19.8687 19.6854 19.8845 19.6692C19.944 19.6081 20.0027 19.5464 20.0605 19.4842C20.0719 19.4719 20.0833 19.4598 20.0947 19.4474C21.8769 17.5141 22.8936 15.0476 22.9914 12.4188C22.9924 12.3933 22.9933 12.368 22.9942 12.3427C22.9953 12.304 22.9964 12.2653 22.9972 12.2266C22.9989 12.1503 23 12.0746 23 12C23 11.8956 22.9981 11.7915 22.9952 11.6876ZM5.72832 20.171C5.05767 19.655 4.45194 19.0587 3.926 18.3962C3.91126 18.3776 3.89631 18.3592 3.88174 18.3404C3.85463 18.3057 3.82812 18.2707 3.80143 18.2357C3.76323 18.1854 3.72516 18.1349 3.68787 18.0839C3.67816 18.0707 3.66845 18.0573 3.65882 18.0441C2.52006 16.4692 1.83411 14.5878 1.7141 12.6214C1.71337 12.6093 1.71246 12.5971 1.71178 12.5848C1.70718 12.5046 1.70391 12.4241 1.70116 12.3436C1.70056 12.325 1.69953 12.3065 1.69902 12.2878C1.69627 12.192 1.69476 12.0961 1.69476 12C1.69476 11.921 1.69596 11.8423 1.69777 11.7638C1.69824 11.7427 1.69884 11.7217 1.69945 11.7007C1.70138 11.6324 1.70396 11.5644 1.70722 11.4965C1.70778 11.4853 1.70812 11.4741 1.70868 11.4629C1.71268 11.3852 1.71771 11.3079 1.72346 11.2307C1.72488 11.2115 1.72647 11.1924 1.72802 11.1732C1.73322 11.1082 1.73893 11.0434 1.74534 10.9787C1.74675 10.964 1.74813 10.9492 1.74959 10.9344C1.75775 10.8557 1.76673 10.7771 1.77657 10.6988C1.77786 10.6885 1.77937 10.6782 1.78066 10.6679C1.79002 10.5956 1.80012 10.5236 1.81099 10.4518C1.81258 10.4414 1.81409 10.431 1.81568 10.4206C2.03529 8.99863 2.547 7.67193 3.28684 6.50335C3.72177 6.50559 4.7779 6.51783 5.86342 6.58186C8.01465 6.70861 8.48498 6.93673 8.57384 6.99745C8.71921 7.44471 8.72544 8.19924 8.51274 8.58102C8.42526 8.73798 8.34121 8.75599 8.31354 8.76188C7.58586 8.91777 5.36494 10.0681 5.11409 10.1988C5.1073 10.2024 5.10055 10.2061 5.09393 10.2102C5.03906 10.2436 4.55562 10.5544 4.46878 11.1805C4.39552 11.7086 4.63163 12.2707 5.17055 12.8511C5.88825 13.624 6.86614 13.6288 7.65191 13.6326C8.06647 13.6346 8.49517 13.6367 8.62184 13.7783C8.69721 13.8626 8.69536 14.0454 8.68058 14.1838C8.61273 14.8177 8.00434 15.4733 7.36015 16.1674C6.42089 17.1796 5.35626 18.3268 5.72777 19.7776C5.77705 19.9697 5.76403 20.0912 5.72832 20.171ZM20.9283 17.1417C21.2981 15.5108 21.3881 13.9304 20.8071 13.1776C20.1883 12.3755 19.8294 11.4894 19.9536 11.0707C19.9887 10.9523 20.061 10.8817 20.1951 10.8348C20.1996 10.8331 20.3096 10.7991 20.6282 11.075C20.8969 11.3076 21.1994 11.6587 21.5197 12.0305C21.7626 12.3124 22.0128 12.6026 22.2685 12.865C22.1395 14.4121 21.6675 15.8632 20.9283 17.1417ZM22.0461 11.577C21.2909 10.7005 20.6387 9.94347 19.9658 10.1791C19.6211 10.2997 19.3866 10.5397 19.2877 10.8731C18.9874 11.8851 20.0426 13.3238 20.2572 13.602C20.7697 14.2661 20.5537 16.398 19.7338 18.8029C19.2695 19.3301 18.7526 19.8097 18.1909 20.2332C17.6449 19.7321 17.2912 19.4909 16.5 18C16.4101 17.8305 16.1695 17.4101 16 17.5C15.8305 17.5899 15.9101 17.8305 16 18C16.7845 19.4784 17.0227 20.053 17.6117 20.6393C15.9959 21.6923 14.0683 22.3053 12 22.3053C9.89144 22.3053 7.92901 21.6683 6.29427 20.5772C6.4578 20.3191 6.49794 19.9844 6.40087 19.6054C6.12342 18.5218 6.97154 17.6078 7.8695 16.6402C8.59438 15.859 9.27909 15.1212 9.37143 14.2578C9.41539 13.847 9.33959 13.5388 9.13978 13.3153C8.80734 12.9436 8.24775 12.9408 7.65534 12.938C6.96969 12.9346 6.1926 12.9308 5.67968 12.3785C5.29846 11.9679 5.11731 11.5893 5.15594 11.2836C5.19212 10.9974 5.41104 10.8342 5.44959 10.8074C6.12003 10.4588 7.92429 9.55585 8.45916 9.44125C8.73377 9.38239 8.96215 9.20187 9.11968 8.91918C9.45058 8.32544 9.42699 7.3186 9.21537 6.72623C9.10472 6.41651 8.76278 6.07169 6.0884 5.89968C5.21661 5.84361 4.34396 5.82182 3.76366 5.81345C5.64578 3.31395 8.63731 1.69476 12 1.69476C14.1427 1.69476 16.1345 2.35236 17.7848 3.47595C17.5562 3.74974 17.198 4.08666 16.8683 4.08666C16.1932 4.08666 14.7883 4.08666 14.173 4.82168C13.9308 5.11086 13.8422 5.48392 13.9166 5.90041C14.0508 6.65164 14.497 7.13143 14.8557 7.51694C15.2745 7.96712 15.4878 8.22266 15.377 8.66605C15.313 8.92189 14.5902 9.21081 14.0093 9.44293C12.9924 9.84924 11.8398 10.3098 11.4763 11.2753C11.2786 11.8003 11.3507 12.4053 11.6904 13.0735C12.5822 14.8273 13.2473 15.112 13.9633 15.2834C14.2878 15.3611 14.4664 15.4039 14.6865 15.8345C14.6087 15.6783 14.742 15.9431 14.6865 15.8345C14.7452 15.9522 14.8542 16.1699 14.9238 16.3083C15.0099 16.4797 15.3286 16.5861 15.5 16.5C15.6714 16.4138 15.6502 16.1714 15.5641 16C15.495 15.8624 15.3635 15.6354 15.3052 15.5183C15.2261 15.3596 15.3615 15.6287 15.3052 15.5183C14.9394 14.8028 14.5068 14.6992 14.1251 14.6078C13.6579 14.496 13.1285 14.3692 12.3097 12.7586C12.0586 12.2647 11.9986 11.8596 12.1265 11.5201C12.3821 10.8413 13.3835 10.4412 14.2671 10.0881C15.1437 9.73782 15.9009 9.43528 16.0511 8.83466C16.2585 8.00494 15.7835 7.49434 15.3644 7.04386C15.0372 6.69203 14.6987 6.32834 14.6005 5.77838C14.5497 5.49397 14.6362 5.35076 14.7057 5.26774C15.1128 4.78146 16.3882 4.78146 16.8684 4.78146C17.5145 4.78146 18.0561 4.24676 18.3473 3.88707C18.9358 4.34843 19.473 4.87217 19.9488 5.44843C19.9869 5.49457 20.0246 5.54184 20.0618 5.58868C20.0887 5.62254 20.1156 5.65635 20.1421 5.69055C20.1613 5.7153 20.1802 5.74014 20.1992 5.76506C21.4042 7.35366 22.1388 9.27411 22.2801 11.2861C22.2807 11.2945 22.2812 11.3028 22.2817 11.3111C22.2871 11.3902 22.2913 11.4694 22.2948 11.5488C22.2961 11.5778 22.2972 11.6067 22.2982 11.6358C22.3004 11.696 22.3019 11.7564 22.303 11.8168C22.3033 11.836 22.3035 11.8553 22.3037 11.8745C22.2172 11.7755 22.1313 11.6758 22.0461 11.577Z" fill="white"/>
<path d="M14.6865 15.8345C14.4664 15.4039 14.2878 15.3611 13.9633 15.2834C13.2473 15.112 12.5822 14.8273 11.6904 13.0735C11.3507 12.4053 11.2786 11.8003 11.4763 11.2753C11.8398 10.3098 12.9924 9.84924 14.0093 9.44293C14.5902 9.21081 15.313 8.92189 15.377 8.66605C15.4878 8.22266 15.2745 7.96713 14.8557 7.51694C14.497 7.13143 14.0508 6.65164 13.9166 5.90041C13.8422 5.48392 13.9308 5.11086 14.173 4.82168C14.7883 4.08666 16.1932 4.08666 16.8683 4.08666C17.198 4.08666 17.5562 3.74974 17.7848 3.47595C16.1345 2.35236 14.1427 1.69476 12 1.69476C8.63731 1.69476 5.64578 3.31395 3.76366 5.81345C4.34396 5.82182 5.21661 5.84361 6.0884 5.89968C8.76278 6.07169 9.10472 6.41651 9.21537 6.72623C9.42699 7.3186 9.45058 8.32544 9.11968 8.91918C8.96215 9.20187 8.73377 9.38239 8.45916 9.44125C7.92429 9.55585 6.12003 10.4588 5.44959 10.8074C5.41104 10.8342 5.19212 10.9974 5.15594 11.2836C5.11731 11.5893 5.29846 11.9679 5.67968 12.3785C6.1926 12.9308 6.96969 12.9346 7.65534 12.938C8.24775 12.9408 8.80734 12.9436 9.13978 13.3153C9.33959 13.5388 9.41539 13.847 9.37143 14.2578C9.27909 15.1212 8.59438 15.859 7.8695 16.6402C6.97154 17.6078 6.12342 18.5218 6.40087 19.6054C6.49794 19.9844 6.4578 20.3191 6.29427 20.5772C7.92901 21.6683 9.89144 22.3053 12 22.3053C14.0683 22.3053 15.9959 21.6923 17.6117 20.6393C17.0227 20.053 16.7845 19.4784 16 18C15.9101 17.8305 15.8305 17.5899 16 17.5C16.1695 17.4101 16.4101 17.8305 16.5 18C17.2912 19.4909 17.6449 19.7321 18.1909 20.2332C18.7526 19.8097 19.2695 19.3301 19.7338 18.8029C20.5537 16.398 20.7697 14.2661 20.2572 13.602C20.0426 13.3238 18.9874 11.8851 19.2877 10.8731C19.3866 10.5397 19.6211 10.2997 19.9658 10.1791C20.6387 9.94347 21.2909 10.7005 22.0461 11.577C22.1313 11.6758 22.2172 11.7755 22.3037 11.8745C22.3035 11.8553 22.3033 11.836 22.303 11.8168C22.3019 11.7564 22.3004 11.696 22.2982 11.6358C22.2972 11.6067 22.2961 11.5778 22.2948 11.5488C22.2913 11.4694 22.2871 11.3902 22.2817 11.3111C22.2812 11.3028 22.2807 11.2945 22.2801 11.2861C22.1388 9.27411 21.4042 7.35366 20.1992 5.76506C20.1802 5.74014 20.1613 5.7153 20.1421 5.69055C20.1156 5.65635 20.0887 5.62254 20.0618 5.58868C20.0246 5.54184 19.9869 5.49457 19.9488 5.44843C19.473 4.87217 18.9358 4.34843 18.3473 3.88707C18.0561 4.24676 17.5145 4.78146 16.8684 4.78146C16.3882 4.78146 15.1128 4.78146 14.7057 5.26774C14.6362 5.35076 14.5497 5.49397 14.6005 5.77838C14.6987 6.32834 15.0372 6.69203 15.3644 7.04386C15.7835 7.49434 16.2585 8.00494 16.0511 8.83466C15.9009 9.43528 15.1437 9.73782 14.2671 10.0881C13.3835 10.4412 12.3821 10.8413 12.1265 11.5201C11.9986 11.8596 12.0586 12.2647 12.3097 12.7586C13.1285 14.3692 13.6579 14.496 14.1251 14.6078C14.5068 14.6992 14.9394 14.8028 15.3052 15.5183M14.6865 15.8345C14.742 15.9431 14.6087 15.6783 14.6865 15.8345ZM14.6865 15.8345C14.7452 15.9522 14.8542 16.1699 14.9238 16.3083C15.0099 16.4798 15.3286 16.5861 15.5 16.5C15.6714 16.4138 15.6502 16.1714 15.5641 16C15.495 15.8624 15.3635 15.6354 15.3052 15.5183M15.3052 15.5183C15.2261 15.3596 15.3615 15.6287 15.3052 15.5183ZM22.9952 11.6876C22.9947 11.6673 22.9937 11.6471 22.993 11.6269C22.99 11.5359 22.9859 11.4453 22.9807 11.3547C22.9801 11.3449 22.9795 11.3351 22.9789 11.3252C22.8175 8.64079 21.6958 6.13954 19.7781 4.22175C17.7006 2.14417 14.9382 1 12 1C9.06188 1 6.29946 2.14417 4.22188 4.22184C2.43417 6.00951 1.33838 8.3043 1.06712 10.7817C1.06613 10.7906 1.06514 10.7994 1.0642 10.8083C1.05809 10.8653 1.05229 10.9223 1.04709 10.9794C1.04473 11.0048 1.04275 11.0302 1.04056 11.0557C1.03506 11.121 1.02995 11.1864 1.02557 11.252C1.02183 11.3072 1.01835 11.3626 1.01543 11.4179C1.01379 11.4491 1.01255 11.4804 1.01117 11.5116C1.00877 11.5663 1.00679 11.621 1.00516 11.6758C1.00438 11.7025 1.00357 11.7292 1.00296 11.7559C1.0012 11.8373 1 11.9185 1 12C1 12.1046 1.00185 12.209 1.00473 12.3131C1.00533 12.3334 1.00627 12.3538 1.00696 12.3742C1.00997 12.4652 1.01409 12.5561 1.01934 12.6467C1.01994 12.6568 1.02054 12.6669 1.02118 12.677C1.18305 15.3605 2.30462 17.8609 4.22184 19.7781C6.29946 21.8558 9.06184 23 12 23C14.8644 23 17.5613 21.9122 19.6199 19.9325C19.6297 19.9231 19.6394 19.9136 19.6491 19.9041C19.6923 19.8623 19.7355 19.8207 19.7782 19.7781C19.798 19.7583 19.8173 19.7379 19.837 19.7179C19.8529 19.7018 19.8687 19.6854 19.8845 19.6692C19.944 19.6081 20.0027 19.5464 20.0605 19.4842C20.0719 19.4719 20.0833 19.4598 20.0947 19.4474C21.8769 17.5141 22.8936 15.0476 22.9914 12.4188C22.9924 12.3933 22.9933 12.368 22.9942 12.3427C22.9953 12.304 22.9964 12.2653 22.9972 12.2266C22.9989 12.1503 23 12.0746 23 12C23 11.8956 22.9981 11.7915 22.9952 11.6876ZM5.72832 20.171C5.05767 19.655 4.45194 19.0587 3.926 18.3962C3.91126 18.3776 3.89631 18.3592 3.88174 18.3404C3.85463 18.3058 3.82812 18.2707 3.80143 18.2357C3.76323 18.1854 3.72516 18.1349 3.68787 18.0839C3.67816 18.0707 3.66845 18.0573 3.65882 18.0441C2.52006 16.4692 1.83411 14.5878 1.7141 12.6214C1.71337 12.6093 1.71246 12.5971 1.71178 12.5848C1.70718 12.5046 1.70391 12.4241 1.70116 12.3436C1.70056 12.325 1.69953 12.3065 1.69902 12.2878C1.69627 12.192 1.69476 12.0961 1.69476 12C1.69476 11.921 1.69596 11.8423 1.69777 11.7638C1.69824 11.7427 1.69884 11.7217 1.69945 11.7007C1.70138 11.6324 1.70396 11.5644 1.70722 11.4965C1.70778 11.4853 1.70813 11.4741 1.70868 11.4629C1.71268 11.3852 1.71771 11.3079 1.72346 11.2307C1.72488 11.2115 1.72647 11.1924 1.72802 11.1732C1.73322 11.1082 1.73893 11.0434 1.74534 10.9787C1.74675 10.964 1.74813 10.9492 1.74959 10.9344C1.75775 10.8557 1.76673 10.7771 1.77657 10.6988C1.77786 10.6885 1.77937 10.6782 1.78066 10.6679C1.79002 10.5956 1.80012 10.5236 1.81099 10.4518C1.81258 10.4414 1.81409 10.431 1.81568 10.4206C2.03529 8.99863 2.547 7.67193 3.28684 6.50335C3.72177 6.50559 4.7779 6.51783 5.86342 6.58186C8.01465 6.70861 8.48498 6.93673 8.57384 6.99745C8.71921 7.44471 8.72544 8.19924 8.51274 8.58102C8.42526 8.73798 8.34121 8.75599 8.31354 8.76188C7.58586 8.91777 5.36494 10.0681 5.11409 10.1988C5.1073 10.2024 5.10055 10.2061 5.09393 10.2102C5.03906 10.2436 4.55562 10.5544 4.46878 11.1805C4.39552 11.7086 4.63163 12.2707 5.17055 12.8511C5.88825 13.624 6.86614 13.6288 7.65191 13.6326C8.06647 13.6346 8.49517 13.6367 8.62184 13.7783C8.69721 13.8626 8.69536 14.0454 8.68058 14.1838C8.61273 14.8177 8.00434 15.4733 7.36015 16.1674C6.42089 17.1796 5.35626 18.3268 5.72777 19.7776C5.77705 19.9697 5.76403 20.0912 5.72832 20.171ZM20.9283 17.1417C21.2981 15.5108 21.3881 13.9304 20.8071 13.1776C20.1883 12.3755 19.8294 11.4894 19.9536 11.0707C19.9887 10.9523 20.061 10.8817 20.1951 10.8348C20.1996 10.8331 20.3096 10.7991 20.6282 11.075C20.8969 11.3076 21.1994 11.6587 21.5197 12.0305C21.7626 12.3124 22.0128 12.6026 22.2685 12.865C22.1395 14.4121 21.6675 15.8632 20.9283 17.1417Z" stroke="white" stroke-width="0.25"/>
</g>
<defs>
<clipPath id="clip0_658_62419">
<rect width="24" height="24" fill="white"/>
</clipPath>
</defs>
</svg>
