<svg width="40" height="40" viewBox="0 0 40 40" fill="none" xmlns="http://www.w3.org/2000/svg">
<path d="M20 0.5C30.7693 0.50025 39.5 9.23072 39.5 20C39.4999 24.2093 38.1662 28.1061 35.8984 31.293C32.3631 36.2609 26.5598 39.4998 20 39.5C13.4055 39.5 7.57511 36.2271 4.0459 31.2148C1.81176 28.0431 0.500093 24.175 0.5 20C0.5 9.23054 9.23054 0.5 20 0.5Z" fill="#F4F4F4" stroke="#BBBBBB"/>
<path d="M25.5913 12.8183C25.5913 12.8183 26.4548 10.2276 25.7276 8.77311C25.0004 7.31867 24.3641 6.04602 24.2732 5.31879C24.1823 4.59157 24.2732 3.71575 24.2732 3.71575C24.2732 3.71575 23.0914 5.5006 22.7278 5.22789C22.3642 4.95519 23.8186 3.40984 23.8186 3.40984C23.8186 3.40984 22.2733 3.50074 21.5461 3.95526C20.8188 4.40977 20.7279 4.68249 20.637 4.40977C20.5461 4.13707 20.5938 3.68254 20.979 3.40984C20.979 3.40984 20.0916 3.13714 18.4554 3.95526C16.8191 4.77339 15.8192 5.50061 14.8192 7.40957C13.8193 9.31854 14.592 13.0001 14.6829 13.2728C14.7738 13.5455 16.7737 10.1821 18.8644 9.18218C20.9552 8.18225 22.9452 7.80282 23.6823 8.81856C24.4194 9.83431 24.9549 14.4545 25.5913 12.8183Z" fill="#2D2D2D"/>
<path d="M25.7739 22.7268C25.7739 22.7268 24.5922 22.1814 24.2286 21.0906C23.865 19.9997 19.7743 22.7268 19.7743 22.7268L15.7746 21.0906C15.7746 21.0906 15.7746 22.1814 14.502 22.7268L17.5472 27.681C17.5472 27.681 25.9103 28.1355 25.9103 26.4993C25.9103 24.863 25.7739 22.7268 25.7739 22.7268Z" fill="#FFD3B9"/>
<path d="M24.2226 16.9196L24.2279 26.545L20.5009 29.9085L15.777 25.0906L15.7402 16.3623L24.2226 16.9196Z" fill="#FFD3B9"/>
<path d="M24.9895 10.7312C24.9895 10.7312 25.0972 12.7303 25.2775 12.5469C25.4577 12.3636 25.8137 11.4515 26.1781 11.5394C26.5424 11.6272 26.9098 12.0787 26.6486 13.4445C26.3873 14.8103 25.9451 16.2685 25.3997 16.2731C24.8543 16.2776 25.0315 15.7307 24.852 16.0049C24.6725 16.2792 23.8903 20.5583 20.0725 20.5904C16.2547 20.6225 15.3083 16.176 15.2174 16.1768C15.1265 16.1776 15.1288 16.4503 14.7652 16.4533C14.4015 16.4564 13.2015 14.2847 13.1916 13.103C13.1817 11.9213 13.5422 11.5547 13.9967 11.5509C14.4512 11.547 14.6437 12.8181 14.7323 12.5447C14.8209 12.2712 15.5183 8.71999 15.7872 8.2632C16.0561 7.80642 23.6856 7.01506 24.0507 7.1938C24.4158 7.37254 25.0666 9.09428 24.9895 10.7312Z" fill="#FFD3B9"/>
<path d="M36.5 29.5C33 35.5 26.7286 39 20 39C13.2359 39 7 35.5 3.83203 30.0031V29.9994C4.01383 27.3633 5.37738 26.2724 6.19551 25.727C7.00364 25.1889 14.564 22.2736 14.754 22.2009C14.7567 22.2 14.7577 22.1991 14.7577 22.1991C14.7577 22.1991 15.1431 23.0572 15.9685 23.9571C16.8793 24.9525 18.3247 25.9997 20.3764 25.9997C22.3217 25.9997 23.6134 25.0098 24.4206 24.0144C25.237 23.0099 25.5578 22 25.5578 22C25.5578 22 25.5706 22.0045 25.5969 22.0127L25.5988 22.0136C25.9924 22.1409 29.1721 23.1781 32.8301 24.4544C35.6208 25.4279 36.3255 27.8565 36.5 29.5Z" fill="#447158"/>
<path d="M25.2068 12.5145C25.1659 12.4342 25.1368 12.3488 25.133 12.2588C25.108 11.6757 24.9418 8.85299 24.0461 8.36441C23.0461 7.81899 16.4102 8.45531 15.8193 9.3189C15.2798 10.1075 15.2328 12.5713 14.774 12.6369C14.4558 12.6823 14.2285 10.1825 14.9558 8.81894C15.683 7.45539 18.5464 5.50098 20.0009 5.50098C21.4553 5.50098 24.1824 7.04633 24.8187 7.77355C25.4232 8.46441 25.5005 13.0914 25.2068 12.5145Z" fill="#2D2D2D"/>
</svg>
