<svg width="404" height="300" viewBox="0 0 404 300" fill="none" xmlns="http://www.w3.org/2000/svg">
<path d="M403.311 263.635H0.691406V263.836H403.311V263.635Z" fill="#E0E0E0"/>
<path d="M317.295 269.755H303.719V269.956H317.295V269.755Z" fill="#E0E0E0"/>
<path d="M361.885 269.658H326.004V269.86H361.885V269.658Z" fill="#E0E0E0"/>
<path d="M258.956 271.012H214.289V271.213H258.956V271.012Z" fill="#E0E0E0"/>
<path d="M209.653 271.012H192.969V271.213H209.653V271.012Z" fill="#E0E0E0"/>
<path d="M122.734 269.457H115.406V269.658H122.734V269.457Z" fill="#E0E0E0"/>
<path d="M139.31 269.457H127.199V269.658H139.31V269.457Z" fill="#E0E0E0"/>
<path d="M108.148 273.089H54.5508V273.29H108.148V273.089Z" fill="#E0E0E0"/>
<path d="M191.531 227.722H36.0469C34.8288 227.72 33.6614 227.234 32.8009 226.372C31.9403 225.51 31.457 224.342 31.457 223.124V4.55765C31.4676 3.3466 31.9556 2.18862 32.815 1.33526C33.6744 0.481902 34.8358 0.00207461 36.0469 0H191.531C192.75 0 193.92 0.484422 194.782 1.3467C195.644 2.20898 196.128 3.37847 196.128 4.59792V223.124C196.128 224.343 195.644 225.513 194.782 226.375C193.92 227.237 192.75 227.722 191.531 227.722ZM36.0469 0.161048C34.8822 0.163182 33.766 0.627334 32.9432 1.45163C32.1204 2.27592 31.6583 3.393 31.6583 4.55765V223.124C31.6583 224.288 32.1204 225.406 32.9432 226.23C33.766 227.054 34.8822 227.518 36.0469 227.52H191.531C192.696 227.518 193.813 227.054 194.637 226.23C195.461 225.406 195.925 224.289 195.927 223.124V4.55765C195.925 3.39226 195.461 2.2752 194.637 1.45114C193.813 0.627072 192.696 0.163177 191.531 0.161048H36.0469Z" fill="#E0E0E0"/>
<path d="M365.711 227.722H210.219C209 227.72 207.832 227.234 206.97 226.373C206.108 225.511 205.623 224.343 205.621 223.124V4.55765C205.634 3.34586 206.124 2.1879 206.984 1.33476C207.845 0.481621 209.007 0.00205198 210.219 0H365.711C366.92 0.00419086 368.08 0.484955 368.937 1.33809C369.795 2.19122 370.282 3.34799 370.293 4.55765V223.124C370.293 224.34 369.81 225.507 368.952 226.369C368.093 227.231 366.927 227.717 365.711 227.722ZM210.219 0.161048C209.054 0.163177 207.937 0.627072 207.112 1.45114C206.288 2.2752 205.825 3.39226 205.822 4.55765V223.124C205.825 224.289 206.288 225.406 207.112 226.23C207.937 227.054 209.054 227.518 210.219 227.52H365.711C366.876 227.518 367.993 227.054 368.817 226.23C369.641 225.406 370.105 224.289 370.107 223.124V4.55765C370.105 3.39226 369.641 2.2752 368.817 1.45114C367.993 0.627072 366.876 0.163177 365.711 0.161048H210.219Z" fill="#E0E0E0"/>
<path d="M256.585 165.509H218.449V263.635H256.585V165.509Z" fill="#E0E0E0"/>
<path d="M249.343 263.635H256.591V243.029H241.75L249.343 263.635Z" fill="#F0F0F0"/>
<path d="M114.062 165.509H75.9258V263.635H114.062V165.509Z" fill="#E0E0E0"/>
<path d="M256.575 165.509H107.734V250.993H256.575V165.509Z" fill="#F0F0F0"/>
<path d="M184.59 171.717V225.233H250.966V171.717H184.59Z" fill="#E0E0E0"/>
<path d="M113.359 171.725V225.241H179.735V171.725H113.359Z" fill="#E0E0E0"/>
<path d="M250.965 243.029V239.092H184.589V243.029H250.965Z" fill="#E0E0E0"/>
<path d="M179.734 243.029V239.092H113.359V243.029H179.734Z" fill="#E0E0E0"/>
<path d="M250.961 235.42V231.482H184.585V235.42H250.961Z" fill="#E0E0E0"/>
<path d="M179.727 235.428V231.49H113.351V235.428H179.727Z" fill="#E0E0E0"/>
<path d="M153.114 177.483H139.996C137.174 177.483 134.381 176.909 131.788 175.794C129.195 174.68 126.856 173.049 124.914 171.001H168.18C166.24 173.048 163.904 174.678 161.314 175.792C158.723 176.907 155.933 177.482 153.114 177.483Z" fill="#F0F0F0"/>
<path d="M225.012 177.483H211.887C209.064 177.484 206.271 176.91 203.678 175.796C201.085 174.681 198.746 173.05 196.805 171.001H240.094C238.153 173.05 235.814 174.681 233.221 175.796C230.628 176.91 227.835 177.484 225.012 177.483Z" fill="#F0F0F0"/>
<path d="M114.982 263.635H107.734V243.029H122.575L114.982 263.635Z" fill="#F0F0F0"/>
<path d="M255.764 15.291H55.7266V129.554H255.764V15.291Z" fill="#E0E0E0"/>
<path d="M266.828 11.7646H49.0032C48.7319 11.7646 48.4718 11.8724 48.28 12.0642C48.0882 12.256 47.9805 12.5161 47.9805 12.7873C47.9794 12.9223 48.0051 13.0561 48.056 13.1811C48.1069 13.3061 48.1821 13.4198 48.2772 13.5156C48.3722 13.6115 48.4853 13.6875 48.6099 13.7394C48.7345 13.7913 48.8682 13.818 49.0032 13.818H266.828C266.963 13.818 267.097 13.7913 267.222 13.7394C267.346 13.6875 267.459 13.6115 267.554 13.5156C267.65 13.4198 267.725 13.3061 267.776 13.1811C267.827 13.0561 267.852 12.9223 267.851 12.7873C267.851 12.5161 267.743 12.256 267.552 12.0642C267.36 11.8724 267.1 11.7646 266.828 11.7646Z" fill="#E0E0E0"/>
<path d="M260.146 15.291H57.7734V129.554H260.146V15.291Z" fill="#E6E6E6"/>
<path d="M255.764 129.555H55.7266V137.696H255.764V129.555Z" fill="#E0E0E0"/>
<path d="M267.447 129.555H65.0742V137.696H267.447V129.555Z" fill="#E6E6E6"/>
<path d="M254 123.419V21.4277L63.8991 21.4277V123.419L254 123.419Z" fill="#F5F5F5"/>
<path d="M157.984 123.419L193.987 21.4277H210.977L174.975 123.419H157.984Z" fill="#FAFAFA"/>
<path d="M178.633 123.419L214.635 21.4277H221.254L185.26 123.419H178.633Z" fill="#FAFAFA"/>
<path d="M254 123.419V21.4277H253.219V123.419H254Z" fill="#E0E0E0"/>
<path d="M63.9747 9.92871H53.418V108.345H63.9747V9.92871Z" fill="#EBEBEB"/>
<path d="M68.0887 9.92871H59.8672V108.345H68.0887V9.92871Z" fill="#E0E0E0"/>
<path d="M74.5293 9.92871H63.9727V108.345H74.5293V9.92871Z" fill="#EBEBEB"/>
<path d="M78.6473 9.92871H70.4258V108.345H78.6473V9.92871Z" fill="#E0E0E0"/>
<path d="M85.0879 9.92871H74.5312V108.345H85.0879V9.92871Z" fill="#EBEBEB"/>
<path d="M250.072 9.92871H243.992V108.345H250.072V9.92871Z" fill="#EBEBEB"/>
<path d="M252.458 9.92871H247.715V108.345H252.458V9.92871Z" fill="#E0E0E0"/>
<path d="M256.162 9.92871H250.082V108.345H256.162V9.92871Z" fill="#EBEBEB"/>
<path d="M258.54 9.92871H253.797V108.345H258.54V9.92871Z" fill="#E0E0E0"/>
<path d="M262.24 9.92871H256.16V108.345H262.24V9.92871Z" fill="#EBEBEB"/>
<path d="M317.578 52.6221H304.082V89.4457H317.578V52.6221Z" fill="#E6E6E6"/>
<path d="M298.949 95.5898L295.824 104.101H298.949L318.057 95.5898H298.949Z" fill="#F0F0F0"/>
<path d="M295.824 95.5898V104.101L314.941 95.5898H295.824Z" fill="#E0E0E0"/>
<path d="M331.636 95.5898L328.512 104.101H331.636L350.744 95.5898H331.636Z" fill="#F0F0F0"/>
<path d="M328.512 95.5898V104.101L347.628 95.5898H328.512Z" fill="#E0E0E0"/>
<path d="M281.803 95.9844H302.586V89.5022H281.803V95.9844Z" fill="#E0E0E0"/>
<path d="M361.888 89.502H302.582V95.9841H361.888V89.502Z" fill="#F0F0F0"/>
<path d="M340.061 89.4455H307.215L303.148 44.8271H335.994L340.061 89.4455Z" fill="#E0E0E0"/>
<path d="M341.756 89.4455H308.91L304.852 44.8271H337.697L341.756 89.4455Z" fill="#F0F0F0"/>
<path d="M313.407 84.5097L310.242 49.7637H333.208L336.372 84.5097H313.407Z" fill="#FAFAFA"/>
<path d="M127.442 151.183C127.442 151.183 113.278 126.776 132.926 107.346C132.926 107.346 138.055 110.687 137.975 115.181C137.894 119.674 132.483 120.817 133.651 124.554C134.818 128.29 139.923 131.986 136.566 135.086C133.208 138.186 137.105 140.94 136.88 144.749C136.654 148.558 127.442 151.183 127.442 151.183Z" fill="#E0E0E0"/>
<path d="M128.517 153.414C128.517 153.414 134.258 125.786 109.489 113.538C109.489 113.538 105.68 118.329 107.17 122.565C108.659 126.8 114.151 126.18 114.232 130.102C114.312 134.023 110.624 139.129 114.779 141.013C118.934 142.897 116.116 146.746 117.533 150.273C118.95 153.8 128.517 153.414 128.517 153.414Z" fill="#E0E0E0"/>
<path d="M106.824 147.294C106.824 147.294 107.291 165.508 125.345 165.508C143.398 165.508 143.865 147.294 143.865 147.294H106.824Z" fill="#F0F0F0"/>
<path d="M319.844 263.635H321.688L326.938 237.738L327.864 233.205L333.589 205.022H355.564L367.474 263.635H369.318L357.183 203.902C357.14 203.699 357.029 203.517 356.867 203.386C356.706 203.256 356.504 203.185 356.297 203.186H332.856C332.649 203.184 332.448 203.254 332.288 203.385C332.128 203.516 332.018 203.699 331.979 203.902L326.946 228.688L326.004 233.221L319.844 263.635Z" fill="#EBEBEB"/>
<path d="M284.57 263.635H286.414L298.324 204.989H320.299L326.008 233.221L326.926 237.738L332.184 263.635H334.06L327.884 233.205L326.95 228.687L321.917 203.902C321.875 203.699 321.763 203.517 321.602 203.386C321.441 203.256 321.239 203.185 321.032 203.186H297.591C297.383 203.185 297.182 203.256 297.021 203.386C296.859 203.517 296.748 203.699 296.705 203.902L284.57 263.635Z" fill="#EBEBEB"/>
<path d="M338.733 204.088H298.358C294.653 204.087 291.095 202.633 288.449 200.039C285.803 197.446 284.278 193.918 284.202 190.214L282.696 128.838C282.676 127.473 282.927 126.117 283.435 124.849C283.943 123.582 284.697 122.428 285.655 121.454C286.612 120.48 287.753 119.706 289.012 119.177C290.271 118.647 291.622 118.373 292.987 118.37H318.296C320.83 118.37 323.275 119.302 325.166 120.989C327.057 122.676 328.26 125 328.547 127.518L338.733 204.088Z" fill="#E6E6E6"/>
<path d="M316.715 196.35H356.228C357.695 196.35 359.102 196.932 360.14 197.97C361.177 199.007 361.76 200.414 361.76 201.882V202.075C361.76 202.609 361.548 203.121 361.17 203.498C360.793 203.876 360.281 204.088 359.747 204.088H316.715V196.35Z" fill="#E6E6E6"/>
<path d="M201.999 300C288.226 300 358.127 295.919 358.127 290.885C358.127 285.851 288.226 281.77 201.999 281.77C115.772 281.77 45.8711 285.851 45.8711 290.885C45.8711 295.919 115.772 300 201.999 300Z" fill="#F5F5F5"/>
<path d="M150.908 59.0081C150.911 57.5083 150.79 56.0108 150.546 54.531C149.466 47.9904 146.116 42.0396 141.084 37.7245C136.052 33.4094 129.659 31.0063 123.031 30.9375H122.789C118.342 30.9402 113.959 32.0004 110.002 34.0305C106.046 36.0606 102.629 39.0025 100.033 42.6135C99.6061 43.2013 99.2277 43.8052 98.8411 44.4092C98.8097 44.449 98.7827 44.4922 98.7606 44.538C96.1173 48.9099 94.7246 53.9234 94.7344 59.0323V59.0887C94.751 65.0264 96.649 70.8061 100.156 75.5977C103.662 80.3894 108.597 83.9464 114.252 85.7579C119.907 87.5694 125.99 87.5423 131.628 85.6804C137.267 83.8184 142.17 80.2175 145.634 75.3948C146.052 74.8069 146.439 74.2111 146.817 73.5991C146.849 73.5592 146.876 73.516 146.898 73.4702C149.538 69.1096 150.925 64.1057 150.908 59.0081ZM95.9342 58.372C96.0273 53.7744 97.3119 49.2796 99.6625 45.3271H108.448C107.105 49.5469 106.402 53.944 106.362 58.372H95.9342ZM109.68 45.3271H122.209V58.372H107.57C107.597 53.941 108.308 49.5407 109.68 45.3271ZM123.417 44.1193V32.1051C125.159 32.263 126.827 32.8829 128.248 33.9008C131.236 35.9461 133.74 39.5375 135.496 44.1193H123.417ZM135.93 45.3271C136.927 48.3436 137.575 51.464 137.863 54.6276C137.984 55.8838 138.04 57.1319 138.056 58.372H123.417V45.3271H135.93ZM120.438 32.4433C121.016 32.2791 121.61 32.1765 122.209 32.1373V44.1434H110.131C112.385 38.0719 116.041 33.6592 120.438 32.4191V32.4433ZM122.209 59.604V72.6489H109.704C108.707 69.625 108.064 66.496 107.787 63.3242C107.675 62.0681 107.61 60.8199 107.594 59.5799L122.209 59.604ZM122.209 73.8568V85.8709C120.468 85.7119 118.8 85.0921 117.378 84.0753C114.398 82.0299 111.894 78.4386 110.131 73.8568H122.209ZM125.189 85.5569C124.611 85.7219 124.017 85.8244 123.417 85.8629V73.8326H135.496C133.241 79.88 129.585 84.3007 125.189 85.5327V85.5569ZM123.417 72.6731V59.5879H138.056C138.034 64.0193 137.322 68.4202 135.947 72.6328L123.417 72.6731ZM139.264 59.5879H149.732C149.635 64.1849 148.351 68.6786 146.004 72.6328H137.179C138.521 68.413 139.224 64.0159 139.264 59.5879ZM149.732 58.3801H139.264C139.264 57.1078 139.184 55.8194 139.063 54.523C138.788 51.4019 138.17 48.3206 137.219 45.3352H145.988C147.683 48.2124 148.827 51.38 149.362 54.676C149.554 55.8995 149.667 57.134 149.7 58.372L149.732 58.3801ZM138.564 37.1781C141.196 39.0739 143.465 41.4278 145.263 44.1273H136.776C134.972 39.1429 132.259 35.1972 128.933 32.9103L128.675 32.7412C132.226 33.5364 135.579 35.043 138.531 37.1701L138.564 37.1781ZM116.927 32.7573C113.537 34.9879 110.751 39.0463 108.874 44.1273H100.419L101.007 43.2657C104.831 37.9275 110.487 34.184 116.895 32.7493L116.927 32.7573ZM95.9906 59.5879H106.418C106.418 60.8602 106.499 62.1486 106.62 63.445C106.899 66.5655 107.517 69.6464 108.464 72.6328H99.6464C97.9484 69.7572 96.804 66.589 96.2724 63.292C96.072 62.0669 95.959 60.8291 95.9342 59.5879H95.9906ZM100.452 73.8407H108.874C110.678 78.8251 113.392 82.7708 116.717 85.0576L116.983 85.2267C110.217 83.69 104.299 79.6142 100.452 73.8407ZM128.724 85.2026C132.106 82.9801 134.892 78.9137 136.776 73.8326H145.215C145.022 74.1225 144.828 74.4124 144.627 74.6942C140.8 80.0349 135.137 83.7764 128.724 85.2026Z" fill="#698B75"/>
<path opacity="0.8" d="M150.908 59.0081C150.911 57.5083 150.79 56.0108 150.546 54.531C149.466 47.9904 146.116 42.0396 141.084 37.7245C136.052 33.4094 129.659 31.0063 123.031 30.9375H122.789C118.342 30.9402 113.959 32.0004 110.002 34.0305C106.046 36.0606 102.629 39.0025 100.033 42.6135C99.6061 43.2013 99.2277 43.8052 98.8411 44.4092C98.8097 44.449 98.7827 44.4922 98.7606 44.538C96.1173 48.9099 94.7246 53.9234 94.7344 59.0323V59.0887C94.751 65.0264 96.649 70.8061 100.156 75.5977C103.662 80.3894 108.597 83.9464 114.252 85.7579C119.907 87.5694 125.99 87.5423 131.628 85.6804C137.267 83.8184 142.17 80.2175 145.634 75.3948C146.052 74.8069 146.439 74.2111 146.817 73.5991C146.849 73.5592 146.876 73.516 146.898 73.4702C149.538 69.1096 150.925 64.1057 150.908 59.0081ZM95.9342 58.372C96.0273 53.7744 97.3119 49.2796 99.6625 45.3271H108.448C107.105 49.5469 106.402 53.944 106.362 58.372H95.9342ZM109.68 45.3271H122.209V58.372H107.57C107.597 53.941 108.308 49.5407 109.68 45.3271ZM123.417 44.1193V32.1051C125.159 32.263 126.827 32.8829 128.248 33.9008C131.236 35.9461 133.74 39.5375 135.496 44.1193H123.417ZM135.93 45.3271C136.927 48.3436 137.575 51.464 137.863 54.6276C137.984 55.8838 138.04 57.1319 138.056 58.372H123.417V45.3271H135.93ZM120.438 32.4433C121.016 32.2791 121.61 32.1765 122.209 32.1373V44.1434H110.131C112.385 38.0719 116.041 33.6592 120.438 32.4191V32.4433ZM122.209 59.604V72.6489H109.704C108.707 69.625 108.064 66.496 107.787 63.3242C107.675 62.0681 107.61 60.8199 107.594 59.5799L122.209 59.604ZM122.209 73.8568V85.8709C120.468 85.7119 118.8 85.0921 117.378 84.0753C114.398 82.0299 111.894 78.4386 110.131 73.8568H122.209ZM125.189 85.5569C124.611 85.7219 124.017 85.8244 123.417 85.8629V73.8326H135.496C133.241 79.88 129.585 84.3007 125.189 85.5327V85.5569ZM123.417 72.6731V59.5879H138.056C138.034 64.0193 137.322 68.4202 135.947 72.6328L123.417 72.6731ZM139.264 59.5879H149.732C149.635 64.1849 148.351 68.6786 146.004 72.6328H137.179C138.521 68.413 139.224 64.0159 139.264 59.5879ZM149.732 58.3801H139.264C139.264 57.1078 139.184 55.8194 139.063 54.523C138.788 51.4019 138.17 48.3206 137.219 45.3352H145.988C147.683 48.2124 148.827 51.38 149.362 54.676C149.554 55.8995 149.667 57.134 149.7 58.372L149.732 58.3801ZM138.564 37.1781C141.196 39.0739 143.465 41.4278 145.263 44.1273H136.776C134.972 39.1429 132.259 35.1972 128.933 32.9103L128.675 32.7412C132.226 33.5364 135.579 35.043 138.531 37.1701L138.564 37.1781ZM116.927 32.7573C113.537 34.9879 110.751 39.0463 108.874 44.1273H100.419L101.007 43.2657C104.831 37.9275 110.487 34.184 116.895 32.7493L116.927 32.7573ZM95.9906 59.5879H106.418C106.418 60.8602 106.499 62.1486 106.62 63.445C106.899 66.5655 107.517 69.6464 108.464 72.6328H99.6464C97.9484 69.7572 96.804 66.589 96.2724 63.292C96.072 62.0669 95.959 60.8291 95.9342 59.5879H95.9906ZM100.452 73.8407H108.874C110.678 78.8251 113.392 82.7708 116.717 85.0576L116.983 85.2267C110.217 83.69 104.299 79.6142 100.452 73.8407ZM128.724 85.2026C132.106 82.9801 134.892 78.9137 136.776 73.8326H145.215C145.022 74.1225 144.828 74.4124 144.627 74.6942C140.8 80.0349 135.137 83.7764 128.724 85.2026Z" fill="#FAFAFA"/>
<path d="M334.292 72.3916H81.125V133.735H334.292V72.3916Z" fill="#698B75"/>
<path opacity="0.6" d="M334.292 72.3916H81.125V133.735H334.292V72.3916Z" fill="#FAFAFA"/>
<path d="M328.581 78.1006H75.4141V139.444H328.581V78.1006Z" fill="#698B75"/>
<path opacity="0.3" d="M328.581 78.1006H75.4141V139.444H328.581V78.1006Z" fill="black"/>
<path d="M322.874 83.8096H69.707V145.153H322.874V83.8096Z" fill="#698B75"/>
<path opacity="0.1" d="M322.874 83.8096H69.707V145.153H322.874V83.8096Z" fill="#FAFAFA"/>
<path d="M310.797 133.074V95.8877L81.7868 95.8877V133.074H310.797Z" fill="#698B75"/>
<path opacity="0.9" d="M310.797 133.074V95.8877L81.7868 95.8877V133.074H310.797Z" fill="#FAFAFA"/>
<path d="M272.273 95.8883V133.074H273.618V95.8883H272.273Z" fill="#698B75"/>
<path opacity="0.6" d="M272.273 95.8883V133.074H273.618V95.8883H272.273Z" fill="#FAFAFA"/>
<path d="M87.4961 101.018V127.945H88.8408V101.018H87.4961Z" fill="#698B75"/>
<path opacity="0.6" d="M87.4961 101.018V127.945H88.8408V101.018H87.4961Z" fill="#FAFAFA"/>
<path d="M290.925 119.175C289.947 119.175 288.986 118.934 288.124 118.473C287.262 118.012 286.528 117.346 285.985 116.533C285.442 115.721 285.109 114.787 285.013 113.814C284.917 112.842 285.063 111.861 285.437 110.958C285.811 110.056 286.402 109.259 287.157 108.639C287.912 108.019 288.809 107.595 289.767 107.404C290.725 107.214 291.716 107.262 292.651 107.546C293.586 107.829 294.437 108.339 295.128 109.029C295.959 109.86 296.526 110.92 296.755 112.073C296.985 113.226 296.867 114.421 296.417 115.507C295.967 116.593 295.205 117.522 294.227 118.175C293.25 118.828 292.1 119.176 290.925 119.175ZM290.925 108.909C289.922 108.909 288.951 109.257 288.176 109.893C287.401 110.529 286.871 111.415 286.676 112.398C286.481 113.381 286.633 114.402 287.107 115.286C287.58 116.17 288.345 116.862 289.272 117.245C290.198 117.627 291.229 117.677 292.188 117.385C293.147 117.093 293.975 116.477 294.531 115.643C295.087 114.809 295.336 113.808 295.237 112.81C295.137 111.813 294.694 110.881 293.984 110.173C293.587 109.763 293.111 109.436 292.586 109.212C292.061 108.988 291.496 108.871 290.925 108.868V108.909Z" fill="#698B75"/>
<path d="M298.631 121.704C298.524 121.704 298.419 121.682 298.321 121.641C298.222 121.599 298.133 121.539 298.059 121.463L293.992 117.396C293.908 117.324 293.84 117.235 293.791 117.135C293.743 117.036 293.716 116.927 293.712 116.816C293.707 116.705 293.726 116.594 293.766 116.491C293.807 116.388 293.868 116.294 293.947 116.215C294.025 116.137 294.119 116.075 294.222 116.035C294.326 115.994 294.436 115.976 294.547 115.98C294.658 115.984 294.767 116.012 294.867 116.06C294.967 116.108 295.056 116.177 295.128 116.261L299.194 120.327C299.344 120.478 299.428 120.682 299.428 120.895C299.428 121.108 299.344 121.312 299.194 121.463C299.046 121.615 298.843 121.701 298.631 121.704Z" fill="#698B75"/>
<g opacity="0.6">
<path d="M290.925 119.175C289.947 119.175 288.986 118.934 288.124 118.473C287.262 118.012 286.528 117.346 285.985 116.533C285.442 115.721 285.109 114.787 285.013 113.814C284.917 112.842 285.063 111.861 285.437 110.958C285.811 110.056 286.402 109.259 287.157 108.639C287.912 108.019 288.809 107.595 289.767 107.404C290.725 107.214 291.716 107.262 292.651 107.546C293.586 107.829 294.437 108.339 295.128 109.029C295.959 109.86 296.526 110.92 296.755 112.073C296.985 113.226 296.867 114.421 296.417 115.507C295.967 116.593 295.205 117.522 294.227 118.175C293.25 118.828 292.1 119.176 290.925 119.175ZM290.925 108.909C289.922 108.909 288.951 109.257 288.176 109.893C287.401 110.529 286.871 111.415 286.676 112.398C286.481 113.381 286.633 114.402 287.107 115.286C287.58 116.17 288.345 116.862 289.272 117.245C290.198 117.627 291.229 117.677 292.188 117.385C293.147 117.093 293.975 116.477 294.531 115.643C295.087 114.809 295.336 113.808 295.237 112.81C295.137 111.813 294.694 110.881 293.984 110.173C293.587 109.763 293.111 109.436 292.586 109.212C292.061 108.988 291.496 108.871 290.925 108.868V108.909Z" fill="#FAFAFA"/>
<path d="M298.627 121.704C298.52 121.704 298.415 121.682 298.317 121.641C298.218 121.599 298.13 121.539 298.055 121.463L293.988 117.396C293.904 117.324 293.836 117.235 293.787 117.135C293.739 117.036 293.712 116.927 293.708 116.816C293.703 116.705 293.722 116.594 293.763 116.491C293.803 116.388 293.864 116.294 293.943 116.215C294.021 116.137 294.115 116.075 294.219 116.035C294.322 115.994 294.432 115.976 294.543 115.98C294.654 115.984 294.763 116.012 294.863 116.06C294.963 116.108 295.052 116.177 295.124 116.261L299.19 120.327C299.34 120.478 299.424 120.682 299.424 120.895C299.424 121.108 299.34 121.312 299.19 121.463C299.042 121.615 298.839 121.701 298.627 121.704Z" fill="#FAFAFA"/>
</g>
<path d="M236.297 35.3105H210.98V35.9386H236.297V35.3105Z" fill="#698B75"/>
<path d="M236.297 37.9756H210.98V38.6037H236.297V37.9756Z" fill="#698B75"/>
<path d="M236.297 40.6484H210.98V41.2765H236.297V40.6484Z" fill="#698B75"/>
<path d="M236.297 43.3145H210.98V43.9425H236.297V43.3145Z" fill="#698B75"/>
<path d="M236.297 45.9795H210.98V46.6076H236.297V45.9795Z" fill="#698B75"/>
<path d="M227.488 48.6533H210.98V49.2814H227.488V48.6533Z" fill="#698B75"/>
<g opacity="0.5">
<path d="M236.297 35.3105H210.98V35.9386H236.297V35.3105Z" fill="#FAFAFA"/>
<path d="M236.297 37.9756H210.98V38.6037H236.297V37.9756Z" fill="#FAFAFA"/>
<path d="M236.297 40.6494H210.98V41.2775H236.297V40.6494Z" fill="#FAFAFA"/>
<path d="M236.297 43.3145H210.98V43.9425H236.297V43.3145Z" fill="#FAFAFA"/>
<path d="M236.297 45.9795H210.98V46.6076H236.297V45.9795Z" fill="#FAFAFA"/>
<path d="M227.488 48.6533H210.98V49.2814H227.488V48.6533Z" fill="#FAFAFA"/>
</g>
<path d="M83.913 150.451H56.9375V150.854H83.913V150.451Z" fill="#698B75"/>
<path d="M83.913 152.158H56.9375V152.561H83.913V152.158Z" fill="#698B75"/>
<path d="M83.913 153.865H56.9375V154.268H83.913V153.865Z" fill="#698B75"/>
<path d="M83.913 155.572H56.9375V155.975H83.913V155.572Z" fill="#698B75"/>
<path d="M83.913 157.279H56.9375V157.682H83.913V157.279Z" fill="#698B75"/>
<path d="M73.8958 158.995H56.9375V159.398H73.8958V158.995Z" fill="#698B75"/>
<g opacity="0.4">
<path d="M83.913 150.451H56.9375V150.854H83.913V150.451Z" fill="#FAFAFA"/>
<path d="M83.913 152.158H56.9375V152.561H83.913V152.158Z" fill="#FAFAFA"/>
<path d="M83.913 153.866H56.9375V154.269H83.913V153.866Z" fill="#FAFAFA"/>
<path d="M83.913 155.573H56.9375V155.976H83.913V155.573Z" fill="#FAFAFA"/>
<path d="M83.913 157.28H56.9375V157.683H83.913V157.28Z" fill="#FAFAFA"/>
<path d="M73.8958 158.995H56.9375V159.398H73.8958V158.995Z" fill="#FAFAFA"/>
</g>
<path d="M172.566 39.2637C171.216 39.2637 169.922 39.7998 168.967 40.7542C168.013 41.7086 167.477 43.0031 167.477 44.3528V61.142C167.477 62.4917 168.013 63.7862 168.967 64.7406C169.922 65.695 171.216 66.2311 172.566 66.2311C173.915 66.2311 175.21 65.695 176.164 64.7406C177.119 63.7862 177.655 62.4917 177.655 61.142V44.3528C177.655 43.0031 177.119 41.7086 176.164 40.7542C175.21 39.7998 173.915 39.2637 172.566 39.2637Z" fill="#698B75"/>
<path opacity="0.2" d="M172.566 39.2637C171.216 39.2637 169.922 39.7998 168.967 40.7542C168.013 41.7086 167.477 43.0031 167.477 44.3528V61.142C167.477 62.4917 168.013 63.7862 168.967 64.7406C169.922 65.695 171.216 66.2311 172.566 66.2311C173.915 66.2311 175.21 65.695 176.164 64.7406C177.119 63.7862 177.655 62.4917 177.655 61.142V44.3528C177.655 43.0031 177.119 41.7086 176.164 40.7542C175.21 39.7998 173.915 39.2637 172.566 39.2637Z" fill="#FAFAFA"/>
<path d="M185.323 29.2549C183.977 29.2613 182.689 29.8003 181.74 30.754C180.791 31.7077 180.258 32.9985 180.258 34.3441V61.1424C180.258 62.4921 180.794 63.7866 181.748 64.741C182.703 65.6954 183.997 66.2315 185.347 66.2315C186.697 66.2315 187.991 65.6954 188.945 64.741C189.9 63.7866 190.436 62.4921 190.436 61.1424V34.3441C190.436 33.6737 190.304 33.01 190.046 32.3909C189.789 31.7719 189.412 31.2098 188.937 30.7369C188.462 30.2641 187.898 29.8897 187.278 29.6354C186.657 29.381 185.993 29.2518 185.323 29.2549Z" fill="#698B75"/>
<path opacity="0.3" d="M185.323 29.2549C183.977 29.2613 182.689 29.8003 181.74 30.754C180.791 31.7077 180.258 32.9985 180.258 34.3441V61.1424C180.258 62.4921 180.794 63.7866 181.748 64.741C182.703 65.6954 183.997 66.2315 185.347 66.2315C186.697 66.2315 187.991 65.6954 188.945 64.741C189.9 63.7866 190.436 62.4921 190.436 61.1424V34.3441C190.436 33.6737 190.304 33.01 190.046 32.3909C189.789 31.7719 189.412 31.2098 188.937 30.7369C188.462 30.2641 187.898 29.8897 187.278 29.6354C186.657 29.381 185.993 29.2518 185.323 29.2549Z" fill="black"/>
<path d="M198.073 49.2725C196.724 49.2725 195.429 49.8086 194.475 50.763C193.521 51.7174 192.984 53.0119 192.984 54.3616V61.1417C192.984 62.4914 193.521 63.7858 194.475 64.7402C195.429 65.6946 196.724 66.2308 198.073 66.2308C198.742 66.2319 199.405 66.101 200.023 65.8457C200.642 65.5905 201.204 65.2158 201.677 64.7431C202.151 64.2704 202.526 63.709 202.782 63.0911C203.039 62.4731 203.171 61.8107 203.171 61.1417V54.3616C203.171 53.6926 203.039 53.0302 202.782 52.4122C202.526 51.7942 202.151 51.2329 201.677 50.7602C201.204 50.2875 200.642 49.9128 200.023 49.6575C199.405 49.4023 198.742 49.2714 198.073 49.2725Z" fill="#698B75"/>
<path opacity="0.6" d="M198.073 49.2725C196.724 49.2725 195.429 49.8086 194.475 50.763C193.521 51.7174 192.984 53.0119 192.984 54.3616V61.1417C192.984 62.4914 193.521 63.7858 194.475 64.7402C195.429 65.6946 196.724 66.2308 198.073 66.2308C198.742 66.2319 199.405 66.101 200.023 65.8457C200.642 65.5905 201.204 65.2158 201.677 64.7431C202.151 64.2704 202.526 63.709 202.782 63.0911C203.039 62.4731 203.171 61.8107 203.171 61.1417V54.3616C203.171 53.6926 203.039 53.0302 202.782 52.4122C202.526 51.7942 202.151 51.2329 201.677 50.7602C201.204 50.2875 200.642 49.9128 200.023 49.6575C199.405 49.4023 198.742 49.2714 198.073 49.2725Z" fill="#FAFAFA"/>
<path d="M305.562 164.374H326.136L291.012 127.945L305.562 164.374Z" fill="#698B75"/>
<g opacity="0.1">
<path d="M305.562 164.374H326.136L291.012 127.945L305.562 164.374Z" fill="black"/>
</g>
<g style="mix-blend-mode:multiply">
<path d="M285.785 145.145L291.011 127.945L293.974 145.145H285.785Z" fill="#698B75"/>
</g>
<path d="M291.012 127.945V178.917L294.651 175.285L305.562 164.374L291.012 127.945Z" fill="#698B75"/>
<path opacity="0.3" d="M291.012 127.945V178.917L294.651 175.285L305.562 164.374L291.012 127.945Z" fill="#FAFAFA"/>
<path d="M327.39 18.6094H282.296C280.011 18.6178 277.821 19.5289 276.205 21.1442C274.588 22.7595 273.675 24.9481 273.664 27.2335V50.521C273.675 52.805 274.587 54.9924 276.202 56.6075C277.817 58.2225 280.004 59.1345 282.288 59.1451H315.375L315.134 67.2861L323.484 59.1451H327.374C329.659 59.1367 331.848 58.2256 333.465 56.6103C335.082 54.995 335.995 52.8064 336.006 50.521V27.2335C335.995 24.9509 335.084 22.7647 333.471 21.1498C331.858 19.535 329.672 18.6221 327.39 18.6094ZM281.282 28.5299C281.282 27.8892 281.536 27.2748 281.989 26.8218C282.442 26.3687 283.057 26.1142 283.697 26.1142H294.077C294.718 26.1142 295.332 26.3687 295.785 26.8218C296.238 27.2748 296.493 27.8892 296.493 28.5299C296.493 29.1706 296.238 29.7851 295.785 30.2381C295.332 30.6911 294.718 30.9456 294.077 30.9456H283.689C283.05 30.9435 282.438 30.6881 281.986 30.2353C281.535 29.7824 281.282 29.1692 281.282 28.5299ZM324.829 51.0766H306.888C306.541 51.1375 306.185 51.1216 305.844 51.03C305.504 50.9385 305.187 50.7736 304.918 50.5468C304.648 50.3201 304.431 50.037 304.282 49.7175C304.133 49.3979 304.056 49.0497 304.056 48.6971C304.056 48.3446 304.133 47.9964 304.282 47.6768C304.431 47.3573 304.648 47.0742 304.918 46.8475C305.187 46.6207 305.504 46.4558 305.844 46.3643C306.185 46.2727 306.541 46.2568 306.888 46.3177H324.829C325.176 46.2568 325.533 46.2727 325.873 46.3643C326.213 46.4558 326.53 46.6207 326.8 46.8475C327.07 47.0742 327.287 47.3573 327.435 47.6768C327.584 47.9964 327.662 48.3446 327.662 48.6971C327.662 49.0497 327.584 49.3979 327.435 49.7175C327.287 50.037 327.07 50.3201 326.8 50.5468C326.53 50.7736 326.213 50.9385 325.873 51.03C325.533 51.1216 325.176 51.1375 324.829 51.0766ZM324.829 41.0031H286.105C285.758 41.0639 285.401 41.048 285.061 40.9565C284.721 40.865 284.404 40.7 284.134 40.4733C283.864 40.2465 283.647 39.9635 283.499 39.6439C283.35 39.3244 283.272 38.9761 283.272 38.6236C283.272 38.2711 283.35 37.9228 283.499 37.6033C283.647 37.2837 283.864 37.0007 284.134 36.7739C284.404 36.5472 284.721 36.3822 285.061 36.2907C285.401 36.1992 285.758 36.1833 286.105 36.2441H324.829C325.176 36.1833 325.533 36.1992 325.873 36.2907C326.213 36.3822 326.53 36.5472 326.8 36.7739C327.07 37.0007 327.287 37.2837 327.435 37.6033C327.584 37.9228 327.662 38.2711 327.662 38.6236C327.662 38.9761 327.584 39.3244 327.435 39.6439C327.287 39.9635 327.07 40.2465 326.8 40.4733C326.53 40.7 326.213 40.865 325.873 40.9565C325.533 41.048 325.176 41.0639 324.829 41.0031ZM324.829 30.9295H301.904C301.263 30.9295 300.649 30.675 300.196 30.222C299.743 29.769 299.488 29.1545 299.488 28.5138C299.488 27.8731 299.743 27.2587 300.196 26.8056C300.649 26.3526 301.263 26.0981 301.904 26.0981H324.829C325.47 26.0981 326.084 26.3526 326.537 26.8056C326.99 27.2587 327.245 27.8731 327.245 28.5138C327.245 29.1545 326.99 29.769 326.537 30.222C326.084 30.675 325.47 30.9295 324.829 30.9295Z" fill="#698B75"/>
<path d="M256.868 92.4256C254.943 87.1351 252.002 82.2717 248.212 78.1084H184.188C180.398 82.2717 177.457 87.1351 175.531 92.4256L184.389 136.52C191.165 143.866 200.275 148.64 210.172 150.03C220.069 151.42 230.141 149.341 238.679 144.146C247.217 138.952 253.693 130.961 257.007 121.533C260.321 112.105 260.27 101.82 256.86 92.4256H256.868Z" fill="#698B75"/>
<path opacity="0.1" d="M256.868 92.4256C254.943 87.1351 252.002 82.2717 248.212 78.1084H184.188C180.398 82.2717 177.457 87.1351 175.531 92.4256L184.389 136.52C191.165 143.866 200.275 148.64 210.172 150.03C220.069 151.42 230.141 149.341 238.679 144.146C247.217 138.952 253.693 130.961 257.007 121.533C260.321 112.105 260.27 101.82 256.86 92.4256H256.868Z" fill="#FAFAFA"/>
<path d="M259.42 109.199C258.963 119.366 254.924 129.044 248.018 136.521H184.404C179.033 130.685 175.368 123.488 173.806 115.712C172.244 107.937 172.846 99.8825 175.546 92.4258H256.875C258.828 97.7925 259.693 103.494 259.42 109.199Z" fill="#698B75"/>
<path opacity="0.9" d="M259.42 109.199C258.963 119.366 254.924 129.044 248.018 136.521H184.404C179.033 130.685 175.368 123.488 173.806 115.712C172.244 107.937 172.846 99.8825 175.546 92.4258H256.875C258.828 97.7925 259.693 103.494 259.42 109.199Z" fill="#FAFAFA"/>
<path opacity="0.3" d="M259.427 109.199C258.927 119.898 254.466 130.03 246.912 137.624C239.359 145.218 229.252 149.733 218.555 150.291C207.858 150.849 197.336 147.411 189.033 140.644C180.73 133.877 175.24 124.265 173.628 113.676C172.017 103.086 174.399 92.2761 180.313 83.3456C186.227 74.4151 195.25 68.0022 205.629 65.353C216.007 62.7038 227 64.0075 236.471 69.0109C245.941 74.0142 253.214 82.3598 256.875 92.4259C258.828 97.7927 259.696 103.494 259.427 109.199Z" fill="white"/>
<path opacity="0.4" d="M240.587 71.4734L178.375 128.211C178.063 127.636 177.757 127.056 177.457 126.471C175.554 122.663 174.233 118.592 173.535 114.393L227.269 65.3857C232.024 66.6388 236.528 68.6978 240.587 71.4734Z" fill="white"/>
<path opacity="0.4" d="M257.236 93.4643L198.784 146.803C192.72 144.128 187.354 140.095 183.098 135.015L246.969 76.7637C251.624 81.472 255.136 87.1855 257.236 93.4643Z" fill="white"/>
<path d="M259.407 82.2555C254.473 73.6993 247.111 66.7991 238.254 62.4278C229.397 58.0566 219.442 56.4108 209.649 57.6987C199.856 58.9867 190.666 63.1504 183.24 69.6632C175.814 76.1759 170.487 84.7449 167.933 94.2861C165.378 103.827 165.712 113.912 168.89 123.263C172.069 132.615 177.95 140.814 185.789 146.822C193.628 152.831 203.074 156.379 212.93 157.018C222.787 157.656 232.611 155.357 241.161 150.411C252.611 143.786 260.964 132.888 264.386 120.109C267.807 107.33 266.016 93.7153 259.407 82.2555ZM182.104 126.898C178.211 120.155 176.405 112.409 176.913 104.64C177.422 96.8704 180.224 89.4263 184.963 83.2488C189.703 77.0714 196.167 72.4381 203.54 69.9348C210.913 67.4314 218.862 67.1705 226.383 69.1851C233.904 71.1996 240.659 75.3991 245.793 81.2525C250.928 87.1059 254.211 94.3503 255.228 102.07C256.245 109.789 254.951 117.637 251.508 124.62C248.065 131.604 242.629 137.41 235.886 141.304C231.41 143.889 226.468 145.568 221.342 146.243C216.217 146.918 211.009 146.577 206.015 145.24C201.022 143.902 196.341 141.594 192.239 138.447C188.138 135.299 184.697 131.375 182.112 126.898H182.104Z" fill="#698B75"/>
<path opacity="0.1" d="M259.407 82.2555C254.473 73.6993 247.111 66.7991 238.254 62.4278C229.397 58.0566 219.442 56.4108 209.649 57.6987C199.856 58.9867 190.666 63.1504 183.24 69.6632C175.814 76.1759 170.487 84.7449 167.933 94.2861C165.378 103.827 165.712 113.912 168.89 123.263C172.069 132.615 177.95 140.814 185.789 146.822C193.628 152.831 203.074 156.379 212.93 157.018C222.787 157.656 232.611 155.357 241.161 150.411C252.611 143.786 260.964 132.888 264.386 120.109C267.807 107.33 266.016 93.7153 259.407 82.2555ZM182.104 126.898C178.211 120.155 176.405 112.409 176.913 104.64C177.422 96.8704 180.224 89.4263 184.963 83.2488C189.703 77.0714 196.167 72.4381 203.54 69.9348C210.913 67.4314 218.862 67.1705 226.383 69.1851C233.904 71.1996 240.659 75.3991 245.793 81.2525C250.928 87.1059 254.211 94.3503 255.228 102.07C256.245 109.789 254.951 117.637 251.508 124.62C248.065 131.604 242.629 137.41 235.886 141.304C231.41 143.889 226.468 145.568 221.342 146.243C216.217 146.918 211.009 146.577 206.015 145.24C201.022 143.902 196.341 141.594 192.239 138.447C188.138 135.299 184.697 131.375 182.112 126.898H182.104Z" fill="black"/>
<path d="M101.395 158.544L107.563 159.977L102.45 163.794C102.45 163.794 98.7863 162.135 98.6172 159.534L101.395 158.544Z" fill="#E4897B"/>
<path d="M110.868 164.084L106.423 167.047L102.453 163.794L107.566 159.985L110.868 164.084Z" fill="#E4897B"/>
<path d="M180.638 133.493C174.084 138.324 167.36 142.914 160.604 147.399C153.848 151.884 147.003 156.257 140.127 160.549C133.25 164.841 126.309 169.044 119.344 173.127C115.865 175.204 112.354 177.217 108.875 179.262C107.147 180.363 105.263 181.196 103.287 181.735C102.233 182.014 101.154 182.195 100.066 182.274C98.858 182.373 97.6422 182.31 96.4506 182.089C95.5989 181.92 94.7889 181.586 94.0668 181.104C93.3447 180.622 92.7247 180.002 92.2423 179.281C91.7598 178.559 91.4245 177.749 91.2554 176.898C91.0863 176.046 91.0868 175.17 91.2568 174.318C91.3119 174.045 91.3872 173.775 91.4822 173.513C91.8709 172.372 92.4127 171.288 93.0927 170.292C93.6993 169.397 94.3895 168.561 95.1541 167.796C96.6104 166.354 98.2742 165.138 100.09 164.188C103.609 162.183 107.104 160.162 110.647 158.173C117.701 154.187 124.819 150.306 131.954 146.473C139.088 142.64 146.311 138.928 153.574 135.304C160.838 131.681 168.157 128.154 175.63 124.901C176.757 124.402 178.03 124.338 179.202 124.72C180.374 125.102 181.364 125.904 181.981 126.971C182.598 128.039 182.799 129.297 182.545 130.503C182.292 131.71 181.601 132.78 180.606 133.509L180.638 133.493Z" fill="#698B75"/>
<path opacity="0.1" d="M180.638 133.493C174.084 138.324 167.36 142.914 160.604 147.399C153.848 151.884 147.003 156.257 140.127 160.549C133.25 164.841 126.309 169.044 119.344 173.127C115.865 175.204 112.354 177.217 108.875 179.262C107.147 180.363 105.263 181.196 103.287 181.735C102.233 182.014 101.154 182.195 100.066 182.274C98.858 182.373 97.6422 182.31 96.4506 182.089C95.5989 181.92 94.7889 181.586 94.0668 181.104C93.3447 180.622 92.7247 180.002 92.2423 179.281C91.7598 178.559 91.4245 177.749 91.2554 176.898C91.0863 176.046 91.0868 175.17 91.2568 174.318C91.3119 174.045 91.3872 173.775 91.4822 173.513C91.8709 172.372 92.4127 171.288 93.0927 170.292C93.6993 169.397 94.3895 168.561 95.1541 167.796C96.6104 166.354 98.2742 165.138 100.09 164.188C103.609 162.183 107.104 160.162 110.647 158.173C117.701 154.187 124.819 150.306 131.954 146.473C139.088 142.64 146.311 138.928 153.574 135.304C160.838 131.681 168.157 128.154 175.63 124.901C176.757 124.402 178.03 124.338 179.202 124.72C180.374 125.102 181.364 125.904 181.981 126.971C182.598 128.039 182.799 129.297 182.545 130.503C182.292 131.71 181.601 132.78 180.606 133.509L180.638 133.493Z" fill="black"/>
<path d="M110.335 120.399C109.932 121.052 109.473 121.841 109.038 122.581C108.603 123.322 108.177 124.095 107.774 124.876C106.969 126.414 106.163 127.977 105.358 129.563C104.553 131.149 103.901 132.784 103.24 134.394C102.918 135.2 102.58 136.005 102.282 136.81L101.831 138.042C101.743 138.276 101.727 138.372 101.67 138.541C101.614 138.71 101.59 138.871 101.541 139.032C101.227 140.624 101.068 142.242 101.066 143.864C101.026 145.595 101.066 147.359 101.163 149.138C101.26 150.918 101.356 152.705 101.517 154.493C101.678 156.281 101.839 158.101 102.008 159.872L98.9002 160.508C98.3527 158.713 97.9259 156.925 97.4991 155.113C97.0723 153.301 96.7502 151.482 96.4362 149.629C96.1222 147.777 95.9128 145.917 95.7759 143.993C95.6084 141.977 95.6597 139.95 95.9289 137.945C95.9772 137.664 96.0175 137.398 96.0899 137.14C96.1624 136.883 96.2349 136.52 96.2993 136.335L96.6939 134.966C96.9516 134.056 97.2495 133.154 97.5555 132.26C98.1755 130.465 98.8519 128.701 99.6088 126.962C100.366 125.223 101.171 123.524 102.025 121.849C102.467 121.043 102.934 120.182 103.41 119.352C103.885 118.523 104.36 117.742 104.956 116.864L110.335 120.399Z" fill="#E4897B"/>
<path d="M106.894 286.666C106.35 286.649 105.81 286.574 105.283 286.441C105.255 286.436 105.229 286.423 105.209 286.403C105.188 286.382 105.175 286.356 105.17 286.328C105.165 286.299 105.169 286.269 105.18 286.242C105.191 286.215 105.21 286.192 105.235 286.175C105.452 286.03 107.352 284.806 108.085 285.136C108.167 285.174 108.237 285.232 108.288 285.306C108.339 285.38 108.369 285.466 108.375 285.555C108.413 285.699 108.41 285.85 108.368 285.992C108.325 286.134 108.244 286.261 108.134 286.36C107.771 286.609 107.33 286.717 106.894 286.666ZM105.661 286.231C106.757 286.449 107.578 286.409 107.892 286.119C107.961 286.052 108.011 285.969 108.038 285.877C108.065 285.786 108.067 285.688 108.045 285.595C108.044 285.554 108.031 285.514 108.009 285.48C107.986 285.446 107.954 285.419 107.916 285.402C107.538 285.233 106.435 285.764 105.661 286.231Z" fill="#698B75"/>
<path d="M105.274 286.448C105.25 286.455 105.225 286.455 105.202 286.448C105.178 286.436 105.159 286.417 105.146 286.394C105.134 286.371 105.128 286.345 105.129 286.319C105.129 286.247 105.129 284.443 105.814 283.839C105.898 283.763 105.998 283.706 106.106 283.671C106.214 283.637 106.329 283.625 106.442 283.638C106.56 283.639 106.675 283.682 106.766 283.758C106.857 283.835 106.919 283.94 106.941 284.057C107.086 284.757 105.942 286.11 105.33 286.472C105.31 286.469 105.291 286.461 105.274 286.448ZM106.345 283.904C106.223 283.905 106.105 283.951 106.015 284.032C105.619 284.616 105.416 285.309 105.435 286.013C106.031 285.53 106.74 284.516 106.651 284.089C106.651 284.016 106.595 283.936 106.409 283.912L106.345 283.904Z" fill="#698B75"/>
<path d="M135.415 286.666C134.752 286.656 134.091 286.58 133.442 286.44C133.411 286.437 133.383 286.423 133.361 286.401C133.339 286.379 133.325 286.35 133.321 286.32C133.318 286.289 133.324 286.258 133.338 286.231C133.352 286.203 133.375 286.181 133.402 286.167C133.684 286.022 136.18 284.749 136.945 285.168C137.018 285.206 137.081 285.262 137.126 285.331C137.171 285.4 137.198 285.48 137.203 285.563C137.22 285.696 137.204 285.831 137.157 285.956C137.109 286.081 137.03 286.192 136.929 286.279C136.484 286.578 135.949 286.715 135.415 286.666ZM133.933 286.231C135.326 286.465 136.349 286.4 136.736 286.062C136.8 286.002 136.849 285.928 136.878 285.845C136.907 285.762 136.917 285.674 136.905 285.587C136.904 285.554 136.895 285.522 136.878 285.493C136.861 285.465 136.837 285.442 136.808 285.426C136.389 285.2 134.956 285.74 133.933 286.231Z" fill="#698B75"/>
<path d="M133.467 286.448C133.454 286.454 133.441 286.456 133.427 286.456C133.413 286.456 133.399 286.454 133.387 286.448C133.363 286.436 133.345 286.418 133.333 286.394C133.321 286.371 133.318 286.345 133.322 286.319C133.322 286.247 133.475 284.556 134.256 283.904C134.481 283.716 134.77 283.623 135.061 283.646C135.472 283.686 135.585 283.896 135.617 284.065C135.73 284.773 134.256 286.126 133.507 286.48L133.467 286.448ZM134.965 283.904C134.776 283.906 134.593 283.974 134.449 284.097C133.988 284.642 133.706 285.317 133.644 286.029C134.401 285.57 135.408 284.508 135.335 284.081C135.335 284.081 135.335 283.936 135.045 283.912L134.965 283.904Z" fill="#698B75"/>
<path d="M119.865 96.2188C120.356 99.9792 121.476 107.605 118.754 109.908C118.754 109.908 119.559 113.741 126.42 114.184C134.005 114.675 130.285 110.657 130.285 110.657C126.21 109.401 126.516 106.333 127.426 103.498L119.865 96.2188Z" fill="#E4897B"/>
<path d="M133.933 88.5768C133.884 88.5757 133.837 88.5618 133.796 88.5365C133.761 88.5188 133.73 88.4941 133.704 88.4639C133.679 88.4338 133.66 88.3988 133.649 88.3612C133.638 88.3235 133.634 88.2839 133.639 88.2449C133.643 88.2058 133.655 88.168 133.675 88.1339C133.884 87.7079 134.193 87.339 134.576 87.0585C134.959 86.7781 135.404 86.5945 135.873 86.5234C135.945 86.5262 136.014 86.5551 136.066 86.6046C136.119 86.6541 136.151 86.7209 136.158 86.7927C136.165 86.8645 136.146 86.9363 136.104 86.9949C136.062 87.0535 136 87.0948 135.93 87.1113C135.562 87.1754 135.215 87.3236 134.915 87.5444C134.614 87.7651 134.369 88.0523 134.198 88.3835C134.176 88.4366 134.139 88.4826 134.092 88.5166C134.045 88.5506 133.99 88.5714 133.933 88.5768Z" fill="#263238"/>
<path d="M136.102 91.8779C136.656 92.9839 137.361 94.0081 138.195 94.9217C137.956 95.1297 137.674 95.2829 137.37 95.3705C137.065 95.4582 136.745 95.4781 136.432 95.429L136.102 91.8779Z" fill="#DE5753"/>
<path d="M135.569 91.0571C135.617 91.5644 135.923 91.9428 136.245 91.9106C136.568 91.8784 136.809 91.4516 136.761 90.9443C136.712 90.437 136.406 90.0586 136.076 90.0908C135.746 90.123 135.521 90.5578 135.569 91.0571Z" fill="#263238"/>
<path d="M135.973 90.1309L137.148 89.6719C137.148 89.6719 136.585 90.6704 135.973 90.1309Z" fill="#263238"/>
<path d="M126.57 286.296H132.843L133.262 271.785H126.989L126.57 286.296Z" fill="#E4897B"/>
<path d="M98.0938 286.296H104.367L106.38 271.785H100.115L98.0938 286.296Z" fill="#E4897B"/>
<path d="M104.751 285.57H97.7054C97.5846 285.569 97.4675 285.612 97.3757 285.69C97.2839 285.769 97.2236 285.878 97.2061 285.997L96.4009 291.569C96.385 291.71 96.399 291.852 96.4419 291.987C96.4849 292.122 96.5557 292.247 96.65 292.352C96.7442 292.458 96.8596 292.542 96.9888 292.6C97.1179 292.658 97.2578 292.688 97.3994 292.689C99.8151 292.648 101.039 292.503 104.139 292.503C106.04 292.503 108.826 292.697 111.459 292.697C114.092 292.697 114.229 290.096 113.134 289.862C108.222 288.807 107.449 287.35 105.79 285.957C105.5 285.709 105.132 285.572 104.751 285.57Z" fill="#263238"/>
<path d="M133.055 285.57H126.017C125.896 285.567 125.778 285.609 125.685 285.688C125.593 285.767 125.534 285.877 125.518 285.997L124.712 291.569C124.698 291.711 124.713 291.853 124.757 291.988C124.801 292.123 124.872 292.247 124.967 292.353C125.062 292.458 125.178 292.542 125.307 292.6C125.437 292.658 125.577 292.688 125.719 292.689C128.135 292.649 129.359 292.504 132.451 292.504C134.359 292.504 138.297 292.697 140.93 292.697C143.563 292.697 143.7 290.096 142.605 289.862C137.693 288.808 135.76 287.35 134.102 285.957C133.81 285.707 133.439 285.57 133.055 285.57Z" fill="#263238"/>
<path d="M133.26 271.785L133.05 279.266H126.777L126.995 271.785H133.26Z" fill="#CE6F64"/>
<path d="M100.105 271.785H106.378L105.339 279.266H99.0664L100.105 271.785Z" fill="#CE6F64"/>
<path d="M113.009 121.366C111.819 123.226 110.44 124.959 108.895 126.536L108.178 126.061L100.238 120.786C100.238 120.786 104.57 111.124 107.832 110.632C110.948 110.133 113.219 113.354 114.274 116.801C114.676 118.049 114.008 119.74 113.009 121.366Z" fill="#698B75"/>
<path opacity="0.6" d="M113.009 121.366C111.819 123.226 110.44 124.959 108.895 126.536L108.178 126.061L100.238 120.786C100.238 120.786 104.57 111.124 107.832 110.632C110.948 110.133 113.219 113.354 114.274 116.801C114.676 118.049 114.008 119.74 113.009 121.366Z" fill="#FAFAFA"/>
<path d="M113.007 121.366C111.817 123.226 110.438 124.958 108.892 126.536L108.176 126.06C108.53 123.162 109.657 120.287 110.946 119.377C111.735 119.457 112.435 120.295 113.007 121.366Z" fill="#698B75"/>
<path opacity="0.4" d="M113.007 121.366C111.817 123.226 110.438 124.958 108.892 126.536L108.176 126.06C108.53 123.162 109.657 120.287 110.946 119.377C111.735 119.457 112.435 120.295 113.007 121.366Z" fill="#FAFAFA"/>
<path d="M140.167 126.19C139.788 128.606 139.297 131.448 138.637 134.822C137.831 139.138 136.704 144.316 135.279 150.508L109.873 148.898C110.969 138.583 111.395 132.205 107.828 110.665C111.435 110.161 115.073 109.922 118.715 109.948C122.572 109.923 126.425 110.173 130.246 110.697C135.174 111.502 140.714 112.984 140.714 112.984C140.714 112.984 142.131 113.54 140.167 126.19Z" fill="#698B75"/>
<path opacity="0.6" d="M140.167 126.19C139.788 128.606 139.297 131.448 138.637 134.822C137.831 139.138 136.704 144.316 135.279 150.508L109.873 148.898C110.969 138.583 111.395 132.205 107.828 110.665C111.435 110.161 115.073 109.922 118.715 109.948C122.572 109.923 126.425 110.173 130.246 110.697C135.174 111.502 140.714 112.984 140.714 112.984C140.714 112.984 142.131 113.54 140.167 126.19Z" fill="#FAFAFA"/>
<path d="M140.169 126.19C139.79 128.606 139.299 131.448 138.639 134.822C137.241 131.85 136.081 128.773 135.168 125.618H139.887L140.169 126.19Z" fill="#698B75"/>
<path opacity="0.4" d="M140.169 126.19C139.79 128.606 139.299 131.448 138.639 134.822C137.241 131.85 136.081 128.773 135.168 125.618H139.887L140.169 126.19Z" fill="#FAFAFA"/>
<path d="M118.483 90.9282C119.441 97.0722 119.723 99.6973 123.145 102.572C128.291 106.904 135.627 104.376 136.52 98.0627C137.326 92.3857 135.618 83.2865 129.33 81.4023C127.946 80.9778 126.477 80.9145 125.063 81.2182C123.648 81.5219 122.334 82.1827 121.247 83.1375C120.16 84.0923 119.335 85.3095 118.851 86.6732C118.368 88.0369 118.241 89.5017 118.483 90.9282Z" fill="#E4897B"/>
<path d="M128.562 150.073C128.562 150.073 128.159 161.258 127.193 175.366C126.388 187.203 125.172 201.085 123.473 212.149L123.424 212.455C120.372 232.039 106.852 277.808 106.852 277.808H98.3008C98.3008 277.808 105.347 233.601 106.893 214.195C110.814 165.18 100.99 159.632 109.872 148.825L128.562 150.073Z" fill="#698B75"/>
<path d="M128.562 150.073C128.562 150.073 128.159 161.258 127.193 175.366C126.388 187.203 125.172 201.085 123.473 212.149L123.424 212.455C120.372 232.039 106.852 277.808 106.852 277.808H98.3008C98.3008 277.808 105.347 233.601 106.893 214.195C110.814 165.18 100.99 159.632 109.872 148.825L128.562 150.073Z" fill="#0A3316"/>
<path d="M127.195 175.366C126.389 187.203 125.173 201.085 123.474 212.149C120.584 197.775 115.833 176.783 122.21 163.029C123.732 166.935 125.504 171.347 127.195 175.366Z" fill="#698B75"/>
<path opacity="0.8" d="M127.195 175.366C126.389 187.203 125.173 201.085 123.474 212.149C120.584 197.775 115.833 176.783 122.21 163.029C123.732 166.935 125.504 171.347 127.195 175.366Z" fill="#0A3316"/>
<path d="M135.277 150.516C135.277 150.516 142.524 193.467 142.089 212.584C141.663 232.473 134.375 277.808 134.375 277.808H125.904C125.904 277.808 127.241 233.624 126.492 214.097C125.687 192.807 116.668 149.3 116.668 149.3L135.277 150.516Z" fill="#698B75"/>
<path d="M135.277 150.516C135.277 150.516 142.524 193.467 142.089 212.584C141.663 232.473 134.375 277.808 134.375 277.808H125.904C125.904 277.808 127.241 233.624 126.492 214.097C125.687 192.807 116.668 149.3 116.668 149.3L135.277 150.516Z" fill="#0A3316"/>
<path d="M124.457 278.21H135.819L136.705 274.401L124.055 274.49L124.457 278.21Z" fill="#263238"/>
<path d="M97.0625 278.21H108.424L109.31 274.401L97.143 274.49L97.0625 278.21Z" fill="#263238"/>
<path d="M109.582 147.36L108.294 149.566C108.189 149.735 108.39 149.929 108.68 149.945L135.326 151.676C135.551 151.676 135.752 151.595 135.776 151.45L136.155 149.188C136.155 149.035 135.986 148.89 135.736 148.874L109.969 147.199C109.896 147.195 109.824 147.208 109.757 147.236C109.69 147.264 109.631 147.306 109.582 147.36Z" fill="#263238"/>
<path d="M112.857 150.451L112.172 150.403C112.036 150.403 111.931 150.314 111.947 150.234L112.462 147.295C112.462 147.214 112.599 147.15 112.736 147.158L113.429 147.198C113.565 147.198 113.662 147.287 113.654 147.375L113.139 150.306C113.123 150.395 112.994 150.459 112.857 150.451Z" fill="#698B75"/>
<path opacity="0.3" d="M112.857 150.451L112.172 150.403C112.036 150.403 111.931 150.314 111.947 150.234L112.462 147.295C112.462 147.214 112.599 147.15 112.736 147.158L113.429 147.198C113.565 147.198 113.662 147.287 113.654 147.375L113.139 150.306C113.123 150.395 112.994 150.459 112.857 150.451Z" fill="black"/>
<path d="M129.533 151.53L128.848 151.49C128.711 151.49 128.607 151.401 128.623 151.313L129.138 148.382C129.138 148.293 129.275 148.237 129.42 148.245L130.104 148.285C130.241 148.285 130.346 148.374 130.33 148.462L129.814 151.393C129.823 151.482 129.694 151.538 129.533 151.53Z" fill="#698B75"/>
<path opacity="0.3" d="M129.533 151.53L128.848 151.49C128.711 151.49 128.607 151.401 128.623 151.313L129.138 148.382C129.138 148.293 129.275 148.237 129.42 148.245L130.104 148.285C130.241 148.285 130.346 148.374 130.33 148.462L129.814 151.393C129.823 151.482 129.694 151.538 129.533 151.53Z" fill="black"/>
<path d="M142.158 119.425C143.124 122.646 144.042 125.907 144.936 129.16L147.633 138.896L147.972 140.103L148.06 140.401L148.101 140.554V140.635C148.129 140.741 148.164 140.846 148.205 140.949C148.403 141.438 148.674 141.895 149.01 142.302C149.972 143.316 151.086 144.175 152.312 144.846C155.121 146.366 158.092 147.566 161.17 148.421L160.703 151.562C157.092 151.376 153.535 150.606 150.17 149.283C148.308 148.553 146.593 147.495 145.105 146.159C144.253 145.369 143.545 144.437 143.011 143.405C142.867 143.126 142.741 142.838 142.633 142.543L142.544 142.326L142.488 142.173L142.383 141.875L141.957 140.659C140.829 137.438 139.782 134.217 138.792 130.948C137.802 127.679 136.827 124.458 135.941 121.172L142.158 119.425Z" fill="#E4897B"/>
<path d="M140.715 112.951C143.936 114.006 147.318 124.538 147.318 124.538L135.69 129.547C135.69 129.547 130.859 117.726 133.001 115.053C135.143 112.379 137.019 111.743 140.715 112.951Z" fill="#698B75"/>
<path opacity="0.6" d="M140.715 112.951C143.936 114.006 147.318 124.538 147.318 124.538L135.69 129.547C135.69 129.547 130.859 117.726 133.001 115.053C135.143 112.379 137.019 111.743 140.715 112.951Z" fill="#FAFAFA"/>
<path d="M134.499 81.0476C132.446 78.5111 116.582 76.6993 115.737 83.6083C110.1 87.554 115.447 97.7483 116.252 100.341C112.363 101.42 99.8335 105.704 109.005 114.03C118.177 122.356 131.93 120.939 134.62 112.323C136.504 106.3 130.521 96.2183 130.65 92.6914C130.779 89.1644 138.018 85.3556 134.499 81.0476Z" fill="#263238"/>
<path d="M117.364 101.614C117.334 101.615 117.305 101.609 117.278 101.596C117.252 101.584 117.229 101.565 117.211 101.541C115.753 99.7699 110.68 90.4614 112.46 86.0325C112.736 85.3454 113.204 84.7522 113.808 84.3239C114.412 83.8955 115.126 83.65 115.866 83.6168C115.892 83.6135 115.918 83.6154 115.944 83.6226C115.969 83.6298 115.992 83.6421 116.013 83.6587C116.033 83.6752 116.05 83.6958 116.062 83.7191C116.074 83.7423 116.081 83.7678 116.083 83.794C116.09 83.8462 116.076 83.8991 116.045 83.9412C116.013 83.9834 115.966 84.0115 115.914 84.0194C115.249 84.044 114.605 84.2589 114.058 84.6386C113.512 85.0182 113.085 85.5467 112.83 86.1614C111.115 90.4453 116.091 99.5364 117.517 101.276C117.542 101.304 117.559 101.339 117.564 101.377C117.57 101.415 117.564 101.453 117.547 101.488C117.531 101.522 117.505 101.551 117.472 101.571C117.439 101.59 117.402 101.6 117.364 101.598V101.614Z" fill="#263238"/>
<path d="M129.39 92.3127C129.569 93.4887 130.136 94.5711 131 95.3887C132.143 96.4839 133.222 95.735 133.327 94.3419C133.424 93.0938 132.941 91.0243 131.588 90.4446C130.235 89.8648 129.22 90.9197 129.39 92.3127Z" fill="#E4897B"/>
<path d="M157.219 147.553L161.793 145.999L161.076 151.499C161.076 151.499 159.273 152.304 156.938 150.275L154.707 148.85L156.462 147.891C156.703 147.754 156.957 147.641 157.219 147.553Z" fill="#E4897B"/>
<path d="M164.992 145.982L163.59 150.79L161.078 151.49L161.795 145.999L164.992 145.982Z" fill="#E4897B"/>
</svg>
