<svg width="30" height="30" viewBox="0 0 30 30" fill="none" xmlns="http://www.w3.org/2000/svg">
<path d="M15 30C23.2843 30 30 23.2843 30 15C30 6.71573 23.2843 0 15 0C6.71574 0 0 6.71573 0 15C0 23.2843 6.71574 30 15 30Z" fill="url(#paint0_linear_2472_79505)"/>
<path d="M23.2901 9.86051C22.771 10.0954 22.1965 10.2381 21.6353 10.3324C21.9011 10.2873 22.2919 9.80614 22.4489 9.61122C22.6879 9.3137 22.8859 8.97515 22.9978 8.60992C23.0121 8.58119 23.0224 8.54529 22.9937 8.52374C22.9577 8.50938 22.9342 8.51656 22.9065 8.53092C22.2806 8.86639 21.6333 9.10954 20.9449 9.2819C20.8874 9.29626 20.8454 9.28189 20.8095 9.24598C20.752 9.18135 20.6987 9.12082 20.6381 9.07055C20.3488 8.82433 20.038 8.63146 19.6881 8.48886C19.2285 8.30111 18.7258 8.22212 18.2303 8.25392C17.7481 8.28573 17.2752 8.42115 16.8474 8.6448C16.4185 8.86845 16.0369 9.18033 15.7322 9.55581C15.4172 9.94464 15.1854 10.4032 15.0664 10.8905C14.9515 11.3604 14.9607 11.8241 15.0315 12.2991C15.0417 12.3781 15.0346 12.3884 14.9638 12.3781C12.2697 11.977 10.0363 11.0126 8.22346 8.94744C8.14446 8.85819 8.1024 8.85819 8.03777 8.95463C7.24473 10.1437 7.62945 12.0539 8.62049 12.9937C8.75284 13.1188 8.88827 13.244 9.03497 13.3579C8.98162 13.3692 8.32195 13.2973 7.7341 12.9937C7.6551 12.9434 7.61612 12.9721 7.60893 13.0614C7.60175 13.1896 7.61304 13.3086 7.63048 13.4471C7.78232 14.6526 8.61742 15.7678 9.7603 16.2028C9.89572 16.2602 10.0465 16.3105 10.1922 16.3351C9.93162 16.3926 9.66386 16.4326 8.91699 16.3741C8.82363 16.3567 8.78874 16.4028 8.82362 16.4921C9.3848 18.0217 10.5964 18.4772 11.5044 18.7368C11.6254 18.7583 11.7475 18.7583 11.8696 18.7871C11.8624 18.7983 11.8552 18.7983 11.848 18.8086C11.5474 19.2672 10.5041 19.6088 10.0178 19.7791C9.13448 20.0879 8.17217 20.2274 7.23755 20.1351C7.08777 20.1136 7.05699 20.1146 7.01596 20.1351C6.97492 20.1608 7.01083 20.1967 7.05904 20.2346C7.24884 20.3598 7.44171 20.4706 7.63766 20.5783C8.23064 20.8933 8.84927 21.1436 9.4956 21.3221C12.835 22.2444 16.597 21.5663 19.1044 19.0753C21.0731 17.1189 21.7636 14.4207 21.7636 11.7195C21.7636 11.6138 21.8887 11.5553 21.9626 11.4999C22.4745 11.1152 22.888 10.6546 23.2707 10.1396C23.3568 10.0236 23.3579 9.92105 23.3579 9.87898C23.3579 9.8718 23.3579 9.86462 23.3579 9.86462C23.3579 9.81743 23.3568 9.83076 23.2901 9.86051Z" fill="white"/>
<defs>
<linearGradient id="paint0_linear_2472_79505" x1="25.6069" y1="4.3933" x2="4.3932" y2="25.6071" gradientUnits="userSpaceOnUse">
<stop stop-color="#33CCFF"/>
<stop offset="1" stop-color="#337FFF"/>
</linearGradient>
</defs>
</svg>
