<svg width="300" height="249" viewBox="0 0 300 249" fill="none" xmlns="http://www.w3.org/2000/svg">
<path d="M0 180.918C0 180.918 0.90189 147.273 9.02093 126.073C17.14 104.873 32.0249 140.222 39.6926 134.726C47.3604 129.231 55.6804 73.5339 83.9968 61.9149C112.313 50.2959 128.166 111.468 141.89 123.055C155.615 134.643 184.575 37.6654 208.209 32.704C231.843 27.7426 237.336 137.742 256.014 135.516C274.693 133.29 277.85 96.9952 289.578 102.513C301.306 108.031 299.952 180.918 299.952 180.918H0Z" fill="#DEE5EF"/>
<path d="M146.171 13.4952C146.171 13.4952 144.007 8.29838 146.745 5.28419C149.483 2.27 151.291 2.27 153.929 2.49598C156.566 2.72196 159.58 0.235505 162.293 0.0095254C165.006 -0.216454 165.609 3.62655 163.801 6.41477C163.801 6.41477 164.877 8.58932 163.812 13.4959C162.142 21.184 149.868 23.9668 146.171 13.4952Z" fill="#2D2D2D"/>
<path d="M148.004 13.9708C148.004 13.9708 148.316 18.7712 151.269 21.7306C154.705 25.1744 161.266 25.7279 163.477 13.1474C163.477 13.1474 161.166 10.3254 160.563 7.26855C160.563 7.26855 155.539 7.73878 151.922 7.26855C151.922 7.26855 150.516 13.0304 148.004 13.9708Z" fill="#D2B6A3"/>
<path d="M147.591 13.9144C147.591 13.9144 146.787 13.2087 145.832 13.5619C144.877 13.9144 145.171 18.1917 148.566 18.0226L147.591 13.9144Z" fill="#D2B6A3"/>
<path d="M163.515 13.9144C163.515 13.9144 164.318 13.2087 165.273 13.5619C166.228 13.9144 165.934 18.1917 162.539 18.0226L163.515 13.9144Z" fill="#D2B6A3"/>
<path d="M146.684 32.6881L149.091 42.9364L148.567 50.2456H164.919L166.727 36.0792C166.727 36.0792 167.363 32.1604 165.576 30.9547C163.789 29.7491 150.527 27.0366 146.684 32.6881Z" fill="#447158"/>
<path d="M166.054 58.3483C166.054 58.3483 155.742 50.8009 149.54 48.4099C143.338 46.0188 139.9 44.5987 137.434 46.1683C134.968 47.7374 135.043 53.7901 145.654 57.6013C156.265 61.4125 164.896 61.3374 164.896 61.3374L166.054 58.3483Z" fill="#3B556A"/>
<path d="M176.654 58.5783L166.342 58.3916L165.184 61.3808C165.184 61.3808 172.507 61.9038 174.749 61.0073C176.991 60.1101 176.654 58.5783 176.654 58.5783Z" fill="#555555"/>
<path d="M156.779 43.2773H151.969V51.918H156.779V43.2773Z" fill="#2E2F40"/>
<path d="M150.795 49.744C150.795 49.744 152.517 49.1655 153.572 48.7887C154.627 48.4118 155.154 49.2664 155.154 49.2664C155.154 49.2664 157.114 48.4463 158.621 48.6926C160.128 48.9396 161.202 55.8123 149.324 52.7149L150.795 49.744Z" fill="#D2B6A3"/>
<path d="M146.684 58.3483C146.684 58.3483 156.995 50.8009 163.198 48.4099C169.4 46.0188 172.838 44.5987 175.303 46.1683C177.769 47.7374 177.694 53.7901 167.083 57.6013C156.472 61.4125 147.841 61.3374 147.841 61.3374L146.684 58.3483Z" fill="#3B556A"/>
<path d="M150.662 49.3752C150.662 49.3752 149.373 51.4097 148.85 53.0673C148.85 53.0673 138.53 47.4158 137.551 44.1756C136.571 40.9354 141.771 26.1534 144.86 25.2176C147.949 24.2819 152.307 23.8306 152.307 23.8306H158.498C158.498 23.8306 163.128 23.0756 165.335 24.4321C167.541 25.7887 175.152 37.0917 175.454 39.5782C175.755 42.0646 167.542 52.6146 166.411 53.5186C166.411 53.5186 162.86 51.7852 162.074 51.409L168.521 40.859C168.521 40.859 164.753 33.3238 162.567 32.5701C160.382 31.8164 151.038 30.9125 147.873 33.0221C144.708 35.1317 143.277 42.3664 143.277 42.3664L150.662 49.3752Z" fill="#447158"/>
<path d="M136.127 58.5783L146.44 58.3916L147.598 61.3808C147.598 61.3808 140.275 61.9038 138.033 61.0073C135.791 60.1101 136.127 58.5783 136.127 58.5783Z" fill="#555555"/>
<path d="M151.969 22.7129V25.4443C151.969 25.4443 152.961 27.9307 155.26 27.7805C157.558 27.6296 157.935 25.5951 157.935 25.5951V23.1716C157.935 23.1716 155.111 24.7427 151.969 22.7129Z" fill="#D2B6A3"/>
<path d="M166.288 53.3474C166.288 53.3474 165.111 51.1864 162.027 51.0443C158.944 50.9022 159.72 55.4441 161.14 55.915C162.559 56.3859 163.315 54.4414 164.172 54.273C165.029 54.1045 166.207 53.844 166.288 53.3474Z" fill="#D2B6A3"/>
<path d="M154.932 214.392C196.711 214.392 230.579 213.526 230.579 212.458C230.579 211.39 196.711 210.524 154.932 210.524C113.154 210.524 79.2852 211.39 79.2852 212.458C79.2852 213.526 113.154 214.392 154.932 214.392Z" fill="#DEE5EF"/>
<path d="M218.452 61.5303H88.7686C82.8018 61.5303 77.9648 66.3672 77.9648 72.334V154.225C77.9648 160.192 82.8018 165.029 88.7686 165.029H135.803L153.611 184.511L169.288 165.029H218.453C224.419 165.029 229.256 160.192 229.256 154.225V72.3333C229.256 66.3665 224.419 61.5303 218.452 61.5303Z" fill="#E07575"/>
<path d="M184.781 107.045L184.775 107.044C184.846 106.436 184.892 105.821 184.892 105.193C184.892 96.4512 177.805 89.364 169.062 89.364C160.491 89.364 153.528 94.1034 153.259 102.609L153.207 102.605C152.937 94.1007 145.974 89.3633 137.404 89.3633C128.661 89.3633 121.574 96.4505 121.574 105.193C121.574 108.97 122.902 112.435 125.109 115.155L125.107 115.158L125.12 115.17C126.118 116.397 130.302 121.382 131.62 122.264L153.232 140.808L175.302 121.63C177.348 119.738 180.395 116.354 181.443 115.038L181.474 115.01L181.486 114.981C183.247 112.749 184.42 110.036 184.77 107.065L184.781 107.045Z" fill="white"/>
<path d="M228.011 241.058C251.763 241.058 271.018 239.843 271.018 238.345C271.018 236.847 251.763 235.633 228.011 235.633C204.259 235.633 185.004 236.847 185.004 238.345C185.004 239.843 204.259 241.058 228.011 241.058Z" fill="#DEE5EF"/>
<path d="M249.389 186.685C249.389 186.685 258.864 184.289 264.728 188.461C270.592 192.634 273.975 198.497 270.93 206.616C267.886 214.735 266.194 218.118 265.63 226.462C265.067 234.807 252.437 241.009 239.131 241.46C225.824 241.912 214.097 240.671 211.616 236.837C209.135 233.003 207.782 227.14 210.488 219.302C213.194 211.465 231.011 204.288 234.62 199.814C238.228 195.34 239.689 189.532 249.389 186.685Z" fill="#698B75"/>
<path d="M237.263 178.67C237.263 178.67 237.889 181.842 235.07 184.511C232.251 187.179 230.221 195.411 238.228 196.088C246.234 196.764 248.45 183.178 245.998 179.81C243.545 176.441 237.882 174.961 237.263 178.67Z" fill="#2D2D2D"/>
<path d="M239.842 164.521C239.842 164.521 235.219 167.566 235.219 171.739C235.219 175.911 237.474 180.647 243.676 181.211V184.819C243.676 184.819 245.706 182 246.269 180.873C246.833 179.745 246.946 176.7 246.946 176.7C246.946 176.7 250.667 175.234 249.878 172.415C249.088 169.596 245.931 172.415 245.931 172.415C245.931 172.415 240.18 170.047 239.842 164.521Z" fill="#D2B6A3"/>
<path d="M237.109 195.08L228.609 203.876L232.485 205.345L236.183 201.148L237.216 197.385C237.216 197.385 237.265 195.893 237.109 195.08Z" fill="#D2B6A3"/>
<path d="M244.127 184.81C244.127 184.81 240.744 186.839 238.602 188.08C236.459 189.32 237.474 193.605 237.925 195.86C238.376 198.115 235.219 205.671 235.219 205.671H248.074L251.006 193.718C251.006 193.718 253.261 185.486 249.427 184.809C245.594 184.133 244.127 184.81 244.127 184.81Z" fill="#447158"/>
<path d="M248.715 190.455L250.403 200.717L235.634 203.31C235.634 203.31 232.476 201.167 231.123 201.167C229.77 201.167 227.289 203.31 227.289 203.31L235.183 205.678L255.053 204.889L253.676 190.455H248.715Z" fill="#D2B6A3"/>
<path d="M242.832 217.605L219.047 215.913L203.147 232.151H199.539L211.041 209.711L234.609 205.651H247.464C247.464 205.651 248.433 218.003 242.832 217.605Z" fill="#0A3316"/>
<path d="M196.585 232.025H192.855L209.891 204.285L234.211 205.648L211.357 209.585L206.434 219.19L196.585 232.025Z" fill="#0A3316"/>
<path d="M229.987 157.768C230.551 154.498 234.498 154.498 236.415 155.963C238.332 157.429 240.814 156.865 245.774 156.865C258.178 159.346 257.389 170.397 255.697 174.682C254.006 178.966 252.991 182.914 256.599 186.973C260.208 191.033 262.125 195.769 254.118 198.746C246.112 201.723 241.038 194.529 240.823 191.709C240.61 188.89 243.744 184.83 243.744 184.83C243.744 184.83 245.773 182.011 246.337 180.884C246.9 179.756 247.013 176.711 247.013 176.711C247.013 176.711 250.735 175.245 249.945 172.426C249.156 169.607 245.999 172.426 245.999 172.426C245.999 172.426 240.248 170.058 239.909 164.533C239.909 164.533 238.687 165.342 237.499 166.691C233.4 166.595 229.424 161.038 229.987 157.768Z" fill="#2D2D2D"/>
<path d="M214.773 205.404H232.578V203.64H214.773V205.404Z" fill="#DCDCDC"/>
<path d="M206.148 191.116L214.392 203.689H225.431L217.368 191.116H206.148Z" fill="#DCDCDC"/>
<path d="M256.07 209.635C256.07 209.635 250.564 208.845 244.86 211.665C239.155 214.484 239.657 217.397 238.117 217.287C236.578 217.178 230.81 216.175 227.766 218.938C224.721 221.701 221.113 226.437 231.938 226.211C242.764 225.985 263.525 214.128 256.07 209.635Z" fill="#DCE3DE"/>
<path d="M203.664 232.163L204.679 234.982L196.898 239.042L200.056 232.163H203.664Z" fill="#555555"/>
<path d="M195.735 232.163L196.749 234.982L188.969 239.042L192.126 232.163H195.735Z" fill="#555555"/>
<path d="M83.0072 236.363C83.0072 237.861 65.3124 239.075 43.4844 239.075C21.6564 239.075 3.96094 237.861 3.96094 236.363C3.96094 234.865 21.6564 233.65 43.4844 233.65C65.3124 233.65 83.0072 234.865 83.0072 236.363Z" fill="#DEE5EF"/>
<path d="M87.2148 141.239L88.7703 140.412C88.7703 140.412 89.1912 138.994 89.3792 137.941C89.5667 136.887 89.8008 135.712 90.3542 135.921C90.9077 136.13 91.1884 137.431 92.0653 137.341C92.9428 137.251 94.1898 134.139 95.4969 134.212C96.8041 134.285 96.1952 137.568 95.4909 139.059C94.7865 140.549 88.5728 144.4 88.5728 144.4L87.2148 141.239Z" fill="#D2B6A3"/>
<path d="M41.0676 169.449C40.1373 167.435 37 163.695 37 163.695L43.1536 168.08C43.1536 168.08 43.4918 171.164 42.1387 173.739L41.3748 173.373C41.8058 172.172 41.6874 170.79 41.0676 169.449Z" fill="#DDB44E"/>
<path d="M87.2148 141.233L88.7527 140.374L88.7345 140.396C89.0267 139.341 89.2385 138.283 89.4219 137.2C89.478 136.931 89.5389 136.661 89.6377 136.395C89.6884 136.262 89.748 136.129 89.838 136.004C89.9185 135.883 90.093 135.749 90.2872 135.782C90.6519 135.86 90.8014 136.146 90.9706 136.354C91.1316 136.578 91.2811 136.801 91.4645 136.971C91.6438 137.138 91.8718 137.236 92.0849 137.18C92.2737 137.129 92.476 136.932 92.6451 136.736C92.9915 136.334 93.296 135.878 93.6316 135.442C93.9706 135.01 94.3095 134.558 94.8204 134.245C95.07 134.097 95.3988 133.975 95.7337 134.094C96.0754 134.213 96.2425 134.54 96.3251 134.816C96.4787 135.391 96.4421 135.958 96.3724 136.51C96.2973 137.062 96.1735 137.602 96.0084 138.132C95.8386 138.648 95.66 139.21 95.2554 139.64C94.8819 140.064 94.4611 140.42 94.0355 140.767C92.3163 142.136 90.474 143.315 88.61 144.456L88.5369 144.501L88.5051 144.423L87.2148 141.233ZM87.2148 141.233L88.6391 144.366L88.5342 144.332C90.3569 143.14 92.1661 141.909 93.8495 140.539C94.2656 140.194 94.6783 139.837 95.0227 139.439C95.3758 139.066 95.5382 138.551 95.7026 138.037C95.9922 137.021 96.2243 135.901 96.0064 134.908C95.9381 134.673 95.8163 134.464 95.6255 134.4C95.434 134.322 95.1871 134.395 94.98 134.519C94.5504 134.774 94.2047 135.208 93.8731 135.628C93.5396 136.054 93.2338 136.506 92.8643 136.929C92.6735 137.132 92.4834 137.362 92.1417 137.46C91.815 137.541 91.4841 137.371 91.2784 137.167C91.0667 136.959 90.9171 136.719 90.7649 136.498C90.6174 136.284 90.4469 136.044 90.2554 136.01C90.0815 135.966 89.9253 136.241 89.8339 136.471C89.7365 136.715 89.6702 136.978 89.6086 137.24C89.4117 138.307 89.135 139.379 88.8035 140.417L88.7987 140.433L88.7852 140.439L87.2148 141.233Z" fill="#C15F5B"/>
<path d="M43.3 168.155L61.9062 176.274V179.206L42.2852 173.813C42.2852 173.813 43.413 170.411 43.3 168.155Z" fill="#D2B6A3"/>
<path d="M65.4615 157.142L63.0934 180.569H48.0394L46.6862 159.848L33.4955 162.042C33.0293 162.12 32.5855 162.296 32.1931 162.56L25.5713 167.009C25.5713 167.009 23.2032 165.769 19.8203 166.558L29.9833 158.107C30.346 157.806 30.7682 157.585 31.2228 157.46L53.5366 151.335L59.1185 151.56L71.9472 147.988C72.3025 147.889 72.6489 147.76 72.9824 147.603L87.5913 140.735L89.0574 144.682L76.2043 152.701C75.9777 152.843 75.7395 152.965 75.4925 153.065L65.4615 157.142Z" fill="#447158"/>
<path d="M62.6225 130.081C62.6225 130.081 69.5576 134.817 66.5129 143.105C64.9541 146.657 59.0705 148.011 59.0705 148.011C59.0705 148.011 58.3939 150.548 59.0705 151.563C59.747 152.578 60.2545 156.299 57.379 155.453C54.5035 154.607 53.4886 151.901 53.4886 151.901V145.812C53.4886 145.812 50.8344 145.307 49.6828 143.867C47.7228 141.414 49.852 138.623 51.2051 139.469C52.5583 140.314 52.5583 140.314 52.5583 140.314C52.5583 140.314 53.2349 133.971 56.6178 130.927C56.6178 130.927 60.5928 131.434 62.6225 130.081Z" fill="#D2B6A3"/>
<path d="M62.1397 180.544L67.9752 232.895H64.254L50.2148 180.544H62.1397Z" fill="#0A3316"/>
<path d="M47.7119 180.544L38.3242 232.895H41.6652L59.7213 180.544H47.7119Z" fill="#0C2713"/>
<path d="M67.8275 232.907L73.4093 235.614H63.4297L64.1063 232.907H67.8275Z" fill="#555555"/>
<path d="M41.3978 232.907L46.9796 235.614H37L37.6766 232.907H41.3978Z" fill="#555555"/>
<path d="M37.4369 232.907L43.0187 235.614H33.0391L33.7156 232.907H37.4369Z" fill="#555555"/>
<path d="M20.2533 232.907L25.8351 235.614H15.8555L16.5321 232.907H20.2533Z" fill="#555555"/>
<path d="M62.3327 180.132C62.3327 180.132 64.3821 178.851 64.3408 175.82C64.2995 172.788 59.8923 173.816 59.5134 175.235C59.1352 176.654 61.0851 177.281 61.3009 178.112C61.5167 178.942 61.8408 180.082 62.3327 180.132Z" fill="#D2B6A3"/>
<path d="M62.4467 130.061C62.4467 130.061 65.0684 126.255 61.0935 123.887C61.0935 123.887 60.9243 126.847 58.9791 127.439C58.9791 127.439 59.2721 125.578 58.0265 124.563C58.0265 124.563 56.442 127.608 54.6659 127.523C52.8899 127.439 45.963 129.26 46.2634 134.725C46.2634 134.725 50.036 131.444 56.442 130.906C56.442 130.906 60.4169 131.414 62.4467 130.061Z" fill="#2D2D2D"/>
<path d="M46.5373 134.726C46.54 134.724 50.312 131.445 56.7152 130.907C53.3323 133.952 52.6557 140.295 52.6557 140.295C52.6557 140.295 52.6557 140.295 51.3025 139.449C49.9493 138.603 48.3424 141.056 49.7802 143.847C49.7802 143.847 47.3276 142.507 46.4818 139.075C46.0996 137.524 46.2538 135.969 46.5373 134.726Z" fill="#DCDCDC"/>
<path d="M38.0511 163.755C38.0511 163.755 41.1884 167.494 42.1187 169.508C43.049 171.523 42.8799 173.637 41.3576 175.075C39.8352 176.512 38.9049 180.572 38.9049 180.572C38.9049 180.572 31.8853 181.502 28.9253 180.572C28.9253 180.572 27.5877 174.905 25.8888 173.468L21.1445 173.299V166.339C21.1445 166.339 26.6289 164.444 31.1181 163.755C35.6066 163.065 38.0511 163.755 38.0511 163.755Z" fill="#447158"/>
<path d="M41.7972 144.369C41.7972 144.369 47.5299 148.874 46.0008 154.952C44.4724 161.031 38.4623 160.361 38.4623 160.361L38.1281 164.55C38.1281 164.55 34.9177 162.101 34.2303 159.885C33.5422 157.668 33.1842 155.868 33.1842 155.868C33.1842 155.868 30.5611 154.687 30.4082 152.547C30.2553 150.407 31.4021 149.566 32.9305 150.178C34.4589 150.789 34.6118 152.853 34.6118 152.853C34.6118 152.853 41.0327 150.866 41.7972 144.369Z" fill="#D2B6A3"/>
<path d="M25.4569 149.436C26.5942 143.397 33.9501 138.658 39.9122 141.028C45.8742 143.397 45.7795 149.976 45.7795 149.976C44.6117 146.585 41.8228 144.39 41.8228 144.39C41.0583 150.887 34.6382 152.875 34.6382 152.875C34.6382 152.875 34.4853 150.811 32.9569 150.2C31.4284 149.588 30.2816 150.429 30.4345 152.569C30.5874 154.709 33.2106 155.89 33.2106 155.89C33.2106 155.89 33.5685 157.69 34.2566 159.907C34.9447 162.123 38.1544 164.572 38.1544 164.572C40.7802 168.247 38.766 173.818 38.766 173.818C38.766 170.454 34.8682 165.333 30.421 163.346C25.9738 161.359 24.3196 155.474 25.4569 149.436Z" fill="#2D2D2D"/>
<path d="M36.5639 232.895H33.068L31.7148 180.958L37.9171 180.544L40.9618 188.861L36.5639 232.895Z" fill="#0A3316"/>
<path d="M28.202 180.544L23.4097 187.394L17.1797 232.895H20.4212L35.024 192.13L33.3332 180.867C33.3332 180.867 30.1756 181.136 28.202 180.544Z" fill="#0A3316"/>
<path d="M21.067 166.351L16.5785 167.349L11.0873 153.041H7.92969L13.0041 172.832L21.067 173.31V166.351Z" fill="#D2B6A3"/>
<path d="M11.1271 153.005C11.1271 153.005 11.4654 152.046 12.3112 150.354C13.1569 148.663 12.3957 147.902 11.7191 147.141C11.7191 147.141 13.7489 143.166 13.1569 142.235C12.5649 141.305 10.2814 145.703 10.2814 145.703C10.2814 145.703 9.60481 142.823 8.84365 142.106C8.08249 141.39 8.08249 143.673 8.84365 146.718C8.84365 146.718 7.65962 146.569 6.81389 147.489C5.96816 148.409 7.9695 153.005 7.9695 153.005H11.1271Z" fill="#D2B6A3"/>
<path d="M25.1571 166.035C25.1571 166.035 22.7891 163.949 19.0117 165.133C15.2343 166.317 18.1659 171.448 20.0827 171.392C21.9995 171.336 22.0563 168.66 23.0144 168.081C23.9731 167.501 25.2789 166.67 25.1571 166.035Z" fill="#D2B6A3"/>
<path d="M243.148 246.605C243.148 247.465 253.292 248.163 265.805 248.163C278.317 248.163 288.461 247.465 288.461 246.605C288.461 245.745 278.317 245.048 265.805 245.048C253.292 245.049 243.148 245.745 243.148 246.605Z" fill="#DEE5EF"/>
<path d="M275.927 192.024C275.927 192.024 281.951 194.341 284.077 201.915C286.203 209.488 281.267 211.614 282.673 217.284C284.077 222.954 286.575 223.733 284.617 231.316C282.66 238.899 273.447 243.901 273.447 243.901C273.447 243.901 263.144 236.773 266.169 219.764C267.423 211.303 272.029 209.578 270.966 201.915C269.903 194.252 275.927 192.024 275.927 192.024Z" fill="#447158"/>
<path d="M285.64 246.125C285.64 246.125 285.285 236.965 279.262 234.131C273.238 231.296 268.436 238.062 268.436 238.062C268.436 238.062 266.86 223.868 259.064 221.913C251.268 219.957 248.434 236.859 248.434 246.126H285.64V246.125Z" fill="#3F7859"/>
</svg>
