<svg width="30" height="30" viewBox="0 0 30 30" fill="none" xmlns="http://www.w3.org/2000/svg">
<path d="M15 30C23.2843 30 30 23.2843 30 15C30 6.71573 23.2843 0 15 0C6.71573 0 0 6.71573 0 15C0 23.2843 6.71573 30 15 30Z" fill="url(#paint0_linear_2472_79508)"/>
<path d="M23.0319 12.8188C23.0319 10.8295 21.4192 9.2168 19.4299 9.2168H10.2192C8.22994 9.2168 6.61719 10.8295 6.61719 12.8188V17.1051C6.61719 19.0944 8.22994 20.7071 10.2192 20.7071H19.4299C21.4192 20.7071 23.0319 19.0944 23.0319 17.1051V12.8188ZM17.6151 15.2831L13.4847 17.3267C13.3226 17.4139 12.7727 17.297 12.7727 17.1133V12.9183C12.7727 12.7316 13.3277 12.6147 13.4898 12.707L17.4437 14.8583C17.6089 14.9527 17.7833 15.1928 17.6151 15.2831Z" fill="white"/>
<defs>
<linearGradient id="paint0_linear_2472_79508" x1="25.6069" y1="4.3933" x2="4.3931" y2="25.6071" gradientUnits="userSpaceOnUse">
<stop stop-color="#FF0000"/>
<stop offset="1" stop-color="#850000"/>
</linearGradient>
</defs>
</svg>
