<svg width="24" height="24" viewBox="0 0 24 24" fill="none" xmlns="http://www.w3.org/2000/svg">
<path d="M7 20.3334V5.33341C7 4.89139 7.17559 4.46746 7.48816 4.1549C7.80072 3.84234 8.22464 3.66675 8.66667 3.66675H15.3333C15.7754 3.66675 16.1993 3.84234 16.5118 4.1549C16.8244 4.46746 17 4.89139 17 5.33341V20.3334H7Z" stroke="#737678" stroke-width="1.66667" stroke-linecap="round" stroke-linejoin="round"/>
<path d="M6.99996 12H5.33329C4.89127 12 4.46734 12.1756 4.15478 12.4882C3.84222 12.8007 3.66663 13.2246 3.66663 13.6667V18.6667C3.66663 19.1087 3.84222 19.5326 4.15478 19.8452C4.46734 20.1577 4.89127 20.3333 5.33329 20.3333H6.99996" stroke="#737678" stroke-width="1.66667" stroke-linecap="round" stroke-linejoin="round"/>
<path d="M17 9.5H18.6667C19.1087 9.5 19.5326 9.6756 19.8452 9.98816C20.1577 10.3007 20.3333 10.7246 20.3333 11.1667V18.6667C20.3333 19.1087 20.1577 19.5326 19.8452 19.8452C19.5326 20.1577 19.1087 20.3333 18.6667 20.3333H17" stroke="#737678" stroke-width="1.66667" stroke-linecap="round" stroke-linejoin="round"/>
<path d="M10.3334 7H13.6667" stroke="#737678" stroke-width="1.66667" stroke-linecap="round" stroke-linejoin="round"/>
<path d="M10.3334 10.3333H13.6667" stroke="#737678" stroke-width="1.66667" stroke-linecap="round" stroke-linejoin="round"/>
<path d="M10.3334 13.6667H13.6667" stroke="#737678" stroke-width="1.66667" stroke-linecap="round" stroke-linejoin="round"/>
<path d="M10.3334 17H13.6667" stroke="#737678" stroke-width="1.66667" stroke-linecap="round" stroke-linejoin="round"/>
</svg>
