<svg width="151" height="36" viewBox="0 0 151 36" fill="none" xmlns="http://www.w3.org/2000/svg">
<path d="M14.1872 9.25599C13.0323 2.09543 4.27405 0.690262 0.0393066 0.882751V32.638H82.0393V9.25599C80.7881 6.46491 76.9576 4.1743 71.6449 17.3405C65.0041 33.7983 55.7647 30.6222 52.8773 27.1574C49.99 23.6926 42.483 9.25599 35.8421 9.25599C29.2013 9.25599 28.9125 18.2067 25.159 21.094C21.4055 23.9813 15.6309 18.2067 14.1872 9.25599Z" fill="#F47C7C" fill-opacity="0.4"/>
<path d="M0.0393066 0.882722C4.27405 0.690233 13.0323 2.0954 14.1872 9.25596C15.6309 18.2067 21.4055 23.9813 25.159 21.094C28.9125 18.2067 29.2013 9.25596 35.8421 9.25596C42.483 9.25596 49.99 23.6926 52.8773 27.1574C55.7647 30.6222 65.0041 33.7983 71.6449 17.3405C76.9576 4.17427 80.7881 6.46488 82.0393 9.25596" stroke="#C94444" stroke-width="1.73239"/>
<circle cx="4.04225" cy="4.04225" r="4.04225" transform="matrix(1 0 0 -1 55.7646 32.9321)" fill="#C94444"/>
<circle cx="4.04225" cy="4.04225" r="5.56077" transform="matrix(1 0 0 -1 55.7646 32.9321)" stroke="#F47C7C" stroke-opacity="0.6" stroke-width="3.03704"/>
<line y1="-0.288732" x2="28.2958" y2="-0.288732" transform="matrix(0 -1 -1 0 59.8069 28.8898)" stroke="#C94444" stroke-width="0.577465" stroke-dasharray="2.31 2.31"/>
</svg>
