<svg width="151" height="36" viewBox="0 0 151 36" fill="none" xmlns="http://www.w3.org/2000/svg">
<path d="M14.1872 26.7132C13.0323 33.8737 0.0393066 35.0864 0.0393066 35.0864L82.0393 34.5463V27.3334V26.7132C82.0393 26.7132 77.8634 33.2919 72.5486 20.1204C65.9077 3.66265 55.7647 5.34696 52.8773 8.81175C49.99 12.2765 42.483 26.7132 35.8421 26.7132C29.2013 26.7132 28.9125 17.7625 25.159 14.8751C21.4055 11.9878 15.6309 17.7625 14.1872 26.7132Z" fill="#7BCFA0" fill-opacity="0.3"/>
<path d="M0.0393066 35.0864C4.27405 35.2789 13.0323 33.8737 14.1872 26.7132C15.6309 17.7625 21.4055 11.9878 25.159 14.8751C28.9125 17.7625 29.2013 26.7132 35.8421 26.7132C42.483 26.7132 49.99 12.2765 52.8773 8.81173C55.7647 5.34694 65.0041 2.17086 71.6449 18.6286C76.9576 31.7948 80.7881 29.5042 82.0393 26.7132" stroke="#27AE60" stroke-width="1.73239"/>
<circle cx="59.8069" cy="7.0793" r="4.04225" fill="#27AE60"/>
<circle cx="59.8069" cy="7.0793" r="5.56077" stroke="#7BCFA0" stroke-opacity="0.6" stroke-width="3.03704"/>
<line x1="60.0956" y1="7.07935" x2="60.0956" y2="35.3751" stroke="#27AE60" stroke-width="0.577465" stroke-dasharray="2.31 2.31"/>
</svg>
