<svg width="109" height="92" viewBox="0 0 109 92" fill="none" xmlns="http://www.w3.org/2000/svg">
<path d="M20.8912 0.308029C20.8678 0.846703 20.5399 1.17459 20.0715 1.12775C19.6031 1.05749 19.5563 1.24483 19.9778 1.33852C20.1652 1.38535 20.2823 1.50239 20.2823 1.61949C20.2823 1.7366 20.3526 1.85372 20.4228 1.87714C20.5399 1.92399 20.4931 2.27532 20.3057 3.18873C20.1652 3.89135 20.0481 4.50024 20.0715 4.54708C20.0949 4.61734 20.0715 4.6877 20.0481 4.75796C20.0247 4.82822 20.0247 5.06233 20.0481 5.2497C20.0715 5.60101 19.205 23.4007 19.1581 23.4242C19.1581 23.4476 18.8537 23.471 18.5258 23.5178C17.9402 23.5881 17.8934 23.5881 17.8934 23.3305C17.8934 23.19 18.2681 19.6769 18.7365 15.5315C19.205 11.386 19.5563 7.89633 19.5563 7.80264C19.4392 7.28739 18.8068 12.0651 18.2681 17.3114C17.9402 20.5434 17.6358 23.3071 17.6124 23.4476C17.5421 23.7287 16.6989 24.2673 16.5584 24.1033C16.5116 24.0565 16.4882 24.1268 16.4882 24.2205C16.4882 24.4781 16.4413 24.4781 17.2376 24.1033C17.6124 23.9394 18.1979 23.7756 18.5492 23.7287L19.205 23.6584V24.2205C19.205 24.5249 19.1815 24.7592 19.1815 24.7592C18.315 24.7826 16.3476 25.415 16.3476 25.6726C16.3476 25.8834 16.3242 25.8833 17.1205 25.5086C17.5187 25.3446 18.1042 25.1808 18.4555 25.1339C19.0644 25.0637 19.0644 25.0637 19.0644 25.3682C19.0644 25.5321 19.0879 25.7429 19.1347 25.8366C19.1815 25.9771 19.0176 26.0239 18.4789 26.0708C17.5655 26.1645 16.4179 26.6095 16.3711 26.8905C16.3242 27.0779 16.4413 27.0544 17.0737 26.75C17.4953 26.5626 18.1276 26.3752 18.5023 26.3283L19.1815 26.2347V26.7734V27.2886L18.315 27.4291C17.8466 27.5228 17.2142 27.6868 16.9332 27.8273C16.5584 27.9913 16.3945 28.0147 16.3242 27.921C16.2774 27.8507 16.1837 28.7875 16.1369 30.0054C16.09 31.2233 16.09 32.2538 16.1134 32.2773C16.1603 32.3241 16.1837 32.0196 16.1837 31.6449C16.1837 31.2467 16.2305 30.3567 16.2774 29.6541L16.3476 28.366L16.7458 28.1786C16.98 28.085 17.1674 28.0147 17.2142 28.0615C17.261 28.1084 16.7458 38.8585 16.09 51.9506C15.4342 65.0428 14.8956 75.9568 14.8956 76.191C14.8956 76.636 14.8956 76.636 14.4271 76.636H13.9587V76.0973C13.9587 75.7928 14.2866 69.2351 14.6613 61.5062C15.0595 53.8008 15.364 47.2196 15.3405 46.9385C15.3171 46.634 14.9658 53.0748 14.5677 61.272C14.1695 69.4458 13.7948 76.4018 13.7714 76.7297C13.7479 77.0576 13.7479 77.2215 13.7948 77.1044C13.8416 76.9639 13.9822 76.8937 14.31 76.8937H14.755L14.029 80.0086L13.3029 83.1235L12.7643 83.1704C12.3427 83.1938 12.2022 83.2641 12.1553 83.428C12.1319 83.5451 11.968 83.6622 11.8274 83.6857C11.6635 83.7091 12.1788 83.7091 12.9516 83.6622L14.3335 83.6153V84.7161V85.7935H12.9751H11.6167L11.5698 84.9269L11.523 84.0603L11.0311 84.9504C10.4925 85.9106 10.3988 86.2619 10.7267 86.2619C10.914 86.2619 10.914 86.4024 10.7735 88.9319L10.5862 91.6018H9.06381H7.54146L8.75934 89.2597C9.41512 87.9716 10.0709 86.7303 10.2114 86.5195C10.4456 86.1213 10.4456 86.0979 10.2583 85.1611C9.97721 83.7793 9.97721 82.6785 10.633 64.9257L11.2185 49.0933L10.633 42.0436C10.3051 38.1792 10.0709 34.713 10.0943 34.3851C10.1412 34.0572 10.2348 33.6356 10.3519 33.4249C10.469 33.1906 10.4925 32.9564 10.4222 32.7222L10.3285 32.3709L10.2348 32.7457C10.1177 33.3312 9.74301 33.6591 9.27459 33.5654C8.92328 33.4951 8.92328 33.4951 9.13407 33.6825C9.27459 33.7762 9.43854 33.8698 9.53222 33.8698C9.6259 33.8698 9.64932 33.9401 9.6259 33.9869C9.57906 34.0572 9.60248 34.1977 9.69616 34.2913C9.81327 34.4319 9.78985 34.713 9.64932 35.5562C9.53222 36.2588 9.36827 38.6945 9.22775 42.3013C9.04038 46.5404 8.9467 47.9691 8.85302 48.0393C8.75934 48.0862 8.57197 48.133 8.43145 48.133C8.17382 48.133 8.1504 48.0862 8.22066 47.688C8.33776 47.0322 9.25117 38.5306 9.22775 38.3666C9.20433 38.273 9.0638 39.0458 8.87644 40.0529C8.68907 41.0599 8.57197 42.0436 8.59539 42.2544C8.66565 42.5588 8.64223 42.5823 8.52513 42.4418C8.40803 42.3013 8.38461 42.3481 8.45487 42.6526C8.54855 43.1913 7.93961 48.297 7.77567 48.4141C7.68199 48.4609 7.56488 48.4843 7.49462 48.4609C7.40094 48.4374 7.33067 48.4843 7.33067 48.578C7.33067 48.7887 7.30725 48.7887 7.84593 48.578C8.08014 48.4843 8.40803 48.3906 8.57197 48.3906C8.80618 48.3906 8.87644 48.4609 8.87644 48.6951C8.87644 48.9293 8.80618 48.9996 8.59539 48.9996C8.43145 48.9996 8.10356 49.0698 7.84593 49.1635C7.5883 49.2572 7.33068 49.304 7.30725 49.2806C7.26041 49.2337 7.23699 49.5383 7.23699 49.913V50.6156L7.68198 50.4048C7.91619 50.2877 8.29092 50.1471 8.52513 50.1003C8.87644 50.03 8.89986 50.0536 8.89986 50.3112C8.89986 50.5688 8.80618 50.6156 8.2675 50.7327C7.61172 50.8732 7.11989 51.1543 7.11989 51.3417C7.11989 51.4354 7.26041 51.4353 7.4712 51.3884L7.84593 51.2948L7.77567 51.8803C7.75225 52.1848 7.40094 58.8597 7.00278 66.7057C6.60463 74.5516 6.25332 81.1562 6.2299 81.3436C6.18306 81.6246 6.1128 81.7417 5.94885 81.7417C5.76149 81.7417 5.73807 81.6481 5.78491 81.1094C5.90201 79.4699 6.88568 58.2742 6.88568 57.7824C6.86226 57.4545 6.53437 62.8178 6.13622 69.68C5.45702 81.2498 5.24623 83.7559 4.98861 84.4351C4.94176 84.5756 3.81757 85.4655 2.45917 86.4024L0.0234221 88.1121V90.056L0 92L3.37258 91.9297C5.22281 91.8828 29.7208 91.836 57.8022 91.8126C85.9071 91.7657 108.883 91.7423 108.883 91.7189C108.883 91.6955 108.625 90.22 108.297 88.4166C107.969 86.6132 107.712 85.1377 107.712 85.1377C107.712 85.1377 106.634 85.0909 105.299 85.044C103.964 84.9972 102.887 84.9503 102.864 84.9269C102.864 84.9035 102.348 83.6387 101.716 82.093L100.568 79.2825L98.7416 58.9065C97.7345 47.688 96.8914 38.5774 96.8445 38.6476C96.7977 38.7413 96.6806 38.7413 96.5401 38.6476C96.2122 38.4837 94.5727 38.1558 94.0575 38.1558C93.6593 38.1558 93.6359 38.1324 93.6359 37.7342V37.3127H94.3854C95.4159 37.3361 96.6337 37.7576 96.7274 38.1558C96.7977 38.4134 96.8211 38.4134 96.8211 38.0387C96.8445 36.9613 96.5401 35.1579 95.978 33.0267C95.6501 31.7385 95.3456 30.708 95.3222 30.7315C95.2988 30.7549 95.533 31.8088 95.8609 33.0501C96.3527 34.9472 96.423 35.3219 96.259 35.2516C96.1419 35.2048 95.9077 35.1345 95.7203 35.1111C95.5096 35.0642 95.369 34.9471 95.3456 34.7832C94.9474 33.0735 93.2846 23.4007 93.3548 23.19C93.4251 22.9792 93.4017 22.9324 93.2612 23.0026C93.1441 23.0729 93.1206 23.0494 93.1909 22.9558C93.2377 22.8621 92.9567 21.574 92.5585 20.0751C92.0199 18.0375 91.8559 17.288 91.973 17.1709C92.0433 17.0772 92.0901 16.9601 92.0901 16.9133C92.0667 16.843 92.137 16.6556 92.2307 16.4916C92.3478 16.234 92.3478 16.0701 92.2775 15.789L92.137 15.3909L92.1135 15.7657C92.0901 16.3044 91.7154 16.679 91.2001 16.6087C90.8723 16.5619 90.8254 16.5853 90.9191 16.7258C90.9894 16.8195 91.1299 16.8898 91.247 16.8898C91.3641 16.8898 91.4812 17.007 91.5046 17.1475C91.528 17.3114 91.2001 21.5037 90.7551 26.5157L89.9588 35.6029L91.5515 57.4076L93.1441 79.2123L92.582 81.9993L92.0433 84.7629L89.9588 84.6693L87.8744 84.5756L86.9844 83.7559C86.4926 83.3109 82.6984 79.8446 78.553 76.0505L71.0115 69.1414L67.1237 66.9866L63.2358 64.832V64.1059C63.2358 63.7078 63.1187 61.1081 63.0016 58.321L62.7674 53.2621L61.8774 47.8051C61.3856 44.8073 60.9875 42.1373 61.0109 41.9265C61.0343 41.7157 61.1046 41.3879 61.1748 41.2473C61.3622 40.9429 61.3622 40.6149 61.1982 40.3807C61.1046 40.2402 61.0811 40.2871 61.1514 40.5213C61.2451 40.9663 60.7298 41.505 60.2614 41.4113C59.9569 41.3411 59.957 41.3645 60.1677 41.5284C60.2848 41.6221 60.4254 41.6923 60.4956 41.6923C60.5425 41.6923 60.5893 41.8094 60.5893 41.9265C60.5893 42.067 60.6361 42.1607 60.683 42.1607C60.8001 42.1607 60.7298 42.8399 59.9335 48.8591L59.3012 53.7305V58.1571V62.5836L58.5985 62.2323C58.2004 62.0449 56.3033 61.272 54.336 60.546C52.3921 59.8199 50.776 59.211 50.776 59.211C50.7526 59.1876 50.5184 57.8058 50.2608 56.1429L49.769 53.0982L49.3708 52.8406C48.879 52.5361 48.9961 52.419 48.0592 54.1756C47.6845 54.8782 47.3566 55.4403 47.3566 55.4168C47.2395 55.2997 46.7711 51.3416 46.8648 51.3182C46.935 51.2948 47.1458 51.1309 47.3566 50.9669C47.7782 50.5922 48.0358 50.0301 48.0358 49.4915L48.0124 49.0933L47.8485 49.4446C47.544 50.1238 46.8414 50.5687 46.0451 50.5687C45.3424 50.5687 44.7101 50.1238 44.2885 49.3275C44.0543 48.9059 44.0309 49.1167 44.2183 49.7724C44.3588 50.3111 44.9677 51.0372 45.4595 51.2246C45.7874 51.3651 45.8109 51.4119 45.7874 51.8569L45.7406 52.3487H44.9209H44.1012V53.2153V54.0818L43.5156 53.5197L42.9301 52.9577L42.8599 53.2855C42.813 53.4729 42.6491 54.7844 42.4851 56.1897C42.2978 57.5949 42.1338 58.7894 42.087 58.8128C42.0401 58.8597 39.3702 59.6794 36.1615 60.6631C32.9295 61.6233 30.3298 62.4431 30.3532 62.4665C30.3766 62.4899 33.3745 61.6233 37.0047 60.546C40.6349 59.4686 43.6796 58.5786 43.7264 58.5786C43.7967 58.5786 43.8669 58.7894 43.8669 59.0471C43.8669 59.492 43.5859 59.8199 32.789 71.3195C26.6996 77.807 21.6641 83.1235 21.6407 83.1704C21.5939 83.1938 21.3128 81.7183 21.0318 79.8915L20.4931 76.5891L20.6805 70.9916C20.7976 67.9235 20.9147 65.3706 20.9381 65.3472C20.9615 65.3238 21.0318 64.8554 21.0552 64.3402C21.2426 58.9768 22.2028 33.6824 22.3668 29.6307L22.601 24.4079L21.6876 13.1191C21.0786 5.76498 20.7976 1.78351 20.8678 1.68983C20.9381 1.59615 20.9615 1.45564 20.9147 1.36196C20.8678 1.26827 20.9381 1.12769 21.0318 1.05742C21.2191 0.893478 21.266 0.261116 21.102 0.00348663C20.9381 -0.019928 20.9147 0.073822 20.8912 0.308029ZM21.3597 14.9693C21.7578 19.7939 22.0623 23.8927 22.0623 24.08V24.4079L21.4533 24.08C21.102 23.8927 20.5634 23.6818 20.2589 23.5882L19.6734 23.4476L19.7671 22.2531C19.8139 21.5974 20.0013 17.5691 20.1886 13.3065C20.3994 9.04395 20.5634 5.53084 20.5634 5.46058C20.5634 5.27322 20.6336 6.06943 21.3597 14.9693ZM93.6593 27.3822C94.3619 31.3403 94.924 34.6193 94.924 34.713C94.924 34.8535 94.7367 34.9003 94.1512 34.9003C93.5188 34.9003 93.3783 34.8535 93.3783 34.713C93.3783 34.5022 92.1136 20.075 92.0199 19.0913C91.8559 17.4519 92.5585 20.965 93.6593 27.3822ZM92.3243 26.6329C92.6522 30.4036 92.9333 33.823 92.9801 34.1977L93.0504 34.8535L92.3478 34.994C91.973 35.0877 91.3875 35.2516 91.083 35.3687C90.7552 35.4858 90.4741 35.5561 90.4273 35.5327C90.4038 35.4859 90.6615 31.9259 91.0128 27.5697C91.3641 23.2369 91.6686 19.6769 91.692 19.7237C91.7154 19.7472 91.973 22.8621 92.3243 26.6329ZM20.657 24.0331C21.4533 24.2908 21.9452 24.7592 21.9452 25.3213V25.7662L21.5705 25.532C21.1255 25.2744 20.657 25.087 19.9544 24.9231C19.4392 24.7825 19.4392 24.7826 19.4392 24.2673C19.4392 23.6584 19.4392 23.6584 20.657 24.0331ZM20.7741 25.3915C21.547 25.696 21.9452 26.0473 21.9452 26.4923C21.9452 26.6797 21.9218 26.8202 21.8983 26.8202C21.8749 26.8202 21.5705 26.6797 21.2191 26.5157C20.8678 26.3518 20.3526 26.1878 20.0715 26.141C19.5797 26.0707 19.5563 26.0474 19.5563 25.6024C19.5563 25.1808 19.6031 25.1339 19.8607 25.1339C20.0247 25.1574 20.4463 25.251 20.7741 25.3915ZM21.4533 27.0309C21.9218 27.2651 21.9452 27.312 21.9452 27.8039V28.3191L21.4065 28.0381C21.102 27.8976 20.5634 27.7101 20.2121 27.6165L19.5563 27.476V26.9138V26.3518L20.2355 26.5625C20.6336 26.6796 21.1489 26.8904 21.4533 27.0309ZM19.1581 28.6236C19.1113 29.1623 18.7834 39.8186 18.3852 52.3253C17.9871 64.8085 17.6358 75.4181 17.6124 75.8865L17.5421 76.7531H16.3476H15.1532L15.2234 75.6523C15.2703 75.0668 15.809 64.1059 16.4413 51.3182C17.0737 38.5305 17.6358 28.038 17.6826 27.9912C17.7295 27.9444 17.9871 27.8507 18.2916 27.8039C19.2752 27.5697 19.2284 27.5228 19.1581 28.6236ZM19.8842 28.7407C19.8373 29.3497 19.4392 40.3106 18.9942 53.1217C18.5492 65.9328 18.151 76.4721 18.1042 76.5423C18.0573 76.6126 17.9871 76.636 17.9402 76.5891C17.8466 76.5189 19.205 33.1204 19.3923 29.092C19.4626 27.757 19.486 27.6399 19.6968 27.6399C19.9076 27.6399 19.9544 27.7102 19.8842 28.7407ZM21.3362 28.3425L21.7578 28.5767L21.8047 29.6307C21.8281 30.2162 21.7812 30.7314 21.7344 30.7782C21.6641 30.8485 21.3128 30.6846 20.821 30.3802L20.0247 29.8883L20.0949 29.3497C20.1418 29.0452 20.1652 28.6236 20.1652 28.366C20.1652 27.921 20.1652 27.921 20.5399 28.0146C20.7273 28.0615 21.102 28.202 21.3362 28.3425ZM21.0318 30.7549L21.711 31.2233V32.0898C21.711 32.5582 21.6641 33.0033 21.6173 33.097C21.547 33.2141 21.3128 33.1203 20.7741 32.7924L20.0481 32.3709V31.2467C20.0481 30.3801 20.0949 30.1693 20.2121 30.2162C20.2589 30.263 20.657 30.4973 21.0318 30.7549ZM20.9615 33.1672L21.6876 33.6356V34.5959C21.6876 35.1111 21.6407 35.603 21.5939 35.6733C21.5236 35.7669 21.2426 35.6498 20.6805 35.2751L19.8607 34.7598L19.9544 34.1509C20.0013 33.7996 20.0247 33.3312 20.0247 33.0735C20.0481 32.5583 20.0013 32.5348 20.9615 33.1672ZM20.8444 35.7435L21.5939 36.2353V37.1487C21.5939 38.4369 21.547 38.4602 20.5868 37.9216L19.7671 37.4766L19.8607 36.774C19.9076 36.3758 19.931 35.884 19.931 35.6733C19.931 35.4391 19.9778 35.2751 20.0247 35.2751C20.0715 35.2751 20.4228 35.4858 20.8444 35.7435ZM93.1441 35.6498C93.1441 36.048 93.1441 36.048 92.3009 36.2353C91.8325 36.3524 91.2236 36.5398 90.9425 36.6569L90.4038 36.8911L90.4507 36.5163C90.4975 36.0479 90.9659 35.7435 92.0901 35.4391C93.1441 35.1814 93.1441 35.1814 93.1441 35.6498ZM95.8609 35.5562C96.4464 35.7435 96.4698 35.7668 96.4698 36.165C96.4698 36.5163 96.423 36.5866 96.259 36.5163C95.814 36.3524 94.479 36.0948 93.9404 36.0948H93.3783V35.6733V35.2282L94.3151 35.2985C94.8069 35.3453 95.5095 35.4391 95.8609 35.5562ZM95.6969 36.6334C96.4698 36.8442 96.5401 36.9145 96.6337 37.336L96.7274 37.7108L95.8843 37.4298C95.4393 37.2893 94.7132 37.1487 94.2682 37.1253C93.5188 37.1019 93.4954 37.0784 93.4954 36.774C93.4954 36.61 93.5656 36.4226 93.6593 36.3992C93.8701 36.3055 95.0411 36.446 95.6969 36.6334ZM93.3783 36.7037C93.3783 37.0082 93.1909 37.1019 92.418 37.2658C91.9964 37.3595 91.4109 37.5235 91.1533 37.6406L90.638 37.8748V37.5937C90.638 37.2658 90.8722 37.1253 91.8325 36.7974C92.6288 36.5398 93.3783 36.493 93.3783 36.7037ZM93.2612 37.8045C93.2612 38.1558 93.2143 38.2261 92.9801 38.2261C92.6991 38.2261 91.1299 38.6008 90.7317 38.7647C90.5444 38.835 90.5209 38.7882 90.5209 38.4837C90.5209 38.1558 90.5912 38.0855 90.9659 37.9216C91.5046 37.6873 92.4883 37.4298 92.9333 37.4298C93.2377 37.383 93.2612 37.4297 93.2612 37.8045ZM10.2348 43.1679C10.469 45.9081 10.6564 48.2969 10.6564 48.4609V48.7654L10.2114 48.5312C9.95379 48.4141 9.64932 48.297 9.5088 48.297C9.25117 48.297 9.25117 48.2501 9.29801 47.4304C9.34485 46.7512 9.64932 40.0763 9.71958 38.0153C9.743 37.3361 9.78985 37.7109 10.2348 43.1679ZM21.0552 38.6008L21.4768 38.8584L21.4533 39.7719C21.4299 41.1771 21.4065 41.2004 20.5165 40.6149C20.0949 40.3339 19.7436 40.0997 19.6968 40.0997C19.6734 40.0763 19.6968 39.5844 19.7436 38.9755L19.8373 37.8982L20.2355 38.1324C20.4697 38.2261 20.821 38.4369 21.0552 38.6008ZM95.3456 38.6008C95.3924 38.6711 98.9992 78.3691 98.9758 78.7906V79.1186L97.6643 79.1654C96.9382 79.1888 96.3527 79.2123 96.3527 79.1888C96.3527 79.1654 95.9077 72.3968 95.3456 64.0825C94.8069 55.7916 94.198 46.8683 94.0575 44.2451C93.8935 41.622 93.7296 39.2565 93.6827 38.9755L93.6125 38.4603L94.4556 38.5305C94.924 38.5305 95.3222 38.5774 95.3456 38.6008ZM92.5585 38.9522C92.5585 39.1629 92.6054 39.5377 92.6288 39.7719L92.6991 40.1934L91.7857 40.6384C91.2938 40.896 90.8254 41.0833 90.7551 41.0833C90.5444 41.0833 90.6146 39.3503 90.8254 39.1864C90.9894 39.0693 92.2072 38.6243 92.4649 38.6008C92.5117 38.5774 92.5585 38.7648 92.5585 38.9522ZM93.4485 39.4439C93.4954 39.9123 94.0809 48.7888 94.7601 59.1642C95.4393 69.5395 96.0248 78.3223 96.0482 78.697C96.1185 79.3059 96.0951 79.3762 95.8843 79.3762C95.5564 79.3762 95.6969 81.2031 94.1512 58.5084C93.4719 48.3673 92.8864 39.7484 92.8396 39.3268C92.7459 38.6008 92.7693 38.6008 93.0504 38.6008C93.3314 38.6008 93.3783 38.6242 93.4485 39.4439ZM96.3995 38.9522C96.5869 39.0224 96.7274 39.0926 96.7274 39.116C96.7274 39.28 100.194 78.1114 100.241 78.5564L100.311 79.1186H99.8424C99.3974 79.1186 99.374 79.0952 99.3037 78.7204C99.2334 78.3925 95.6735 39.0458 95.6735 38.7882C95.6501 38.7179 95.7906 38.7414 96.3995 38.9522ZM21.0084 41.0833L21.4533 41.3644L21.4299 42.3247C21.4065 42.84 21.3831 43.402 21.3362 43.5425C21.2426 43.8001 21.2191 43.8002 20.4228 43.2615L19.6031 42.7228L19.6968 41.9265C19.7436 41.5049 19.7671 40.9663 19.7671 40.7555V40.3574L20.1652 40.5916C20.3994 40.6853 20.7741 40.9194 21.0084 41.0833ZM92.6757 40.896C92.6757 41.06 92.7225 41.4113 92.7459 41.7157L92.8396 42.2544L91.8793 42.7228C91.3641 42.9804 90.8957 43.1678 90.8488 43.121C90.802 43.0742 90.7786 42.6994 90.7786 42.2544V41.4581L91.6451 41.0366C92.1135 40.8024 92.5351 40.5916 92.6054 40.5916C92.6288 40.5916 92.6757 40.7321 92.6757 40.896ZM92.8396 43.4489L92.9333 44.3389L92.0199 44.7839C91.528 45.0181 91.0596 45.2055 90.9894 45.1586C90.9191 45.1118 90.8723 44.7136 90.8723 44.2686V43.4254L91.8091 42.957C92.3009 42.6994 92.7459 42.512 92.7459 42.512C92.7459 42.5589 92.7928 42.957 92.8396 43.4489ZM20.5634 43.7065L21.3362 44.1984V44.9478C21.3362 45.3459 21.2894 45.8612 21.266 46.0486L21.1957 46.4233L20.3526 45.8613L19.5094 45.2991L19.5797 44.5262C19.6265 44.1047 19.65 43.6362 19.65 43.4723C19.65 43.3318 19.6734 43.2146 19.6968 43.2146C19.7671 43.2146 20.1418 43.4489 20.5634 43.7065ZM92.9567 45.6738C93.0035 46.1657 93.0035 46.6341 92.9333 46.681C92.7693 46.8449 91.3172 47.3835 91.247 47.3133C91.2001 47.2664 91.1533 46.8917 91.1299 46.4233L91.083 45.6036L91.9028 45.182C92.3478 44.9478 92.7693 44.7604 92.7928 44.7604C92.8396 44.7604 92.9099 45.1586 92.9567 45.6738ZM60.9875 52.0208L61.0577 54.3629L60.7298 54.4331C60.5425 54.48 60.3785 54.48 60.3551 54.4566C60.3317 54.4332 60.4254 52.3721 60.5425 49.8661L60.7767 45.3225L60.8469 47.524C60.8704 48.6951 60.9406 50.7327 60.9875 52.0208ZM62.5801 54.1053L62.6035 54.7142L61.9711 54.5269L61.3388 54.3395L61.2685 51.0606C61.2217 49.2572 61.1982 47.2664 61.1982 46.6106L61.2217 45.4162L61.9009 49.468C62.2756 51.6696 62.5801 53.7774 62.5801 54.1053ZM21.1489 47.8286C21.1489 48.4141 21.102 48.9293 21.0786 48.9762C21.0318 49.023 20.657 48.8123 20.2121 48.5546C19.3455 47.9925 19.3689 48.0862 19.5094 46.6341L19.6031 45.7207L20.376 46.2359L21.1489 46.7512V47.8286ZM93.0738 47.6411C93.2143 48.7653 93.2143 48.7185 92.3009 49.1635C91.3172 49.6553 91.247 49.6085 91.247 48.5077V47.7817L92.0667 47.4069C92.5117 47.1961 92.9099 47.0323 92.9333 47.0323C92.9567 47.0089 93.027 47.3132 93.0738 47.6411ZM20.657 49.1869L21.102 49.4446L21.0786 50.2877C21.0552 50.7327 21.0318 51.2714 20.9849 51.4353L20.9147 51.7632L20.2589 51.3417C19.9076 51.1075 19.5329 50.8732 19.4392 50.8264C19.2986 50.7327 19.2986 50.4985 19.3689 49.5851L19.4626 48.4375L19.8373 48.6951C20.0481 48.8122 20.4228 49.0464 20.657 49.1869ZM10.1412 48.8122C10.4925 48.9761 10.6564 49.1401 10.6564 49.304C10.6564 49.4914 10.6096 49.5148 10.3988 49.4446C10.2348 49.3977 9.90695 49.3041 9.64932 49.2338C9.25117 49.1167 9.18091 49.0464 9.20433 48.8356C9.25117 48.4843 9.48538 48.4843 10.1412 48.8122ZM60.2146 51.4822C60.1443 52.7704 60.0741 54.035 60.0272 54.2224C59.9335 54.8313 59.7462 54.6674 59.7462 53.9882C59.7462 53.3792 60.238 48.9996 60.3083 49.0698C60.3083 49.0932 60.2848 50.1707 60.2146 51.4822ZM93.3783 50.5219L93.4017 51.0138L92.4883 51.4588C91.9965 51.7164 91.5515 51.8803 91.5046 51.8569C91.4578 51.81 91.4109 51.3885 91.3875 50.8967L91.3173 50.0066L92.2541 49.5382L93.1909 49.0698L93.2846 49.5617C93.3314 49.8193 93.3783 50.2643 93.3783 50.5219ZM8.99354 49.6319C8.99354 49.7958 8.87644 49.8662 8.50171 49.9364C8.22066 49.9833 7.86935 50.1004 7.65856 50.1941C7.33068 50.358 7.30725 50.358 7.30725 50.1238C7.30725 49.8427 7.49462 49.6788 8.00988 49.5382C8.7125 49.3509 8.99354 49.3743 8.99354 49.6319ZM10.3285 49.7022C10.5159 49.7959 10.6564 49.9832 10.6564 50.1003C10.6564 50.3345 10.633 50.3345 10.1646 50.1003C9.88353 49.9598 9.55564 49.8661 9.46196 49.8661C9.32143 49.8661 9.25117 49.7725 9.25117 49.6086C9.25117 49.3978 9.29801 49.3743 9.64932 49.4446C9.81327 49.5148 10.1412 49.632 10.3285 49.7022ZM10.2114 50.4283C10.4222 50.5454 10.5393 50.6859 10.5393 50.8733V51.1542L9.83669 50.8967C9.25117 50.6859 9.13407 50.5922 9.13407 50.3814C9.13407 50.1238 9.18091 50.1004 9.53222 50.1706C9.69616 50.2175 10.0241 50.3346 10.2114 50.4283ZM8.87644 51.1542C8.87644 51.2713 8.80618 52.7469 8.75934 54.4098C8.61881 57.7121 7.91619 80.3365 7.91619 81.2265V81.7651H7.21357H6.51095V81.2967C6.51095 81.0391 6.86226 74.1534 7.28383 66.003C7.70541 57.8526 8.05672 51.1542 8.05672 51.1542C8.05672 51.1074 8.43145 51.0138 8.73592 50.9904C8.80618 50.9435 8.87644 51.0371 8.87644 51.1542ZM9.43854 52.3956C9.3917 53.1216 9.25117 56.6113 9.08723 60.101C8.92328 63.5907 8.80618 66.2372 8.78276 65.9562C8.75934 65.6751 8.85302 62.4898 8.99354 58.8831C9.13407 55.2529 9.25117 52.0208 9.25117 51.6695C9.25117 51.2714 9.29801 51.0606 9.3917 51.0606C9.48538 51.0606 9.48538 51.4354 9.43854 52.3956ZM10.2348 51.3182C10.5159 51.4353 10.5393 51.529 10.5393 52.1614V52.864L10.0709 52.6064C9.6259 52.3487 9.60248 52.3019 9.60248 51.7632C9.57906 51.1308 9.67274 51.0606 10.2348 51.3182ZM20.376 51.7164L21.102 52.1848L21.0318 53.0748C20.8913 54.6205 20.9381 54.5737 20.1184 54.0116C19.7436 53.7306 19.3923 53.4729 19.3455 53.4026C19.2518 53.2621 19.4392 51.1543 19.5329 51.2011C19.6031 51.2245 19.9778 51.4588 20.376 51.7164ZM93.4251 51.974C93.5891 53.145 93.5891 53.145 92.6522 53.6603L91.7857 54.1287L91.7154 53.8243C91.6685 53.6369 91.6217 53.2387 91.6217 52.9108L91.5983 52.3253L92.418 51.8803C92.863 51.6461 93.2612 51.4353 93.2846 51.4353C93.3314 51.4119 93.3783 51.6695 93.4251 51.974ZM46.4901 51.974C46.5369 52.1613 46.6774 52.9811 46.7945 53.8008C46.9351 54.6206 47.0756 55.4402 47.099 55.6042C47.1693 55.9086 47.1458 55.9321 46.8648 55.9321C46.6072 55.9321 46.5603 55.8618 46.4901 55.534C46.4198 55.1826 45.9514 51.7632 45.9514 51.693C45.9514 51.6696 46.0685 51.6461 46.1856 51.6461C46.3261 51.6461 46.4432 51.7632 46.4901 51.974ZM10.5393 53.7072C10.5393 54.0117 10.4925 54.2693 10.469 54.2693C10.4222 54.2693 10.2114 54.1521 10.0006 54.0116C9.6259 53.7774 9.60248 53.7071 9.60248 53.1684V52.5829L10.0709 52.8406C10.5159 53.1216 10.5393 53.1451 10.5393 53.7072ZM45.1785 55.8384L44.8038 58.9534L42.8599 61.4593C40.9628 63.9185 40.8925 63.9654 40.5178 63.9185C40.307 63.8951 40.1196 63.8482 40.1196 63.8014C40.1196 63.7546 40.9862 62.8412 42.0167 61.7404C43.6327 60.0307 43.9138 59.6794 43.984 59.2813C44.0309 59.0236 44.0777 57.4544 44.1246 55.7682L44.2183 52.7235H44.874H45.5532L45.1785 55.8384ZM49.3005 53.2153C49.4411 53.3324 49.6284 54.1756 49.9563 56.1664C50.2139 57.6887 50.4247 58.9767 50.4013 59.0002C50.3779 59.0236 50.0734 58.9065 49.7221 58.766C49.1366 58.5318 49.0663 58.4615 48.9961 58.0868C48.8321 57.1968 48.27 56.7752 47.1458 56.7752C46.6072 56.7752 46.5603 56.7519 46.5603 56.4942C46.5603 56.26 46.6306 56.1898 46.9351 56.1664C47.2864 56.1195 47.3566 56.0024 48.1529 54.6206C48.6213 53.7774 49.0429 53.0982 49.0663 53.0982C49.0898 53.0748 49.2069 53.1451 49.3005 53.2153ZM46.0919 54.9484C46.209 55.7213 46.3261 56.6581 46.3261 57.0329V57.712L36.8642 70.5934C31.6648 77.6665 27.3319 83.5451 27.2383 83.6153C27.1446 83.709 26.9104 83.7559 26.6527 83.7324L26.2077 83.6857L28.4561 80.7112C29.6974 79.0717 33.9366 73.521 37.8947 68.3919L45.0848 59.0705L45.4361 56.26C45.6235 54.7142 45.8109 53.4729 45.8343 53.4963C45.8577 53.5431 45.9748 54.1756 46.0919 54.9484ZM93.6125 54.8548L93.6359 55.3934L92.7928 55.8384C92.3243 56.096 91.9262 56.2834 91.9028 56.2366C91.8559 56.1897 91.8091 55.7682 91.7622 55.2997L91.692 54.4098L92.582 53.9414L93.4719 53.473L93.5656 53.8945C93.5656 54.1287 93.6125 54.5737 93.6125 54.8548ZM43.9138 55.6979C43.8904 56.3069 43.8669 57.1734 43.8201 57.5949L43.7498 58.3444L43.0706 58.5786C42.6959 58.6957 42.368 58.7894 42.3212 58.766C42.2978 58.7191 42.4383 57.595 42.6256 56.2366C42.813 54.8782 42.977 53.7306 42.977 53.7072C42.977 53.6603 43.1877 53.8476 43.4454 54.1053L43.9138 54.5737V55.6979ZM20.2589 54.4098L21.0318 54.9015L20.9615 55.9555C20.9147 56.541 20.8678 57.0329 20.8444 57.0797C20.7976 57.1032 20.4228 56.9158 20.0013 56.6348C19.2986 56.1898 19.2284 56.096 19.2284 55.7447C19.2284 55.1358 19.3689 53.8945 19.4392 53.8945C19.4626 53.9179 19.8373 54.1288 20.2589 54.4098ZM10.0241 54.6206C10.3754 54.8314 10.3988 54.9016 10.3988 55.534V56.1897L9.93037 55.8618C9.48538 55.5574 9.46196 55.4871 9.46196 54.9484C9.46196 54.644 9.5088 54.3864 9.55564 54.3864C9.60248 54.3864 9.81327 54.5035 10.0241 54.6206ZM61.1748 54.7377C61.1748 54.9719 60.964 55.1124 60.6362 55.1124C60.5425 55.1124 60.4722 54.9953 60.4722 54.8782C60.4722 54.6674 60.5425 54.6206 61.1046 54.5269C61.128 54.5269 61.1748 54.6206 61.1748 54.7377ZM62.3459 54.8548C62.6269 54.9953 62.7206 55.4168 62.463 55.2997C62.3693 55.2763 62.0882 55.1827 61.8072 55.089C61.4559 54.9953 61.2919 54.8782 61.2919 54.7377C61.2919 54.5503 61.3622 54.5269 61.6901 54.5971C61.9009 54.6674 62.1819 54.7611 62.3459 54.8548ZM59.9335 55.2997C59.793 55.4403 59.6993 55.2294 59.793 55.0187C59.8867 54.8079 59.8867 54.8079 59.9335 55.0187C59.9804 55.1358 59.9804 55.2763 59.9335 55.2997ZM62.299 55.5105C62.5332 55.6042 62.7206 55.7681 62.7206 55.8618C62.7206 56.096 62.6972 56.096 62.3459 55.9555C62.1819 55.8852 61.9243 55.815 61.7603 55.7682C61.3856 55.6745 61.3153 55.3466 61.6667 55.3466C61.7838 55.3466 62.0648 55.4168 62.299 55.5105ZM61.1514 55.6042C61.0577 55.8384 60.4722 55.8853 60.4722 55.6511C60.4722 55.5105 60.5893 55.4637 60.8469 55.4637C61.0577 55.4637 61.1748 55.5105 61.1514 55.6042ZM59.8867 55.9789C59.793 56.0726 59.7462 56.0727 59.7462 55.9321C59.7462 55.6979 59.9101 55.534 59.957 55.6979C60.0038 55.7682 59.957 55.9087 59.8867 55.9789ZM93.7296 57.1032C93.6827 57.6184 93.6827 57.6418 92.863 58.0868L92.0199 58.5318L91.9262 58.0868C91.8793 57.8526 91.8325 57.4076 91.8325 57.1032L91.8091 56.5644L92.6757 56.1429L93.5422 55.7213L93.6359 56.1429C93.7062 56.4005 93.753 56.8221 93.7296 57.1032ZM9.88353 56.1897C10.2583 56.4473 10.3051 56.5176 10.3051 57.0797C10.3051 57.431 10.2583 57.712 10.2348 57.712C10.188 57.712 9.97721 57.595 9.76643 57.4545C9.3917 57.2203 9.36827 57.1734 9.36827 56.5644C9.36827 56.2131 9.3917 55.9321 9.43854 55.9321C9.43854 55.9321 9.64932 56.0492 9.88353 56.1897ZM61.1748 56.3537C61.1748 56.541 61.1046 56.6581 61.0109 56.6581C60.9172 56.6581 60.7533 56.705 60.6596 56.7284C60.4956 56.7987 60.4722 56.7049 60.4722 56.4239C60.4722 56.096 60.5191 56.0493 60.8235 56.0493C61.1046 56.0493 61.1748 56.096 61.1748 56.3537ZM62.3693 56.2366C62.7674 56.4474 62.908 56.986 62.5332 56.8221C62.4161 56.7752 62.1117 56.705 61.8774 56.6815C61.5027 56.6113 61.4325 56.5644 61.4325 56.3302C61.4325 56.096 61.5027 56.0493 61.7369 56.0493C61.8774 56.0493 62.1585 56.1429 62.3693 56.2366ZM59.8867 56.9157C59.793 57.0094 59.7462 56.9627 59.7462 56.7519C59.7462 56.3537 59.9101 56.1898 59.957 56.5177C59.9804 56.6816 59.957 56.8455 59.8867 56.9157ZM20.5634 57.4076L20.9147 57.6418L20.8444 58.766C20.7976 59.3749 20.7273 59.9136 20.7039 59.937C20.6805 59.9838 20.3057 59.7496 19.8607 59.4686C18.9942 58.9065 18.9708 58.8831 19.1581 57.2671L19.2518 56.541L19.7436 56.8455C20.0013 57.0095 20.376 57.2671 20.5634 57.4076ZM61.1982 60.2883C61.2217 62.1854 61.2451 63.7312 61.2217 63.7546C61.1983 63.7781 61.0343 63.7077 60.8235 63.5906L60.4488 63.4033V60.2181C60.4488 58.4615 60.4956 56.9861 60.5425 56.9626C60.5893 56.9158 60.7298 56.869 60.8938 56.869H61.1514L61.1982 60.2883ZM62.3927 57.15C62.6738 57.2671 62.7206 57.3373 62.7206 57.7355V58.2039L62.1117 57.9229C61.5496 57.6653 61.4793 57.5949 61.4559 57.2671C61.409 56.8923 61.4325 56.8689 61.7603 56.9392C61.9009 56.986 62.2053 57.0797 62.3927 57.15ZM48.27 57.4076C48.5042 57.5716 48.5745 57.7121 48.5745 58.0166V58.4381L48.0124 58.2039C46.654 57.6652 46.5603 57.595 46.5603 57.3374C46.5603 57.1032 46.6072 57.0797 47.2629 57.1265C47.6377 57.1734 48.0827 57.2905 48.27 57.4076ZM59.9804 60.2181C59.9804 63.1691 59.9804 63.1926 59.7462 63.0755C59.512 62.9584 59.512 62.8177 59.512 60.1712C59.512 57.4076 59.5354 57.3139 59.9101 57.2671C59.957 57.2436 59.9804 58.5786 59.9804 60.2181ZM10.3051 58.6021V59.2578L9.83669 59.0236C9.36827 58.7894 9.36827 58.766 9.36827 58.1337V57.4778L9.83669 57.712C10.2817 57.9462 10.3051 57.9697 10.3051 58.6021ZM53.165 60.4289C55.1323 61.1783 56.7483 61.8576 56.7717 61.9044C56.7952 62.0215 29.7677 80.758 29.6974 80.7112C29.674 80.6878 33.234 75.8397 37.6136 69.9377C41.9933 64.0357 45.7874 58.8832 46.0685 58.5084L46.5603 57.8526L48.0827 58.4381C48.9024 58.766 51.1976 59.656 53.165 60.4289ZM62.8377 59.1173C62.8377 59.3983 62.8143 59.6326 62.7908 59.6326C62.7674 59.6326 62.4395 59.5154 62.0882 59.3749L61.4325 59.1173V58.5552V57.9931L62.1351 58.2975L62.8377 58.6021V59.1173ZM93.9169 58.5084C93.9638 58.7661 93.9872 59.2578 93.9872 59.6326V60.2883L93.1206 60.7567L92.2541 61.2251L92.1604 60.6163C92.1135 60.2884 92.0901 59.7496 92.0667 59.4686L92.0433 58.93L92.863 58.5084C93.308 58.2742 93.7062 58.0633 93.7296 58.0633C93.7998 58.0633 93.8701 58.2742 93.9169 58.5084ZM9.74301 59.3984C10.1646 59.6326 10.1646 59.6794 10.1646 60.3586C10.1646 60.7334 10.1412 61.0613 10.1177 61.0613C10.0709 61.0613 9.86011 60.9441 9.64932 60.8036C9.22775 60.5694 9.22775 60.5225 9.22775 59.8433C9.22775 59.4686 9.25117 59.1407 9.27459 59.1407C9.29801 59.1407 9.53222 59.2578 9.74301 59.3984ZM20.7507 60.8738C20.7507 61.2017 20.7039 61.6936 20.657 61.9746L20.5634 62.4665L19.7905 62.0215C18.9239 61.5063 18.8771 61.4126 19.0176 60.1244L19.1113 59.3984L19.931 59.8433L20.7507 60.2883V60.8738ZM62.2288 59.7966L62.8377 60.0308V60.5928V61.1549L62.1819 60.8505C61.8072 60.6865 61.5027 60.546 61.4793 60.546C61.4559 60.546 61.4325 60.2884 61.4325 60.0073C61.4325 59.7029 61.4793 59.492 61.5261 59.5155C61.5496 59.5389 61.8774 59.656 62.2288 59.7966ZM94.0809 61.881L94.1043 62.6538L93.2612 63.0988C92.7928 63.3564 92.3946 63.5438 92.3712 63.5204C92.3478 63.497 92.3009 63.0519 92.2541 62.5133L92.1604 61.5531L93.027 61.0847C93.8935 60.6163 93.9169 60.5929 93.9872 60.8505C94.034 60.991 94.0809 61.4594 94.0809 61.881ZM62.6972 61.2955C62.9314 61.3891 62.9548 61.4828 62.9548 61.9981V62.5836L62.2522 62.2323C61.5496 61.881 61.5496 61.8809 61.5496 61.3422V60.8036L61.9946 60.9909C62.2288 61.108 62.5332 61.2252 62.6972 61.2955ZM10.1646 62.162C10.1646 62.888 10.188 62.8881 9.55564 62.4665C9.25117 62.2557 9.22775 62.162 9.22775 61.5764V60.9207L9.69616 61.2018C10.1646 61.4594 10.1646 61.4828 10.1646 62.162ZM20.0013 62.4196C20.8678 62.888 20.8444 62.8881 20.6805 64.4573L20.5868 65.1599L19.7671 64.6915C18.9473 64.223 18.9473 64.223 18.9473 63.7312C18.9473 63.1223 19.0879 61.9746 19.1581 61.9746C19.205 61.9981 19.5797 62.1854 20.0013 62.4196ZM57.4978 62.4431C57.4744 62.7475 57.0528 63.0989 54.0784 65.3941C52.2047 66.8227 48.6916 69.5396 46.2793 71.3898C40.2133 76.0505 34.9671 79.9851 33.6087 80.9219C32.2737 81.8588 31.1964 82.8658 30.9856 83.4748C30.845 83.8729 30.7982 83.8964 30.3298 83.8964H29.8145L29.8614 82.5614L29.9082 81.2265L43.6327 71.6942C51.1742 66.448 57.4041 62.1386 57.4509 62.1386C57.4509 62.1152 57.4978 62.2557 57.4978 62.4431ZM62.299 62.5602C62.9314 62.888 62.9548 62.8881 62.9548 63.4033C62.9548 63.6844 62.9314 63.9185 62.908 63.9185C62.8611 63.9185 62.5332 63.778 62.1351 63.6141C61.573 63.3565 61.409 63.2394 61.409 63.052C61.409 62.771 61.5261 62.2791 61.5964 62.2791C61.6198 62.2322 61.9243 62.3728 62.299 62.5602ZM70.4494 72.2563C77.2883 77.5494 82.9561 81.9759 83.0966 82.0695C83.284 82.2569 83.3074 82.4443 83.2839 83.428L83.2371 84.599L70.5197 73.7084C63.5403 67.7127 57.7788 62.7241 57.7554 62.607C57.7086 62.4665 57.7554 62.443 57.8725 62.5133C57.9428 62.5835 63.6106 66.9632 70.4494 72.2563ZM9.69616 62.8178C10.1646 63.052 10.1646 63.0754 10.1646 63.7077C10.1646 64.0591 10.1412 64.3636 10.0943 64.3636C10.0475 64.3636 9.81327 64.2464 9.57906 64.0825C9.13407 63.8249 9.11065 63.8015 9.11065 63.1926C9.11065 62.8647 9.13407 62.5836 9.18091 62.5836C9.20433 62.5836 9.46196 62.7007 9.69616 62.8178ZM65.5779 66.5886L70.871 69.5395L78.834 76.7999C83.2137 80.7814 86.9844 84.2243 87.1952 84.4351L87.6168 84.8098L86.516 84.8332H85.4152V84.3883C85.4152 84.0135 85.3216 83.8495 84.9468 83.4748L84.4784 83.0064V83.873V84.7396H84.1271H83.7758L83.7289 83.3811L83.6821 82.0228L71.4331 72.6076C64.7113 67.4316 59.1372 63.1457 59.067 63.0755C58.9967 63.0052 59.2543 63.1223 59.6056 63.3097C59.9804 63.4736 62.6738 64.9725 65.5779 66.5886ZM70.3089 73.8723L82.8858 84.6225L81.949 84.6693L81.0122 84.7161L79.6303 83.4982C76.1172 80.4535 57.2636 63.2628 57.3104 63.1691C57.3573 63.0989 57.4509 63.0754 57.5446 63.0988C57.6383 63.1222 63.3998 67.9703 70.3089 73.8723ZM94.2682 63.4501C94.3151 63.6609 94.3385 64.0825 94.3151 64.4338L94.2682 65.0193L93.3783 65.3941L92.4883 65.7922L92.3946 65.2301C92.2072 63.8717 92.2072 63.8951 93.1675 63.4501C93.6359 63.2393 94.0575 63.0755 94.1043 63.0755C94.1746 63.0755 94.2448 63.2393 94.2682 63.4501ZM57.568 64.0123L58.0833 64.4807L57.6617 64.832L57.2402 65.1833L57.3104 73.5444L57.3807 81.9057L57.1933 73.6381L57.0294 65.3706L56.4673 64.8086C55.9989 64.3402 55.952 64.2231 56.0925 64.1294C56.2096 64.0591 56.4204 63.9186 56.561 63.7781C56.7249 63.6376 56.8888 63.5438 56.9591 63.5204C57.0059 63.5438 57.2636 63.7547 57.568 64.0123ZM62.9548 64.5275C62.9548 64.8085 62.908 64.8086 62.1819 64.3636C61.7369 64.106 61.5496 63.9186 61.5496 63.7781C61.5496 63.5673 61.6198 63.5672 62.2522 63.942C62.6972 64.1762 62.9548 64.3869 62.9548 64.5275ZM10.0475 65.4877V66.1669L9.60248 65.8859C9.18091 65.6049 9.15749 65.558 9.11065 64.9257L9.06381 64.2465L9.53222 64.5275C10.0475 64.7851 10.0475 64.8085 10.0475 65.4877ZM40.5646 64.3402C40.6583 64.4104 40.6349 64.5041 40.4709 64.6915C40.2836 64.9257 40.1665 64.949 39.7683 64.8788L39.2765 64.7851L39.5341 64.504C39.8152 64.2464 40.2836 64.1762 40.5646 64.3402ZM20.376 65.3238C20.6336 65.5111 20.6336 65.5346 20.5165 66.6822C20.4463 67.3146 20.376 67.8766 20.3292 67.9C20.3057 67.9469 19.9544 67.7127 19.5563 67.4551C18.8302 66.9398 18.8302 66.9399 18.8302 66.3544C18.8302 66.0265 18.8771 65.4643 18.9005 65.1364L18.9942 64.5275L19.5563 64.8553C19.8607 64.9959 20.2355 65.2301 20.376 65.3238ZM55.4368 65.4643C55.062 66.448 55.062 66.4715 55.062 68.5793C55.062 69.7504 55.1089 73.7553 55.1557 77.4557C55.2494 83.4983 55.226 84.2008 55.062 84.2008C54.8981 84.2008 54.8747 83.264 54.8747 75.6289V67.057L54.336 66.4948L53.7973 65.9327L54.7341 65.2301C55.2494 64.8319 55.6944 64.504 55.7412 64.504C55.7647 64.504 55.6475 64.9256 55.4368 65.4643ZM57.0059 74.1534C57.0762 78.9546 57.1699 83.1937 57.2167 83.5919L57.287 84.3414H56.4439H55.5773L55.5539 82.3506C55.5539 81.2499 55.4836 77.2917 55.3899 73.521L55.226 66.6822L55.5773 65.6283L55.9286 64.5744L56.3736 64.9959L56.8186 65.4409L57.0059 74.1534ZM58.7157 66.0733L59.1606 67.2443V75.746V84.2477H58.5283H57.8959L57.8022 81.2967C57.7554 79.6807 57.6617 75.4416 57.5915 71.8582L57.4509 65.3472L57.8022 65.0428C57.9896 64.8788 58.177 64.7852 58.2004 64.832C58.2238 64.8788 58.4814 65.4409 58.7157 66.0733ZM59.9101 66.003L60.3551 66.4011L59.9804 66.8228L59.6056 67.2443L59.6759 69.1648C59.7227 70.2188 59.793 74.0597 59.8164 77.6899L59.9101 84.3179H59.6525H59.3949V75.7226V67.1506L58.9733 66.0967C58.7391 65.5112 58.5517 64.9725 58.5517 64.9257C58.5517 64.832 58.8328 65.0662 59.9101 66.003ZM39.6746 65.1599L40.1196 65.2301L39.862 65.5814C39.6044 65.9327 39.3702 65.9796 38.7144 65.8625L38.3397 65.7688L38.6675 65.4409C39.0189 65.0661 39.0189 65.0428 39.6746 65.1599ZM94.3854 65.5112C94.4322 65.6283 94.4556 66.0264 94.4556 66.448V67.1741L93.6125 67.5722C93.1675 67.7829 92.7693 67.9469 92.7225 67.9235C92.6991 67.9 92.6288 67.4785 92.6054 66.9866L92.5117 66.0967L93.2612 65.7219C94.1512 65.277 94.2917 65.2536 94.3854 65.5112ZM9.53222 66.284C9.88353 66.4948 9.93037 66.5885 9.93037 67.0101C9.93037 67.8298 9.69617 73.1463 9.6259 73.9426L9.55564 74.6687L9.15749 74.411L8.73592 74.1534L8.80618 72.9589C8.85302 72.3031 8.92328 70.4763 8.9467 68.8837C8.99354 67.2911 9.06381 66.003 9.08723 66.003C9.11065 66.0499 9.32143 66.1435 9.53222 66.284ZM38.8315 66.1669H39.2999L39.0891 66.4715C38.9252 66.7057 38.7612 66.7525 38.3865 66.7759C38.1055 66.7759 37.801 66.7291 37.7073 66.7057C37.5434 66.6354 37.5434 66.5885 37.7776 66.3309C37.9415 66.167 38.1289 66.0733 38.2226 66.1201C38.2928 66.1436 38.5739 66.1669 38.8315 66.1669ZM52.9542 67.4316C52.6965 68.345 52.6965 68.4856 52.6965 75.7226V83.1001L52.5794 76.027L52.4623 68.954L51.9237 68.3919C51.6192 68.0874 51.4318 67.783 51.4787 67.7362C51.6894 67.5019 53.165 66.4246 53.1884 66.448C53.2118 66.4714 53.1181 66.9164 52.9542 67.4316ZM54.1252 66.7759L54.5234 67.1506V75.6757V84.2008H53.8442H53.1415L53.0713 81.1562C53.0244 79.4699 52.9776 75.9099 52.9776 73.2166L52.9542 68.3217L53.2821 67.338C53.4694 66.7993 53.6334 66.3544 53.6568 66.3544C53.7036 66.4012 53.9144 66.5651 54.1252 66.7759ZM61.0811 68.2046L61.6198 69.5395L61.6901 76.9404L61.7603 84.3414H61.0577H60.3785L60.3083 83.4748C60.2614 83.0064 60.1677 79.1889 60.0975 74.9966C59.9569 67.6659 59.957 67.338 60.1677 67.1272C60.2848 66.9867 60.4254 66.893 60.4722 66.893C60.4956 66.8696 60.8001 67.4785 61.0811 68.2046ZM8.7125 68.6261C8.68907 68.954 8.66565 68.6964 8.66565 68.064C8.66565 67.4317 8.68907 67.1741 8.7125 67.5019C8.73592 67.8064 8.73592 68.2982 8.7125 68.6261ZM38.4568 67.0803C38.4568 67.1506 38.3631 67.2912 38.2694 67.4083C38.1289 67.5956 37.9649 67.6425 37.4028 67.619C37.0281 67.5956 36.7002 67.5488 36.6768 67.5254C36.6534 67.502 36.7236 67.3614 36.8407 67.2443C37.0047 67.0569 37.2155 67.0101 37.7541 67.0101C38.1523 66.9867 38.4568 67.0335 38.4568 67.0803ZM62.6972 68.6026C62.8377 68.7432 62.8143 68.8134 62.4864 69.0711L62.1117 69.399L62.0882 76.9639L62.0648 84.5287L61.9477 76.9873L61.8306 69.4693L61.4325 68.4388C61.2217 67.8767 61.0109 67.3146 60.9406 67.1741C60.8938 67.0336 61.2217 67.2911 61.6667 67.6893C62.1585 68.1108 62.6035 68.5324 62.6972 68.6026ZM20.1418 68.0875C20.376 68.2046 20.3994 68.3217 20.3994 68.8135C20.376 69.1414 20.3526 69.7269 20.3057 70.1017L20.2355 70.7808L19.5094 70.3359L18.76 69.8908V69.1648C18.76 68.7667 18.8068 68.1811 18.8302 67.9L18.9239 67.338L19.4157 67.6425C19.6265 67.8299 19.9778 68.0172 20.1418 68.0875ZM94.5727 68.2982V68.8837L93.7062 69.3053L92.8396 69.7035L92.7459 69.2585C92.582 68.4153 92.582 68.3919 93.4954 67.9704C93.9638 67.7596 94.4088 67.5956 94.4556 67.619C94.5493 67.6893 94.5727 67.9938 94.5727 68.2982ZM37.5902 68.0406C37.8478 68.1343 37.8478 68.1343 37.6605 68.3919C37.4731 68.6261 37.3794 68.6496 36.7002 68.5793L35.9507 68.4855L36.2084 68.2046C36.4894 67.9469 37.0281 67.8766 37.5902 68.0406ZM51.0805 68.2046C51.0102 68.3685 50.8229 68.8135 50.6589 69.2585L50.3311 70.0313L50.4013 74.5516C50.4482 77.0342 50.5184 80.2194 50.5418 81.5778C50.6121 84.1072 50.6121 84.1072 50.3545 84.1072H50.0968V77.3621V70.6168L49.5348 70.125C48.9727 69.6332 48.9726 69.6332 49.2069 69.4693C49.3474 69.3756 49.8158 69.0008 50.2842 68.6261C50.7526 68.2748 51.1274 67.9704 51.1508 67.9704C51.1742 67.9469 51.1273 68.064 51.0805 68.2046ZM52.275 74.3174C52.3218 77.245 52.3686 80.7112 52.3686 81.9993L52.3921 84.3414H51.5958H50.8229V83.0533C50.8229 82.3506 50.7526 79.1654 50.7058 75.9334L50.5887 70.1017L50.9634 69.1179L51.3381 68.1342L51.7597 68.5559L52.1813 68.9774L52.275 74.3174ZM36.9344 68.8837C37.1686 68.8837 37.1686 68.9072 36.9578 69.2351C36.7236 69.6098 36.5597 69.6567 35.576 69.5161L35.0139 69.4224L35.3418 69.0711C35.6463 68.7432 35.74 68.7198 36.2084 68.7901C36.4894 68.8603 36.8173 68.8837 36.9344 68.8837ZM63.353 70.289L63.798 71.46V77.9007V84.3414H63.0953H62.3927V76.9404C62.3927 70.2421 62.4161 69.5395 62.6035 69.3287C62.7206 69.2116 62.8377 69.1179 62.8845 69.1179C62.8845 69.1179 63.1187 69.6566 63.353 70.289ZM64.9456 70.8043C64.969 70.8511 64.805 71.0151 64.6177 71.1556L64.2664 71.4131L64.2429 77.9241L64.1961 84.4351L64.1258 77.9476L64.0556 71.46L63.6574 70.4061C63.4466 69.8206 63.2827 69.3054 63.2827 69.2819C63.3061 69.2117 64.8987 70.6872 64.9456 70.8043ZM94.6664 70.2655L94.7132 71.2258L93.7998 71.6708L92.9099 72.1157V71.6708C92.9099 71.4366 92.863 70.9682 92.8396 70.6403L92.7693 70.0548L93.5188 69.68C94.5961 69.0945 94.6196 69.1179 94.6664 70.2655ZM36.4192 69.8908C36.4426 69.9142 36.3723 70.0314 36.3021 70.1719C36.1615 70.3827 36.021 70.4295 35.4355 70.4295C35.0373 70.4295 34.5924 70.3826 34.4518 70.3592L34.1708 70.2655L34.4284 70.0079C34.6626 69.7737 34.7563 69.7503 35.5292 69.7971C35.9976 69.844 36.3957 69.8908 36.4192 69.8908ZM48.3403 70.9682L47.989 72.0221V78.0647C47.989 83.3578 47.9656 84.1072 47.8016 84.1072C47.6377 84.1072 47.6143 83.3811 47.6143 78.252V72.3968L47.0756 71.9284L46.5369 71.4366L47.5908 70.6403C48.1529 70.2187 48.6448 69.8674 48.6682 69.8908C48.6682 69.8908 48.5277 70.3826 48.3403 70.9682ZM49.4645 70.3826L49.8626 70.6872V77.3854V84.1072H49.16H48.4574V77.9007C48.4574 71.8347 48.4574 71.6942 48.715 70.8979C48.8555 70.4529 48.9961 70.0782 49.0195 70.0782C49.0429 70.0782 49.2537 70.2187 49.4645 70.3826ZM19.6031 70.6637L20.2823 71.0853L20.2121 73.0995C20.1652 74.2002 20.1418 75.4884 20.1418 75.9099V76.7297H19.2986H18.4555L18.5258 74.2471C18.6194 71.4366 18.7131 70.1485 18.8302 70.1953C18.8771 70.2422 19.2284 70.4529 19.6031 70.6637ZM8.59539 71.46C8.57197 71.7176 8.54855 71.5303 8.54855 71.0853C8.54855 70.6168 8.57197 70.4295 8.59539 70.6403C8.61881 70.8511 8.61881 71.2258 8.59539 71.46ZM35.74 70.7808C35.74 70.8277 35.6463 71.0151 35.5058 71.1556C35.295 71.4366 35.2247 71.4366 34.241 71.4131L33.2105 71.3664L33.5384 71.015C33.8429 70.6872 33.9366 70.6637 34.8031 70.6637C35.3184 70.6637 35.74 70.7106 35.74 70.7808ZM65.6248 72.5139L66.0463 73.6615V79.0483V84.4351H65.3437H64.6411V77.9241C64.6411 71.9987 64.6645 71.4132 64.8519 71.2024C65.0627 70.9682 65.0627 70.9682 65.6248 72.5139ZM67.1237 72.5608C67.1237 72.5843 66.9832 72.795 66.8192 73.0292L66.5147 73.4742V78.9546C66.5147 82.538 66.4679 84.4585 66.3976 84.4585C66.3274 84.4585 66.2805 82.5614 66.2805 79.0249C66.2805 73.8489 66.2571 73.5445 66.0463 72.8653C65.9058 72.4905 65.7184 71.905 65.6248 71.6006L65.4608 71.0385L66.2805 71.7644C66.7489 72.1626 67.1237 72.5374 67.1237 72.5608ZM94.8069 72.6311V73.6148L93.9404 73.9894C93.4719 74.2002 93.0738 74.3641 93.0738 74.3407C93.0504 74.3173 93.0035 73.8723 92.9567 73.3337L92.863 72.35L93.7296 71.9519C94.198 71.7177 94.643 71.5771 94.6898 71.6006C94.7835 71.624 94.8069 72.069 94.8069 72.6311ZM34.7095 71.7411L35.0608 71.8113L34.7797 72.1392C34.4987 72.4671 34.4752 72.4671 33.3979 72.3968L32.2971 72.3266L32.625 71.9753C32.9295 71.6708 33.0232 71.6473 33.6789 71.6473C34.0537 71.6473 34.5221 71.6943 34.7095 71.7411ZM47.38 78.3691V84.1072H46.6774H45.9748V78.9077C45.9748 73.4741 45.9748 73.4976 46.5135 71.9986C46.5603 71.8581 46.6774 71.9284 46.9819 72.2329L47.4035 72.6311V78.3691H47.38ZM45.8343 72.8653C45.6001 73.521 45.6001 73.8489 45.6001 78.8375C45.6001 83.428 45.5767 84.1072 45.4127 84.1072C45.2488 84.1072 45.2253 83.4983 45.2253 79.3528V74.5984L44.6398 74.1065C44.3119 73.8255 44.0543 73.5678 44.0777 73.521C44.148 73.357 46.0216 71.9753 46.0451 72.0924C46.0685 72.1158 45.9748 72.4905 45.8343 72.8653ZM34.1708 72.8653C34.1942 72.8887 34.0771 73.0292 33.9366 73.1931C33.6789 73.5444 33.3979 73.5679 32.0629 73.4508L31.3369 73.3571L31.6648 73.0058L31.9927 72.6545L33.07 72.7482C33.6321 72.795 34.1474 72.8653 34.1708 72.8653ZM67.8966 74.411L68.4352 75.7226V80.0788V84.4585H67.6624H66.8895V79.0249C66.8895 74.2236 66.9129 73.5679 67.0768 73.3102C67.1939 73.1463 67.2876 73.0526 67.3111 73.076C67.3345 73.0994 67.5921 73.7084 67.8966 74.411ZM68.81 74.0597L69.4892 74.6453L69.1847 75.02L68.9037 75.3946V79.9149C68.9037 82.8659 68.8568 84.4585 68.7866 84.4585C68.7163 84.4585 68.6694 82.9361 68.6694 80.0788V75.6992L68.1776 74.5281C67.92 73.8958 67.6624 73.2634 67.6155 73.1697C67.5218 72.9823 67.756 73.1463 68.81 74.0597ZM33.3276 73.8255C33.3511 73.8489 33.2574 74.0362 33.0934 74.2236C32.8124 74.5983 32.8124 74.5984 31.735 74.5984C30.2595 74.5984 30.1424 74.5516 30.6108 74.0832L30.9856 73.7084L32.1332 73.7552C32.7655 73.7552 33.3276 73.8021 33.3276 73.8255ZM43.3517 74.7624L43.0004 75.7694V79.9383C43.0004 83.5686 42.977 84.1072 42.813 84.1072C42.6491 84.1072 42.6256 83.6154 42.6256 80.2662V76.4486L42.0167 75.9099L41.4078 75.3713L42.4617 74.5749C43.0472 74.1533 43.5625 73.8021 43.6093 73.8021C43.6562 73.7552 43.5391 74.2237 43.3517 74.7624ZM95.0411 75.0668V76.2613L94.1746 76.6595C93.7062 76.8937 93.308 77.0575 93.308 77.0341C93.2846 77.0107 93.2377 76.4721 93.2143 75.8163L93.1441 74.6218L93.9404 74.2705C94.3854 74.0597 94.8069 73.8957 94.9006 73.8957C95.0177 73.8723 95.0411 74.2002 95.0411 75.0668ZM44.6164 74.3174L45.0146 74.6218V79.3762V84.1072H44.1714H43.3283V80.0086C43.3283 76.1207 43.3517 75.8865 43.5859 75.2308C43.7264 74.856 43.8904 74.411 43.9372 74.2705C44.0777 73.9426 44.1246 73.9427 44.6164 74.3174ZM9.27459 74.856C9.67274 75.1136 9.69616 75.1605 9.69616 75.8163C9.69616 76.191 9.64932 76.4955 9.6259 76.4955C9.57906 76.4955 9.36827 76.3783 9.15749 76.2378C8.78276 76.0036 8.75934 75.9567 8.75934 75.2775C8.75934 74.9028 8.78276 74.5749 8.8296 74.5749C8.85302 74.5983 9.06381 74.7155 9.27459 74.856ZM32.4376 74.9262C32.625 75.0199 32.625 75.0434 32.3205 75.3244C31.9927 75.6055 31.9458 75.6289 30.6343 75.5821L29.2759 75.5352L29.6037 75.1839C29.9316 74.856 29.9551 74.8326 31.0558 74.856C31.7116 74.856 32.3205 74.9028 32.4376 74.9262ZM70.1918 76.2613L70.6836 77.5025V80.9688V84.4585H69.981H69.2784V79.9383C69.2784 76.7297 69.3252 75.3479 69.4189 75.1137C69.4892 74.9497 69.5828 74.8561 69.6297 74.9029C69.6531 74.9732 69.9107 75.5821 70.1918 76.2613ZM71.6204 76.7297C71.6204 76.7765 71.4799 76.9405 71.316 77.1044L71.0115 77.3854L70.9881 81.0156L70.9647 84.6458L70.8944 81.0156L70.8242 77.3854L70.3792 76.3315C70.1215 75.7694 69.9342 75.2542 69.9342 75.2308C69.9342 75.2073 70.3089 75.4883 70.7773 75.8865C71.2691 76.3081 71.6204 76.6828 71.6204 76.7297ZM31.1729 75.8865L31.7819 75.9802L31.4071 76.4252L31.0324 76.8702L29.5803 76.7766L28.1282 76.6828L28.5732 76.2378C29.0182 75.7928 29.0416 75.7694 29.8145 75.7928C30.2127 75.8163 30.845 75.8397 31.1729 75.8865ZM41.197 75.8163C41.197 75.8397 41.033 76.2847 40.8457 76.8233L40.4944 77.807V80.8752C40.4944 83.5451 40.4709 83.9666 40.307 83.9666C40.1431 83.9666 40.1196 83.5685 40.1196 81.1327V78.2989L39.4639 77.8773L38.8081 77.4557L39.9323 76.6126C40.8925 75.8865 41.197 75.6992 41.197 75.8163ZM41.8528 76.1442L42.2743 76.5189V80.2428V83.9666H41.5717H40.8691V80.7814C40.8691 77.8538 40.8925 77.5259 41.1267 76.6828C41.2907 76.1675 41.4078 75.746 41.4312 75.746C41.4546 75.746 41.6186 75.9568 41.8528 76.1442ZM9.25117 76.636C9.53222 76.8468 9.57906 76.9405 9.57906 77.5728V78.2755L9.11065 78.0413L8.64223 77.807V77.0341C8.64223 76.1909 8.61881 76.191 9.25117 76.636ZM95.3222 78.252L95.369 79.3528H94.4556H93.5188V78.7673C93.5188 78.4394 93.4719 78.0413 93.4485 77.8305C93.3783 77.5026 93.4017 77.4557 94.3151 77.0575C95.369 76.5657 95.2519 76.4486 95.3222 78.252ZM17.4953 79.4465C17.4484 80.8049 17.3781 82.2569 17.3313 82.6785L17.261 83.428L16.9097 83.3577C16.7224 83.3108 15.9026 83.2875 15.0829 83.2875C13.865 83.2875 13.6074 83.2407 13.6074 83.1001C13.6074 82.9362 14.8721 77.4558 14.9658 77.1279C15.0127 77.0342 15.3874 76.9873 16.2774 76.9873H17.5421L17.4953 79.4465ZM19.1347 80.032C19.65 81.7183 20.0949 83.1703 20.1418 83.2406C20.1886 83.3577 19.8842 83.4046 18.9239 83.4046H17.6358L17.7295 80.4068C17.7763 78.7673 17.8466 77.3152 17.87 77.1981C18.0105 76.6126 18.2681 77.1513 19.1347 80.032ZM20.0949 77.2917C20.2121 77.9007 21.1255 83.264 21.1255 83.3811C21.1255 83.5919 20.4463 83.5217 20.376 83.2875C20.3292 83.1704 19.9076 81.7417 19.4157 80.1022C18.9239 78.4628 18.5023 77.0809 18.5023 77.0341C18.5023 76.9873 18.8536 76.9404 19.2518 76.9404C20.0013 76.9639 20.0247 76.9873 20.0949 77.2917ZM30.0722 77.1044H31.0324L30.6811 77.4557C30.3532 77.7836 30.2829 77.807 29.4398 77.807C28.948 77.807 28.2453 77.7602 27.9175 77.7134L27.2851 77.6431L27.613 77.2917C27.9175 76.9639 27.9877 76.9405 28.5498 77.0108C28.8777 77.0576 29.5569 77.1044 30.0722 77.1044ZM72.3231 78.416L72.8149 79.7509V82.1633V84.5756H72.1123H71.4097V80.9688C71.4097 77.4557 71.4565 77.081 71.7844 77.081C71.8078 77.1044 72.0654 77.69 72.3231 78.416ZM73.6581 78.861C73.4473 79.2123 73.1896 79.5168 73.1428 79.4699C73.1194 79.4465 72.8852 78.9312 72.6041 78.3222L72.1123 77.1981L72.9554 77.9241C73.6112 78.5097 73.7517 78.697 73.6581 78.861ZM38.1757 78.697C37.8712 79.423 37.8712 79.5635 37.8712 81.7182C37.8712 83.6387 37.8478 83.9666 37.6839 83.9666C37.5199 83.9666 37.4965 83.6856 37.4965 82.1164V80.2662L36.911 79.8915C36.5831 79.6807 36.3255 79.4464 36.3489 79.3996C36.3957 79.2825 38.3865 77.7836 38.4333 77.8538C38.4802 77.9007 38.3631 78.2754 38.1757 78.697ZM39.2999 78.1115L39.7683 78.4393V81.203V83.9901H38.8783H37.9883V81.812C37.9883 79.751 38.0118 79.6104 38.3162 78.7204C38.5036 78.2286 38.691 77.807 38.7378 77.807C38.7847 77.807 39.0423 77.9475 39.2999 78.1115ZM30.0253 78.252C30.0253 78.3223 29.8614 78.5331 29.674 78.7204L29.3227 79.1186H27.6364H25.9501L26.4185 78.6502L26.8869 78.1818H28.4796C29.3227 78.1584 30.0253 78.2052 30.0253 78.252ZM9.15749 78.5331C9.57906 78.7907 9.57906 78.7907 9.57906 79.6338C9.57906 80.1022 9.53222 80.7815 9.5088 81.1094L9.41512 81.7417H8.9467H8.47829L8.57197 80.8283C8.61881 80.3365 8.64223 79.5636 8.64223 79.0952C8.64223 78.6502 8.66565 78.2755 8.68908 78.2755C8.7125 78.2755 8.92328 78.3926 9.15749 78.5331ZM74.4544 80.4068C74.9462 81.6715 74.9462 81.7417 74.9462 83.1469V84.599H74.1733H73.4004V82.1633C73.4004 80.1023 73.4473 79.6573 73.5878 79.423C73.7049 79.2591 73.822 79.1186 73.8688 79.1186C73.9391 79.1186 74.1967 79.7041 74.4544 80.4068ZM75.9533 80.5472C76.047 80.6877 75.9767 80.8752 75.7191 81.2265L75.3443 81.7182L74.9228 80.6175C74.6886 80.032 74.4544 79.423 74.4075 79.2825C74.3138 79.0483 75.7425 80.1959 75.9533 80.5472ZM28.8309 79.8446C28.6201 80.1256 28.3859 80.4535 28.3156 80.5706C28.1751 80.758 27.9643 80.7815 26.278 80.7581L24.4044 80.7112L25.0133 80.032L25.6456 79.3528H27.4256H29.2056L28.8309 79.8446ZM35.5058 80.5941C35.2013 81.4606 35.1544 81.8354 35.1544 82.7488C35.1544 83.6622 35.1076 83.8495 34.9671 83.8495C34.8266 83.8495 34.7797 83.6622 34.7797 82.983V82.1164L34.1708 81.6715C33.7492 81.3436 33.6087 81.1796 33.7024 81.0859C33.8897 80.8986 35.7868 79.4933 35.8102 79.5402C35.8336 79.5402 35.6931 80.0086 35.5058 80.5941ZM100.1 82.0462C100.615 83.4515 101.06 84.6927 101.084 84.7864C101.131 84.9269 100.756 84.9504 98.929 84.9504C96.9148 84.9504 96.7274 84.927 96.7274 84.7396C96.7274 84.6225 96.6337 83.4749 96.5401 82.1633C96.4464 80.8518 96.3527 79.751 96.3527 79.7041C96.3527 79.6105 97.0553 79.5401 98.32 79.5167L99.1632 79.4933L100.1 82.0462ZM101.412 82.0228C101.95 83.4046 102.442 84.6225 102.489 84.7161C102.559 84.9035 102.465 84.9269 101.95 84.9269C101.622 84.9269 101.341 84.9034 101.341 84.88C101.341 84.8566 100.92 83.6388 100.381 82.1633C99.8658 80.7112 99.4208 79.4934 99.4208 79.4699C99.4208 79.4465 99.6316 79.4465 99.9126 79.4699L100.404 79.5167L101.412 82.0228ZM95.1582 79.6807C95.1582 79.751 94.7132 80.9219 94.1746 82.3272C93.1909 84.88 93.1909 84.8801 92.8162 84.9269C92.6054 84.9503 92.4414 84.9503 92.4414 84.9269C92.4414 84.9035 92.6522 83.7324 92.9099 82.3272C93.1675 80.9219 93.3783 79.7275 93.3783 79.6807C93.3783 79.6339 93.7764 79.587 94.2682 79.587C94.7601 79.587 95.1582 79.6339 95.1582 79.6807ZM96.1185 79.8446C96.1185 80.1725 96.3293 83.1235 96.423 84.1774L96.4932 84.9269H95.0177H93.5422L94.5727 82.257C95.4861 79.8681 95.6266 79.587 95.8609 79.587C96.0482 79.587 96.1185 79.6572 96.1185 79.8446ZM37.0515 82.1633V83.9901H36.2084H35.3652V82.8659C35.3652 81.9057 35.4355 81.6012 35.74 80.7346L36.1147 79.7041L36.5831 80.032L37.0515 80.3599V82.1633ZM27.7535 81.2498C27.613 81.484 27.4725 81.484 25.6456 81.484C23.7017 81.484 23.7017 81.484 23.9125 81.2498C24.1233 81.039 24.2873 81.0156 26.0204 81.0156C27.8706 81.0156 27.894 81.0156 27.7535 81.2498ZM76.8433 82.3506C77.1712 83.1235 77.3351 83.6857 77.3351 84.037V84.5756H76.5622H75.7893V83.0533C75.7893 81.8588 75.8362 81.484 75.9767 81.2498C76.0938 81.1093 76.2109 81.0157 76.2577 81.0859C76.3046 81.1562 76.5856 81.7183 76.8433 82.3506ZM77.8504 82.3037C78.0377 82.4911 78.0377 82.6082 77.944 82.7956C77.8738 82.9361 77.8035 83.3812 77.8035 83.8028C77.8035 84.2478 77.7567 84.5756 77.6864 84.5756C77.6161 84.5756 77.5693 84.318 77.5693 83.9901C77.5693 83.5451 77.4288 83.1235 77.0306 82.257L76.492 81.1094L77.0541 81.5778C77.3819 81.8588 77.7333 82.1632 77.8504 82.3037ZM29.2993 83.8028C29.2759 83.8262 28.8543 83.8027 28.339 83.7793L27.4256 83.709L28.339 82.4912L29.2524 81.2733L29.2993 82.5146C29.2993 83.2172 29.2993 83.8028 29.2993 83.8028ZM27.2383 81.8588C27.1914 81.929 26.4654 81.9759 25.4349 81.9759C24.3809 81.9759 23.7252 81.929 23.7252 81.8588C23.7252 81.7885 24.4044 81.7417 25.5285 81.7417C26.6762 81.7183 27.2851 81.7651 27.2383 81.8588ZM34.0303 82.0462L34.5455 82.3741V83.1704V83.9901H33.5384H32.5313V83.3343C32.5313 82.7488 32.5782 82.6082 32.9295 82.2101C33.1403 81.9525 33.3511 81.7417 33.4213 81.7417C33.4682 81.7183 33.7258 81.8823 34.0303 82.0462ZM23.7017 82.8659C23.8423 83.3109 23.9359 83.709 23.9125 83.7324C23.8891 83.7559 23.3504 83.7559 22.7181 83.7324L21.5705 83.6857L22.437 82.7488C22.9054 82.2336 23.327 81.8588 23.3738 81.9057C23.4207 81.9759 23.5612 82.3975 23.7017 82.8659ZM6.01912 82.2804C5.9957 82.7488 5.66781 84.0135 5.52728 84.1774C5.38676 84.3179 5.38676 84.1541 5.45702 83.2172C5.5507 82.2336 5.59754 82.093 5.78491 82.093C5.92543 82.093 6.01912 82.1633 6.01912 82.2804ZM7.91619 82.4208C7.91619 82.6082 7.86935 82.9361 7.84593 83.1235C7.77567 83.4514 7.72883 83.4982 7.33067 83.4982C7.09647 83.4982 6.72174 83.5451 6.48753 83.6153L6.08938 83.7324L6.18306 83.1704C6.34701 82.0227 6.30016 82.0695 7.14331 82.0695C7.91619 82.093 7.91619 82.093 7.91619 82.4208ZM9.46196 82.7956C9.46196 83.1703 9.57906 84.0135 9.69616 84.6458C9.83669 85.2782 9.93037 85.8404 9.93037 85.9106C9.93037 85.9809 9.67274 86.0277 9.34485 86.0277H8.78276L8.68908 84.9269C8.64223 84.3414 8.57197 83.4514 8.54855 82.9596L8.47829 82.093H8.97012H9.46196V82.7956ZM32.4376 82.2335C32.344 82.3272 32.2971 82.7019 32.2971 83.1235V83.873H31.6882H31.0792L31.2666 83.5451C31.454 83.1938 32.3908 82.093 32.5079 82.093C32.5313 82.093 32.5079 82.1398 32.4376 82.2335ZM73.1428 83.9432C73.1194 84.3179 73.0959 84.037 73.0959 83.3343C73.0959 82.6083 73.1194 82.3037 73.1428 82.6551C73.1662 82.9829 73.1662 83.5685 73.1428 83.9432ZM26.7698 82.4443C26.723 82.5146 26.1141 82.5614 25.3412 82.5614C24.5683 82.5614 23.9594 82.5146 23.9125 82.4443C23.8657 82.374 24.3575 82.3272 25.3412 82.3272C26.3014 82.3272 26.8167 82.374 26.7698 82.4443ZM57.4509 83.8261C57.4275 84.0837 57.4041 83.873 57.4041 83.3811C57.4041 82.8893 57.4275 82.7019 57.4509 82.9362C57.4744 83.1938 57.4744 83.5919 57.4509 83.8261ZM79.5835 84.2243L79.6303 84.7161H78.8574H78.0611V83.9199C78.0611 83.4983 78.1314 83.0298 78.2017 82.9127C78.3188 82.6785 78.3656 82.702 78.9277 83.1938C79.443 83.6388 79.5366 83.7793 79.5835 84.2243ZM26.278 83.1469C26.2312 83.2172 25.7393 83.264 25.1304 83.264C24.498 83.264 24.0765 83.2172 24.0765 83.1469C24.0765 83.0767 24.5449 83.0298 25.2241 83.0298C25.9501 83.0298 26.3248 83.0767 26.278 83.1469ZM8.43145 84.7864C8.50171 85.9808 8.50171 86.0043 8.24408 86.0043C8.00988 86.0043 8.00987 85.9574 8.08014 85.2782C8.12698 84.8801 8.1504 84.2242 8.17382 83.8261C8.17382 82.7253 8.33776 83.3343 8.43145 84.7864ZM25.8096 83.6388C25.7628 83.709 25.388 83.7559 24.9664 83.7559C24.5449 83.7559 24.217 83.709 24.217 83.6388C24.217 83.5685 24.5683 83.5217 25.0601 83.5217C25.5754 83.5217 25.8564 83.5685 25.8096 83.6388ZM85.0639 84.2945C85.0639 84.5756 84.9937 84.6927 84.8766 84.6927C84.736 84.6927 84.6892 84.5522 84.6892 84.1541C84.6892 83.6857 84.7126 83.6153 84.8766 83.7559C84.9702 83.8261 85.0639 84.0837 85.0639 84.2945ZM7.4712 84.7161C7.40094 85.9574 7.37752 86.0043 7.02621 86.0043C6.72174 86.0043 6.72174 86.0043 6.72174 84.9504C6.72174 84.0369 6.74516 83.8729 6.93252 83.8261C7.51804 83.6856 7.51804 83.6856 7.4712 84.7161ZM15.0595 84.9269C15.0595 85.9106 15.0361 86.0043 14.8253 86.0043C14.6145 86.0043 14.5911 85.9106 14.5911 84.9269C14.5911 83.9432 14.6145 83.8495 14.8253 83.8495C15.0361 83.8495 15.0595 83.9432 15.0595 84.9269ZM17.6592 84.9269V86.0043H16.535H15.4108V84.9269V83.8495H16.535H17.6592V84.9269ZM18.3852 84.9269C18.3852 85.7935 18.3384 86.0043 18.1979 86.0043C18.0573 86.0043 18.0105 85.7935 18.0105 84.9269C18.0105 84.0603 18.0573 83.8495 18.1979 83.8495C18.3384 83.8495 18.3852 84.0603 18.3852 84.9269ZM21.102 84.9269V86.0043H19.9076H18.7131V84.9269V83.8495H19.9076H21.102V84.9269ZM21.8281 84.9971C21.8281 85.8168 21.7812 86.0043 21.6407 86.0043C21.5002 86.0043 21.4533 85.8168 21.4533 84.9971C21.4533 84.1774 21.5002 83.9901 21.6407 83.9901C21.7812 83.9901 21.8281 84.1774 21.8281 84.9971ZM24.4512 84.9971V86.0043H23.327H22.2028V84.9971V83.9901H23.327H24.4512V84.9971ZM25.1538 85.0675C25.1538 86.0511 25.1304 86.1448 24.9196 86.1448C24.7088 86.1448 24.6854 86.0511 24.6854 85.0675C24.6854 84.0838 24.7088 83.9901 24.9196 83.9901C25.1304 83.9901 25.1538 84.0604 25.1538 85.0675ZM27.3085 84.1072H27.6598V85.1142V86.1214H26.5825H25.5051V85.044V83.9432L26.2312 84.037C26.6293 84.0604 27.1212 84.1072 27.3085 84.1072ZM6.34701 85.6764C6.32359 85.9575 6.30016 85.6997 6.30016 85.1142C6.30016 84.5287 6.32359 84.2946 6.34701 84.6225C6.37043 84.9504 6.37043 85.4188 6.34701 85.6764ZM28.3624 85.1142C28.3624 86.0511 28.339 86.1214 28.1282 86.1214C27.9175 86.1214 27.894 86.0276 27.894 85.1142C27.894 84.1774 27.9175 84.1072 28.1282 84.1072C28.339 84.1072 28.3624 84.2008 28.3624 85.1142ZM30.7514 85.1142V86.1214H29.674H28.5967V85.1142V84.1072H29.674H30.7514V85.1142ZM31.5711 85.1142C31.5711 86.0511 31.5477 86.1214 31.3369 86.1214C31.1261 86.1214 31.1027 86.0276 31.1027 85.1142C31.1027 84.1774 31.1261 84.1072 31.3369 84.1072C31.5477 84.1072 31.5711 84.2008 31.5711 85.1142ZM33.96 85.1142V86.1214H32.8826H31.8053V85.1142V84.1072H32.8826H33.96V85.1142ZM34.6626 85.2313C34.6626 86.1682 34.6392 86.2385 34.4284 86.2385C34.2176 86.2385 34.1942 86.1447 34.1942 85.2313C34.1942 84.3179 34.2176 84.2243 34.4284 84.2243C34.6392 84.2243 34.6626 84.3179 34.6626 85.2313ZM36.911 85.2313V86.2385H35.9039H34.8968V85.2313V84.2243H35.9039H36.911V85.2313ZM37.8712 85.1846C37.8712 86.0511 37.8478 86.1448 37.637 86.1448C37.4263 86.1448 37.4028 86.0511 37.4028 85.1846C37.4028 84.318 37.4263 84.2243 37.637 84.2243C37.8478 84.2243 37.8712 84.318 37.8712 85.1846ZM40.0025 85.1846V86.1448H39.0423H38.082V85.1846V84.2243H39.0423H40.0025V85.1846ZM80.4969 84.5756C80.5437 84.6459 80.4266 84.6927 80.2627 84.6927C80.0285 84.6927 79.9582 84.6224 79.9582 84.4585C79.9582 84.2477 80.0051 84.2243 80.1924 84.3414C80.3095 84.4117 80.4501 84.5288 80.4969 84.5756ZM40.7286 85.3017C40.7286 86.1682 40.7052 86.2619 40.4944 86.2619C40.2836 86.2619 40.2602 86.1682 40.2602 85.3017C40.2602 84.4351 40.2836 84.3414 40.4944 84.3414C40.7052 84.3414 40.7286 84.4351 40.7286 85.3017ZM42.977 85.3017V86.2619H42.0167H41.0565V85.3017V84.3414H42.0167H42.977V85.3017ZM43.703 85.3017C43.703 86.1682 43.6796 86.2619 43.4688 86.2619C43.258 86.2619 43.2346 86.1682 43.2346 85.3017C43.2346 84.4351 43.258 84.3414 43.4688 84.3414C43.6796 84.3414 43.703 84.4351 43.703 85.3017ZM45.9514 85.3017V86.2619H44.9443H43.9372V85.3017V84.3414H44.9443H45.9514V85.3017ZM46.7945 85.3017C46.7945 86.1682 46.7711 86.2619 46.5603 86.2619C46.3495 86.2619 46.3261 86.1682 46.3261 85.3017C46.3261 84.4351 46.3495 84.3414 46.5603 84.3414C46.7711 84.3414 46.7945 84.4351 46.7945 85.3017ZM48.8087 85.3017V86.2619H47.9187H47.0287V85.3017V84.3414H47.9187H48.8087V85.3017ZM5.73807 86.0511C5.71465 86.3321 5.69123 86.0745 5.69123 85.489C5.69123 84.9035 5.71465 84.6692 5.73807 84.9971C5.76149 85.2782 5.76149 85.77 5.73807 86.0511ZM49.5113 85.4188C49.5113 86.2853 49.4879 86.379 49.2771 86.379C49.0663 86.379 49.0429 86.2853 49.0429 85.4188C49.0429 84.5522 49.0663 84.4585 49.2771 84.4585C49.4879 84.4585 49.5113 84.5522 49.5113 85.4188ZM51.666 85.3484V86.2385H50.776H49.8861V85.3484V84.4585H50.776H51.666V85.3484ZM52.3686 85.3484C52.3686 86.1682 52.3452 86.2385 52.1344 86.2385C51.9237 86.2385 51.9002 86.1447 51.9002 85.3484C51.9002 84.5287 51.9237 84.4585 52.1344 84.4585C52.3452 84.4585 52.3686 84.5521 52.3686 85.3484ZM54.4062 85.4188V86.379H53.5631H52.72V85.4188V84.4585H53.5631H54.4062V85.4188ZM55.226 85.4188C55.226 86.2853 55.2026 86.379 54.9918 86.379C54.781 86.379 54.7576 86.2853 54.7576 85.4188C54.7576 84.5522 54.781 84.4585 54.9918 84.4585C55.2026 84.4585 55.226 84.5522 55.226 85.4188ZM7.75225 85.6764C7.72883 85.8872 7.70541 85.7232 7.70541 85.3017C7.70541 84.8801 7.72883 84.7161 7.75225 84.9035C7.77567 85.1143 7.77567 85.4656 7.75225 85.6764ZM58.6454 84.6927H59.8633V85.5359V86.379H57.6617H55.4602V85.4655V84.5522L56.4439 84.6225C56.9825 84.6693 57.9662 84.6927 58.6454 84.6927ZM60.7064 85.4655C60.7064 86.2853 60.683 86.3556 60.4722 86.3556C60.2614 86.3556 60.238 86.2618 60.238 85.4655C60.238 84.6692 60.2614 84.5756 60.4722 84.5756C60.683 84.5756 60.7064 84.6692 60.7064 85.4655ZM62.7206 85.4655V86.3556H61.8306H60.9406V85.4655V84.5756H61.8306H62.7206V85.4655ZM63.4232 85.5359C63.4232 86.2853 63.3998 86.379 63.189 86.379C62.9782 86.379 62.9548 86.2853 62.9548 85.5359C62.9548 84.7864 62.9782 84.6927 63.189 84.6927C63.3998 84.6927 63.4232 84.7864 63.4232 85.5359ZM65.2032 85.5359V86.379H64.5006H63.798V85.5359V84.6927H64.5006H65.2032V85.5359ZM66.0463 85.5359C66.0463 86.2853 66.0229 86.379 65.8121 86.379C65.6013 86.379 65.5779 86.2853 65.5779 85.5359C65.5779 84.7864 65.6013 84.6927 65.8121 84.6927C66.0229 84.6927 66.0463 84.7864 66.0463 85.5359ZM67.9434 85.5359V86.379H67.1003H66.2571V85.5359V84.6927H67.1003H67.9434V85.5359ZM68.7866 85.5359C68.7866 86.2853 68.7631 86.379 68.5523 86.379C68.3416 86.379 68.3181 86.2853 68.3181 85.5359C68.3181 84.7864 68.3416 84.6927 68.5523 84.6927C68.7631 84.6927 68.7866 84.7864 68.7866 85.5359ZM70.4494 85.5359V86.379H69.7468H69.0442V85.5359V84.6927H69.7468H70.4494V85.5359ZM5.41018 85.7701C5.41018 86.3322 5.36334 86.7303 5.29308 86.7303C5.22281 86.7303 5.17597 86.3322 5.17597 85.7701C5.17597 85.208 5.22281 84.8098 5.29308 84.8098C5.36334 84.8098 5.41018 85.208 5.41018 85.7701ZM71.152 85.653C71.152 86.4024 71.1286 86.4961 70.9178 86.4961C70.707 86.4961 70.6836 86.4024 70.6836 85.653C70.6836 84.9035 70.707 84.8098 70.9178 84.8098C71.1286 84.8098 71.152 84.9035 71.152 85.653ZM73.0491 85.653V86.4961H72.2762H71.5033V85.653V84.8098H72.2762H73.0491V85.653ZM73.6581 85.653C73.6581 86.3088 73.6112 86.4961 73.4707 86.4961C73.3302 86.4961 73.2833 86.3322 73.2833 85.653C73.2833 84.9738 73.3302 84.8098 73.4707 84.8098C73.6112 84.8098 73.6581 84.9972 73.6581 85.653ZM75.438 85.5826V86.3556H74.6651H73.8923V85.5826V84.8098H74.6651H75.438V85.5826ZM76.1406 85.5826C76.1406 86.1916 76.0938 86.3556 75.9533 86.3556C75.8128 86.3556 75.7659 86.1916 75.7659 85.5826C75.7659 84.9737 75.8128 84.8098 75.9533 84.8098C76.1172 84.8098 76.1406 84.9971 76.1406 85.5826ZM11.2419 85.4655C11.2419 85.9574 11.2185 86.0043 10.9375 86.0043H10.633L10.8906 85.4655C11.0311 85.1611 11.1717 84.9269 11.1951 84.9269C11.2185 84.9269 11.2419 85.1845 11.2419 85.4655ZM78.9043 85.0675H80.3095V85.8403V86.6132H78.3422H76.3748V85.7701V84.9035L76.9135 84.9971C77.2414 85.0205 78.1314 85.0675 78.9043 85.0675ZM80.8951 85.6997C80.8951 86.3087 80.8482 86.4727 80.7077 86.4727C80.5671 86.4727 80.5203 86.3087 80.5203 85.6997C80.5203 85.0908 80.5671 84.9269 80.7077 84.9269C80.8716 84.9269 80.8951 85.1142 80.8951 85.6997ZM82.6984 85.6997V86.4727H81.9958H81.2932V85.6997V84.9269H81.9958H82.6984V85.6997ZM83.2839 85.7935C83.2839 86.1917 83.2371 86.4961 83.1668 86.4961C83.0966 86.4961 83.0497 86.1448 83.0497 85.7232C83.0497 85.2314 83.0966 84.9737 83.1668 85.0206C83.2371 85.044 83.2839 85.3954 83.2839 85.7935ZM85.9071 85.6997C85.9071 86.3087 85.8602 86.4727 85.7197 86.4727C85.5792 86.4727 85.5323 86.3087 85.5323 85.6997C85.5323 85.0908 85.5792 84.9269 85.7197 84.9269C85.8602 84.9269 85.9071 85.1142 85.9071 85.6997ZM85.2981 85.8403V86.6132H84.455H83.6118V85.8403V85.0675H84.455H85.2981V85.8403ZM87.3123 85.8403V86.6132H86.7268H86.1413V85.8403V85.0675H86.7268H87.3123V85.8403ZM88.0384 85.8403C88.0384 86.4492 87.9915 86.6132 87.851 86.6132C87.7105 86.6132 87.6636 86.4492 87.6636 85.8403C87.6636 85.2314 87.7105 85.0675 87.851 85.0675C87.9915 85.0675 88.0384 85.2314 88.0384 85.8403ZM89.5841 85.8403V86.6132H88.9283H88.2726V85.8403V85.0675H88.9283H89.5841V85.8403ZM90.1696 85.8872C90.1696 86.4493 90.1228 86.5898 89.9823 86.5898C89.8417 86.5898 89.7949 86.4259 89.7949 85.8872C89.7949 85.3251 89.8417 85.1846 89.9823 85.1846C90.1462 85.1846 90.1696 85.3251 90.1696 85.8872ZM91.9496 85.8872V86.5898H91.247H90.5444V85.8872V85.1846H91.247H91.9496V85.8872ZM92.5585 85.8872C92.5585 86.4493 92.5117 86.5898 92.3712 86.5898C92.2307 86.5898 92.1838 86.4259 92.1838 85.8872C92.1838 85.3251 92.2307 85.1846 92.3712 85.1846C92.5117 85.1846 92.5585 85.3251 92.5585 85.8872ZM94.1043 85.8872V86.5898H93.5188H92.9333V85.8872V85.1846H93.5188H94.1043V85.8872ZM94.6898 85.8872C94.6898 86.2853 94.643 86.5898 94.5727 86.5898C94.5025 86.5898 94.4556 86.2619 94.4556 85.8872C94.4556 85.5124 94.5025 85.1846 94.5727 85.1846C94.643 85.1846 94.6898 85.489 94.6898 85.8872ZM96.3527 85.8872V86.5898H95.6969H95.0411V85.8872V85.1846H95.6969H96.3527V85.8872ZM96.9616 85.8872C96.9616 86.4493 96.9148 86.5898 96.7743 86.5898C96.6337 86.5898 96.5869 86.4259 96.5869 85.8872C96.5869 85.3251 96.6337 85.1846 96.7743 85.1846C96.9148 85.1846 96.9616 85.3251 96.9616 85.8872ZM98.3669 85.8872V86.5898H97.7814H97.1958V85.8872V85.1846H97.7814H98.3669V85.8872ZM101.107 85.8872C101.107 86.4493 101.06 86.5898 100.92 86.5898C100.779 86.5898 100.732 86.4259 100.732 85.8872C100.732 85.3251 100.779 85.1846 100.92 85.1846C101.084 85.1846 101.107 85.3251 101.107 85.8872ZM99.0929 86.0745C99.0929 86.6834 99.0461 86.8474 98.9055 86.8474C98.765 86.8474 98.7182 86.6834 98.7182 86.0745C98.7182 85.4656 98.765 85.3017 98.9055 85.3017C99.0461 85.3017 99.0929 85.4656 99.0929 86.0745ZM100.639 86.0745V86.8474H99.9829H99.3271V86.0745V85.3017H99.9829H100.639V86.0745ZM102.653 85.9574V86.6132H102.067H101.482V85.9574V85.3017H102.067H102.653V85.9574ZM4.59046 86.2385C4.59046 86.7069 4.54361 87.0817 4.47335 87.0817C4.40309 87.0817 4.35625 86.7303 4.35625 86.2385C4.35625 85.7701 4.40309 85.3953 4.47335 85.3953C4.54361 85.3953 4.59046 85.7701 4.59046 86.2385ZM103.379 86.1214C103.379 86.6835 103.332 86.824 103.192 86.824C103.051 86.824 103.004 86.6601 103.004 86.1214C103.004 85.5593 103.051 85.4188 103.192 85.4188C103.332 85.4188 103.379 85.5593 103.379 86.1214ZM105.159 86.1214V86.824H104.386H103.613V86.1214V85.4188H104.386H105.159V86.1214ZM105.744 86.1214C105.744 86.6835 105.698 86.824 105.557 86.824C105.417 86.824 105.37 86.6601 105.37 86.1214C105.37 85.5593 105.417 85.4188 105.557 85.4188C105.721 85.4188 105.744 85.5593 105.744 86.1214ZM107.595 85.9106C107.641 86.1917 107.712 86.5196 107.735 86.6132C107.805 86.8006 107.688 86.824 106.962 86.824H106.119V86.1214V85.4188H106.822H107.524L107.595 85.9106ZM4.0752 87.0348C4.05178 87.2924 4.02836 87.0816 4.02836 86.5898C4.02836 86.098 4.05178 85.9106 4.0752 86.1448C4.09862 86.4025 4.09862 86.8006 4.0752 87.0348ZM3.60679 87.1519C3.58336 87.4095 3.55995 87.2221 3.55995 86.7771C3.55995 86.3087 3.58336 86.1214 3.60679 86.3321C3.63021 86.5429 3.63021 86.9177 3.60679 87.1519ZM4.91834 86.6366C4.89492 86.8005 4.8715 86.7069 4.8715 86.4258C4.84808 86.1682 4.89492 86.0511 4.91834 86.1448C4.94176 86.2619 4.94176 86.4726 4.91834 86.6366ZM3.25548 87.3392C3.23205 87.55 3.20863 87.3861 3.20863 86.9646C3.20863 86.543 3.23205 86.379 3.25548 86.5664C3.2789 86.7771 3.2789 87.1284 3.25548 87.3392ZM14.6379 86.4024C14.6848 86.4492 14.6613 87.6203 14.5442 89.0255L14.3803 91.5549L12.694 91.6018L10.9843 91.6487V91.3442C10.9843 90.8992 11.2185 87.6671 11.2888 86.9177L11.359 86.2853L12.9516 86.3321C13.8416 86.2853 14.5911 86.3321 14.6379 86.4024ZM7.40094 86.5664C7.37752 86.6835 7.30725 87.8779 7.26041 89.2363C7.19015 91.5081 7.16673 91.7189 6.97936 91.7189C6.86226 91.7189 6.67489 91.7657 6.55779 91.8126C6.37043 91.8828 6.37043 91.7189 6.44069 89.4705C6.55779 86.3555 6.53437 86.4024 7.04963 86.4024C7.37752 86.3555 7.44778 86.4024 7.40094 86.5664ZM8.8296 88.8148C7.42436 91.6252 7.49462 91.6486 7.61172 88.4166L7.70541 86.379H8.87644H10.0475L8.8296 88.8148ZM18.0105 86.7537C18.0105 87.3158 17.7763 90.7586 17.706 91.2036L17.6358 91.6018H16.1603H14.6848V91.2036C14.7082 90.8991 15.0127 86.543 15.0361 86.379C15.0595 86.3556 15.7153 86.3556 16.535 86.3556H18.0105V86.7537ZM21.3597 86.8708C21.3362 87.1752 21.0318 91.5549 21.0084 91.6955C20.9849 91.7189 20.3292 91.7423 19.5094 91.7423H18.0339V91.4145C18.0339 90.8758 18.2916 87.0816 18.3384 86.7771C18.3852 86.5195 18.4321 86.5195 19.8607 86.5195H21.3362V86.8708H21.3597ZM24.6854 86.6835C24.6854 86.8006 24.5917 87.9716 24.498 89.2832C24.4044 90.5947 24.3107 91.672 24.3107 91.6955C24.3107 91.7189 23.6315 91.7423 22.8117 91.7423H21.2894L21.4533 89.1192L21.6407 86.4961H23.1631C24.5215 86.4727 24.6854 86.4961 24.6854 86.6835ZM28.0111 86.5664C28.0111 86.6366 27.9175 87.7374 27.8238 89.049C27.7301 90.3605 27.6364 91.5081 27.6364 91.5784C27.6364 91.6955 27.2617 91.7423 26.1609 91.7423C24.6854 91.7423 24.6854 91.7423 24.7322 91.4613C24.7791 91.3207 24.8493 90.1498 24.943 88.8382L25.0836 86.4961H26.5591C27.3319 86.4727 28.0111 86.5195 28.0111 86.5664ZM31.1495 87.105C31.0558 88.0652 30.845 90.8758 30.845 91.2739V91.6018H29.3695H27.8706L27.9409 90.9226C28.0346 89.9624 28.2453 87.105 28.2453 86.7537C28.2453 86.4726 28.2688 86.4727 29.7208 86.4727H31.1964L31.1495 87.105ZM34.3816 86.6835C34.3581 86.8006 34.2645 87.9482 34.1708 89.2363L34.0303 91.5784H32.5548C31.454 91.5784 31.1027 91.5316 31.1027 91.4145C31.1027 91.3442 31.1964 90.2903 31.29 89.0724C31.3837 87.8545 31.4774 86.7771 31.4774 86.66C31.4774 86.4727 31.6413 86.4493 32.9763 86.4493C34.3113 86.4727 34.4284 86.4961 34.3816 86.6835ZM6.20648 88.6977C6.15964 89.8687 6.08938 91.0631 6.06596 91.3676L5.9957 91.9297H3.09153H0.187366V90.7586V89.611L3.18521 88.1121C4.82466 87.269 6.20648 86.6132 6.2299 86.6132C6.27674 86.6132 6.2299 87.55 6.20648 88.6977ZM37.2857 88.7913C37.2857 89.9858 37.2389 91.1334 37.2155 91.3442L37.1452 91.7189H35.74C34.3581 91.7189 34.3347 91.7189 34.3347 91.4378C34.3347 91.2973 34.4284 90.1965 34.5221 88.9786C34.6158 87.7608 34.7095 86.7537 34.7095 86.6835C34.7095 86.6366 35.295 86.5898 36.021 86.5898H37.3326V88.7913H37.2857ZM40.4944 88.1824C40.4944 89.0489 40.4475 90.1965 40.4007 90.7352L40.3304 91.7189H38.9954H37.637V90.0795C37.637 89.1661 37.6839 88.0185 37.7073 87.5266L37.801 86.6132H39.136H40.4944V88.1824ZM43.4688 87.269C43.4688 87.6437 43.4219 88.7913 43.3751 89.8218L43.3048 91.6955H42.0167H40.7286V89.33C40.7286 88.0184 40.7754 86.8708 40.7988 86.7771C40.8691 86.6132 41.1033 86.5898 42.1572 86.5898H43.4454V87.269H43.4688ZM46.373 87.6905C46.3261 88.276 46.3027 89.4003 46.3027 90.1966V91.6018H44.9209H43.5391L43.6327 90.8757C43.6796 90.4776 43.703 89.3535 43.703 88.3698V86.5898H45.0848H46.4666L46.373 87.6905ZM49.1834 89.0957L49.1366 91.6018H47.825H46.5135L46.5837 89.9624C46.6306 89.0724 46.6774 87.9481 46.6774 87.4563V86.5898H47.9656H49.2303L49.1834 89.0957ZM52.1344 88.2995C52.1344 89.2363 52.0876 90.3605 52.0408 90.8055L51.9705 91.6252H50.7526H49.5113V90.4073C49.5113 89.7281 49.5582 88.604 49.605 87.9014L49.6753 86.6366H50.9166H52.1344V88.2995ZM54.9918 87.4095C54.9918 87.8077 54.9449 88.9084 54.8981 89.9155L54.8278 91.7189H53.5865H52.3686V89.5876C52.3686 88.4166 52.4155 87.2924 52.4389 87.0817L52.5326 86.7069H53.7505H54.9918V87.4095ZM57.6851 87.6437C57.6383 88.1356 57.6149 89.2597 57.6149 90.1497V91.7423H56.3502H55.0854L55.1791 91.0163C55.226 90.6181 55.2494 89.4939 55.2494 88.5102V86.7303H56.5141H57.7788L57.6851 87.6437ZM60.3317 89.2128V91.7189H59.1372H57.9428V89.2128V86.7069H59.1372H60.3317V89.2128ZM63.189 89.1661V91.6018H61.9477H60.7064V89.1661V86.7303H61.9477H63.189V89.1661ZM65.695 89.1661V91.6018H64.5708H63.4466V89.1661V86.7303H64.5708H65.695V89.1661ZM68.5523 89.1661V91.6018H67.2876H66.0463V89.1661V86.7303H67.2876H68.5289V89.1661H68.5523ZM70.8007 89.2832V91.7189H69.7234H68.646V89.2832V86.8474H69.7234H70.8007V89.2832ZM73.4238 89.2832V91.7189H72.3465H71.2691V89.2832V86.8474H72.3465H73.4238V89.2832ZM75.7893 89.2832V91.7189H74.712H73.6346V89.2832V86.8474H74.712H75.7893V89.2832ZM78.4124 89.2128V91.6018H77.3351H76.2577V89.2128V86.824H77.3351H78.4124V89.2128ZM80.7779 89.2128V91.6018H79.7006H78.6232V89.2128V86.824H79.7006H80.7779V89.2128ZM83.0497 89.2128V91.6018H82.0427H81.0356V89.2128V86.824H82.0427H83.0497V89.2128ZM85.5323 89.33V91.7189H84.5253H83.5182V89.33V86.9411H84.5253H85.5323V89.33ZM87.9213 89.33V91.7189H86.8439H85.7665V89.33V86.9411H86.8439H87.9213V89.33ZM90.0525 89.33V91.7189H89.0923H88.132V89.33V86.9411H89.0923H90.0525V89.33ZM92.4414 89.33V91.7189H91.4344H90.4273V89.33V86.9411H91.4344H92.4414V89.33ZM94.4556 89.2832V91.6018H93.4954H92.5351V89.2832V86.9646H93.4954H94.4556V89.2832ZM96.704 89.2832V91.6018H95.814H94.924V89.2832V86.9646H95.814H96.704V89.2832ZM98.6245 89.2832V91.6018H97.7814H96.9382V89.2832V86.9646H97.7814H98.6245V89.2832ZM2.17812 88.0418C2.1547 88.2526 2.13128 88.1121 2.13128 87.7139C2.13128 87.3158 2.1547 87.1519 2.17812 87.3159C2.20155 87.5266 2.20155 87.831 2.17812 88.0418ZM100.99 89.4003V91.7189H100.03H99.0695V89.4003V87.0817H100.03H100.99V89.4003ZM103.004 89.4003V91.7189H102.114H101.224V89.4003V87.0817H102.114H103.004V89.4003ZM105.51 89.4003V91.7189H104.433H103.355V89.4003V87.0817H104.433H105.51V89.4003ZM107.759 87.105C107.759 87.1284 107.946 88.159 108.18 89.3768C108.414 90.6181 108.602 91.6253 108.602 91.6487C108.602 91.6721 107.993 91.6955 107.243 91.6955H105.885V89.3768V87.0582H106.845C107.337 87.0816 107.759 87.0816 107.759 87.105ZM1.82681 88.2292C1.80339 88.4166 1.77997 88.2761 1.77997 87.9014C1.77997 87.5266 1.80339 87.386 1.82681 87.5734C1.85023 87.7608 1.85023 88.0419 1.82681 88.2292ZM0.98367 88.5806C0.960249 88.7679 0.936827 88.6508 0.936827 88.3229C0.936827 87.995 0.960249 87.8545 0.98367 87.995C1.00709 88.159 1.00709 88.4166 0.98367 88.5806ZM0.63236 88.4166C0.585518 88.5102 0.562097 88.4869 0.562097 88.3464C0.538676 88.2058 0.585518 88.1355 0.63236 88.1824C0.65578 88.2292 0.65578 88.3229 0.63236 88.4166ZM1.45208 88.4166C1.40524 88.5102 1.38182 88.4869 1.38182 88.3464C1.3584 88.2058 1.40524 88.1355 1.45208 88.1824C1.4755 88.2292 1.49892 88.3229 1.45208 88.4166Z" fill="#737678"/>
<path d="M19.5915 7.382C19.5915 7.52252 19.6383 7.54601 19.6617 7.45233C19.7086 7.35865 19.6851 7.26496 19.6383 7.21812C19.6149 7.1947 19.568 7.26489 19.5915 7.382Z" fill="#737678"/>
<path d="M16.8882 22.3021C16.8882 22.466 16.9116 22.5363 16.9584 22.4426C16.9819 22.3724 16.9819 22.2318 16.9584 22.1381C16.9116 22.0678 16.8882 22.1381 16.8882 22.3021Z" fill="#737678"/>
<path d="M16.7524 23.0043C16.7524 23.1682 16.7759 23.2385 16.8227 23.1448C16.8461 23.0746 16.8461 22.934 16.8227 22.8403C16.7759 22.7935 16.7524 22.8404 16.7524 23.0043Z" fill="#737678"/>
<path d="M16.6367 23.6572C16.6367 23.8446 16.6601 23.9149 16.707 23.7978C16.7304 23.6807 16.7304 23.5167 16.707 23.4465C16.6601 23.3762 16.6367 23.4465 16.6367 23.6572Z" fill="#737678"/>
<path d="M93.4078 23.6817C93.4078 23.8222 93.4546 23.8456 93.478 23.7519C93.5249 23.6582 93.5014 23.5645 93.4546 23.5177C93.4312 23.4709 93.3843 23.5412 93.4078 23.6817Z" fill="#737678"/>
<path d="M93.5314 24.1505C93.5314 24.291 93.5782 24.3144 93.6017 24.2207C93.6485 24.127 93.6251 24.0334 93.5783 23.9865C93.5548 23.9397 93.508 24.01 93.5314 24.1505Z" fill="#737678"/>
<path d="M93.6391 24.6183C93.6391 24.7588 93.6859 24.7822 93.7093 24.6885C93.7562 24.5948 93.7328 24.5011 93.6859 24.4543C93.6625 24.4309 93.6157 24.5012 93.6391 24.6183Z" fill="#737678"/>
<path d="M93.8721 25.4611C93.8721 25.6016 93.9189 25.625 93.9423 25.5313C93.9892 25.4376 93.9658 25.3439 93.9189 25.2971C93.8955 25.2503 93.8721 25.3206 93.8721 25.4611Z" fill="#737678"/>
<path d="M93.9957 25.9309C93.9957 26.0714 94.0426 26.0948 94.066 26.0011C94.1128 25.9074 94.0894 25.8137 94.0426 25.7669C94.0192 25.72 93.9957 25.7903 93.9957 25.9309Z" fill="#737678"/>
<path d="M94.1115 26.3986C94.1115 26.5392 94.1583 26.5625 94.1817 26.4689C94.2286 26.3752 94.2051 26.2815 94.1583 26.2347C94.1349 26.2112 94.1115 26.2815 94.1115 26.3986Z" fill="#737678"/>
<path d="M94.3098 27.0539C94.3567 27.2881 94.4503 27.5692 94.4972 27.7098C94.5675 27.8737 94.5909 27.8268 94.544 27.5223C94.4972 27.2881 94.4035 27.0071 94.3567 26.8666C94.263 26.7027 94.263 26.7729 94.3098 27.0539Z" fill="#737678"/>
<path d="M94.6166 28.179C94.6166 28.3196 94.6635 28.3429 94.6869 28.2493C94.7337 28.1556 94.7103 28.0619 94.6635 28.015C94.64 27.9916 94.5932 28.0619 94.6166 28.179Z" fill="#737678"/>
<path d="M94.698 28.5313C94.698 28.7421 95.2133 30.6157 95.2601 30.5923C95.3069 30.522 94.8385 28.5782 94.7448 28.5079C94.7214 28.4611 94.698 28.4845 94.698 28.5313Z" fill="#737678"/>
<path d="M16.0543 33.6362C16.0543 34.292 16.0777 34.5496 16.1012 34.1982C16.1246 33.8469 16.1246 33.3082 16.1012 33.0038C16.0777 32.6993 16.0543 33.0038 16.0543 33.6362Z" fill="#737678"/>
<path d="M15.844 37.1012C15.7972 38.3191 15.7737 39.3262 15.8206 39.3731C15.844 39.4199 15.9143 38.4362 15.9611 37.2183C16.0079 36.0005 16.0314 34.9934 15.9845 34.9466C15.9611 34.8998 15.8908 35.8834 15.844 37.1012Z" fill="#737678"/>
<path d="M15.552 42.9107C15.4583 44.7844 15.4115 46.3301 15.4583 46.3535C15.5052 46.4004 15.5988 44.9015 15.6691 43.0278C15.7628 41.1542 15.8096 39.6084 15.7628 39.585C15.7159 39.5615 15.6223 41.0605 15.552 42.9107Z" fill="#737678"/>
<path d="M8.31278 43.2848C8.31278 43.4253 8.35962 43.4487 8.38304 43.355C8.42988 43.2613 8.40646 43.1676 8.35962 43.1208C8.3362 43.074 8.28936 43.1443 8.31278 43.2848Z" fill="#737678"/>
<path d="M8.18274 43.918C8.18274 44.0819 8.20616 44.1522 8.253 44.0585C8.27642 43.9882 8.27642 43.8478 8.253 43.7541C8.20616 43.7072 8.18274 43.754 8.18274 43.918Z" fill="#737678"/>
<path d="M8.04712 44.645C8.04712 44.809 8.07054 44.8793 8.11738 44.7856C8.1408 44.7153 8.1408 44.5747 8.11738 44.4811C8.07054 44.4108 8.04712 44.4811 8.04712 44.645Z" fill="#737678"/>
<path d="M7.94974 45.3005C7.94974 45.441 7.99658 45.4645 8.02001 45.3708C8.06685 45.2771 8.04343 45.1834 7.99658 45.1366C7.97316 45.1132 7.92632 45.1834 7.94974 45.3005Z" fill="#737678"/>
<path d="M7.84363 45.9556C7.84363 46.1196 7.86705 46.1898 7.91389 46.0962C7.93731 46.0259 7.93731 45.8853 7.91389 45.7916C7.86705 45.7214 7.84363 45.7917 7.84363 45.9556Z" fill="#737678"/>
<path d="M7.69202 46.6101C7.69202 46.7506 7.73886 46.7741 7.76228 46.6804C7.80912 46.5867 7.7857 46.4931 7.73886 46.4462C7.71544 46.4228 7.69202 46.493 7.69202 46.6101Z" fill="#737678"/>
<path d="M7.5603 47.3372C7.5603 47.4778 7.60714 47.5011 7.63057 47.4075C7.67741 47.3138 7.65398 47.2201 7.60714 47.1733C7.58372 47.1264 7.5603 47.1967 7.5603 47.3372Z" fill="#737678"/>
<path d="M7.47253 47.9705C7.47253 48.1344 7.49596 48.2046 7.5428 48.1109C7.56622 48.0407 7.56622 47.9002 7.5428 47.8065C7.49596 47.7362 7.47253 47.8065 7.47253 47.9705Z" fill="#737678"/>
<path d="M6.98026 53.9879C6.98026 54.1284 7.0271 54.1519 7.05052 54.0582C7.09736 53.9645 7.07394 53.8709 7.0271 53.824C7.00368 53.7772 6.95684 53.8474 6.98026 53.9879Z" fill="#737678"/>
<path d="M6.97388 54.5044C6.97388 54.6684 6.9973 54.7387 7.04414 54.645C7.06756 54.5747 7.06756 54.4341 7.04414 54.3405C6.9973 54.2936 6.97388 54.3405 6.97388 54.5044Z" fill="#737678"/>
<path d="M6.88611 56.2851C6.88611 56.8472 6.90953 57.0813 6.93295 56.7769C6.95637 56.4958 6.95637 56.0509 6.93295 55.7698C6.90953 55.5122 6.88611 55.723 6.88611 56.2851Z" fill="#737678"/>
<path d="M29.4463 62.7695C29.212 62.8632 29.1184 62.9335 29.212 62.9335C29.3057 62.9335 29.5868 62.8632 29.7976 62.7695C30.0318 62.6758 30.1255 62.6056 30.0318 62.6056C29.9381 62.6056 29.657 62.6758 29.4463 62.7695Z" fill="#737678"/>
<path d="M28.2574 63.1226C28.0232 63.2163 27.9295 63.2866 28.0232 63.2866C28.1169 63.2866 28.3979 63.2163 28.6087 63.1226C28.8195 63.0289 28.9366 62.9587 28.8429 62.9587C28.7492 62.9587 28.4916 63.0523 28.2574 63.1226Z" fill="#737678"/>
<path d="M27.0684 63.4747C26.8342 63.5684 26.7406 63.6387 26.8342 63.6387C26.9279 63.6387 27.209 63.5684 27.4198 63.4747C27.654 63.381 27.7476 63.3108 27.654 63.3108C27.5603 63.3108 27.3027 63.4044 27.0684 63.4747Z" fill="#737678"/>
<path d="M25.8596 63.8467C25.6254 63.9404 25.5317 64.0107 25.6254 64.0107C25.7191 64.0107 26.0001 63.9404 26.2109 63.8467C26.4451 63.753 26.5388 63.6827 26.4451 63.6827C26.3514 63.6827 26.0938 63.753 25.8596 63.8467Z" fill="#737678"/>
<path d="M24.8654 64.13C24.7014 64.2002 24.7014 64.2471 24.7951 64.2471C24.8888 64.2471 25.0762 64.2002 25.2167 64.13C25.3806 64.0597 25.3806 64.0129 25.2869 64.0129C25.1933 64.0363 25.0059 64.0831 24.8654 64.13Z" fill="#737678"/>
<path d="M23.6924 64.503C23.5285 64.5733 23.5285 64.6201 23.6221 64.6201C23.7158 64.6201 23.9032 64.5733 24.0437 64.503C24.2077 64.4328 24.2077 64.3859 24.114 64.3859C23.9969 64.3859 23.8095 64.4328 23.6924 64.503Z" fill="#737678"/>
<path d="M22.5034 64.8551C22.3395 64.9254 22.3395 64.9722 22.4332 64.9722C22.5269 64.9722 22.7142 64.9254 22.8547 64.8551C23.0187 64.7848 23.0187 64.738 22.925 64.738C22.8313 64.738 22.6205 64.7848 22.5034 64.8551Z" fill="#737678"/>
<path d="M21.2986 65.2072C21.1347 65.2775 21.1347 65.3243 21.2283 65.3243C21.322 65.3243 21.5094 65.2775 21.6499 65.2072C21.8139 65.1369 21.8139 65.0901 21.7202 65.0901C21.6265 65.0901 21.4391 65.1369 21.2986 65.2072Z" fill="#737678"/>
</svg>
