<svg width="130px" height="92px" viewBox="0 0 130 92" fill="none" xmlns="http://www.w3.org/2000/svg" transform="rotate(0) scale(1, 1)">
<path d="M64.6758 0.0125351C63.4528 0.121109 60.6156 0.555443 59.2704 0.881165C54.9167 1.88545 51.15 3.70403 48.1171 6.30975C45.3533 8.67118 42.6383 12.5255 41.1463 16.2441C39.3364 20.7769 38.4803 25.0655 38.3825 30.5483L38.3091 33.2356L37.4286 33.6969L36.5236 34.1856L33.4907 33.3713L30.4578 32.584L27.1559 34.4298L23.8539 36.2755L20.2585 60.6228C18.3017 74.0314 16.6875 84.9971 16.6875 85.0514C16.6875 85.1057 15.2444 85.1328 13.5078 85.1328H10.3526L10.3037 85.377C10.2792 85.5399 10.2059 85.8927 10.1814 86.1913C10.1325 86.4899 10.0591 86.7886 9.98572 86.8428C9.91235 86.8971 7.71105 87.5214 5.06949 88.2C2.42793 88.8786 0.177715 89.4757 0.0554207 89.5571C-0.0913325 89.6114 0.0554209 89.6385 0.471222 89.6385C0.813646 89.6385 13.7769 90.1813 29.2593 90.8328L57.4359 92L61.6184 91.8371C72.6494 91.3485 129.296 88.7156 129.712 88.6613C130.152 88.6071 129.957 88.5257 126.459 87.1957L122.717 85.7842V85.2143V84.6442H119.268C116.088 84.6442 115.819 84.6442 115.77 84.427C115.746 84.3184 113.911 73.027 111.735 59.347C109.533 45.667 107.699 34.4298 107.674 34.3755C107.626 34.3212 105.816 33.4798 103.639 32.4755L99.6764 30.657L96.0565 31.8513C93.7574 32.6113 92.3388 33.0184 92.1675 32.9641L91.923 32.8826V30.3584C91.923 25.8527 91.4338 22.3783 90.3576 18.7411C87.5448 9.37684 80.4762 2.94397 70.5459 0.691109C68.5647 0.256821 65.7764 -0.0688934 64.6758 0.0125351ZM68.7115 0.908333C75.2175 2.15691 80.4028 4.84406 84.3162 9.05121C86.0773 10.9241 87.3492 12.797 88.4009 15.0498C89.0368 16.4341 90.0641 19.3927 89.9418 19.5284C89.9173 19.5555 89.526 19.2841 89.0857 18.9312C84.4141 15.2126 77.5411 12.7698 69.7143 12.0369C68.0266 11.8741 62.4989 11.8741 60.6401 12.0369C52.1528 12.7426 45.1087 15.2669 40.9507 19.0397C40.6082 19.3383 40.3392 19.5555 40.3392 19.5284C40.3392 19.3384 41.4154 16.7055 42.0024 15.457C45.6712 7.58552 51.2723 3.07968 59.6372 1.23396C62.9881 0.446823 65.8498 0.365471 68.7115 0.908333ZM69.7632 12.4712C77.8102 13.177 84.7076 15.6741 89.4281 19.6369C89.8439 19.9898 90.2353 20.3698 90.2842 20.4784C90.431 20.8041 90.9935 23.9255 91.1892 25.5812C91.287 26.3684 91.3849 28.3226 91.4093 29.8969L91.4827 32.7741L90.7734 32.5027L90.0641 32.2312L90.0396 30.5213C90.0396 29.5713 89.9662 28.7298 89.9173 28.6755C89.8684 28.6212 89.8929 28.3498 89.9907 27.9969C90.431 26.4769 89.2569 24.7398 88.0095 25.1469C87.2024 25.3912 86.8844 26.0426 87.0556 27.1555C87.1779 27.9426 87.1046 31.2812 86.9823 31.2812C86.9089 31.2812 86.8844 30.5484 86.8844 29.3812C86.8844 27.5898 86.8844 27.4541 86.6643 27.3998C86.4686 27.3184 86.4686 27.2912 86.5909 26.9112C86.8355 26.2326 86.8844 25.7441 86.7377 25.2012C86.5665 24.4412 86.4931 24.4955 86.4931 25.4183C86.4931 26.0155 86.4197 26.3955 86.273 26.7483L86.0528 27.237L86.2974 27.3727C86.542 27.4812 86.542 27.5355 86.542 29.1912C86.542 30.114 86.542 30.8741 86.5175 30.8741C86.4931 30.8741 85.9795 30.6569 85.3435 30.4126L84.194 29.9513L84.1695 28.2683L84.145 26.5584L84.4141 26.6398L84.6587 26.7213L84.4141 26.0427C84.2673 25.6084 84.1695 25.147 84.1695 24.6856C84.1695 24.1156 84.2184 23.9798 84.4385 23.7084L84.7076 23.4098L84.3652 23.4912C83.9738 23.5726 83.7782 23.7355 83.5336 24.1697L83.3624 24.4955L83.289 23.9526C83.2156 23.3012 82.971 22.7855 82.5552 22.2969C82.115 21.7812 81.6502 21.5912 80.9654 21.5912C80.4518 21.5912 80.3539 21.6455 80.0359 21.9713C79.6201 22.4327 79.4245 23.1655 79.4978 23.9526C79.5468 24.3869 79.5223 24.4955 79.4245 24.387C79.3511 24.3055 79.2533 24.2512 79.2043 24.2512C79.1554 24.2512 79.131 25.0926 79.131 26.0969C79.131 27.1012 79.1065 27.9427 79.0576 27.9427C78.9842 27.9427 75.4621 26.7756 75.3888 26.7213C75.3643 26.7213 75.242 25.2555 75.0708 23.5183L74.7773 20.3155L68.1245 17.4655C64.4556 15.8912 61.4227 14.6155 61.3983 14.6155C61.3004 14.6155 50.7342 20.7769 50.5875 20.9126C50.5141 20.994 50.4162 21.8626 50.3429 23.5455C50.2695 24.9026 50.1961 26.314 50.1717 26.6398L50.1227 27.2098L49.34 27.6441C48.8998 27.8884 48.5329 28.0784 48.5084 28.0784C48.484 28.0784 48.4595 27.4812 48.4595 26.7483C48.4595 25.4997 48.4595 25.4183 48.2639 25.4183C48.0927 25.4183 48.0437 25.3098 47.9948 24.7398C47.8481 23.4369 47.4323 22.8941 46.6251 23.0026C45.5734 23.1384 44.913 24.0341 44.8396 25.4727C44.8152 26.1241 44.7662 26.3141 44.6439 26.3141C44.5217 26.3141 44.4972 26.2055 44.5706 25.6898C44.6684 24.794 44.4483 24.2784 43.8613 23.9798C43.0297 23.5727 42.3448 24.0069 42.0513 25.1197C41.9046 25.7169 41.9046 26.5583 42.0758 27.0469C42.1002 27.1283 42.0758 27.237 41.9779 27.2641C41.8801 27.3184 41.8312 27.1826 41.8312 26.7483C41.8312 26.2597 41.7823 26.1241 41.5377 25.8798C40.9507 25.3098 39.9478 25.6083 39.6299 26.4769C39.4587 26.9112 39.4342 27.7527 39.581 28.187C39.6543 28.4041 39.6543 28.5398 39.532 28.6755C39.4098 28.8383 39.3853 29.3541 39.3853 30.7655V32.6384L39.1162 32.7741C38.8717 32.9098 38.8472 32.8826 38.7983 32.4755C38.7004 31.9326 38.8227 28.947 39.0184 26.9927C39.1896 25.2284 39.581 23.057 39.9478 21.5641C40.168 20.6413 40.2414 20.5327 40.8039 19.9355C41.5866 19.0941 43.5188 17.6826 44.9619 16.8955C49.071 14.5883 54.2318 13.1498 60.1264 12.5798C62.1565 12.3355 67.9043 12.3084 69.7632 12.4712ZM60.8846 51.5841C60.689 69.7427 60.5178 84.6442 60.4688 84.6984C60.4199 84.7527 55.8461 84.807 50.2939 84.8342L40.168 84.8885V77.8313C40.1435 60.297 39.2385 50.3898 37.5509 48.897C35.3985 47.0241 32.4879 58.3427 29.2593 81.3056C29.0392 82.9613 28.8191 84.427 28.7946 84.5899L28.7457 84.8342H22.9489C19.7693 84.8342 17.1522 84.8071 17.1522 84.78C17.1522 84.7528 18.742 73.977 20.6498 60.8127C22.5576 47.6484 24.1474 36.8455 24.1474 36.7912C24.1474 36.6826 29.7974 33.5341 29.8708 33.6156C29.8953 33.6427 29.8219 34.7284 29.724 36.0312C29.6017 37.307 29.5284 38.3926 29.5284 38.4198C29.5528 38.4741 50.3184 27.4541 50.4162 27.3183C50.4652 27.2641 50.563 25.8798 50.6364 24.1969C50.7097 22.514 50.8076 21.1298 50.8565 21.0755C50.9054 21.0483 53.229 19.6641 56.0662 18.0355L61.2026 15.0769L61.2271 16.8141C61.2271 17.7641 61.0803 33.4255 60.8846 51.5841ZM67.9533 17.8183C71.3041 19.2298 74.068 20.4241 74.1169 20.4784C74.1658 20.5327 74.337 21.9712 74.4838 23.6812C74.7039 26.0698 74.8017 26.8026 74.924 26.884C75.1442 27.0197 83.0444 30.0055 83.1911 30.0055C83.2401 30.0055 83.289 29.0284 83.289 27.6441C83.289 26.3684 83.3379 25.4184 83.3624 25.5812C83.4113 25.7441 83.4113 26.8569 83.3868 28.0241C83.3379 29.6255 83.3624 30.1683 83.4602 30.1683C83.5336 30.1683 87.3247 31.607 91.8985 33.3441C96.4723 35.0813 100.239 36.4655 100.288 36.4384C100.312 36.4112 100.263 35.2169 100.141 33.8055C100.043 32.3669 99.9455 31.1999 99.9455 31.1999C99.9699 31.1456 107.259 34.4298 107.357 34.5112C107.503 34.6741 115.477 84.3457 115.355 84.4C115.208 84.4814 100.508 84.6171 100.41 84.5085C100.361 84.4814 100.043 82.7714 99.7009 80.7357C97.6219 68.6571 95.4206 58.5599 93.7329 53.4299C93.1459 51.6385 92.1675 49.4399 91.7028 48.8156C90.9691 47.8656 90.2598 47.7027 89.6972 48.3541C88.2786 50.0098 87.4225 55.4927 86.9333 66.3228C86.86 67.8971 86.8111 72.4028 86.7866 76.8813V84.7256L82.7264 84.8071C80.5007 84.8614 74.6795 84.8885 69.8121 84.8885H60.9825L61.1537 67.7613C61.2515 58.3427 61.3983 43.5498 61.4961 34.8912C61.5939 26.2597 61.6673 18.307 61.6673 17.2213C61.6673 15.8098 61.6918 15.2941 61.7896 15.2941C61.8385 15.2398 64.6269 16.4069 67.9533 17.8183ZM81.7236 22.2155C82.2372 22.5141 82.6041 23.0569 82.7753 23.7626C82.8976 24.3055 82.8487 25.4455 82.702 25.8255C82.653 25.9612 82.702 26.0426 82.8487 26.0969C83.0688 26.1783 83.0688 26.2598 83.0688 27.9155C83.0688 29.2184 83.0444 29.6526 82.9465 29.6255C82.8732 29.6255 82.1149 29.3541 81.2344 29.0284L79.6691 28.4312L79.6446 26.884C79.6201 25.364 79.6201 25.3369 79.8403 25.3912C80.0359 25.4454 80.0359 25.4183 79.9626 24.984C79.8403 24.1969 79.8892 23.1383 80.0849 22.6769C80.3784 21.9712 80.9898 21.8084 81.7236 22.2155ZM47.31 23.6812C47.4567 23.9255 47.5056 24.2241 47.4812 25.0655C47.4812 26.0698 47.4812 26.1512 47.6524 26.0969C47.8481 26.0155 47.8481 26.0969 47.8481 27.1555V28.2955L46.6251 28.9197C45.9647 29.2455 45.3288 29.5712 45.2554 29.5983C45.1576 29.6526 45.1087 29.3813 45.1087 28.3227C45.1087 27.3727 45.1576 26.9655 45.231 26.9384C45.3043 26.9112 45.3533 26.5312 45.3777 25.7169C45.3777 24.4141 45.4755 24.1426 46.1604 23.6269C46.6496 23.274 47.0654 23.2741 47.31 23.6812ZM43.9591 24.8483C44.3015 25.0926 44.326 26.2598 43.9836 26.9655C43.8368 27.2641 43.8368 27.2913 44.0814 27.237C44.2771 27.1827 44.3015 27.237 44.3015 28.5941V30.0055L43.421 30.4669C42.9318 30.7112 42.4916 30.9284 42.4916 30.9284C42.4671 30.9284 42.4426 30.2227 42.4426 29.3812C42.4426 28.1598 42.4671 27.8069 42.5894 27.6983C42.7362 27.5626 42.7362 27.5084 42.5894 27.2098C42.247 26.5041 42.4426 25.2555 42.9318 24.9298C43.1275 24.7398 43.7879 24.7126 43.9591 24.8483ZM88.9145 25.5269C89.4771 25.8526 89.795 27.1283 89.526 27.9697C89.4526 28.214 89.3548 28.5127 89.3059 28.6213C89.2569 28.757 89.3059 28.8383 89.5015 28.9469C89.7706 29.0826 89.7706 29.0827 89.7706 30.6027C89.7706 31.4169 89.7461 32.1227 89.6972 32.1227C89.6483 32.1227 89.1591 31.9327 88.621 31.7155L87.6182 31.3356L87.5937 29.8155C87.5693 28.3498 87.5693 28.2955 87.7894 28.3769L88.0095 28.4312L87.7894 27.7798C87.4225 26.6127 87.5693 25.7712 88.1563 25.5269C88.4743 25.3097 88.5965 25.3097 88.9145 25.5269ZM41.1219 26.3141C41.4643 26.477 41.4888 26.5312 41.4888 27.0197C41.4888 27.3183 41.4154 27.7255 41.342 27.9697C41.1219 28.5126 41.1463 28.5669 41.3909 28.5126C41.5866 28.4583 41.611 28.5127 41.611 29.9513V31.4441L40.9751 31.7698C40.6082 31.9326 40.2658 32.0956 40.1924 32.1499C40.0946 32.2041 40.0457 31.8513 40.0457 30.6298C40.0457 29.3541 40.0701 29.0284 40.1924 28.9741C40.3392 28.9198 40.3392 28.8927 40.1924 28.7298C39.9723 28.4855 39.8011 27.6712 39.8745 27.2098C39.9478 26.8027 40.437 26.1512 40.6572 26.1512C40.7061 26.1512 40.9017 26.2327 41.1219 26.3141ZM99.8721 33.534C99.9944 34.864 100.068 35.9769 100.043 36.0041C100.019 36.0312 98.4535 35.4613 96.5701 34.7284C94.6868 33.9956 93.1459 33.3984 93.1704 33.3713C93.1948 33.317 99.4563 31.1727 99.603 31.1455C99.6275 31.1455 99.7498 32.2312 99.8721 33.534ZM33.1727 33.9142C34.5914 34.2942 35.7654 34.6198 35.7898 34.6469C35.8143 34.6741 34.5669 35.3799 33.0015 36.2213C31.4362 37.0627 30.1398 37.7413 30.1154 37.687C30.0909 37.6598 30.1398 36.737 30.2377 35.6784C30.4089 33.697 30.4823 33.2084 30.5556 33.2084C30.5556 33.2355 31.7541 33.5341 33.1727 33.9142ZM91.2626 49.0055C92.0942 50.0369 93.1214 52.6698 94.1487 56.497C95.6652 62.0884 98.0132 73.4342 99.334 81.7942C99.5541 83.07 99.7253 84.2371 99.7498 84.3728C99.7987 84.6171 99.7743 84.6442 99.0894 84.6442H98.3801L98.3067 83.7484C97.573 74.3841 95.7875 65.0742 93.4883 58.6142C92.3388 55.3842 90.8468 52.2899 89.6972 50.6884L89.1836 49.9827L89.4037 49.4942C89.6972 48.8156 90.0885 48.4627 90.5043 48.4627C90.7245 48.4355 90.8957 48.5169 91.2626 49.0055ZM37.5509 49.7384C37.6976 49.9556 37.8688 50.3084 37.9667 50.4984C38.1134 50.8784 38.1134 50.9056 37.6487 51.6384C37.0617 52.5884 36.0833 54.7599 35.4963 56.4156C33.613 61.5185 32.1455 68.3042 31.216 76.0942C30.8247 79.3785 30.4333 83.5313 30.4333 84.2913C30.4333 84.997 30.36 85.0786 29.7485 85.0786H29.1859L29.3327 83.9928C31.9498 64.9928 34.7381 51.8827 36.597 49.7113C37.0128 49.2498 37.2329 49.2498 37.5509 49.7384ZM89.844 51.5299C93.097 56.8227 95.8853 66.3771 97.2794 77.0714C97.524 78.9714 98.0132 83.6942 98.0132 84.2371C98.0132 84.6171 98.0132 84.6171 97.5485 84.6171H97.0838L97.0104 83.5314C96.9859 82.9614 96.937 81.6857 96.8881 80.7357C96.7414 76.7457 96.3989 72.7828 96.032 71.2357C95.5673 69.2271 94.9559 68.9014 94.5401 70.4214C94.0753 72.05 93.8552 75.0628 93.7329 81.0885L93.6595 84.6442H93.4149C93.1214 84.6442 93.097 84.4 92.9991 81.2785C92.8524 76.7185 92.4366 72.2942 91.9963 70.6928C91.7762 69.9057 91.3849 69.3627 91.1158 69.4984C90.7 69.6613 90.3576 71.2627 90.1375 73.8684C89.9907 75.687 89.8195 80.3285 89.8195 82.7171C89.8195 84.5628 89.8195 84.6714 89.6238 84.6714C89.3792 84.6714 89.3792 84.7256 89.0857 80.8984C88.9634 79.3784 88.7433 76.7456 88.5965 75.0899C88.2052 70.6927 88.0095 69.797 87.447 69.6341C87.2024 69.5527 87.1779 69.5528 87.2269 68.7928C87.2513 68.3857 87.3002 67.2728 87.3491 66.3499C87.5204 61.6542 87.9606 56.307 88.4009 53.647C88.621 52.2898 89.0368 50.5799 89.1102 50.5799C89.208 50.4984 89.5015 50.9599 89.844 51.5299ZM38.5292 52.7241C38.9695 55.2484 39.4098 60.8127 39.532 65.4813C39.5565 66.6756 39.6054 68.1142 39.6543 68.7385L39.7033 69.8514L39.3853 69.9871C38.945 70.1771 38.7738 70.6927 38.6515 72.2127C38.2846 76.5827 37.7221 83.9385 37.7221 84.3185C37.7221 84.617 37.6732 84.78 37.5753 84.78C37.453 84.78 37.4286 84.1013 37.3552 81.1699C37.2818 77.0713 37.1351 74.2756 36.9149 72.4841C36.7437 71.0184 36.6214 70.5028 36.3279 70.1499C36.1812 69.9328 36.1078 69.9057 35.9366 70.0142C35.3251 70.4214 35.0072 72.8913 34.7136 79.0528C34.4201 85.1871 34.4691 84.8071 34.2245 84.8071C34.0533 84.8071 34.0288 84.7528 34.0777 84.5357C34.2245 83.9114 34.2734 79.1885 34.1511 76.6642C34.0043 72.9185 33.8087 71.2899 33.4418 70.5028C33.3195 70.2585 33.2217 70.177 33.0015 70.2042C32.7814 70.2313 32.6836 70.3399 32.5613 70.7742C32.1699 71.9685 31.852 75.2799 31.6318 80.5185C31.5585 82.0113 31.4851 83.64 31.4606 84.1014C31.3872 84.9428 31.3872 84.9428 31.0937 84.9428C30.8002 84.9428 30.8002 84.9156 30.8002 84.4542C30.8002 83.0156 31.5095 75.9042 31.9987 72.5385C33.1483 64.6399 35.0805 57.447 37.2574 53.1041C37.9178 51.7741 38.1379 51.4213 38.2602 51.5027C38.2846 51.4756 38.4314 52.0456 38.5292 52.7241ZM95.6652 71.127C96.0076 72.7827 96.3989 77.3156 96.5212 80.8984C96.5457 81.957 96.5946 83.2057 96.6435 83.6942L96.6924 84.5899H95.4206H94.1487L94.2221 81.3599C94.3688 74.8456 94.6134 71.3442 94.9803 70.2857L95.1515 69.797L95.3472 70.0413C95.4206 70.2313 95.5673 70.7198 95.6652 71.127ZM87.6916 70.5299C87.7894 70.9099 88.4987 78.3199 88.7678 81.4956C88.8656 82.6085 88.9634 83.8299 88.9879 84.1828L89.0368 84.8613H88.1563H87.3002L87.2269 81.3328C87.1779 79.3785 87.1779 76.0671 87.2269 73.95C87.3002 70.5842 87.3247 70.1228 87.4714 70.1499C87.5448 70.1499 87.6427 70.3128 87.6916 70.5299ZM91.6784 70.8285C92.1431 72.5114 92.5589 77.7227 92.7301 83.7756L92.7546 84.7256H91.5316H90.3087V83.2328C90.3087 79.0527 90.6022 73.0542 90.8957 71.4256C91.1158 69.9327 91.3604 69.7428 91.6784 70.8285ZM36.6704 71.5613C36.9149 73.0813 37.1106 76.5285 37.184 80.5728L37.2574 84.8342H36.2546H35.2517V83.8842C35.2517 79.4056 35.8388 72.0771 36.2546 70.9371C36.4013 70.4214 36.4991 70.557 36.6704 71.5613ZM39.8256 71.6428C39.8745 72.1857 39.8989 74.9814 39.8989 77.8857C39.8989 80.79 39.8745 83.5857 39.8256 84.1014L39.7522 85.0514H38.9939H38.2357V84.6171C38.2357 83.2056 38.9939 73.787 39.2385 72.077C39.3853 71.0456 39.532 70.6656 39.7033 70.6656C39.7522 70.6928 39.8011 71.1271 39.8256 71.6428ZM33.3195 71.4256C33.5885 72.647 33.9554 79.7584 33.9554 84.1556V85.0514H32.9526H31.9498V83.7214C31.9498 80.79 32.3411 74.2485 32.6346 72.2942C32.9037 70.6928 33.0749 70.4484 33.3195 71.4256ZM106.378 85.6485V86.3542H107.087C107.479 86.3542 111.05 86.2727 115.061 86.1913L122.325 86.0286L124.991 87.0599C126.459 87.6299 127.706 88.1728 127.755 88.2C127.829 88.2543 127.584 88.3085 127.242 88.3085C126.899 88.3085 111.294 89.0142 92.5589 89.8828C73.8234 90.7513 58.4632 91.4299 58.4632 91.4028C58.4388 91.3757 59.6372 87.8199 59.8085 87.4671C59.9063 87.2771 60.7134 87.277 74.7039 87.277H89.5015V86.1643V85.0514L92.4121 85.0242C94.002 85.0242 97.8176 84.997 100.875 84.9699L106.427 84.9428V85.6485H106.378ZM122.374 85.2413V85.5127L119.733 85.5942C118.29 85.6214 115.452 85.6757 113.422 85.73C111.417 85.7571 109.142 85.8114 108.384 85.8657L106.99 85.947V85.5399V85.1328L109.631 85.1056C111.074 85.1056 114.523 85.0785 117.311 85.0514L122.35 85.0242V85.2413H122.374ZM89.0368 86.0556V86.9242H74.4104H59.7595V86.1643V85.4042H61.6184C62.6212 85.4042 68.2468 85.35 74.068 85.3228C79.8892 85.2685 85.6615 85.2414 86.86 85.2143L89.0124 85.1871V86.0556H89.0368ZM59.5639 86.1913V86.9514H51.737C47.4323 86.9514 42.2225 86.9242 40.1435 86.8699L36.3524 86.7885V86.1643V85.5399L41.1463 85.5127C43.7634 85.5127 48.9976 85.4857 52.7398 85.4585L59.5639 85.4314V86.1913ZM23.2914 86.1099V86.68H16.9076H10.5483V86.3542C10.5483 86.1913 10.5727 85.9199 10.6217 85.7842L10.695 85.5399H17.0054H23.3158V86.1099H23.2914ZM35.9366 86.5171V87.25L37.9422 87.3314C39.0429 87.3585 44.3015 87.44 49.6091 87.5214C54.9411 87.6028 59.2948 87.657 59.3193 87.6842C59.3437 87.7113 59.0502 88.58 58.6589 89.6657L57.974 91.5929H57.4359C56.1885 91.5929 3.96884 89.4757 3.60196 89.4214C3.25953 89.34 3.69979 89.2043 6.73269 88.4443C8.66494 87.9557 10.3037 87.4942 10.3037 87.4399C10.3281 87.3585 12.7985 87.3314 17.0299 87.3314H23.7072V86.5714V85.8113H29.8219H35.9366V86.5171Z" fill="#ffffff"/>
<path d="M85.4884 23.4102C85.5129 23.4102 85.6352 23.5188 85.733 23.6002C85.9287 23.7631 85.9287 23.7631 85.8064 23.5731C85.733 23.4645 85.6107 23.383 85.5618 23.383C85.5129 23.383 85.464 23.383 85.4884 23.4102Z" fill="#ffffff"/>
</svg>