<svg width="40" height="92" viewBox="0 0 40 92" fill="none" xmlns="http://www.w3.org/2000/svg">
<path d="M19.7087 1.15575C19.5728 1.9754 19.4757 2.42436 19.3592 2.54145C19.2621 2.61951 19.0485 2.81463 18.8738 2.99027C18.3495 3.47816 18.0388 4.25874 18 5.19547C17.9806 5.72239 17.9223 6.01512 17.8447 6.07367C17.7476 6.15173 17.7087 7.06892 17.6699 10.328L17.6117 14.5238L17.2621 14.6019C17.068 14.6605 16.6796 14.7581 16.3883 14.8362L15.8641 14.9922V16.1241C15.8641 17.1975 15.8835 17.2755 16.1165 17.4902L16.3689 17.7244V21.6081V25.4915L16 25.55C14.9903 25.7257 15.068 25.6282 15.068 26.5063C15.068 27.0723 15.0291 27.3259 14.9126 27.404C14.7961 27.5016 14.7573 27.7164 14.7573 28.2433C14.7573 28.9458 14.7767 28.9457 15.0874 29.1019C15.2621 29.1799 15.5534 29.4726 15.7282 29.7458L16.0388 30.2337V33.3562C16.0388 46.6657 14.8932 60.6388 13.0291 70.0648C12.6019 72.1529 11.8447 75.2754 11.6117 75.8609C11.4757 76.1927 11.4563 76.1926 10.7379 76.2707C9.94175 76.3292 9.14563 76.5828 8.56311 76.9731L8.19417 77.227L7.45631 76.9731C6.58252 76.6804 5.65049 76.6805 5.04854 76.9928C4.64078 77.1879 4.07767 77.7344 4.07767 77.91C4.07767 77.9686 4.36893 78.066 4.75728 78.1441C6.15534 78.3978 7.65049 79.4321 8.15534 80.4859C8.27184 80.7396 8.4466 81.3056 8.54369 81.735C8.73786 82.6717 8.64078 83.6476 8.23301 84.9356C7.47573 87.3165 4.91262 89.3069 1.04854 90.5169L0 90.8487V91.4145V92H20H40V91.5512C40 91.1218 39.9806 91.1024 39.6893 91.0439C39.1262 90.9268 37.7864 90.4389 37.0097 90.0681C35.8058 89.4826 34.4854 88.5654 33.4563 87.5702C32.6408 86.77 32.4466 86.5358 32.0777 85.7356C31.3398 84.1939 31.0485 82.6328 31.2816 81.618C31.4951 80.6812 32.2718 79.725 33.2427 79.1785C33.8058 78.8663 35.2621 78.3588 35.6699 78.3588C36 78.3588 35.9612 78.2026 35.534 77.7537C34.8932 77.1097 33.9806 76.9926 32.5049 77.3634C30.932 77.7733 29.6505 79.0809 29.0097 80.9544C28.8155 81.5008 28.7767 81.813 28.7767 82.8668C28.7961 84.0377 28.8155 84.1939 29.1456 85.1892C29.6505 86.6724 30.1942 87.5506 31.2621 88.6435C32.2718 89.6583 33.0097 90.1851 34.3689 90.8096C35.2233 91.1999 35.301 91.2584 35.301 91.5121V91.7854H33.8252H32.3495L30.699 89.5411C29.7864 88.3117 28.7767 86.9066 28.4466 86.4187C26.8155 83.9597 25.4563 83.706 24.1553 85.6381L23.7282 86.2626L23.6505 85.7747C23.6116 85.521 23.5728 84.4671 23.5728 83.4523C23.5922 81.5398 23.767 80.0567 24.1748 78.3979L24.3495 77.7149L25.1456 77.4025C26.3689 76.9146 27.2233 76.7196 28.5437 76.6415C29.2039 76.6025 29.534 76.5634 29.2621 76.5634C28.8155 76.5439 28.7767 76.5244 28.4854 76.0755C28.0777 75.4315 27.4563 73.7922 27.0291 72.27C25.1845 65.5372 24.0777 51.8764 24.0388 35.9128L24.0194 29.9215L24.3495 29.5703C24.5437 29.3751 24.7767 29.18 24.8738 29.1409C25.0291 29.1019 25.0485 28.9848 25.0485 28.5164C25.0485 28.1066 24.9903 27.892 24.8932 27.8139C24.7767 27.7163 24.7379 27.4626 24.7379 26.76V25.8233L24.3689 25.7648C24.1553 25.7258 23.8641 25.6671 23.7282 25.6476L23.4563 25.5891V21.7641V17.9196L23.7087 17.6853C23.9417 17.4707 23.9612 17.3926 23.9612 16.2607C23.9612 15.1093 23.9417 15.0704 23.7476 15.0313C23.6116 14.9923 23.2427 14.9142 22.9126 14.8556L22.3107 14.7386L22.2718 10.5037L22.2524 6.26882L21.9806 6.11274C21.7282 5.95661 21.7087 5.91754 21.7087 5.19547C21.6893 4.20019 21.4175 3.53674 20.7573 2.93176L20.2718 2.50239L20.0971 1.27295C20 0.609428 19.9029 0.0434799 19.8641 0.00444794C19.9223 -0.0540924 19.8058 0.472702 19.7087 1.15575ZM20.5049 2.99027C21.068 3.32203 21.4369 3.94649 21.5146 4.70759C21.5728 5.17596 21.5534 5.27365 21.4369 5.2151C20.4272 4.80528 19.3204 4.7467 18.6796 5.07846C18.3884 5.23458 18.3689 5.23447 18.3689 5.05883C18.3689 4.96125 18.4466 4.62952 18.5243 4.31728C18.6408 3.90746 18.7961 3.65376 19.2233 3.24393C19.5146 2.97072 19.8252 2.71698 19.9223 2.71698C20.0194 2.7365 20.2913 2.85366 20.5049 2.99027ZM21.2233 5.39062C21.5534 5.52724 21.6505 5.60542 21.6505 5.80057V6.0346H20.0583H18.466V5.80057C18.466 5.60542 18.5437 5.52724 18.8932 5.39062C19.1262 5.31257 19.3786 5.21499 19.4563 5.19547C19.7282 5.0979 20.7961 5.21499 21.2233 5.39062ZM22.0583 6.44453C22.1165 6.58115 22.1553 8.08376 22.1553 10.6598V14.6801L21.8447 14.641L21.5146 14.6019L21.4563 10.7183L21.3981 6.81522L21.165 6.62006C20.835 6.34685 20.0194 6.36648 19.767 6.63969C19.5728 6.83485 19.5728 6.97137 19.5728 10.6598C19.5728 14.4068 19.5728 14.4653 19.3786 14.4653C19.1845 14.4653 19.1845 14.3872 19.1845 10.7574V7.03L18.932 6.79578C18.7573 6.62014 18.5825 6.54211 18.3301 6.54211C18.0194 6.54211 17.9806 6.52264 18.0971 6.38603C18.1942 6.26894 18.5631 6.22975 20.0971 6.22975C21.8252 6.24927 21.9417 6.24938 22.0583 6.44453ZM21.1262 6.77634C21.2039 6.8544 21.2427 7.30314 21.2427 8.12279V9.35222H20.5437H19.8447V8.16186C19.8447 7.2056 19.8835 6.9323 20 6.81522C20.1942 6.62006 20.9515 6.58118 21.1262 6.77634ZM18.7573 6.95186C18.932 7.04944 18.9515 7.16661 18.9515 8.20093V9.35222H18.4466H17.9417V8.10335V6.85429H18.2524C18.4466 6.85429 18.6602 6.89332 18.7573 6.95186ZM18.8544 9.8988C18.8544 10.133 18.8155 10.1525 18.3495 10.1525C17.8835 10.1525 17.8447 10.133 17.8447 9.8988C17.8447 9.66462 17.8835 9.64495 18.3495 9.64495C18.8155 9.64495 18.8544 9.68414 18.8544 9.8988ZM21.1456 9.8988C21.1456 10.133 21.1262 10.1525 20.5049 10.1525C19.8835 10.1525 19.8641 10.133 19.8641 9.8988C19.8641 9.66462 19.8835 9.64495 20.5049 9.64495C21.1262 9.66447 21.1456 9.66462 21.1456 9.8988ZM18.8544 12.5138C18.8544 14.4653 18.835 14.5629 18.6602 14.5629C18.5631 14.5629 18.3301 14.6019 18.1553 14.6214L17.8447 14.6801V12.5723V10.4646H18.3495H18.8544V12.5138ZM21.1456 12.5138V14.5629H20.8155C20.6408 14.5629 20.3301 14.5239 20.1748 14.5044L19.8641 14.4262V12.4358V10.4452H20.5049H21.1456V12.5138ZM20.8932 14.9728C21.4369 15.0314 22.2913 15.1484 22.8155 15.2265L23.7476 15.402V16.4365V17.4707L23.4757 17.4122C23.0485 17.3147 23.0485 17.295 23.0485 16.8071C23.0485 16.4949 23.0097 16.3583 22.8932 16.3583C22.7767 16.3583 22.7379 16.4753 22.7379 16.7681C22.7379 17.1779 22.7379 17.1781 22.4272 17.1195C22.2524 17.0805 21.8641 17.0219 21.5728 16.9829C21.0485 16.9243 21.0485 16.9243 21.0485 16.5926C21.0485 16.3584 20.9903 16.2607 20.8932 16.2607C20.7961 16.2607 20.7379 16.3583 20.7379 16.5535V16.8462H20H19.2427V16.495C19.2427 16.2608 19.1845 16.1437 19.0874 16.1437C18.9903 16.1437 18.932 16.2412 18.932 16.4753C18.932 16.8071 18.9126 16.8267 18.466 16.8853C18.1942 16.9243 17.8252 16.9633 17.6117 16.9829L17.2233 17.0414V16.5926C17.2233 16.2608 17.1845 16.1437 17.068 16.1437C16.9515 16.1437 16.9126 16.2608 16.9126 16.5926C16.9126 17.0804 16.8932 17.0999 16.4854 17.1975L16.2136 17.256V16.2607V15.2655L16.5437 15.1874C16.9903 15.0898 18.8544 14.8751 19.3981 14.8556C19.7087 14.8751 20.3495 14.9143 20.8932 14.9728ZM19.0291 17.4317C19.1068 17.5878 19.1456 18.2123 19.1456 18.9344V20.1638L18.699 20.2223C18.4466 20.2614 18.1359 20.32 18 20.359L17.7476 20.4175V18.9538C17.7476 17.9 17.7087 17.4902 17.6311 17.4902C17.3786 17.4902 17.6893 17.3537 18.0777 17.2756C18.835 17.139 18.9126 17.1585 19.0291 17.4317ZM20.699 17.3535C20.6408 17.4511 20.6019 18.1342 20.5825 18.8563L20.5437 20.1833H19.9612H19.3786L19.3398 18.8563C19.3204 18.1342 19.2621 17.4511 19.2233 17.3535C19.1456 17.1974 19.2039 17.178 19.9612 17.178C20.699 17.178 20.7573 17.1974 20.699 17.3535ZM22.2913 17.3535C22.5437 17.3926 22.5631 17.4318 22.4272 17.5098C22.2718 17.5879 22.2524 17.8024 22.2524 19.0124V20.4175L22.0388 20.359C21.9029 20.32 21.5922 20.3005 21.3398 20.3005H20.8544V19.071C20.8544 18.3685 20.9126 17.705 20.9709 17.5098C21.0874 17.1781 21.1068 17.178 21.5534 17.2365C21.8058 17.256 22.1359 17.3145 22.2913 17.3535ZM17.301 17.6074C17.5534 17.7245 17.5534 17.7244 17.5534 19.0514V20.3981L17.2816 20.4566C17.1262 20.4956 16.9515 20.5346 16.8738 20.5541C16.7767 20.5932 16.7379 20.2029 16.7184 19.0905C16.7184 17.4122 16.7379 17.3342 17.301 17.6074ZM23.4175 17.5878C23.534 17.5878 23.5534 17.6269 23.4563 17.705C23.3786 17.783 23.3398 18.2709 23.3398 19.2271C23.3398 20.4566 23.3204 20.6127 23.1845 20.5541C23.0874 20.5151 22.9126 20.4566 22.7767 20.4371C22.5437 20.3786 22.5437 20.3589 22.5437 19.0514C22.5437 17.7829 22.5631 17.7244 22.7767 17.6268C22.8932 17.5683 23.0485 17.5293 23.1262 17.5683C23.2039 17.5488 23.3398 17.5878 23.4175 17.5878ZM20.5437 21.7836V23.1887H19.9417H19.3398V21.7836V20.3784H19.9417H20.5437V21.7836ZM19.1651 21.8812V23.2669L18.699 23.3254C18.4272 23.3644 18.1359 23.4229 18.0583 23.4424C17.8835 23.5204 17.8835 23.4034 17.8835 22.1154V20.7102L18.3689 20.6517C18.6214 20.6127 18.8932 20.5737 18.932 20.5541C18.9903 20.5346 19.068 20.5151 19.1068 20.5151C19.1262 20.4956 19.1651 21.1005 19.1651 21.8812ZM21.8641 20.5932H22.2524V21.9787V23.3644L21.6311 23.3057C21.2816 23.2667 20.9903 23.2473 20.9903 23.2278C20.9903 23.2278 20.9515 22.6032 20.932 21.8421L20.8932 20.4566L21.1845 20.5151C21.3592 20.5541 21.6505 20.5932 21.8641 20.5932ZM17.4175 23.3644C17.3981 23.4035 17.2039 23.4424 17.0097 23.5009L16.6602 23.579V22.252V20.925L17.0485 20.8274L17.4175 20.7299L17.4563 22.0178C17.4563 22.7399 17.4563 23.3449 17.4175 23.3644ZM23.3398 22.3105C23.3398 23.5595 23.3204 23.6962 23.1845 23.6572C23.0874 23.6181 22.9126 23.5595 22.7767 23.54C22.5437 23.4814 22.5437 23.462 22.5437 22.0959V20.7102L22.9515 20.8078L23.3592 20.9054V22.3105H23.3398ZM21.8835 23.5985H22.1553V24.4963V25.3939H21.5146H20.8738V24.4378V23.462L21.2621 23.54C21.4369 23.5595 21.7282 23.5985 21.8835 23.5985ZM19.1651 24.5354V25.4721L18.5243 25.5111L17.8835 25.55V24.6718V23.7936L18.3107 23.6961C19.2039 23.5009 19.1651 23.4815 19.1651 24.5354ZM20.6602 24.5548V25.5111H20.0583H19.4563V24.5548V23.5985H20.0583H20.6602V24.5548ZM23.3398 24.7694C23.3398 25.511 23.3204 25.6087 23.1845 25.5696C23.0874 25.5306 22.9126 25.5111 22.7767 25.5111C22.5437 25.5111 22.5437 25.4915 22.5437 24.6133V23.7157L22.9515 23.8133L23.3592 23.9108V24.7694H23.3398ZM17.4369 25.55C17.4175 25.5695 17.2427 25.6086 17.0291 25.6282L16.6408 25.6867V24.8475V24.0084L17.0291 23.9108L17.3981 23.8133L17.4369 24.6524C17.4563 25.1403 17.4563 25.5305 17.4369 25.55ZM23.4951 25.9014C24.699 26.0771 24.6408 26.038 24.6408 26.643C24.6408 27.1309 24.6214 27.1894 24.4466 27.1309C24.2718 27.0723 24.2524 27.1308 24.2524 27.5991V28.1261L23.4369 28.0676C21.6505 27.931 21.6699 27.931 21.6505 27.5212C21.6117 27.0138 21.3398 27.0138 21.301 27.5212L21.2621 27.9115H19.767H18.2718L18.233 27.5991C18.2136 27.3845 18.1359 27.2674 18.0388 27.2479C17.8835 27.2089 17.8641 27.287 17.8641 27.6773V28.1457H17.4369C17.2039 28.1457 16.7767 28.1847 16.4854 28.2042L15.9612 28.2822V27.7554C15.9612 27.3651 15.9223 27.2479 15.8252 27.2479C15.7087 27.2479 15.6699 27.4041 15.6505 27.7748C15.6117 28.2432 15.5922 28.3018 15.3786 28.3409C15.1651 28.3799 15.1456 28.3604 15.2233 28.0481C15.2621 27.8725 15.3204 27.3846 15.3398 26.9357C15.3981 26.038 15.2621 26.1161 16.9709 25.96C17.5922 25.9014 18.2913 25.8234 18.5243 25.8039C19.2039 25.6868 22.7767 25.7843 23.4951 25.9014ZM24.9515 28.1261C24.9515 28.1846 24.8738 28.2237 24.7961 28.2237C24.699 28.2237 24.6408 28.1262 24.6408 28.0091C24.6408 27.8334 24.6602 27.8139 24.7961 27.9115C24.8738 27.97 24.9515 28.0675 24.9515 28.1261ZM21.0291 28.2822C21.1262 28.3602 21.1068 28.4774 20.9515 28.8482C20.7961 29.219 20.7573 29.5312 20.7573 30.3313V31.3267H19.767H18.7767V30.4289C18.7767 29.6092 18.7379 29.4532 18.4854 28.9263L18.1942 28.3409L18.5825 28.3018C19.2621 28.2042 20.8932 28.2041 21.0291 28.2822ZM18.0388 28.8676C18.2136 29.3165 18.2524 29.6483 18.2524 30.4679C18.2524 31.5023 18.2524 31.5022 18.0194 31.5022C17.8835 31.5022 17.6311 31.5414 17.4757 31.5609C17.1845 31.6195 17.165 31.6193 17.165 31.2486C17.165 30.6045 16.9709 30.0777 16.3883 29.2776C16.0194 28.7507 15.8835 28.4969 15.9806 28.4579C16.233 28.3798 16.6019 28.3408 17.2233 28.3212L17.8252 28.3018L18.0388 28.8676ZM23.9806 28.4773C24.1165 28.5359 24.0388 28.6726 23.5922 29.3166C23.1068 29.9997 23.0291 30.1752 22.932 30.8582C22.8738 31.2876 22.7767 31.6194 22.7379 31.6194C22.6796 31.6194 22.4466 31.5804 22.1748 31.5218C21.9223 31.4633 21.534 31.4048 21.3204 31.3658L20.932 31.3071V30.39C20.932 29.6094 20.9709 29.3946 21.2039 28.8676L21.4757 28.2627L22.6408 28.3212C23.301 28.3798 23.9029 28.4188 23.9806 28.4773ZM16.0583 29.297C16.3495 29.7263 16.6214 30.2337 16.6602 30.4289C16.7961 30.9948 16.8738 31.717 16.7961 31.717C16.7573 31.717 16.6214 31.756 16.5049 31.7755C16.2913 31.8341 16.2718 31.8145 16.2718 31.2095C16.2718 30.2923 16.0971 29.8239 15.534 29.2579C15.0485 28.7701 14.9903 28.497 15.3398 28.497C15.4757 28.5165 15.7087 28.7701 16.0583 29.297ZM24.9515 28.7701C24.932 28.8676 24.7961 29.0433 24.6408 29.1604C24.0388 29.5507 23.9029 29.824 23.8835 30.8779L23.8447 31.834L23.534 31.7561C23.3592 31.717 23.2039 31.678 23.1845 31.6585C23.165 31.639 23.2039 31.3266 23.2621 30.9558C23.3592 30.3899 23.4757 30.1167 23.9223 29.4337C24.3689 28.7701 24.5049 28.614 24.7184 28.614C24.8544 28.614 24.9515 28.653 24.9515 28.7701ZM20.5049 31.6974C20.5825 31.7559 20.6408 33.2392 20.6796 36.4983L20.7573 41.2405H19.6117H18.466V40.3038C18.466 38.5669 18.6796 31.7754 18.7184 31.6974C18.7767 31.5998 20.3689 31.5803 20.5049 31.6974ZM18.2136 35.8932C18.1748 38.196 18.1165 40.3623 18.0777 40.7135L18.0194 41.3381H17.5146H17.0097L17.0874 40.8502C17.1262 40.5965 17.1845 38.4888 17.2039 36.1665L17.2621 31.9512L17.5728 31.834C17.7476 31.756 17.9806 31.717 18.0777 31.717C18.2913 31.717 18.2913 31.834 18.2136 35.8932ZM22.466 31.8925L22.7184 31.9901L22.7961 36.2835C22.8349 38.6449 22.8932 40.7525 22.932 40.9672L22.9903 41.3575L22.0777 41.299C21.5728 41.26 21.1456 41.2209 21.1262 41.2014C21.1068 41.1819 21.068 39.0158 21.0485 36.4007L21.0097 31.6585L21.6116 31.717C21.9223 31.7755 22.3107 31.8535 22.466 31.8925ZM17.0291 32.3804C17.1068 32.8878 17.0097 39.2304 16.8932 40.5965L16.835 41.4356H16.4854H16.1359L16.1942 39.9135C16.233 39.0743 16.2718 36.9861 16.2718 35.2492V32.1073L16.5049 32.0097C16.8738 31.8536 16.9515 31.912 17.0291 32.3804ZM23.6311 32.0097C23.7864 32.0097 23.8058 32.4 23.8058 36.7129L23.8252 41.4162H23.5534H23.2816L23.2233 40.089C23.1068 37.591 23.0291 32.8489 23.0874 32.361C23.1456 31.9902 23.2039 31.8926 23.3204 31.9316C23.3981 31.9901 23.534 32.0097 23.6311 32.0097ZM20.6019 41.6114C20.699 41.6504 20.7573 41.7869 20.7573 42.0211V42.3529H19.6117H18.466V42.0211C18.466 41.8259 18.5243 41.6503 18.6019 41.6308C18.7573 41.5332 20.4078 41.5333 20.6019 41.6114ZM18.0583 42.0017C18.0583 42.2749 18.0194 42.3529 17.8641 42.3529C17.767 42.3529 17.534 42.3919 17.3592 42.4114C17.068 42.47 17.0485 42.47 17.0485 42.1187C17.0485 41.7284 17.1262 41.6697 17.7282 41.6502C18.0388 41.6502 18.0583 41.6699 18.0583 42.0017ZM22.4272 41.7089C22.9515 41.787 22.9515 41.7868 22.9515 42.1381V42.4895L22.4272 42.4114C22.1359 42.3724 21.7087 42.3529 21.4757 42.3529C21.0485 42.3529 21.0485 42.3334 21.0485 42.0017C21.0485 41.6504 21.068 41.6502 21.4757 41.6502C21.7087 41.6502 22.1359 41.6699 22.4272 41.7089ZM16.8544 42.0992C16.8544 42.3725 16.8155 42.4505 16.6602 42.4505C16.5437 42.4505 16.4078 42.4895 16.3107 42.509C16.1748 42.5675 16.1553 42.4894 16.1553 42.2357C16.1553 41.8064 16.2136 41.7478 16.5825 41.7478C16.8349 41.7478 16.8544 41.7675 16.8544 42.0992ZM23.8252 42.2748C23.8641 42.6456 23.8447 42.665 23.5728 42.626C23.3204 42.587 23.301 42.548 23.2621 42.2163C23.2233 41.8455 23.2427 41.826 23.5146 41.865C23.767 41.904 23.7864 41.943 23.8252 42.2748ZM18.0194 45.9827C17.9806 47.8171 17.9223 49.7296 17.9029 50.237L17.8447 51.1543L17.2621 51.1933C16.9126 51.2129 16.6796 51.1738 16.6796 51.1152C16.6796 51.0567 16.7767 49.3784 16.8738 47.3488C16.9903 45.3387 17.068 43.4847 17.068 43.2115C17.068 42.7041 17.0485 42.7237 17.9029 42.6456C18.0777 42.6456 18.0777 42.7822 18.0194 45.9827ZM20.7767 45.0654C20.8155 46.3925 20.8544 48.3051 20.8544 49.3199V51.1543H19.5534H18.233L18.3107 48.5197C18.3495 47.0756 18.4078 45.1631 18.4272 44.2654L18.4854 42.6456H19.6117H20.7379L20.7767 45.0654ZM22.6408 42.7432H23.0097L23.0874 44.519C23.1845 46.7828 23.3204 49.7296 23.3981 50.5688L23.4563 51.2128L22.3495 51.1739L21.2427 51.1348L21.1845 50.8225C21.1456 50.6468 21.1262 48.7344 21.1068 46.5487L21.0874 42.6066L21.6699 42.6651C22 42.7236 22.4466 42.7432 22.6408 42.7432ZM16.7184 44.0117C16.5243 48.4807 16.466 49.593 16.4078 50.3346L16.3301 51.1739H15.9223H15.534L15.5922 50.6469C15.7087 49.5931 15.8447 47.466 15.9417 45.2217C16.0388 42.8018 16.0583 42.7626 16.5243 42.7626H16.7573L16.7184 44.0117ZM23.8641 43.6018C23.9029 44.0506 23.9806 45.5728 24.0388 47.017C24.0971 48.4416 24.1748 50.0224 24.2136 50.5103L24.2718 51.3885L23.9806 51.3104C23.8252 51.2713 23.6893 51.2324 23.6893 51.2324C23.6699 51.2129 23.5922 49.7103 23.5146 47.8563C23.4369 46.0023 23.3204 44.0898 23.301 43.6214L23.2427 42.7236L23.5146 42.7626C23.7864 42.8017 23.7864 42.8016 23.8641 43.6018ZM17.8641 51.7203C17.8641 52.0325 17.8252 52.0715 17.5728 52.0715C17.4175 52.0715 17.1456 52.1105 16.9709 52.13C16.6796 52.1886 16.6602 52.1886 16.6602 51.8373C16.6602 51.486 16.6796 51.4861 17.0485 51.4276C17.9029 51.3495 17.8641 51.3495 17.8641 51.7203ZM20.8544 51.7203V52.0715H19.5146H18.1748V51.7203V51.3691H19.5146H20.8544V51.7203ZM23.3592 51.6227C23.4175 51.6618 23.4563 51.8178 23.4563 51.974C23.4563 52.2667 23.4369 52.2667 23.1456 52.2082C22.9709 52.1692 22.4854 52.1497 22.0388 52.1497H21.2427V51.7788V51.4276L22.2524 51.5055C22.8155 51.5445 23.301 51.6032 23.3592 51.6227ZM16.466 51.9155C16.466 52.2277 16.4272 52.2472 16.0971 52.3058C15.6699 52.3838 15.5728 52.3448 15.5728 52.0715C15.5728 51.7983 15.8447 51.5642 16.1748 51.5642C16.4272 51.5642 16.466 51.6032 16.466 51.9155ZM24.2524 51.974C24.2524 52.2472 24.2136 52.3837 24.1165 52.3837C23.7864 52.3837 23.6505 52.2472 23.6505 51.9155C23.6505 51.6032 23.6893 51.5837 23.9417 51.5837C24.233 51.5641 24.2524 51.5837 24.2524 51.974ZM20.8932 54.7452C20.932 56.0527 20.9903 57.8481 21.0097 58.7068L21.0874 60.2875H19.5146H17.9612V59.6631C17.9612 58.6483 18.1748 52.8522 18.2136 52.5985C18.2524 52.3838 18.2913 52.3837 19.534 52.3837H20.8155L20.8932 54.7452ZM23.4175 52.5204C23.4369 52.5399 24.0388 60.2289 24.0388 60.4241C24.0388 60.5217 22.9903 60.5218 22.1165 60.4437C21.6116 60.3852 21.4369 60.3266 21.3981 60.2095C21.3592 60.1119 21.3204 58.3165 21.2816 56.2088L21.2039 52.3643L22.2913 52.4424C22.9126 52.4814 23.3981 52.5008 23.4175 52.5204ZM17.767 54.1401C17.7476 56.0331 17.5922 60.19 17.534 60.2486C17.4757 60.3071 16.0583 60.5023 16.0194 60.4437C16 60.4242 16.1165 58.7068 16.2718 56.5992C16.4272 54.511 16.5631 52.7545 16.5631 52.6764C16.5631 52.5789 16.7961 52.5204 17.534 52.4618L17.7476 52.4424V54.1401H17.767ZM16.3107 53.0473C16.2718 53.3205 16.1359 55.077 16 56.9895C15.8641 58.902 15.7087 60.4827 15.6893 60.5022C15.6505 60.5413 15.4563 60.5998 15.2427 60.6389C14.8738 60.7169 14.8544 60.6974 14.8544 60.4047C14.8544 60.229 14.9709 58.9605 15.0874 57.5749C15.2233 56.1893 15.3592 54.6672 15.3981 54.1988C15.5146 52.6376 15.5146 52.6375 16.1359 52.5985C16.3495 52.579 16.3689 52.5985 16.3107 53.0473ZM24.3107 52.6961C24.3884 52.8132 24.932 59.507 24.9515 60.3071C24.9515 60.6388 24.9126 60.6974 24.699 60.6974C24.5631 60.6974 24.4272 60.6388 24.4078 60.5607C24.3884 60.5022 24.2524 58.863 24.1165 56.931C23.9806 54.9989 23.8447 53.223 23.8058 52.9888C23.767 52.5985 23.767 52.5594 24 52.5594C24.1165 52.5789 24.2718 52.618 24.3107 52.6961ZM20.8349 60.6583C21.0291 60.7169 21.0485 60.7754 21.0485 61.3999V62.0635H19.3981H17.7476L17.8058 61.7122C17.8447 61.5171 17.8641 61.2243 17.8641 61.0486C17.8641 60.7364 17.8835 60.7363 18.3495 60.6778C19.1845 60.5997 20.6019 60.5998 20.8349 60.6583ZM17.5534 61.2632C17.5534 61.5755 17.5146 61.8877 17.4757 61.9463C17.4369 62.0048 17.1068 62.0829 16.7379 62.122C16.3689 62.161 15.9806 62.2195 15.9029 62.239C15.7864 62.2975 15.7476 62.2196 15.767 61.8683C15.7864 61.0096 15.8835 60.834 16.2524 60.7559C16.4466 60.7169 16.8155 60.6778 17.0874 60.6778L17.5534 60.6583V61.2632ZM23.6505 60.8925C24.1553 60.9706 24.2136 61.0876 24.233 61.9853C24.2524 62.4147 24.233 62.4147 23.9806 62.3756C23.7282 62.3171 21.9029 62.122 21.5922 62.122C21.4951 62.122 21.4563 61.9074 21.4563 61.4195V60.7168L22.3301 60.795C22.8155 60.795 23.3981 60.8535 23.6505 60.8925ZM15.6893 61.595L15.6505 62.2781L15.301 62.3562C15.1068 62.3952 14.8544 62.4342 14.7573 62.4732C14.6019 62.5122 14.5825 62.4537 14.6408 61.8292C14.6796 61.4585 14.7184 61.1267 14.7379 61.1071C14.7767 61.0681 15.3592 60.912 15.5728 60.912C15.6893 60.8925 15.7087 61.0291 15.6893 61.595ZM25.0097 61.0681C25.068 61.1071 25.1456 61.439 25.1845 61.8098C25.2621 62.5514 25.1845 62.6295 24.7379 62.3953C24.5825 62.2977 24.5437 62.1805 24.5437 61.6341C24.5437 61.0877 24.5825 60.9901 24.7184 60.9901C24.8155 60.9901 24.9515 61.029 25.0097 61.0681ZM20.3495 62.3953H21.0291L21.0874 63.0196C21.1262 63.3709 21.1651 64.6395 21.2039 65.8299L21.2621 68.0157H19.3981H17.534L17.5922 67.7814C17.6311 67.6644 17.6893 66.3959 17.7282 64.9908L17.7864 62.4147L18.4466 62.3756C18.7961 62.3561 19.2427 62.3561 19.3981 62.3756C19.5534 62.3756 19.9806 62.3953 20.3495 62.3953ZM17.534 63.4295C17.4951 63.9955 17.4369 65.264 17.3981 66.2202L17.3204 67.9766L16.2718 68.0351C15.6893 68.0741 15.2039 68.0743 15.1845 68.0547C15.1651 68.0352 15.2621 67.2155 15.3981 66.2202C15.534 65.2444 15.6699 64.1125 15.7087 63.7417C15.7476 63.3514 15.8058 62.9221 15.8252 62.7659C15.8835 62.4732 15.8835 62.4733 17.2427 62.4147L17.5728 62.3953L17.534 63.4295ZM23.3398 62.6099C23.8058 62.6684 24.2136 62.7659 24.2524 62.8245C24.2913 62.9025 24.3301 63.0782 24.3301 63.2538C24.3301 63.41 24.466 64.5028 24.6214 65.6542C24.9903 68.2497 24.9903 68.2498 24.699 68.1718C24.5631 68.1327 23.8252 68.0741 23.0485 68.0351L21.6311 67.9572L21.5728 67.7033C21.534 67.5667 21.4951 66.3178 21.4563 64.9126L21.3786 62.3953L21.9223 62.4538C22.2524 62.4928 22.8738 62.5513 23.3398 62.6099ZM15.2621 64.8932C15.1456 65.869 14.9903 66.9814 14.932 67.3717L14.8155 68.0742L14.2718 68.1523C13.9806 68.1913 13.7087 68.2107 13.7087 68.1912C13.6893 68.1717 13.8641 66.9618 14.0971 65.4981L14.5049 62.8441L14.9709 62.7465C15.3981 62.6684 15.4369 62.6685 15.4563 62.8832C15.4563 63.0002 15.3786 63.8979 15.2621 64.8932ZM25.3398 63.8978C25.4175 64.4833 25.5922 65.7128 25.7476 66.6105C25.9029 67.5277 26.0194 68.2693 26.0194 68.2888C26 68.3083 25.8447 68.2693 25.6699 68.2303C25.3592 68.1717 25.3204 68.1132 25.2427 67.7229C25.0874 66.9228 24.6602 63.4101 24.6602 63.0783C24.6602 62.7856 24.6796 62.766 24.932 62.805C25.2039 62.8245 25.2039 62.8245 25.3398 63.8978ZM17.2621 68.6596C17.2621 68.9914 17.2427 69.0109 16.9515 69.0109C16.7767 69.0109 16.2524 69.05 15.8058 69.089L14.9709 69.1475V68.7963V68.445L15.5922 68.406C15.9223 68.3865 16.4466 68.367 16.7379 68.3475L17.2621 68.3278V68.6596ZM21.2427 68.6596V69.0109H19.3398H17.4369V68.6596V68.3084H19.3398H21.2427V68.6596ZM24.466 68.4839L25.1262 68.5426V68.8939V69.2451L24.5049 69.1866C24.1553 69.1476 23.3592 69.089 22.7573 69.0499L21.6311 68.9718V68.6206V68.2693L22.699 68.3475C23.3204 68.406 24.0971 68.4449 24.466 68.4839ZM14.6602 68.6402C14.6602 69.011 14.5437 69.0889 13.9806 69.167C13.4563 69.245 13.4369 69.2451 13.4951 69.0109C13.534 68.8743 13.5728 68.7183 13.5728 68.6402C13.5728 68.5231 13.8447 68.4644 14.4078 68.4254C14.6214 68.4254 14.6602 68.4646 14.6602 68.6402ZM26.1359 68.6402C26.1359 68.7183 26.1748 68.8743 26.1942 68.9914C26.2524 69.2061 26.233 69.2257 25.9029 69.2257C25.5534 69.2257 25.4369 69.1085 25.4369 68.7181C25.4369 68.562 25.5146 68.523 25.7864 68.523C26 68.523 26.1359 68.5621 26.1359 68.6402ZM17.1262 69.8891C17.0874 70.2013 17.0291 71.021 16.9903 71.6845L16.9126 72.8945L16.1553 72.9725C15.7476 73.0115 15.1068 73.0312 14.7379 73.0312C14.1359 73.0312 14.0583 73.0116 14.1165 72.8555C14.1553 72.7579 14.3495 71.9578 14.5437 71.0796L14.8932 69.4793L15.7476 69.4208C16.2136 69.3818 16.7184 69.3622 16.8932 69.3427L17.1845 69.3232L17.1262 69.8891ZM21.3981 69.5963C21.4175 69.7525 21.4757 70.5722 21.5146 71.3918L21.5922 72.9336H19.4369H17.2816L17.3398 72.6603C17.3786 72.5042 17.4175 71.704 17.4563 70.8648L17.5146 69.3427H19.4369H21.3592L21.3981 69.5963ZM24.0583 69.4793L25.3204 69.5378L25.4369 70.2794C25.5146 70.6892 25.6893 71.4894 25.8447 72.0748L26.1165 73.1482L24.9126 73.0897C22.2524 72.9531 21.9612 72.9141 21.9223 72.7384C21.9029 72.6409 21.8447 71.8407 21.8058 70.943L21.7282 69.3036L22.2524 69.3621C22.5631 69.3816 23.3592 69.4403 24.0583 69.4793ZM14.4078 69.9476C14.3107 70.6111 13.767 72.8554 13.6699 72.9725C13.6311 73.0115 13.3592 73.0701 13.068 73.1091C12.5825 73.1677 12.5437 73.1482 12.6019 72.9921C12.7379 72.6603 13.165 70.8845 13.2621 70.2014L13.3786 69.5378L13.7864 69.4988C14.0194 69.4792 14.2718 69.4598 14.3301 69.4403C14.466 69.4207 14.466 69.5378 14.4078 69.9476ZM26.6408 71.1966C26.8738 72.1139 27.0874 72.9336 27.1068 72.9921C27.1456 73.0897 27.0485 73.1287 26.7573 73.1287C26.5243 73.1287 26.3301 73.0896 26.3107 73.0506C26.2524 72.9725 25.534 69.7721 25.534 69.616C25.534 69.5574 25.6893 69.5184 25.8641 69.5184H26.1942L26.6408 71.1966ZM21.5146 73.3043C21.5728 73.3433 21.6699 73.7726 21.7087 74.241L21.7864 75.1192H19.4175H17.068L17.1068 74.8851C17.1456 74.768 17.1845 74.3777 17.2233 74.0069C17.2621 73.6557 17.3204 73.3239 17.3398 73.2848C17.3786 73.2068 21.3592 73.2067 21.5146 73.3043ZM16.9126 73.7727C16.8738 74.0264 16.8155 74.4166 16.7961 74.6703L16.7379 75.1192H16.0583C15.6893 75.1192 14.8932 75.1583 14.3107 75.1973L13.2427 75.2558L13.4369 74.8655C13.534 74.6508 13.7087 74.241 13.7864 73.9482C13.9806 73.3433 13.9417 73.3629 15.7282 73.3239L16.9515 73.3043L16.9126 73.7727ZM25.9806 73.4994C26.0582 73.5385 26.2524 73.9679 26.4272 74.4558L26.7184 75.3534L25.3981 75.2949C22.932 75.1778 22.0388 75.1192 22 75.0607C21.9806 75.0216 21.9223 74.6118 21.8835 74.1434L21.8058 73.3043L23.8058 73.3824C24.9515 73.4019 25.9029 73.4604 25.9806 73.4994ZM13.5534 73.7922C13.4951 73.9873 13.3592 74.3972 13.2233 74.69C13.0097 75.1583 12.9709 75.2169 12.5825 75.2754C12.3495 75.3145 12.1359 75.3338 12.1359 75.3143C12.0777 75.2558 12.5437 73.5776 12.6408 73.5191C12.699 73.48 12.9515 73.4409 13.2039 73.4409H13.6699L13.5534 73.7922ZM27.3786 74.2021C27.4951 74.5339 27.6699 74.9437 27.767 75.0803C27.8641 75.2169 27.9223 75.3534 27.9223 75.3534C27.9223 75.3729 27.7282 75.3729 27.4757 75.3534L27.0291 75.3143L26.7573 74.6118C26.6019 74.202 26.4466 73.8118 26.4078 73.7142C26.3301 73.5581 26.3495 73.5384 26.7184 73.5579C27.165 73.5774 27.165 73.5776 27.3786 74.2021ZM16.7184 75.8022C16.5049 77.1097 16.466 77.1878 16.1553 77.3634C15.8641 77.5 15.8058 77.5002 15.0097 77.1879C14.5631 77.0123 13.8835 76.778 13.4951 76.6804L12.7961 76.5049L13.0291 76.017L13.2621 75.5485L14.3884 75.5095C14.9903 75.49 15.7864 75.4705 16.1359 75.451L16.7573 75.4315L16.7184 75.8022ZM21.7864 75.5095C21.8252 75.568 21.8641 75.8023 21.9029 76.0755L21.9806 76.5634L21.3592 76.4852C20.0388 76.3096 18.8544 76.4463 17.0097 77.0122C16.8155 77.0707 16.8155 77.0707 16.9515 76.3292L17.1068 75.5682L17.6699 75.5291C18.7961 75.4315 21.7476 75.4314 21.7864 75.5095ZM12.6019 75.9585C12.466 76.1732 12.3301 76.2902 12.1359 76.3097C11.8447 76.3488 11.8252 76.2707 11.9612 75.8803C12.0388 75.7047 12.1553 75.6266 12.3883 75.6071C12.5631 75.5875 12.7379 75.5876 12.7573 75.5876C12.7767 75.6071 12.7184 75.7828 12.6019 75.9585ZM25.5534 75.7046L26.9126 75.7828L27.165 76.1731C27.301 76.3877 27.4175 76.5829 27.4175 76.6219C27.4175 76.6609 27.2621 76.6804 27.0874 76.6804C26.6214 76.6804 25.301 77.0318 24.6602 77.3246C24.2136 77.5392 24.1165 77.5392 23.9417 77.4416C23.8447 77.3635 23.4175 77.1683 23.0291 77.0122C22.233 76.7 22.1553 76.583 22.1359 75.9585L22.1165 75.5682L23.1456 75.6267C23.7282 75.6072 24.8155 75.6656 25.5534 75.7046ZM27.9029 75.7046C28.0777 75.7437 28.2524 75.8804 28.3689 76.0561L28.5437 76.3488H28.1359C27.8252 76.3488 27.6893 76.2901 27.534 76.0949C27.2039 75.6461 27.2816 75.568 27.9029 75.7046ZM13.4951 76.9343C14.0388 77.1099 14.7573 77.383 15.1068 77.5392C15.8058 77.8514 15.8058 77.8514 16.0971 79.3931C16.4078 81.13 16.466 84.3306 16.1942 85.8138L16.1359 86.165L15.8447 85.6966C15.2816 84.7793 14.699 84.3695 14.0194 84.3695C13.1456 84.3695 12.6408 84.7989 11.4757 86.5553C10.9709 87.3164 9.90291 88.7995 9.10679 89.8533L7.6699 91.7854H6.29126H4.8932V91.4536C4.8932 91.1414 4.93204 91.1024 5.37864 90.9463C6.1165 90.6731 7.26214 90.0485 7.86408 89.5606C10.0583 87.8627 11.3204 85.5014 11.4369 82.9253C11.534 80.8762 11.0485 79.6272 9.6699 78.2416L8.79612 77.3634L9.10679 77.1488C10.0388 76.4463 11.767 76.3683 13.4951 76.9343ZM21.8447 76.7C22.1942 76.7781 22.8155 77.0122 23.2233 77.2074C23.8641 77.5196 23.9612 77.5977 23.9029 77.7734C23.7087 78.4564 23.3398 80.5445 23.2427 81.5007C23.068 83.0815 23.1845 85.3453 23.4951 86.6723C23.8058 88.0774 24.1553 88.9556 24.7573 89.9509C25.165 90.6144 25.2621 90.8486 25.2621 91.2194V91.6878H24.3107C23.7864 91.6878 23.3592 91.6684 23.3592 91.6293C23.3592 91.1805 22.3883 85.8917 22.233 85.5599C21.8252 84.6037 20.9709 84.0574 19.8641 84.0574C18.8349 84.0769 18.0388 84.5257 17.6505 85.3259C17.4757 85.6967 17.3398 86.4381 17.0485 88.7214C16.8349 90.3217 16.6602 91.6682 16.6602 91.7073C16.6602 91.7658 16.2524 91.7854 15.7476 91.7854H14.8349L14.8932 91.1999C14.932 90.8292 15.0874 90.2438 15.3981 89.5217C16.2913 87.3945 16.6602 85.3454 16.6796 82.7498C16.6796 81.0129 16.5631 79.9006 16.2524 78.4955C16.0971 77.7929 16.0971 77.5783 16.1942 77.5197C16.466 77.3441 17.9417 76.817 18.5049 76.6804C19.3398 76.5048 21.068 76.5049 21.8447 76.7ZM7.37864 77.3246C9.08738 77.8515 10.5631 79.6272 10.8738 81.5593C11.2816 83.9596 10.1165 87.0627 8.21359 88.7605C7.28155 89.5997 5.76699 90.4778 4.81553 90.7706C4.38835 90.9072 4.38835 90.9073 4.38835 91.3366V91.766H2.29126H0.194175V91.4342V91.1024L1.37864 90.7315C4.56311 89.7167 7.1068 87.8824 8.07767 85.9113C8.69903 84.6233 8.99029 82.5547 8.67961 81.4228C8.23301 79.803 6.8932 78.5149 5.06796 77.988C4.75728 77.8904 4.48544 77.7733 4.48544 77.7343C4.48544 77.6758 4.71845 77.5196 5.00971 77.4025C5.6699 77.0707 6.52427 77.0513 7.37864 77.3246ZM34.9126 77.5586C35.1456 77.6952 35.3592 77.8318 35.3786 77.8904C35.3981 77.9489 34.9515 78.1246 34.4078 78.3198C32.7379 78.8662 31.7282 79.6469 31.1456 80.9349C30.9126 81.4423 30.8738 81.6179 30.8738 82.5156C30.8738 83.6865 31.068 84.3891 31.7864 85.8332C32.1748 86.6333 32.3495 86.8675 33.2621 87.7457C34.8544 89.2874 36.4272 90.2437 38.6019 90.9463C39.5922 91.278 39.7282 91.356 39.7282 91.5512V91.7854H37.6311H35.534V91.3951C35.534 91.0243 35.534 91.0242 34.7767 90.7315C32.1165 89.7167 29.9806 87.3944 29.2233 84.6817C28.932 83.6084 28.9126 81.9692 29.2233 81.091C29.5534 80.1347 29.9223 79.5297 30.6796 78.7686C31.6893 77.7343 32.5631 77.3635 33.8252 77.344C34.3301 77.344 34.5825 77.4025 34.9126 77.5586ZM20.7767 84.4671C21.2816 84.6037 21.9029 85.1696 22.0777 85.6966C22.1748 85.9307 22.3883 87.2773 22.5825 88.6824C22.7767 90.0875 22.9709 91.356 22.9903 91.5121L23.0485 91.7854H20H16.932L16.9903 91.5121C17.0291 91.356 17.1845 90.1265 17.3398 88.78C17.6699 86.0088 17.767 85.6576 18.0971 85.1892C18.6408 84.4867 19.767 84.1939 20.7767 84.4671ZM14.8544 84.9356C15.0485 85.0917 15.3786 85.5209 15.5922 85.8917L15.9612 86.5748L15.8058 87.1798C15.5922 88.0971 15.1262 89.4825 14.7767 90.146C14.5631 90.5949 14.4854 90.9072 14.4854 91.2585V91.766H11.1845C8.58253 91.766 7.90291 91.7269 7.96116 91.6293C8.01942 91.5708 8.69903 90.6339 9.51456 89.5606C10.3107 88.4872 11.2427 87.1798 11.5922 86.6529C11.9417 86.126 12.3883 85.5209 12.5825 85.3063C13.3204 84.5256 14.1553 84.3891 14.8544 84.9356ZM26.5825 84.8965C27.2039 85.1892 27.4369 85.4429 28.3107 86.7699C28.699 87.3554 29.6505 88.702 30.466 89.7754L31.9417 91.7269L28.7767 91.766C27.0485 91.7855 25.5922 91.7659 25.5728 91.7463C25.534 91.7268 25.4951 91.4731 25.4563 91.1609C25.3981 90.8291 25.2233 90.3607 24.9126 89.8533C24.6796 89.424 24.3107 88.585 24.0971 87.9605L23.7282 86.848L24 86.3405C24.5243 85.3648 25.3204 84.6624 25.8835 84.6428C26 84.6624 26.3107 84.7794 26.5825 84.8965Z" fill="#737678"/>
</svg>
