<svg width="110" height="48" viewBox="0 0 110 48" fill="none" xmlns="http://www.w3.org/2000/svg">
<path d="M0.0517578 1.16265C5.62922 0.909127 17.1644 2.75983 18.6856 12.1908C20.587 23.9795 28.1926 31.5852 33.1363 27.7824C38.0799 23.9795 38.4602 12.1908 47.2067 12.1908C55.9532 12.1908 65.8405 31.2049 69.6433 35.7683C73.4461 40.3317 85.6151 44.5148 94.3616 22.8387C101.359 5.49786 106.404 8.51476 108.052 12.1908" stroke="#C94444" stroke-width="2.28169"/>
<circle cx="5.32394" cy="5.32394" r="5.32394" transform="matrix(1 0 0 -1 73.4462 43.374)" fill="#C94444"/>
<circle cx="5.32394" cy="5.32394" r="7.32394" transform="matrix(1 0 0 -1 73.4462 43.374)" stroke="#F47C7C" stroke-opacity="0.6" stroke-width="4"/>
<line y1="-0.380282" x2="37.2676" y2="-0.380282" transform="matrix(0 -1 -1 0 78.77 38.05)" stroke="#C94444" stroke-width="0.760563" stroke-dasharray="3.04 3.04"/>
</svg>
