<svg width="580" height="407" viewBox="0 0 580 407" fill="none" xmlns="http://www.w3.org/2000/svg">
<path d="M473.563 398.266C532.244 398.266 579.814 391.666 579.814 383.525C579.814 375.384 532.244 368.784 473.563 368.784C414.882 368.784 367.312 375.384 367.312 383.525C367.312 391.666 414.882 398.266 473.563 398.266Z" fill="#EEEEEE"/>
<path d="M250.861 406.984C356.871 406.984 442.809 399.666 442.809 390.638C442.809 381.61 356.871 374.292 250.861 374.292C144.851 374.292 58.9128 381.61 58.9128 390.638C58.9128 399.666 144.851 406.984 250.861 406.984Z" fill="#EEEEEE"/>
<path d="M287.558 100.916C287.558 100.916 284.006 121.533 258.124 148.071C258.124 148.071 255.264 144.531 260.213 129.864C265.161 115.197 286.082 95.9223 287.558 100.916Z" fill="#447158"/>
<path d="M287.558 100.916C287.558 100.916 264.268 117.575 258.124 148.071C258.124 148.071 256.933 158.529 260.517 167.591" stroke="black" stroke-miterlimit="10" stroke-linecap="round"/>
<path d="M224.958 117.57C224.958 117.57 231.492 112.619 220.251 100.254C209.573 88.5072 198.268 77.9752 176.172 74.1152C176.172 74.1152 182.841 104.044 197.239 111.178C211.637 118.312 224.958 117.57 224.958 117.57Z" fill="#447158"/>
<path d="M171.326 139.577C171.326 139.577 194.379 144.606 233.478 131.558C233.478 131.558 231.054 127.516 213.583 126.157C196.112 124.797 166.776 136.218 171.326 139.577Z" fill="#447158"/>
<path d="M171.326 139.577C171.326 139.577 198.985 124.935 233.478 131.558C233.478 131.558 237.026 132.446 240.639 137.272" stroke="black" stroke-miterlimit="10" stroke-linecap="round"/>
<path d="M190.434 160.464C190.434 160.464 215.104 176.703 254.202 163.656C254.202 163.656 246.598 149.901 229.128 148.541C211.657 147.181 185.883 157.105 190.434 160.464Z" fill="#447158"/>
<path d="M190.434 160.464C190.434 160.464 217.024 148.057 254.202 163.656C254.202 163.656 258.574 165.602 262.187 170.428" stroke="black" stroke-miterlimit="10" stroke-linecap="round"/>
<path d="M273.938 81.3943C273.938 81.3943 281.219 80.5223 263.452 96.9573C246.675 112.477 248.808 112.598 248.808 112.598C248.808 112.598 255.174 89.3753 273.938 81.3943Z" fill="black"/>
<path d="M236.603 120.459C236.603 120.459 242.041 122.556 251.849 113.555C261.657 104.554 265.313 84.494 273.938 81.394C273.938 81.394 252.3 88.384 236.603 120.459Z" fill="#447158"/>
<path d="M272.265 189.382C261.202 167.098 245.843 141.782 224.958 117.571C224.958 117.571 219.827 110.852 202.002 93.4332C184.177 76.0142 176.172 74.1162 176.172 74.1162" stroke="black" stroke-miterlimit="10" stroke-linecap="round"/>
<path d="M271.383 82.4624C271.383 82.4624 250.793 91.4474 236.604 120.459C233.167 127.488 237.279 133.05 240.64 137.272" stroke="black" stroke-miterlimit="10" stroke-linecap="round"/>
<path d="M459.139 322.969C459.139 322.969 441.93 335.668 402.277 326.348C402.277 326.348 402.382 319.988 416.613 313.871C430.845 307.753 461.389 317.079 459.139 322.969Z" fill="#447158"/>
<path d="M457.909 321.811C457.909 321.811 430.751 312.734 402.455 325.66C402.455 325.66 393.289 330.835 388.057 339.056" stroke="black" stroke-miterlimit="10" stroke-linecap="round"/>
<path d="M401.76 295.031C401.76 295.031 409.604 297.414 413.016 281.056C416.258 265.516 418.15 250.181 408.304 230.026C408.304 230.026 387.988 252.993 390.664 268.837C393.34 284.682 401.76 295.031 401.76 295.031Z" fill="#447158"/>
<path d="M460.087 301.163C460.087 301.163 466.139 305.303 441.945 305.965C419.1 306.591 420.624 308.087 420.624 308.087C420.624 308.087 440.711 294.807 460.087 301.163Z" fill="black"/>
<path d="M406.264 305.963C406.264 305.963 408.974 311.123 422.283 310.811C435.592 310.499 451.557 297.815 460.088 301.163C460.088 301.163 439.202 292.169 406.264 305.963Z" fill="#447158"/>
<path d="M371.391 375.483C382.939 353.446 394.418 326.151 401.76 295.031C401.76 295.031 404.188 286.933 407.827 262.277C411.466 237.621 408.304 230.026 408.304 230.026" stroke="black" stroke-miterlimit="10" stroke-linecap="round"/>
<path d="M457.461 300.284C457.461 300.284 436.051 293.481 406.264 305.963C399.048 308.987 397 313.762 393.95 322.614" stroke="black" stroke-miterlimit="10" stroke-linecap="round"/>
<path d="M184.892 176.147C179.322 176.147 173.93 174.193 169.653 170.624L157.788 160.723C153.518 157.16 148.446 155.251 143.25 155.251H84.3628C79.0188 155.251 74.6868 159.583 74.6868 164.927V176.147V378.116C74.6868 387.337 82.1618 394.812 91.3828 394.812H384.934C392.106 394.812 397.92 388.998 397.92 381.825V189.134C397.92 181.962 392.106 176.148 384.934 176.148H184.892V176.147Z" fill="#DCDCDC"/>
<path d="M397.919 382.913C397.919 382.913 377.941 345.439 375.943 341.135L321.344 229.903C319.972 226.947 317.009 225.056 313.75 225.056H110.856C103.48 225.056 92.8118 221.19 87.1478 216.464L78.9608 209.632C74.6908 206.069 69.6188 204.16 64.4228 204.16H8.38183C2.41683 204.16 -1.63517 210.22 0.643832 215.732L68.4098 379.631C72.2088 388.818 81.1698 394.81 91.1108 394.81H394.254C396.23 394.81 398.055 393.117 398.054 391.141L397.919 382.913Z" fill="#BBBBBB"/>
<path d="M315.392 235.634L395.51 391.375" stroke="black" stroke-miterlimit="10" stroke-linejoin="round"/>
<path d="M282.379 262.472H213.366C211.484 262.472 209.733 261.525 208.722 259.962C206.39 256.354 209.022 251.631 213.366 251.631H282.379C284.261 251.631 286.012 252.578 287.023 254.141C289.355 257.75 286.723 262.472 282.379 262.472Z" stroke="black" stroke-miterlimit="10" stroke-linejoin="round"/>
<path d="M153.282 316L207.015 348.013" stroke="black" stroke-miterlimit="10" stroke-linecap="round" stroke-linejoin="round"/>
<path d="M197.215 314.457L163.451 348.206" stroke="black" stroke-miterlimit="10" stroke-linecap="round" stroke-linejoin="round"/>
<path d="M218.414 342.502C222.908 326.254 209.117 308.26 187.611 302.311C166.105 296.362 145.027 304.711 140.533 320.959C136.038 337.208 149.829 355.202 171.335 361.151C192.841 367.1 213.919 358.751 218.414 342.502Z" stroke="black" stroke-miterlimit="10" stroke-linecap="round" stroke-linejoin="round"/>
<path d="M457.657 176.252C458.946 170.682 453.019 163.738 447.408 164.833C442.84 165.724 440.566 166.819 439.833 167.061C438.398 167.534 427.69 166.837 426.464 168.621C425.576 169.913 431.162 171.405 434.735 171.76C435.471 171.833 435.688 172.795 435.059 173.184C431.548 175.361 424.558 179.786 423.964 180.879C423.167 182.344 419.536 188.041 420.559 188.673C421.582 189.306 424.676 186.46 426.686 184.44C428.697 182.42 434.572 180.702 434.572 180.702C434.572 180.702 424.357 190.955 423.01 193.798C421.005 198.031 426.823 196.175 426.823 196.175C425.912 198.567 430.684 198.043 431.812 197.14C434.04 195.357 440.927 187.047 440.947 187.893C440.967 188.74 433.832 197.795 434.555 199.91C435.278 202.025 438.164 199.371 439.833 197.14C441.503 194.909 446.406 188.673 446.406 188.673C446.406 188.673 451.976 184.607 456.626 177.584C456.663 177.528 457.642 176.318 457.657 176.252Z" fill="#DB9C7F"/>
<path d="M427.077 195.945L436.824 184.329" stroke="black" stroke-miterlimit="10" stroke-linecap="round"/>
<path d="M384.384 143.303L419.446 121.428C419.663 121.286 419.87 121.129 420.066 120.958L431.628 109.061C434.145 106.855 438.027 107.369 439.883 110.154L445.55 118.654C446.75 120.454 446.792 122.788 445.657 124.63L437.519 137.833C436.92 138.805 436.043 139.564 434.994 140.014C428.447 142.818 403.433 153.383 388.513 157.598C384.808 158.645 381.207 155.629 381.531 151.792L381.897 147.471C382.04 145.772 382.957 144.235 384.384 143.303Z" fill="#447158"/>
<path d="M465.134 361.876L463.28 374.472C463.28 374.472 428.537 387.818 431.76 388.011C434.983 388.204 484.911 385.299 484.911 385.299L481.973 362.432L465.134 361.876Z" fill="black"/>
<path d="M474.812 158.042C474.812 158.042 477.581 184.69 479.657 186.074C481.733 187.458 484.502 188.15 484.502 188.15L480.003 157.696L474.812 158.042Z" stroke="#424242" stroke-miterlimit="10"/>
<path d="M529.676 139.726C529.676 139.726 543.758 168.402 539.67 184.379L461.608 173.641L463.237 143.85L529.676 139.726Z" fill="black"/>
<path d="M531.82 145.535C531.82 145.535 520.786 165.968 499.672 167.602" stroke="#424242" stroke-miterlimit="10" stroke-linecap="round"/>
<path d="M514.157 163.243C514.157 163.243 518.434 176.488 530.851 176.761" stroke="#424242" stroke-miterlimit="10" stroke-linecap="round"/>
<path d="M461.608 173.641C461.608 173.641 440.694 248.098 440.152 272.068L455.433 364.411C455.433 364.411 470.01 371.659 485.193 365.802C485.815 365.562 477.496 317.908 476.911 268.842L520.555 177.523L461.608 173.641Z" fill="black"/>
<path d="M540.014 181.255L536.94 271.105L571.317 365.04C571.317 365.04 556.932 377.193 538.761 366.132L501.439 276.688L505.267 211.607L489.002 201.758L486.579 173.571L540.014 181.255Z" fill="black"/>
<path d="M479.604 164.833L496.176 177.319L519.933 150.796L462.225 159.04L476.346 177.765L479.604 164.833Z" fill="white"/>
<path d="M547.026 360.357L544.027 371.224C544.027 371.224 522.109 394.997 525.339 394.997C528.569 394.997 564.561 380.281 564.561 380.281L559.947 357.64L547.026 360.357Z" fill="black"/>
<path d="M526.871 152.436C526.871 152.436 536.351 175.739 529.521 273.49C529.521 273.49 553.464 326.185 565.879 367.864" stroke="#424242" stroke-miterlimit="10" stroke-linecap="round"/>
<path d="M492.03 204.088L468.135 270.647L478.382 367.864" stroke="#424242" stroke-miterlimit="10" stroke-linecap="round"/>
<path d="M387.816 156.444C387.816 156.444 388.28 158.775 383.119 160.555C377.958 162.335 374.921 161.77 374.921 161.77C374.921 161.77 363.343 148.114 362.829 147.632C362.315 147.149 363.19 141.898 366.615 139.795C368.695 138.518 376.761 140.6 382.777 142.432C386.971 143.709 389.559 147.91 388.854 152.237C388.578 153.938 388.232 155.515 387.816 156.444Z" fill="#DB9C7F"/>
<path d="M378.32 152.82C378.32 152.82 368.854 151.446 364.854 148.148C364.854 148.148 358.876 146.943 357.605 147.697C356.335 148.451 355.294 149.522 352.545 149.986C349.796 150.45 350.625 148.619 353.513 146.023C354.338 145.281 356.546 142.614 358.46 142.253C361.037 141.768 366.614 139.795 366.614 139.795L377.804 153.173" fill="#DB9C7F"/>
<path d="M374.921 161.77C374.921 161.77 371.083 164.178 369.733 164.112C368.383 164.047 367.108 163.242 366.778 161.024C366.778 161.024 359.63 162.336 361.895 156.927C361.895 156.927 357.577 156.227 357.462 153.409C357.462 153.409 353.627 151.498 354.466 148.435C355.304 145.371 367.337 145.649 367.337 145.649L380.105 152.131L374.921 161.77Z" fill="#DB9C7F"/>
<path d="M372.21 162.282C372.21 162.282 375.856 159.049 375.653 157.752C375.45 156.455 374.765 155.742 373.937 155.991C372.827 156.324 368.6 159.547 366.778 161.024" stroke="black" stroke-width="0.7799" stroke-miterlimit="10" stroke-linecap="round" stroke-linejoin="round"/>
<path d="M361.895 156.927C361.895 156.927 371.607 155.411 371.697 153.972C371.787 152.533 371.108 150.635 369.08 151.039C366.669 151.519 359.756 153.175 357.463 153.13" stroke="black" stroke-width="0.7799" stroke-miterlimit="10" stroke-linecap="round" stroke-linejoin="round"/>
<path d="M373.937 155.991C373.937 155.991 375.722 154.883 375.016 153.645C374.31 152.407 373.346 151.972 371.28 152.509" stroke="black" stroke-width="0.7799" stroke-miterlimit="10" stroke-linecap="round" stroke-linejoin="round"/>
<path d="M357.267 149.074C357.267 149.074 357.798 148.383 358.549 147.677" stroke="black" stroke-width="0.7799" stroke-miterlimit="10" stroke-linecap="round" stroke-linejoin="round"/>
<path d="M378.328 167.082L378.161 167.176C376.853 167.912 375.196 167.448 374.461 166.14L349.213 121.246L354.116 118.489L379.364 163.383C380.1 164.69 379.636 166.346 378.328 167.082Z" fill="#DCDCDC"/>
<path d="M361.694 128.461L363.813 132.229C364.388 133.251 364.128 134.488 363.232 134.991L358.654 137.566C357.758 138.07 356.567 137.649 355.992 136.628L353.781 132.697" fill="#DCDCDC"/>
<path d="M351.898 91.5912C343.14 75.3442 332.162 64.1602 325.185 63.6372L325.416 62.0942L321.77 64.4712C315.504 68.7382 318.834 87.7992 329.208 107.044C339.582 126.289 353.071 138.431 359.337 134.164L362.765 131.879L361.778 130.558C364.189 123.103 360.426 107.413 351.898 91.5912Z" fill="#DCDCDC"/>
<path d="M362.495 132.078C369.177 128.596 366.398 110.044 356.287 90.6417C346.177 71.2392 332.564 58.3329 325.882 61.8147C319.2 65.2965 321.98 83.848 332.09 103.251C342.2 122.653 355.813 135.559 362.495 132.078Z" fill="#737678"/>
<path d="M352.082 91.5722C360.525 107.235 363.839 122.335 359.486 125.3C355.132 128.265 344.759 117.972 336.316 102.309C327.873 86.6462 324.559 71.5462 328.912 68.5812C333.266 65.6162 343.639 75.9092 352.082 91.5722Z" fill="#D5D5D5"/>
<path d="M378.32 152.82C378.32 152.82 368.854 151.446 364.854 148.148C364.854 148.148 358.876 146.943 357.605 147.697C356.335 148.451 355.294 149.522 352.545 149.986C349.796 150.45 350.625 148.619 353.513 146.023C354.338 145.281 356.546 142.614 358.46 142.253C361.037 141.768 366.614 139.795 366.614 139.795L377.804 153.173" fill="#DB9C7F"/>
<path d="M378.32 152.82C378.32 152.82 368.854 151.446 364.854 148.148C364.854 148.148 358.876 146.943 357.605 147.697C356.335 148.451 355.294 149.522 352.545 149.986" stroke="black" stroke-width="0.7799" stroke-miterlimit="10" stroke-linecap="round" stroke-linejoin="round"/>
<path d="M352.082 91.5722C343.639 75.9092 333.266 65.6162 328.912 68.5812C328.568 68.8152 328.278 69.1332 328.028 69.5132C333.061 69.8192 341.864 79.3762 349.208 93.0002C356.984 107.426 360.404 121.366 357.495 125.796C358.248 125.842 358.918 125.685 359.484 125.3C363.839 122.335 360.524 107.234 352.082 91.5722Z" fill="#DCDCDC"/>
<path d="M346.204 85.4333C350.695 93.7653 352.458 101.798 350.142 103.375C347.826 104.952 342.308 99.4773 337.817 91.1453C333.326 82.8133 331.563 74.7803 333.879 73.2033C336.194 71.6263 341.713 77.1013 346.204 85.4333Z" fill="white"/>
<path d="M514.139 112.25L507.174 87.3983C504.617 78.2753 500.136 69.8333 494.214 62.4373C483.725 49.3353 456.173 50.5273 456.173 50.5273L434.975 65.7803C434.91 65.8153 434.845 65.8513 434.78 65.8873C422.299 72.7743 420.006 83.3983 420.334 99.7733L421.107 121.884L435.457 108.18L439.079 113.146C439.063 113.003 439.049 112.87 439.037 112.741L440.752 115.441L439.079 113.146C439.587 117.708 441.966 129.327 453.026 134.755L459.327 144.67L457.656 158.373C516.791 179.877 531.518 137.652 531.518 137.652L514.139 112.25Z" fill="#447158"/>
<path d="M432.424 105.9L440.167 115.369C440.167 115.369 439.109 129.963 453.814 134.642" stroke="black" stroke-miterlimit="10" stroke-linecap="round"/>
<path d="M491.19 125.173L446.182 164.388C446.182 164.388 455.094 176.865 459.105 177.311L513.025 142.998" fill="#447158"/>
<path d="M459.551 152.356C459.551 152.356 484.06 124.727 492.527 120.717" stroke="black" stroke-miterlimit="10" stroke-linecap="round"/>
<path d="M479.548 95.3721C479.548 95.3721 480.718 101.555 488.572 123.279" stroke="black" stroke-miterlimit="10" stroke-linecap="round"/>
<path d="M465.344 173.746C465.344 173.746 515.699 141.661 516.145 132.303C516.591 122.945 503.445 79.4971 503.445 79.4971" stroke="black" stroke-miterlimit="10" stroke-linecap="round"/>
<path d="M470.858 128.292C470.858 128.292 482.978 129.433 486.733 118.433" stroke="black" stroke-miterlimit="10" stroke-linecap="round"/>
<path d="M421.777 120.101C421.777 120.101 425.119 116.759 428.461 120.547" stroke="black" stroke-miterlimit="10" stroke-linecap="round"/>
<path d="M382.124 142.162L389.254 138.82C389.254 138.82 397.944 148.289 394.824 156.422L386.134 158.984C386.134 158.984 390.145 150.072 382.124 142.162Z" fill="white"/>
<path d="M449.023 159.374C449.023 159.374 458.381 163.385 465.065 174.915L457.879 180.43C457.879 180.43 449.022 167.73 442.839 165.724L449.023 159.374Z" fill="white"/>
<path d="M441.169 49.083L470.691 51.255C470.691 51.255 471.81 67.494 453.982 81.815L445.976 74.036L441.614 83.507C441.614 83.507 434.839 79.696 433.926 68.757L435.365 55.476L441.169 49.083Z" fill="white"/>
<path d="M456.174 50.5263C457.251 51.4443 457.762 52.8583 457.512 54.2513C456.564 59.5363 453.698 72.3283 447.952 73.9353C440.685 75.9683 436.153 61.6173 436.153 61.6173L439.776 36.5503L456.174 50.5263Z" fill="#DB9C7F"/>
<path d="M433.153 56.47L433.064 60.12C432.996 60.157 431.755 70.932 435.376 71.347C450.51 68.611 451.462 54.262 452.757 40.022C452.757 40.022 431.684 53.627 433.153 56.47Z" fill="black"/>
<path d="M407.958 29.5931C407.958 29.5931 404.27 64.7411 426.105 70.7891C447.941 76.8381 453.172 41.2281 452.419 28.9131C451.666 16.5981 446.177 12.0181 430.873 11.4661C408.231 10.6501 407.958 29.5931 407.958 29.5931Z" fill="#DB9C7F"/>
<path d="M427.575 46.5761C427.637 47.8411 427.036 48.9001 426.232 48.9411C425.428 48.9821 424.726 47.9891 424.664 46.7241C424.602 45.4591 425.203 44.4001 426.007 44.3591C426.811 44.3191 427.513 45.3111 427.575 46.5761Z" fill="black"/>
<path d="M429.973 40.1011C429.973 40.1011 422.759 43.2411 422.051 37.7871" stroke="black" stroke-miterlimit="10" stroke-linecap="round"/>
<path d="M413.297 40.1152C413.297 40.1152 410.914 44.2522 408.174 42.4142" stroke="black" stroke-miterlimit="10" stroke-linecap="round"/>
<path d="M409.464 47.463C409.464 47.463 410.827 47.023 412.827 48.079" stroke="black" stroke-miterlimit="10" stroke-linecap="round"/>
<path d="M430.844 60.5741C430.844 60.5741 432.811 58.6931 434.435 58.2651" stroke="black" stroke-miterlimit="10" stroke-linecap="round"/>
<path d="M416.085 51.5132C416.085 51.5132 414.831 54.3632 418.023 55.7312" stroke="black" stroke-miterlimit="10" stroke-linecap="round"/>
<path d="M407.702 37.1504C407.702 37.1504 408.072 26.8584 412.632 21.0434C412.632 21.0434 418.902 35.2944 445.921 38.2014L453.787 36.5484C453.787 36.5484 457.008 20.0464 445.721 13.5484C434.435 7.0504 417.162 10.6414 411.605 16.4844C402.185 26.3884 407.702 37.1504 407.702 37.1504Z" fill="black"/>
<path d="M440.677 36.3202L445.351 45.5542L448.657 35.1802L440.677 36.3202Z" fill="black"/>
<path d="M457.014 44.5953C455.668 49.5073 451.803 52.7543 448.383 51.8483C444.963 50.9423 443.281 46.2253 444.628 41.3133C445.974 36.4013 449.839 33.1543 453.259 34.0603C456.679 34.9663 458.36 39.6833 457.014 44.5953Z" fill="#DB9C7F"/>
<path d="M453.581 40.3184C453.581 40.3184 449.734 37.0084 447.632 43.0604C447.632 43.0604 449.879 45.4454 448.461 47.3174C448.461 47.3174 450.676 47.8204 451.769 45.8664" stroke="black" stroke-miterlimit="10" stroke-linecap="round" stroke-linejoin="round"/>
<path d="M451.916 42.6334C451.916 42.6334 451.702 41.2884 450.208 39.7544" stroke="black" stroke-miterlimit="10" stroke-linecap="round" stroke-linejoin="round"/>
<path d="M453.787 51.6822C453.787 53.5242 452.294 55.0172 450.452 55.0172C448.61 55.0172 447.117 53.5242 447.117 51.6822C447.117 49.8402 448.61 48.3472 450.452 48.3472C452.294 48.3472 453.787 49.8402 453.787 51.6822Z" fill="white"/>
<path d="M444.439 17.8512C444.439 17.8512 448.543 -3.58179 458.12 0.522214C467.696 4.62621 472.029 25.1472 462.908 26.7432C453.788 28.3392 446.719 24.0072 446.719 24.0072L444.439 17.8512Z" fill="black"/>
<path d="M444.553 24.0073C444.553 24.0073 460.4 37.2323 465.53 25.0333" stroke="black" stroke-miterlimit="10" stroke-linecap="round"/>
<path d="M504.44 211.101L486.096 200.749" stroke="#424242" stroke-miterlimit="10" stroke-linecap="round"/>
<path d="M88.0659 75.1494C107.887 75.6894 124.287 91.5655 125.428 111.361C126.099 123.001 121.588 133.593 113.996 141.066C112.874 142.17 112.353 143.744 112.615 145.296L115.466 162.167L97.9239 151.946C96.9249 151.364 95.7479 151.15 94.6139 151.379C90.3259 152.244 85.7829 152.403 81.0999 151.694C63.7709 149.069 50.2509 134.723 48.6529 117.269C46.5229 94.0065 65.1039 74.5234 88.0659 75.1494Z" fill="#BBBBBB"/>
<path d="M85.234 126.966L85.126 117.761C86.469 117.434 87.694 117.008 88.802 116.481C89.909 115.955 90.881 115.347 91.716 114.656C92.551 113.967 93.25 113.195 93.814 112.341C94.377 111.488 94.802 110.571 95.094 109.591C95.384 108.611 95.53 107.576 95.53 106.486C95.53 104.925 95.148 103.454 94.385 102.074C93.623 100.695 92.533 99.5776 91.117 98.7236C89.701 97.8706 88.013 97.4436 86.052 97.4436C83.946 97.4436 81.994 98.0256 80.197 99.1866C78.399 100.35 77.028 102.328 76.085 105.124L75.105 104.47C75.94 101.82 77.338 99.7856 79.299 98.3696C81.26 96.9526 83.492 96.2446 85.998 96.2446C88.141 96.2446 90.019 96.6996 91.636 97.6066C93.251 98.5146 94.513 99.7406 95.421 101.284C96.328 102.827 96.783 104.561 96.783 106.486C96.783 107.939 96.538 109.3 96.048 110.571C95.558 111.842 94.867 113.004 93.978 114.057C93.088 115.111 92.008 116.027 90.737 116.808C89.466 117.59 88.032 118.179 86.434 118.578L86.326 126.966H85.234ZM84.581 133.829C84.581 133.357 84.708 132.967 84.962 132.658C85.216 132.35 85.562 132.195 85.997 132.195C86.505 132.195 86.868 132.341 87.087 132.631C87.305 132.922 87.413 133.321 87.413 133.829C87.413 134.265 87.295 134.646 87.059 134.973C86.822 135.3 86.468 135.463 85.996 135.463C85.523 135.463 85.17 135.317 84.933 135.027C84.698 134.737 84.581 134.338 84.581 133.829Z" fill="black"/>
</svg>
