<svg width="24px" height="24px" viewBox="0 0 24 24" fill="none" xmlns="http://www.w3.org/2000/svg" transform="rotate(0) scale(1, 1)">
<path d="M18.6668 10.3333C18.6668 14.4941 14.051 18.8275 12.501 20.1658C12.3566 20.2744 12.1808 20.3331 12.0002 20.3331C11.8195 20.3331 11.6437 20.2744 11.4993 20.1658C9.94933 18.8275 5.3335 14.4941 5.3335 10.3333C5.3335 8.56518 6.03588 6.86949 7.28612 5.61925C8.53636 4.36901 10.2321 3.66663 12.0002 3.66663C13.7683 3.66663 15.464 4.36901 16.7142 5.61925C17.9645 6.86949 18.6668 8.56518 18.6668 10.3333Z" stroke="#ffffff" stroke-width="1.66667" stroke-linecap="round" stroke-linejoin="round"/>
<path d="M12 12.8334C13.3807 12.8334 14.5 11.7141 14.5 10.3334C14.5 8.95266 13.3807 7.83337 12 7.83337C10.6193 7.83337 9.5 8.95266 9.5 10.3334C9.5 11.7141 10.6193 12.8334 12 12.8334Z" stroke="#ffffff" stroke-width="1.66667" stroke-linecap="round" stroke-linejoin="round"/>
</svg>