<svg width="110px" height="92px" viewBox="0 0 110 92" fill="none" xmlns="http://www.w3.org/2000/svg" transform="rotate(0) scale(1, 1)">
<path d="M55.2061 91.8105C81.5272 91.8105 94.8374 91.8103 101.609 91.7842C104.996 91.7711 106.745 91.7519 107.668 91.7227C108.131 91.708 108.38 91.6905 108.521 91.6719C108.654 91.6544 108.673 91.638 108.687 91.6299L108.689 91.6279C109.4 91.2061 109.4 90.1084 108.689 89.6865L108.681 89.6807C108.495 89.5567 108.281 89.5039 107.77 89.5039H106.85V40.5635L106.675 40.3008C106.526 40.0854 106.542 40.0431 106.408 39.9814C106.335 39.9477 106.216 39.9138 106.011 39.8848C105.806 39.856 105.526 39.8332 105.137 39.8154C103.575 39.744 100.329 39.7568 93.3506 39.7568H80.5684V39.5674L80.542 32.3975C80.529 28.8888 80.5224 27.0994 80.4932 26.1445C80.4785 25.6655 80.4579 25.4072 80.4307 25.25C80.4057 25.1059 80.3758 25.0552 80.334 24.9873C80.333 24.986 80.332 24.9838 80.3301 24.9814C80.3254 24.9759 80.3184 24.9686 80.3086 24.959C80.2888 24.9395 80.2605 24.9134 80.2197 24.8809C80.1378 24.8154 80.0148 24.7275 79.8359 24.6074C79.4788 24.3676 78.9084 24.0085 78.0127 23.4629C76.2215 22.3719 73.1396 20.5403 67.8857 17.4375C62.188 14.0736 59.106 12.2561 57.3965 11.2793C56.5408 10.7904 56.0338 10.5145 55.7158 10.3613C55.3938 10.2062 55.2903 10.1895 55.2324 10.1895C55.1728 10.1895 55.0666 10.2061 54.748 10.3555C54.433 10.5032 53.9319 10.77 53.0928 11.2441C51.4162 12.1915 48.4061 13.9571 42.8652 17.2295H42.8662C39.581 19.1719 36.5425 20.964 34.3037 22.2871C33.1842 22.9487 32.2645 23.493 31.6133 23.8799C31.2877 24.0733 31.0291 24.2273 30.8467 24.3369C30.7555 24.3917 30.6836 24.4351 30.6318 24.4668C30.6059 24.4827 30.5854 24.4963 30.5703 24.5059C30.563 24.5105 30.557 24.5138 30.5527 24.5166C30.5492 24.5189 30.5473 24.5202 30.5469 24.5205L30.5371 24.5273L30.2949 24.6738C30.2364 24.7132 30.1963 24.7498 30.1631 24.7979C30.092 24.901 30.0295 25.0928 29.9873 25.5635C29.9454 26.0307 29.9256 26.7335 29.915 27.8223L29.8965 32.3975L29.8701 39.5674L29.8691 39.7568H4.48926L4.13965 39.9434H4.13867C4.07857 39.977 4.02358 39.9968 3.97949 40.0107C3.92796 40.027 3.90927 40.0313 3.88672 40.041C3.8724 40.0472 3.8653 40.0519 3.8584 40.0596C3.84966 40.0693 3.83333 40.0925 3.81445 40.1436C3.77498 40.2505 3.73647 40.4438 3.7041 40.8018C3.67205 41.1563 3.64745 41.6587 3.62793 42.3721C3.54982 45.2271 3.5625 51.4151 3.5625 64.9619V89.5039H2.66895C2.12976 89.5039 1.917 89.5571 1.73145 89.6807V89.6816L1.72266 89.6865C1.05682 90.082 1.01518 91.0712 1.59766 91.541L1.72266 91.6279L1.73145 91.6338C1.73862 91.6388 1.75407 91.6546 1.88379 91.6719C2.02318 91.6904 2.27079 91.708 2.7334 91.7227C3.65555 91.7519 5.4053 91.7711 8.79297 91.7842C15.5682 91.8103 28.885 91.8105 55.2061 91.8105ZM32.2285 26.1875L32.3213 26.1318L43.6113 19.457V19.458C46.7142 17.6197 49.5563 15.9506 51.6328 14.7412C52.671 14.1365 53.5188 13.6465 54.1113 13.3076C54.4073 13.1384 54.6399 13.0058 54.8018 12.916C54.8824 12.8713 54.9466 12.8364 54.9922 12.8125C55.0147 12.8007 55.035 12.7907 55.0508 12.7832C55.0584 12.7796 55.0679 12.7751 55.0771 12.7715C55.0816 12.7697 55.0885 12.7671 55.0967 12.7646C55.1005 12.7635 55.1245 12.7568 55.1543 12.7568C55.1836 12.7569 55.2066 12.7633 55.2109 12.7646C55.2195 12.7672 55.2269 12.7707 55.2314 12.7725C55.2407 12.7762 55.2502 12.7796 55.2578 12.7832C55.2736 12.7907 55.293 12.8016 55.3154 12.8135C55.361 12.8376 55.4252 12.8729 55.5059 12.918C55.6677 13.0084 55.901 13.1412 56.1973 13.3115C56.7901 13.6524 57.6381 14.1448 58.6777 14.751C60.7572 15.9634 63.6061 17.632 66.7217 19.457H66.7227L78.0381 26.1318L78.1318 26.1875V32.0654H32.2285V26.1875ZM32.2285 34.4492H78.1318V66.0645H32.2285V34.4492ZM5.84277 42.1406H29.8438V89.5039H5.84277V42.1406ZM80.542 42.1406H104.544V89.5039H80.542V42.1406ZM32.2803 68.4482H78.1318V89.5039H63.7764V78.8906L63.6006 78.627C63.4791 78.4484 63.4414 78.3765 63.3252 78.3145C63.1971 78.2462 62.9649 78.1898 62.4473 78.1523C61.4198 78.078 59.3964 78.084 55.1797 78.084C51.4891 78.084 49.5893 78.0844 48.5625 78.1104C47.7872 78.13 47.5295 78.1647 47.3857 78.2148L47.2646 78.2705L47.2578 78.2734L47.0195 78.3906C46.9621 78.4221 46.9221 78.4511 46.8867 78.4922C46.8212 78.5685 46.7589 78.7092 46.7158 79.0615C46.6512 79.5905 46.6381 80.5045 46.6357 82.1699V89.5303H32.2803V68.4482ZM48.8887 80.4688H61.4707V89.5039H48.8887V80.4688Z" stroke="#ffffff" stroke-width="0.37963"/>
<path d="M40.4589 44.5897C41.0912 45.6429 42.5116 45.7178 43.203 44.7157L43.2675 44.6151L43.2694 44.6122C43.3831 44.4172 43.4465 44.2461 43.4794 43.9061C43.5103 43.5864 43.5165 43.0952 43.5165 42.2528C43.5165 41.4479 43.5105 40.9529 43.4833 40.6259C43.4556 40.2935 43.4028 40.1022 43.2948 39.9208C43.1093 39.6003 42.7864 39.3746 42.4452 39.2509C42.1029 39.1268 41.7097 39.0922 41.3573 39.1884L41.3505 39.1903L41.3427 39.1932C41.1717 39.2502 40.9202 39.3696 40.7694 39.5165V39.5155C40.7685 39.5164 40.7674 39.5176 40.7665 39.5184C40.7651 39.5198 40.763 39.5209 40.7616 39.5223V39.5233C40.6521 39.6265 40.5538 39.7394 40.4745 39.8856C40.3941 40.0339 40.3396 40.2032 40.3016 40.4091C40.2277 40.8106 40.2089 41.3978 40.2089 42.3309C40.2089 43.1341 40.2159 43.6065 40.2469 43.9139C40.2798 44.239 40.3439 44.4063 40.4598 44.5897H40.4589Z" stroke="#ffffff" stroke-width="0.569444"/>
<path d="M49.1698 44.6401C49.8091 45.7559 51.3309 45.6994 51.9803 44.6176H51.9794C52.0316 44.535 52.08 44.4482 52.1171 44.3344C52.1539 44.2213 52.1775 44.0924 52.1932 43.9311C52.2242 43.6144 52.2303 43.1229 52.2303 42.2807C52.2303 41.4385 52.2242 40.947 52.1932 40.6303C52.1775 40.469 52.1539 40.3401 52.1171 40.227C52.0797 40.1122 52.0302 40.0251 51.9774 39.9418L51.9784 39.9409C51.5742 39.288 50.8481 39.0009 50.1268 39.1889L50.1132 39.1928C49.6001 39.3532 49.1389 39.8219 48.9843 40.4096L48.9813 40.4194V40.4203C48.9486 40.5681 48.9297 40.8562 48.9169 41.2045C48.9037 41.5644 48.8964 42.0177 48.8964 42.5151V42.5209C48.9093 43.2204 48.9224 43.6528 48.9569 43.9496C48.9932 44.2621 49.0558 44.4446 49.1698 44.6401Z" stroke="#ffffff" stroke-width="0.569444"/>
<path d="M57.9089 44.593C58.3675 45.3268 59.2204 45.6273 59.99 45.2747H59.991C60.1648 45.1945 60.3331 45.1055 60.4705 44.971C60.615 44.8293 60.7075 44.6557 60.7664 44.4339C60.8233 44.2195 60.8512 43.9507 60.8669 43.6096C60.8827 43.2663 60.8865 42.8318 60.8865 42.2786C60.8865 41.4594 60.8798 40.9463 60.8562 40.6087C60.8326 40.2722 60.7903 40.071 60.6941 39.8977L60.6824 39.8782C60.4863 39.5842 60.1781 39.3683 59.8494 39.2473C59.5205 39.1264 59.1449 39.0909 58.8025 39.1888L58.7908 39.1917V39.1927C58.622 39.2489 58.3747 39.3658 58.2234 39.51V39.5091C58.2201 39.512 58.2169 39.5159 58.2136 39.5188C58.2126 39.5199 58.2108 39.5207 58.2097 39.5218V39.5227C58.0959 39.6243 57.9912 39.7309 57.908 39.8684C57.8203 40.0135 57.7655 40.1759 57.7302 40.3743C57.6629 40.7539 57.657 41.326 57.657 42.2786C57.657 43.1079 57.6641 43.593 57.6951 43.9065C57.728 44.2397 57.792 44.4074 57.9099 44.593H57.9089Z" stroke="#ffffff" stroke-width="0.569444"/>
<path d="M66.6317 44.6898C67.3486 45.6867 68.7668 45.628 69.3964 44.598H69.3973C69.5157 44.412 69.58 44.2438 69.6132 43.9124C69.6442 43.6019 69.6503 43.1233 69.6503 42.307C69.6503 41.5406 69.6443 41.0587 69.6171 40.7318C69.5896 40.4027 69.5383 40.2044 69.4374 40.016C69.0604 39.262 68.2589 38.9393 67.4706 39.223L67.4686 39.224C67.2142 39.3177 67.0091 39.4127 66.8466 39.5706C66.6833 39.7295 66.5871 39.9283 66.493 40.1703L66.4901 40.1771C66.3387 40.601 66.3178 41.0239 66.3436 42.4681L66.3651 43.4486C66.3743 43.7018 66.3868 43.8898 66.4042 44.0355C66.422 44.185 66.4467 44.3028 66.4852 44.4085C66.5243 44.5158 66.5736 44.5986 66.6229 44.6761L66.6268 44.683L66.6317 44.6898Z" stroke="#ffffff" stroke-width="0.569444"/>
<path d="M40.5009 52.6465C41.3154 53.8477 43.0469 53.5668 43.4266 52.166L43.4598 52.0176C43.4893 51.8481 43.5068 51.6197 43.5165 51.3584C43.5231 51.1785 43.5262 50.9746 43.5262 50.75L43.5165 50.0176C43.4908 49.0813 43.4591 48.4925 43.3329 48.1026C43.2653 47.8939 43.1677 47.7288 43.0243 47.5928C42.8865 47.4621 42.7206 47.3711 42.5428 47.2891C42.3257 47.1869 42.143 47.1083 41.951 47.086C41.7495 47.0625 41.5653 47.1039 41.3475 47.1719L41.3427 47.1739C41.1741 47.23 40.9277 47.3473 40.7762 47.4912V47.4903C40.7739 47.4923 40.7718 47.495 40.7694 47.4971C40.7672 47.4993 40.7638 47.5007 40.7616 47.503V47.5039C40.647 47.6061 40.5454 47.7181 40.4647 47.8643C40.3815 48.0153 40.328 48.1877 40.2919 48.3955C40.2216 48.7996 40.2089 49.394 40.2089 50.3379C40.2089 51.1881 40.2088 51.6646 40.2401 51.9639C40.2564 52.1192 40.2831 52.2448 40.33 52.3594C40.377 52.4744 40.4383 52.563 40.5009 52.6465Z" stroke="#ffffff" stroke-width="0.569444"/>
<path d="M49.0089 52.1286C49.3858 53.5411 51.1332 53.8226 51.9454 52.6042C51.9994 52.5232 52.0551 52.4364 52.0988 52.3239C52.1423 52.2116 52.1687 52.0869 52.1866 51.9275C52.2214 51.6178 52.2277 51.123 52.2277 50.2302C52.2277 49.3876 52.2215 48.8955 52.1906 48.5788C52.1748 48.4177 52.1512 48.2895 52.1144 48.1765C52.0766 48.0604 52.0282 47.9715 51.9747 47.8874L51.9728 47.8845C51.5136 47.1804 50.6887 46.8817 49.8947 47.2605V47.2595C49.7157 47.3421 49.5477 47.4347 49.4083 47.5671C49.2642 47.7041 49.1643 47.8705 49.0948 48.0808C48.9643 48.4762 48.9329 49.0654 48.92 49.9909L48.921 49.9919C48.908 50.515 48.9077 50.9632 48.921 51.3191C48.934 51.6666 48.9605 51.9502 49.0089 52.1286Z" stroke="#ffffff" stroke-width="0.569444"/>
<path d="M57.949 52.645C58.4756 53.4081 59.4467 53.6321 60.2312 53.1313C60.3679 53.045 60.499 52.947 60.6023 52.8022C60.7061 52.6567 60.7674 52.4865 60.8064 52.2788C60.881 51.8811 60.8865 51.2614 60.8865 50.2319C60.8865 49.6778 60.8818 49.2406 60.863 48.894C60.8444 48.5498 60.8108 48.2775 60.7478 48.06C60.6827 47.8351 60.5832 47.6603 60.4304 47.521C60.285 47.3883 60.1082 47.304 59.9265 47.2299L59.9255 47.2309C59.7101 47.1422 59.5375 47.0753 59.3552 47.0659C59.1699 47.0564 58.9986 47.107 58.7957 47.1704L58.7908 47.1714C58.622 47.2276 58.3748 47.3454 58.2234 47.4897V47.4887C58.2199 47.4918 58.2161 47.4954 58.2126 47.4985C58.2118 47.4994 58.2106 47.5006 58.2097 47.5014V47.5024C58.0958 47.604 57.9903 47.7107 57.907 47.8491C57.8194 47.9946 57.7654 48.1573 57.7302 48.3569C57.6629 48.7395 57.657 49.3178 57.657 50.2837C57.657 51.1606 57.657 51.6502 57.6882 51.9555C57.7044 52.1135 57.7303 52.2404 57.7771 52.3559C57.8242 52.4723 57.8863 52.5614 57.949 52.645Z" stroke="#ffffff" stroke-width="0.569444"/>
<path d="M66.4911 52.3118C66.9668 53.6117 68.6204 53.7543 69.368 52.6068L69.4481 52.4788C69.4742 52.4331 69.4985 52.3832 69.5204 52.3275C69.564 52.2161 69.5912 52.0934 69.6093 51.9368C69.6441 51.6333 69.6503 51.1512 69.6503 50.2845C69.6503 49.5181 69.6443 49.0362 69.6171 48.7093C69.5896 48.3802 69.5384 48.1819 69.4374 47.9935C69.2375 47.5937 68.9222 47.3096 68.5389 47.179C68.1567 47.0489 67.7301 47.0784 67.3212 47.2601L67.3173 47.262C67.1396 47.344 66.9722 47.4348 66.8339 47.5677C66.69 47.7059 66.5933 47.8743 66.5262 48.0872C66.4008 48.4859 66.3693 49.0932 66.3436 50.0687V50.0706C66.3178 51.4639 66.3388 51.8861 66.4901 52.3099L66.4911 52.3118Z" stroke="#ffffff" stroke-width="0.569444"/>
<path d="M40.5023 60.6146C41.3107 61.8192 43.0835 61.5809 43.4613 60.1331H43.4603C43.5096 59.9618 43.5356 59.677 43.5482 59.3353C43.5615 58.9754 43.5623 58.5192 43.5492 57.9945V57.9935C43.5235 57.0571 43.4919 56.4684 43.3656 56.0785C43.298 55.8698 43.2004 55.7047 43.057 55.5687C42.9193 55.4381 42.7531 55.3479 42.5756 55.266L42.5726 55.265C42.3119 55.1476 42.0842 55.0599 41.8539 55.0511C41.612 55.0419 41.4037 55.1199 41.1771 55.2464C41.0029 55.3368 40.8347 55.428 40.6986 55.555C40.5527 55.6913 40.4556 55.8557 40.391 56.0716C40.3292 56.2783 40.2966 56.5359 40.2767 56.8636C40.2567 57.1936 40.2481 57.6138 40.2416 58.1537L40.2299 59.2718C40.2299 59.5554 40.2356 59.7605 40.2494 59.9164C40.2638 60.0784 40.289 60.2066 40.3353 60.3236C40.3811 60.439 40.4425 60.5296 40.5013 60.6146H40.5023Z" stroke="#ffffff" stroke-width="0.569444"/>
<path d="M50.7972 61.3689C51.0837 61.3398 51.3429 61.2238 51.5746 61.0388L51.7631 60.8757C51.8224 60.8176 51.8777 60.7541 51.9271 60.6823C52.0279 60.5357 52.0929 60.3693 52.1361 60.1628C52.2184 59.7689 52.2299 59.1743 52.2299 58.1823C52.2299 57.3528 52.2238 56.867 52.1927 56.5534C52.1597 56.2193 52.0955 56.0512 51.9769 55.865C51.7491 55.5015 51.4289 55.2457 51.0531 55.1325C50.6774 55.0194 50.2684 55.0561 49.8744 55.237V55.2361C49.6924 55.3169 49.5186 55.4069 49.3773 55.5427C49.2291 55.6852 49.1347 55.8602 49.0736 56.0827C49.0146 56.2978 48.9843 56.5654 48.9681 56.9021C48.9519 57.2409 48.9486 57.6676 48.9486 58.2077C48.9486 58.7544 48.952 59.1852 48.9691 59.5261C48.9861 59.8647 49.0181 60.1343 49.0814 60.3513C49.1474 60.5768 49.249 60.7512 49.4047 60.8933C49.5518 61.0275 49.733 61.1196 49.9252 61.2058C50.2205 61.3387 50.5121 61.3977 50.7972 61.3689Z" stroke="#ffffff" stroke-width="0.569444"/>
<path d="M58.7218 61.2972C59.1017 61.4319 59.5221 61.4012 59.9318 61.2064L59.9327 61.2073C60.1108 61.1282 60.2846 61.0422 60.4259 60.9114C60.5761 60.7724 60.6719 60.6 60.7335 60.3773C60.7928 60.1631 60.8229 59.8943 60.839 59.5521C60.8552 59.2072 60.8585 58.7691 60.8585 58.2093C60.8585 57.6559 60.8548 57.2213 60.839 56.8782C60.8233 56.5377 60.7945 56.2691 60.7374 56.056C60.6783 55.8354 60.5858 55.6625 60.4386 55.5237C60.2999 55.393 60.1301 55.3109 59.9572 55.2376C59.7436 55.1442 59.5698 55.0802 59.382 55.0667C59.1953 55.0534 59.0185 55.0907 58.8097 55.1429L58.8029 55.1448L58.795 55.1468C58.3716 55.2771 58.0304 55.5968 57.8195 55.9886V55.9896C57.7671 56.0878 57.7397 56.2316 57.7208 56.3587C57.6998 56.5007 57.6823 56.676 57.6691 56.8704C57.6424 57.2604 57.629 57.7442 57.629 58.2259C57.629 58.7075 57.6425 59.1922 57.6691 59.5853C57.6824 59.7814 57.6998 59.9587 57.7208 60.1028C57.7399 60.234 57.7664 60.3766 57.8156 60.4749L57.8195 60.4827H57.8204C58.0306 60.8727 58.3416 61.1623 58.7218 61.2972Z" stroke="#ffffff" stroke-width="0.569444"/>
<path d="M66.489 60.3489C66.9973 61.6192 68.619 61.7258 69.363 60.6097C69.4169 60.5288 69.4718 60.4424 69.5154 60.3314C69.5591 60.2199 69.5862 60.0966 69.6042 59.9398C69.6391 59.6362 69.6453 59.1541 69.6453 58.2874C69.6453 57.2935 69.6272 56.6849 69.5339 56.2757C69.4853 56.0622 69.4135 55.89 69.3064 55.7396C69.2026 55.5939 69.0753 55.4835 68.9382 55.3802C68.7561 55.2345 68.5089 55.1499 68.2751 55.1097C68.0375 55.0688 67.7784 55.0666 67.5544 55.1146L67.5496 55.1155C67.3008 55.173 67.0585 55.3567 66.8728 55.553C66.6823 55.7546 66.5109 56.0125 66.4294 56.2728L66.4275 56.2786C66.3713 56.4715 66.3398 56.7948 66.322 57.1487C66.3037 57.5133 66.2988 57.9419 66.3054 58.3636C66.312 58.7852 66.3308 59.204 66.3591 59.5491C66.3733 59.7215 66.3901 59.879 66.4099 60.0101C66.4288 60.1348 66.4531 60.2561 66.488 60.346L66.489 60.3489Z" stroke="#ffffff" stroke-width="0.569444"/>
<path d="M13.0001 53.3948C13.7787 53.8785 14.7509 53.5697 15.2374 52.7835C15.2918 52.6981 15.342 52.6069 15.38 52.4808C15.4163 52.3603 15.4388 52.2181 15.4542 52.0316C15.4847 51.662 15.4913 51.0616 15.4913 49.9974C15.4913 48.7202 15.4792 47.9803 15.3839 47.5179C15.3341 47.2764 15.2584 47.0867 15.1339 46.928C15.012 46.7727 14.8591 46.668 14.7023 46.5726L14.6915 46.5667C14.0763 46.2284 13.2929 46.28 12.7765 46.7318L12.7745 46.7337C12.6401 46.854 12.5168 46.9827 12.4191 47.1536C12.3215 47.3244 12.2581 47.5211 12.2169 47.7698C12.1368 48.2542 12.1324 48.9938 12.1583 50.2376C12.1648 50.8413 12.1711 51.3071 12.1876 51.6693C12.2041 52.0291 12.2311 52.3041 12.2833 52.5208C12.3376 52.7456 12.4214 52.9188 12.5558 53.0648C12.6816 53.2014 12.8397 53.2996 13.0001 53.3958V53.3948Z" stroke="#ffffff" stroke-width="0.569444"/>
<path d="M20.5653 52.9004C20.9981 53.6038 21.9128 53.7951 22.6659 53.4336L22.6649 53.4326C22.8331 53.3549 23.0054 53.269 23.1444 53.1289C23.2921 52.9799 23.3814 52.7934 23.4384 52.5508C23.5456 52.0933 23.5575 51.3339 23.5575 49.9951C23.5575 48.8916 23.5508 48.2661 23.5204 47.8808C23.5051 47.6868 23.4829 47.5395 23.4471 47.416C23.4103 47.2888 23.36 47.1975 23.3055 47.1113L23.3065 47.1103C22.8526 46.3646 21.8149 46.1598 21.0692 46.5947L21.0643 46.5976C20.9126 46.69 20.7609 46.7902 20.6405 46.9394C20.5156 47.0942 20.4417 47.2792 20.3954 47.5166C20.3073 47.9681 20.3016 48.7079 20.3016 50.0215C20.3016 51.1227 20.302 51.743 20.329 52.1211C20.3426 52.3119 20.3644 52.4598 20.4032 52.5849C20.4443 52.7173 20.5009 52.8118 20.5653 52.9004Z" stroke="#ffffff" stroke-width="0.569444"/>
<path d="M13.8038 63.6591C14.0433 63.6591 14.2341 63.6462 14.3986 63.5986C14.5307 63.5603 14.6353 63.5027 14.7316 63.4306L14.8263 63.3535L14.8351 63.3457C14.9643 63.2229 15.0873 63.102 15.1837 62.9521C15.2842 62.7959 15.347 62.6226 15.3878 62.3984C15.4653 61.9722 15.4708 61.3004 15.4708 60.0888C15.4708 58.8766 15.4653 58.2003 15.3917 57.7724C15.3532 57.5485 15.2936 57.3743 15.1974 57.2187C15.1055 57.0702 14.9878 56.9541 14.8654 56.8379C14.6589 56.6314 14.3273 56.5195 14.0343 56.4736C13.7386 56.4273 13.3969 56.4339 13.1447 56.542V56.5429C12.9356 56.6308 12.7373 56.7934 12.5831 56.9814C12.4324 57.1653 12.3076 57.394 12.254 57.6367C12.253 57.6402 12.2521 57.6438 12.2511 57.6474C12.2502 57.6517 12.2481 57.6558 12.2472 57.6601L12.2491 57.6611C12.2273 57.7487 12.2111 57.8736 12.2003 58.0049C12.1876 58.1588 12.1773 58.3511 12.1691 58.5674C12.1526 59.0006 12.1437 59.5393 12.1437 60.0761C12.1437 60.6128 12.1526 61.1509 12.1691 61.584C12.1773 61.8001 12.1876 61.9926 12.2003 62.1465C12.2122 62.2905 12.2273 62.4279 12.2531 62.5156H12.254C12.2908 62.6431 12.3646 62.7859 12.4406 62.9101C12.5192 63.0388 12.6123 63.1686 12.7013 63.2724L12.714 63.2861L12.7277 63.2988C12.8607 63.4186 12.9884 63.5254 13.171 63.5879C13.3439 63.647 13.5429 63.6591 13.8038 63.6591Z" stroke="#ffffff" stroke-width="0.569444"/>
<path d="M21.9169 63.7097C22.4667 63.7095 23.0078 63.4375 23.2772 62.9518C23.333 62.8642 23.3832 62.7709 23.4208 62.6413C23.4566 62.5177 23.4787 62.3697 23.494 62.1755C23.5244 61.7902 23.5311 61.1646 23.5311 60.0612C23.5311 58.9574 23.5244 58.3313 23.494 57.946C23.4787 57.7519 23.4566 57.6047 23.4208 57.4811C23.385 57.3579 23.3374 57.2682 23.285 57.1843C22.8614 56.4348 21.8181 56.1946 21.0643 56.6638C20.9127 56.7561 20.7608 56.8555 20.6405 57.0046C20.5156 57.1594 20.4418 57.3443 20.3954 57.5817C20.3072 58.0331 20.3016 58.773 20.3016 60.0866C20.3016 61.1774 20.3083 61.7972 20.3387 62.1794C20.3541 62.3718 20.3762 62.5182 20.412 62.6413C20.4496 62.7705 20.4998 62.8642 20.5555 62.9518H20.5565C20.8446 63.4263 21.3527 63.7097 21.9169 63.7097Z" stroke="#ffffff" stroke-width="0.569444"/>
<path d="M12.8859 73.4474C13.4111 73.8154 14.1116 73.8502 14.6759 73.4962C14.8327 73.4008 14.985 73.2969 15.1066 73.1437C15.231 72.9868 15.3075 72.8 15.3575 72.5626C15.4532 72.1092 15.465 71.3883 15.465 70.1505C15.465 68.9609 15.4528 68.2681 15.3761 67.8185C15.3365 67.5863 15.2777 67.4026 15.1857 67.2413C15.0942 67.0811 14.9793 66.9587 14.8546 66.8409L14.8448 66.8322L14.6593 67.048L14.8439 66.8322C14.6015 66.6245 14.263 66.5196 13.9425 66.4972C13.6214 66.4748 13.2698 66.5315 12.9962 66.7023V66.7032C12.8354 66.7998 12.6787 66.8989 12.5538 67.0372C12.4204 67.1851 12.3373 67.3596 12.2833 67.5851C12.1827 68.0056 12.1712 68.679 12.1583 69.8585C12.1324 71.1018 12.1368 71.841 12.2169 72.3253C12.2581 72.5743 12.3213 72.7716 12.4191 72.9425C12.5168 73.1135 12.6401 73.2412 12.7745 73.3615L12.7833 73.3693L12.8859 73.4474Z" stroke="#ffffff" stroke-width="0.569444"/>
<path d="M20.5507 72.9804C21.1564 74.0005 22.7028 74.0005 23.3085 72.9804H23.3075C23.3614 72.8948 23.4105 72.8038 23.4471 72.6776C23.483 72.554 23.5051 72.4061 23.5204 72.2118C23.5508 71.8265 23.5575 71.201 23.5575 70.0976C23.5575 69.0059 23.5502 68.3817 23.5233 67.998C23.4957 67.6053 23.4448 67.4241 23.3339 67.2392L23.3319 67.2362C22.9123 66.5584 21.9732 66.2905 21.202 66.6298V66.6308C21.0743 66.6861 20.9449 66.777 20.8368 66.8739C20.7274 66.972 20.6195 67.0931 20.5477 67.2187L20.5487 67.2196C20.4978 67.3071 20.4497 67.3986 20.413 67.5243C20.3771 67.6468 20.3541 67.7907 20.3387 67.9823C20.3083 68.3614 20.3016 68.981 20.3016 70.0976C20.3016 71.201 20.3084 71.8265 20.3387 72.2118C20.3541 72.4061 20.3761 72.554 20.412 72.6776C20.4486 72.8038 20.4977 72.8948 20.5516 72.9804H20.5507Z" stroke="#ffffff" stroke-width="0.569444"/>
<path d="M12.7814 83.4042C13.5283 84.0578 14.682 83.8463 15.1896 83.0595L15.2823 82.8935L15.2853 82.8876C15.3725 82.6957 15.4142 82.4773 15.4376 82.0829C15.461 81.6884 15.4669 81.0861 15.4669 80.1103C15.4669 79.059 15.4613 78.4652 15.4308 78.0956C15.4154 77.9088 15.3921 77.7666 15.3566 77.6445C15.3197 77.518 15.2723 77.4239 15.2198 77.3339L15.215 77.3261C14.7488 76.5806 13.8853 76.319 13.0958 76.7294V76.7304C12.9781 76.7839 12.852 76.866 12.7452 76.9521C12.6402 77.0368 12.5321 77.1423 12.4572 77.248V77.247C12.3921 77.3283 12.3328 77.4177 12.2892 77.5439C12.2483 77.6623 12.2255 77.8011 12.2101 77.9775C12.1796 78.3265 12.1732 78.9012 12.1603 79.9218L12.1456 80.7617C12.1378 81.5142 12.1516 82.0166 12.2091 82.3749C12.2487 82.6214 12.3113 82.8177 12.4122 82.9882C12.5128 83.1581 12.6408 83.2848 12.7814 83.4042Z" stroke="#ffffff" stroke-width="0.569444"/>
<path d="M21.9169 83.7867C22.5037 83.7866 23.013 83.5059 23.3026 83.0289H23.3036C23.3593 82.9413 23.4095 82.8476 23.4471 82.7184C23.4829 82.5952 23.5051 82.4489 23.5204 82.2564C23.5508 81.8743 23.5575 81.2545 23.5575 80.1637C23.5575 79.0496 23.5572 78.4291 23.5302 78.0543C23.5165 77.8654 23.4951 77.72 23.4559 77.5963C23.4173 77.4744 23.3632 77.3867 23.3055 77.3053L23.3065 77.3043C22.8607 76.5723 21.9389 76.3255 21.1591 76.731V76.732C20.9913 76.8099 20.8231 76.8966 20.6884 77.0387C20.5437 77.1912 20.4588 77.381 20.4061 77.6236C20.3067 78.0819 20.3016 78.8391 20.3016 80.1637C20.3016 81.3418 20.3013 81.9654 20.3319 82.3326C20.3475 82.5197 20.3732 82.6607 20.4188 82.7848C20.4653 82.9111 20.5281 83.0043 20.5878 83.0904L20.5917 83.0963L20.7157 83.2516C20.8444 83.3992 20.9878 83.5215 21.1561 83.6119C21.3819 83.7332 21.6327 83.7867 21.9169 83.7867Z" stroke="#ffffff" stroke-width="0.569444"/>
<path d="M87.697 53.4326C88.4107 53.7751 89.2709 53.6233 89.7273 53.0078L89.8123 52.8779L89.8132 52.8769C89.8648 52.7886 89.9128 52.6955 89.95 52.5683C89.9857 52.4459 90.0088 52.3019 90.0242 52.1103C90.0546 51.7312 90.0613 51.1113 90.0613 49.9951C90.0613 48.8916 90.0546 48.2661 90.0242 47.8808C90.0088 47.6868 89.9867 47.5395 89.9509 47.416C89.9141 47.2888 89.8638 47.1975 89.8093 47.1113L89.8103 47.1103C89.3564 46.3646 88.3186 46.1598 87.573 46.5947L87.5681 46.5976C87.4164 46.69 87.2647 46.7902 87.1443 46.9394C87.0194 47.0942 86.9455 47.2792 86.8992 47.5166C86.8111 47.9681 86.8054 48.7079 86.8054 50.0215C86.8054 51.3471 86.8172 52.1002 86.9246 52.5547C86.9816 52.7959 87.0709 52.9816 87.2185 53.1299C87.3572 53.2691 87.529 53.3549 87.697 53.4326Z" stroke="#ffffff" stroke-width="0.569444"/>
<path d="M95.1403 52.7769C95.576 53.5027 96.4841 53.808 97.2311 53.4731L97.3785 53.3979L97.3815 53.396C97.5419 53.2997 97.6999 53.2007 97.8258 53.064C97.9601 52.9181 98.044 52.7457 98.0983 52.521C98.1506 52.3041 98.1775 52.0287 98.194 51.6685C98.2105 51.3062 98.2177 50.8407 98.2242 50.2368L98.2369 49.395C98.2427 48.6398 98.2248 48.1333 98.1647 47.77C98.1235 47.5211 98.0602 47.3237 97.9625 47.1528C97.8648 46.9821 97.7423 46.8541 97.608 46.7339L97.5983 46.7251L97.5973 46.7261C97.4496 46.6053 97.312 46.5037 97.15 46.438C96.9832 46.3704 96.8121 46.3481 96.609 46.3481H96.5973L96.5856 46.3491C96.2786 46.3747 95.9238 46.4287 95.6715 46.604C95.5171 46.7047 95.3674 46.8117 95.2477 46.9653C95.1244 47.1235 95.0478 47.3101 94.9977 47.5493C94.9022 48.0057 94.8903 48.7327 94.8903 49.9966C94.8903 51.0608 94.8969 51.6611 94.9274 52.0308C94.9428 52.2173 94.9653 52.3595 95.0016 52.48C95.0388 52.6034 95.0882 52.693 95.1412 52.7769H95.1403Z" stroke="#ffffff" stroke-width="0.569444"/>
<path d="M88.4207 63.7097C88.9705 63.7095 89.5116 63.4375 89.781 62.9518C89.8368 62.8642 89.887 62.7709 89.9246 62.6413C89.9604 62.5177 89.9825 62.3697 89.9978 62.1755C90.0282 61.7902 90.0349 61.1646 90.0349 60.0612C90.0349 58.9574 90.0282 58.3313 89.9978 57.946C89.9825 57.7519 89.9604 57.6047 89.9246 57.4811C89.8888 57.3579 89.8412 57.2682 89.7888 57.1843C89.3652 56.4348 88.3218 56.1946 87.5681 56.6638C87.4165 56.7561 87.2646 56.8555 87.1443 57.0046C87.0194 57.1594 86.9455 57.3443 86.8992 57.5817C86.811 58.0331 86.8054 58.773 86.8054 60.0866C86.8054 61.1774 86.8121 61.7972 86.8425 62.1794C86.8579 62.3718 86.88 62.5182 86.9158 62.6413C86.9534 62.7705 87.0036 62.8642 87.0593 62.9518H87.0603C87.3484 63.4263 87.8565 63.7097 88.4207 63.7097Z" stroke="#ffffff" stroke-width="0.569444"/>
<path d="M95.0533 62.7214C95.6701 63.8933 97.2156 64.0046 97.941 62.9031L98.0192 62.7634C98.0848 62.6163 98.1179 62.4367 98.1383 62.1462C98.1652 61.7626 98.1715 61.1387 98.1715 60.0603C98.1715 58.9816 98.1652 58.3571 98.1383 57.9734C98.1112 57.5879 98.06 57.3987 97.942 57.2205L97.943 57.2195C97.7354 56.9001 97.4087 56.6628 97.0602 56.5339C96.7164 56.4069 96.3227 56.376 95.9723 56.5056V56.5046L95.9703 56.5056C95.9672 56.5068 95.9637 56.5073 95.9606 56.5085V56.5105C95.8797 56.5401 95.7885 56.5977 95.7233 56.6443C95.6462 56.6994 95.5617 56.7678 95.4957 56.8337V56.8347C95.3738 56.9443 95.2575 57.0566 95.1656 57.2029C95.0684 57.3579 95.0079 57.5329 94.9694 57.7566C94.8958 58.1845 94.8903 58.8612 94.8903 60.0603C94.8903 60.9457 94.8976 61.5393 94.9176 61.9353C94.9276 62.133 94.9411 62.2889 94.9606 62.4109C94.9787 62.5244 95.0054 62.6321 95.0543 62.7214H95.0533Z" stroke="#ffffff" stroke-width="0.569444"/>
<path d="M87.0544 72.9804C87.6602 74.0005 89.2065 74.0005 89.8123 72.9804H89.8113C89.8652 72.8948 89.9143 72.8038 89.9509 72.6776C89.9868 72.554 90.0088 72.4061 90.0242 72.2118C90.0546 71.8265 90.0613 71.201 90.0613 70.0976C90.0613 68.9831 90.0609 68.3623 90.0339 67.9843C90.0203 67.7934 89.999 67.6471 89.9607 67.5214C89.9205 67.3896 89.8655 67.2936 89.8044 67.2021L89.8035 67.203C89.3783 66.5255 88.4675 66.2946 87.7058 66.6298V66.6308C87.5781 66.6861 87.4487 66.777 87.3406 66.8739C87.2312 66.972 87.1233 67.0931 87.0515 67.2187L87.0525 67.2196C87.0016 67.3071 86.9535 67.3986 86.9167 67.5243C86.8809 67.6468 86.8579 67.7907 86.8425 67.9823C86.8121 68.3614 86.8054 68.981 86.8054 70.0976C86.8054 71.201 86.8121 71.8265 86.8425 72.2118C86.8579 72.4061 86.8799 72.554 86.9158 72.6776C86.9524 72.8038 87.0015 72.8948 87.0554 72.9804H87.0544Z" stroke="#ffffff" stroke-width="0.569444"/>
<path d="M95.0748 72.8277C95.6987 74.1377 97.6111 73.9423 98.0709 72.6217L98.11 72.4898L98.1129 72.4801L98.1364 72.3248C98.1429 72.2641 98.1481 72.1953 98.153 72.1217C98.163 71.9677 98.1718 71.7731 98.1783 71.5465C98.1915 71.093 98.1979 70.5036 98.1979 69.8375V69.8336C98.1849 68.8854 98.1716 68.3193 98.1412 67.9615C98.1108 67.6028 98.059 67.4088 97.942 67.232L97.943 67.231C97.7322 66.9068 97.3939 66.6757 97.0338 66.5582C96.6742 66.4409 96.2649 66.4286 95.9039 66.5758V66.5748C95.7134 66.6511 95.5282 66.8128 95.3834 66.9752C95.2388 67.1374 95.1071 67.3336 95.026 67.5211L95.025 67.5201C95.024 67.5222 95.0241 67.5248 95.0231 67.5269C95.0215 67.5307 95.0188 67.534 95.0172 67.5377L95.0192 67.5387C94.9954 67.5928 94.9801 67.6507 94.9723 67.6939C94.9622 67.7499 94.954 67.8164 94.9469 67.8893C94.9326 68.0356 94.9219 68.2257 94.9137 68.4478C94.8972 68.8932 94.8903 69.4841 94.8903 70.15C94.8903 71.0609 94.8971 71.6371 94.9205 72.0221C94.9439 72.4057 94.9856 72.6307 95.0729 72.8228L95.0748 72.8277Z" stroke="#ffffff" stroke-width="0.569444"/>
<path d="M88.4207 83.7867C88.7085 83.7867 88.967 83.7429 89.197 83.6236C89.4271 83.5042 89.603 83.3215 89.7517 83.0855H89.7527C89.8059 83.0057 89.8636 82.917 89.908 82.7935C89.9513 82.6729 89.9776 82.5328 89.9949 82.3443C90.0289 81.9729 90.0349 81.3439 90.0349 80.1637C90.0349 79.0725 90.0286 78.4489 90.0017 78.0621C89.974 77.6644 89.9221 77.482 89.8171 77.2896L89.8142 77.2828L89.8093 77.2769C89.3915 76.602 88.4483 76.3251 87.6931 76.7027V76.7037C87.5625 76.7632 87.4348 76.862 87.3328 76.9605C87.2244 77.0652 87.1204 77.1906 87.0515 77.3111L87.0525 77.3121C87.0009 77.3944 86.953 77.4827 86.9167 77.6051C86.8806 77.7272 86.8579 77.8725 86.8425 78.065C86.8121 78.4472 86.8054 79.0734 86.8054 80.19C86.8054 81.3551 86.8051 81.9781 86.8357 82.3453C86.8513 82.5321 86.8762 82.6748 86.9226 82.7984C86.9705 82.9261 87.0356 83.0167 87.0974 83.0992C87.2573 83.3294 87.4383 83.5067 87.6638 83.6236C87.8922 83.742 88.1431 83.7867 88.4207 83.7867Z" stroke="#ffffff" stroke-width="0.569444"/>
<path d="M96.5293 83.8381C96.7327 83.8381 96.9075 83.8255 97.0762 83.7599C97.2417 83.6955 97.3758 83.5891 97.5215 83.4572C97.6621 83.3377 97.791 83.2112 97.8916 83.0412C97.9925 82.8707 98.0551 82.6744 98.0947 82.4279C98.1714 81.9502 98.1694 81.2162 98.1436 79.9748C98.1306 78.9388 98.118 78.3582 98.084 78.008C98.0669 77.8315 98.043 77.6958 98.0039 77.5822C97.9644 77.4677 97.9124 77.3876 97.8584 77.3166C97.4078 76.5405 96.4577 76.3226 95.7295 76.7658V76.7668C95.4944 76.904 95.2591 77.1753 95.124 77.3644L95.1201 77.3713L95.1162 77.3771C95.0619 77.4626 95.0116 77.5537 94.9736 77.6799C94.9373 77.8004 94.9148 77.9425 94.8994 78.1291C94.8689 78.4987 94.8623 79.0988 94.8623 80.1633C94.8623 81.1391 94.8692 81.7348 94.8926 82.1262C94.9162 82.5209 94.9581 82.7337 95.041 82.9328L95.0439 82.9387C95.3055 83.5269 95.8622 83.8381 96.5293 83.8381Z" stroke="#ffffff" stroke-width="0.569444"/>
</svg>