<svg width="530" height="332" viewBox="0 0 530 332" fill="none" xmlns="http://www.w3.org/2000/svg">
<rect width="530" height="331.557" rx="4" fill="#DBEFE0"/>
<path d="M363.64 108.792L341.809 125.195L323.336 128.543V135.238L350.433 133.088L375.395 120.174L370.693 106.25L363.64 108.792Z" fill="#94BAAB"/>
<path d="M371.316 289.132L371.642 292.346L365.793 296.354L362.379 293.537L365.14 289.926L370.989 285.918L371.316 289.132Z" fill="#514943"/>
<path d="M371.172 190.867L372.162 200.628L363.391 234.165L371.536 288.056L365.54 290.118L349.731 237.504L347.223 222.198L347.314 189.796L371.172 190.867Z" fill="#CAB5A1"/>
<path d="M325.059 201.746L337.669 292.048H343.401L344.433 234.165L354.865 193.537L325.059 201.746Z" fill="#CAB5A1"/>
<path d="M343.368 291.334V294.578L337.17 297.821L334.07 294.578L337.17 291.334H343.368Z" fill="#514943"/>
<path d="M375.162 187.695C379.79 155.59 388.246 133.743 389.865 127.532C391.485 121.321 388.129 116.833 388.127 116.832C386.359 115.839 385.077 114.124 383.307 113.067C371.337 105.912 361.278 113.642 353.201 122.815C343.25 134.117 334.12 146.144 325.87 158.734C318.63 169.783 311.348 180.938 306.037 193.069C303.845 198.074 301.837 202.842 306.845 206.851C314.824 213.239 325.059 216.238 334.301 220.301C344.918 224.968 355.659 229.278 366.617 233.083C372.338 235.069 370.535 219.8 375.162 187.695Z" fill="#698B75"/>
<path d="M209.843 106.964L218.371 102.914L214.831 101.403L209.901 103.745L198.621 97.8105L197.59 100.518L209.843 106.964Z" fill="#F4EBE1"/>
<path d="M234.984 295.809L238.078 297.842L249.296 294.121L250.061 290.809L234.984 295.809Z" fill="#F4EBE1"/>
<path d="M281.776 280.29L264.354 286.068L263.637 289.364L281.777 283.348L301.542 289.875L302.04 286.982L281.776 280.29Z" fill="#F4EBE1"/>
<path d="M141.221 70.8653L141.846 71.1932L189.254 96.1334L190.135 93.3469L165.15 80.2026L138.564 68.8564L113.956 79.3574C113.654 80.5388 113.33 81.7202 113.016 82.9016L141.221 70.8653Z" fill="#F4EBE1"/>
<path d="M93.0249 88.291L90.2344 89.4821L92.318 90.5084C92.5459 89.7658 92.7883 89.0297 93.0249 88.291Z" fill="#F4EBE1"/>
<path d="M353.148 218.982L355.839 220.308L355.959 171.529L353.266 170.896L353.148 218.982Z" fill="#F4EBE1"/>
<path d="M254.568 85.7208L255.166 82.2451L222.902 97.5679L226.484 99.0588L254.568 85.7208Z" fill="#F4EBE1"/>
<path d="M353.02 273.602L355.711 274.847L355.818 231.34L353.126 230.008L353.02 273.602Z" fill="#F4EBE1"/>
<path d="M353.448 97.3302L353.411 112.196L356.104 113.22L356.148 95.2766L349.411 92.6436L348.91 95.5572L353.448 97.3302Z" fill="#F4EBE1"/>
<path d="M353.289 162.426L355.982 163.078L356.084 121.712L353.391 120.72L353.289 162.426Z" fill="#F4EBE1"/>
<path d="M352.944 303.795L315.263 291.35L314.766 294.243L355.629 307.739L355.679 287.152L352.988 285.731L352.944 303.795Z" fill="#F4EBE1"/>
<path d="M62.9984 224.688C62.1107 226.848 61.204 228.999 60.3047 231.153V289.466L62.9984 282.364V224.688Z" fill="#F4EBE1"/>
<path d="M70.125 304.744L78.2723 304.915L107.201 294.591L108.743 290.961L70.125 304.744Z" fill="#F4EBE1"/>
<path d="M60.3047 304.537L61.4074 304.56L60.3047 304.537Z" fill="#F4EBE1"/>
<path d="M79.4139 94.5068C79.021 95.5859 78.6279 96.6653 78.2344 97.7441L82.3797 95.9755L79.4139 94.5068Z" fill="#F4EBE1"/>
<path d="M62.9984 134.591C62.1691 135.748 61.2792 136.842 60.3047 137.838V168.198C61.2082 166.587 62.1062 164.971 62.9984 163.351V134.591Z" fill="#F4EBE1"/>
<path d="M205.199 305.685L202.026 306.737L141.615 279.229L122.592 286.018L121.09 289.634L141.501 282.349L196.526 307.405L208.19 307.651L205.199 305.685Z" fill="#F4EBE1"/>
<path d="M276.956 75.0887L277.251 71.7568L262.773 78.6329L262.176 82.1082L276.956 75.0887Z" fill="#A6CAA2"/>
<path d="M335.818 90.4408L336.318 87.5272L316.92 79.9463L316.129 82.7466L335.818 90.4408Z" fill="#A6CAA2"/>
<path d="M62.9984 212.219L60.3047 210.448V231.152C61.204 228.997 62.1107 226.847 62.9984 224.687V212.219Z" fill="#A3CEDF"/>
<path d="M62.9984 163.351C62.1062 164.971 61.2082 166.586 60.3047 168.197V180.998L62.9984 182.769V163.351Z" fill="#A3CEDF"/>
<path d="M93.6515 91.1659L113.016 82.9026C113.331 81.7212 113.654 80.5398 113.957 79.3584L93.0237 88.2909C92.7874 89.0296 92.5446 89.7658 92.3164 90.5083L93.6515 91.1659Z" fill="#A3CEDF"/>
<path d="M302.037 286.983L301.539 289.876L314.762 294.244L315.26 291.351L302.037 286.983Z" fill="white"/>
<path d="M348.909 95.5573L349.409 92.6437L340.598 89.2002L340.102 92.1157L348.909 95.5573Z" fill="white"/>
<path d="M340.104 92.1155L340.6 89.2L336.317 87.5264L335.816 90.44L340.104 92.1155Z" fill="white"/>
<path d="M255.716 85.1762L256.313 81.7012L255.168 82.2449L254.57 85.7206L255.716 85.1762Z" fill="white"/>
<path d="M262.178 82.1072L262.775 78.6318L256.313 81.7012L255.715 85.1762L262.178 82.1072Z" fill="white"/>
<path d="M82.3799 95.9756L91.8946 91.9153C92.0353 91.4463 92.1732 90.9759 92.3165 90.5078L90.2328 89.4814L79.5903 94.0227C79.5319 94.1839 79.4731 94.3457 79.4141 94.5066L82.3799 95.9756Z" fill="white"/>
<path d="M353.121 230.007L355.813 231.339L355.839 220.307L353.149 218.981L353.121 230.007Z" fill="white"/>
<path d="M92.3164 90.5078C92.1731 90.9756 92.0349 91.4463 91.8945 91.9154L93.6512 91.1657L92.3164 90.5078Z" fill="white"/>
<path d="M62.9981 104.246L78.2337 97.7444C78.6272 96.6657 79.02 95.5863 79.4132 94.5072L78.97 94.2881L60.3047 102.253V137.838C61.2795 136.842 62.1691 135.748 62.9984 134.591V104.246H62.9981Z" fill="#A6CAA2"/>
<path d="M79.5921 94.0225L78.9727 94.2872L79.4159 94.5063C79.4752 94.3455 79.5337 94.1836 79.5921 94.0225Z" fill="#A6CAA2"/>
<path d="M226.486 99.0583L222.904 97.5674L214.828 101.403L218.368 102.914L226.486 99.0583Z" fill="white"/>
<path d="M143.022 68.5596L141.336 67.6748L138.566 68.8565L165.153 80.203L143.022 68.5596Z" fill="white"/>
<path d="M197.591 100.518L198.622 97.8107L190.139 93.3477L189.258 96.1342L197.591 100.518Z" fill="white"/>
<path d="M352.988 285.731L355.679 287.152L355.709 274.846L353.018 273.602L352.988 285.731Z" fill="white"/>
<path d="M353.391 120.721L356.083 121.713L356.104 113.221L353.411 112.197L353.391 120.721Z" fill="white"/>
<path d="M353.27 170.896L355.963 171.529L355.984 163.079L353.29 162.427L353.27 170.896Z" fill="white"/>
<path d="M108.745 290.961L107.203 294.591L121.092 289.635L122.595 286.019L108.745 290.961Z" fill="white"/>
<path d="M62.9984 304.594V282.363L60.3047 289.465V304.537L61.4074 304.56L62.9984 304.594Z" fill="white"/>
<path d="M250.055 290.809L249.289 294.121L263.632 289.364L264.349 286.068L250.055 290.809Z" fill="white"/>
<path d="M285.792 70.8913L286.386 71.1236L316.127 82.7458L316.918 79.9455L287.423 68.4185L284.412 68.3555L277.252 71.7555L276.957 75.0874L285.792 70.8913Z" fill="#F4EBE1"/>
<path d="M224.874 299.16L224.316 302.404L238.074 297.842L234.981 295.809L224.874 299.16Z" fill="#F2D263"/>
<path d="M205.199 305.686L208.19 307.652L208.479 307.658L216.907 304.863L217.465 301.618L205.199 305.686Z" fill="#F2D263"/>
<path d="M62.9984 182.769L60.3047 180.998V210.449L62.9984 212.22V182.769Z" fill="#F2D263"/>
<path d="M217.464 301.617L216.906 304.862L224.315 302.404L224.873 299.16L217.464 301.617Z" fill="#F2D263"/>
<path d="M100.789 207.606L134.692 229.89L145.595 204.227L109.536 184.975L100.789 207.606Z" fill="#F4EBE1"/>
<path d="M353.409 112.197L353.446 97.3307L348.909 95.5576L346.5 109.57L353.409 112.197Z" fill="#F4EBE1"/>
<path d="M160.141 195.693L228.319 238.477L239.447 173.731L181.245 144.918L160.141 195.693Z" fill="#F4EBE1"/>
<path d="M241.151 163.815L249.345 116.133L218.37 102.914L209.842 106.964L197.589 100.518L184.168 135.748L241.151 163.815Z" fill="#F4EBE1"/>
<path d="M319.671 265.693L315.262 291.35L352.942 303.795L352.987 285.732L319.285 267.94L319.671 265.693Z" fill="#F4EBE1"/>
<path d="M254.572 85.7207L226.488 99.0587L250.558 109.077L254.572 85.7207Z" fill="#F4EBE1"/>
<path d="M329.684 207.424L353.149 218.982L353.266 170.895L336.634 166.981L329.684 207.424Z" fill="#F4EBE1"/>
<path d="M91.7116 231.092L61.4074 304.56L60.3047 311.327L108.744 290.96L124.909 252.912L91.7116 231.092Z" fill="#F4EBE1"/>
<path d="M338.055 158.734L353.29 162.426L353.393 120.72L345.112 117.668L338.055 158.734Z" fill="#F4EBE1"/>
<path d="M105.176 171.178L151.518 190.284L172.607 140.644L179.104 143.86L105.668 107.505C100.553 123.219 94.882 138.725 89.7599 153.646C85.4122 166.312 80.8627 178.897 76.1289 191.4L93.2383 202.645L105.176 171.178Z" fill="#F4EBE1"/>
<path d="M154.592 209.032L143.512 235.689L220.138 286.055L226.754 247.561L154.592 209.032Z" fill="#F4EBE1"/>
<path d="M89.6716 99.5848L82.3806 95.9756L78.2353 97.7441C75.7707 104.511 73.3052 111.278 70.8404 118.045C68.7496 123.783 66.4413 129.788 63 134.59V163.351C71.8859 147.215 80.1117 130.619 85.7715 112.884C87.1731 108.491 88.4156 104.035 89.6716 99.5848Z" fill="#F4EBE1"/>
<path d="M66.9907 214.843C65.6718 218.13 64.3457 221.413 63 224.688V282.363L84.298 226.218L66.9907 214.843Z" fill="#F4EBE1"/>
<path d="M320.867 258.731L353.016 273.602L353.123 230.008L327.946 217.544L320.867 258.731Z" fill="#F4EBE1"/>
<path d="M122.598 286.018L141.621 279.229L202.032 306.737L205.204 305.685L133.903 258.82L122.598 286.018Z" fill="#F4EBE1"/>
<path d="M284.001 195.789L264.352 286.068L281.773 280.29L302.037 286.983L315.067 211.168L284.001 195.789Z" fill="#F4EBE1"/>
<path d="M177.732 132.58L189.254 96.1343L141.846 71.1941L141.222 70.8662L113.016 82.9025C111.627 88.1065 110.128 93.3082 108.531 98.4952L177.732 132.58Z" fill="#F4EBE1"/>
<path d="M245.887 176.918L226.422 290.18L234.985 295.808L250.062 290.808L273.242 190.46L245.887 176.918Z" fill="#F4EBE1"/>
<path d="M316.805 201.078L335.82 90.4406L316.131 82.7464L303.749 126.554L274.045 107.931L276.961 75.0879L262.181 82.1074L247.594 166.988L316.805 201.078Z" fill="#A6CAA2"/>
<path d="M63 212.22V224.688C64.3457 221.414 65.6718 218.13 66.9907 214.843L63 212.22Z" fill="#A3CEDF"/>
<path d="M89.7613 153.646C94.8834 138.725 100.555 123.219 105.669 107.505L89.6716 99.585C88.4156 104.035 87.1731 108.491 85.7715 112.884C80.1113 130.619 71.8856 147.216 63 163.351V182.769L76.1306 191.4C80.8641 178.897 85.4139 166.312 89.7613 153.646Z" fill="#A3CEDF"/>
<path d="M113.017 82.9023L93.6523 91.1657L108.533 98.495C110.129 93.3081 111.628 88.1063 113.017 82.9023Z" fill="#A3CEDF"/>
<path d="M320.868 258.731L327.947 217.544L315.069 211.169L302.039 286.984L315.262 291.351L319.671 265.694L320.868 258.731Z" fill="white"/>
<path d="M329.686 207.424L336.636 166.981L331.776 165.838L336.976 158.473L338.054 158.734L345.111 117.668L343.242 116.98L346.503 109.57L348.912 95.5578L340.105 92.1162L321.191 203.24L329.686 207.424Z" fill="white"/>
<path d="M321.189 203.24L340.103 92.116L335.815 90.4404L316.801 201.078L321.189 203.24Z" fill="white"/>
<path d="M250.323 116.552L249.343 116.134L241.148 163.816L242.118 164.294L250.323 116.552Z" fill="white"/>
<path d="M251.541 109.486L255.718 85.1768L254.573 85.7211L250.559 109.078L251.541 109.486Z" fill="white"/>
<path d="M245.88 176.919L239.441 173.731L228.314 238.477L232.745 241.257L229.703 249.137L226.752 247.562L220.137 286.055L226.415 290.181L245.88 176.919Z" fill="white"/>
<path d="M252.039 109.695L251.894 117.223L250.322 116.552L242.117 164.293L247.589 166.988L262.177 82.1074L255.714 85.1764L251.537 109.486L252.039 109.695Z" fill="white"/>
<path d="M327.945 217.544L353.122 230.008L353.15 218.982L329.685 207.425L327.945 217.544Z" fill="white"/>
<path d="M247.013 170.342L245.883 176.919L273.238 190.461L273.647 188.69L285.488 188.958L284.001 195.789L315.068 211.168L316.321 203.876L247.013 170.342Z" fill="white"/>
<path d="M91.8936 91.915L82.3789 95.9753L89.6699 99.5845C90.3936 97.0203 91.1279 94.4612 91.8936 91.915Z" fill="white"/>
<path d="M181.242 144.918L239.444 173.731L241.148 163.816L184.165 135.749L177.731 132.58L108.531 98.4951C107.604 101.505 106.644 104.508 105.668 107.505L179.104 143.86L181.242 144.918Z" fill="white"/>
<path d="M316.32 203.875L316.8 201.078L247.589 166.988L247.012 170.341L316.32 203.875Z" fill="white"/>
<path d="M105.67 107.504C106.645 104.507 107.606 101.504 108.532 98.4944L93.6523 91.165L91.8956 91.9147C91.1299 94.4608 90.3956 97.0199 89.6719 99.5841L105.67 107.504Z" fill="white"/>
<path d="M316.323 203.876L315.07 211.168L327.948 217.544L329.687 207.424L321.193 203.24L320.722 206.004L316.323 203.876Z" fill="white"/>
<path d="M320.719 206.003L321.19 203.24L316.801 201.078L316.32 203.875L320.719 206.003Z" fill="white"/>
<path d="M245.884 176.919L247.014 170.341L241.535 167.69L242.119 164.293L241.15 163.815L239.445 173.731L245.884 176.919Z" fill="white"/>
<path d="M247.014 170.341L247.591 166.988L242.119 164.293L241.535 167.69L247.014 170.341Z" fill="white"/>
<path d="M78.2356 97.7451L63 104.247V134.591C66.4413 129.789 68.7499 123.784 70.8404 118.046C73.3055 111.279 75.771 104.512 78.2356 97.7451Z" fill="#A6CAA2"/>
<path d="M250.559 109.077L226.489 99.0586L218.371 102.914L249.346 116.133L250.559 109.077Z" fill="white"/>
<path d="M251.538 109.486L250.556 109.077L249.344 116.133L250.324 116.552L251.538 109.486Z" fill="white"/>
<path d="M251.896 117.223L252.041 109.695L251.539 109.486L250.324 116.552L251.896 117.223Z" fill="white"/>
<path d="M184.164 135.748L197.586 100.518L189.253 96.1338L177.73 132.579L184.164 135.748Z" fill="white"/>
<path d="M319.672 265.693L319.285 267.94L352.987 285.731L353.017 273.602L320.868 258.73L319.672 265.693Z" fill="white"/>
<path d="M319.672 265.693L320.868 258.73L319.672 265.693Z" fill="white"/>
<path d="M345.109 117.668L353.39 120.72L353.411 112.197L346.501 109.57L345.109 117.668Z" fill="white"/>
<path d="M346.503 109.57L343.242 116.979L345.111 117.668L346.503 109.57Z" fill="white"/>
<path d="M336.637 166.982L353.269 170.895L353.29 162.427L338.054 158.734L336.637 166.982Z" fill="white"/>
<path d="M336.974 158.473L331.773 165.838L336.634 166.981L338.052 158.734L336.974 158.473Z" fill="white"/>
<path d="M145.594 204.228L134.691 229.89L143.514 235.689L154.594 209.032L145.594 204.228Z" fill="white"/>
<path d="M124.908 252.912L108.742 290.961L122.591 286.018L133.896 258.82L124.908 252.912Z" fill="white"/>
<path d="M160.139 195.693L181.244 144.918L179.106 143.86L172.609 140.644L151.52 190.283L160.139 195.693Z" fill="white"/>
<path d="M181.244 144.918L179.105 143.859L181.244 144.918Z" fill="white"/>
<path d="M91.7165 231.092L84.3013 226.219L61.6562 283.274V303.969V305.94L91.7165 231.092Z" fill="white"/>
<path d="M105.176 171.178L93.2383 202.646L100.787 207.607L109.534 184.975L145.593 204.228L151.518 190.283L105.176 171.178Z" fill="white"/>
<path d="M154.594 209.032L226.756 247.561L228.318 238.476L160.139 195.692L154.594 209.032Z" fill="white"/>
<path d="M229.705 249.136L232.746 241.257L228.316 238.477L226.754 247.561L229.705 249.136Z" fill="white"/>
<path d="M151.518 190.283L145.594 204.228L154.593 209.032L160.138 195.692L151.518 190.283Z" fill="white"/>
<path d="M273.239 190.461L250.059 290.809L264.353 286.069L284.002 195.789L273.239 190.461Z" fill="white"/>
<path d="M273.648 188.689L273.238 190.461L284.002 195.789L285.489 188.957L273.648 188.689Z" fill="white"/>
<path d="M303.747 126.553L316.129 82.7461L286.388 71.1239L285.794 70.8916L276.959 75.0876L274.043 107.931L303.747 126.553Z" fill="#F4EBE1"/>
<path d="M220.14 286.055L143.513 235.689L133.898 258.821L205.2 305.686L217.465 301.618L220.14 286.055Z" fill="#F2D263"/>
<path d="M224.875 299.16L234.981 295.809L226.418 290.181L224.875 299.16Z" fill="#F2D263"/>
<path d="M76.1279 191.399C73.1566 199.248 70.1104 207.063 66.9883 214.843L84.2952 226.219L93.2373 202.645L76.1279 191.399Z" fill="#F2D263"/>
<path d="M100.791 207.606L91.7148 231.092L124.912 252.912L134.693 229.89L100.791 207.606Z" fill="#F2D263"/>
<path d="M76.1306 191.399L63 182.769V212.219L66.9907 214.843C70.1131 207.063 73.1593 199.248 76.1306 191.399Z" fill="#F2D263"/>
<path d="M220.139 286.054L217.465 301.617L224.874 299.16L226.417 290.18L220.139 286.054Z" fill="#F2D263"/>
<path d="M124.91 252.913L133.899 258.821L143.513 235.689L134.691 229.891L124.91 252.913Z" fill="#F2D263"/>
<path d="M93.2389 202.646L84.2969 226.219L91.7121 231.093L100.788 207.607L93.2389 202.646Z" fill="#F2D263"/>
<path opacity="0.1" d="M283.168 280.959L352.758 304.425L353.255 97.2295L287.245 70.8916L283.168 280.959Z" fill="black"/>
<path opacity="0.1" d="M142.458 279.838L202.886 307.932L210.581 107.765L141.93 70.8916L142.458 279.838Z" fill="black"/>
<path d="M355.746 94.2351C353.517 93.3668 351.289 92.4984 349.059 91.6304C328.8 83.7383 308.54 75.8456 288.281 67.9539C284.017 66.2928 280.828 68.9348 276.774 70.8539C272.02 73.1041 267.267 75.355 262.514 77.6052C253.094 82.0643 243.675 86.5229 234.257 90.9818C230.117 92.9417 225.976 94.9017 221.835 96.862C219.289 98.0679 216.742 99.2731 214.195 100.479C213.134 100.981 211.8 101.36 210.85 102.062C210.717 102.161 210.464 102.289 210.199 102.41C209.992 102.335 209.735 102.211 209.419 101.973C205.019 98.6621 199.012 96.5155 194.15 93.9661C189.902 91.7378 185.653 89.5102 181.404 87.2815C171.339 82.0035 161.274 76.7252 151.209 71.4472C149.057 70.3186 146.909 69.1829 144.754 68.062C142.264 66.767 141.785 66.8696 139.114 68.0053C133.963 70.196 128.813 72.3873 123.663 74.5777C102.85 83.4307 82.0375 92.2838 61.225 101.136C60.5297 101.432 60 102.025 60 102.883C60 129.168 60 155.453 60 181.738C60 210.153 60 238.567 60 266.981C60 281.231 60 295.481 60 309.731C60 310.861 61.0723 311.848 62.112 311.478C81.7451 304.493 101.377 297.51 121.01 290.525C125.729 288.847 130.448 287.168 135.167 285.489C137.274 284.739 139.838 283.242 142.088 282.954C142.125 282.965 142.162 282.976 142.211 282.988C142.868 283.149 143.545 283.593 144.162 283.873C156.142 289.311 168.122 294.748 180.103 300.186C185.035 302.425 189.967 304.664 194.9 306.903C197.767 308.205 200.6 310.334 203.68 309.664C213.447 307.54 223.206 303.208 232.746 300.055C242.46 296.844 252.173 293.632 261.886 290.422C266.586 288.868 271.287 287.314 275.986 285.76C277.374 285.301 278.826 284.92 280.186 284.372C280.677 284.174 281.976 284.012 281.645 283.895C283.962 284.244 286.619 285.632 288.762 286.338C310.622 293.534 332.481 300.731 354.34 307.927C355.385 308.271 356.449 307.331 356.453 306.18C356.519 278.972 356.587 251.764 356.654 224.556C356.721 196.836 356.79 169.116 356.858 141.395C356.896 126.257 356.933 111.12 356.971 95.9815C356.973 95.1356 356.443 94.5066 355.746 94.2351ZM210.381 102.466C210.737 102.547 210.783 102.42 210.381 102.466V102.466ZM288.633 282.509C286.563 281.828 284.092 280.448 281.929 280.302C280.296 280.193 278.512 281.139 276.977 281.646C273.543 282.782 270.109 283.917 266.676 285.052C257.348 288.136 248.021 291.219 238.694 294.303C229.283 297.414 219.872 300.525 210.462 303.636C208.326 304.342 206.172 305.003 204.051 305.756C202.157 306.428 202.416 306.293 201.803 306.14C200.32 305.771 198.728 304.744 197.317 304.104C194.213 302.695 191.108 301.285 188.003 299.877C175.253 294.089 162.504 288.302 149.754 282.515C147.445 281.467 144.309 279.196 141.746 279.339C139.689 279.455 137.237 280.944 135.283 281.639C131.698 282.914 128.114 284.19 124.529 285.465C104.132 292.721 83.7351 299.977 63.3383 307.233C63.3383 281.51 63.3383 255.787 63.3383 230.065C63.3383 202.301 63.3383 174.537 63.3383 146.773C63.3383 132.552 63.3383 118.33 63.3383 104.109C80.9594 96.6133 98.5798 89.118 116.2 81.6229C122.247 79.0507 128.293 76.4791 134.34 73.9072C136.146 73.1389 137.952 72.3703 139.759 71.602C142.261 70.5377 141.726 70.4865 144.048 71.7036C153.535 76.6754 163.021 81.6532 172.507 86.6275C181.818 91.5104 191.13 96.3942 200.442 101.277C203.07 102.655 206.183 105.025 209.032 105.782C211.153 106.345 212.674 105.124 214.723 104.154C218.396 102.416 222.068 100.677 225.74 98.9391C235.989 94.0874 246.238 89.2354 256.487 84.3837C260.883 82.3024 265.28 80.2208 269.677 78.1396C274.147 76.0235 279.772 72.1924 284.553 71.0975C287.767 70.3611 294.449 74.1958 298.169 75.6452C304.087 77.9504 310.004 80.2556 315.922 82.5608C326.672 86.7484 337.422 90.9361 348.172 95.1237C349.992 95.8325 351.811 96.5413 353.631 97.25C353.568 122.667 353.506 148.085 353.443 173.502C353.368 203.679 353.294 233.857 353.22 264.034C353.187 277.269 353.155 290.505 353.122 303.74C334.908 297.744 316.695 291.748 298.481 285.752C295.198 284.671 291.915 283.59 288.633 282.509Z" fill="#698B75"/>
<path d="M259.746 70.55C263.913 93.9453 315.15 142.212 316.312 142.006C317.875 141.73 348.915 78.9063 344.748 55.511C340.582 32.1157 318.176 16.5166 294.703 20.6695C271.23 24.822 255.579 47.1544 259.746 70.55ZM281.678 63.5305C279.715 52.5067 287.09 41.9835 298.15 40.0267C309.211 38.07 319.768 45.4202 321.732 56.444C323.695 67.4678 316.32 77.991 305.26 79.9478C294.199 81.9045 283.642 74.5542 281.678 63.5305Z" fill="#B22B48"/>
<path d="M302.32 80.2386C313.548 79.8971 322.372 70.5485 322.029 59.3579C321.687 48.1672 312.307 39.3722 301.079 39.7137C289.852 40.0552 281.028 49.4038 281.37 60.5945C281.713 71.7851 291.093 80.5801 302.32 80.2386Z" fill="white"/>
<path d="M385.813 86.3008C385.813 86.3008 388.94 88.697 387.781 97.9005C386.622 107.104 387.665 113.089 387.665 113.089C387.665 113.089 384.549 114.616 382.208 113.253C379.867 111.891 378.997 111.631 379.746 107.883C380.495 104.136 381.682 86.3365 381.682 86.3365L385.813 86.3008Z" fill="#9E6652"/>
<path d="M378.332 89.6232C381.85 90.471 384.694 93.6117 385.185 97.1907C387.037 95.3603 387.929 92.6086 387.5 90.0415C387.071 87.4744 385.333 85.1605 382.985 84.0293C380.857 85.2403 379.241 87.318 378.594 89.6766L378.332 89.6232Z" fill="#9E6652"/>
<path d="M385.575 94.0766C383.485 84.6296 371.644 86.6289 368.465 94.425C366.658 98.8585 367.369 107.395 372.872 108.663C372.981 109.501 373.138 111.075 373.799 111.618C374.515 112.206 376.695 111.559 377.55 111.335C377.787 111.272 378.035 111.196 378.202 111.018C378.413 110.795 378.432 110.213 378.416 109.57C379.047 109.507 379.69 109.365 380.343 109.129C383.081 108.14 385.007 105.524 385.751 102.713C386.496 99.9022 386.203 96.9152 385.575 94.0766Z" fill="#EACDB0"/>
<path d="M382.758 84.0113C382.758 84.0113 384.063 89.1294 377.5 90.7593C370.938 92.3892 366.804 97.6707 368.108 103.075C369.412 108.48 374.416 112.341 371.874 113.85C369.333 115.359 359.812 114.212 359.812 114.212C359.812 114.212 353.488 95.205 360.991 86.6707C368.494 78.1365 379.687 77.5136 382.758 84.0113Z" fill="#9E6652"/>
<path d="M439.551 61.3138C439.551 61.3138 442.452 61.5988 444.149 63.7397C445.846 65.8807 451.22 75.5847 451.159 83.1175C451.098 90.6504 452.254 100.01 437.473 106.536C430.112 108.957 429.946 102.309 424.058 101.906C418.169 101.504 413.082 103.574 413.889 94.3489C414.696 85.1236 420.472 83.0436 423.677 72.745C426.881 62.4463 431.924 58.2871 439.551 61.3138Z" fill="#D47F7D"/>
<path d="M441.59 61.877L454.851 66.3487L464.863 67.7971L464.714 72.127L454.945 73.4914L444.442 71.4311L441.59 61.877Z" fill="#D47F7D"/>
<path d="M429.294 61.2637L419.578 64.6704L411.426 61.8797L410.16 64.5226L417.849 69.9187L425.541 70.4239L429.294 61.2637Z" fill="#D47F7D"/>
<path d="M431.667 42.1297C431.667 42.1297 425.611 46.1082 426.162 52.1168C426.162 52.1168 422.191 48.943 423.893 44.5233C425.594 40.1034 426.73 38.3625 430.928 39.2962C435.126 40.2295 431.667 42.1297 431.667 42.1297Z" fill="#754C3D"/>
<path d="M426.228 48.7692C426.963 39.818 438.107 40.178 442.011 46.9534C444.231 50.8061 444.649 58.748 439.747 60.6009C439.752 61.3859 439.806 62.853 439.266 63.435C438.681 64.0653 436.594 63.7429 435.779 63.6428C435.553 63.6152 435.316 63.5759 435.139 63.4331C434.918 63.2539 434.827 62.7211 434.76 62.1272C434.172 62.149 433.562 62.0985 432.932 61.9631C430.289 61.3946 428.189 59.2287 427.151 56.7359C426.114 54.2431 426.007 51.4592 426.228 48.7692Z" fill="#EACDB0"/>
<path d="M430.252 44.4872C433.373 47.7515 438.324 47.9612 441.297 51.1306C441.297 51.1306 443.241 53.2042 442.743 58.144C442.743 58.144 447.933 58.3625 450.208 53.2067C452.484 48.051 447.245 37.8901 447.245 37.8901C447.245 37.8901 441.102 33.4389 433.045 35.3253C430.311 35.9652 427.849 38.0188 428.445 41.1222C428.7 42.45 429.362 43.5567 430.252 44.4872Z" fill="#754C3D"/>
<path d="M441.699 61.9866C441.699 61.9866 442.31 66.5124 439.904 67.0249C437.499 67.5374 431.951 66.5288 430.996 65.6993C429.671 64.5488 430.993 61.2199 430.993 61.2199L429.207 60.708C429.207 60.708 420.952 77.5088 427.602 80.0318C434.251 82.5548 442.669 83.2688 444.046 77.9615C445.424 72.6542 443.456 62.7101 443.456 62.7101L441.699 61.9866Z" fill="#F2D263"/>
<path d="M464.85 68.2635L469.75 67.1143L469.97 68.1415L466.631 71.0021L467.465 71.5406L466.852 72.0293L464.738 71.4895L464.85 68.2635Z" fill="#EACDB0"/>
<path d="M411.299 61.6907L410.037 60.1357L407.558 60.3056L406.895 62.2379L408.022 64.1464L410.167 63.9164L411.299 61.6907Z" fill="#EACDB0"/>
<path d="M391.649 173.637L390.426 225.687L399.469 292.922L407.037 293.012L412.554 231.136L423.647 169.327L391.649 173.637Z" fill="black"/>
<path d="M407.004 292.114L406.955 296.193L398.723 300.174L394.68 296.048L398.82 292.018L407.004 292.114Z" fill="#3A3029"/>
<path d="M432.757 294.079L426.25 299.592L427.877 302.835L439.915 300.241V294.079H432.757Z" fill="#3A3029"/>
<path d="M417.895 194.113L423.303 244.564L430.441 294.852L440.62 294.369L440.248 242.201L446.376 193.815L431.985 187.134L417.895 194.113Z" fill="black"/>
<path d="M411.895 101.363C411.894 101.364 399.325 109.648 391.336 136.516C383.201 163.877 384.402 200.072 384.402 200.072C384.402 200.072 455.901 212.133 454.42 200.262C454.42 200.262 456.783 104.39 425.057 102.036C423.615 101.928 412.673 100.766 411.895 101.363Z" fill="#A3C3E9"/>
<path d="M414.93 104.054C409.536 117.162 405.492 129.524 399.951 142.572C396.667 150.303 396.633 158.378 396.164 166.613C395.698 174.799 395.232 182.986 394.767 191.173C394.57 194.631 394.373 198.09 394.176 201.549L424.109 205.055C422.388 195.138 420.37 184.883 418.833 174.936C417.416 165.761 415.241 155.461 416.934 146.212C417.759 141.71 418.649 137.21 419.496 132.709C421.048 124.45 421.743 115.999 423.368 107.754C423.482 107.177 422.202 103.958 422.018 103.381L414.93 104.054Z" fill="white"/>
<path d="M423.315 103.503L423.297 105.051L431.444 124.118L435.046 122.931L432.937 104.372L427.333 101.201C425.551 100.193 423.338 101.461 423.315 103.503Z" fill="#EACDB0"/>
<path d="M430.969 123.9L429.023 127.391L430.544 128.268L435.304 125.105L434.986 122.575L430.969 123.9Z" fill="#3A3029"/>
<path d="M407.799 97.4722L406.862 98.708L402.066 118.873L405.672 120.048L415.026 103.864L412.404 97.9966C411.569 96.1316 409.034 95.8426 407.799 97.4722Z" fill="#E0C5A9"/>
<path d="M401.813 118.753L398.168 120.411L398.869 122.017L404.583 122.287L405.835 120.063L401.813 118.753Z" fill="#3A3029"/>
<path d="M415.052 104.552C417.381 104.178 419.71 103.805 422.039 103.431C421.948 101.558 421.706 99.6925 421.317 97.8583C423.228 97.0556 425.422 95.8925 425.638 93.8367C425.706 93.189 425.555 92.5407 425.405 91.9072C424.785 89.2877 424.164 86.6679 423.544 84.0483C423.329 83.1423 423.103 82.21 422.555 81.4558C421.595 80.1322 419.857 79.6332 418.228 79.4521C414.071 78.9898 409.643 80.1493 406.618 83.0275C405.813 83.7935 405.097 84.6992 404.787 85.7644C404.308 87.4072 404.848 89.1542 405.383 90.7793C405.878 92.2792 406.373 93.7794 406.867 95.2793C407.436 97.0044 408.224 98.9573 409.959 99.512C410.88 99.8064 411.936 99.64 412.783 100.107C414.275 100.931 414.212 103.072 415.052 104.552Z" fill="#EACDB0"/>
<path d="M390.512 79.5056C390.353 77.6933 390.495 75.8408 390.756 74.163C391.203 71.2799 394.49 69.7929 397.392 69.411C403.66 68.5858 409.556 65.3652 415.84 67.1798C419.432 68.2171 424.17 68.2261 427.46 69.7984C428.833 70.455 429.964 71.5425 430.868 72.7647C434.001 76.9994 434.387 83.0765 431.817 87.6718C431.24 88.7026 430.533 89.6559 429.784 90.5706C428.235 92.464 426.386 94.7985 424.145 95.6012C423.966 93.5701 425.434 87.0428 423.765 85.4705C421.116 82.9755 415.548 84.2393 412.502 85.0777C409.179 85.9924 406.324 88.5498 403.018 89.2599C400.639 89.7705 397.502 88.7827 395.385 87.6692C392.067 85.9242 390.799 82.7802 390.512 79.5056Z" fill="#29180B"/>
<path d="M432.82 104.391L469.946 127.265L462.183 139.712L439.233 128.947L432.82 104.391Z" fill="#B2D4FB"/>
<path d="M444.739 94.7959L470 127.271L462.184 139.793L453.409 135.674L439.105 98.8668L444.739 94.7959Z" fill="#C0DAF9"/>
<path d="M443.621 95.6024L440.243 91.2716L432.143 89.9258L430.793 93.2898L434.843 96.6538L439.969 98.2416L443.621 95.6024Z" fill="#EACDB0"/>
<path d="M389.165 125.81L357.93 148.964L322.73 143.161L322.933 136.076L353.04 136.581L376.813 116.261L388.282 116.902L389.165 125.81Z" fill="#85B191"/>
<path d="M322.981 137.213L315.056 136.999L311.223 140.894L312.3 143.015L316.784 143.843L322.788 142.151L322.981 137.213Z" fill="#EACDB0"/>
<path d="M391.018 260.763V298.031H385.374L381.847 275.529L378.672 258.302L391.018 260.763Z" fill="#163E6B"/>
<path d="M378.67 256.896L376.553 273.068L373.732 299.086L368.087 298.734V278.694L365.266 258.302L378.67 256.896Z" fill="#163E6B"/>
<path d="M380.799 202.164C380.799 202.164 386.823 201.097 389.304 210.352C391.785 219.607 398.518 246.661 398.872 260.9C399.227 275.139 390.012 265.883 379.027 267.663C368.041 269.443 359.004 269.621 359.004 263.214C359.004 256.806 355.106 202.342 380.799 202.164Z" fill="#D38E45"/>
<path d="M381.566 183.766C375.404 175.757 365.099 182.859 365.549 191.627C365.806 196.613 370.262 204.369 376.024 203.144C376.498 203.889 377.344 205.307 378.209 205.529C379.147 205.77 380.921 204.199 381.63 203.61C381.826 203.447 382.026 203.266 382.106 203.024C382.206 202.72 381.966 202.162 381.666 201.561C382.235 201.224 382.78 200.806 383.292 200.296C385.442 198.155 386.102 194.835 385.56 191.851C385.018 188.867 383.418 186.173 381.566 183.766Z" fill="#EACDB0"/>
<path d="M374.348 182.464C374.348 182.464 366.708 185.535 367.167 188.823C367.858 193.764 367.991 197.127 368.732 200.02L362.663 197.49L358.078 188.744C358.078 188.744 357.682 181.091 361.456 179.227C365.23 177.363 373.292 174.903 373.292 174.903L379.834 176.006L384.405 175.036L384.738 189.065C384.738 189.065 381.329 179.485 374.348 182.464Z" fill="#5C3C30"/>
<path d="M391.016 298.031L394.19 301.195L392.779 303.305L386.43 301.195V298.031H391.016Z" fill="#8C9498"/>
<path d="M372.794 299.027L371.618 303.656L367.738 305.063L365.621 304.008L368.907 298.785L372.794 299.027Z" fill="#8C9498"/>
<path d="M376.697 203.303L370.599 204.653L358.741 222.213L351.965 240.111L356.708 241.461L365.178 225.928L376.697 203.303Z" fill="#D38E45"/>
<path d="M352.637 240.303L352.305 244.839L354.337 245.514L355.354 242.813L356.031 243.489L356.366 241.365L352.637 240.303Z" fill="#EACDB0"/>
<path d="M383.391 202.127L388.032 203.433L400.745 219.968L413.457 230.55L410.85 234.188L395.203 225.259L384.447 216.33L383.391 202.127Z" fill="#D38E45"/>
<path d="M413.456 230.472L416.361 231.759L417.975 235.619L415.715 235.941L411.176 233.596L413.456 230.472Z" fill="#EACDB0"/>
</svg>
