<svg width="80" height="20" viewBox="0 0 80 20" fill="none" xmlns="http://www.w3.org/2000/svg">
<rect width="80" height="20" fill="#73A7D0"/>
<path d="M6.99997 7L7.74164 9.2751L10 9.29178L8.19998 10.7583L8.85409 13L6.99997 11.6751L5.14585 13L5.79996 10.7583L4 9.29178L6.25836 9.2751L6.99997 7Z" fill="white"/>
<path d="M14.864 14.5V6.7H19.952V8.428H16.928V9.916H19.52V11.644H16.928V14.5H14.864ZM21.2976 14.5V6.7H26.3376V8.428H23.3616V9.652H25.9056V11.38H23.3616V12.772H26.4576V14.5H21.2976ZM29.9816 10.708L29.8496 11.248H31.2896L31.1576 10.708C31.0616 10.332 30.9656 9.924 30.8696 9.484C30.7736 9.044 30.6776 8.628 30.5816 8.236H30.5336C30.4536 8.628 30.3656 9.044 30.2696 9.484C30.1736 9.924 30.0776 10.332 29.9816 10.708ZM26.9816 14.5L29.3576 6.7H31.8536L34.2296 14.5H32.0456L31.6616 12.844H29.4776L29.0936 14.5H26.9816ZM35.5004 14.5V8.428H33.4364V6.7H39.6284V8.428H37.5644V14.5H35.5004ZM43.9779 14.644C42.8899 14.644 42.0779 14.324 41.5419 13.684C41.0059 13.044 40.7379 12.06 40.7379 10.732V6.7H42.8019V10.972C42.8019 11.668 42.8939 12.16 43.0779 12.448C43.2699 12.728 43.5699 12.868 43.9779 12.868C44.3859 12.868 44.6859 12.728 44.8779 12.448C45.0779 12.16 45.1779 11.668 45.1779 10.972V6.7H47.1699V10.732C47.1699 12.06 46.9099 13.044 46.3899 13.684C45.8779 14.324 45.0739 14.644 43.9779 14.644ZM48.8484 14.5V6.7H51.8004C52.3604 6.7 52.8764 6.776 53.3484 6.928C53.8204 7.072 54.2004 7.328 54.4884 7.696C54.7764 8.064 54.9204 8.572 54.9204 9.22C54.9204 9.78 54.8044 10.244 54.5724 10.612C54.3404 10.98 54.0364 11.268 53.6604 11.476L55.3524 14.5H53.0484L51.7044 11.884H50.9124V14.5H48.8484ZM50.9124 10.252H51.6564C52.4884 10.252 52.9044 9.908 52.9044 9.22C52.9044 8.884 52.7964 8.652 52.5804 8.524C52.3724 8.396 52.0644 8.332 51.6564 8.332H50.9124V10.252ZM56.407 14.5V6.7H61.447V8.428H58.471V9.652H61.015V11.38H58.471V12.772H61.567V14.5H56.407ZM63.0749 14.5V6.7H65.3789C66.1709 6.7 66.8669 6.832 67.4669 7.096C68.0749 7.352 68.5469 7.764 68.8829 8.332C69.2189 8.9 69.3869 9.644 69.3869 10.564C69.3869 11.484 69.2189 12.236 68.8829 12.82C68.5469 13.396 68.0869 13.82 67.5029 14.092C66.9189 14.364 66.2509 14.5 65.4989 14.5H63.0749ZM65.1389 12.844H65.2589C65.6349 12.844 65.9749 12.78 66.2789 12.652C66.5829 12.524 66.8229 12.296 66.9989 11.968C67.1829 11.64 67.2749 11.172 67.2749 10.564C67.2749 9.956 67.1829 9.496 66.9989 9.184C66.8229 8.864 66.5829 8.648 66.2789 8.536C65.9749 8.416 65.6349 8.356 65.2589 8.356H65.1389V12.844Z" fill="white"/>
</svg>
