<svg width="108" height="22" viewBox="0 0 108 22" fill="none" xmlns="http://www.w3.org/2000/svg">
<rect width="108" height="20" transform="translate(0 2)" fill="#73A7D0"/>
<path d="M24 9L24.7416 11.2751L27 11.2918L25.2 12.7583L25.8541 15L24 13.6751L22.1459 15L22.8 12.7583L21 11.2918L23.2584 11.2751L24 9Z" fill="white"/>
<path d="M31.864 16.5V8.7H36.952V10.428H33.928V11.916H36.52V13.644H33.928V16.5H31.864ZM38.2976 16.5V8.7H43.3376V10.428H40.3616V11.652H42.9056V13.38H40.3616V14.772H43.4576V16.5H38.2976ZM46.9816 12.708L46.8496 13.248H48.2896L48.1576 12.708C48.0616 12.332 47.9656 11.924 47.8696 11.484C47.7736 11.044 47.6776 10.628 47.5816 10.236H47.5336C47.4536 10.628 47.3656 11.044 47.2696 11.484C47.1736 11.924 47.0776 12.332 46.9816 12.708ZM43.9816 16.5L46.3576 8.7H48.8536L51.2296 16.5H49.0456L48.6616 14.844H46.4776L46.0936 16.5H43.9816ZM52.5004 16.5V10.428H50.4364V8.7H56.6284V10.428H54.5644V16.5H52.5004ZM60.9779 16.644C59.8899 16.644 59.0779 16.324 58.5419 15.684C58.0059 15.044 57.7379 14.06 57.7379 12.732V8.7H59.8019V12.972C59.8019 13.668 59.8939 14.16 60.0779 14.448C60.2699 14.728 60.5699 14.868 60.9779 14.868C61.3859 14.868 61.6859 14.728 61.8779 14.448C62.0779 14.16 62.1779 13.668 62.1779 12.972V8.7H64.1699V12.732C64.1699 14.06 63.9099 15.044 63.3899 15.684C62.8779 16.324 62.0739 16.644 60.9779 16.644ZM65.8484 16.5V8.7H68.8004C69.3604 8.7 69.8764 8.776 70.3484 8.928C70.8204 9.072 71.2004 9.328 71.4884 9.696C71.7764 10.064 71.9204 10.572 71.9204 11.22C71.9204 11.78 71.8044 12.244 71.5724 12.612C71.3404 12.98 71.0364 13.268 70.6604 13.476L72.3524 16.5H70.0484L68.7044 13.884H67.9124V16.5H65.8484ZM67.9124 12.252H68.6564C69.4884 12.252 69.9044 11.908 69.9044 11.22C69.9044 10.884 69.7964 10.652 69.5804 10.524C69.3724 10.396 69.0644 10.332 68.6564 10.332H67.9124V12.252ZM73.407 16.5V8.7H78.447V10.428H75.471V11.652H78.015V13.38H75.471V14.772H78.567V16.5H73.407ZM80.0749 16.5V8.7H82.3789C83.1709 8.7 83.8669 8.832 84.4669 9.096C85.0749 9.352 85.5469 9.764 85.8829 10.332C86.2189 10.9 86.3869 11.644 86.3869 12.564C86.3869 13.484 86.2189 14.236 85.8829 14.82C85.5469 15.396 85.0869 15.82 84.5029 16.092C83.9189 16.364 83.2509 16.5 82.4989 16.5H80.0749ZM82.1389 14.844H82.2589C82.6349 14.844 82.9749 14.78 83.2789 14.652C83.5829 14.524 83.8229 14.296 83.9989 13.968C84.1829 13.64 84.2749 13.172 84.2749 12.564C84.2749 11.956 84.1829 11.496 83.9989 11.184C83.8229 10.864 83.5829 10.648 83.2789 10.536C82.9749 10.416 82.6349 10.356 82.2589 10.356H82.1389V14.844Z" fill="white"/>
<path d="M0 2L6 0V2H0Z" fill="url(#paint0_linear_9847_291831)"/>
<path d="M108 2L102 0V2H108Z" fill="url(#paint1_linear_9847_291831)"/>
<defs>
<linearGradient id="paint0_linear_9847_291831" x1="10.6534" y1="1.42466" x2="4.08406" y2="10.2946" gradientUnits="userSpaceOnUse">
<stop stop-color="#DFF2FF"/>
<stop offset="0.295134" stop-color="#73A7D0"/>
<stop offset="0.57639" stop-color="#A491EF"/>
<stop offset="1" stop-color="#302E6D"/>
</linearGradient>
<linearGradient id="paint1_linear_9847_291831" x1="97.3466" y1="1.42466" x2="103.916" y2="10.2946" gradientUnits="userSpaceOnUse">
<stop stop-color="#DFF2FF"/>
<stop offset="0.295134" stop-color="#73A7D0"/>
<stop offset="0.57639" stop-color="#A491EF"/>
<stop offset="1" stop-color="#302E6D"/>
</linearGradient>
</defs>
</svg>
