<svg width="78" height="22" viewBox="0 0 78 22" fill="none" xmlns="http://www.w3.org/2000/svg">
<rect width="78" height="20" transform="translate(0 2)" fill="#73A7D0"/>
<path d="M8.99997 9L9.74164 11.2751L12 11.2918L10.2 12.7583L10.8541 15L8.99997 13.6751L7.14585 15L7.79996 12.7583L6 11.2918L8.25836 11.2751L8.99997 9Z" fill="white"/>
<path d="M16.864 16.5V8.7H21.952V10.428H18.928V11.916H21.52V13.644H18.928V16.5H16.864ZM23.2976 16.5V8.7H28.3376V10.428H25.3616V11.652H27.9056V13.38H25.3616V14.772H28.4576V16.5H23.2976ZM31.9816 12.708L31.8496 13.248H33.2896L33.1576 12.708C33.0616 12.332 32.9656 11.924 32.8696 11.484C32.7736 11.044 32.6776 10.628 32.5816 10.236H32.5336C32.4536 10.628 32.3656 11.044 32.2696 11.484C32.1736 11.924 32.0776 12.332 31.9816 12.708ZM28.9816 16.5L31.3576 8.7H33.8536L36.2296 16.5H34.0456L33.6616 14.844H31.4776L31.0936 16.5H28.9816ZM37.5004 16.5V10.428H35.4364V8.7H41.6284V10.428H39.5644V16.5H37.5004ZM45.9779 16.644C44.8899 16.644 44.0779 16.324 43.5419 15.684C43.0059 15.044 42.7379 14.06 42.7379 12.732V8.7H44.8019V12.972C44.8019 13.668 44.8939 14.16 45.0779 14.448C45.2699 14.728 45.5699 14.868 45.9779 14.868C46.3859 14.868 46.6859 14.728 46.8779 14.448C47.0779 14.16 47.1779 13.668 47.1779 12.972V8.7H49.1699V12.732C49.1699 14.06 48.9099 15.044 48.3899 15.684C47.8779 16.324 47.0739 16.644 45.9779 16.644ZM50.8484 16.5V8.7H53.8004C54.3604 8.7 54.8764 8.776 55.3484 8.928C55.8204 9.072 56.2004 9.328 56.4884 9.696C56.7764 10.064 56.9204 10.572 56.9204 11.22C56.9204 11.78 56.8044 12.244 56.5724 12.612C56.3404 12.98 56.0364 13.268 55.6604 13.476L57.3524 16.5H55.0484L53.7044 13.884H52.9124V16.5H50.8484ZM52.9124 12.252H53.6564C54.4884 12.252 54.9044 11.908 54.9044 11.22C54.9044 10.884 54.7964 10.652 54.5804 10.524C54.3724 10.396 54.0644 10.332 53.6564 10.332H52.9124V12.252ZM58.407 16.5V8.7H63.447V10.428H60.471V11.652H63.015V13.38H60.471V14.772H63.567V16.5H58.407ZM65.0749 16.5V8.7H67.3789C68.1709 8.7 68.8669 8.832 69.4669 9.096C70.0749 9.352 70.5469 9.764 70.8829 10.332C71.2189 10.9 71.3869 11.644 71.3869 12.564C71.3869 13.484 71.2189 14.236 70.8829 14.82C70.5469 15.396 70.0869 15.82 69.5029 16.092C68.9189 16.364 68.2509 16.5 67.4989 16.5H65.0749ZM67.1389 14.844H67.2589C67.6349 14.844 67.9749 14.78 68.2789 14.652C68.5829 14.524 68.8229 14.296 68.9989 13.968C69.1829 13.64 69.2749 13.172 69.2749 12.564C69.2749 11.956 69.1829 11.496 68.9989 11.184C68.8229 10.864 68.5829 10.648 68.2789 10.536C67.9749 10.416 67.6349 10.356 67.2589 10.356H67.1389V14.844Z" fill="white"/>
<path d="M0 2L6 0V2H0Z" fill="url(#paint0_linear_9867_369387)"/>
<path d="M78 2L72 0V2H78Z" fill="url(#paint1_linear_9867_369387)"/>
<defs>
<linearGradient id="paint0_linear_9867_369387" x1="10.6534" y1="1.42466" x2="4.08406" y2="10.2946" gradientUnits="userSpaceOnUse">
<stop stop-color="#DFF2FF"/>
<stop offset="0.295134" stop-color="#73A7D0"/>
<stop offset="0.57639" stop-color="#A491EF"/>
<stop offset="1" stop-color="#302E6D"/>
</linearGradient>
<linearGradient id="paint1_linear_9867_369387" x1="67.3466" y1="1.42466" x2="73.9159" y2="10.2946" gradientUnits="userSpaceOnUse">
<stop stop-color="#DFF2FF"/>
<stop offset="0.295134" stop-color="#73A7D0"/>
<stop offset="0.57639" stop-color="#A491EF"/>
<stop offset="1" stop-color="#302E6D"/>
</linearGradient>
</defs>
</svg>
