<svg width="84" height="22" viewBox="0 0 84 22" fill="none" xmlns="http://www.w3.org/2000/svg">
<rect width="84" height="20" transform="translate(0 2)" fill="url(#paint0_linear_5242_94289)"/>
<path d="M6.99997 9L7.74164 11.2751L10 11.2918L8.19998 12.7583L8.85409 15L6.99997 13.6751L5.14585 15L5.79996 12.7583L4 11.2918L6.25836 11.2751L6.99997 9Z" fill="#272523"/>
<path d="M14.864 16.5V8.7H17.72C19.424 8.7 20.888 9.324 20.888 11.292C20.888 13.2 19.4 14.028 17.768 14.028H16.928V16.5H14.864ZM16.928 12.396H17.672C18.488 12.396 18.872 11.988 18.872 11.292C18.872 10.596 18.416 10.332 17.624 10.332H16.928V12.396ZM22.1648 16.5V8.7H24.2288V14.772H27.1808V16.5H22.1648ZM30.4269 12.708L30.2949 13.248H31.7349L31.6029 12.708C31.4109 11.964 31.2189 11.016 31.0269 10.236H30.9789C30.8109 11.028 30.6189 11.964 30.4269 12.708ZM27.4269 16.5L29.8029 8.7H32.2989L34.6749 16.5H32.4909L32.1069 14.844H29.9229L29.5389 16.5H27.4269ZM35.9458 16.5V10.428H33.8818V8.7H40.0738V10.428H38.0098V16.5H35.9458ZM41.2312 16.5V8.7H43.2952V16.5H41.2312ZM45.0281 16.5V8.7H47.1401L48.8681 12.18L49.6121 13.932H49.6601C49.5641 13.092 49.3961 11.916 49.3961 10.956V8.7H51.3641V16.5H49.2521L47.5241 13.008L46.7801 11.268H46.7321C46.8281 12.156 46.9961 13.284 46.9961 14.244V16.5H45.0281ZM56.2826 16.644C54.0986 16.644 53.0426 15.396 53.0426 12.732V8.7H55.1066V12.972C55.1066 14.364 55.4666 14.868 56.2826 14.868C57.0986 14.868 57.4826 14.364 57.4826 12.972V8.7H59.4746V12.732C59.4746 15.396 58.4666 16.644 56.2826 16.644ZM61.1531 16.5V8.7H63.3611L64.5371 11.892C64.6811 12.324 64.8011 12.804 64.9451 13.26H64.9931C65.1371 12.804 65.2571 12.324 65.4011 11.892L66.5291 8.7H68.7371V16.5H66.8651V14.196C66.8651 13.404 67.0331 12.192 67.1291 11.412H67.0811L66.4331 13.284L65.4731 15.864H64.3691L63.4091 13.284L62.7851 11.412H62.7371C62.8331 12.192 63.0011 13.404 63.0011 14.196V16.5H61.1531Z" fill="#272523"/>
<path d="M77 9L77.7416 11.2751L80 11.2918L78.2 12.7583L78.8542 15L77 13.6751L75.1459 15L75.8 12.7583L74 11.2918L76.2584 11.2751L77 9Z" fill="#272523"/>
<path d="M0 2L6 0V2H0Z" fill="url(#paint1_linear_5242_94289)"/>
<defs>
<linearGradient id="paint0_linear_5242_94289" x1="-1.71161e-05" y1="9.99999" x2="84" y2="9.99999" gradientUnits="userSpaceOnUse">
<stop stop-color="#E5E4E2"/>
<stop offset="0.25" stop-color="#9D9D9D"/>
<stop offset="0.5" stop-color="#B7B6B3"/>
<stop offset="0.75" stop-color="#9D9D9D"/>
<stop offset="1" stop-color="#E5E4E2"/>
</linearGradient>
<linearGradient id="paint1_linear_5242_94289" x1="-1.22258e-06" y1="0.999999" x2="6" y2="0.999999" gradientUnits="userSpaceOnUse">
<stop stop-color="#E5E4E2"/>
<stop offset="0.25" stop-color="#9D9D9D"/>
<stop offset="0.5" stop-color="#B7B6B3"/>
<stop offset="0.75" stop-color="#9D9D9D"/>
<stop offset="1" stop-color="#E5E4E2"/>
</linearGradient>
</defs>
</svg>
