<svg width="114" height="22" viewBox="0 0 114 22" fill="none" xmlns="http://www.w3.org/2000/svg">
<rect width="114" height="20" transform="translate(0 2)" fill="url(#paint0_linear_5242_94287)"/>
<path d="M6.99997 9L7.74164 11.2751L10 11.2918L8.19998 12.7583L8.85409 15L6.99997 13.6751L5.14585 15L5.79996 12.7583L4 11.2918L6.25836 11.2751L6.99997 9Z" fill="#272523"/>
<path d="M14.864 16.5V8.7H17.72C19.424 8.7 20.888 9.324 20.888 11.292C20.888 13.2 19.4 14.028 17.768 14.028H16.928V16.5H14.864ZM16.928 12.396H17.672C18.488 12.396 18.872 11.988 18.872 11.292C18.872 10.596 18.416 10.332 17.624 10.332H16.928V12.396ZM22.1648 16.5V8.7H24.2288V14.772H27.1808V16.5H22.1648ZM30.4269 12.708L30.2949 13.248H31.7349L31.6029 12.708C31.4109 11.964 31.2189 11.016 31.0269 10.236H30.9789C30.8109 11.028 30.6189 11.964 30.4269 12.708ZM27.4269 16.5L29.8029 8.7H32.2989L34.6749 16.5H32.4909L32.1069 14.844H29.9229L29.5389 16.5H27.4269ZM35.9458 16.5V10.428H33.8818V8.7H40.0738V10.428H38.0098V16.5H35.9458ZM41.2312 16.5V8.7H43.2952V16.5H41.2312ZM45.0281 16.5V8.7H47.1401L48.8681 12.18L49.6121 13.932H49.6601C49.5641 13.092 49.3961 11.916 49.3961 10.956V8.7H51.3641V16.5H49.2521L47.5241 13.008L46.7801 11.268H46.7321C46.8281 12.156 46.9961 13.284 46.9961 14.244V16.5H45.0281ZM56.2826 16.644C54.0986 16.644 53.0426 15.396 53.0426 12.732V8.7H55.1066V12.972C55.1066 14.364 55.4666 14.868 56.2826 14.868C57.0986 14.868 57.4826 14.364 57.4826 12.972V8.7H59.4746V12.732C59.4746 15.396 58.4666 16.644 56.2826 16.644ZM61.1531 16.5V8.7H63.3611L64.5371 11.892C64.6811 12.324 64.8011 12.804 64.9451 13.26H64.9931C65.1371 12.804 65.2571 12.324 65.4011 11.892L66.5291 8.7H68.7371V16.5H66.8651V14.196C66.8651 13.404 67.0331 12.192 67.1291 11.412H67.0811L66.4331 13.284L65.4731 15.864H64.3691L63.4091 13.284L62.7851 11.412H62.7371C62.8331 12.192 63.0011 13.404 63.0011 14.196V16.5H61.1531ZM72.8718 16.5V8.7H75.7278C77.4318 8.7 78.8958 9.324 78.8958 11.292C78.8958 13.2 77.4078 14.028 75.7758 14.028H74.9358V16.5H72.8718ZM74.9358 12.396H75.6798C76.4958 12.396 76.8798 11.988 76.8798 11.292C76.8798 10.596 76.4238 10.332 75.6318 10.332H74.9358V12.396ZM80.1726 16.5V8.7H82.2366V14.772H85.1886V16.5H80.1726ZM89.2474 16.644C87.0634 16.644 86.0074 15.396 86.0074 12.732V8.7H88.0714V12.972C88.0714 14.364 88.4314 14.868 89.2474 14.868C90.0634 14.868 90.4474 14.364 90.4474 12.972V8.7H92.4394V12.732C92.4394 15.396 91.4314 16.644 89.2474 16.644ZM96.4727 16.644C95.4887 16.644 94.3607 16.284 93.5207 15.528L94.6967 14.112C95.2487 14.556 95.9447 14.868 96.5207 14.868C97.1447 14.868 97.4087 14.664 97.4087 14.316C97.4087 13.944 97.0127 13.824 96.3527 13.56L95.3807 13.152C94.5407 12.816 93.8087 12.108 93.8087 10.98C93.8087 9.648 95.0087 8.556 96.7127 8.556C97.6007 8.556 98.5847 8.892 99.3047 9.6L98.2727 10.896C97.7447 10.524 97.2887 10.332 96.7127 10.332C96.2087 10.332 95.8967 10.512 95.8967 10.86C95.8967 11.232 96.3407 11.364 97.0487 11.64L97.9967 12.012C98.9687 12.396 99.5207 13.068 99.5207 14.148C99.5207 15.468 98.4167 16.644 96.4727 16.644Z" fill="#272523"/>
<path d="M107 9L107.742 11.2751L110 11.2918L108.2 12.7583L108.854 15L107 13.6751L105.146 15L105.8 12.7583L104 11.2918L106.258 11.2751L107 9Z" fill="#272523"/>
<path d="M0 2L6 0V1.99988L0 2Z" fill="url(#paint1_linear_5242_94287)"/>
<defs>
<linearGradient id="paint0_linear_5242_94287" x1="-2.3229e-05" y1="9.99999" x2="114" y2="9.99999" gradientUnits="userSpaceOnUse">
<stop stop-color="#E5E4E2"/>
<stop offset="0.25" stop-color="#9D9D9D"/>
<stop offset="0.5" stop-color="#B7B6B3"/>
<stop offset="0.75" stop-color="#9D9D9D"/>
<stop offset="1" stop-color="#E5E4E2"/>
</linearGradient>
<linearGradient id="paint1_linear_5242_94287" x1="-1.22258e-06" y1="0.999999" x2="6" y2="0.999999" gradientUnits="userSpaceOnUse">
<stop stop-color="#E5E4E2"/>
<stop offset="0.25" stop-color="#9D9D9D"/>
<stop offset="0.5" stop-color="#B7B6B3"/>
<stop offset="0.75" stop-color="#9D9D9D"/>
<stop offset="1" stop-color="#E5E4E2"/>
</linearGradient>
</defs>
</svg>
