<svg width="200" height="136" viewBox="0 0 200 136" fill="none" xmlns="http://www.w3.org/2000/svg">
<rect width="200" height="136" rx="8" fill="white"/>
<path d="M65.5435 79.8047H69.1623C70.2589 79.8047 71.5748 80.4998 71.5748 82.3535C71.5748 84.5548 70.2589 85.1341 69.2719 85.1341H66.2014V87.9147H65.5435V79.8047ZM66.2014 80.3839V84.439H69.1623C69.9299 84.439 70.9168 84.0914 70.9168 82.3535C70.9168 80.7315 70.0395 80.3839 69.1623 80.3839H66.2014Z" fill="black"/>
<path d="M80.2365 84.7867C80.7848 85.2501 81.1138 86.177 81.4428 87.1039L81.7718 87.9149H81.1138L80.6752 86.6404C80.2365 85.366 79.6882 84.9026 78.8109 84.9026H76.5081V88.0307H75.8501V79.9207H79.4689C80.6752 79.9207 81.8814 80.4999 81.8814 82.3537C81.8814 82.8171 81.7718 84.4391 80.2365 84.7867ZM79.3592 84.2074C80.2365 84.2074 81.1138 84.2074 81.1138 82.2378C81.1138 80.6158 80.2365 80.3841 79.3592 80.3841H76.5081V84.2074H79.3592Z" fill="black"/>
<path d="M85.9404 83.628C85.9404 80.7315 88.024 79.6888 89.7786 79.6888C91.5331 79.6888 93.507 80.7315 93.507 83.628C93.507 87.2196 91.2041 87.9148 89.7786 87.9148C88.2433 88.0306 85.9404 87.2196 85.9404 83.628ZM92.849 83.7439C92.849 81.195 91.3138 80.384 89.7786 80.384C88.2433 80.384 86.5984 81.195 86.5984 83.7439C86.5984 86.7562 88.4626 87.3355 89.7786 87.3355C90.9848 87.3355 92.849 86.7562 92.849 83.7439Z" fill="black"/>
<path d="M98.0034 79.8045H101.622C102.719 79.8045 104.035 80.4996 104.035 82.3534C104.035 84.5547 102.719 85.134 101.732 85.134H98.6614V87.9146H98.0034V79.8045ZM98.6614 80.3838V84.4388H101.622C102.39 84.4388 103.377 84.0912 103.377 82.3534C103.377 80.7313 102.499 80.3838 101.622 80.3838H98.6614Z" fill="black"/>
<path d="M108.969 80.384V83.3964H112.697V84.0915H108.969V87.2197H113.574V87.9148H108.311V79.8047H113.574V80.4999H108.969V80.384Z" fill="black"/>
<path d="M122.566 84.7864C123.114 85.2499 123.443 86.1767 123.772 87.1036L124.101 87.9146H123.443L123.005 86.6402C122.566 85.3657 122.018 84.9023 121.141 84.9023H118.838V88.0305H118.18V79.9204H121.798C123.005 79.9204 124.211 80.4997 124.211 82.3534C124.211 82.8168 124.101 84.4389 122.566 84.7864ZM121.798 84.2071C122.676 84.2071 123.553 84.2071 123.553 82.2375C123.553 80.6155 122.676 80.3838 121.798 80.3838H118.947V84.2071H121.798Z" fill="black"/>
<path d="M128.049 79.8047H133.971V80.4999H131.339V88.0307H130.681V80.4999H128.049V79.8047Z" fill="black"/>
<path d="M143.732 79.8047H144.5L141.539 85.1342V87.9148H140.881V85.1342L137.92 79.8047H138.688L141.319 84.4391L143.732 79.8047Z" fill="black"/>
<path d="M147.021 87.2196H147.678V87.9148H147.021V87.2196Z" fill="black"/>
<path d="M152.834 83.7439C152.834 86.7562 154.698 87.3355 156.124 87.3355C156.782 87.3355 157.44 87.2196 158.098 86.872L158.427 87.3355C157.769 87.7989 156.892 87.9148 156.234 87.9148C154.808 87.9148 152.176 87.2196 152.176 83.628C152.176 80.6157 154.15 79.6888 156.234 79.6888C157.001 79.6888 157.769 79.9205 158.427 80.2681L158.098 80.7315C157.44 80.384 156.782 80.2681 156.234 80.2681C154.589 80.384 152.834 80.9633 152.834 83.7439Z" fill="black"/>
<path d="M162.373 83.628C162.373 80.7315 164.456 79.6888 166.211 79.6888C167.965 79.6888 169.939 80.7315 169.939 83.628C169.939 87.2196 167.636 87.9148 166.211 87.9148C164.675 88.0306 162.373 87.2196 162.373 83.628ZM169.281 83.7439C169.281 81.195 167.746 80.384 166.211 80.384C164.675 80.384 163.031 81.195 163.031 83.7439C163.031 86.7562 164.895 87.3355 166.211 87.3355C167.417 87.3355 169.281 86.7562 169.281 83.7439Z" fill="black"/>
<path d="M177.945 85.945L175.094 81.4265V87.9146H174.436V79.8045H174.874L178.164 85.2498L181.454 79.8045H181.892V87.9146H181.235V81.4265L178.493 85.945H177.945Z" fill="black"/>
<path d="M72.9985 58.6026C73.8758 58.6026 74.6434 58.7185 75.411 59.0661C76.1787 59.4136 76.8366 59.8771 77.3849 60.4564C77.9332 61.0357 78.3719 61.7308 78.7009 62.5418C79.0298 63.3528 79.1395 64.1638 79.1395 65.0907C79.1395 66.0176 79.0298 66.8286 78.7009 67.5237C78.3719 68.3347 78.0429 68.914 77.4946 69.4933C76.9463 70.0726 76.2883 70.536 75.411 70.8836C74.5338 71.2312 73.6565 71.347 72.4502 71.347H68.6121V76.7924H65.3223V58.6026H72.9985ZM72.9985 68.2189C73.4372 68.2189 73.8758 68.103 74.3144 67.9872C74.6434 67.7554 74.9724 67.5237 75.1917 67.292C75.411 66.9444 75.6304 66.7127 75.74 66.2493C75.8497 65.9017 75.9593 65.4383 75.9593 65.0907C75.9593 64.6273 75.8497 64.2797 75.74 63.8163C75.6304 63.3528 75.411 63.0052 75.0821 62.7735C74.8627 62.426 74.5338 62.1942 74.0951 61.9625C73.6565 61.7308 73.2178 61.6149 72.7792 61.6149H68.6121V68.2189H72.9985Z" fill="black"/>
<path d="M77.165 76.7923L85.9379 58.6026H86.2669L95.0397 76.7923H91.4209L90.105 73.8959H81.9901L80.6742 76.7923H77.165ZM83.635 70.8835H88.5697L86.1572 65.4382L83.635 70.8835Z" fill="black"/>
<path d="M107.652 76.7925L100.414 68.5665V76.7925H97.1245V58.6027H100.414V67.8714L107.213 58.6027H111.271L104.143 67.9872L111.929 76.7925H107.652Z" fill="black"/>
<path d="M118.179 76.7922H114.889V58.6024H118.179V76.7922Z" fill="black"/>
<path d="M121.687 74.3594L123.442 71.5788C124.319 72.1581 125.196 72.7374 126.073 73.2008C126.951 73.6642 127.938 73.8959 128.925 73.8959C129.473 73.8959 129.912 73.7801 130.35 73.6642C130.789 73.5484 131.118 73.3166 131.337 73.0849C131.666 72.8532 131.885 72.6215 131.995 72.2739C132.105 72.0422 132.214 71.6946 132.214 71.4629C132.214 71.1153 132.105 70.7678 131.885 70.536C131.666 70.3043 131.337 70.0726 131.008 69.9568C130.679 69.8409 130.241 69.6092 129.802 69.4933C129.363 69.3775 128.815 69.2616 128.267 69.1457C127.938 69.0299 127.499 69.0299 127.06 68.914C126.622 68.7982 126.183 68.6823 125.635 68.5665C125.196 68.4506 124.648 68.2189 124.209 67.9872C123.771 67.7554 123.332 67.4079 122.893 67.0603C122.564 66.7127 122.235 66.2493 122.016 65.67C121.797 65.0907 121.687 64.5114 121.687 63.8163C121.687 62.7735 121.906 61.8467 122.345 61.1515C122.784 60.4564 123.222 59.8771 123.88 59.5295C124.538 59.0661 125.196 58.8344 125.964 58.7185C126.731 58.6026 127.499 58.4868 128.157 58.4868C128.925 58.4868 129.473 58.4868 130.131 58.6026C130.679 58.7185 131.227 58.8344 131.666 59.0661C132.105 59.2978 132.653 59.5295 133.092 59.7612C133.53 60.1088 134.079 60.3405 134.627 60.804L132.763 63.5846C131.995 63.0053 131.118 62.5418 130.46 62.1943C129.692 61.8467 128.925 61.7308 128.047 61.7308C127.718 61.7308 127.499 61.7308 127.06 61.8467C126.731 61.9625 126.402 62.0784 126.073 62.1943C125.744 62.3101 125.525 62.5418 125.306 62.7735C125.086 63.0053 124.977 63.3528 124.977 63.7004C124.977 64.048 125.086 64.3956 125.306 64.6273C125.525 64.859 125.854 65.0907 126.293 65.2066C126.731 65.3224 127.17 65.5541 127.609 65.67C128.047 65.7859 128.486 65.9017 128.925 66.0176C129.254 66.1334 129.692 66.1334 130.131 66.2493C130.57 66.3651 131.008 66.481 131.556 66.5969C131.995 66.7127 132.543 66.9444 132.982 67.1762C133.421 67.4079 133.859 67.7554 134.188 68.103C134.517 68.4506 134.846 69.0299 135.066 69.4933C135.285 69.9568 135.395 70.7678 135.395 71.5788C135.395 72.5056 135.285 73.3166 134.956 74.0118C134.627 74.7069 134.188 75.2862 133.64 75.7497C133.092 76.2131 132.324 76.5607 131.556 76.7924C130.789 77.0241 129.912 77.14 128.925 77.14C128.047 77.14 127.28 77.0241 126.512 76.9083C125.854 76.7924 125.196 76.5607 124.648 76.329C124.1 76.0972 123.551 75.7497 123.003 75.518C122.784 75.1704 122.235 74.8228 121.687 74.3594Z" fill="black"/>
<path d="M149.323 61.615H144.388V76.6765H141.098V61.615H136.164V58.4868H149.323V61.615Z" fill="black"/>
<path d="M147.129 76.7922L155.902 58.6024H156.231L165.004 76.7922H161.385L160.069 73.8957H151.954L150.638 76.7922H147.129ZM153.599 70.8834H158.534L156.121 65.4381L153.599 70.8834Z" fill="black"/>
<path d="M181.671 76.7922L170.376 66.0174V76.7922H167.086V58.6024H167.415L178.71 69.609V58.6024H182V76.7922H181.671Z" fill="black"/>
<path d="M19.0966 57.6758L23.5927 54.3159C23.812 54.2001 23.9217 53.9684 23.9217 53.7366V51.9988C23.9217 50.7243 22.9347 49.7975 21.8381 49.7975H20.0836C18.8773 49.7975 18 50.8402 18 51.9988V57.2124C18 57.6758 18.658 58.0234 19.0966 57.6758Z" fill="#1A573E"/>
<path d="M54.0784 88.0307C55.9426 88.0307 57.3682 86.5245 57.3682 84.5549V61.1516C57.3682 59.993 56.8199 58.8344 55.8329 58.2551L38.7259 46.5534C37.6293 45.7424 36.094 45.8583 34.9974 46.6693L19.4256 58.371C18.5483 59.0661 18 60.1088 18 61.1516V84.4391C18 86.4087 19.4256 87.9148 21.2898 87.9148H54.0784V88.0307Z" fill="#1A573E"/>
<path d="M31.7088 68.798H33.573V58.7184H39.2754C39.2754 58.7184 45.6357 59.6452 45.855 66.9443C45.855 66.9443 45.9647 73.7799 39.2754 75.0544H31.5991V89.8842H33.573V77.2557L38.7271 77.3715C38.7271 77.3715 47.1709 76.9081 47.8289 66.8284C47.8289 66.8284 48.0482 58.7184 39.714 56.5171H31.5991V68.798H31.7088Z" fill="white"/>
<path d="M35.6556 60.688H39.0551C39.0551 60.688 43.7705 61.9624 43.8802 66.365C43.8802 66.365 44.6478 71.8104 38.8358 73.0848H29.7339V90.0001H27.6504V60.688H35.6556Z" fill="white"/>
<path fill-rule="evenodd" clip-rule="evenodd" d="M40.6988 68.7982C40.0409 69.4933 38.9443 70.1885 37.5187 70.0726C34.2289 69.9568 32.3646 66.1335 34.0095 63.237C34.1192 63.0053 34.3385 62.7736 34.4482 62.5418C34.6675 62.3101 34.7772 62.1943 34.9965 61.9626C34.6675 61.9626 34.2289 62.3101 34.0095 62.426C33.1323 63.0053 32.3646 64.048 32.0357 65.0907C30.6101 69.7251 35.8738 73.4325 39.3829 70.4202C39.8216 70.3043 40.5892 69.3775 40.6988 68.7982Z" fill="#1A573E"/>
<path fill-rule="evenodd" clip-rule="evenodd" d="M37.4088 64.5114L35.8735 65.2066L37.4088 65.5541L37.6281 67.4079L38.5054 65.9017L40.1503 66.2493L39.0537 64.9748L39.931 63.3528L38.2861 64.048L37.1895 62.7735L37.4088 64.5114Z" fill="#1A573E"/>
</svg>
