<svg width="24" height="24" viewBox="0 0 24 24" fill="none" xmlns="http://www.w3.org/2000/svg">
<path d="M21.6882 5.71502L21.4524 6.0592L21.6849 5.71252C20.9999 5.24334 20.2857 5.18502 19.5641 5.53334L17.2024 6.64334L17.1324 6.68502L15.6707 5.92084C15.0591 5.51334 14.3616 5.29834 13.6391 5.29834C13.6382 5.29834 13.6382 5.29834 13.6382 5.29834L12.4041 5.33334C12.2274 5.33916 12.0724 5.45584 12.0191 5.62416C11.9657 5.79248 12.0249 5.97748 12.1674 6.08334L14.7624 8.02916L12.7199 9.09084C12.4691 9.06666 11.7116 8.88084 11.3741 8.79834C10.9049 8.68334 10.8324 8.66666 10.7499 8.66666H9.91656C9.74074 8.66666 9.58324 8.77748 9.52406 8.94334C9.46488 9.10916 9.51738 9.29416 9.65406 9.40584C10.3807 9.99916 12.0074 11.2267 13.0082 11.2267C13.1707 11.2267 13.3166 11.1942 13.4391 11.1225L21.6949 6.92502C21.8874 6.79002 22.0007 6.56252 21.9999 6.31834C21.9991 6.07334 21.8816 5.84752 21.6882 5.71502ZM13.0424 10.3892C12.8416 10.4634 12.1866 10.16 11.4257 9.66838C12.6316 9.96005 12.8274 9.9667 13.0257 9.87005L15.7332 8.46338C15.8607 8.3967 15.9449 8.27006 15.9566 8.12756C15.9674 7.98506 15.9057 7.84588 15.7907 7.76006L13.6207 6.13256L13.6499 6.13174C14.1957 6.13174 14.7349 6.29842 15.2457 6.63592L16.9524 7.53174C17.0816 7.59924 17.2357 7.59424 17.3607 7.52006L19.9232 6.28588C20.3399 6.08338 20.709 6.0967 21.0765 6.3092L13.0424 10.3892Z" fill="#2D2D2D"/>
<path d="M4.91668 7.00005H6.58336C6.81336 7.00005 7.00004 6.81337 7.00004 6.58337C7.00004 6.35337 6.81336 6.16669 6.58336 6.16669H4.91668C4.68668 6.16669 4.5 6.35337 4.5 6.58337C4.5 6.81337 4.68668 7.00005 4.91668 7.00005Z" fill="#2D2D2D"/>
<path d="M8.24871 19.5H9.91539C10.1454 19.5 10.3321 19.3134 10.3321 19.0834V17.4167C10.3321 17.1867 10.1454 17 9.91539 17H8.24871C8.01871 17 7.83203 17.1867 7.83203 17.4167V19.0834C7.83203 19.3134 8.01871 19.5 8.24871 19.5ZM8.66539 17.8334H9.49871V18.6667H8.66539V17.8334Z" fill="#2D2D2D"/>
<path d="M6.58332 10.3333H4.91668C4.68668 10.3333 4.5 10.52 4.5 10.75V12.4167C4.5 12.6467 4.68668 12.8334 4.91668 12.8334H6.58336C6.81336 12.8334 7.00004 12.6467 7.00004 12.4167V10.75C7 10.52 6.81332 10.3333 6.58332 10.3333ZM6.16668 12H5.33332V11.1667H6.16664L6.16668 12Z" fill="#2D2D2D"/>
<path d="M12.4167 19.5H14.0834C14.3134 19.5 14.5 19.3134 14.5 19.0834V17.4167C14.5 17.1867 14.3134 17 14.0834 17H12.4167C12.1867 17 12 17.1867 12 17.4167V19.0834C12 19.3134 12.1867 19.5 12.4167 19.5ZM12.8333 17.8334H13.6666V18.6667H12.8333V17.8334Z" fill="#2D2D2D"/>
<path d="M20.75 15.3333H18.6667V14.0833C18.6667 13.8533 18.48 13.6666 18.25 13.6666H13.25C13.02 13.6666 12.8333 13.8533 12.8333 14.0833V15.3333H8.66667V9.08331C8.66667 8.85331 8.47999 8.66663 8.24999 8.66663H7.99499L8.64499 6.71496C8.65917 6.67246 8.66667 6.62828 8.66667 6.58328V4.91668C8.66667 4.68668 8.47999 4.5 8.24999 4.5H6.16668V2.41668C6.16668 2.18668 5.98 2 5.75 2C5.52 2 5.33332 2.18668 5.33332 2.41668V4.5H3.25C3.02 4.5 2.83332 4.68668 2.83332 4.91668V6.58335C2.83332 6.62836 2.84082 6.67253 2.855 6.71503L3.505 8.66671H3.25C3.02 8.66671 2.83332 8.85339 2.83332 9.08339V15.3334H2.41668C2.18668 15.3333 2 15.52 2 15.75V21.5833C2 21.8133 2.18668 22 2.41668 22H20.75C20.98 22 21.1667 21.8133 21.1667 21.5833V15.75C21.1667 15.52 20.98 15.3333 20.75 15.3333ZM13.6667 14.5H17.8333V15.3333H13.6667V14.5ZM3.66668 9.50081H4.08336C4.21754 9.50081 4.34336 9.43581 4.42168 9.32749C4.49918 9.21831 4.52086 9.07831 4.47836 8.95167L3.66668 6.51586V5.33332H7.83335V6.515L7.02167 8.95081C6.97835 9.07831 7 9.21831 7.07835 9.32663C7.15667 9.43581 7.28253 9.49995 7.41667 9.49995H7.83335V15.3333H3.66668V9.50081ZM18.6667 21.1667H17V17.8333H18.6667V21.1667ZM20.3333 21.1667H19.5V17.4167C19.5 17.1867 19.3133 17 19.0833 17H16.5833C16.3533 17 16.1666 17.1867 16.1666 17.4167V21.1667H2.83332V16.1667H20.3333V21.1667Z" fill="#2D2D2D"/>
<path d="M4.08465 19.5H5.75133C5.98133 19.5 6.16801 19.3134 6.16801 19.0834V17.4167C6.16801 17.1867 5.98133 17 5.75133 17H4.08465C3.85465 17 3.66797 17.1867 3.66797 17.4167V19.0834C3.66801 19.3134 3.85465 19.5 4.08465 19.5ZM4.50133 17.8334H5.33465V18.6667H4.50133V17.8334Z" fill="#2D2D2D"/>
</svg>
