<svg width="24" height="24" viewBox="0 0 24 24" fill="none" xmlns="http://www.w3.org/2000/svg">
<path d="M15.8629 16.3634C15.6958 16.3243 15.5265 16.4272 15.4861 16.5953C14.8172 19.4091 12.3283 21.3741 9.43332 21.3741C6.00291 21.3741 3.21181 18.583 3.21181 15.1526C3.21181 12.7426 4.62585 10.5272 6.81397 9.50868C6.97075 9.43593 7.0386 9.24983 6.96557 9.09305C6.89282 8.93658 6.70732 8.86811 6.54994 8.94146C4.14175 10.0621 2.58594 12.5002 2.58594 15.1526C2.58594 18.9283 5.65756 22 9.43332 22C12.6193 22 15.3587 19.8372 16.0949 16.7402C16.1349 16.5721 16.031 16.4034 15.8629 16.3634Z" fill="#2D2D2D"/>
<path d="M21.0984 17.9052H18.865L17.2701 13.7285C17.2236 13.6072 17.1075 13.5271 16.9776 13.5271H11.0409L9.37522 9.72323H12.8587C13.0316 9.72323 13.1716 9.58326 13.1716 9.41029C13.1716 9.23732 13.0316 9.09735 12.8587 9.09735H9.10338C9.10263 9.09735 9.102 9.09776 9.10132 9.09776L7.86904 6.28375C8.76385 6.00822 9.41632 5.17388 9.41632 4.18994C9.41632 2.9825 8.4335 1.99997 7.22575 1.99997C6.018 1.99997 5.03516 2.9825 5.03516 4.18994C5.03516 5.39769 6.018 6.3805 7.22575 6.3805C7.2265 6.3805 7.22728 6.38041 7.22803 6.38041L10.5498 13.9656C10.5996 14.0793 10.7121 14.153 10.8365 14.153H16.7622L18.3571 18.3297C18.4035 18.451 18.5197 18.5311 18.6496 18.5311H21.0984C21.2714 18.5311 21.4113 18.3911 21.4113 18.2181C21.4113 18.0451 21.2714 17.9052 21.0984 17.9052ZM5.66106 4.18994C5.66106 3.3275 6.36303 2.62584 7.22575 2.62584C8.08847 2.62584 8.79044 3.3275 8.79044 4.18994C8.79044 5.05266 8.08847 5.75463 7.22575 5.75463C6.36303 5.75463 5.66106 5.05266 5.66106 4.18994Z" fill="#2D2D2D"/>
</svg>
