<svg width="20" height="22" viewBox="0 0 20 22" fill="none" xmlns="http://www.w3.org/2000/svg">
<path d="M8.17419 5.65076C7.91106 5.38913 7.48565 5.39037 7.22401 5.6535L6.35635 6.52608C6.26294 6.62005 6.13593 6.67285 6.00345 6.67285H4.85937C4.4883 6.67285 4.1875 6.97365 4.1875 7.34472C4.1875 7.71579 4.4883 8.01659 4.85937 8.01659H4.86047H4.86156H4.86266H4.8638H4.8649H4.86604H4.86719H4.86828H4.86943H4.87062H4.87176H4.87291H4.8741H4.8753H4.87644H4.87764H4.87883H4.88008H4.88127H4.88246H4.88371H4.8849H4.88615H4.88739H4.88864H4.88988H4.89117H4.89242H4.89371H4.89496H4.89625H4.89754H4.89884H4.90013H4.90143H4.90277H4.90406H4.90541H4.9067H4.90805H4.90939H4.91073H4.91208H4.91347H4.91481H4.91621H4.91755H4.91895H4.92034H4.92173H4.92313H4.92452H4.92596H4.92736H4.9288H4.93019H4.93164H4.93308H4.93452H4.93597H4.93746H4.9389H4.94039H4.94184H4.94333H4.94482H4.94632H4.94781H4.9493H4.9508H4.95229H4.95383H4.95533H4.95687H4.95841H4.95995H4.9615H4.96304H4.96458H4.96617H4.96772H4.96931H4.97085H4.97245H4.97404H4.97563H4.97722H4.97882H4.98046H4.98205H4.98369H4.98529H4.98693H4.98857H4.99021H4.99186H4.9935H4.99514H4.99678H4.99847H5.00012H5.00181H5.0035H5.00519H5.00689H5.00858H5.01027H5.01196H5.01365H5.0154H5.01714H5.01883H5.02057H5.02231H5.02406H5.0258H5.02754H5.02928H5.03107H5.03281H5.03461H5.03635H5.03814H5.03993H5.04172H5.04351H5.04531H5.0471H5.04889H5.05073H5.05252H5.05436H5.05616H5.058H5.05984H5.06168H5.06352H5.06536H5.06725H5.0691H5.07094H5.07283H5.07467H5.07656H5.07845H5.08034H5.08223H5.08413H5.08602H5.08791H5.0898H5.09174H5.09363H5.09557H5.09751H5.0994H5.10135H5.10329H5.10523H5.10717H5.10916H5.1111H5.11304H5.11503H5.11697H5.11896H5.12095H5.1229H5.12489H5.12688H5.12887H5.13086H5.1329H5.13489H5.13688H5.13892H5.14091H5.14295H5.14499H5.14698H5.14902H5.15106H5.1531H5.15515H5.15724H5.15928H5.16132H5.16341H5.16545H5.16754H5.16958H5.17167H5.17376H5.17585H5.17794H5.18003H5.18212H5.18421H5.1863H5.18844H5.19053H5.19267H5.19476H5.1969H5.19904H5.20118H5.20327H5.20541H5.20755H5.20974H5.21188H5.21402H5.21616H5.21835H5.22049H5.22268H5.22482H5.22701H5.2292H5.23139H5.23353H5.23572H5.23791H5.24015H5.24234H5.24453H5.24672H5.24896H5.25115H5.25339H5.25558H5.25782H5.26006H5.26225H5.26449H5.26673H5.26897H5.27121H5.27344H5.27568H5.27797H5.28021H5.28245H5.28474H5.28698H5.28927H5.29156H5.2938H5.29609H5.29838H5.30067H5.30296H5.30525H5.30754H5.30982H5.31211H5.3144H5.31674H5.31903H5.32132H5.32366H5.326H5.32829H5.33063H5.33297H5.33526H5.3376H5.33993H5.34227H5.34461H5.34695H5.34929H5.35163H5.35402H5.35636H5.3587H5.36109H5.36343H5.36581H5.36815H5.37054H5.37293H5.37527H5.37766H5.38005H5.38244H5.38483H5.38721H5.3896H5.39199H5.39438H5.39682H5.39921H5.4016H5.40404H5.40643H5.40881H5.41125H5.41369H5.41608H5.41852H5.42096H5.42335H5.42578H5.42822H5.43066H5.4331H5.43554H5.43798H5.44042H5.44286H5.44534H5.44778H5.45022H5.45266H5.45515H5.45759H5.46008H5.46251H5.465H5.46744H5.46993H5.47242H5.47486H5.47735H5.47983H5.48232H5.48481H5.4873H5.48979H5.49228H5.49476H5.49725H5.49974H5.50223H5.50477H5.50726H5.50974H5.51228H5.51477H5.51726H5.5198H5.52229H5.52482H5.52731H5.52985H5.53239H5.53488H5.53742H5.53995H5.54249H5.54503H5.54752H5.55006H5.5526H5.55513H5.55767H5.56021H5.56275H5.56534H5.56787H5.57041H5.57295H5.57549H5.57808H5.58061H5.58315H5.58574H5.58828H5.59087H5.5934H5.59599H5.59853H5.60112H5.60366H5.60624H5.60883H5.61137H5.61396H5.61655H5.61909H5.62167H5.62426H5.62685H5.62944H5.63202H5.63461H5.6372H5.63979H5.64238H5.64496H5.64755H5.65014H5.65273H5.65532H5.6579H5.66049H5.66313H5.66572H5.66831H5.67089H5.67353H5.67612H5.67871H5.68135H5.68393H5.68652H5.68916H5.69175H5.69438H5.69697H5.69961H5.7022H5.70484H5.70742H5.71006H5.7127H5.71529H5.71793H5.72056H5.72315H5.72579H5.72843H5.73101H5.73365H5.73629H5.73893H5.74152H5.74415H5.74679H5.74943H5.75207H5.7547H5.75734H5.75993H5.76257H5.7652H5.76784H5.77048H5.77312H5.77576H5.77839H5.78103H5.78367H5.78631H5.78894H5.79158H5.79422H5.79686H5.7995H5.80213H5.80482H5.80746H5.8101H5.81273H5.81537H5.81801H5.82065H5.82328H5.82597H5.82861H5.83125H5.83389H5.83652H5.83921H5.84185H5.84449H5.84712H5.84976H5.85245H5.85509H5.85772H5.86036H5.863H5.86569H5.86832H5.87096H5.8736H5.87629H5.87893H5.88156H5.8842H5.88689H5.88953H5.89216H5.8948H5.89749H5.90013H5.90276H5.90545H5.90809H5.91073H5.91337H5.91605H5.91869H5.92133H5.92397H5.92665H5.92929H5.93193H5.93457H5.9372H5.93989H5.94253H5.94517H5.9478H5.95049H5.95313H5.95577H5.95841H5.96104H5.96373C6.50327 8.01659 7.01966 7.79761 7.39472 7.40972L8.17205 6.60591L8.17688 6.60093C8.43851 6.33781 8.43731 5.91244 8.17419 5.65076ZM8.17419 5.65076L8.52511 5.29785" stroke="#2D2D2D" stroke-width="0.995366" stroke-linecap="round" stroke-linejoin="round"/>
<path d="M15.3338 2.54066C15.3338 3.36527 14.6653 4.03371 13.8407 4.03371C13.0161 4.03371 12.3477 3.36526 12.3477 2.54066C12.3477 1.7161 13.0161 1.04761 13.8407 1.04761C14.6653 1.04761 15.3338 1.71609 15.3338 2.54066Z" stroke="#2D2D2D" stroke-width="0.995366"/>
<path d="M13.6013 6.64795L13.455 6.49855L12.3003 5.32018C12.0195 5.03357 11.6351 4.87207 11.2339 4.87207H9.65625L9.81342 8.01414H10.7037C10.913 8.01384 11.12 7.97144 11.3125 7.88952M13.6013 6.64795L11.3125 7.88952M13.6013 6.64795H13.8105M11.3125 7.88952C11.5051 7.80755 11.6794 7.68756 11.8247 7.53691M11.3125 7.88952L11.8247 7.53691M13.8105 6.64795H14.6761C15.053 6.64795 15.3585 6.95348 15.3585 7.33038C15.3585 7.70697 15.0536 8.01225 14.6772 8.01275C14.1255 8.01344 13.5409 8.01409 13.3141 8.01414C13.3137 8.01409 13.3132 8.01409 13.3128 8.01404C13.2988 8.01265 13.2789 8.01116 13.2553 8.01116H13.2488M13.8105 6.64795L13.2488 8.01116M13.2488 8.01116L13.2423 8.01135M12.1768 7.17191L12.5351 7.53079L12.8541 7.85025L12.8588 7.85503C12.9085 7.9061 12.9681 7.94641 13.0342 7.97338M12.1768 7.17191L13.0342 7.97338M12.1768 7.17191L11.8247 7.53691M13.0342 7.97338C13.1003 8.00026 13.1711 8.0132 13.2423 8.01135M13.0342 7.97338L13.2423 8.01135" stroke="#2D2D2D" stroke-width="0.995366"/>
<path d="M9.01211 21.0106H9.50979V21.5083H9.01211V21.0106ZM9.01211 18.5222V18.0245H9.50979V18.5222H9.01211ZM3.5376 21.0106V21.5083H3.03992V21.0106H3.5376ZM3.5376 18.5222H3.03992V18.0245H3.5376V18.5222ZM3.77236 18.5222L4.17971 18.2363L4.7296 19.0199H3.77236V18.5222ZM4.6435 15.383L5.08733 15.1578L4.24277 15.6781L4.6435 15.383ZM3.60414 13.3345L4.03857 13.0916L4.04344 13.1003L4.04797 13.1093L3.60414 13.3345ZM5.34354 12.9569L5.70352 12.6131L5.71864 12.629L5.73233 12.6461L5.34354 12.9569ZM7.16257 15.2325L7.55131 14.9218L7.55689 14.9287L7.56216 14.9358L7.16257 15.2325ZM7.99161 18.5222V19.0199H7.55091L7.49761 18.5824L7.99161 18.5222ZM8.51443 21.0106V18.5222H9.50979V21.0106H8.51443ZM3.5376 20.5129H9.01211V21.5083H3.5376V20.5129ZM4.03528 18.5222V21.0106H3.03992V18.5222H4.03528ZM3.77236 19.0199H3.5376V18.0245H3.77236V19.0199ZM3.36495 18.8081C3.08839 18.414 2.79333 18.1025 2.46915 17.7614L3.19061 17.0757C3.51077 17.4125 3.85502 17.7736 4.17971 18.2363L3.36495 18.8081ZM2.46915 17.7614C2.0449 17.315 1.58023 16.828 1.15331 16.1025L2.01118 15.5977C2.37441 16.215 2.76663 16.6296 3.19061 17.0757L2.46915 17.7614ZM1.15331 16.1025C1.05754 15.9398 0.959895 15.7826 0.861757 15.6246L1.70721 15.0993C1.80446 15.2558 1.90836 15.423 2.01118 15.5977L1.15331 16.1025ZM0.861757 15.6246C0.527877 15.0873 0.139719 14.4815 0.0662756 13.8322L1.05533 13.7204C1.09832 14.1004 1.33552 14.5011 1.70721 15.0993L0.861757 15.6246ZM0.0662756 13.8322C0.0252765 13.4698 -0.00420619 12.2907 0.000491935 11.1539C0.00286588 10.5789 0.014024 10.0014 0.037863 9.52703C0.0497626 9.29023 0.0650662 9.07404 0.0847446 8.89438C0.102975 8.7279 0.128854 8.55157 0.174273 8.41934L1.11565 8.74268C1.11596 8.74179 1.11408 8.74726 1.11075 8.7613C1.10753 8.77488 1.10373 8.7932 1.09955 8.81689C1.09113 8.86461 1.08255 8.92643 1.07419 9.00272C1.05748 9.15536 1.04338 9.3501 1.03197 9.577C1.00921 10.03 0.998192 10.5907 0.995848 11.1579C0.99111 12.3054 1.022 13.4256 1.05533 13.7204L0.0662756 13.8322ZM0.174273 8.41934C0.356141 7.8899 0.917916 7.54809 1.47789 7.56128C2.11175 7.57621 2.66406 8.01641 2.91586 8.83983L1.96401 9.13092C1.80753 8.61921 1.56481 8.55899 1.45447 8.5564C1.27025 8.55202 1.13868 8.67564 1.11565 8.74268L0.174273 8.41934ZM2.91586 8.83983C3.13686 9.56261 3.20256 10.471 3.259 11.2227L2.26643 11.2973C2.20747 10.512 2.1459 9.72575 1.96401 9.13092L2.91586 8.83983ZM3.259 11.2227C3.28896 11.622 3.31593 11.9783 3.35764 12.276C3.40153 12.5896 3.45334 12.7653 3.49714 12.8423L2.63176 13.3342C2.48606 13.0778 2.41665 12.7339 2.37187 12.414C2.32486 12.0782 2.2957 11.687 2.26643 11.2973L3.259 11.2227ZM3.49714 12.8423C3.66973 13.146 4.04937 13.6992 4.40043 14.1948C4.57298 14.4385 4.73413 14.662 4.85218 14.8247C4.91115 14.9059 4.95933 14.9719 4.99267 15.0175C5.00935 15.0403 5.02234 15.058 5.0311 15.0699C5.03548 15.0759 5.03881 15.0805 5.04105 15.0835C5.04214 15.085 5.04299 15.0861 5.04354 15.0868C5.04379 15.0872 5.04399 15.0875 5.04414 15.0877C5.04414 15.0876 5.04418 15.0877 5.04414 15.0877C5.04414 15.0877 5.04428 15.0879 4.6435 15.383C4.24277 15.6781 4.24282 15.6781 4.24277 15.6781C4.24272 15.678 4.24257 15.6778 4.24247 15.6777C4.24232 15.6775 4.24207 15.6772 4.24177 15.6767C4.24117 15.6759 4.24028 15.6747 4.23908 15.6731C4.23674 15.6699 4.23326 15.6652 4.22873 15.659C4.21962 15.6466 4.20639 15.6285 4.18936 15.6053C4.15532 15.5588 4.10645 15.4918 4.04663 15.4093C3.92704 15.2446 3.76355 15.0178 3.58811 14.7701C3.24312 14.283 2.83324 13.6887 2.63176 13.3342L3.49714 12.8423ZM4.19972 15.6082L3.16031 13.5597L4.04797 13.1093L5.08733 15.1578L4.19972 15.6082ZM3.60414 13.3345C3.16971 13.5773 3.16961 13.5771 3.16946 13.5769C3.16946 13.5768 3.16931 13.5766 3.16921 13.5764C3.16906 13.5761 3.16892 13.5758 3.16872 13.5755C3.16837 13.5749 3.16802 13.5742 3.16767 13.5736C3.16692 13.5722 3.16618 13.5709 3.16538 13.5694C3.16379 13.5664 3.16215 13.5632 3.16031 13.5597C3.15662 13.5525 3.15229 13.544 3.14776 13.5343C3.13861 13.515 3.12791 13.4907 3.11661 13.4616C3.09396 13.4031 3.06888 13.3252 3.04838 13.2283C3.00717 13.0335 2.98589 12.7673 3.03713 12.4364L4.02075 12.5888C3.98865 12.7962 4.00497 12.9409 4.02219 13.0224C4.03095 13.0638 4.04026 13.0903 4.04474 13.1019C4.04698 13.1078 4.04807 13.1098 4.04728 13.1082C4.04683 13.1073 4.04598 13.1055 4.04459 13.1027C4.04384 13.1014 4.043 13.0997 4.042 13.0979C4.0415 13.097 4.04096 13.096 4.04041 13.095C4.04011 13.0944 4.03981 13.0939 4.03951 13.0933C4.03936 13.0931 4.03921 13.0928 4.03906 13.0925C4.03896 13.0923 4.03911 13.0925 4.03906 13.0925C4.03891 13.0922 4.03857 13.0916 3.60414 13.3345ZM3.03713 12.4364C3.09675 12.0513 3.3324 11.6241 3.62211 11.3674C3.7637 11.2418 3.99681 11.0879 4.2893 11.1025C4.62996 11.1197 4.85686 11.3486 4.98043 11.5995L4.08749 12.0393C4.0742 12.0123 4.0746 12.0252 4.10292 12.0473C4.13626 12.0734 4.18518 12.0939 4.23938 12.0967C4.32886 12.1011 4.34474 12.057 4.28233 12.1122C4.23212 12.1567 4.1701 12.2339 4.11606 12.3324C4.06196 12.431 4.0308 12.5239 4.02075 12.5888L3.03713 12.4364ZM4.98043 11.5995C5.1059 11.8542 5.28462 12.1075 5.43979 12.3039C5.51599 12.4004 5.58357 12.4795 5.6316 12.5339C5.65554 12.561 5.67445 12.5818 5.68694 12.5953C5.69316 12.6021 5.69779 12.607 5.70063 12.6101C5.70202 12.6116 5.70302 12.6126 5.70352 12.6131C5.70376 12.6134 5.70386 12.6135 5.70386 12.6135C5.70381 12.6135 5.70352 12.6131 5.34354 12.9569C4.98362 13.3006 4.98357 13.3005 4.98352 13.3005C4.98352 13.3004 4.98357 13.3005 4.98352 13.3005C4.98347 13.3004 4.98327 13.3002 4.98317 13.3001C4.98297 13.2999 4.98277 13.2997 4.98252 13.2994C4.98202 13.2989 4.98143 13.2982 4.98068 13.2974C4.97919 13.2959 4.97725 13.2938 4.97481 13.2912C4.96993 13.286 4.96321 13.2788 4.9548 13.2697C4.93793 13.2514 4.91434 13.2254 4.88537 13.1926C4.82764 13.1272 4.74811 13.0341 4.65873 12.9209C4.48275 12.6982 4.2567 12.3827 4.08749 12.0393L4.98043 11.5995ZM5.73233 12.6461L7.55131 14.9218L6.77383 15.5432L4.9548 13.2676L5.73233 12.6461ZM7.16257 15.2325C7.56216 14.9358 7.56211 14.9357 7.56216 14.9358C7.56221 14.9359 7.56251 14.9362 7.56256 14.9363C7.56276 14.9366 7.56296 14.9368 7.56321 14.9372C7.56365 14.9378 7.5643 14.9387 7.56505 14.9397C7.56659 14.9418 7.56868 14.9446 7.57127 14.9482C7.57644 14.9553 7.58371 14.9653 7.59277 14.978C7.61084 15.0032 7.63617 15.0391 7.66638 15.0833C7.72645 15.1712 7.80732 15.2942 7.88949 15.4333C7.97086 15.5711 8.0582 15.7326 8.12773 15.8966C8.19332 16.0514 8.26141 16.2499 8.26887 16.4503L7.2742 16.4873C7.27351 16.4687 7.26141 16.4032 7.21134 16.2851C7.16511 16.1762 7.10126 16.056 7.03243 15.9395C6.96439 15.8243 6.89611 15.7203 6.84455 15.6448C6.81892 15.6074 6.79777 15.5774 6.78339 15.5573C6.77622 15.5473 6.77075 15.5397 6.76721 15.535C6.76547 15.5325 6.76423 15.5308 6.76348 15.5298C6.76313 15.5294 6.76293 15.5291 6.76283 15.5289C6.76283 15.5289 6.76298 15.5291 7.16257 15.2325ZM8.26887 16.4503C8.27942 16.7347 8.40807 17.8256 8.48566 18.462L7.49761 18.5824C7.42361 17.9754 7.28674 16.8257 7.2742 16.4873L8.26887 16.4503ZM9.01211 19.0199H7.99161V18.0245H9.01211V19.0199Z" fill="#2D2D2D"/>
<path d="M10.986 21.0106H10.4883V21.5083H10.986V21.0106ZM10.986 18.5222V18.0245H10.4883V18.5222H10.986ZM16.4605 21.0106V21.5083H16.9582V21.0106H16.4605ZM16.4605 18.5222H16.9582V18.0245H16.4605V18.5222ZM16.2257 18.5222L15.8184 18.2363L15.2685 19.0199H16.2257V18.5222ZM15.3546 15.383L14.9107 15.1578L15.7553 15.6781L15.3546 15.383ZM16.3939 13.3345L15.9595 13.0916L15.9546 13.1003L15.9501 13.1093L16.3939 13.3345ZM14.6545 12.9569L14.2946 12.6131L14.2794 12.629L14.2657 12.6461L14.6545 12.9569ZM12.8355 15.2325L12.4468 14.9218L12.4412 14.9287L12.4359 14.9358L12.8355 15.2325ZM12.0065 18.5222V19.0199H12.4472L12.5005 18.5824L12.0065 18.5222ZM11.4836 21.0106V18.5222H10.4883V21.0106H11.4836ZM16.4605 20.5129H10.986V21.5083H16.4605V20.5129ZM15.9628 18.5222V21.0106H16.9582V18.5222H15.9628ZM16.2257 19.0199H16.4605V18.0245H16.2257V19.0199ZM16.6331 18.8081C16.9097 18.414 17.2048 18.1025 17.5289 17.7614L16.8075 17.0757C16.4873 17.4125 16.1431 17.7736 15.8184 18.2363L16.6331 18.8081ZM17.5289 17.7614C17.9532 17.315 18.4179 16.828 18.8448 16.1025L17.9869 15.5977C17.6237 16.215 17.2314 16.6296 16.8075 17.0757L17.5289 17.7614ZM18.8448 16.1025C18.9405 15.9398 19.0382 15.7826 19.1363 15.6246L18.2909 15.0993C18.1936 15.2558 18.0897 15.423 17.9869 15.5977L18.8448 16.1025ZM19.1363 15.6246C19.4702 15.0873 19.8584 14.4815 19.9318 13.8322L18.9427 13.7204C18.8998 14.1004 18.6626 14.5011 18.2909 15.0993L19.1363 15.6246ZM19.9318 13.8322C19.9728 13.4698 20.0023 12.2907 19.9976 11.1539C19.9952 10.5789 19.9841 10.0014 19.9602 9.52703C19.9483 9.29023 19.933 9.07404 19.9134 8.89438C19.8951 8.7279 19.8692 8.55157 19.8238 8.41934L18.8825 8.74268C18.8821 8.74179 18.884 8.74726 18.8873 8.7613C18.8906 8.77488 18.8943 8.7932 18.8985 8.81689C18.9069 8.86461 18.9155 8.92643 18.9239 9.00272C18.9406 9.15536 18.9547 9.3501 18.9661 9.577C18.9889 10.03 18.9999 10.5907 19.0022 11.1579C19.007 12.3054 18.9761 13.4256 18.9427 13.7204L19.9318 13.8322ZM19.8238 8.41934C19.6419 7.8899 19.0802 7.54809 18.5202 7.56128C17.8863 7.57621 17.334 8.01641 17.0822 8.83983L18.034 9.13092C18.1905 8.61921 18.4333 8.55899 18.5436 8.5564C18.7278 8.55202 18.8594 8.67564 18.8825 8.74268L19.8238 8.41934ZM17.0822 8.83983C16.8612 9.56261 16.7955 10.471 16.7391 11.2227L17.7317 11.2973C17.7906 10.512 17.8522 9.72575 18.034 9.13092L17.0822 8.83983ZM16.7391 11.2227C16.7091 11.622 16.6821 11.9783 16.6404 12.276C16.5965 12.5896 16.5447 12.7653 16.5009 12.8423L17.3663 13.3342C17.512 13.0778 17.5814 12.7339 17.6262 12.414C17.6732 12.0782 17.7024 11.687 17.7317 11.2973L16.7391 11.2227ZM16.5009 12.8423C16.3283 13.146 15.9487 13.6992 15.5976 14.1948C15.4251 14.4385 15.2639 14.662 15.1459 14.8247C15.0869 14.9059 15.0387 14.9719 15.0054 15.0175C14.9887 15.0403 14.9757 15.058 14.967 15.0699C14.9626 15.0759 14.9593 15.0805 14.957 15.0835C14.9559 15.085 14.9551 15.0861 14.9545 15.0868C14.9543 15.0872 14.9541 15.0875 14.9539 15.0877C14.9539 15.0877 14.9539 15.0876 14.9539 15.0877C14.9539 15.0877 14.9538 15.0879 15.3546 15.383C15.7553 15.6781 15.7553 15.6781 15.7553 15.6781C15.7554 15.678 15.7555 15.6778 15.7556 15.6777C15.7558 15.6775 15.756 15.6772 15.7563 15.6767C15.7569 15.6759 15.7578 15.6747 15.759 15.6731C15.7613 15.6699 15.7648 15.6652 15.7693 15.659C15.7785 15.6466 15.7917 15.6285 15.8087 15.6053C15.8428 15.5588 15.8916 15.4918 15.9514 15.4093C16.071 15.2446 16.2345 15.0178 16.41 14.7701C16.755 14.283 17.1648 13.6887 17.3663 13.3342L16.5009 12.8423ZM15.7984 15.6082L16.8378 13.5597L15.9501 13.1093L14.9107 15.1578L15.7984 15.6082ZM16.3939 13.3345C16.8284 13.5773 16.8285 13.5771 16.8286 13.5769C16.8286 13.5768 16.8288 13.5766 16.8289 13.5764C16.829 13.5761 16.8292 13.5758 16.8294 13.5755C16.8297 13.5749 16.8301 13.5742 16.8304 13.5736C16.8312 13.5722 16.8319 13.5709 16.8327 13.5694C16.8343 13.5664 16.8359 13.5632 16.8378 13.5597C16.8415 13.5525 16.8458 13.544 16.8503 13.5343C16.8595 13.515 16.8702 13.4907 16.8815 13.4616C16.9041 13.4031 16.9292 13.3252 16.9497 13.2283C16.9909 13.0335 17.0122 12.7673 16.9609 12.4364L15.9773 12.5888C16.0094 12.7962 15.9931 12.9409 15.9759 13.0224C15.9671 13.0638 15.9578 13.0903 15.9533 13.1019C15.9511 13.1078 15.95 13.1098 15.9508 13.1082C15.9512 13.1073 15.9521 13.1055 15.9535 13.1027C15.9542 13.1014 15.9551 13.0997 15.9561 13.0979C15.9566 13.097 15.9571 13.096 15.9577 13.095C15.958 13.0944 15.9583 13.0939 15.9586 13.0933C15.9587 13.0931 15.9589 13.0928 15.959 13.0925C15.959 13.0925 15.9591 13.0923 15.959 13.0925C15.9592 13.0922 15.9595 13.0916 16.3939 13.3345ZM16.9609 12.4364C16.9013 12.0513 16.6657 11.6241 16.376 11.3674C16.2344 11.2418 16.0013 11.0879 15.7088 11.1025C15.3681 11.1197 15.1412 11.3486 15.0176 11.5995L15.9106 12.0393C15.9239 12.0123 15.9235 12.0252 15.8952 12.0473C15.8618 12.0734 15.8129 12.0939 15.7587 12.0967C15.6692 12.1011 15.6533 12.057 15.7157 12.1122C15.766 12.1567 15.828 12.2339 15.882 12.3324C15.9361 12.431 15.9673 12.5239 15.9773 12.5888L16.9609 12.4364ZM15.0176 11.5995C14.8922 11.8542 14.7135 12.1075 14.5583 12.3039C14.4821 12.4004 14.4145 12.4795 14.3665 12.5339C14.3425 12.561 14.3236 12.5818 14.3111 12.5953C14.3049 12.6021 14.3003 12.607 14.2974 12.6101C14.2961 12.6116 14.2951 12.6126 14.2946 12.6131C14.2946 12.6131 14.2946 12.6131 14.6545 12.9569C15.0145 13.3006 15.0145 13.3005 15.0146 13.3005C15.0145 13.3005 15.0146 13.3004 15.0146 13.3005C15.0146 13.3004 15.0148 13.3002 15.0149 13.3001C15.0151 13.2999 15.0153 13.2997 15.0156 13.2994C15.0161 13.2989 15.0166 13.2982 15.0174 13.2974C15.0189 13.2959 15.0208 13.2938 15.0233 13.2912C15.0281 13.286 15.0349 13.2788 15.0433 13.2697C15.0601 13.2514 15.0837 13.2254 15.1127 13.1926C15.1704 13.1272 15.25 13.0341 15.3393 12.9209C15.5153 12.6982 15.7414 12.3827 15.9106 12.0393L15.0176 11.5995ZM14.2657 12.6461L12.4468 14.9218L13.2242 15.5432L15.0433 13.2676L14.2657 12.6461ZM12.8355 15.2325C12.4359 14.9358 12.436 14.9357 12.4359 14.9358C12.4359 14.9359 12.4356 14.9362 12.4355 14.9363C12.4353 14.9366 12.4351 14.9368 12.4349 14.9372C12.4344 14.9378 12.4338 14.9387 12.433 14.9397C12.4315 14.9418 12.4294 14.9446 12.4268 14.9482C12.4216 14.9553 12.4144 14.9653 12.4053 14.978C12.3872 15.0032 12.3619 15.0391 12.3317 15.0833C12.2716 15.1712 12.1908 15.2942 12.1086 15.4333C12.0272 15.5711 11.9399 15.7326 11.8703 15.8966C11.8048 16.0514 11.7367 16.2499 11.7292 16.4503L12.7239 16.4873C12.7246 16.4687 12.7367 16.4032 12.7867 16.2851C12.833 16.1762 12.8968 16.056 12.9656 15.9395C13.0337 15.8243 13.102 15.7203 13.1535 15.6448C13.1792 15.6074 13.2003 15.5774 13.2147 15.5573C13.2219 15.5473 13.2273 15.5397 13.2309 15.535C13.2326 15.5325 13.2338 15.5308 13.2346 15.5298C13.2349 15.5294 13.2351 15.5291 13.2352 15.5289C13.2352 15.5289 13.2351 15.5291 12.8355 15.2325ZM11.7292 16.4503C11.7187 16.7347 11.59 17.8256 11.5124 18.462L12.5005 18.5824C12.5745 17.9754 12.7113 16.8257 12.7239 16.4873L11.7292 16.4503ZM10.986 19.0199H12.0065V18.0245H10.986V19.0199Z" fill="#2D2D2D"/>
</svg>
