<svg width="24" height="24" viewBox="0 0 24 24" fill="none" xmlns="http://www.w3.org/2000/svg">
<path d="M18.5157 8.24963H19.7658C20.1109 8.24963 20.3909 8.52966 20.3909 8.8747V15.1254C20.3909 15.4704 20.1109 15.7504 19.7658 15.7504H18.5157C18.1707 15.7504 17.8906 15.4704 17.8906 15.1254V8.8747C17.8906 8.52966 18.1707 8.24963 18.5157 8.24963Z" stroke="#2D2D2D" stroke-width="0.75"/>
<path d="M16.0157 5.74939H17.2658C17.6109 5.74939 17.8909 6.02942 17.8909 6.37446V17.6257C17.8909 17.9707 17.6109 18.2507 17.2658 18.2507H16.0157C15.6707 18.2507 15.3906 17.9707 15.3906 17.6257V6.37446C15.3906 6.02942 15.6707 5.74939 16.0157 5.74939Z" stroke="#2D2D2D" stroke-width="0.75"/>
<path d="M7.26569 5.74939H8.51583C8.86086 5.74939 9.14089 6.02942 9.14089 6.37446V17.6257C9.14089 17.9707 8.86086 18.2507 8.51583 18.2507H7.26569C6.92065 18.2507 6.64062 17.9707 6.64062 17.6257V6.37446C6.64062 6.02942 6.92065 5.74939 7.26569 5.74939Z" stroke="#2D2D2D" stroke-width="0.75"/>
<path d="M4.76569 8.24963H6.01583C6.36086 8.24963 6.64089 8.52966 6.64089 8.8747V15.1254C6.64089 15.4704 6.36086 15.7504 6.01583 15.7504H4.76569C4.42065 15.7504 4.14062 15.4704 4.14062 15.1254V8.8747C4.14062 8.52966 4.42065 8.24963 4.76569 8.24963Z" stroke="#2D2D2D" stroke-width="0.75"/>
<path d="M20.3906 12H22.2658" stroke="#2D2D2D" stroke-width="0.75"/>
<path d="M9.14453 12H15.3952" stroke="#2D2D2D" stroke-width="0.75"/>
<path d="M2.26562 12H4.14083" stroke="#2D2D2D" stroke-width="0.75"/>
</svg>
