<svg width="24" height="24" viewBox="0 0 24 24" fill="none" xmlns="http://www.w3.org/2000/svg">
<path d="M15.9909 19.0539H8.00911C5.79803 19.0539 3.519 17.2421 2.92874 15.0151L2.19334 12.1402C2.06778 11.7388 2 11.3119 2 10.8695C2 8.51897 3.91225 6.60664 6.26273 6.60664H8.62045C8.86237 6.60664 9.05855 6.80282 9.05855 7.04475C9.05855 7.28667 8.86237 7.48285 8.62045 7.48285H6.26273C4.39539 7.4829 2.87621 9.00207 2.87621 10.8695C2.87621 11.2079 2.92616 11.535 3.01895 11.8435C3.02486 11.8591 3.02994 11.8751 3.03419 11.8915L3.03577 11.8978C3.47208 13.2641 4.75376 14.2562 6.26273 14.2562H17.7372C19.2461 14.2562 20.5277 13.2641 20.9641 11.8981L20.9658 11.8916C20.9701 11.875 20.9752 11.859 20.9811 11.8434C21.0739 11.5349 21.1238 11.2079 21.1238 10.8696C21.1238 9.00216 19.6046 7.4829 17.7372 7.4829H14.4566C14.2147 7.4829 14.0185 7.28671 14.0185 7.04479C14.0185 6.80287 14.2147 6.60668 14.4566 6.60668H17.7372C20.0877 6.60668 22 8.51897 22 10.8695C22 11.3118 21.9324 11.7384 21.8068 12.1399L21.0722 15.0115C20.481 17.2421 18.2019 19.0539 15.9909 19.0539ZM3.62971 14.2198L3.77665 14.7943C4.26229 16.6266 6.20096 18.1776 8.00907 18.1776H15.9908C17.799 18.1776 19.7376 16.6266 20.2243 14.7906L20.3703 14.2197C19.6449 14.7911 18.7301 15.1324 17.7372 15.1324H6.26273C5.26985 15.1324 4.35513 14.7912 3.62971 14.2198ZM11.5293 13.2624C11.096 13.2624 10.6596 13.0872 10.3427 12.7818C10.167 12.6124 9.91816 12.5176 9.69258 12.5335C9.53061 12.5452 9.40242 12.6103 9.3116 12.727C9.31134 12.7273 9.31112 12.7276 9.3109 12.7279C9.06863 13.0401 8.70741 13.2284 8.29379 13.2582C7.82441 13.2922 7.33789 13.114 6.99314 12.7818C6.81742 12.6124 6.56849 12.5176 6.34308 12.5335C6.18072 12.5452 6.05227 12.6106 5.9614 12.7278C5.8131 12.9191 5.53793 12.9538 5.34674 12.8055C5.15555 12.6572 5.12072 12.382 5.26902 12.1908C5.51182 11.8778 5.87089 11.6891 6.28008 11.6596C6.75394 11.6254 7.24681 11.8092 7.60124 12.151C7.76719 12.3109 8.00828 12.4006 8.23075 12.3843C8.34558 12.3761 8.5061 12.3358 8.61865 12.1907C8.619 12.1902 8.61935 12.1898 8.6197 12.1894C8.86246 11.8772 9.221 11.6891 9.62945 11.6596C10.1019 11.6254 10.5961 11.8091 10.9507 12.1509C11.1168 12.3109 11.3583 12.4004 11.5803 12.3843C11.6951 12.3761 11.8555 12.3358 11.968 12.1908C11.9683 12.1903 11.9687 12.1899 11.969 12.1894C12.2118 11.8771 12.5705 11.689 12.979 11.6596C13.4514 11.6254 13.9457 11.8092 14.3003 12.1509C14.4745 12.3188 14.4796 12.5962 14.3116 12.7704C14.1437 12.9446 13.8663 12.9497 13.6921 12.7818C13.5165 12.6124 13.2677 12.5175 13.042 12.5336C12.88 12.5453 12.7517 12.6104 12.6608 12.7272C12.6607 12.7274 12.6604 12.7276 12.6603 12.7279C12.4181 13.0401 12.057 13.2284 11.6434 13.2583C11.6055 13.261 11.5674 13.2624 11.5293 13.2624ZM11.5366 11.3739C11.1033 11.3739 10.6668 11.1987 10.35 10.8933C10.1742 10.7239 9.92508 10.629 9.6999 10.6451C9.53753 10.6568 9.40908 10.7221 9.31822 10.8393C9.16992 11.0306 8.89474 11.0653 8.70356 10.917C8.51237 10.7687 8.47754 10.4936 8.62584 10.3024C8.86863 9.9893 9.22771 9.80061 9.6369 9.77113C10.1104 9.73722 10.6036 9.9207 10.9581 10.2625C11.124 10.4224 11.3648 10.5116 11.5876 10.4959C11.7024 10.4876 11.8627 10.4473 11.9753 10.3025L11.9754 10.3024C12.2181 9.9893 12.5772 9.80066 12.9863 9.77113C13.4591 9.73709 13.9529 9.92065 14.3076 10.2624C14.4736 10.4224 14.7154 10.5122 14.9372 10.4958C15.0519 10.4876 15.2123 10.4473 15.3248 10.3023C15.3251 10.3018 15.3255 10.3014 15.3258 10.3009C15.5686 9.98869 15.9273 9.80057 16.3359 9.77113C16.8083 9.73717 17.3025 9.92065 17.6571 10.2625C17.8313 10.4304 17.8364 10.7077 17.6684 10.8819C17.5005 11.0561 17.2231 11.0613 17.049 10.8933C16.8733 10.724 16.6248 10.6289 16.3989 10.6451C16.2368 10.6568 16.1085 10.7219 16.0177 10.8387C16.0175 10.8389 16.0173 10.8392 16.0171 10.8394C15.7749 11.1516 15.4138 11.34 15.0002 11.3698C14.5304 11.4036 14.0442 11.2256 13.6995 10.8934C13.5237 10.724 13.2744 10.629 13.0494 10.6451C12.8874 10.6568 12.7592 10.7219 12.6684 10.8386C12.6681 10.8389 12.6679 10.8392 12.6677 10.8395C12.4254 11.1517 12.0642 11.3401 11.6506 11.3699C11.6127 11.3725 11.5746 11.3739 11.5366 11.3739ZM12.2021 9.14319C12.0903 9.14319 11.9786 9.10074 11.8931 9.01574C11.7215 8.8451 11.7208 8.56769 11.8914 8.39613C12.1696 8.1164 12.1521 7.42691 11.8568 7.02989C11.8565 7.0295 11.8562 7.02906 11.8559 7.02871C11.5035 6.55411 11.356 5.87286 11.4802 5.29267C11.5309 5.05614 11.7636 4.90525 12.0004 4.95599C12.2369 5.00663 12.3877 5.23953 12.337 5.47611C12.2644 5.81546 12.3537 6.22925 12.5593 6.50623C12.5595 6.50644 12.5596 6.50671 12.5598 6.50693C13.0549 7.17245 13.1573 8.36581 12.5127 9.01404C12.4271 9.10012 12.3146 9.14319 12.2021 9.14319ZM10.4152 9.14306C10.3035 9.14306 10.1918 9.10056 10.1063 9.01557C9.93472 8.84493 9.93398 8.56752 10.1046 8.396C10.3826 8.11649 10.3652 7.42774 10.0704 7.03064C10.0702 7.03038 10.07 7.03007 10.0697 7.02981C9.71681 6.55507 9.56908 5.87321 9.69337 5.29267C9.74401 5.05614 9.97669 4.90525 10.2135 4.95599C10.4501 5.00663 10.6008 5.23953 10.5502 5.47611C10.4775 5.81538 10.5668 6.22917 10.7723 6.50618C10.7725 6.5064 10.7726 6.50666 10.7728 6.50688C11.2681 7.17241 11.3706 8.36577 10.7259 9.0139C10.6402 9.09999 10.5277 9.14306 10.4152 9.14306Z" fill="#2D2D2D"/>
</svg>
