<svg width="24" height="24" viewBox="0 0 24 24" fill="none" xmlns="http://www.w3.org/2000/svg">
<path d="M20.9123 6.56621H20.7623C20.774 6.16773 20.5846 5.79406 20.2242 5.55812C19.6508 5.18284 19.4649 4.82655 19.4193 4.71975V4.30831C19.641 4.27983 19.8554 4.18166 20.0254 4.01174C20.1579 3.8792 20.1579 3.66428 20.0254 3.53178C19.8928 3.39924 19.6779 3.39924 19.5454 3.53178C19.4018 3.67541 19.1681 3.67541 19.0244 3.53178C18.9547 3.46213 18.9164 3.36963 18.9164 3.27123C18.9164 3.17283 18.9547 3.08033 19.0244 3.01076C19.1569 2.87822 19.1569 2.6633 19.0244 2.53072C18.8918 2.39822 18.6769 2.39818 18.5443 2.53072C18.3465 2.72857 18.2375 2.99154 18.2375 3.27127C18.2375 3.55096 18.3465 3.81397 18.5443 4.01178C18.6045 4.07198 18.6708 4.12217 18.7404 4.16459V4.71979C18.6949 4.82663 18.5088 5.18288 17.9348 5.55831C17.575 5.79417 17.3857 6.16781 17.3973 6.56625H17.2475C17.06 6.56625 16.9081 6.7182 16.9081 6.90566C16.9081 7.09313 17.06 7.24508 17.2475 7.24508H17.5851V14.3723H16.3601V13.3349C16.6185 12.7017 16.68 12.0188 16.5314 11.4016C16.3573 10.6783 15.9083 10.0623 15.2331 9.62033C13.5484 8.51774 12.8103 7.43688 12.5119 6.86316C13.7284 6.83457 14.7399 5.91539 14.8768 4.70182C14.8936 4.55315 14.811 4.41112 14.6736 4.35202C14.5362 4.29288 14.3763 4.33069 14.2799 4.4451C14.0296 4.74225 13.664 4.91272 13.2769 4.91272C12.5544 4.91272 11.9667 4.32483 11.9667 3.60213C11.9667 3.21475 12.1371 2.84916 12.4342 2.5992C12.5486 2.50287 12.5865 2.34287 12.5274 2.20544C12.4683 2.06794 12.326 1.98564 12.1775 2.00224C10.9443 2.14181 10.0144 3.18373 10.0144 4.42581C10.0144 5.45945 10.6612 6.34437 11.5711 6.69875C11.4132 7.04555 11.0393 7.70524 10.2357 8.47075C10.1 8.60005 10.0948 8.81493 10.2241 8.95064C10.3534 9.08642 10.5682 9.09157 10.7039 8.96228C11.36 8.33716 11.7611 7.76946 12.0007 7.34821C12.3901 8.03329 13.2078 9.10622 14.8614 10.1884C15.9985 10.9328 16.0918 12.063 15.7828 12.9443H8.21909C8.05729 12.4818 8.02526 11.9977 8.13054 11.5607C8.26351 11.0085 8.61281 10.534 9.14078 10.1884C9.41539 10.0086 9.67937 9.82076 9.92543 9.62986C10.0735 9.51494 10.1005 9.30177 9.98559 9.15365C9.87063 9.00556 9.65746 8.97864 9.50937 9.09349C9.27761 9.27329 9.02855 9.45056 8.76906 9.62041C8.09382 10.0624 7.64479 10.6784 7.47065 11.4017C7.3221 12.0186 7.38339 12.7012 7.64167 13.334V14.3725H6.41662V7.24512H6.75467C6.94213 7.24512 7.09409 7.09317 7.09409 6.9057C7.09409 6.71824 6.94213 6.56629 6.75467 6.56629H6.60475C6.61651 6.16781 6.42709 5.79413 6.06666 5.55823C5.49322 5.18296 5.30728 4.82667 5.26169 4.71983V4.2901C5.44669 4.2476 5.62259 4.15557 5.76642 4.01174C5.89896 3.8792 5.89896 3.66428 5.76642 3.5317C5.63384 3.39916 5.41896 3.3992 5.28638 3.5317C5.14275 3.67533 4.90896 3.67537 4.76536 3.5317C4.62173 3.38807 4.62169 3.15432 4.76536 3.01064C4.8979 2.8781 4.8979 2.66318 4.76536 2.53068C4.63282 2.39814 4.4179 2.39814 4.2854 2.53068C3.87712 2.93896 3.87712 3.60342 4.2854 4.01174C4.37411 4.10045 4.47528 4.1687 4.58286 4.21881V4.71975C4.53728 4.82659 4.3513 5.18284 3.77739 5.5582C3.41703 5.79417 3.22762 6.16773 3.23934 6.56625H3.08942C2.90195 6.56625 2.75 6.7182 2.75 6.90566C2.75 7.09313 2.90195 7.24508 3.08942 7.24508H3.42746V21.6607C3.42746 21.8482 3.57942 22.0001 3.76688 22.0001H20.2353C20.4227 22.0001 20.5747 21.8482 20.5747 21.6607V8.75388C20.5747 8.56642 20.4227 8.41446 20.2353 8.41446C20.0478 8.41446 19.8958 8.56642 19.8958 8.75388V21.3213H18.264V7.245H19.8958V7.62243C19.8958 7.80989 20.0478 7.96184 20.2353 7.96184C20.4227 7.96184 20.5747 7.80989 20.5747 7.62243V7.245H20.9123C21.0998 7.245 21.2517 7.09305 21.2517 6.90559C21.2517 6.71816 21.0997 6.56621 20.9123 6.56621ZM10.6932 4.42565C10.6932 3.86526 10.9553 3.36131 11.3693 3.03767C11.3158 3.21877 11.2879 3.40861 11.2879 3.60201C11.2879 4.69901 12.1801 5.59144 13.2768 5.59144C13.4703 5.59144 13.6602 5.56343 13.8415 5.5098C13.518 5.92355 13.0141 6.18562 12.4537 6.18562C11.4829 6.18562 10.6932 5.39609 10.6932 4.42565ZM5.73771 21.3213H4.10626V7.24504H5.73771V21.3213ZM5.92482 6.56621H3.91903C3.90923 6.42949 3.94821 6.25765 4.14903 6.12621C4.51071 5.8896 4.75634 5.65171 4.92212 5.44683C5.08779 5.65163 5.33326 5.88956 5.6947 6.12613C5.8956 6.25761 5.93467 6.42949 5.92482 6.56621ZM7.64159 21.3213H6.41654V15.0511H7.64159V21.3213ZM15.6812 21.3213H14.1964V20.0224C14.1964 19.8349 14.0444 19.683 13.857 19.683C13.6695 19.683 13.5176 19.8349 13.5176 20.0224V21.3213H10.5791V18.2873C10.5791 17.5262 11.1983 16.907 11.9594 16.907H12.1373C12.8984 16.907 13.5176 17.5262 13.5176 18.2873V18.891C13.5176 19.0785 13.6695 19.2304 13.857 19.2304C14.0444 19.2304 14.1964 19.0785 14.1964 18.891V18.2873C14.1964 17.1519 13.2727 16.2282 12.1373 16.2282H11.9594C10.824 16.2282 9.90031 17.1519 9.90031 18.2873V21.3213H8.32046V13.6228H15.6812L15.6812 21.3213ZM17.5851 21.3213H16.36V15.0511H17.5851V21.3213ZM20.0825 6.56621H18.0769C18.0672 6.42941 18.1062 6.25757 18.3066 6.12621C18.6683 5.8896 18.914 5.65171 19.0797 5.44683C19.2454 5.65163 19.4909 5.88956 19.8524 6.12605C20.0533 6.25761 20.0924 6.42949 20.0825 6.56621Z" fill="#2D2D2D"/>
<path d="M19.0777 9.42224C18.8902 9.42224 18.7383 9.5742 18.7383 9.76166V10.8564C18.7383 11.0439 18.8902 11.1958 19.0777 11.1958C19.2652 11.1958 19.4171 11.0439 19.4171 10.8564V9.76166C19.4171 9.5742 19.2652 9.42224 19.0777 9.42224Z" fill="#2D2D2D"/>
<path d="M19.0777 13.5155C18.8902 13.5155 18.7383 13.6675 18.7383 13.8549V14.9497C18.7383 15.1371 18.8902 15.2891 19.0777 15.2891C19.2652 15.2891 19.4171 15.1371 19.4171 14.9497V13.8549C19.4171 13.6675 19.2652 13.5155 19.0777 13.5155Z" fill="#2D2D2D"/>
<path d="M4.92145 9.42224C4.73399 9.42224 4.58203 9.5742 4.58203 9.76166V10.8564C4.58203 11.0439 4.73399 11.1958 4.92145 11.1958C5.10891 11.1958 5.26086 11.0439 5.26086 10.8564V9.76166C5.26086 9.5742 5.10891 9.42224 4.92145 9.42224Z" fill="#2D2D2D"/>
<path d="M4.92145 13.5155C4.73399 13.5155 4.58203 13.6675 4.58203 13.8549V14.9497C4.58203 15.1371 4.73399 15.2891 4.92145 15.2891C5.10891 15.2891 5.26086 15.1371 5.26086 14.9497V13.8549C5.26086 13.6675 5.10891 13.5155 4.92145 13.5155Z" fill="#2D2D2D"/>
</svg>
