<svg width="24" height="24" viewBox="0 0 24 24" fill="none" xmlns="http://www.w3.org/2000/svg">
<path d="M12.0298 5.3905C7.82187 5.3905 4.39844 8.81393 4.39844 13.0218C4.39844 17.2298 7.82187 20.6532 12.0298 20.6532C16.2377 20.6532 19.6611 17.2298 19.6611 13.0218C19.6611 8.81389 16.2377 5.3905 12.0298 5.3905ZM12.0298 20.0591C8.14947 20.0591 4.99259 16.9022 4.99259 13.0218C4.99259 9.1415 8.14947 5.98465 12.0298 5.98465C15.9101 5.98465 19.067 9.1415 19.067 13.0218C19.067 16.9022 15.9101 20.0591 12.0298 20.0591Z" fill="#2D2D2D"/>
<path d="M12.0283 8.09128C9.30955 8.09128 7.09766 10.3031 7.09766 13.0219C7.09766 13.4606 7.1554 13.8959 7.26923 14.3157L7.84264 14.1601C7.74247 13.7911 7.69173 13.4081 7.69173 13.0218C7.69173 10.6307 9.63707 8.68539 12.0282 8.68539C12.7245 8.68539 13.3894 8.84528 14.0043 9.1607L14.2754 8.63198C13.5759 8.27321 12.8198 8.09128 12.0283 8.09128Z" fill="#2D2D2D"/>
<path d="M8.12469 14.9079L7.58984 15.1666C7.90155 15.8109 8.36045 16.3913 8.9169 16.8449L9.29236 16.3845C8.80267 15.9852 8.39889 15.4746 8.12469 14.9079Z" fill="#2D2D2D"/>
<path d="M15.0368 9.11411L14.6742 9.58469C15.7496 10.4133 16.3663 11.6661 16.3663 13.0218C16.3663 15.413 14.421 17.3583 12.0299 17.3583C11.1786 17.3583 10.3547 17.1118 9.64721 16.6457L9.32031 17.1418C10.1251 17.6721 11.062 17.9524 12.0299 17.9524C14.7486 17.9524 16.9605 15.7406 16.9605 13.0218C16.9604 11.4805 16.2593 10.0561 15.0368 9.11411Z" fill="#2D2D2D"/>
<path d="M4.49804 3.87668V7.31698H3.84315V3.87668H3.249V7.31698H2.59415V3.87668H2V7.31698V7.82917V7.91113H2.00223C2.03973 8.62537 2.56422 9.21248 3.24904 9.34632V20.3562H3.84319V9.34632C4.52797 9.21244 5.05246 8.62537 5.09 7.91109H5.09223V7.82913V7.31694V3.87668H4.49804ZM3.5461 8.78108C3.04879 8.78108 2.63935 8.39773 2.59766 7.91109H4.49457C4.45281 8.39773 4.04336 8.78108 3.5461 8.78108Z" fill="#2D2D2D"/>
<path d="M21.5023 3.64944C20.6239 4.18585 20.0781 5.15847 20.0781 6.18772V12.6887H21.4032V20.356H21.9973V12.6887V9.0781V3.3468L21.5023 3.64944ZM21.4032 9.07807V12.0945H20.6723V6.18769C20.6723 5.53826 20.9437 4.91708 21.4032 4.47287V9.07807Z" fill="#2D2D2D"/>
</svg>
