<svg width="24" height="24" viewBox="0 0 24 24" fill="none" xmlns="http://www.w3.org/2000/svg">
<g clip-path="url(#clip0_4906_475747)">
<path d="M9.99955 5.02477C8.88425 5.38001 8.13494 6.40547 8.13494 7.57653C8.13494 8.74765 8.88432 9.77318 9.99955 10.1284C10.0538 10.1456 10.1101 10.1543 10.1663 10.1543C10.2226 10.1543 10.2789 10.1456 10.3331 10.1284C11.4483 9.77318 12.1975 8.74765 12.1975 7.57653C12.1975 6.40541 11.4482 5.37995 10.3331 5.02477C10.2247 4.99014 10.1081 4.99014 9.99955 5.02477ZM11.0984 7.57653C11.0984 8.20682 10.7305 8.7656 10.1664 9.01745C9.60224 8.7656 9.23418 8.20688 9.23418 7.57653C9.23418 6.9463 9.60218 6.38752 10.1664 6.13567C10.7304 6.38752 11.0984 6.94624 11.0984 7.57653ZM8.19992 14.9971C7.31668 15.7471 6.20254 16.1463 5.06916 16.1463C4.66513 16.1463 4.25872 16.0956 3.85933 15.992C2.61114 15.6681 1.56375 14.8775 0.910128 13.7659C0.25663 12.6542 0.0750727 11.3546 0.398982 10.1064C0.773273 8.66398 1.80063 7.47949 3.14867 6.89128C2.72638 5.91204 2.64143 4.82794 2.91404 3.77738C3.23795 2.52913 4.02855 1.48174 5.14025 0.828239C6.25188 0.17468 7.55143 -0.00681647 8.7998 0.317093C9.46136 0.488818 10.0771 0.798132 10.6059 1.22183C11.0576 0.842407 11.5786 0.545429 12.1364 0.351841C12.4231 0.252238 12.7363 0.404055 12.8358 0.690834C12.9354 0.977552 12.7836 1.29071 12.4968 1.39026C11.9353 1.58519 11.422 1.91563 11.0124 2.34574C10.9102 2.4531 10.769 2.51459 10.6207 2.51624C10.6186 2.5163 10.6165 2.5163 10.6144 2.5163C10.4684 2.5163 10.3283 2.45823 10.2251 2.35472C9.75711 1.88528 9.16877 1.54861 8.52364 1.38122C7.55955 1.1309 6.55582 1.27111 5.69732 1.77591C4.83881 2.28046 4.22824 3.08937 3.97804 4.05347C3.72424 5.03173 3.87185 6.04761 4.39368 6.91399C4.48223 7.06099 4.49701 7.2409 4.43368 7.40035C4.37035 7.55986 4.23624 7.68065 4.07099 7.72688C2.79471 8.08407 1.79538 9.10166 1.46298 10.3825C1.21279 11.3465 1.353 12.3502 1.85779 13.2087C2.36259 14.0672 3.17145 14.6779 4.13548 14.9279C5.30935 15.2326 6.56272 14.9452 7.48847 14.1591C7.71992 13.9626 8.06666 13.991 8.26318 14.2223C8.4597 14.4537 8.43131 14.8006 8.19992 14.9971ZM13.2557 22.9006H12.8662V19.6652C12.8662 19.3617 12.6202 19.1156 12.3166 19.1156H8.5689C8.26532 19.1156 8.01928 19.3617 8.01928 19.6652V22.9006H7.62941C7.32584 22.9006 7.07979 23.1466 7.07979 23.4502C7.07979 23.7538 7.32584 23.9998 7.62941 23.9998H8.55485C8.56419 24.0001 8.57372 24.0001 8.583 23.9998H12.3026C12.3073 24 12.3119 24 12.3166 24C12.3213 24 12.326 24 12.3307 23.9998H13.2557C13.5593 23.9998 13.8054 23.7538 13.8054 23.4502C13.8054 23.1466 13.5593 22.9006 13.2557 22.9006ZM11.767 22.9006H9.11852V20.2149H11.767V22.9006ZM17.2979 23.4502C17.2979 23.7538 17.0518 23.9998 16.7483 23.9998H15.525C15.2405 23.9998 15.003 23.7827 14.9776 23.4993C14.8895 22.5158 14.4826 19.0457 14.2986 18.5031C14.0506 17.772 13.4019 17.6817 11.9808 17.6497C10.8007 17.6232 10.1133 17.1297 9.81763 16.0967C9.56963 15.2302 9.58899 13.9953 9.61824 12.1259C9.62258 11.8502 9.6271 11.5612 9.63094 11.2585C9.634 11.0189 9.79192 10.809 10.0212 10.7395C10.2504 10.6698 10.4984 10.7571 10.6339 10.9547C12.5067 13.6869 14.0396 14.7554 14.9957 15.1706C15.2741 15.2914 15.4018 15.6151 15.2809 15.8936C15.1599 16.1721 14.8362 16.3 14.5578 16.1788C13.3135 15.6385 11.9997 14.5177 10.7077 12.9031C10.6791 16.1302 10.8718 16.5252 12.0054 16.5506C13.2587 16.5788 14.8185 16.6139 15.3396 18.1499C15.5584 18.7953 15.8921 21.699 16.0209 22.9005H16.7483C17.0518 22.9006 17.2979 23.1466 17.2979 23.4502ZM23.2748 13.5825C22.7153 14.7443 21.7368 15.6187 20.5196 16.0447C19.8746 16.2705 19.191 16.3565 18.5157 16.2989C18.3516 16.8657 18.0842 17.4024 17.7287 17.8737C17.6207 18.0169 17.4561 18.0923 17.2895 18.0924C17.1742 18.0924 17.0581 18.0563 16.959 17.9816C16.7166 17.7987 16.6684 17.4541 16.8512 17.2118C17.209 16.7374 17.4515 16.1772 17.5522 15.5917C17.5774 15.4456 17.6605 15.3158 17.7827 15.2319C17.9049 15.148 18.0559 15.1173 18.2012 15.1459C18.8514 15.2752 19.5276 15.2274 20.1565 15.0072C21.0967 14.6782 21.8524 14.0029 22.2845 13.1056C22.7166 12.2084 22.7734 11.1964 22.4444 10.2564C22.1106 9.30252 21.4224 8.54081 20.5065 8.11168C20.3512 8.03894 20.2387 7.89769 20.2025 7.73C20.1662 7.56224 20.2104 7.38728 20.322 7.25684C21.1832 6.24963 21.4466 4.84797 21.0095 3.59887C20.6805 2.65878 20.0052 1.90311 19.1079 1.47105C18.2106 1.03893 17.1987 0.98201 16.2587 1.31111C15.114 1.71172 14.2328 2.64834 13.9016 3.81677C13.8189 4.10874 13.5151 4.27832 13.2229 4.19564C12.9309 4.11283 12.7612 3.80895 12.844 3.51692C13.2728 2.00467 14.4136 0.792208 15.8956 0.273551C17.1128 -0.152405 18.423 -0.0788777 19.5847 0.480696C20.7466 1.04015 21.621 2.01865 22.047 3.23582C22.5392 4.64236 22.3454 6.19827 21.5532 7.43748C22.4494 8.01574 23.1234 8.86893 23.4819 9.89342C23.9078 11.1105 23.8343 12.4207 23.2748 13.5825ZM15.446 8.97495C15.7751 9.63791 16.1153 10.3235 16.2066 10.9744C16.3268 11.8325 15.9864 12.51 15.2219 12.9338C15.1375 12.9806 15.0461 13.0028 14.956 13.0028C14.7626 13.0028 14.5751 12.9006 14.4747 12.7195C14.3276 12.454 14.4235 12.1195 14.689 11.9723C15.3717 11.594 15.231 11.0141 14.4614 9.46368C14.1315 8.79919 13.7905 8.11204 13.6994 7.45897C13.5795 6.59876 13.9216 5.91931 14.689 5.49396C14.9543 5.34685 15.289 5.44272 15.4361 5.70825C15.5832 5.97378 15.4873 6.30825 15.2218 6.45543C14.5332 6.83717 14.6738 7.41934 15.446 8.97495Z" fill="#2D2D2D"/>
</g>
<defs>
<clipPath id="clip0_4906_475747">
<rect width="24" height="24" fill="white"/>
</clipPath>
</defs>
</svg>
