<svg width="24" height="24" viewBox="0 0 24 24" fill="none" xmlns="http://www.w3.org/2000/svg">
<path d="M5.80469 8.74072H3.41477C3.24609 8.74072 3.10938 8.87744 3.10938 9.04611V10.5501C3.10938 10.7189 3.24609 10.8555 3.41477 10.8555H5.80469C5.97337 10.8555 6.11008 10.7188 6.11008 10.5501V9.04611C6.11008 8.87744 5.97333 8.74072 5.80469 8.74072ZM5.4993 10.2447H3.7202V9.35151H5.49934L5.4993 10.2447Z" fill="#2D2D2D"/>
<path d="M5.80469 12.688H3.41477C3.24609 12.688 3.10938 12.8247 3.10938 12.9934V14.4974C3.10938 14.6662 3.24609 14.8028 3.41477 14.8028H5.80469C5.97337 14.8028 6.11008 14.6661 6.11008 14.4974V12.9934C6.11008 12.8247 5.97333 12.688 5.80469 12.688ZM5.4993 14.192H3.7202V13.2988H5.49934L5.4993 14.192Z" fill="#2D2D2D"/>
<path d="M15.1891 9.98273H8.8132C8.64453 9.98273 8.50781 10.1194 8.50781 10.2881V11.7921C8.50781 11.9609 8.64453 12.0975 8.8132 12.0975H15.1891C15.3578 12.0975 15.4945 11.9608 15.4945 11.7921V10.2881C15.4945 10.1194 15.3578 9.98273 15.1891 9.98273ZM10.1715 11.4868H9.1186V10.5935H10.1715V11.4868ZM11.6957 11.4868H10.7823V10.5935H11.6957V11.4868ZM13.22 11.4868H12.3065V10.5935H13.22V11.4868ZM14.8836 11.4868H13.8308V10.5935H14.8836V11.4868Z" fill="#2D2D2D"/>
<path d="M20.5859 8.74072H18.196C18.0273 8.74072 17.8906 8.87744 17.8906 9.04611V10.5501C17.8906 10.7189 18.0273 10.8555 18.196 10.8555H20.5859C20.7546 10.8555 20.8913 10.7188 20.8913 10.5501V9.04611C20.8913 8.87744 20.7546 8.74072 20.5859 8.74072ZM20.2806 10.2447H18.5014V9.35151H20.2806V10.2447Z" fill="#2D2D2D"/>
<path d="M20.5859 12.688H18.196C18.0273 12.688 17.8906 12.8247 17.8906 12.9934V14.4974C17.8906 14.6662 18.0273 14.8028 18.196 14.8028H20.5859C20.7546 14.8028 20.8913 14.6661 20.8913 14.4974V12.9934C20.8913 12.8247 20.7546 12.688 20.5859 12.688ZM20.2806 14.192H18.5014V13.2988H20.2806V14.192Z" fill="#2D2D2D"/>
<path d="M21.6946 6.11459H17.0844C16.9157 6.11459 16.779 6.25131 16.779 6.41998V8.35779H15.4933V7.5515C15.4933 7.38283 15.3566 7.24611 15.1879 7.24611H12.3266V6.37365H15.5951C15.7638 6.37365 15.9005 6.23693 15.9005 6.06826V3.98185C15.9005 3.81318 15.7638 3.67646 15.5951 3.67646H12.3255C12.315 3.51732 12.1829 3.39142 12.0212 3.39142C11.8525 3.39142 11.7158 3.52814 11.7158 3.69681V3.98185V6.06826V7.24615H8.81205C8.64337 7.24615 8.50665 7.38287 8.50665 7.55154V8.35783H7.22103V6.41998C7.22103 6.25131 7.08431 6.11459 6.91563 6.11459H2.30539C2.13672 6.11459 2 6.25131 2 6.41998V20.3032C2 20.472 2.13672 20.6086 2.30539 20.6086H6.91481C6.91509 20.6086 6.91532 20.6087 6.9156 20.6087H17.4916C17.4919 20.6087 17.4921 20.6086 17.4924 20.6086H21.6946C21.8633 20.6086 22 20.4719 22 20.3032V6.41998C22 6.25131 21.8633 6.11459 21.6946 6.11459ZM12.3266 4.28728H15.2898V5.76287H12.3266V4.28728ZM6.61028 19.9979H2.61082V12.0771H6.61028V19.9979ZM6.61028 8.66323V11.4663H2.61082V6.72541H6.61028V8.66323ZM13.5256 19.9979H10.4744V19.5042H13.5256V19.9979ZM13.5256 18.8934H10.4744V18.375H13.5256V18.8934ZM13.5256 17.7642H10.4744V14.8422H13.5256V17.7642ZM14.1365 19.9979V14.5368C14.1365 14.3681 13.9997 14.2314 13.831 14.2314H10.169C10.0003 14.2314 9.86361 14.3682 9.86361 14.5368V19.9979H7.22107V8.96862H8.81205C8.98072 8.96862 9.11744 8.8319 9.11744 8.66323V7.85694H14.8825V8.66323C14.8825 8.8319 15.0192 8.96862 15.1879 8.96862H16.7789V19.9979H14.1365V19.9979ZM21.3892 19.9979H17.3898V12.0771H21.3892V19.9979ZM21.3892 11.4664H17.3898V6.72541H21.3892V11.4664Z" fill="#2D2D2D"/>
</svg>
