<svg width="24" height="24" viewBox="0 0 24 24" fill="none" xmlns="http://www.w3.org/2000/svg">
<path d="M16.3987 21.2729V20.1994C16.3987 19.9986 16.2359 19.8358 16.0351 19.8358H16.0048V4.1812C16.0048 3.98044 15.8421 3.81767 15.6413 3.81767H10.922V3.0906C10.922 2.88984 10.7592 2.72707 10.5585 2.72707C10.3577 2.72707 10.1949 2.88984 10.1949 3.0906V3.81767H9.46787V2.36353C9.46787 2.16277 9.3051 2 9.10434 2C8.90358 2 8.74081 2.16277 8.74081 2.36353V3.81767H8.38959C8.18883 3.81767 8.02606 3.98044 8.02606 4.1812V19.8358H7.99197C7.79121 19.8358 7.62844 19.9986 7.62844 20.1994V21.2729H7.60572C7.40496 21.2729 7.24219 21.4357 7.24219 21.6365C7.24219 21.8372 7.40496 22 7.60572 22H7.99197H16.0351H16.3987C16.5994 22 16.7622 21.8372 16.7622 21.6365C16.7622 21.4357 16.5994 21.2729 16.3987 21.2729ZM8.75312 4.54473H9.47183V7.52116C9.47183 7.72192 9.6346 7.88469 9.83536 7.88469C10.0361 7.88469 10.1989 7.72192 10.1989 7.52116V4.54473H10.9269V7.52116C10.9269 7.72192 11.0896 7.88469 11.2904 7.88469C11.4912 7.88469 11.6539 7.72192 11.6539 7.52116V4.54473H12.3819V7.52116C12.3819 7.72192 12.5447 7.88469 12.7454 7.88469C12.9462 7.88469 13.109 7.72192 13.109 7.52116V4.54473H13.837V7.52116C13.837 7.72192 13.9997 7.88469 14.2005 7.88469C14.4012 7.88469 14.564 7.72192 14.564 7.52116V4.54473H15.2778V19.8358H14.564V8.86169C14.564 8.66093 14.4012 8.49815 14.2005 8.49815C13.9997 8.49815 13.837 8.66093 13.837 8.86169V19.8358H13.109V8.86169C13.109 8.66093 12.9462 8.49815 12.7454 8.49815C12.5447 8.49815 12.3819 8.66093 12.3819 8.86169V19.8358H11.6539V8.86169C11.6539 8.66093 11.4912 8.49815 11.2904 8.49815C11.0896 8.49815 10.9269 8.66093 10.9269 8.86169V19.8358H10.1989V8.86169C10.1989 8.66093 10.0361 8.49815 9.83536 8.49815C9.6346 8.49815 9.47183 8.66093 9.47183 8.86169V19.8358H8.75312V4.54473ZM8.35551 21.2729V20.5629H15.6716V21.2729H8.35551Z" fill="#2D2D2D"/>
</svg>
