<svg width="24" height="24" viewBox="0 0 24 24" fill="none" xmlns="http://www.w3.org/2000/svg">
<path d="M21.6015 19.2684H21.5064V6.85356V6.2925C21.5064 4.99251 20.4488 3.93481 19.1487 3.93481H15.5239C14.2238 3.93481 13.1662 4.99247 13.1662 6.2925V6.45516H12.2956C12.2171 6.45516 12.1404 6.47836 12.075 6.5218L11.8207 6.6909C10.0662 7.85758 8.56019 9.4259 7.46551 11.2263L6.98398 12.0183C5.91836 13.7709 4.71895 15.4642 3.41911 17.0509L2.21548 18.5202C1.98149 18.8058 1.93435 19.1905 2.09231 19.5242C2.25032 19.8579 2.57786 20.0652 2.94704 20.0652C3.22614 20.0652 3.4895 19.9429 3.66962 19.7296L4.45743 18.7966C5.04262 18.1036 5.60781 17.3905 6.15152 16.6607V19.614C6.15152 19.834 6.32988 20.0124 6.54992 20.0124C6.76996 20.0124 6.94832 19.834 6.94832 19.614V15.5565C7.59691 14.6288 8.21078 13.6773 8.78542 12.7066L8.91499 12.4877C9.23687 11.944 9.59808 11.4221 9.99378 10.9269V19.6491C9.99378 19.8691 10.1721 20.0475 10.3922 20.0475C10.6122 20.0475 10.7906 19.8691 10.7906 19.6491V10.0152C11.4646 9.30851 12.2129 8.67289 13.0186 8.12738L13.1663 8.02738V18.8823C13.1663 19.5345 13.6969 20.0652 14.3492 20.0652H16.5519C17.2042 20.0652 17.7348 19.5345 17.7348 18.8823V18.0031H20.7097V19.2684H20.6146C20.3946 19.2684 20.2162 19.4467 20.2162 19.6668C20.2162 19.8868 20.3946 20.0652 20.6146 20.0652H21.6016C21.8216 20.0652 22 19.8868 22 19.6668C22 19.4467 21.8216 19.2684 21.6015 19.2684ZM12.5718 7.46758C10.813 8.65844 9.31136 10.254 8.22925 12.0818L8.09968 12.3007C6.855 14.4031 5.42473 16.4157 3.84848 18.2825L3.06067 19.2155C3.03231 19.2491 2.99087 19.2683 2.94692 19.2683C2.86493 19.2683 2.82739 19.215 2.81239 19.1831C2.79739 19.1513 2.77985 19.0885 2.83181 19.025L4.03544 17.5558C5.35879 15.9403 6.57984 14.2165 7.66472 12.4321L8.14625 11.6402C9.1807 9.93882 10.6039 8.45683 12.2618 7.35434L12.4159 7.25188H12.8903L12.5718 7.46758ZM16.9379 18.8823C16.9379 19.0952 16.7647 19.2684 16.5518 19.2684H14.349C14.1362 19.2684 13.963 19.0952 13.963 18.8823V7.25192H16.9379V18.8823H16.9379ZM17.3363 5.67965C17.1162 5.67965 16.9379 5.85801 16.9379 6.07805V6.45512H13.963V6.29246C13.963 5.43176 14.6632 4.73157 15.5239 4.73157H19.1487C20.0094 4.73157 20.7096 5.4318 20.7096 6.29246V6.45512H17.7347V6.07805C17.7347 5.85801 17.5563 5.67965 17.3363 5.67965ZM20.7096 17.2063H17.7347V16.2053H20.7096V17.2063ZM20.7096 15.4085H17.7347V14.4076H20.7096V15.4085ZM20.7096 13.6108H17.7347V12.6099H20.7096V13.6108ZM20.7096 11.813H17.7347V10.8121H20.7096V11.813ZM20.7096 10.0153H17.7347V9.01437H20.7096V10.0153ZM20.7096 8.21762H17.7347V7.25192H20.7096V8.21762Z" fill="#2D2D2D"/>
<path d="M14.7304 15.5496C14.5104 15.5496 14.332 15.7279 14.332 15.948V18.486C14.332 18.706 14.5104 18.8843 14.7304 18.8843C14.9505 18.8843 15.1288 18.706 15.1288 18.4859V15.948C15.1289 15.7279 14.9505 15.5496 14.7304 15.5496Z" fill="#2D2D2D"/>
<path d="M14.7304 14.1042C14.5104 14.1042 14.332 14.2826 14.332 14.5026V14.7142C14.332 14.9342 14.5104 15.1126 14.7304 15.1126C14.9505 15.1126 15.1288 14.9342 15.1288 14.7142V14.5026C15.1289 14.2826 14.9505 14.1042 14.7304 14.1042Z" fill="#2D2D2D"/>
</svg>
