<svg width="24" height="24" viewBox="0 0 24 24" fill="none" xmlns="http://www.w3.org/2000/svg">
<path d="M8.13953 19.54H4.26953V21.75H8.13953V19.54Z" stroke="#2D2D2D" stroke-width="0.5" stroke-linecap="round" stroke-linejoin="round"/>
<path d="M19.7294 19.54H15.8594V21.75H19.7294V19.54Z" stroke="#2D2D2D" stroke-width="0.5" stroke-linecap="round" stroke-linejoin="round"/>
<path d="M3.64306 5.5H4.24306V9.47C3.92036 9.46473 3.6129 9.33181 3.38799 9.10034C3.16308 8.86888 3.03905 8.55772 3.04306 8.235V6.11C3.04304 5.94994 3.10593 5.79628 3.21818 5.68216C3.33042 5.56805 3.48302 5.50262 3.64306 5.5Z" stroke="#2D2D2D" stroke-width="0.5" stroke-linecap="round" stroke-linejoin="round"/>
<path d="M20.3539 5.5H19.7539V9.47C20.0766 9.46473 20.3841 9.33181 20.609 9.10034C20.8339 8.86888 20.9579 8.55772 20.9539 8.235V6.11C20.9539 5.94994 20.891 5.79628 20.7788 5.68216C20.6665 5.56805 20.5139 5.50262 20.3539 5.5Z" stroke="#2D2D2D" stroke-width="0.5" stroke-linecap="round" stroke-linejoin="round"/>
<path d="M11.9995 2.25C9.24453 2.25 4.26953 2.68 4.26953 3.8V19.54H19.7295V3.8C19.7295 2.68 14.7195 2.25 11.9995 2.25ZM11.9995 4.365C14.7295 4.365 16.7629 4.57 18.0995 4.98C18.1955 5.01352 18.279 5.07551 18.3389 5.15769C18.3987 5.23988 18.4321 5.33836 18.4345 5.44V13.94C18.4345 14.0726 18.3819 14.1998 18.2881 14.2936C18.1943 14.3873 18.0671 14.44 17.9345 14.44H6.06953C5.93692 14.44 5.80975 14.3873 5.71598 14.2936C5.62221 14.1998 5.56953 14.0726 5.56953 13.94V5.44C5.57198 5.33836 5.60536 5.23988 5.66521 5.15769C5.72506 5.07551 5.80855 5.01352 5.90453 4.98C7.23786 4.57 9.26953 4.365 11.9995 4.365ZM6.79453 15.75C7.12605 15.75 7.44399 15.8817 7.67841 16.1161C7.91284 16.3505 8.04453 16.6685 8.04453 17C8.04453 17.3315 7.91284 17.6495 7.67841 17.8839C7.44399 18.1183 7.12605 18.25 6.79453 18.25C6.46785 18.2447 6.15657 18.1102 5.92885 17.8759C5.70113 17.6417 5.57552 17.3267 5.57953 17C5.57552 16.6733 5.70113 16.3583 5.92885 16.124C6.15657 15.8898 6.46785 15.7553 6.79453 15.75ZM17.2295 15.75C17.5611 15.75 17.879 15.8817 18.1134 16.1161C18.3478 16.3505 18.4795 16.6685 18.4795 17C18.4795 17.3315 18.3478 17.6495 18.1134 17.8839C17.879 18.1183 17.5611 18.25 17.2295 18.25C17.0665 18.2494 16.9052 18.2164 16.755 18.1531C16.6047 18.0898 16.4685 17.9974 16.3541 17.8812C16.2398 17.765 16.1496 17.6273 16.0887 17.4761C16.0279 17.3248 15.9975 17.163 15.9995 17C15.9975 16.837 16.0279 16.6752 16.0887 16.5239C16.1496 16.3727 16.2398 16.235 16.3541 16.1188C16.4685 16.0026 16.6047 15.9102 16.755 15.8469C16.9052 15.7836 17.0665 15.7506 17.2295 15.75Z" stroke="#2D2D2D" stroke-width="0.5" stroke-linecap="round" stroke-linejoin="round"/>
</svg>
