<svg width="20" height="20" viewBox="0 0 20 20" fill="none" xmlns="http://www.w3.org/2000/svg">
<path d="M12.386 9.63247C12.2085 9.63497 12.0585 9.63747 11.926 9.63997C11.606 9.64747 11.361 9.65247 10.991 9.63747C11.026 9.40497 11.1185 8.85247 11.361 7.54747C11.396 7.36247 11.2985 7.18497 11.126 7.11497C10.9535 7.04497 10.7585 7.10247 10.656 7.25997C10.0785 8.12247 9.02096 9.69247 8.44346 10.5025C8.35846 10.6225 8.34846 10.7775 8.41596 10.91C8.48346 11.04 8.61846 11.1225 8.76596 11.12C8.91596 11.1175 9.05346 11.115 9.18596 11.11C9.41346 11.1025 9.63096 11.0975 9.90596 11.1C9.75846 11.4525 9.60096 11.8625 9.43846 12.2925C9.31346 12.62 9.18596 12.96 9.04596 13.31C8.97596 13.4875 9.03846 13.6825 9.20096 13.785C9.26596 13.825 9.33846 13.845 9.40846 13.845C9.51346 13.845 9.61846 13.8 9.69596 13.7175C10.7685 12.5425 11.516 11.67 12.6885 10.2725C12.7885 10.155 12.8085 9.99497 12.741 9.85497C12.6785 9.71497 12.541 9.62747 12.386 9.63247ZM12.4035 10.03C11.2335 11.4225 10.4885 12.2925 9.42096 13.4625C9.41596 13.47 9.41346 13.4725 9.40346 13.465C9.39346 13.4575 9.39346 13.455 9.39846 13.4475C9.53846 13.095 9.66846 12.755 9.79346 12.425C9.99596 11.8925 10.1885 11.3875 10.3635 10.995C10.3885 10.9375 10.3835 10.8725 10.351 10.82C10.3185 10.7675 10.261 10.735 10.1985 10.7325C10.031 10.7275 9.88096 10.725 9.74596 10.725C9.53596 10.725 9.35346 10.73 9.17846 10.735C9.04596 10.74 8.91096 10.7425 8.76346 10.745C8.76096 10.745 8.75346 10.745 8.75096 10.7375C8.74596 10.73 8.75096 10.725 8.75096 10.7225C9.33096 9.90747 10.391 8.33497 10.971 7.46997C10.976 7.46247 10.9785 7.45997 10.9885 7.46497C10.9985 7.46997 10.9985 7.47247 10.9985 7.48247C10.8835 8.09497 10.791 8.59997 10.726 8.97997C10.6835 9.22497 10.651 9.41497 10.631 9.54997C10.596 9.78747 10.5835 9.85747 10.6435 9.93247C10.676 9.97497 10.7285 10.0025 10.781 10.005C11.281 10.0325 11.5585 10.025 11.9385 10.0175C12.071 10.015 12.2185 10.01 12.3935 10.01C12.3985 10.01 12.4035 10.01 12.406 10.0175C12.4085 10.0225 12.406 10.0275 12.4035 10.03ZM18.0185 0.932466C17.9535 0.874966 17.8585 0.872466 17.7885 0.919966C17.3935 1.19747 17.0135 1.46247 16.646 1.71747C16.2785 1.97247 15.896 2.23747 15.501 2.51497C15.4685 2.53747 15.446 2.56747 15.4335 2.60497C15.331 2.88747 15.2285 3.18247 15.1285 3.46747C15.0335 3.73997 14.936 4.01997 14.8385 4.28747C14.671 4.45497 13.816 5.31747 12.8485 6.29747C11.716 5.71497 10.406 5.55497 9.18096 5.87747C8.94346 5.93997 8.71346 6.01997 8.49346 6.11497C8.23346 5.86247 7.98596 5.62247 7.74096 5.38497C7.99596 4.98747 8.18596 4.51247 8.27846 4.03247C8.39096 3.45247 8.36096 2.89747 8.19346 2.42747C7.86846 1.51747 6.98346 0.447466 5.91846 0.157466C4.99096 -0.0950341 4.11846 0.139966 3.24596 0.869966C3.20346 0.904966 3.18096 0.954966 3.17846 1.00997C3.17846 1.06497 3.20096 1.11747 3.24096 1.15247C3.56346 1.44247 3.78346 1.65997 3.99596 1.86997C4.19596 2.06747 4.40096 2.26997 4.69096 2.53247C4.64096 2.86747 4.57846 3.17747 4.51596 3.47747C4.45596 3.77247 4.39346 4.07497 4.34346 4.40497C4.03596 4.45247 3.76346 4.51747 3.49596 4.58247C3.12346 4.67247 2.76846 4.75747 2.35096 4.78497C2.11346 4.55997 1.90846 4.35747 1.70846 4.16497C1.49346 3.95497 1.27096 3.73747 1.00596 3.48747C0.968462 3.45247 0.918462 3.43497 0.865962 3.43747C0.813462 3.43997 0.765962 3.46497 0.733462 3.50247C0.105962 4.24247 -0.0190382 5.37747 0.420962 6.32247C0.848462 7.23997 1.75596 8.04247 2.68096 8.32247C3.09596 8.44747 3.63096 8.44747 4.19096 8.32247C4.61346 8.22747 5.02346 8.06497 5.32096 7.87747C5.56596 8.13247 5.81346 8.38997 6.07346 8.65997C6.07096 8.66497 6.06846 8.66997 6.06846 8.67497C5.73846 9.53497 5.67596 10.5275 5.89096 11.4725C5.39596 11.97 4.69346 12.6675 4.01096 13.3425C3.13846 14.2075 2.23346 15.1025 1.75846 15.59C1.53346 15.82 1.28096 16.0775 1.16096 16.425C1.03096 16.8025 1.08096 17.245 1.29846 17.675C1.48346 18.04 1.75346 18.3375 2.01346 18.625C2.57346 19.2425 3.24096 19.9025 4.11096 19.935C4.12596 19.935 4.14096 19.935 4.15846 19.935C4.54846 19.935 4.91096 19.7525 5.29596 19.36C5.68846 18.9575 6.13346 18.515 6.60346 18.045C7.53346 17.1175 8.58096 16.07 9.49846 15.0825C9.61596 15.11 9.73596 15.1325 9.85596 15.15C10.106 15.1875 10.356 15.205 10.606 15.205C11.0635 15.205 11.5185 15.1425 11.9485 15.02C12.881 16.035 14.121 17.3725 15.5385 18.8375C15.551 18.8525 15.566 18.8675 15.581 18.8825C15.8485 19.1625 16.406 19.7475 17.401 19.7475C17.6285 19.7475 17.8785 19.7175 18.156 19.645C18.891 19.4525 19.501 18.7 19.6035 17.8525C19.696 17.105 19.381 16.3925 18.646 15.67C17.5285 14.575 16.406 13.505 15.021 12.215C15.306 11.5275 15.436 10.79 15.3885 10.0775C15.3385 9.32997 15.0985 8.59997 14.716 7.97747C15.6385 7.02747 16.4585 6.17747 16.6135 6.01497C16.8635 5.90997 17.1485 5.80247 17.4235 5.69747C17.716 5.58747 18.0185 5.47247 18.2835 5.35747C18.316 5.34497 18.3435 5.32247 18.3635 5.29247C18.876 4.55997 19.506 3.49247 19.8185 2.88247C19.8535 2.81247 19.8435 2.72747 19.7885 2.66997C19.1585 1.99497 18.6685 1.49497 18.0185 0.932466ZM5.47846 7.50497C5.41346 7.43747 5.30596 7.42747 5.23096 7.48497C4.75096 7.84997 3.59096 8.20747 2.78846 7.96497C1.97346 7.71997 1.13846 6.97997 0.760962 6.16497C0.580962 5.77997 0.505962 5.33247 0.548462 4.90247C0.585962 4.52997 0.705962 4.18747 0.898462 3.90497C1.09596 4.09497 1.27346 4.26747 1.44346 4.43497C1.65846 4.64747 1.88346 4.86497 2.15096 5.11747C2.18846 5.15247 2.23846 5.16997 2.28846 5.16747C2.77346 5.14247 3.18346 5.04497 3.57846 4.94997C3.87596 4.87997 4.18346 4.80497 4.52846 4.75997C4.61346 4.74997 4.67846 4.68247 4.69096 4.59997C4.74096 4.22747 4.81096 3.88747 4.87846 3.55747C4.94846 3.22247 5.01846 2.87497 5.07096 2.48997C5.07846 2.42747 5.05596 2.36747 5.01096 2.32497C4.68846 2.03497 4.46846 1.81747 4.25596 1.60747C4.07846 1.43247 3.89596 1.24997 3.65096 1.02497C4.37096 0.477466 5.06596 0.317466 5.81596 0.519966C6.63346 0.742466 7.50096 1.61497 7.83596 2.55247C8.12346 3.35997 7.92096 4.48997 7.34096 5.29997C7.28846 5.37497 7.29596 5.47747 7.36096 5.54247C7.61096 5.78747 7.86346 6.03247 8.12846 6.28997C7.84346 6.44497 7.57596 6.62997 7.32846 6.84497C6.87096 7.24247 6.50346 7.72747 6.23096 8.28497C5.97596 8.01997 5.72846 7.75997 5.47846 7.50497ZM6.33596 17.7825C5.86346 18.2525 5.41846 18.6975 5.02346 19.1C4.70096 19.43 4.42096 19.5725 4.12346 19.5625C3.40096 19.535 2.79846 18.935 2.29096 18.375C2.04596 18.105 1.79346 17.8275 1.63346 17.5075C1.46346 17.175 1.42096 16.825 1.51596 16.5475C1.60846 16.2825 1.82846 16.055 2.02596 15.8525C2.49846 15.3675 3.40096 14.4725 4.27346 13.61C4.88846 13 5.52096 12.3725 6.00346 11.89C6.07846 12.125 6.17096 12.3525 6.27846 12.5725C5.82846 13.01 5.32596 13.5025 4.82346 13.995C4.14346 14.6625 3.43846 15.35 2.88596 15.8875C2.58096 16.185 2.48096 16.46 2.59346 16.705C2.68846 16.9125 2.90346 17.0075 3.10846 17.0075C3.15596 17.0075 3.20346 17.0025 3.24596 16.9925C3.43596 16.95 3.62096 16.845 3.78096 16.6875C4.31596 16.16 4.70096 15.8 5.07346 15.45C5.60846 14.95 6.11596 14.4775 6.95596 13.6C7.06346 13.7225 7.17596 13.84 7.29346 13.95C7.32596 13.98 7.35846 14.01 7.39346 14.04C7.01346 14.41 6.59346 14.8175 6.17596 15.225C5.54596 15.8375 4.89596 16.4725 4.39346 16.9575C4.21846 17.125 3.98096 17.355 3.91596 17.6675C3.87346 17.865 3.92596 18.0875 4.05346 18.2475C4.15846 18.3775 4.30096 18.45 4.45596 18.4525C4.45846 18.4525 4.45846 18.4525 4.46096 18.4525C4.70846 18.4525 4.89596 18.275 5.00846 18.1675C5.62346 17.5825 6.34096 16.885 7.03596 16.21C7.53596 15.7225 8.05346 15.2225 8.52846 14.765C8.70846 14.8475 8.89346 14.9175 9.08346 14.9775C8.20846 15.9125 7.21846 16.9025 6.33596 17.7825ZM6.46596 12.915C6.54596 13.05 6.63096 13.18 6.72346 13.305C5.87096 14.195 5.38346 14.6525 4.82096 15.1775C4.44596 15.5275 4.05846 15.89 3.52096 16.42C3.44346 16.495 3.32096 16.5925 3.16846 16.6275C3.07096 16.65 2.96346 16.615 2.93596 16.5525C2.89846 16.47 2.97346 16.33 3.14846 16.1575C3.70096 15.62 4.40596 14.93 5.08846 14.2625C5.56096 13.8 6.03596 13.335 6.46596 12.915ZM7.69096 14.275C7.84346 14.3875 8.00596 14.49 8.17346 14.5825C7.72346 15.015 7.24346 15.4825 6.77596 15.9375C6.08346 16.61 5.36596 17.3075 4.75096 17.8925C4.65346 17.985 4.55346 18.075 4.46096 18.075C4.42096 18.075 4.38096 18.0525 4.34846 18.01C4.29346 17.94 4.26596 17.83 4.28596 17.7425C4.32596 17.5575 4.47096 17.405 4.65846 17.225C5.16096 16.74 5.81096 16.105 6.44096 15.4925C6.87096 15.0725 7.30096 14.6525 7.69096 14.275ZM18.3785 15.9425C19.026 16.5775 19.3035 17.19 19.226 17.8125C19.141 18.5125 18.6485 19.13 18.056 19.2875C16.7935 19.6175 16.156 18.95 15.8485 18.63C15.8335 18.6125 15.8185 18.5975 15.8035 18.5825C14.446 17.18 13.251 15.8925 12.3335 14.895C12.441 14.8525 12.546 14.81 12.6485 14.76C12.816 14.68 12.9785 14.59 13.136 14.4875C13.6935 15.0425 14.231 15.575 14.816 16.1575C14.966 16.3075 15.216 16.555 15.5435 16.555C15.5485 16.555 15.556 16.555 15.561 16.555C15.7935 16.55 16.0235 16.4325 16.1735 16.245C16.3085 16.075 16.366 15.8625 16.326 15.6625C16.246 15.26 15.9535 14.96 15.7185 14.7175L14.371 13.34C14.496 13.1775 14.611 13.005 14.716 12.8275C14.7635 12.745 14.8085 12.6625 14.8535 12.5775C16.1935 13.8275 17.2885 14.8725 18.3785 15.9425ZM13.4485 14.2675C13.6935 14.08 13.921 13.8675 14.1285 13.6325L15.4485 14.9825C15.6485 15.1875 15.8985 15.4425 15.956 15.7375C15.981 15.8625 15.9185 15.9625 15.8785 16.0125C15.7985 16.1125 15.671 16.1775 15.551 16.18C15.3885 16.1825 15.2285 16.04 15.0785 15.89C14.5135 15.325 13.9885 14.805 13.4485 14.2675ZM15.0085 10.1075C15.066 10.96 14.846 11.8575 14.391 12.6375C13.936 13.4175 13.261 14.05 12.491 14.4175C11.721 14.785 10.8035 14.915 9.91096 14.78C9.01846 14.645 8.18096 14.2525 7.55346 13.6725C6.92596 13.0925 6.46846 12.29 6.26346 11.41C6.05846 10.53 6.11346 9.60747 6.42096 8.80997C6.43596 8.77247 6.45096 8.73497 6.46596 8.69747C6.46846 8.69247 6.47096 8.68747 6.47096 8.68497C6.88096 7.70247 7.59346 6.95497 8.52096 6.51747C8.53096 6.51247 8.54096 6.50747 8.55096 6.50247C8.78096 6.39747 9.02346 6.30997 9.27596 6.24247C10.456 5.93247 11.716 6.10497 12.7935 6.69497C12.796 6.69497 12.7985 6.69747 12.7985 6.69747C13.071 6.84747 13.331 7.02247 13.576 7.22497C14.396 7.90747 14.931 8.98247 15.0085 10.1075ZM18.0835 5.03747C17.8385 5.13997 17.5585 5.24747 17.286 5.34997C16.9935 5.45997 16.691 5.57497 16.426 5.68997C16.4035 5.69997 16.381 5.71497 16.3635 5.73247C16.3535 5.74247 15.4935 6.63747 14.496 7.66497C14.296 7.39497 14.066 7.14997 13.811 6.93997C13.611 6.77497 13.401 6.62497 13.1835 6.49247C14.226 5.43747 15.121 4.53747 15.131 4.52747C15.151 4.50747 15.166 4.48497 15.1735 4.45997C15.276 4.17747 15.3785 3.88247 15.4785 3.59747C15.571 3.33247 15.6685 3.05747 15.7635 2.79247C16.141 2.52747 16.5035 2.27497 16.856 2.02997C17.186 1.79997 17.5285 1.56247 17.881 1.31497C18.4335 1.79997 18.876 2.25247 19.4185 2.83247C19.1035 3.42747 18.5485 4.36497 18.0835 5.03747ZM17.1635 18.35C17.281 18.43 17.416 18.47 17.561 18.47C17.6235 18.47 17.6885 18.4625 17.756 18.4475C18.031 18.3825 18.231 18.2 18.306 17.9475C18.381 17.6925 18.311 17.4075 18.1285 17.22C17.9485 17.035 17.6835 16.97 17.4035 17.0425C17.1285 17.115 16.9935 17.2725 16.926 17.395C16.841 17.55 16.8185 17.7325 16.8635 17.9125C16.906 18.095 17.0135 18.25 17.1635 18.35ZM17.496 17.405C17.541 17.3925 17.5835 17.3875 17.6235 17.3875C17.716 17.3875 17.796 17.42 17.856 17.48C17.9435 17.57 17.9785 17.7175 17.9435 17.8425C17.9185 17.9275 17.851 18.0375 17.6685 18.0825C17.386 18.15 17.256 17.95 17.226 17.8225C17.211 17.7675 17.161 17.4925 17.496 17.405Z" fill="#2D2D2D"/>
</svg>
