<svg width="24" height="24" viewBox="0 0 24 24" fill="none" xmlns="http://www.w3.org/2000/svg">
<path d="M12.2873 4.02588V6.17521L14.4345 4.93521L14.9678 5.85948L12.2873 7.40668V11.1016L15.4873 9.25415V6.15921H16.554V8.63814L18.4158 7.56401L18.9492 8.48775L17.0873 9.56241L19.2345 10.8019L18.7012 11.7261L16.0206 10.1779L12.8206 12.0253L16.0212 13.8733L18.7012 12.3256L19.2345 13.2493L17.0873 14.4888L18.9492 15.564L18.4158 16.4877L16.554 15.4131V17.8925H15.4873V14.7971L12.2873 12.9491V16.6445L14.9678 18.1923L14.4345 19.116L12.2873 17.876V20.0259H11.2206V17.876L9.07344 19.116L8.5401 18.1923L11.2206 16.6445V12.9491L8.02064 14.7965V17.8925H6.95397V15.4125L5.09264 16.4877L4.5593 15.564L6.4201 14.4888L4.27344 13.2493L4.80677 12.3256L7.48677 13.8728L10.6868 12.0253L7.4873 10.1779L4.80677 11.7261L4.27344 10.8019L6.42064 9.56241L4.5593 8.48775L5.09264 7.56401L6.95397 8.63814V6.15921H8.02064V9.25415L11.2206 11.1016V7.40668L8.5401 5.85948L9.07344 4.93521L11.2206 6.17521V4.02588H12.2873Z" fill="#2D2D2D"/>
</svg>
