<svg width="24" height="24" viewBox="0 0 24 24" fill="none" xmlns="http://www.w3.org/2000/svg">
<path d="M21.3176 15.2985H21.1841V14.1926C21.1841 13.6125 20.712 13.1404 20.1315 13.1404H7.5V12.2663C7.5 11.6786 7.02187 11.2001 6.43387 11.2001H3.60037V10.083C3.60037 9.87563 3.43275 9.70801 3.22537 9.70801H1.125C0.917625 9.70801 0.75 9.87563 0.75 10.083V22.347C0.75 22.5544 0.917625 22.722 1.125 22.722H3.22575C3.43312 22.722 3.60075 22.5544 3.60075 22.347V18.1496H20.3996V22.347C20.3996 22.5544 20.5672 22.722 20.7746 22.722H22.8754C23.0827 22.722 23.2504 22.5544 23.2504 22.347V17.2309C23.2504 16.1651 22.383 15.2985 21.3176 15.2985ZM3.60075 11.9501H6.43425C6.60862 11.9501 6.75037 12.0919 6.75037 12.2663V13.1404H3.60112L3.60075 11.9501ZM3.60075 13.8904H20.1315C20.298 13.8904 20.4341 14.0258 20.4341 14.1926V15.2985H3.60075V13.8904ZM22.5 21.972H21.1492V17.7746C21.1492 17.5673 20.9816 17.3996 20.7742 17.3996H3.22575C3.01837 17.3996 2.85075 17.5673 2.85075 17.7746V21.972H1.5V10.458H2.85075V15.6735C2.85075 15.8809 3.01837 16.0485 3.22575 16.0485H21.3176C21.9694 16.0485 22.5 16.5791 22.5 17.2309V21.972Z" fill="black"/>
<path d="M7.98875 8.34381H10.4488L11.6862 10.7326C11.75 10.8601 11.8812 10.9351 12.02 10.9351C12.1587 10.9351 12.29 10.8563 12.3537 10.7326L13.5875 8.34381H16.0138C16.6287 8.34381 17.1275 7.84131 17.1275 7.23006V2.39256C17.1275 1.77756 16.6287 1.27881 16.0138 1.27881H7.98875C7.37375 1.27881 6.875 1.77756 6.875 2.39256V7.23006C6.875 7.84131 7.37375 8.34381 7.98875 8.34381Z" fill="black"/>
</svg>
