<svg width="24" height="24" viewBox="0 0 24 24" fill="none" xmlns="http://www.w3.org/2000/svg">
<path d="M18.5761 5.81693H17.6034L16.6881 4.14674C16.4576 3.62942 16.0821 3.19 15.6071 2.88162C15.1321 2.57325 14.5779 2.40915 14.0116 2.40918H9.9903C9.42396 2.40915 8.86975 2.57325 8.39473 2.88162C7.91971 3.19 7.54423 3.62942 7.31374 4.14674L6.39848 5.81693H5.42578C5.30146 5.81693 5.18223 5.86632 5.09432 5.95423C5.00642 6.04213 4.95703 6.16136 4.95703 6.28568V8.67256C4.95703 8.79688 5.00642 8.91611 5.09432 9.00401C5.18223 9.09192 5.30146 9.14131 5.42578 9.14131H6.2982L7.36171 21.223C7.372 21.3397 7.42565 21.4484 7.51208 21.5276C7.59852 21.6067 7.71147 21.6506 7.82867 21.6506H16.1732C16.2904 21.6506 16.4034 21.6067 16.4898 21.5276C16.5763 21.4484 16.6299 21.3397 16.6402 21.223L17.7037 9.14131H18.5761C18.7004 9.14131 18.8197 9.09192 18.9076 9.00401C18.9955 8.91611 19.0449 8.79688 19.0449 8.67256V6.28568C19.0449 6.16136 18.9955 6.04213 18.9076 5.95423C18.8197 5.86632 18.7004 5.81693 18.5761 5.81693ZM15.7439 20.7131H8.25794L7.23935 9.14128H16.7625L15.7439 20.7131ZM18.1074 8.20378H5.89453V6.75443H9.50601C9.63033 6.75443 9.74956 6.70505 9.83747 6.61714C9.92537 6.52923 9.97476 6.41 9.97476 6.28568C9.97476 6.16136 9.92537 6.04213 9.83747 5.95423C9.74956 5.86632 9.63033 5.81693 9.50601 5.81693H7.46752L8.14556 4.57967C8.15229 4.5674 8.15847 4.55482 8.16405 4.54199C8.31918 4.18669 8.57458 3.88436 8.89896 3.67205C9.22334 3.45973 9.60262 3.34666 9.9903 3.34668H14.0116C14.3993 3.34666 14.7785 3.45973 15.1029 3.67205C15.4273 3.88436 15.6827 4.18669 15.8378 4.54199C15.8434 4.55481 15.8496 4.5674 15.8563 4.57967L16.5344 5.81693H14.6861C14.5618 5.81693 14.4426 5.86632 14.3547 5.95423C14.2668 6.04213 14.2174 6.16136 14.2174 6.28568C14.2174 6.41 14.2668 6.52923 14.3547 6.61714C14.4426 6.70505 14.5618 6.75443 14.6861 6.75443H18.1074V8.20378Z" fill="black"/>
<path d="M10.9657 15.2421L9.85971 15.7541C9.80247 15.7806 9.75117 15.8184 9.70888 15.8652C9.66658 15.9119 9.63417 15.9668 9.61358 16.0264C9.59298 16.086 9.58463 16.1492 9.58903 16.2121C9.59343 16.275 9.61048 16.3364 9.63916 16.3926L10.1933 17.4781C10.2209 17.5335 10.2593 17.5829 10.3061 17.6234C10.3529 17.664 10.4073 17.6948 10.4662 17.7142C10.525 17.7335 10.5871 17.7411 10.6488 17.7363C10.7106 17.7315 10.7707 17.7146 10.8259 17.6864C10.8811 17.6583 10.9301 17.6195 10.9702 17.5722C11.0102 17.525 11.0406 17.4703 11.0594 17.4113C11.0782 17.3523 11.0851 17.2902 11.0798 17.2285C11.0744 17.1668 11.0569 17.1068 11.0282 17.0519L11.0002 16.9969C11.4732 17.1336 11.9729 17.1499 12.4539 17.0444C12.9348 16.939 13.3818 16.715 13.7542 16.393C13.8008 16.3527 13.8389 16.3036 13.8665 16.2486C13.894 16.1935 13.9105 16.1336 13.9149 16.0722C13.9193 16.0108 13.9116 15.9491 13.8922 15.8907C13.8727 15.8323 13.842 15.7783 13.8017 15.7318C13.7614 15.6852 13.7123 15.6471 13.6573 15.6195C13.6022 15.592 13.5423 15.5755 13.4809 15.5711C13.4195 15.5667 13.3578 15.5744 13.2994 15.5939C13.241 15.6133 13.187 15.644 13.1405 15.6843C12.8938 15.8972 12.5992 16.0473 12.282 16.1218C11.9647 16.1962 11.6342 16.1928 11.3185 16.1119L11.3596 16.0929C11.4155 16.067 11.4657 16.0304 11.5074 15.9851C11.5491 15.9398 11.5815 15.8868 11.6027 15.829C11.6239 15.7712 11.6335 15.7098 11.631 15.6483C11.6285 15.5868 11.6139 15.5264 11.588 15.4706C11.5622 15.4147 11.5256 15.3645 11.4803 15.3228C11.435 15.281 11.382 15.2487 11.3242 15.2274C11.2664 15.2062 11.205 15.1966 11.1435 15.1991C11.082 15.2016 11.0216 15.2162 10.9657 15.2421Z" fill="black"/>
<path d="M8.97401 14.9069C8.98945 14.9668 9.01661 15.0231 9.05393 15.0725C9.09124 15.1219 9.13797 15.1634 9.19142 15.1947C9.24487 15.2259 9.30398 15.2462 9.36533 15.2545C9.42668 15.2628 9.48906 15.2588 9.54887 15.2428C9.60868 15.2269 9.66474 15.1992 9.7138 15.1615C9.76287 15.1237 9.80396 15.0766 9.83473 15.0229C9.86549 14.9692 9.88531 14.9099 9.89303 14.8485C9.90076 14.787 9.89624 14.7247 9.87974 14.665C9.79622 14.35 9.79012 14.0195 9.86196 13.7017C9.93381 13.3838 10.0815 13.0881 10.2923 12.8396L10.2915 12.8848C10.2903 12.9464 10.3012 13.0075 10.3237 13.0649C10.3461 13.1222 10.3797 13.1745 10.4223 13.2189C10.465 13.2632 10.516 13.2987 10.5724 13.3234C10.6288 13.348 10.6896 13.3613 10.7511 13.3625C10.7542 13.3626 10.7572 13.3626 10.7603 13.3626C10.883 13.3626 11.0008 13.3144 11.0884 13.2284C11.176 13.1425 11.2264 13.0256 11.2288 12.9029L11.2523 11.6843C11.2535 11.6213 11.2419 11.5586 11.2184 11.5001C11.1948 11.4416 11.1597 11.3885 11.1151 11.3439C11.0705 11.2992 11.0173 11.2641 10.9588 11.2405C10.9003 11.2169 10.8377 11.2054 10.7746 11.2066L9.55603 11.2301C9.43211 11.233 9.3144 11.2849 9.22865 11.3744C9.1429 11.4639 9.0961 11.5838 9.09848 11.7077C9.10087 11.8316 9.15224 11.9496 9.24137 12.0357C9.3305 12.1219 9.45012 12.1692 9.57407 12.1674L9.63567 12.1662C9.30624 12.532 9.07322 12.9742 8.95769 13.4527C8.84216 13.9313 8.84777 14.431 8.97401 14.9069Z" fill="black"/>
<path d="M12.5152 12.2582C12.8211 12.3704 13.0954 12.555 13.3146 12.7961C13.5338 13.0372 13.6914 13.3278 13.774 13.643L13.7375 13.6164C13.6369 13.5441 13.512 13.5146 13.3897 13.5342C13.2675 13.5538 13.158 13.6209 13.0851 13.7209C13.0122 13.8209 12.9818 13.9457 13.0006 14.068C13.0193 14.1904 13.0857 14.3003 13.1852 14.3739L14.1701 15.0919C14.221 15.1291 14.279 15.1555 14.3404 15.1698C14.4019 15.184 14.4656 15.1857 14.5277 15.1747C14.5898 15.1638 14.649 15.1404 14.7019 15.106C14.7548 15.0716 14.8001 15.0269 14.8353 14.9745L15.5149 13.9627C15.5499 13.9117 15.5744 13.8542 15.5871 13.7935C15.5997 13.7329 15.6002 13.6704 15.5885 13.6096C15.5769 13.5488 15.5533 13.4909 15.5191 13.4393C15.485 13.3876 15.4409 13.3432 15.3895 13.3087C15.3381 13.2742 15.2804 13.2502 15.2197 13.2381C15.159 13.226 15.0965 13.2261 15.0358 13.2383C14.9751 13.2505 14.9174 13.2746 14.866 13.3092C14.8147 13.3439 14.7707 13.3883 14.7367 13.44L14.7023 13.4913C14.5915 13.0116 14.3629 12.5671 14.0371 12.198C13.7113 11.8289 13.2986 11.5469 12.8364 11.3775C12.7786 11.3564 12.7172 11.3469 12.6557 11.3496C12.5942 11.3522 12.5338 11.3669 12.478 11.3929C12.4222 11.4189 12.372 11.4556 12.3304 11.5009C12.2888 11.5463 12.2565 11.5994 12.2354 11.6572C12.2143 11.7151 12.2048 11.7765 12.2075 11.838C12.2101 11.8995 12.2248 11.9599 12.2508 12.0157C12.2768 12.0715 12.3135 12.1216 12.3589 12.1632C12.4042 12.2049 12.4573 12.2371 12.5152 12.2582Z" fill="black"/>
</svg>
