<svg width="24" height="24" viewBox="0 0 24 24" fill="none" xmlns="http://www.w3.org/2000/svg">
<path d="M20.625 13.5V12.75H17.625V3.375H16.875V6.375H16.125V5.25C16.125 4.15598 15.6904 3.10677 14.9168 2.33318C14.1432 1.5596 13.094 1.125 12 1.125C10.906 1.125 9.85677 1.5596 9.08318 2.33318C8.3096 3.10677 7.875 4.15598 7.875 5.25V6.75H7.125V3.375H6.375V12.75H3.375V13.5H4.5V16.0312C4.00683 16.3058 3.63871 16.7601 3.47243 17.2995C3.30614 17.8389 3.35453 18.4217 3.6075 18.9263L4.42125 20.5538C4.47349 20.6586 4.50046 20.7741 4.5 20.8913V21.375C4.5 21.5739 4.42098 21.7647 4.28033 21.9053C4.13968 22.046 3.94891 22.125 3.75 22.125H3.375V22.875H3.75C4.14782 22.875 4.52936 22.717 4.81066 22.4357C5.09196 22.1544 5.25 21.7728 5.25 21.375V20.8913C5.24912 20.6584 5.19526 20.4289 5.0925 20.22L4.27875 18.5925C4.16803 18.3724 4.11549 18.1276 4.12613 17.8814C4.13677 17.6352 4.21025 17.3959 4.33956 17.1861C4.46886 16.9763 4.64971 16.8032 4.86487 16.6831C5.08003 16.563 5.32234 16.5 5.56875 16.5H18.4313C18.6777 16.5 18.92 16.563 19.1351 16.6831C19.3503 16.8032 19.5311 16.9763 19.6604 17.1861C19.7898 17.3959 19.8632 17.6352 19.8739 17.8814C19.8845 18.1276 19.832 18.3724 19.7213 18.5925L18.9075 20.22C18.8047 20.4289 18.7509 20.6584 18.75 20.8913V21.375C18.75 21.7728 18.908 22.1544 19.1893 22.4357C19.4706 22.717 19.8522 22.875 20.25 22.875H20.625V22.125H20.25C20.0511 22.125 19.8603 22.046 19.7197 21.9053C19.579 21.7647 19.5 21.5739 19.5 21.375V20.8913C19.4995 20.7741 19.5265 20.6586 19.5788 20.5538L20.3925 18.9263C20.6455 18.4217 20.6939 17.8389 20.5276 17.2995C20.3613 16.7601 19.9932 16.3058 19.5 16.0312V13.5H20.625ZM16.5 14.25V15H15V14.25H16.5ZM8.625 5.25C8.625 4.35489 8.98058 3.49645 9.61351 2.86351C10.2464 2.23058 11.1049 1.875 12 1.875C12.8951 1.875 13.7535 2.23058 14.3865 2.86351C15.0194 3.49645 15.375 4.35489 15.375 5.25V7.875C15.375 8.77011 15.0194 9.62855 14.3865 10.2615C13.7535 10.8944 12.8951 11.25 12 11.25C11.1049 11.25 10.2464 10.8944 9.61351 10.2615C8.98058 9.62855 8.625 8.77011 8.625 7.875V5.25ZM7.125 7.5H7.875V7.875C7.875 8.96902 8.3096 10.0182 9.08318 10.7918C9.85677 11.5654 10.906 12 12 12C13.094 12 14.1432 11.5654 14.9168 10.7918C15.6904 10.0182 16.125 8.96902 16.125 7.875V7.125H16.875V12.75H7.125V7.5ZM9 15H7.5V14.25H9V15Z" fill="black"/>
<path d="M13.875 19.875C14.1734 19.875 14.4595 19.7565 14.6705 19.5455C14.8815 19.3345 15 19.0484 15 18.75C15 18.3522 14.842 17.9706 14.5607 17.6893C14.2794 17.408 13.8978 17.25 13.5 17.25H10.5C10.1022 17.25 9.72064 17.408 9.43934 17.6893C9.15804 17.9706 9 18.3522 9 18.75C9 19.0484 9.11853 19.3345 9.3295 19.5455C9.54048 19.7565 9.82663 19.875 10.125 19.875V20.7825C10.1249 20.8765 10.0951 20.9681 10.0399 21.0442C9.9847 21.1203 9.90686 21.177 9.8175 21.2062C9.58129 21.2857 9.37567 21.4367 9.22917 21.6383C9.08268 21.8399 9.00258 22.0821 9 22.3312V22.875H9.75V22.3425C9.75008 22.2485 9.77986 22.1569 9.83508 22.0808C9.8903 22.0047 9.96814 21.948 10.0575 21.9188C10.3366 21.8244 10.5715 21.6309 10.7175 21.375H13.2825C13.4285 21.6309 13.6634 21.8244 13.9425 21.9188C14.0319 21.948 14.1097 22.0047 14.1649 22.0808C14.2201 22.1569 14.2499 22.2485 14.25 22.3425V22.875H15V22.3425C14.9974 22.0933 14.9173 21.8511 14.7708 21.6495C14.6243 21.4479 14.4187 21.2969 14.1825 21.2175C14.0913 21.1877 14.0121 21.1293 13.9567 21.0509C13.9013 20.9726 13.8727 20.8784 13.875 20.7825V19.875ZM10.875 20.625V19.875H13.125V20.625H10.875Z" fill="black"/>
<path d="M9.59375 7.12671L12.7487 3.97172L13.279 4.50197L10.124 7.65696L9.59375 7.12671Z" fill="black"/>
<path d="M11.0898 7.87793L13.4945 5.47325L14.0248 6.0035L11.6201 8.40818L11.0898 7.87793Z" fill="black"/>
</svg>
