<svg width="20" height="20" viewBox="0 0 20 20" fill="none" xmlns="http://www.w3.org/2000/svg">
<path d="M16.25 8.95838C16.25 8.92036 16.2458 8.88245 16.2375 8.84536L15.5604 5.78911C15.4346 5.20902 15.1132 4.68983 14.6501 4.31858C14.1869 3.94733 13.6102 3.7466 13.0167 3.75004H6.98333C6.39013 3.74707 5.81392 3.94802 5.35121 4.31923C4.8885 4.69044 4.56739 5.20937 4.44167 5.78911L3.7625 8.84536C3.75417 8.88245 3.74998 8.92036 3.75 8.95838V9.47921C3.74958 9.98629 3.93486 10.476 4.27083 10.8558V13.6459C4.27166 14.3363 4.54629 14.9982 5.03449 15.4864C5.52269 15.9746 6.18459 16.2492 6.875 16.25H13.125C13.8154 16.2492 14.4773 15.9746 14.9655 15.4864C15.4537 14.9982 15.7283 14.3363 15.7292 13.6459V10.8558C16.0651 10.476 16.2504 9.98629 16.25 9.47921V8.95838ZM4.79167 9.01515L5.45833 6.01515C5.53388 5.66736 5.72657 5.35607 6.00417 5.13336C6.28178 4.91066 6.62744 4.79005 6.98333 4.79171H7.39583V6.35421C7.39583 6.49234 7.45071 6.62482 7.54838 6.72249C7.64606 6.82017 7.77853 6.87504 7.91667 6.87504C8.0548 6.87504 8.18728 6.82017 8.28495 6.72249C8.38263 6.62482 8.4375 6.49234 8.4375 6.35421V4.79171H11.5625V6.35421C11.5625 6.49234 11.6174 6.62482 11.715 6.72249C11.8127 6.82017 11.9452 6.87504 12.0833 6.87504C12.2215 6.87504 12.3539 6.82017 12.4516 6.72249C12.5493 6.62482 12.6042 6.49234 12.6042 6.35421V4.79171H13.0167C13.3726 4.79005 13.7182 4.91066 13.9958 5.13336C14.2734 5.35607 14.4661 5.66736 14.5417 6.01515L15.2083 9.01515V9.47921C15.2083 9.75548 15.0986 10.0204 14.9032 10.2158C14.7079 10.4111 14.4429 10.5209 14.1667 10.5209H13.6458C13.3696 10.5209 13.1046 10.4111 12.9093 10.2158C12.7139 10.0204 12.6042 9.75548 12.6042 9.47921C12.6042 9.34108 12.5493 9.2086 12.4516 9.11092C12.3539 9.01325 12.2215 8.95838 12.0833 8.95838C11.9452 8.95838 11.8127 9.01325 11.715 9.11092C11.6174 9.2086 11.5625 9.34108 11.5625 9.47921C11.5625 9.75548 11.4528 10.0204 11.2574 10.2158C11.0621 10.4111 10.7971 10.5209 10.5208 10.5209H9.47917C9.2029 10.5209 8.93795 10.4111 8.7426 10.2158C8.54725 10.0204 8.4375 9.75548 8.4375 9.47921C8.4375 9.34108 8.38263 9.2086 8.28495 9.11092C8.18728 9.01325 8.0548 8.95838 7.91667 8.95838C7.77853 8.95838 7.64606 9.01325 7.54838 9.11092C7.45071 9.2086 7.39583 9.34108 7.39583 9.47921C7.39583 9.75548 7.28609 10.0204 7.09074 10.2158C6.89539 10.4111 6.63043 10.5209 6.35417 10.5209H5.83333C5.55707 10.5209 5.29211 10.4111 5.09676 10.2158C4.90141 10.0204 4.79167 9.75548 4.79167 9.47921V9.01515ZM13.125 15.2084H6.875C6.4606 15.2084 6.06317 15.0438 5.77015 14.7507C5.47712 14.4577 5.3125 14.0603 5.3125 13.6459V11.4964C5.4826 11.5404 5.65762 11.5627 5.83333 11.5625H6.35417C6.6499 11.5627 6.94227 11.4997 7.21172 11.3778C7.48117 11.256 7.72151 11.078 7.91667 10.8558C8.11182 11.078 8.35216 11.256 8.62161 11.3778C8.89107 11.4997 9.18343 11.5627 9.47917 11.5625H10.5208C10.8166 11.5627 11.1089 11.4997 11.3784 11.3778C11.6478 11.256 11.8882 11.078 12.0833 10.8558C12.2785 11.078 12.5188 11.256 12.7883 11.3778C13.0577 11.4997 13.3501 11.5627 13.6458 11.5625H14.1667C14.3424 11.5627 14.5174 11.5404 14.6875 11.4964V13.6459C14.6875 14.0603 14.5229 14.4577 14.2299 14.7507C13.9368 15.0438 13.5394 15.2084 13.125 15.2084Z" fill="#737678"/>
</svg>
