<svg width="24" height="24" viewBox="0 0 24 24" fill="none" xmlns="http://www.w3.org/2000/svg">
<path d="M19.414 10.0317L14.3573 4.97442C13.7315 4.35041 12.8838 4 12 4C11.1162 4 10.2685 4.35041 9.64267 4.97442L4.58601 10.0317C4.39962 10.2169 4.25185 10.4373 4.15126 10.68C4.05067 10.9227 3.99926 11.183 4.00001 11.4457V17.9904C4.00001 18.5208 4.21072 19.0295 4.58579 19.4046C4.96087 19.7797 5.46957 19.9904 6.00001 19.9904H18C18.5304 19.9904 19.0391 19.7797 19.4142 19.4046C19.7893 19.0295 20 18.5208 20 17.9904V11.4457C20.0007 11.183 19.9493 10.9227 19.8487 10.68C19.7481 10.4373 19.6004 10.2169 19.414 10.0317ZM14 18.6571H10V16.0344C10 15.504 10.2107 14.9953 10.5858 14.6202C10.9609 14.2451 11.4696 14.0344 12 14.0344C12.5304 14.0344 13.0391 14.2451 13.4142 14.6202C13.7893 14.9953 14 15.504 14 16.0344V18.6571ZM18.6667 17.9904C18.6667 18.1672 18.5964 18.3368 18.4714 18.4618C18.3464 18.5868 18.1768 18.6571 18 18.6571H15.3333V16.0344C15.3333 15.1503 14.9821 14.3025 14.357 13.6774C13.7319 13.0523 12.8841 12.7011 12 12.7011C11.1159 12.7011 10.2681 13.0523 9.64298 13.6774C9.01786 14.3025 8.66667 15.1503 8.66667 16.0344V18.6571H6.00001C5.8232 18.6571 5.65363 18.5868 5.5286 18.4618C5.40358 18.3368 5.33334 18.1672 5.33334 17.9904V11.4457C5.33396 11.2691 5.40413 11.0997 5.52867 10.9744L10.5853 5.91908C10.9611 5.54504 11.4698 5.33504 12 5.33504C12.5302 5.33504 13.0389 5.54504 13.4147 5.91908L18.4713 10.9764C18.5954 11.1012 18.6655 11.2698 18.6667 11.4457V17.9904Z" fill="#2D2D2D"/>
</svg>
