<svg width="24" height="24" viewBox="0 0 24 24" fill="none" xmlns="http://www.w3.org/2000/svg">
<path d="M17.5984 7.2H12.7984C12.0679 7.20268 11.3521 7.4059 10.7291 7.78749C10.1062 8.16909 9.59993 8.71442 9.26564 9.364C8.78595 8.99983 8.20069 8.80184 7.59844 8.8C6.85583 8.8 6.14364 9.095 5.61854 9.6201C5.09344 10.1452 4.79844 10.8574 4.79844 11.6C4.80078 12.016 4.89675 12.4261 5.07924 12.8H3.99844V4.8C3.99844 4.58783 3.91415 4.38434 3.76412 4.23431C3.61409 4.08429 3.41061 4 3.19844 4C2.98626 4 2.78278 4.08429 2.63275 4.23431C2.48272 4.38434 2.39844 4.58783 2.39844 4.8V19.2C2.39844 19.4122 2.48272 19.6157 2.63275 19.7657C2.78278 19.9157 2.98626 20 3.19844 20C3.41061 20 3.61409 19.9157 3.76412 19.7657C3.91415 19.6157 3.99844 19.4122 3.99844 19.2V17.6H19.9984V19.2C19.9984 19.4122 20.0827 19.6157 20.2327 19.7657C20.3828 19.9157 20.5863 20 20.7984 20C21.0106 20 21.2141 19.9157 21.3641 19.7657C21.5142 19.6157 21.5984 19.4122 21.5984 19.2V11.2C21.5972 10.1395 21.1753 9.12285 20.4255 8.37298C19.6756 7.62311 18.6589 7.20127 17.5984 7.2ZM10.3984 11.2C10.3984 10.5635 10.6513 9.95303 11.1014 9.50294C11.5515 9.05286 12.1619 8.8 12.7984 8.8H17.5984C18.235 8.8 18.8454 9.05286 19.2955 9.50294C19.7456 9.95303 19.9984 10.5635 19.9984 11.2V12.8H10.3984V11.2ZM6.39844 11.6C6.39844 11.3627 6.46882 11.1307 6.60067 10.9333C6.73253 10.736 6.91995 10.5822 7.13922 10.4913C7.35849 10.4005 7.59977 10.3768 7.83255 10.4231C8.06532 10.4694 8.27914 10.5836 8.44697 10.7515C8.61479 10.9193 8.72908 11.1331 8.77538 11.3659C8.82168 11.5987 8.79792 11.8399 8.70709 12.0592C8.61627 12.2785 8.46246 12.4659 8.26512 12.5978C8.06778 12.7296 7.83577 12.8 7.59844 12.8C7.28018 12.8 6.97495 12.6736 6.74991 12.4485C6.52487 12.2235 6.39844 11.9183 6.39844 11.6ZM3.99844 16V14.4H19.9984V16H3.99844Z" fill="#2D2D2D"/>
</svg>
