<svg width="24" height="24" viewBox="0 0 24 24" fill="none" xmlns="http://www.w3.org/2000/svg">
<path d="M19.4679 7.19716H12.655V5.59663C12.655 4.71633 11.9347 3.99609 11.0544 3.99609H5.59663C4.71633 3.99609 3.99609 4.71633 3.99609 5.59663V11.0544C3.99609 11.9347 4.71633 12.655 5.59663 12.655H7.19716V15.0344C6.40223 15.4986 5.86338 16.3469 5.86338 17.3285C5.86338 18.801 7.05845 19.9961 8.53094 19.9961C9.8167 19.9961 10.8944 19.0785 11.1451 17.862H14.6663V19.4626C14.6663 19.756 14.9064 19.9961 15.1998 19.9961H16.8004C17.0031 19.9961 17.1845 19.8841 17.2752 19.7027L18.1928 17.862H19.4626C19.756 17.862 19.9961 17.622 19.9961 17.3285V7.73067C19.9961 7.43724 19.756 7.19716 19.4626 7.19716H19.4679ZM18.9344 8.26418V9.86472H12.655V8.26418H18.9344ZM5.06312 11.0544V5.59663C5.06312 5.3032 5.3032 5.06312 5.59663 5.06312H11.0544C11.3479 5.06312 11.588 5.3032 11.588 5.59663V11.0544C11.588 11.3479 11.3479 11.588 11.0544 11.588H5.59663C5.3032 11.588 5.06312 11.3479 5.06312 11.0544ZM8.53094 18.9344C7.65065 18.9344 6.93041 18.2142 6.93041 17.3339C6.93041 16.4536 7.65065 15.7333 8.53094 15.7333C9.41123 15.7333 10.1315 16.4536 10.1315 17.3339C10.1315 18.2142 9.41123 18.9344 8.53094 18.9344ZM16.4696 18.9344H15.7333V17.8674H17.0031L16.4696 18.9344ZM11.1451 16.8004C10.8997 15.584 9.82204 14.6663 8.53094 14.6663C8.44024 14.6663 8.35488 14.6823 8.26418 14.693V12.655H11.0544C11.9347 12.655 12.655 11.9347 12.655 11.0544V10.9317H18.9344V16.8004H11.1451Z" fill="black"/>
<path d="M9.39434 7.79496H8.26863L8.97287 6.75995C9.13826 6.51453 9.07423 6.18375 8.83415 6.01837C8.58874 5.85298 8.25796 5.917 8.09257 6.15708L6.81748 8.02437C6.70545 8.18976 6.69477 8.39783 6.78547 8.57388C6.87617 8.74994 7.05756 8.85664 7.25496 8.85664H8.32198L7.55906 9.87032C7.383 10.1051 7.43102 10.4412 7.66577 10.6172C7.7618 10.6919 7.87383 10.7239 7.98587 10.7239C8.14593 10.7239 8.30598 10.6492 8.41268 10.5105L9.82115 8.64324C9.94386 8.48319 9.9652 8.26445 9.8745 8.08305C9.78381 7.90166 9.59708 7.78962 9.39968 7.78962L9.39434 7.79496Z" fill="black"/>
<path d="M17.0676 11.7319H16.2674C15.5311 11.7319 14.9336 12.3295 14.9336 13.0657V13.866C14.9336 14.6022 15.5311 15.1998 16.2674 15.1998H17.0676C17.8039 15.1998 18.4014 14.6022 18.4014 13.866V13.0657C18.4014 12.3295 17.8039 11.7319 17.0676 11.7319ZM17.3344 13.866C17.3344 14.0154 17.217 14.1327 17.0676 14.1327H16.2674C16.118 14.1327 16.0006 14.0154 16.0006 13.866V13.0657C16.0006 12.9163 16.118 12.799 16.2674 12.799H17.0676C17.217 12.799 17.3344 12.9163 17.3344 13.0657V13.866Z" fill="black"/>
<path d="M13.5994 14.1328H12.7991C12.5057 14.1328 12.2656 14.3729 12.2656 14.6663C12.2656 14.9598 12.5057 15.1998 12.7991 15.1998H13.5994C13.8928 15.1998 14.1329 14.9598 14.1329 14.6663C14.1329 14.3729 13.8928 14.1328 13.5994 14.1328Z" fill="black"/>
<path d="M8.79749 16.8003H8.26398C7.97055 16.8003 7.73047 17.0404 7.73047 17.3338C7.73047 17.6272 7.97055 17.8673 8.26398 17.8673H8.79749C9.09092 17.8673 9.331 17.6272 9.331 17.3338C9.331 17.0404 9.09092 16.8003 8.79749 16.8003Z" fill="black"/>
</svg>
