<svg width="24" height="24" viewBox="0 0 24 24" fill="none" xmlns="http://www.w3.org/2000/svg">
<path d="M19.4679 7.19731H12.655V5.59678C12.655 4.71649 11.9347 3.99625 11.0544 3.99625H5.59663C4.71633 3.99625 3.99609 4.71649 3.99609 5.59678V11.0546C3.99609 11.9349 4.71633 12.6551 5.59663 12.6551H7.19716V15.0346C6.40223 15.4987 5.86338 16.347 5.86338 17.3287C5.86338 18.8012 7.05845 19.9962 8.53094 19.9962C9.8167 19.9962 10.8944 19.0786 11.1451 17.8622H14.6663V19.4627C14.6663 19.7562 14.9064 19.9962 15.1998 19.9962H16.8004C17.0031 19.9962 17.1845 19.8842 17.2752 19.7028L18.1928 17.8622H19.4626C19.756 17.8622 19.9961 17.6221 19.9961 17.3287V7.73082C19.9961 7.43739 19.756 7.19731 19.4626 7.19731H19.4679ZM18.9344 8.26434V9.86487H12.655V8.26434H18.9344ZM5.06312 11.0546V5.59678C5.06312 5.30335 5.3032 5.06327 5.59663 5.06327H11.0544C11.3479 5.06327 11.588 5.30335 11.588 5.59678V11.0546C11.588 11.348 11.3479 11.5881 11.0544 11.5881H5.59663C5.3032 11.5881 5.06312 11.348 5.06312 11.0546ZM8.53094 18.9346C7.65065 18.9346 6.93041 18.2143 6.93041 17.334C6.93041 16.4537 7.65065 15.7335 8.53094 15.7335C9.41123 15.7335 10.1315 16.4537 10.1315 17.334C10.1315 18.2143 9.41123 18.9346 8.53094 18.9346ZM16.4696 18.9346H15.7333V17.8675H17.0031L16.4696 18.9346ZM11.1451 16.8005C10.8997 15.5841 9.82204 14.6665 8.53094 14.6665C8.44024 14.6665 8.35488 14.6825 8.26418 14.6931V12.6551H11.0544C11.9347 12.6551 12.655 11.9349 12.655 11.0546V10.9319H18.9344V16.8005H11.1451Z" fill="black"/>
<path d="M9.39629 7.79493H8.27059L8.97482 6.75992C9.14021 6.5145 9.07619 6.18372 8.83611 6.01833C8.59069 5.85295 8.25992 5.91697 8.09453 6.15705L6.81944 8.02434C6.7074 8.18973 6.69673 8.39779 6.78742 8.57385C6.87812 8.74991 7.05952 8.85661 7.25691 8.85661H8.32394L7.56102 9.87029C7.38496 10.105 7.43297 10.4411 7.66772 10.6172C7.76375 10.6919 7.87579 10.7239 7.98782 10.7239C8.14788 10.7239 8.30793 10.6492 8.41463 10.5105L9.8231 8.64321C9.94581 8.48316 9.96715 8.26442 9.87646 8.08302C9.78576 7.90163 9.59903 7.78959 9.40163 7.78959L9.39629 7.79493Z" fill="black"/>
<path d="M17.0676 11.7322H16.2674C15.5311 11.7322 14.9336 12.3297 14.9336 13.066V13.8662C14.9336 14.6025 15.5311 15.2 16.2674 15.2H17.0676C17.8039 15.2 18.4014 14.6025 18.4014 13.8662V13.066C18.4014 12.3297 17.8039 11.7322 17.0676 11.7322ZM17.3344 13.8662C17.3344 14.0156 17.217 14.133 17.0676 14.133H16.2674C16.118 14.133 16.0006 14.0156 16.0006 13.8662V13.066C16.0006 12.9166 16.118 12.7992 16.2674 12.7992H17.0676C17.217 12.7992 17.3344 12.9166 17.3344 13.066V13.8662Z" fill="black"/>
<path d="M13.5994 14.133H12.7991C12.5057 14.133 12.2656 14.373 12.2656 14.6665C12.2656 14.9599 12.5057 15.2 12.7991 15.2H13.5994C13.8928 15.2 14.1329 14.9599 14.1329 14.6665C14.1329 14.373 13.8928 14.133 13.5994 14.133Z" fill="black"/>
<path d="M8.79749 16.8005H8.26398C7.97055 16.8005 7.73047 17.0406 7.73047 17.334C7.73047 17.6274 7.97055 17.8675 8.26398 17.8675H8.79749C9.09092 17.8675 9.331 17.6274 9.331 17.334C9.331 17.0406 9.09092 16.8005 8.79749 16.8005Z" fill="black"/>
</svg>
