<svg width="14" height="17" viewBox="0 0 14 17" fill="none" xmlns="http://www.w3.org/2000/svg">
<path d="M8.81641 2.86771V1.80104C8.81641 1.21171 8.33907 0.734375 7.74974 0.734375H1.88307C1.29374 0.734375 0.816406 1.21171 0.816406 1.80104V16.201" stroke="#2D2D2D" stroke-width="1.06667"/>
<path d="M12.0172 2.86768H5.61719V5.00101H12.0172V2.86768Z" stroke="#2D2D2D" stroke-width="1.06667" stroke-linejoin="round"/>
<path d="M4.01562 5.0011H13.6156" stroke="#2D2D2D" stroke-width="1.06667" stroke-linejoin="round"/>
<path d="M8.81719 6.60107C8.52279 6.60107 8.28385 6.84001 8.28385 7.13441C8.28385 7.42881 8.52279 7.66774 8.81719 7.66774C9.11159 7.66774 9.35052 7.42881 9.35052 7.13441C9.35052 6.84001 9.11159 6.60107 8.81719 6.60107ZM6.15052 6.60107C5.85612 6.60107 5.61719 6.84001 5.61719 7.13441C5.61719 7.42881 5.85612 7.66774 6.15052 7.66774C6.44492 7.66774 6.68385 7.42881 6.68385 7.13441C6.68385 6.84001 6.44492 6.60107 6.15052 6.60107ZM11.4839 6.60107C11.1895 6.60107 10.9505 6.84001 10.9505 7.13441C10.9505 7.42881 11.1895 7.66774 11.4839 7.66774C11.7783 7.66774 12.0172 7.42881 12.0172 7.13441C12.0172 6.84001 11.7783 6.60107 11.4839 6.60107ZM8.81719 8.73441C8.52279 8.73441 8.28385 8.97334 8.28385 9.26774C8.28385 9.56214 8.52279 9.80107 8.81719 9.80107C9.11159 9.80107 9.35052 9.56214 9.35052 9.26774C9.35052 8.97334 9.11159 8.73441 8.81719 8.73441ZM11.4839 8.73441C11.1895 8.73441 10.9505 8.97334 10.9505 9.26774C10.9505 9.56214 11.1895 9.80107 11.4839 9.80107C11.7783 9.80107 12.0172 9.56214 12.0172 9.26774C12.0172 8.97334 11.7783 8.73441 11.4839 8.73441ZM6.15052 8.73441C5.85612 8.73441 5.61719 8.97334 5.61719 9.26774C5.61719 9.56214 5.85612 9.80107 6.15052 9.80107C6.44492 9.80107 6.68385 9.56214 6.68385 9.26774C6.68385 8.97334 6.44492 8.73441 6.15052 8.73441ZM8.81719 10.8677C8.52279 10.8677 8.28385 11.1067 8.28385 11.4011C8.28385 11.6955 8.52279 11.9344 8.81719 11.9344C9.11159 11.9344 9.35052 11.6955 9.35052 11.4011C9.35052 11.1067 9.11159 10.8677 8.81719 10.8677ZM11.4839 10.8677C11.1895 10.8677 10.9505 11.1067 10.9505 11.4011C10.9505 11.6955 11.1895 11.9344 11.4839 11.9344C11.7783 11.9344 12.0172 11.6955 12.0172 11.4011C12.0172 11.1067 11.7783 10.8677 11.4839 10.8677ZM6.15052 10.8677C5.85612 10.8677 5.61719 11.1067 5.61719 11.4011C5.61719 11.6955 5.85612 11.9344 6.15052 11.9344C6.44492 11.9344 6.68385 11.6955 6.68385 11.4011C6.68385 11.1067 6.44492 10.8677 6.15052 10.8677ZM8.81719 13.0011C8.52279 13.0011 8.28385 13.24 8.28385 13.5344C8.28385 13.8288 8.52279 14.0677 8.81719 14.0677C9.11159 14.0677 9.35052 13.8288 9.35052 13.5344C9.35052 13.24 9.11159 13.0011 8.81719 13.0011ZM11.4839 13.0011C11.1895 13.0011 10.9505 13.24 10.9505 13.5344C10.9505 13.8288 11.1895 14.0677 11.4839 14.0677C11.7783 14.0677 12.0172 13.8288 12.0172 13.5344C12.0172 13.24 11.7783 13.0011 11.4839 13.0011ZM6.15052 13.0011C5.85612 13.0011 5.61719 13.24 5.61719 13.5344C5.61719 13.8288 5.85612 14.0677 6.15052 14.0677C6.44492 14.0677 6.68385 13.8288 6.68385 13.5344C6.68385 13.24 6.44492 13.0011 6.15052 13.0011ZM8.81719 15.1344C8.52279 15.1344 8.28385 15.3733 8.28385 15.6677C8.28385 15.9621 8.52279 16.2011 8.81719 16.2011C9.11159 16.2011 9.35052 15.9621 9.35052 15.6677C9.35052 15.3733 9.11159 15.1344 8.81719 15.1344ZM11.4839 15.1344C11.1895 15.1344 10.9505 15.3733 10.9505 15.6677C10.9505 15.9621 11.1895 16.2011 11.4839 16.2011C11.7783 16.2011 12.0172 15.9621 12.0172 15.6677C12.0172 15.3733 11.7783 15.1344 11.4839 15.1344ZM6.15052 15.1344C5.85612 15.1344 5.61719 15.3733 5.61719 15.6677C5.61719 15.9621 5.85612 16.2011 6.15052 16.2011C6.44492 16.2011 6.68385 15.9621 6.68385 15.6677C6.68385 15.3733 6.44492 15.1344 6.15052 15.1344Z" fill="#2D2D2D"/>
<path d="M11.4852 6.60107C11.1908 6.60107 10.9518 6.84001 10.9518 7.13441C10.9518 7.42881 11.1908 7.66774 11.4852 7.66774C11.7796 7.66774 12.0185 7.42881 12.0185 7.13441C12.0185 6.84001 11.7796 6.60107 11.4852 6.60107ZM8.81849 6.60107C8.52409 6.60107 8.28516 6.84001 8.28516 7.13441C8.28516 7.42881 8.52409 7.66774 8.81849 7.66774C9.11289 7.66774 9.35182 7.42881 9.35182 7.13441C9.35182 6.84001 9.11289 6.60107 8.81849 6.60107ZM11.4852 8.73441C11.1908 8.73441 10.9518 8.97334 10.9518 9.26774C10.9518 9.56214 11.1908 9.80107 11.4852 9.80107C11.7796 9.80107 12.0185 9.56214 12.0185 9.26774C12.0185 8.97334 11.7796 8.73441 11.4852 8.73441ZM8.81849 8.73441C8.52409 8.73441 8.28516 8.97334 8.28516 9.26774C8.28516 9.56214 8.52409 9.80107 8.81849 9.80107C9.11289 9.80107 9.35182 9.56214 9.35182 9.26774C9.35182 8.97334 9.11289 8.73441 8.81849 8.73441ZM11.4852 10.8677C11.1908 10.8677 10.9518 11.1067 10.9518 11.4011C10.9518 11.6955 11.1908 11.9344 11.4852 11.9344C11.7796 11.9344 12.0185 11.6955 12.0185 11.4011C12.0185 11.1067 11.7796 10.8677 11.4852 10.8677ZM8.81849 10.8677C8.52409 10.8677 8.28516 11.1067 8.28516 11.4011C8.28516 11.6955 8.52409 11.9344 8.81849 11.9344C9.11289 11.9344 9.35182 11.6955 9.35182 11.4011C9.35182 11.1067 9.11289 10.8677 8.81849 10.8677ZM11.4852 13.0011C11.1908 13.0011 10.9518 13.24 10.9518 13.5344C10.9518 13.8288 11.1908 14.0677 11.4852 14.0677C11.7796 14.0677 12.0185 13.8288 12.0185 13.5344C12.0185 13.24 11.7796 13.0011 11.4852 13.0011ZM8.81849 13.0011C8.52409 13.0011 8.28516 13.24 8.28516 13.5344C8.28516 13.8288 8.52409 14.0677 8.81849 14.0677C9.11289 14.0677 9.35182 13.8288 9.35182 13.5344C9.35182 13.24 9.11289 13.0011 8.81849 13.0011ZM11.4852 15.1344C11.1908 15.1344 10.9518 15.3733 10.9518 15.6677C10.9518 15.9621 11.1908 16.2011 11.4852 16.2011C11.7796 16.2011 12.0185 15.9621 12.0185 15.6677C12.0185 15.3733 11.7796 15.1344 11.4852 15.1344ZM8.81849 15.1344C8.52409 15.1344 8.28516 15.3733 8.28516 15.6677C8.28516 15.9621 8.52409 16.2011 8.81849 16.2011C9.11289 16.2011 9.35182 15.9621 9.35182 15.6677C9.35182 15.3733 9.11289 15.1344 8.81849 15.1344Z" fill="#2D2D2D"/>
</svg>
