<svg width="24" height="24" viewBox="0 0 24 24" fill="none" xmlns="http://www.w3.org/2000/svg">
<path d="M20.1302 13.0675L14.0647 9.52928V4.25818C14.0647 4.11567 13.9492 4.00012 13.8066 4.00012H10.1938C10.0512 4.00012 9.9357 4.11567 9.9357 4.25818V9.52928L3.87022 13.0675C3.79096 13.1137 3.74219 13.1986 3.74219 13.2904V15.3549C3.74219 15.4974 3.85774 15.613 4.00025 15.613H20.0002C20.1427 15.613 20.2582 15.4974 20.2582 15.3549V13.2904C20.2582 13.1986 20.2094 13.1137 20.1302 13.0675ZM10.2635 9.93557H13.7369L19.0456 13.0323H4.95483L10.2635 9.93557ZM10.4518 4.51625H13.5486V9.41944H10.4518V4.51625ZM4.25831 15.0968V13.5485H19.7421V15.0968H4.25831Z" fill="black"/>
<path d="M9.83161 17.8351C9.70681 17.7102 9.67597 17.5203 9.7549 17.3624L10.0559 16.7605C10.1196 16.633 10.0679 16.478 9.94048 16.4143C9.813 16.3505 9.65797 16.4022 9.59426 16.5297L9.29329 17.1316C9.11484 17.4885 9.18452 17.9179 9.46665 18.2L9.81848 18.5519C9.94329 18.6767 9.97413 18.8666 9.89519 19.0245L9.59426 19.6264C9.53052 19.7539 9.5822 19.9089 9.70968 19.9727C9.74671 19.9912 9.78607 20 9.82487 20C9.91955 20 10.0107 19.9477 10.0559 19.8572L10.3568 19.2553C10.5353 18.8984 10.4656 18.4691 10.1835 18.1869L9.83161 17.8351Z" fill="black"/>
<path d="M12.1207 17.8351C11.9959 17.7102 11.965 17.5203 12.044 17.3624L12.3449 16.7605C12.4086 16.633 12.357 16.478 12.2295 16.4143C12.1021 16.3505 11.947 16.4022 11.8833 16.5297L11.5824 17.1316C11.4039 17.4885 11.4736 17.9179 11.7557 18.2L12.1075 18.5519C12.2324 18.6767 12.2632 18.8666 12.1843 19.0245L11.8833 19.6264C11.8195 19.7539 11.8712 19.9089 11.9987 19.9727C12.0357 19.9912 12.0751 20 12.1139 20C12.2086 20 12.2997 19.9477 12.3449 19.8573L12.6459 19.2553C12.8243 18.8985 12.7546 18.4691 12.4725 18.1869L12.1207 17.8351Z" fill="black"/>
<path d="M14.441 17.8351C14.3162 17.7102 14.2853 17.5203 14.3643 17.3624L14.6652 16.7605C14.729 16.633 14.6773 16.478 14.5498 16.4143C14.4224 16.3505 14.2673 16.4022 14.2036 16.5297L13.9027 17.1316C13.7242 17.4885 13.7939 17.9179 14.076 18.2L14.4279 18.5519C14.5527 18.6767 14.5835 18.8666 14.5046 19.0245L14.2036 19.6264C14.1399 19.7539 14.1915 19.9089 14.319 19.9727C14.3561 19.9912 14.3954 20 14.4342 20C14.5289 20 14.62 19.9477 14.6652 19.8573L14.9662 19.2553C15.1446 18.8985 15.075 18.4691 14.7928 18.1869L14.441 17.8351Z" fill="black"/>
<path d="M10.4534 13.8065C10.3109 13.8065 10.1953 13.9221 10.1953 14.0646V14.5807C10.1953 14.7232 10.3109 14.8388 10.4534 14.8388C10.5959 14.8388 10.7114 14.7232 10.7114 14.5807V14.0646C10.7114 13.9221 10.5959 13.8065 10.4534 13.8065Z" fill="black"/>
<path d="M11.4846 13.8065C11.3421 13.8065 11.2266 13.9221 11.2266 14.0646V14.5807C11.2266 14.7232 11.3421 14.8388 11.4846 14.8388C11.6271 14.8388 11.7427 14.7232 11.7427 14.5807V14.0646C11.7427 13.9221 11.6271 13.8065 11.4846 13.8065Z" fill="black"/>
<path d="M12.5159 13.8065C12.3734 13.8065 12.2578 13.9221 12.2578 14.0646V14.5807C12.2578 14.7232 12.3734 14.8388 12.5159 14.8388C12.6584 14.8388 12.7739 14.7232 12.7739 14.5807V14.0646C12.7739 13.9221 12.6584 13.8065 12.5159 13.8065Z" fill="black"/>
<path d="M13.5471 13.8065C13.4046 13.8065 13.2891 13.9221 13.2891 14.0646V14.5807C13.2891 14.7232 13.4046 14.8388 13.5471 14.8388C13.6896 14.8388 13.8052 14.7232 13.8052 14.5807V14.0646C13.8052 13.9221 13.6896 13.8065 13.5471 13.8065Z" fill="black"/>
</svg>
