<svg width="24" height="24" viewBox="0 0 24 24" fill="none" xmlns="http://www.w3.org/2000/svg">
<path d="M16.9414 6.46687C16.8921 6.46687 16.8426 6.44804 16.805 6.41038C15.5249 5.13022 13.8229 4.42523 12.0125 4.42523C10.2021 4.42523 8.50005 5.13022 7.21996 6.41038C7.14461 6.4857 7.02249 6.4857 6.94714 6.41038C6.87179 6.33503 6.87179 6.21288 6.94714 6.13756C8.30015 4.78455 10.0991 4.03943 12.0125 4.03943C13.926 4.03943 15.7249 4.78459 17.0779 6.13756C17.1532 6.21291 17.1532 6.33507 17.0779 6.41038C17.0402 6.448 16.9908 6.46687 16.9414 6.46687Z" fill="black"/>
<path d="M15.2135 7.38704C15.1642 7.38704 15.1148 7.36821 15.0772 7.33056C14.2594 6.51282 13.1722 6.06247 12.0157 6.06247C10.8593 6.06247 9.77204 6.51282 8.95434 7.33056C8.87899 7.40587 8.75687 7.40587 8.68152 7.33056C8.60616 7.2552 8.60616 7.13305 8.68152 7.05773C9.57214 6.16711 10.7562 5.67664 12.0158 5.67664C13.2753 5.67664 14.4594 6.16711 15.35 7.05773C15.4254 7.13309 15.4254 7.25524 15.35 7.33056C15.3123 7.36821 15.2629 7.38704 15.2135 7.38704Z" fill="black"/>
<path d="M13.4779 8.3073C13.4285 8.3073 13.3791 8.28847 13.3415 8.25081C12.9861 7.89546 12.5137 7.69976 12.0112 7.69976C11.5087 7.69976 11.0362 7.89546 10.6809 8.25081C10.6055 8.32613 10.4834 8.32613 10.4081 8.25081C10.3327 8.17546 10.3327 8.0533 10.4081 7.97799C10.8363 7.54979 11.4056 7.31396 12.0112 7.31396C12.6168 7.31396 13.1861 7.54979 13.6143 7.97799C13.6896 8.05334 13.6896 8.1755 13.6143 8.25081C13.5766 8.28847 13.5272 8.3073 13.4779 8.3073Z" fill="black"/>
<path d="M19.0431 20.0395H4.98359C4.17847 20.0395 3.52344 19.3844 3.52344 18.5793V10.6701C3.52344 9.86499 4.17847 9.20996 4.98359 9.20996H19.0431C19.8483 9.20996 20.5033 9.86499 20.5033 10.6701V18.5793C20.5033 19.3844 19.8483 20.0395 19.0431 20.0395ZM4.98359 9.5958C4.39122 9.5958 3.90927 10.0777 3.90927 10.6701V18.5793C3.90927 19.1717 4.39122 19.6536 4.98359 19.6536H19.0431C19.6356 19.6536 20.1175 19.1717 20.1175 18.5793V10.6701C20.1175 10.0777 19.6356 9.5958 19.0431 9.5958H4.98359Z" fill="black"/>
<path d="M10.9299 18.4597H4.75542C4.64889 18.4597 4.5625 18.3733 4.5625 18.2667V10.9827C4.5625 10.8762 4.64889 10.7898 4.75542 10.7898H10.9299C11.0365 10.7898 11.1229 10.8762 11.1229 10.9827V18.2667C11.1229 18.3733 11.0365 18.4597 10.9299 18.4597ZM4.94834 18.0738H10.737V11.1756H4.94834V18.0738Z" fill="black"/>
<path d="M9.82033 17.6034H5.86479C5.75826 17.6034 5.67188 17.5171 5.67188 17.4105V16.0839C5.67188 15.2461 6.35353 14.5645 7.19133 14.5645H8.4938C9.33164 14.5645 10.0133 15.2461 10.0133 16.0839V17.4105C10.0133 17.5171 9.92686 17.6034 9.82033 17.6034ZM6.05771 17.2176H9.62746V16.0839C9.62746 15.4589 9.11893 14.9503 8.49383 14.9503H7.19137C6.56628 14.9503 6.05775 15.4589 6.05775 16.0839L6.05771 17.2176Z" fill="black"/>
<path d="M7.84607 14.2992C7.1146 14.2992 6.51953 13.7041 6.51953 12.9726C6.51953 12.2412 7.1146 11.6461 7.84607 11.6461C8.57754 11.6461 9.17257 12.2412 9.17257 12.9726C9.17257 13.7041 8.5775 14.2992 7.84607 14.2992ZM7.84607 12.032C7.32735 12.032 6.90537 12.4539 6.90537 12.9726C6.90537 13.4913 7.32735 13.9133 7.84607 13.9133C8.36475 13.9133 8.78674 13.4913 8.78674 12.9726C8.78674 12.4539 8.36475 12.032 7.84607 12.032Z" fill="black"/>
<path d="M13.7102 12.0801H12.1304C12.0239 12.0801 11.9375 11.9937 11.9375 11.8871V10.9827C11.9375 10.8762 12.0239 10.7898 12.1304 10.7898H13.7102C13.8168 10.7898 13.9031 10.8762 13.9031 10.9827V11.8871C13.9031 11.9937 13.8168 12.0801 13.7102 12.0801ZM12.3233 11.6942H13.5173V11.1756H12.3233V11.6942Z" fill="black"/>
<path d="M13.7102 14.2067H12.1304C12.0239 14.2067 11.9375 14.1203 11.9375 14.0137V13.1093C11.9375 13.0027 12.0239 12.9164 12.1304 12.9164H13.7102C13.8168 12.9164 13.9031 13.0027 13.9031 13.1093V14.0137C13.9031 14.1203 13.8168 14.2067 13.7102 14.2067ZM12.3233 13.8208H13.5173V13.3022H12.3233V13.8208Z" fill="black"/>
<path d="M13.7102 16.3331H12.1304C12.0239 16.3331 11.9375 16.2468 11.9375 16.1402V15.2358C11.9375 15.1292 12.0239 15.0428 12.1304 15.0428H13.7102C13.8168 15.0428 13.9031 15.1292 13.9031 15.2358V16.1402C13.9031 16.2468 13.8168 16.3331 13.7102 16.3331ZM12.3233 15.9473H13.5173V15.4287H12.3233V15.9473Z" fill="black"/>
<path d="M13.7102 18.4597H12.1304C12.0239 18.4597 11.9375 18.3734 11.9375 18.2668V17.3624C11.9375 17.2558 12.0239 17.1694 12.1304 17.1694H13.7102C13.8168 17.1694 13.9031 17.2558 13.9031 17.3624V18.2668C13.9031 18.3733 13.8168 18.4597 13.7102 18.4597ZM12.3233 18.0739H13.5173V17.5553H12.3233V18.0739Z" fill="black"/>
<path d="M16.4915 12.0801H14.9117C14.8051 12.0801 14.7188 11.9937 14.7188 11.8871V10.9827C14.7188 10.8762 14.8051 10.7898 14.9117 10.7898H16.4915C16.598 10.7898 16.6844 10.8762 16.6844 10.9827V11.8871C16.6844 11.9937 16.598 12.0801 16.4915 12.0801ZM15.1046 11.6942H16.2986V11.1756H15.1046V11.6942Z" fill="black"/>
<path d="M16.4915 14.2067H14.9117C14.8051 14.2067 14.7188 14.1203 14.7188 14.0137V13.1093C14.7188 13.0027 14.8051 12.9164 14.9117 12.9164H16.4915C16.598 12.9164 16.6844 13.0027 16.6844 13.1093V14.0137C16.6844 14.1203 16.598 14.2067 16.4915 14.2067ZM15.1046 13.8208H16.2986V13.3022H15.1046V13.8208Z" fill="black"/>
<path d="M16.4915 16.3331H14.9117C14.8051 16.3331 14.7188 16.2468 14.7188 16.1402V15.2358C14.7188 15.1292 14.8051 15.0428 14.9117 15.0428H16.4915C16.598 15.0428 16.6844 15.1292 16.6844 15.2358V16.1402C16.6844 16.2468 16.598 16.3331 16.4915 16.3331ZM15.1046 15.9473H16.2986V15.4287H15.1046V15.9473Z" fill="black"/>
<path d="M16.4915 18.4597H14.9117C14.8051 18.4597 14.7188 18.3734 14.7188 18.2668V17.3624C14.7188 17.2558 14.8051 17.1694 14.9117 17.1694H16.4915C16.598 17.1694 16.6844 17.2558 16.6844 17.3624V18.2668C16.6844 18.3733 16.598 18.4597 16.4915 18.4597ZM15.1046 18.0739H16.2986V17.5553H15.1046V18.0739Z" fill="black"/>
<path d="M19.2688 12.0801H17.689C17.5824 12.0801 17.4961 11.9937 17.4961 11.8871V10.9827C17.4961 10.8762 17.5824 10.7898 17.689 10.7898H19.2688C19.3754 10.7898 19.4617 10.8762 19.4617 10.9827V11.8871C19.4617 11.9937 19.3754 12.0801 19.2688 12.0801ZM17.8819 11.6942H19.0759V11.1756H17.8819V11.6942Z" fill="black"/>
<path d="M19.2688 14.2067H17.689C17.5824 14.2067 17.4961 14.1203 17.4961 14.0137V13.1093C17.4961 13.0027 17.5824 12.9164 17.689 12.9164H19.2688C19.3754 12.9164 19.4617 13.0027 19.4617 13.1093V14.0137C19.4617 14.1203 19.3754 14.2067 19.2688 14.2067ZM17.8819 13.8208H19.0759V13.3022H17.8819V13.8208Z" fill="black"/>
<path d="M19.2688 16.3331H17.689C17.5824 16.3331 17.4961 16.2468 17.4961 16.1402V15.2358C17.4961 15.1292 17.5824 15.0428 17.689 15.0428H19.2688C19.3754 15.0428 19.4617 15.1292 19.4617 15.2358V16.1402C19.4617 16.2468 19.3754 16.3331 19.2688 16.3331ZM17.8819 15.9473H19.0759V15.4287H17.8819V15.9473Z" fill="black"/>
<path d="M19.2688 18.4597H17.689C17.5824 18.4597 17.4961 18.3734 17.4961 18.2668V17.3624C17.4961 17.2558 17.5824 17.1694 17.689 17.1694H19.2688C19.3754 17.1694 19.4617 17.2558 19.4617 17.3624V18.2668C19.4617 18.3733 19.3754 18.4597 19.2688 18.4597ZM17.8819 18.0739H19.0759V17.5553H17.8819V18.0739Z" fill="black"/>
</svg>
