<svg width="24" height="24" viewBox="0 0 24 24" fill="none" xmlns="http://www.w3.org/2000/svg">
<path d="M17.0684 15.8003H19.2017V17.4003C19.2017 17.6947 18.9628 17.9336 18.6684 17.9336H17.6017C17.3073 17.9336 17.0684 17.6947 17.0684 17.4003V15.8003Z" stroke="#2D2D2D" stroke-width="1.06667"/>
<path d="M5.33789 15.8003H7.47122V17.4003C7.47122 17.6947 7.23229 17.9336 6.93789 17.9336H5.87122C5.57682 17.9336 5.33789 17.6947 5.33789 17.4003V15.8003Z" stroke="#2D2D2D" stroke-width="1.06667"/>
<path d="M7.46927 10.4668H17.0693C18.2474 10.4668 19.2026 11.422 19.2026 12.6001V15.2668C19.2026 15.5612 18.9637 15.8001 18.6693 15.8001H5.86927C5.57487 15.8001 5.33594 15.5612 5.33594 15.2668V12.6001C5.33594 11.422 6.29114 10.4668 7.46927 10.4668Z" stroke="#2D2D2D" stroke-width="1.06667"/>
<path d="M17.0646 12.6001C17.359 12.6001 17.5979 12.839 17.5979 13.1334C17.5979 13.4278 17.359 13.6668 17.0646 13.6668C16.7702 13.6668 16.5312 13.4278 16.5312 13.1334C16.5312 12.839 16.7702 12.6001 17.0646 12.6001Z" fill="#2D2D2D"/>
<path d="M7.46693 12.6001C7.76133 12.6001 8.00026 12.839 8.00026 13.1334C8.00026 13.4278 7.76133 13.6668 7.46693 13.6668C7.17253 13.6668 6.93359 13.4278 6.93359 13.1334C6.93359 12.839 7.17253 12.6001 7.46693 12.6001Z" fill="#2D2D2D"/>
<path d="M8.37194 6.2002H16.1661C16.3885 6.2002 16.5874 6.33833 16.6653 6.54633L18.1357 10.4669H6.40234L7.87274 6.54633C7.95061 6.33833 8.14954 6.2002 8.37194 6.2002Z" stroke="#2D2D2D" stroke-width="1.06667"/>
<path d="M4.80078 8.8667H6.40078V9.93337H4.80078V8.8667Z" fill="#2D2D2D"/>
<path d="M18.1328 8.8667H19.7328V9.93337H18.1328V8.8667Z" fill="#2D2D2D"/>
<path d="M9.06641 13.1338H15.4664" stroke="#2D2D2D" stroke-width="1.06667"/>
</svg>
