<svg width="24" height="24" viewBox="0 0 24 24" fill="none" xmlns="http://www.w3.org/2000/svg">
<g clip-path="url(#clip0_2343_174467)">
<path d="M23.1652 20.0625H19.1299L19.1344 9.49854C19.0257 4.70548 16.9372 3.60186 14.9175 2.53226C13.9798 2.03567 13.0101 1.52342 12.2423 0.626184C12.1817 0.555309 12.0931 0.515137 12 0.515137C11.999 0.515137 11.9979 0.515512 11.997 0.515512C11.9027 0.516355 11.8137 0.559059 11.7537 0.631855C11.0003 1.54671 10.0667 2.04223 9.07837 2.56686C7.06397 3.63589 4.98108 4.73665 4.86548 9.50586L4.87003 20.0625H0.83475C0.658594 20.0625 0.515625 20.215 0.515625 20.3911V23.1652C0.515625 23.3414 0.658547 23.4844 0.83475 23.4844H23.1653C23.3415 23.4844 23.4844 23.3414 23.4844 23.1652V20.3911C23.4844 20.215 23.3415 20.0625 23.1652 20.0625ZM5.50341 9.51345C5.60977 5.1252 7.43981 4.15639 9.37744 3.12804C10.2829 2.64739 11.2163 2.15328 12.0041 1.31187C12.7991 2.13354 13.7227 2.62325 14.6189 3.09786C16.5615 4.12662 18.3963 5.09389 18.4964 9.50539L18.4919 20.0625H16.5963C16.8143 19.7812 16.9391 19.457 16.9391 19.0738C16.9391 18.6132 16.7633 18.219 16.4301 17.9044C16.8561 17.8868 17.1844 17.7964 17.339 17.5467C17.4251 17.4072 17.4857 17.1728 17.2853 16.8443C17.2448 16.7779 17.1813 16.7289 17.107 16.7059L15.3499 16.164C15.3336 16.048 15.2541 15.9459 15.1367 15.9061L12.8223 15.12L11.744 11.0963C11.7221 11.0016 11.6658 10.9029 11.5865 10.8042L11.8867 9.85076C12.5154 9.51739 12.9282 8.77376 12.9282 7.94782C12.9282 7.80453 12.9236 7.66273 12.8994 7.52389C12.9187 7.48278 12.9375 7.43707 12.9375 7.38875V6.44342C12.9375 5.74962 12.1943 5.26507 11.1563 5.26507C10.1182 5.26507 9.37505 5.74962 9.37505 6.44342V7.38875C9.37505 7.43721 9.39656 7.48301 9.41587 7.52417C9.39164 7.66301 9.38437 7.80476 9.38437 7.94787C9.38437 8.42581 9.5228 8.88143 9.7725 9.24987L9.58786 9.82634C8.70722 10.041 8.15625 11.2844 8.15625 12.1652V17.2231C8.15625 17.7052 8.37005 18.1596 8.70656 18.4927C8.54484 18.5666 8.40258 18.6613 8.27358 18.7468C8.16656 18.8179 8.06634 18.885 7.97259 18.9295C7.86375 18.9812 7.74347 19.0239 7.62666 19.065C7.40442 19.1437 7.17478 19.2201 6.99281 19.3699C6.73603 19.5744 6.59156 19.8281 6.58148 20.0624H5.50814L5.50341 9.51345ZM9.2873 19.0039C9.30539 19.0054 9.38747 19.0142 9.47705 19.0241L9.47766 20.0719L7.27087 20.0712C7.25227 20.0724 7.23787 20.0716 7.2263 20.0702C7.24158 20.0303 7.28527 19.9576 7.39458 19.8704C7.49372 19.7889 7.66172 19.7295 7.83966 19.6666C7.97175 19.6199 8.10844 19.5717 8.24705 19.5058C8.38205 19.4419 8.5072 19.3588 8.62823 19.2783C8.86303 19.1225 9.06553 18.9883 9.2873 19.0039ZM10.1151 19.0312H13.3557C13.5318 19.0312 13.6747 18.8793 13.6747 18.7031C13.6747 18.5269 13.5319 18.375 13.3557 18.375H9.96863C9.93127 18.375 9.89428 18.3807 9.85781 18.3771C9.8513 18.3765 9.85036 18.3802 9.84389 18.38C9.26227 18.2962 8.8125 17.7908 8.8125 17.2232V12.1652C8.8125 11.4874 9.27192 10.4525 9.84834 10.4321C10.1305 10.4765 11.0364 11.0267 11.1278 11.2508L12.2516 15.4498C12.2791 15.5527 12.3555 15.635 12.4563 15.6694L14.649 16.4141L14.4713 17.0758L11.9555 16.4016C11.8001 16.3601 11.6044 16.2717 11.5547 16.0864L10.6517 12.7163C10.6061 12.5461 10.4311 12.4456 10.2611 12.4907C10.0909 12.5363 9.98991 12.7113 10.0355 12.8814L10.9385 16.2516C11.0388 16.6255 11.3414 16.8977 11.7903 17.0179L14.6141 17.7748C14.6143 17.7748 14.6145 17.7749 14.6148 17.7749L15.0515 17.9006C15.6216 18.0534 16.301 18.3768 16.301 19.0738C16.301 19.7601 15.7149 20.0625 15.134 20.0625H10.1156L10.1151 19.0312ZM12.2812 7.0781H10.0312V6.44342C10.0312 6.10517 10.6032 5.90309 11.1563 5.90309C11.7093 5.90309 12.2812 6.10522 12.2812 6.44342V7.0781ZM12.2745 7.68748C12.2848 7.78123 12.2901 7.85675 12.2901 7.9377C12.2901 8.56836 11.9736 9.12781 11.5026 9.32225C11.4153 9.3582 11.3484 9.43362 11.32 9.52376L11.0626 10.3421C10.7902 10.1546 10.485 9.99476 10.2394 9.89637L10.4323 9.287C10.4646 9.18462 10.4434 9.07311 10.3758 8.98981C10.1512 8.71325 10.0275 8.33314 10.0275 7.93765C10.0275 7.85675 10.0328 7.78128 10.0432 7.68753H12.2745V7.68748ZM15.2088 16.7884L16.6854 17.2437C16.389 17.3054 15.7374 17.2504 15.4982 17.23C15.3323 17.2159 15.2013 17.2047 15.1074 17.2047C15.1043 17.2047 15.1006 17.2045 15.0973 17.2043L15.2088 16.7884ZM22.8281 22.8281H1.17188V20.7187H9.79688H15.1341H22.8281V22.8281Z" fill="black"/>
</g>
<defs>
<clipPath id="clip0_2343_174467">
<rect width="24" height="24" fill="white"/>
</clipPath>
</defs>
</svg>
