<svg width="24" height="24" viewBox="0 0 24 24" fill="none" xmlns="http://www.w3.org/2000/svg">
<path fill-rule="evenodd" clip-rule="evenodd" d="M19.6044 20.6143H4.41644C4.21668 20.6143 4.05469 20.4523 4.05469 20.2526C4.05469 20.0528 4.21668 19.8908 4.41644 19.8908H19.6044C19.8042 19.8908 19.9662 20.0528 19.9662 20.2526C19.9662 20.4523 19.8042 20.6143 19.6044 20.6143ZM19.6044 18.6268H4.41644C4.21668 18.6268 4.05469 18.4648 4.05469 18.2651C4.05469 18.0653 4.21668 17.9033 4.41644 17.9033H19.6044C19.8042 17.9033 19.9662 18.0653 19.9662 18.2651C19.9662 18.4648 19.8042 18.6268 19.6044 18.6268Z" fill="black"/>
<path fill-rule="evenodd" clip-rule="evenodd" d="M12.0198 18.6269C11.82 18.6269 11.658 18.4649 11.658 18.2651V17.2159C11.658 16.8368 11.3495 16.5285 10.9706 16.5285H5.46566C5.08656 16.5285 4.77821 16.837 4.77821 17.2159V18.2651C4.77821 18.4649 4.61622 18.6269 4.41646 18.6269C4.21668 18.6269 4.05469 18.4649 4.05469 18.2651V17.2159C4.05469 16.4379 4.68768 15.8049 5.46566 15.8049H10.9706C11.7485 15.8049 12.3816 16.4379 12.3816 17.2159V18.2651C12.3815 18.4649 12.2195 18.6269 12.0198 18.6269Z" fill="black"/>
<path fill-rule="evenodd" clip-rule="evenodd" d="M3.15489 13.5165C3.11814 13.5165 3.08087 13.5109 3.04396 13.4989C2.85372 13.4377 2.74923 13.2338 2.81049 13.0438C3.30226 11.5164 4.74353 10.408 6.23772 10.408H17.7158C19.42 10.408 20.8525 11.4939 21.1993 13.0487C21.2429 13.2437 21.12 13.437 20.925 13.4806C20.7299 13.524 20.5367 13.4013 20.4932 13.2063C20.2163 11.9653 19.1001 11.1315 17.7158 11.1315H6.23754C5.04896 11.1315 3.89714 12.0289 3.49913 13.2655C3.44978 13.4188 3.3077 13.5165 3.15489 13.5165Z" fill="black"/>
<path fill-rule="evenodd" clip-rule="evenodd" d="M21.6625 22.4429H19.6037C19.404 22.4429 19.242 22.2809 19.242 22.0811V16.1042C19.242 15.982 19.2093 15.884 19.1363 15.7861C18.9547 15.5432 18.7383 15.1542 18.7383 14.682C18.7383 13.6312 19.593 12.7765 20.6438 12.7765C21.6945 12.7765 22.5494 13.6312 22.5494 14.682C22.5494 15.0784 22.4117 15.4519 22.1405 15.7918C22.0602 15.8923 22.0243 15.9948 22.0243 16.1234V22.0811C22.0243 22.2809 21.8623 22.4429 21.6625 22.4429ZM19.9655 21.7193H21.3008V16.1232C21.3008 15.8316 21.393 15.5682 21.5751 15.3401C21.7415 15.1317 21.8259 14.9103 21.8259 14.6818C21.8259 14.0301 21.2957 13.4997 20.6438 13.4997C19.992 13.4997 19.4617 14.0299 19.4617 14.6818C19.4617 14.9552 19.6 15.1977 19.7159 15.3529C19.8838 15.5777 19.9655 15.8234 19.9655 16.104L19.9655 21.7193Z" fill="black"/>
<path fill-rule="evenodd" clip-rule="evenodd" d="M4.4246 22.443H2.36599C2.16639 22.443 2.00456 22.2815 2.00422 22.0819L1.99299 16.1127C1.99265 15.9881 1.9588 15.8886 1.8829 15.7897C1.6976 15.5484 1.47656 15.1605 1.47656 14.682C1.47656 13.6312 2.33128 12.7765 3.38219 12.7765C4.43295 12.7765 5.28767 13.6312 5.28767 14.682C5.28767 15.0737 5.15289 15.4458 4.88693 15.7882C4.80934 15.8881 4.77479 15.989 4.77514 16.1152L4.78636 22.0806C4.78654 22.1766 4.74858 22.2688 4.68069 22.3368C4.61279 22.4047 4.52075 22.443 4.4246 22.443ZM2.7269 21.7195H4.06215L4.05144 16.1167C4.05076 15.8306 4.13958 15.5707 4.31535 15.3444C4.48024 15.132 4.56396 14.9093 4.56396 14.6821C4.56396 14.0304 4.03374 13.5 3.38185 13.5C2.72995 13.5 2.19974 14.0302 2.19974 14.6821C2.19974 14.8969 2.29094 15.1337 2.45633 15.349C2.63059 15.5758 2.71567 15.8253 2.71618 16.1113L2.7269 21.7195Z" fill="black"/>
<path fill-rule="evenodd" clip-rule="evenodd" d="M19.6018 18.6269C19.402 18.6269 19.24 18.4649 19.24 18.2651V17.2159C19.24 16.8368 18.9315 16.5285 18.5526 16.5285H13.0477C12.6686 16.5285 12.3602 16.837 12.3602 17.2159V18.2651C12.3602 18.4649 12.1982 18.6269 11.9985 18.6269C11.7987 18.6269 11.6367 18.4649 11.6367 18.2651V17.2159C11.6367 16.4379 12.2697 15.8049 13.0477 15.8049H18.5526C19.3306 15.8049 19.9636 16.4379 19.9636 17.2159V18.2651C19.9636 18.4649 19.8016 18.6269 19.6018 18.6269Z" fill="black"/>
<path fill-rule="evenodd" clip-rule="evenodd" d="M9.2834 13.9004C9.25243 13.9004 9.22094 13.8964 9.18947 13.888C7.83838 13.5259 7.62296 12.3373 7.61446 12.2868C7.58128 12.0898 7.714 11.9031 7.91104 11.8699C8.10741 11.8366 8.29306 11.9683 8.3276 12.1638C8.33475 12.2017 8.48856 12.9511 9.37698 13.1892C9.56995 13.2409 9.68447 13.4393 9.63274 13.6323C9.58919 13.7937 9.44302 13.9004 9.2834 13.9004Z" fill="black"/>
<path fill-rule="evenodd" clip-rule="evenodd" d="M7.97039 15.2127C7.81061 15.2127 7.66444 15.1061 7.62122 14.9445C7.37806 14.0372 6.6062 13.897 6.59854 13.8956C6.4015 13.8624 6.26877 13.6758 6.30196 13.4787C6.33514 13.2818 6.52113 13.1488 6.71886 13.1821C6.76922 13.1906 7.95798 13.4061 8.32008 14.7571C8.37181 14.9501 8.25729 15.1485 8.06433 15.2001C8.03301 15.2086 8.00153 15.2127 7.97039 15.2127Z" fill="black"/>
<path fill-rule="evenodd" clip-rule="evenodd" d="M6.65827 13.9004C6.48487 13.9004 6.33173 13.7753 6.30195 13.5987C6.26895 13.4027 6.40031 13.2169 6.59583 13.1823C6.63359 13.1752 7.38315 13.0215 7.62121 12.1331C7.67293 11.9401 7.87135 11.8258 8.06415 11.8774C8.25711 11.9291 8.37163 12.1275 8.3199 12.3205C7.95796 13.6717 6.76904 13.887 6.71867 13.8955C6.69859 13.8987 6.67835 13.9004 6.65827 13.9004Z" fill="black"/>
<path fill-rule="evenodd" clip-rule="evenodd" d="M7.9718 15.2142C7.95172 15.2142 7.9313 15.2125 7.91071 15.2091C7.71367 15.1759 7.58129 14.9875 7.61447 14.7905C7.62297 14.7401 7.83839 13.5513 9.18949 13.1892C9.38245 13.1373 9.58085 13.252 9.63259 13.445C9.68431 13.638 9.56979 13.8364 9.37683 13.8881C8.48466 14.1272 8.33339 14.882 8.32745 14.914C8.29749 15.0905 8.14485 15.2142 7.9718 15.2142Z" fill="black"/>
<path fill-rule="evenodd" clip-rule="evenodd" d="M17.3615 13.9004C17.3305 13.9004 17.2991 13.8963 17.2676 13.888C15.9165 13.5259 15.7011 12.3371 15.6926 12.2868C15.6594 12.0897 15.7921 11.9031 15.9892 11.8699C16.1852 11.8367 16.371 11.9682 16.4056 12.1637C16.4127 12.2019 16.5665 12.9511 17.4549 13.1891C17.6479 13.2409 17.7624 13.4393 17.7107 13.6322C17.6675 13.7937 17.5213 13.9004 17.3615 13.9004Z" fill="black"/>
<path fill-rule="evenodd" clip-rule="evenodd" d="M16.0501 15.2126C15.8904 15.2126 15.7442 15.106 15.701 14.9444C15.4619 14.0522 14.7071 13.9009 14.6751 13.895C14.478 13.8618 14.3468 13.6753 14.3802 13.4784C14.4134 13.2814 14.6014 13.1487 14.7988 13.1822C14.8491 13.1907 16.0379 13.4061 16.4 14.7572C16.4517 14.9502 16.3372 15.1486 16.1442 15.2003C16.1126 15.2085 16.0811 15.2126 16.0501 15.2126Z" fill="black"/>
<path fill-rule="evenodd" clip-rule="evenodd" d="M14.7364 13.9006C14.563 13.9006 14.4099 13.7755 14.3801 13.5989C14.3471 13.4029 14.4784 13.217 14.674 13.1825C14.7117 13.1754 15.4613 13.0217 15.6995 12.1331C15.7512 11.9401 15.9497 11.8258 16.1426 11.8774C16.3356 11.9291 16.4501 12.1275 16.3984 12.3205C16.0363 13.6715 14.8475 13.887 14.7971 13.8955C14.7767 13.8989 14.7565 13.9006 14.7364 13.9006Z" fill="black"/>
<path fill-rule="evenodd" clip-rule="evenodd" d="M16.0497 15.2125C16.0298 15.2125 16.0096 15.2108 15.9892 15.2074C15.7921 15.1742 15.6594 14.9875 15.6926 14.7905C15.7011 14.7401 15.9165 13.5513 17.2676 13.1892C17.4606 13.1373 17.659 13.252 17.7107 13.445C17.7624 13.638 17.6479 13.8364 17.4549 13.8881C16.5476 14.1312 16.4074 14.9031 16.4061 14.9108C16.3761 15.0874 16.223 15.2125 16.0497 15.2125Z" fill="black"/>
<path fill-rule="evenodd" clip-rule="evenodd" d="M16.7336 9.3258H7.28845C6.82783 9.3258 6.45312 8.9511 6.45312 8.49046V2.46471C6.45312 2.00409 6.82782 1.62939 7.28845 1.62939H16.7336C17.1942 1.62939 17.5689 2.00409 17.5689 2.46471V8.49046C17.5689 8.95111 17.1942 9.3258 16.7336 9.3258ZM7.28845 2.35275C7.22788 2.35275 7.17665 2.40397 7.17665 2.46455V8.4903C7.17665 8.55088 7.22788 8.60209 7.28845 8.60209L16.7336 8.60226C16.7942 8.60226 16.8454 8.55104 16.8454 8.49046V2.46471C16.8454 2.40414 16.7942 2.35292 16.7336 2.35292L7.28845 2.35275Z" fill="black"/>
<path fill-rule="evenodd" clip-rule="evenodd" d="M12.6978 9.32591C12.5831 9.32591 12.4703 9.27146 12.4 9.17003L9.75742 5.35229L7.2295 9.00448C7.11584 9.16868 6.89054 9.20969 6.72616 9.09601C6.56196 8.98235 6.52095 8.75688 6.63462 8.59268L9.45997 4.51084C9.52754 4.41316 9.63866 4.35498 9.75742 4.35498C9.8762 4.35498 9.98731 4.41317 10.0549 4.51084L12.9947 8.75825C13.1084 8.92262 13.0674 9.14791 12.9032 9.26159C12.8406 9.30514 12.7688 9.32591 12.6978 9.32591Z" fill="black"/>
<path fill-rule="evenodd" clip-rule="evenodd" d="M12.6935 9.32591C12.6278 9.32591 12.5615 9.30803 12.5018 9.2706C12.3324 9.16458 12.2812 8.94134 12.3872 8.77203L14.5314 5.35059C14.5961 5.24747 14.7081 5.18383 14.8297 5.18094C14.9506 5.1794 15.0663 5.23675 15.1353 5.33664L17.389 8.59251C17.5026 8.75688 17.4616 8.98218 17.2974 9.09585C17.1332 9.20951 16.9077 9.1685 16.7941 9.0043L14.8529 6.19986L13.0003 9.15608C12.9318 9.26585 12.814 9.32591 12.6935 9.32591Z" fill="black"/>
<path fill-rule="evenodd" clip-rule="evenodd" d="M12.6575 5.64727C11.9525 5.64727 11.3789 5.07366 11.3789 4.36868C11.3789 3.66372 11.9525 3.09009 12.6575 3.09009C13.3626 3.09009 13.9361 3.66371 13.9361 4.36868C13.9361 5.07367 13.3625 5.64727 12.6575 5.64727ZM12.6575 3.81345C12.3514 3.81345 12.1024 4.06257 12.1024 4.36868C12.1024 4.67481 12.3516 4.92375 12.6575 4.92375C12.9636 4.92375 13.2127 4.67463 13.2127 4.36868C13.2127 4.06273 12.9636 3.81345 12.6575 3.81345Z" fill="black"/>
</svg>
