<svg width="24" height="24" viewBox="0 0 24 24" fill="none" xmlns="http://www.w3.org/2000/svg">
<path d="M19.9125 13.0933H16.8268C16.3782 13.0933 16.0146 13.4569 16.0146 13.9054C16.0146 14.354 16.3782 14.7176 16.8268 14.7176H17.9523L14.0563 18.6136C13.7391 18.9308 13.7391 19.445 14.0563 19.7622C14.3734 20.0793 14.8876 20.0794 15.2048 19.7622L19.1009 15.8662V16.9917C19.1009 17.4403 19.4645 17.8039 19.9131 17.8039C20.3617 17.8039 20.7253 17.4403 20.7253 16.9917V13.9054C20.7253 13.9053 20.7253 13.9052 20.7253 13.9051C20.725 13.4637 20.3664 13.0929 19.9125 13.0933Z" fill="#2D2D2D"/>
<path d="M21.5774 4H16.7855C16.3369 4 15.9733 4.36361 15.9733 4.81218V8.79188H11.9936C11.5451 8.79188 11.1815 9.15549 11.1815 9.60406V13.5838H7.20176C6.75319 13.5838 6.38958 13.9474 6.38958 14.3959V18.3756H2.40984C1.96127 18.3756 1.59766 18.7392 1.59766 19.1878C1.59766 19.6364 1.96127 20 2.40984 20H7.20176C7.41715 20 7.62377 19.9144 7.77605 19.7621C7.92838 19.6098 8.01394 19.4032 8.01394 19.1878L8.0139 15.2081H11.9936C12.209 15.2081 12.4156 15.1226 12.5679 14.9702C12.7203 14.8179 12.8058 14.6113 12.8058 14.3959L12.8058 10.4162H16.7855C17.0009 10.4162 17.2075 10.3307 17.3598 10.1784C17.5121 10.0261 17.5977 9.81945 17.5977 9.60406L17.5976 5.62437H21.5774C22.0259 5.62437 22.3895 5.26075 22.3895 4.81218C22.3895 4.36361 22.0259 4 21.5774 4Z" fill="#2D2D2D"/>
</svg>
