<svg width="24" height="24" viewBox="0 0 24 24" fill="none" xmlns="http://www.w3.org/2000/svg">
<path d="M19.1885 7.15479H16.2657C15.8166 7.15479 15.4527 7.51844 15.4527 7.96764V10.0777H13.3427C12.8935 10.0777 12.5295 10.4413 12.5295 10.8905V13.0007H10.4194C9.97023 13.0007 9.60644 13.3648 9.60644 13.8135V16.0254H7.39505C7.17927 16.0254 6.9725 16.111 6.8201 16.2632C6.66758 16.4156 6.58203 16.6233 6.58203 16.8382L6.58229 18.5389C6.58229 18.9885 6.94635 19.3521 7.39528 19.3521H19.1885C19.6377 19.3521 20.0014 18.9885 20.0014 18.5389V7.96761C20.0015 7.51844 19.6377 7.15479 19.1885 7.15479Z" fill="#2D2D2D"/>
<path d="M14.9079 4.81165C14.6987 4.59716 14.356 4.59303 14.1416 4.80172C10.6649 8.1885 7.35736 11.4964 4.15883 14.6947C4.05705 14.7964 4 14.9347 4 15.0782V18.7873C4 19.0862 4.24256 19.3294 4.54197 19.3294C4.84109 19.3294 5.08407 19.0863 5.08407 18.7873V15.3025C8.2307 12.1557 11.4839 8.9042 14.8978 5.57801C15.1121 5.36935 15.1164 5.02601 14.9079 4.81165Z" fill="#2D2D2D"/>
</svg>
