<svg width="24" height="24" viewBox="0 0 24 24" fill="none" xmlns="http://www.w3.org/2000/svg">
<g clip-path="url(#clip0_2343_174454)">
<path d="M21.7702 15.0251C21.7702 15.2005 21.9124 15.3427 22.0878 15.3427C22.2632 15.3427 22.4054 15.2005 22.4054 15.0251C22.4054 13.7412 22.6816 13.2211 22.9035 12.8031C23.0496 12.5278 23.1877 12.2677 23.1877 11.8955C23.1877 11.0378 22.4339 9.93609 22.3479 9.81328C22.2474 9.66965 22.0496 9.63481 21.9059 9.73521C21.7622 9.83569 21.7272 10.0336 21.8275 10.1774C22.0292 10.4661 22.5526 11.3377 22.5526 11.8955C22.5526 12.1095 22.469 12.267 22.3425 12.5052C22.101 12.9601 21.7702 13.5831 21.7702 15.0251ZM19.9329 15.0251C19.9329 15.2005 20.0751 15.3427 20.2505 15.3427C20.4258 15.3427 20.568 15.2005 20.568 15.0251C20.568 13.7412 20.8442 13.2211 21.0661 12.8031C21.2123 12.5278 21.3504 12.2677 21.3504 11.8955C21.3504 11.0378 20.5966 9.93609 20.5106 9.81328C20.4101 9.66965 20.2123 9.63481 20.0685 9.73521C19.9249 9.83569 19.8898 10.0336 19.9902 10.1774C20.1919 10.4661 20.7153 11.3377 20.7153 11.8955C20.7153 12.1095 20.6317 12.267 20.5052 12.5052C20.2636 12.9601 19.9329 13.5831 19.9329 15.0251ZM1.59466 15.0251C1.59466 15.2005 1.73684 15.3427 1.91221 15.3427C2.08759 15.3427 2.22978 15.2005 2.22978 15.0251C2.22978 13.5831 1.899 12.9601 1.65749 12.5052C1.53096 12.267 1.44738 12.1096 1.44738 11.8955C1.44738 11.3377 1.97078 10.4661 2.17249 10.1774C2.27293 10.0337 2.23796 9.83582 2.09434 9.73526C1.95067 9.6347 1.75262 9.66963 1.65206 9.81329C1.56612 9.9361 0.812256 11.0377 0.812256 11.8955C0.812256 12.2677 0.95034 12.5278 1.09652 12.8031C1.31844 13.2211 1.59466 13.7412 1.59466 15.0251ZM3.43198 15.0251C3.43198 15.2005 3.57416 15.3427 3.74953 15.3427C3.92491 15.3427 4.0671 15.2005 4.0671 15.0251C4.0671 13.5831 3.73632 12.9601 3.49481 12.5052C3.36828 12.267 3.2847 12.1096 3.2847 11.8955C3.2847 11.3377 3.8081 10.4661 4.0098 10.1774C4.11024 10.0337 4.07528 9.83582 3.93166 9.73526C3.78799 9.6347 3.58993 9.66963 3.48938 9.81329C3.40344 9.9361 2.64958 11.0377 2.64958 11.8955C2.64958 12.2677 2.78766 12.5278 2.93384 12.8031C3.15577 13.2211 3.43198 13.7412 3.43198 15.0251ZM23.6824 15.9395H18.5776C18.8648 15.5475 18.9588 15.0172 18.7812 14.5291L17.1595 10.0321C16.6331 8.5858 15.2453 7.61407 13.7062 7.61407H10.2938C8.75462 7.61407 7.36687 8.58579 6.84017 10.0329L5.21908 14.5282C5.04121 15.0169 5.13518 15.5474 5.4224 15.9395H0.317556C0.142176 15.9395 0 16.0817 0 16.2571C0 16.4325 0.142188 16.5747 0.317556 16.5747H8.98367V20.2089C8.98367 21.1275 9.73098 21.8748 10.6495 21.8748C11.2048 21.8748 11.6971 21.6015 12 21.1826C12.3029 21.6015 12.7952 21.8748 13.3504 21.8748C14.269 21.8748 15.0163 21.1275 15.0163 20.2089V16.5747H23.6824C23.8578 16.5747 24 16.4325 24 16.2571C24 16.0817 23.8578 15.9395 23.6824 15.9395ZM8.95352 15.9395H7.77593C7.86037 15.8259 7.92901 15.6994 7.97894 15.5622C7.9796 15.5603 7.98026 15.5585 7.98088 15.5566L8.96377 12.6927L8.95352 15.9395ZM11.6803 20.2089C11.6803 20.7773 11.2179 21.2396 10.6495 21.2396C10.0812 21.2396 9.6188 20.7773 9.6188 20.2089V16.2539C9.6188 15.6856 10.0812 15.2232 10.6495 15.2232C11.2179 15.2232 11.6803 15.6856 11.6803 16.2539V20.2089ZM14.3812 20.2089C14.3812 20.7773 13.9188 21.2396 13.3504 21.2396C12.7821 21.2396 12.3197 20.7773 12.3197 20.2089V16.2539C12.3197 15.6856 12.7821 15.2232 13.3504 15.2232C13.9188 15.2232 14.3812 15.6856 14.3812 16.2539V20.2089ZM15.0322 15.9395L15.0309 12.6773L16.0191 15.5566C16.0197 15.5585 16.0203 15.5603 16.021 15.5622C16.0709 15.6994 16.1396 15.8259 16.224 15.9395H15.0322ZM17.7212 15.8349C17.5079 15.9214 17.2748 15.9175 17.065 15.8243C16.8561 15.7313 16.6977 15.5621 16.6188 15.3476L15.013 10.6683C14.9626 10.5214 14.8136 10.4323 14.6603 10.4581C14.5071 10.4837 14.395 10.6162 14.395 10.7715L14.3967 14.9589C14.1105 14.7272 13.7465 14.5881 13.3504 14.5881C12.7952 14.5881 12.3029 14.8614 12 15.2803C11.6971 14.8614 11.2048 14.5881 10.6495 14.5881C10.2482 14.5881 9.87962 14.7307 9.59172 14.968L9.60496 10.7723C9.60546 10.6169 9.49339 10.484 9.34015 10.4582C9.18668 10.4325 9.03746 10.5213 8.98704 10.6683L7.38119 15.3475C7.30234 15.562 7.14395 15.7313 6.93492 15.8243C6.7252 15.9176 6.49214 15.9214 6.2787 15.8349C5.8657 15.6678 5.65811 15.179 5.81623 14.7445L7.43732 10.2493C7.87273 9.05294 9.02065 8.24918 10.2938 8.24918H13.7062C14.9793 8.24918 16.1272 9.05294 16.5624 10.2484L18.184 14.7454C18.3419 15.179 18.1343 15.6678 17.7212 15.8349ZM12 7.23362C13.4084 7.23362 14.5542 6.08779 14.5542 4.67937C14.5542 3.27095 13.4084 2.12512 12 2.12512C10.5916 2.12512 9.44575 3.27095 9.44575 4.67937C9.44575 6.08779 10.5916 7.23362 12 7.23362ZM12 2.76025C13.0582 2.76025 13.9191 3.62115 13.9191 4.67936C13.9191 5.73757 13.0582 6.59848 12 6.59848C10.9418 6.59848 10.0809 5.73758 10.0809 4.67937C10.0809 3.62116 10.9418 2.76025 12 2.76025Z" fill="black"/>
</g>
<defs>
<clipPath id="clip0_2343_174454">
<rect width="24" height="24" fill="white"/>
</clipPath>
</defs>
</svg>
