<svg width="24" height="24" viewBox="0 0 24 24" fill="none" xmlns="http://www.w3.org/2000/svg">
<path d="M19.3828 23.9531H4.61719C2.8725 23.9531 1.45312 22.5338 1.45312 20.7891V3.21094C1.45312 1.46625 2.8725 0.046875 4.61719 0.046875H19.3828C21.1275 0.046875 22.5469 1.46625 22.5469 3.21094V20.7891C22.5469 22.5338 21.1275 23.9531 19.3828 23.9531ZM4.61719 0.75C3.26025 0.75 2.15625 1.854 2.15625 3.21094V20.7891C2.15625 22.146 3.26025 23.25 4.61719 23.25H19.3828C20.7397 23.25 21.8438 22.146 21.8438 20.7891V3.21094C21.8438 1.854 20.7397 0.75 19.3828 0.75H4.61719Z" fill="black"/>
<path d="M22.1953 6.375H18.8555C18.6613 6.375 18.5039 6.21764 18.5039 6.02344C18.5039 5.82923 18.6613 5.67188 18.8555 5.67188H22.1953C22.3895 5.67188 22.5469 5.82923 22.5469 6.02344C22.5469 6.21764 22.3895 6.375 22.1953 6.375Z" fill="black"/>
<path d="M16.043 6.375H1.80469C1.61048 6.375 1.45312 6.21764 1.45312 6.02344C1.45312 5.82923 1.61048 5.67188 1.80469 5.67188H16.043C16.2372 5.67188 16.3945 5.82923 16.3945 6.02344C16.3945 6.21764 16.2372 6.375 16.043 6.375Z" fill="black"/>
<path d="M4.61719 4.61719C3.84178 4.61719 3.21094 3.98634 3.21094 3.21094C3.21094 2.43553 3.84178 1.80469 4.61719 1.80469C5.39259 1.80469 6.02344 2.43553 6.02344 3.21094C6.02344 3.98634 5.39259 4.61719 4.61719 4.61719ZM4.61719 2.50781C4.22944 2.50781 3.91406 2.82323 3.91406 3.21094C3.91406 3.59864 4.22944 3.91406 4.61719 3.91406C5.00489 3.91406 5.32031 3.59864 5.32031 3.21094C5.32031 2.82323 5.00489 2.50781 4.61719 2.50781Z" fill="black"/>
<path d="M8.48438 4.61719C7.70897 4.61719 7.07812 3.98634 7.07812 3.21094C7.07812 2.43553 7.70897 1.80469 8.48438 1.80469C9.25978 1.80469 9.89062 2.43553 9.89062 3.21094C9.89062 3.98634 9.25978 4.61719 8.48438 4.61719ZM8.48438 2.50781C8.09662 2.50781 7.78125 2.82323 7.78125 3.21094C7.78125 3.59864 8.09662 3.91406 8.48438 3.91406C8.87208 3.91406 9.1875 3.59864 9.1875 3.21094C9.1875 2.82323 8.87208 2.50781 8.48438 2.50781Z" fill="black"/>
<path d="M19.3828 4.61719H15.5156C14.7383 4.61719 14.1094 3.98827 14.1094 3.21094C14.1094 2.43553 14.7402 1.80469 15.5156 1.80469H19.3828C20.1601 1.80469 20.7891 2.43361 20.7891 3.21094C20.7891 3.98634 20.1582 4.61719 19.3828 4.61719ZM15.5156 2.50781C15.1279 2.50781 14.8125 2.82323 14.8125 3.21094C14.8125 3.59948 15.127 3.91406 15.5156 3.91406H19.3828C19.7706 3.91406 20.0859 3.59864 20.0859 3.21094C20.0859 2.82239 19.7715 2.50781 19.3828 2.50781H15.5156Z" fill="black"/>
<path d="M12 22.1953C7.90659 22.1953 4.61719 18.8696 4.61719 14.8125C4.61719 10.7416 7.92909 7.42969 12 7.42969C16.0709 7.42969 19.3828 10.7416 19.3828 14.8125C19.3828 18.8738 16.0893 22.1953 12 22.1953ZM12 8.13281C8.3168 8.13281 5.32031 11.1293 5.32031 14.8125C5.32031 18.4649 8.27798 21.4922 12 21.4922C15.7105 21.4922 18.6797 18.4759 18.6797 14.8125C18.6797 11.1293 15.6832 8.13281 12 8.13281Z" fill="black"/>
<path d="M11.1348 20.3709C10.943 20.341 10.8117 20.1612 10.8417 19.9694C10.8716 19.7776 11.0517 19.6463 11.2432 19.6763C13.3259 20.0013 15.3881 18.9483 16.3605 17.098C15.2548 15.807 15.2144 13.8617 16.3604 12.5269C15.5149 10.9179 13.8285 9.89062 12.0004 9.89062C9.26743 9.89062 7.07856 12.0922 7.07856 14.8125C7.07856 16.2873 7.7319 17.6721 8.87115 18.612C9.02092 18.7355 9.04215 18.957 8.91864 19.1069C8.79512 19.2567 8.5735 19.2779 8.42373 19.1543C7.03628 18.0098 6.29729 16.2975 6.38148 14.5613C6.51132 11.5845 8.96429 9.1875 12.0004 9.1875C14.1787 9.1875 16.1808 10.4638 17.1012 12.4388C17.1634 12.5722 17.1359 12.7302 17.0324 12.8347C15.9371 13.9409 15.9587 15.7059 17.0324 16.7902C17.1359 16.8948 17.1634 17.0528 17.1012 17.1861C16.0547 19.432 13.6208 20.7589 11.1348 20.3709Z" fill="black"/>
<path d="M22.1937 20.4375H16.6484C16.4542 20.4375 16.2969 20.2801 16.2969 20.0859C16.2969 19.8917 16.4542 19.7344 16.6484 19.7344H22.1937C22.388 19.7344 22.5453 19.8917 22.5453 20.0859C22.5453 20.2801 22.388 20.4375 22.1937 20.4375Z" fill="black"/>
<path d="M7.35 20.4375H1.80469C1.61048 20.4375 1.45312 20.2801 1.45312 20.0859C1.45312 19.8917 1.61048 19.7344 1.80469 19.7344H7.35C7.5442 19.7344 7.70156 19.8917 7.70156 20.0859C7.70156 20.2801 7.54416 20.4375 7.35 20.4375Z" fill="black"/>
<path d="M15.5156 15.3984C14.988 15.3984 14.7013 15.2455 14.4708 15.1227C14.2686 15.0148 14.1089 14.9297 13.7573 14.9297C13.4058 14.9297 13.2461 15.0149 13.0439 15.1227C12.8135 15.2455 12.5269 15.3984 11.9995 15.3984C11.4721 15.3984 11.1855 15.2455 10.9552 15.1226C10.753 15.0148 10.5934 14.9297 10.2422 14.9297C9.89062 14.9297 9.73092 15.0149 9.5287 15.1227C9.29836 15.2455 9.01172 15.3984 8.48438 15.3984C7.95703 15.3984 7.67039 15.2455 7.44005 15.1227C7.23872 15.0152 7.07967 14.9304 6.73144 14.9297H6.72656C6.53236 14.9297 6.375 14.7723 6.375 14.5781C6.375 14.3839 6.53236 14.2266 6.72656 14.2266H6.73219C7.2562 14.2277 7.54162 14.3799 7.77094 14.5023C7.97316 14.6101 8.13286 14.6953 8.48438 14.6953C8.83594 14.6953 8.99564 14.6101 9.19786 14.5023C9.4282 14.3795 9.71484 14.2266 10.2422 14.2266C10.7692 14.2266 11.0558 14.3795 11.2861 14.5023C11.4883 14.6101 11.648 14.6953 11.9996 14.6953C12.3511 14.6953 12.5108 14.6101 12.7131 14.5023C12.9434 14.3795 13.23 14.2266 13.7574 14.2266C14.2846 14.2266 14.5713 14.3794 14.8017 14.5022C15.0039 14.6101 15.1638 14.6953 15.5156 14.6953C15.6251 14.6953 15.7199 14.6871 15.8055 14.6701C15.9962 14.6328 16.1809 14.7563 16.2187 14.9467C16.2564 15.1372 16.1325 15.3222 15.9421 15.3599C15.811 15.3858 15.6715 15.3984 15.5156 15.3984Z" fill="black"/>
<path d="M17.4492 6.375C17.6434 6.375 17.8008 6.2176 17.8008 6.02344C17.8008 5.82927 17.6434 5.67188 17.4492 5.67188C17.2551 5.67188 17.0977 5.82927 17.0977 6.02344C17.0977 6.2176 17.2551 6.375 17.4492 6.375Z" fill="black"/>
<path d="M9.83984 19.9805C10.034 19.9805 10.1914 19.8231 10.1914 19.6289C10.1914 19.4347 10.034 19.2773 9.83984 19.2773C9.64568 19.2773 9.48828 19.4347 9.48828 19.6289C9.48828 19.8231 9.64568 19.9805 9.83984 19.9805Z" fill="black"/>
</svg>
