<svg width="24" height="24" viewBox="0 0 24 24" fill="none" xmlns="http://www.w3.org/2000/svg">
<path d="M21.4841 10.027C16.4496 5.25586 8.69804 5.00474 3.37817 9.27447C3.08308 9.51133 2.79536 9.76216 2.5159 10.027C2.21525 10.3119 1.74055 10.2992 1.45562 9.99853C1.1707 9.69788 1.18345 9.22317 1.4841 8.93825C1.79344 8.64509 2.11215 8.36722 2.43923 8.10468C8.33906 3.36946 16.9325 3.64701 22.5159 8.93825C22.8165 9.22317 22.8293 9.69787 22.5444 9.99852C22.2595 10.2992 21.7847 10.3119 21.4841 10.027Z" fill="black"/>
<path d="M4.46968 12.3691C8.62856 8.21029 15.3714 8.21029 19.5303 12.3691C19.8232 12.662 19.8232 13.1369 19.5303 13.4298C19.2374 13.7227 18.7626 13.7227 18.4697 13.4298C14.8966 9.85674 9.10344 9.85674 5.53034 13.4298C5.23744 13.7227 4.76257 13.7227 4.46968 13.4298C4.17678 13.1369 4.17678 12.662 4.46968 12.3691Z" fill="black"/>
<path d="M7.46968 15.6265C9.97171 13.1245 14.0283 13.1245 16.5303 15.6265C16.8232 15.9194 16.8232 16.3943 16.5303 16.6872C16.2374 16.9801 15.7626 16.9801 15.4697 16.6872C13.5534 14.7709 10.4466 14.7709 8.53033 16.6872C8.23743 16.9801 7.76257 16.9801 7.46968 16.6872C7.17678 16.3943 7.17678 15.9194 7.46968 15.6265Z" fill="black"/>
<path d="M12 20C12.6903 20 13.25 19.4403 13.25 18.75C13.25 18.0596 12.6903 17.5 12 17.5C11.3096 17.5 10.75 18.0596 10.75 18.75C10.75 19.4403 11.3096 20 12 20Z" fill="black"/>
</svg>
