<svg width="136" height="97" viewBox="0 0 136 97" fill="none" xmlns="http://www.w3.org/2000/svg">
<g clip-path="url(#clip0_2635_67123)">
<path d="M14.2644 94.1207C10.7361 94.3501 8.91252 86.1992 8.19729 84.0817C6.94575 80.3775 5.1806 76.2414 6.0042 72.3235C7.46592 65.3677 15.4016 60.6025 18.2801 54.2732C19.6179 51.3316 19.0554 47.9667 19.0866 44.8668C19.1158 41.7155 20.2903 38.6101 21.9732 35.7648C26.5308 28.06 36.1207 24.0025 46.4314 24.4808C50.4813 24.6683 52.6674 27.2248 56.0031 28.7531C60.1363 30.6463 64.5239 30.9104 69.2125 30.9109C71.5175 30.9109 73.8905 31.0621 76.1522 30.7143C78.3029 30.3847 80.2077 29.5868 82.2748 29.0641C86.2517 28.059 91.0713 27.6724 95.2286 28.0757C99.012 28.4431 104.496 30.0369 107.441 32.052C109.739 33.6247 109.535 35.2663 110.026 37.4574C111.754 45.1758 119.491 47.8265 125.74 52.6794C130.887 56.6755 129.297 64.0128 125.798 68.4292C123.154 71.768 120.176 74.9011 117.649 78.315C115.45 81.2843 114.562 84.3635 112.776 87.4276C110.223 91.8127 104.659 93.9967 99.4354 93.9836C92.4862 93.9655 86.5012 93.9786 80.1966 93.9786C60.4296 93.9786 42.1954 93.9655 22.2595 93.9655C19.8059 93.9645 14.2644 94.1207 14.2644 94.1207Z" fill="white"/>
<path d="M71.605 88.3838C71.6443 88.8803 71.291 89.6439 71.291 89.6439L73.3641 90.7578L74.6172 90.2936L74.8914 89.9912L75.0088 89.0108C75.0088 89.0108 71.5657 87.8878 71.605 88.3838Z" fill="#F9A17B"/>
<path d="M73.9182 94.0185C73.6813 94.0689 68.9972 94.0725 68.2225 94.077H68.1721C66.9579 94.077 67.0012 94.1677 66.66 93.6738C66.4982 93.4409 66.6257 92.5145 67.8223 91.6904C67.8223 91.6904 71.216 89.153 71.4323 89.1933C71.8617 89.273 72.2191 90.1848 73.5099 90.3783C74.6581 90.5502 74.7423 89.9393 74.9565 89.9852C75.0891 90.0139 75.2146 90.7458 75.0573 91.9373C74.9001 93.1289 74.3078 93.9339 73.9182 94.0185Z" fill="#698B75"/>
<path d="M81.1862 17.6799C81.1862 17.6799 82.3067 16.1724 83.7507 16.2071C85.1948 16.2419 85.3334 16.6184 85.3284 17.1462C85.3234 17.6739 82.3203 20.4824 80.8974 20.9613C79.4744 21.4401 81.1862 17.6799 81.1862 17.6799Z" fill="#F9A17B"/>
<path d="M91.6115 3.02696C91.6811 1.54609 90.736 0.113602 88.4945 0.0062408C87.4632 -0.0441634 86.3367 0.21441 85.6719 0.649398L86.0802 1.89992C86.5842 1.55466 87.3765 1.35657 88.0767 1.39135C89.303 1.47048 89.8947 2.16303 89.8464 3.15549C89.8045 4.03152 89.2808 4.76843 88.3549 5.75836C87.3236 6.87935 86.9169 8.01294 86.9834 9.06992L86.9975 9.5785L88.5172 9.65259L88.5227 9.14502C88.5101 8.15004 88.863 7.3088 89.7702 6.336C90.7597 5.27045 91.546 4.35209 91.6115 3.02696ZM88.7551 12.4021C88.7899 11.6809 88.3468 11.1516 87.6638 11.1183C86.9809 11.0851 86.4713 11.5695 86.4355 12.2887C86.4027 12.9712 86.8458 13.5201 87.5268 13.5519C88.249 13.5846 88.7223 13.0801 88.7551 12.3996V12.4021Z" fill="url(#paint0_linear_2635_67123)"/>
<path d="M97.1832 7.42118C96.6343 7.14447 95.9609 7.01442 95.4952 7.09104L95.4166 7.86827C95.775 7.80174 96.2513 7.88591 96.6263 8.06989C97.2735 8.4086 97.4282 8.92676 97.1621 9.456C96.9282 9.92173 96.4675 10.1959 95.7245 10.5105C94.8954 10.8713 94.4004 11.3895 94.1822 11.9792L94.0673 12.26L94.8737 12.6632L95.0002 12.3895C95.2326 11.8452 95.6278 11.4732 96.3561 11.1627C97.149 10.822 97.7962 10.5125 98.1525 9.80732C98.5447 9.02605 98.3758 8.01898 97.1832 7.42118ZM94.0557 13.257C93.6933 13.075 93.2996 13.2151 93.1076 13.5982C92.9236 13.9601 93.032 14.3639 93.3954 14.5478C93.7789 14.7399 94.156 14.5796 94.3405 14.2167C94.5345 13.8351 94.4196 13.4404 94.0557 13.257Z" fill="url(#paint1_linear_2635_67123)"/>
<path d="M82.0379 10.3116C81.7803 9.77633 81.7596 9.23499 82.0021 8.48346C82.2657 7.66036 82.4557 6.96831 82.1588 6.23846C81.8242 5.42292 80.9532 4.89065 79.7203 5.39721C79.1527 5.63008 78.6114 6.05247 78.3594 6.4557L78.8947 7.02577C79.0786 6.71125 79.4552 6.40631 79.8418 6.24703C80.5217 5.9814 81.0147 6.2057 81.2385 6.75107C81.4371 7.23293 81.3393 7.76319 81.0913 8.52882C80.8196 9.39275 80.8861 10.1045 81.1865 10.6569L81.3231 10.9276L82.1593 10.5833L82.0379 10.3116ZM82.9824 12.0032C82.8201 11.6065 82.4472 11.4321 82.0752 11.5873C81.7032 11.7426 81.5459 12.1292 81.7092 12.5264C81.864 12.9019 82.24 13.0869 82.6165 12.9296C83.0092 12.7693 83.1362 12.3787 82.9824 12.0032Z" fill="url(#paint2_linear_2635_67123)"/>
<path d="M71.7456 26.8652C71.3842 30.3214 74.5314 35.0357 75.3323 37.5328C75.6534 38.5333 75.786 39.621 75.786 39.621L78.2361 29.645C71.989 27.3925 81.21 21.4715 81.21 21.4715C81.21 21.4715 82.0356 17.176 80.6595 17.7229C79.2835 18.2698 72.3459 21.1328 71.7456 26.8652Z" fill="url(#paint3_linear_2635_67123)"/>
<path d="M81.8099 24.7822C81.3749 24.6178 81.0034 24.1773 80.7907 23.6612C80.6718 23.3693 80.6002 23.076 80.6451 22.7489C80.6733 22.5427 80.9283 22.2332 80.9374 22.1067C80.955 21.8466 80.7166 21.6102 80.6304 21.3562C80.5251 21.0457 80.518 20.7574 80.4873 20.4333C80.4369 19.8748 80.3194 19.1601 81.0196 18.9746C81.0196 18.9746 81.013 18.9786 81.0145 18.9781C81.2706 18.1863 81.4178 17.4 82.1799 16.8743C82.7525 16.4786 83.7721 16.1404 84.436 16.4897C84.436 16.4856 84.4254 16.4897 84.4314 16.4922C84.7056 14.6313 88.246 15.215 88.559 16.7296C90.2652 16.5088 91.1397 17.7059 90.8302 19.2952C91.5712 18.5119 92.0757 19.71 92.0858 20.3007C92.0954 20.8083 91.9633 21.6954 91.7143 21.9999C91.7143 21.9999 92.6775 24.7428 88.617 26.2071" fill="#698B75"/>
<path d="M90.2238 48.5696C90.2238 48.5696 89.4173 48.3897 88.8382 48.7516C88.3528 49.054 87.8593 49.3595 87.6854 49.4573C87.3054 49.6659 88.1522 50.1191 88.5867 49.7965C88.7187 49.6982 89.0262 49.4462 89.2923 49.6034C89.7384 49.864 90.1628 49.5132 90.1628 49.5132L90.1442 48.8947L90.2238 48.5696Z" fill="#F9A17B"/>
<path d="M91.7593 88.3838C91.7194 88.8803 92.0733 89.6439 92.0733 89.6439L90.0002 90.7578L88.7471 90.2936L88.4729 89.9912L88.3555 89.0108C88.3555 89.0108 91.7981 87.8878 91.7593 88.3838Z" fill="#F9A17B"/>
<path d="M71.0977 88.7357L75.3437 89.0885L81.3307 61.2261L88.1806 89.021L92.2664 88.8436L89.2588 53.3228L73.8936 53.9594L72.8709 62.8199C72.1325 72.6996 71.0977 88.7357 71.0977 88.7357Z" fill="#2D2D2D"/>
<path d="M73.9033 54.003L73.8922 54.0907L89.2579 53.4546C89.2579 53.4546 89.2412 53.3478 89.2176 53.1522C89.0912 52.0749 89.0387 50.9902 89.0603 49.9057C89.0633 49.7444 89.0679 49.5811 89.0744 49.4147C89.0875 49.1002 89.1072 48.7771 89.1354 48.4465C89.1525 48.2343 89.1732 47.7912 89.1949 47.2166C89.2705 45.2176 89.3617 41.6217 89.4262 40.59C89.4419 40.3354 89.4585 40.0678 89.4766 39.7901C89.6278 37.1978 89.77 33.7889 89.5422 32.9709C89.2796 32.8197 89.0442 32.7012 88.8446 32.608C88.6132 32.5253 88.3839 32.431 88.1626 32.3307H88.1596C87.1268 31.863 86.2714 31.2723 86.1883 31.1362C86.1847 31.1392 86.1696 31.1533 86.1429 31.176L86.1248 31.1911C86.1182 31.1972 86.1111 31.2027 86.1041 31.2082L86.0804 31.2279L86.0441 31.2571L86.0154 31.2793L85.9851 31.302L85.9584 31.3222C85.9297 31.3438 85.8979 31.367 85.8642 31.3902C85.8455 31.4038 85.8259 31.4164 85.8057 31.4305C85.8002 31.4336 85.7951 31.4376 85.7891 31.4416L85.7744 31.4507L85.7548 31.4643L85.7427 31.4724L85.7336 31.4774C85.7276 31.4819 85.722 31.4855 85.7155 31.4895L85.7049 31.4966L85.6852 31.5081L85.6807 31.5112L85.6353 31.5399C85.5849 31.5706 85.529 31.6029 85.4715 31.6342L85.4131 31.6659L85.3732 31.6871C85.3566 31.6957 85.3405 31.7042 85.3228 31.7123C85.3052 31.7203 85.2855 31.7314 85.2654 31.7405L85.215 31.7652L85.1646 31.7889C85.1419 31.7985 85.1197 31.8091 85.0975 31.8181C85.0582 31.8353 85.0179 31.8514 84.9776 31.8685C84.965 31.8741 84.9529 31.8781 84.9408 31.8827L84.904 31.8958L84.8818 31.9038C84.8742 31.9068 84.8667 31.9084 84.8591 31.9114L84.8188 31.9245C84.7865 31.9356 84.7538 31.9467 84.718 31.9567C84.6933 31.9643 84.6676 31.9709 84.6419 31.9779C84.599 31.9895 84.5567 32.0016 84.5123 32.0117L84.4675 32.0223L84.3909 32.0379L84.3294 32.049L84.2699 32.0586C84.2195 32.0666 84.1645 32.0737 84.1106 32.0787L84.0662 32.0833C84.04 32.0833 84.0128 32.0873 83.9846 32.0883C83.9564 32.0893 83.9418 32.0883 83.9201 32.0913C83.7738 32.0965 83.6274 32.0903 83.4821 32.0727H83.4695C83.4236 32.0666 83.3772 32.0596 83.3309 32.0515L83.3172 32.049C83.2184 32.031 83.1207 32.0076 83.0244 31.9789L82.9977 31.9709C82.9584 31.9583 82.9191 31.9452 82.8792 31.931L82.846 31.9189C82.7956 31.9013 82.7497 31.8821 82.7013 31.8615C82.3172 31.6946 81.9236 31.428 81.5329 31.0258C81.5163 31.0097 81.5012 30.993 81.4825 30.9754C81.4639 30.9577 81.4513 30.9406 81.4347 30.925C81.4094 30.8972 81.3842 30.8685 81.358 30.8388C81.3318 30.809 81.3076 30.7793 81.2804 30.7486C81.23 30.6876 81.1796 30.6236 81.1262 30.5575C81.1 30.5243 81.0758 30.49 81.0491 30.4567C80.9724 30.3529 80.8978 30.244 80.8197 30.1286C80.0037 30.1392 79.1327 30.0127 78.2315 29.7808C76.2153 29.2616 74.0419 28.2183 71.9844 27C72.9859 30.3267 74.5298 35.1705 75.3307 37.6675C75.7173 38.35 75.9129 38.908 75.8534 39.2921C75.3912 42.2891 74.8418 45.8542 74.8418 45.8542L73.9033 54.003Z" fill="url(#paint4_linear_2635_67123)"/>
<path d="M80.8223 29.9935C83.2538 33.6871 86.1318 31.052 86.1843 31.0046L86.1923 30.5787L86.1954 30.4028L86.2019 30.0192L86.2135 29.364L86.217 29.1976L86.2085 29.2037C85.7956 29.4844 85.2533 29.6402 84.0915 29.8746C82.8616 30.1266 82.0945 29.6971 81.66 28.9673L81.5667 29.0807L81.5546 29.0963L81.3717 29.3206L81.2477 29.4718L80.8223 29.9935Z" fill="#F9A17B"/>
<path d="M89.4538 94.0845C89.6907 94.1349 96.0971 94.7019 96.7049 93.6767C96.8496 93.4327 96.7387 92.5174 95.5426 91.6933C95.5426 91.6933 92.1489 89.156 91.9327 89.1963C91.5032 89.2759 91.1453 90.1877 89.8555 90.3813C88.7068 90.5532 88.6226 89.9423 88.4084 89.9881C88.2758 90.0169 88.1503 90.7487 88.3076 91.9403C88.4649 93.1318 89.0642 94.0003 89.4538 94.0845Z" fill="#698B75"/>
<path d="M81.25 29.4714C81.9925 30.5803 84.2077 31.2633 85.5495 30.6508C85.7608 30.5569 85.9768 30.4739 86.1967 30.4024L86.2032 30.0188L86.2098 29.2017C85.797 29.4825 85.2546 29.6382 84.0928 29.8726C82.8619 30.1246 82.0953 29.6952 81.6603 28.9653L81.556 29.0954L81.373 29.3197L81.25 29.4714Z" fill="#F07946"/>
<path d="M81.2434 27.7052C81.312 28.1689 81.4451 28.6039 81.6603 28.9653C82.0948 29.6946 82.8619 30.1216 84.0918 29.8726C85.2511 29.6382 85.7949 29.4824 86.2088 29.2017L86.2173 29.1956C86.4694 29.0223 86.6745 28.801 86.9437 28.4844C87.5687 27.7501 88.3469 26.2667 88.3469 26.2667C88.3469 26.2667 90.0002 21.138 87.7421 19.9621C85.4839 18.7862 82.4158 18.0906 81.7747 21.4208C81.7737 21.4183 81.0373 26.3024 81.2434 27.7052Z" fill="#F9A17B"/>
<path d="M85.1654 22.87C85.1675 22.8888 85.1733 22.907 85.1825 22.9236C85.1917 22.9402 85.2041 22.9548 85.2189 22.9666C85.2338 22.9784 85.2508 22.9872 85.269 22.9924C85.2872 22.9976 85.3063 22.9992 85.3252 22.997L85.4194 22.9819C85.4361 22.9788 85.4529 22.9767 85.4698 22.9758L85.5101 22.9718C85.5364 22.9693 85.5671 22.9688 85.5999 22.9683H85.6291L85.6956 22.9708C85.7103 22.9708 85.7249 22.9708 85.739 22.9748L85.7682 22.9783C85.8192 22.9842 85.8698 22.9936 85.9194 23.0066C85.9736 23.0197 86.0268 23.0365 86.0787 23.057C86.0974 23.0645 86.116 23.0731 86.1347 23.0817L86.1588 23.0928C86.1654 23.0968 86.1755 23.1018 86.1851 23.1069C86.1946 23.1119 86.2178 23.1235 86.2355 23.1331C86.2866 23.1627 86.3357 23.1955 86.3826 23.2314C86.4284 23.266 86.472 23.3033 86.5132 23.3433C86.5545 23.3816 86.5903 23.4209 86.6261 23.4612C86.6619 23.5015 86.6931 23.5424 86.7168 23.5746C86.7604 23.6335 86.8005 23.695 86.8368 23.7586C86.862 23.8034 86.8736 23.8287 86.8736 23.8292C86.8847 23.8515 86.904 23.8687 86.9275 23.8772C86.951 23.8857 86.9769 23.8848 86.9997 23.8748C87.0226 23.8647 87.0407 23.8463 87.0504 23.8233C87.06 23.8002 87.0604 23.7744 87.0515 23.751L87.0419 23.7289C87.0349 23.7132 87.0248 23.6916 87.0112 23.6653C86.9745 23.5926 86.9333 23.5222 86.8877 23.4547C86.863 23.4174 86.8328 23.3755 86.7924 23.3231C86.7521 23.2707 86.7168 23.2309 86.6715 23.1845C86.6263 23.1368 86.5783 23.0919 86.5278 23.0499C86.475 23.006 86.4197 22.9652 86.362 22.9279C86.3438 22.9158 86.3237 22.9042 86.3035 22.8921C86.2939 22.8871 86.2839 22.8811 86.2748 22.8755L86.2501 22.8629C86.2269 22.8508 86.2042 22.8387 86.1805 22.8281C86.1193 22.7996 86.0561 22.7756 85.9915 22.7561C85.9312 22.7373 85.8698 22.7227 85.8075 22.7122L85.7768 22.7077C85.7576 22.7041 85.7385 22.7016 85.7198 22.6996L85.6135 22.692C85.5706 22.692 85.5303 22.6895 85.4945 22.692H85.4542C85.429 22.692 85.4038 22.692 85.3841 22.6971L85.2929 22.7072C85.2737 22.7092 85.2552 22.7151 85.2383 22.7244C85.2214 22.7338 85.2066 22.7464 85.1947 22.7616C85.1828 22.7768 85.1741 22.7942 85.1691 22.8128C85.164 22.8314 85.1628 22.8509 85.1654 22.87Z" fill="#698B75"/>
<path d="M81.8941 23.0057L81.9687 22.9553C81.9858 22.9432 82.0055 22.9321 82.0267 22.92C82.0378 22.914 82.0499 22.9074 82.062 22.8998C82.0927 22.8822 82.127 22.8661 82.1628 22.8494L82.2606 22.8081C82.2777 22.801 82.2958 22.7955 82.3145 22.789L82.3432 22.7799C82.4024 22.7611 82.4629 22.7464 82.5242 22.736C82.5908 22.7241 82.6582 22.7169 82.7258 22.7144H82.8311H82.8649C82.8881 22.7144 82.9108 22.7169 82.9324 22.7194C83.0003 22.7265 83.0676 22.7377 83.1341 22.7532C83.1984 22.7678 83.2618 22.7862 83.3241 22.8081C83.3866 22.8293 83.4451 22.855 83.4965 22.8777C83.5569 22.9059 83.6038 22.9281 83.6431 22.9523C83.7156 22.9927 83.7856 23.0373 83.8528 23.0858C83.877 23.104 83.8962 23.1186 83.9098 23.1297L83.934 23.1504C83.9615 23.1752 83.9779 23.21 83.9798 23.2471C83.9817 23.2841 83.9689 23.3204 83.9441 23.3479C83.9315 23.362 83.9163 23.3735 83.8992 23.3815C83.8822 23.3896 83.8637 23.3941 83.8449 23.3948C83.826 23.3955 83.8072 23.3924 83.7896 23.3856C83.772 23.3789 83.756 23.3686 83.7424 23.3555L83.7283 23.3429L83.684 23.3056C83.6276 23.2609 83.5685 23.2196 83.507 23.1821C83.4738 23.1614 83.435 23.1393 83.382 23.1115C83.3291 23.0838 83.2873 23.0652 83.2349 23.0455C83.1822 23.0241 83.1284 23.006 83.0736 22.9911C83.0166 22.9756 82.9587 22.9636 82.9002 22.9553C82.882 22.9523 82.8639 22.9502 82.8457 22.9487L82.8155 22.9457H82.7898C82.7691 22.9457 82.748 22.9457 82.7278 22.9457C82.6712 22.9457 82.6146 22.9494 82.5584 22.9568C82.5064 22.9634 82.4549 22.9735 82.4042 22.987L82.376 22.9951C82.3614 22.9996 82.3467 23.0032 82.3331 23.0082L82.2681 23.0314L82.2429 23.042C82.2112 23.0556 82.1814 23.0677 82.1572 23.0808L82.1209 23.0994C82.1046 23.1071 82.0888 23.1159 82.0736 23.1257L81.9974 23.171C81.9757 23.1832 81.9503 23.1869 81.926 23.1814C81.9017 23.1759 81.8803 23.1616 81.8659 23.1413C81.8588 23.1305 81.8538 23.1185 81.8514 23.1059C81.8489 23.0932 81.849 23.0802 81.8517 23.0676C81.8543 23.055 81.8594 23.043 81.8667 23.0324C81.874 23.0218 81.8833 23.0127 81.8941 23.0057Z" fill="#698B75"/>
<path d="M84.3086 23.6677C84.3191 23.6469 84.3352 23.6295 84.355 23.6173C84.3749 23.6051 84.3977 23.5986 84.421 23.5986C84.4409 23.5989 84.4605 23.6035 84.4784 23.6122C84.5081 23.6276 84.5305 23.6541 84.5408 23.6859C84.5511 23.7177 84.5484 23.7523 84.5334 23.7821C84.0676 24.7015 83.6261 25.8169 83.7224 26.0725C83.7224 26.078 83.7259 26.0805 83.7259 26.0815C83.8426 26.1298 83.9671 26.1561 84.0934 26.1592C84.1803 26.1641 84.2667 26.1432 84.3418 26.0992C84.3682 26.0791 84.4012 26.0698 84.4341 26.0734C84.4671 26.0769 84.4974 26.093 84.5188 26.1183C84.5294 26.1311 84.5373 26.1459 84.5421 26.1619C84.5469 26.1778 84.5484 26.1946 84.5465 26.2111C84.5429 26.2441 84.5264 26.2743 84.5006 26.2953C84.486 26.3074 84.3494 26.4112 84.0908 26.4112C83.9334 26.4081 83.7778 26.3758 83.6322 26.3159C83.5986 26.3025 83.5682 26.282 83.5431 26.256C83.518 26.2299 83.4987 26.1988 83.4865 26.1647C83.3055 25.6884 84.1392 24.0014 84.3086 23.6677Z" fill="#698B75"/>
<path d="M82.5261 27.6937C82.4838 27.9382 82.9455 28.0299 83.5055 28.1267C84.0655 28.2235 84.5136 28.288 84.5534 28.044C84.5932 27.8001 84.1759 27.5234 83.6159 27.4266C83.0559 27.3298 82.568 27.4498 82.5261 27.6937Z" fill="white"/>
<path d="M86.1547 24.6898C86.0337 24.9388 85.7757 24.8259 85.5221 24.7024C85.2686 24.5789 85.1144 24.4917 85.2353 24.2427C85.2946 24.1208 85.3999 24.0274 85.528 23.9831C85.6562 23.9388 85.7966 23.9473 85.9186 24.0065C86.0405 24.0658 86.1339 24.1711 86.1781 24.2993C86.2224 24.4274 86.214 24.5679 86.1547 24.6898Z" fill="#698B75"/>
<path d="M83.1999 23.8754C83.2045 24.1183 82.958 24.1324 82.711 24.137C82.464 24.1415 82.3078 24.137 82.3048 23.892C82.3026 23.7733 82.3476 23.6586 82.43 23.5731C82.5124 23.4876 82.6253 23.4383 82.744 23.4361C82.8627 23.4339 82.9775 23.4789 83.063 23.5613C83.1485 23.6437 83.1977 23.7567 83.1999 23.8754Z" fill="#698B75"/>
<path d="M87.8652 26.7648C87.8652 26.7648 89.2206 26.4337 89.1974 24.9553C89.1868 24.2955 88.6818 24.3878 88.4494 24.7436L87.8652 26.7648Z" fill="#F9A17B"/>
<path d="M88.354 50.5839C88.4609 50.7699 88.5637 50.8359 88.6564 50.8485H88.6731C88.7343 50.8495 88.7948 50.8351 88.849 50.8067H88.855L88.85 50.8102C88.8066 50.8384 88.6454 51.0017 88.7492 51.1005C88.8087 51.156 88.8873 51.2991 88.977 51.3107C89.106 51.3268 88.8258 51.5254 88.8157 51.534C88.8217 51.5315 88.8273 51.5283 88.8324 51.5244C88.7875 51.5647 88.976 51.469 89.0955 51.474C89.1088 51.4745 89.1219 51.4773 89.1343 51.4821C89.1467 51.4857 89.1577 51.4928 89.166 51.5027C89.3384 51.6963 89.5289 51.7492 89.7316 51.5945C89.726 51.6635 89.5955 51.7694 89.6761 51.9075L89.6852 51.9226C89.7052 51.9503 89.7288 51.9752 89.7553 51.9967C89.8752 52.0975 90.2235 52.0108 90.5385 51.7951C90.6056 51.7492 90.6676 51.7044 90.725 51.659C91.1903 51.2961 91.3747 50.9533 91.718 50.5204C91.7588 50.47 91.8012 50.417 91.847 50.3631C92.0131 50.1775 92.2088 50.0208 92.4262 49.8994C92.527 49.8399 92.6278 49.7885 92.722 49.7436C92.725 49.7427 92.7276 49.741 92.7296 49.7386C92.8959 49.6287 92.8178 48.9321 92.9816 48.8424L91.4902 47.3237C91.2996 47.5037 91.1877 47.6035 91.1877 47.6035C91.0175 47.831 90.8136 48.0313 90.5829 48.1972C90.3963 48.3345 90.1898 48.4423 89.9705 48.5168C89.7514 48.5912 89.52 48.6223 89.289 48.6085C89.1882 48.602 89.5713 49.0213 89.4977 49.1095C89.4836 49.1272 89.3651 49.2829 89.1953 49.4704C89.0809 49.5337 88.974 49.6096 88.8767 49.6968C88.847 49.7245 88.8308 49.7411 88.8308 49.7411C88.8308 49.7411 88.3117 50.479 88.354 50.5839Z" fill="#F9A17B"/>
<path d="M90.7276 51.6645C90.5593 51.8117 89.7084 52.6438 89.6253 52.6191C89.5421 52.5944 89.1802 52.4961 89.712 51.8983C90.2437 51.3006 90.9413 51.4765 90.7276 51.6645Z" fill="#F9A17B"/>
<path d="M89.7396 51.8538C89.4084 52.1713 88.6786 52.8503 88.5022 52.692C88.412 52.6109 88.2562 52.448 88.8747 51.758C89.4558 51.1093 89.7169 51.071 89.8903 51.2656C90.0637 51.4601 89.9362 51.6643 89.7396 51.8538Z" fill="#F9A17B"/>
<path d="M89.1477 51.4287C88.7445 51.8259 87.8836 52.582 87.7076 52.4232C87.6169 52.3415 87.4637 52.1762 88.2273 51.3244C88.9118 50.5603 89.1638 50.3813 89.3901 50.6243C89.6165 50.8672 89.3997 51.1797 89.1477 51.4287Z" fill="#F9A17B"/>
<path d="M88.7462 50.7652C88.4251 51.0712 87.5869 51.8237 87.3853 51.6468C87.1837 51.4699 87.3914 51.2481 87.9902 50.5808C88.7266 49.7587 89.2765 49.2884 89.4967 49.5122C89.717 49.736 88.9453 50.5752 88.7462 50.7652Z" fill="#F9A17B"/>
<path d="M87.1672 35.5253C87.2367 35.6297 87.6531 37.1569 87.6531 37.1569C87.6531 37.1569 86.4025 38.9211 88.6642 40.1348C88.7574 40.1852 88.8491 40.2356 88.9363 40.286C89.1107 40.3868 89.2736 40.4876 89.4273 40.5884C90.1486 41.0718 90.6662 41.5804 91.0251 42.097C91.2442 42.4085 91.4166 42.7503 91.5367 43.1117C92.387 45.6924 90.0296 48.1475 90.0296 48.1475L90.141 48.2448C90.2005 48.2978 90.2826 48.3698 90.3809 48.4585C90.9885 49.0037 91.5655 49.5821 92.1093 50.1909C92.1189 50.202 92.1289 50.2126 92.138 50.2237C92.1783 50.2691 92.2172 50.3154 92.256 50.3608C95.5191 47.202 97.4763 45.518 95.9138 41.9776C94.3513 38.4372 93.132 36.0642 92.0327 34.921C91.2982 34.1538 90.4578 33.4954 89.5372 32.9658C89.2751 32.8146 89.0397 32.6962 88.8401 32.6034C88.6186 32.4974 88.3911 32.4046 88.1586 32.3257C88.1586 32.3257 87.0996 35.4215 87.1672 35.5253Z" fill="url(#paint5_linear_2635_67123)"/>
<path d="M81.5341 23.1827C81.6026 22.5425 81.6485 22.099 82.4499 21.0037C84.0795 22.2215 85.0604 22.0531 86.1541 21.9503C88.9112 21.6907 88.076 22.8576 88.076 24.6721C88.076 25.529 88.3664 25.5915 88.443 25.3274C88.5635 24.782 89.2545 23.6111 89.4299 23.3989L89.9843 21.0349L87.6022 17.8091L83.4605 18.1881L81.5905 20.2189C81.3148 24.6741 81.3728 24.6867 81.5341 23.1827Z" fill="#698B75"/>
<path d="M89.9727 48.5195L91.7247 50.5231C91.7655 50.4727 91.8079 50.4198 91.8537 50.3658C91.9396 50.2664 92.0357 50.1764 92.1405 50.0972C92.1315 50.0861 92.1214 50.0755 92.1118 50.0644C91.568 49.4556 90.991 48.8772 90.3835 48.332C90.2535 48.4087 90.1158 48.4716 89.9727 48.5195Z" fill="#F07946"/>
<path d="M135.7 49.125V93.502H106.125V49.125H135.7Z" fill="#EFF9F4" stroke="#698B75" stroke-width="0.25"/>
<path d="M135.341 50.4342L131.088 43.7818L120.429 39.063L109.769 43.7818L105.516 50.4342H135.341Z" fill="#698B75"/>
<path d="M106.484 49.8656L110.232 44.2027L120.428 39.689L130.624 44.2027L134.371 49.8656H106.484Z" fill="#447158"/>
<path d="M136.001 49.4453H104.857V50.654H136.001V49.4453Z" fill="#698B75"/>
<path d="M133.835 53.942V63.4895H126.637V53.942C126.637 53.8125 126.662 53.6842 126.712 53.5646C126.761 53.4449 126.834 53.3362 126.925 53.2447C127.017 53.1531 127.126 53.0805 127.245 53.031C127.365 52.9814 127.493 52.956 127.623 52.9561H132.849C132.978 52.956 133.106 52.9814 133.226 53.031C133.346 53.0805 133.454 53.1531 133.546 53.2446C133.638 53.3362 133.71 53.4449 133.76 53.5646C133.809 53.6842 133.835 53.8124 133.835 53.942Z" fill="#698B75"/>
<path d="M127.104 63.1494V53.6144C127.104 53.53 127.137 53.4491 127.197 53.3895C127.257 53.3299 127.338 53.2964 127.422 53.2964H133.048C133.132 53.2964 133.213 53.3299 133.273 53.3895C133.332 53.4491 133.366 53.53 133.366 53.6144V63.1494H127.104Z" fill="#698B75"/>
<path d="M133.049 53.6143H127.424V62.8307H133.049V53.6143Z" fill="#FFE8B7"/>
<path d="M131.916 52.9772H128.555L128.254 52.1289H132.217L131.916 52.9772Z" fill="#698B75"/>
<path d="M134.094 63.4888H126.346V64.2675H134.094V63.4888Z" fill="#698B75"/>
<path d="M133.049 60.6196H127.424V60.973H133.049V60.6196Z" fill="#698B75"/>
<path d="M133.049 55.2944H127.424V55.6478H133.049V55.2944Z" fill="#698B75"/>
<path d="M129.113 53.6143H128.76V62.8307H129.113V53.6143Z" fill="#698B75"/>
<path d="M131.711 53.6143H131.357V62.8307H131.711V53.6143Z" fill="#698B75"/>
<path d="M124.286 53.942V63.4895H117.088V53.942C117.088 53.8125 117.113 53.6842 117.163 53.5646C117.212 53.4449 117.285 53.3362 117.377 53.2447C117.468 53.1531 117.577 53.0805 117.696 53.031C117.816 52.9814 117.944 52.956 118.074 52.9561H123.3C123.429 52.956 123.557 52.9814 123.677 53.031C123.797 53.0805 123.906 53.1531 123.997 53.2446C124.089 53.3362 124.161 53.4449 124.211 53.5646C124.261 53.6842 124.286 53.8124 124.286 53.942Z" fill="#698B75"/>
<path d="M117.559 63.1494V53.6144C117.559 53.53 117.592 53.4491 117.652 53.3895C117.712 53.3299 117.793 53.2964 117.877 53.2964H123.503C123.587 53.2964 123.668 53.3299 123.728 53.3895C123.788 53.4491 123.821 53.53 123.821 53.6144V63.1494H117.559Z" fill="#698B75"/>
<path d="M123.501 53.6143H117.875V62.8307H123.501V53.6143Z" fill="#FFE8B7"/>
<path d="M122.369 52.9772H119.008L118.707 52.1289H122.67L122.369 52.9772Z" fill="#698B75"/>
<path d="M124.547 63.4888H116.799V64.2675H124.547V63.4888Z" fill="#698B75"/>
<path d="M123.501 60.6196H117.875V60.973H123.501V60.6196Z" fill="#698B75"/>
<path d="M123.501 55.2944H117.875V55.6478H123.501V55.2944Z" fill="#698B75"/>
<path d="M119.564 53.6143H119.211V62.8307H119.564V53.6143Z" fill="#698B75"/>
<path d="M122.166 53.6143H121.812V62.8307H122.166V53.6143Z" fill="#698B75"/>
<path d="M114.741 53.942V63.4895H107.543V53.942C107.543 53.8125 107.568 53.6842 107.618 53.5646C107.667 53.4449 107.74 53.3362 107.832 53.2447C107.923 53.1531 108.032 53.0805 108.151 53.031C108.271 52.9814 108.399 52.956 108.529 52.9561H113.755C113.884 52.956 114.013 52.9814 114.132 53.031C114.252 53.0805 114.361 53.1531 114.452 53.2446C114.544 53.3362 114.617 53.4449 114.666 53.5646C114.716 53.6842 114.741 53.8124 114.741 53.942Z" fill="#698B75"/>
<path d="M108.01 63.1494V53.6144C108.01 53.53 108.044 53.4491 108.103 53.3895C108.163 53.3299 108.244 53.2964 108.328 53.2964H113.954C114.038 53.2964 114.119 53.3299 114.179 53.3895C114.239 53.4491 114.272 53.53 114.272 53.6144V63.1494H108.01Z" fill="#698B75"/>
<path d="M113.954 53.6143H108.328V62.8307H113.954V53.6143Z" fill="#FFE8B7"/>
<path d="M112.823 52.9772H109.461L109.16 52.1289H113.123L112.823 52.9772Z" fill="#698B75"/>
<path d="M115.001 63.4888H107.252V64.2675H115.001V63.4888Z" fill="#698B75"/>
<path d="M113.954 60.6196H108.328V60.973H113.954V60.6196Z" fill="#698B75"/>
<path d="M113.954 55.2944H108.328V55.6478H113.954V55.2944Z" fill="#698B75"/>
<path d="M110.018 53.6143H109.664V62.8307H110.018V53.6143Z" fill="#698B75"/>
<path d="M112.619 53.6143H112.266V62.8307H112.619V53.6143Z" fill="#698B75"/>
<path d="M133.835 68.3853V77.9329H126.637V68.3853C126.637 68.2558 126.662 68.1276 126.712 68.0079C126.761 67.8882 126.834 67.7795 126.925 67.6879C127.017 67.5963 127.126 67.5236 127.245 67.474C127.365 67.4244 127.493 67.3989 127.623 67.3989H132.849C133.11 67.3989 133.361 67.5029 133.546 67.6878C133.731 67.8728 133.835 68.1237 133.835 68.3853Z" fill="#698B75"/>
<path d="M127.104 77.5923V68.0578C127.104 67.9734 127.137 67.8924 127.197 67.8327C127.257 67.773 127.338 67.7394 127.422 67.7393H133.048C133.132 67.7394 133.213 67.773 133.273 67.8327C133.332 67.8924 133.366 67.9734 133.366 68.0578V77.5923H127.104Z" fill="#698B75"/>
<path d="M133.049 68.0576H127.424V77.2735H133.049V68.0576Z" fill="white"/>
<path d="M131.916 67.4206H128.555L128.254 66.5723H132.217L131.916 67.4206Z" fill="#698B75"/>
<path d="M134.094 77.9321H126.346V78.7109H134.094V77.9321Z" fill="#698B75"/>
<path d="M133.049 75.063H127.424V75.4163H133.049V75.063Z" fill="#698B75"/>
<path d="M133.049 69.7378H127.424V70.0911H133.049V69.7378Z" fill="#698B75"/>
<path d="M129.113 68.0576H128.76V77.2735H129.113V68.0576Z" fill="#698B75"/>
<path d="M131.711 68.0576H131.357V77.2735H131.711V68.0576Z" fill="#698B75"/>
<path d="M124.286 68.3853V77.9329H117.088V68.3853C117.088 68.2558 117.113 68.1276 117.163 68.0079C117.212 67.8882 117.285 67.7795 117.376 67.6879C117.468 67.5963 117.577 67.5236 117.696 67.474C117.816 67.4244 117.944 67.3989 118.074 67.3989H123.3C123.429 67.3989 123.557 67.4244 123.677 67.474C123.797 67.5236 123.906 67.5962 123.997 67.6878C124.089 67.7794 124.161 67.8882 124.211 68.0078C124.261 68.1275 124.286 68.2558 124.286 68.3853Z" fill="#698B75"/>
<path d="M117.559 77.5923V68.0578C117.559 67.9734 117.592 67.8924 117.652 67.8327C117.712 67.773 117.793 67.7394 117.877 67.7393H123.503C123.587 67.7394 123.668 67.773 123.728 67.8327C123.788 67.8924 123.821 67.9734 123.821 68.0578V77.5923H117.559Z" fill="#698B75"/>
<path d="M123.501 68.0576H117.875V77.2735H123.501V68.0576Z" fill="white"/>
<path d="M122.369 67.4206H119.008L118.707 66.5723H122.67L122.369 67.4206Z" fill="#698B75"/>
<path d="M124.547 77.9321H116.799V78.7109H124.547V77.9321Z" fill="#698B75"/>
<path d="M123.501 75.063H117.875V75.4163H123.501V75.063Z" fill="#698B75"/>
<path d="M123.501 69.7378H117.875V70.0911H123.501V69.7378Z" fill="#698B75"/>
<path d="M119.564 68.0576H119.211V77.2735H119.564V68.0576Z" fill="#698B75"/>
<path d="M122.166 68.0576H121.812V77.2735H122.166V68.0576Z" fill="#698B75"/>
<path d="M114.741 68.3853V77.9329H107.543V68.3853C107.543 68.2558 107.568 68.1276 107.618 68.0079C107.667 67.8882 107.74 67.7795 107.832 67.6879C107.923 67.5963 108.032 67.5236 108.151 67.474C108.271 67.4244 108.399 67.3989 108.529 67.3989H113.755C113.884 67.3989 114.013 67.4244 114.132 67.474C114.252 67.5236 114.361 67.5962 114.452 67.6878C114.544 67.7794 114.617 67.8882 114.666 68.0078C114.716 68.1275 114.741 68.2558 114.741 68.3853Z" fill="#698B75"/>
<path d="M108.01 77.5923V68.0578C108.01 67.9734 108.044 67.8924 108.103 67.8327C108.163 67.773 108.244 67.7394 108.328 67.7393H113.954C114.038 67.7394 114.119 67.773 114.179 67.8327C114.239 67.8924 114.272 67.9734 114.272 68.0578V77.5923H108.01Z" fill="#698B75"/>
<path d="M113.954 68.0576H108.328V77.2735H113.954V68.0576Z" fill="white"/>
<path d="M112.823 67.4206H109.461L109.16 66.5723H113.123L112.823 67.4206Z" fill="#698B75"/>
<path d="M115.001 77.9321H107.252V78.7109H115.001V77.9321Z" fill="#698B75"/>
<path d="M113.954 75.063H108.328V75.4163H113.954V75.063Z" fill="#698B75"/>
<path d="M113.954 69.7378H108.328V70.0911H113.954V69.7378Z" fill="#698B75"/>
<path d="M110.018 68.0576H109.664V77.2735H110.018V68.0576Z" fill="#698B75"/>
<path d="M112.619 68.0576H112.266V77.2735H112.619V68.0576Z" fill="#698B75"/>
<path d="M123.971 43.513V50.434H116.885V43.513L120.455 41.8643L123.971 43.513Z" fill="#698B75"/>
<path d="M123.395 43.88V49.4991H117.463V43.8826L120.009 42.7066L120.454 42.5005L120.58 42.559L121.532 43.0055L123.117 43.749L123.395 43.88Z" fill="#698B75"/>
<path d="M117.709 49.2514V44.0401L120.452 42.7729L123.147 44.0366V49.2514H117.709Z" fill="white"/>
<path d="M116.085 82.9982V91.6032H107.281V82.9982C107.281 82.7941 107.362 82.5984 107.507 82.4541C107.651 82.3098 107.846 82.2286 108.05 82.2285H115.316C115.52 82.2285 115.716 82.3096 115.86 82.4539C116.004 82.5983 116.085 82.7941 116.085 82.9982Z" fill="#698B75"/>
<path d="M107.818 91.0646V82.9999C107.818 82.9388 107.843 82.8801 107.886 82.8368C107.929 82.7936 107.988 82.7692 108.049 82.769H115.314C115.375 82.7692 115.434 82.7935 115.477 82.8368C115.52 82.8801 115.545 82.9387 115.545 82.9999V91.0646H107.818Z" fill="#698B75"/>
<path d="M115.314 82.998H108.049V90.8334H115.314V82.998Z" fill="white"/>
<path d="M116.527 91.603H106.838V92.1676H116.527V91.603Z" fill="#698B75"/>
<path d="M109.905 82.998H109.648V90.8339H109.905V82.998Z" fill="#698B75"/>
<path d="M113.791 82.998H113.535V90.8339H113.791V82.998Z" fill="#698B75"/>
<path d="M115.314 84.3442H108.049V84.6008H115.314V84.3442Z" fill="#698B75"/>
<path d="M115.314 88.894H108.049V89.1506H115.314V88.894Z" fill="#698B75"/>
<path d="M134.07 82.9982V91.6032H125.266V82.9982C125.266 82.7941 125.347 82.5983 125.491 82.4539C125.635 82.3096 125.831 82.2285 126.035 82.2285H133.301C133.505 82.2286 133.7 82.3098 133.844 82.4541C133.989 82.5984 134.07 82.7941 134.07 82.9982Z" fill="#698B75"/>
<path d="M125.805 91.0646V82.9999C125.805 82.9387 125.829 82.8801 125.872 82.8368C125.916 82.7935 125.974 82.7692 126.036 82.769H133.301C133.362 82.7692 133.421 82.7935 133.464 82.8368C133.507 82.8801 133.532 82.9387 133.532 82.9999V91.0646H125.805Z" fill="#698B75"/>
<path d="M133.3 82.998H126.035V90.8334H133.3V82.998Z" fill="white"/>
<path d="M134.513 91.603H124.824V92.1676H134.513V91.603Z" fill="#698B75"/>
<path d="M127.891 82.998H127.635V90.8339H127.891V82.998Z" fill="#698B75"/>
<path d="M131.778 82.998H131.521V90.8339H131.778V82.998Z" fill="#698B75"/>
<path d="M133.3 84.3442H126.035V84.6008H133.3V84.3442Z" fill="#698B75"/>
<path d="M133.3 88.894H126.035V89.1506H133.3V88.894Z" fill="#698B75"/>
<path d="M124.095 83.0526V94.073H117.23V83.0526C117.23 82.8341 117.317 82.6244 117.472 82.4699C117.626 82.3153 117.836 82.2285 118.055 82.2285H123.27C123.378 82.2284 123.485 82.2497 123.585 82.2911C123.685 82.3325 123.776 82.3932 123.853 82.4697C123.93 82.5462 123.99 82.6371 124.032 82.7371C124.073 82.8372 124.095 82.9444 124.095 83.0526Z" fill="#698B75"/>
<path d="M117.809 94.073V83.0526C117.809 82.9872 117.835 82.9244 117.881 82.8782C117.927 82.8319 117.99 82.8058 118.056 82.8057H123.271C123.336 82.8057 123.399 82.8317 123.446 82.878C123.492 82.9243 123.518 82.9871 123.518 83.0526V94.073H117.809Z" fill="#698B75"/>
<path d="M120.565 42.6709H120.291V49.2522H120.565V42.6709Z" fill="#698B75"/>
<path d="M123.147 45.8242H117.709V46.0984H123.147V45.8242Z" fill="#698B75"/>
<path d="M123.16 88.8937C123.16 88.9999 123.128 89.1037 123.069 89.192C123.01 89.2803 122.926 89.3491 122.828 89.3897C122.73 89.4303 122.622 89.4409 122.518 89.4202C122.414 89.3995 122.318 89.3484 122.243 89.2733C122.168 89.1982 122.117 89.1026 122.096 88.9985C122.076 88.8943 122.086 88.7864 122.127 88.6883C122.167 88.5902 122.236 88.5064 122.325 88.4474C122.413 88.3884 122.517 88.3569 122.623 88.3569C122.693 88.3569 122.763 88.3707 122.828 88.3977C122.893 88.4246 122.953 88.4642 123.002 88.514C123.052 88.5639 123.092 88.6231 123.119 88.6882C123.146 88.7534 123.16 88.8232 123.16 88.8937Z" fill="#D6B4F0"/>
<path d="M135.341 93.6782H105.516V94.0729H135.341V93.6782Z" fill="#698B75"/>
<path d="M63.5333 78.0392V94.3097H26.9313L26.9515 94.2618H2.89258V76.8789L46.1116 69.4761H48.0542L50.1813 70.5416H50.2841L50.3667 70.5824L50.3783 70.5885L50.4605 70.6298L50.5432 70.6717L50.5542 70.6767L50.6374 70.7185H50.7402L52.8658 71.7831H52.763L52.8456 71.8244L52.8567 71.8299L52.9394 71.8713L53.0225 71.9131L53.0336 71.9192L53.1158 71.9605H53.0125L55.1395 73.025H55.2428L55.3331 73.0699L55.3371 73.0719L55.4198 73.1137L55.5004 73.1541L55.513 73.1606L55.5942 73.2009H55.4913L57.6169 74.2655H57.7197L57.8029 74.3078L57.814 74.3134L57.8966 74.3547L57.9793 74.3955L57.9899 74.4016L58.0725 74.4424H57.9697L60.0958 75.5079H60.1991L60.2893 75.5523L60.2933 75.5548L60.3755 75.5961L60.4587 75.6375L60.4703 75.643H60.3659L60.4491 75.6854L62.5751 76.7494H63.2697L63.2783 76.7529L63.3529 76.7907L63.364 76.7968L63.4461 76.8376L63.5273 76.8799V78.0392H63.5333Z" fill="#EFF9F4"/>
<path d="M30.6583 76.851L41.0446 71.7471H6.73248L0 76.851" fill="#447158"/>
<path d="M50.4384 61.8149V63.0564H50.4379V71.7471H6.73242V61.8149H16.9549L16.8823 61.8502H30.4869L30.4143 61.8149H50.4384Z" fill="#EFF9F4"/>
<path d="M31.6338 61.8149V61.9581H30.7053L30.4941 61.8538L30.4886 61.8502L30.416 61.8149H31.6338Z" fill="white"/>
<path d="M31.6723 61.9973H30.6954L30.2383 61.7715H31.6748L31.6723 61.9973ZM30.7146 61.9151H31.5921V61.8541H30.5891L30.7146 61.9151Z" fill="#231F20"/>
<path d="M30.6744 80.9268H17.6465V88.9728H30.6744V80.9268Z" fill="#FFE8B7"/>
<path d="M31.34 89.2962H16.9824V80.6045H31.34V89.2962ZM17.6473 88.6505H30.6752V81.2517H17.6473V88.6505Z" fill="#698B75"/>
<path d="M21.5846 81.1655H20.8613V88.7352H21.5846V81.1655Z" fill="#698B75"/>
<path d="M26.8581 81.1655H26.1348V88.7352H26.8581V81.1655Z" fill="#698B75"/>
<path d="M23.6847 58.4854L22.1483 59.246H25.223L23.6847 58.4854ZM19.3887 60.6109L17.0449 61.7702H30.3259L27.9826 60.6109H19.3887ZM19.6407 60.4869H27.7311L25.3893 59.3276H21.9805L19.6407 60.4869ZM22.1488 59.246H25.2235L23.6867 58.4854L22.1488 59.246Z" fill="#D94377"/>
<path d="M51.6866 61.8145H35.0371V61.8277H14.5266V61.8145H4.49219L4.5068 61.8085L14.5266 57.9974L16.0448 57.4198L19.811 55.9868H36.3668L51.6866 61.8145Z" fill="#447158"/>
<path d="M16.8312 61.8115L16.8257 61.8146H16.4043L16.4103 61.8115H16.8312Z" fill="#996032"/>
<path d="M30.964 61.8146H30.5446L30.5391 61.8115H30.9584L30.964 61.8146Z" fill="#996032"/>
<path d="M16.9602 61.8115L16.9546 61.8145H16.8262L16.8317 61.8115H16.9602Z" fill="#FFE1B3"/>
<path d="M30.5432 61.8145H30.4137L30.4082 61.8115H30.5377L30.5432 61.8145Z" fill="#FFE1B3"/>
<path d="M23.8196 58.0042H23.5312L23.6754 57.9326L23.8196 58.0042Z" fill="#C49A6C"/>
<path d="M135.341 93.6768H2.89258V94.2977H135.341V93.6768Z" fill="#698B75"/>
<path d="M61.1309 83.5032V94.3098H34.0527V83.5032C34.0527 81.1997 35.7161 79.3252 37.761 79.3252H57.4221C59.4675 79.3252 61.1309 81.2012 61.1309 83.5032Z" fill="#698B75"/>
<path d="M60.4068 83.5033V94.2626H34.7793V83.5033C34.7793 81.6585 36.1221 80.1489 37.7632 80.1489H57.4244C59.064 80.1489 60.4068 81.6585 60.4068 83.5033Z" fill="#EFF9F4"/>
<path d="M61.1309 83.5032V94.3098H34.0527V83.5032C34.0527 81.1997 35.7161 79.3252 37.761 79.3252H57.4221C59.4675 79.3252 61.1309 81.2012 61.1309 83.5032Z" fill="#698B75"/>
<path d="M60.4068 83.5033V94.2626H34.7793V83.5033C34.7793 81.6585 36.1221 80.1489 37.7632 80.1489H57.4244C59.064 80.1489 60.4068 81.6585 60.4068 83.5033Z" fill="#EFF9F4"/>
<path d="M63.5266 76.8801H61.5765L61.4984 76.8378H61.4938L61.4112 76.7969H61.4102L61.3991 76.7909L61.3159 76.7496L59.1909 75.6855L59.1077 75.6432L59.0966 75.6376L59.0145 75.5963H59.0139L58.9323 75.555H58.9318L58.9278 75.5525H58.9273L58.9202 75.5494L58.8375 75.5081L56.7115 74.4426L56.6283 74.4017L56.6182 74.3957H56.6172L56.5351 74.3549H56.5346L56.4524 74.3135H56.4519L56.4403 74.308L56.3576 74.2656L54.2326 73.2011L54.1515 73.1608L54.1389 73.1542H54.1378L54.0567 73.1139L53.974 73.0721L53.97 73.0701H53.9695L53.9624 73.066L53.8798 73.0252L51.7537 71.9607L51.6706 71.9193L51.66 71.9133L51.5773 71.8714H51.5768L51.4947 71.8301H51.4942L51.4826 71.8246L51.3999 71.7832L49.2733 70.7187L49.1917 70.6769L49.1801 70.6718L49.0974 70.63L49.0148 70.5886L49.0032 70.5826L48.9215 70.5418L47.0808 69.6199L46.3267 69.9969L45.3091 70.5055H45.3085L45.237 70.5418L45.1543 70.5826L45.1427 70.5886H45.1422L45.0596 70.63H45.0585L44.9774 70.6718H44.9764L44.9653 70.6769L44.8816 70.7187L42.8241 71.7469H42.8226L42.7515 71.7832L42.6679 71.8246L42.6578 71.8301H42.6568L42.5746 71.8714H42.5741L42.492 71.9133H42.491L42.4799 71.9193L42.3962 71.9607L40.2671 73.0252L40.1835 73.066L40.1724 73.0721H40.1714L40.0887 73.1139L40.0075 73.1542L39.9944 73.1608L39.9128 73.2011L37.7832 74.2656L37.7 74.308L37.6884 74.3135H37.6879L37.5221 74.3957L37.511 74.4017L37.4274 74.4426L35.2973 75.5081L35.2136 75.5494L35.2025 75.555L35.1193 75.5963L35.0362 75.6376L35.0246 75.6432L34.9414 75.6855L32.8118 76.7496L32.7287 76.7909L32.7181 76.7969L32.6349 76.8378H32.6344L32.6254 76.8448H32.6223L32.5518 76.8801H30.5996L30.6087 76.8761L30.6137 76.8735H30.6147L30.6697 76.8448L30.6818 76.8388L30.6833 76.8378L30.7634 76.7974L30.7654 76.7969L30.8602 76.7496L33.085 75.6376L33.1677 75.5963L33.2499 75.555L35.5695 74.3957L35.6526 74.3549L35.7353 74.3135L38.0549 73.1542L38.1376 73.1139L38.2207 73.0721L40.5403 71.9133L40.6225 71.8714L40.7051 71.8301L40.8715 71.7469L43.0247 70.6718L43.1079 70.63L43.1906 70.5886L43.3559 70.5055L45.5102 69.4294L45.5228 69.4228L45.5923 69.388L45.6049 69.3815L45.675 69.3472L45.6876 69.3401L45.8413 69.2635L46.3267 69.0216L47.0833 68.6436L48.4744 69.3401L48.4875 69.3472L48.5576 69.3815L48.5707 69.388L48.6403 69.4228L48.6534 69.4294L50.9669 70.5886L51.0506 70.63L51.1317 70.6718L53.4468 71.8301L53.529 71.8714L53.6111 71.9133L55.9257 73.0721L56.0083 73.1139L56.091 73.1542L58.4046 74.3135L58.4867 74.3549L58.5699 74.3957L60.8834 75.555L60.9671 75.5963L61.0488 75.6376L63.2691 76.7496L63.2776 76.7531L63.3522 76.7909L63.3633 76.7969L63.4344 76.8322L63.4455 76.8378L63.5266 76.8801Z" fill="#698B75"/>
<path d="M32.5515 76.8506H0V77.5351H32.5515V76.8506Z" fill="#698B75"/>
<path d="M63.5283 76.8799H61.5781V77.5644H63.5283V76.8799Z" fill="#698B75"/>
<path d="M59.5374 84.0061C59.5374 84.1573 59.4296 84.2798 59.2965 84.2798H35.5007C35.3676 84.2798 35.2598 84.1573 35.2598 84.0061C35.2598 83.8549 35.3676 83.7324 35.5007 83.7324H59.2965C59.4296 83.7324 59.5374 83.8549 59.5374 84.0061Z" fill="#698B75"/>
<path d="M59.5374 86.8177C59.5374 86.9689 59.4296 87.0914 59.2965 87.0914H35.5007C35.3676 87.0914 35.2598 86.9689 35.2598 86.8177C35.2598 86.6664 35.3676 86.5435 35.5007 86.5435H59.2965C59.4296 86.5435 59.5374 86.6664 59.5374 86.8177Z" fill="#698B75"/>
<path d="M59.5374 89.6287C59.5374 89.7799 59.4296 89.9029 59.2965 89.9029H35.5007C35.3676 89.9029 35.2598 89.7804 35.2598 89.6287C35.2598 89.4775 35.3676 89.355 35.5007 89.355H59.2965C59.4296 89.355 59.5374 89.4775 59.5374 89.6287Z" fill="#698B75"/>
<path d="M59.5374 92.4412C59.5374 92.5924 59.4296 92.7149 59.2965 92.7149H35.5007C35.3676 92.7149 35.2598 92.5924 35.2598 92.4412C35.2598 92.29 35.3676 92.1675 35.5007 92.1675H59.2965C59.4296 92.1675 59.5374 92.29 59.5374 92.4412Z" fill="#698B75"/>
<path d="M12.3171 81.2222H6.20508V93.6765H12.3171V81.2222Z" fill="#698B75"/>
<path d="M11.6151 87.7304C11.6151 87.832 11.585 87.9313 11.5285 88.0158C11.4721 88.1003 11.3918 88.1661 11.2979 88.205C11.2041 88.2438 11.1008 88.254 11.0011 88.2341C10.9015 88.2143 10.81 88.1653 10.7381 88.0934C10.6663 88.0215 10.6175 87.93 10.5977 87.8303C10.5779 87.7306 10.5882 87.6274 10.6271 87.5335C10.6661 87.4397 10.732 87.3595 10.8165 87.3031C10.9011 87.2467 11.0004 87.2167 11.102 87.2168C11.1694 87.2168 11.2362 87.2301 11.2985 87.2559C11.3608 87.2817 11.4174 87.3196 11.465 87.3673C11.5127 87.415 11.5505 87.4716 11.5762 87.5339C11.602 87.5962 11.6152 87.663 11.6151 87.7304Z" fill="white"/>
<path d="M4.50586 61.8086H19.7763L19.7713 61.8111L19.7652 61.8146L19.6931 61.8499L19.6871 61.8535L19.4764 61.9578H18.5495V62.672H4.50586V61.8086Z" fill="#698B75"/>
<path d="M35.7105 62.6719H34.4434V71.7471H38.6582L35.7105 62.6719Z" fill="#A8C2B5"/>
<path d="M34.4442 61.9577V72.9892H34.4432V73.0305H18.5508V61.9577V62.6719L19.6884 61.8534L19.6945 61.8498L19.7665 61.8146L19.7726 61.811L19.7776 61.8085L19.8568 61.7702L22.1995 60.6109L22.2837 60.5696L22.4511 60.4864L24.7918 59.3286L24.876 59.2873L24.9592 59.2455L26.4965 58.4849L28.0333 59.2455L28.2002 59.3286L30.5419 60.4864L30.794 60.6109L33.1372 61.7702L33.2154 61.8085L33.2204 61.811L33.226 61.8146L33.2985 61.8498L33.3046 61.8534L33.5153 61.9577H34.4442Z" fill="#EFF9F4"/>
<path d="M35.0365 61.9578L33.4811 62.0596L30.7935 60.611L30.5415 60.4865L28.1997 59.3287L28.0329 59.2456L26.4961 58.485L24.9587 59.2456L24.8756 59.2874L24.7914 59.3287L22.4506 60.4865L22.2833 60.5697L22.1991 60.611L18.5504 62.672L17.9551 61.9578L17.9611 61.9548L18.1728 61.85L18.2454 61.8147L18.257 61.8086L20.6643 60.6206L20.755 60.5752L23.2818 59.3287L23.366 59.2874L23.4582 59.2415L25.8816 58.0454L25.9653 58.0041L26.4855 57.7476L27.0051 58.0041L27.0903 58.0454L29.5208 59.2415L29.6131 59.2874L29.6977 59.3287L32.2316 60.5752L32.3203 60.6206L34.7346 61.8086L34.7462 61.8147L34.8183 61.85L35.031 61.9548L35.0365 61.9578Z" fill="#698B75"/>
<path d="M51.6863 61.8086V62.672H34.244L33.0988 61.8499L33.0267 61.8146L33.0207 61.8111L33.0156 61.8086H51.6863Z" fill="#698B75"/>
<path d="M29.817 63.8979H23.1758V70.9051H29.817V63.8979Z" fill="#FFE8B7"/>
<path d="M30.3947 71.1864H22.5977V63.6172H30.3947V71.1864ZM23.1768 70.6239H29.8181V64.1792H23.1768V70.6239Z" fill="#698B75"/>
<path d="M26.8117 64.1055H26.1816V70.6973H26.8117V64.1055Z" fill="#698B75"/>
<path d="M15.4973 64.3086H9.63477V70.4942H15.4973V64.3086Z" fill="#FFE8B7"/>
<path d="M16.0107 70.7421H9.125V64.0605H16.0107V70.7421ZM9.63711 70.2461H15.4996V64.5565H9.63711V70.2461Z" fill="#698B75"/>
<path d="M12.845 64.4917H12.2891V70.3109H12.845V64.4917Z" fill="#698B75"/>
<path d="M131.231 26.1191H110.41C109.706 26.1191 109.135 26.6903 109.135 27.3949V33.269C109.135 33.9735 109.706 34.5447 110.41 34.5447H131.231C131.936 34.5447 132.507 33.9735 132.507 33.269V27.3949C132.507 26.6903 131.936 26.1191 131.231 26.1191Z" fill="url(#paint6_linear_2635_67123)"/>
<path d="M111.162 27.5802C111.73 27.497 112.304 27.4574 112.878 27.4617C113.724 27.4617 114.315 27.5888 114.721 27.9098C115.059 28.1805 115.245 28.5777 115.245 29.1019C115.245 29.8292 114.73 30.3277 114.237 30.5057V30.5304C114.634 30.6911 114.855 31.0717 114.998 31.5959C115.176 32.2385 115.351 32.9825 115.464 33.2023H114.147C114.053 33.0415 113.918 32.5768 113.749 31.8751C113.598 31.1644 113.352 30.9679 112.827 30.9618H112.438V33.2023H111.162V27.5802ZM112.438 30.0319H112.946C113.588 30.0319 113.969 29.7108 113.969 29.2118C113.969 28.6876 113.616 28.4255 113.022 28.4169C112.827 28.4131 112.631 28.4273 112.438 28.4592V30.0319Z" fill="white"/>
<path d="M119.566 30.7928H117.47V32.1456H119.81V33.2041H116.176V27.5039H119.693V28.5624H117.47V29.7464H119.566V30.7928Z" fill="white"/>
<path d="M120.695 33.2021V27.5039H122.2L123.383 29.5922C123.736 30.2221 124.047 30.8745 124.313 31.5453H124.339C124.258 30.756 124.221 29.9627 124.229 29.1693V27.5059H125.413V33.2021H124.06L122.843 31.004C122.478 30.3511 122.147 29.6795 121.853 28.9918L121.828 28.9999C121.862 29.7529 121.878 30.5559 121.878 31.4858V33.2021H120.695Z" fill="white"/>
<path d="M127.63 28.5861H126.1V27.5039H130.479V28.5861H128.923V33.2021H127.63V28.5861Z" fill="white"/>
<path d="M38.2944 40.6187H17.8853C17.1946 40.6187 16.6348 41.1785 16.6348 41.8692V47.6274C16.6348 48.318 17.1946 48.8779 17.8853 48.8779H38.2944C38.9851 48.8779 39.545 48.318 39.545 47.6274V41.8692C39.545 41.1785 38.9851 40.6187 38.2944 40.6187Z" fill="url(#paint7_linear_2635_67123)"/>
<path d="M20.2402 42.0198C20.5729 41.9532 21.2453 41.9033 21.8769 41.9033C22.649 41.9033 23.1223 41.9784 23.5296 42.2189C23.9197 42.4265 24.2025 42.8086 24.2025 43.3156C24.2025 43.8136 23.9117 44.2789 23.2801 44.5117V44.5284C23.9197 44.7028 24.393 45.1836 24.393 45.9064C24.393 46.4135 24.1607 46.8137 23.8119 47.0944C23.4051 47.4185 22.7242 47.5985 21.6107 47.5985C21.1525 47.603 20.6945 47.5752 20.2402 47.5153V42.0198ZM21.4943 44.1624H21.9096C22.5745 44.1624 22.9318 43.8887 22.9318 43.4729C22.9318 43.0571 22.6077 42.8257 22.0341 42.8257C21.8536 42.8227 21.6731 42.8338 21.4943 42.859V44.1624ZM21.4943 46.6458C21.6573 46.6614 21.8211 46.667 21.9847 46.6625C22.5578 46.6625 23.0644 46.4468 23.0644 45.856C23.0644 45.2915 22.5578 45.0667 21.9268 45.0667H21.4943V46.6458Z" fill="white"/>
<path d="M26.5232 41.9454V45.1677C26.5232 46.131 26.8886 46.6214 27.5363 46.6214C28.2012 46.6214 28.5661 46.1562 28.5661 45.1677V41.9454H29.8262V45.0846C29.8262 46.8124 28.9542 47.6345 27.4925 47.6345C26.0812 47.6345 25.25 46.8537 25.25 45.0679V41.9429L26.5232 41.9454Z" fill="white"/>
<path d="M32.2223 47.5432V45.2508L30.4531 41.9453H31.8982L32.4713 43.2906C32.6457 43.6979 32.7621 43.9963 32.9033 44.3622H32.9199C33.0439 44.0134 33.1775 43.6893 33.3433 43.2906L33.9078 41.9453H35.3282L33.4844 45.2095V47.5432H32.2223Z" fill="white"/>
</g>
<defs>
<linearGradient id="paint0_linear_2635_67123" x1="83.8462" y1="5.95077" x2="91.9393" y2="5.96439" gradientUnits="userSpaceOnUse">
<stop stop-color="#556255"/>
<stop offset="1" stop-color="#60A560"/>
</linearGradient>
<linearGradient id="paint1_linear_2635_67123" x1="91.3846" y1="10.3888" x2="98.632" y2="10.4084" gradientUnits="userSpaceOnUse">
<stop stop-color="#556255"/>
<stop offset="1" stop-color="#60A560"/>
</linearGradient>
<linearGradient id="paint2_linear_2635_67123" x1="76.9197" y1="8.61802" x2="83.3016" y2="8.63275" gradientUnits="userSpaceOnUse">
<stop stop-color="#556255"/>
<stop offset="1" stop-color="#60A560"/>
</linearGradient>
<linearGradient id="paint3_linear_2635_67123" x1="68.7251" y1="27.3106" x2="81.9869" y2="27.3331" gradientUnits="userSpaceOnUse">
<stop stop-color="#556255"/>
<stop offset="1" stop-color="#60A560"/>
</linearGradient>
<linearGradient id="paint4_linear_2635_67123" x1="66.5542" y1="38.8945" x2="90.6258" y2="38.9548" gradientUnits="userSpaceOnUse">
<stop stop-color="#556255"/>
<stop offset="1" stop-color="#60A560"/>
</linearGradient>
<linearGradient id="paint5_linear_2635_67123" x1="84.3081" y1="40.2442" x2="96.9685" y2="40.2693" gradientUnits="userSpaceOnUse">
<stop stop-color="#556255"/>
<stop offset="1" stop-color="#60A560"/>
</linearGradient>
<linearGradient id="paint6_linear_2635_67123" x1="101.955" y1="29.8185" x2="133.778" y2="30.1572" gradientUnits="userSpaceOnUse">
<stop stop-color="#556255"/>
<stop offset="1" stop-color="#60A560"/>
</linearGradient>
<linearGradient id="paint7_linear_2635_67123" x1="9.59699" y1="44.245" x2="40.7915" y2="44.577" gradientUnits="userSpaceOnUse">
<stop stop-color="#556255"/>
<stop offset="1" stop-color="#60A560"/>
</linearGradient>
<clipPath id="clip0_2635_67123">
<rect width="136" height="96.4272" fill="white"/>
</clipPath>
</defs>
</svg>
