<svg width="137" height="97" viewBox="0 0 137 97" fill="none" xmlns="http://www.w3.org/2000/svg">
<path d="M13.7994 44.4698C14.0436 54.098 16.8333 63.7029 22.0676 72.1066C27.7012 81.1576 35.6091 89.1544 44.7956 95.2142H115.444C115.781 94.9275 116.114 94.637 116.443 94.3463C117.645 93.2924 118.791 92.2037 119.884 91.0723C122.375 88.5073 124.587 85.7527 126.486 82.7461C127.404 81.301 128.253 79.7936 129.012 78.2206C130.035 76.1438 130.915 73.9546 131.647 71.6416C133.065 67.1705 134.018 62.4669 134.348 57.732C134.503 55.5352 134.526 53.3306 134.402 51.1453C134.394 50.9825 134.386 50.8122 134.371 50.6531C134.107 46.6894 133.36 42.7761 132.035 39.0335C131.604 37.8246 131.116 36.6273 130.57 35.4533C128.854 31.8036 126.335 28.4403 123.243 25.7982C121.395 24.2133 119.334 22.8923 117.118 21.9121C110.306 18.9016 104.243 21.6526 97.1714 22.0283C92.1462 22.2918 87.0704 22.2143 82.1072 21.3038C77.1442 20.3972 72.3591 18.6342 68.1165 15.8756C63.2422 12.7023 60.7277 8.05669 56.6169 4.3062C55.3113 3.11673 53.3856 1.95448 50.813 1.19099C49.5032 0.695159 48.1316 0.334618 46.7253 0.148834C45.3071 -0.0411176 43.8542 -0.0565586 42.3586 0.144912C35.373 1.06697 29.034 5.57311 24.683 11.106C20.0414 17.0263 16.8992 23.7408 15.2294 30.7614C14.1561 35.2523 13.6872 39.8592 13.7994 44.4698Z" fill="#D3DFD9"/>
<path d="M81.5582 6.38886C82.2613 6.38886 82.8312 5.8189 82.8312 5.11582C82.8312 4.41273 82.2613 3.84277 81.5582 3.84277C80.8551 3.84277 80.2852 4.41273 80.2852 5.11582C80.2852 5.8189 80.8551 6.38886 81.5582 6.38886Z" fill="#D3DFD9"/>
<path d="M7.62068 95.1132C7.64175 95.1448 7.65768 95.1767 7.67337 95.2083L3.42851 95.2036C2.8062 94.6433 2.23659 94.0514 1.75694 93.449C0.185855 91.5095 -0.53547 89.4921 0.474336 88.2842C1.76429 86.7387 4.51626 90.2526 6.58758 93.4544C6.9567 94.0303 7.3045 94.5904 7.62068 95.1132Z" fill="#EFF9F4"/>
<path d="M6.62969 95.2087C6.61915 95.1771 6.60346 95.1452 6.59831 95.1136C6.40885 94.5908 6.214 94.0362 6.00885 93.4553C3.28262 85.644 -0.737485 72.9212 1.75541 72.2533C4.58606 71.4962 6.79684 82.5643 7.61523 87.3487C7.83557 88.6528 7.95591 89.4925 7.95591 89.4925L7.81327 89.4923L8.55346 93.458L8.87896 95.2112L6.62969 95.2087Z" fill="#EFF9F4"/>
<path d="M11.1906 90.5623C11.1906 90.5674 11.1852 90.5728 11.1852 90.5833C11.0046 91.5809 10.8188 92.5468 10.633 93.4601C10.5161 94.0723 10.3943 94.6581 10.2828 95.2125L8.14453 95.2103C8.10286 94.6348 8.05605 94.0539 8.00924 93.4574C7.85826 91.4721 7.70727 89.3865 7.61463 87.3485C7.27958 79.9198 7.6933 73.1362 11.4671 74.1539C13.61 74.7316 12.4918 83.41 11.1906 90.5623Z" fill="#EFF9F4"/>
<path d="M13.1344 93.4629C12.7799 94.0695 12.4255 94.6553 12.0871 95.2146L9.92773 95.2124C10.0603 94.658 10.2089 94.0671 10.3679 93.4599C10.6118 92.5256 10.8821 91.5491 11.1841 90.5835C11.1841 90.5729 11.1895 90.5675 11.1895 90.5624C12.4875 86.3771 14.2817 82.3295 16.3297 82.5692C18.7738 82.857 15.9167 88.693 13.1344 93.4629Z" fill="#EFF9F4"/>
<path d="M75.7185 13.6529C77.4799 13.6529 78.9077 12.225 78.9077 10.4636C78.9077 8.70228 77.4799 7.27441 75.7185 7.27441C73.9572 7.27441 72.5293 8.70228 72.5293 10.4636C72.5293 12.225 73.9572 13.6529 75.7185 13.6529Z" fill="#D3DFD9"/>
<path d="M32.8487 12.4639C34.9835 12.4639 36.5793 13.7673 36.5793 16.2619C36.5793 18.7563 34.9835 20.06 32.8487 20.06C30.7138 20.06 29.0957 18.7565 29.0957 16.2619C29.0957 13.7673 30.7138 12.4639 32.8487 12.4639ZM31.7477 16.2619C31.7477 17.318 32.1521 17.7901 32.8264 17.7901C33.5006 17.7901 33.9273 17.318 33.9273 16.2619C33.9273 15.1832 33.5004 14.7112 32.8264 14.7112C32.1523 14.7112 31.7477 15.1832 31.7477 16.2619ZM40.647 12.7112H44.3548L35.7028 28.5323H31.995L40.647 12.7112ZM43.5234 21.1835C45.6582 21.1835 47.2538 22.4646 47.2538 24.9815C47.2538 27.4762 45.6582 28.7796 43.5234 28.7796C41.3884 28.7796 39.7928 27.4762 39.7928 24.9815C39.7928 22.4646 41.3884 21.1835 43.5234 21.1835ZM42.4222 24.9815C42.4222 26.0377 42.8266 26.5097 43.5011 26.5097C44.1754 26.5097 44.6021 26.0377 44.6021 24.9815C44.6021 23.9254 44.1752 23.4308 43.5011 23.4308C42.8266 23.4308 42.4222 23.9252 42.4222 24.9815Z" fill="url(#paint0_linear_2610_38780)"/>
<path d="M31.4817 12.4639C33.6165 12.4639 35.2124 13.7673 35.2124 16.2619C35.2124 18.7563 33.6165 20.06 31.4817 20.06C29.3469 20.06 27.7285 18.7565 27.7285 16.2619C27.7285 13.7673 29.3469 12.4639 31.4817 12.4639ZM30.3805 16.2619C30.3805 17.318 30.7849 17.7901 31.4592 17.7901C32.1334 17.7901 32.5601 17.318 32.5601 16.2619C32.5601 15.1832 32.1332 14.7112 31.4592 14.7112C30.7851 14.7112 30.3805 15.1832 30.3805 16.2619ZM39.28 12.7112H42.9879L34.3359 28.5323H30.628L39.28 12.7112ZM42.1565 21.1835C44.2913 21.1835 45.8869 22.4646 45.8869 24.9815C45.8869 27.4762 44.2913 28.7796 42.1565 28.7796C40.0214 28.7796 38.4258 27.4762 38.4258 24.9815C38.4258 22.4646 40.0214 21.1835 42.1565 21.1835ZM41.0553 24.9815C41.0553 26.0377 41.4597 26.5097 42.1342 26.5097C42.8084 26.5097 43.2352 26.0377 43.2352 24.9815C43.2352 23.9254 42.8082 23.4308 42.1342 23.4308C41.4597 23.4308 41.0553 23.9252 41.0553 24.9815Z" fill="white"/>
<path d="M109.532 94.9854L58.3315 80.016C57.5579 79.7897 57.1141 78.9792 57.3403 78.2057L76.4741 12.7611C76.7004 11.9876 77.5109 11.5437 78.2844 11.77L129.485 26.7394C130.259 26.9656 130.702 27.7761 130.476 28.5497L111.342 93.9942C111.116 94.7677 110.306 95.2116 109.532 94.9854Z" fill="#698B75"/>
<path d="M108.183 94.5908L56.8631 79.5866C56.1224 79.3699 55.6974 78.594 55.9139 77.853L75.0825 12.2894C75.2992 11.5487 76.0752 11.1237 76.8161 11.3401L128.136 26.3443C128.876 26.561 129.301 27.337 129.085 28.0779L109.916 93.6415C109.7 94.3825 108.924 94.8075 108.183 94.5908Z" fill="white" stroke="#698B75" stroke-width="0.219339" stroke-miterlimit="10"/>
<path d="M126.479 28.1507L77.2363 13.7544L57.8655 80.013L107.108 94.4093L126.479 28.1507Z" fill="#EFF9F4"/>
<path d="M78.9961 14.2295C78.9961 14.2295 64.6547 62.4107 56.7559 73.7362L102.934 91.4424C106.937 82.5456 125.133 27.7182 125.133 27.7182" fill="white"/>
<path d="M88.2089 27.7438L87.059 31.6771L86.1009 31.397L86.82 28.9373L85.2493 31.148L84.42 30.9055L84.2835 28.1896L83.5628 30.6549L82.6047 30.3748L83.7546 26.4415L84.9256 26.7839L85.1947 29.8366L87.0435 27.4031L88.2089 27.7438ZM90.7794 28.3979C91.1529 28.5071 91.4653 28.6938 91.7165 28.9578C91.9726 29.2191 92.1431 29.5305 92.228 29.8919C92.314 30.2495 92.3002 30.6225 92.1866 31.011C92.0731 31.3995 91.8813 31.7225 91.6114 31.9801C91.3452 32.2388 91.0333 32.4112 90.6757 32.4972C90.3229 32.5806 89.9616 32.5682 89.5918 32.4601C89.222 32.352 88.909 32.1672 88.653 31.9059C88.4018 31.6419 88.2318 31.3286 88.1431 30.9662C88.0582 30.6048 88.0726 30.2299 88.1861 29.8414C88.2997 29.453 88.489 29.1312 88.7541 28.8763C89.0241 28.6187 89.3354 28.4482 89.6882 28.3648C90.0458 28.2788 90.4096 28.2898 90.7794 28.3979ZM90.5189 29.2888C90.2051 29.1971 89.9248 29.2266 89.678 29.3775C89.436 29.5257 89.2637 29.7753 89.161 30.1265C89.0595 30.4738 89.0702 30.777 89.1932 31.036C89.3199 31.296 89.5401 31.4719 89.8539 31.5636C90.1639 31.6543 90.4423 31.6242 90.6891 31.4733C90.936 31.3225 91.1102 31.0734 91.2117 30.726C91.3133 30.3786 91.3007 30.0749 91.174 29.8148C91.051 29.5559 90.8327 29.3805 90.5189 29.2888ZM94.1756 33.7576L93.7557 32.011L93.5372 31.9471L93.0998 33.4431L92.1417 33.163L93.2998 29.2017L94.9359 29.68C95.2497 29.7717 95.499 29.9034 95.684 30.0751C95.869 30.2468 95.9878 30.4437 96.0404 30.6659C96.0941 30.8843 96.0855 31.1149 96.0145 31.3577C95.9304 31.6453 95.7786 31.8665 95.559 32.0212C95.3432 32.1771 95.073 32.2481 94.7486 32.2344L95.2346 34.0672L94.1756 33.7576ZM93.7288 31.2916L94.3228 31.4652C94.5133 31.5209 94.6653 31.5208 94.779 31.4648C94.8938 31.4051 94.9752 31.2931 95.0232 31.1287C95.0691 30.9718 95.0584 30.8349 94.9913 30.718C94.9278 30.6021 94.8027 30.5169 94.616 30.4623L94.0221 30.2886L93.7288 31.2916ZM99.7082 31.0752L99.4854 31.8372L98.4096 31.5227L97.4743 34.722L96.5106 34.4403L97.4459 31.241L96.3814 30.9297L96.6041 30.1677L99.7082 31.0752ZM101.978 31.6962C102.475 31.8415 102.848 32.0825 103.099 32.4192C103.349 32.7559 103.453 33.143 103.41 33.5806L102.396 33.2841C102.37 33.1225 102.3 32.9804 102.186 32.8578C102.073 32.7315 101.919 32.6399 101.725 32.5831C101.422 32.4947 101.149 32.5264 100.906 32.6784C100.664 32.8266 100.493 33.0744 100.391 33.4217C100.281 33.799 100.291 34.1163 100.423 34.3737C100.558 34.6322 100.803 34.8133 101.158 34.9171C101.386 34.9837 101.604 34.9805 101.812 34.9075C102.021 34.8307 102.194 34.6869 102.333 34.476L101.123 34.1222L101.324 33.4331L103.336 34.0211L103.059 34.968C102.917 35.1778 102.734 35.3576 102.512 35.5075C102.29 35.6575 102.032 35.7564 101.738 35.8043C101.448 35.8533 101.139 35.8297 100.81 35.7337C100.41 35.6168 100.086 35.4307 99.8358 35.1752C99.5872 34.916 99.4255 34.6093 99.3507 34.2549C99.2797 33.9017 99.3015 33.5289 99.4161 33.1367C99.5308 32.7445 99.7132 32.4187 99.9634 32.1594C100.217 31.9012 100.516 31.7311 100.861 31.6493C101.21 31.5648 101.582 31.5805 101.978 31.6962ZM105.887 36.397L104.402 35.9629L103.945 36.6136L102.936 36.3188L105.537 32.8097L106.641 33.1324L106.942 37.49L105.922 37.1918L105.887 36.397ZM105.854 35.5965L105.786 33.9956L104.862 35.3066L105.854 35.5965ZM110.339 34.1405C110.836 34.2857 111.209 34.5267 111.459 34.8634C111.71 35.2001 111.813 35.5873 111.771 36.0248L110.756 35.7283C110.731 35.5667 110.661 35.4246 110.547 35.3021C110.433 35.1757 110.28 35.0842 110.086 35.0274C109.783 34.939 109.51 34.9707 109.267 35.1226C109.025 35.2708 108.853 35.5186 108.752 35.866C108.641 36.2433 108.652 36.5606 108.784 36.818C108.919 37.0765 109.164 37.2576 109.519 37.3614C109.747 37.428 109.964 37.4248 110.172 37.3517C110.381 37.275 110.555 37.1312 110.694 36.9203L109.484 36.5665L109.685 35.8773L111.696 36.4654L111.42 37.4123C111.277 37.622 111.095 37.8019 110.873 37.9518C110.65 38.1017 110.392 38.2006 110.099 38.2486C109.809 38.2976 109.499 38.274 109.171 38.1779C108.771 38.0611 108.446 37.8749 108.197 37.6195C107.948 37.3603 107.786 37.0535 107.711 36.6992C107.64 36.3459 107.662 35.9732 107.777 35.581C107.891 35.1888 108.074 34.863 108.324 34.6037C108.578 34.3454 108.877 34.1754 109.221 34.0936C109.57 34.0091 109.943 34.0248 110.339 34.1405ZM113.476 35.9274L113.233 36.7566L114.573 37.1481L114.361 37.8709L113.022 37.4794L112.765 38.3591L114.272 38.7997L114.048 39.5673L111.582 38.8466L112.741 34.8853L115.206 35.606L114.983 36.368L113.476 35.9274Z" fill="#698B75"/>
<path d="M78.9961 14.2295C78.9961 14.2295 64.6547 62.4107 56.7559 73.7362L102.934 91.4424" stroke="#698B75" stroke-width="0.193603" stroke-miterlimit="10"/>
<path d="M111.249 26.2075L91.1184 20.322C90.7449 20.2127 90.5307 19.8215 90.6398 19.448L92.2606 13.9041C92.3699 13.5306 92.7611 13.3163 93.1346 13.4254L113.266 19.311C113.639 19.4203 113.853 19.8115 113.744 20.185L112.123 25.7289C112.014 26.1024 111.623 26.3166 111.249 26.2075Z" fill="#EFF9F4"/>
<path d="M110.126 22.9149L93.837 18.1527C93.5356 18.0644 93.3625 17.7485 93.4508 17.447L94.7562 12.9825C94.8444 12.6811 95.1603 12.508 95.4618 12.5963L111.751 17.3585C112.052 17.4468 112.225 17.7627 112.137 18.0642L110.831 22.5286C110.743 22.8301 110.428 23.0032 110.126 22.9149Z" stroke="#698B75" stroke-width="0.438653" stroke-miterlimit="10"/>
<path d="M76.6179 36.9336L114.014 47.7027L113.754 48.4361L76.377 37.5941L76.6179 36.9336Z" fill="#D3DFD9"/>
<path d="M99.3152 49.7959L111.909 53.6373L111.648 54.3726L99.0605 50.5064L99.3152 49.7959Z" fill="#D3DFD9"/>
<path d="M74.6692 42.2778L96.8047 49.0301L96.5513 49.7354L74.4277 42.9401L74.6692 42.2778Z" fill="#D3DFD9"/>
<path d="M83.1658 51.0059L109.793 59.5885L109.531 60.326L82.918 51.6902L83.1658 51.0059Z" fill="#D3DFD9"/>
<path d="M72.7129 47.6357L80.8538 50.26L80.6072 50.9399L72.4707 48.2997L72.7129 47.6357Z" fill="#D3DFD9"/>
<path d="M89.4443 59.3599L107.675 65.556L107.412 66.2954L89.1914 60.0628L89.4443 59.3599Z" fill="#D3DFD9"/>
<path d="M70.7524 53.0073L87.0319 58.5404L86.7802 59.2385L70.5098 53.6728L70.7524 53.0073Z" fill="#D3DFD9"/>
<path d="M99.0157 69.2041L105.549 71.5409L105.286 72.2823L98.7559 69.9325L99.0157 69.2041Z" fill="#D3DFD9"/>
<path d="M68.7883 58.3926L96.4575 68.2889L96.1989 69.012L68.5449 59.0597L68.7883 58.3926Z" fill="#D3DFD9"/>
<path d="M79.8274 68.6792L103.417 77.542L103.153 78.2858L79.5762 69.3745L79.8274 68.6792Z" fill="#D3DFD9"/>
<path d="M66.8161 63.791L77.5083 67.8082L77.2583 68.4989L66.5723 64.4599L66.8161 63.791Z" fill="#D3DFD9"/>
<path d="M86.0982 77.5776L101.282 83.5602L101.017 84.3061L85.8418 78.2921L86.0982 77.5776Z" fill="#D3DFD9"/>
<path d="M64.8442 69.2036L83.6798 76.625L83.4247 77.3345L64.5996 69.8742L64.8442 69.2036Z" fill="#D3DFD9"/>
<path d="M105.35 64.1231H99.0879L100.218 56.2983L105.35 64.1231Z" fill="#698B75"/>
<path d="M100.717 59.6187H62.6562V95.2148H100.717V59.6187Z" fill="white"/>
<path d="M100.717 93.395H62.6562V95.2146H100.717V93.395Z" fill="#698B75"/>
<path d="M100.717 59.6187H62.6562L79.7541 42.8633L81.0058 41.6346L81.9879 40.6753L82.7781 41.4701L82.8695 41.5613L100.717 59.6187Z" fill="white"/>
<path d="M100.717 59.6184V62.0349L98.145 59.6184L81.3668 43.8542L80.7227 42.863L81.0472 41.7255L82.0474 41.6343L82.8697 41.561L100.717 59.6184Z" fill="#D3DFD9"/>
<path d="M62.6583 59.6187H11.9688V95.2121H62.6583V59.6187Z" fill="#D3DFD9"/>
<path d="M62.6583 93.395H11.9688V95.2124H62.6583V93.395Z" fill="#698B75"/>
<path d="M105.351 64.1232L109.861 64.1937L82.7644 38.9224L55.668 64.1937L58.8371 65.4641L82.7644 43.2177L105.351 64.1232Z" fill="#698B75"/>
<path d="M58.8364 65.464H3.49219V64.1831H55.6673L58.8364 65.464Z" fill="#698B75"/>
<path d="M76.551 91.9053L88.9785 91.9053L88.9785 70.681L76.551 70.681L76.551 91.9053Z" fill="#698B75"/>
<path d="M76.3045 69.7749H89.2232C89.4732 69.7749 89.6761 69.9776 89.6761 70.2278C89.6761 70.4778 89.4734 70.6808 89.2232 70.6808H76.3045C76.0545 70.6808 75.8516 70.4781 75.8516 70.2278C75.8516 69.9776 76.0545 69.7749 76.3045 69.7749Z" fill="white"/>
<path d="M77.1832 91.9048L88.3457 91.9048L88.3457 71.28L77.1832 71.28L77.1832 91.9048Z" fill="white"/>
<path d="M77.7516 91.4692L87.8359 91.4692L87.8359 71.7158L77.7516 71.7158L77.7516 91.4692Z" fill="url(#paint1_linear_2610_38780)"/>
<path d="M77.5943 81.8608L88.3164 81.8608L88.3164 81.1576L77.5943 81.1576L77.5943 81.8608Z" fill="white"/>
<path d="M78.2801 80.4131L87.3086 80.4131L87.3086 72.3356L78.2801 72.3356L78.2801 80.4131Z" stroke="#698B75" stroke-width="0.0666913" stroke-miterlimit="10"/>
<path d="M78.2801 90.7837L87.3086 90.7837L87.3086 82.7062L78.2801 82.7062L78.2801 90.7837Z" stroke="#698B75" stroke-width="0.0666913" stroke-miterlimit="10"/>
<path d="M82.7614 61.5336C85.0675 61.5336 86.9369 59.6642 86.9369 57.3581C86.9369 55.0521 85.0675 53.1826 82.7614 53.1826C80.4554 53.1826 78.5859 55.0521 78.5859 57.3581C78.5859 59.6642 80.4554 61.5336 82.7614 61.5336Z" fill="#698B75"/>
<path d="M82.7626 61.2595C84.9172 61.2595 86.6638 59.5129 86.6638 57.3583C86.6638 55.2037 84.9172 53.457 82.7626 53.457C80.608 53.457 78.8613 55.2037 78.8613 57.3583C78.8613 59.5129 80.608 61.2595 82.7626 61.2595Z" fill="white"/>
<path d="M82.7633 61.0729C84.8115 61.0729 86.4719 59.4125 86.4719 57.3644C86.4719 55.3162 84.8115 53.6558 82.7633 53.6558C80.7151 53.6558 79.0547 55.3162 79.0547 57.3644C79.0547 59.4125 80.7151 61.0729 82.7633 61.0729Z" fill="url(#paint2_linear_2610_38780)"/>
<path d="M82.652 61.2207L82.8691 61.2207L82.8691 53.4959L82.652 53.4959L82.652 61.2207Z" fill="white"/>
<path d="M86.623 57.4667L86.623 57.2495L78.8983 57.2495L78.8983 57.4667L86.623 57.4667Z" fill="white"/>
<path d="M50.575 83.9859V74.9308L50.5777 74.3972C50.5777 74.3545 50.5772 74.3119 50.5745 74.2692C50.5708 74.0989 50.5598 73.9548 50.5404 73.8178C50.2581 71.5227 48.2892 69.7842 45.962 69.7842H44.5586C43.3238 69.7842 42.1654 70.2643 41.2965 71.1361C40.5715 71.8582 40.1041 72.8148 39.9813 73.8288C39.9576 74.0116 39.9453 74.2045 39.9453 74.3969V83.9857H50.575V83.9859Z" fill="#698B75"/>
<path d="M40.5104 73.8931C40.6224 72.9674 41.0467 72.1375 41.6736 71.5132C42.4099 70.7742 43.429 70.3179 44.5577 70.3179H45.9611C48.0447 70.3179 49.7631 71.876 50.0111 73.8929C50.0298 74.0235 50.0379 74.1571 50.0405 74.2931C50.0432 74.3279 50.0433 74.3625 50.0433 74.3973H50.0405V83.4525H40.4785V74.3973C40.4783 74.2267 40.4891 74.0586 40.5104 73.8931Z" fill="white"/>
<path d="M49.6663 74.1161C49.532 72.1818 47.9153 70.6489 45.9474 70.6489H44.5741C42.6062 70.6489 40.9895 72.1818 40.8555 74.1161H49.6663Z" fill="url(#paint3_linear_2610_38780)"/>
<path d="M40.8336 83.0986L49.6855 83.0986L49.6855 74.6403L40.8336 74.6403L40.8336 83.0986Z" fill="url(#paint4_linear_2610_38780)"/>
<path d="M39.9738 84.4141L50.5449 84.4141L50.5449 83.4038L39.9738 83.4038L39.9738 84.4141Z" fill="#698B75"/>
<path d="M45.0366 83.2168L45.4844 83.2168L45.4844 74.0513L45.0366 74.0513L45.0366 83.2168Z" fill="white"/>
<path d="M45.0915 74.377L45.4102 74.377L45.4102 70.4615L45.0915 70.4615L45.0915 74.377Z" fill="white"/>
<path d="M42.2852 71.3528L42.5104 71.1069L45.2839 74.1322L45.0587 74.378L42.2852 71.3528Z" fill="white"/>
<path d="M48.23 71.3396L48.0045 71.0938L45.2188 74.1322L45.4442 74.3781L48.23 71.3396Z" fill="white"/>
<path d="M31.7391 83.9859V74.9308L31.7418 74.3972C31.7418 74.3545 31.7413 74.3119 31.7386 74.2692C31.7349 74.0989 31.7239 73.9548 31.7045 73.8178C31.4221 71.5227 29.4533 69.7842 27.1261 69.7842H25.7226C24.4878 69.7842 23.3295 70.2643 22.4606 71.1361C21.7356 71.8582 21.2682 72.8148 21.1454 73.8288C21.1216 74.0116 21.1094 74.2045 21.1094 74.3969V83.9857H31.7391V83.9859Z" fill="#698B75"/>
<path d="M21.6764 73.8931C21.7884 72.9674 22.2127 72.1375 22.8396 71.5132C23.5759 70.7742 24.595 70.3179 25.7237 70.3179H27.1271C29.2107 70.3179 30.9291 71.876 31.1772 73.8929C31.1958 74.0235 31.2039 74.1571 31.2066 74.2931C31.2093 74.3279 31.2093 74.3625 31.2093 74.3973H31.2066V83.4525H21.6445V74.3973C21.6445 74.2267 21.6551 74.0586 21.6764 73.8931Z" fill="white"/>
<path d="M30.8323 74.1161C30.698 72.1818 29.0813 70.6489 27.1134 70.6489H25.7401C23.7722 70.6489 22.1556 72.1818 22.0215 74.1161H30.8323Z" fill="url(#paint5_linear_2610_38780)"/>
<path d="M21.9996 83.0986L30.8516 83.0986L30.8516 74.6403L21.9996 74.6403L21.9996 83.0986Z" fill="url(#paint6_linear_2610_38780)"/>
<path d="M21.1398 84.4141L31.7109 84.4141L31.7109 83.4038L21.1398 83.4038L21.1398 84.4141Z" fill="#698B75"/>
<path d="M26.2026 83.2168L26.6504 83.2168L26.6504 74.0513L26.2026 74.0513L26.2026 83.2168Z" fill="white"/>
<path d="M26.2575 74.377L26.5762 74.377L26.5762 70.4615L26.2575 70.4615L26.2575 74.377Z" fill="white"/>
<path d="M23.4512 71.3528L23.6764 71.1069L26.45 74.1322L26.2247 74.378L23.4512 71.3528Z" fill="white"/>
<path d="M29.396 71.3396L29.1706 71.0938L26.3848 74.1322L26.6103 74.3781L29.396 71.3396Z" fill="white"/>
<path d="M3.49219 64.1832L30.4006 38.9224H82.7637L55.6673 64.1937L3.49219 64.1832Z" fill="url(#paint7_linear_2610_38780)"/>
<path d="M62.6667 64.4717L100.719 64.4717L100.719 63.1158L62.6667 63.1158L62.6667 64.4717Z" fill="#D3DFD9"/>
<path d="M62.6667 64.9902L100.719 64.9902L100.719 64.4721L62.6667 64.4721L62.6667 64.9902Z" fill="#D3DFD9"/>
<path d="M51.4707 47.1032L45.0977 52.8093V35.1416H51.4707V47.1032Z" fill="#698B75"/>
<path d="M45.0958 35.1416H36.5859V52.8093H45.0958V35.1416Z" fill="#698B75"/>
<path d="M53.0903 33.4224H43.8633V35.1415H53.0903V33.4224Z" fill="#698B75"/>
<path d="M45.3286 33.4224H34.9648V35.1415H45.3286V33.4224Z" fill="url(#paint8_linear_2610_38780)"/>
<path d="M74.8258 78.5126V81.7552C74.8258 82.0484 74.5861 82.2883 74.2883 82.2883H58.035C57.7419 82.2883 57.502 82.0484 57.502 81.7552V78.5126C57.502 78.2194 57.7419 77.9795 58.035 77.9795H74.2883C74.5861 77.9795 74.8258 78.2192 74.8258 78.5126Z" fill="#F5B55D"/>
<path d="M74.8258 81.4663V81.755C74.8258 82.0482 74.5861 82.2881 74.2883 82.2881H58.035C57.7419 82.2881 57.502 82.0482 57.502 81.755V81.4663H74.8258Z" fill="#698B75"/>
<path d="M59.3477 79.0854V80.9864" stroke="#698B75" stroke-width="0.222108" stroke-miterlimit="10" stroke-linecap="round" stroke-linejoin="round"/>
<path d="M61.6191 79.0854V80.9864" stroke="#698B75" stroke-width="0.222108" stroke-miterlimit="10" stroke-linecap="round" stroke-linejoin="round"/>
<path d="M63.8906 79.0854V80.9864" stroke="#698B75" stroke-width="0.222108" stroke-miterlimit="10" stroke-linecap="round" stroke-linejoin="round"/>
<path d="M66.1621 79.0854V80.9864" stroke="#698B75" stroke-width="0.222108" stroke-miterlimit="10" stroke-linecap="round" stroke-linejoin="round"/>
<path d="M68.4316 79.0854V80.9864" stroke="#698B75" stroke-width="0.222108" stroke-miterlimit="10" stroke-linecap="round" stroke-linejoin="round"/>
<path d="M70.7031 79.0854V80.9864" stroke="#698B75" stroke-width="0.222108" stroke-miterlimit="10" stroke-linecap="round" stroke-linejoin="round"/>
<path d="M72.9746 79.0854V80.9864" stroke="#698B75" stroke-width="0.222108" stroke-miterlimit="10" stroke-linecap="round" stroke-linejoin="round"/>
<path d="M72.7515 82.8212V86.0638C72.7515 86.357 72.5118 86.5969 72.214 86.5969H55.9608C55.6677 86.5969 55.4277 86.357 55.4277 86.0638V82.8212C55.4277 82.528 55.6677 82.2881 55.9608 82.2881H72.214C72.5118 82.2881 72.7515 82.528 72.7515 82.8212Z" fill="#F5B55D"/>
<path d="M72.7515 85.7749V86.0636C72.7515 86.3568 72.5118 86.5967 72.214 86.5967H55.9608C55.6677 86.5967 55.4277 86.3568 55.4277 86.0636V85.7749H72.7515Z" fill="#698B75"/>
<path d="M57.2734 83.394V85.295" stroke="#698B75" stroke-width="0.222108" stroke-miterlimit="10" stroke-linecap="round" stroke-linejoin="round"/>
<path d="M59.5449 83.394V85.295" stroke="#698B75" stroke-width="0.222108" stroke-miterlimit="10" stroke-linecap="round" stroke-linejoin="round"/>
<path d="M61.8164 83.394V85.295" stroke="#698B75" stroke-width="0.222108" stroke-miterlimit="10" stroke-linecap="round" stroke-linejoin="round"/>
<path d="M64.0859 83.394V85.295" stroke="#698B75" stroke-width="0.222108" stroke-miterlimit="10" stroke-linecap="round" stroke-linejoin="round"/>
<path d="M66.3574 83.394V85.295" stroke="#698B75" stroke-width="0.222108" stroke-miterlimit="10" stroke-linecap="round" stroke-linejoin="round"/>
<path d="M68.6289 83.394V85.295" stroke="#698B75" stroke-width="0.222108" stroke-miterlimit="10" stroke-linecap="round" stroke-linejoin="round"/>
<path d="M70.9004 83.394V85.295" stroke="#698B75" stroke-width="0.222108" stroke-miterlimit="10" stroke-linecap="round" stroke-linejoin="round"/>
<path d="M74.1969 87.1298V90.3724C74.1969 90.6656 73.9572 90.9055 73.6594 90.9055H57.4061C57.113 90.9055 56.873 90.6656 56.873 90.3724V87.1298C56.873 86.8366 57.113 86.5967 57.4061 86.5967H73.6594C73.9569 86.5967 74.1969 86.8366 74.1969 87.1298Z" fill="#F5B55D"/>
<path d="M74.1969 90.0835V90.3722C74.1969 90.6654 73.9572 90.9053 73.6594 90.9053H57.4061C57.113 90.9053 56.873 90.6654 56.873 90.3722V90.0835H74.1969Z" fill="#698B75"/>
<path d="M58.7246 87.7026V89.6036" stroke="#698B75" stroke-width="0.222108" stroke-miterlimit="10" stroke-linecap="round" stroke-linejoin="round"/>
<path d="M60.9961 87.7026V89.6036" stroke="#698B75" stroke-width="0.222108" stroke-miterlimit="10" stroke-linecap="round" stroke-linejoin="round"/>
<path d="M63.2656 87.7026V89.6036" stroke="#698B75" stroke-width="0.222108" stroke-miterlimit="10" stroke-linecap="round" stroke-linejoin="round"/>
<path d="M65.5371 87.7026V89.6036" stroke="#698B75" stroke-width="0.222108" stroke-miterlimit="10" stroke-linecap="round" stroke-linejoin="round"/>
<path d="M67.8086 87.7026V89.6036" stroke="#698B75" stroke-width="0.222108" stroke-miterlimit="10" stroke-linecap="round" stroke-linejoin="round"/>
<path d="M70.0801 87.7026V89.6036" stroke="#698B75" stroke-width="0.222108" stroke-miterlimit="10" stroke-linecap="round" stroke-linejoin="round"/>
<path d="M72.3516 87.7026V89.6036" stroke="#698B75" stroke-width="0.222108" stroke-miterlimit="10" stroke-linecap="round" stroke-linejoin="round"/>
<path d="M74.8258 91.4389V94.6815C74.8258 94.9746 74.5861 95.2146 74.2883 95.2146H58.035C57.7419 95.2146 57.502 94.9746 57.502 94.6815V91.4389C57.502 91.1457 57.7419 90.9058 58.035 90.9058H74.2883C74.5861 90.9058 74.8258 91.1457 74.8258 91.4389Z" fill="#F5B55D"/>
<path d="M74.8258 94.3926V94.6813C74.8258 94.9744 74.5861 95.2144 74.2883 95.2144H58.035C57.7419 95.2144 57.502 94.9744 57.502 94.6813V94.3926H74.8258Z" fill="#698B75"/>
<path d="M59.3477 92.0117V93.9125" stroke="#698B75" stroke-width="0.222108" stroke-miterlimit="10" stroke-linecap="round" stroke-linejoin="round"/>
<path d="M61.6191 92.0117V93.9125" stroke="#698B75" stroke-width="0.222108" stroke-miterlimit="10" stroke-linecap="round" stroke-linejoin="round"/>
<path d="M63.8906 92.0117V93.9125" stroke="#698B75" stroke-width="0.222108" stroke-miterlimit="10" stroke-linecap="round" stroke-linejoin="round"/>
<path d="M66.1621 92.0117V93.9125" stroke="#698B75" stroke-width="0.222108" stroke-miterlimit="10" stroke-linecap="round" stroke-linejoin="round"/>
<path d="M68.4316 92.0117V93.9125" stroke="#698B75" stroke-width="0.222108" stroke-miterlimit="10" stroke-linecap="round" stroke-linejoin="round"/>
<path d="M70.7031 92.0117V93.9125" stroke="#698B75" stroke-width="0.222108" stroke-miterlimit="10" stroke-linecap="round" stroke-linejoin="round"/>
<path d="M72.9746 92.0117V93.9125" stroke="#698B75" stroke-width="0.222108" stroke-miterlimit="10" stroke-linecap="round" stroke-linejoin="round"/>
<path d="M53.2605 95.1314C57.2305 95.1314 60.4488 91.9131 60.4488 87.9431C60.4488 83.9732 57.2305 80.7549 53.2605 80.7549C49.2906 80.7549 46.0723 83.9732 46.0723 87.9431C46.0723 91.9131 49.2906 95.1314 53.2605 95.1314Z" fill="#F5B55D"/>
<path d="M53.2609 93.6609C56.4188 93.6609 58.9788 91.1009 58.9788 87.943C58.9788 84.7851 56.4188 82.2251 53.2609 82.2251C50.103 82.2251 47.543 84.7851 47.543 87.943C47.543 91.1009 50.103 93.6609 53.2609 93.6609Z" fill="#698B75"/>
<path d="M53.2603 93.1919C56.1589 93.1919 58.5088 90.8421 58.5088 87.9434C58.5088 85.0447 56.1589 82.6948 53.2603 82.6948C50.3616 82.6948 48.0117 85.0447 48.0117 87.9434C48.0117 90.8421 50.3616 93.1919 53.2603 93.1919Z" fill="#F5B55D"/>
<path d="M51.6423 90.5986L51.0364 91.3491L50.4869 90.9055L51.0872 90.1616C50.4629 89.5913 49.9994 88.8631 49.8945 88.2805L50.7423 87.8471C50.8543 88.3802 51.1999 88.9802 51.6712 89.4381L52.7529 88.0979C52.1551 87.3165 51.5526 86.4317 52.3043 85.5003C52.8561 84.817 53.8333 84.6207 54.9597 85.364L55.571 84.6069L56.1205 85.0506L55.5203 85.7944C55.9945 86.2214 56.3781 86.7746 56.5507 87.3011L55.7296 87.756C55.5421 87.2616 55.2588 86.8447 54.9362 86.518L53.8436 87.8714C54.4414 88.6528 55.0627 89.5418 54.311 90.4729C53.7592 91.1565 52.7808 91.3405 51.6423 90.5986ZM53.4078 87.2873L54.3705 86.0947C53.8352 85.7844 53.4396 85.8633 53.2016 86.1582C52.9418 86.4797 53.111 86.8596 53.4078 87.2873ZM53.4046 89.841C53.6695 89.5126 53.4992 89.1207 53.1892 88.6822L52.2318 89.8682C52.7806 90.1893 53.172 90.1293 53.4046 89.841Z" fill="white"/>
<path d="M113.106 62.6686C113.106 62.6686 112.775 62.7655 112.633 61.9632C112.49 61.1613 113.952 61.6779 113.952 61.6779L113.435 62.4265L113.106 62.6686Z" fill="#698B75"/>
<path d="M110.752 60.4781C110.752 60.4781 116.41 58.631 116.764 58.2771C117.118 57.9229 118.849 51.1562 118.849 51.1562L122.036 51.9825C122.036 51.9825 120.304 59.6149 119.164 60.2835C118.023 60.9521 111.597 62.3514 111.597 62.3514L110.752 60.4781Z" fill="#FF9B72"/>
<path d="M119.907 49.5117C119.907 49.5117 118.953 49.7794 118.402 51.9301C118.042 53.3355 116.763 57.8978 116.763 58.0806C116.763 58.2635 111.579 60.0311 111.852 60.0698C113.367 60.2845 113.106 62.6689 113.106 62.6689C113.106 62.6689 119.457 61.2787 119.989 60.2443C120.658 58.9461 121.655 53.2022 121.655 53.2022L119.907 49.5117Z" fill="#E4636B"/>
<path d="M124.728 93.4327L124.633 89.172L121.34 89.1504L122.232 93.5158L122.896 94.3389L124.711 94.1749L124.728 93.4327Z" fill="#FF9B72"/>
<path d="M124.693 93.2427C124.693 93.2427 123.236 93.6319 122.187 93.2674C122.187 93.2674 121.806 94.2772 121.099 94.4775C120.391 94.6777 118.513 94.8047 118.395 95.3804C118.276 95.9562 118.646 96.0177 119.364 96.0201C120.083 96.0226 122.811 95.8368 122.811 95.8368L123.483 95.4758L123.502 95.8272L125.083 95.7432C125.083 95.7432 125.224 93.7973 124.693 93.2427Z" fill="#698B75"/>
<path d="M133.021 89.072L130.119 89.0254L131.595 93.6112L132.04 93.8776L134.091 93.6646L133.021 89.072Z" fill="#FF9B72"/>
<path d="M133.81 92.5752C133.81 92.5752 132.399 93.1058 131.318 92.8463C131.318 92.8463 131.039 93.8884 130.355 94.1576C129.67 94.4267 127.814 94.7375 127.753 95.322C127.691 95.9066 128.065 95.9316 128.78 95.8634C129.495 95.7953 132.192 95.3421 132.192 95.3421L132.826 94.9166L132.879 95.2644L134.445 95.0252C134.445 95.0252 134.393 93.075 133.81 92.5752Z" fill="#698B75"/>
<path d="M131.322 76.3806C131.269 76.2237 131.64 71.7333 131.768 69.6022C132.15 63.2394 131.44 62.083 131.44 62.083L127.486 61.8911L121.202 62.559C120.971 65.6548 119.106 72.8639 119.448 76.7647C119.536 77.7676 121.408 92.2211 121.408 92.2211C121.408 92.2211 123.915 93.2623 125.814 91.8277C125.814 91.8277 124.322 77.8051 124.383 76.9796C124.443 76.1541 125.596 70.3196 125.596 70.3196C125.596 70.3196 126.203 74.6284 126.358 76.6593C126.412 77.3698 126.868 78.9164 127.448 80.651C128.579 84.035 129.788 91.198 129.788 91.198C131.985 92.2703 134.115 90.3718 134.115 90.3718C134.115 90.3718 131.375 76.5375 131.322 76.3806Z" fill="#698B75"/>
<path d="M125.474 67.5021L125.011 67.5616C124.778 67.5788 124.576 67.4038 124.559 67.1709L124.453 63.9771" stroke="white" stroke-width="0.0458825" stroke-miterlimit="10"/>
<path d="M125.597 70.3207L125.342 64.1079" stroke="white" stroke-width="0.0458825" stroke-miterlimit="10"/>
<path d="M122.051 49.0027C122.116 49.7089 126.26 52.1187 126.508 48.5142C126.498 48.466 125.145 44.2302 125.137 44.1836C125.135 44.1838 123.425 44.2834 123.425 44.2834C122.558 44.7809 123.855 45.2613 122.988 45.7588C122.986 45.761 122.635 47.6211 122.635 47.6211C122.635 47.6211 122.636 47.6287 122.637 47.6417C122.645 47.7071 122.665 47.9062 122.641 48.101C122.64 48.1069 122.641 48.1125 122.64 48.1184C122.625 48.2419 122.593 48.3579 122.531 48.4397C122.497 48.4858 122.461 48.5282 122.426 48.5669C122.226 48.791 122.043 48.9049 122.051 49.0027Z" fill="#FF9B72"/>
<path d="M122.649 48.1571C122.649 48.1571 120.816 49.0758 119.911 49.511C119.911 49.511 119.811 51.6569 119.885 52.3312C119.959 53.0054 121.134 58.7647 121.182 62.8628C121.191 63.7047 127.8 65.0682 131.76 62.9444C131.935 62.8505 131.767 62.0697 131.476 60.5589C131.094 58.5706 130.265 56.0598 130.377 52.7941C130.402 52.0618 129.964 48.6233 129.964 48.6233L126.236 47.6216C126.236 47.6216 124.991 49.8287 123.774 49.6174C122.556 49.4057 122.649 48.1571 122.649 48.1571Z" fill="#E4636B"/>
<path d="M120.068 53.2192C120.11 53.5964 120.438 55.2869 120.728 57.4207" stroke="#698B75" stroke-width="0.0458825" stroke-miterlimit="10" stroke-linecap="round" stroke-linejoin="round"/>
<path d="M122.896 53.0454L120.713 53.3339L120.759 53.7449L122.971 53.442L122.896 53.0454Z" stroke="#698B75" stroke-width="0.0458825" stroke-miterlimit="10" stroke-linecap="round" stroke-linejoin="round"/>
<path d="M124.596 49.9691L124.275 50.8478L126.385 61.9596L125.624 63.1405L124.586 62.2059L123.664 50.9209L123.135 50.1221L123.771 49.6177L124.596 49.9691Z" fill="white"/>
<path d="M123.141 50.2187C122.669 49.5599 122.008 48.493 122.008 48.493L122.748 47.9185C122.748 47.9185 123.179 49.0935 123.773 49.6175L123.141 50.2187Z" fill="#E4636B"/>
<path d="M123.772 49.6174L123.141 50.2186C122.669 49.5598 122.051 48.5713 122.051 48.5713" stroke="#698B75" stroke-width="0.0458825" stroke-miterlimit="10" stroke-linecap="round" stroke-linejoin="round"/>
<path d="M123.773 49.6176C123.773 49.6176 124.728 48.7279 125.029 48.4718C125.757 47.8502 126.12 47.251 126.12 47.251L126.945 47.7363C126.945 47.7363 126.195 48.5069 125.773 48.9333C125.215 49.4983 124.699 50.037 124.699 50.037L123.773 49.6176Z" fill="#E4636B"/>
<path d="M126.945 47.7358C126.945 47.7358 126.195 48.5064 125.773 48.9329C125.215 49.4979 124.699 50.0366 124.699 50.0366L123.773 49.6172" stroke="#698B75" stroke-width="0.0458825" stroke-miterlimit="10" stroke-linecap="round" stroke-linejoin="round"/>
<path d="M121.241 45.2904C121.257 46.7132 121.508 48.1904 122.866 48.2725C123.815 48.3299 124.976 47.2468 125.427 46.1213C125.66 45.5404 125.869 45.0348 125.952 44.6379C126.018 44.3242 126.046 44.1242 126.046 44.1242L125.967 43.3941L125.92 42.9664C125.92 42.9664 125.676 42.6632 125.405 42.3232C125.065 41.8968 124.326 42.248 124.32 42.2222C124.311 42.1833 122.521 41.5267 121.78 42.1399C121.777 42.1411 121.776 42.1426 121.776 42.1438C121.708 42.1997 121.652 42.2595 121.612 42.3235C121.578 42.3769 121.554 42.433 121.542 42.4921C121.518 42.6061 121.485 42.7776 121.446 42.995C121.431 43.0862 121.413 43.1855 121.397 43.2914C121.37 43.4698 121.342 43.6656 121.319 43.8737C121.269 44.3085 121.235 44.7985 121.241 45.2904Z" fill="#FF9B72"/>
<path d="M122.865 48.2723C123.418 48.3057 124.044 47.9518 124.559 47.4277" stroke="#698B75" stroke-width="0.0458825" stroke-miterlimit="10" stroke-linecap="round" stroke-linejoin="round"/>
<path d="M125.565 46.0405C125.551 46.104 127.618 43.8344 127.25 42.4861C126.882 41.1378 125.856 41.291 125.856 41.291C125.856 41.291 125.304 38.5792 122.7 40.2184C122.7 40.2184 121.285 40.341 120.928 41.4442C120.57 42.5474 121.396 43.2915 121.396 43.2915C121.396 43.2915 121.545 42.3447 122.17 42.4326C122.623 42.4966 122.258 42.9216 123.509 42.8733C124.281 42.8437 124.575 42.3684 124.963 42.6851C125.351 43.0018 124.963 43.142 125.071 44.4763C125.137 45.2971 125.698 45.4278 125.565 46.0405Z" fill="#698B75"/>
<path d="M123.363 46.8609L122.629 46.8472C122.629 46.8472 122.93 47.4087 123.363 46.8609Z" fill="white"/>
<path d="M125.525 44.8187C125.525 44.8187 126.426 44.4275 126.261 45.2403C126.095 46.053 125.26 46.2761 125.26 46.2761L125.525 44.8187Z" fill="#FF9B72"/>
<path d="M125.679 45.1155C125.679 45.1155 126.348 45.0314 125.557 45.8008L125.679 45.1155Z" fill="#698B75"/>
<path d="M122.05 45.3148C122.122 45.31 122.174 45.2054 122.166 45.0811C122.158 44.9569 122.092 44.86 122.02 44.8648C121.947 44.8696 121.895 44.9743 121.904 45.0985C121.912 45.2228 121.977 45.3196 122.05 45.3148Z" fill="#698B75"/>
<path d="M123.6 45.393C123.673 45.3881 123.725 45.2835 123.717 45.1593C123.708 45.035 123.643 44.9382 123.571 44.943C123.498 44.9478 123.446 45.0524 123.454 45.1767C123.463 45.3009 123.528 45.3978 123.6 45.393Z" fill="#698B75"/>
<path d="M122.227 44.2285C122.227 44.2285 121.892 43.8924 121.545 44.0145L122.227 44.2285Z" fill="#698B75"/>
<path d="M124.208 44.1714C124.178 44.1631 123.71 44.0074 123.377 44.2736L124.208 44.1714Z" fill="#698B75"/>
<path d="M122.624 45.7642C122.449 45.8453 122.327 46.2044 122.785 46.134" stroke="#698B75" stroke-width="0.0458825" stroke-miterlimit="10" stroke-linecap="round" stroke-linejoin="round"/>
<path d="M129.99 63.9771C129.99 63.9771 130.494 67.9143 130.18 70.9432C129.867 73.9722 130.039 75.3879 130.143 76.0143C130.247 76.641 133.056 87.8364 133.133 89.9587C133.133 89.9587 132.189 90.8832 130.498 90.5881" stroke="white" stroke-width="0.0458825" stroke-miterlimit="10"/>
<path d="M125.479 67.7314C125.479 67.7314 123.573 75.2516 123.469 77.0795C123.364 78.9072 124.969 91.3359 124.969 91.3359C124.969 91.3359 123.691 92.0256 121.984 91.7166" stroke="white" stroke-width="0.0458825" stroke-miterlimit="10"/>
<path d="M130.562 66.4187L130.719 64.3037L132.597 64.8633L132.247 66.4971L131.024 66.6758L130.562 66.4187Z" fill="#FF9B72"/>
<path d="M129.961 48.6235C129.961 48.6235 131.123 48.8063 131.803 51.7671C132.301 53.9326 132.857 56.2559 132.951 57.1066C133.376 60.9605 133.18 64.9882 132.755 65.4132C131.894 66.275 130.405 65.5176 130.405 65.5176C130.405 65.5176 130.253 63.9407 130.154 62.0674C130.055 60.1941 130.168 58.0411 130.168 58.0411L128.227 52.9926L128.205 48.5747L129.961 48.6235Z" fill="#E4636B"/>
<path d="M130.3 63.9076C130.201 62.0343 130.168 58.0414 130.168 58.0414L128.629 52.7666" stroke="#698B75" stroke-width="0.0458825" stroke-miterlimit="10" stroke-linecap="round" stroke-linejoin="round"/>
<path d="M125.41 68.8584H125.878V69.3258L125.55 69.1349L125.41 68.8584Z" fill="url(#paint9_linear_2610_38780)"/>
<path d="M125.878 76.8315H124.943V69.3258C124.943 69.0677 125.153 68.8584 125.411 68.8584C125.669 68.8584 125.878 69.0677 125.878 69.3258L125.878 76.8315Z" fill="#698B75"/>
<path d="M124.943 76.8315V69.3258C124.943 69.0677 125.153 68.8584 125.411 68.8584" stroke="#DCE3DE" stroke-width="0.0672305" stroke-miterlimit="10"/>
<path d="M125.879 76.8315H135.998V69.3339C135.998 69.0711 135.785 68.8584 135.522 68.8584H125.879V76.8315Z" fill="url(#paint10_linear_2610_38780)"/>
<path d="M126.27 69.2607V75.9647C126.27 76.2208 126.477 76.4284 126.733 76.4284H135.143C135.399 76.4284 135.607 76.2208 135.607 75.9647V69.6884" stroke="#698B75" stroke-width="0.0458825" stroke-miterlimit="10" stroke-linecap="round" stroke-linejoin="round"/>
<path d="M128.457 69.5926H133.171V68.0227C133.171 67.7823 132.977 67.5874 132.736 67.5874H128.892C128.652 67.5874 128.457 67.7823 128.457 68.0227V69.5926Z" stroke="url(#paint11_linear_2610_38780)" stroke-width="0.375074" stroke-miterlimit="10" stroke-linecap="round" stroke-linejoin="round"/>
<path d="M126.411 72.804H135.465C135.76 72.804 135.998 72.5658 135.998 72.2716V69.3339C135.998 69.0711 135.785 68.8584 135.522 68.8584H125.879V72.2716C125.879 72.5658 126.117 72.804 126.411 72.804Z" fill="url(#paint12_linear_2610_38780)"/>
<path d="M125.879 72.2715C125.879 72.5656 126.117 72.8038 126.411 72.8038H135.465C135.76 72.8038 135.998 72.5656 135.998 72.2715" stroke="#698B75" stroke-width="0.0458825" stroke-miterlimit="10" stroke-linecap="round" stroke-linejoin="round"/>
<path d="M130.395 73.1306H131.464C131.655 73.1306 131.811 72.9755 131.811 72.7843C131.811 72.5931 131.655 72.438 131.464 72.438H130.395C130.204 72.438 130.049 72.5931 130.049 72.7843C130.049 72.9755 130.204 73.1306 130.395 73.1306Z" fill="#698B75"/>
<path d="M129.446 67.8646H132.103C132.209 67.8646 132.294 67.7793 132.294 67.6744V67.47C132.294 67.3648 132.208 67.2798 132.103 67.2798H129.446C129.341 67.2798 129.256 67.3651 129.256 67.47V67.6744C129.256 67.7793 129.341 67.8646 129.446 67.8646Z" fill="url(#paint13_linear_2610_38780)"/>
<path d="M131.472 68.0194C131.472 68.0194 131.619 68.1476 131.782 68.0515C131.943 67.9581 131.948 67.5326 132.087 67.3461C132.229 67.1598 132.26 66.9098 132.26 66.9098C132.297 66.625 132.202 66.5328 132.286 66.3137L131.092 65.937C130.623 66.202 129.928 66.6196 129.782 66.8213C129.659 66.9929 129.625 67.3559 129.622 67.6485C129.613 67.889 129.629 68.0806 129.629 68.0806C129.881 68.3792 130.221 68.076 130.221 68.076C130.517 68.4591 130.891 68.1417 130.891 68.1417C131.182 68.3025 131.472 68.0194 131.472 68.0194Z" fill="#FF9B72"/>
<path d="M130.221 68.0749C130.221 68.0749 130.164 67.6489 130.245 67.2207" stroke="#698B75" stroke-width="0.0458825" stroke-linecap="round" stroke-linejoin="round"/>
<path d="M130.891 68.1438C130.891 68.1438 130.769 67.5441 130.859 67.1958" stroke="#698B75" stroke-width="0.0458825" stroke-linecap="round" stroke-linejoin="round"/>
<path d="M131.471 68.0188C131.471 68.0188 131.363 67.5592 131.546 67.145" stroke="#698B75" stroke-width="0.0458825" stroke-linecap="round" stroke-linejoin="round"/>
<path d="M100.844 56.312C100.844 56.312 102.898 64.6177 102.979 64.6446C103.06 64.6716 101.715 65.3939 101.715 65.3939L98.6699 58.4738L100.844 56.312Z" fill="#FF9B72"/>
<path d="M102.4 64.1807C102.4 64.1807 103.792 65.1091 103.927 65.4488C104.062 65.7885 104.138 66.9892 104.027 67.1895C103.917 67.3897 103.542 67.7569 103.168 67.9581C102.795 68.1594 102.373 68.1473 102.354 68.0638C102.335 67.9804 102.483 67.6841 102.697 67.5969C102.697 67.5969 102.295 67.6292 102.301 67.4424C102.308 67.2559 102.658 67.2939 102.89 67.2025C103.123 67.1111 103.381 66.702 103.313 66.4444C103.245 66.1868 102.779 65.7174 102.779 65.7174C102.779 65.7174 102.286 65.5307 101.956 65.4128C101.638 65.2993 101.66 65.4336 101.569 64.9574C101.478 64.4809 102.4 64.1807 102.4 64.1807Z" fill="#FF9B72"/>
<path d="M102.779 65.7176C102.779 65.7176 102.827 66.2328 102.916 66.4953C103.004 66.7578 103.176 67.2159 102.854 67.2985C102.531 67.3811 102.538 66.7561 102.217 66.4193C101.451 65.6166 101.569 64.9575 101.569 64.9575L102.34 65.0666L102.779 65.7176Z" fill="#FF9B72"/>
<path d="M98.4824 48.8811L98.7025 49.7206L98.1133 49.5835L98.3155 48.8228L98.4824 48.8811Z" fill="#698B75"/>
<path d="M97.6101 47.9863L98.4839 48.8807L98.2912 49.8611C98.2912 49.8611 97.7106 49.1153 97.5621 48.7775C97.4135 48.4398 97.6285 48.1778 97.6285 48.1778L97.6101 47.9863Z" fill="#EFF9F4"/>
<path d="M97.6674 49.8116L97.7858 47.5733C97.7858 47.5733 98.9966 48.1746 99.4358 47.788C99.875 47.4015 99.8816 45.9839 99.9223 45.9393C99.9632 45.8944 100.252 46.1172 100.343 46.0532C100.435 45.9893 100.154 44.8054 100.147 44.1839C100.141 43.5623 100.585 41.7368 98.614 41.4787C96.6426 41.2206 94.9355 41.1221 94.5414 42.362C94.1473 43.602 94.7588 44.891 94.6644 45.74C94.5701 46.589 93.9434 48.6586 93.9434 48.6586L97.6674 49.8116Z" fill="#FF9B72"/>
<path d="M94.5837 45.8902C94.5028 46.1601 95.9808 45.5615 96.0666 45.1105C96.1521 44.6596 96.0685 43.6826 96.6462 43.352C97.2239 43.0213 97.4982 43.513 97.4916 43.9461C97.485 44.3792 97.2205 45.0529 97.2205 45.0529L97.5153 45.1294C97.5153 45.1294 97.805 44.2436 98.3624 44.2069C98.6396 44.1887 98.607 44.0238 98.6649 43.8392C98.7225 43.6547 99.1325 42.4826 99.3281 42.3939C99.5237 42.3051 100.094 42.6939 100.094 42.6939C100.094 42.6939 101.421 41.8537 101.107 40.9267C100.683 39.6767 99.3531 39.7544 97.6183 39.8387C95.8835 39.9233 94.8992 40.5223 94.6582 41.5368C94.6582 41.5368 94.0489 42.3931 94.1916 43.4341C94.3342 44.475 94.8546 44.9878 94.5837 45.8902Z" fill="#698B75"/>
<path d="M99.9774 43.8898C99.9774 43.8898 99.6566 43.6214 99.0664 43.7991L99.9774 43.8898Z" fill="#698B75"/>
<path d="M99.6772 44.4366C99.6786 44.3212 99.6027 44.2268 99.5075 44.2256C99.4124 44.2245 99.3341 44.317 99.3326 44.4323C99.3312 44.5476 99.4072 44.6421 99.5024 44.6432C99.5975 44.6444 99.6758 44.5519 99.6772 44.4366Z" fill="#698B75"/>
<path d="M99.8487 46.4604C99.8487 46.4604 99.3806 46.7021 99.0215 46.1548L99.8487 46.4604Z" fill="white"/>
<path d="M97.174 43.7953C97.174 43.7953 96.7693 43.4791 96.6701 43.7495C96.5708 44.0198 97.0394 44.5781 97.0394 44.5781L97.174 43.7953Z" fill="#698B75"/>
<path d="M97.7873 47.5733C97.7873 47.5733 97.1317 47.2853 96.5488 46.8623" stroke="#698B75" stroke-width="0.0458825" stroke-miterlimit="10" stroke-linecap="round" stroke-linejoin="round"/>
<path d="M93.0929 93.1523C93.0929 93.1523 94.5497 93.5416 95.5992 93.1771C95.5992 93.1771 95.9794 94.1869 96.6872 94.3871C97.3951 94.5874 99.2725 94.7144 99.3909 95.2901C99.5095 95.8658 99.1402 95.9274 98.4216 95.9298C97.7029 95.9323 94.9747 95.7465 94.9747 95.7465L94.3027 95.3854L94.284 95.7369L92.7024 95.6528C92.7024 95.6528 92.5617 93.707 93.0929 93.1523Z" fill="#698B75"/>
<path d="M93.656 62.8237C93.656 62.8237 92.3589 65.2556 92.5482 67.3904C92.7374 69.5252 93.791 70.9843 93.8452 73.0919C93.8991 75.1995 93.5219 80.8632 93.5219 80.8632L92.5491 93.4554L96.1766 93.5644C96.1766 93.5644 98.7631 82.0632 99.0335 79.1987C99.3038 76.3343 100.817 66.1742 100.709 63.6342C100.601 61.0943 94.1153 62.0129 94.1153 62.0129L93.656 62.8237Z" fill="#698B75"/>
<path d="M100.001 93.1523C100.001 93.1523 101.458 93.5416 102.507 93.1771C102.507 93.1771 102.888 94.1869 103.595 94.3871C104.303 94.5874 106.181 94.7144 106.299 95.2901C106.417 95.8658 106.048 95.9274 105.33 95.9298C104.611 95.9323 101.883 95.7465 101.883 95.7465L101.211 95.3854L101.192 95.7369L99.6106 95.6528C99.6106 95.6528 99.4701 93.707 100.001 93.1523Z" fill="#698B75"/>
<path d="M100.709 63.6346C100.709 63.6346 102.006 77.6319 102.222 79.4694C102.438 81.3069 103.411 93.5207 103.411 93.5207L99.52 93.6827L97.7906 80.1177L95.1426 63.3101L100.709 63.6346Z" fill="#698B75"/>
<path d="M98.5215 82.3917C98.7776 81.0245 98.9693 79.8728 99.0328 79.1993C99.2097 77.3243 99.919 72.3235 100.358 68.3799" stroke="white" stroke-width="0.0458825" stroke-miterlimit="10"/>
<path d="M93.6626 62.5967C93.6626 62.5967 96.4891 62.6817 97.5421 62.8425C98.595 63.0033 100.891 63.4129 100.891 63.4129L100.781 64.1008C100.781 64.1008 97.5421 63.9685 95.8163 63.8808C94.0906 63.793 93.2773 63.6239 93.2773 63.6239L93.6626 62.5967Z" fill="white"/>
<path d="M98.6212 62.8535H98.291V64.3533H98.6212V62.8535Z" fill="#698B75"/>
<path d="M95.4688 62.6748H95.1387V64.1746H95.4688V62.6748Z" fill="#698B75"/>
<path d="M94.0609 47.7729C94.0609 47.7729 92.8449 48.9619 92.6287 51.2587C92.4126 53.5556 92.1675 56.3869 92.6827 58.5546C92.9356 59.6193 93.4123 60.7975 93.4932 61.3919C93.5743 61.9862 92.7635 62.4458 93.1689 62.7159C93.5743 62.986 94.8442 62.5539 96.5197 62.9051C98.1952 63.2563 100.627 63.6075 101.059 63.4186C101.492 63.2296 101.276 59.9867 101.113 57.9333C100.951 55.8796 100.816 53.3127 98.8165 50.3132C98.8165 50.3132 97.7356 49.0161 96.7089 48.4756C95.6822 47.935 94.0609 47.7729 94.0609 47.7729Z" fill="#EFF9F4"/>
<path d="M98.2297 49.2046L98.317 49.8409L97.6133 49.3943L98.2297 49.2046Z" fill="url(#paint14_linear_2610_38780)"/>
<path d="M102.427 59.0781C102.427 59.0781 104.302 59.8651 105.532 60.1218C106.761 60.3784 109.193 60.5541 109.193 60.5541L108.68 62.4997C108.68 62.4997 104.275 62.7563 102.627 62.5132C100.978 62.27 100.357 62.1213 100.235 61.9188C100.114 61.7161 100.424 59.8517 100.424 59.8517C100.424 59.8517 101.046 59.4463 101.127 59.4328C101.208 59.4193 102.427 59.0781 102.427 59.0781Z" fill="#FF9B72"/>
<path d="M94.5752 54.8524C94.5752 54.8524 96.0141 57.9531 98.2232 60.0406C98.2232 60.0406 98.1928 60.375 98.3347 60.5576C98.4767 60.7399 99.034 60.8919 99.4392 61.2973C99.8445 61.7027 100.148 62.1181 100.209 62.1181C100.27 62.1181 100.483 60.7299 101.05 60.2232C101.618 59.7166 102.408 59.2301 102.428 59.0781C102.449 58.9262 101.01 57.6495 100.929 57.6191C100.847 57.5887 100.716 57.609 100.716 57.609C100.716 57.609 99.6012 55.3999 98.9122 54.3056C98.2232 53.2112 97.8382 51.2453 96.6423 51.0629C95.4465 50.8806 94.4129 51.1237 94.1698 52.0154C93.9266 52.9068 94.5752 54.8524 94.5752 54.8524Z" fill="#EFF9F4"/>
<path d="M100.715 57.6084C100.715 57.6084 99.6937 58.1476 99.0332 59.0145" stroke="#698B75" stroke-width="0.0458825" stroke-miterlimit="10" stroke-linecap="round" stroke-linejoin="round"/>
<path d="M94.5742 54.8525C94.5742 54.8525 96.0132 57.9533 98.2223 60.0408C98.2223 60.0408 98.1919 60.3751 98.3338 60.5577C98.4757 60.74 99.0331 60.892 99.4382 61.2974C99.8436 61.7028 100.148 62.1182 100.208 62.1182" stroke="#698B75" stroke-width="0.0458825" stroke-miterlimit="10" stroke-linecap="round" stroke-linejoin="round"/>
<path d="M102.428 59.0778C102.448 58.9259 101.009 57.6491 100.928 57.6188C100.847 57.5884 100.716 57.6087 100.716 57.6087C100.716 57.6087 98.6636 53.8761 97.9746 52.7817" stroke="#698B75" stroke-width="0.0458825" stroke-miterlimit="10" stroke-linecap="round" stroke-linejoin="round"/>
<path d="M94.0605 47.7729C94.0605 47.7729 94.1853 47.1589 94.4054 46.9204C94.4054 46.9204 95.2826 47.4439 96.35 47.9844C97.4174 48.5248 98.2304 49.2045 98.2304 49.2045L97.5598 50.0292C97.5598 50.0292 95.7446 48.6908 94.0605 47.7729Z" fill="#EFF9F4"/>
<path d="M94.0605 47.7729C95.7446 48.6908 97.5598 50.0293 97.5598 50.0293L98.2304 49.2046" stroke="#698B75" stroke-width="0.0458825" stroke-miterlimit="10" stroke-linecap="round" stroke-linejoin="round"/>
<path d="M93.5293 61.5188C93.5293 61.5188 94.7675 61.2436 96.0335 61.4088" stroke="#698B75" stroke-width="0.0458825" stroke-miterlimit="10" stroke-linecap="round" stroke-linejoin="round"/>
<path d="M95.1953 60.8174C95.1953 60.8174 96.0485 60.7348 96.984 60.9275" stroke="#698B75" stroke-width="0.0458825" stroke-miterlimit="10" stroke-linecap="round" stroke-linejoin="round"/>
<path d="M112.106 61.7815C112.106 61.7815 111.615 62.1908 111.377 62.3761C111.227 62.491 110.642 62.8888 110.168 63.2026C110.168 63.2026 110.168 63.2026 110.166 63.2026C109.883 63.3915 109.64 63.5477 109.556 63.5925C109.336 63.7114 108.809 63.803 108.667 63.6861C108.528 63.5751 108.692 63.4229 108.704 63.4114C108.694 63.4153 108.562 63.4621 108.353 63.3842C108.139 63.3023 108.106 63.1599 108.106 63.1599C107.597 63.2379 107.729 62.8597 107.729 62.8597C107.26 62.9844 107.365 62.505 107.474 62.4425C107.554 62.3977 107.985 62.1013 108.427 61.8986C108.575 61.8285 108.726 61.77 108.864 61.7329C109.416 61.5905 109.813 61.0214 109.813 61.0214L109.768 61.0332L109.378 61.1462C109.378 61.1462 109.324 61.2572 108.987 61.5204C108.65 61.7856 108.398 61.4717 108.398 61.4717C108.7 61.2163 108.679 60.807 108.827 60.7467C108.975 60.6842 109.763 60.2516 109.85 60.2457C109.936 60.2398 110.361 60.2807 110.688 60.2964C110.764 60.3003 110.848 60.3043 110.93 60.3082C111.197 60.3239 111.747 60.4185 111.747 60.4185L112.106 61.7815Z" fill="#FF9B72"/>
<path d="M110.166 63.2024C109.883 63.3913 109.64 63.5475 109.556 63.5923C109.336 63.7112 108.809 63.8029 108.667 63.6859C108.528 63.5749 108.692 63.4227 108.704 63.4112C108.694 63.4151 108.562 63.4619 108.353 63.384C108.139 63.3021 108.106 63.1597 108.106 63.1597C107.597 63.2377 107.729 62.8595 107.729 62.8595C107.26 62.9842 107.365 62.5048 107.474 62.4423C107.554 62.3975 107.985 62.1011 108.427 61.8984C108.768 62.1499 109.622 62.7793 110.166 63.2024Z" fill="#FF9B72"/>
<path d="M107.729 62.8591L107.957 62.6836" stroke="white" stroke-width="0.0458825" stroke-miterlimit="10"/>
<path d="M108.105 63.1587C108.105 63.1587 108.211 62.9494 108.417 62.9927" stroke="white" stroke-width="0.0458825" stroke-miterlimit="10"/>
<path d="M108.703 63.4116C108.703 63.4116 108.904 63.3346 109.062 63.377" stroke="white" stroke-width="0.0458825" stroke-miterlimit="10"/>
<path d="M107.897 60.5319C107.897 60.5319 109.144 60.0515 109.42 60.0003C109.696 59.9493 110.013 60.0922 110.309 60.0922C110.606 60.0922 110.759 60.5213 110.779 60.5316C110.8 60.5419 109.553 60.7157 109.522 60.7873C109.492 60.8588 110.115 61.1961 110.258 61.278C110.401 61.3598 111.267 62.0275 111.403 62.0547C111.539 62.0819 111.717 62.1909 111.846 62.0615C111.846 62.0615 111.934 62.4841 111.737 62.5863C111.539 62.6885 111.376 62.6816 111.376 62.6816C111.376 62.6816 111.388 63.2914 110.902 63.2199C110.902 63.2199 110.999 63.6493 110.268 63.4549C110.268 63.4549 110.207 63.9098 109.921 63.8331C109.634 63.7564 108.531 63.0358 108.295 62.9284C108.06 62.8211 107.703 62.5809 107.406 62.264L107.897 60.5319Z" fill="#FF9B72"/>
<path d="M109.458 63.6079C109.024 63.3631 108.455 63.0021 108.294 62.9288C108.098 62.8393 107.817 62.6572 107.557 62.415" stroke="#698B75" stroke-width="0.0458825" stroke-miterlimit="10" stroke-linecap="round" stroke-linejoin="round"/>
<path d="M111.376 62.6818C111.376 62.6818 111.26 62.6989 111.066 62.6239C110.871 62.5489 110.207 62.147 110.207 62.147" stroke="#698B75" stroke-width="0.0458825" stroke-miterlimit="10" stroke-linecap="round" stroke-linejoin="round"/>
<path d="M110.902 63.22C110.902 63.22 109.955 62.8112 109.768 62.709" stroke="#698B75" stroke-width="0.0458825" stroke-miterlimit="10" stroke-linecap="round" stroke-linejoin="round"/>
<path d="M110.269 63.4552C110.269 63.4552 109.74 63.2577 109.557 63.1724" stroke="#698B75" stroke-width="0.0458825" stroke-miterlimit="10" stroke-linecap="round" stroke-linejoin="round"/>
<path d="M111.056 60.606L109.997 60.957L109.767 61.0329L109.377 61.1459C109.377 61.1459 109.322 61.257 108.985 61.5202C108.648 61.7854 108.396 61.4714 108.396 61.4714C108.699 61.216 108.677 60.8067 108.825 60.7464C108.954 60.6918 109.56 60.3624 109.776 60.269C109.811 60.2552 109.837 60.2474 109.848 60.2457C109.934 60.2398 110.359 60.2807 110.687 60.2964C110.763 60.3003 110.846 60.3043 110.928 60.3082L111.056 60.606Z" fill="#FF9B72"/>
<path d="M110.689 60.2959C110.361 60.2803 109.936 60.2393 109.85 60.2452C109.839 60.2472 109.813 60.255 109.778 60.2685C109.562 60.3621 108.956 60.6915 108.827 60.7459C108.679 60.8065 108.7 61.2158 108.398 61.4709C108.398 61.4709 108.65 61.7847 108.987 61.5197C109.324 61.2565 109.379 61.1455 109.379 61.1455L109.769 61.0325C109.769 61.0325 110.497 61.3545 110.847 61.6773" stroke="#698B75" stroke-width="0.0458825" stroke-miterlimit="10" stroke-linecap="round" stroke-linejoin="round"/>
<path d="M73.8546 32.3304C76.2887 32.3304 78.262 30.3571 78.262 27.923C78.262 25.4889 76.2887 23.5156 73.8546 23.5156C71.4205 23.5156 69.4473 25.4889 69.4473 27.923C69.4473 30.3571 71.4205 32.3304 73.8546 32.3304Z" fill="#F5B55D"/>
<path d="M74.1032 29.8132V30.4047H73.6703V29.8186C73.1529 29.787 72.6515 29.6179 72.377 29.3804L72.6145 28.847C72.8733 29.0583 73.2691 29.2113 73.6703 29.2483V28.1924C73.0843 28.0497 72.4561 27.8598 72.4561 27.126C72.4561 26.5875 72.8468 26.1176 73.6703 26.0385V25.4419H74.1032V26.0279C74.4939 26.049 74.8899 26.1652 75.175 26.35L74.9586 26.8833C74.6787 26.7196 74.3831 26.6299 74.1032 26.5983V27.6647C74.6892 27.8073 75.3279 27.9921 75.3279 28.726C75.3279 29.264 74.9319 29.7287 74.1032 29.8132ZM73.6701 27.5534V26.6137C73.2953 26.6718 73.1368 26.8617 73.1368 27.0941C73.137 27.3475 73.364 27.4637 73.6701 27.5534ZM74.6522 28.773C74.6522 28.5144 74.4198 28.3929 74.1032 28.3032V29.2377C74.4885 29.1796 74.6522 29 74.6522 28.773Z" fill="#698B75"/>
<path d="M68.4218 20.1991C70.1056 20.1991 71.4706 18.8341 71.4706 17.1503C71.4706 15.4665 70.1056 14.1016 68.4218 14.1016C66.738 14.1016 65.373 15.4665 65.373 17.1503C65.373 18.8341 66.738 20.1991 68.4218 20.1991Z" fill="#F5B55D"/>
<path d="M68.5948 18.4579V18.8669H68.2952V18.4615C67.9374 18.4397 67.5903 18.3228 67.4004 18.1584L67.5648 17.7895C67.7438 17.9356 68.0178 18.0414 68.2952 18.0669V17.3365C67.8899 17.238 67.4553 17.1064 67.4553 16.5988C67.4553 16.2262 67.7256 15.9012 68.2952 15.8463V15.4336H68.5948V15.839C68.8651 15.8537 69.1389 15.9338 69.3362 16.0618L69.1864 16.4307C68.9928 16.3174 68.7884 16.2554 68.5948 16.2334V16.9711C69.0001 17.0696 69.4421 17.1976 69.4421 17.7052C69.4421 18.0782 69.168 18.3995 68.5948 18.4579ZM68.2952 16.8949V16.2449C68.0359 16.2851 67.9264 16.4164 67.9264 16.5772C67.9264 16.7525 68.0835 16.8329 68.2952 16.8949ZM68.9744 17.7385C68.9744 17.5596 68.8136 17.4755 68.5945 17.4135V18.0598C68.8614 18.0196 68.9744 17.8956 68.9744 17.7385Z" fill="#698B75"/>
<defs>
<linearGradient id="paint0_linear_2610_38780" x1="23.5177" y1="19.6275" x2="48.2442" y2="19.7331" gradientUnits="userSpaceOnUse">
<stop stop-color="#556255"/>
<stop offset="1" stop-color="#60A560"/>
</linearGradient>
<linearGradient id="paint1_linear_2610_38780" x1="90.9337" y1="82.7962" x2="77.2014" y2="82.7693" gradientUnits="userSpaceOnUse">
<stop stop-color="#556255"/>
<stop offset="1" stop-color="#60A560"/>
</linearGradient>
<linearGradient id="paint2_linear_2610_38780" x1="76.7762" y1="56.9124" x2="86.8764" y2="56.9511" gradientUnits="userSpaceOnUse">
<stop stop-color="#556255"/>
<stop offset="1" stop-color="#60A560"/>
</linearGradient>
<linearGradient id="paint3_linear_2610_38780" x1="38.1489" y1="72.1712" x2="50.1459" y2="72.2882" gradientUnits="userSpaceOnUse">
<stop stop-color="#556255"/>
<stop offset="1" stop-color="#60A560"/>
</linearGradient>
<linearGradient id="paint4_linear_2610_38780" x1="52.4048" y1="79.3849" x2="40.3508" y2="79.3365" gradientUnits="userSpaceOnUse">
<stop stop-color="#556255"/>
<stop offset="1" stop-color="#60A560"/>
</linearGradient>
<linearGradient id="paint5_linear_2610_38780" x1="19.3149" y1="72.1712" x2="31.3119" y2="72.2882" gradientUnits="userSpaceOnUse">
<stop stop-color="#556255"/>
<stop offset="1" stop-color="#60A560"/>
</linearGradient>
<linearGradient id="paint6_linear_2610_38780" x1="33.5708" y1="79.3849" x2="21.5168" y2="79.3365" gradientUnits="userSpaceOnUse">
<stop stop-color="#556255"/>
<stop offset="1" stop-color="#60A560"/>
</linearGradient>
<linearGradient id="paint7_linear_2610_38780" x1="-20.8592" y1="50.0181" x2="87.0734" y2="51.317" gradientUnits="userSpaceOnUse">
<stop stop-color="#556255"/>
<stop offset="1" stop-color="#60A560"/>
</linearGradient>
<linearGradient id="paint8_linear_2610_38780" x1="31.7812" y1="34.1772" x2="45.8865" y2="34.5034" gradientUnits="userSpaceOnUse">
<stop stop-color="#556255"/>
<stop offset="1" stop-color="#60A560"/>
</linearGradient>
<linearGradient id="paint9_linear_2610_38780" x1="125.267" y1="69.0636" x2="125.903" y2="69.0661" gradientUnits="userSpaceOnUse">
<stop stop-color="#556255"/>
<stop offset="1" stop-color="#60A560"/>
</linearGradient>
<linearGradient id="paint10_linear_2610_38780" x1="122.77" y1="72.3591" x2="136.55" y2="72.4262" gradientUnits="userSpaceOnUse">
<stop stop-color="#556255"/>
<stop offset="1" stop-color="#60A560"/>
</linearGradient>
<linearGradient id="paint11_linear_2610_38780" x1="127.009" y1="68.4678" x2="133.428" y2="68.5257" gradientUnits="userSpaceOnUse">
<stop stop-color="#556255"/>
<stop offset="1" stop-color="#60A560"/>
</linearGradient>
<linearGradient id="paint12_linear_2610_38780" x1="122.77" y1="70.5908" x2="136.549" y2="70.7263" gradientUnits="userSpaceOnUse">
<stop stop-color="#556255"/>
<stop offset="1" stop-color="#60A560"/>
</linearGradient>
<linearGradient id="paint13_linear_2610_38780" x1="128.323" y1="67.5365" x2="132.458" y2="67.619" gradientUnits="userSpaceOnUse">
<stop stop-color="#556255"/>
<stop offset="1" stop-color="#60A560"/>
</linearGradient>
<linearGradient id="paint14_linear_2610_38780" x1="97.3971" y1="49.484" x2="98.3553" y2="49.488" gradientUnits="userSpaceOnUse">
<stop stop-color="#556255"/>
<stop offset="1" stop-color="#60A560"/>
</linearGradient>
</defs>
</svg>
