<svg width="164" height="173" viewBox="0 0 164 173" fill="none" xmlns="http://www.w3.org/2000/svg">
<g opacity="0.06">
<path d="M4.55505 45.902L23.2307 32.6924C24.1417 32.2369 24.5972 31.3259 24.5972 30.4149V23.5823C24.5972 18.5718 20.4977 14.9277 15.9427 14.9277H8.65458C3.64403 14.9277 0 19.0273 0 23.5823V44.08C0 45.902 2.73303 47.2686 4.55505 45.902Z" fill="#1B573E"/>
<path d="M149.861 165.246C157.605 165.246 163.526 159.325 163.526 151.581V59.5694C163.526 55.0143 161.249 50.4593 157.149 48.1818L86.0904 2.17581C81.5353 -1.01273 75.1582 -0.55722 70.6032 2.63131L5.92156 48.6373C2.27752 51.3703 0 55.4698 0 59.5694V151.126C0 158.869 5.92156 164.791 13.6651 164.791L149.861 165.246Z" fill="#1B573E"/>
<path d="M56.9477 89.6331H64.6913V50.0042H88.3775C88.3775 50.0042 114.797 53.6482 115.708 82.345C115.708 82.345 116.163 109.22 88.3775 114.23H56.4922V172.535H64.6913V122.885L86.1 123.34C86.1 123.34 121.174 121.518 123.907 81.8895C123.907 81.8895 124.818 50.0042 90.1995 41.3496H56.4922V89.6331H56.9477Z" fill="white"/>
<path d="M73.3339 57.7461H87.4545C87.4545 57.7461 107.041 62.7566 107.497 80.0658C107.497 80.0658 110.685 101.475 86.5435 106.485H48.7366V172.989H40.082V57.7461H73.3339Z" fill="white"/>
<path fill-rule="evenodd" clip-rule="evenodd" d="M94.2912 89.6345C91.5582 92.3676 87.0032 95.1006 81.0816 94.6451C67.4165 94.1896 59.6729 79.1579 66.5055 67.7703C66.961 66.8593 67.872 65.9483 68.3275 65.0373C69.2385 64.1263 69.694 63.6708 70.605 62.7598C69.2385 62.7598 67.4165 64.1263 66.5055 64.5818C62.8614 66.8593 59.6729 70.9589 58.3064 75.0584C52.3848 93.2786 74.249 107.855 88.8252 96.0116C90.6472 95.5561 93.8357 91.9121 94.2912 89.6345Z" fill="#1B573E"/>
<path fill-rule="evenodd" clip-rule="evenodd" d="M80.6231 72.7808L74.2461 75.5138L80.6231 76.8803L81.5342 84.1684L85.1782 78.2469L92.0108 79.6134L87.4557 74.6028L91.0997 68.2258L84.2672 70.9588L79.7121 65.9482L80.6231 72.7808Z" fill="#1B573E"/>
</g>
</svg>
