<svg width="56" height="60" viewBox="0 0 56 60" fill="none" xmlns="http://www.w3.org/2000/svg">
<g opacity="0.08">
<path d="M1.86924 7.83776L9.53311 2.41698C9.90696 2.23005 10.0939 1.85621 10.0939 1.48236V-1.3215C10.0939 -3.37766 8.41156 -4.87305 6.54233 -4.87305H3.55155C1.49539 -4.87305 0 -3.19073 0 -1.3215V7.09007C0 7.83777 1.12154 8.39854 1.86924 7.83776Z" fill="#1B573E"/>
<path d="M61.4979 56.8116C64.6756 56.8116 67.1056 54.3815 67.1056 51.2038V13.4453C67.1056 11.576 66.171 9.70679 64.4887 8.77217L35.3286 -10.1071C33.4593 -11.4156 30.8424 -11.2287 28.9732 -9.9202L2.43001 8.9591C0.934617 10.0806 0 11.7629 0 13.4453V51.0169C0 54.1946 2.43001 56.6246 5.60771 56.6246L61.4979 56.8116Z" fill="#1B573E"/>
<path d="M23.3705 25.7836H26.5482V9.52128H36.2683C36.2683 9.52128 47.1098 11.0167 47.4837 22.7929C47.4837 22.7929 47.6706 33.8214 36.2683 35.8775H23.1836V59.8037H26.5482V39.4291L35.3336 39.616C35.3336 39.616 49.7268 38.8683 50.8483 22.6059C50.8483 22.6059 51.2221 9.52128 37.0159 5.96973H23.1836V25.7836H23.3705Z" fill="white"/>
<path d="M30.0946 12.6992H35.8893C35.8893 12.6992 43.927 14.7554 44.1139 21.8585C44.1139 21.8585 45.4224 30.6439 35.5154 32.7001H20.0008V59.9909H16.4492V12.6992H30.0946Z" fill="white"/>
<path fill-rule="evenodd" clip-rule="evenodd" d="M38.6904 25.7844C37.5689 26.9059 35.6997 28.0274 33.2697 27.8405C27.662 27.6536 24.4843 21.4851 27.2881 16.812C27.475 16.4382 27.8489 16.0643 28.0358 15.6905C28.4096 15.3166 28.5966 15.1297 28.9704 14.7559C28.4096 14.7559 27.662 15.3166 27.2881 15.5036C25.7927 16.4382 24.4843 18.1205 23.9235 19.8028C21.4935 27.2797 30.4658 33.2613 36.4474 28.4013C37.1951 28.2144 38.5035 26.719 38.6904 25.7844Z" fill="#1B573E"/>
<path fill-rule="evenodd" clip-rule="evenodd" d="M33.0857 18.8683L30.4688 19.9899L33.0857 20.5506L33.4595 23.5414L34.9549 21.1114L37.7588 21.6722L35.8895 19.616L37.3849 16.9991L34.5811 18.1206L32.7118 16.0645L33.0857 18.8683Z" fill="#1B573E"/>
</g>
</svg>
