<svg width="26" height="43" viewBox="0 0 26 43" fill="none" xmlns="http://www.w3.org/2000/svg">
<g opacity="0.06">
<path d="M1.13223 11.4101L5.77435 8.12662C6.0008 8.0134 6.11402 7.78695 6.11402 7.56051V5.86217C6.11402 4.61672 5.09502 3.71094 3.96279 3.71094H2.15123C0.905781 3.71094 0 4.72994 0 5.86217V10.9572C0 11.4101 0.679336 11.7497 1.13223 11.4101Z" fill="#1B573E"/>
<path d="M37.2503 41.0745C39.175 41.0745 40.6469 39.6026 40.6469 37.6779V14.8069C40.6469 13.6747 40.0808 12.5424 39.0618 11.9763L21.3991 0.54083C20.2669 -0.251729 18.6817 -0.138506 17.5495 0.654053L1.47189 12.0895C0.566112 12.7689 0 13.7879 0 14.8069V37.5646C0 39.4894 1.47189 40.9613 3.39668 40.9613L37.2503 41.0745Z" fill="#1B573E"/>
<path d="M14.1562 22.2809H16.081V12.4305H21.9686C21.9686 12.4305 28.5355 13.3363 28.7619 20.4693C28.7619 20.4693 28.8751 27.1495 21.9686 28.3949H14.043V42.8874H16.081V30.5461L21.4024 30.6594C21.4024 30.6594 30.1206 30.2065 30.7999 20.3561C30.7999 20.3561 31.0264 12.4305 22.4214 10.2793H14.043V22.2809H14.1562Z" fill="white"/>
<path d="M18.2301 14.3545H21.74C21.74 14.3545 26.6086 15.5999 26.7218 19.9024C26.7218 19.9024 27.5143 25.2239 21.5135 26.4693H12.1161V42.9998H9.96484V14.3545H18.2301Z" fill="white"/>
<path fill-rule="evenodd" clip-rule="evenodd" d="M23.4338 22.2807C22.7545 22.9601 21.6223 23.6394 20.1504 23.5262C16.7537 23.4129 14.8289 19.6766 16.5272 16.846C16.6405 16.6196 16.8669 16.3931 16.9801 16.1667C17.2066 15.9403 17.3198 15.827 17.5462 15.6006C17.2066 15.6006 16.7537 15.9403 16.5272 16.0535C15.6215 16.6196 14.8289 17.6386 14.4892 18.6576C13.0173 23.1865 18.452 26.8096 22.0751 23.8658C22.528 23.7526 23.3206 22.8468 23.4338 22.2807Z" fill="#1B573E"/>
<path fill-rule="evenodd" clip-rule="evenodd" d="M20.0421 18.0909L18.457 18.7703L20.0421 19.1099L20.2686 20.9215L21.1744 19.4496L22.8727 19.7893L21.7405 18.5438L22.6463 16.9587L20.9479 17.638L19.8157 16.3926L20.0421 18.0909Z" fill="#1B573E"/>
</g>
</svg>
