<svg width="24" height="24" viewBox="0 0 24 24" fill="none" xmlns="http://www.w3.org/2000/svg">
<path d="M10.5889 2.2627C11.3728 1.59247 12.6395 1.59417 13.4316 2.26172L13.4336 2.26367L15.0127 3.62305L15.0137 3.62402C15.1346 3.72875 15.3206 3.83314 15.5293 3.91113C15.7381 3.98915 15.948 4.03221 16.1094 4.03223H17.8086C19.0063 4.03223 19.9883 5.01424 19.9883 6.21191V7.91113C19.9883 8.0672 20.032 8.27648 20.1104 8.4873C20.1887 8.69803 20.2923 8.88651 20.3965 9.00684L20.3975 9.00781L21.7568 10.5869L21.7578 10.5879C22.4277 11.3718 22.4261 12.6377 21.7588 13.4297L21.7568 13.4316L20.3975 15.0117H20.3965C20.2917 15.1327 20.1874 15.3195 20.1094 15.5283C20.0315 15.7369 19.9884 15.9461 19.9883 16.1074V17.8076C19.9881 19.0051 19.0061 19.9863 17.8086 19.9863H16.1094C15.9533 19.9863 15.744 20.0301 15.5332 20.1084C15.3224 20.1867 15.134 20.2912 15.0137 20.3955H15.0127L13.4336 21.7549L13.4326 21.7559C12.6487 22.426 11.3829 22.4243 10.5908 21.7568L10.5889 21.7549L9.00879 20.3955C8.88784 20.2907 8.70106 20.1864 8.49219 20.1084C8.28334 20.0304 8.07352 19.9863 7.91211 19.9863H6.18359C4.98604 19.9863 4.0041 19.0051 4.00391 17.8076V16.0977C4.00386 15.9418 3.96007 15.7351 3.88281 15.5264C3.80564 15.3179 3.70307 15.1306 3.60156 15.0088V15.0078L2.25391 13.4209L2.25293 13.4199C1.59506 12.6372 1.595 11.3813 2.25293 10.5986L2.25391 10.5977L3.60156 9.01074C3.70299 8.88903 3.80566 8.70143 3.88281 8.49316C3.96011 8.28434 4.00391 8.07681 4.00391 7.9209V6.20215C4.00391 5.00447 4.98592 4.02246 6.18359 4.02246H7.91211C8.06819 4.02246 8.27839 3.97875 8.48926 3.90039C8.69997 3.82206 8.88853 3.71751 9.00879 3.61328L9.00977 3.6123L10.5889 2.2627Z" fill="#447158" stroke="url(#paint0_linear_4313_205144)" stroke-width="0.5" stroke-linecap="round" stroke-linejoin="round"/>
<path d="M8.37891 12.0001L10.7889 14.4201L15.6189 9.58008" stroke="white" stroke-width="1.5" stroke-linecap="round" stroke-linejoin="round"/>
<defs>
<linearGradient id="paint0_linear_4313_205144" x1="12.0098" y1="2.01074" x2="12.0098" y2="22.0082" gradientUnits="userSpaceOnUse">
<stop stop-color="white"/>
<stop offset="1" stop-color="white" stop-opacity="0.6"/>
</linearGradient>
</defs>
</svg>
