<svg width="207" height="46" viewBox="0 0 207 46" fill="none" xmlns="http://www.w3.org/2000/svg">
<path d="M51.5999 33.1777H54.8999C55.8999 33.1777 57.0999 33.7777 57.0999 35.3777C57.0999 37.2777 55.8999 37.7777 54.9999 37.7777H52.1999V40.1777H51.5999V33.1777ZM52.1999 33.6777V37.1777H54.8999C55.5999 37.1777 56.4999 36.8777 56.4999 35.3777C56.4999 33.9777 55.6999 33.6777 54.8999 33.6777H52.1999Z" fill="black"/>
<path d="M64.9998 37.4777C65.4998 37.8777 65.7998 38.6777 66.0998 39.4777L66.3998 40.1777H65.7998L65.3998 39.0777C64.9998 37.9777 64.4998 37.5777 63.6998 37.5777H61.5998V40.2777H60.9998V33.2777H64.2998C65.3998 33.2777 66.4998 33.7777 66.4998 35.3777C66.4998 35.7777 66.3998 37.1777 64.9998 37.4777ZM64.1998 36.9777C64.9998 36.9777 65.7998 36.9777 65.7998 35.2777C65.7998 33.8777 64.9998 33.6777 64.1998 33.6777H61.5998V36.9777H64.1998Z" fill="black"/>
<path d="M70.1998 36.4777C70.1998 33.9777 72.0998 33.0777 73.6998 33.0777C75.2998 33.0777 77.0998 33.9777 77.0998 36.4777C77.0998 39.5777 74.9998 40.1777 73.6998 40.1777C72.2998 40.2777 70.1998 39.5777 70.1998 36.4777ZM76.4998 36.5777C76.4998 34.3777 75.0998 33.6777 73.6998 33.6777C72.2998 33.6777 70.7998 34.3777 70.7998 36.5777C70.7998 39.1777 72.4998 39.6777 73.6998 39.6777C74.7998 39.6777 76.4998 39.1777 76.4998 36.5777Z" fill="black"/>
<path d="M81.1998 33.1777H84.4998C85.4998 33.1777 86.6998 33.7777 86.6998 35.3777C86.6998 37.2777 85.4998 37.7777 84.5998 37.7777H81.7998V40.1777H81.1998V33.1777ZM81.7998 33.6777V37.1777H84.4998C85.1998 37.1777 86.0998 36.8777 86.0998 35.3777C86.0998 33.9777 85.2998 33.6777 84.4998 33.6777H81.7998Z" fill="black"/>
<path d="M91.1999 33.6777V36.2777H94.5999V36.8777H91.1999V39.5777H95.3999V40.1777H90.5999V33.1777H95.3999V33.7777H91.1999V33.6777Z" fill="black"/>
<path d="M103.6 37.4777C104.1 37.8777 104.4 38.6777 104.7 39.4777L105 40.1777H104.4L104 39.0777C103.6 37.9777 103.1 37.5777 102.3 37.5777H100.2V40.2777H99.5999V33.2777H102.9C104 33.2777 105.1 33.7777 105.1 35.3777C105.1 35.7777 105 37.1777 103.6 37.4777ZM102.9 36.9777C103.7 36.9777 104.5 36.9777 104.5 35.2777C104.5 33.8777 103.7 33.6777 102.9 33.6777H100.3V36.9777H102.9Z" fill="black"/>
<path d="M108.6 33.1777H114V33.7777H111.6V40.2777H111V33.7777H108.6V33.1777Z" fill="black"/>
<path d="M122.9 33.1777H123.6L120.9 37.7777V40.1777H120.3V37.7777L117.6 33.1777H118.3L120.7 37.1777L122.9 33.1777Z" fill="black"/>
<path d="M125.9 39.5777H126.5V40.1777H125.9V39.5777Z" fill="black"/>
<path d="M131.2 36.5777C131.2 39.1777 132.9 39.6777 134.2 39.6777C134.8 39.6777 135.4 39.5777 136 39.2777L136.3 39.6777C135.7 40.0777 134.9 40.1777 134.3 40.1777C133 40.1777 130.6 39.5777 130.6 36.4777C130.6 33.8777 132.4 33.0777 134.3 33.0777C135 33.0777 135.7 33.2777 136.3 33.5777L136 33.9777C135.4 33.6777 134.8 33.5777 134.3 33.5777C132.8 33.6777 131.2 34.1777 131.2 36.5777Z" fill="black"/>
<path d="M139.9 36.4777C139.9 33.9777 141.8 33.0777 143.4 33.0777C145 33.0777 146.8 33.9777 146.8 36.4777C146.8 39.5777 144.7 40.1777 143.4 40.1777C142 40.2777 139.9 39.5777 139.9 36.4777ZM146.2 36.5777C146.2 34.3777 144.8 33.6777 143.4 33.6777C142 33.6777 140.5 34.3777 140.5 36.5777C140.5 39.1777 142.2 39.6777 143.4 39.6777C144.5 39.6777 146.2 39.1777 146.2 36.5777Z" fill="black"/>
<path d="M154.1 38.4777L151.5 34.5777V40.1777H150.9V33.1777H151.3L154.3 37.8777L157.3 33.1777H157.7V40.1777H157.1V34.5777L154.6 38.4777H154.1Z" fill="black"/>
<path d="M58.3998 14.8777C59.1998 14.8777 59.8998 14.9777 60.5998 15.2777C61.2998 15.5777 61.8998 15.9777 62.3998 16.4777C62.8998 16.9777 63.2998 17.5777 63.5998 18.2777C63.8998 18.9777 63.9998 19.6777 63.9998 20.4777C63.9998 21.2777 63.8998 21.9777 63.5998 22.5777C63.2998 23.2777 62.9998 23.7777 62.4998 24.2777C61.9998 24.7777 61.3998 25.1777 60.5998 25.4777C59.7998 25.7777 58.9998 25.8777 57.8998 25.8777H54.3998V30.5777H51.3998V14.8777H58.3998ZM58.3998 23.1777C58.7998 23.1777 59.1998 23.0777 59.5998 22.9777C59.8998 22.7777 60.1998 22.5777 60.3998 22.3777C60.5998 22.0777 60.7998 21.8777 60.8998 21.4777C60.9998 21.1777 61.0998 20.7777 61.0998 20.4777C61.0998 20.0777 60.9998 19.7777 60.8998 19.3777C60.7998 18.9777 60.5998 18.6777 60.2998 18.4777C60.0998 18.1777 59.7998 17.9777 59.3998 17.7777C58.9998 17.5777 58.5998 17.4777 58.1998 17.4777H54.3998V23.1777H58.3998Z" fill="black"/>
<path d="M62.1998 30.5777L70.1998 14.8777H70.4998L78.4998 30.5777H75.1998L73.9998 28.0777H66.5998L65.3998 30.5777H62.1998ZM68.0998 25.4777H72.5998L70.3998 20.7777L68.0998 25.4777Z" fill="black"/>
<path d="M89.9998 30.5777L83.3998 23.4777V30.5777H80.3998V14.8777H83.3998V22.8777L89.5998 14.8777H93.2998L86.7998 22.9777L93.8998 30.5777H89.9998Z" fill="black"/>
<path d="M99.5999 30.5777H96.5999V14.8777H99.5999V30.5777Z" fill="black"/>
<path d="M102.8 28.4777L104.4 26.0777C105.2 26.5777 106 27.0777 106.8 27.4777C107.6 27.8777 108.5 28.0777 109.4 28.0777C109.9 28.0777 110.3 27.9777 110.7 27.8777C111.1 27.7777 111.4 27.5777 111.6 27.3777C111.9 27.1777 112.1 26.9777 112.2 26.6777C112.3 26.4777 112.4 26.1777 112.4 25.9777C112.4 25.6777 112.3 25.3777 112.1 25.1777C111.9 24.9777 111.6 24.7777 111.3 24.6777C111 24.5777 110.6 24.3777 110.2 24.2777C109.8 24.1777 109.3 24.0777 108.8 23.9777C108.5 23.8777 108.1 23.8777 107.7 23.7777C107.3 23.6777 106.9 23.5777 106.4 23.4777C106 23.3777 105.5 23.1777 105.1 22.9777C104.7 22.7777 104.3 22.4777 103.9 22.1777C103.6 21.8777 103.3 21.4777 103.1 20.9777C102.9 20.4777 102.8 19.9777 102.8 19.3777C102.8 18.4777 103 17.6777 103.4 17.0777C103.8 16.4777 104.2 15.9777 104.8 15.6777C105.4 15.2777 106 15.0777 106.7 14.9777C107.4 14.8777 108.1 14.7777 108.7 14.7777C109.4 14.7777 109.9 14.7777 110.5 14.8777C111 14.9777 111.5 15.0777 111.9 15.2777C112.3 15.4777 112.8 15.6777 113.2 15.8777C113.6 16.1777 114.1 16.3777 114.6 16.7777L112.9 19.1777C112.2 18.6777 111.4 18.2777 110.8 17.9777C110.1 17.6777 109.4 17.5777 108.6 17.5777C108.3 17.5777 108.1 17.5777 107.7 17.6777C107.4 17.7777 107.1 17.8777 106.8 17.9777C106.5 18.0777 106.3 18.2777 106.1 18.4777C105.9 18.6777 105.8 18.9777 105.8 19.2777C105.8 19.5777 105.9 19.8777 106.1 20.0777C106.3 20.2777 106.6 20.4777 107 20.5777C107.4 20.6777 107.8 20.8777 108.2 20.9777C108.6 21.0777 109 21.1777 109.4 21.2777C109.7 21.3777 110.1 21.3777 110.5 21.4777C110.9 21.5777 111.3 21.6777 111.8 21.7777C112.2 21.8777 112.7 22.0777 113.1 22.2777C113.5 22.4777 113.9 22.7777 114.2 23.0777C114.5 23.3777 114.8 23.8777 115 24.2777C115.2 24.6777 115.3 25.3777 115.3 26.0777C115.3 26.8777 115.2 27.5777 114.9 28.1777C114.6 28.7777 114.2 29.2777 113.7 29.6777C113.2 30.0777 112.5 30.3777 111.8 30.5777C111.1 30.7777 110.3 30.8777 109.4 30.8777C108.6 30.8777 107.9 30.7777 107.2 30.6777C106.6 30.5777 106 30.3777 105.5 30.1777C105 29.9777 104.5 29.6777 104 29.4777C103.8 29.1777 103.3 28.8777 102.8 28.4777Z" fill="black"/>
<path d="M128 17.4777H123.5V30.4777H120.5V17.4777H116V14.7777H128V17.4777Z" fill="black"/>
<path d="M126 30.5777L134 14.8777H134.3L142.3 30.5777H139L137.8 28.0777H130.4L129.2 30.5777H126ZM131.9 25.4777H136.4L134.2 20.7777L131.9 25.4777Z" fill="black"/>
<path d="M157.5 30.5777L147.2 21.2777V30.5777H144.2V14.8777H144.5L154.8 24.3777V14.8777H157.8V30.5777H157.5Z" fill="black"/>
<path d="M9.99976 14.0777L14.0998 11.1777C14.2998 11.0777 14.3998 10.8777 14.3998 10.6777V9.17767C14.3998 8.07767 13.4998 7.27767 12.4998 7.27767H10.8998C9.79976 7.27767 8.99976 8.17767 8.99976 9.17767V13.6777C8.99976 14.0777 9.59976 14.3777 9.99976 14.0777Z" fill="#1B573E"/>
<path d="M41.8998 40.2777C43.5998 40.2777 44.8998 38.9777 44.8998 37.2777V17.0777C44.8998 16.0777 44.3998 15.0777 43.4998 14.5777L27.8998 4.47767C26.8998 3.77767 25.4998 3.87767 24.4998 4.57767L10.2998 14.6777C9.49976 15.2777 8.99976 16.1777 8.99976 17.0777V37.1777C8.99976 38.8777 10.2998 40.1777 11.9998 40.1777L41.8998 40.2777Z" fill="#1B573E"/>
<path d="M21.4998 23.6777H23.1998V14.9777H28.3998C28.3998 14.9777 34.1998 15.7777 34.3998 22.0777C34.3998 22.0777 34.4998 27.9777 28.3998 29.0777H21.3998V41.8777H23.1998V30.9777L27.8998 31.0777C27.8998 31.0777 35.5998 30.6777 36.1998 21.9777C36.1998 21.9777 36.3998 14.9777 28.7998 13.0777H21.3998V23.6777H21.4998Z" fill="white"/>
<path d="M25.0998 16.6777H28.1998C28.1998 16.6777 32.4998 17.7777 32.5998 21.5777C32.5998 21.5777 33.2998 26.2777 27.9998 27.3777H19.6998V41.9777H17.7998V16.6777H25.0998Z" fill="white"/>
<path fill-rule="evenodd" clip-rule="evenodd" d="M29.6997 23.6777C29.0997 24.2777 28.0997 24.8777 26.7997 24.7777C23.7997 24.6777 22.0997 21.3777 23.5997 18.8777C23.6997 18.6777 23.8997 18.4777 23.9997 18.2777C24.1997 18.0777 24.2997 17.9777 24.4997 17.7777C24.1997 17.7777 23.7997 18.0777 23.5997 18.1777C22.7997 18.6777 22.0997 19.5777 21.7997 20.4777C20.4997 24.4777 25.2997 27.6777 28.4997 25.0777C28.8997 24.9777 29.5997 24.1777 29.6997 23.6777Z" fill="#1B573E"/>
<path fill-rule="evenodd" clip-rule="evenodd" d="M26.6998 19.9777L25.2998 20.5777L26.6998 20.8777L26.8998 22.4777L27.6998 21.1777L29.1998 21.4777L28.1998 20.3777L28.9998 18.9777L27.4998 19.5777L26.4998 18.4777L26.6998 19.9777Z" fill="#1B573E"/>
</svg>
