<svg width="80" height="80" viewBox="0 0 80 80" fill="none" xmlns="http://www.w3.org/2000/svg">
<rect x="4" y="4" width="72" height="72" rx="36" fill="white"/>
<rect x="4" y="4" width="72" height="72" rx="36" stroke="#698B75" stroke-width="8"/>
<path d="M43.9997 40L31.5024 52.4973C31.2398 52.7601 30.928 52.9685 30.5848 53.1107C30.2416 53.2529 29.8737 53.3262 29.5022 53.3262C28.752 53.3264 28.0324 53.0284 27.5017 52.498C26.9711 51.9676 26.673 51.2481 26.6729 50.4978C26.6727 49.7475 26.9707 49.0279 27.5011 48.4973L39.9997 36" stroke="#2D2D2D" stroke-width="2.66667" stroke-linecap="round" stroke-linejoin="round"/>
<path d="M48 44L53.3333 38.6666" stroke="#2D2D2D" stroke-width="2.66667" stroke-linecap="round" stroke-linejoin="round"/>
<path d="M52.6667 39.3333L50.1147 36.7813C49.6145 36.2814 49.3335 35.6032 49.3333 34.896V34.4373C49.3332 33.7301 49.0521 33.052 48.552 32.552L46.3427 30.3427C44.8428 28.8431 42.8089 28.0005 40.688 28H36L37.6573 29.6573C39.1572 31.1575 39.9999 33.192 40 35.3133V37.3333L42.6667 40H44.2293C44.9365 40.0002 45.6147 40.2812 46.1147 40.7813L48.6667 43.3333" stroke="#2D2D2D" stroke-width="2.66667" stroke-linecap="round" stroke-linejoin="round"/>
</svg>
