<svg width="912" height="90" viewBox="0 0 912 90" fill="none" xmlns="http://www.w3.org/2000/svg">
<rect width="912" height="90" rx="4" fill="black" fill-opacity="0.4"/>
<path d="M389.35 50L392.934 40.2H394.81L398.394 50H396.616L393.858 42.16L391.1 50H389.35ZM390.946 47.69L391.394 46.36H396.224L396.672 47.69H390.946ZM402.48 50.168C401.827 50.168 401.244 50.0093 400.73 49.692C400.217 49.3747 399.816 48.936 399.526 48.376C399.246 47.816 399.106 47.1813 399.106 46.472C399.106 45.7627 399.251 45.1327 399.54 44.582C399.83 44.022 400.231 43.5833 400.744 43.266C401.267 42.9393 401.855 42.776 402.508 42.776C403.04 42.776 403.502 42.8787 403.894 43.084C404.296 43.28 404.613 43.56 404.846 43.924V39.92H406.526V50H405.014L404.846 48.978C404.697 49.1833 404.515 49.3793 404.3 49.566C404.086 49.7433 403.829 49.888 403.53 50C403.232 50.112 402.882 50.168 402.48 50.168ZM402.83 48.712C403.232 48.712 403.586 48.6187 403.894 48.432C404.202 48.236 404.44 47.97 404.608 47.634C404.776 47.298 404.86 46.9107 404.86 46.472C404.86 46.0333 404.776 45.646 404.608 45.31C404.44 44.974 404.202 44.7127 403.894 44.526C403.586 44.3393 403.232 44.246 402.83 44.246C402.448 44.246 402.102 44.3393 401.794 44.526C401.486 44.7127 401.244 44.974 401.066 45.31C400.898 45.646 400.814 46.0333 400.814 46.472C400.814 46.9107 400.898 47.298 401.066 47.634C401.244 47.97 401.486 48.236 401.794 48.432C402.102 48.6187 402.448 48.712 402.83 48.712ZM411.531 50.168C410.878 50.168 410.294 50.0093 409.781 49.692C409.268 49.3747 408.866 48.936 408.577 48.376C408.297 47.816 408.157 47.1813 408.157 46.472C408.157 45.7627 408.302 45.1327 408.591 44.582C408.88 44.022 409.282 43.5833 409.795 43.266C410.318 42.9393 410.906 42.776 411.559 42.776C412.091 42.776 412.553 42.8787 412.945 43.084C413.346 43.28 413.664 43.56 413.897 43.924V39.92H415.577V50H414.065L413.897 48.978C413.748 49.1833 413.566 49.3793 413.351 49.566C413.136 49.7433 412.88 49.888 412.581 50C412.282 50.112 411.932 50.168 411.531 50.168ZM411.881 48.712C412.282 48.712 412.637 48.6187 412.945 48.432C413.253 48.236 413.491 47.97 413.659 47.634C413.827 47.298 413.911 46.9107 413.911 46.472C413.911 46.0333 413.827 45.646 413.659 45.31C413.491 44.974 413.253 44.7127 412.945 44.526C412.637 44.3393 412.282 44.246 411.881 44.246C411.498 44.246 411.153 44.3393 410.845 44.526C410.537 44.7127 410.294 44.974 410.117 45.31C409.949 45.646 409.865 46.0333 409.865 46.472C409.865 46.9107 409.949 47.298 410.117 47.634C410.294 47.97 410.537 48.236 410.845 48.432C411.153 48.6187 411.498 48.712 411.881 48.712ZM424.21 50.168C423.5 50.168 422.87 50.042 422.32 49.79C421.769 49.538 421.34 49.1787 421.032 48.712C420.724 48.2453 420.565 47.69 420.556 47.046H422.334C422.334 47.3727 422.408 47.6667 422.558 47.928C422.716 48.18 422.931 48.3807 423.202 48.53C423.482 48.6793 423.818 48.754 424.21 48.754C424.546 48.754 424.835 48.7027 425.078 48.6C425.33 48.488 425.521 48.334 425.652 48.138C425.792 47.9327 425.862 47.6947 425.862 47.424C425.862 47.116 425.787 46.864 425.638 46.668C425.498 46.4627 425.302 46.29 425.05 46.15C424.798 46.01 424.508 45.8887 424.182 45.786C423.855 45.674 423.51 45.5573 423.146 45.436C422.371 45.1747 421.788 44.8433 421.396 44.442C421.004 44.0313 420.808 43.4853 420.808 42.804C420.808 42.2347 420.943 41.7447 421.214 41.334C421.484 40.9233 421.862 40.606 422.348 40.382C422.842 40.1487 423.412 40.032 424.056 40.032C424.709 40.032 425.278 40.1487 425.764 40.382C426.258 40.6153 426.646 40.942 426.926 41.362C427.215 41.7727 427.364 42.2673 427.374 42.846H425.582C425.572 42.6033 425.507 42.3793 425.386 42.174C425.264 41.9593 425.087 41.7867 424.854 41.656C424.63 41.516 424.354 41.446 424.028 41.446C423.748 41.4367 423.496 41.4833 423.272 41.586C423.057 41.6793 422.884 41.8193 422.754 42.006C422.632 42.1833 422.572 42.4073 422.572 42.678C422.572 42.9393 422.628 43.1587 422.74 43.336C422.861 43.504 423.034 43.6487 423.258 43.77C423.482 43.882 423.743 43.9893 424.042 44.092C424.34 44.1947 424.667 44.3067 425.022 44.428C425.507 44.5867 425.946 44.7827 426.338 45.016C426.739 45.24 427.056 45.534 427.29 45.898C427.523 46.262 427.64 46.7333 427.64 47.312C427.64 47.816 427.509 48.2873 427.248 48.726C426.986 49.1553 426.604 49.5053 426.1 49.776C425.596 50.0373 424.966 50.168 424.21 50.168ZM429.217 53.08V42.944H430.715L430.897 43.966C431.047 43.7607 431.224 43.5693 431.429 43.392C431.644 43.2053 431.901 43.056 432.199 42.944C432.507 42.832 432.857 42.776 433.249 42.776C433.912 42.776 434.495 42.9393 434.999 43.266C435.513 43.5927 435.914 44.036 436.203 44.596C436.493 45.1467 436.637 45.7767 436.637 46.486C436.637 47.1953 436.488 47.83 436.189 48.39C435.9 48.9407 435.499 49.3747 434.985 49.692C434.481 50.0093 433.903 50.168 433.249 50.168C432.717 50.168 432.251 50.07 431.849 49.874C431.457 49.6687 431.14 49.3793 430.897 49.006V53.08H429.217ZM432.899 48.712C433.291 48.712 433.641 48.6187 433.949 48.432C434.257 48.2453 434.495 47.984 434.663 47.648C434.841 47.312 434.929 46.9247 434.929 46.486C434.929 46.038 434.841 45.646 434.663 45.31C434.495 44.974 434.257 44.7127 433.949 44.526C433.641 44.3393 433.291 44.246 432.899 44.246C432.498 44.246 432.143 44.3393 431.835 44.526C431.537 44.7127 431.299 44.974 431.121 45.31C430.953 45.646 430.869 46.0333 430.869 46.472C430.869 46.92 430.953 47.312 431.121 47.648C431.299 47.9747 431.537 48.236 431.835 48.432C432.143 48.6187 432.498 48.712 432.899 48.712ZM440.62 50.168C440.041 50.168 439.561 50.07 439.178 49.874C438.795 49.678 438.511 49.4167 438.324 49.09C438.137 48.7633 438.044 48.4087 438.044 48.026C438.044 47.578 438.156 47.1907 438.38 46.864C438.613 46.5373 438.954 46.2853 439.402 46.108C439.85 45.9213 440.401 45.828 441.054 45.828H442.832C442.832 45.4547 442.781 45.1467 442.678 44.904C442.575 44.652 442.417 44.4653 442.202 44.344C441.987 44.2227 441.712 44.162 441.376 44.162C440.993 44.162 440.667 44.2507 440.396 44.428C440.125 44.596 439.957 44.8573 439.892 45.212H438.24C438.296 44.708 438.464 44.2787 438.744 43.924C439.024 43.56 439.393 43.28 439.85 43.084C440.317 42.8787 440.825 42.776 441.376 42.776C442.039 42.776 442.603 42.8927 443.07 43.126C443.537 43.35 443.891 43.6767 444.134 44.106C444.386 44.526 444.512 45.0347 444.512 45.632V50H443.084L442.916 48.866C442.823 49.0527 442.701 49.2253 442.552 49.384C442.412 49.5427 442.249 49.6827 442.062 49.804C441.875 49.916 441.661 50.0047 441.418 50.07C441.185 50.1353 440.919 50.168 440.62 50.168ZM440.998 48.838C441.269 48.838 441.507 48.7913 441.712 48.698C441.927 48.5953 442.109 48.4553 442.258 48.278C442.417 48.0913 442.538 47.886 442.622 47.662C442.706 47.438 442.762 47.2 442.79 46.948V46.92H441.236C440.909 46.92 440.639 46.962 440.424 47.046C440.209 47.1207 440.055 47.2327 439.962 47.382C439.869 47.5313 439.822 47.704 439.822 47.9C439.822 48.096 439.869 48.264 439.962 48.404C440.055 48.544 440.191 48.6513 440.368 48.726C440.545 48.8007 440.755 48.838 440.998 48.838ZM449.653 50.168C448.962 50.168 448.342 50.014 447.791 49.706C447.25 49.3887 446.825 48.9547 446.517 48.404C446.218 47.844 446.069 47.2093 446.069 46.5C446.069 45.7627 446.218 45.1187 446.517 44.568C446.825 44.008 447.25 43.5693 447.791 43.252C448.342 42.9347 448.967 42.776 449.667 42.776C450.544 42.776 451.282 43.0093 451.879 43.476C452.476 43.9333 452.859 44.5633 453.027 45.366H451.263C451.17 45.0113 450.974 44.7313 450.675 44.526C450.386 44.3207 450.04 44.218 449.639 44.218C449.294 44.218 448.976 44.3067 448.687 44.484C448.407 44.6613 448.183 44.918 448.015 45.254C447.856 45.59 447.777 45.996 447.777 46.472C447.777 46.836 447.824 47.158 447.917 47.438C448.01 47.718 448.141 47.956 448.309 48.152C448.486 48.3387 448.687 48.4833 448.911 48.586C449.135 48.6887 449.378 48.74 449.639 48.74C449.91 48.74 450.152 48.698 450.367 48.614C450.591 48.5207 450.778 48.3853 450.927 48.208C451.086 48.0307 451.198 47.8207 451.263 47.578H453.027C452.859 48.362 452.476 48.992 451.879 49.468C451.282 49.9347 450.54 50.168 449.653 50.168ZM457.951 50.168C457.251 50.168 456.635 50.0187 456.103 49.72C455.571 49.412 455.156 48.9827 454.857 48.432C454.558 47.8813 454.409 47.2467 454.409 46.528C454.409 45.7813 454.554 45.128 454.843 44.568C455.142 44.008 455.557 43.5693 456.089 43.252C456.63 42.9347 457.256 42.776 457.965 42.776C458.656 42.776 459.258 42.93 459.771 43.238C460.284 43.546 460.681 43.9613 460.961 44.484C461.241 44.9973 461.381 45.576 461.381 46.22C461.381 46.3133 461.381 46.416 461.381 46.528C461.381 46.64 461.372 46.7567 461.353 46.878H455.613V45.8H459.687C459.668 45.2867 459.496 44.8853 459.169 44.596C458.842 44.2973 458.436 44.148 457.951 44.148C457.606 44.148 457.288 44.2273 456.999 44.386C456.71 44.5447 456.481 44.7827 456.313 45.1C456.145 45.408 456.061 45.8 456.061 46.276V46.682C456.061 47.1207 456.14 47.4987 456.299 47.816C456.467 48.1333 456.691 48.376 456.971 48.544C457.26 48.7027 457.582 48.782 457.937 48.782C458.329 48.782 458.651 48.698 458.903 48.53C459.164 48.362 459.356 48.138 459.477 47.858H461.185C461.054 48.2967 460.84 48.6933 460.541 49.048C460.242 49.3933 459.874 49.6687 459.435 49.874C458.996 50.07 458.502 50.168 457.951 50.168ZM473.1 50.168C472.437 50.168 471.873 50.042 471.406 49.79C470.949 49.5287 470.589 49.188 470.328 48.768C470.067 48.3387 469.913 47.8813 469.866 47.396H471.42C471.504 47.8347 471.691 48.1753 471.98 48.418C472.279 48.6513 472.661 48.768 473.128 48.768C473.557 48.768 473.931 48.642 474.248 48.39C474.565 48.1287 474.817 47.7413 475.004 47.228C475.2 46.7053 475.307 46.052 475.326 45.268C475.326 45.2493 475.326 45.226 475.326 45.198C475.326 45.17 475.326 45.142 475.326 45.114C475.186 45.3753 474.99 45.6133 474.738 45.828C474.486 46.0427 474.192 46.2107 473.856 46.332C473.529 46.4533 473.175 46.514 472.792 46.514C472.251 46.514 471.737 46.388 471.252 46.136C470.776 45.8747 470.393 45.506 470.104 45.03C469.815 44.554 469.67 43.994 469.67 43.35C469.67 42.762 469.81 42.216 470.09 41.712C470.37 41.208 470.767 40.802 471.28 40.494C471.793 40.186 472.386 40.032 473.058 40.032C473.795 40.032 474.411 40.1673 474.906 40.438C475.41 40.7087 475.811 41.0727 476.11 41.53C476.409 41.978 476.623 42.482 476.754 43.042C476.894 43.602 476.964 44.176 476.964 44.764C476.964 45.8467 476.81 46.794 476.502 47.606C476.203 48.418 475.765 49.048 475.186 49.496C474.617 49.944 473.921 50.168 473.1 50.168ZM473.184 45.086C473.539 45.086 473.856 45.0113 474.136 44.862C474.425 44.7033 474.654 44.4887 474.822 44.218C474.99 43.938 475.074 43.63 475.074 43.294C475.074 42.9393 474.99 42.6267 474.822 42.356C474.654 42.076 474.425 41.8613 474.136 41.712C473.856 41.5533 473.534 41.474 473.17 41.474C472.806 41.474 472.484 41.5533 472.204 41.712C471.924 41.8707 471.7 42.0853 471.532 42.356C471.373 42.6173 471.294 42.9253 471.294 43.28C471.294 43.644 471.373 43.9613 471.532 44.232C471.7 44.5027 471.924 44.7127 472.204 44.862C472.493 45.0113 472.82 45.086 473.184 45.086ZM479.723 50V42.118L477.987 42.566V41.264L480.395 40.2H481.445V50H479.723ZM483.176 50V48.782C483.801 48.2873 484.399 47.7927 484.968 47.298C485.537 46.8033 486.051 46.3133 486.508 45.828C486.965 45.3427 487.325 44.8667 487.586 44.4C487.847 43.9333 487.978 43.4853 487.978 43.056C487.978 42.776 487.927 42.5147 487.824 42.272C487.721 42.0293 487.558 41.8333 487.334 41.684C487.119 41.5347 486.83 41.46 486.466 41.46C486.111 41.46 485.808 41.5393 485.556 41.698C485.313 41.8567 485.131 42.0713 485.01 42.342C484.889 42.6033 484.828 42.902 484.828 43.238H483.204C483.223 42.5287 483.377 41.936 483.666 41.46C483.955 40.984 484.347 40.6293 484.842 40.396C485.337 40.1533 485.892 40.032 486.508 40.032C487.171 40.032 487.735 40.1533 488.202 40.396C488.669 40.6387 489.028 40.9793 489.28 41.418C489.532 41.8567 489.658 42.3747 489.658 42.972C489.658 43.4107 489.574 43.8447 489.406 44.274C489.247 44.694 489.023 45.1047 488.734 45.506C488.445 45.898 488.118 46.2807 487.754 46.654C487.399 47.018 487.031 47.368 486.648 47.704C486.265 48.0307 485.897 48.334 485.542 48.614H489.924V50H483.176ZM496.858 44.96L497.096 42.958L495.514 44.176L494.87 43.056L496.718 42.3L494.87 41.586L495.472 40.494L497.11 41.712L496.844 39.696H498.104L497.824 41.712L499.448 40.494L500.036 41.572L498.188 42.328L500.05 43.07L499.434 44.162L497.824 42.958L498.076 44.96H496.858ZM508.647 50.168C507.984 50.168 507.42 50.042 506.953 49.79C506.496 49.5287 506.136 49.188 505.875 48.768C505.614 48.3387 505.46 47.8813 505.413 47.396H506.967C507.051 47.8347 507.238 48.1753 507.527 48.418C507.826 48.6513 508.208 48.768 508.675 48.768C509.104 48.768 509.478 48.642 509.795 48.39C510.112 48.1287 510.364 47.7413 510.551 47.228C510.747 46.7053 510.854 46.052 510.873 45.268C510.873 45.2493 510.873 45.226 510.873 45.198C510.873 45.17 510.873 45.142 510.873 45.114C510.733 45.3753 510.537 45.6133 510.285 45.828C510.033 46.0427 509.739 46.2107 509.403 46.332C509.076 46.4533 508.722 46.514 508.339 46.514C507.798 46.514 507.284 46.388 506.799 46.136C506.323 45.8747 505.94 45.506 505.651 45.03C505.362 44.554 505.217 43.994 505.217 43.35C505.217 42.762 505.357 42.216 505.637 41.712C505.917 41.208 506.314 40.802 506.827 40.494C507.34 40.186 507.933 40.032 508.605 40.032C509.342 40.032 509.958 40.1673 510.453 40.438C510.957 40.7087 511.358 41.0727 511.657 41.53C511.956 41.978 512.17 42.482 512.301 43.042C512.441 43.602 512.511 44.176 512.511 44.764C512.511 45.8467 512.357 46.794 512.049 47.606C511.75 48.418 511.312 49.048 510.733 49.496C510.164 49.944 509.468 50.168 508.647 50.168ZM508.731 45.086C509.086 45.086 509.403 45.0113 509.683 44.862C509.972 44.7033 510.201 44.4887 510.369 44.218C510.537 43.938 510.621 43.63 510.621 43.294C510.621 42.9393 510.537 42.6267 510.369 42.356C510.201 42.076 509.972 41.8613 509.683 41.712C509.403 41.5533 509.081 41.474 508.717 41.474C508.353 41.474 508.031 41.5533 507.751 41.712C507.471 41.8707 507.247 42.0853 507.079 42.356C506.92 42.6173 506.841 42.9253 506.841 43.28C506.841 43.644 506.92 43.9613 507.079 44.232C507.247 44.5027 507.471 44.7127 507.751 44.862C508.04 45.0113 508.367 45.086 508.731 45.086ZM518.136 50.168C517.25 50.168 516.489 49.958 515.854 49.538C515.22 49.1087 514.73 48.516 514.384 47.76C514.048 46.9947 513.88 46.108 513.88 45.1C513.88 44.092 514.048 43.21 514.384 42.454C514.73 41.6887 515.22 41.096 515.854 40.676C516.489 40.2467 517.25 40.032 518.136 40.032C519.014 40.032 519.765 40.2467 520.39 40.676C521.025 41.096 521.51 41.6887 521.846 42.454C522.192 43.21 522.364 44.092 522.364 45.1C522.364 46.108 522.192 46.9947 521.846 47.76C521.51 48.516 521.025 49.1087 520.39 49.538C519.765 49.958 519.014 50.168 518.136 50.168ZM518.122 48.656C518.617 48.656 519.056 48.516 519.438 48.236C519.821 47.9467 520.115 47.536 520.32 47.004C520.535 46.472 520.642 45.8373 520.642 45.1C520.642 44.3627 520.535 43.728 520.32 43.196C520.115 42.664 519.821 42.258 519.438 41.978C519.056 41.6887 518.617 41.544 518.122 41.544C517.628 41.544 517.189 41.6887 516.806 41.978C516.424 42.258 516.125 42.664 515.91 43.196C515.705 43.728 515.602 44.3627 515.602 45.1C515.602 45.8373 515.705 46.472 515.91 47.004C516.125 47.536 516.424 47.9467 516.806 48.236C517.189 48.516 517.628 48.656 518.122 48.656Z" fill="white"/>
</svg>
