<svg width="14" height="10" viewBox="0 0 14 10" fill="none" xmlns="http://www.w3.org/2000/svg">
<g clip-path="url(#clip0_3539_67710)">
<path d="M2 0H11.9066V10H2V0Z" fill="white"/>
<path d="M0 0H3.49952V10H0V0ZM10.5005 0H14V10H10.5005V0ZM4.54686 4.83203L4.27633 4.92578L5.5401 6.04883C5.63671 6.33789 5.50725 6.42188 5.42415 6.57422L6.79614 6.39844L6.76135 7.79492L7.04734 7.78516L6.98357 6.40039L8.35942 6.56445C8.2744 6.38281 8.19903 6.28711 8.27633 5.99805L9.5401 4.93359L9.31981 4.85352C9.13816 4.71094 9.3971 4.17383 9.43575 3.83398C9.43575 3.83398 8.69952 4.08984 8.65121 3.95508L8.4599 3.59375L7.7913 4.33594C7.71787 4.35547 7.68696 4.32422 7.66957 4.26172L7.97874 2.70508L7.48792 2.98438C7.44734 3.00195 7.40676 2.98438 7.37971 2.9375L6.90628 1.98047L6.41932 2.97461C6.38261 3.00977 6.34589 3.01367 6.31498 2.99023L5.84734 2.72461L6.12754 4.27148C6.10628 4.33008 6.05217 4.34961 5.99034 4.31641L5.34686 3.57812C5.26377 3.71484 5.2058 3.9375 5.09565 3.98828C4.98551 4.0332 4.61256 3.89258 4.36329 3.83789C4.44831 4.14844 4.71498 4.66406 4.54686 4.83398V4.83203Z" fill="#D52B1E"/>
</g>
<defs>
<clipPath id="clip0_3539_67710">
<rect width="14" height="10" fill="white"/>
</clipPath>
</defs>
</svg>
