<svg width="16" height="16" viewBox="0 0 16 16" fill="none" xmlns="http://www.w3.org/2000/svg">
<path d="M7.99734 8.79688L7.99614 8.79854L7.99609 8.8047L7.99665 8.80488L8.00193 8.80317L7.99734 8.79688Z" fill="url(#paint0_linear_4292_110786)"/>
<path d="M8.00068 8.80245L15.9983 6.21059L10.4714 5.40015L10.4701 5.39746L7.99609 8.79615L8.00068 8.80245Z" fill="url(#paint1_linear_4292_110786)"/>
<path d="M8.0071 8.80729L11.9964 10.1047L16.0015 6.21094L8.00391 8.8028L8.0071 8.80729Z" fill="url(#paint2_linear_4292_110786)"/>
<path d="M7.9963 8.79785L7.99219 8.80348L7.99625 8.80478L7.9963 8.79785Z" fill="url(#paint3_linear_4292_110786)"/>
<path d="M7.99505 8.80273L7.99219 8.80669L7.99911 8.80445V8.80404L7.99505 8.80273Z" fill="url(#paint4_linear_4292_110786)"/>
<path d="M7.99609 8.80445L8.00457 8.80722L8.00137 8.80273L7.99609 8.80445Z" fill="url(#paint5_linear_4292_110786)"/>
<path d="M7.9973 8.79703L10.4713 5.39834L8.00706 0.388672L7.99609 8.79532L7.9973 8.79703Z" fill="url(#paint6_linear_4292_110786)"/>
<path d="M7.99825 8.80469L7.9977 8.80487L7.99219 13.0059L12.915 15.6021L8.00672 8.80746L7.99825 8.80469Z" fill="url(#paint7_linear_4292_110786)"/>
<path d="M7.98933 8.80668L3.04688 15.5962L7.98998 13.0057L7.99549 8.80469L7.98933 8.80668Z" fill="url(#paint8_linear_4292_110786)"/>
<path d="M11.9932 10.1051L8.00391 8.80762L12.9122 15.6023L12.9303 15.6119L11.9932 10.1051Z" fill="url(#paint9_linear_4292_110786)"/>
<path d="M3.99446 10.0942L3.04297 15.5985L3.04751 15.5962L7.98996 8.80664L3.99446 10.0942Z" fill="url(#paint10_linear_4292_110786)"/>
<path d="M8.00935 0.388672L5.53516 5.38543L7.99838 8.79532L8.00935 0.388672Z" fill="url(#paint11_linear_4292_110786)"/>
<path d="M7.99296 8.80358L0 6.19043L3.9949 10.0947L7.99041 8.8071L7.99296 8.80358Z" fill="url(#paint12_linear_4292_110786)"/>
<path d="M7.99661 8.79804V8.79466L5.53339 5.38477L5.5289 5.39388L0 6.18988L7.99296 8.80304L7.99661 8.79804Z" fill="url(#paint13_linear_4292_110786)"/>
<path d="M0 6.19141C0 6.19141 0.125446 6.23043 0.345044 6.29875C0.564412 6.36772 0.878766 6.46331 1.25427 6.5832C1.62982 6.70309 2.06795 6.84293 2.53733 6.99277C3.00606 7.14465 3.50608 7.30662 4.00606 7.46863C4.5052 7.63329 5.0043 7.79789 5.47224 7.95222C5.93949 8.10864 6.37564 8.25459 6.74943 8.37971C7.12326 8.50474 7.43331 8.61338 7.65111 8.68731C7.86862 8.76188 7.99291 8.80451 7.99291 8.80451C7.99291 8.80451 7.86746 8.76549 7.64786 8.69717C7.4285 8.62824 7.1141 8.5327 6.73859 8.41276C6.36309 8.29287 5.92496 8.15303 5.45553 8.00319C4.9868 7.85131 4.48683 7.6893 3.9868 7.52728C3.48766 7.36263 2.98852 7.19798 2.52062 7.0436C2.05337 6.88719 1.61723 6.74124 1.24344 6.61611C0.869601 6.49104 0.559505 6.38249 0.341758 6.30852C0.124335 6.23399 0 6.19141 0 6.19141Z" fill="white"/>
<path d="M15.9995 6.21094C15.9995 6.21094 15.875 6.25325 15.6572 6.32731C15.4391 6.40073 15.1286 6.50853 14.7543 6.63268C14.38 6.75688 13.9433 6.90177 13.4754 7.05702C13.0069 7.21024 12.5071 7.37365 12.0073 7.53705C11.5067 7.69781 11.006 7.85858 10.5367 8.00934C10.0666 8.15803 9.62799 8.2968 9.25198 8.41572C8.87602 8.53478 8.56125 8.62949 8.3416 8.69791C8.12172 8.76567 7.99609 8.80442 7.99609 8.80442C7.99609 8.80442 8.12057 8.76206 8.33841 8.68804C8.55643 8.61463 8.86694 8.50673 9.24129 8.38262C9.61559 8.25843 10.0523 8.11354 10.5201 7.95833C10.9887 7.80511 11.4885 7.64176 11.9883 7.47831C12.4889 7.31754 12.9896 7.15682 13.4589 7.0061C13.9289 6.85742 14.3676 6.71864 14.7436 6.59973C15.1196 6.48076 15.4343 6.38591 15.654 6.31754C15.8738 6.24968 15.9995 6.21094 15.9995 6.21094Z" fill="white"/>
<path d="M12.9258 15.6019C12.9258 15.6019 12.8473 15.4968 12.7101 15.3128C12.5734 15.1284 12.3756 14.8668 12.1427 14.5497C11.9097 14.2326 11.6379 13.8627 11.3468 13.4663C11.0573 13.0687 10.7486 12.6446 10.4398 12.2204C10.1333 11.7947 9.8268 11.3689 9.53948 10.9697C9.25387 10.5693 8.98733 10.1956 8.75885 9.87532C8.53027 9.55504 8.34363 9.2854 8.21119 9.09792C8.07927 8.91008 8.00391 8.80273 8.00391 8.80273C8.00391 8.80273 8.08237 8.90786 8.21962 9.09186C8.35636 9.27619 8.55415 9.53772 8.78704 9.8549C9.01997 10.172 9.29174 10.5419 9.58294 10.9383C9.87239 11.3359 10.1811 11.76 10.4899 12.1842C10.7963 12.6099 11.1028 13.0357 11.3901 13.4348C11.6758 13.8352 11.9423 14.209 12.1708 14.5292C12.3993 14.8495 12.586 15.1191 12.7185 15.3066C12.8504 15.4945 12.9258 15.6019 12.9258 15.6019Z" fill="white"/>
<path d="M3.07422 15.6018C3.07422 15.6018 3.14958 15.4944 3.28155 15.3066C3.41399 15.1191 3.60076 14.8496 3.82925 14.5292C4.05774 14.2089 4.32427 13.8352 4.60988 13.4348C4.8972 13.0357 5.20369 12.6099 5.51017 12.1842C5.81893 11.76 6.12763 11.3359 6.41708 10.9383C6.70829 10.5419 6.98006 10.172 7.21299 9.8549C7.44583 9.53772 7.64372 9.27619 7.78041 9.09186C7.91766 8.90786 7.99612 8.80273 7.99612 8.80273C7.99612 8.80273 7.92076 8.91008 7.78888 9.09792C7.65645 9.2854 7.46976 9.55504 7.24123 9.87532C7.01274 10.1956 6.7462 10.5693 6.4606 10.9697C6.17323 11.3689 5.86674 11.7946 5.56026 12.2204C5.25151 12.6446 4.94275 13.0687 4.6533 13.4663C4.36209 13.8627 4.09033 14.2326 3.8574 14.5497C3.62447 14.8668 3.42672 15.1284 3.28998 15.3128C3.15263 15.4967 3.07422 15.6018 3.07422 15.6018Z" fill="white"/>
<path d="M8.01256 0.435547C8.01256 0.435547 8.01418 0.566223 8.01696 0.794895C8.01908 1.02357 8.02519 1.35023 8.02709 1.74226C8.02904 2.13429 8.03126 2.59163 8.03367 3.08161C8.03394 3.57164 8.03422 4.09429 8.0345 4.61695C8.032 5.13961 8.0295 5.66227 8.02714 6.15229C8.02265 6.64232 8.01844 7.09962 8.01487 7.4916C8.01135 7.88358 8.00376 8.21025 8.00062 8.43892C7.99682 8.66759 7.99464 8.79827 7.99464 8.79827C7.99464 8.79827 7.99302 8.66759 7.9902 8.43892C7.98807 8.21025 7.98182 7.88358 7.98002 7.49155C7.97807 7.09952 7.97585 6.64218 7.97344 6.1522C7.97321 5.66218 7.97293 5.13952 7.97266 4.61681C7.9752 4.09416 7.9777 3.5715 7.98006 3.08147C7.98455 2.5915 7.98877 2.13415 7.99238 1.74217C7.99594 1.35014 8.00344 1.02352 8.00659 0.794848C8.01038 0.566223 8.01256 0.435547 8.01256 0.435547Z" fill="white"/>
<defs>
<linearGradient id="paint0_linear_4292_110786" x1="7.99611" y1="8.80087" x2="8.00191" y2="8.80087" gradientUnits="userSpaceOnUse">
<stop offset="0.0118" stop-color="#A67B02"/>
<stop offset="0.1843" stop-color="#FFCD44"/>
<stop offset="0.3294" stop-color="#FEDB74"/>
<stop offset="0.4627" stop-color="#FFBE06"/>
<stop offset="0.6902" stop-color="#FFCD44"/>
<stop offset="1" stop-color="#A67B02"/>
</linearGradient>
<linearGradient id="paint1_linear_4292_110786" x1="7.99609" y1="7.09997" x2="15.9983" y2="7.09997" gradientUnits="userSpaceOnUse">
<stop offset="0.0118" stop-color="#A67B02"/>
<stop offset="0.1843" stop-color="#FFCD44"/>
<stop offset="0.3294" stop-color="#FEDB74"/>
<stop offset="0.4627" stop-color="#FFBE06"/>
<stop offset="0.6902" stop-color="#FFCD44"/>
<stop offset="1" stop-color="#A67B02"/>
</linearGradient>
<linearGradient id="paint2_linear_4292_110786" x1="12.0975" y1="7.83067" x2="14.7242" y2="16.8054" gradientUnits="userSpaceOnUse">
<stop offset="0.0118" stop-color="#A67B02"/>
<stop offset="0.302" stop-color="#FEDB74"/>
<stop offset="0.4941" stop-color="#FFCD44"/>
<stop offset="0.6196" stop-color="#FFBE06"/>
<stop offset="0.8118" stop-color="#FFCD44"/>
<stop offset="1" stop-color="#A67B02"/>
</linearGradient>
<linearGradient id="paint3_linear_4292_110786" x1="7.99219" y1="8.80132" x2="7.99628" y2="8.80132" gradientUnits="userSpaceOnUse">
<stop offset="0.0118" stop-color="#A67B02"/>
<stop offset="0.1843" stop-color="#FFCD44"/>
<stop offset="0.3294" stop-color="#FEDB74"/>
<stop offset="0.4627" stop-color="#FFBE06"/>
<stop offset="0.6902" stop-color="#FFCD44"/>
<stop offset="1" stop-color="#A67B02"/>
</linearGradient>
<linearGradient id="paint4_linear_4292_110786" x1="7.99216" y1="8.8047" x2="7.99913" y2="8.8047" gradientUnits="userSpaceOnUse">
<stop offset="0.0118" stop-color="#A67B02"/>
<stop offset="0.1843" stop-color="#FFCD44"/>
<stop offset="0.3294" stop-color="#FEDB74"/>
<stop offset="0.4627" stop-color="#FFBE06"/>
<stop offset="0.6902" stop-color="#FFCD44"/>
<stop offset="1" stop-color="#A67B02"/>
</linearGradient>
<linearGradient id="paint5_linear_4292_110786" x1="7.99609" y1="8.80497" x2="8.00458" y2="8.80497" gradientUnits="userSpaceOnUse">
<stop offset="0.0118" stop-color="#A67B02"/>
<stop offset="0.1843" stop-color="#FFCD44"/>
<stop offset="0.3294" stop-color="#FEDB74"/>
<stop offset="0.4627" stop-color="#FFBE06"/>
<stop offset="0.6902" stop-color="#FFCD44"/>
<stop offset="1" stop-color="#A67B02"/>
</linearGradient>
<linearGradient id="paint6_linear_4292_110786" x1="10.0218" y1="7.66823" x2="5.93977" y2="1.45244" gradientUnits="userSpaceOnUse">
<stop offset="0.0118" stop-color="#A67B02"/>
<stop offset="0.1843" stop-color="#FFCD44"/>
<stop offset="0.3294" stop-color="#FEDB74"/>
<stop offset="0.4627" stop-color="#FFBE06"/>
<stop offset="0.6902" stop-color="#FFCD44"/>
<stop offset="1" stop-color="#A67B02"/>
</linearGradient>
<linearGradient id="paint7_linear_4292_110786" x1="6.79558" y1="9.52241" x2="12.3001" y2="15.8516" gradientUnits="userSpaceOnUse">
<stop offset="0.0118" stop-color="#A67B02"/>
<stop offset="0.1843" stop-color="#FFCD44"/>
<stop offset="0.3294" stop-color="#FEDB74"/>
<stop offset="0.4627" stop-color="#FFBE06"/>
<stop offset="0.6902" stop-color="#FFCD44"/>
<stop offset="1" stop-color="#A67B02"/>
</linearGradient>
<linearGradient id="paint8_linear_4292_110786" x1="8.33662" y1="10.6425" x2="2.29014" y2="15.2378" gradientUnits="userSpaceOnUse">
<stop offset="0.0118" stop-color="#A67B02"/>
<stop offset="0.298" stop-color="#FFBE06"/>
<stop offset="0.6902" stop-color="#FFCD44"/>
<stop offset="1" stop-color="#A67B02"/>
</linearGradient>
<linearGradient id="paint9_linear_4292_110786" x1="10.3758" y1="10.5238" x2="12.0286" y2="15.1997" gradientUnits="userSpaceOnUse">
<stop offset="0.0118" stop-color="#A67B02"/>
<stop offset="0.4627" stop-color="#FFBE06"/>
<stop offset="0.6902" stop-color="#FFCD44"/>
<stop offset="1" stop-color="#A67B02"/>
</linearGradient>
<linearGradient id="paint10_linear_4292_110786" x1="5.52901" y1="8.66047" x2="5.50839" y2="14.4742" gradientUnits="userSpaceOnUse">
<stop offset="0.0118" stop-color="#A67B02"/>
<stop offset="0.1843" stop-color="#FFCD44"/>
<stop offset="0.3294" stop-color="#FEDB74"/>
<stop offset="0.4627" stop-color="#FFBE06"/>
<stop offset="0.6902" stop-color="#FFCD44"/>
<stop offset="1" stop-color="#A67B02"/>
</linearGradient>
<linearGradient id="paint11_linear_4292_110786" x1="6.51487" y1="7.64104" x2="9.98154" y2="0.062745" gradientUnits="userSpaceOnUse">
<stop offset="0.0864" stop-color="#A67B02"/>
<stop offset="0.3294" stop-color="#FEDB74"/>
<stop offset="0.4627" stop-color="#FFBE06"/>
<stop offset="0.6902" stop-color="#FFCD44"/>
<stop offset="1" stop-color="#A67B02"/>
</linearGradient>
<linearGradient id="paint12_linear_4292_110786" x1="4.83151" y1="8.39239" x2="0.840832" y2="4.7645" gradientUnits="userSpaceOnUse">
<stop offset="0.0118" stop-color="#A67B02"/>
<stop offset="0.1843" stop-color="#FFCD44"/>
<stop offset="0.3294" stop-color="#FEDB74"/>
<stop offset="0.4627" stop-color="#FFBE06"/>
<stop offset="0.6902" stop-color="#FFCD44"/>
<stop offset="1" stop-color="#A67B02"/>
</linearGradient>
<linearGradient id="paint13_linear_4292_110786" x1="6.16983" y1="9.78781" x2="2.29398" y2="5.23162" gradientUnits="userSpaceOnUse">
<stop offset="0.0118" stop-color="#A67B02"/>
<stop offset="0.1843" stop-color="#FFCD44"/>
<stop offset="0.3294" stop-color="#FEDB74"/>
<stop offset="0.4627" stop-color="#FFBE06"/>
<stop offset="0.6902" stop-color="#FFCD44"/>
<stop offset="1" stop-color="#A67B02"/>
</linearGradient>
</defs>
</svg>
