<svg width="14" height="10" viewBox="0 0 14 10" fill="none" xmlns="http://www.w3.org/2000/svg">
<g clip-path="url(#clip0_3539_67681)">
<path d="M0 0H14V10H0V0Z" fill="#012169"/>
<path d="M14 0V1.25L8.80469 5L14 8.65234V10H12.168L6.94531 6.32812L1.85938 10H0V8.67188L5.08594 5.01953L0 1.44531V0H1.69531L6.94531 3.67188L12.0312 0H14Z" fill="white"/>
<path d="M5.03125 6.32812L5.33203 6.99219L1.14844 10H0V9.94141L5.03125 6.32812ZM8.42188 6.09375L9.89844 6.25L14 9.12109V10L8.42188 6.09375ZM14 0L8.75 3.82812L8.64062 2.96875L12.7422 0H14ZM0 0.0195312L5.27734 3.71094L3.66406 3.55469L0 0.957031V0.0195312Z" fill="#C8102E"/>
<path d="M4.8125 0V10H9.1875V0H4.8125ZM0 3.4375V6.5625H14V3.4375H0Z" fill="white"/>
<path d="M0 4.0625V5.9375H14V4.0625H0ZM5.6875 0V10H8.3125V0H5.6875Z" fill="#C8102E"/>
</g>
<defs>
<clipPath id="clip0_3539_67681">
<rect width="14" height="10" fill="white"/>
</clipPath>
</defs>
</svg>
