<svg width="14" height="10" viewBox="0 0 14 10" fill="none" xmlns="http://www.w3.org/2000/svg">
<g clip-path="url(#clip0_3539_67688)">
<mask id="mask0_3539_67688" style="mask-type:luminance" maskUnits="userSpaceOnUse" x="0" y="0" width="14" height="10">
<path d="M0 0H13.9979V9.99847H0V0Z" fill="white"/>
</mask>
<g mask="url(#mask0_3539_67688)">
<path fill-rule="evenodd" clip-rule="evenodd" d="M-3.5 0H17.4968V9.99847H-3.5V0Z" fill="#165D31"/>
<path fill-rule="evenodd" clip-rule="evenodd" d="M1.79135 2.83401C1.76877 3.06784 1.73773 3.47907 2.01712 3.5214C2.35296 3.54358 2.16669 3.11421 2.28805 3.03761C2.31345 2.99729 2.35578 2.99729 2.3586 3.04769V3.41053C2.35578 3.53148 2.46302 3.56374 2.54768 3.58994C2.63799 3.58389 2.69444 3.58591 2.73112 3.64638L2.77063 4.27734C2.77063 4.27734 2.97665 4.31765 2.98512 3.92255C2.99641 3.69073 2.92021 3.4952 2.96536 3.45085C2.96536 3.4065 3.04438 3.40449 3.10083 3.42464C3.18831 3.46899 3.22782 3.52543 3.36328 3.50124C3.57212 3.46093 3.6963 3.38836 3.70194 3.27547C3.69476 3.16429 3.66236 3.05469 3.60599 2.95093C3.61446 2.93077 3.56366 2.88037 3.57495 2.86021C3.61163 2.90053 3.66808 2.89851 3.68219 2.86021C3.6455 2.77555 3.59188 2.69693 3.50157 2.66266C3.42819 2.6163 3.32095 2.62638 3.28144 2.72314C3.27681 2.8502 3.33699 2.97414 3.45077 3.07188C3.48626 3.12665 3.50086 3.18715 3.4931 3.24725C3.43384 3.27346 3.37457 3.26136 3.32378 3.22508C3.32378 3.22508 3.15727 3.13437 3.15727 3.11622C3.20242 2.91464 3.16856 2.89247 3.14316 2.83602C3.12622 2.75942 3.07543 2.73523 3.03309 2.68282C2.99076 2.65057 2.93714 2.65057 2.90892 2.68282C2.83554 2.77353 2.86941 2.96705 2.92303 3.05373C2.96254 3.13437 3.01898 3.18476 2.99076 3.18476C2.96818 3.22911 2.92303 3.21903 2.88916 3.16662C2.84728 3.05559 2.82733 2.94092 2.8299 2.82595C2.81579 2.73523 2.80168 2.54373 2.71701 2.49535C2.66621 2.44697 2.59002 2.47116 2.56462 2.51551C2.55748 2.60288 2.56031 2.69052 2.57308 2.77757C2.62953 2.91867 2.64646 3.04769 2.67468 3.19484C2.68315 3.39239 2.51382 3.28152 2.52228 3.18275C2.56179 3.05575 2.55051 2.85417 2.51664 2.80377C2.48842 2.75338 2.45738 2.74128 2.39247 2.74934C2.33602 2.74531 2.20338 2.85013 2.16669 3.02753C2.16669 3.02753 2.13283 3.11824 2.11872 3.19686C2.09896 3.28757 2.01712 3.35207 1.95785 3.18476C1.90706 3.06381 1.87601 2.76345 1.79135 2.83401Z" fill="white"/>
<path fill-rule="evenodd" clip-rule="evenodd" d="M2.7069 3.79421L1.83203 4.09457C1.8405 3.95346 2.24689 3.69544 2.52346 3.69141C2.70408 3.69544 2.65892 3.7418 2.7069 3.7922V3.79421Z" fill="white"/>
<path fill-rule="evenodd" clip-rule="evenodd" d="M2.55319 3.98889C2.09036 4.83755 3.63125 4.95648 3.8034 4.02316C3.82034 3.98486 3.88807 3.94656 3.89654 4.00905C3.85985 4.85569 2.70559 4.91213 2.50804 4.64605C2.46006 4.58557 2.44595 4.44446 2.44031 4.3598C2.41209 4.1945 2.28791 4.25901 2.27098 4.42431C2.25122 4.51502 2.25405 4.54122 2.25405 4.62992C2.31613 5.29514 3.80623 5.00889 4.04893 4.45857C4.17593 4.15419 4.02636 3.92841 4.09691 3.92841C4.24366 4.04332 4.4525 3.94454 4.49765 3.90422C4.51741 3.88407 4.56539 3.87197 4.59925 3.89818C4.71214 3.95865 4.91815 3.92841 4.96049 3.82561C4.98306 3.7228 5.00282 3.61798 5.00846 3.50912C4.91533 3.52928 4.84478 3.54339 4.83913 3.5696L4.81938 3.66233C4.81091 3.69055 4.72907 3.69256 4.72625 3.65426C4.68956 3.53936 4.54281 3.52323 4.4525 3.70264C4.39323 3.73893 4.28317 3.74296 4.27188 3.69256C4.28599 3.57161 4.21826 3.55549 4.0828 3.61193L3.95016 2.90639C4.0066 2.90639 4.06022 2.93461 4.11102 2.88825C4.05458 2.76125 3.93322 2.50524 3.86831 2.48509C3.83445 2.45687 3.80905 2.47501 3.76672 2.48106C3.69334 2.49718 3.62561 2.54153 3.64819 2.62821L3.87396 3.64015C3.88525 3.68248 3.83445 3.74094 3.76954 3.7349C3.65948 3.68047 3.63125 3.57363 3.44499 3.57766C3.30671 3.57766 3.15149 3.6845 3.13456 3.78731C3.10916 3.86794 3.10069 3.95664 3.13456 4.02719C3.22769 4.10782 3.3434 4.10177 3.44499 4.08162C3.52683 4.05743 3.59457 3.99897 3.62561 4.01308C3.64536 4.03122 3.62843 4.22474 3.23333 4.37593C2.99627 4.45253 2.80436 4.46865 2.70277 4.32956C2.64068 4.24288 2.70841 3.91229 2.55319 3.98687V3.98889Z" fill="white"/>
<path fill-rule="evenodd" clip-rule="evenodd" d="M4.51099 3.12431C4.60412 3.10213 5.04155 2.7413 5.04155 2.7413L4.97664 2.70502C4.95124 2.68889 4.95406 2.67478 4.97664 2.65865C5.08388 2.61431 5.05002 2.51352 4.99357 2.46917C4.95677 2.45604 4.91619 2.4492 4.87504 2.4492C4.8339 2.4492 4.79332 2.45604 4.75651 2.46917C4.68031 2.52359 4.66338 2.60624 4.72265 2.65865C4.77909 2.67881 4.84118 2.71913 4.80167 2.74332C4.62105 2.88039 4.13 3.11625 4.18644 3.12632C4.19773 3.1364 4.50252 3.1364 4.51099 3.12632V3.12431ZM1.86099 4.39428C1.6973 4.58175 1.68319 4.86195 1.77632 4.94459C1.82148 4.98491 1.9005 5.00104 1.95976 4.98894C2.06418 4.95669 2.10934 4.80752 2.08394 4.75309C2.05007 4.71277 2.02185 4.70874 1.98798 4.741C1.91461 4.84582 1.88357 4.77325 1.87792 4.71479C1.86663 4.60392 1.88074 4.4991 1.89768 4.41847C1.91743 4.33582 1.89768 4.36001 1.86099 4.39428ZM8.89096 4.0919C8.73292 3.84799 8.51279 3.60609 8.44224 3.51336C8.22941 3.27263 8.00347 3.03794 7.76492 2.80984C7.59559 2.6647 8.04432 2.87032 7.70848 2.58205C7.58148 2.50142 7.57302 2.4994 7.46578 2.4349C7.41215 2.40668 7.28234 2.3583 7.25976 2.43893C7.24854 2.49672 7.25237 2.55549 7.27105 2.61229C7.28234 2.65261 7.36418 2.71913 7.40651 2.75944C7.94272 3.27348 8.41966 3.79558 8.87685 4.4487C8.95023 4.42451 8.93329 4.13423 8.89096 4.0919Z" fill="white"/>
<path fill-rule="evenodd" clip-rule="evenodd" d="M8.19288 4.91244C8.16184 4.93865 8.26908 5.04549 8.41019 5.04549C8.64725 5.02533 8.85327 4.93058 9.04517 4.68264C9.09597 4.62216 9.18628 4.50121 9.1891 4.40244C9.20886 3.83801 9.14959 3.39856 9.03106 2.99137C9.02542 2.95105 9.03106 2.90267 9.03953 2.89057C9.05364 2.87848 9.10444 2.89057 9.13266 2.86034C9.17217 2.8301 9.02542 2.58619 8.94358 2.49346C8.91253 2.45113 8.90124 2.4229 8.85327 2.49749C8.79965 2.55796 8.7686 2.6648 8.7686 2.76358C8.88149 3.31994 8.91818 3.80777 8.99155 4.36212C8.9972 4.41655 8.98591 4.49517 8.93511 4.5254C8.72869 4.69037 8.47574 4.82227 8.19288 4.91244ZM11.3763 4.91043C11.2069 4.97896 11.2069 5.0596 11.3452 5.06363C11.5795 5.04347 11.8589 5.02936 12.0508 4.82173C12.1016 4.76327 12.1636 4.60604 12.1665 4.51129C12.1834 3.94686 12.1552 3.52354 12.0367 3.11635C12.031 3.07603 12.0056 2.98532 12.0141 2.97322C12.031 2.945 12.1072 2.97524 12.1354 2.94299C12.1749 2.91476 11.9379 2.69504 11.8532 2.6003C11.8222 2.55998 11.8109 2.53176 11.7629 2.60634C11.7093 2.66682 11.6923 2.77567 11.7121 2.87042C11.8391 3.47516 11.9322 3.92872 11.9492 4.46291C11.9407 4.51533 11.9379 4.54355 11.904 4.60604C11.8306 4.67458 11.7488 4.75924 11.6698 4.79956C11.5936 4.83987 11.4299 4.88019 11.3763 4.91043Z" fill="white"/>
<path fill-rule="evenodd" clip-rule="evenodd" d="M11.5025 4.36835V3.99945C11.5003 3.90753 11.4715 3.81693 11.4178 3.73337C11.367 3.65273 11.3981 3.59024 11.3755 3.50356C11.3529 3.4189 11.3586 3.28989 11.3247 3.18909C11.3134 3.14878 11.2852 3.0238 11.2965 3.0117C11.3078 2.98348 11.3614 3.0117 11.3868 2.97945C11.4263 2.94921 11.2513 2.62668 11.1638 2.53597C11.1328 2.49565 11.0764 2.50775 11.003 2.57629C10.9381 2.61862 10.9635 2.71941 10.9889 2.81415C11.1582 3.4451 11.2824 4.0176 11.257 4.6163C11.2485 4.66871 11.5053 4.46511 11.5025 4.36835ZM10.2523 3.58621C10.1479 3.58621 9.92492 3.43704 9.85719 3.35238C9.84741 3.33197 9.84362 3.31034 9.84604 3.28884C9.84847 3.26734 9.85707 3.24642 9.8713 3.2274C9.91081 3.20724 9.97289 3.18708 10.018 3.20724C10.018 3.20724 10.0632 3.25562 10.0547 3.26166C10.1112 3.28182 10.1394 3.26973 10.145 3.25158C10.1479 3.22336 10.1253 3.20522 10.1253 3.17095C10.1535 3.08427 10.2946 3.07016 10.3454 3.1266C10.3849 3.16087 10.399 3.23344 10.4047 3.28384C10.4047 3.30803 10.3482 3.27779 10.3144 3.28384C10.2833 3.2919 10.2749 3.31811 10.272 3.3423C10.2664 3.4068 10.2551 3.50961 10.2523 3.5842V3.58621ZM8.28807 4.52558C8.31629 4.33206 8.2796 3.99139 8.27678 3.8785C8.26549 3.6104 8.20341 3.09233 8.17519 3.00767C8.14132 2.84439 8.26832 3.02581 8.25138 2.93107C8.20905 2.7698 8.08205 2.65692 7.9353 2.50775C7.88733 2.46138 7.89015 2.4513 7.81395 2.51984C7.73493 2.65289 7.80548 2.7436 7.82524 2.8464C7.93248 3.18305 7.99457 3.49147 8.02279 3.79787C8.05442 4.11657 8.05819 4.43636 8.03408 4.75539C8.11592 4.75942 8.24574 4.66266 8.28807 4.52558Z" fill="white"/>
<path fill-rule="evenodd" clip-rule="evenodd" d="M11.8651 4.21749C11.676 3.99373 11.3938 3.74982 11.3176 3.65911C11.0649 3.40572 10.7994 3.15896 10.5217 2.9193C10.2875 2.74392 10.629 2.89108 10.4766 2.75602C10.3468 2.65523 10.3073 2.62297 10.2 2.5625C10.1436 2.53629 10.1097 2.48791 10.0928 2.57056C10.0843 2.64313 10.0787 2.7278 10.0843 2.79029C10.0843 2.82456 10.1351 2.88705 10.1774 2.92535C10.7419 3.42326 11.3627 3.93326 11.8623 4.57227C11.9328 4.54405 11.9102 4.2578 11.8623 4.21749H11.8651Z" fill="white"/>
<path fill-rule="evenodd" clip-rule="evenodd" d="M3.35269 3.80193C3.33858 3.82007 3.30754 3.84225 3.31883 3.86241C3.34141 3.88256 3.35834 3.88861 3.3922 3.89063C3.42043 3.89063 3.46558 3.89466 3.47405 3.88256C3.48422 3.87368 3.49089 3.86302 3.49337 3.85168C3.49585 3.84034 3.49405 3.82873 3.48816 3.81806C3.45994 3.76162 3.36963 3.78177 3.35269 3.80193Z" fill="#165D31"/>
<path fill-rule="evenodd" clip-rule="evenodd" d="M9.68388 7.08177C9.93505 7.08782 10.0987 7.08983 10.3217 7.10798L10.5813 7.08782C10.872 7.06766 10.8861 7.38414 10.8861 7.38414C10.8833 7.5696 10.7817 7.57766 10.6547 7.59782C10.5813 7.60588 10.5418 7.56758 10.5051 7.52727C10.4571 7.54138 10.3922 7.54339 10.3104 7.53533C10.206 7.5313 10.1016 7.5313 9.99996 7.52525C9.88707 7.5192 9.82781 7.53533 9.71775 7.52727C9.69235 7.55347 9.6613 7.58774 9.59639 7.57766C9.53995 7.57363 9.47222 7.45873 9.49197 7.37406C9.53148 7.31157 9.52019 7.33173 9.51737 7.30351C8.49011 7.28537 7.4572 7.25311 6.4497 7.26319C5.6595 7.26319 4.88341 7.28738 4.10731 7.31157C3.69246 7.30754 3.37356 7.25916 3.15625 7.02936C3.17601 7.02936 4.21456 7.07371 4.51653 7.0596C5.08096 7.05355 5.59176 7.02129 6.16466 7.0092C7.29352 7.02331 8.40827 7.02331 9.53713 7.07975C9.42989 7.02734 9.42424 6.90236 9.59357 6.87212C9.60486 6.86608 9.61333 6.9326 9.63873 6.9326C9.76854 6.92655 9.7121 7.05355 9.68388 7.08177ZM5.15715 2.64092C4.98782 2.98965 5.25311 3.37064 5.43937 3.33436C5.57483 3.37467 5.6595 3.19124 5.71594 2.99167C5.75263 2.93523 5.78085 2.92918 5.8006 2.9574C5.79496 3.22349 5.82882 3.28195 5.92478 3.36258C5.97999 3.39779 6.051 3.41774 6.125 3.41885C6.19899 3.41996 6.27111 3.40215 6.32834 3.36863L6.49485 3.24768C6.53154 3.22147 6.57952 3.21946 6.63314 3.24365C6.68394 3.27792 6.67547 3.33436 6.78553 3.37467C6.87584 3.40088 7.07339 3.38072 7.11855 3.32428C7.17781 3.24969 7.19474 3.22349 7.22297 3.19527C7.2653 3.15495 7.33867 3.17108 7.33867 3.18519C7.33303 3.20736 7.2907 3.23155 7.31892 3.27187C7.36972 3.30009 7.38383 3.28195 7.41487 3.2759C7.52211 3.23962 7.60396 3.07029 7.60396 3.07029C7.60678 3.00981 7.5588 3.01384 7.52776 3.02594L7.44309 3.06827C7.38665 3.07432 7.28505 3.09851 7.23425 3.04206C7.18346 2.97554 7.18063 2.8808 7.14112 2.81226C7.14112 2.80823 7.07339 2.70542 7.1383 2.69938C7.16935 2.70341 7.2399 2.7155 7.25119 2.67519C7.28505 2.63487 7.17781 2.51997 7.10444 2.46151C7.04235 2.41313 6.95204 2.40708 6.86738 2.45748C6.81093 2.49779 6.81658 2.53811 6.80529 2.58044C6.79553 2.60985 6.79555 2.64049 6.80535 2.6699C6.81515 2.6993 6.83446 2.72666 6.86173 2.74977C6.921 2.83242 7.03106 2.93926 6.99437 3.09246C6.99437 3.09246 6.92946 3.16301 6.8194 3.15293C6.77424 3.14487 6.70087 3.13278 6.66136 2.92313C6.63314 2.76388 6.667 2.54214 6.57387 2.43933C6.54001 2.37483 6.51743 2.31435 6.43276 2.42321C6.41019 2.46352 6.31423 2.52803 6.38197 2.66107C6.44653 2.77824 6.46602 2.90561 6.43841 3.02997C6.3989 3.0723 6.39043 3.08843 6.33681 3.13076C6.26626 3.18519 6.18724 3.17108 6.12797 3.15092C6.07153 3.12471 6.02638 3.1106 6.00098 3.02392C6.00662 2.88685 6.01509 2.66309 5.98122 2.61471C5.93042 2.54214 5.84576 2.56835 5.80907 2.59052C5.64531 2.72024 5.5358 2.88017 5.49299 3.05214C5.44501 3.16301 5.39421 3.13278 5.35753 3.08641C5.27004 3.02594 5.26439 2.56432 5.15715 2.64092Z" fill="white"/>
<path fill-rule="evenodd" clip-rule="evenodd" d="M5.67302 3.40102C5.75204 3.3607 5.71535 3.3345 5.83106 3.41714C5.97999 3.60419 6.06689 3.81315 6.08505 4.02794C6.07658 4.07833 6.12738 4.10857 6.14996 4.09849C6.16125 3.98157 6.56481 3.81628 6.93169 3.79209C6.98814 3.78402 6.95991 3.70742 6.96838 3.66711C6.9458 3.52197 7.08127 3.38892 7.276 3.37884C7.53563 3.40707 7.62312 3.50584 7.62876 3.65703C7.60054 3.94932 7.1744 3.99972 6.93452 4.01987C6.89783 4.03197 6.88372 4.04406 6.93452 4.05818L7.93638 4.06019L7.98718 4.08035C7.99282 4.10051 7.97307 4.08438 7.93073 4.13074C7.8884 4.17711 7.83478 4.28596 7.83196 4.35652C7.5316 4.41914 7.22351 4.46099 6.91194 4.4815C6.8047 4.52181 6.75108 4.57423 6.77083 4.63268C6.80752 4.69921 7.05022 4.76371 7.05022 4.76774C7.09538 4.7879 7.149 4.83628 7.03611 4.93304C6.54788 4.91893 6.16971 4.76976 6.03989 4.56011C6.00038 4.53996 5.95523 4.56011 5.92983 4.58834C5.75992 4.7749 5.51494 4.92036 5.22712 5.00561C5.03239 5.03988 4.83484 4.98545 4.74171 4.89474C4.67962 4.84233 4.68244 4.78589 4.65704 4.77379C4.55262 4.80604 3.65236 5.0802 3.76806 4.9532C3.98537 4.78387 4.36636 4.66091 4.69937 4.49561C4.7276 4.44118 4.76993 4.25371 4.90257 4.19324C4.90821 4.19324 4.87999 4.30209 4.88281 4.34845C4.88281 4.38675 4.87999 4.40086 4.89128 4.39079C4.91386 4.38071 5.32025 4.15292 5.35129 4.08237C5.3908 4.04205 5.36258 3.94126 5.36258 3.93723C5.2892 3.79612 5.18196 3.78604 5.14245 3.71549C5.10576 3.62276 5.1227 3.51794 5.19607 3.4877C5.26098 3.44537 5.33718 3.4494 5.41056 3.49576C5.49522 3.54817 5.56577 3.65098 5.58835 3.72758C5.57424 3.75782 5.48111 3.70742 5.44724 3.72355C5.50369 3.76387 5.53191 3.81426 5.55166 3.87474C5.60811 4.036 5.58835 4.09648 5.53755 4.2013C5.35693 4.47142 5.12552 4.55407 4.92232 4.65284C4.91668 4.65486 4.91386 4.7234 4.99005 4.75968C5.01828 4.77984 5.1227 4.7879 5.24405 4.75968C5.50801 4.65558 5.72155 4.49672 5.85645 4.30411C5.89314 4.15897 5.84234 4.00576 5.78872 3.87272C5.72721 3.7666 5.67073 3.65903 5.61939 3.55019C5.61375 3.46956 5.62222 3.44133 5.67584 3.40102H5.67302ZM3.05406 2.6471C3.16695 2.6854 3.38425 2.66726 3.37579 2.53623L3.37014 2.47374C3.34756 2.43342 3.28266 2.4435 3.26854 2.48584C3.2629 2.49793 3.27701 2.5201 3.26008 2.52615C3.24879 2.5322 3.2121 2.52817 3.21492 2.49188C3.21492 2.47979 3.20364 2.46769 3.19517 2.45963C3.1867 2.45761 3.18388 2.4556 3.16977 2.4556C3.15284 2.4556 3.15566 2.45963 3.14437 2.46971L3.1359 2.49995C3.1359 2.51406 3.12744 2.51809 3.11333 2.5201C3.09922 2.5201 3.10204 2.5201 3.09075 2.51607C3.08228 2.51003 3.07382 2.50801 3.07382 2.49793L3.06817 2.46568C3.06066 2.45973 3.05083 2.45552 3.03995 2.45358C2.97504 2.45358 2.97222 2.50599 2.97504 2.52615C2.9694 2.52817 2.96657 2.6209 3.05406 2.6471Z" fill="white"/>
<path fill-rule="evenodd" clip-rule="evenodd" d="M6.42769 3.66715C6.54058 3.70747 6.81715 3.68328 6.74942 3.55628L6.74377 3.49581C6.72119 3.45549 6.65911 3.46557 6.64217 3.50588C6.63935 3.51798 6.65064 3.54015 6.63371 3.5462C6.62524 3.55426 6.58855 3.55023 6.58855 3.51395C6.58855 3.50185 6.57726 3.48976 6.5688 3.48169C6.56315 3.47766 6.55751 3.47766 6.5434 3.47766C6.52929 3.47766 6.52929 3.47968 6.52082 3.48976L6.51235 3.52C6.50953 3.53411 6.50107 3.54015 6.48978 3.54015C6.47284 3.54015 6.47849 3.54015 6.46438 3.53612C6.45873 3.53007 6.44745 3.52806 6.44745 3.51798C6.44745 3.5079 6.44744 3.49177 6.4418 3.48573C6.43616 3.47968 6.42487 3.47766 6.41358 3.47565C6.35149 3.47565 6.34585 3.52604 6.34867 3.5462C6.34585 3.55023 6.34303 3.64094 6.42769 3.66715ZM8.39755 3.24383C8.51044 3.28414 8.72774 3.266 8.71927 3.13497L8.71363 3.07248C8.69105 3.03217 8.62614 3.04225 8.61203 3.08256C8.60639 3.09667 8.6205 3.11683 8.60357 3.12288C8.59228 3.13094 8.55559 3.12691 8.55841 3.09063C8.55841 3.07853 8.5443 3.06644 8.53866 3.05837C8.53019 3.05636 8.52737 3.05434 8.51044 3.05434C8.49633 3.05434 8.49632 3.05837 8.48786 3.06845L8.47939 3.09869C8.47939 3.11078 8.47093 3.11683 8.45682 3.11885C8.4427 3.11885 8.44553 3.11885 8.43424 3.1128C8.42577 3.10877 8.4173 3.10474 8.4173 3.09667C8.4173 3.08659 8.41448 3.07047 8.40884 3.0624C8.40319 3.05636 8.39473 3.05434 8.38062 3.05233C8.31853 3.05233 8.31571 3.10474 8.31853 3.12288C8.31289 3.12691 8.31006 3.21964 8.39755 3.24383ZM9.41352 4.30617C9.21597 4.46743 9.30346 4.73352 9.34861 4.78996C9.41635 4.88672 9.46714 4.9472 9.59696 4.99356C9.71549 5.05403 9.8058 5.01573 9.8566 4.9734C9.97513 4.88672 9.97513 4.66297 10.0316 4.61862C10.0711 4.53799 10.167 4.5521 10.215 4.58838C10.2586 4.63219 10.3168 4.66753 10.3843 4.69119C10.4944 4.75973 10.6242 4.77182 10.754 4.71135C10.8415 4.67506 10.9008 4.6287 10.9516 4.53799C11.008 4.42711 10.9798 3.91913 10.9657 3.61877C10.9629 3.59458 10.8528 3.20351 10.8528 3.19948C10.8528 3.19545 10.8359 2.99991 10.8246 2.95355C10.8246 2.93541 10.8161 2.92936 10.8444 2.93339C10.8726 2.94952 10.8782 2.95153 10.8952 2.95758C10.9234 2.96161 10.9516 2.92533 10.9347 2.89106L10.6581 2.52821C10.6383 2.5141 10.6101 2.49797 10.5734 2.53426C10.5521 2.54756 10.535 2.56398 10.5233 2.58241C10.5116 2.60085 10.5056 2.62086 10.5057 2.6411C10.5142 2.72778 10.5339 2.81446 10.5424 2.90114L10.6553 3.34059C10.6891 3.65506 10.6976 3.91106 10.7315 4.22755C10.7258 4.35858 10.6694 4.47549 10.6129 4.48961C10.6129 4.48961 10.5311 4.52589 10.4775 4.48961C10.4351 4.47549 10.2743 4.29609 10.2743 4.29609C10.1896 4.24166 10.1388 4.25577 10.0767 4.29609C9.91869 4.40696 9.84531 4.6166 9.73525 4.75973C9.70703 4.79198 9.62518 4.8202 9.5377 4.75771C9.31193 4.53597 9.44457 4.22553 9.41635 4.30617H9.41352ZM8.44835 2.47378C8.55277 2.50402 8.62332 2.65521 8.60074 2.72778C8.58099 2.81647 8.52455 2.91525 8.48786 2.90114C8.4427 2.89106 8.51608 2.81244 8.47375 2.72979C8.45117 2.67738 8.31006 2.57861 8.32417 2.55039C8.29595 2.48991 8.38626 2.46371 8.44835 2.47378Z" fill="white"/>
<path fill-rule="evenodd" clip-rule="evenodd" d="M9.75091 4.39409C9.77067 4.21266 9.73398 4.10381 9.72834 3.99899C9.72269 3.89416 9.55901 3.09187 9.53079 3.01123C9.48845 2.86005 9.686 2.99108 9.66343 2.90238C9.5957 2.79151 9.42919 2.63024 9.37557 2.5355C9.34452 2.49518 9.35581 2.45688 9.28526 2.52341C9.22434 2.64329 9.20309 2.77162 9.22317 2.89835C9.3925 3.5293 9.56465 4.05341 9.53643 4.65413C9.61827 4.65413 9.7114 4.5231 9.75091 4.39207V4.39409ZM11.5119 2.727C11.6079 2.76127 11.6615 2.94874 11.653 3.00115C11.6333 3.09993 11.5825 3.20274 11.5458 3.19064C11.5091 3.17855 11.5543 3.0455 11.5345 3.00519C11.5148 2.94673 11.3878 2.8419 11.399 2.80965C11.3736 2.74515 11.4555 2.71692 11.5119 2.72902V2.727ZM4.52147 4.05341C4.61178 4.07962 4.66258 4.21468 4.65411 4.25499C4.63718 4.32756 4.5892 4.40417 4.55534 4.3961C4.51865 4.38602 4.56098 4.28926 4.54405 4.25903C4.53558 4.18444 4.41141 4.14614 4.41423 4.1159C4.39165 4.05543 4.46785 4.04535 4.52147 4.05543V4.05341Z" fill="white"/>
<path fill-rule="evenodd" clip-rule="evenodd" d="M6.69649 4.26181C6.80938 4.26584 6.86864 4.33236 6.7614 4.35857C6.65416 4.38477 6.54974 4.40493 6.54974 4.5158C6.58925 4.67102 6.4933 4.61659 6.43685 4.59643C6.37194 4.56217 6.18568 4.48153 6.16028 4.30414C6.15746 4.26382 6.20261 4.22754 6.27599 4.22754C6.38888 4.2477 6.55256 4.25173 6.69367 4.26181H6.69649Z" fill="#165D31"/>
<path fill-rule="evenodd" clip-rule="evenodd" d="M2.11424 2.42893C2.24688 2.45715 2.25535 2.59624 2.24406 2.63857C2.22713 2.71316 2.17915 2.79178 2.14529 2.7817C2.1086 2.77363 2.14529 2.67284 2.12835 2.64059C2.1086 2.59624 1.99571 2.51561 2.00982 2.49142C1.9816 2.44304 2.06062 2.42087 2.11424 2.43094V2.42893ZM4.73602 3.08609C4.63442 3.1264 4.59491 3.24332 4.657 3.31186C4.71626 3.37233 4.80939 3.35016 4.8235 3.35016C4.92228 3.35822 4.98154 3.2151 4.98154 3.2151C4.98154 3.2151 4.98437 3.17478 4.86866 3.25138C4.81786 3.25743 4.81222 3.24534 4.79811 3.22518C4.78607 3.18725 4.79203 3.14754 4.81504 3.11229C4.83197 3.07802 4.79246 3.0619 4.73602 3.08609ZM5.498 2.3745C5.45002 2.40071 5.3456 2.47529 5.34278 2.56197C5.34278 2.61035 5.32867 2.61035 5.371 2.64261C5.40487 2.67486 5.43873 2.67284 5.50364 2.64865C5.5198 2.64118 5.53364 2.63142 5.54432 2.61998C5.55499 2.60854 5.56228 2.59566 5.56573 2.58213C5.58266 2.52569 5.48389 2.60834 5.4726 2.54585C5.45002 2.4894 5.51211 2.46521 5.57137 2.40877C5.57137 2.37047 5.57137 2.34426 5.50082 2.3745H5.498ZM6.11605 2.45513C6.09144 2.52584 6.07632 2.59807 6.07089 2.67083C6.05396 2.72525 6.14991 2.74743 6.19507 2.67687C6.25998 2.54988 6.25998 2.49545 6.26562 2.44102C6.24587 2.36039 6.16685 2.36039 6.11605 2.45312V2.45513ZM9.9965 3.86419C10.0078 3.85411 10.544 3.58198 10.544 3.58198C10.5976 3.56988 10.5863 3.72309 10.5609 3.72309C10.3953 3.83774 10.2047 3.93238 9.9965 4.00328C9.96828 4.01538 9.94288 3.89846 9.9965 3.86218V3.86419ZM10.4819 3.86218C10.575 3.89443 10.6146 4.09198 10.6033 4.14439C10.6061 4.24921 10.513 4.33186 10.4763 4.31775C10.4368 4.30566 10.4791 4.18874 10.4622 4.14842C10.4424 4.08996 10.3606 3.98111 10.3747 3.95087C10.3464 3.88435 10.4255 3.85008 10.4819 3.86218ZM7.30982 4.70882C7.34651 4.66851 7.45939 4.61408 7.46221 4.61408C7.51583 4.59392 7.56663 4.62819 7.56381 4.62617C7.57228 4.66447 7.52994 4.69874 7.54405 4.74914C7.55534 4.7693 7.56381 4.79147 7.61743 4.78341C7.7021 4.73704 7.78112 4.73301 7.86578 4.72898C7.93069 4.73301 7.93069 4.80961 7.89118 4.81163C7.73314 4.83582 7.66541 4.86606 7.55252 4.89629C7.4989 4.91847 7.45375 4.89025 7.45375 4.88823C7.45375 4.88621 7.42552 4.86606 7.44528 4.81566C7.4481 4.77534 7.42553 4.75519 7.38037 4.75922C7.34368 4.77131 7.31264 4.77938 7.29571 4.75115C7.28724 4.731 7.28724 4.72092 7.30982 4.70882ZM11.0435 4.81364C11.0661 4.8338 11.083 4.85396 11.0435 4.88823L10.9419 4.9487C10.9222 4.97289 10.9137 5.00515 10.9673 5.01523C11.0661 5.03538 11.2975 4.92855 11.2975 4.92653C11.3342 4.90637 11.3229 4.86807 11.3173 4.86807C11.2975 4.84993 11.2467 4.86001 11.2157 4.85799C11.1987 4.85799 11.1479 4.85194 11.1705 4.81969C11.1931 4.79953 11.1987 4.78744 11.2128 4.76123C11.2298 4.73704 11.2157 4.72092 11.1592 4.70681C11.1028 4.70076 11.0802 4.70479 11.0181 4.70681C10.9814 4.71285 10.9701 4.72293 10.9617 4.75317C10.9673 4.79752 11.004 4.7955 11.0463 4.81364H11.0435Z" fill="white"/>
<path fill-rule="evenodd" clip-rule="evenodd" d="M7.33073 3.70551C7.31662 3.72567 7.26582 3.72365 7.21785 3.70551C7.16987 3.68737 7.14729 3.65512 7.1614 3.63697C7.17551 3.61883 7.22631 3.61883 7.27429 3.63697C7.32226 3.65512 7.34484 3.68737 7.33073 3.70551ZM4.89522 2.66132C4.867 2.66736 4.83031 2.64922 4.81338 2.621C4.79644 2.59278 4.80491 2.5706 4.83313 2.56456C4.86135 2.55851 4.89804 2.57867 4.91497 2.60487C4.93191 2.63108 4.92344 2.65728 4.89522 2.66132ZM9.71263 7.32391C9.96662 7.33197 10.2093 7.32592 10.4633 7.336C10.5113 7.36221 10.4774 7.43276 10.4464 7.42671L10.2319 7.42268C10.2319 7.36422 10.0202 7.3743 10.0287 7.4247C9.91582 7.43478 9.81422 7.42268 9.70134 7.41865C9.66747 7.38841 9.67312 7.336 9.71263 7.32391Z" fill="#165D31"/>
</g>
</g>
<defs>
<clipPath id="clip0_3539_67688">
<rect width="14" height="10" fill="white"/>
</clipPath>
</defs>
</svg>
