<?xml version="1.0" encoding="UTF-8"?>
<svg id="Layer_1" xmlns="http://www.w3.org/2000/svg" version="1.1" viewBox="0 0 1024 1024">
  <!-- Generator: Adobe Illustrator 29.5.0, SVG Export Plug-In . SVG Version: 2.1.0 Build 137)  -->
  <defs>
    <style>
      .st0, .st1 {
        fill: #135740;
      }

      .st2 {
        fill: #fff;
      }

      .st1 {
        fill-rule: evenodd;
      }
    </style>
  </defs>
  <g>
    <path className="st0" d="M125.58,327.92l93.69-66.58c3.64-2.59,5.8-6.78,5.8-11.24v-33.63c0-23.77-19.27-43.04-43.04-43.04h-36.2c-23.77,0-43.04,19.27-43.04,43.04v100.97c0,11.54,13.01,17.56,22.36,10.78.14-.1.28-.21.43-.31Z"/>
    <path className="st0" d="M847.37,920.66c37.53,0,67.95-30.42,67.95-67.95v-455.16c0-23.06-11.69-44.54-31.06-57.06l-354.26-229.03c-23.36-15.1-53.57-14.44-76.25,1.67l-322.37,229.09c-17.93,12.74-28.59,33.38-28.59,55.39v455.1c0,37.53,30.42,67.95,67.95,67.95h676.62Z"/>
  </g>
  <g>
    <g>
      <path id="SVGID" className="st2" d="M386.13,546.04h39.11v-196.51h117.33s130.69,19.08,136.41,161.21c0,0,2.86,132.6-135.46,158.35h-157.4v251.57h41.02v-208.65l105.41,1.91s175.04-9.53,188.4-205.09c0,0,3.82-157.4-167.41-200.32h-167.41v237.52Z"/>
      <path id="SVGID1" data-name="SVGID" className="st2" d="M467.22,387.69h70.59s97.3,24.8,99.21,110.66c0,0,16.21,106.84-103.98,131.64h-188.88v290.67h-42.93V387.69h165.98Z"/>
    </g>
    <g>
      <path id="SVGID2" data-name="SVGID" className="st1" d="M571.67,546.12c-14.18,13.46-36.97,26.61-66.39,25.36-67.39-2.86-105.68-78.01-72.28-133.17,3.2-5.28,5.67-9.2,9.73-13.51,3.96-4.21,7-6.87,11.12-11.09-6.48,1.09-16.16,6.72-21.17,9.85-18.49,11.54-33.38,31.05-40,52.18-28.58,91.16,78.35,163.99,152.67,104.49,6.72-5.38,23.56-23.11,26.32-34.1h0Z"/>
      <polygon id="SVGID3" data-name="SVGID" className="st1" points="502.66 462.03 470.83 475.81 503.93 483.78 508.24 518.35 525.96 488.96 560.04 496.03 538.32 470.93 555.22 439.13 522.13 453.2 499.51 427.98 502.66 462.03 502.66 462.03"/>
    </g>
  </g>
</svg>