<svg width="16" height="16" viewBox="0 0 16 16" fill="none" xmlns="http://www.w3.org/2000/svg">
<path d="M2.38504 5.36771L3.75552 4.39835C3.82237 4.36492 3.85579 4.29807 3.85579 4.23122V3.72982C3.85579 3.36214 3.55496 3.09473 3.2207 3.09473H2.68588C2.31819 3.09473 2.05078 3.39556 2.05078 3.72982V5.234C2.05078 5.36771 2.25134 5.46799 2.38504 5.36771Z" fill="#1B573E"/>
<path d="M13.048 14.1262C13.6162 14.1262 14.0508 13.6917 14.0508 13.1235V6.37137C14.0508 6.0371 13.8836 5.70284 13.5828 5.53571L8.36833 2.15967C8.03407 1.92568 7.5661 1.95911 7.23184 2.19309L2.48532 5.56914C2.21791 5.76969 2.05078 6.07053 2.05078 6.37137V13.09C2.05078 13.6583 2.48532 14.0928 3.05357 14.0928L13.048 14.1262Z" fill="#1B573E"/>
<path d="M6.22874 8.57735H6.79698V5.66928H8.53515C8.53515 5.66928 10.4739 5.93669 10.5407 8.04254C10.5407 8.04254 10.5741 10.0147 8.53515 10.3824H6.19531V14.6609H6.79698V11.0175L8.36801 11.0509C8.36801 11.0509 10.9418 10.9172 11.1424 8.00911C11.1424 8.00911 11.2092 5.66928 8.66885 5.03418H6.19531V8.57735H6.22874Z" fill="white"/>
<path d="M7.4323 6.23828H8.46851C8.46851 6.23828 9.90584 6.60597 9.93926 7.87616C9.93926 7.87616 10.1732 9.4472 8.40166 9.81488H5.62728V14.6951H4.99219V6.23828H7.4323Z" fill="white"/>
<path fill-rule="evenodd" clip-rule="evenodd" d="M8.96946 8.57761C8.7689 8.77817 8.43464 8.97873 8.0001 8.9453C6.99732 8.91188 6.42907 7.80881 6.93046 6.97316C6.96389 6.9063 7.03074 6.83945 7.06417 6.7726C7.13102 6.70575 7.16445 6.67232 7.2313 6.60547C7.13102 6.60547 6.99732 6.70575 6.93046 6.73917C6.66305 6.9063 6.42907 7.20714 6.32879 7.50798C5.89425 8.84502 7.49871 9.91466 8.56835 9.04558C8.70205 9.01215 8.93603 8.74474 8.96946 8.57761Z" fill="#1B573E"/>
<path fill-rule="evenodd" clip-rule="evenodd" d="M7.96797 7.34124L7.5 7.54179L7.96797 7.64207L8.03482 8.17689L8.30223 7.74235L8.80362 7.84263L8.46936 7.47494L8.73677 7.00697L8.23537 7.20753L7.90111 6.83984L7.96797 7.34124Z" fill="#1B573E"/>
</svg>
