<svg width="80" height="21" viewBox="0 0 80 21" fill="none" xmlns="http://www.w3.org/2000/svg">
<rect width="80" height="20" transform="translate(0 1)" fill="#73A7D0"/>
<path d="M6.99997 8L7.74164 10.2751L10 10.2918L8.19998 11.7583L8.85409 14L6.99997 12.6751L5.14585 14L5.79996 11.7583L4 10.2918L6.25836 10.2751L6.99997 8Z" fill="white"/>
<path d="M14.864 15.5V7.7H19.952V9.428H16.928V10.916H19.52V12.644H16.928V15.5H14.864ZM21.2976 15.5V7.7H26.3376V9.428H23.3616V10.652H25.9056V12.38H23.3616V13.772H26.4576V15.5H21.2976ZM29.9816 11.708L29.8496 12.248H31.2896L31.1576 11.708C30.9656 10.964 30.7736 10.016 30.5816 9.236H30.5336C30.3656 10.028 30.1736 10.964 29.9816 11.708ZM26.9816 15.5L29.3576 7.7H31.8536L34.2296 15.5H32.0456L31.6616 13.844H29.4776L29.0936 15.5H26.9816ZM35.5004 15.5V9.428H33.4364V7.7H39.6284V9.428H37.5644V15.5H35.5004ZM43.9779 15.644C41.7939 15.644 40.7379 14.396 40.7379 11.732V7.7H42.8019V11.972C42.8019 13.364 43.1619 13.868 43.9779 13.868C44.7939 13.868 45.1779 13.364 45.1779 11.972V7.7H47.1699V11.732C47.1699 14.396 46.1619 15.644 43.9779 15.644ZM48.8484 15.5V7.7H51.8004C53.4804 7.7 54.9204 8.276 54.9204 10.22C54.9204 11.336 54.4164 12.068 53.6604 12.476L55.3524 15.5H53.0484L51.7044 12.884H50.9124V15.5H48.8484ZM50.9124 11.252H51.6564C52.4724 11.252 52.9044 10.892 52.9044 10.22C52.9044 9.548 52.4724 9.332 51.6564 9.332H50.9124V11.252ZM56.407 15.5V7.7H61.447V9.428H58.471V10.652H61.015V12.38H58.471V13.772H61.567V15.5H56.407ZM63.0749 15.5V7.7H65.3789C67.7549 7.7 69.3869 8.804 69.3869 11.564C69.3869 14.324 67.7549 15.5 65.4989 15.5H63.0749ZM65.1389 13.844H65.2589C66.3869 13.844 67.2749 13.388 67.2749 11.564C67.2749 9.74 66.3869 9.356 65.2589 9.356H65.1389V13.844Z" fill="white"/>
<path d="M0 1L6 -1V1H0Z" fill="url(#paint0_linear_9500_152270)"/>
<defs>
<linearGradient id="paint0_linear_9500_152270" x1="10.6534" y1="0.424661" x2="4.08406" y2="9.29457" gradientUnits="userSpaceOnUse">
<stop stop-color="#DFF2FF"/>
<stop offset="0.295134" stop-color="#73A7D0"/>
<stop offset="0.57639" stop-color="#A491EF"/>
<stop offset="1" stop-color="#302E6D"/>
</linearGradient>
</defs>
</svg>
