<svg width="288" height="308" viewBox="0 0 288 308" fill="none" xmlns="http://www.w3.org/2000/svg">
<g clip-path="url(#clip0_5822_139635)">
<g opacity="0.2">
<mask id="mask0_5822_139635" style="mask-type:luminance" maskUnits="userSpaceOnUse" x="-174" y="0" width="462" height="308">
<path d="M-174 0H288V308H-174V0Z" fill="white"/>
</mask>
<g mask="url(#mask0_5822_139635)">
<path d="M85.5659 118.763H86.3359V119.533H85.5659V118.763Z" fill="#999999"/>
<path d="M85.5659 109.727H86.3359V110.497H85.5659V109.727Z" fill="#B3B3B3"/>
<path d="M85.5659 100.69H86.3359V101.46H85.5659V100.69Z" fill="#999999"/>
<path d="M85.5659 91.6543H86.3359V92.4243H85.5659V91.6543Z" fill="#808080"/>
<path d="M85.5659 82.6182H86.3359V83.3882H85.5659V82.6182Z" fill="#E6E6E6"/>
<path d="M85.5659 73.582H86.3359V74.352H85.5659V73.582Z" fill="#F2F2F2"/>
<path d="M85.5659 64.5459H86.3359V65.3159H85.5659V64.5459Z" fill="#CCCCCC"/>
<path d="M85.5659 55.5088H86.3359V56.2788H85.5659V55.5088Z" fill="#999999"/>
<path d="M85.5659 46.4727H86.3359V47.2427H85.5659V46.4727Z" fill="#B3B3B3"/>
<path d="M85.5659 37.4365H86.3359V38.2065H85.5659V37.4365Z" fill="#808080"/>
<path d="M85.5659 28.4004H86.3359V29.1704H85.5659V28.4004Z" fill="#999999"/>
<path d="M85.5659 19.3643H86.3359V20.1343H85.5659V19.3643Z" fill="#B3B3B3"/>
<path d="M85.5659 10.3281H86.3359V11.0981H85.5659V10.3281Z" fill="#808080"/>
<path d="M85.5659 1.29199H86.3359V2.06199H85.5659V1.29199Z" fill="#E6E6E6"/>
<path d="M95.1597 118.763H95.9297V119.533H95.1597V118.763Z" fill="#B3B3B3"/>
<path d="M95.1497 109.714H95.9453V110.509H95.1497V109.714Z" fill="#808080"/>
<path d="M95.1322 100.665H95.9531V101.486H95.1322V100.665Z" fill="#B3B3B3"/>
<path d="M95.1224 91.6162H95.9688V92.4626H95.1224V91.6162Z" fill="#E6E6E6"/>
<path d="M95.1124 82.5674H95.9844V83.4393H95.1124V82.5674Z" fill="#999999"/>
<path d="M95.0948 73.5176H95.9922V74.4149H95.0948V73.5176Z" fill="#F2F2F2"/>
<path d="M95.0849 64.4688H96.0078V65.3917H95.0849V64.4688Z" fill="#808080"/>
<path d="M95.0673 55.4199H96.0156V56.3683H95.0673V55.4199Z" fill="#E6E6E6"/>
<path d="M95.0574 46.3711H96.0312V47.345H95.0574V46.3711Z" fill="#808080"/>
<path d="M95.0476 37.3223H96.0469V38.3216H95.0476V37.3223Z" fill="#CCCCCC"/>
<path d="M95.03 28.2734H96.0547V29.2982H95.03V28.2734Z" fill="#CCCCCC"/>
<path d="M95.02 19.2246H96.0703V20.2749H95.02V19.2246Z" fill="#B3B3B3"/>
<path d="M95.0102 10.1758H96.0859V11.2515H95.0102V10.1758Z" fill="#F2F2F2"/>
<path d="M94.9925 1.12695H96.0938V2.22821H94.9925V1.12695Z" fill="#CCCCCC"/>
<path d="M104.761 118.763H105.531V119.533H104.761V118.763Z" fill="#F2F2F2"/>
<path d="M104.734 109.701H105.555V110.522H104.734V109.701Z" fill="#B3B3B3"/>
<path d="M104.706 100.64H105.578V101.512H104.706V100.64Z" fill="#E6E6E6"/>
<path d="M104.686 91.5781H105.609V92.5011H104.686V91.5781Z" fill="#E6E6E6"/>
<path d="M104.659 82.5156H105.633V83.4895H104.659V82.5156Z" fill="#999999"/>
<path d="M104.632 73.4541H105.656V74.4788H104.632V73.4541Z" fill="#F2F2F2"/>
<path d="M104.612 64.3926H105.688V65.4683H104.612V64.3926Z" fill="#999999"/>
<path d="M104.584 55.3311H105.711V56.4577H104.584V55.3311Z" fill="#F2F2F2"/>
<path d="M104.557 46.2695H105.734V47.4472H104.557V46.2695Z" fill="#F2F2F2"/>
<path d="M104.529 37.208H105.758V38.4366H104.529V37.208Z" fill="#CCCCCC"/>
<path d="M104.509 28.1455H105.789V29.4251H104.509V28.1455Z" fill="#CCCCCC"/>
<path d="M104.482 19.084H105.812V20.4145H104.482V19.084Z" fill="#808080"/>
<path d="M104.454 10.0225H105.836V11.404H104.454V10.0225Z" fill="#808080"/>
<path d="M104.427 0.960938H105.859V2.39329H104.427V0.960938Z" fill="#E6E6E6"/>
<path d="M114.371 118.763H115.141V119.533H114.371V118.763Z" fill="#F2F2F2"/>
<path d="M114.333 109.688H115.18V110.535H114.333V109.688Z" fill="#808080"/>
<path d="M114.296 100.614H115.219V101.537H114.296V100.614Z" fill="#E6E6E6"/>
<path d="M114.259 91.5391H115.258V92.5384H114.259V91.5391Z" fill="#F2F2F2"/>
<path d="M114.213 82.4648H115.289V83.5405H114.213V82.4648Z" fill="#E6E6E6"/>
<path d="M114.176 73.3906H115.328V74.5429H114.176V73.3906Z" fill="#808080"/>
<path d="M114.139 64.3164H115.367V65.545H114.139V64.3164Z" fill="#999999"/>
<path d="M114.101 55.2422H115.406V56.5472H114.101V55.2422Z" fill="#999999"/>
<path d="M114.064 46.167H115.445V47.5485H114.064V46.167Z" fill="#808080"/>
<path d="M114.026 37.0928H115.484V38.5507H114.026V37.0928Z" fill="#B3B3B3"/>
<path d="M113.989 28.0186H115.523V29.5529H113.989V28.0186Z" fill="#F2F2F2"/>
<path d="M113.952 18.9443H115.562V20.5552H113.952V18.9443Z" fill="#E6E6E6"/>
<path d="M113.914 9.87012H115.602V11.5573H113.914V9.87012Z" fill="#F2F2F2"/>
<path d="M113.869 0.795898H115.633V2.55951H113.869V0.795898Z" fill="#F2F2F2"/>
<path d="M123.964 118.763H124.734V119.533H123.964V118.763Z" fill="#B3B3B3"/>
<path d="M123.909 109.676H124.781V110.548H123.909V109.676Z" fill="#E6E6E6"/>
<path d="M123.862 100.588H124.836V101.562H123.862V100.588Z" fill="#E6E6E6"/>
<path d="M123.807 91.501H124.883V92.5767H123.807V91.501Z" fill="#CCCCCC"/>
<path d="M123.76 82.4141H124.938V83.5917H123.76V82.4141Z" fill="#B3B3B3"/>
<path d="M123.713 73.3271H124.992V74.6067H123.713V73.3271Z" fill="#CCCCCC"/>
<path d="M123.658 64.2393H125.039V65.6208H123.658V64.2393Z" fill="#999999"/>
<path d="M123.603 55.1523H125.086V56.6357H123.603V55.1523Z" fill="#CCCCCC"/>
<path d="M123.555 46.0654H125.141V47.6507H123.555V46.0654Z" fill="#E6E6E6"/>
<path d="M123.508 36.9785H125.195V38.6657H123.508V36.9785Z" fill="#B3B3B3"/>
<path d="M123.453 27.8916H125.242V29.6808H123.453V27.8916Z" fill="#B3B3B3"/>
<path d="M123.406 18.8037H125.297V20.6947H123.406V18.8037Z" fill="#808080"/>
<path d="M123.351 9.7168H125.344V11.7097H123.351V9.7168Z" fill="#999999"/>
<path d="M123.304 0.629883H125.398V2.72474H123.304V0.629883Z" fill="#B3B3B3"/>
<path d="M133.566 118.763H134.336V119.533H133.566V118.763Z" fill="#B3B3B3"/>
<path d="M133.501 109.663H134.398V110.56H133.501V109.663Z" fill="#E6E6E6"/>
<path d="M133.436 100.562H134.461V101.587H133.436V100.562Z" fill="#E6E6E6"/>
<path d="M133.371 91.4629H134.523V92.6151H133.371V91.4629Z" fill="#E6E6E6"/>
<path d="M133.306 82.3633H134.586V83.6429H133.306V82.3633Z" fill="#E6E6E6"/>
<path d="M133.249 73.2637H134.656V74.6706H133.249V73.2637Z" fill="#808080"/>
<path d="M133.184 64.1631H134.719V65.6974H133.184V64.1631Z" fill="#F2F2F2"/>
<path d="M133.119 55.0635H134.781V56.7251H133.119V55.0635Z" fill="#808080"/>
<path d="M133.055 45.9639H134.844V47.753H133.055V45.9639Z" fill="#808080"/>
<path d="M132.99 36.8643H134.906V38.7808H132.99V36.8643Z" fill="#F2F2F2"/>
<path d="M132.925 27.7637H134.969V29.8076H132.925V27.7637Z" fill="#E6E6E6"/>
<path d="M132.86 18.6641H135.031V20.8353H132.86V18.6641Z" fill="#808080"/>
<path d="M132.803 9.56445H135.102V11.8632H132.803V9.56445Z" fill="#E6E6E6"/>
<path d="M132.738 0.463867H135.164V2.88998H132.738V0.463867Z" fill="#CCCCCC"/>
<path d="M143.175 118.763H143.945V119.533H143.175V118.763Z" fill="#E6E6E6"/>
<path d="M143.101 109.65H144.023V110.573H143.101V109.65Z" fill="#F2F2F2"/>
<path d="M143.018 100.537H144.094V101.613H143.018V100.537Z" fill="#CCCCCC"/>
<path d="M142.943 91.4248H144.172V92.6534H142.943V91.4248Z" fill="#808080"/>
<path d="M142.868 82.3125H144.25V83.694H142.868V82.3125Z" fill="#CCCCCC"/>
<path d="M142.794 73.1992H144.328V74.7335H142.794V73.1992Z" fill="#999999"/>
<path d="M142.711 64.0869H144.398V65.7741H142.711V64.0869Z" fill="#999999"/>
<path d="M142.637 54.9746H144.477V56.8146H142.637V54.9746Z" fill="#999999"/>
<path d="M142.562 45.8613H144.555V47.8542H142.562V45.8613Z" fill="#808080"/>
<path d="M142.487 36.749H144.633V38.8949H142.487V36.749Z" fill="#E6E6E6"/>
<path d="M142.405 27.6367H144.703V29.9355H142.405V27.6367Z" fill="#B3B3B3"/>
<path d="M142.33 18.5234H144.781V20.975H142.33V18.5234Z" fill="#CCCCCC"/>
<path d="M142.255 9.41113H144.859V12.0156H142.255V9.41113Z" fill="#808080"/>
<path d="M142.18 0.298828H144.938V3.05604H142.18V0.298828Z" fill="#999999"/>
<path d="M152.761 118.763H153.531V119.533H152.761V118.763Z" fill="#E6E6E6"/>
<path d="M152.677 109.638H153.625V110.586H152.677V109.638Z" fill="#999999"/>
<path d="M152.584 100.512H153.711V101.638H152.584V100.512Z" fill="#E6E6E6"/>
<path d="M152.492 91.3867H153.797V92.6917H152.492V91.3867Z" fill="#E6E6E6"/>
<path d="M152.407 82.2607H153.891V83.7441H152.407V82.2607Z" fill="#E6E6E6"/>
<path d="M152.315 73.1357H153.977V74.7974H152.315V73.1357Z" fill="#999999"/>
<path d="M152.23 64.0107H154.07V65.8507H152.23V64.0107Z" fill="#999999"/>
<path d="M152.138 54.8848H154.156V56.9032H152.138V54.8848Z" fill="#B3B3B3"/>
<path d="M152.045 45.7598H154.242V47.9566H152.045V45.7598Z" fill="#F2F2F2"/>
<path d="M151.961 36.6348H154.336V39.0099H151.961V36.6348Z" fill="#808080"/>
<path d="M151.868 27.5088H154.422V30.0623H151.868V27.5088Z" fill="#E6E6E6"/>
<path d="M151.784 18.3838H154.516V21.1156H151.784V18.3838Z" fill="#999999"/>
<path d="M151.691 9.25879H154.602V12.1689H151.691V9.25879Z" fill="#B3B3B3"/>
<path d="M151.607 0.132812H154.695V3.22128H151.607V0.132812Z" fill="#999999"/>
<path d="M162.371 118.763H163.141V119.533H162.371V118.763Z" fill="#999999"/>
<path d="M162.268 109.624H163.242V110.598H162.268V109.624Z" fill="#E6E6E6"/>
<path d="M162.166 100.486H163.344V101.664H162.166V100.486Z" fill="#B3B3B3"/>
<path d="M162.064 91.3486H163.445V92.73H162.064V91.3486Z" fill="#999999"/>
<path d="M161.962 82.21H163.547V83.7952H161.962V82.21Z" fill="#CCCCCC"/>
<path d="M161.859 73.0723H163.648V74.8614H161.859V73.0723Z" fill="#F2F2F2"/>
<path d="M161.757 63.9336H163.75V65.9265H161.757V63.9336Z" fill="#999999"/>
<path d="M161.655 54.7959H163.852V56.9927H161.655V54.7959Z" fill="#F2F2F2"/>
<path d="M161.553 45.6582H163.953V48.0588H161.553V45.6582Z" fill="#F2F2F2"/>
<path d="M161.45 36.5195H164.055V39.124H161.45V36.5195Z" fill="#B3B3B3"/>
<path d="M161.348 27.3818H164.156V30.19H161.348V27.3818Z" fill="#E6E6E6"/>
<path d="M161.246 18.2432H164.258V21.2552H161.246V18.2432Z" fill="#B3B3B3"/>
<path d="M161.144 9.10547H164.359V12.3213H161.144V9.10547Z" fill="#F2F2F2"/>
<path d="M161.041 -0.0332031H164.461V3.38652H161.041V-0.0332031Z" fill="#B3B3B3"/>
<path d="M171.98 118.763H172.75V119.533H171.98V118.763Z" fill="#B3B3B3"/>
<path d="M171.86 109.611H172.859V110.611H171.86V109.611Z" fill="#B3B3B3"/>
<path d="M171.748 100.461H172.977V101.69H171.748V100.461Z" fill="#CCCCCC"/>
<path d="M171.636 91.3105H173.094V92.7685H171.636V91.3105Z" fill="#808080"/>
<path d="M171.516 82.1592H173.203V83.8464H171.516V82.1592Z" fill="#999999"/>
<path d="M171.404 73.0088H173.32V74.9253H171.404V73.0088Z" fill="#B3B3B3"/>
<path d="M171.292 63.8574H173.438V66.0033H171.292V63.8574Z" fill="#808080"/>
<path d="M171.172 54.707H173.547V57.0822H171.172V54.707Z" fill="#B3B3B3"/>
<path d="M171.06 45.5557H173.664V48.1601H171.06V45.5557Z" fill="#E6E6E6"/>
<path d="M170.947 36.4053H173.781V39.239H170.947V36.4053Z" fill="#F2F2F2"/>
<path d="M170.828 27.2539H173.891V30.317H170.828V27.2539Z" fill="#E6E6E6"/>
<path d="M170.715 18.1035H174.008V21.3959H170.715V18.1035Z" fill="#999999"/>
<path d="M170.603 8.95312H174.125V12.4748H170.603V8.95312Z" fill="#B3B3B3"/>
<path d="M170.483 -0.198242H174.234V3.55274H170.483V-0.198242Z" fill="#B3B3B3"/>
<path d="M181.574 118.763H182.344V119.533H181.574V118.763Z" fill="#CCCCCC"/>
<path d="M181.444 109.599H182.469V110.623H181.444V109.599Z" fill="#E6E6E6"/>
<path d="M181.322 100.436H182.602V101.715H181.322V100.436Z" fill="#E6E6E6"/>
<path d="M181.192 91.2715H182.727V92.8058H181.192V91.2715Z" fill="#999999"/>
<path d="M181.062 82.1084H182.852V83.8976H181.062V82.1084Z" fill="#E6E6E6"/>
<path d="M180.933 72.9443H182.977V74.9882H180.933V72.9443Z" fill="#CCCCCC"/>
<path d="M180.811 63.7812H183.109V66.08H180.811V63.7812Z" fill="#F2F2F2"/>
<path d="M180.681 54.6182H183.234V57.1716H180.681V54.6182Z" fill="#E6E6E6"/>
<path d="M180.551 45.4541H183.359V48.2623H180.551V45.4541Z" fill="#808080"/>
<path d="M180.429 36.29H183.492V39.3531H180.429V36.29Z" fill="#B3B3B3"/>
<path d="M180.299 27.127H183.617V30.4447H180.299V27.127Z" fill="#B3B3B3"/>
<path d="M180.17 17.9629H183.742V21.5355H180.17V17.9629Z" fill="#999999"/>
<path d="M180.048 8.7998H183.875V12.6272H180.048V8.7998Z" fill="#808080"/>
<path d="M179.918 -0.363281H184V3.7188H179.918V-0.363281Z" fill="#999999"/>
<path d="M191.175 118.763H191.945V119.533H191.175V118.763Z" fill="#999999"/>
<path d="M191.036 109.586H192.086V110.636H191.036V109.586Z" fill="#B3B3B3"/>
<path d="M190.896 100.41H192.227V101.741H190.896V100.41Z" fill="#808080"/>
<path d="M190.757 91.2334H192.367V92.8442H190.757V91.2334Z" fill="#CCCCCC"/>
<path d="M190.617 82.0576H192.508V83.9486H190.617V82.0576Z" fill="#808080"/>
<path d="M190.477 72.8809H192.648V75.0521H190.477V72.8809Z" fill="#999999"/>
<path d="M190.338 63.7051H192.789V66.1566H190.338V63.7051Z" fill="#B3B3B3"/>
<path d="M190.198 54.5283H192.93V57.2601H190.198V54.5283Z" fill="#B3B3B3"/>
<path d="M190.058 45.3525H193.07V48.3646H190.058V45.3525Z" fill="#CCCCCC"/>
<path d="M189.919 36.1758H193.211V39.4681H189.919V36.1758Z" fill="#B3B3B3"/>
<path d="M189.779 26.999H193.352V30.5715H189.779V26.999Z" fill="#B3B3B3"/>
<path d="M189.639 17.8232H193.492V21.676H189.639V17.8232Z" fill="#CCCCCC"/>
<path d="M189.5 8.64648H193.633V12.7795H189.5V8.64648Z" fill="#999999"/>
<path d="M189.36 -0.529297H193.773V3.88404H189.36V-0.529297Z" fill="#999999"/>
<path d="M200.769 118.763H201.539V119.533H200.769V118.763Z" fill="#B3B3B3"/>
<path d="M200.612 109.573H201.688V110.649H200.612V109.573Z" fill="#B3B3B3"/>
<path d="M200.462 100.385H201.844V101.766H200.462V100.385Z" fill="#E6E6E6"/>
<path d="M200.313 91.1953H202V92.8825H200.313V91.1953Z" fill="#CCCCCC"/>
<path d="M200.156 82.0068H202.148V83.9998H200.156V82.0068Z" fill="#808080"/>
<path d="M200.006 72.8174H202.305V75.116H200.006V72.8174Z" fill="#B3B3B3"/>
<path d="M199.849 63.6279H202.453V66.2324H199.849V63.6279Z" fill="#B3B3B3"/>
<path d="M199.699 54.4395H202.609V57.3496H199.699V54.4395Z" fill="#CCCCCC"/>
<path d="M199.542 45.25H202.758V48.4658H199.542V45.25Z" fill="#B3B3B3"/>
<path d="M199.392 36.0605H202.914V39.5822H199.392V36.0605Z" fill="#808080"/>
<path d="M199.243 26.8721H203.07V30.6994H199.243V26.8721Z" fill="#CCCCCC"/>
<path d="M199.086 17.6826H203.219V21.8157H199.086V17.6826Z" fill="#B3B3B3"/>
<path d="M198.936 8.49414H203.375V12.9329H198.936V8.49414Z" fill="#CCCCCC"/>
<path d="M198.779 -0.695312H203.523V4.04927H198.779V-0.695312Z" fill="#B3B3B3"/>
<path d="M210.378 118.763H211.148V119.533H210.378V118.763Z" fill="#E6E6E6"/>
<path d="M210.211 109.561H211.312V110.662H210.211V109.561Z" fill="#808080"/>
<path d="M210.044 100.359H211.477V101.792H210.044V100.359Z" fill="#808080"/>
<path d="M209.877 91.1572H211.641V92.9208H209.877V91.1572Z" fill="#808080"/>
<path d="M209.718 81.9551H211.812V84.0499H209.718V81.9551Z" fill="#CCCCCC"/>
<path d="M209.55 72.7539H211.977V75.18H209.55V72.7539Z" fill="#F2F2F2"/>
<path d="M209.383 63.5518H212.141V66.309H209.383V63.5518Z" fill="#999999"/>
<path d="M209.216 54.3506H212.305V57.4391H209.216V54.3506Z" fill="#F2F2F2"/>
<path d="M209.049 45.1484H212.469V48.5682H209.049V45.1484Z" fill="#CCCCCC"/>
<path d="M208.89 35.9463H212.641V39.6973H208.89V35.9463Z" fill="#B3B3B3"/>
<path d="M208.723 26.7451H212.805V30.8272H208.723V26.7451Z" fill="#808080"/>
<path d="M208.555 17.543H212.969V21.9563H208.555V17.543Z" fill="#E6E6E6"/>
<path d="M208.388 8.34082H213.133V13.0854H208.388V8.34082Z" fill="#CCCCCC"/>
<path d="M208.221 -0.860352H213.297V4.21549H208.221V-0.860352Z" fill="#CCCCCC"/>
<path d="M219.98 118.763H220.75V119.533H219.98V118.763Z" fill="#E6E6E6"/>
<path d="M219.803 109.548H220.93V110.675H219.803V109.548Z" fill="#CCCCCC"/>
<path d="M219.618 100.334H221.102V101.817H219.618V100.334Z" fill="#999999"/>
<path d="M219.441 91.1191H221.281V92.9591H219.441V91.1191Z" fill="#B3B3B3"/>
<path d="M219.264 81.9043H221.461V84.1011H219.264V81.9043Z" fill="#F2F2F2"/>
<path d="M219.087 72.6904H221.641V75.2439H219.087V72.6904Z" fill="#B3B3B3"/>
<path d="M218.91 63.4756H221.82V66.3857H218.91V63.4756Z" fill="#808080"/>
<path d="M218.733 54.2607H222V57.5275H218.733V54.2607Z" fill="#E6E6E6"/>
<path d="M218.548 45.0469H222.172V48.6703H218.548V45.0469Z" fill="#808080"/>
<path d="M218.371 35.832H222.352V39.8123H218.371V35.832Z" fill="#F2F2F2"/>
<path d="M218.194 26.6172H222.531V30.9541H218.194V26.6172Z" fill="#808080"/>
<path d="M218.017 17.4023H222.711V22.096H218.017V17.4023Z" fill="#999999"/>
<path d="M217.84 8.18848H222.891V13.2388H217.84V8.18848Z" fill="#B3B3B3"/>
<path d="M217.656 -1.02637H223.062V4.38057H217.656V-1.02637Z" fill="#999999"/>
<path d="M229.574 118.763H230.344V119.533H229.574V118.763Z" fill="#B3B3B3"/>
<path d="M229.379 109.535H230.531V110.687H229.379V109.535Z" fill="#CCCCCC"/>
<path d="M229.192 100.308H230.727V101.842H229.192V100.308Z" fill="#999999"/>
<path d="M228.998 91.0811H230.914V92.9976H228.998V91.0811Z" fill="#CCCCCC"/>
<path d="M228.811 81.8535H231.109V84.1523H228.811V81.8535Z" fill="#808080"/>
<path d="M228.616 72.626H231.297V75.3068H228.616V72.626Z" fill="#808080"/>
<path d="M228.429 63.3994H231.492V66.4625H228.429V63.3994Z" fill="#B3B3B3"/>
<path d="M228.235 54.1719H231.68V57.617H228.235V54.1719Z" fill="#808080"/>
<path d="M228.04 44.9443H231.867V48.7717H228.04V44.9443Z" fill="#E6E6E6"/>
<path d="M227.853 35.7168H232.062V39.9262H227.853V35.7168Z" fill="#808080"/>
<path d="M227.658 26.4902H232.25V31.0819H227.658V26.4902Z" fill="#F2F2F2"/>
<path d="M227.471 17.2627H232.445V22.2366H227.471V17.2627Z" fill="#808080"/>
<path d="M227.277 8.03516H232.633V13.3911H227.277V8.03516Z" fill="#B3B3B3"/>
<path d="M227.09 -1.19141H232.828V4.54679H227.09V-1.19141Z" fill="#CCCCCC"/>
<path d="M239.183 118.763H239.953V119.533H239.183V118.763Z" fill="#F2F2F2"/>
<path d="M238.979 109.522H240.156V110.7H238.979V109.522Z" fill="#E6E6E6"/>
<path d="M238.774 100.282H240.359V101.868H238.774V100.282Z" fill="#808080"/>
<path d="M238.57 91.042H240.562V93.0349H238.57V91.042Z" fill="#F2F2F2"/>
<path d="M238.365 81.8027H240.766V84.2033H238.365V81.8027Z" fill="#CCCCCC"/>
<path d="M238.161 72.5625H240.969V75.3707H238.161V72.5625Z" fill="#999999"/>
<path d="M237.956 63.3223H241.172V66.5381H237.956V63.3223Z" fill="#999999"/>
<path d="M237.752 54.082H241.375V57.7055H237.752V54.082Z" fill="#808080"/>
<path d="M237.547 44.8428H241.578V48.8739H237.547V44.8428Z" fill="#B3B3B3"/>
<path d="M237.343 35.6025H241.781V40.0413H237.343V35.6025Z" fill="#999999"/>
<path d="M237.146 26.3623H241.992V31.2088H237.146V26.3623Z" fill="#CCCCCC"/>
<path d="M236.941 17.1221H242.195V22.3762H236.941V17.1221Z" fill="#CCCCCC"/>
<path d="M236.737 7.88281H242.398V13.5446H236.737V7.88281Z" fill="#B3B3B3"/>
<path d="M236.532 -1.35742H242.602V4.71203H236.532V-1.35742Z" fill="#999999"/>
<path d="M248.777 118.763H249.547V119.533H248.777V118.763Z" fill="#F2F2F2"/>
<path d="M248.582 109.535H249.734V110.687H248.582V109.535Z" fill="#E6E6E6"/>
<path d="M248.395 100.308H249.93V101.842H248.395V100.308Z" fill="#808080"/>
<path d="M248.201 91.0811H250.117V92.9976H248.201V91.0811Z" fill="#E6E6E6"/>
<path d="M248.014 81.8535H250.312V84.1523H248.014V81.8535Z" fill="#B3B3B3"/>
<path d="M247.819 72.626H250.5V75.3068H247.819V72.626Z" fill="#999999"/>
<path d="M247.632 63.3994H250.695V66.4625H247.632V63.3994Z" fill="#E6E6E6"/>
<path d="M247.438 54.1719H250.883V57.617H247.438V54.1719Z" fill="#E6E6E6"/>
<path d="M247.243 44.9443H251.07V48.7717H247.243V44.9443Z" fill="#B3B3B3"/>
<path d="M247.056 35.7168H251.266V39.9262H247.056V35.7168Z" fill="#808080"/>
<path d="M246.861 26.4902H251.453V31.0819H246.861V26.4902Z" fill="#999999"/>
<path d="M246.675 17.2627H251.648V22.2366H246.675V17.2627Z" fill="#CCCCCC"/>
<path d="M246.48 8.03516H251.836V13.3911H246.48V8.03516Z" fill="#E6E6E6"/>
<path d="M246.293 -1.19141H252.031V4.54679H246.293V-1.19141Z" fill="#999999"/>
<path d="M258.378 118.763H259.148V119.533H258.378V118.763Z" fill="#CCCCCC"/>
<path d="M258.194 109.548H259.32V110.675H258.194V109.548Z" fill="#CCCCCC"/>
<path d="M258.017 100.334H259.5V101.817H258.017V100.334Z" fill="#808080"/>
<path d="M257.84 91.1191H259.68V92.9591H257.84V91.1191Z" fill="#999999"/>
<path d="M257.663 81.9043H259.859V84.1011H257.663V81.9043Z" fill="#999999"/>
<path d="M257.486 72.6904H260.039V75.2439H257.486V72.6904Z" fill="#E6E6E6"/>
<path d="M257.309 63.4756H260.219V66.3857H257.309V63.4756Z" fill="#B3B3B3"/>
<path d="M257.132 54.2607H260.398V57.5275H257.132V54.2607Z" fill="#E6E6E6"/>
<path d="M256.947 45.0469H260.57V48.6703H256.947V45.0469Z" fill="#999999"/>
<path d="M256.77 35.832H260.75V39.8123H256.77V35.832Z" fill="#CCCCCC"/>
<path d="M256.593 26.6172H260.93V30.9541H256.593V26.6172Z" fill="#808080"/>
<path d="M256.416 17.4023H261.109V22.096H256.416V17.4023Z" fill="#E6E6E6"/>
<path d="M256.239 8.18848H261.289V13.2388H256.239V8.18848Z" fill="#999999"/>
<path d="M256.054 -1.02637H261.461V4.38057H256.054V-1.02637Z" fill="#E6E6E6"/>
<path d="M267.98 118.763H268.75V119.533H267.98V118.763Z" fill="#CCCCCC"/>
<path d="M267.821 109.561H268.922V110.662H267.821V109.561Z" fill="#F2F2F2"/>
<path d="M267.654 100.359H269.086V101.792H267.654V100.359Z" fill="#E6E6E6"/>
<path d="M267.486 91.1572H269.25V92.9208H267.486V91.1572Z" fill="#F2F2F2"/>
<path d="M267.319 81.9551H269.414V84.0499H267.319V81.9551Z" fill="#808080"/>
<path d="M267.152 72.7539H269.578V75.18H267.152V72.7539Z" fill="#999999"/>
<path d="M266.993 63.5518H269.75V66.309H266.993V63.5518Z" fill="#999999"/>
<path d="M266.826 54.3506H269.914V57.4391H266.826V54.3506Z" fill="#B3B3B3"/>
<path d="M266.658 45.1484H270.078V48.5682H266.658V45.1484Z" fill="#E6E6E6"/>
<path d="M266.491 35.9463H270.242V39.6973H266.491V35.9463Z" fill="#E6E6E6"/>
<path d="M266.324 26.7451H270.406V30.8272H266.324V26.7451Z" fill="#808080"/>
<path d="M266.157 17.543H270.57V21.9563H266.157V17.543Z" fill="#CCCCCC"/>
<path d="M265.998 8.34082H270.742V13.0854H265.998V8.34082Z" fill="#E6E6E6"/>
<path d="M265.831 -0.860352H270.906V4.21549H265.831V-0.860352Z" fill="#808080"/>
<path d="M277.582 118.763H278.352V119.533H277.582V118.763Z" fill="#B3B3B3"/>
<path d="M277.432 109.573H278.508V110.649H277.432V109.573Z" fill="#CCCCCC"/>
<path d="M277.275 100.385H278.656V101.766H277.275V100.385Z" fill="#999999"/>
<path d="M277.125 91.1953H278.812V92.8825H277.125V91.1953Z" fill="#F2F2F2"/>
<path d="M276.968 82.0068H278.961V83.9998H276.968V82.0068Z" fill="#808080"/>
<path d="M276.818 72.8174H279.117V75.116H276.818V72.8174Z" fill="#808080"/>
<path d="M276.661 63.6279H279.266V66.2324H276.661V63.6279Z" fill="#808080"/>
<path d="M276.512 54.4395H279.422V57.3496H276.512V54.4395Z" fill="#808080"/>
<path d="M276.362 45.25H279.578V48.4658H276.362V45.25Z" fill="#CCCCCC"/>
<path d="M276.205 36.0605H279.727V39.5822H276.205V36.0605Z" fill="#B3B3B3"/>
<path d="M276.055 26.8721H279.883V30.6994H276.055V26.8721Z" fill="#CCCCCC"/>
<path d="M275.898 17.6826H280.031V21.8157H275.898V17.6826Z" fill="#F2F2F2"/>
<path d="M275.749 8.49414H280.188V12.9329H275.749V8.49414Z" fill="#CCCCCC"/>
<path d="M275.599 -0.695312H280.344V4.04927H275.599V-0.695312Z" fill="#B3B3B3"/>
<path d="M287.183 118.763H287.953V119.533H287.183V118.763Z" fill="#CCCCCC"/>
<path d="M287.043 109.586H288.094V110.636H287.043V109.586Z" fill="#E6E6E6"/>
<path d="M286.904 100.41H288.234V101.741H286.904V100.41Z" fill="#CCCCCC"/>
<path d="M286.764 91.2334H288.375V92.8442H286.764V91.2334Z" fill="#808080"/>
<path d="M286.625 82.0576H288.516V83.9486H286.625V82.0576Z" fill="#CCCCCC"/>
<path d="M286.485 72.8809H288.656V75.0521H286.485V72.8809Z" fill="#808080"/>
<path d="M286.345 63.7051H288.797V66.1566H286.345V63.7051Z" fill="#E6E6E6"/>
<path d="M286.206 54.5283H288.938V57.2601H286.206V54.5283Z" fill="#CCCCCC"/>
<path d="M286.066 45.3525H289.078V48.3646H286.066V45.3525Z" fill="#B3B3B3"/>
<path d="M285.926 36.1758H289.219V39.4681H285.926V36.1758Z" fill="#E6E6E6"/>
<path d="M285.787 26.999H289.359V30.5715H285.787V26.999Z" fill="#999999"/>
<path d="M285.647 17.8232H289.5V21.676H285.647V17.8232Z" fill="#808080"/>
<path d="M285.508 8.64648H289.641V12.7795H285.508V8.64648Z" fill="#F2F2F2"/>
<path d="M285.36 -0.529297H289.773V3.88404H285.36V-0.529297Z" fill="#F2F2F2"/>
<path d="M-2.06817 307.198H1.35156V310.618H-2.06817V307.198Z" fill="#F2F2F2"/>
<path d="M-2.17035 298.061H1.45312V301.684H-2.17035V298.061Z" fill="#808080"/>
<path d="M-2.27268 288.923H1.55469V292.75H-2.27268V288.923Z" fill="#B3B3B3"/>
<path d="M-2.37486 279.784H1.65625V283.815H-2.37486V279.784Z" fill="#F2F2F2"/>
<path d="M-2.47719 270.646H1.75781V274.881H-2.47719V270.646Z" fill="#999999"/>
<path d="M-2.37486 261.712H1.65625V265.743H-2.37486V261.712Z" fill="#CCCCCC"/>
<path d="M-2.27268 252.777H1.55469V256.605H-2.27268V252.777Z" fill="#808080"/>
<path d="M-2.17035 243.844H1.45312V247.467H-2.17035V243.844Z" fill="#CCCCCC"/>
<path d="M-2.06817 234.909H1.35156V238.329H-2.06817V234.909Z" fill="#CCCCCC"/>
<path d="M-1.96582 225.975H1.25V229.19H-1.96582V225.975Z" fill="#CCCCCC"/>
<path d="M-1.86364 217.041H1.14844V220.053H-1.86364V217.041Z" fill="#E6E6E6"/>
<path d="M-1.76131 208.106H1.04688V210.915H-1.76131V208.106Z" fill="#999999"/>
<path d="M-1.65913 199.172H0.945312V201.776H-1.65913V199.172Z" fill="#F2F2F2"/>
<path d="M-1.5568 190.238H0.84375V192.639H-1.5568V190.238Z" fill="#999999"/>
<path d="M-1.45462 181.304H0.742188V183.501H-1.45462V181.304Z" fill="#CCCCCC"/>
<path d="M-1.35229 172.369H0.640625V174.362H-1.35229V172.369Z" fill="#F2F2F2"/>
<path d="M-1.25012 163.436H0.539062V165.225H-1.25012V163.436Z" fill="#999999"/>
<path d="M-1.14777 154.501H0.4375V156.086H-1.14777V154.501Z" fill="#808080"/>
<path d="M-1.04559 145.566H0.335938V146.948H-1.04559V145.566Z" fill="#F2F2F2"/>
<path d="M-0.951072 136.633H0.226562V137.81H-0.951072V136.633Z" fill="#808080"/>
<path d="M-0.848892 127.698H0.125V128.672H-0.848892V127.698Z" fill="#E6E6E6"/>
<path d="M-0.746562 118.764H0.0234375V119.534H-0.746562V118.764Z" fill="#999999"/>
<path d="M7.35841 307.033H11.1094V310.784H7.35841V307.033Z" fill="#E6E6E6"/>
<path d="M7.24629 297.882H11.2266V301.862H7.24629V297.882Z" fill="#CCCCCC"/>
<path d="M7.1265 288.731H11.3359V292.941H7.1265V288.731Z" fill="#CCCCCC"/>
<path d="M7.01438 279.58H11.4531V284.019H7.01438V279.58Z" fill="#CCCCCC"/>
<path d="M6.90211 270.43H11.5703V275.098H6.90211V270.43Z" fill="#999999"/>
<path d="M7.01438 261.508H11.4531V265.947H7.01438V261.508Z" fill="#B3B3B3"/>
<path d="M7.1265 252.587H11.3359V256.796H7.1265V252.587Z" fill="#F2F2F2"/>
<path d="M7.24629 243.665H11.2266V247.645H7.24629V243.665Z" fill="#CCCCCC"/>
<path d="M7.35841 234.744H11.1094V238.495H7.35841V234.744Z" fill="#808080"/>
<path d="M7.47832 225.822H11V229.344H7.47832V225.822Z" fill="#E6E6E6"/>
<path d="M7.59044 216.9H10.8828V220.193H7.59044V216.9Z" fill="#F2F2F2"/>
<path d="M7.70256 207.979H10.7656V211.043H7.70256V207.979Z" fill="#B3B3B3"/>
<path d="M7.8225 199.058H10.6562V201.891H7.8225V199.058Z" fill="#F2F2F2"/>
<path d="M7.93462 190.136H10.5391V192.74H7.93462V190.136Z" fill="#999999"/>
<path d="M8.04674 181.215H10.4219V183.59H8.04674V181.215Z" fill="#B3B3B3"/>
<path d="M8.16667 172.293H10.3125V174.439H8.16667V172.293Z" fill="#E6E6E6"/>
<path d="M8.27879 163.371H10.1953V165.288H8.27879V163.371Z" fill="#B3B3B3"/>
<path d="M8.39089 154.45H10.0781V156.137H8.39089V154.45Z" fill="#F2F2F2"/>
<path d="M8.50301 145.528H9.96094V146.986H8.50301V145.528Z" fill="#808080"/>
<path d="M8.62295 136.606H9.85156V137.835H8.62295V136.606Z" fill="#F2F2F2"/>
<path d="M8.73507 127.686H9.73438V128.685H8.73507V127.686Z" fill="#CCCCCC"/>
<path d="M8.84719 118.764H9.61719V119.534H8.84719V118.764Z" fill="#F2F2F2"/>
<path d="M16.8007 306.867H20.8828V310.949H16.8007V306.867Z" fill="#E6E6E6"/>
<path d="M16.6787 297.704H21.0156V302.041H16.6787V297.704Z" fill="#CCCCCC"/>
<path d="M16.549 288.54H21.1406V293.132H16.549V288.54Z" fill="#999999"/>
<path d="M16.4191 279.377H21.2656V284.223H16.4191V279.377Z" fill="#E6E6E6"/>
<path d="M16.2972 270.213H21.3984V275.314H16.2972V270.213Z" fill="#E6E6E6"/>
<path d="M16.4191 261.305H21.2656V266.151H16.4191V261.305Z" fill="#F2F2F2"/>
<path d="M16.549 252.396H21.1406V256.987H16.549V252.396Z" fill="#999999"/>
<path d="M16.6787 243.486H21.0156V247.823H16.6787V243.486Z" fill="#B3B3B3"/>
<path d="M16.8007 234.578H20.8828V238.66H16.8007V234.578Z" fill="#808080"/>
<path d="M16.9304 225.669H20.7578V229.496H16.9304V225.669Z" fill="#808080"/>
<path d="M17.0602 216.761H20.6328V220.333H17.0602V216.761Z" fill="#999999"/>
<path d="M17.1822 207.852H20.5V211.169H17.1822V207.852Z" fill="#999999"/>
<path d="M17.3119 198.943H20.375V202.006H17.3119V198.943Z" fill="#999999"/>
<path d="M17.4418 190.034H20.25V192.842H17.4418V190.034Z" fill="#F2F2F2"/>
<path d="M17.5637 181.125H20.1172V183.678H17.5637V181.125Z" fill="#808080"/>
<path d="M17.6936 172.217H19.9922V174.515H17.6936V172.217Z" fill="#999999"/>
<path d="M17.8233 163.308H19.8672V165.352H17.8233V163.308Z" fill="#CCCCCC"/>
<path d="M17.953 154.399H19.7422V156.189H17.953V154.399Z" fill="#F2F2F2"/>
<path d="M18.0751 145.49H19.6094V147.025H18.0751V145.49Z" fill="#808080"/>
<path d="M18.2048 136.581H19.4844V137.861H18.2048V136.581Z" fill="#F2F2F2"/>
<path d="M18.3347 127.673H19.3594V128.698H18.3347V127.673Z" fill="#F2F2F2"/>
<path d="M18.4566 118.764H19.2266V119.534H18.4566V118.764Z" fill="#808080"/>
<path d="M26.2351 306.702H30.6484V311.115H26.2351V306.702Z" fill="#999999"/>
<path d="M26.0954 297.525H30.7891V302.219H26.0954V297.525Z" fill="#808080"/>
<path d="M25.9558 288.35H30.9297V293.323H25.9558V288.35Z" fill="#E6E6E6"/>
<path d="M25.8162 279.173H31.0703V284.427H25.8162V279.173Z" fill="#999999"/>
<path d="M25.6765 269.997H31.2109V275.532H25.6765V269.997Z" fill="#808080"/>
<path d="M25.8162 261.101H31.0703V266.355H25.8162V261.101Z" fill="#F2F2F2"/>
<path d="M25.9558 252.204H30.9297V257.178H25.9558V252.204Z" fill="#999999"/>
<path d="M26.0954 243.309H30.7891V248.002H26.0954V243.309Z" fill="#808080"/>
<path d="M26.2351 234.412H30.6484V238.825H26.2351V234.412Z" fill="#CCCCCC"/>
<path d="M26.3826 225.517H30.5156V229.65H26.3826V225.517Z" fill="#E6E6E6"/>
<path d="M26.5222 216.62H30.375V220.473H26.5222V216.62Z" fill="#B3B3B3"/>
<path d="M26.6619 207.725H30.2344V211.297H26.6619V207.725Z" fill="#CCCCCC"/>
<path d="M26.8014 198.828H30.0938V202.12H26.8014V198.828Z" fill="#808080"/>
<path d="M26.941 189.933H29.9531V192.945H26.941V189.933Z" fill="#F2F2F2"/>
<path d="M27.0807 181.036H29.8125V183.768H27.0807V181.036Z" fill="#E6E6E6"/>
<path d="M27.2204 172.14H29.6719V174.591H27.2204V172.14Z" fill="#E6E6E6"/>
<path d="M27.36 163.244H29.5312V165.415H27.36V163.244Z" fill="#F2F2F2"/>
<path d="M27.4997 154.348H29.3906V156.239H27.4997V154.348Z" fill="#B3B3B3"/>
<path d="M27.6392 145.452H29.25V147.063H27.6392V145.452Z" fill="#F2F2F2"/>
<path d="M27.7788 136.556H29.1094V137.886H27.7788V136.556Z" fill="#B3B3B3"/>
<path d="M27.9185 127.66H28.9688V128.71H27.9185V127.66Z" fill="#CCCCCC"/>
<path d="M28.0581 118.764H28.8281V119.534H28.0581V118.764Z" fill="#F2F2F2"/>
<path d="M35.6695 306.536H40.4141V311.281H35.6695V306.536Z" fill="#B3B3B3"/>
<path d="M35.52 297.348H40.5703V302.398H35.52V297.348Z" fill="#999999"/>
<path d="M35.3628 288.158H40.7188V293.514H35.3628V288.158Z" fill="#808080"/>
<path d="M35.2132 278.969H40.875V284.631H35.2132V278.969Z" fill="#E6E6E6"/>
<path d="M35.0559 269.78H41.0234V275.748H35.0559V269.78Z" fill="#F2F2F2"/>
<path d="M35.2132 260.896H40.875V266.558H35.2132V260.896Z" fill="#808080"/>
<path d="M35.3628 252.014H40.7188V257.37H35.3628V252.014Z" fill="#E6E6E6"/>
<path d="M35.52 243.13H40.5703V248.18H35.52V243.13Z" fill="#CCCCCC"/>
<path d="M35.6695 234.247H40.4141V238.992H35.6695V234.247Z" fill="#F2F2F2"/>
<path d="M35.8267 225.363H40.2656V229.802H35.8267V225.363Z" fill="#E6E6E6"/>
<path d="M35.9763 216.48H40.1094V220.614H35.9763V216.48Z" fill="#B3B3B3"/>
<path d="M36.1258 207.597H39.9531V211.424H36.1258V207.597Z" fill="#F2F2F2"/>
<path d="M36.283 198.714H39.8047V202.236H36.283V198.714Z" fill="#808080"/>
<path d="M36.4326 189.83H39.6484V193.046H36.4326V189.83Z" fill="#808080"/>
<path d="M36.5899 180.947H39.5V183.857H36.5899V180.947Z" fill="#999999"/>
<path d="M36.7393 172.063H39.3438V174.668H36.7393V172.063Z" fill="#F2F2F2"/>
<path d="M36.8889 163.181H39.1875V165.479H36.8889V163.181Z" fill="#808080"/>
<path d="M37.0461 154.297H39.0391V156.29H37.0461V154.297Z" fill="#808080"/>
<path d="M37.1956 145.414H38.8828V147.101H37.1956V145.414Z" fill="#999999"/>
<path d="M37.3528 136.53H38.7344V137.912H37.3528V136.53Z" fill="#CCCCCC"/>
<path d="M37.5024 127.647H38.5781V128.723H37.5024V127.647Z" fill="#F2F2F2"/>
<path d="M37.6597 118.764H38.4297V119.534H37.6597V118.764Z" fill="#808080"/>
<path d="M45.1118 306.371H50.1875V311.447H45.1118V306.371Z" fill="#B3B3B3"/>
<path d="M44.9446 297.169H50.3516V302.576H44.9446V297.169Z" fill="#CCCCCC"/>
<path d="M44.7774 287.967H50.5156V293.705H44.7774V287.967Z" fill="#808080"/>
<path d="M44.6102 278.766H50.6797V284.835H44.6102V278.766Z" fill="#F2F2F2"/>
<path d="M44.4509 269.563H50.8516V275.964H44.4509V269.563Z" fill="#E6E6E6"/>
<path d="M44.6102 260.693H50.6797V266.763H44.6102V260.693Z" fill="#F2F2F2"/>
<path d="M44.7774 251.822H50.5156V257.56H44.7774V251.822Z" fill="#CCCCCC"/>
<path d="M44.9446 242.952H50.3516V248.359H44.9446V242.952Z" fill="#808080"/>
<path d="M45.1118 234.081H50.1875V239.157H45.1118V234.081Z" fill="#808080"/>
<path d="M45.2789 225.211H50.0234V229.956H45.2789V225.211Z" fill="#CCCCCC"/>
<path d="M45.4382 216.34H49.8516V220.753H45.4382V216.34Z" fill="#808080"/>
<path d="M45.6054 207.47H49.6875V211.552H45.6054V207.47Z" fill="#B3B3B3"/>
<path d="M45.7725 198.599H49.5234V202.35H45.7725V198.599Z" fill="#808080"/>
<path d="M45.9396 189.729H49.3594V193.148H45.9396V189.729Z" fill="#E6E6E6"/>
<path d="M46.1068 180.857H49.1953V183.946H46.1068V180.857Z" fill="#B3B3B3"/>
<path d="M46.2662 171.987H49.0234V174.745H46.2662V171.987Z" fill="#E6E6E6"/>
<path d="M46.4333 163.116H48.8594V165.542H46.4333V163.116Z" fill="#808080"/>
<path d="M46.6004 154.246H48.6953V156.341H46.6004V154.246Z" fill="#999999"/>
<path d="M46.7676 145.376H48.5312V147.14H46.7676V145.376Z" fill="#808080"/>
<path d="M46.9347 136.505H48.3672V137.937H46.9347V136.505Z" fill="#F2F2F2"/>
<path d="M47.0941 127.635H48.1953V128.736H47.0941V127.635Z" fill="#808080"/>
<path d="M47.2613 118.764H48.0312V119.534H47.2613V118.764Z" fill="#CCCCCC"/>
<path d="M54.5306 306.205H59.9375V311.612H54.5306V306.205Z" fill="#808080"/>
<path d="M54.3536 296.99H60.1172V302.754H54.3536V296.99Z" fill="#B3B3B3"/>
<path d="M54.1764 287.776H60.2969V293.897H54.1764V287.776Z" fill="#B3B3B3"/>
<path d="M53.9995 278.562H60.4766V285.039H53.9995V278.562Z" fill="#E6E6E6"/>
<path d="M53.8225 269.347H60.6562V276.18H53.8225V269.347Z" fill="#B3B3B3"/>
<path d="M53.9995 260.489H60.4766V266.966H53.9995V260.489Z" fill="#999999"/>
<path d="M54.1764 251.632H60.2969V257.752H54.1764V251.632Z" fill="#F2F2F2"/>
<path d="M54.3536 242.773H60.1172V248.537H54.3536V242.773Z" fill="#808080"/>
<path d="M54.5306 233.916H59.9375V239.323H54.5306V233.916Z" fill="#999999"/>
<path d="M54.7154 225.058H59.7656V230.108H54.7154V225.058Z" fill="#E6E6E6"/>
<path d="M54.8923 216.2H59.5859V220.894H54.8923V216.2Z" fill="#F2F2F2"/>
<path d="M55.0693 207.342H59.4062V211.679H55.0693V207.342Z" fill="#F2F2F2"/>
<path d="M55.2463 198.484H59.2266V202.465H55.2463V198.484Z" fill="#CCCCCC"/>
<path d="M55.4234 189.627H59.0469V193.25H55.4234V189.627Z" fill="#F2F2F2"/>
<path d="M55.6004 180.769H58.8672V184.035H55.6004V180.769Z" fill="#808080"/>
<path d="M55.7852 171.911H58.6953V174.821H55.7852V171.911Z" fill="#808080"/>
<path d="M55.9621 163.053H58.5156V165.606H55.9621V163.053Z" fill="#F2F2F2"/>
<path d="M56.1391 154.195H58.3359V156.392H56.1391V154.195Z" fill="#F2F2F2"/>
<path d="M56.3161 145.337H58.1562V147.177H56.3161V145.337Z" fill="#F2F2F2"/>
<path d="M56.4932 136.479H57.9766V137.963H56.4932V136.479Z" fill="#CCCCCC"/>
<path d="M56.6702 127.622H57.7969V128.749H56.6702V127.622Z" fill="#B3B3B3"/>
<path d="M56.855 118.764H57.625V119.534H56.855V118.764Z" fill="#F2F2F2"/>
<path d="M63.9806 306.039H69.7188V311.777H63.9806V306.039Z" fill="#808080"/>
<path d="M63.7858 296.812H69.9062V302.933H63.7858V296.812Z" fill="#E6E6E6"/>
<path d="M63.5913 287.585H70.0938V294.087H63.5913V287.585Z" fill="#E6E6E6"/>
<path d="M63.4043 278.357H70.2891V285.242H63.4043V278.357Z" fill="#808080"/>
<path d="M63.2096 269.131H70.4766V276.398H63.2096V269.131Z" fill="#B3B3B3"/>
<path d="M63.4043 260.285H70.2891V267.17H63.4043V260.285Z" fill="#F2F2F2"/>
<path d="M63.5913 251.44H70.0938V257.943H63.5913V251.44Z" fill="#999999"/>
<path d="M63.7858 242.595H69.9062V248.715H63.7858V242.595Z" fill="#B3B3B3"/>
<path d="M63.9806 233.75H69.7188V239.488H63.9806V233.75Z" fill="#CCCCCC"/>
<path d="M64.1675 224.905H69.5234V230.261H64.1675V224.905Z" fill="#999999"/>
<path d="M64.362 216.06H69.3359V221.033H64.362V216.06Z" fill="#B3B3B3"/>
<path d="M64.549 207.215H69.1406V211.807H64.549V207.215Z" fill="#808080"/>
<path d="M64.7437 198.369H68.9531V202.579H64.7437V198.369Z" fill="#808080"/>
<path d="M64.9304 189.524H68.7578V193.352H64.9304V189.524Z" fill="#E6E6E6"/>
<path d="M65.1252 180.68H68.5703V184.125H65.1252V180.68Z" fill="#E6E6E6"/>
<path d="M65.3119 171.834H68.375V174.897H65.3119V171.834Z" fill="#808080"/>
<path d="M65.5067 162.989H68.1875V165.67H65.5067V162.989Z" fill="#CCCCCC"/>
<path d="M65.6934 154.145H67.9922V156.443H65.6934V154.145Z" fill="#CCCCCC"/>
<path d="M65.8882 145.299H67.8047V147.215H65.8882V145.299Z" fill="#F2F2F2"/>
<path d="M66.0751 136.454H67.6094V137.988H66.0751V136.454Z" fill="#F2F2F2"/>
<path d="M66.2697 127.608H67.4219V128.761H66.2697V127.608Z" fill="#E6E6E6"/>
<path d="M66.4644 118.764H67.2344V119.534H66.4644V118.764Z" fill="#999999"/>
<path d="M73.4149 305.874H79.4844V311.943H73.4149V305.874Z" fill="#808080"/>
<path d="M73.2104 296.634H79.6875V303.111H73.2104V296.634Z" fill="#F2F2F2"/>
<path d="M73.0059 287.394H79.8906V294.278H73.0059V287.394Z" fill="#E6E6E6"/>
<path d="M72.8014 278.153H80.0938V285.446H72.8014V278.153Z" fill="#F2F2F2"/>
<path d="M72.6047 268.914H80.3047V276.614H72.6047V268.914Z" fill="#808080"/>
<path d="M72.8014 260.081H80.0938V267.373H72.8014V260.081Z" fill="#B3B3B3"/>
<path d="M73.0059 251.249H79.8906V258.134H73.0059V251.249Z" fill="#CCCCCC"/>
<path d="M73.2104 242.417H79.6875V248.894H73.2104V242.417Z" fill="#E6E6E6"/>
<path d="M73.4149 233.584H79.4844V239.653H73.4149V233.584Z" fill="#808080"/>
<path d="M73.6194 224.752H79.2812V230.414H73.6194V224.752Z" fill="#808080"/>
<path d="M73.8239 215.92H79.0781V221.174H73.8239V215.92Z" fill="#CCCCCC"/>
<path d="M74.0285 207.088H78.875V211.934H74.0285V207.088Z" fill="#808080"/>
<path d="M74.233 198.255H78.6719V202.694H74.233V198.255Z" fill="#999999"/>
<path d="M74.4376 189.423H78.4688V193.454H74.4376V189.423Z" fill="#999999"/>
<path d="M74.6422 180.59H78.2656V184.213H74.6422V180.59Z" fill="#CCCCCC"/>
<path d="M74.8467 171.758H78.0625V174.974H74.8467V171.758Z" fill="#CCCCCC"/>
<path d="M75.0434 162.926H77.8516V165.734H75.0434V162.926Z" fill="#808080"/>
<path d="M75.2479 154.093H77.6484V156.493H75.2479V154.093Z" fill="#E6E6E6"/>
<path d="M75.4524 145.261H77.4453V147.254H75.4524V145.261Z" fill="#B3B3B3"/>
<path d="M75.6569 136.429H77.2422V138.014H75.6569V136.429Z" fill="#B3B3B3"/>
<path d="M75.8614 127.596H77.0391V128.773H75.8614V127.596Z" fill="#999999"/>
<path d="M76.0659 118.764H76.8359V119.534H76.0659V118.764Z" fill="#CCCCCC"/>
<path d="M83.1759 306.039H88.9141V311.777H83.1759V306.039Z" fill="#808080"/>
<path d="M82.989 296.812H89.1094V302.933H82.989V296.812Z" fill="#CCCCCC"/>
<path d="M82.7944 287.585H89.2969V294.087H82.7944V287.585Z" fill="#808080"/>
<path d="M82.6075 278.357H89.4922V285.242H82.6075V278.357Z" fill="#CCCCCC"/>
<path d="M82.4127 269.131H89.6797V276.398H82.4127V269.131Z" fill="#E6E6E6"/>
<path d="M82.6075 260.285H89.4922V267.17H82.6075V260.285Z" fill="#CCCCCC"/>
<path d="M82.7944 251.44H89.2969V257.943H82.7944V251.44Z" fill="#E6E6E6"/>
<path d="M82.989 242.595H89.1094V248.715H82.989V242.595Z" fill="#E6E6E6"/>
<path d="M83.1759 233.75H88.9141V239.488H83.1759V233.75Z" fill="#B3B3B3"/>
<path d="M83.3706 224.905H88.7266V230.261H83.3706V224.905Z" fill="#999999"/>
<path d="M83.5574 216.06H88.5312V221.033H83.5574V216.06Z" fill="#B3B3B3"/>
<path d="M83.7521 207.215H88.3438V211.807H83.7521V207.215Z" fill="#999999"/>
<path d="M83.939 198.369H88.1484V202.579H83.939V198.369Z" fill="#CCCCCC"/>
<path d="M84.1336 189.524H87.9609V193.352H84.1336V189.524Z" fill="#F2F2F2"/>
<path d="M84.3205 180.68H87.7656V184.125H84.3205V180.68Z" fill="#CCCCCC"/>
<path d="M84.5151 171.834H87.5781V174.897H84.5151V171.834Z" fill="#CCCCCC"/>
<path d="M84.702 162.989H87.3828V165.67H84.702V162.989Z" fill="#B3B3B3"/>
<path d="M84.8966 154.145H87.1953V156.443H84.8966V154.145Z" fill="#999999"/>
<path d="M85.0913 145.299H87.0078V147.215H85.0913V145.299Z" fill="#999999"/>
<path d="M85.2782 136.454H86.8125V137.988H85.2782V136.454Z" fill="#808080"/>
<path d="M85.4728 127.608H86.625V128.761H85.4728V127.608Z" fill="#E6E6E6"/>
<path d="M85.6597 118.764H86.4297V119.534H85.6597V118.764Z" fill="#999999"/>
<path d="M92.9446 306.205H98.3516V311.612H92.9446V306.205Z" fill="#CCCCCC"/>
<path d="M92.7676 296.99H98.5312V302.754H92.7676V296.99Z" fill="#CCCCCC"/>
<path d="M92.5905 287.776H98.7109V293.897H92.5905V287.776Z" fill="#808080"/>
<path d="M92.4135 278.562H98.8906V285.039H92.4135V278.562Z" fill="#CCCCCC"/>
<path d="M92.2366 269.347H99.0703V276.18H92.2366V269.347Z" fill="#999999"/>
<path d="M92.4135 260.489H98.8906V266.966H92.4135V260.489Z" fill="#E6E6E6"/>
<path d="M92.5905 251.632H98.7109V257.752H92.5905V251.632Z" fill="#808080"/>
<path d="M92.7676 242.773H98.5312V248.537H92.7676V242.773Z" fill="#E6E6E6"/>
<path d="M92.9446 233.916H98.3516V239.323H92.9446V233.916Z" fill="#CCCCCC"/>
<path d="M93.1216 225.058H98.1719V230.108H93.1216V225.058Z" fill="#999999"/>
<path d="M93.3064 216.2H98V220.894H93.3064V216.2Z" fill="#808080"/>
<path d="M93.4834 207.342H97.8203V211.679H93.4834V207.342Z" fill="#F2F2F2"/>
<path d="M93.6603 198.484H97.6406V202.465H93.6603V198.484Z" fill="#E6E6E6"/>
<path d="M93.8375 189.627H97.4609V193.25H93.8375V189.627Z" fill="#E6E6E6"/>
<path d="M94.0144 180.769H97.2812V184.035H94.0144V180.769Z" fill="#999999"/>
<path d="M94.1914 171.911H97.1016V174.821H94.1914V171.911Z" fill="#B3B3B3"/>
<path d="M94.3762 163.053H96.9297V165.606H94.3762V163.053Z" fill="#F2F2F2"/>
<path d="M94.5532 154.195H96.75V156.392H94.5532V154.195Z" fill="#999999"/>
<path d="M94.7302 145.337H96.5703V147.177H94.7302V145.337Z" fill="#E6E6E6"/>
<path d="M94.9073 136.479H96.3906V137.963H94.9073V136.479Z" fill="#B3B3B3"/>
<path d="M95.0843 127.622H96.2109V128.749H95.0843V127.622Z" fill="#808080"/>
<path d="M95.2613 118.764H96.0312V119.534H95.2613V118.764Z" fill="#B3B3B3"/>
<path d="M102.706 306.371H107.781V311.447H102.706V306.371Z" fill="#B3B3B3"/>
<path d="M102.538 297.169H107.945V302.576H102.538V297.169Z" fill="#808080"/>
<path d="M102.371 287.967H108.109V293.705H102.371V287.967Z" fill="#808080"/>
<path d="M102.204 278.766H108.273V284.835H102.204V278.766Z" fill="#CCCCCC"/>
<path d="M102.045 269.563H108.445V275.964H102.045V269.563Z" fill="#F2F2F2"/>
<path d="M102.204 260.693H108.273V266.763H102.204V260.693Z" fill="#E6E6E6"/>
<path d="M102.371 251.822H108.109V257.56H102.371V251.822Z" fill="#F2F2F2"/>
<path d="M102.538 242.952H107.945V248.359H102.538V242.952Z" fill="#808080"/>
<path d="M102.706 234.081H107.781V239.157H102.706V234.081Z" fill="#CCCCCC"/>
<path d="M102.873 225.211H107.617V229.956H102.873V225.211Z" fill="#B3B3B3"/>
<path d="M103.032 216.34H107.445V220.753H103.032V216.34Z" fill="#B3B3B3"/>
<path d="M103.199 207.47H107.281V211.552H103.199V207.47Z" fill="#B3B3B3"/>
<path d="M103.366 198.599H107.117V202.35H103.366V198.599Z" fill="#808080"/>
<path d="M103.533 189.729H106.953V193.148H103.533V189.729Z" fill="#808080"/>
<path d="M103.701 180.857H106.789V183.946H103.701V180.857Z" fill="#808080"/>
<path d="M103.86 171.987H106.617V174.745H103.86V171.987Z" fill="#B3B3B3"/>
<path d="M104.027 163.116H106.453V165.542H104.027V163.116Z" fill="#F2F2F2"/>
<path d="M104.194 154.246H106.289V156.341H104.194V154.246Z" fill="#999999"/>
<path d="M104.361 145.376H106.125V147.14H104.361V145.376Z" fill="#CCCCCC"/>
<path d="M104.528 136.505H105.961V137.937H104.528V136.505Z" fill="#E6E6E6"/>
<path d="M104.688 127.635H105.789V128.736H104.688V127.635Z" fill="#808080"/>
<path d="M104.855 118.764H105.625V119.534H104.855V118.764Z" fill="#CCCCCC"/>
<path d="M112.482 306.536H117.227V311.281H112.482V306.536Z" fill="#CCCCCC"/>
<path d="M112.333 297.348H117.383V302.398H112.333V297.348Z" fill="#B3B3B3"/>
<path d="M112.175 288.158H117.531V293.514H112.175V288.158Z" fill="#B3B3B3"/>
<path d="M112.026 278.969H117.688V284.631H112.026V278.969Z" fill="#F2F2F2"/>
<path d="M111.876 269.78H117.844V275.748H111.876V269.78Z" fill="#F2F2F2"/>
<path d="M112.026 260.896H117.688V266.558H112.026V260.896Z" fill="#999999"/>
<path d="M112.175 252.014H117.531V257.37H112.175V252.014Z" fill="#B3B3B3"/>
<path d="M112.333 243.13H117.383V248.18H112.333V243.13Z" fill="#B3B3B3"/>
<path d="M112.482 234.247H117.227V238.992H112.482V234.247Z" fill="#CCCCCC"/>
<path d="M112.639 225.363H117.078V229.802H112.639V225.363Z" fill="#B3B3B3"/>
<path d="M112.789 216.48H116.922V220.614H112.789V216.48Z" fill="#999999"/>
<path d="M112.946 207.597H116.773V211.424H112.946V207.597Z" fill="#808080"/>
<path d="M113.096 198.714H116.617V202.236H113.096V198.714Z" fill="#E6E6E6"/>
<path d="M113.253 189.83H116.469V193.046H113.253V189.83Z" fill="#E6E6E6"/>
<path d="M113.402 180.947H116.312V183.857H113.402V180.947Z" fill="#F2F2F2"/>
<path d="M113.552 172.063H116.156V174.668H113.552V172.063Z" fill="#808080"/>
<path d="M113.709 163.181H116.008V165.479H113.709V163.181Z" fill="#E6E6E6"/>
<path d="M113.859 154.297H115.852V156.29H113.859V154.297Z" fill="#B3B3B3"/>
<path d="M114.016 145.414H115.703V147.101H114.016V145.414Z" fill="#B3B3B3"/>
<path d="M114.165 136.53H115.547V137.912H114.165V136.53Z" fill="#CCCCCC"/>
<path d="M114.315 127.647H115.391V128.723H114.315V127.647Z" fill="#E6E6E6"/>
<path d="M114.472 118.764H115.242V119.534H114.472V118.764Z" fill="#808080"/>
<path d="M122.251 306.702H126.664V311.115H122.251V306.702Z" fill="#F2F2F2"/>
<path d="M122.111 297.525H126.805V302.219H122.111V297.525Z" fill="#E6E6E6"/>
<path d="M121.971 288.35H126.945V293.323H121.971V288.35Z" fill="#B3B3B3"/>
<path d="M121.832 279.173H127.086V284.427H121.832V279.173Z" fill="#E6E6E6"/>
<path d="M121.692 269.997H127.227V275.532H121.692V269.997Z" fill="#F2F2F2"/>
<path d="M121.832 261.101H127.086V266.355H121.832V261.101Z" fill="#F2F2F2"/>
<path d="M121.971 252.204H126.945V257.178H121.971V252.204Z" fill="#E6E6E6"/>
<path d="M122.111 243.309H126.805V248.002H122.111V243.309Z" fill="#B3B3B3"/>
<path d="M122.251 234.412H126.664V238.825H122.251V234.412Z" fill="#B3B3B3"/>
<path d="M122.39 225.517H126.523V229.65H122.39V225.517Z" fill="#B3B3B3"/>
<path d="M122.53 216.62H126.383V220.473H122.53V216.62Z" fill="#808080"/>
<path d="M122.67 207.725H126.242V211.297H122.67V207.725Z" fill="#999999"/>
<path d="M122.809 198.828H126.102V202.12H122.809V198.828Z" fill="#E6E6E6"/>
<path d="M122.949 189.933H125.961V192.945H122.949V189.933Z" fill="#F2F2F2"/>
<path d="M123.089 181.036H125.82V183.768H123.089V181.036Z" fill="#E6E6E6"/>
<path d="M123.228 172.14H125.68V174.591H123.228V172.14Z" fill="#999999"/>
<path d="M123.368 163.244H125.539V165.415H123.368V163.244Z" fill="#808080"/>
<path d="M123.507 154.348H125.398V156.239H123.507V154.348Z" fill="#E6E6E6"/>
<path d="M123.647 145.452H125.258V147.063H123.647V145.452Z" fill="#E6E6E6"/>
<path d="M123.794 136.556H125.125V137.886H123.794V136.556Z" fill="#B3B3B3"/>
<path d="M123.934 127.66H124.984V128.71H123.934V127.66Z" fill="#E6E6E6"/>
<path d="M124.074 118.764H124.844V119.534H124.074V118.764Z" fill="#E6E6E6"/>
<path d="M132.012 306.867H136.094V310.949H132.012V306.867Z" fill="#CCCCCC"/>
<path d="M131.882 297.704H136.219V302.041H131.882V297.704Z" fill="#CCCCCC"/>
<path d="M131.752 288.54H136.344V293.132H131.752V288.54Z" fill="#E6E6E6"/>
<path d="M131.63 279.377H136.477V284.223H131.63V279.377Z" fill="#CCCCCC"/>
<path d="M131.5 270.213H136.602V275.314H131.5V270.213Z" fill="#B3B3B3"/>
<path d="M131.63 261.305H136.477V266.151H131.63V261.305Z" fill="#999999"/>
<path d="M131.752 252.396H136.344V256.987H131.752V252.396Z" fill="#808080"/>
<path d="M131.882 243.486H136.219V247.823H131.882V243.486Z" fill="#B3B3B3"/>
<path d="M132.012 234.578H136.094V238.66H132.012V234.578Z" fill="#999999"/>
<path d="M132.141 225.669H135.969V229.496H132.141V225.669Z" fill="#E6E6E6"/>
<path d="M132.263 216.761H135.836V220.333H132.263V216.761Z" fill="#808080"/>
<path d="M132.393 207.852H135.711V211.169H132.393V207.852Z" fill="#808080"/>
<path d="M132.523 198.943H135.586V202.006H132.523V198.943Z" fill="#E6E6E6"/>
<path d="M132.645 190.034H135.453V192.842H132.645V190.034Z" fill="#999999"/>
<path d="M132.775 181.125H135.328V183.678H132.775V181.125Z" fill="#999999"/>
<path d="M132.905 172.217H135.203V174.515H132.905V172.217Z" fill="#E6E6E6"/>
<path d="M133.026 163.308H135.07V165.352H133.026V163.308Z" fill="#E6E6E6"/>
<path d="M133.156 154.399H134.945V156.189H133.156V154.399Z" fill="#CCCCCC"/>
<path d="M133.286 145.49H134.82V147.025H133.286V145.49Z" fill="#F2F2F2"/>
<path d="M133.416 136.581H134.695V137.861H133.416V136.581Z" fill="#E6E6E6"/>
<path d="M133.538 127.673H134.562V128.698H133.538V127.673Z" fill="#F2F2F2"/>
<path d="M133.668 118.764H134.438V119.534H133.668V118.764Z" fill="#CCCCCC"/>
<path d="M141.78 307.033H145.531V310.784H141.78V307.033Z" fill="#CCCCCC"/>
<path d="M141.668 297.882H145.648V301.862H141.668V297.882Z" fill="#B3B3B3"/>
<path d="M141.548 288.731H145.758V292.941H141.548V288.731Z" fill="#808080"/>
<path d="M141.436 279.58H145.875V284.019H141.436V279.58Z" fill="#CCCCCC"/>
<path d="M141.324 270.43H145.992V275.098H141.324V270.43Z" fill="#CCCCCC"/>
<path d="M141.436 261.508H145.875V265.947H141.436V261.508Z" fill="#CCCCCC"/>
<path d="M141.548 252.587H145.758V256.796H141.548V252.587Z" fill="#999999"/>
<path d="M141.668 243.665H145.648V247.645H141.668V243.665Z" fill="#999999"/>
<path d="M141.78 234.744H145.531V238.495H141.78V234.744Z" fill="#808080"/>
<path d="M141.892 225.822H145.414V229.344H141.892V225.822Z" fill="#F2F2F2"/>
<path d="M142.005 216.9H145.297V220.193H142.005V216.9Z" fill="#808080"/>
<path d="M142.124 207.979H145.188V211.043H142.124V207.979Z" fill="#B3B3B3"/>
<path d="M142.237 199.058H145.07V201.891H142.237V199.058Z" fill="#E6E6E6"/>
<path d="M142.349 190.136H144.953V192.74H142.349V190.136Z" fill="#E6E6E6"/>
<path d="M142.469 181.215H144.844V183.59H142.469V181.215Z" fill="#F2F2F2"/>
<path d="M142.581 172.293H144.727V174.439H142.581V172.293Z" fill="#E6E6E6"/>
<path d="M142.693 163.371H144.609V165.288H142.693V163.371Z" fill="#CCCCCC"/>
<path d="M142.813 154.45H144.5V156.137H142.813V154.45Z" fill="#B3B3B3"/>
<path d="M142.925 145.528H144.383V146.986H142.925V145.528Z" fill="#999999"/>
<path d="M143.045 136.606H144.273V137.835H143.045V136.606Z" fill="#E6E6E6"/>
<path d="M143.157 127.686H144.156V128.685H143.157V127.686Z" fill="#F2F2F2"/>
<path d="M143.269 118.764H144.039V119.534H143.269V118.764Z" fill="#808080"/>
<path d="M151.533 307.198H154.953V310.618H151.533V307.198Z" fill="#B3B3B3"/>
<path d="M151.439 298.061H155.062V301.684H151.439V298.061Z" fill="#999999"/>
<path d="M151.337 288.923H155.164V292.75H151.337V288.923Z" fill="#E6E6E6"/>
<path d="M151.235 279.784H155.266V283.815H151.235V279.784Z" fill="#B3B3B3"/>
<path d="M151.132 270.646H155.367V274.881H151.132V270.646Z" fill="#B3B3B3"/>
<path d="M151.235 261.712H155.266V265.743H151.235V261.712Z" fill="#F2F2F2"/>
<path d="M151.337 252.777H155.164V256.605H151.337V252.777Z" fill="#B3B3B3"/>
<path d="M151.439 243.844H155.062V247.467H151.439V243.844Z" fill="#B3B3B3"/>
<path d="M151.533 234.909H154.953V238.329H151.533V234.909Z" fill="#E6E6E6"/>
<path d="M151.644 225.975H154.859V229.19H151.644V225.975Z" fill="#E6E6E6"/>
<path d="M151.738 217.041H154.75V220.053H151.738V217.041Z" fill="#CCCCCC"/>
<path d="M151.84 208.106H154.648V210.915H151.84V208.106Z" fill="#CCCCCC"/>
<path d="M151.942 199.172H154.547V201.776H151.942V199.172Z" fill="#808080"/>
<path d="M152.045 190.238H154.445V192.639H152.045V190.238Z" fill="#F2F2F2"/>
<path d="M152.147 181.304H154.344V183.501H152.147V181.304Z" fill="#999999"/>
<path d="M152.249 172.369H154.242V174.362H152.249V172.369Z" fill="#F2F2F2"/>
<path d="M152.351 163.436H154.141V165.225H152.351V163.436Z" fill="#808080"/>
<path d="M152.454 154.501H154.039V156.086H152.454V154.501Z" fill="#808080"/>
<path d="M152.556 145.566H153.938V146.948H152.556V145.566Z" fill="#F2F2F2"/>
<path d="M152.658 136.633H153.836V137.81H152.658V136.633Z" fill="#999999"/>
<path d="M152.76 127.698H153.734V128.672H152.76V127.698Z" fill="#999999"/>
<path d="M152.863 118.764H153.633V119.534H152.863V118.764Z" fill="#B3B3B3"/>
<path d="M161.318 307.364H164.406V310.453H161.318V307.364Z" fill="#999999"/>
<path d="M161.225 298.239H164.492V301.506H161.225V298.239Z" fill="#808080"/>
<path d="M161.141 289.113H164.586V292.558H161.141V289.113Z" fill="#F2F2F2"/>
<path d="M161.048 279.988H164.672V283.612H161.048V279.988Z" fill="#E6E6E6"/>
<path d="M160.964 270.863H164.766V274.665H160.964V270.863Z" fill="#999999"/>
<path d="M161.048 261.916H164.672V265.539H161.048V261.916Z" fill="#E6E6E6"/>
<path d="M161.141 252.969H164.586V256.414H161.141V252.969Z" fill="#E6E6E6"/>
<path d="M161.225 244.021H164.492V247.288H161.225V244.021Z" fill="#B3B3B3"/>
<path d="M161.318 235.075H164.406V238.164H161.318V235.075Z" fill="#CCCCCC"/>
<path d="M161.402 226.128H164.312V229.038H161.402V226.128Z" fill="#999999"/>
<path d="M161.495 217.181H164.227V219.912H161.495V217.181Z" fill="#B3B3B3"/>
<path d="M161.587 208.233H164.141V210.787H161.587V208.233Z" fill="#E6E6E6"/>
<path d="M161.672 199.287H164.047V201.662H161.672V199.287Z" fill="#999999"/>
<path d="M161.764 190.34H163.961V192.537H161.764V190.34Z" fill="#F2F2F2"/>
<path d="M161.849 181.393H163.867V183.411H161.849V181.393Z" fill="#CCCCCC"/>
<path d="M161.941 172.446H163.781V174.286H161.941V172.446Z" fill="#E6E6E6"/>
<path d="M162.034 163.499H163.695V165.161H162.034V163.499Z" fill="#CCCCCC"/>
<path d="M162.118 154.552H163.602V156.035H162.118V154.552Z" fill="#E6E6E6"/>
<path d="M162.211 145.604H163.516V146.909H162.211V145.604Z" fill="#808080"/>
<path d="M162.295 136.658H163.422V137.785H162.295V136.658Z" fill="#999999"/>
<path d="M162.388 127.711H163.336V128.659H162.388V127.711Z" fill="#CCCCCC"/>
<path d="M162.48 118.764H163.25V119.534H162.48V118.764Z" fill="#999999"/>
<path d="M171.087 307.53H173.844V310.287H171.087V307.53Z" fill="#808080"/>
<path d="M171.004 298.417H173.914V301.327H171.004V298.417Z" fill="#808080"/>
<path d="M170.929 289.305H173.992V292.368H170.929V289.305Z" fill="#F2F2F2"/>
<path d="M170.854 280.192H174.07V283.408H170.854V280.192Z" fill="#F2F2F2"/>
<path d="M170.78 271.079H174.148V274.448H170.78V271.079Z" fill="#808080"/>
<path d="M170.854 262.12H174.07V265.336H170.854V262.12Z" fill="#808080"/>
<path d="M170.929 253.16H173.992V256.223H170.929V253.16Z" fill="#999999"/>
<path d="M171.004 244.2H173.914V247.11H171.004V244.2Z" fill="#CCCCCC"/>
<path d="M171.087 235.24H173.844V237.997H171.087V235.24Z" fill="#808080"/>
<path d="M171.161 226.28H173.766V228.885H171.161V226.28Z" fill="#999999"/>
<path d="M171.236 217.321H173.688V219.773H171.236V217.321Z" fill="#CCCCCC"/>
<path d="M171.311 208.361H173.609V210.66H171.311V208.361Z" fill="#808080"/>
<path d="M171.385 199.401H173.531V201.547H171.385V199.401Z" fill="#CCCCCC"/>
<path d="M171.468 190.441H173.461V192.434H171.468V190.441Z" fill="#B3B3B3"/>
<path d="M171.543 181.481H173.383V183.321H171.543V181.481Z" fill="#CCCCCC"/>
<path d="M171.617 172.522H173.305V174.21H171.617V172.522Z" fill="#F2F2F2"/>
<path d="M171.692 163.562H173.227V165.097H171.692V163.562Z" fill="#808080"/>
<path d="M171.767 154.603H173.148V155.984H171.767V154.603Z" fill="#808080"/>
<path d="M171.85 145.644H173.078V146.872H171.85V145.644Z" fill="#999999"/>
<path d="M171.924 136.684H173V137.759H171.924V136.684Z" fill="#999999"/>
<path d="M171.999 127.724H172.922V128.647H171.999V127.724Z" fill="#999999"/>
<path d="M172.074 118.764H172.844V119.534H172.074V118.764Z" fill="#CCCCCC"/>
<path d="M180.847 307.695H183.273V310.121H180.847V307.695Z" fill="#999999"/>
<path d="M180.782 298.596H183.336V301.149H180.782V298.596Z" fill="#F2F2F2"/>
<path d="M180.718 289.496H183.398V292.177H180.718V289.496Z" fill="#E6E6E6"/>
<path d="M180.653 280.396H183.461V283.204H180.653V280.396Z" fill="#E6E6E6"/>
<path d="M180.588 271.296H183.523V274.232H180.588V271.296Z" fill="#808080"/>
<path d="M180.653 262.323H183.461V265.131H180.653V262.323Z" fill="#F2F2F2"/>
<path d="M180.718 253.352H183.398V256.032H180.718V253.352Z" fill="#E6E6E6"/>
<path d="M180.782 244.379H183.336V246.932H180.782V244.379Z" fill="#B3B3B3"/>
<path d="M180.847 235.406H183.273V237.832H180.847V235.406Z" fill="#808080"/>
<path d="M180.905 226.434H183.203V228.732H180.905V226.434Z" fill="#B3B3B3"/>
<path d="M180.969 217.461H183.141V219.632H180.969V217.461Z" fill="#999999"/>
<path d="M181.034 208.488H183.078V210.532H181.034V208.488Z" fill="#CCCCCC"/>
<path d="M181.099 199.517H183.016V201.433H181.099V199.517Z" fill="#808080"/>
<path d="M181.164 190.544H182.953V192.333H181.164V190.544Z" fill="#B3B3B3"/>
<path d="M181.229 181.571H182.891V183.233H181.229V181.571Z" fill="#E6E6E6"/>
<path d="M181.294 172.599H182.828V174.133H181.294V172.599Z" fill="#999999"/>
<path d="M181.351 163.626H182.758V165.033H181.351V163.626Z" fill="#808080"/>
<path d="M181.416 154.653H182.695V155.933H181.416V154.653Z" fill="#E6E6E6"/>
<path d="M181.481 145.682H182.633V146.834H181.481V145.682Z" fill="#E6E6E6"/>
<path d="M181.546 136.709H182.57V137.734H181.546V136.709Z" fill="#999999"/>
<path d="M181.61 127.736H182.508V128.634H181.61V127.736Z" fill="#F2F2F2"/>
<path d="M181.675 118.764H182.445V119.534H181.675V118.764Z" fill="#E6E6E6"/>
<path d="M190.608 307.861H192.703V309.956H190.608V307.861Z" fill="#B3B3B3"/>
<path d="M190.553 298.774H192.75V300.971H190.553V298.774Z" fill="#F2F2F2"/>
<path d="M190.506 289.687H192.805V291.985H190.506V289.687Z" fill="#E6E6E6"/>
<path d="M190.451 280.6H192.852V283H190.451V280.6Z" fill="#CCCCCC"/>
<path d="M190.404 271.513H192.906V274.015H190.404V271.513Z" fill="#B3B3B3"/>
<path d="M190.451 262.527H192.852V264.928H190.451V262.527Z" fill="#B3B3B3"/>
<path d="M190.506 253.542H192.805V255.841H190.506V253.542Z" fill="#E6E6E6"/>
<path d="M190.553 244.557H192.75V246.753H190.553V244.557Z" fill="#999999"/>
<path d="M190.608 235.571H192.703V237.666H190.608V235.571Z" fill="#F2F2F2"/>
<path d="M190.656 226.587H192.648V228.58H190.656V226.587Z" fill="#808080"/>
<path d="M190.711 217.602H192.602V219.493H190.711V217.602Z" fill="#808080"/>
<path d="M190.758 208.616H192.547V210.405H190.758V208.616Z" fill="#808080"/>
<path d="M190.805 199.631H192.492V201.318H190.805V199.631Z" fill="#B3B3B3"/>
<path d="M190.86 190.646H192.445V192.231H190.86V190.646Z" fill="#E6E6E6"/>
<path d="M190.915 181.66H192.398V183.143H190.915V181.66Z" fill="#999999"/>
<path d="M190.962 172.675H192.344V174.056H190.962V172.675Z" fill="#E6E6E6"/>
<path d="M191.009 163.689H192.289V164.969H191.009V163.689Z" fill="#F2F2F2"/>
<path d="M191.065 154.705H192.242V155.883H191.065V154.705Z" fill="#B3B3B3"/>
<path d="M191.112 145.72H192.188V146.795H191.112V145.72Z" fill="#E6E6E6"/>
<path d="M191.167 136.734H192.141V137.708H191.167V136.734Z" fill="#F2F2F2"/>
<path d="M191.214 127.749H192.086V128.621H191.214V127.749Z" fill="#B3B3B3"/>
<path d="M191.269 118.764H192.039V119.534H191.269V118.764Z" fill="#999999"/>
<path d="M200.332 298.952H202.172V300.792H200.332V298.952Z" fill="#808080"/>
<path d="M200.294 289.878H202.211V291.794H200.294V289.878Z" fill="#808080"/>
<path d="M200.257 280.804H202.25V282.797H200.257V280.804Z" fill="#F2F2F2"/>
<path d="M200.22 271.729H202.289V273.799H200.22V271.729Z" fill="#808080"/>
<path d="M200.257 262.731H202.25V264.724H200.257V262.731Z" fill="#B3B3B3"/>
<path d="M200.294 253.733H202.211V255.65H200.294V253.733Z" fill="#808080"/>
<path d="M200.332 244.735H202.172V246.575H200.332V244.735Z" fill="#808080"/>
<path d="M200.369 235.737H202.133V237.501H200.369V235.737Z" fill="#999999"/>
<path d="M200.407 226.739H202.094V228.426H200.407V226.739Z" fill="#808080"/>
<path d="M200.444 217.741H202.055V219.352H200.444V217.741Z" fill="#F2F2F2"/>
<path d="M200.489 208.743H202.023V210.277H200.489V208.743Z" fill="#808080"/>
<path d="M200.526 199.745H201.984V201.203H200.526V199.745Z" fill="#B3B3B3"/>
<path d="M200.564 190.747H201.945V192.129H200.564V190.747Z" fill="#B3B3B3"/>
<path d="M200.601 181.749H201.906V183.054H200.601V181.749Z" fill="#808080"/>
<path d="M200.639 172.752H201.867V173.981H200.639V172.752Z" fill="#808080"/>
<path d="M200.676 163.754H201.828V164.906H200.676V163.754Z" fill="#E6E6E6"/>
<path d="M200.713 154.756H201.789V155.832H200.713V154.756Z" fill="#E6E6E6"/>
<path d="M200.751 145.758H201.75V146.757H200.751V145.758Z" fill="#808080"/>
<path d="M200.788 136.76H201.711V137.683H200.788V136.76Z" fill="#E6E6E6"/>
<path d="M200.825 127.762H201.672V128.608H200.825V127.762Z" fill="#B3B3B3"/>
<path d="M200.871 118.764H201.641V119.534H200.871V118.764Z" fill="#B3B3B3"/>
<path d="M210.126 299.131H211.609V300.614H210.126V299.131Z" fill="#CCCCCC"/>
<path d="M210.099 290.069H211.633V291.604H210.099V290.069Z" fill="#808080"/>
<path d="M210.071 281.008H211.656V282.593H210.071V281.008Z" fill="#CCCCCC"/>
<path d="M210.051 271.945H211.688V273.582H210.051V271.945Z" fill="#F2F2F2"/>
<path d="M210.071 262.935H211.656V264.52H210.071V262.935Z" fill="#F2F2F2"/>
<path d="M210.099 253.925H211.633V255.459H210.099V253.925Z" fill="#999999"/>
<path d="M210.126 244.914H211.609V246.397H210.126V244.914Z" fill="#808080"/>
<path d="M210.154 235.903H211.586V237.336H210.154V235.903Z" fill="#808080"/>
<path d="M210.173 226.893H211.555V228.274H210.173V226.893Z" fill="#999999"/>
<path d="M210.201 217.882H211.531V219.212H210.201V217.882Z" fill="#E6E6E6"/>
<path d="M210.228 208.871H211.508V210.151H210.228V208.871Z" fill="#CCCCCC"/>
<path d="M210.256 199.86H211.484V201.089H210.256V199.86Z" fill="#999999"/>
<path d="M210.275 190.85H211.453V192.027H210.275V190.85Z" fill="#F2F2F2"/>
<path d="M210.303 181.839H211.43V182.966H210.303V181.839Z" fill="#999999"/>
<path d="M210.331 172.828H211.406V173.904H210.331V172.828Z" fill="#E6E6E6"/>
<path d="M210.358 163.817H211.383V164.842H210.358V163.817Z" fill="#E6E6E6"/>
<path d="M210.378 154.807H211.352V155.781H210.378V154.807Z" fill="#F2F2F2"/>
<path d="M210.405 145.796H211.328V146.719H210.405V145.796Z" fill="#B3B3B3"/>
<path d="M210.433 136.785H211.305V137.657H210.433V136.785Z" fill="#E6E6E6"/>
<path d="M210.452 127.774H211.273V128.595H210.452V127.774Z" fill="#999999"/>
<path d="M210.48 118.764H211.25V119.534H210.48V118.764Z" fill="#E6E6E6"/>
<path d="M219.905 299.31H221.031V300.436H219.905V299.31Z" fill="#E6E6E6"/>
<path d="M219.887 290.26H221.039V291.412H219.887V290.26Z" fill="#F2F2F2"/>
<path d="M219.877 281.211H221.055V282.389H219.877V281.211Z" fill="#F2F2F2"/>
<path d="M219.867 272.162H221.07V273.365H219.867V272.162Z" fill="#808080"/>
<path d="M219.877 263.139H221.055V264.316H219.877V263.139Z" fill="#808080"/>
<path d="M219.887 254.115H221.039V255.267H219.887V254.115Z" fill="#808080"/>
<path d="M219.905 245.092H221.031V246.218H219.905V245.092Z" fill="#999999"/>
<path d="M219.914 236.068H221.016V237.17H219.914V236.068Z" fill="#E6E6E6"/>
<path d="M219.932 227.045H221.008V228.121H219.932V227.045Z" fill="#808080"/>
<path d="M219.942 218.021H220.992V219.072H219.942V218.021Z" fill="#999999"/>
<path d="M219.952 208.998H220.977V210.023H219.952V208.998Z" fill="#E6E6E6"/>
<path d="M219.969 199.975H220.969V200.974H219.969V199.975Z" fill="#808080"/>
<path d="M219.979 190.951H220.953V191.925H219.979V190.951Z" fill="#999999"/>
<path d="M219.989 181.928H220.938V182.876H219.989V181.928Z" fill="#B3B3B3"/>
<path d="M220.007 172.904H220.93V173.827H220.007V172.904Z" fill="#B3B3B3"/>
<path d="M220.017 163.881H220.914V164.778H220.017V163.881Z" fill="#CCCCCC"/>
<path d="M220.026 154.857H220.898V155.729H220.026V154.857Z" fill="#CCCCCC"/>
<path d="M220.044 145.834H220.891V146.68H220.044V145.834Z" fill="#F2F2F2"/>
<path d="M220.054 136.811H220.875V137.632H220.054V136.811Z" fill="#808080"/>
<path d="M220.072 127.787H220.867V128.583H220.072V127.787Z" fill="#999999"/>
<path d="M220.082 118.764H220.852V119.534H220.082V118.764Z" fill="#808080"/>
<path d="M229.675 299.487H230.445V300.257H229.675V299.487Z" fill="#999999"/>
<path d="M229.675 290.451H230.445V291.221H229.675V290.451Z" fill="#CCCCCC"/>
<path d="M229.675 281.415H230.445V282.185H229.675V281.415Z" fill="#E6E6E6"/>
<path d="M229.675 272.379H230.445V273.149H229.675V272.379Z" fill="#B3B3B3"/>
<path d="M229.675 263.343H230.445V264.113H229.675V263.343Z" fill="#808080"/>
<path d="M229.675 254.307H230.445V255.077H229.675V254.307Z" fill="#999999"/>
<path d="M229.675 245.271H230.445V246.041H229.675V245.271Z" fill="#F2F2F2"/>
<path d="M229.675 236.234H230.445V237.004H229.675V236.234Z" fill="#F2F2F2"/>
<path d="M229.675 227.198H230.445V227.968H229.675V227.198Z" fill="#E6E6E6"/>
<path d="M229.675 218.162H230.445V218.932H229.675V218.162Z" fill="#B3B3B3"/>
<path d="M229.675 209.126H230.445V209.896H229.675V209.126Z" fill="#F2F2F2"/>
<path d="M229.675 200.09H230.445V200.86H229.675V200.09Z" fill="#E6E6E6"/>
<path d="M229.675 191.054H230.445V191.824H229.675V191.054Z" fill="#F2F2F2"/>
<path d="M229.675 182.018H230.445V182.788H229.675V182.018Z" fill="#E6E6E6"/>
<path d="M229.675 172.98H230.445V173.75H229.675V172.98Z" fill="#808080"/>
<path d="M229.675 163.944H230.445V164.714H229.675V163.944Z" fill="#CCCCCC"/>
<path d="M229.675 154.908H230.445V155.678H229.675V154.908Z" fill="#B3B3B3"/>
<path d="M229.675 145.872H230.445V146.642H229.675V145.872Z" fill="#999999"/>
<path d="M229.675 136.836H230.445V137.606H229.675V136.836Z" fill="#999999"/>
<path d="M229.675 127.8H230.445V128.57H229.675V127.8Z" fill="#E6E6E6"/>
<path d="M229.675 118.764H230.445V119.534H229.675V118.764Z" fill="#808080"/>
<path d="M229.668 299.488H230.438V300.258H229.668V299.488Z" fill="#F2F2F2"/>
<path d="M229.668 290.452H230.438V291.222H229.668V290.452Z" fill="#999999"/>
<path d="M229.668 281.416H230.438V282.186H229.668V281.416Z" fill="#B3B3B3"/>
<path d="M229.668 272.38H230.438V273.15H229.668V272.38Z" fill="#B3B3B3"/>
<path d="M229.668 263.344H230.438V264.114H229.668V263.344Z" fill="#E6E6E6"/>
<path d="M229.668 254.308H230.438V255.078H229.668V254.308Z" fill="#E6E6E6"/>
<path d="M229.668 245.271H230.438V246.041H229.668V245.271Z" fill="#F2F2F2"/>
<path d="M229.668 236.235H230.438V237.005H229.668V236.235Z" fill="#B3B3B3"/>
<path d="M229.668 227.199H230.438V227.969H229.668V227.199Z" fill="#E6E6E6"/>
<path d="M229.668 218.163H230.438V218.933H229.668V218.163Z" fill="#B3B3B3"/>
<path d="M229.668 209.127H230.438V209.897H229.668V209.127Z" fill="#999999"/>
<path d="M229.668 200.091H230.438V200.861H229.668V200.091Z" fill="#B3B3B3"/>
<path d="M229.668 191.055H230.438V191.825H229.668V191.055Z" fill="#CCCCCC"/>
<path d="M229.668 182.019H230.438V182.789H229.668V182.019Z" fill="#E6E6E6"/>
<path d="M229.668 172.982H230.438V173.752H229.668V172.982Z" fill="#E6E6E6"/>
<path d="M229.668 163.946H230.438V164.716H229.668V163.946Z" fill="#CCCCCC"/>
<path d="M229.668 154.909H230.438V155.679H229.668V154.909Z" fill="#999999"/>
<path d="M229.668 145.873H230.438V146.643H229.668V145.873Z" fill="#E6E6E6"/>
<path d="M229.668 136.837H230.438V137.607H229.668V136.837Z" fill="#F2F2F2"/>
<path d="M229.668 127.801H230.438V128.571H229.668V127.801Z" fill="#999999"/>
<path d="M239.082 299.298H240.234V300.45H239.082V299.298Z" fill="#E6E6E6"/>
<path d="M239.072 290.249H240.25V291.427H239.072V290.249Z" fill="#B3B3B3"/>
<path d="M239.062 281.199H240.266V282.402H239.062V281.199Z" fill="#999999"/>
<path d="M239.072 272.176H240.25V273.353H239.072V272.176Z" fill="#999999"/>
<path d="M239.082 263.152H240.234V264.305H239.082V263.152Z" fill="#999999"/>
<path d="M239.1 254.129H240.227V255.256H239.1V254.129Z" fill="#B3B3B3"/>
<path d="M239.11 245.105H240.211V246.207H239.11V245.105Z" fill="#999999"/>
<path d="M239.12 236.082H240.195V237.158H239.12V236.082Z" fill="#808080"/>
<path d="M239.137 227.059H240.188V228.109H239.137V227.059Z" fill="#808080"/>
<path d="M239.147 218.035H240.172V219.06H239.147V218.035Z" fill="#B3B3B3"/>
<path d="M239.157 209.012H240.156V210.011H239.157V209.012Z" fill="#808080"/>
<path d="M239.175 199.988H240.148V200.962H239.175V199.988Z" fill="#CCCCCC"/>
<path d="M239.184 190.965H240.133V191.913H239.184V190.965Z" fill="#CCCCCC"/>
<path d="M239.202 181.941H240.125V182.864H239.202V181.941Z" fill="#E6E6E6"/>
<path d="M239.212 172.918H240.109V173.815H239.212V172.918Z" fill="#B3B3B3"/>
<path d="M239.222 163.895H240.094V164.766H239.222V163.895Z" fill="#808080"/>
<path d="M239.24 154.871H240.086V155.717H239.24V154.871Z" fill="#F2F2F2"/>
<path d="M239.249 145.848H240.07V146.669H239.249V145.848Z" fill="#808080"/>
<path d="M239.267 136.824H240.062V137.62H239.267V136.824Z" fill="#808080"/>
<path d="M239.277 127.801H240.047V128.571H239.277V127.801Z" fill="#808080"/>
<path d="M248.481 299.106H250.016V300.641H248.481V299.106Z" fill="#999999"/>
<path d="M248.462 290.045H250.047V291.63H248.462V290.045Z" fill="#CCCCCC"/>
<path d="M248.434 280.982H250.07V282.619H248.434V280.982Z" fill="#F2F2F2"/>
<path d="M248.462 271.973H250.047V273.558H248.462V271.973Z" fill="#F2F2F2"/>
<path d="M248.481 262.962H250.016V264.496H248.481V262.962Z" fill="#808080"/>
<path d="M248.509 253.951H249.992V255.434H248.509V253.951Z" fill="#808080"/>
<path d="M248.536 244.94H249.969V246.373H248.536V244.94Z" fill="#CCCCCC"/>
<path d="M248.556 235.93H249.938V237.311H248.556V235.93Z" fill="#B3B3B3"/>
<path d="M248.584 226.919H249.914V228.249H248.584V226.919Z" fill="#E6E6E6"/>
<path d="M248.611 217.908H249.891V219.188H248.611V217.908Z" fill="#808080"/>
<path d="M248.639 208.897H249.867V210.126H248.639V208.897Z" fill="#CCCCCC"/>
<path d="M248.658 199.887H249.836V201.064H248.658V199.887Z" fill="#B3B3B3"/>
<path d="M248.686 190.876H249.812V192.003H248.686V190.876Z" fill="#808080"/>
<path d="M248.713 181.865H249.789V182.941H248.713V181.865Z" fill="#999999"/>
<path d="M248.741 172.854H249.766V173.879H248.741V172.854Z" fill="#999999"/>
<path d="M248.76 163.844H249.734V164.818H248.76V163.844Z" fill="#808080"/>
<path d="M248.788 154.833H249.711V155.756H248.788V154.833Z" fill="#808080"/>
<path d="M248.816 145.822H249.688V146.694H248.816V145.822Z" fill="#B3B3B3"/>
<path d="M248.843 136.812H249.664V137.632H248.843V136.812Z" fill="#F2F2F2"/>
<path d="M248.863 127.801H249.633V128.571H248.863V127.801Z" fill="#999999"/>
<path d="M257.933 307.989H259.773V309.829H257.933V307.989Z" fill="#999999"/>
<path d="M257.896 298.915H259.812V300.832H257.896V298.915Z" fill="#CCCCCC"/>
<path d="M257.859 289.841H259.852V291.834H257.859V289.841Z" fill="#999999"/>
<path d="M257.821 280.767H259.891V282.836H257.821V280.767Z" fill="#808080"/>
<path d="M257.859 271.769H259.852V273.761H257.859V271.769Z" fill="#CCCCCC"/>
<path d="M257.896 262.771H259.812V264.687H257.896V262.771Z" fill="#E6E6E6"/>
<path d="M257.933 253.772H259.773V255.612H257.933V253.772Z" fill="#F2F2F2"/>
<path d="M257.971 244.774H259.734V246.538H257.971V244.774Z" fill="#E6E6E6"/>
<path d="M258.008 235.776H259.695V237.464H258.008V235.776Z" fill="#B3B3B3"/>
<path d="M258.053 226.778H259.664V228.389H258.053V226.778Z" fill="#CCCCCC"/>
<path d="M258.091 217.78H259.625V219.315H258.091V217.78Z" fill="#F2F2F2"/>
<path d="M258.128 208.783H259.586V210.241H258.128V208.783Z" fill="#CCCCCC"/>
<path d="M258.165 199.785H259.547V201.167H258.165V199.785Z" fill="#CCCCCC"/>
<path d="M258.203 190.787H259.508V192.092H258.203V190.787Z" fill="#CCCCCC"/>
<path d="M258.24 181.789H259.469V183.018H258.24V181.789Z" fill="#B3B3B3"/>
<path d="M258.277 172.791H259.43V173.943H258.277V172.791Z" fill="#999999"/>
<path d="M258.315 163.793H259.391V164.869H258.315V163.793Z" fill="#E6E6E6"/>
<path d="M258.352 154.795H259.352V155.794H258.352V154.795Z" fill="#F2F2F2"/>
<path d="M258.397 145.797H259.32V146.72H258.397V145.797Z" fill="#CCCCCC"/>
<path d="M258.435 136.799H259.281V137.645H258.435V136.799Z" fill="#B3B3B3"/>
<path d="M258.472 127.801H259.242V128.571H258.472V127.801Z" fill="#CCCCCC"/>
<path d="M267.366 307.812H269.562V310.008H267.366V307.812Z" fill="#CCCCCC"/>
<path d="M267.311 298.724H269.609V301.022H267.311V298.724Z" fill="#E6E6E6"/>
<path d="M267.264 289.637H269.664V292.037H267.264V289.637Z" fill="#B3B3B3"/>
<path d="M267.216 280.55H269.719V283.052H267.216V280.55Z" fill="#F2F2F2"/>
<path d="M267.264 271.564H269.664V273.965H267.264V271.564Z" fill="#999999"/>
<path d="M267.311 262.579H269.609V264.878H267.311V262.579Z" fill="#999999"/>
<path d="M267.366 253.594H269.562V255.791H267.366V253.594Z" fill="#F2F2F2"/>
<path d="M267.421 244.609H269.516V246.704H267.421V244.609Z" fill="#CCCCCC"/>
<path d="M267.468 235.624H269.461V237.617H267.468V235.624Z" fill="#B3B3B3"/>
<path d="M267.515 226.639H269.406V228.53H267.515V226.639Z" fill="#999999"/>
<path d="M267.57 217.653H269.359V219.442H267.57V217.653Z" fill="#CCCCCC"/>
<path d="M267.617 208.668H269.305V210.355H267.617V208.668Z" fill="#999999"/>
<path d="M267.673 199.683H269.258V201.268H267.673V199.683Z" fill="#999999"/>
<path d="M267.72 190.697H269.203V192.181H267.72V190.697Z" fill="#E6E6E6"/>
<path d="M267.775 181.713H269.156V183.094H267.775V181.713Z" fill="#808080"/>
<path d="M267.822 172.728H269.102V174.007H267.822V172.728Z" fill="#F2F2F2"/>
<path d="M267.877 163.742H269.055V164.92H267.877V163.742Z" fill="#808080"/>
<path d="M267.924 154.757H269V155.833H267.924V154.757Z" fill="#999999"/>
<path d="M267.979 145.771H268.953V146.745H267.979V145.771Z" fill="#E6E6E6"/>
<path d="M268.026 136.786H268.898V137.658H268.026V136.786Z" fill="#F2F2F2"/>
<path d="M268.082 127.801H268.852V128.571H268.082V127.801Z" fill="#F2F2F2"/>
<path d="M276.775 307.633H279.328V310.186H276.775V307.633Z" fill="#CCCCCC"/>
<path d="M276.71 298.533H279.391V301.214H276.71V298.533Z" fill="#B3B3B3"/>
<path d="M276.653 289.434H279.461V292.242H276.653V289.434Z" fill="#E6E6E6"/>
<path d="M276.588 280.333H279.523V283.269H276.588V280.333Z" fill="#E6E6E6"/>
<path d="M276.653 271.361H279.461V274.17H276.653V271.361Z" fill="#999999"/>
<path d="M276.71 262.389H279.391V265.07H276.71V262.389Z" fill="#F2F2F2"/>
<path d="M276.775 253.416H279.328V255.969H276.775V253.416Z" fill="#B3B3B3"/>
<path d="M276.84 244.443H279.266V246.869H276.84V244.443Z" fill="#F2F2F2"/>
<path d="M276.904 235.471H279.203V237.769H276.904V235.471Z" fill="#F2F2F2"/>
<path d="M276.969 226.498H279.141V228.669H276.969V226.498Z" fill="#E6E6E6"/>
<path d="M277.034 217.525H279.078V219.569H277.034V217.525Z" fill="#CCCCCC"/>
<path d="M277.091 208.554H279.008V210.47H277.091V208.554Z" fill="#B3B3B3"/>
<path d="M277.156 199.581H278.945V201.37H277.156V199.581Z" fill="#E6E6E6"/>
<path d="M277.221 190.608H278.883V192.27H277.221V190.608Z" fill="#CCCCCC"/>
<path d="M277.286 181.636H278.82V183.17H277.286V181.636Z" fill="#E6E6E6"/>
<path d="M277.351 172.663H278.758V174.07H277.351V172.663Z" fill="#B3B3B3"/>
<path d="M277.416 163.691H278.695V164.971H277.416V163.691Z" fill="#E6E6E6"/>
<path d="M277.481 154.719H278.633V155.871H277.481V154.719Z" fill="#808080"/>
<path d="M277.538 145.746H278.562V146.771H277.538V145.746Z" fill="#CCCCCC"/>
<path d="M277.603 136.773H278.5V137.671H277.603V136.773Z" fill="#E6E6E6"/>
<path d="M277.668 127.801H278.438V128.571H277.668V127.801Z" fill="#808080"/>
<path d="M286.207 307.455H289.117V310.365H286.207V307.455Z" fill="#CCCCCC"/>
<path d="M286.124 298.342H289.188V301.405H286.124V298.342Z" fill="#E6E6E6"/>
<path d="M286.05 289.229H289.266V292.445H286.05V289.229Z" fill="#E6E6E6"/>
<path d="M285.975 280.116H289.344V283.485H285.975V280.116Z" fill="#B3B3B3"/>
<path d="M286.05 271.157H289.266V274.373H286.05V271.157Z" fill="#808080"/>
<path d="M286.124 262.197H289.188V265.26H286.124V262.197Z" fill="#CCCCCC"/>
<path d="M286.207 253.237H289.117V256.147H286.207V253.237Z" fill="#E6E6E6"/>
<path d="M286.282 244.277H289.039V247.035H286.282V244.277Z" fill="#F2F2F2"/>
<path d="M286.356 235.318H288.961V237.923H286.356V235.318Z" fill="#E6E6E6"/>
<path d="M286.431 226.358H288.883V228.81H286.431V226.358Z" fill="#B3B3B3"/>
<path d="M286.506 217.398H288.805V219.697H286.506V217.398Z" fill="#999999"/>
<path d="M286.589 208.438H288.734V210.584H286.589V208.438Z" fill="#B3B3B3"/>
<path d="M286.663 199.479H288.656V201.472H286.663V199.479Z" fill="#CCCCCC"/>
<path d="M286.738 190.52H288.578V192.36H286.738V190.52Z" fill="#F2F2F2"/>
<path d="M286.813 181.56H288.5V183.247H286.813V181.56Z" fill="#E6E6E6"/>
<path d="M286.895 172.6H288.43V174.134H286.895V172.6Z" fill="#F2F2F2"/>
<path d="M286.97 163.64H288.352V165.021H286.97V163.64Z" fill="#F2F2F2"/>
<path d="M287.045 154.681H288.273V155.909H287.045V154.681Z" fill="#999999"/>
<path d="M287.12 145.721H288.195V146.796H287.12V145.721Z" fill="#999999"/>
<path d="M287.194 136.761H288.117V137.684H287.194V136.761Z" fill="#999999"/>
<path d="M287.277 127.801H288.047V128.571H287.277V127.801Z" fill="#999999"/>
<path d="M-0.746562 109.727H0.0234375V110.497H-0.746562V109.727Z" fill="#E6E6E6"/>
<path d="M-0.848892 100.588H0.125V101.562H-0.848892V100.588Z" fill="#F2F2F2"/>
<path d="M-0.951072 91.4502H0.226562V92.6278H-0.951072V91.4502Z" fill="#CCCCCC"/>
<path d="M-1.0534 82.3115H0.328125V83.6931H-1.0534V82.3115Z" fill="#CCCCCC"/>
<path d="M-1.15558 73.1738H0.429688V74.7591H-1.15558V73.1738Z" fill="#F2F2F2"/>
<path d="M-1.25012 64.0361H0.539062V65.8253H-1.25012V64.0361Z" fill="#B3B3B3"/>
<path d="M-1.36011 54.8975H0.632812V56.8904H-1.36011V54.8975Z" fill="#F2F2F2"/>
<path d="M-1.45462 45.7598H0.742188V47.9566H-1.45462V45.7598Z" fill="#999999"/>
<path d="M-1.5568 36.6211H0.84375V39.0216H-1.5568V36.6211Z" fill="#E6E6E6"/>
<path d="M-1.65913 27.4834H0.945312V30.0878H-1.65913V27.4834Z" fill="#999999"/>
<path d="M-1.76131 18.3457H1.04688V21.1539H-1.76131V18.3457Z" fill="#F2F2F2"/>
<path d="M-1.86364 9.20703H1.14844V12.2191H-1.86364V9.20703Z" fill="#CCCCCC"/>
<path d="M-1.96582 0.0693359H1.25V3.28516H-1.96582V0.0693359Z" fill="#CCCCCC"/>
<path d="M8.855 109.727H9.625V110.497H8.855V109.727Z" fill="#CCCCCC"/>
<path d="M8.76261 100.601H9.71094V101.549H8.76261V100.601Z" fill="#B3B3B3"/>
<path d="M8.67802 91.4756H9.80469V92.6022H8.67802V91.4756Z" fill="#F2F2F2"/>
<path d="M8.58563 82.3496H9.89062V83.6546H8.58563V82.3496Z" fill="#808080"/>
<path d="M8.50105 73.2246H9.98438V74.7079H8.50105V73.2246Z" fill="#B3B3B3"/>
<path d="M8.40865 64.0996H10.0703V65.7613H8.40865V64.0996Z" fill="#F2F2F2"/>
<path d="M8.32407 54.9746H10.1641V56.8146H8.32407V54.9746Z" fill="#999999"/>
<path d="M8.23153 45.8486H10.25V47.8671H8.23153V45.8486Z" fill="#E6E6E6"/>
<path d="M8.13913 36.7236H10.3359V38.9204H8.13913V36.7236Z" fill="#CCCCCC"/>
<path d="M8.05455 27.5977H10.4297V29.9728H8.05455V27.5977Z" fill="#808080"/>
<path d="M7.96214 18.4727H10.5156V21.0261H7.96214V18.4727Z" fill="#CCCCCC"/>
<path d="M7.87757 9.34766H10.6094V12.0795H7.87757V9.34766Z" fill="#E6E6E6"/>
<path d="M7.78518 0.22168H10.6953V3.13182H7.78518V0.22168Z" fill="#F2F2F2"/>
<path d="M18.4488 109.727H19.2188V110.497H18.4488V109.727Z" fill="#CCCCCC"/>
<path d="M18.3739 100.613H19.2969V101.536H18.3739V100.613Z" fill="#E6E6E6"/>
<path d="M18.2993 91.501H19.375V92.5767H18.2993V91.501Z" fill="#B3B3B3"/>
<path d="M18.2245 82.3887H19.4531V83.6173H18.2245V82.3887Z" fill="#808080"/>
<path d="M18.1419 73.2754H19.5234V74.6569H18.1419V73.2754Z" fill="#CCCCCC"/>
<path d="M18.0673 64.1631H19.6016V65.6974H18.0673V64.1631Z" fill="#CCCCCC"/>
<path d="M17.9925 55.0508H19.6797V56.738H17.9925V55.0508Z" fill="#999999"/>
<path d="M17.9177 45.9375H19.7578V47.7776H17.9177V45.9375Z" fill="#808080"/>
<path d="M17.8352 36.8252H19.8281V38.8181H17.8352V36.8252Z" fill="#999999"/>
<path d="M17.7604 27.7129H19.9062V29.8587H17.7604V27.7129Z" fill="#999999"/>
<path d="M17.6858 18.6006H19.9844V20.8992H17.6858V18.6006Z" fill="#B3B3B3"/>
<path d="M17.611 9.4873H20.0625V11.9388H17.611V9.4873Z" fill="#F2F2F2"/>
<path d="M17.5362 0.375H20.1406V2.97945H17.5362V0.375Z" fill="#808080"/>
<path d="M28.0503 109.727H28.8203V110.497H28.0503V109.727Z" fill="#F2F2F2"/>
<path d="M27.9933 100.626H28.8906V101.523H27.9933V100.626Z" fill="#E6E6E6"/>
<path d="M27.9284 91.5264H28.9531V92.5512H27.9284V91.5264Z" fill="#B3B3B3"/>
<path d="M27.8634 82.4268H29.0156V83.579H27.8634V82.4268Z" fill="#E6E6E6"/>
<path d="M27.7985 73.3262H29.0781V74.6058H27.7985V73.3262Z" fill="#808080"/>
<path d="M27.7337 64.2266H29.1406V65.6335H27.7337V64.2266Z" fill="#CCCCCC"/>
<path d="M27.6688 55.127H29.2031V56.6613H27.6688V55.127Z" fill="#999999"/>
<path d="M27.6118 46.0273H29.2734V47.689H27.6118V46.0273Z" fill="#CCCCCC"/>
<path d="M27.5468 36.9268H29.3359V38.7159H27.5468V36.9268Z" fill="#CCCCCC"/>
<path d="M27.4819 27.8271H29.3984V29.7437H27.4819V27.8271Z" fill="#999999"/>
<path d="M27.4171 18.7275H29.4609V20.7714H27.4171V18.7275Z" fill="#999999"/>
<path d="M27.3522 9.62793H29.5234V11.7992H27.3522V9.62793Z" fill="#E6E6E6"/>
<path d="M27.2872 0.527344H29.5859V2.82595H27.2872V0.527344Z" fill="#999999"/>
<path d="M37.6519 109.727H38.4219V110.497H37.6519V109.727Z" fill="#808080"/>
<path d="M37.6046 100.639H38.4766V101.511H37.6046V100.639Z" fill="#CCCCCC"/>
<path d="M37.5495 91.5518H38.5234V92.5257H37.5495V91.5518Z" fill="#E6E6E6"/>
<path d="M37.5024 82.4648H38.5781V83.5405H37.5024V82.4648Z" fill="#CCCCCC"/>
<path d="M37.4474 73.3779H38.625V74.5556H37.4474V73.3779Z" fill="#E6E6E6"/>
<path d="M37.4001 64.291H38.6797V65.5706H37.4001V64.291Z" fill="#CCCCCC"/>
<path d="M37.345 55.2031H38.7266V56.5847H37.345V55.2031Z" fill="#808080"/>
<path d="M37.2979 46.1162H38.7812V47.5995H37.2979V46.1162Z" fill="#808080"/>
<path d="M37.2429 37.0293H38.8281V38.6146H37.2429V37.0293Z" fill="#999999"/>
<path d="M37.1956 27.9424H38.8828V29.6296H37.1956V27.9424Z" fill="#B3B3B3"/>
<path d="M37.1483 18.8545H38.9375V20.6437H37.1483V18.8545Z" fill="#999999"/>
<path d="M37.0934 9.76758H38.9844V11.6585H37.0934V9.76758Z" fill="#B3B3B3"/>
<path d="M37.0383 0.680664H39.0312V2.67358H37.0383V0.680664Z" fill="#F2F2F2"/>
<path d="M47.2613 109.727H48.0312V110.497H47.2613V109.727Z" fill="#E6E6E6"/>
<path d="M47.2239 100.651H48.0703V101.498H47.2239V100.651Z" fill="#999999"/>
<path d="M47.1865 91.5771H48.1094V92.5001H47.1865V91.5771Z" fill="#808080"/>
<path d="M47.1491 82.5029H48.1484V83.5022H47.1491V82.5029Z" fill="#E6E6E6"/>
<path d="M47.104 73.4287H48.1797V74.5044H47.104V73.4287Z" fill="#808080"/>
<path d="M47.0665 64.3545H48.2188V65.5067H47.0665V64.3545Z" fill="#999999"/>
<path d="M47.0292 55.2803H48.2578V56.5089H47.0292V55.2803Z" fill="#E6E6E6"/>
<path d="M46.9919 46.2061H48.2969V47.5111H46.9919V46.2061Z" fill="#CCCCCC"/>
<path d="M46.9544 37.1309H48.3359V38.5124H46.9544V37.1309Z" fill="#E6E6E6"/>
<path d="M46.9171 28.0566H48.375V29.5146H46.9171V28.0566Z" fill="#F2F2F2"/>
<path d="M46.8798 18.9824H48.4141V20.5167H46.8798V18.9824Z" fill="#CCCCCC"/>
<path d="M46.8423 9.9082H48.4531V11.519H46.8423V9.9082Z" fill="#B3B3B3"/>
<path d="M46.805 0.833984H48.4922V2.52121H46.805V0.833984Z" fill="#CCCCCC"/>
<path d="M56.8628 109.727H57.6328V110.497H56.8628V109.727Z" fill="#808080"/>
<path d="M56.8353 100.665H57.6562V101.486H56.8353V100.665Z" fill="#B3B3B3"/>
<path d="M56.8077 91.6025H57.6797V92.4745H56.8077V91.6025Z" fill="#B3B3B3"/>
<path d="M56.788 82.541H57.7109V83.4639H56.788V82.541Z" fill="#999999"/>
<path d="M56.7605 73.4795H57.7344V74.4534H56.7605V73.4795Z" fill="#B3B3B3"/>
<path d="M56.7331 64.418H57.7578V65.4427H56.7331V64.418Z" fill="#B3B3B3"/>
<path d="M56.7056 55.3564H57.7812V56.4321H56.7056V55.3564Z" fill="#808080"/>
<path d="M56.678 46.2949H57.8047V47.4216H56.678V46.2949Z" fill="#F2F2F2"/>
<path d="M56.6583 37.2334H57.8359V38.411H56.6583V37.2334Z" fill="#CCCCCC"/>
<path d="M56.6308 28.1709H57.8594V29.3995H56.6308V28.1709Z" fill="#B3B3B3"/>
<path d="M56.6032 19.1094H57.8828V20.389H56.6032V19.1094Z" fill="#CCCCCC"/>
<path d="M56.5835 10.0479H57.9141V11.3784H56.5835V10.0479Z" fill="#F2F2F2"/>
<path d="M56.556 0.986328H57.9375V2.36786H56.556V0.986328Z" fill="#CCCCCC"/>
<path d="M66.4566 109.727H67.2266V110.497H66.4566V109.727Z" fill="#999999"/>
<path d="M66.4466 100.678H67.2422V101.473H66.4466V100.678Z" fill="#999999"/>
<path d="M66.429 91.6279H67.25V92.4489H66.429V91.6279Z" fill="#CCCCCC"/>
<path d="M66.4192 82.5791H67.2656V83.4255H66.4192V82.5791Z" fill="#999999"/>
<path d="M66.4015 73.5303H67.2734V74.4022H66.4015V73.5303Z" fill="#CCCCCC"/>
<path d="M66.3917 64.4814H67.2891V65.3788H66.3917V64.4814Z" fill="#B3B3B3"/>
<path d="M66.3818 55.4326H67.3047V56.3555H66.3818V55.4326Z" fill="#808080"/>
<path d="M66.3642 46.3838H67.3125V47.3321H66.3642V46.3838Z" fill="#B3B3B3"/>
<path d="M66.3542 37.335H67.3281V38.3089H66.3542V37.335Z" fill="#808080"/>
<path d="M66.3444 28.2861H67.3438V29.2854H66.3444V28.2861Z" fill="#999999"/>
<path d="M66.3269 19.2373H67.3516V20.262H66.3269V19.2373Z" fill="#B3B3B3"/>
<path d="M66.3169 10.1885H67.3672V11.2388H66.3169V10.1885Z" fill="#F2F2F2"/>
<path d="M66.2993 1.13965H67.375V2.21534H66.2993V1.13965Z" fill="#E6E6E6"/>
<path d="M76.0581 109.727H76.8281V110.497H76.0581V109.727Z" fill="#999999"/>
<path d="M76.0581 100.69H76.8281V101.46H76.0581V100.69Z" fill="#CCCCCC"/>
<path d="M76.0581 91.6543H76.8281V92.4243H76.0581V91.6543Z" fill="#999999"/>
<path d="M76.0581 82.6182H76.8281V83.3882H76.0581V82.6182Z" fill="#F2F2F2"/>
<path d="M76.0581 73.5811H76.8281V74.3511H76.0581V73.5811Z" fill="#E6E6E6"/>
<path d="M76.0581 64.5459H76.8281V65.3159H76.0581V64.5459Z" fill="#F2F2F2"/>
<path d="M76.0581 55.5088H76.8281V56.2788H76.0581V55.5088Z" fill="#F2F2F2"/>
<path d="M76.0581 46.4727H76.8281V47.2427H76.0581V46.4727Z" fill="#B3B3B3"/>
<path d="M76.0581 37.4365H76.8281V38.2065H76.0581V37.4365Z" fill="#999999"/>
<path d="M76.0581 28.4004H76.8281V29.1704H76.0581V28.4004Z" fill="#999999"/>
<path d="M76.0581 19.3643H76.8281V20.1343H76.0581V19.3643Z" fill="#808080"/>
<path d="M76.0581 10.3281H76.8281V11.0981H76.0581V10.3281Z" fill="#B3B3B3"/>
<path d="M76.0581 1.29199H76.8281V2.06199H76.0581V1.29199Z" fill="#E6E6E6"/>
</g>
</g>
</g>
<defs>
<clipPath id="clip0_5822_139635">
<rect width="288" height="308" fill="white" transform="matrix(-1 0 0 1 288 0)"/>
</clipPath>
</defs>
</svg>
