<svg width="144" height="111" viewBox="0 0 144 111" fill="none" xmlns="http://www.w3.org/2000/svg">
<g clip-path="url(#clip0_10234_116828)">
<path d="M72.1469 0V6C72.6469 6.5 74.1469 6.3 74.8469 6.5C83.1469 8.8 86.3469 17.1 86.8469 25H92.5469V19.5C92.5469 19.5 93.0469 19 93.2469 19V70.7L97.9469 72.7V73C97.8469 75.2 97.7469 77.3 97.6469 79.3C97.1469 80 95.1469 79.5 94.9469 79.6V106.3C95.3469 106.3 96.8469 106.2 96.9469 106.3C97.0469 106.4 96.8469 109.7 96.9469 110.3H84.6469C84.7469 109.7 84.5469 106.4 84.6469 106.3C84.7469 106.2 86.5469 106.3 86.9469 106.3V79.6C86.9469 79.4 84.0469 79.7 83.6469 79.6V78.9H96.9469V72.9H46.8469C46.5469 74.9 46.5469 76.9 46.8469 78.9L78.5469 79.2C71.0469 79.2 63.7469 79.4 56.5469 79.5C56.5469 88.3 56.7469 97.2 56.8469 106.2C57.2469 106.3 58.7469 106.1 58.8469 106.2C58.9469 106.3 58.7469 109.6 58.8469 110.2H46.4469C46.5469 109.6 46.3469 106.3 46.4469 106.2C46.5469 106.1 48.3469 106.2 48.7469 106.2V79.5C48.7469 79.4 46.4469 79.5 46.0469 79.5V72.2C46.7469 72.2 50.3469 70.3 50.3469 70V19.5C50.3469 19.5 50.8469 19 51.0469 19V25H56.7469C56.9469 15.9 61.4469 6.7 71.3469 6V0H72.0469H72.1469ZM86.1469 25.3C85.7469 22.7 85.6469 20.3 84.9469 17.7C82.4469 9.6 74.6469 4.4 66.4469 8C58.2469 11.6 57.6469 18.5 57.9469 25L86.2469 25.3H86.1469ZM51.1469 26V34H56.8469C57.1469 31.6 56.4469 28.3 56.8469 26C57.2469 23.7 57.2469 26 57.1469 25.7C55.2469 25.9 52.9469 25.3 51.1469 26ZM58.1469 26H57.4469V47H86.1469V26H58.1469ZM87.1469 26C86.9469 26 86.9469 26.2 86.8469 26.3C86.4469 26.8 86.5469 26.9 86.4469 27.4C86.3469 28.8 86.2469 32.1 86.4469 33.4C86.6469 34.7 86.4469 33.8 86.7469 33.9C87.9469 34.3 90.9469 33.6 92.4469 33.9C92.7469 33.6 92.2469 27.1 92.4469 25.9C92.6469 24.7 92.8469 25.9 92.7469 25.6C90.9469 25.8 88.7469 25.2 87.0469 25.9L87.1469 26ZM51.1469 34.7V42.7H56.8469V34.7C55.2469 34.1 52.7469 34.1 51.1469 34.7ZM86.8469 34.7C86.2469 35.3 86.4469 39.7 86.5469 40.9C86.6469 42.1 86.3469 42.4 86.8469 42.7H92.5469V34.7C91.5469 34.2 87.4469 34.1 86.8469 34.7ZM51.1469 43.3V51H56.8469V43.3C55.3469 42.7 52.7469 42.7 51.1469 43.3ZM86.8469 43.3C86.2469 43.9 86.3469 46.6 86.8469 47.3C86.8469 47.4 86.8469 47.5 86.8469 47.6C86.2469 48.2 86.3469 50.8 86.8469 50.9C87.9469 51.3 91.1469 50.6 92.5469 50.9V43.2C91.5469 42.7 87.4469 42.6 86.8469 43.2V43.3ZM58.1469 48C57.9469 48 57.4469 47.8 57.4469 48.2V68L71.6469 63.7L85.6469 68.1L86.1469 67.6V48.1H58.1469V48ZM56.8469 51.7H51.1469V59.4H56.8469V51.7ZM86.8469 52.3C86.0469 54.4 86.8469 57.4 86.5469 59.6C86.8469 59.6 86.8469 59.3 86.8469 59.3C88.5469 59 90.7469 59.5 92.5469 59.3V51.6H87.0469C86.6469 51.6 86.9469 52.1 86.8469 52.3ZM51.1469 60.3L51.3469 70L56.7469 68.3C57.1469 67.7 56.5469 61.8 56.7469 60.3C56.9469 58.8 57.1469 60.3 57.0469 60C55.1469 60.2 52.8469 59.6 51.0469 60.3H51.1469ZM87.1469 60.3C86.9469 60.3 86.9469 60.5 86.8469 60.6C86.4469 61.1 86.5469 61.2 86.4469 61.7C86.4469 62.8 86.2469 67.7 86.8469 68.2C87.4469 68.7 91.3469 69.7 92.5469 70.2C92.8469 69.8 92.3469 61.7 92.5469 60.2C92.7469 58.7 92.9469 60.2 92.8469 59.9C91.0469 60.1 88.8469 59.5 87.1469 60.2V60.3ZM48.9469 72.3C63.7469 71.8 79.0469 72.3 93.9469 72.3C108.847 72.3 95.3469 73.3 95.1469 72L71.6469 64.3C64.7469 66.8 57.4469 68.4 50.7469 71.1C44.0469 73.8 48.4469 71.9 48.5469 72.5C48.5469 73 48.9469 72.3 49.0469 72.3H48.9469ZM49.4469 79.7V106.4H55.7469V79.7C53.9469 79.1 51.2469 79.1 49.4469 79.7ZM87.4469 106.3H94.1469V79.6H87.4469V106.3ZM49.4469 107H47.1469V109.7H58.1469V107H56.1469C54.2469 106.4 51.3469 106.4 49.4469 107ZM85.1469 107V109.7H96.1469V107H94.4469C92.1469 106.4 89.3469 106.6 86.9469 106.7C84.5469 106.8 85.4469 106.5 85.1469 107Z" fill="#737678"/>
<path d="M97.8465 79.3H97.5465C97.7465 77.3 97.1465 74.9 97.8465 73V79.3Z" fill="#BFC1C1"/>
<path d="M78.4453 79.2996C78.3453 79.8996 77.4453 79.5996 76.9453 79.5996C70.2453 79.8996 63.4453 79.3996 56.7453 79.5996H56.4453C56.7453 78.9996 57.7453 79.2996 58.2453 79.2996C64.9453 79.2996 71.7453 79.2996 78.4453 79.2996Z" fill="#8A8E8E"/>
<path d="M46.8484 79C46.2484 77.3 46.2484 74.7 46.8484 73V79Z" fill="#9C9D9F"/>
<path d="M94.4484 107H85.1484C85.5484 106.5 86.4484 106.7 86.9484 106.7C89.3484 106.7 92.1484 106.5 94.4484 107Z" fill="#AEB0B0"/>
<path d="M56.8452 106.3C55.5452 105.9 57.1452 82.4996 56.5452 79.5996H56.8452V106.3Z" fill="#BFC1C1"/>
<path d="M56.1453 107H49.4453C51.3453 106.4 54.1453 106.4 56.1453 107Z" fill="#AEB0B0"/>
<path d="M55.8453 79.7H49.4453C51.2453 79.1 53.9453 79.1 55.7453 79.7H55.8453Z" fill="#8A8E8E"/>
<path d="M78.8477 110.7H78.5477C74.4477 110.3 69.6477 110.3 65.5477 110.7H64.8477V91.6997C66.9477 84.8997 76.7477 84.6997 78.7477 91.6997V110.7H78.8477ZM65.4477 92.9997C65.4477 93.1997 65.1477 93.4997 65.0477 94.0997C64.6477 98.9997 65.4477 104.5 65.0477 109.5L65.3477 110H78.0477V92.1997C78.0477 91.7997 76.5477 89.0997 76.1477 88.6997C73.7477 86.4997 69.7477 86.8997 67.3477 88.8997C64.9477 90.8997 65.6477 91.2997 65.3477 93.0997L65.4477 92.9997Z" fill="#737678"/>
<path d="M78.4492 110.699H65.4492C65.7492 110.099 66.7492 110.399 67.2492 110.399C70.3492 110.399 73.4492 110.399 76.5492 110.399C79.6492 110.399 78.0492 110.199 78.3492 110.699H78.4492Z" fill="#9C9D9F"/>
<path d="M65.4479 110L65.1479 109.5C65.5479 104.5 64.6479 98.9999 65.1479 94.0999C65.6479 89.1999 65.4479 93.1999 65.5479 92.9999V110H65.4479Z" fill="#8A8E8E"/>
<path d="M86.8477 42.7002C86.2477 42.4002 86.5477 41.4002 86.5477 40.9002C86.5477 39.7002 86.2477 35.3002 86.8477 34.7002V42.7002Z" fill="#AEAEB0"/>
<path d="M86.8468 68.3002C86.3468 67.7002 86.3468 62.9002 86.4468 61.8002C86.5468 60.7002 86.4468 61.2002 86.8468 60.7002V68.4002V68.3002Z" fill="#AEAEB0"/>
<path d="M86.8491 34.0004C86.5491 33.9004 86.5491 33.9004 86.5491 33.5004C86.3491 32.1004 86.4491 28.9004 86.5491 27.5004C86.6491 26.1004 86.5491 26.9004 86.9491 26.4004V34.1004L86.8491 34.0004Z" fill="#AEAEB0"/>
<path d="M86.8471 59.3008C86.8471 59.3008 86.8471 59.7008 86.5471 59.6008C86.7471 57.3008 86.0471 54.3008 86.8471 52.3008V59.3008Z" fill="#AEAEB0"/>
<path d="M51.1484 60.3002C52.9484 59.5002 55.2484 60.2002 57.1484 60.0002C57.1484 60.3002 56.8484 60.3002 56.8484 60.3002H51.1484Z" fill="#BEC0C0"/>
<path d="M51.1484 26.0004C52.9484 25.2004 55.2484 25.9004 57.1484 25.7004C57.1484 26.0004 56.8484 26.0004 56.8484 26.0004H51.1484Z" fill="#BEC0C0"/>
<path d="M92.45 43.3001H86.75C87.35 42.7001 91.45 42.8001 92.45 43.3001Z" fill="#8A8E8E"/>
<path d="M56.8484 43.3006H51.1484C52.7484 42.7006 55.2484 42.7006 56.8484 43.3006Z" fill="#8A8E8E"/>
<path d="M87.1484 60.3002C88.8484 59.5002 91.0484 60.2002 92.8484 60.0002C92.8484 60.3002 92.5484 60.3002 92.5484 60.3002C90.9484 60.5002 88.6484 60.0002 87.2484 60.3002H87.1484Z" fill="#BEC0C0"/>
<path d="M92.45 34.7005H86.75C87.35 34.1005 91.45 34.2005 92.45 34.7005Z" fill="#8A8E8E"/>
<path d="M56.8484 34.7H51.1484C52.6484 34.1 55.2484 34.1 56.8484 34.7Z" fill="#8A8E8E"/>
<path d="M87.1484 26.0004C88.8484 25.2004 91.0484 25.9004 92.8484 25.7004C92.8484 26.0004 92.5484 26.0004 92.5484 26.0004C90.9484 26.2004 88.6484 25.7004 87.2484 26.0004H87.1484Z" fill="#BEC0C0"/>
<path d="M86.8469 47.3008C86.3469 46.6008 86.2469 43.9008 86.8469 43.3008C86.8469 44.6008 86.8469 46.0008 86.8469 47.3008Z" fill="#AEAEB0"/>
<path d="M86.8469 51.0002C86.3469 50.8002 86.2469 48.2002 86.8469 47.7002V51.0002Z" fill="#AEAEB0"/>
<path d="M75.1484 53.0008C75.4484 55.6008 75.4484 58.1008 75.1484 60.7008C73.7484 61.2008 69.8484 60.4008 68.1484 60.7008V52.9008C68.1484 52.5008 69.4484 51.2008 69.9484 51.0008C72.2484 50.1008 74.4484 50.6008 75.1484 53.1008V53.0008ZM74.8484 60.0008V53.5008C74.8484 50.5008 68.8484 50.9008 68.8484 53.2008V60.0008H74.8484Z" fill="#757879"/>
<path d="M75.1484 60.701V53.001C75.6484 54.601 75.7484 58.501 75.4484 60.201C75.1484 61.901 75.4484 60.601 75.1484 60.701Z" fill="#9E9FA1"/>
<path d="M71.4477 44.7004L76.6477 42.0004C79.2477 39.2004 79.4477 35.5004 77.1477 32.5004C72.8477 26.8004 64.0477 30.3004 64.8477 37.3004C63.8477 37.6004 64.1477 36.5004 64.1477 35.8004C64.4477 30.7004 69.9477 27.6004 74.6477 29.7004C82.5477 33.2004 80.0477 44.7004 71.5477 44.7004H71.4477Z" fill="#747779"/>
<path d="M72.4461 33.7006V38.5006C72.4461 39.2006 68.7461 39.2006 68.7461 38.5006C68.7461 37.8006 71.6461 38.1006 71.7461 38.0006C71.8461 37.9006 71.7461 34.8006 71.7461 34.2006C71.7461 33.6006 71.6461 33.7006 72.4461 33.7006Z" fill="#737678"/>
</g>
<defs>
<clipPath id="clip0_10234_116828">
<rect width="51.7" height="110.7" fill="white" transform="translate(46.1484)"/>
</clipPath>
</defs>
</svg>
