<svg width="120" height="120" viewBox="0 0 120 120" fill="none" xmlns="http://www.w3.org/2000/svg">
<path d="M39.4453 75.1045L35.0724 77.1759" stroke="white" stroke-width="0.5" stroke-linecap="round" stroke-linejoin="round"/>
<path d="M82.4219 110.375H75.0569" stroke="white" stroke-width="0.5" stroke-linecap="round" stroke-linejoin="round"/>
<path d="M80.7588 75.334C82.6463 76.098 83.1867 76.2959 85.0742 77.0599V83.6769H82.3699V110.375H84.2687V113.885H72.8185V110.375H75.0625V83.6769H71.7828" stroke="white" stroke-width="0.5" stroke-linecap="round" stroke-linejoin="round"/>
<path d="M82.4219 83.6768H75.0569" stroke="white" stroke-width="0.5" stroke-linecap="round" stroke-linejoin="round"/>
<path d="M66.4317 83.6186H44.7971M44.7971 83.6186V110.374M44.7971 83.6186H37.8925M44.7971 110.374H47.0411V113.884H35.4759V110.374H37.8925M44.7971 110.374H37.8925M85.0742 77.1742H35.0731V83.6186H37.8925M37.8925 83.6186V110.374M45.7753 52.375V73.089" stroke="white" stroke-width="0.5" stroke-linecap="round" stroke-linejoin="round"/>
<path d="M74.3164 52.3193V73.0908" stroke="white" stroke-width="0.5" stroke-linecap="round" stroke-linejoin="round"/>
<path d="M74.3096 30.8561L45.7704 30.799M74.3096 30.8561V52.3763H45.7704V30.799M74.3096 30.8561C74.3096 18.6007 67.1748 12.2429 60.04 12.1208M45.7704 30.799C45.7704 18.1121 52.9052 11.9986 60.04 12.1208M60.04 6V12.1208M80.7539 24.8152V75.3342L60.04 68.4296L39.4411 75.1041V24.8152" stroke="white" stroke-width="0.5" stroke-linecap="round" stroke-linejoin="round"/>
<path d="M60.3943 90.9842C65.5497 91.2143 66.7235 95.7983 66.666 98.0614V114H53.4323V98.0614C53.3402 92.2615 58.0352 90.9266 60.3943 90.9842Z" stroke="white" stroke-width="0.5" stroke-linecap="round" stroke-linejoin="round"/>
<path d="M60.1566 55.7146C62.6665 55.8078 63.238 57.6641 63.21 58.5806V65.0352H56.7673V58.5806C56.7224 56.2319 59.0082 55.6913 60.1566 55.7146Z" stroke="white" stroke-width="0.5" stroke-linecap="round" stroke-linejoin="round"/>
<path d="M52.8017 42.1337C52.1655 35.6891 61.0273 30.9795 66.0352 38.1634C68.161 41.213 67.7015 48.2325 59.9911 49.4409" stroke="white" stroke-width="0.5" stroke-linecap="round" stroke-linejoin="round"/>
<path d="M60.4453 38.9688V43.5719H57.4533" stroke="white" stroke-width="0.5" stroke-linecap="round" stroke-linejoin="round"/>
<path d="M45.6563 64.5166C43.2519 64.5166 41.9039 64.5166 39.4996 64.5166" stroke="white" stroke-width="0.5" stroke-linecap="round" stroke-linejoin="round"/>
<path d="M45.7734 56.2324H39.4442" stroke="white" stroke-width="0.5" stroke-linecap="round" stroke-linejoin="round"/>
<path d="M45.6563 47.9453C43.2519 47.9453 41.9039 47.9453 39.4996 47.9453" stroke="white" stroke-width="0.5" stroke-linecap="round" stroke-linejoin="round"/>
<path d="M45.6563 39.4297C43.2519 39.4297 41.9039 39.4297 39.4996 39.4297" stroke="white" stroke-width="0.5" stroke-linecap="round" stroke-linejoin="round"/>
<path d="M45.7734 30.7998H39.4442" stroke="white" stroke-width="0.5" stroke-linecap="round" stroke-linejoin="round"/>
<path d="M80.5273 64.5166C78.123 64.5166 76.775 64.5166 74.3707 64.5166" stroke="white" stroke-width="0.5" stroke-linecap="round" stroke-linejoin="round"/>
<path d="M80.6445 56.2324H74.3153" stroke="white" stroke-width="0.5" stroke-linecap="round" stroke-linejoin="round"/>
<path d="M80.5273 47.9453C78.123 47.9453 76.775 47.9453 74.3707 47.9453" stroke="white" stroke-width="0.5" stroke-linecap="round" stroke-linejoin="round"/>
<path d="M80.5273 39.4297C78.123 39.4297 76.775 39.4297 74.3707 39.4297" stroke="white" stroke-width="0.5" stroke-linecap="round" stroke-linejoin="round"/>
<path d="M80.6445 30.7998H74.3153" stroke="white" stroke-width="0.5" stroke-linecap="round" stroke-linejoin="round"/>
</svg>
