<svg width="288" height="150" viewBox="0 0 288 150" fill="none" xmlns="http://www.w3.org/2000/svg">
<path d="M271.07 111.571V146.793H288.001V113.747L271.07 111.571Z" fill="url(#paint0_linear_5225_92751)"/>
<path d="M286.572 140.554H272.973V142.238H286.572V140.554Z" fill="#E2E5E7"/>
<path d="M272.973 137.474L286.572 137.656V139.34L272.973 139.158V137.474Z" fill="#E2E5E7"/>
<path d="M272.973 134.394L286.572 134.757V136.441L272.973 136.078V134.394Z" fill="#E2E5E7"/>
<path d="M272.973 131.313L286.572 131.859V133.543L272.973 132.998V131.313Z" fill="#E2E5E7"/>
<path d="M272.973 128.233L286.572 128.961V130.645L272.973 129.918V128.233Z" fill="#E2E5E7"/>
<path d="M272.973 125.154L286.572 126.063V127.747L272.973 126.839V125.154Z" fill="#E2E5E7"/>
<path d="M272.973 122.073L286.572 123.164V124.848L272.973 123.758V122.073Z" fill="#E2E5E7"/>
<path d="M272.973 118.993L286.572 120.265V121.95L272.973 120.678V118.993Z" fill="#E2E5E7"/>
<path d="M272.973 115.913L286.572 117.367V119.051L272.973 117.597V115.913Z" fill="#E2E5E7"/>
<path d="M271.068 111.571V146.793H254.137V113.747L271.068 111.571Z" fill="url(#paint1_linear_5225_92751)"/>
<path d="M269.166 140.554H255.566V142.238H269.166V140.554Z" fill="#727578"/>
<path d="M269.166 137.474L255.566 137.656V139.34L269.166 139.158V137.474Z" fill="#727578"/>
<path d="M269.166 134.394L255.566 134.757V136.441L269.166 136.078V134.394Z" fill="#727578"/>
<path d="M269.166 131.313L255.566 131.859V133.543L269.166 132.998V131.313Z" fill="#727578"/>
<path d="M269.166 128.233L255.566 128.961V130.645L269.166 129.918V128.233Z" fill="#727578"/>
<path d="M269.166 125.154L255.566 126.063V127.747L269.166 126.839V125.154Z" fill="#727578"/>
<path d="M269.166 122.073L255.566 123.164V124.848L269.166 123.758V122.073Z" fill="#727578"/>
<path d="M269.166 118.993L255.566 120.265V121.95L269.166 120.678V118.993Z" fill="#727578"/>
<path d="M269.166 115.913L255.566 117.367V119.051L269.166 117.597V115.913Z" fill="#727578"/>
<path d="M270.182 147.451H255.203V52.7539L270.182 59.6872V147.451Z" fill="url(#paint2_linear_5225_92751)"/>
<path d="M268.694 142.374H256.695V144.098H268.694V142.374Z" fill="#E2E5E7"/>
<path d="M256.695 139.963L268.694 140.209V138.485L256.695 138.239V139.963Z" fill="#E2E5E7"/>
<path d="M256.695 135.829L268.694 136.322V134.598L256.695 134.105V135.829Z" fill="#E2E5E7"/>
<path d="M256.695 131.695L268.694 132.434V130.71L256.695 129.972V131.695Z" fill="#E2E5E7"/>
<path d="M256.695 127.561L268.694 128.546V126.822L256.695 125.837V127.561Z" fill="#E2E5E7"/>
<path d="M256.695 123.426L268.694 124.658V122.934L256.695 121.702V123.426Z" fill="#E2E5E7"/>
<path d="M256.695 119.291L268.694 120.769V119.045L256.695 117.567V119.291Z" fill="#E2E5E7"/>
<path d="M256.695 115.157L268.694 116.882V115.158L256.695 113.434V115.157Z" fill="#E2E5E7"/>
<path d="M256.695 111.023L268.694 112.994V111.27L256.695 109.3V111.023Z" fill="#E2E5E7"/>
<path d="M256.695 106.888L268.694 109.105V107.381L256.695 105.164V106.888Z" fill="#E2E5E7"/>
<path d="M256.695 102.754L268.694 105.217V103.494L256.695 101.03V102.754Z" fill="#E2E5E7"/>
<path d="M256.695 98.6197L268.694 101.329V99.6055L256.695 96.8955V98.6197Z" fill="#E2E5E7"/>
<path d="M256.695 94.4846L268.694 97.441V95.7171L256.695 92.7607V94.4846Z" fill="#E2E5E7"/>
<path d="M256.695 90.3517L268.694 93.5538V91.8299L256.695 88.6279V90.3517Z" fill="#E2E5E7"/>
<path d="M256.695 86.216L268.694 89.6648V87.9409L256.695 84.4922V86.216Z" fill="#E2E5E7"/>
<path d="M256.695 82.0832L268.694 85.7779V84.0541L256.695 80.3594V82.0832Z" fill="#E2E5E7"/>
<path d="M256.695 77.9474L268.694 81.8889V80.1651L256.695 76.2236V77.9474Z" fill="#E2E5E7"/>
<path d="M256.695 73.8137L268.694 78.0011V76.2773L256.695 72.0898V73.8137Z" fill="#E2E5E7"/>
<path d="M256.695 69.6799L268.694 74.1137V72.3899L256.695 67.9561V69.6799Z" fill="#E2E5E7"/>
<path d="M256.695 65.5451L268.694 70.2253V68.5015L256.695 63.8213V65.5451Z" fill="#E2E5E7"/>
<path d="M256.695 61.4103L268.694 66.3369V64.6131L256.695 59.6865V61.4103Z" fill="#E2E5E7"/>
<path d="M240.223 147.451H255.201V52.7539L240.223 59.6872V147.451Z" fill="url(#paint3_linear_5225_92751)"/>
<path d="M253.709 142.374H241.711V144.098H253.709V142.374Z" fill="#727578"/>
<path d="M253.71 139.963L241.711 140.209V138.485L253.71 138.239V139.963Z" fill="#727578"/>
<path d="M253.71 135.829L241.711 136.322V134.598L253.71 134.105V135.829Z" fill="#727578"/>
<path d="M253.71 131.695L241.711 132.434V130.71L253.71 129.972V131.695Z" fill="#727578"/>
<path d="M253.71 127.561L241.711 128.546V126.822L253.71 125.837V127.561Z" fill="#727578"/>
<path d="M253.71 123.426L241.711 124.658V122.934L253.71 121.702V123.426Z" fill="#727578"/>
<path d="M253.71 119.291L241.711 120.769V119.045L253.71 117.567V119.291Z" fill="#727578"/>
<path d="M253.71 115.157L241.711 116.882V115.158L253.71 113.434V115.157Z" fill="#727578"/>
<path d="M253.71 111.023L241.711 112.994V111.27L253.71 109.3V111.023Z" fill="#727578"/>
<path d="M253.71 106.888L241.711 109.105V107.381L253.71 105.164V106.888Z" fill="#727578"/>
<path d="M253.71 102.754L241.711 105.217V103.494L253.71 101.03V102.754Z" fill="#727578"/>
<path d="M253.71 98.6197L241.711 101.329V99.6055L253.71 96.8955V98.6197Z" fill="#727578"/>
<path d="M253.71 94.4846L241.711 97.441V95.7171L253.71 92.7607V94.4846Z" fill="#727578"/>
<path d="M253.71 90.3517L241.711 93.5538V91.8299L253.71 88.6279V90.3517Z" fill="#727578"/>
<path d="M253.71 86.216L241.711 89.6648V87.9409L253.71 84.4922V86.216Z" fill="#727578"/>
<path d="M253.71 82.0832L241.711 85.7779V84.0541L253.71 80.3594V82.0832Z" fill="#727578"/>
<path d="M253.71 77.9474L241.711 81.8889V80.1651L253.71 76.2236V77.9474Z" fill="#727578"/>
<path d="M253.71 73.8137L241.711 78.0011V76.2773L253.71 72.0898V73.8137Z" fill="#727578"/>
<path d="M253.71 69.6799L241.711 74.1137V72.3899L253.71 67.9561V69.6799Z" fill="#727578"/>
<path d="M253.71 65.5451L241.711 70.2253V68.5015L253.71 63.8213V65.5451Z" fill="#727578"/>
<path d="M253.71 61.4103L241.711 66.3369V64.6131L253.71 59.6865V61.4103Z" fill="#727578"/>
<path d="M16.6914 147.687H33.3832V108.988L16.6914 106.813V147.687Z" fill="url(#paint4_linear_5225_92751)"/>
<path d="M16.6918 147.687H0V108.988L16.6918 106.813V147.687Z" fill="url(#paint5_linear_5225_92751)"/>
<path d="M31.3707 141.727H28.582V145.073H31.3707V141.727Z" fill="#E2E5E7"/>
<path d="M28.582 135.674L31.3711 135.735V139.082L28.582 139.02V135.674Z" fill="#E2E5E7"/>
<path d="M28.582 129.621L31.3711 129.744V133.09L28.582 132.967V129.621Z" fill="#E2E5E7"/>
<path d="M28.582 123.568L31.3711 123.753V127.099L28.582 126.914V123.568Z" fill="#E2E5E7"/>
<path d="M28.582 117.517L31.3711 117.763V121.108L28.582 120.862V117.517Z" fill="#E2E5E7"/>
<path d="M28.582 111.463L31.3711 111.771V115.117L28.582 114.808V111.463Z" fill="#E2E5E7"/>
<path d="M26.4297 141.727H23.6406V145.073H26.4297V141.727Z" fill="#E2E5E7"/>
<path d="M23.6406 135.573L26.43 135.635V138.981L23.6406 138.919V135.573Z" fill="#E2E5E7"/>
<path d="M23.6406 129.419L26.43 129.542V132.888L23.6406 132.765V129.419Z" fill="#E2E5E7"/>
<path d="M23.6406 123.265L26.43 123.45V126.795L23.6406 126.611V123.265Z" fill="#E2E5E7"/>
<path d="M23.6406 117.11L26.43 117.357V120.702L23.6406 120.456V117.11Z" fill="#E2E5E7"/>
<path d="M23.6406 110.955L26.43 111.263V114.609L23.6406 114.301V110.955Z" fill="#E2E5E7"/>
<path d="M21.4883 141.727H18.6992V145.073H21.4883V141.727Z" fill="#E2E5E7"/>
<path d="M18.6992 135.473L21.4886 135.534V138.88L18.6992 138.819V135.473Z" fill="#E2E5E7"/>
<path d="M18.6992 129.219L21.4886 129.342V132.688L18.6992 132.565V129.219Z" fill="#E2E5E7"/>
<path d="M18.6992 122.965L21.4886 123.15V126.495L18.6992 126.311V122.965Z" fill="#E2E5E7"/>
<path d="M18.6992 116.711L21.4886 116.957V120.303L18.6992 120.057V116.711Z" fill="#E2E5E7"/>
<path d="M18.6992 110.457L21.4886 110.765V114.111L18.6992 113.803V110.457Z" fill="#E2E5E7"/>
<path d="M4.79685 141.727H2.00781V145.073H4.79685V141.727Z" fill="#727578"/>
<path d="M4.79723 135.674L2.00781 135.735V139.082L4.79723 139.02V135.674Z" fill="#727578"/>
<path d="M4.79723 129.621L2.00781 129.744V133.09L4.79723 132.967V129.621Z" fill="#727578"/>
<path d="M4.79723 123.568L2.00781 123.753V127.099L4.79723 126.914V123.568Z" fill="#727578"/>
<path d="M4.79723 117.517L2.00781 117.763V121.108L4.79723 120.862V117.517Z" fill="#727578"/>
<path d="M4.79723 111.463L2.00781 111.771V115.117L4.79723 114.808V111.463Z" fill="#727578"/>
<path d="M9.73826 141.727H6.94922V145.073H9.73826V141.727Z" fill="#727578"/>
<path d="M9.739 135.573L6.94922 135.635V138.981L9.739 138.919V135.573Z" fill="#727578"/>
<path d="M9.73863 129.419L6.94922 129.542V132.888L9.73863 132.765V129.419Z" fill="#727578"/>
<path d="M9.73863 123.265L6.94922 123.45V126.795L9.73863 126.611V123.265Z" fill="#727578"/>
<path d="M9.739 117.11L6.94922 117.357V120.702L9.739 120.456V117.11Z" fill="#727578"/>
<path d="M9.73863 110.955L6.94922 111.263V114.609L9.73863 114.301V110.955Z" fill="#727578"/>
<path d="M14.6754 141.727H11.8867V145.073H14.6754V141.727Z" fill="#727578"/>
<path d="M14.6758 135.473L11.8867 135.534V138.88L14.6758 138.819V135.473Z" fill="#727578"/>
<path d="M14.6758 129.219L11.8867 129.342V132.688L14.6758 132.565V129.219Z" fill="#727578"/>
<path d="M14.6758 122.965L11.8867 123.15V126.495L14.6758 126.311V122.965Z" fill="#727578"/>
<path d="M14.6758 116.711L11.8867 116.957V120.303L14.6758 120.057V116.711Z" fill="#727578"/>
<path d="M14.6758 110.457L11.8867 110.765V114.111L14.6758 113.803V110.457Z" fill="#727578"/>
<path d="M58.6718 148.767H39.6953V28.7939L58.6718 37.5785V148.767Z" fill="url(#paint6_linear_5225_92751)"/>
<path d="M56.7876 142.337H41.5859V144.521H56.7876V142.337Z" fill="#E2E5E7"/>
<path d="M41.5859 139.282L56.7876 139.594V137.41L41.5859 137.098V139.282Z" fill="#E2E5E7"/>
<path d="M41.5859 134.044L56.7876 134.669V132.485L41.5859 131.86V134.044Z" fill="#E2E5E7"/>
<path d="M41.5859 128.807L56.7876 129.743V127.559L41.5859 126.623V128.807Z" fill="#E2E5E7"/>
<path d="M41.5859 123.569L56.7872 124.817V122.633L41.5859 121.385V123.569Z" fill="#E2E5E7"/>
<path d="M41.5859 118.331L56.7876 119.892V117.708L41.5859 116.147V118.331Z" fill="#E2E5E7"/>
<path d="M41.5859 113.093L56.7876 114.966V112.781L41.5859 110.909V113.093Z" fill="#E2E5E7"/>
<path d="M41.5859 107.855L56.7872 110.04V107.856L41.5859 105.671V107.855Z" fill="#E2E5E7"/>
<path d="M41.5859 102.618L56.7876 105.114V102.93L41.5859 100.434V102.618Z" fill="#E2E5E7"/>
<path d="M41.5859 97.3794L56.7876 100.188V98.0041L41.5859 95.1953V97.3794Z" fill="#E2E5E7"/>
<path d="M41.5859 92.1408L56.7876 95.2619V93.0778L41.5859 89.957V92.1408Z" fill="#E2E5E7"/>
<path d="M41.5859 86.9048L56.7876 90.3379V88.1534L41.5859 84.7207V86.9048Z" fill="#E2E5E7"/>
<path d="M41.5859 81.6662L56.7876 85.4112V83.2271L41.5859 79.4824V81.6662Z" fill="#E2E5E7"/>
<path d="M41.5859 76.4273L56.7876 80.4843V78.3006L41.5859 74.2432V76.4273Z" fill="#E2E5E7"/>
<path d="M41.5859 71.189L56.7872 75.558V73.3742L41.5859 69.0049V71.189Z" fill="#E2E5E7"/>
<path d="M41.5859 65.9517L56.7876 70.6327V68.4489L41.5859 63.7676V65.9517Z" fill="#E2E5E7"/>
<path d="M41.5859 60.7134L56.7876 65.7063V63.5222L41.5859 58.5293V60.7134Z" fill="#E2E5E7"/>
<path d="M41.5859 55.4761L56.7876 60.7814V58.5972L41.5859 53.292V55.4761Z" fill="#E2E5E7"/>
<path d="M41.5859 50.2378L56.7872 55.8551V53.6713L41.5859 48.0537V50.2378Z" fill="#E2E5E7"/>
<path d="M41.5859 45.0002L56.7876 50.9297V48.746L41.5859 42.8164V45.0002Z" fill="#E2E5E7"/>
<path d="M41.5859 39.7619L56.7876 46.0034V43.8196L41.5859 37.5781V39.7619Z" fill="#E2E5E7"/>
<path d="M20.7148 148.767H39.6914V28.7939L20.7148 37.5785V148.767Z" fill="url(#paint7_linear_5225_92751)"/>
<path d="M37.7993 142.337H22.5977V144.521H37.7993V142.337Z" fill="#727578"/>
<path d="M37.7993 139.282L22.5977 139.594V137.41L37.7993 137.098V139.282Z" fill="#727578"/>
<path d="M37.7997 134.044L22.5977 134.669V132.485L37.7997 131.86V134.044Z" fill="#727578"/>
<path d="M37.7997 128.807L22.5977 129.743V127.559L37.7997 126.623V128.807Z" fill="#727578"/>
<path d="M37.8 123.569L22.5977 124.817V122.633L37.8 121.385V123.569Z" fill="#727578"/>
<path d="M37.7997 118.331L22.5977 119.892V117.708L37.7997 116.147V118.331Z" fill="#727578"/>
<path d="M37.7997 113.093L22.5977 114.966V112.781L37.7997 110.909V113.093Z" fill="#727578"/>
<path d="M37.7997 107.855L22.5977 110.04V107.856L37.7997 105.671V107.855Z" fill="#727578"/>
<path d="M37.7997 102.618L22.5977 105.114V102.93L37.7997 100.434V102.618Z" fill="#727578"/>
<path d="M37.7997 97.3794L22.5977 100.188V98.0041L37.7997 95.1953V97.3794Z" fill="#727578"/>
<path d="M37.7997 92.1408L22.5977 95.2619V93.0778L37.7997 89.957V92.1408Z" fill="#727578"/>
<path d="M37.7997 86.9048L22.5977 90.3379V88.1534L37.7997 84.7207V86.9048Z" fill="#727578"/>
<path d="M37.7997 81.6662L22.5977 85.4112V83.2271L37.7997 79.4824V81.6662Z" fill="#727578"/>
<path d="M37.7993 76.4273L22.5977 80.4843V78.3006L37.7993 74.2432V76.4273Z" fill="#727578"/>
<path d="M37.7997 71.189L22.5977 75.558V73.3742L37.7997 69.0049V71.189Z" fill="#727578"/>
<path d="M37.7997 65.9517L22.5977 70.6327V68.4489L37.7997 63.7676V65.9517Z" fill="#727578"/>
<path d="M37.7997 60.7134L22.5977 65.7063V63.5222L37.7997 58.5293V60.7134Z" fill="#727578"/>
<path d="M37.7997 55.4761L22.5977 60.7814V58.5972L37.7997 53.292V55.4761Z" fill="#727578"/>
<path d="M37.7997 50.2378L22.5977 55.8551V53.6713L37.7997 48.0537V50.2378Z" fill="#727578"/>
<path d="M37.7997 45.0002L22.5977 50.9297V48.746L37.7997 42.8164V45.0002Z" fill="#727578"/>
<path d="M37.7997 39.7619L22.5977 46.0034V43.8196L37.7997 37.5781V39.7619Z" fill="#727578"/>
<path d="M237.391 147.885H251.929V44.3923L237.391 38.5771V147.885Z" fill="url(#paint8_linear_5225_92751)"/>
<path d="M250.251 137.402H248.066V140.892H250.251V137.402Z" fill="#E2E5E7"/>
<path d="M248.066 135.503L250.251 135.549V132.06L248.066 132.014V135.503Z" fill="#E2E5E7"/>
<path d="M248.066 130.114L250.251 130.206V126.717L248.066 126.625V130.114Z" fill="#E2E5E7"/>
<path d="M248.066 124.726L250.251 124.864V121.374L248.066 121.236V124.726Z" fill="#E2E5E7"/>
<path d="M248.066 119.337L250.251 119.521V116.032L248.066 115.848V119.337Z" fill="#E2E5E7"/>
<path d="M248.066 113.948L250.251 114.179V110.689L248.066 110.459V113.948Z" fill="#E2E5E7"/>
<path d="M248.066 108.56L250.251 108.836V105.346L248.066 105.07V108.56Z" fill="#E2E5E7"/>
<path d="M248.066 103.171L250.251 103.493V100.004L248.066 99.6816V103.171Z" fill="#E2E5E7"/>
<path d="M248.066 97.7827L250.251 98.1506V94.6612L248.066 94.293V97.7827Z" fill="#E2E5E7"/>
<path d="M248.066 92.3927L250.251 92.8072V89.3178L248.066 88.9033V92.3927Z" fill="#E2E5E7"/>
<path d="M248.066 87.0044L250.251 87.4647V83.9749L248.066 83.5146V87.0044Z" fill="#E2E5E7"/>
<path d="M248.066 81.6167L250.251 82.1229V78.6335L248.066 78.127V81.6167Z" fill="#E2E5E7"/>
<path d="M248.066 76.2277L250.251 76.78V73.2903L248.066 72.7383V76.2277Z" fill="#E2E5E7"/>
<path d="M248.066 70.838L250.251 71.4362V67.9468L248.066 67.3486V70.838Z" fill="#E2E5E7"/>
<path d="M248.066 65.4493L250.251 66.0938V62.604L248.066 61.96V65.4493Z" fill="#E2E5E7"/>
<path d="M248.066 60.0607L250.251 60.7509V57.2616L248.066 56.5713V60.0607Z" fill="#E2E5E7"/>
<path d="M248.066 54.672L250.251 55.4085V51.9187L248.066 51.1826V54.672Z" fill="#E2E5E7"/>
<path d="M247.368 137.402H245.184V140.892H247.368V137.402Z" fill="#E2E5E7"/>
<path d="M245.184 135.435L247.368 135.481V131.991L245.184 131.945V135.435Z" fill="#E2E5E7"/>
<path d="M245.184 129.978L247.368 130.069V126.58L245.184 126.488V129.978Z" fill="#E2E5E7"/>
<path d="M245.184 124.522L247.368 124.66V121.17L245.184 121.032V124.522Z" fill="#E2E5E7"/>
<path d="M245.184 119.065L247.368 119.249V115.759L245.184 115.575V119.065Z" fill="#E2E5E7"/>
<path d="M245.184 113.607L247.368 113.837V110.347L245.184 110.117V113.607Z" fill="#E2E5E7"/>
<path d="M245.184 108.151L247.368 108.427V104.937L245.184 104.661V108.151Z" fill="#E2E5E7"/>
<path d="M245.184 102.693L247.368 103.015V99.5261L245.184 99.2041V102.693Z" fill="#E2E5E7"/>
<path d="M245.184 97.2374L247.368 97.6057V94.1159L245.184 93.748V97.2374Z" fill="#E2E5E7"/>
<path d="M245.184 91.7808L247.368 92.1945V88.7051L245.184 88.291V91.7808Z" fill="#E2E5E7"/>
<path d="M245.184 86.3234L247.368 86.7833V83.2939L245.184 82.834V86.3234Z" fill="#E2E5E7"/>
<path d="M245.184 80.8663L247.368 81.3725V77.8831L245.184 77.377V80.8663Z" fill="#E2E5E7"/>
<path d="M245.184 75.4097L247.368 75.9613V72.4719L245.184 71.9199V75.4097Z" fill="#E2E5E7"/>
<path d="M245.184 69.9526L247.368 70.5505V67.0607L245.184 66.4629V69.9526Z" fill="#E2E5E7"/>
<path d="M245.184 64.4956L247.368 65.1397V61.6499L245.184 61.0059V64.4956Z" fill="#E2E5E7"/>
<path d="M245.184 59.0382L247.368 59.7281V56.2387L245.184 55.5488V59.0382Z" fill="#E2E5E7"/>
<path d="M245.184 53.5812L247.368 54.3173V50.8279L245.184 50.0918V53.5812Z" fill="#E2E5E7"/>
<path d="M244.482 137.402H242.297V140.892H244.482V137.402Z" fill="#E2E5E7"/>
<path d="M242.297 135.366L244.482 135.412V131.923L242.297 131.877V135.366Z" fill="#E2E5E7"/>
<path d="M242.297 129.841L244.482 129.933V126.444L242.297 126.352V129.841Z" fill="#E2E5E7"/>
<path d="M242.297 124.317L244.482 124.455V120.965L242.297 120.827V124.317Z" fill="#E2E5E7"/>
<path d="M242.297 118.79L244.482 118.974V115.485L242.297 115.301V118.79Z" fill="#E2E5E7"/>
<path d="M242.297 113.266L244.482 113.496V110.006L242.297 109.776V113.266Z" fill="#E2E5E7"/>
<path d="M242.297 107.741L244.482 108.017V104.528L242.297 104.252V107.741Z" fill="#E2E5E7"/>
<path d="M242.297 102.217L244.482 102.539V99.0496L242.297 98.7275V102.217Z" fill="#E2E5E7"/>
<path d="M242.297 96.6905L244.482 97.0588V93.5694L242.297 93.2012V96.6905Z" fill="#E2E5E7"/>
<path d="M242.297 91.1655L244.482 91.5792V88.0902L242.297 87.6758V91.1655Z" fill="#E2E5E7"/>
<path d="M242.297 85.6417L244.482 86.1016V82.6126L242.297 82.1523V85.6417Z" fill="#E2E5E7"/>
<path d="M242.297 80.1167L244.482 80.6225V77.1331L242.297 76.627V80.1167Z" fill="#E2E5E7"/>
<path d="M242.297 74.5909L244.482 75.1429V71.6539L242.297 71.1016V74.5909Z" fill="#E2E5E7"/>
<path d="M242.297 69.0655L244.482 69.6638V66.1744L242.297 65.5762V69.0655Z" fill="#E2E5E7"/>
<path d="M242.297 63.5421L244.482 64.1862V60.6968L242.297 60.0527V63.5421Z" fill="#E2E5E7"/>
<path d="M242.297 58.0167L244.482 58.7066V55.2176L242.297 54.5273V58.0167Z" fill="#E2E5E7"/>
<path d="M242.297 52.4907L244.482 53.2265V49.7375L242.297 49.001V52.4907Z" fill="#E2E5E7"/>
<path d="M241.599 137.402H239.414V140.892H241.599V137.402Z" fill="#E2E5E7"/>
<path d="M239.414 135.3L241.599 135.346V131.856L239.414 131.811V135.3Z" fill="#E2E5E7"/>
<path d="M239.414 129.709L241.599 129.801V126.312L239.414 126.22V129.709Z" fill="#E2E5E7"/>
<path d="M239.414 124.119L241.599 124.257V120.768L239.414 120.63V124.119Z" fill="#E2E5E7"/>
<path d="M239.414 118.527L241.599 118.711V115.222L239.414 115.038V118.527Z" fill="#E2E5E7"/>
<path d="M239.414 112.936L241.599 113.167V109.677L239.414 109.447V112.936Z" fill="#E2E5E7"/>
<path d="M239.414 107.346L241.599 107.622V104.132L239.414 103.856V107.346Z" fill="#E2E5E7"/>
<path d="M239.414 101.755L241.599 102.077V98.5873L239.414 98.2656V101.755Z" fill="#E2E5E7"/>
<path d="M239.414 96.1632L241.599 96.5315V93.0417L239.414 92.6738V96.1632Z" fill="#E2E5E7"/>
<path d="M239.414 90.573L241.599 90.9874V87.4977L239.414 87.084V90.573Z" fill="#E2E5E7"/>
<path d="M239.414 84.9812L241.599 85.4415V81.9521L239.414 81.4922V84.9812Z" fill="#E2E5E7"/>
<path d="M239.414 79.3904L241.599 79.8965V76.4071L239.414 75.9014V79.3904Z" fill="#E2E5E7"/>
<path d="M239.414 73.7996L241.599 74.3523V70.8625L239.414 70.3105V73.7996Z" fill="#E2E5E7"/>
<path d="M239.414 68.2087L241.599 68.8069V65.3176L239.414 64.7197V68.2087Z" fill="#E2E5E7"/>
<path d="M239.414 62.6173L241.599 63.2614V59.772L239.414 59.1279V62.6173Z" fill="#E2E5E7"/>
<path d="M239.414 57.0271L241.599 57.7174V54.228L239.414 53.5381V57.0271Z" fill="#E2E5E7"/>
<path d="M239.414 51.4366L241.599 52.1728V48.6834L239.414 47.9473V51.4366Z" fill="#E2E5E7"/>
<path d="M237.393 147.885H222.855V44.3923L237.393 38.5771V147.885Z" fill="url(#paint9_linear_5225_92751)"/>
<path d="M226.716 137.402H224.531V140.892H226.716V137.402Z" fill="#727578"/>
<path d="M226.716 135.526L224.531 135.549V132.059L226.716 132.036V135.526Z" fill="#727578"/>
<path d="M226.716 130.161L224.531 130.207V126.717L226.716 126.672V130.161Z" fill="#727578"/>
<path d="M226.716 124.795L224.531 124.863V121.374L226.716 121.306V124.795Z" fill="#727578"/>
<path d="M226.716 119.429L224.531 119.52V116.031L226.716 115.94V119.429Z" fill="#727578"/>
<path d="M226.716 114.065L224.531 114.179V110.689L226.716 110.575V114.065Z" fill="#727578"/>
<path d="M226.716 108.698L224.531 108.835V105.345L226.716 105.209V108.698Z" fill="#727578"/>
<path d="M226.716 103.334L224.531 103.493V100.003L226.716 99.8438V103.334Z" fill="#727578"/>
<path d="M226.716 97.9685L224.531 98.1504V94.661L226.716 94.4795V97.9685Z" fill="#727578"/>
<path d="M226.716 92.602L224.531 92.8067V89.3169L226.716 89.1123V92.602Z" fill="#727578"/>
<path d="M226.716 87.2371L224.531 87.4648V83.975L226.716 83.748V87.2371Z" fill="#727578"/>
<path d="M226.716 81.871L224.531 82.1207V78.6313L226.716 78.3809V81.871Z" fill="#727578"/>
<path d="M226.716 76.507L224.531 76.7798V73.29L226.716 73.0176V76.507Z" fill="#727578"/>
<path d="M226.716 71.1411L224.531 71.4363V67.9469L226.716 67.6514V71.1411Z" fill="#727578"/>
<path d="M226.716 65.7759L224.531 66.0942V62.6044L226.716 62.2861V65.7759Z" fill="#727578"/>
<path d="M226.716 60.4107L224.531 60.7513V57.2619L226.716 56.9209V60.4107Z" fill="#727578"/>
<path d="M226.716 55.0441L224.531 55.4078V51.9181L226.716 51.5547V55.0441Z" fill="#727578"/>
<path d="M229.599 137.402H227.414V140.892H229.599V137.402Z" fill="#727578"/>
<path d="M229.599 135.458L227.414 135.481V131.991L229.599 131.969V135.458Z" fill="#727578"/>
<path d="M229.599 130.024L227.414 130.069V126.58L229.599 126.534V130.024Z" fill="#727578"/>
<path d="M229.599 124.59L227.414 124.658V121.169L229.599 121.101V124.59Z" fill="#727578"/>
<path d="M229.599 119.158L227.414 119.249V115.76L229.599 115.669V119.158Z" fill="#727578"/>
<path d="M229.599 113.724L227.414 113.836V110.347L229.599 110.233V113.724Z" fill="#727578"/>
<path d="M229.599 108.29L227.414 108.426V104.936L229.599 104.8V108.29Z" fill="#727578"/>
<path d="M229.599 102.857L227.414 103.016V99.5263L229.599 99.3672V102.857Z" fill="#727578"/>
<path d="M229.599 97.422L227.414 97.6039V94.1141L229.599 93.9326V97.422Z" fill="#727578"/>
<path d="M229.599 91.9894L227.414 92.1936V88.7043L229.599 88.5V91.9894Z" fill="#727578"/>
<path d="M229.599 86.5558L227.414 86.7828V83.2934L229.599 83.0664V86.5558Z" fill="#727578"/>
<path d="M229.599 81.1218L227.414 81.3715V77.8825L229.599 77.6328V81.1218Z" fill="#727578"/>
<path d="M229.599 75.688L227.414 75.9604V72.4711L229.599 72.1982V75.688Z" fill="#727578"/>
<path d="M229.599 70.255L227.414 70.5502V67.0608L229.599 66.7656V70.255Z" fill="#727578"/>
<path d="M229.599 64.8218L227.414 65.1397V61.65L229.599 61.332V64.8218Z" fill="#727578"/>
<path d="M229.599 59.3888L227.414 59.7291V56.2397L229.599 55.8994V59.3888Z" fill="#727578"/>
<path d="M229.599 53.9542L227.414 54.3176V50.8282L229.599 50.4648V53.9542Z" fill="#727578"/>
<path d="M232.486 137.402H230.301V140.892H232.486V137.402Z" fill="#727578"/>
<path d="M232.486 135.366L230.301 135.412V131.923L232.486 131.877V135.366Z" fill="#727578"/>
<path d="M232.486 129.841L230.301 129.933V126.444L232.486 126.352V129.841Z" fill="#727578"/>
<path d="M232.486 124.317L230.301 124.455V120.965L232.486 120.827V124.317Z" fill="#727578"/>
<path d="M232.486 118.79L230.301 118.974V115.485L232.486 115.301V118.79Z" fill="#727578"/>
<path d="M232.486 113.266L230.301 113.496V110.006L232.486 109.776V113.266Z" fill="#727578"/>
<path d="M232.486 107.741L230.301 108.017V104.528L232.486 104.252V107.741Z" fill="#727578"/>
<path d="M232.486 102.217L230.301 102.539V99.0496L232.486 98.7275V102.217Z" fill="#727578"/>
<path d="M232.486 96.6905L230.301 97.0588V93.5694L232.486 93.2012V96.6905Z" fill="#727578"/>
<path d="M232.486 91.1655L230.301 91.5792V88.0902L232.486 87.6758V91.1655Z" fill="#727578"/>
<path d="M232.486 85.6417L230.301 86.1016V82.6126L232.486 82.1523V85.6417Z" fill="#727578"/>
<path d="M232.486 80.1167L230.301 80.6225V77.1331L232.486 76.627V80.1167Z" fill="#727578"/>
<path d="M232.486 74.5909L230.301 75.1429V71.6539L232.486 71.1016V74.5909Z" fill="#727578"/>
<path d="M232.486 69.0655L230.301 69.6638V66.1744L232.486 65.5762V69.0655Z" fill="#727578"/>
<path d="M232.486 63.5421L230.301 64.1862V60.6968L232.486 60.0527V63.5421Z" fill="#727578"/>
<path d="M232.486 58.0167L230.301 58.7066V55.2176L232.486 54.5273V58.0167Z" fill="#727578"/>
<path d="M232.486 52.4907L230.301 53.2265V49.7375L232.486 49.001V52.4907Z" fill="#727578"/>
<path d="M235.372 137.402H233.188V140.892H235.372V137.402Z" fill="#727578"/>
<path d="M235.373 135.3L233.188 135.346V131.856L235.373 131.811V135.3Z" fill="#727578"/>
<path d="M235.373 129.709L233.188 129.801V126.312L235.373 126.22V129.709Z" fill="#727578"/>
<path d="M235.373 124.119L233.188 124.257V120.768L235.373 120.63V124.119Z" fill="#727578"/>
<path d="M235.373 118.527L233.188 118.711V115.222L235.373 115.038V118.527Z" fill="#727578"/>
<path d="M235.373 112.936L233.188 113.167V109.677L235.373 109.447V112.936Z" fill="#727578"/>
<path d="M235.373 107.346L233.188 107.622V104.132L235.373 103.856V107.346Z" fill="#727578"/>
<path d="M235.373 101.755L233.188 102.077V98.5873L235.373 98.2656V101.755Z" fill="#727578"/>
<path d="M235.373 96.1632L233.188 96.5315V93.0417L235.373 92.6738V96.1632Z" fill="#727578"/>
<path d="M235.373 90.573L233.188 90.9874V87.4977L235.373 87.084V90.573Z" fill="#727578"/>
<path d="M235.373 84.9812L233.188 85.4415V81.9521L235.373 81.4922V84.9812Z" fill="#727578"/>
<path d="M235.373 79.3904L233.188 79.8965V76.4071L235.373 75.9014V79.3904Z" fill="#727578"/>
<path d="M235.373 73.7996L233.188 74.3523V70.8625L235.373 70.3105V73.7996Z" fill="#727578"/>
<path d="M235.373 68.2087L233.188 68.8069V65.3176L235.373 64.7197V68.2087Z" fill="#727578"/>
<path d="M235.373 62.6173L233.188 63.2614V59.772L235.373 59.1279V62.6173Z" fill="#727578"/>
<path d="M235.373 57.0271L233.188 57.7174V54.228L235.373 53.5381V57.0271Z" fill="#727578"/>
<path d="M235.373 51.4366L233.188 52.1728V48.6834L235.373 47.9473V51.4366Z" fill="#727578"/>
<path d="M230.303 148.524H208.496V10.0488L230.303 35.8539V148.524Z" fill="url(#paint10_linear_5225_92751)"/>
<path d="M228.141 142.008H210.672V144.221H228.141V142.008Z" fill="#E2E5E7"/>
<path d="M210.672 138.913L228.141 139.229V137.017L210.672 136.7V138.913Z" fill="#E2E5E7"/>
<path d="M210.672 133.606L228.141 134.238V132.025L210.672 131.393V133.606Z" fill="#E2E5E7"/>
<path d="M210.672 128.298L228.141 129.246V127.034L210.672 126.085V128.298Z" fill="#E2E5E7"/>
<path d="M210.672 122.99L228.141 124.255V122.042L210.672 120.777V122.99Z" fill="#E2E5E7"/>
<path d="M210.672 117.683L228.141 119.264V117.051L210.672 115.47V117.683Z" fill="#E2E5E7"/>
<path d="M210.672 112.375L228.141 114.272V112.059L210.672 110.162V112.375Z" fill="#E2E5E7"/>
<path d="M210.672 107.066L228.141 109.28V107.067L210.672 104.854V107.066Z" fill="#E2E5E7"/>
<path d="M210.672 101.76L228.141 104.29V102.077L210.672 99.5469V101.76Z" fill="#E2E5E7"/>
<path d="M210.672 96.4525L228.141 99.2985V97.0853L210.672 94.2393V96.4525Z" fill="#E2E5E7"/>
<path d="M210.672 91.1448L228.141 94.307V92.0938L210.672 88.9316V91.1448Z" fill="#E2E5E7"/>
<path d="M210.672 85.8359L228.141 89.3144V87.1016L210.672 83.623V85.8359Z" fill="#E2E5E7"/>
<path d="M210.672 80.5292L228.141 84.3242V82.111L210.672 78.3164V80.5292Z" fill="#E2E5E7"/>
<path d="M210.672 75.221L228.141 79.3317V77.1189L210.672 73.0078V75.221Z" fill="#E2E5E7"/>
<path d="M210.672 69.9134L228.141 74.3405V72.1273L210.672 67.7002V69.9134Z" fill="#E2E5E7"/>
<path d="M210.672 64.6058L228.141 69.349V67.1361L210.672 62.3926V64.6058Z" fill="#E2E5E7"/>
<path d="M210.672 59.2978L228.141 64.3578V62.1446L210.672 57.085V59.2978Z" fill="#E2E5E7"/>
<path d="M210.672 53.9902L228.141 59.3659V57.153L210.672 51.7773V53.9902Z" fill="#E2E5E7"/>
<path d="M210.672 48.6825L228.141 54.3747V52.1619L210.672 46.4697V48.6825Z" fill="#E2E5E7"/>
<path d="M210.672 43.3759L228.141 49.3841V47.1713L210.672 41.1631V43.3759Z" fill="#E2E5E7"/>
<path d="M210.672 38.0673L228.141 44.3919V42.1791L210.672 35.8545V38.0673Z" fill="#E2E5E7"/>
<path d="M186.688 148.524H208.495V10.0488L186.688 35.8539V148.524Z" fill="url(#paint11_linear_5225_92751)"/>
<path d="M206.325 142.008H188.855V144.221H206.325V142.008Z" fill="#727578"/>
<path d="M206.325 138.913L188.855 139.229V137.017L206.325 136.7V138.913Z" fill="#727578"/>
<path d="M206.325 133.606L188.855 134.238V132.025L206.325 131.393V133.606Z" fill="#727578"/>
<path d="M206.325 128.298L188.855 129.246V127.034L206.325 126.085V128.298Z" fill="#727578"/>
<path d="M206.325 122.99L188.855 124.255V122.042L206.325 120.777V122.99Z" fill="#727578"/>
<path d="M206.325 117.683L188.855 119.264V117.051L206.325 115.47V117.683Z" fill="#727578"/>
<path d="M206.325 112.375L188.855 114.272V112.059L206.325 110.162V112.375Z" fill="#727578"/>
<path d="M206.325 107.066L188.855 109.28V107.067L206.325 104.854V107.066Z" fill="#727578"/>
<path d="M206.325 101.76L188.855 104.29V102.077L206.325 99.5469V101.76Z" fill="#727578"/>
<path d="M206.325 96.4525L188.855 99.2985V97.0853L206.325 94.2393V96.4525Z" fill="#727578"/>
<path d="M206.325 91.1448L188.855 94.307V92.0938L206.325 88.9316V91.1448Z" fill="#727578"/>
<path d="M206.325 85.8359L188.855 89.3144V87.1016L206.325 83.623V85.8359Z" fill="#727578"/>
<path d="M206.325 80.5292L188.855 84.3242V82.111L206.325 78.3164V80.5292Z" fill="#727578"/>
<path d="M206.325 75.221L188.855 79.3317V77.1189L206.325 73.0078V75.221Z" fill="#727578"/>
<path d="M206.325 69.9134L188.855 74.3405V72.1273L206.325 67.7002V69.9134Z" fill="#727578"/>
<path d="M206.325 64.6058L188.855 69.349V67.1361L206.325 62.3926V64.6058Z" fill="#727578"/>
<path d="M206.325 59.2978L188.855 64.3578V62.1446L206.325 57.085V59.2978Z" fill="#727578"/>
<path d="M206.325 53.9902L188.855 59.3659V57.153L206.325 51.7773V53.9902Z" fill="#727578"/>
<path d="M206.325 48.6825L188.855 54.3747V52.1619L206.325 46.4697V48.6825Z" fill="#727578"/>
<path d="M206.325 43.3759L188.855 49.3841V47.1713L206.325 41.1631V43.3759Z" fill="#727578"/>
<path d="M206.325 38.0673L188.855 44.3919V42.1791L206.325 35.8545V38.0673Z" fill="#727578"/>
<path d="M181.57 150.342H202.878V104.689L181.57 102.124V150.342Z" fill="url(#paint12_linear_5225_92751)"/>
<path d="M181.57 150.342H160.262V104.689L181.57 102.124V150.342Z" fill="url(#paint13_linear_5225_92751)"/>
<path d="M200.31 143.311H196.75V147.258H200.31V143.311Z" fill="#E2E5E7"/>
<path d="M196.75 136.169L200.31 136.242V140.189L196.75 140.116V136.169Z" fill="#E2E5E7"/>
<path d="M196.75 129.029L200.31 129.175V133.122L196.75 132.976V129.029Z" fill="#E2E5E7"/>
<path d="M196.75 121.89L200.31 122.108V126.055L196.75 125.837V121.89Z" fill="#E2E5E7"/>
<path d="M196.75 114.75L200.31 115.041V118.988L196.75 118.697V114.75Z" fill="#E2E5E7"/>
<path d="M196.75 107.608L200.31 107.972V111.919L196.75 111.555V107.608Z" fill="#E2E5E7"/>
<path d="M194.002 143.311H190.441V147.258H194.002V143.311Z" fill="#E2E5E7"/>
<path d="M190.441 136.05L194.001 136.122V140.07L190.441 139.997V136.05Z" fill="#E2E5E7"/>
<path d="M190.441 128.79L194.001 128.935V132.882L190.441 132.737V128.79Z" fill="#E2E5E7"/>
<path d="M190.441 121.53L194.001 121.749V125.696L190.441 125.477V121.53Z" fill="#E2E5E7"/>
<path d="M190.441 114.271L194.001 114.562V118.509L190.441 118.218V114.271Z" fill="#E2E5E7"/>
<path d="M190.441 107.01L194.001 107.374V111.32L190.441 110.957V107.01Z" fill="#E2E5E7"/>
<path d="M187.702 143.311H184.141V147.258H187.702V143.311Z" fill="#E2E5E7"/>
<path d="M184.141 135.933L187.701 136.005V139.952L184.141 139.879V135.933Z" fill="#E2E5E7"/>
<path d="M184.141 128.555L187.701 128.7V132.647L184.141 132.502V128.555Z" fill="#E2E5E7"/>
<path d="M184.141 121.178L187.701 121.396V125.343L184.141 125.125V121.178Z" fill="#E2E5E7"/>
<path d="M184.141 113.8L187.701 114.09V118.038L184.141 117.747V113.8Z" fill="#E2E5E7"/>
<path d="M184.141 106.422L187.701 106.785V110.732L184.141 110.369V106.422Z" fill="#E2E5E7"/>
<path d="M166.392 143.311H162.832V147.258H166.392V143.311Z" fill="#727578"/>
<path d="M166.392 136.169L162.832 136.242V140.189L166.392 140.116V136.169Z" fill="#727578"/>
<path d="M166.392 129.029L162.832 129.175V133.122L166.392 132.976V129.029Z" fill="#727578"/>
<path d="M166.392 121.89L162.832 122.108V126.055L166.392 125.837V121.89Z" fill="#727578"/>
<path d="M166.392 114.75L162.832 115.041V118.988L166.392 118.697V114.75Z" fill="#727578"/>
<path d="M166.392 107.608L162.832 107.972V111.919L166.392 111.555V107.608Z" fill="#727578"/>
<path d="M172.693 143.311H169.133V147.258H172.693V143.311Z" fill="#727578"/>
<path d="M172.693 136.05L169.133 136.122V140.07L172.693 139.997V136.05Z" fill="#727578"/>
<path d="M172.693 128.79L169.133 128.935V132.882L172.693 132.737V128.79Z" fill="#727578"/>
<path d="M172.693 121.53L169.133 121.749V125.696L172.693 125.477V121.53Z" fill="#727578"/>
<path d="M172.693 114.271L169.133 114.562V118.509L172.693 118.218V114.271Z" fill="#727578"/>
<path d="M172.693 107.01L169.133 107.374V111.32L172.693 110.957V107.01Z" fill="#727578"/>
<path d="M179.002 143.311H175.441V147.258H179.002V143.311Z" fill="#727578"/>
<path d="M179.002 135.933L175.441 136.005V139.952L179.002 139.879V135.933Z" fill="#727578"/>
<path d="M179.002 128.555L175.441 128.7V132.647L179.002 132.502V128.555Z" fill="#727578"/>
<path d="M179.002 121.178L175.441 121.396V125.343L179.002 125.125V121.178Z" fill="#727578"/>
<path d="M179.002 113.8L175.441 114.09V118.038L179.002 117.747V113.8Z" fill="#727578"/>
<path d="M179.002 106.422L175.441 106.785V110.732L179.002 110.369V106.422Z" fill="#727578"/>
<path d="M84.9179 148.767H65.9414V28.7939L84.9179 37.5785V148.767Z" fill="url(#paint14_linear_5225_92751)"/>
<path d="M83.0333 142.337H67.832V144.521H83.0333V142.337Z" fill="#E2E5E7"/>
<path d="M67.832 139.282L83.0333 139.594V137.41L67.832 137.098V139.282Z" fill="#E2E5E7"/>
<path d="M67.832 134.044L83.0333 134.669V132.485L67.832 131.86V134.044Z" fill="#E2E5E7"/>
<path d="M67.832 128.807L83.0333 129.743V127.559L67.832 126.623V128.807Z" fill="#E2E5E7"/>
<path d="M67.832 123.569L83.0333 124.817V122.633L67.832 121.385V123.569Z" fill="#E2E5E7"/>
<path d="M67.832 118.331L83.0333 119.892V117.708L67.832 116.147V118.331Z" fill="#E2E5E7"/>
<path d="M67.832 113.093L83.0333 114.966V112.781L67.832 110.909V113.093Z" fill="#E2E5E7"/>
<path d="M67.832 107.855L83.0333 110.04V107.856L67.832 105.671V107.855Z" fill="#E2E5E7"/>
<path d="M67.832 102.618L83.0333 105.114V102.93L67.832 100.434V102.618Z" fill="#E2E5E7"/>
<path d="M67.832 97.3794L83.0333 100.188V98.0041L67.832 95.1953V97.3794Z" fill="#E2E5E7"/>
<path d="M67.832 92.1408L83.0333 95.2619V93.0778L67.832 89.957V92.1408Z" fill="#E2E5E7"/>
<path d="M67.832 86.9048L83.0333 90.3379V88.1534L67.832 84.7207V86.9048Z" fill="#E2E5E7"/>
<path d="M67.832 81.6662L83.0333 85.4112V83.2271L67.832 79.4824V81.6662Z" fill="#E2E5E7"/>
<path d="M67.832 76.4273L83.0333 80.4843V78.3006L67.832 74.2432V76.4273Z" fill="#E2E5E7"/>
<path d="M67.832 71.189L83.0333 75.558V73.3742L67.832 69.0049V71.189Z" fill="#E2E5E7"/>
<path d="M67.832 65.9517L83.0333 70.6327V68.4489L67.832 63.7676V65.9517Z" fill="#E2E5E7"/>
<path d="M67.832 60.7134L83.0333 65.7063V63.5222L67.832 58.5293V60.7134Z" fill="#E2E5E7"/>
<path d="M67.832 55.4761L83.0333 60.7814V58.5972L67.832 53.292V55.4761Z" fill="#E2E5E7"/>
<path d="M67.832 50.2378L83.0333 55.8551V53.6713L67.832 48.0537V50.2378Z" fill="#E2E5E7"/>
<path d="M67.832 45.0002L83.0333 50.9297V48.746L67.832 42.8164V45.0002Z" fill="#E2E5E7"/>
<path d="M67.832 39.7619L83.0333 46.0034V43.8196L67.832 37.5781V39.7619Z" fill="#E2E5E7"/>
<path d="M46.9609 148.767H65.9378V28.7939L46.9609 37.5785V148.767Z" fill="url(#paint15_linear_5225_92751)"/>
<path d="M64.045 142.337H48.8438V144.521H64.045V142.337Z" fill="#727578"/>
<path d="M64.0454 139.282L48.8438 139.594V137.41L64.0454 137.098V139.282Z" fill="#727578"/>
<path d="M64.0454 134.044L48.8438 134.669V132.485L64.0454 131.86V134.044Z" fill="#727578"/>
<path d="M64.0454 128.807L48.8438 129.743V127.559L64.0454 126.623V128.807Z" fill="#727578"/>
<path d="M64.0454 123.569L48.8438 124.817V122.633L64.0454 121.385V123.569Z" fill="#727578"/>
<path d="M64.0454 118.331L48.8438 119.892V117.708L64.0454 116.147V118.331Z" fill="#727578"/>
<path d="M64.0454 113.093L48.8438 114.966V112.781L64.0454 110.909V113.093Z" fill="#727578"/>
<path d="M64.0454 107.855L48.8438 110.04V107.856L64.0454 105.671V107.855Z" fill="#727578"/>
<path d="M64.0454 102.618L48.8438 105.114V102.93L64.0454 100.434V102.618Z" fill="#727578"/>
<path d="M64.0458 97.3794L48.8438 100.188V98.0041L64.0458 95.1953V97.3794Z" fill="#727578"/>
<path d="M64.0454 92.1408L48.8438 95.2619V93.0778L64.0454 89.957V92.1408Z" fill="#727578"/>
<path d="M64.0454 86.9048L48.8438 90.3379V88.1534L64.0454 84.7207V86.9048Z" fill="#727578"/>
<path d="M64.0454 81.6662L48.8438 85.4112V83.2271L64.0454 79.4824V81.6662Z" fill="#727578"/>
<path d="M64.0454 76.4273L48.8438 80.4843V78.3006L64.0454 74.2432V76.4273Z" fill="#727578"/>
<path d="M64.0454 71.189L48.8438 75.558V73.3742L64.0454 69.0049V71.189Z" fill="#727578"/>
<path d="M64.0454 65.9517L48.8438 70.6327V68.4489L64.0454 63.7676V65.9517Z" fill="#727578"/>
<path d="M64.0454 60.7134L48.8438 65.7063V63.5222L64.0454 58.5293V60.7134Z" fill="#727578"/>
<path d="M64.0454 55.4761L48.8438 60.7814V58.5972L64.0454 53.292V55.4761Z" fill="#727578"/>
<path d="M64.0454 50.2378L48.8438 55.8551V53.6713L64.0454 48.0537V50.2378Z" fill="#727578"/>
<path d="M64.0454 45.0002L48.8438 50.9297V48.746L64.0454 42.8164V45.0002Z" fill="#727578"/>
<path d="M64.0454 39.7619L48.8438 46.0034V43.8196L64.0454 37.5781V39.7619Z" fill="#727578"/>
<path d="M91.7148 148.975H114.18V8.1485L91.7148 0.235352V148.975Z" fill="url(#paint16_linear_5225_92751)"/>
<path d="M111.592 134.711H108.215V139.459H111.592V134.711Z" fill="#E2E5E7"/>
<path d="M108.215 132.112L111.592 132.189V127.441L108.215 127.363V132.112Z" fill="#E2E5E7"/>
<path d="M108.215 124.764L111.592 124.919V120.171L108.215 120.016V124.764Z" fill="#E2E5E7"/>
<path d="M108.215 117.416L111.592 117.648V112.901L108.215 112.668V117.416Z" fill="#E2E5E7"/>
<path d="M108.215 110.069L111.592 110.379V105.631L108.215 105.321V110.069Z" fill="#E2E5E7"/>
<path d="M108.215 102.721L111.592 103.109V98.3609L108.215 97.9736V102.721Z" fill="#E2E5E7"/>
<path d="M108.215 95.374L111.592 95.8388V91.0911L108.215 90.626V95.374Z" fill="#E2E5E7"/>
<path d="M108.215 88.026L111.592 88.5683V83.8206L108.215 83.2783V88.026Z" fill="#E2E5E7"/>
<path d="M108.215 80.6777L111.592 81.2979V76.5499L108.215 75.9297V80.6777Z" fill="#E2E5E7"/>
<path d="M108.215 73.3311L111.592 74.0284V69.2804L108.215 68.583V73.3311Z" fill="#E2E5E7"/>
<path d="M108.215 65.9834L111.592 66.7586V62.0106L108.215 61.2354V65.9834Z" fill="#E2E5E7"/>
<path d="M108.215 58.6363L111.592 59.4891V54.7411L108.215 53.8887V58.6363Z" fill="#E2E5E7"/>
<path d="M108.215 51.2881L111.592 52.218V47.47L108.215 46.54V51.2881Z" fill="#E2E5E7"/>
<path d="M108.215 43.9418L111.592 44.9492V40.2012L108.215 39.1934V43.9418Z" fill="#E2E5E7"/>
<path d="M108.215 36.5937L111.592 37.6787V32.9307L108.215 31.8457V36.5937Z" fill="#E2E5E7"/>
<path d="M108.215 29.2457L111.592 30.4086V25.6606L108.215 24.498V29.2457Z" fill="#E2E5E7"/>
<path d="M108.215 21.8984L111.592 23.1388V18.3904L108.215 17.1504V21.8984Z" fill="#E2E5E7"/>
<path d="M107.13 134.711H103.754V139.459H107.13V134.711Z" fill="#E2E5E7"/>
<path d="M103.754 132.019L107.13 132.096V127.348L103.754 127.271V132.019Z" fill="#E2E5E7"/>
<path d="M103.754 124.579L107.13 124.734V119.986L103.754 119.831V124.579Z" fill="#E2E5E7"/>
<path d="M103.754 117.138L107.13 117.371V112.623L103.754 112.391V117.138Z" fill="#E2E5E7"/>
<path d="M103.754 109.698L107.13 110.008V105.26L103.754 104.95V109.698Z" fill="#E2E5E7"/>
<path d="M103.754 102.257L107.13 102.645V97.897L103.754 97.5098V102.257Z" fill="#E2E5E7"/>
<path d="M103.754 94.8174L107.13 95.2822V90.5345L103.754 90.0693V94.8174Z" fill="#E2E5E7"/>
<path d="M103.754 87.3769L107.13 87.9193V83.1716L103.754 82.6289V87.3769Z" fill="#E2E5E7"/>
<path d="M103.754 79.9365L107.13 80.5563V75.8087L103.754 75.1885V79.9365Z" fill="#E2E5E7"/>
<path d="M103.754 72.4957L107.13 73.1931V68.4454L103.754 67.748V72.4957Z" fill="#E2E5E7"/>
<path d="M103.754 65.0576L107.13 65.8325V61.0845L103.754 60.3096V65.0576Z" fill="#E2E5E7"/>
<path d="M103.754 57.6166L107.13 58.4686V53.7209L103.754 52.8682V57.6166Z" fill="#E2E5E7"/>
<path d="M103.754 50.1762L107.13 51.1057V46.358L103.754 45.4277V50.1762Z" fill="#E2E5E7"/>
<path d="M103.754 42.736L107.13 43.7434V38.9957L103.754 37.9883V42.736Z" fill="#E2E5E7"/>
<path d="M103.754 35.2959L107.13 36.3809V31.6332L103.754 30.5479V35.2959Z" fill="#E2E5E7"/>
<path d="M103.754 27.8555L107.13 29.0176V24.2699L103.754 23.1074V27.8555Z" fill="#E2E5E7"/>
<path d="M103.754 20.415L107.13 21.6547V16.907L103.754 15.667V20.415Z" fill="#E2E5E7"/>
<path d="M102.673 134.711H99.2969V139.459H102.673V134.711Z" fill="#E2E5E7"/>
<path d="M99.2969 131.927L102.673 132.004V127.256L99.2969 127.179V131.927Z" fill="#E2E5E7"/>
<path d="M99.2969 124.393L102.673 124.548V119.8L99.2969 119.645V124.393Z" fill="#E2E5E7"/>
<path d="M99.2969 116.86L102.673 117.093V112.345L99.2969 112.112V116.86Z" fill="#E2E5E7"/>
<path d="M99.2969 109.327L102.673 109.637V104.889L99.2969 104.579V109.327Z" fill="#E2E5E7"/>
<path d="M99.2969 101.794L102.673 102.181V97.4332L99.2969 97.0459V101.794Z" fill="#E2E5E7"/>
<path d="M99.2969 94.2613L102.673 94.7265V89.9784L99.2969 89.5137V94.2613Z" fill="#E2E5E7"/>
<path d="M99.2969 86.7285L102.673 87.2712V82.5231L99.2969 81.9805V86.7285Z" fill="#E2E5E7"/>
<path d="M99.2969 79.1943L102.673 79.8145V75.0665L99.2969 74.4463V79.1943Z" fill="#E2E5E7"/>
<path d="M99.2969 71.6621L102.673 72.3595V67.6118L99.2969 66.9141V71.6621Z" fill="#E2E5E7"/>
<path d="M99.2969 64.1289L102.673 64.9038V60.1557L99.2969 59.3809V64.1289Z" fill="#E2E5E7"/>
<path d="M99.2969 56.5957L102.673 57.4485V52.7004L99.2969 51.8477V56.5957Z" fill="#E2E5E7"/>
<path d="M99.2969 49.0635L102.673 49.9934V45.2457L99.2969 44.3154V49.0635Z" fill="#E2E5E7"/>
<path d="M99.2969 41.5303L102.673 42.5381V37.7897L99.2969 36.7822V41.5303Z" fill="#E2E5E7"/>
<path d="M99.2969 33.9971L102.673 35.0824V30.3344L99.2969 29.249V33.9971Z" fill="#E2E5E7"/>
<path d="M99.2969 26.4642L102.673 27.6267V22.8783L99.2969 21.7158V26.4642Z" fill="#E2E5E7"/>
<path d="M99.2969 18.932L102.673 20.172V15.4236L99.2969 14.1836V18.932Z" fill="#E2E5E7"/>
<path d="M98.212 134.711H94.8359V139.459H98.212V134.711Z" fill="#E2E5E7"/>
<path d="M94.8359 131.837L98.212 131.914V127.166L94.8359 127.089V131.837Z" fill="#E2E5E7"/>
<path d="M94.8359 124.213L98.212 124.369V119.621L94.8359 119.466V124.213Z" fill="#E2E5E7"/>
<path d="M94.8359 116.592L98.212 116.824V112.076L94.8359 111.844V116.592Z" fill="#E2E5E7"/>
<path d="M94.8359 108.968L98.212 109.277V104.53L94.8359 104.22V108.968Z" fill="#E2E5E7"/>
<path d="M94.8359 101.345L98.212 101.733V96.9849L94.8359 96.5977V101.345Z" fill="#E2E5E7"/>
<path d="M94.8359 93.7226L98.212 94.1878V89.4398L94.8359 88.9746V93.7226Z" fill="#E2E5E7"/>
<path d="M94.8359 86.0992L98.212 86.6423V81.8942L94.8359 81.3516V86.0992Z" fill="#E2E5E7"/>
<path d="M94.8359 78.4772L98.212 79.0974V74.3493L94.8359 73.7295V78.4772Z" fill="#E2E5E7"/>
<path d="M94.8359 70.8541L98.212 71.5518V66.8038L94.8359 66.1064V70.8541Z" fill="#E2E5E7"/>
<path d="M94.8359 63.2324L98.212 64.0073V59.2593L94.8359 58.4844V63.2324Z" fill="#E2E5E7"/>
<path d="M94.8359 55.6094L98.212 56.4621V51.7141L94.8359 50.8613V55.6094Z" fill="#E2E5E7"/>
<path d="M94.8359 47.9857L98.212 48.9156V44.1676L94.8359 43.2373V47.9857Z" fill="#E2E5E7"/>
<path d="M94.8359 40.3643L98.212 41.3717V36.6237L94.8359 35.6162V40.3643Z" fill="#E2E5E7"/>
<path d="M94.8359 32.7402L98.212 33.8256V29.0775L94.8359 27.9922V32.7402Z" fill="#E2E5E7"/>
<path d="M94.8359 25.1185L98.212 26.281V21.533L94.8359 20.3701V25.1185Z" fill="#E2E5E7"/>
<path d="M94.8359 17.4961L98.212 18.7361V13.9881L94.8359 12.748V17.4961Z" fill="#E2E5E7"/>
<path d="M91.7155 148.975H69.25V8.1485L91.7155 0.235352V148.975Z" fill="url(#paint17_linear_5225_92751)"/>
<path d="M75.2163 134.711H71.8398V139.459H75.2163V134.711Z" fill="#727578"/>
<path d="M75.2137 132.114L71.8398 132.189V127.44L75.2137 127.366V132.114Z" fill="#727578"/>
<path d="M75.2118 124.77L71.8398 124.919V120.172L75.2118 120.022V124.77Z" fill="#727578"/>
<path d="M75.2096 117.425L71.8398 117.649V112.901L75.2096 112.678V117.425Z" fill="#727578"/>
<path d="M75.207 110.081L71.8398 110.378V105.63L75.207 105.333V110.081Z" fill="#727578"/>
<path d="M75.2051 102.737L71.8398 103.109V98.3612L75.2051 97.9893V102.737Z" fill="#727578"/>
<path d="M75.2029 95.3922L71.8398 95.8387V91.091L75.2029 90.6445V95.3922Z" fill="#727578"/>
<path d="M75.2006 88.0469L71.8398 88.5676V83.8199L75.2006 83.2988V88.0469Z" fill="#727578"/>
<path d="M75.1984 80.7031L71.8398 81.2987V76.5507L75.1984 75.9551V80.7031Z" fill="#727578"/>
<path d="M75.1965 73.3584L71.8398 74.0282V69.2801L75.1965 68.6104V73.3584Z" fill="#727578"/>
<path d="M75.1939 66.0146L71.8398 66.759V62.0109L75.1939 61.2666V66.0146Z" fill="#727578"/>
<path d="M75.1917 58.6703L71.8398 59.4892V54.7411L75.1917 53.9219V58.6703Z" fill="#727578"/>
<path d="M75.1898 51.3265L71.8398 52.2196V47.4715L75.1898 46.5781V51.3265Z" fill="#727578"/>
<path d="M75.1876 43.9814L71.8398 44.9494V40.2013L75.1876 39.2334V43.9814Z" fill="#727578"/>
<path d="M75.1854 36.6371L71.8398 37.6788V32.9308L75.1854 31.8887V36.6371Z" fill="#727578"/>
<path d="M75.1831 29.292L71.8398 30.4086V25.6606L75.1831 24.5439V29.292Z" fill="#727578"/>
<path d="M75.1809 21.9482L71.8398 23.1394V18.391L75.1809 17.2002V21.9482Z" fill="#727578"/>
<path d="M79.6769 134.711H76.3008V139.459H79.6769V134.711Z" fill="#727578"/>
<path d="M79.681 132.018L76.3008 132.097V127.349L79.681 127.27V132.018Z" fill="#727578"/>
<path d="M79.6854 124.575L76.3008 124.734V119.986L79.6854 119.827V124.575Z" fill="#727578"/>
<path d="M79.6895 117.132L76.3008 117.37V112.622L79.6895 112.384V117.132Z" fill="#727578"/>
<path d="M79.694 109.69L76.3008 110.008V105.26L79.694 104.942V109.69Z" fill="#727578"/>
<path d="M79.6985 102.248L76.3008 102.645V97.8969L79.6985 97.5V102.248Z" fill="#727578"/>
<path d="M79.7029 94.8063L76.3008 95.2826V90.5349L79.7029 90.0586V94.8063Z" fill="#727578"/>
<path d="M79.7074 87.3642L76.3008 87.92V83.1723L79.7074 82.6162V87.3642Z" fill="#727578"/>
<path d="M79.7115 79.9229L76.3008 80.558V75.8103L79.7115 75.1748V79.9229Z" fill="#727578"/>
<path d="M79.716 72.4805L76.3008 73.1946V68.4469L79.716 67.7324V72.4805Z" fill="#727578"/>
<path d="M79.7205 65.0371L76.3008 65.8314V61.0833L79.7205 60.2891V65.0371Z" fill="#727578"/>
<path d="M79.7249 57.5953L76.3008 58.4686V53.7209L79.7249 52.8477V57.5953Z" fill="#727578"/>
<path d="M79.7294 50.1533L76.3008 51.106V46.3583L79.7294 45.4053V50.1533Z" fill="#727578"/>
<path d="M79.7339 42.7113L76.3008 43.7434V38.9957L79.7339 37.9629V42.7113Z" fill="#727578"/>
<path d="M79.738 35.2695L76.3008 36.3813V31.6337L79.738 30.5215V35.2695Z" fill="#727578"/>
<path d="M79.7424 27.8271L76.3008 29.018V24.2703L79.7424 23.0791V27.8271Z" fill="#727578"/>
<path d="M79.7469 20.3857L76.3008 21.656V16.9083L79.7469 15.6377V20.3857Z" fill="#727578"/>
<path d="M84.1343 134.711H80.7578V139.459H84.1343V134.711Z" fill="#727578"/>
<path d="M84.1387 131.923L80.7578 132.003V127.255L84.1387 127.176V131.923Z" fill="#727578"/>
<path d="M84.1428 124.389L80.7578 124.548V119.8L84.1428 119.642V124.389Z" fill="#727578"/>
<path d="M84.1473 116.853L80.7578 117.092V112.344L84.1473 112.105V116.853Z" fill="#727578"/>
<path d="M84.1518 109.319L80.7578 109.637V104.889L84.1518 104.571V109.319Z" fill="#727578"/>
<path d="M84.1562 101.784L80.7578 102.181V97.4331L84.1562 97.0361V101.784Z" fill="#727578"/>
<path d="M84.1607 94.25L80.7578 94.7267V89.9787L84.1607 89.502V94.25Z" fill="#727578"/>
<path d="M84.1648 86.7145L80.7578 87.2706V82.5225L84.1648 81.9668V86.7145Z" fill="#727578"/>
<path d="M84.1693 79.1807L80.7578 79.8161V75.0681L84.1693 74.4326V79.1807Z" fill="#727578"/>
<path d="M84.1734 71.6445L80.7578 72.359V67.6113L84.1734 66.8965V71.6445Z" fill="#727578"/>
<path d="M84.1782 64.1094L80.7578 64.9033V60.1552L84.1782 59.3613V64.1094Z" fill="#727578"/>
<path d="M84.1827 56.5752L80.7578 57.4488V52.7008L84.1827 51.8271V56.5752Z" fill="#727578"/>
<path d="M84.1872 49.0404L80.7578 49.9931V45.2454L84.1872 44.292V49.0404Z" fill="#727578"/>
<path d="M84.1913 41.5059L80.7578 42.5383V37.7899L84.1913 36.7578V41.5059Z" fill="#727578"/>
<path d="M84.1958 33.9707L80.7578 35.0825V30.3345L84.1958 29.2227V33.9707Z" fill="#727578"/>
<path d="M84.2002 26.4352L80.7578 27.6267V22.8783L84.2002 21.6875V26.4352Z" fill="#727578"/>
<path d="M84.2047 18.9008L80.7578 20.1713V15.4229L84.2047 14.1523V18.9008Z" fill="#727578"/>
<path d="M88.5956 134.711H85.2188V139.459H88.5956V134.711Z" fill="#727578"/>
<path d="M88.6 131.834L85.2188 131.913V127.165L88.6 127.086V131.834Z" fill="#727578"/>
<path d="M88.6041 124.21L85.2188 124.369V119.621L88.6041 119.462V124.21Z" fill="#727578"/>
<path d="M88.6086 116.585L85.2188 116.823V112.075L88.6086 111.837V116.585Z" fill="#727578"/>
<path d="M88.6131 108.961L85.2188 109.278V104.53L88.6131 104.213V108.961Z" fill="#727578"/>
<path d="M88.6172 101.336L85.2188 101.733V96.9848L88.6172 96.5879V101.336Z" fill="#727578"/>
<path d="M88.6217 93.7109L85.2188 94.1876V89.4396L88.6217 88.9629V93.7109Z" fill="#727578"/>
<path d="M88.6261 86.0869L85.2188 86.643V81.895L88.6261 81.3389V86.0869Z" fill="#727578"/>
<path d="M88.6306 78.4619L85.2188 79.0974V74.3493L88.6306 73.7139V78.4619Z" fill="#727578"/>
<path d="M88.6351 70.8365L85.2188 71.5514V66.8034L88.6351 66.0889V70.8365Z" fill="#727578"/>
<path d="M88.6392 63.2133L85.2188 64.0071V59.2591L88.6392 58.4648V63.2133Z" fill="#727578"/>
<path d="M88.644 55.5879L85.2188 56.4615V51.7135L88.644 50.8398V55.5879Z" fill="#727578"/>
<path d="M88.6481 47.9639L85.2188 48.9169V44.1689L88.6481 43.2158V47.9639Z" fill="#727578"/>
<path d="M88.6526 40.3389L85.2188 41.3713V36.6232L88.6526 35.5908V40.3389Z" fill="#727578"/>
<path d="M88.6571 32.7139L85.2188 33.8257V29.0776L88.6571 27.9658V32.7139Z" fill="#727578"/>
<path d="M88.6615 25.0898L85.2188 26.281V21.533L88.6615 20.3418V25.0898Z" fill="#727578"/>
<path d="M88.6656 17.4648L85.2188 18.7354V13.9874L88.6656 12.7168V17.4648Z" fill="#727578"/>
<path d="M118.797 102.487V150.706H141.976V105.466L118.797 102.487Z" fill="url(#paint18_linear_5225_92751)"/>
<path d="M140.02 142.162H121.402V144.468H140.02V142.162Z" fill="#E2E5E7"/>
<path d="M121.402 137.945L140.02 138.194V140.5L121.402 140.251V137.945Z" fill="#E2E5E7"/>
<path d="M121.402 133.729L140.02 134.227V136.533L121.402 136.035V133.729Z" fill="#E2E5E7"/>
<path d="M121.402 129.513L140.02 130.259V132.565L121.402 131.818V129.513Z" fill="#E2E5E7"/>
<path d="M121.402 125.297L140.02 126.292V128.598L121.402 127.603V125.297Z" fill="#E2E5E7"/>
<path d="M121.402 121.08L140.02 122.324V124.63L121.402 123.386V121.08Z" fill="#E2E5E7"/>
<path d="M121.402 116.864L140.02 118.357V120.663L121.402 119.17V116.864Z" fill="#E2E5E7"/>
<path d="M121.402 112.647L140.02 114.389V116.695L121.402 114.953V112.647Z" fill="#E2E5E7"/>
<path d="M121.402 108.431L140.02 110.421V112.727L121.402 110.736V108.431Z" fill="#E2E5E7"/>
<path d="M118.795 102.487V150.706H95.6172V105.466L118.795 102.487Z" fill="url(#paint19_linear_5225_92751)"/>
<path d="M116.188 142.162H97.5703V144.468H116.188V142.162Z" fill="#727578"/>
<path d="M116.188 137.945L97.5703 138.194V140.5L116.188 140.251V137.945Z" fill="#727578"/>
<path d="M116.188 133.729L97.5703 134.227V136.533L116.188 136.035V133.729Z" fill="#727578"/>
<path d="M116.188 129.513L97.5703 130.259V132.565L116.188 131.818V129.513Z" fill="#727578"/>
<path d="M116.188 125.297L97.5703 126.292V128.598L116.188 127.603V125.297Z" fill="#727578"/>
<path d="M116.188 121.08L97.5703 122.324V124.63L116.188 123.386V121.08Z" fill="#727578"/>
<path d="M116.188 116.864L97.5703 118.357V120.663L116.188 119.17V116.864Z" fill="#727578"/>
<path d="M116.188 112.647L97.5703 114.389V116.695L116.188 114.953V112.647Z" fill="#727578"/>
<path d="M116.188 108.431L97.5703 110.421V112.727L116.188 110.736V108.431Z" fill="#727578"/>
<path d="M175.237 150.706H148.898V3.87012L175.237 14.6211V150.706Z" fill="url(#paint20_linear_5225_92751)"/>
<path d="M172.63 142.834H151.531V145.507H172.63V142.834Z" fill="#E2E5E7"/>
<path d="M151.531 139.097L172.631 139.478V136.805L151.531 136.424V139.097Z" fill="#E2E5E7"/>
<path d="M151.531 132.685L172.631 133.45V130.776L151.531 130.013V132.685Z" fill="#E2E5E7"/>
<path d="M151.531 126.275L172.631 127.421V124.748L151.531 123.603V126.275Z" fill="#E2E5E7"/>
<path d="M151.531 119.864L172.631 121.392V118.719L151.531 117.191V119.864Z" fill="#E2E5E7"/>
<path d="M151.531 113.454L172.631 115.363V112.691L151.531 110.781V113.454Z" fill="#E2E5E7"/>
<path d="M151.531 107.043L172.631 109.334V106.662L151.531 104.37V107.043Z" fill="#E2E5E7"/>
<path d="M151.531 100.633L172.631 103.307V100.634L151.531 97.96V100.633Z" fill="#E2E5E7"/>
<path d="M151.531 94.2212L172.631 97.2767V94.6044L151.531 91.5488V94.2212Z" fill="#E2E5E7"/>
<path d="M151.531 87.8118L172.631 91.2494V88.5762L151.531 85.1387V87.8118Z" fill="#E2E5E7"/>
<path d="M151.531 81.4003L172.631 85.2195V82.5468L151.531 78.7275V81.4003Z" fill="#E2E5E7"/>
<path d="M151.531 74.9892L172.631 79.1908V76.5177L151.531 72.3164V74.9892Z" fill="#E2E5E7"/>
<path d="M151.531 68.5784L172.631 73.1617V70.4886L151.531 65.9053V68.5784Z" fill="#E2E5E7"/>
<path d="M151.531 62.1682L172.631 67.1336V64.4608L151.531 59.4951V62.1682Z" fill="#E2E5E7"/>
<path d="M151.531 55.7581L172.631 61.1055V58.4323L151.531 53.085V55.7581Z" fill="#E2E5E7"/>
<path d="M151.531 49.3466L172.631 55.076V52.4029L151.531 46.6738V49.3466Z" fill="#E2E5E7"/>
<path d="M151.531 42.9368L172.631 49.0479V46.3747L151.531 40.2637V42.9368Z" fill="#E2E5E7"/>
<path d="M151.531 36.5253L172.631 43.018V40.3456L151.531 33.8525V36.5253Z" fill="#E2E5E7"/>
<path d="M151.531 30.1151L172.631 36.9903V34.3171L151.531 27.4424V30.1151Z" fill="#E2E5E7"/>
<path d="M151.531 23.7044L172.631 30.9612V28.288L151.531 21.0312V23.7044Z" fill="#E2E5E7"/>
<path d="M151.531 17.2942L172.631 24.9331V22.2599L151.531 14.6211V17.2942Z" fill="#E2E5E7"/>
<path d="M122.562 150.706H148.902V3.87012L122.562 14.6211V150.706Z" fill="url(#paint21_linear_5225_92751)"/>
<path d="M146.279 142.834H125.18V145.507H146.279V142.834Z" fill="#727578"/>
<path d="M146.279 139.097L125.18 139.478V136.805L146.279 136.424V139.097Z" fill="#727578"/>
<path d="M146.279 132.685L125.18 133.45V130.776L146.279 130.013V132.685Z" fill="#727578"/>
<path d="M146.279 126.275L125.18 127.421V124.748L146.279 123.603V126.275Z" fill="#727578"/>
<path d="M146.279 119.864L125.18 121.392V118.719L146.279 117.191V119.864Z" fill="#727578"/>
<path d="M146.279 113.454L125.18 115.363V112.691L146.279 110.781V113.454Z" fill="#727578"/>
<path d="M146.279 107.043L125.18 109.334V106.662L146.279 104.37V107.043Z" fill="#727578"/>
<path d="M146.279 100.633L125.18 103.307V100.634L146.279 97.96V100.633Z" fill="#727578"/>
<path d="M146.279 94.2212L125.18 97.2767V94.6044L146.279 91.5488V94.2212Z" fill="#727578"/>
<path d="M146.279 87.8118L125.18 91.2494V88.5762L146.279 85.1387V87.8118Z" fill="#727578"/>
<path d="M146.279 81.4003L125.18 85.2195V82.5468L146.279 78.7275V81.4003Z" fill="#727578"/>
<path d="M146.279 74.9892L125.18 79.1908V76.5177L146.279 72.3164V74.9892Z" fill="#727578"/>
<path d="M146.279 68.5784L125.18 73.1617V70.4886L146.279 65.9053V68.5784Z" fill="#727578"/>
<path d="M146.279 62.1682L125.18 67.1336V64.4608L146.279 59.4951V62.1682Z" fill="#727578"/>
<path d="M146.279 55.7581L125.18 61.1055V58.4323L146.279 53.085V55.7581Z" fill="#727578"/>
<path d="M146.279 49.3466L125.18 55.076V52.4029L146.279 46.6738V49.3466Z" fill="#727578"/>
<path d="M146.279 42.9368L125.18 49.0479V46.3747L146.279 40.2637V42.9368Z" fill="#727578"/>
<path d="M146.279 36.5253L125.18 43.018V40.3456L146.279 33.8525V36.5253Z" fill="#727578"/>
<path d="M146.279 30.1151L125.18 36.9903V34.3171L146.279 27.4424V30.1151Z" fill="#727578"/>
<path d="M146.279 23.7044L125.18 30.9612V28.288L146.279 21.0312V23.7044Z" fill="#727578"/>
<path d="M146.279 17.2942L125.18 24.9331V22.2599L146.279 14.6211V17.2942Z" fill="#727578"/>
<defs>
<linearGradient id="paint0_linear_5225_92751" x1="279.536" y1="146.793" x2="279.536" y2="111.571" gradientUnits="userSpaceOnUse">
<stop stop-color="#4D4D4D"/>
<stop offset="1" stop-color="#989898"/>
</linearGradient>
<linearGradient id="paint1_linear_5225_92751" x1="262.602" y1="146.793" x2="262.602" y2="111.571" gradientUnits="userSpaceOnUse">
<stop stop-color="#D8D8D8"/>
<stop offset="1" stop-color="white"/>
</linearGradient>
<linearGradient id="paint2_linear_5225_92751" x1="262.692" y1="147.451" x2="262.692" y2="52.7538" gradientUnits="userSpaceOnUse">
<stop stop-color="#4D4D4D"/>
<stop offset="1" stop-color="#989898"/>
</linearGradient>
<linearGradient id="paint3_linear_5225_92751" x1="247.712" y1="147.451" x2="247.712" y2="52.7538" gradientUnits="userSpaceOnUse">
<stop stop-color="#D8D8D8"/>
<stop offset="1" stop-color="white"/>
</linearGradient>
<linearGradient id="paint4_linear_5225_92751" x1="25.0373" y1="147.687" x2="25.0373" y2="106.813" gradientUnits="userSpaceOnUse">
<stop stop-color="#4D4D4D"/>
<stop offset="1" stop-color="#989898"/>
</linearGradient>
<linearGradient id="paint5_linear_5225_92751" x1="8.34584" y1="147.687" x2="8.34584" y2="106.813" gradientUnits="userSpaceOnUse">
<stop stop-color="#D8D8D8"/>
<stop offset="1" stop-color="white"/>
</linearGradient>
<linearGradient id="paint6_linear_5225_92751" x1="49.1835" y1="148.767" x2="49.1835" y2="28.7941" gradientUnits="userSpaceOnUse">
<stop stop-color="#4D4D4D"/>
<stop offset="1" stop-color="#989898"/>
</linearGradient>
<linearGradient id="paint7_linear_5225_92751" x1="30.203" y1="148.767" x2="30.203" y2="28.7941" gradientUnits="userSpaceOnUse">
<stop stop-color="#D8D8D8"/>
<stop offset="1" stop-color="white"/>
</linearGradient>
<linearGradient id="paint8_linear_5225_92751" x1="244.66" y1="147.885" x2="244.66" y2="38.577" gradientUnits="userSpaceOnUse">
<stop stop-color="#4D4D4D"/>
<stop offset="1" stop-color="#989898"/>
</linearGradient>
<linearGradient id="paint9_linear_5225_92751" x1="230.124" y1="147.885" x2="230.124" y2="38.577" gradientUnits="userSpaceOnUse">
<stop stop-color="#D8D8D8"/>
<stop offset="1" stop-color="white"/>
</linearGradient>
<linearGradient id="paint10_linear_5225_92751" x1="219.4" y1="148.524" x2="219.4" y2="10.0486" gradientUnits="userSpaceOnUse">
<stop stop-color="#4D4D4D"/>
<stop offset="1" stop-color="#989898"/>
</linearGradient>
<linearGradient id="paint11_linear_5225_92751" x1="197.591" y1="148.524" x2="197.591" y2="10.0486" gradientUnits="userSpaceOnUse">
<stop stop-color="#D8D8D8"/>
<stop offset="1" stop-color="white"/>
</linearGradient>
<linearGradient id="paint12_linear_5225_92751" x1="192.224" y1="150.342" x2="192.224" y2="102.124" gradientUnits="userSpaceOnUse">
<stop stop-color="#4D4D4D"/>
<stop offset="1" stop-color="#989898"/>
</linearGradient>
<linearGradient id="paint13_linear_5225_92751" x1="170.916" y1="150.342" x2="170.916" y2="102.124" gradientUnits="userSpaceOnUse">
<stop stop-color="#D8D8D8"/>
<stop offset="1" stop-color="white"/>
</linearGradient>
<linearGradient id="paint14_linear_5225_92751" x1="75.4296" y1="148.767" x2="75.4296" y2="28.7941" gradientUnits="userSpaceOnUse">
<stop stop-color="#4D4D4D"/>
<stop offset="1" stop-color="#989898"/>
</linearGradient>
<linearGradient id="paint15_linear_5225_92751" x1="56.4493" y1="148.767" x2="56.4493" y2="28.7941" gradientUnits="userSpaceOnUse">
<stop stop-color="#D8D8D8"/>
<stop offset="1" stop-color="white"/>
</linearGradient>
<linearGradient id="paint16_linear_5225_92751" x1="102.947" y1="148.975" x2="102.947" y2="0.235493" gradientUnits="userSpaceOnUse">
<stop stop-color="#4D4D4D"/>
<stop offset="1" stop-color="#989898"/>
</linearGradient>
<linearGradient id="paint17_linear_5225_92751" x1="80.4828" y1="148.975" x2="80.4828" y2="0.235493" gradientUnits="userSpaceOnUse">
<stop stop-color="#D8D8D8"/>
<stop offset="1" stop-color="white"/>
</linearGradient>
<linearGradient id="paint18_linear_5225_92751" x1="130.386" y1="150.706" x2="130.386" y2="102.487" gradientUnits="userSpaceOnUse">
<stop stop-color="#4D4D4D"/>
<stop offset="1" stop-color="#989898"/>
</linearGradient>
<linearGradient id="paint19_linear_5225_92751" x1="107.206" y1="150.706" x2="107.206" y2="102.487" gradientUnits="userSpaceOnUse">
<stop stop-color="#D8D8D8"/>
<stop offset="1" stop-color="white"/>
</linearGradient>
<linearGradient id="paint20_linear_5225_92751" x1="162.068" y1="150.706" x2="162.068" y2="3.87027" gradientUnits="userSpaceOnUse">
<stop stop-color="#4D4D4D"/>
<stop offset="1" stop-color="#989898"/>
</linearGradient>
<linearGradient id="paint21_linear_5225_92751" x1="135.732" y1="150.706" x2="135.732" y2="3.87027" gradientUnits="userSpaceOnUse">
<stop stop-color="#D8D8D8"/>
<stop offset="1" stop-color="white"/>
</linearGradient>
</defs>
</svg>
