<svg width="120" height="120" viewBox="0 0 120 120" fill="none" xmlns="http://www.w3.org/2000/svg">
<path d="M26.7219 14.0514C26.6986 14.5857 26.3734 14.9109 25.9088 14.8645C25.4442 14.7948 25.3977 14.9806 25.8159 15.0735C26.0017 15.12 26.1179 15.2361 26.1179 15.3522C26.1179 15.4684 26.1876 15.5846 26.2573 15.6078C26.3734 15.6543 26.327 16.0027 26.1411 16.9087C26.0017 17.6057 25.8856 18.2096 25.9088 18.2561C25.932 18.3258 25.9088 18.3956 25.8856 18.4653C25.8623 18.5349 25.8623 18.7672 25.8856 18.953C25.9088 19.3015 25.0493 36.9569 25.0028 36.9801C25.0028 37.0034 24.7008 37.0266 24.3756 37.073C23.7948 37.1427 23.7483 37.1428 23.7483 36.8872C23.7483 36.7478 24.12 33.2633 24.5846 29.1514C25.0493 25.0396 25.3977 21.5782 25.3977 21.4853C25.2816 20.9742 24.6543 25.7132 24.12 30.9169C23.7948 34.1227 23.4928 36.864 23.4696 37.0034C23.3999 37.2822 22.5636 37.8164 22.4242 37.6538C22.3777 37.6073 22.3545 37.677 22.3545 37.77C22.3545 38.0255 22.308 38.0255 23.0979 37.6538C23.4696 37.4912 24.0503 37.3287 24.3988 37.2822L25.0493 37.2124V37.77C25.0493 38.072 25.026 38.3043 25.026 38.3043C24.1665 38.3276 22.2151 38.9548 22.2151 39.2103C22.2151 39.4194 22.1919 39.4193 22.9817 39.0477C23.3766 38.885 23.9574 38.7225 24.3059 38.6761C24.9099 38.6064 24.9099 38.6064 24.9099 38.9084C24.9099 39.071 24.9331 39.2801 24.9796 39.373C25.026 39.5124 24.8634 39.5588 24.3291 39.6053C23.4231 39.6982 22.2848 40.1396 22.2383 40.4184C22.1919 40.6042 22.308 40.581 22.9353 40.279C23.3534 40.0931 23.9806 39.9072 24.3523 39.8607L25.026 39.7678V40.3022V40.8132L24.1665 40.9526C23.7019 41.0456 23.0746 41.2082 22.7959 41.3476C22.4242 41.5102 22.2616 41.5334 22.1919 41.4405C22.1454 41.3708 22.0525 42.3 22.006 43.508C21.9596 44.716 21.9596 45.7382 21.9828 45.7614C22.0293 45.8079 22.0525 45.5059 22.0525 45.1342C22.0525 44.7392 22.0989 43.8565 22.1454 43.1596L22.2151 41.8819L22.61 41.6961C22.8423 41.6031 23.0282 41.5334 23.0746 41.5799C23.1211 41.6264 22.61 52.2893 21.9596 65.2753C21.3091 78.2613 20.7748 89.0869 20.7748 89.3192C20.7748 89.7606 20.7748 89.7606 20.3102 89.7606H19.8456V89.2262C19.8456 88.9242 20.1708 82.4196 20.5425 74.7534C20.9374 67.1105 21.2394 60.5826 21.2162 60.3038C21.1929 60.0018 20.8445 66.3904 20.4496 74.5211C20.0546 82.6287 19.6829 89.5282 19.6597 89.8535C19.6365 90.1787 19.6365 90.3413 19.6829 90.2252C19.7294 90.0858 19.8688 90.0161 20.194 90.0161H20.6354L19.9153 93.1058L19.1951 96.1954L18.6608 96.2419C18.2426 96.2652 18.1032 96.3349 18.0568 96.4975C18.0336 96.6137 17.8709 96.7298 17.7316 96.7531C17.5689 96.7763 18.08 96.7763 18.8466 96.7298L20.2173 96.6833V97.7752V98.8438H18.8699H17.5225L17.476 97.9843L17.4296 97.1247L16.9417 98.0075C16.4074 98.96 16.3145 99.3085 16.6397 99.3085C16.8256 99.3085 16.8256 99.4478 16.6862 101.957L16.5003 104.605H14.9903H13.4803L14.6883 102.282C15.3388 101.004 15.9892 99.773 16.1286 99.5639C16.3609 99.169 16.3609 99.1458 16.1751 98.2166C15.8963 96.8459 15.8963 95.7541 16.5468 78.1452L17.1276 62.4411L16.5468 55.4486C16.2216 51.6155 15.9892 48.1775 16.0125 47.8522C16.0589 47.527 16.1519 47.1088 16.268 46.8997C16.3842 46.6674 16.4074 46.4351 16.3377 46.2028L16.2448 45.8543L16.1519 46.2261C16.0357 46.8068 15.664 47.1321 15.1994 47.0391C14.8509 46.9695 14.8509 46.9695 15.06 47.1553C15.1994 47.2482 15.362 47.3411 15.4549 47.3411C15.5479 47.3411 15.5711 47.4108 15.5479 47.4573C15.5014 47.5269 15.5246 47.6663 15.6176 47.7592C15.7337 47.8986 15.7105 48.1775 15.5711 49.0138C15.4549 49.7107 15.2923 52.1266 15.1529 55.7042C14.9671 59.909 14.8742 61.326 14.7812 61.3957C14.6883 61.4422 14.5025 61.4886 14.3631 61.4886C14.1076 61.4886 14.0843 61.4422 14.154 61.0473C14.2702 60.3968 15.1762 51.9641 15.1529 51.8015C15.1297 51.7085 14.9903 52.4751 14.8045 53.474C14.6186 54.4729 14.5025 55.4486 14.5257 55.6577C14.5954 55.9597 14.5722 55.983 14.456 55.8436C14.3399 55.7042 14.3166 55.7506 14.3863 56.0527C14.4792 56.587 13.8752 61.6513 13.7126 61.7674C13.6197 61.8139 13.5036 61.8371 13.4339 61.8138C13.3409 61.7906 13.2712 61.8371 13.2712 61.93C13.2712 62.1391 13.248 62.1391 13.7823 61.93C14.0146 61.8371 14.3399 61.7442 14.5025 61.7442C14.7348 61.7442 14.8045 61.8138 14.8045 62.0462C14.8045 62.2785 14.7348 62.3482 14.5257 62.3482C14.3631 62.3482 14.0379 62.4178 13.7823 62.5108C13.5268 62.6037 13.2712 62.6502 13.248 62.6269C13.2016 62.5805 13.1783 62.8825 13.1783 63.2542V63.9511L13.6197 63.7421C13.852 63.6259 14.2237 63.4865 14.456 63.44C14.8045 63.3703 14.8277 63.3936 14.8277 63.6492C14.8277 63.9047 14.7348 63.9511 14.2005 64.0673C13.55 64.2067 13.0622 64.4855 13.0622 64.6713C13.0622 64.7642 13.2015 64.7642 13.4106 64.7177L13.7823 64.6248L13.7126 65.2056C13.6894 65.5076 13.3409 72.1284 12.946 79.9107C12.5511 87.6931 12.2026 94.2441 12.1794 94.43C12.1329 94.7088 12.0632 94.8248 11.9006 94.8248C11.7148 94.8248 11.6915 94.732 11.738 94.1977C11.8542 92.5715 12.8299 71.5476 12.8299 71.0598C12.8066 70.7345 12.4814 76.0543 12.0865 82.861C11.4128 94.337 11.2037 96.8227 10.9482 97.4964C10.9017 97.6358 9.78662 98.5185 8.43923 99.4477L6.02323 101.144V103.072L6 105L9.34524 104.93C11.1805 104.884 35.4799 104.837 63.3336 104.814C91.2106 104.768 114 104.744 114 104.721C114 104.698 113.744 103.234 113.419 101.446C113.094 99.6568 112.838 98.1933 112.838 98.1933C112.838 98.1933 111.77 98.1469 110.446 98.1004C109.122 98.0539 108.053 98.0075 108.03 97.9843C108.03 97.961 107.519 96.7065 106.891 95.1733L105.753 92.3856L103.941 72.1748C102.942 61.0472 102.106 52.0105 102.059 52.0802C102.013 52.1731 101.897 52.1731 101.757 52.0802C101.432 51.9175 99.806 51.5923 99.2949 51.5923C98.9 51.5923 98.8768 51.5691 98.8768 51.1742V50.7561H99.6201C100.642 50.7793 101.85 51.1974 101.943 51.5923C102.013 51.8478 102.036 51.8478 102.036 51.4761C102.059 50.4075 101.757 48.6188 101.2 46.5048C100.875 45.2271 100.573 44.205 100.549 44.2282C100.526 44.2514 100.758 45.2968 101.084 46.528C101.572 48.4097 101.641 48.7814 101.479 48.7117C101.362 48.6652 101.13 48.5955 100.944 48.5723C100.735 48.5258 100.596 48.4097 100.573 48.2471C100.178 46.5512 98.5283 36.9569 98.598 36.7478C98.6677 36.5387 98.6445 36.4923 98.5051 36.562C98.3889 36.6317 98.3657 36.6084 98.4354 36.5155C98.4818 36.4226 98.2031 35.145 97.8081 33.6582C97.2738 31.6371 97.1112 30.8937 97.2274 30.7776C97.2971 30.6847 97.3435 30.5685 97.3435 30.522C97.3203 30.4523 97.39 30.2664 97.4829 30.1038C97.5991 29.8483 97.5991 29.6856 97.5294 29.4069L97.39 29.012L97.3668 29.3837C97.3435 29.918 96.9718 30.2896 96.4608 30.2199C96.1355 30.1735 96.0891 30.1967 96.182 30.3361C96.2517 30.429 96.3911 30.4988 96.5072 30.4988C96.6234 30.4988 96.7395 30.6149 96.7628 30.7543C96.786 30.9169 96.4608 35.0753 96.0194 40.0466L95.2295 49.0602L96.8092 70.6881L98.3889 92.316L97.8314 95.0804L97.2971 97.8216L95.2295 97.7287L93.162 97.6358L92.2792 96.8227C91.7914 96.3813 88.028 92.9432 83.9161 89.1798L76.4358 82.3267L72.5795 80.1894L68.7232 78.0523V77.3321C68.7232 76.9372 68.607 74.3585 68.4909 71.594L68.2586 66.5762L67.3758 61.1634C66.8879 58.1899 66.493 55.5415 66.5162 55.3325C66.5395 55.1234 66.6092 54.7982 66.6789 54.6588C66.8647 54.3568 66.8647 54.0315 66.7021 53.7992C66.6092 53.6598 66.5859 53.7063 66.6556 53.9386C66.7485 54.38 66.2375 54.9144 65.7729 54.8215C65.4709 54.7518 65.4709 54.775 65.6799 54.9376C65.7961 55.0305 65.9355 55.1002 66.0052 55.1002C66.0516 55.1002 66.0981 55.2163 66.0981 55.3325C66.0981 55.4719 66.1445 55.5648 66.191 55.5648C66.3072 55.5648 66.2375 56.2385 65.4476 62.2088L64.8204 67.0408V71.4315V75.8221L64.1235 75.4736C63.7285 75.2878 61.8469 74.5211 59.8955 73.801C57.9673 73.0808 56.3644 72.4769 56.3644 72.4769C56.3412 72.4536 56.1088 71.083 55.8533 69.4336L55.3655 66.4136L54.9705 66.1581C54.4827 65.856 54.5988 65.7399 53.6696 67.4823C53.2979 68.1792 52.9727 68.7367 52.9727 68.7134C52.8565 68.5973 52.3919 64.6713 52.4848 64.648C52.5545 64.6248 52.7636 64.4622 52.9727 64.2996C53.3908 63.9279 53.6464 63.3704 53.6464 62.8361L53.6232 62.4411L53.4605 62.7896C53.1585 63.4633 52.4616 63.9046 51.6718 63.9046C50.9748 63.9046 50.3476 63.4633 49.9295 62.6734C49.6971 62.2553 49.6739 62.4643 49.8598 63.1148C49.9991 63.6491 50.6031 64.3693 51.091 64.5551C51.4162 64.6945 51.4395 64.7409 51.4162 65.1823L51.3698 65.6702H50.5567H49.7436V66.5298V67.3892L49.1628 66.8317L48.5821 66.2742L48.5124 66.5994C48.4659 66.7853 48.3033 68.0862 48.1407 69.48C47.9548 70.8739 47.7922 72.0587 47.7458 72.0819C47.6993 72.1284 45.051 72.9414 41.8684 73.9171C38.6625 74.8696 36.0839 75.6827 36.1071 75.7059C36.1304 75.7292 39.1039 74.8696 42.7047 73.801C46.3054 72.7323 49.3255 71.8496 49.3719 71.8496C49.4416 71.8496 49.5113 72.0587 49.5113 72.3142C49.5113 72.7556 49.2325 73.0808 38.5231 84.4871C32.4831 90.9221 27.4885 96.1955 27.4653 96.2419C27.4188 96.2652 27.14 94.8016 26.8613 92.9896L26.327 89.7141L26.5128 84.1619C26.629 81.1187 26.7451 78.5865 26.7683 78.5633C26.7916 78.54 26.8613 78.0755 26.8845 77.5644C27.0703 72.2445 28.0228 47.1552 28.1854 43.1363L28.4177 37.9559L27.5117 26.7586C26.9077 19.4641 26.629 15.5149 26.6986 15.422C26.7683 15.3291 26.7916 15.1897 26.7451 15.0968C26.6986 15.0039 26.7683 14.8644 26.8613 14.7947C27.0471 14.6321 27.0936 14.0049 26.931 13.7493C26.7683 13.7261 26.7451 13.8191 26.7219 14.0514ZM27.1865 28.5938C27.5814 33.3793 27.8834 37.4448 27.8834 37.6307V37.9559L27.2794 37.6307C26.931 37.4448 26.3966 37.2357 26.0946 37.1428L25.5139 37.0034L25.6068 35.8186C25.6533 35.1681 25.8391 31.1725 26.025 26.9445C26.234 22.7165 26.3966 19.2319 26.3966 19.1622C26.3966 18.9763 26.4663 19.7661 27.1865 28.5938ZM98.9 40.9061C99.5969 44.8321 100.154 48.0845 100.154 48.1774C100.154 48.3168 99.9686 48.3632 99.3878 48.3632C98.7606 48.3632 98.6212 48.3168 98.6212 48.1774C98.6212 47.9684 97.3668 33.6581 97.2738 32.6824C97.1112 31.0563 97.8081 34.5409 98.9 40.9061ZM97.5758 40.1628C97.9011 43.903 98.1798 47.2946 98.2263 47.6663L98.296 48.3168L97.5991 48.4561C97.2274 48.5491 96.6466 48.7117 96.3446 48.8278C96.0194 48.944 95.7406 49.0137 95.6941 48.9905C95.6709 48.944 95.9264 45.413 96.2749 41.092C96.6234 36.7943 96.9254 33.2633 96.9486 33.3097C96.9718 33.3329 97.2274 36.4226 97.5758 40.1628ZM26.4896 37.5842C27.2794 37.8397 27.7673 38.3043 27.7673 38.8619V39.3032L27.3956 39.0709C26.9542 38.8154 26.4896 38.6295 25.7926 38.4669C25.2816 38.3275 25.2816 38.3275 25.2816 37.8165C25.2816 37.2125 25.2816 37.2125 26.4896 37.5842ZM26.6057 38.9315C27.3723 39.2335 27.7673 39.582 27.7673 40.0234C27.7673 40.2092 27.744 40.3486 27.7208 40.3486C27.6976 40.3486 27.3956 40.2093 27.0471 40.0466C26.6986 39.884 26.1876 39.7214 25.9088 39.6749C25.421 39.6052 25.3977 39.5821 25.3977 39.1407C25.3977 38.7225 25.4442 38.6761 25.6997 38.6761C25.8623 38.6993 26.2805 38.7921 26.6057 38.9315ZM27.2794 40.5577C27.744 40.79 27.7673 40.8365 27.7673 41.3243V41.8354L27.233 41.5567C26.931 41.4173 26.3966 41.2313 26.0482 41.1384L25.3977 40.9991V40.4415V39.884L26.0714 40.093C26.4663 40.2092 26.9774 40.4183 27.2794 40.5577ZM25.0028 42.1374C24.9563 42.6717 24.6311 53.2417 24.2362 65.6469C23.8413 78.0289 23.4928 88.5525 23.4696 89.0171L23.3999 89.8767H22.2151H21.0303L21.1 88.7848C21.1465 88.2041 21.6808 77.3321 22.308 64.648C22.9353 51.964 23.4928 41.5566 23.5393 41.5101C23.5857 41.4637 23.8413 41.3708 24.1433 41.3243C25.119 41.092 25.0725 41.0456 25.0028 42.1374ZM25.723 42.2536C25.6765 42.8576 25.2816 53.7296 24.8402 66.4369C24.3988 79.1441 24.0039 89.598 23.9574 89.6677C23.911 89.7374 23.8413 89.7605 23.7948 89.7141C23.7019 89.6444 25.0493 46.5977 25.2351 42.602C25.3048 41.2779 25.328 41.1617 25.5371 41.1617C25.7462 41.1617 25.7926 41.2314 25.723 42.2536ZM27.1633 41.8586L27.5814 42.0909L27.6279 43.1363C27.6511 43.7171 27.6046 44.2281 27.5582 44.2746C27.4885 44.3443 27.14 44.1817 26.6522 43.8797L25.8623 43.3919L25.932 42.8576C25.9785 42.5556 26.0017 42.1374 26.0017 41.8819C26.0017 41.4405 26.0017 41.4405 26.3734 41.5334C26.5593 41.5799 26.931 41.7192 27.1633 41.8586ZM26.8613 44.2514L27.535 44.7161V45.5755C27.535 46.0401 27.4885 46.4816 27.442 46.5745C27.3723 46.6907 27.14 46.5977 26.6057 46.2725L25.8856 45.8543V44.7392C25.8856 43.8797 25.932 43.6706 26.0482 43.7171C26.0946 43.7635 26.4896 43.9959 26.8613 44.2514ZM26.7916 46.6442L27.5117 47.1088V48.0613C27.5117 48.5724 27.4653 49.0602 27.4188 49.1299C27.3491 49.2228 27.0703 49.1066 26.5128 48.7349L25.6997 48.2238L25.7926 47.6199C25.8391 47.2715 25.8623 46.8068 25.8623 46.5513C25.8856 46.0402 25.8391 46.0169 26.7916 46.6442ZM26.6754 49.1996L27.4188 49.6874V50.5934C27.4188 51.8711 27.3723 51.8943 26.4199 51.36L25.6068 50.9186L25.6997 50.2217C25.7462 49.8268 25.7694 49.339 25.7694 49.1299C25.7694 48.8976 25.8159 48.7349 25.8623 48.7349C25.9088 48.7349 26.2573 48.944 26.6754 49.1996ZM98.3889 49.1067C98.3889 49.5016 98.3889 49.5016 97.5526 49.6874C97.088 49.8036 96.484 49.9894 96.2052 50.1055L95.6709 50.3378L95.7174 49.9661C95.7638 49.5015 96.2284 49.1996 97.3435 48.8976C98.3889 48.6421 98.3889 48.642 98.3889 49.1067ZM101.084 49.0138C101.664 49.1996 101.688 49.2227 101.688 49.6177C101.688 49.9661 101.641 50.0358 101.479 49.9661C101.037 49.8035 99.7131 49.548 99.1787 49.548H98.6212V49.1299V48.6884L99.5505 48.7582C100.038 48.8047 100.735 48.8976 101.084 49.0138ZM100.921 50.0823C101.688 50.2914 101.757 50.3611 101.85 50.7792L101.943 51.1509L101.107 50.8722C100.666 50.7328 99.9454 50.5934 99.504 50.5702C98.7606 50.5469 98.7374 50.5237 98.7374 50.2217C98.7374 50.0591 98.8071 49.8732 98.9 49.85C99.1091 49.7571 100.271 49.8964 100.921 50.0823ZM98.6212 50.152C98.6212 50.454 98.4354 50.5469 97.6687 50.7096C97.2506 50.8025 96.6698 50.9651 96.4143 51.0813L95.9032 51.3136V51.0348C95.9032 50.7095 96.1355 50.5702 97.088 50.2449C97.8778 49.9894 98.6212 49.943 98.6212 50.152ZM98.5051 51.2438C98.5051 51.5923 98.4586 51.662 98.2263 51.662C97.9475 51.662 96.3911 52.0337 95.9961 52.1963C95.8103 52.266 95.7871 52.2196 95.7871 51.9176C95.7871 51.5924 95.8568 51.5226 96.2284 51.36C96.7628 51.1277 97.7384 50.8722 98.1798 50.8722C98.4818 50.8258 98.5051 50.8721 98.5051 51.2438ZM16.1519 56.5638C16.3842 59.2818 16.57 61.6512 16.57 61.8138V62.1159L16.1286 61.8836C15.8731 61.7674 15.5711 61.6513 15.4317 61.6513C15.1762 61.6513 15.1762 61.6048 15.2226 60.7917C15.2691 60.118 15.5711 53.4973 15.6408 51.453C15.664 50.7793 15.7105 51.151 16.1519 56.5638ZM26.8845 52.0338L27.3026 52.2892L27.2794 53.1953C27.2562 54.5892 27.233 54.6123 26.3502 54.0315C25.932 53.7528 25.5836 53.5205 25.5371 53.5205C25.5139 53.4973 25.5371 53.0094 25.5836 52.4054L25.6765 51.3368L26.0714 51.5691C26.3037 51.6621 26.6522 51.8712 26.8845 52.0338ZM100.573 52.0338C100.619 52.1035 104.197 91.4796 104.173 91.8977V92.2231L102.872 92.2695C102.152 92.2927 101.572 92.3159 101.572 92.2927C101.572 92.2695 101.13 85.5558 100.573 77.3088C100.038 69.0851 99.4343 60.2341 99.2949 57.6323C99.1323 55.0304 98.9697 52.6841 98.9232 52.4054L98.8535 51.8944L99.6898 51.964C100.154 51.964 100.549 52.0105 100.573 52.0338ZM97.8081 52.3822C97.8081 52.5913 97.8546 52.963 97.8778 53.1953L97.9475 53.6134L97.0415 54.0548C96.5537 54.3103 96.0891 54.4961 96.0194 54.4961C95.8103 54.4961 95.88 52.7772 96.0891 52.6145C96.2517 52.4984 97.4597 52.057 97.7152 52.0338C97.7617 52.0105 97.8081 52.1964 97.8081 52.3822ZM98.6909 52.87C98.7374 53.3346 99.3181 62.1391 99.9918 72.4304C100.666 82.7216 101.246 91.4331 101.27 91.8048C101.339 92.4088 101.316 92.4785 101.107 92.4785C100.782 92.4785 100.921 94.2906 99.3878 71.7799C98.7141 61.721 98.1334 53.172 98.0869 52.7538C97.994 52.0337 98.0172 52.0338 98.296 52.0338C98.5748 52.0338 98.6212 52.0569 98.6909 52.87ZM101.618 52.3822C101.804 52.4519 101.943 52.5215 101.943 52.5448C101.943 52.7074 105.381 91.224 105.428 91.6654L105.498 92.2231H105.033C104.592 92.2231 104.568 92.1998 104.499 91.8281C104.429 91.5029 100.898 52.4751 100.898 52.2196C100.875 52.1499 101.014 52.1731 101.618 52.3822ZM26.838 54.4961L27.2794 54.775L27.2562 55.7274C27.233 56.2385 27.2097 56.796 27.1633 56.9354C27.0703 57.1909 27.0471 57.191 26.2573 56.6567L25.4442 56.1223L25.5371 55.3325C25.5836 54.9143 25.6068 54.38 25.6068 54.1709V53.7761L26.0017 54.0084C26.234 54.1013 26.6057 54.3335 26.838 54.4961ZM97.9243 54.3103C97.9243 54.473 97.9708 54.8214 97.994 55.1234L98.0869 55.6577L97.1344 56.1223C96.6234 56.3778 96.1588 56.5637 96.1123 56.5173C96.0658 56.4708 96.0426 56.0991 96.0426 55.6577V54.8679L96.9021 54.4497C97.3668 54.2174 97.7849 54.0084 97.8546 54.0084C97.8778 54.0084 97.9243 54.1477 97.9243 54.3103ZM98.0869 56.8425L98.1798 57.7253L97.2738 58.1667C96.786 58.399 96.3214 58.5849 96.2517 58.5384C96.182 58.4919 96.1355 58.0969 96.1355 57.6556V56.8192L97.0648 56.3546C97.5526 56.0991 97.994 55.9132 97.994 55.9132C97.994 55.9597 98.0405 56.3546 98.0869 56.8425ZM26.3966 57.098L27.1633 57.5859V58.3292C27.1633 58.7241 27.1168 59.2353 27.0936 59.4211L27.0239 59.7928L26.1876 59.2353L25.3513 58.6777L25.421 57.9111C25.4674 57.493 25.4906 57.0283 25.4906 56.8657C25.4906 56.7263 25.5139 56.6102 25.5371 56.6102C25.6068 56.6102 25.9785 56.8425 26.3966 57.098ZM98.2031 59.0494C98.2495 59.5372 98.2495 60.0019 98.1798 60.0484C98.0172 60.211 96.5769 60.7453 96.5072 60.6756C96.4607 60.6291 96.4143 60.2574 96.3911 59.7928L96.3446 58.9798L97.1577 58.5615C97.5991 58.3292 98.0172 58.1434 98.0405 58.1434C98.0869 58.1434 98.1566 58.5383 98.2031 59.0494ZM66.493 65.345L66.5627 67.6681L66.2375 67.7377C66.0516 67.7842 65.889 67.7842 65.8658 67.761C65.8426 67.7377 65.9355 65.6934 66.0516 63.2077L66.2839 58.7009L66.3536 60.8846C66.3769 62.0462 66.4466 64.0673 66.493 65.345ZM68.0727 67.4125L68.0959 68.0165L67.4687 67.8307L66.8415 67.6448L66.7718 64.3925C66.7253 62.6037 66.7021 60.6291 66.7021 59.9786L66.7253 58.7938L67.399 62.8128C67.7707 64.9965 68.0727 67.0873 68.0727 67.4125ZM26.9774 61.1867C26.9774 61.7674 26.931 62.2785 26.9077 62.325C26.8613 62.3714 26.4896 62.1624 26.0482 61.9069C25.1886 61.3493 25.2119 61.4422 25.3513 60.0019L25.4442 59.0959L26.2108 59.6069L26.9774 60.118V61.1867ZM98.3192 61.0008C98.4586 62.1158 98.4586 62.0694 97.5526 62.5108C96.5769 62.9986 96.5072 62.9522 96.5072 61.8604V61.1402L97.3203 60.7685C97.7617 60.5594 98.1566 60.3969 98.1798 60.3969C98.2031 60.3736 98.2728 60.6755 98.3192 61.0008ZM26.4896 62.534L26.931 62.7896L26.9077 63.6259C26.8845 64.0673 26.8613 64.6016 26.8148 64.7642L26.7451 65.0894L26.0946 64.6713C25.7462 64.439 25.3745 64.2066 25.2816 64.1602C25.1422 64.0673 25.1422 63.835 25.2119 62.929L25.3048 61.7907L25.6765 62.0462C25.8856 62.1623 26.2573 62.3946 26.4896 62.534ZM16.0589 62.1623C16.4074 62.3249 16.57 62.4876 16.57 62.6502C16.57 62.836 16.5236 62.8593 16.3145 62.7896C16.1519 62.7431 15.8266 62.6502 15.5711 62.5805C15.1762 62.4644 15.1065 62.3946 15.1297 62.1856C15.1762 61.8371 15.4085 61.8371 16.0589 62.1623ZM65.7264 64.8107C65.6567 66.0884 65.587 67.3428 65.5406 67.5286C65.4476 68.1326 65.2618 67.97 65.2618 67.2963C65.2618 66.6923 65.7496 62.3482 65.8193 62.4179C65.8193 62.4411 65.7961 63.5098 65.7264 64.8107ZM98.6212 63.8582L98.6444 64.3461L97.7384 64.7875C97.2506 65.043 96.8092 65.2055 96.7628 65.1823C96.7163 65.1358 96.6698 64.7178 96.6466 64.2299L96.5769 63.3471L97.5061 62.8825L98.4354 62.4179L98.5283 62.9057C98.5748 63.1613 98.6212 63.6027 98.6212 63.8582ZM14.9206 62.9754C14.9206 63.138 14.8045 63.2078 14.4328 63.2775C14.154 63.3239 13.8056 63.4401 13.5965 63.533C13.2712 63.6956 13.248 63.6956 13.248 63.4633C13.248 63.1845 13.4339 63.0219 13.9449 62.8825C14.6419 62.6966 14.9206 62.7198 14.9206 62.9754ZM16.2448 63.0451C16.4306 63.1381 16.57 63.3238 16.57 63.44C16.57 63.6723 16.5468 63.6723 16.0822 63.44C15.8034 63.3006 15.4782 63.2077 15.3852 63.2077C15.2459 63.2077 15.1762 63.1149 15.1762 62.9522C15.1762 62.7432 15.2226 62.7199 15.5711 62.7896C15.7337 62.8593 16.0589 62.9755 16.2448 63.0451ZM16.1286 63.7653C16.3377 63.8815 16.4539 64.0208 16.4539 64.2067V64.4854L15.7569 64.2299C15.1762 64.0209 15.06 63.9279 15.06 63.7188C15.06 63.4633 15.1065 63.4401 15.4549 63.5098C15.6176 63.5562 15.9428 63.6724 16.1286 63.7653ZM14.8045 64.4854C14.8045 64.6015 14.7348 66.0652 14.6883 67.7146C14.5489 70.9901 13.852 93.4311 13.852 94.3138V94.8481H13.1551H12.4582V94.3835C12.4582 94.1279 12.8066 87.2981 13.2248 79.2138C13.6429 71.1295 13.9914 64.4854 13.9914 64.4854C13.9914 64.4389 14.3631 64.3461 14.6651 64.3228C14.7348 64.2764 14.8045 64.3692 14.8045 64.4854ZM15.362 65.7167C15.3156 66.4368 15.1762 69.8982 15.0136 73.3596C14.8509 76.821 14.7348 79.4461 14.7116 79.1673C14.6883 78.8885 14.7812 75.7291 14.9206 72.1516C15.06 68.5508 15.1762 65.345 15.1762 64.9965C15.1762 64.6016 15.2226 64.3925 15.3156 64.3925C15.4085 64.3925 15.4085 64.7642 15.362 65.7167ZM16.1519 64.648C16.4306 64.7642 16.4539 64.8571 16.4539 65.4844V66.1813L15.9892 65.9257C15.5479 65.6702 15.5246 65.6237 15.5246 65.0894C15.5014 64.4622 15.5943 64.3925 16.1519 64.648ZM26.2108 65.043L26.931 65.5076L26.8613 66.3904C26.7219 67.9236 26.7683 67.8771 25.9553 67.3196C25.5836 67.0408 25.2351 66.7853 25.1886 66.7156C25.0957 66.5762 25.2816 64.4854 25.3745 64.5319C25.4442 64.5551 25.8159 64.7875 26.2108 65.043ZM98.6677 65.2985C98.8303 66.46 98.8303 66.46 97.9011 66.9711L97.0415 67.4357L96.9718 67.1338C96.9254 66.9479 96.8789 66.5529 96.8789 66.2277L96.8557 65.6469L97.6687 65.2056C98.1101 64.9733 98.5051 64.7642 98.5283 64.7642C98.5748 64.741 98.6212 64.9965 98.6677 65.2985ZM52.1132 65.2985C52.1596 65.4843 52.299 66.2975 52.4151 67.1105C52.5545 67.9236 52.6939 68.7366 52.7171 68.8992C52.7868 69.2012 52.7636 69.2246 52.4848 69.2246C52.2293 69.2246 52.1828 69.1548 52.1132 68.8296C52.0435 68.4811 51.5788 65.0895 51.5788 65.0198C51.5788 64.9965 51.695 64.9733 51.8111 64.9733C51.9505 64.9733 52.0667 65.0894 52.1132 65.2985ZM16.4539 67.0176C16.4539 67.3196 16.4074 67.5751 16.3842 67.5751C16.3377 67.5751 16.1286 67.459 15.9196 67.3196C15.5479 67.0873 15.5246 67.0176 15.5246 66.4833V65.9025L15.9892 66.1581C16.4306 66.4368 16.4539 66.4601 16.4539 67.0176ZM50.8122 69.1315L50.4405 72.2213L48.5124 74.7069C46.6307 77.1462 46.561 77.1926 46.1893 77.1462C45.9802 77.1229 45.7944 77.0765 45.7944 77.03C45.7944 76.9836 46.6539 76.0776 47.6761 74.9858C49.279 73.2899 49.5578 72.9414 49.6275 72.5465C49.6739 72.291 49.7204 70.7345 49.7668 69.0619L49.8598 66.0419H50.5102H51.1839L50.8122 69.1315ZM54.9008 66.5298C55.0402 66.6459 55.2261 67.4823 55.5513 69.4569C55.8068 70.9669 56.0159 72.2445 55.9927 72.2677C55.9695 72.2909 55.6675 72.1748 55.319 72.0354C54.7382 71.8031 54.6685 71.7334 54.5988 71.3617C54.4362 70.479 53.8787 70.0608 52.7636 70.0608C52.2293 70.0608 52.1828 70.0376 52.1828 69.7821C52.1828 69.5498 52.2525 69.4801 52.5545 69.4569C52.903 69.4104 52.9727 69.2942 53.7625 67.9236C54.2271 67.0873 54.6453 66.4136 54.6685 66.4136C54.6918 66.3904 54.8079 66.4601 54.9008 66.5298ZM51.7182 68.2488C51.8344 69.0154 51.9505 69.9446 51.9505 70.3163V70.99L42.5653 83.767C37.4081 90.7827 33.1103 96.6136 33.0174 96.6833C32.9245 96.7762 32.6922 96.8227 32.4367 96.7995L31.9953 96.7531L34.2254 93.8027C35.4567 92.1766 39.6614 86.6708 43.5874 81.5833L50.7193 72.3375L51.0678 69.5498C51.2536 68.0165 51.4395 66.7852 51.4627 66.8085C51.4859 66.8549 51.6021 67.4822 51.7182 68.2488ZM98.8535 68.1559L98.8768 68.6902L98.0405 69.1315C97.5758 69.3871 97.1809 69.573 97.1577 69.5265C97.1112 69.4801 97.0648 69.0619 97.0183 68.5973L96.9486 67.7146L97.8314 67.2499L98.7141 66.7853L98.8071 67.2034C98.8071 67.4357 98.8535 67.8772 98.8535 68.1559ZM49.5578 68.9923C49.5345 69.5963 49.5113 70.4557 49.4648 70.8739L49.3951 71.6173L48.7215 71.8496C48.3498 71.9658 48.0245 72.0586 47.9781 72.0354C47.9548 71.9889 48.0942 70.8739 48.2801 69.5265C48.4659 68.1791 48.6285 67.0409 48.6285 67.0176C48.6285 66.9712 48.8376 67.157 49.0931 67.4125L49.5578 67.8771V68.9923ZM26.0946 67.7146L26.8613 68.2023L26.7916 69.2477C26.7451 69.8285 26.6986 70.3164 26.6754 70.3628C26.629 70.3861 26.2573 70.2003 25.8391 69.9215C25.1422 69.4801 25.0725 69.3871 25.0725 69.0386C25.0725 68.4346 25.2119 67.2034 25.2816 67.2034C25.3048 67.2267 25.6765 67.4358 26.0946 67.7146ZM15.9428 67.9236C16.2912 68.1327 16.3145 68.2024 16.3145 68.8296V69.48L15.8499 69.1548C15.4085 68.8528 15.3852 68.7831 15.3852 68.2488C15.3852 67.9468 15.4317 67.6913 15.4782 67.6913C15.5246 67.6913 15.7337 67.8075 15.9428 67.9236ZM66.6789 68.0398C66.6789 68.2721 66.4698 68.4115 66.1446 68.4115C66.0516 68.4115 65.9819 68.2953 65.9819 68.1792C65.9819 67.9701 66.0516 67.9236 66.6092 67.8307C66.6324 67.8307 66.6789 67.9236 66.6789 68.0398ZM67.8404 68.1559C68.1192 68.2953 68.2121 68.7134 67.9566 68.5973C67.8636 68.5741 67.5849 68.4812 67.3061 68.3882C66.9576 68.2953 66.795 68.1792 66.795 68.0398C66.795 67.8539 66.8647 67.8307 67.1899 67.9004C67.399 67.9701 67.6778 68.063 67.8404 68.1559ZM65.4476 68.5973C65.3082 68.7367 65.2153 68.5275 65.3082 68.3185C65.4012 68.1094 65.4012 68.1094 65.4476 68.3185C65.4941 68.4346 65.4941 68.5741 65.4476 68.5973ZM67.7939 68.8063C68.0262 68.8993 68.2121 69.0619 68.2121 69.1548C68.2121 69.3871 68.1889 69.3871 67.8404 69.2477C67.6778 69.178 67.4222 69.1084 67.2596 69.0619C66.8879 68.969 66.8182 68.6438 67.1667 68.6438C67.2829 68.6438 67.5616 68.7134 67.7939 68.8063ZM66.6556 68.8992C66.5627 69.1315 65.9819 69.1781 65.9819 68.9457C65.9819 68.8064 66.0981 68.7599 66.3536 68.7599C66.5627 68.7599 66.6789 68.8063 66.6556 68.8992ZM65.4012 69.271C65.3082 69.3639 65.2618 69.3639 65.2618 69.2246C65.2618 68.9923 65.4244 68.8296 65.4709 68.9923C65.5173 69.0619 65.4709 69.2013 65.4012 69.271ZM98.9697 70.3861C98.9232 70.8972 98.9232 70.9203 98.1101 71.3617L97.2738 71.8031L97.1809 71.3617C97.1344 71.1294 97.088 70.6881 97.088 70.3861L97.0648 69.8517L97.9243 69.4336L98.7838 69.0154L98.8768 69.4336C98.9464 69.6892 98.9929 70.1073 98.9697 70.3861ZM15.8034 69.48C16.1751 69.7355 16.2216 69.8053 16.2216 70.3628C16.2216 70.7113 16.1751 70.99 16.1519 70.99C16.1054 70.99 15.8963 70.8739 15.6872 70.7346C15.3156 70.5023 15.2923 70.4557 15.2923 69.8517C15.2923 69.5033 15.3156 69.2246 15.362 69.2246C15.362 69.2246 15.5711 69.3406 15.8034 69.48ZM66.6789 69.6427C66.6789 69.8285 66.6092 69.9446 66.5162 69.9446C66.4233 69.9446 66.2607 69.9912 66.1678 70.0144C66.0052 70.0841 65.9819 69.9911 65.9819 69.7123C65.9819 69.3871 66.0284 69.3407 66.3304 69.3407C66.6092 69.3407 66.6789 69.3871 66.6789 69.6427ZM67.8636 69.5265C68.2586 69.7356 68.3979 70.2699 68.0262 70.1073C67.9101 70.0608 67.6081 69.9911 67.3758 69.9679C67.0041 69.8982 66.9344 69.8517 66.9344 69.6194C66.9344 69.3871 67.0041 69.3407 67.2364 69.3407C67.3758 69.3407 67.6546 69.4336 67.8636 69.5265ZM65.4012 70.2002C65.3082 70.2931 65.2618 70.2467 65.2618 70.0376C65.2618 69.6427 65.4244 69.4801 65.4709 69.8053C65.4941 69.9679 65.4709 70.1305 65.4012 70.2002ZM26.3966 70.6881L26.7451 70.9204L26.6754 72.0354C26.629 72.6394 26.5593 73.1737 26.536 73.1969C26.5128 73.2434 26.1411 73.0111 25.6997 72.7323C24.8402 72.1748 24.817 72.1516 25.0028 70.5486L25.0957 69.8285L25.5836 70.1305C25.8391 70.2932 26.2108 70.5487 26.3966 70.6881ZM66.7021 73.5454C66.7253 75.4271 66.7486 76.9604 66.7253 76.9836C66.7021 77.0069 66.5395 76.9371 66.3304 76.821L65.9587 76.6352V73.4758C65.9587 71.7334 66.0052 70.2699 66.0516 70.2467C66.0981 70.2002 66.2375 70.1538 66.4001 70.1538H66.6556L66.7021 73.5454ZM67.8869 70.4325C68.1656 70.5486 68.2121 70.6183 68.2121 71.0133V71.4779L67.6081 71.1992C67.0506 70.9436 66.9809 70.8739 66.9576 70.5486C66.9112 70.177 66.9344 70.1537 67.2596 70.2234C67.399 70.2699 67.701 70.3628 67.8869 70.4325ZM53.8787 70.6881C54.111 70.8507 54.1807 70.9901 54.1807 71.2921V71.7102L53.6232 71.4779C52.2758 70.9436 52.1828 70.8739 52.1828 70.6184C52.1828 70.3861 52.2293 70.3628 52.8798 70.4092C53.2515 70.4557 53.6928 70.5719 53.8787 70.6881ZM65.4941 73.4758C65.4941 76.4028 65.4941 76.4261 65.2618 76.31C65.0295 76.1938 65.0295 76.0543 65.0295 73.4292C65.0295 70.688 65.0527 70.5951 65.4244 70.5486C65.4709 70.5254 65.4941 71.8496 65.4941 73.4758ZM16.2216 71.8728V72.5233L15.7569 72.291C15.2923 72.0587 15.2923 72.0355 15.2923 71.4082V70.7577L15.7569 70.99C16.1983 71.2223 16.2216 71.2456 16.2216 71.8728ZM58.7339 73.6848C60.6853 74.4282 62.2882 75.102 62.3115 75.1484C62.3347 75.2646 35.5264 93.8492 35.4567 93.8027C35.4334 93.7795 38.9645 88.9707 43.3087 83.1165C47.6528 77.2624 51.4162 72.1516 51.695 71.7799L52.1828 71.1294L53.6928 71.7102C54.5059 72.0354 56.7825 72.9182 58.7339 73.6848ZM68.3282 72.3839C68.3282 72.6626 68.305 72.895 68.2818 72.895C68.2585 72.895 67.9333 72.7788 67.5849 72.6394L66.9344 72.3839V71.8263V71.2688L67.6313 71.5708L68.3282 71.8728V72.3839ZM99.1555 71.7799C99.202 72.0355 99.2252 72.5233 99.2252 72.895V73.5454L98.3657 74.01L97.5061 74.4746L97.4132 73.8707C97.3668 73.5455 97.3435 73.0111 97.3203 72.7323L97.2971 72.1981L98.1101 71.7799C98.5515 71.5476 98.9464 71.3385 98.9697 71.3385C99.0394 71.3385 99.1091 71.5476 99.1555 71.7799ZM15.664 72.6627C16.0822 72.895 16.0822 72.9415 16.0822 73.6152C16.0822 73.9869 16.0589 74.3121 16.0357 74.3121C15.9892 74.3121 15.7802 74.1959 15.5711 74.0565C15.1529 73.8242 15.1529 73.7777 15.1529 73.104C15.1529 72.7323 15.1762 72.4071 15.1994 72.4071C15.2226 72.4071 15.4549 72.5233 15.664 72.6627ZM26.5825 74.1262C26.5825 74.4514 26.536 74.9393 26.4896 75.2181L26.3966 75.7059L25.63 75.2646C24.7705 74.7535 24.724 74.6605 24.8634 73.3829L24.9563 72.6627L25.7694 73.104L26.5825 73.5454V74.1262ZM67.7243 73.0576L68.3282 73.29V73.8475V74.405L67.6778 74.103C67.3061 73.9404 67.0041 73.801 66.9809 73.801C66.9576 73.801 66.9344 73.5455 66.9344 73.2667C66.9344 72.9647 66.9809 72.7556 67.0273 72.7788C67.0506 72.8021 67.3758 72.9183 67.7243 73.0576ZM99.3181 75.1252L99.3414 75.8917L98.5051 76.3331C98.0405 76.5886 97.6455 76.7745 97.6223 76.7513C97.5991 76.7281 97.5526 76.2866 97.5061 75.7523L97.4132 74.8L98.2728 74.3353C99.1323 73.8707 99.1555 73.8475 99.2252 74.103C99.2717 74.2424 99.3181 74.707 99.3181 75.1252ZM68.1889 74.5444C68.4212 74.6373 68.4444 74.7302 68.4444 75.2413V75.8221L67.7475 75.4736C67.0506 75.1252 67.0506 75.1251 67.0506 74.5908V74.0565L67.4919 74.2423C67.7243 74.3585 68.0263 74.4747 68.1889 74.5444ZM16.0822 75.4039C16.0822 76.124 16.1054 76.1241 15.4782 75.7059C15.1762 75.4969 15.1529 75.4039 15.1529 74.8231V74.1727L15.6176 74.4515C16.0822 74.707 16.0822 74.7302 16.0822 75.4039ZM25.8391 75.6594C26.6986 76.124 26.6754 76.1241 26.5128 77.6806L26.4199 78.3775L25.6068 77.9129C24.7937 77.4482 24.7937 77.4482 24.7937 76.9604C24.7937 76.3564 24.9331 75.2181 25.0028 75.2181C25.0493 75.2413 25.421 75.4271 25.8391 75.6594ZM63.0316 75.6827C63.0084 75.9847 62.5902 76.3332 59.6399 78.6098C57.7815 80.0269 54.2968 82.7217 51.9041 84.5569C45.8873 89.1798 40.6836 93.0825 39.3362 94.0118C38.012 94.941 36.9434 95.9399 36.7344 96.5439C36.595 96.9388 36.5485 96.9621 36.0839 96.9621H35.5728L35.6193 95.6379L35.6657 94.3138L49.279 84.8588C56.7593 79.6551 62.9387 75.3807 62.9852 75.3807C62.9852 75.3575 63.0316 75.4968 63.0316 75.6827ZM67.7939 75.7988C68.4212 76.1241 68.4444 76.1241 68.4444 76.6352C68.4444 76.9139 68.4212 77.1462 68.3979 77.1462C68.3515 77.1462 68.0262 77.0068 67.6313 76.8442C67.0738 76.5887 66.9112 76.4725 66.9112 76.2867C66.9112 76.0079 67.0273 75.52 67.097 75.52C67.1202 75.4736 67.4222 75.613 67.7939 75.7988ZM75.8783 85.4164C82.6617 90.6665 88.2835 95.0571 88.4229 95.15C88.6087 95.3359 88.632 95.5218 88.6087 96.4975L88.5623 97.659L75.9479 86.8567C69.0252 80.9096 63.3104 75.9615 63.2872 75.8453C63.2407 75.706 63.2872 75.6826 63.4033 75.7523C63.473 75.822 69.0949 80.1662 75.8783 85.4164ZM15.6176 76.0544C16.0822 76.2867 16.0822 76.3099 16.0822 76.9371C16.0822 77.2856 16.0589 77.5877 16.0125 77.5877C15.966 77.5877 15.7337 77.4715 15.5014 77.3088C15.06 77.0533 15.0368 77.0301 15.0368 76.4261C15.0368 76.1009 15.06 75.8221 15.1065 75.8221C15.1297 75.8221 15.3852 75.9382 15.6176 76.0544ZM71.0462 79.7946L76.2964 82.7216L84.1949 89.9231C88.539 93.8724 92.2792 97.2873 92.4883 97.4964L92.9064 97.8681L91.8146 97.8914H90.7227V97.45C90.7227 97.0783 90.6298 96.9156 90.2581 96.5439L89.7935 96.0793V96.9389V97.7985H89.4451H89.0966L89.0501 96.451L89.0037 95.1037L76.854 85.7648C70.1867 80.6308 64.6578 76.3796 64.5881 76.31C64.5184 76.2403 64.7739 76.3564 65.1224 76.5423C65.4941 76.7049 68.1656 78.1917 71.0462 79.7946ZM75.7389 87.0193L88.2138 97.6823L87.2846 97.7287L86.3554 97.7752L84.9847 96.5672C81.5001 93.5471 62.7993 76.4958 62.8458 76.4029C62.8922 76.3332 62.9852 76.3099 63.0781 76.3331C63.171 76.3563 68.8858 81.1651 75.7389 87.0193ZM99.504 76.6816C99.5505 76.8906 99.5737 77.3088 99.5505 77.6573L99.504 78.2381L98.6212 78.6098L97.7384 79.0046L97.6455 78.4471C97.4597 77.0997 97.4597 77.1229 98.4121 76.6816C98.8768 76.4725 99.2949 76.31 99.3414 76.31C99.4111 76.31 99.4808 76.4725 99.504 76.6816ZM63.1013 77.2392L63.6124 77.7038L63.1942 78.0523L62.7761 78.4007L62.8458 86.6941L62.9155 94.9875L62.7296 86.787L62.567 78.5865L62.0095 78.029C61.5449 77.5644 61.4984 77.4483 61.6378 77.3553C61.7539 77.2857 61.963 77.1463 62.1024 77.0069C62.265 76.8675 62.4276 76.7745 62.4973 76.7513C62.5438 76.7745 62.7993 76.9837 63.1013 77.2392ZM68.4444 77.7502C68.4444 78.029 68.3979 78.029 67.6778 77.5877C67.2364 77.3321 67.0506 77.1463 67.0506 77.0069C67.0506 76.7978 67.1202 76.7977 67.7475 77.1694C68.1889 77.4017 68.4444 77.6108 68.4444 77.7502ZM15.966 78.7027V79.3764L15.5246 79.0977C15.1065 78.8189 15.0832 78.7724 15.0368 78.1452L14.9903 77.4715L15.4549 77.7502C15.966 78.0057 15.966 78.029 15.966 78.7027ZM46.2358 77.5644C46.3287 77.6341 46.3054 77.727 46.1428 77.9129C45.957 78.1452 45.8408 78.1684 45.4459 78.0987L44.9581 78.0058L45.2136 77.7269C45.4924 77.4714 45.957 77.4018 46.2358 77.5644ZM26.2108 78.54C26.4663 78.7259 26.4663 78.7492 26.3502 79.8875C26.2805 80.5147 26.2108 81.0722 26.1643 81.0954C26.1411 81.1419 25.7926 80.9096 25.3977 80.654C24.6776 80.143 24.6776 80.143 24.6776 79.5623C24.6776 79.237 24.724 78.6795 24.7473 78.3542L24.8402 77.7502L25.3977 78.0754C25.6997 78.2148 26.0714 78.4471 26.2108 78.54ZM60.9873 78.6794C60.6156 79.6551 60.6156 79.6784 60.6156 81.7692C60.6156 82.9307 60.6621 86.9032 60.7085 90.5736C60.8015 96.5672 60.7782 97.2641 60.6156 97.2641C60.453 97.2641 60.4298 96.3348 60.4298 88.7616V80.2592L59.8955 79.7016L59.3612 79.144L60.2904 78.4471C60.8015 78.0522 61.2429 77.7269 61.2893 77.7269C61.3125 77.7269 61.1964 78.1451 60.9873 78.6794ZM62.5438 87.2981C62.6135 92.0604 62.7064 96.2651 62.7529 96.6601L62.8225 97.4035H61.9862H61.1267L61.1035 95.4289C61.1035 94.337 61.0338 90.411 60.9409 86.6708L60.7782 79.8875L61.1267 78.8421L61.4752 77.7967L61.9165 78.2148L62.3579 78.6562L62.5438 87.2981ZM64.2396 79.2835L64.681 80.445V88.8777V97.3106H64.0538H63.4265L63.3336 94.3835C63.2872 92.7806 63.1942 88.5758 63.1245 85.0215L62.9852 78.5633L63.3336 78.2613C63.5195 78.0987 63.7053 78.0058 63.7286 78.0523C63.7518 78.0987 64.0073 78.6562 64.2396 79.2835ZM65.4244 79.2138L65.8658 79.6087L65.4941 80.0269L65.1224 80.445L65.1921 82.35C65.2386 83.3954 65.3082 87.2052 65.3315 90.806L65.4244 97.3802H65.1689H64.9133V88.8546V80.3521L64.4952 79.3067C64.2629 78.7259 64.077 78.1916 64.077 78.1452C64.077 78.0522 64.3558 78.2846 65.4244 79.2138ZM45.353 78.3775L45.7944 78.4471L45.5388 78.7956C45.2833 79.144 45.051 79.1906 44.4005 79.0744L44.0288 78.9815L44.3541 78.6562C44.7025 78.2845 44.7025 78.2613 45.353 78.3775ZM99.6201 78.7259C99.6666 78.8421 99.6898 79.237 99.6898 79.6552V80.3753L98.8535 80.7702C98.4121 80.9793 98.0172 81.1419 97.9708 81.1187C97.9475 81.0954 97.8778 80.6773 97.8546 80.1894L97.7617 79.3067L98.5051 78.935C99.3878 78.4936 99.5272 78.4704 99.6201 78.7259ZM15.4549 79.4925C15.8034 79.7016 15.8499 79.7945 15.8499 80.2127C15.8499 81.0258 15.6176 86.2992 15.5479 87.089L15.4782 87.8092L15.0832 87.5536L14.6651 87.2981L14.7348 86.1133C14.7812 85.4628 14.8509 83.6508 14.8742 82.0711C14.9206 80.4915 14.9903 79.2138 15.0136 79.2138C15.0368 79.2603 15.2459 79.3531 15.4549 79.4925ZM44.5167 79.3764H44.9813L44.7722 79.6784C44.6096 79.9107 44.447 79.9571 44.0753 79.9804C43.7965 79.9804 43.4945 79.934 43.4016 79.9107C43.239 79.841 43.239 79.7946 43.4713 79.539C43.6339 79.3764 43.8197 79.2835 43.9127 79.33C43.9824 79.3532 44.2611 79.3764 44.5167 79.3764ZM58.5248 80.6308C58.2693 81.5368 58.2693 81.6763 58.2693 88.8546V96.1723L58.1532 89.1565L58.037 82.1408L57.5027 81.5833C57.2007 81.2813 57.0148 80.9793 57.0613 80.9329C57.2704 80.7006 58.7339 79.6319 58.7572 79.6552C58.7804 79.6784 58.6875 80.1197 58.5248 80.6308ZM59.6864 79.9804L60.0813 80.3521V88.8081V97.2641H59.4076H58.7107L58.641 94.2441C58.5945 92.5715 58.5481 89.0404 58.5481 86.3688L58.5248 81.5136L58.8501 80.5379C59.0359 80.0036 59.1985 79.5623 59.2218 79.5623C59.2682 79.6087 59.4773 79.7713 59.6864 79.9804ZM66.5859 81.3975L67.1202 82.7216L67.1899 90.0625L67.2596 97.4035H66.5627H65.889L65.8193 96.5439C65.7729 96.0793 65.6799 92.2927 65.6102 88.1344C65.4709 80.8632 65.4709 80.5379 65.6799 80.3288C65.7961 80.1895 65.9355 80.0965 65.9819 80.0965C66.0052 80.0733 66.3072 80.6773 66.5859 81.3975ZM14.6419 81.8156C14.6186 82.1408 14.5954 81.8853 14.5954 81.2581C14.5954 80.6308 14.6186 80.3753 14.6419 80.7006C14.6651 81.0026 14.6651 81.4904 14.6419 81.8156ZM44.145 80.2823C44.145 80.352 44.0521 80.4915 43.9591 80.6077C43.8198 80.7935 43.6571 80.8399 43.0996 80.8167C42.7279 80.7935 42.4027 80.747 42.3794 80.7238C42.3562 80.7006 42.4259 80.5611 42.5421 80.445C42.7047 80.2591 42.9137 80.2127 43.4481 80.2127C43.843 80.1895 44.145 80.2359 44.145 80.2823ZM68.1889 81.7923C68.3283 81.9317 68.305 82.0014 67.9798 82.257L67.6081 82.5823L67.5849 90.0858L67.5616 97.5893L67.4455 90.109L67.3293 82.6519L66.9344 81.6298C66.7253 81.0722 66.5162 80.5147 66.4466 80.3753C66.4001 80.236 66.7253 80.4914 67.1667 80.8864C67.6546 81.3045 68.0959 81.7226 68.1889 81.7923ZM25.9785 81.2813C26.2108 81.3975 26.234 81.5137 26.234 82.0015C26.2108 82.3267 26.1876 82.9075 26.1411 83.2792L26.0714 83.9529L25.3513 83.5115L24.6079 83.07V82.35C24.6079 81.955 24.6543 81.3742 24.6776 81.0954L24.7705 80.5379L25.2583 80.84C25.4674 81.0258 25.8159 81.2116 25.9785 81.2813ZM99.806 81.4904V82.0711L98.9464 82.4893L98.0869 82.8842L97.994 82.4429C97.8314 81.6066 97.8314 81.5833 98.7374 81.1652C99.202 80.9561 99.6434 80.7935 99.6898 80.8167C99.7828 80.8864 99.806 81.1884 99.806 81.4904ZM43.2854 81.2348C43.541 81.3277 43.541 81.3277 43.3551 81.5833C43.1693 81.8156 43.0764 81.8389 42.4027 81.7692L41.6593 81.6762L41.9148 81.3975C42.1936 81.1419 42.7279 81.0722 43.2854 81.2348ZM56.6664 81.3975C56.5967 81.5601 56.4108 82.0015 56.2482 82.4429L55.923 83.2094L55.9927 87.6931C56.0392 90.1555 56.1088 93.3149 56.1321 94.6623C56.2018 97.1712 56.2018 97.1712 55.9462 97.1712H55.6907V90.4807V83.7902L55.1332 83.3023C54.5756 82.8145 54.5756 82.8145 54.8079 82.6519C54.9473 82.559 55.4119 82.1873 55.8765 81.8156C56.3412 81.4671 56.7128 81.1652 56.7361 81.1652C56.7593 81.1419 56.7128 81.2581 56.6664 81.3975ZM57.8512 87.4607C57.8976 90.3646 57.9441 93.8027 57.9441 95.0804L57.9673 97.4035H57.1775H56.4109V96.1258C56.4109 95.4289 56.3412 92.2695 56.2947 89.0636L56.1785 83.2792L56.5502 82.3035L56.9219 81.3277L57.3401 81.7459L57.7582 82.1641L57.8512 87.4607ZM42.635 82.0711C42.8673 82.0711 42.8673 82.0944 42.6582 82.4196C42.4259 82.7913 42.2633 82.8378 41.2876 82.6984L40.7301 82.6054L41.0553 82.257C41.3573 81.9317 41.4502 81.9086 41.9148 81.9783C42.1936 82.0479 42.5188 82.0711 42.635 82.0711ZM68.8393 83.465L69.2807 84.6265V91.015V97.4035H68.5838H67.8869V90.0625C67.8869 83.4185 67.9101 82.7216 68.0959 82.5125C68.2121 82.3964 68.3282 82.3035 68.3747 82.3035C68.3747 82.3035 68.607 82.8378 68.8393 83.465ZM70.419 83.9761C70.4422 84.0226 70.2796 84.1852 70.0938 84.3246L69.7453 84.58L69.7221 91.0383L69.6756 97.4964L69.6059 91.0615L69.5363 84.6265L69.1413 83.5812C68.9322 83.0004 68.7696 82.4894 68.7696 82.4661C68.7929 82.3964 70.3726 83.86 70.419 83.9761ZM99.8989 83.4417L99.9454 84.3942L99.0394 84.8356L98.1566 85.277V84.8356C98.1566 84.6033 98.1101 84.1387 98.0869 83.8135L98.0172 83.2327L98.7606 82.861C99.8292 82.2802 99.8525 82.3034 99.8989 83.4417ZM42.1239 83.07C42.1471 83.0933 42.0774 83.2095 42.0077 83.3488C41.8684 83.5579 41.729 83.6044 41.1482 83.6044C40.7533 83.6044 40.3119 83.5579 40.1725 83.5346L39.8937 83.4417L40.1493 83.1862C40.3816 82.9539 40.4745 82.9307 41.2411 82.9771C41.7057 83.0236 42.1007 83.07 42.1239 83.07ZM53.9484 84.1387L53.5999 85.1841V91.1777C53.5999 96.4278 53.5767 97.1712 53.4141 97.1712C53.2515 97.1712 53.2282 96.451 53.2282 91.3635V85.5558L52.6939 85.0912L52.1596 84.6033L53.205 83.8135C53.7625 83.3953 54.2504 83.0468 54.2736 83.07C54.2736 83.07 54.1342 83.5579 53.9484 84.1387ZM55.0635 83.5579L55.4584 83.86V90.5039V97.1712H54.7615H54.0645V91.015C54.0645 84.9982 54.0645 84.8589 54.3201 84.069C54.4595 83.6276 54.5988 83.2559 54.6221 83.2559C54.6453 83.2559 54.8544 83.3953 55.0635 83.5579ZM25.4442 83.8367L26.1179 84.2548L26.0482 86.2527C26.0017 87.3445 25.9785 88.6222 25.9785 89.0404V89.8535H25.1422H24.3059L24.3756 87.391C24.4685 84.6033 24.5614 83.3256 24.6776 83.3721C24.724 83.4186 25.0725 83.6276 25.4442 83.8367ZM14.5257 84.6265C14.5025 84.8821 14.4792 84.6962 14.4792 84.2548C14.4792 83.7902 14.5025 83.6044 14.5257 83.8135C14.5489 84.0225 14.5489 84.3942 14.5257 84.6265ZM41.4502 83.9529C41.4502 83.9993 41.3573 84.1852 41.2179 84.3246C41.0088 84.6034 40.9391 84.6033 39.9634 84.58L38.9413 84.5336L39.2665 84.1852C39.5685 83.8599 39.6614 83.8367 40.521 83.8367C41.0321 83.8367 41.4502 83.8832 41.4502 83.9529ZM71.0927 85.6719L71.5109 86.8102V92.1533V97.4964H70.8139H70.117V91.0383C70.117 85.1609 70.1403 84.5801 70.3261 84.371C70.5352 84.1387 70.5352 84.1387 71.0927 85.6719ZM72.5795 85.7184C72.5795 85.7417 72.4401 85.9507 72.2775 86.183L71.9755 86.6244V92.0604C71.9755 95.6147 71.929 97.5196 71.8593 97.5196C71.7896 97.5196 71.7432 95.6379 71.7432 92.13C71.7432 86.996 71.7199 86.6941 71.5109 86.0204C71.3715 85.6487 71.1856 85.0679 71.0927 84.7659L70.9301 84.2084L71.7432 84.9285C72.2078 85.3234 72.5795 85.6952 72.5795 85.7184ZM100.038 85.7881V86.7638L99.1787 87.1354C98.7141 87.3445 98.3192 87.5071 98.3192 87.4839C98.296 87.4607 98.2495 87.0193 98.2031 86.485L98.1101 85.5093L98.9697 85.1144C99.4343 84.8821 99.8757 84.7427 99.9221 84.7659C100.015 84.7892 100.038 85.2305 100.038 85.7881ZM40.4281 84.9054L40.7765 84.975L40.4977 85.3002C40.219 85.6254 40.1957 85.6255 39.1271 85.5558L38.0353 85.4861L38.3605 85.1377C38.6625 84.8357 38.7554 84.8123 39.4059 84.8123C39.7776 84.8123 40.2422 84.8589 40.4281 84.9054ZM52.9959 91.4796V97.1712H52.299H51.6021V92.0139C51.6021 86.6243 51.6021 86.6476 52.1364 85.1608C52.1828 85.0214 52.299 85.0911 52.601 85.3931L53.0191 85.7881V91.4796H52.9959ZM51.4627 86.0204C51.2304 86.6709 51.2304 86.9961 51.2304 91.9442C51.2304 96.4975 51.2071 97.1712 51.0445 97.1712C50.8819 97.1712 50.8587 96.5672 50.8587 92.4554V87.7394L50.2779 87.2516C49.9527 86.9728 49.6971 86.7173 49.7204 86.6708C49.7901 86.5082 51.6485 85.1377 51.6718 85.2538C51.695 85.277 51.6021 85.6487 51.4627 86.0204ZM39.8937 86.0204C39.917 86.0436 39.8008 86.183 39.6614 86.3456C39.4059 86.6941 39.1271 86.7173 37.803 86.6012L37.0828 86.5083L37.408 86.1598L37.7333 85.8113L38.8019 85.9042C39.3594 85.9507 39.8705 86.0204 39.8937 86.0204ZM73.3461 87.5536L73.8804 88.8546V93.1754V97.5196H73.1138H72.3472V92.13C72.3472 87.3677 72.3704 86.7173 72.533 86.4618C72.6492 86.2991 72.7421 86.2062 72.7653 86.2294C72.7886 86.2527 73.0441 86.8567 73.3461 87.5536ZM74.2521 87.2052L74.9258 87.786L74.6238 88.1577L74.345 88.5293V93.0129C74.345 95.94 74.2986 97.5196 74.2289 97.5196C74.1592 97.5196 74.1127 96.0096 74.1127 93.1754V88.8313L73.6249 87.6698C73.3693 87.0426 73.1138 86.4153 73.0673 86.3223C72.9744 86.1365 73.2067 86.2992 74.2521 87.2052ZM39.0574 86.9729C39.0807 86.9961 38.9877 87.1819 38.8251 87.3677C38.5464 87.7394 38.5464 87.7394 37.4777 87.7394C36.0142 87.7394 35.898 87.6931 36.3627 87.2284L36.7344 86.8567L37.8727 86.9031C38.4999 86.9031 39.0574 86.9496 39.0574 86.9729ZM49.0002 87.9021L48.6518 88.901V93.0361C48.6518 96.6369 48.6285 97.1712 48.4659 97.1712C48.3033 97.1712 48.2801 96.6833 48.2801 93.3613V89.5747L47.6761 89.0404L47.0721 88.5061L48.1175 87.7162C48.6982 87.298 49.2093 86.9496 49.2558 86.9496C49.3022 86.9032 49.1861 87.3678 49.0002 87.9021ZM100.271 88.2041V89.3889L99.4111 89.7838C98.9464 90.0161 98.5515 90.1787 98.5515 90.1554C98.5283 90.1322 98.4818 89.598 98.4586 88.9475L98.3889 87.7627L99.1787 87.4142C99.6201 87.2052 100.038 87.0425 100.131 87.0425C100.247 87.0193 100.271 87.3445 100.271 88.2041ZM50.2547 87.4607L50.6496 87.7627V92.4785V97.1712H49.8133H48.977V93.1058C48.977 89.2495 49.0002 89.0172 49.2325 88.3667C49.3719 87.995 49.5345 87.5536 49.581 87.4142C49.7204 87.089 49.7668 87.0891 50.2547 87.4607ZM15.1994 87.995C15.5943 88.2505 15.6176 88.297 15.6176 88.9475C15.6176 89.3192 15.5711 89.6212 15.5479 89.6212C15.5014 89.6212 15.2923 89.505 15.0832 89.3656C14.7116 89.1333 14.6883 89.0868 14.6883 88.4131C14.6883 88.0414 14.7116 87.7162 14.758 87.7162C14.7812 87.7394 14.9903 87.8556 15.1994 87.995ZM38.1747 88.0647C38.3605 88.1576 38.3605 88.1809 38.0585 88.4596C37.7333 88.7384 37.6868 88.7616 36.3859 88.7152L35.0385 88.6687L35.3637 88.3202C35.689 87.995 35.7122 87.9718 36.804 87.995C37.4545 87.995 38.0585 88.0414 38.1747 88.0647ZM75.6227 89.3889L76.1106 90.62V94.0583V97.5196H75.4136H74.7167V93.0361C74.7167 89.8535 74.7632 88.4829 74.8561 88.2506C74.9258 88.088 75.0187 87.9951 75.0652 88.0415C75.0884 88.1112 75.344 88.7152 75.6227 89.3889ZM77.0398 89.8535C77.0398 89.8999 76.9004 90.0626 76.7378 90.2252L76.4358 90.5039L76.4126 94.1047L76.3893 97.7054L76.3196 94.1047L76.25 90.5039L75.8086 89.4585C75.553 88.901 75.3672 88.39 75.3672 88.3667C75.3672 88.3435 75.7389 88.6222 76.2035 89.0171C76.6913 89.4353 77.0398 89.807 77.0398 89.8535ZM36.9202 89.0171L37.5242 89.11L37.1525 89.5515L36.7808 89.9929L35.3405 89.9L33.9002 89.807L34.3416 89.3656C34.783 88.9242 34.8062 88.901 35.5728 88.9242C35.9677 88.9475 36.595 88.9707 36.9202 89.0171ZM46.863 88.9475C46.863 88.9707 46.7004 89.4121 46.5145 89.9464L46.1661 90.9221V93.9654C46.1661 96.6137 46.1428 97.0318 45.9802 97.0318C45.8176 97.0318 45.7944 96.6368 45.7944 94.2208V91.41L45.1439 90.9918L44.4934 90.5736L45.6085 89.7373C46.561 89.0172 46.863 88.8313 46.863 88.9475ZM47.5134 89.2727L47.9316 89.6444V93.3381V97.0318H47.2347H46.5378V93.8724C46.5378 90.9685 46.561 90.6433 46.7933 89.807C46.9559 89.2959 47.0721 88.8777 47.0953 88.8777C47.1185 88.8777 47.2811 89.0869 47.5134 89.2727ZM15.1762 89.7606C15.4549 89.9696 15.5014 90.0626 15.5014 90.6898V91.3867L15.0368 91.1544L14.5722 90.9221V90.1554C14.5722 89.3191 14.5489 89.3192 15.1762 89.7606ZM100.549 91.3635L100.596 92.4554H99.6898H98.7606V91.8746C98.7606 91.5494 98.7141 91.1544 98.6909 90.9454C98.6212 90.6201 98.6445 90.5736 99.5505 90.1787C100.596 89.6908 100.48 89.5747 100.549 91.3635ZM23.3534 92.5483C23.3069 93.8957 23.2373 95.3359 23.1908 95.7541L23.1211 96.4975L22.7726 96.4277C22.5868 96.3813 21.7737 96.3581 20.9606 96.3581C19.7526 96.3581 19.4971 96.3117 19.4971 96.1723C19.4971 96.0097 20.7516 90.5737 20.8445 90.2484C20.8909 90.1555 21.2626 90.109 22.1454 90.109H23.3999L23.3534 92.5483ZM24.9796 93.129C25.4906 94.8017 25.932 96.2419 25.9785 96.3116C26.025 96.4277 25.723 96.4742 24.7705 96.4742H23.4928L23.5857 93.5008C23.6322 91.8746 23.7019 90.4342 23.7251 90.3181C23.8645 89.7373 24.12 90.2716 24.9796 93.129ZM25.932 90.411C26.0482 91.015 26.9542 96.3348 26.9542 96.451C26.9542 96.6601 26.2805 96.5904 26.2108 96.3581C26.1643 96.2419 25.7462 94.8248 25.2583 93.1987C24.7705 91.5725 24.3523 90.2019 24.3523 90.1554C24.3523 90.109 24.7008 90.0625 25.0957 90.0625C25.8391 90.0858 25.8623 90.109 25.932 90.411ZM35.8284 90.2252H36.7808L36.4324 90.5736C36.1071 90.8989 36.0374 90.9221 35.2011 90.9221C34.7133 90.9221 34.0163 90.8757 33.6911 90.8292L33.0639 90.7594L33.3891 90.411C33.6911 90.0858 33.7608 90.0626 34.3184 90.1323C34.6436 90.1787 35.3173 90.2252 35.8284 90.2252ZM77.7367 91.5261L78.2246 92.8502V95.2431V97.6358H77.5276H76.8307V94.0583C76.8307 90.5736 76.8772 90.2019 77.2024 90.2019C77.2256 90.2252 77.4812 90.806 77.7367 91.5261ZM79.0609 91.9675C78.8518 92.316 78.5963 92.618 78.5498 92.5715C78.5266 92.5483 78.2943 92.0371 78.0155 91.4331L77.5276 90.3181L78.364 91.0383C79.0144 91.619 79.1538 91.8049 79.0609 91.9675ZM43.8662 91.8048C43.5642 92.525 43.5642 92.6644 43.5642 94.8016C43.5642 96.7065 43.541 97.0318 43.3784 97.0318C43.2158 97.0318 43.1925 96.753 43.1925 95.1966V93.3613L42.6117 92.9896C42.2865 92.7806 42.031 92.5482 42.0542 92.5018C42.1007 92.3856 44.0753 90.8988 44.1217 90.9685C44.1682 91.015 44.0521 91.3867 43.8662 91.8048ZM44.9813 91.2241L45.4459 91.5493V94.2906V97.055H44.5631H43.6804V94.8946C43.6804 92.8503 43.7036 92.7109 44.0056 91.8281C44.1914 91.3402 44.3773 90.9221 44.4238 90.9221C44.4702 90.9221 44.7257 91.0614 44.9813 91.2241ZM35.7819 91.3635C35.7819 91.4332 35.6193 91.6422 35.4334 91.8281L35.085 92.2231H33.4123H31.7397L32.2043 91.7584L32.669 91.2938H34.2487C35.085 91.2706 35.7819 91.317 35.7819 91.3635ZM15.0832 91.6423C15.5014 91.8978 15.5014 91.8978 15.5014 92.7341C15.5014 93.1987 15.4549 93.8724 15.4317 94.1977L15.3388 94.8248H14.8742H14.4096L14.5025 93.9189C14.5489 93.431 14.5722 92.6644 14.5722 92.1998C14.5722 91.7584 14.5954 91.3867 14.6186 91.3867C14.6419 91.3867 14.8509 91.5029 15.0832 91.6423ZM79.8507 93.5008C80.3386 94.7552 80.3386 94.8248 80.3386 96.2187V97.659H79.572H78.8053V95.2431C78.8053 93.1988 78.8518 92.7573 78.9912 92.525C79.1073 92.3624 79.2235 92.2231 79.27 92.2231C79.3397 92.2231 79.5952 92.8038 79.8507 93.5008ZM81.3375 93.64C81.4304 93.7794 81.3607 93.9654 81.1052 94.3138L80.7335 94.8016L80.3153 93.7098C80.083 93.129 79.8507 92.525 79.8043 92.3856C79.7113 92.1533 81.1284 93.2916 81.3375 93.64ZM34.5971 92.9431C34.388 93.2219 34.1557 93.5471 34.086 93.6633C33.9467 93.8491 33.7376 93.8724 32.065 93.8492L30.2065 93.8027L30.8105 93.129L31.4377 92.4554H33.2033H34.9688L34.5971 92.9431ZM41.2179 93.6866C40.9159 94.5461 40.8694 94.9178 40.8694 95.8238C40.8694 96.7298 40.823 96.9156 40.6836 96.9156C40.5442 96.9156 40.4977 96.7298 40.4977 96.0561V95.1966L39.8937 94.7552C39.4756 94.43 39.3362 94.2673 39.4291 94.1744C39.615 93.9886 41.4967 92.5947 41.5199 92.6412C41.5431 92.6412 41.4037 93.1058 41.2179 93.6866ZM105.288 95.1269C105.8 96.5208 106.241 97.7519 106.264 97.8448C106.311 97.9842 105.939 98.0075 104.127 98.0075C102.129 98.0075 101.943 97.9843 101.943 97.7985C101.943 97.6823 101.85 96.544 101.757 95.2431C101.664 93.9421 101.572 92.8503 101.572 92.8038C101.572 92.7109 102.268 92.6411 103.523 92.6179L104.359 92.5947L105.288 95.1269ZM106.589 95.1037C107.124 96.4743 107.612 97.6823 107.658 97.7752C107.728 97.961 107.635 97.9843 107.124 97.9843C106.798 97.9843 106.52 97.961 106.52 97.9377C106.52 97.9145 106.102 96.7066 105.567 95.2431C105.056 93.8028 104.615 92.5948 104.615 92.5715C104.615 92.5483 104.824 92.5483 105.103 92.5715L105.59 92.6179L106.589 95.1037ZM100.387 92.7806C100.387 92.8503 99.9454 94.0118 99.4111 95.4056C98.4354 97.9378 98.4354 97.9378 98.0637 97.9843C97.8546 98.0075 97.692 98.0075 97.692 97.9843C97.692 97.961 97.9011 96.7995 98.1566 95.4056C98.4121 94.0118 98.6212 92.827 98.6212 92.7806C98.6212 92.7341 99.0161 92.6877 99.504 92.6877C99.9918 92.6877 100.387 92.7341 100.387 92.7806ZM101.339 92.9431C101.339 93.2684 101.548 96.1954 101.641 97.2408L101.711 97.9843H100.247H98.7838L99.806 95.336C100.712 92.9664 100.851 92.6877 101.084 92.6877C101.27 92.6877 101.339 92.7573 101.339 92.9431ZM42.7511 95.2431V97.055H41.9148H41.0785V95.94C41.0785 94.9875 41.1482 94.6855 41.4502 93.826L41.8219 92.8038L42.2865 93.129L42.7511 93.4542V95.2431ZM33.5285 94.337C33.3891 94.5693 33.2497 94.5693 31.4377 94.5693C29.5096 94.5693 29.5096 94.5693 29.7187 94.337C29.9277 94.1279 30.0903 94.1047 31.8094 94.1047C33.6447 94.1047 33.6679 94.1047 33.5285 94.337ZM82.2203 95.4289C82.5455 96.1955 82.7081 96.7531 82.7081 97.1015V97.6358H81.9415H81.1749V96.1258C81.1749 94.941 81.2214 94.5693 81.3607 94.337C81.4769 94.1976 81.593 94.1047 81.6395 94.1744C81.686 94.2441 81.9647 94.8016 82.2203 95.4289ZM83.2192 95.3824C83.405 95.5682 83.405 95.6844 83.3121 95.8702C83.2424 96.0096 83.1727 96.4511 83.1727 96.8692C83.1727 97.3106 83.1263 97.6358 83.0566 97.6358C82.9869 97.6358 82.9404 97.3803 82.9404 97.055C82.9404 96.6136 82.801 96.1955 82.4061 95.336L81.8718 94.1977L82.4293 94.6623C82.7546 94.9411 83.103 95.243 83.2192 95.3824ZM35.0617 96.8692C35.0385 96.8924 34.6204 96.8692 34.1093 96.846L33.2033 96.7762L34.1093 95.5683L35.0153 94.3602L35.0617 95.5915C35.0617 96.2884 35.0617 96.8692 35.0617 96.8692ZM33.0174 94.941C32.971 95.0107 32.2508 95.0571 31.2287 95.0571C30.1833 95.0571 29.5328 95.0107 29.5328 94.941C29.5328 94.8713 30.2065 94.8248 31.3216 94.8248C32.4599 94.8016 33.0639 94.8481 33.0174 94.941ZM39.7544 95.1269L40.2654 95.4521V96.2419V97.055H39.2665H38.2676V96.4046C38.2676 95.8238 38.314 95.6844 38.6625 95.2895C38.8716 95.0339 39.0807 94.8248 39.1504 94.8248C39.1968 94.8016 39.4524 94.9643 39.7544 95.1269ZM29.5096 95.94C29.649 96.3814 29.7419 96.7762 29.7187 96.7995C29.6954 96.8227 29.1611 96.8227 28.5339 96.7995L27.3956 96.7531L28.2551 95.8238C28.7197 95.3128 29.1379 94.941 29.1843 94.9875C29.2308 95.0572 29.3702 95.4754 29.5096 95.94ZM11.9703 95.3592C11.9471 95.8238 11.6219 97.0782 11.4825 97.2408C11.3431 97.3802 11.3431 97.2177 11.4128 96.2884C11.5057 95.3128 11.5522 95.1733 11.738 95.1733C11.8774 95.1733 11.9703 95.2431 11.9703 95.3592ZM13.852 95.4985C13.852 95.6844 13.8056 96.0096 13.7823 96.1954C13.7126 96.5207 13.6662 96.5672 13.2712 96.5672C13.0389 96.5672 12.6672 96.6136 12.4349 96.6833L12.04 96.7995L12.1329 96.2419C12.2955 95.1036 12.2491 95.15 13.0854 95.15C13.852 95.1733 13.852 95.1733 13.852 95.4985ZM15.3852 95.8702C15.3852 96.2419 15.5014 97.0782 15.6176 97.7054C15.7569 98.3327 15.8499 98.8903 15.8499 98.96C15.8499 99.0297 15.5943 99.0761 15.2691 99.0761H14.7116L14.6186 97.9843C14.5722 97.4035 14.5025 96.5207 14.4792 96.0329L14.4096 95.1733H14.8974H15.3852V95.8702ZM38.1747 95.3127C38.0817 95.4056 38.0353 95.7773 38.0353 96.1954V96.9389H37.4313H36.8273L37.0131 96.6137C37.199 96.2652 38.1282 95.1733 38.2444 95.1733C38.2676 95.1733 38.2444 95.2198 38.1747 95.3127ZM78.5498 97.0085C78.5266 97.3802 78.5033 97.1015 78.5033 96.4046C78.5033 95.6844 78.5266 95.3824 78.5498 95.7308C78.573 96.056 78.573 96.6368 78.5498 97.0085ZM32.5528 95.5218C32.5063 95.5915 31.9023 95.6379 31.1357 95.6379C30.3691 95.6379 29.7651 95.5915 29.7187 95.5218C29.6722 95.4521 30.16 95.4056 31.1357 95.4056C32.0882 95.4056 32.5993 95.4521 32.5528 95.5218ZM62.9852 96.8924C62.9619 97.1479 62.9387 96.9388 62.9387 96.451C62.9387 95.9631 62.9619 95.7773 62.9852 96.0096C63.0084 96.2652 63.0084 96.6601 62.9852 96.8924ZM84.9383 97.2873L84.9847 97.7752H84.2181H83.4283V96.9854C83.4283 96.5672 83.498 96.1025 83.5677 95.9864C83.6838 95.7541 83.7303 95.7773 84.2878 96.2652C84.7989 96.7066 84.8918 96.8459 84.9383 97.2873ZM32.065 96.2187C32.0185 96.2884 31.5307 96.3348 30.9267 96.3348C30.2994 96.3348 29.8813 96.2884 29.8813 96.2187C29.8813 96.149 30.3459 96.1025 31.0196 96.1025C31.7397 96.1025 32.1114 96.149 32.065 96.2187ZM14.3631 97.8448C14.4328 99.0296 14.4328 99.0529 14.1772 99.0529C13.9449 99.0529 13.9449 99.0064 14.0146 98.3327C14.0611 97.9378 14.0843 97.2873 14.1076 96.8924C14.1076 95.8005 14.2702 96.4045 14.3631 97.8448ZM31.6003 96.7066C31.5539 96.7762 31.1822 96.8227 30.764 96.8227C30.3459 96.8227 30.0207 96.7762 30.0207 96.7066C30.0207 96.6369 30.3691 96.5904 30.857 96.5904C31.368 96.5904 31.6468 96.6369 31.6003 96.7066ZM90.3743 97.357C90.3743 97.6357 90.3046 97.7519 90.1884 97.7519C90.0491 97.7519 90.0026 97.6126 90.0026 97.2177C90.0026 96.7531 90.0258 96.6833 90.1884 96.8227C90.2814 96.8924 90.3743 97.1479 90.3743 97.357ZM13.4106 97.7752C13.3409 99.0064 13.3177 99.0529 12.9692 99.0529C12.6672 99.0529 12.6672 99.0529 12.6672 98.0075C12.6672 97.1015 12.6905 96.9388 12.8763 96.8924C13.4571 96.753 13.4571 96.753 13.4106 97.7752ZM20.9374 97.9843C20.9374 98.9599 20.9142 99.0529 20.7051 99.0529C20.496 99.0529 20.4728 98.9599 20.4728 97.9843C20.4728 97.0086 20.496 96.9156 20.7051 96.9156C20.9142 96.9156 20.9374 97.0086 20.9374 97.9843ZM23.516 97.9843V99.0529H22.4009H21.2859V97.9843V96.9156H22.4009H23.516V97.9843ZM24.2362 97.9843C24.2362 98.8438 24.1897 99.0529 24.0503 99.0529C23.9109 99.0529 23.8645 98.8438 23.8645 97.9843C23.8645 97.1247 23.9109 96.9156 24.0503 96.9156C24.1897 96.9156 24.2362 97.1247 24.2362 97.9843ZM26.931 97.9843V99.0529H25.7462H24.5614V97.9843V96.9156H25.7462H26.931V97.9843ZM27.6511 98.0539C27.6511 98.867 27.6047 99.0529 27.4653 99.0529C27.3259 99.0529 27.2794 98.867 27.2794 98.0539C27.2794 97.2408 27.3259 97.055 27.4653 97.055C27.6047 97.055 27.6511 97.2408 27.6511 98.0539ZM30.253 98.0539V99.0529H29.1379H28.0228V98.0539V97.055H29.1379H30.253V98.0539ZM30.9499 98.1237C30.9499 99.0994 30.9267 99.1923 30.7176 99.1923C30.5085 99.1923 30.4853 99.0994 30.4853 98.1237C30.4853 97.148 30.5085 97.055 30.7176 97.055C30.9267 97.055 30.9499 97.1247 30.9499 98.1237ZM33.0871 97.1712H33.4356V98.1701V99.169H32.367H31.2983V98.1004V97.0085L32.0185 97.1015C32.4134 97.1248 32.9013 97.1712 33.0871 97.1712ZM12.2955 98.7277C12.2723 99.0065 12.2491 98.7508 12.2491 98.1701C12.2491 97.5893 12.2723 97.3571 12.2955 97.6823C12.3188 98.0075 12.3188 98.4721 12.2955 98.7277ZM34.1325 98.1701C34.1325 99.0993 34.1093 99.169 33.9002 99.169C33.6911 99.169 33.6679 99.0761 33.6679 98.1701C33.6679 97.2408 33.6911 97.1712 33.9002 97.1712C34.1093 97.1712 34.1325 97.2641 34.1325 98.1701ZM36.502 98.1701V99.169H35.4334H34.3648V98.1701V97.1712H35.4334H36.502V98.1701ZM37.3151 98.1701C37.3151 99.0993 37.2919 99.169 37.0828 99.169C36.8737 99.169 36.8505 99.0761 36.8505 98.1701C36.8505 97.2408 36.8737 97.1712 37.0828 97.1712C37.2919 97.1712 37.3151 97.2641 37.3151 98.1701ZM39.6847 98.1701V99.169H38.6161H37.5474V98.1701V97.1712H38.6161H39.6847V98.1701ZM40.3816 98.2862C40.3816 99.2154 40.3584 99.2852 40.1493 99.2852C39.9402 99.2852 39.917 99.1922 39.917 98.2862C39.917 97.3802 39.9402 97.2873 40.1493 97.2873C40.3584 97.2873 40.3816 97.3802 40.3816 98.2862ZM42.6117 98.2862V99.2852H41.6128H40.6139V98.2862V97.2873H41.6128H42.6117V98.2862ZM43.5642 98.2398C43.5642 99.0994 43.541 99.1923 43.3319 99.1923C43.1228 99.1923 43.0996 99.0994 43.0996 98.2398C43.0996 97.3803 43.1228 97.2873 43.3319 97.2873C43.541 97.2873 43.5642 97.3803 43.5642 98.2398ZM45.6782 98.2398V99.1923H44.7257H43.7733V98.2398V97.2873H44.7257H45.6782V98.2398ZM85.8443 97.6358C85.8907 97.7055 85.7746 97.7519 85.612 97.7519C85.3797 97.7519 85.31 97.6823 85.31 97.5196C85.31 97.3106 85.3564 97.2873 85.5423 97.4035C85.6584 97.4732 85.7978 97.5893 85.8443 97.6358ZM46.3984 98.356C46.3984 99.2155 46.3751 99.3085 46.1661 99.3085C45.957 99.3085 45.9338 99.2155 45.9338 98.356C45.9338 97.4964 45.957 97.4035 46.1661 97.4035C46.3751 97.4035 46.3984 97.4964 46.3984 98.356ZM48.6285 98.356V99.3085H47.6761H46.7236V98.356V97.4035H47.6761H48.6285V98.356ZM49.3487 98.356C49.3487 99.2155 49.3254 99.3085 49.1164 99.3085C48.9073 99.3085 48.8841 99.2155 48.8841 98.356C48.8841 97.4964 48.9073 97.4035 49.1164 97.4035C49.3254 97.4035 49.3487 97.4964 49.3487 98.356ZM51.5788 98.356V99.3085H50.5799H49.581V98.356V97.4035H50.5799H51.5788V98.356ZM52.4151 98.356C52.4151 99.2155 52.3919 99.3085 52.1828 99.3085C51.9738 99.3085 51.9505 99.2155 51.9505 98.356C51.9505 97.4964 51.9738 97.4035 52.1828 97.4035C52.3919 97.4035 52.4151 97.4964 52.4151 98.356ZM54.413 98.356V99.3085H53.5302H52.6475V98.356V97.4035H53.5302H54.413V98.356ZM11.6915 99.0993C11.6683 99.3781 11.6451 99.1225 11.6451 98.5418C11.6451 97.961 11.6683 97.7287 11.6915 98.0539C11.7148 98.3327 11.7148 98.8205 11.6915 99.0993ZM55.1099 98.4721C55.1099 99.3317 55.0867 99.4246 54.8776 99.4246C54.6685 99.4246 54.6453 99.3317 54.6453 98.4721C54.6453 97.6126 54.6685 97.5196 54.8776 97.5196C55.0867 97.5196 55.1099 97.6126 55.1099 98.4721ZM57.2472 98.4024V99.2852H56.3644H55.4816V98.4024V97.5196H56.3644H57.2472V98.4024ZM57.9441 98.4024C57.9441 99.2154 57.9208 99.2852 57.7118 99.2852C57.5027 99.2852 57.4795 99.1922 57.4795 98.4024C57.4795 97.5893 57.5027 97.5196 57.7118 97.5196C57.9208 97.5196 57.9441 97.6125 57.9441 98.4024ZM59.9652 98.4721V99.4246H59.1288H58.2925V98.4721V97.5196H59.1288H59.9652V98.4721ZM60.7782 98.4721C60.7782 99.3317 60.755 99.4246 60.5459 99.4246C60.3369 99.4246 60.3136 99.3317 60.3136 98.4721C60.3136 97.6126 60.3369 97.5196 60.5459 97.5196C60.755 97.5196 60.7782 97.6126 60.7782 98.4721ZM13.6894 98.7277C13.6662 98.9368 13.6429 98.7741 13.6429 98.356C13.6429 97.9378 13.6662 97.7752 13.6894 97.961C13.7126 98.1701 13.7126 98.5186 13.6894 98.7277ZM64.1699 97.7519H65.3779V98.5883V99.4246H63.1942H61.0105V98.5185V97.6125L61.9862 97.6823C62.5205 97.7288 63.4962 97.7519 64.1699 97.7519ZM66.2142 98.5185C66.2142 99.3316 66.191 99.4014 65.9819 99.4014C65.7729 99.4014 65.7496 99.3084 65.7496 98.5185C65.7496 97.7287 65.7729 97.6358 65.9819 97.6358C66.191 97.6358 66.2142 97.7287 66.2142 98.5185ZM68.2121 98.5185V99.4014H67.3293H66.4466V98.5185V97.6358H67.3293H68.2121V98.5185ZM68.909 98.5883C68.909 99.3317 68.8858 99.4246 68.6767 99.4246C68.4676 99.4246 68.4444 99.3317 68.4444 98.5883C68.4444 97.8449 68.4676 97.7519 68.6767 97.7519C68.8858 97.7519 68.909 97.8449 68.909 98.5883ZM70.6746 98.5883V99.4246H69.9776H69.2807V98.5883V97.7519H69.9776H70.6746V98.5883ZM71.5109 98.5883C71.5109 99.3317 71.4876 99.4246 71.2786 99.4246C71.0695 99.4246 71.0462 99.3317 71.0462 98.5883C71.0462 97.8449 71.0695 97.7519 71.2786 97.7519C71.4876 97.7519 71.5109 97.8449 71.5109 98.5883ZM73.3926 98.5883V99.4246H72.5563H71.7199V98.5883V97.7519H72.5563H73.3926V98.5883ZM74.2289 98.5883C74.2289 99.3317 74.2056 99.4246 73.9966 99.4246C73.7875 99.4246 73.7643 99.3317 73.7643 98.5883C73.7643 97.8449 73.7875 97.7519 73.9966 97.7519C74.2056 97.7519 74.2289 97.8449 74.2289 98.5883ZM75.8783 98.5883V99.4246H75.1813H74.4844V98.5883V97.7519H75.1813H75.8783V98.5883ZM11.3663 98.8206C11.3663 99.3781 11.3199 99.7731 11.2502 99.7731C11.1805 99.7731 11.134 99.3781 11.134 98.8206C11.134 98.263 11.1805 97.8681 11.2502 97.8681C11.3199 97.8681 11.3663 98.263 11.3663 98.8206ZM76.5752 98.7044C76.5752 99.4478 76.5519 99.5408 76.3429 99.5408C76.1338 99.5408 76.1106 99.4478 76.1106 98.7044C76.1106 97.961 76.1338 97.8681 76.3429 97.8681C76.5519 97.8681 76.5752 97.961 76.5752 98.7044ZM78.4569 98.7044V99.5408H77.6903H76.9236V98.7044V97.8681H77.6903H78.4569V98.7044ZM79.0609 98.7044C79.0609 99.3549 79.0144 99.5408 78.875 99.5408C78.7356 99.5408 78.6892 99.3781 78.6892 98.7044C78.6892 98.0307 78.7356 97.8681 78.875 97.8681C79.0144 97.8681 79.0609 98.054 79.0609 98.7044ZM80.8264 98.6347V99.4014H80.0598H79.2932V98.6347V97.8681H80.0598H80.8264V98.6347ZM81.5233 98.6347C81.5233 99.2387 81.4769 99.4014 81.3375 99.4014C81.1981 99.4014 81.1516 99.2387 81.1516 98.6347C81.1516 98.0307 81.1981 97.8681 81.3375 97.8681C81.5001 97.8681 81.5233 98.0539 81.5233 98.6347ZM17.1508 98.5185C17.1508 99.0064 17.1276 99.0529 16.8488 99.0529H16.5468L16.8023 98.5185C16.9417 98.2165 17.0811 97.9843 17.1043 97.9843C17.1276 97.9843 17.1508 98.2397 17.1508 98.5185ZM84.2646 98.1237H85.6584V98.8902V99.6569H83.707H81.7556V98.8206V97.961L82.29 98.0539C82.6152 98.0771 83.498 98.1237 84.2646 98.1237ZM86.2392 98.7508C86.2392 99.3548 86.1927 99.5175 86.0533 99.5175C85.914 99.5175 85.8675 99.3548 85.8675 98.7508C85.8675 98.1468 85.914 97.9843 86.0533 97.9843C86.216 97.9843 86.2392 98.1701 86.2392 98.7508ZM88.028 98.7508V99.5175H87.331H86.6341V98.7508V97.9843H87.331H88.028V98.7508ZM88.6087 98.8438C88.6087 99.2388 88.5623 99.5408 88.4926 99.5408C88.4229 99.5408 88.3764 99.1922 88.3764 98.7741C88.3764 98.2862 88.4229 98.0307 88.4926 98.0772C88.5623 98.1004 88.6087 98.4489 88.6087 98.8438ZM91.2106 98.7508C91.2106 99.3548 91.1641 99.5175 91.0247 99.5175C90.8854 99.5175 90.8389 99.3548 90.8389 98.7508C90.8389 98.1468 90.8854 97.9843 91.0247 97.9843C91.1641 97.9843 91.2106 98.1701 91.2106 98.7508ZM90.6066 98.8902V99.6569H89.7703H88.934V98.8902V98.1237H89.7703H90.6066V98.8902ZM92.6044 98.8902V99.6569H92.0237H91.4429V98.8902V98.1237H92.0237H92.6044V98.8902ZM93.3246 98.8902C93.3246 99.4942 93.2781 99.6569 93.1387 99.6569C92.9994 99.6569 92.9529 99.4942 92.9529 98.8902C92.9529 98.2862 92.9994 98.1237 93.1387 98.1237C93.2781 98.1237 93.3246 98.2862 93.3246 98.8902ZM94.8578 98.8902V99.6569H94.2074H93.5569V98.8902V98.1237H94.2074H94.8578V98.8902ZM95.4386 98.9367C95.4386 99.4943 95.3921 99.6337 95.2528 99.6337C95.1134 99.6337 95.0669 99.471 95.0669 98.9367C95.0669 98.3792 95.1134 98.2398 95.2528 98.2398C95.4154 98.2398 95.4386 98.3792 95.4386 98.9367ZM97.2041 98.9367V99.6337H96.5072H95.8103V98.9367V98.2398H96.5072H97.2041V98.9367ZM97.8081 98.9367C97.8081 99.4943 97.7617 99.6337 97.6223 99.6337C97.4829 99.6337 97.4364 99.471 97.4364 98.9367C97.4364 98.3792 97.4829 98.2398 97.6223 98.2398C97.7617 98.2398 97.8081 98.3792 97.8081 98.9367ZM99.3414 98.9367V99.6337H98.7606H98.1798V98.9367V98.2398H98.7606H99.3414V98.9367ZM99.9221 98.9367C99.9221 99.3317 99.8757 99.6337 99.806 99.6337C99.7363 99.6337 99.6898 99.3084 99.6898 98.9367C99.6898 98.565 99.7363 98.2398 99.806 98.2398C99.8757 98.2398 99.9221 98.5418 99.9221 98.9367ZM101.572 98.9367V99.6337H100.921H100.271V98.9367V98.2398H100.921H101.572V98.9367ZM102.176 98.9367C102.176 99.4943 102.129 99.6337 101.99 99.6337C101.85 99.6337 101.804 99.471 101.804 98.9367C101.804 98.3792 101.85 98.2398 101.99 98.2398C102.129 98.2398 102.176 98.3792 102.176 98.9367ZM103.569 98.9367V99.6337H102.989H102.408V98.9367V98.2398H102.989H103.569V98.9367ZM106.287 98.9367C106.287 99.4943 106.241 99.6337 106.102 99.6337C105.962 99.6337 105.916 99.471 105.916 98.9367C105.916 98.3792 105.962 98.2398 106.102 98.2398C106.264 98.2398 106.287 98.3792 106.287 98.9367ZM104.29 99.1225C104.29 99.7265 104.243 99.8892 104.104 99.8892C103.964 99.8892 103.918 99.7265 103.918 99.1225C103.918 98.5185 103.964 98.356 104.104 98.356C104.243 98.356 104.29 98.5185 104.29 99.1225ZM105.823 99.1225V99.8892H105.172H104.522V99.1225V98.356H105.172H105.823V99.1225ZM107.821 99.0064V99.6569H107.24H106.659V99.0064V98.356H107.24H107.821V99.0064ZM10.5532 99.2852C10.5532 99.7498 10.5068 100.122 10.4371 100.122C10.3674 100.122 10.3209 99.773 10.3209 99.2852C10.3209 98.8206 10.3674 98.4489 10.4371 98.4489C10.5068 98.4489 10.5532 98.8206 10.5532 99.2852ZM108.541 99.169C108.541 99.7266 108.494 99.866 108.355 99.866C108.216 99.866 108.169 99.7034 108.169 99.169C108.169 98.6115 108.216 98.4721 108.355 98.4721C108.494 98.4721 108.541 98.6115 108.541 99.169ZM110.306 99.169V99.866H109.54H108.773V99.169V98.4721H109.54H110.306V99.169ZM110.887 99.169C110.887 99.7266 110.841 99.866 110.701 99.866C110.562 99.866 110.515 99.7034 110.515 99.169C110.515 98.6115 110.562 98.4721 110.701 98.4721C110.864 98.4721 110.887 98.6115 110.887 99.169ZM112.722 98.96C112.769 99.2388 112.838 99.564 112.862 99.6569C112.931 99.8428 112.815 99.866 112.095 99.866H111.259V99.169V98.4721H111.956H112.653L112.722 98.96ZM10.0422 100.075C10.0189 100.331 9.9957 100.122 9.9957 99.6337C9.9957 99.1458 10.0189 98.96 10.0422 99.1923C10.0654 99.4478 10.0654 99.8427 10.0422 100.075ZM9.57754 100.191C9.55431 100.447 9.53108 100.261 9.53108 99.8195C9.53108 99.3548 9.55431 99.169 9.57754 99.3781C9.60078 99.5872 9.60078 99.9589 9.57754 100.191ZM10.8785 99.6801C10.8552 99.8427 10.832 99.7498 10.832 99.471C10.8088 99.2155 10.8552 99.0994 10.8785 99.1923C10.9017 99.3085 10.9017 99.5174 10.8785 99.6801ZM9.22908 100.377C9.20585 100.586 9.18262 100.424 9.18262 100.005C9.18262 99.5872 9.20585 99.4246 9.22908 99.6104C9.25231 99.8195 9.25231 100.168 9.22908 100.377ZM20.5193 99.4477C20.5657 99.4942 20.5425 100.656 20.4263 102.05L20.2637 104.559L18.5911 104.605L16.8952 104.652V104.349C16.8952 103.908 17.1276 100.702 17.1972 99.9589L17.2669 99.3316L18.8466 99.3781C19.7294 99.3316 20.4728 99.3781 20.5193 99.4477ZM13.3409 99.6104C13.3177 99.7266 13.248 100.911 13.2015 102.259C13.1319 104.512 13.1086 104.721 12.9228 104.721C12.8066 104.721 12.6208 104.768 12.5046 104.814C12.3188 104.884 12.3188 104.721 12.3885 102.491C12.5046 99.4013 12.4814 99.4477 12.9925 99.4477C13.3177 99.4013 13.3874 99.4478 13.3409 99.6104ZM14.758 101.841C13.3642 104.628 13.4339 104.651 13.55 101.446L13.6429 99.4246H14.8045H15.966L14.758 101.841ZM23.8645 99.7962C23.8645 100.354 23.6322 103.769 23.5625 104.21L23.4928 104.605H22.0293H20.5657V104.21C20.5889 103.908 20.8909 99.5872 20.9142 99.4246C20.9374 99.4014 21.5879 99.4014 22.4009 99.4014H23.8645V99.7962ZM27.1865 99.9124C27.1633 100.214 26.8613 104.559 26.838 104.698C26.8148 104.721 26.1643 104.744 25.3513 104.744H23.8877V104.419C23.8877 103.885 24.1433 100.121 24.1897 99.8195C24.2362 99.5639 24.2826 99.5639 25.6997 99.5639H27.1633V99.9124H27.1865ZM30.4853 99.7266C30.4853 99.8427 30.3923 101.004 30.2994 102.305C30.2065 103.606 30.1136 104.675 30.1136 104.698C30.1136 104.721 29.4399 104.744 28.6268 104.744H27.1168L27.2794 102.143L27.4653 99.5408H28.9753C30.3227 99.5175 30.4853 99.5407 30.4853 99.7266ZM33.784 99.6104C33.784 99.6801 33.6911 100.772 33.5982 102.073C33.5053 103.374 33.4123 104.512 33.4123 104.582C33.4123 104.698 33.0407 104.744 31.9488 104.744C30.4853 104.744 30.4853 104.744 30.5317 104.466C30.5782 104.326 30.6479 103.165 30.7408 101.864L30.8802 99.5408H32.3437C33.1104 99.5175 33.784 99.5639 33.784 99.6104ZM36.897 100.145C36.804 101.097 36.595 103.885 36.595 104.28V104.605H35.1314H33.6447L33.7143 103.931C33.8073 102.979 34.0164 100.145 34.0164 99.7962C34.0164 99.5174 34.0396 99.5175 35.4799 99.5175H36.9434L36.897 100.145ZM40.1028 99.7266C40.0796 99.8427 39.9867 100.981 39.8937 102.259L39.7544 104.582H38.2908C37.199 104.582 36.8505 104.535 36.8505 104.419C36.8505 104.35 36.9434 103.304 37.0364 102.096C37.1293 100.888 37.2222 99.8195 37.2222 99.7033C37.2222 99.5175 37.3848 99.4943 38.709 99.4943C40.0331 99.5175 40.1493 99.5407 40.1028 99.7266ZM12.1562 101.724C12.1097 102.886 12.04 104.071 12.0168 104.373L11.9471 104.93H9.06647H6.18585V103.769V102.63L9.15939 101.144C10.7855 100.307 12.1562 99.6569 12.1794 99.6569C12.2259 99.6569 12.1794 100.586 12.1562 101.724ZM42.9834 101.817C42.9834 103.002 42.937 104.14 42.9137 104.349L42.8441 104.721H41.4502C40.0796 104.721 40.0564 104.721 40.0564 104.442C40.0564 104.303 40.1493 103.211 40.2422 102.003C40.3351 100.795 40.4281 99.7963 40.4281 99.7266C40.4281 99.6801 41.0088 99.6337 41.729 99.6337H43.0299V101.817H42.9834ZM46.1661 101.213C46.1661 102.073 46.1196 103.211 46.0731 103.745L46.0034 104.721H44.6793H43.3319V103.095C43.3319 102.189 43.3784 101.051 43.4016 100.563L43.4945 99.6569H44.8187H46.1661V101.213ZM49.1164 100.307C49.1164 100.679 49.0699 101.817 49.0234 102.839L48.9538 104.698H47.6761H46.3984V102.352C46.3984 101.051 46.4448 99.9124 46.4681 99.8195C46.5378 99.6568 46.7701 99.6337 47.8154 99.6337H49.0931V100.307H49.1164ZM51.997 100.725C51.9505 101.306 51.9273 102.421 51.9273 103.211V104.605H50.5567H49.1861L49.279 103.885C49.3255 103.49 49.3487 102.375 49.3487 101.399V99.6337H50.7193H52.0899L51.997 100.725ZM54.7847 102.119L54.7382 104.605H53.4373H52.1364L52.2061 102.979C52.2525 102.096 52.299 100.981 52.299 100.493V99.6337H53.5767H54.8312L54.7847 102.119ZM57.7118 101.329C57.7118 102.259 57.6653 103.374 57.6188 103.815L57.5492 104.628H56.3412H55.1099V103.42C55.1099 102.747 55.1564 101.632 55.2028 100.935L55.2725 99.6801H56.5038H57.7118V101.329ZM60.5459 100.447C60.5459 100.842 60.4995 101.933 60.453 102.932L60.3833 104.721H59.1521H57.9441V102.607C57.9441 101.446 57.9905 100.331 58.0138 100.122L58.1067 99.7498H59.3147H60.5459V100.447ZM63.2175 100.679C63.171 101.167 63.1478 102.282 63.1478 103.165V104.744H61.8933H60.6389L60.7318 104.024C60.7782 103.629 60.8015 102.514 60.8015 101.539V99.7731H62.0559H63.3104L63.2175 100.679ZM65.8425 102.235V104.721H64.6578H63.473V102.235V99.7498H64.6578H65.8425V102.235ZM68.6767 102.189V104.605H67.4455H66.2142V102.189V99.7731H67.4455H68.6767V102.189ZM71.1624 102.189V104.605H70.0473H68.9323V102.189V99.7731H70.0473H71.1624V102.189ZM73.9966 102.189V104.605H72.7421H71.5109V102.189V99.7731H72.7421H73.9733V102.189H73.9966ZM76.2267 102.305V104.721H75.1581H74.0895V102.305V99.8892H75.1581H76.2267V102.305ZM78.8286 102.305V104.721H77.76H76.6913V102.305V99.8892H77.76H78.8286V102.305ZM81.1749 102.305V104.721H80.1063H79.0377V102.305V99.8892H80.1063H81.1749V102.305ZM83.7767 102.235V104.605H82.7081H81.6395V102.235V99.866H82.7081H83.7767V102.235ZM86.123 102.235V104.605H85.0544H83.9858V102.235V99.866H85.0544H86.123V102.235ZM88.3764 102.235V104.605H87.3775H86.3786V102.235V99.866H87.3775H88.3764V102.235ZM90.8389 102.352V104.721H89.84H88.841V102.352V99.9821H89.84H90.8389V102.352ZM93.2084 102.352V104.721H92.1398H91.0712V102.352V99.9821H92.1398H93.2084V102.352ZM95.3224 102.352V104.721H94.37H93.4175V102.352V99.9821H94.37H95.3224V102.352ZM97.692 102.352V104.721H96.6931H95.6941V102.352V99.9821H96.6931H97.692V102.352ZM99.6898 102.305V104.605H98.7374H97.7849V102.305V100.005H98.7374H99.6898V102.305ZM101.92 102.305V104.605H101.037H100.154V102.305V100.005H101.037H101.92V102.305ZM103.825 102.305V104.605H102.989H102.152V102.305V100.005H102.989H103.825V102.305ZM8.16047 101.074C8.13723 101.283 8.114 101.144 8.114 100.749C8.114 100.354 8.13723 100.191 8.16047 100.354C8.1837 100.563 8.1837 100.865 8.16047 101.074ZM106.171 102.421V104.721H105.219H104.266V102.421V100.122H105.219H106.171V102.421ZM108.169 102.421V104.721H107.286H106.404V102.421V100.122H107.286H108.169V102.421ZM110.655 102.421V104.721H109.586H108.518V102.421V100.122H109.586H110.655V102.421ZM112.885 100.145C112.885 100.168 113.071 101.19 113.303 102.398C113.535 103.629 113.721 104.628 113.721 104.652C113.721 104.675 113.117 104.698 112.374 104.698H111.026V102.398V100.098H111.979C112.467 100.122 112.885 100.121 112.885 100.145ZM7.812 101.26C7.78877 101.446 7.76554 101.306 7.76554 100.935C7.76554 100.563 7.78877 100.423 7.812 100.609C7.83523 100.795 7.83523 101.074 7.812 101.26ZM6.97569 101.608C6.95246 101.794 6.92923 101.678 6.92923 101.353C6.92923 101.027 6.95246 100.888 6.97569 101.028C6.99893 101.19 6.99893 101.446 6.97569 101.608ZM6.62723 101.446C6.58077 101.539 6.55754 101.515 6.55754 101.376C6.53431 101.237 6.58077 101.167 6.62723 101.213C6.65046 101.26 6.65046 101.353 6.62723 101.446ZM7.44031 101.446C7.39385 101.539 7.37062 101.515 7.37062 101.376C7.34739 101.237 7.39385 101.167 7.44031 101.213C7.46354 101.26 7.48677 101.353 7.44031 101.446Z" fill="white"/>
<path d="M25.4321 21.0679C25.4321 21.2073 25.4786 21.2306 25.5018 21.1376C25.5483 21.0447 25.525 20.9518 25.4786 20.9053C25.4553 20.8821 25.4089 20.9517 25.4321 21.0679Z" fill="white"/>
<path d="M22.75 35.8678C22.75 36.0304 22.7732 36.1001 22.8197 36.0072C22.8429 35.9375 22.8429 35.7981 22.8197 35.7051C22.7732 35.6355 22.75 35.7052 22.75 35.8678Z" fill="white"/>
<path d="M22.6172 36.5631C22.6172 36.7257 22.6404 36.7954 22.6869 36.7025C22.7101 36.6328 22.7101 36.4934 22.6869 36.4005C22.6404 36.354 22.6172 36.4005 22.6172 36.5631Z" fill="white"/>
<path d="M22.5 37.212C22.5 37.3979 22.5232 37.4676 22.5697 37.3514C22.5929 37.2353 22.5929 37.0727 22.5697 37.003C22.5232 36.9333 22.5 37.0029 22.5 37.212Z" fill="white"/>
<path d="M98.6509 37.2359C98.6509 37.3753 98.6973 37.3985 98.7206 37.3056C98.767 37.2126 98.7438 37.1197 98.6973 37.0733C98.6741 37.0268 98.6276 37.0965 98.6509 37.2359Z" fill="white"/>
<path d="M98.7759 37.7008C98.7759 37.8401 98.8223 37.8633 98.8456 37.7704C98.892 37.6775 98.8688 37.5846 98.8223 37.5381C98.7991 37.4916 98.7526 37.5614 98.7759 37.7008Z" fill="white"/>
<path d="M98.8813 38.1646C98.8813 38.304 98.9278 38.3272 98.951 38.2343C98.9975 38.1413 98.9743 38.0484 98.9278 38.002C98.9046 37.9787 98.8581 38.0485 98.8813 38.1646Z" fill="white"/>
<path d="M99.1133 39.0006C99.1133 39.1399 99.1597 39.1631 99.183 39.0702C99.2294 38.9773 99.2062 38.8844 99.1597 38.8379C99.1365 38.7914 99.1133 38.8612 99.1133 39.0006Z" fill="white"/>
<path d="M99.2344 39.4664C99.2344 39.6058 99.2808 39.629 99.3041 39.536C99.3505 39.4431 99.3273 39.3502 99.2808 39.3037C99.2576 39.2573 99.2344 39.327 99.2344 39.4664Z" fill="white"/>
<path d="M99.3477 39.9312C99.3477 40.0706 99.3941 40.0938 99.4173 40.0009C99.4638 39.9079 99.4406 39.815 99.3941 39.7686C99.3709 39.7453 99.3477 39.8151 99.3477 39.9312Z" fill="white"/>
<path d="M99.5422 40.5804C99.5887 40.8128 99.6816 41.0916 99.7281 41.231C99.7978 41.3936 99.821 41.3471 99.7745 41.0451C99.7281 40.8128 99.6352 40.534 99.5887 40.3946C99.4958 40.232 99.4958 40.3017 99.5422 40.5804Z" fill="white"/>
<path d="M99.8501 41.6959C99.8501 41.8353 99.8965 41.8584 99.9198 41.7655C99.9662 41.6726 99.943 41.5797 99.8965 41.5332C99.8733 41.51 99.8269 41.5797 99.8501 41.6959Z" fill="white"/>
<path d="M99.9297 42.0463C99.9297 42.2554 100.441 44.1138 100.487 44.0906C100.534 44.0209 100.069 42.0928 99.9762 42.0231C99.9529 41.9766 99.9297 41.9999 99.9297 42.0463Z" fill="white"/>
<path d="M21.9258 47.1095C21.9258 47.76 21.949 48.0155 21.9722 47.667C21.9955 47.3186 21.9955 46.7842 21.9722 46.4822C21.949 46.1802 21.9258 46.4823 21.9258 47.1095Z" fill="white"/>
<path d="M21.7165 50.5467C21.6701 51.7547 21.6468 52.7537 21.6933 52.8002C21.7165 52.8466 21.7862 51.8709 21.8327 50.6629C21.8791 49.4549 21.9024 48.456 21.8559 48.4096C21.8327 48.3631 21.763 49.3387 21.7165 50.5467Z" fill="white"/>
<path d="M21.4276 56.3087C21.3346 58.1672 21.2882 59.7003 21.3346 59.7235C21.3811 59.77 21.474 58.2833 21.5437 56.4248C21.6366 54.5664 21.6831 53.0331 21.6366 53.0099C21.5902 52.9866 21.4972 54.4735 21.4276 56.3087Z" fill="white"/>
<path d="M14.2485 56.6802C14.2485 56.8196 14.295 56.8428 14.3182 56.7499C14.3647 56.657 14.3414 56.564 14.295 56.5176C14.2718 56.4711 14.2253 56.5409 14.2485 56.6802Z" fill="white"/>
<path d="M14.1172 57.3082C14.1172 57.4709 14.1404 57.5406 14.1869 57.4476C14.2101 57.378 14.2101 57.2386 14.1869 57.1457C14.1404 57.0992 14.1172 57.1456 14.1172 57.3082Z" fill="white"/>
<path d="M13.9805 58.0289C13.9805 58.1916 14.0037 58.2613 14.0502 58.1683C14.0734 58.0987 14.0734 57.9592 14.0502 57.8663C14.0037 57.7966 13.9805 57.8663 13.9805 58.0289Z" fill="white"/>
<path d="M13.8852 58.6792C13.8852 58.8186 13.9317 58.8419 13.9549 58.749C14.0014 58.656 13.9782 58.5631 13.9317 58.5166C13.9085 58.4934 13.862 58.563 13.8852 58.6792Z" fill="white"/>
<path d="M13.7812 59.3297C13.7812 59.4923 13.8045 59.5621 13.8509 59.4691C13.8742 59.3994 13.8742 59.26 13.8509 59.1671C13.8045 59.0974 13.7812 59.1671 13.7812 59.3297Z" fill="white"/>
<path d="M13.6289 59.978C13.6289 60.1174 13.6754 60.1407 13.6986 60.0478C13.7451 59.9549 13.7218 59.8619 13.6754 59.8155C13.6521 59.7922 13.6289 59.8619 13.6289 59.978Z" fill="white"/>
<path d="M13.5 60.6998C13.5 60.8392 13.5465 60.8623 13.5697 60.7694C13.6162 60.6765 13.5929 60.5836 13.5465 60.5371C13.5232 60.4907 13.5 60.5604 13.5 60.6998Z" fill="white"/>
<path d="M13.4102 61.3269C13.4102 61.4895 13.4334 61.5591 13.4798 61.4662C13.5031 61.3965 13.5031 61.2571 13.4798 61.1642C13.4334 61.0945 13.4102 61.1643 13.4102 61.3269Z" fill="white"/>
<path d="M12.9243 67.2954C12.9243 67.4348 12.9708 67.4581 12.994 67.3652C13.0405 67.2722 13.0172 67.1793 12.9708 67.1329C12.9475 67.0864 12.9011 67.156 12.9243 67.2954Z" fill="white"/>
<path d="M12.918 67.8082C12.918 67.9709 12.9412 68.0406 12.9877 67.9476C13.0109 67.878 13.0109 67.7385 12.9877 67.6456C12.9412 67.5991 12.918 67.6456 12.918 67.8082Z" fill="white"/>
<path d="M12.832 69.5744C12.832 70.1319 12.8553 70.3641 12.8785 70.0621C12.9017 69.7833 12.9017 69.342 12.8785 69.0632C12.8553 68.8077 12.832 69.0168 12.832 69.5744Z" fill="white"/>
<path d="M35.2054 76.0063C34.9731 76.0992 34.8802 76.1689 34.9731 76.1689C35.066 76.1689 35.3448 76.0992 35.5539 76.0063C35.7862 75.9134 35.8791 75.8437 35.7862 75.8437C35.6933 75.8437 35.4145 75.9134 35.2054 76.0063Z" fill="white"/>
<path d="M34.0296 76.3569C33.7973 76.4498 33.7044 76.5195 33.7973 76.5195C33.8903 76.5195 34.169 76.4498 34.3781 76.3569C34.5872 76.2639 34.7033 76.1943 34.6104 76.1943C34.5175 76.1943 34.2619 76.2872 34.0296 76.3569Z" fill="white"/>
<path d="M32.8499 76.7055C32.6176 76.7984 32.5247 76.8682 32.6176 76.8682C32.7106 76.8682 32.9893 76.7984 33.1984 76.7055C33.4307 76.6126 33.5236 76.543 33.4307 76.543C33.3378 76.543 33.0823 76.6358 32.8499 76.7055Z" fill="white"/>
<path d="M31.6507 77.0756C31.4184 77.1685 31.3255 77.2383 31.4184 77.2383C31.5113 77.2383 31.7901 77.1685 31.9992 77.0756C32.2315 76.9827 32.3244 76.913 32.2315 76.913C32.1386 76.913 31.883 76.9827 31.6507 77.0756Z" fill="white"/>
<path d="M30.6637 77.3555C30.5011 77.4252 30.5011 77.4717 30.594 77.4717C30.687 77.4717 30.8728 77.4252 31.0122 77.3555C31.1748 77.2858 31.1748 77.2394 31.0819 77.2394C30.989 77.2626 30.8031 77.3091 30.6637 77.3555Z" fill="white"/>
<path d="M29.4997 77.7256C29.3371 77.7953 29.337 77.8418 29.43 77.8418C29.5229 77.8418 29.7087 77.7953 29.8481 77.7256C30.0107 77.656 30.0107 77.6095 29.9178 77.6095C29.8017 77.6095 29.6158 77.656 29.4997 77.7256Z" fill="white"/>
<path d="M28.32 78.0753C28.1574 78.1449 28.1574 78.1914 28.2503 78.1914C28.3432 78.1914 28.5291 78.1449 28.6684 78.0753C28.8311 78.0056 28.8311 77.9591 28.7381 77.9591C28.6452 77.9591 28.4361 78.0056 28.32 78.0753Z" fill="white"/>
<path d="M27.1247 78.4249C26.9621 78.4946 26.962 78.541 27.055 78.541C27.1479 78.541 27.3337 78.4946 27.4731 78.4249C27.6357 78.3552 27.6357 78.3087 27.5428 78.3087C27.4499 78.3087 27.2641 78.3552 27.1247 78.4249Z" fill="white"/>
</svg>
