<svg width="131" height="110" viewBox="0 0 131 110" fill="none" xmlns="http://www.w3.org/2000/svg">
<path d="M24.9785 0.368294C24.9505 1.01235 24.5584 1.4044 23.9984 1.34839C23.4383 1.26438 23.3823 1.48837 23.8863 1.60039C24.1104 1.65639 24.2504 1.79633 24.2504 1.93634C24.2504 2.07635 24.3344 2.21639 24.4184 2.24439C24.5584 2.3004 24.5024 2.72047 24.2784 3.81258C24.1104 4.65266 23.9704 5.38068 23.9984 5.43668C24.0264 5.52069 23.9984 5.6048 23.9704 5.68881C23.9424 5.77282 23.9424 6.05274 23.9704 6.27676C23.9984 6.69681 22.9623 27.9789 22.9063 28.0069C22.9063 28.0349 22.5422 28.0629 22.1502 28.1189C21.4501 28.2029 21.3941 28.203 21.3941 27.8949C21.3941 27.7269 21.8421 23.5266 22.4022 18.5701C22.9623 13.6136 23.3823 9.44118 23.3823 9.32917C23.2423 8.71311 22.4862 14.4256 21.8421 20.6982C21.4501 24.5626 21.0861 27.8669 21.0581 28.035C20.9741 28.371 19.966 29.015 19.7979 28.819C19.7419 28.763 19.7139 28.847 19.7139 28.959C19.7139 29.267 19.6579 29.267 20.61 28.819C21.0581 28.623 21.7581 28.427 22.1782 28.371L22.9623 28.2869V28.959C22.9623 29.323 22.9343 29.6031 22.9343 29.6031C21.8982 29.6311 19.5459 30.3872 19.5459 30.6952C19.5459 30.9472 19.5179 30.9472 20.47 30.4991C20.9461 30.3031 21.6461 30.1072 22.0662 30.0512C22.7942 29.9672 22.7942 29.9672 22.7942 30.3312C22.7942 30.5273 22.8222 30.7793 22.8782 30.8913C22.9343 31.0593 22.7382 31.1153 22.0942 31.1713C21.0021 31.2833 19.6299 31.8154 19.5739 32.1514C19.5179 32.3754 19.6579 32.3474 20.414 31.9834C20.9181 31.7593 21.6741 31.5352 22.1222 31.4792L22.9343 31.3673V32.0114V32.6274L21.8981 32.7954C21.3381 32.9074 20.582 33.1035 20.246 33.2715C19.7979 33.4675 19.6019 33.4955 19.5179 33.3835C19.4619 33.2995 19.3499 34.4196 19.2939 35.8757C19.2379 37.3319 19.2379 38.564 19.2659 38.592C19.3219 38.6481 19.3499 38.284 19.3499 37.8359C19.3499 37.3599 19.4059 36.2958 19.4619 35.4557L19.5459 33.9155L20.022 33.6916C20.302 33.5796 20.526 33.4955 20.582 33.5516C20.638 33.6076 20.022 46.4608 19.2379 62.1144C18.4538 77.7679 17.8098 90.8172 17.8098 91.0972C17.8098 91.6293 17.8098 91.6292 17.2497 91.6292H16.6896V90.9851C16.6896 90.621 17.0817 82.7803 17.5297 73.5394C18.0058 64.3265 18.3698 56.4577 18.3418 56.1217C18.3138 55.7576 17.8938 63.4584 17.4177 73.2594C16.9417 83.0324 16.4936 91.3492 16.4656 91.7412C16.4376 92.1333 16.4376 92.3293 16.4936 92.1893C16.5496 92.0213 16.7176 91.9373 17.1097 91.9373H17.6417L16.7737 95.6616L15.9056 99.3859L15.2615 99.442C14.7575 99.47 14.5894 99.554 14.5334 99.75C14.5054 99.89 14.3094 100.03 14.1414 100.058C13.9454 100.086 14.5614 100.086 15.4855 100.03L17.1377 99.974V101.29V102.578H15.5135H13.8894L13.8334 101.542L13.7774 100.506L13.1893 101.57C12.5452 102.718 12.4332 103.138 12.8253 103.138C13.0493 103.138 13.0493 103.306 12.8813 106.331L12.6572 109.523H10.8371H9.01689L10.473 106.723C11.2571 105.183 12.0412 103.698 12.2092 103.446C12.4892 102.97 12.4892 102.942 12.2652 101.822C11.9292 100.17 11.9292 98.8539 12.7132 77.6279L13.4133 58.698L12.7132 50.2691C12.3212 45.6487 12.0412 41.5043 12.0692 41.1123C12.1252 40.7203 12.2372 40.2162 12.3772 39.9642C12.5172 39.6841 12.5452 39.4041 12.4612 39.1241L12.3492 38.704L12.2372 39.1521C12.0972 39.8522 11.6491 40.2442 11.0891 40.1322C10.6691 40.0482 10.669 40.0482 10.9211 40.2722C11.0891 40.3842 11.2851 40.4962 11.3971 40.4962C11.5091 40.4962 11.5371 40.5802 11.5091 40.6362C11.4531 40.7202 11.4811 40.8882 11.5931 41.0002C11.7332 41.1682 11.7052 41.5043 11.5371 42.5124C11.3971 43.3525 11.2011 46.2647 11.0331 50.5772C10.8091 55.6457 10.6971 57.3538 10.585 57.4378C10.473 57.4939 10.249 57.5498 10.081 57.5498C9.77296 57.5498 9.74496 57.4939 9.82897 57.0178C9.96898 56.2337 11.0611 46.0688 11.0331 45.8728C11.0051 45.7607 10.8371 46.6848 10.613 47.8889C10.389 49.093 10.249 50.2691 10.277 50.5211C10.361 50.8851 10.333 50.9132 10.193 50.7452C10.053 50.5772 10.025 50.6332 10.109 50.9972C10.221 51.6413 9.49293 57.7459 9.29691 57.8859C9.1849 57.9419 9.04489 57.9698 8.96088 57.9418C8.84887 57.9138 8.76486 57.9698 8.76486 58.0819C8.76486 58.3339 8.73686 58.3339 9.38092 58.0819C9.66095 57.9698 10.053 57.8579 10.249 57.8579C10.529 57.8579 10.613 57.9418 10.613 58.2219C10.613 58.5019 10.529 58.586 10.277 58.586C10.081 58.586 9.68895 58.6699 9.38092 58.7819C9.07289 58.8939 8.76486 58.9499 8.73686 58.9219C8.68085 58.8659 8.65285 59.23 8.65285 59.6781V60.5181L9.1849 60.2661C9.46493 60.1261 9.91297 59.958 10.193 59.902C10.613 59.818 10.641 59.8461 10.641 60.1542C10.641 60.4622 10.529 60.5181 9.88497 60.6582C9.10089 60.8262 8.51284 61.1622 8.51284 61.3863C8.51284 61.4983 8.68085 61.4982 8.93288 61.4422L9.38092 61.3302L9.29691 62.0303C9.26891 62.3943 8.84887 70.3752 8.37282 79.7561C7.89678 89.137 7.47674 97.0338 7.44873 97.2578C7.39273 97.5938 7.30872 97.7338 7.1127 97.7338C6.88868 97.7338 6.86068 97.6218 6.91668 96.9778C7.05669 95.0176 8.23281 69.6751 8.23281 69.087C8.20481 68.695 7.81277 75.1076 7.33672 83.3124C6.52464 97.1457 6.27262 100.142 5.96459 100.954C5.90858 101.122 4.56445 102.186 2.94029 103.306L0.0280045 105.351V107.675L0 109.999L4.0324 109.915C6.24461 109.859 35.5355 109.803 69.1108 109.775C102.714 109.719 130.185 109.691 130.185 109.663C130.185 109.635 129.877 107.871 129.485 105.715C129.093 103.558 128.785 101.794 128.785 101.794C128.785 101.794 127.497 101.738 125.9 101.682C124.304 101.626 123.016 101.57 122.988 101.542C122.988 101.514 122.372 100.002 121.616 98.1538L120.244 94.7935L118.06 70.4311C116.855 57.0178 115.847 46.1247 115.791 46.2087C115.735 46.3207 115.595 46.3207 115.427 46.2087C115.035 46.0127 113.075 45.6206 112.459 45.6206C111.983 45.6206 111.955 45.5927 111.955 45.1166V44.6126H112.851C114.083 44.6406 115.539 45.1446 115.651 45.6206C115.735 45.9287 115.763 45.9287 115.763 45.4806C115.791 44.1925 115.427 42.0363 114.755 39.4881C114.363 37.9479 113.999 36.7158 113.971 36.7438C113.943 36.7718 114.223 38.0319 114.615 39.5161C115.203 41.7843 115.287 42.2323 115.091 42.1483C114.951 42.0923 114.671 42.0083 114.447 41.9803C114.195 41.9243 114.027 41.7843 113.999 41.5883C113.523 39.5441 111.535 27.9789 111.619 27.7269C111.703 27.4749 111.675 27.4189 111.507 27.5029C111.367 27.5869 111.339 27.5589 111.423 27.4469C111.479 27.3349 111.143 25.7948 110.667 24.0026C110.023 21.5663 109.827 20.6703 109.967 20.5303C110.051 20.4183 110.107 20.2782 110.107 20.2222C110.079 20.1382 110.163 19.9141 110.275 19.7181C110.415 19.41 110.415 19.214 110.331 18.878L110.163 18.402L110.135 18.8501C110.107 19.4942 109.659 19.9421 109.043 19.8581C108.651 19.8021 108.595 19.8301 108.707 19.9981C108.791 20.1101 108.959 20.1942 109.099 20.1942C109.239 20.1942 109.379 20.3342 109.407 20.5022C109.435 20.6983 109.043 25.7108 108.511 31.7033L107.559 42.5684L109.463 68.6389L111.367 94.7095L110.695 98.0418L110.051 101.346L107.559 101.234L105.066 101.122L104.002 100.142C103.414 99.61 98.8777 95.4656 93.9212 90.9292L84.9043 82.6684L80.2559 80.092L75.6074 77.5159V76.6478C75.6074 76.1717 75.4674 73.0634 75.3274 69.731L75.0474 63.6824L73.9833 57.1578C73.3952 53.5735 72.9192 50.3811 72.9472 50.1291C72.9752 49.8771 73.0592 49.4851 73.1432 49.317C73.3672 48.953 73.3672 48.5609 73.1712 48.2809C73.0592 48.1129 73.0312 48.1689 73.1152 48.4489C73.2272 48.981 72.6111 49.6251 72.0511 49.5131C71.687 49.4291 71.687 49.4571 71.9391 49.6531C72.0791 49.7651 72.2471 49.8491 72.3311 49.8491C72.3871 49.8491 72.4431 49.9891 72.4431 50.1291C72.4431 50.2971 72.4991 50.4091 72.5551 50.4091C72.6951 50.4091 72.6111 51.2212 71.659 58.4179L70.903 64.2425V69.5351V74.8276L70.0629 74.4075C69.5868 74.1835 67.3186 73.2594 64.9664 72.3913C62.6422 71.5232 60.71 70.7952 60.71 70.7952C60.682 70.7672 60.4019 69.115 60.0939 67.1268L59.5059 63.4865L59.0298 63.1784C58.4417 62.8144 58.5818 62.6744 57.4616 64.7746C57.0136 65.6147 56.6216 66.2867 56.6216 66.2587C56.4815 66.1187 55.9215 61.3862 56.0335 61.3582C56.1175 61.3302 56.3695 61.1342 56.6216 60.9382C57.1256 60.4901 57.4336 59.8181 57.4336 59.1741L57.4056 58.698L57.2096 59.118C56.8456 59.9301 56.0055 60.4621 55.0534 60.4621C54.2133 60.4621 53.4572 59.9301 52.9532 58.978C52.6732 58.4739 52.6452 58.7259 52.8692 59.51C53.0372 60.1541 53.7653 61.0222 54.3533 61.2462C54.7454 61.4143 54.7734 61.4702 54.7454 62.0022L54.6894 62.5903H53.7093H52.7292V63.6265V64.6625L52.0291 63.9905L51.329 63.3184L51.245 63.7104C51.189 63.9345 50.993 65.5026 50.797 67.1827C50.573 68.8629 50.3769 70.2911 50.3209 70.3191C50.2649 70.3751 47.0726 71.3552 43.2362 72.5313C39.3719 73.6794 36.2636 74.6596 36.2916 74.6876C36.3196 74.7156 39.9039 73.6794 44.2443 72.3913C48.5848 71.1032 52.2251 70.0391 52.2811 70.0391C52.3651 70.0391 52.4492 70.2911 52.4492 70.5991C52.4492 71.1312 52.1131 71.5232 39.2038 85.2726C31.9231 93.0293 25.9025 99.386 25.8745 99.442C25.8185 99.47 25.4825 97.7058 25.1465 95.5216L24.5024 91.5732L24.7264 84.8805C24.8664 81.2122 25.0065 78.1599 25.0345 78.1318C25.0625 78.1038 25.1465 77.5438 25.1745 76.9278C25.3985 70.5152 26.5466 40.2721 26.7426 35.4277L27.0227 29.1831L25.9305 15.6857C25.2025 6.89285 24.8664 2.13244 24.9505 2.02042C25.0345 1.90842 25.0625 1.74043 25.0065 1.62842C24.9505 1.5164 25.0345 1.3483 25.1465 1.2643C25.3705 1.06828 25.4265 0.312202 25.2305 0.00417328C25.0345 -0.0238266 25.0065 0.0882645 24.9785 0.368294ZM25.5385 17.8979C26.0146 23.6665 26.3786 28.5671 26.3786 28.7911V29.1831L25.6505 28.7911C25.2305 28.5671 24.5864 28.315 24.2224 28.203L23.5223 28.035L23.6343 26.6068C23.6903 25.8227 23.9143 21.0063 24.1384 15.9098C24.3904 10.8133 24.5864 6.61291 24.5864 6.5289C24.5864 6.30488 24.6704 7.25686 25.5385 17.8979ZM111.983 32.7394C112.823 37.4718 113.495 41.3923 113.495 41.5043C113.495 41.6723 113.271 41.7283 112.571 41.7283C111.815 41.7283 111.647 41.6723 111.647 41.5043C111.647 41.2523 110.135 24.0025 110.023 22.8264C109.827 20.8662 110.667 25.0666 111.983 32.7394ZM110.387 31.8434C110.779 36.3518 111.115 40.4401 111.171 40.8882L111.255 41.6723L110.415 41.8403C109.967 41.9523 109.267 42.1483 108.903 42.2883C108.511 42.4283 108.175 42.5124 108.119 42.4844C108.091 42.4284 108.399 38.172 108.819 32.9635C109.239 27.783 109.603 23.5265 109.631 23.5825C109.659 23.6105 109.967 27.3349 110.387 31.8434ZM24.6984 28.735C25.6505 29.0431 26.2386 29.6031 26.2386 30.2752V30.8072L25.7905 30.5272C25.2585 30.2191 24.6984 29.9951 23.8583 29.7991C23.2423 29.6311 23.2423 29.6311 23.2423 29.0151C23.2423 28.287 23.2423 28.287 24.6984 28.735ZM24.8384 30.3591C25.7625 30.7232 26.2386 31.1433 26.2386 31.6753C26.2386 31.8993 26.2106 32.0673 26.1826 32.0673C26.1546 32.0673 25.7905 31.8994 25.3705 31.7033C24.9505 31.5073 24.3344 31.3113 23.9984 31.2553C23.4103 31.1713 23.3823 31.1433 23.3823 30.6113C23.3823 30.1072 23.4383 30.0512 23.7463 30.0512C23.9424 30.0792 24.4464 30.1911 24.8384 30.3591ZM25.6505 32.3193C26.2106 32.5993 26.2386 32.6554 26.2386 33.2435V33.8595L25.5945 33.5235C25.2305 33.3555 24.5864 33.1314 24.1664 33.0194L23.3823 32.8515V32.1793V31.5073L24.1944 31.7593C24.6704 31.8993 25.2865 32.1513 25.6505 32.3193ZM22.9063 34.2236C22.8502 34.8677 22.4582 47.6088 21.9822 62.5623C21.5061 77.4878 21.0861 90.173 21.0581 90.7331L20.9741 91.7692H19.5459H18.1178L18.2018 90.4531C18.2578 89.753 18.9019 76.6477 19.6579 61.3582C20.414 46.0687 21.0861 33.5235 21.1421 33.4675C21.1981 33.4115 21.5061 33.2995 21.8701 33.2435C23.0463 32.9635 22.9903 32.9075 22.9063 34.2236ZM23.7743 34.3636C23.7183 35.0917 23.2423 48.197 22.7102 63.5145C22.1782 78.832 21.7021 91.4332 21.6461 91.5172C21.5901 91.6013 21.5061 91.6292 21.4501 91.5732C21.3381 91.4892 22.9623 39.6001 23.1863 34.7836C23.2703 33.1875 23.2983 33.0474 23.5503 33.0474C23.8023 33.0474 23.8583 33.1315 23.7743 34.3636ZM25.5105 33.8875L26.0146 34.1675L26.0706 35.4277C26.0986 36.1277 26.0426 36.7438 25.9866 36.7998C25.9025 36.8838 25.4825 36.6878 24.8944 36.3238L23.9424 35.7357L24.0264 35.0917C24.0824 34.7277 24.1104 34.2236 24.1104 33.9155C24.1104 33.3835 24.1104 33.3835 24.5584 33.4955C24.7824 33.5515 25.2305 33.7195 25.5105 33.8875ZM25.1465 36.7719L25.9585 37.3319V38.3679C25.9585 38.928 25.9025 39.4601 25.8465 39.5721C25.7625 39.7122 25.4825 39.6001 24.8384 39.208L23.9704 38.704V37.3598C23.9704 36.3237 24.0264 36.0717 24.1664 36.1277C24.2224 36.1837 24.6984 36.4638 25.1465 36.7719ZM25.0625 39.6561L25.9305 40.2161V41.3643C25.9305 41.9804 25.8745 42.5684 25.8185 42.6524C25.7345 42.7645 25.3985 42.6244 24.7264 42.1763L23.7463 41.5602L23.8583 40.8323C23.9143 40.4122 23.9424 39.8521 23.9424 39.5441C23.9704 38.9281 23.9143 38.9 25.0625 39.6561ZM24.9224 42.7364L25.8185 43.3245V44.4166C25.8185 45.9567 25.7625 45.9847 24.6144 45.3406L23.6343 44.8086L23.7463 43.9685C23.8023 43.4924 23.8303 42.9045 23.8303 42.6524C23.8303 42.3724 23.8863 42.1763 23.9424 42.1763C23.9984 42.1763 24.4184 42.4284 24.9224 42.7364ZM111.367 42.6244C111.367 43.1005 111.367 43.1005 110.359 43.3245C109.799 43.4645 109.071 43.6885 108.735 43.8285L108.091 44.1085L108.147 43.6604C108.203 43.1004 108.763 42.7365 110.107 42.3724C111.367 42.0644 111.367 42.0644 111.367 42.6244ZM114.615 42.5124C115.315 42.7365 115.343 42.7644 115.343 43.2404C115.343 43.6604 115.287 43.7444 115.091 43.6604C114.559 43.4644 112.963 43.1564 112.319 43.1564H111.647V42.6524V42.1203L112.767 42.2044C113.355 42.2604 114.195 42.3724 114.615 42.5124ZM114.419 43.8004C115.343 44.0525 115.427 44.1365 115.539 44.6405L115.651 45.0886L114.643 44.7527C114.111 44.5846 113.243 44.4165 112.711 44.3885C111.815 44.3605 111.787 44.3325 111.787 43.9685C111.787 43.7725 111.871 43.5484 111.983 43.5204C112.235 43.4084 113.635 43.5764 114.419 43.8004ZM111.647 43.8845C111.647 44.2486 111.423 44.3606 110.499 44.5566C109.995 44.6686 109.295 44.8646 108.987 45.0046L108.371 45.2847V44.9486C108.371 44.5565 108.651 44.3886 109.799 43.9965C110.751 43.6885 111.647 43.6325 111.647 43.8845ZM111.507 45.2006C111.507 45.6206 111.451 45.7047 111.171 45.7047C110.835 45.7047 108.959 46.1527 108.483 46.3487C108.259 46.4327 108.231 46.3768 108.231 46.0128C108.231 45.6207 108.315 45.5366 108.763 45.3406C109.407 45.0606 110.583 44.7527 111.115 44.7527C111.479 44.6966 111.507 44.7525 111.507 45.2006ZM12.2372 51.6133C12.5172 54.8896 12.7413 57.7458 12.7413 57.9418V58.306L12.2092 58.0259C11.9012 57.8859 11.5371 57.7459 11.3691 57.7459C11.0611 57.7459 11.0611 57.6898 11.1171 56.7097C11.1731 55.8977 11.5371 47.917 11.6211 45.4527C11.6491 44.6406 11.7052 45.0887 12.2372 51.6133ZM25.1745 46.1528L25.6785 46.4607L25.6505 47.5529C25.6225 49.2331 25.5945 49.261 24.5304 48.5609C24.0264 48.2249 23.6063 47.9449 23.5503 47.9449C23.5223 47.9169 23.5503 47.3288 23.6063 46.6007L23.7183 45.3127L24.1944 45.5927C24.4744 45.7047 24.8944 45.9568 25.1745 46.1528ZM113.999 46.1528C114.055 46.2368 118.368 93.7014 118.34 94.2054V94.5975L116.771 94.6535C115.903 94.6815 115.203 94.7095 115.203 94.6815C115.203 94.6535 114.671 86.5607 113.999 76.6197C113.355 66.7068 112.627 56.0377 112.459 52.9013C112.263 49.765 112.067 46.9368 112.011 46.6007L111.927 45.9847L112.935 46.0687C113.495 46.0687 113.971 46.1248 113.999 46.1528ZM110.667 46.5728C110.667 46.8249 110.723 47.2729 110.751 47.5529L110.835 48.0569L109.743 48.5889C109.155 48.897 108.595 49.121 108.511 49.121C108.259 49.121 108.343 47.0489 108.595 46.8529C108.791 46.7128 110.247 46.1808 110.555 46.1528C110.611 46.1248 110.667 46.3488 110.667 46.5728ZM111.731 47.1608C111.787 47.7208 112.487 58.3339 113.299 70.7392C114.111 83.1444 114.811 93.6454 114.839 94.0934C114.923 94.8215 114.895 94.9055 114.643 94.9055C114.251 94.9055 114.419 97.0898 112.571 69.9551C111.759 57.8299 111.059 47.5248 111.003 47.0208C110.891 46.1527 110.919 46.1528 111.255 46.1528C111.591 46.1528 111.647 46.1807 111.731 47.1608ZM115.259 46.5728C115.483 46.6568 115.651 46.7408 115.651 46.7688C115.651 46.9648 119.796 93.3933 119.852 93.9254L119.936 94.5975H119.376C118.844 94.5975 118.816 94.5695 118.732 94.1214C118.648 93.7294 114.391 46.6848 114.391 46.3768C114.363 46.2927 114.531 46.3208 115.259 46.5728ZM25.1185 49.121L25.6505 49.4571L25.6225 50.6052C25.5945 51.2213 25.5665 51.8932 25.5105 52.0613C25.3985 52.3693 25.3705 52.3694 24.4184 51.7253L23.4383 51.0812L23.5503 50.1291C23.6063 49.625 23.6343 48.981 23.6343 48.729V48.253L24.1104 48.533C24.3904 48.645 24.8384 48.925 25.1185 49.121ZM110.807 48.897C110.807 49.093 110.863 49.5131 110.891 49.8771L111.003 50.5211L109.855 51.0812C109.239 51.3892 108.679 51.6133 108.623 51.5573C108.567 51.5013 108.539 51.0532 108.539 50.5211V49.569L109.575 49.065C110.135 48.785 110.639 48.533 110.723 48.533C110.751 48.533 110.807 48.701 110.807 48.897ZM111.003 51.9493L111.115 53.0135L110.023 53.5455C109.435 53.8255 108.875 54.0496 108.791 53.9936C108.707 53.9376 108.651 53.4614 108.651 52.9294V51.9212L109.771 51.3612C110.359 51.0532 110.891 50.8292 110.891 50.8292C110.891 50.8852 110.947 51.3612 111.003 51.9493ZM24.5864 52.2573L25.5105 52.8454V53.7414C25.5105 54.2175 25.4545 54.8336 25.4265 55.0576L25.3425 55.5057L24.3344 54.8336L23.3263 54.1615L23.4103 53.2374C23.4663 52.7334 23.4943 52.1733 23.4943 51.9773C23.4943 51.8093 23.5223 51.6693 23.5503 51.6693C23.6343 51.6693 24.0824 51.9493 24.5864 52.2573ZM111.143 54.6095C111.199 55.1976 111.199 55.7577 111.115 55.8137C110.919 56.0098 109.183 56.6537 109.099 56.5697C109.043 56.5137 108.987 56.0657 108.959 55.5057L108.903 54.5256L109.883 54.0215C110.415 53.7414 110.919 53.5175 110.947 53.5175C111.003 53.5175 111.087 53.9935 111.143 54.6095ZM72.9192 62.1983L73.0032 64.9986L72.6111 65.0825C72.3871 65.1385 72.1911 65.1386 72.1631 65.1106C72.1351 65.0826 72.2471 62.6183 72.3871 59.622L72.6671 54.1895L72.7511 56.8217C72.7791 58.2219 72.8632 60.6582 72.9192 62.1983ZM74.8234 64.6905L74.8513 65.4186L74.0953 65.1947L73.3392 64.9706L73.2552 61.0502C73.1992 58.894 73.1712 56.5137 73.1712 55.7296L73.1992 54.3015L74.0113 59.146C74.4593 61.7783 74.8234 64.2985 74.8234 64.6905ZM25.2865 57.1858C25.2865 57.8859 25.2305 58.5019 25.2025 58.558C25.1465 58.614 24.6984 58.362 24.1664 58.054C23.1303 57.3819 23.1583 57.4939 23.3263 55.7577L23.4383 54.6656L24.3624 55.2816L25.2865 55.8977V57.1858ZM111.283 56.9617C111.451 58.3059 111.451 58.2499 110.359 58.7819C109.183 59.37 109.099 59.314 109.099 57.9979V57.1298L110.079 56.6817C110.611 56.4297 111.087 56.2338 111.115 56.2338C111.143 56.2058 111.227 56.5697 111.283 56.9617ZM24.6984 58.81L25.2305 59.118L25.2025 60.1261C25.1745 60.6582 25.1465 61.3022 25.0905 61.4982L25.0065 61.8903L24.2224 61.3863C23.8023 61.1062 23.3543 60.8261 23.2423 60.7701C23.0743 60.6581 23.0743 60.3782 23.1583 59.2861L23.2703 57.9139L23.7183 58.2219C23.9704 58.3619 24.4184 58.6419 24.6984 58.81ZM12.1252 58.3619C12.5452 58.5579 12.7413 58.7539 12.7413 58.95C12.7413 59.174 12.6852 59.202 12.4332 59.118C12.2372 59.062 11.8452 58.95 11.5371 58.866C11.0611 58.726 10.9771 58.6419 11.0051 58.3899C11.0611 57.9699 11.3411 57.9698 12.1252 58.3619ZM71.9951 61.5543C71.9111 63.0945 71.827 64.6065 71.771 64.8305C71.659 65.5586 71.435 65.3626 71.435 64.5505C71.435 63.8224 72.0231 58.5859 72.1071 58.6699C72.1071 58.6979 72.0791 59.9861 71.9951 61.5543ZM111.647 60.4062L111.675 60.9942L110.583 61.5263C109.995 61.8343 109.463 62.0302 109.407 62.0022C109.351 61.9462 109.295 61.4423 109.267 60.8542L109.183 59.79L110.303 59.23L111.423 58.6699L111.535 59.258C111.591 59.5661 111.647 60.0981 111.647 60.4062ZM10.7531 59.342C10.7531 59.538 10.613 59.6221 10.165 59.7061C9.82897 59.7621 9.40893 59.9021 9.1569 60.0142C8.76486 60.2102 8.73686 60.2101 8.73686 59.9301C8.73686 59.594 8.96088 59.398 9.57694 59.23C10.417 59.006 10.7531 59.0339 10.7531 59.342ZM12.3492 59.4261C12.5732 59.5381 12.7413 59.762 12.7413 59.902C12.7413 60.1821 12.7132 60.1821 12.1532 59.902C11.8172 59.734 11.4251 59.622 11.3131 59.622C11.1451 59.622 11.0611 59.5101 11.0611 59.3141C11.0611 59.0621 11.1171 59.034 11.5371 59.118C11.7332 59.202 12.1252 59.3421 12.3492 59.4261ZM12.2092 60.2942C12.4612 60.4342 12.6012 60.6022 12.6012 60.8262V61.1622L11.7612 60.8542C11.0611 60.6022 10.9211 60.4901 10.9211 60.2381C10.9211 59.9301 10.9771 59.9021 11.3971 59.9861C11.5931 60.0421 11.9852 60.1822 12.2092 60.2942ZM10.613 61.1622C10.613 61.3022 10.529 63.0665 10.473 65.0546C10.305 69.003 9.46493 96.0537 9.46493 97.1178V97.7618H8.62485H7.78477V97.2017C7.78477 96.8937 8.20481 88.661 8.70886 78.916C9.21291 69.1711 9.63295 61.1622 9.63295 61.1622C9.63295 61.1061 10.081 60.9942 10.445 60.9662C10.529 60.9102 10.613 61.0221 10.613 61.1622ZM11.2851 62.6464C11.2291 63.5145 11.0611 67.6869 10.8651 71.8593C10.669 76.0317 10.529 79.196 10.501 78.8599C10.473 78.5239 10.585 74.7155 10.7531 70.4031C10.9211 66.0626 11.0611 62.1983 11.0611 61.7783C11.0611 61.3022 11.1171 61.0502 11.2291 61.0502C11.3411 61.0502 11.3411 61.4983 11.2851 62.6464ZM12.2372 61.3582C12.5732 61.4982 12.6012 61.6103 12.6012 62.3664V63.2064L12.0412 62.8984C11.5091 62.5904 11.4811 62.5343 11.4811 61.8903C11.4531 61.1342 11.5651 61.0502 12.2372 61.3582ZM24.3624 61.8343L25.2305 62.3944L25.1465 63.4584C24.9785 65.3066 25.0345 65.2506 24.0544 64.5785C23.6063 64.2425 23.1863 63.9345 23.1303 63.8504C23.0183 63.6824 23.2423 61.1622 23.3543 61.2182C23.4383 61.2462 23.8863 61.5263 24.3624 61.8343ZM111.703 62.1423C111.899 63.5424 111.899 63.5424 110.779 64.1585L109.743 64.7186L109.659 64.3546C109.603 64.1306 109.547 63.6544 109.547 63.2624L109.519 62.5623L110.499 62.0303C111.031 61.7502 111.507 61.4982 111.535 61.4982C111.591 61.4702 111.647 61.7782 111.703 62.1423ZM55.5855 62.1423C55.6415 62.3663 55.8095 63.3465 55.9495 64.3265C56.1175 65.3066 56.2855 66.2867 56.3135 66.4827C56.3975 66.8467 56.3695 66.8748 56.0335 66.8748C55.7255 66.8748 55.6695 66.7908 55.5855 66.3987C55.5015 65.9787 54.9414 61.8903 54.9414 61.8063C54.9414 61.7783 55.0814 61.7502 55.2214 61.7502C55.3894 61.7502 55.5295 61.8902 55.5855 62.1423ZM12.6012 64.2146C12.6012 64.5786 12.5452 64.8866 12.5172 64.8866C12.4612 64.8866 12.2092 64.7466 11.9572 64.5785C11.5091 64.2985 11.4811 64.2145 11.4811 63.5704V62.8703L12.0412 63.1784C12.5732 63.5144 12.6012 63.5425 12.6012 64.2146ZM54.0173 66.7627L53.5693 70.4872L51.245 73.4834C48.9768 76.4237 48.8928 76.4797 48.4448 76.4237C48.1927 76.3957 47.9687 76.3396 47.9687 76.2836C47.9687 76.2276 49.0048 75.1356 50.2369 73.8195C52.1691 71.7753 52.5052 71.3552 52.5892 70.8792C52.6452 70.5711 52.7012 68.695 52.7572 66.6788L52.8692 63.0384H53.6533H54.4654L54.0173 66.7627ZM58.9458 63.6265C59.1138 63.7665 59.3378 64.7746 59.7299 67.1549C60.0379 68.975 60.2899 70.5151 60.2619 70.5431C60.2339 70.5711 59.8699 70.4311 59.4498 70.2631C58.7498 69.983 58.6658 69.899 58.5818 69.451C58.3857 68.3869 57.7137 67.8828 56.3695 67.8828C55.7255 67.8828 55.6695 67.8549 55.6695 67.5469C55.6695 67.2668 55.7535 67.1829 56.1175 67.1549C56.5376 67.0988 56.6216 66.9588 57.5737 65.3066C58.1337 64.2985 58.6378 63.4865 58.6658 63.4865C58.6938 63.4585 58.8338 63.5425 58.9458 63.6265ZM55.1094 65.6987C55.2494 66.6227 55.3894 67.7428 55.3894 68.1909V69.0029L44.0763 84.4044C37.8597 92.8613 32.6792 99.89 32.5672 99.974C32.4552 100.086 32.1752 100.142 31.8671 100.114L31.3351 100.058L34.0233 96.5017C35.5075 94.5415 40.576 87.9048 45.3085 81.7722L53.9053 70.6272L54.3253 67.2668C54.5494 65.4187 54.7734 63.9344 54.8014 63.9624C54.8294 64.0184 54.9694 64.7746 55.1094 65.6987ZM111.927 65.5867L111.955 66.2307L110.947 66.7627C110.387 67.0707 109.911 67.2948 109.883 67.2388C109.827 67.1828 109.771 66.6788 109.715 66.1187L109.631 65.0546L110.695 64.4946L111.759 63.9345L111.871 64.4385C111.871 64.7186 111.927 65.2506 111.927 65.5867ZM52.5052 66.5948C52.4772 67.3229 52.4492 68.3589 52.3931 68.8629L52.3091 69.7591L51.4971 70.0391C51.049 70.1791 50.657 70.291 50.601 70.2631C50.573 70.207 50.741 68.863 50.965 67.2388C51.189 65.6146 51.3851 64.2426 51.3851 64.2146C51.3851 64.1586 51.6371 64.3825 51.9451 64.6905L52.5052 65.2506V66.5948ZM24.2224 65.0546L25.1465 65.6426L25.0625 66.9027C25.0065 67.6028 24.9505 68.1909 24.9224 68.2469C24.8664 68.2749 24.4184 68.0509 23.9144 67.7149C23.0743 67.1829 22.9903 67.0708 22.9903 66.6507C22.9903 65.9226 23.1583 64.4385 23.2423 64.4385C23.2703 64.4665 23.7183 64.7186 24.2224 65.0546ZM11.9852 65.3066C12.4052 65.5587 12.4332 65.6427 12.4332 66.3987V67.1827L11.8732 66.7907C11.3411 66.4267 11.3131 66.3427 11.3131 65.6987C11.3131 65.3346 11.3691 65.0266 11.4251 65.0266C11.4811 65.0266 11.7332 65.1666 11.9852 65.3066ZM73.1432 65.4467C73.1432 65.7267 72.8912 65.8947 72.4991 65.8947C72.3871 65.8947 72.3031 65.7547 72.3031 65.6147C72.3031 65.3627 72.3871 65.3067 73.0592 65.1947C73.0872 65.1947 73.1432 65.3066 73.1432 65.4467ZM74.5433 65.5867C74.8794 65.7547 74.9914 66.2587 74.6833 66.1187C74.5713 66.0907 74.2353 65.9787 73.8993 65.8667C73.4792 65.7547 73.2832 65.6147 73.2832 65.4467C73.2832 65.2226 73.3672 65.1946 73.7593 65.2786C74.0113 65.3626 74.3473 65.4747 74.5433 65.5867ZM71.659 66.1187C71.491 66.2867 71.379 66.0346 71.491 65.7826C71.603 65.5306 71.603 65.5306 71.659 65.7826C71.715 65.9226 71.715 66.0907 71.659 66.1187ZM74.4873 66.3707C74.7673 66.4827 74.9914 66.6787 74.9914 66.7907C74.9914 67.0708 74.9634 67.0707 74.5433 66.9027C74.3473 66.8187 74.0393 66.7348 73.8433 66.6788C73.3952 66.5667 73.3112 66.1748 73.7312 66.1748C73.8713 66.1748 74.2073 66.2587 74.4873 66.3707ZM73.1152 66.4827C73.0032 66.7627 72.3031 66.8188 72.3031 66.5387C72.3031 66.3707 72.4431 66.3148 72.7511 66.3148C73.0032 66.3148 73.1432 66.3707 73.1152 66.4827ZM71.603 66.9307C71.491 67.0428 71.435 67.0428 71.435 66.8748C71.435 66.5948 71.631 66.3988 71.687 66.5948C71.743 66.6788 71.687 66.8467 71.603 66.9307ZM112.067 68.275C112.011 68.891 112.011 68.9189 111.031 69.451L110.023 69.983L109.911 69.451C109.855 69.171 109.799 68.639 109.799 68.275L109.771 67.6308L110.807 67.1268L111.843 66.6227L111.955 67.1268C112.039 67.4349 112.095 67.9389 112.067 68.275ZM11.8172 67.1827C12.2652 67.4908 12.3212 67.5749 12.3212 68.2469C12.3212 68.667 12.2652 69.0029 12.2372 69.0029C12.1812 69.0029 11.9292 68.863 11.6771 68.695C11.2291 68.415 11.2011 68.3589 11.2011 67.6308C11.2011 67.2108 11.2291 66.8748 11.2851 66.8748C11.2851 66.8748 11.5371 67.0147 11.8172 67.1827ZM73.1432 67.3788C73.1432 67.6028 73.0592 67.7428 72.9472 67.7428C72.8352 67.7428 72.6391 67.7989 72.5271 67.8269C72.3311 67.9109 72.3031 67.7988 72.3031 67.4628C72.3031 67.0707 72.3591 67.0148 72.7231 67.0148C73.0592 67.0148 73.1432 67.0708 73.1432 67.3788ZM74.5713 67.2388C75.0474 67.4908 75.2154 68.1349 74.7673 67.9389C74.6273 67.8829 74.2633 67.7988 73.9833 67.7708C73.5352 67.6868 73.4512 67.6308 73.4512 67.3508C73.4512 67.0708 73.5352 67.0148 73.8152 67.0148C73.9833 67.0148 74.3193 67.1268 74.5713 67.2388ZM71.603 68.0509C71.491 68.1629 71.435 68.1069 71.435 67.8549C71.435 67.3789 71.631 67.1829 71.687 67.5749C71.715 67.7709 71.687 67.9669 71.603 68.0509ZM24.5864 68.6389L25.0065 68.919L24.9224 70.2631C24.8664 70.9911 24.7824 71.6352 24.7544 71.6632C24.7264 71.7192 24.2784 71.4392 23.7463 71.1031C22.7102 70.4311 22.6822 70.4031 22.9063 68.4709L23.0183 67.6028L23.6063 67.9669C23.9144 68.1629 24.3624 68.4709 24.5864 68.6389ZM73.1712 72.0832C73.1992 74.3515 73.2272 76.1997 73.1992 76.2277C73.1712 76.2557 72.9752 76.1717 72.7231 76.0316L72.2751 75.8077V71.9993C72.2751 69.8991 72.3311 68.1349 72.3871 68.1069C72.4431 68.0509 72.6111 67.9949 72.8072 67.9949H73.1152L73.1712 72.0832ZM74.5993 68.3309C74.9354 68.4709 74.9914 68.5549 74.9914 69.031V69.591L74.2633 69.2551C73.5912 68.947 73.5072 68.8629 73.4792 68.4709C73.4232 68.0229 73.4512 67.9949 73.8433 68.0789C74.0113 68.1349 74.3753 68.2469 74.5993 68.3309ZM57.7137 68.6389C57.9937 68.835 58.0777 69.003 58.0777 69.367V69.871L57.4056 69.591C55.7815 68.9469 55.6695 68.863 55.6695 68.555C55.6695 68.275 55.7255 68.2468 56.5096 68.3029C56.9576 68.3589 57.4896 68.4989 57.7137 68.6389ZM71.715 71.9993C71.715 75.5276 71.715 75.5557 71.435 75.4157C71.155 75.2757 71.155 75.1075 71.155 71.9432C71.155 68.6389 71.183 68.5269 71.631 68.4709C71.687 68.4429 71.715 70.0391 71.715 71.9993ZM12.3212 70.0671V70.8511L11.7612 70.5711C11.2011 70.2911 11.2011 70.2631 11.2011 69.5071V68.7229L11.7612 69.0029C12.2932 69.283 12.3212 69.311 12.3212 70.0671ZM63.5662 72.2513C65.9185 73.1474 67.8507 73.9595 67.8787 74.0155C67.9067 74.1555 35.5915 96.5577 35.5075 96.5017C35.4795 96.4737 39.7359 90.6771 44.9724 83.6204C50.2089 76.5637 54.7454 70.4032 55.0814 69.9551L55.6695 69.171L57.4896 69.871C58.4697 70.2631 61.214 71.3272 63.5662 72.2513ZM75.1314 70.6831C75.1314 71.0191 75.1034 71.2992 75.0754 71.2992C75.0474 71.2992 74.6553 71.1592 74.2353 70.9911L73.4512 70.6831V70.0111V69.339L74.2913 69.703L75.1314 70.0671V70.6831ZM112.291 69.9551C112.347 70.2632 112.375 70.8512 112.375 71.2992V72.0832L111.339 72.6433L110.303 73.2033L110.191 72.4754C110.135 72.0833 110.107 71.4392 110.079 71.1031L110.051 70.4591L111.031 69.9551C111.563 69.6751 112.039 69.423 112.067 69.423C112.151 69.423 112.235 69.6751 112.291 69.9551ZM11.6491 71.0192C12.1532 71.2992 12.1532 71.3552 12.1532 72.1673C12.1532 72.6154 12.1252 73.0074 12.0972 73.0074C12.0412 73.0074 11.7892 72.8674 11.5371 72.6993C11.0331 72.4193 11.0331 72.3633 11.0331 71.5512C11.0331 71.1032 11.0611 70.7111 11.0891 70.7111C11.1171 70.7111 11.3971 70.8512 11.6491 71.0192ZM24.8104 72.7833C24.8104 73.1753 24.7544 73.7634 24.6984 74.0995L24.5864 74.6876L23.6623 74.1555C22.6262 73.5395 22.5702 73.4274 22.7382 71.8873L22.8502 71.0192L23.8303 71.5512L24.8104 72.0832V72.7833ZM74.4033 71.4953L75.1314 71.7753V72.4473V73.1194L74.3473 72.7554C73.8993 72.5594 73.5352 72.3913 73.5072 72.3913C73.4792 72.3913 73.4512 72.0833 73.4512 71.7473C73.4512 71.3832 73.5072 71.1312 73.5632 71.1592C73.5912 71.1872 73.9833 71.3273 74.4033 71.4953ZM112.487 73.9875L112.515 74.9115L111.507 75.4436C110.947 75.7516 110.471 75.9757 110.443 75.9477C110.415 75.9197 110.359 75.3876 110.303 74.7435L110.191 73.5955L111.227 73.0354C112.263 72.4754 112.291 72.4474 112.375 72.7554C112.431 72.9234 112.487 73.4834 112.487 73.9875ZM74.9634 73.2874C75.2434 73.3994 75.2714 73.5115 75.2714 74.1275V74.8276L74.4313 74.4075C73.5912 73.9875 73.5912 73.9874 73.5912 73.3433V72.6993L74.1233 72.9233C74.4033 73.0633 74.7673 73.2034 74.9634 73.2874ZM12.1532 74.3234C12.1532 75.1915 12.1812 75.1916 11.4251 74.6876C11.0611 74.4355 11.0331 74.3234 11.0331 73.6234V72.8394L11.5931 73.1754C12.1532 73.4835 12.1532 73.5114 12.1532 74.3234ZM23.9144 74.6315C24.9505 75.1916 24.9224 75.1916 24.7264 77.0678L24.6144 77.9079L23.6343 77.3478C22.6542 76.7878 22.6542 76.7877 22.6542 76.1997C22.6542 75.4716 22.8222 74.0995 22.9063 74.0995C22.9623 74.1275 23.4103 74.3515 23.9144 74.6315ZM68.7468 74.6595C68.7188 75.0236 68.2147 75.4436 64.6584 78.1879C62.4181 79.8961 58.2177 83.1444 55.3334 85.3566C48.0807 90.9292 41.8081 95.6336 40.1839 96.7537C38.5878 97.8738 37.2997 99.0779 37.0476 99.806C36.8796 100.282 36.8236 100.31 36.2636 100.31H35.6475L35.7035 98.7139L35.7595 97.1178L52.1691 85.7206C61.186 79.448 68.6347 74.2956 68.6908 74.2956C68.6908 74.2676 68.7468 74.4355 68.7468 74.6595ZM74.4873 74.7995C75.2434 75.1916 75.2714 75.1916 75.2714 75.8077C75.2714 76.1437 75.2434 76.4237 75.2154 76.4237C75.1594 76.4237 74.7673 76.2557 74.2913 76.0597C73.6192 75.7516 73.4232 75.6117 73.4232 75.3876C73.4232 75.0516 73.5632 74.4635 73.6472 74.4635C73.6752 74.4075 74.0393 74.5755 74.4873 74.7995ZM84.2323 86.3927C92.4091 92.7213 99.1857 98.0138 99.3538 98.1258C99.5778 98.3498 99.6058 98.5739 99.5778 99.75L99.5218 101.15L84.3163 88.1289C75.9715 80.9602 69.0828 74.9956 69.0548 74.8556C68.9988 74.6876 69.0548 74.6595 69.1948 74.7435C69.2788 74.8275 76.0555 80.064 84.2323 86.3927ZM11.5931 75.1076C12.1532 75.3876 12.1532 75.4156 12.1532 76.1717C12.1532 76.5917 12.1252 76.9558 12.0692 76.9558C12.0132 76.9558 11.7332 76.8157 11.4531 76.6197C10.9211 76.3117 10.8931 76.2837 10.8931 75.5557C10.8931 75.1636 10.9211 74.8276 10.9771 74.8276C11.0051 74.8276 11.3131 74.9676 11.5931 75.1076ZM78.4077 79.6161L84.7363 83.1443L94.2573 91.8252C99.4938 96.5856 104.002 100.702 104.254 100.954L104.758 101.402L103.442 101.43H102.126V100.898C102.126 100.45 102.014 100.254 101.566 99.806L101.006 99.2459V100.282V101.318H100.586H100.166L100.11 99.694L100.054 98.0699L85.4084 86.8127C77.3716 80.6241 70.7069 75.4997 70.6229 75.4157C70.5389 75.3317 70.847 75.4717 71.267 75.6957C71.715 75.8917 74.9354 77.6839 78.4077 79.6161ZM84.0643 88.3248L99.1017 101.178L97.9816 101.234L96.8615 101.29L95.2094 99.834C91.0089 96.1936 68.4667 75.6397 68.5227 75.5276C68.5787 75.4436 68.6908 75.4156 68.8028 75.4436C68.9148 75.4716 75.8035 81.2681 84.0643 88.3248ZM112.711 75.8636C112.767 76.1156 112.795 76.6197 112.767 77.0398L112.711 77.7398L111.647 78.1879L110.583 78.6639L110.471 77.9918C110.247 76.3677 110.247 76.3957 111.395 75.8636C111.955 75.6116 112.459 75.4157 112.515 75.4157C112.599 75.4157 112.683 75.6116 112.711 75.8636ZM68.8308 76.5358L69.4468 77.0958L68.9428 77.5159L68.4387 77.9359L68.5227 87.9328L68.6067 97.9298L68.3827 88.0448L68.1867 78.1599L67.5146 77.4878C66.9546 76.9278 66.8986 76.7878 67.0666 76.6758C67.2066 76.5918 67.4586 76.4238 67.6266 76.2557C67.8227 76.0877 68.0187 75.9757 68.1027 75.9477C68.1587 75.9757 68.4667 76.2277 68.8308 76.5358ZM75.2714 77.1518C75.2714 77.4878 75.2154 77.4879 74.3473 76.9558C73.8153 76.6478 73.5912 76.4238 73.5912 76.2557C73.5912 76.0037 73.6752 76.0036 74.4313 76.4517C74.9634 76.7317 75.2714 76.9837 75.2714 77.1518ZM12.0132 78.2999V79.1119L11.4811 78.776C10.9771 78.44 10.9491 78.3839 10.8931 77.6279L10.8371 76.8158L11.3971 77.1518C12.0132 77.4598 12.0132 77.4878 12.0132 78.2999ZM48.5008 76.9278C48.6128 77.0118 48.5848 77.1238 48.3888 77.3478C48.1647 77.6279 48.0247 77.6558 47.5487 77.5718L46.9606 77.4598L47.2686 77.1237C47.6047 76.8157 48.1647 76.7318 48.5008 76.9278ZM24.3624 78.1038C24.6704 78.3278 24.6704 78.3559 24.5304 79.7281C24.4464 80.4841 24.3624 81.1561 24.3064 81.1841C24.2784 81.2401 23.8583 80.9601 23.3823 80.6521C22.5142 80.036 22.5142 80.0361 22.5142 79.3361C22.5142 78.944 22.5702 78.2719 22.5982 77.8799L22.7102 77.1518L23.3823 77.5438C23.7463 77.7118 24.1944 77.9918 24.3624 78.1038ZM66.2825 78.2719C65.8345 79.448 65.8345 79.4761 65.8345 81.9963C65.8345 83.3964 65.8905 88.1849 65.9465 92.6093C66.0585 99.834 66.0305 100.674 65.8345 100.674C65.6384 100.674 65.6104 99.5539 65.6104 90.425V80.1761L64.9664 79.504L64.3223 78.8319L65.4424 77.9918C66.0585 77.5158 66.5905 77.1237 66.6466 77.1237C66.6746 77.1237 66.5345 77.6278 66.2825 78.2719ZM68.1587 88.6609C68.2427 94.4015 68.3547 99.4699 68.4107 99.946L68.4947 100.842H67.4866H66.4505L66.4225 98.4619C66.4225 97.1457 66.3385 92.4132 66.2265 87.9048L66.0305 79.7281L66.4505 78.4679L66.8706 77.2078L67.4026 77.7118L67.9347 78.2438L68.1587 88.6609ZM70.2029 79L70.7349 80.4001V90.565V100.73H69.9789H69.2228L69.1108 97.2017C69.0548 95.2696 68.9428 90.2011 68.8588 85.9167L68.6908 78.1318L69.1108 77.7679C69.3348 77.5718 69.5588 77.4599 69.5868 77.5159C69.6148 77.5719 69.9229 78.2439 70.2029 79ZM71.631 78.916L72.1631 79.392L71.715 79.8961L71.267 80.4001L71.351 82.6964C71.407 83.9565 71.491 88.5489 71.519 92.8894L71.631 100.814H71.323H71.015V90.5371V80.2881L70.5109 79.028C70.2309 78.3279 70.0069 77.6839 70.0069 77.6279C70.0069 77.5158 70.3429 77.7959 71.631 78.916ZM47.4367 77.9079L47.9687 77.9918L47.6607 78.4119C47.3526 78.8319 47.0726 78.888 46.2885 78.748L45.8405 78.636L46.2325 78.2438C46.6526 77.7958 46.6526 77.7679 47.4367 77.9079ZM112.851 78.3279C112.907 78.4679 112.935 78.944 112.935 79.448V80.3161L111.927 80.7921C111.395 81.0441 110.919 81.2402 110.863 81.2122C110.835 81.1841 110.751 80.6801 110.723 80.092L110.611 79.028L111.507 78.5799C112.571 78.0479 112.739 78.0199 112.851 78.3279ZM11.3971 79.252C11.8172 79.504 11.8732 79.616 11.8732 80.1201C11.8732 81.1002 11.5931 87.4568 11.5091 88.4089L11.4251 89.277L10.9491 88.969L10.445 88.6609L10.529 87.2327C10.585 86.4487 10.669 84.2645 10.6971 82.3603C10.7531 80.4561 10.8371 78.916 10.8651 78.916C10.8931 78.972 11.1451 79.0839 11.3971 79.252ZM46.4286 79.1119H46.9886L46.7366 79.4761C46.5406 79.7561 46.3446 79.812 45.8965 79.84C45.5605 79.84 45.1964 79.7841 45.0844 79.7561C44.8884 79.6721 44.8884 79.616 45.1684 79.308C45.3645 79.112 45.5885 79 45.7005 79.056C45.7845 79.084 46.1205 79.1119 46.4286 79.1119ZM63.3142 80.6241C63.0062 81.7162 63.0062 81.8843 63.0062 90.5371V99.358L62.8662 90.9011L62.7262 82.4442L62.0821 81.7722C61.7181 81.4082 61.494 81.0442 61.55 80.9882C61.8021 80.7082 63.5662 79.42 63.5942 79.448C63.6222 79.476 63.5102 80.008 63.3142 80.6241ZM64.7144 79.84L65.1904 80.2881V90.4811V100.674H64.3783H63.5382L63.4542 97.0337C63.3982 95.0175 63.3422 90.7611 63.3422 87.5408L63.3142 81.6883L63.7063 80.5121C63.9303 79.868 64.1263 79.3361 64.1543 79.3361C64.2103 79.3921 64.4623 79.588 64.7144 79.84ZM73.0312 81.5482L73.6752 83.1443L73.7593 91.9932L73.8433 100.842H73.0032H72.1911L72.1071 99.806C72.0511 99.2459 71.9391 94.6815 71.855 89.669C71.687 80.9042 71.687 80.5121 71.9391 80.2601C72.0791 80.0921 72.2471 79.9801 72.3031 79.9801C72.3311 79.9521 72.6951 80.6802 73.0312 81.5482ZM10.417 82.0522C10.389 82.4443 10.361 82.1363 10.361 81.3802C10.361 80.6241 10.389 80.3161 10.417 80.7082C10.445 81.0722 10.445 81.6602 10.417 82.0522ZM45.9805 80.204C45.9805 80.288 45.8685 80.4562 45.7565 80.5962C45.5885 80.8202 45.3925 80.8762 44.7204 80.8482C44.2723 80.8202 43.8803 80.7642 43.8523 80.7362C43.8243 80.7082 43.9083 80.5401 44.0483 80.4001C44.2443 80.1761 44.4964 80.1201 45.1404 80.1201C45.6165 80.0921 45.9805 80.148 45.9805 80.204ZM74.9634 82.0242C75.1314 82.1922 75.1034 82.2762 74.7113 82.5843L74.2633 82.9764L74.2353 92.0212L74.2073 101.066L74.0673 92.0493L73.9273 83.0604L73.4512 81.8283C73.1992 81.1562 72.9472 80.4842 72.8632 80.3161C72.8072 80.1481 73.1992 80.4561 73.7312 80.9321C74.3193 81.4362 74.8514 81.9402 74.9634 82.0242ZM24.0824 81.4082C24.3624 81.5482 24.3904 81.6883 24.3904 82.2763C24.3624 82.6684 24.3344 83.3684 24.2784 83.8165L24.1944 84.6285L23.3263 84.0965L22.4302 83.5644V82.6964C22.4302 82.2203 22.4862 81.5202 22.5142 81.1841L22.6262 80.5121L23.2143 80.8762C23.4663 81.1002 23.8863 81.3242 24.0824 81.4082ZM113.075 81.6602V82.3603L112.039 82.8643L111.003 83.3404L110.891 82.8084C110.695 81.8003 110.695 81.7723 111.787 81.2682C112.347 81.0162 112.879 80.8202 112.935 80.8482C113.047 80.9322 113.075 81.2962 113.075 81.6602ZM44.9444 81.3522C45.2524 81.4642 45.2524 81.4642 45.0284 81.7722C44.8044 82.0522 44.6924 82.0803 43.8803 81.9963L42.9842 81.8842L43.2923 81.5482C43.6283 81.2402 44.2724 81.1561 44.9444 81.3522ZM61.074 81.5482C60.99 81.7443 60.766 82.2763 60.57 82.8084L60.1779 83.7324L60.2619 89.137C60.3179 92.1053 60.4019 95.9137 60.4299 97.5378C60.5139 100.562 60.514 100.562 60.2059 100.562H59.8979V92.4973V84.4325L59.2258 83.8444C58.5538 83.2563 58.5537 83.2564 58.8338 83.0604C59.0018 82.9483 59.5619 82.5003 60.1219 82.0522C60.682 81.6322 61.13 81.2682 61.158 81.2682C61.186 81.2402 61.13 81.3802 61.074 81.5482ZM62.5021 88.857C62.5581 92.3573 62.6141 96.5017 62.6141 98.0418L62.6422 100.842H61.6901H60.766V99.302C60.766 98.4619 60.682 94.6535 60.626 90.7891L60.4859 83.8165L60.934 82.6403L61.382 81.4641L61.8861 81.9683L62.3901 82.4723L62.5021 88.857ZM44.1603 82.3603C44.4404 82.3603 44.4404 82.3883 44.1883 82.7803C43.9083 83.2284 43.7123 83.2844 42.5362 83.1164L41.8641 83.0043L42.2562 82.5843C42.6202 82.1922 42.7322 82.1643 43.2923 82.2483C43.6283 82.3323 44.0203 82.3603 44.1603 82.3603ZM75.7474 84.0405L76.2795 85.4406V93.1414V100.842H75.4394H74.5993V91.9932C74.5993 83.9844 74.6273 83.1443 74.8513 82.8923C74.9914 82.7523 75.1314 82.6403 75.1874 82.6403C75.1874 82.6403 75.4674 83.2844 75.7474 84.0405ZM77.6516 84.6566C77.6796 84.7126 77.4836 84.9086 77.2596 85.0766L76.8396 85.3845L76.8115 93.1694L76.7555 100.954L76.6715 93.1974L76.5875 85.4406L76.1115 84.1805C75.8595 83.4804 75.6634 82.8644 75.6634 82.8364C75.6914 82.7524 77.5956 84.5166 77.6516 84.6566ZM113.187 84.0124L113.243 85.1606L112.151 85.6926L111.087 86.2246V85.6926C111.087 85.4126 111.031 84.8525 111.003 84.4605L110.919 83.7604L111.815 83.3124C113.103 82.6123 113.131 82.6403 113.187 84.0124ZM43.5443 83.5644C43.5723 83.5924 43.4883 83.7324 43.4043 83.9004C43.2362 84.1525 43.0682 84.2085 42.3682 84.2085C41.8921 84.2085 41.3601 84.1524 41.192 84.1244L40.856 84.0124L41.164 83.7044C41.4441 83.4243 41.5561 83.3964 42.4802 83.4524C43.0402 83.5084 43.5163 83.5644 43.5443 83.5644ZM57.7977 84.8525L57.3776 86.1126V93.3374C57.3776 99.666 57.3496 100.562 57.1536 100.562C56.9576 100.562 56.9296 99.694 56.9296 93.5614V86.5607L56.2855 86.0006L55.6415 85.4126L56.9016 84.4605C57.5737 83.9564 58.1617 83.5364 58.1897 83.5644C58.1897 83.5644 58.0217 84.1524 57.7977 84.8525ZM59.1418 84.1524L59.6179 84.5166V92.5252V100.562H58.7778H57.9377V93.1414C57.9377 85.8886 57.9377 85.7206 58.2457 84.7686C58.4137 84.2365 58.5818 83.7885 58.6098 83.7885C58.6378 83.7885 58.8898 83.9564 59.1418 84.1524ZM23.4383 84.4885L24.2504 84.9925L24.1664 87.4008C24.1104 88.7169 24.0824 90.2571 24.0824 90.7611V91.7412H23.0743H22.0662L22.1502 88.7729C22.2622 85.4126 22.3742 83.8725 22.5142 83.9285C22.5702 83.9845 22.9903 84.2365 23.4383 84.4885ZM10.277 85.4406C10.249 85.7486 10.221 85.5246 10.221 84.9925C10.221 84.4325 10.249 84.2085 10.277 84.4605C10.305 84.7125 10.305 85.1606 10.277 85.4406ZM42.7322 84.6285C42.7322 84.6845 42.6202 84.9086 42.4522 85.0766C42.2001 85.4126 42.1161 85.4125 40.94 85.3845L39.7079 85.3286L40.0999 84.9086C40.464 84.5165 40.576 84.4885 41.6121 84.4885C42.2281 84.4885 42.7322 84.5445 42.7322 84.6285ZM78.4637 86.7007L78.9678 88.0728V94.5135V100.954H78.1277H77.2876V93.1694C77.2876 86.0847 77.3156 85.3846 77.5396 85.1325C77.7916 84.8525 77.7916 84.8525 78.4637 86.7007ZM80.2559 86.7568C80.2559 86.7848 80.0879 87.0368 79.8918 87.3168L79.5278 87.8489V94.4015C79.5278 98.6859 79.4718 100.982 79.3878 100.982C79.3038 100.982 79.2478 98.7138 79.2478 94.4854C79.2478 88.2968 79.2198 87.9328 78.9678 87.1208C78.7997 86.6727 78.5757 85.9727 78.4637 85.6086L78.2677 84.9366L79.2478 85.8046C79.8078 86.2806 80.2559 86.7288 80.2559 86.7568ZM113.355 86.8407V88.0169L112.319 88.4648C111.759 88.7169 111.283 88.9129 111.283 88.8849C111.255 88.8569 111.199 88.3249 111.143 87.6808L111.031 86.5046L112.067 86.0287C112.627 85.7487 113.159 85.5806 113.215 85.6086C113.327 85.6366 113.355 86.1687 113.355 86.8407ZM41.5001 85.7767L41.9201 85.8606L41.5841 86.2526C41.2481 86.6447 41.2201 86.6447 39.9319 86.5607L38.6158 86.4768L39.0078 86.0567C39.3719 85.6927 39.4839 85.6646 40.268 85.6646C40.716 85.6646 41.2761 85.7207 41.5001 85.7767ZM56.6496 93.7014V100.562H55.8095H54.9694V94.3454C54.9694 87.8488 54.9694 87.8768 55.6135 86.0846C55.6695 85.9166 55.8095 86.0006 56.1735 86.3646L56.6776 86.8407V93.7014H56.6496ZM54.8014 87.1208C54.5214 87.9048 54.5214 88.2969 54.5214 94.2615C54.5214 99.75 54.4934 100.562 54.2973 100.562C54.1013 100.562 54.0733 99.8341 54.0733 94.8776V89.1929L53.3732 88.6049C52.9812 88.2688 52.6732 87.9608 52.7012 87.9048C52.7852 87.7088 55.0254 86.0567 55.0534 86.1967C55.0814 86.2247 54.9694 86.6727 54.8014 87.1208ZM40.856 87.1208C40.884 87.1488 40.744 87.3168 40.576 87.5128C40.268 87.9328 39.9319 87.9608 38.3358 87.8208L37.4677 87.7088L37.8597 87.2888L38.2518 86.8688L39.5399 86.9807C40.2119 87.0368 40.828 87.1208 40.856 87.1208ZM81.18 88.969L81.824 90.5371V95.7456V100.982H80.9H79.9759V94.4854C79.9759 88.7449 80.0039 87.9608 80.1999 87.6528C80.3399 87.4568 80.4519 87.3448 80.4799 87.3728C80.5079 87.4008 80.8159 88.1289 81.18 88.969ZM82.2721 88.5489L83.0842 89.249L82.7201 89.6971L82.3841 90.145V95.5496C82.3841 99.078 82.3281 100.982 82.2441 100.982C82.1601 100.982 82.1041 99.1619 82.1041 95.7456V90.5091L81.516 89.109C81.208 88.3529 80.8999 87.5968 80.8439 87.4847C80.7319 87.2607 81.012 87.4568 82.2721 88.5489ZM39.8479 88.2689C39.8759 88.2969 39.7639 88.5208 39.5679 88.7449C39.2319 89.1929 39.2319 89.1929 37.9437 89.1929C36.1796 89.1929 36.0395 89.137 36.5996 88.577L37.0476 88.1289L38.4198 88.1848C39.1758 88.1848 39.8479 88.2409 39.8479 88.2689ZM51.8331 89.389L51.413 90.5931V95.5776C51.413 99.9181 51.385 100.562 51.189 100.562C50.993 100.562 50.965 99.974 50.965 95.9697V91.4051L50.2369 90.7611L49.5089 90.1171L50.769 89.1649C51.4691 88.6609 52.0851 88.2409 52.1411 88.2409C52.1971 88.1849 52.0571 88.7449 51.8331 89.389ZM113.635 89.753V91.1812L112.599 91.6573C112.039 91.9373 111.563 92.1332 111.563 92.1052C111.535 92.0772 111.479 91.4332 111.451 90.6491L111.367 89.221L112.319 88.8009C112.851 88.5489 113.355 88.3529 113.467 88.3529C113.607 88.3249 113.635 88.7169 113.635 89.753ZM53.3452 88.857L53.8213 89.221V94.9055V100.562H52.8132H51.8051V95.6616C51.8051 91.0131 51.8331 90.7331 52.1131 89.9491C52.2811 89.501 52.4772 88.9689 52.5332 88.8009C52.7012 88.4089 52.7572 88.4089 53.3452 88.857ZM11.0891 89.501C11.5651 89.809 11.5931 89.8651 11.5931 90.6491C11.5931 91.0972 11.5371 91.4612 11.5091 91.4612C11.4531 91.4612 11.2011 91.3211 10.9491 91.1531C10.501 90.8731 10.473 90.8171 10.473 90.005C10.473 89.5569 10.501 89.1649 10.557 89.1649C10.585 89.1929 10.8371 89.333 11.0891 89.501ZM38.7838 89.5849C39.0078 89.697 39.0078 89.725 38.6438 90.061C38.2518 90.3971 38.1958 90.4251 36.6276 90.3691L35.0034 90.313L35.3955 89.893C35.7875 89.501 35.8155 89.473 37.1316 89.501C37.9157 89.501 38.6438 89.5569 38.7838 89.5849ZM83.9242 91.1812L84.5123 92.6652V96.8097V100.982H83.6722H82.8321V95.5776C82.8321 91.7413 82.8882 90.0891 83.0002 89.8091C83.0842 89.613 83.1962 89.501 83.2522 89.5571C83.2802 89.6411 83.5882 90.3691 83.9242 91.1812ZM85.6324 91.7412C85.6324 91.7972 85.4644 91.9933 85.2684 92.1893L84.9043 92.5252L84.8763 96.8657L84.8483 101.206L84.7643 96.8657L84.6803 92.5252L84.1483 91.2651C83.8402 90.593 83.6162 89.9771 83.6162 89.9491C83.6162 89.9211 84.0643 90.257 84.6243 90.7331C85.2124 91.2371 85.6324 91.6852 85.6324 91.7412ZM37.2717 90.7331L37.9997 90.8451L37.5517 91.3772L37.1036 91.9093L35.3675 91.7973L33.6313 91.6852L34.1634 91.1531C34.6954 90.6211 34.7234 90.5931 35.6475 90.6211C36.1236 90.6491 36.8796 90.6771 37.2717 90.7331ZM49.2568 90.6491C49.2568 90.6771 49.0608 91.2091 48.8368 91.8532L48.4168 93.0294V96.6978C48.4168 99.8901 48.3888 100.394 48.1927 100.394C47.9967 100.394 47.9687 99.918 47.9687 97.0057V93.6175L47.1846 93.1133L46.4006 92.6093L47.7447 91.6012C48.8928 90.7331 49.2568 90.5091 49.2568 90.6491ZM50.0409 91.0411L50.545 91.4892V95.9416V100.394H49.7049H48.8648V96.5856C48.8648 93.0853 48.8928 92.6933 49.1728 91.6852C49.3689 91.0691 49.5089 90.565 49.5369 90.565C49.5649 90.565 49.7609 90.8171 50.0409 91.0411ZM11.0611 91.6292C11.3971 91.8813 11.4531 91.9933 11.4531 92.7493V93.5894L10.8931 93.3094L10.333 93.0294V92.1052C10.333 91.0971 10.305 91.0972 11.0611 91.6292ZM113.971 93.5614L114.027 94.8776H112.935H111.815V94.1775C111.815 93.7855 111.759 93.3094 111.731 93.0574C111.647 92.6654 111.675 92.6093 112.767 92.1332C114.027 91.5452 113.887 91.4052 113.971 93.5614ZM20.9181 94.9896C20.862 96.6137 20.778 98.3498 20.722 98.8539L20.638 99.75L20.218 99.6659C19.994 99.6099 19.0139 99.582 18.0338 99.582C16.5776 99.582 16.2696 99.526 16.2696 99.358C16.2696 99.162 17.7817 92.6094 17.8938 92.2173C17.9498 92.1053 18.3978 92.0493 19.4619 92.0493H20.9741L20.9181 94.9896ZM22.8782 95.6896C23.4943 97.7058 24.0264 99.4419 24.0824 99.5259C24.1384 99.6659 23.7743 99.722 22.6262 99.722H21.0861L21.1981 96.1377C21.2541 94.1775 21.3381 92.4413 21.3661 92.3013C21.5341 91.6012 21.8421 92.2453 22.8782 95.6896ZM24.0264 92.4133C24.1664 93.1413 25.2585 99.554 25.2585 99.694C25.2585 99.946 24.4464 99.862 24.3624 99.582C24.3064 99.442 23.8023 97.7338 23.2143 95.7736C22.6262 93.8134 22.1222 92.1612 22.1222 92.1052C22.1222 92.0492 22.5422 91.9932 23.0183 91.9932C23.9143 92.0212 23.9424 92.0492 24.0264 92.4133ZM35.9555 92.1893H37.1036L36.6836 92.6093C36.2916 93.0014 36.2076 93.0294 35.1995 93.0294C34.6114 93.0294 33.7713 92.9734 33.3793 92.9174L32.6232 92.8333L33.0152 92.4133C33.3793 92.0212 33.4633 91.9933 34.1354 92.0773C34.5274 92.1333 35.3395 92.1893 35.9555 92.1893ZM86.4725 93.7575L87.0606 95.3535V98.2379V101.122H86.2205H85.3804V96.8097C85.3804 92.6093 85.4364 92.1613 85.8284 92.1613C85.8564 92.1893 86.1645 92.8894 86.4725 93.7575ZM88.0686 94.2895C87.8166 94.7095 87.5086 95.0736 87.4526 95.0176C87.4246 94.9896 87.1446 94.3734 86.8085 93.6453L86.2205 92.3013L87.2286 93.1694C88.0126 93.8694 88.1807 94.0935 88.0686 94.2895ZM45.6445 94.0934C45.2804 94.9615 45.2804 95.1295 45.2804 97.7057C45.2804 100.002 45.2524 100.394 45.0564 100.394C44.8604 100.394 44.8324 100.058 44.8324 98.1818V95.9697L44.1323 95.5216C43.7403 95.2696 43.4323 94.9895 43.4603 94.9335C43.5163 94.7935 45.8965 93.0013 45.9525 93.0853C46.0085 93.1413 45.8685 93.5894 45.6445 94.0934ZM46.9886 93.3933L47.5487 93.7854V97.0898V100.422H46.4846H45.4205V97.8179C45.4205 95.3536 45.4485 95.1856 45.8125 94.1214C46.0365 93.5334 46.2605 93.0294 46.3166 93.0294C46.3726 93.0294 46.6806 93.1973 46.9886 93.3933ZM35.8995 93.5614C35.8995 93.6454 35.7035 93.8974 35.4795 94.1214L35.0594 94.5975H33.0432H31.027L31.5871 94.0375L32.1472 93.4774H34.0513C35.0594 93.4494 35.8995 93.5054 35.8995 93.5614ZM10.9491 93.8975C11.4531 94.2055 11.4531 94.2054 11.4531 95.2135C11.4531 95.7736 11.3971 96.5857 11.3691 96.9778L11.2571 97.7338H10.6971H10.137L10.249 96.6417C10.305 96.0536 10.333 95.1296 10.333 94.5695C10.333 94.0375 10.361 93.5894 10.389 93.5894C10.417 93.5894 10.6691 93.7295 10.9491 93.8975ZM89.0208 96.1377C89.6088 97.6498 89.6088 97.7338 89.6088 99.4139V101.15H88.6847H87.7606V98.2379C87.7606 95.7737 87.8166 95.2416 87.9846 94.9615C88.1247 94.7655 88.2647 94.5975 88.3207 94.5975C88.4047 94.5975 88.7127 95.2976 89.0208 96.1377ZM90.8129 96.3056C90.9249 96.4736 90.8409 96.6978 90.5329 97.1178L90.0849 97.7057L89.5808 96.3897C89.3008 95.6896 89.0208 94.9615 88.9647 94.7935C88.8527 94.5135 90.5609 95.8856 90.8129 96.3056ZM34.4714 95.4655C34.2194 95.8016 33.9393 96.1936 33.8553 96.3336C33.6873 96.5577 33.4353 96.5857 31.4191 96.5577L29.1789 96.5017L29.9069 95.6896L30.663 94.8776H32.7912H34.9194L34.4714 95.4655ZM42.4522 96.3617C42.0881 97.3978 42.0321 97.8459 42.0321 98.938C42.0321 100.03 41.9761 100.254 41.8081 100.254C41.6401 100.254 41.5841 100.03 41.5841 99.218V98.1818L40.856 97.6498C40.352 97.2578 40.1839 97.0618 40.296 96.9498C40.52 96.7257 42.7882 95.0455 42.8162 95.1015C42.8442 95.1015 42.6762 95.6616 42.4522 96.3617ZM119.684 98.0979C120.3 99.7781 120.832 101.262 120.86 101.374C120.916 101.542 120.468 101.57 118.284 101.57C115.875 101.57 115.651 101.542 115.651 101.318C115.651 101.178 115.539 99.8061 115.427 98.2379C115.315 96.6698 115.203 95.3536 115.203 95.2976C115.203 95.1856 116.043 95.1015 117.556 95.0735L118.564 95.0455L119.684 98.0979ZM121.252 98.0699C121.896 99.722 122.484 101.178 122.54 101.29C122.624 101.514 122.512 101.542 121.896 101.542C121.504 101.542 121.168 101.514 121.168 101.486C121.168 101.458 120.664 100.002 120.02 98.2379C119.404 96.5017 118.872 95.0456 118.872 95.0176C118.872 94.9896 119.124 94.9896 119.46 95.0176L120.048 95.0735L121.252 98.0699ZM113.775 95.2696C113.775 95.3536 113.243 96.7537 112.599 98.4338C111.423 101.486 111.423 101.486 110.975 101.542C110.723 101.57 110.527 101.57 110.527 101.542C110.527 101.514 110.779 100.114 111.087 98.4338C111.395 96.7537 111.647 95.3256 111.647 95.2696C111.647 95.2136 112.123 95.1576 112.711 95.1576C113.299 95.1576 113.775 95.2136 113.775 95.2696ZM114.923 95.4655C114.923 95.8576 115.175 99.3859 115.287 100.646L115.371 101.542H113.607H111.843L113.075 98.3499C114.167 95.4936 114.335 95.1576 114.615 95.1576C114.839 95.1576 114.923 95.2415 114.923 95.4655ZM44.3004 98.2379V100.422H43.2923H42.2842V99.078C42.2842 97.9299 42.3682 97.5658 42.7322 96.5297L43.1802 95.2976L43.7403 95.6896L44.3004 96.0816V98.2379ZM33.1833 97.1457C33.0152 97.4257 32.8472 97.4257 30.663 97.4257C28.3388 97.4257 28.3388 97.4257 28.5908 97.1457C28.8428 96.8937 29.0389 96.8657 31.1111 96.8657C33.3233 96.8657 33.3513 96.8657 33.1833 97.1457ZM91.877 98.4619C92.2691 99.386 92.4651 100.058 92.4651 100.478V101.122H91.541H90.6169V99.302C90.6169 97.8738 90.6729 97.4257 90.8409 97.1457C90.9809 96.9777 91.1209 96.8657 91.1769 96.9498C91.233 97.0338 91.569 97.7058 91.877 98.4619ZM93.0812 98.4058C93.3052 98.6298 93.3052 98.7699 93.1932 98.9939C93.1091 99.1619 93.0251 99.694 93.0251 100.198C93.0251 100.73 92.9691 101.122 92.8851 101.122C92.8011 101.122 92.7451 100.814 92.7451 100.422C92.7451 99.89 92.5771 99.386 92.1011 98.3499L91.457 96.9778L92.1291 97.5378C92.5211 97.8739 92.9411 98.2378 93.0812 98.4058ZM35.0314 100.198C35.0034 100.226 34.4994 100.198 33.8833 100.17L32.7912 100.086L33.8833 98.6299L34.9754 97.1737L35.0314 98.6579C35.0314 99.498 35.0314 100.198 35.0314 100.198ZM32.5672 97.8738C32.5112 97.9578 31.6431 98.0138 30.411 98.0138C29.1509 98.0138 28.3668 97.9578 28.3668 97.8738C28.3668 97.7898 29.1789 97.7338 30.523 97.7338C31.8951 97.7058 32.6232 97.7618 32.5672 97.8738ZM40.688 98.0979L41.3041 98.4899V99.442V100.422H40.0999H38.8958V99.638C38.8958 98.938 38.9518 98.7699 39.3719 98.2938C39.6239 97.9858 39.8759 97.7338 39.9599 97.7338C40.0159 97.7058 40.324 97.9019 40.688 98.0979ZM28.3388 99.078C28.5068 99.61 28.6188 100.086 28.5908 100.114C28.5628 100.142 27.9187 100.142 27.1627 100.114L25.7905 100.058L26.8266 98.938C27.3867 98.3219 27.8907 97.8738 27.9467 97.9298C28.0028 98.0139 28.1708 98.5179 28.3388 99.078ZM7.19671 98.3779C7.16871 98.938 6.77667 100.45 6.60865 100.646C6.44063 100.814 6.44063 100.618 6.52464 99.498C6.63665 98.3219 6.69266 98.1538 6.91668 98.1538C7.0847 98.1538 7.19671 98.2379 7.19671 98.3779ZM9.46493 98.5458C9.46493 98.7698 9.40892 99.1619 9.38092 99.3859C9.29691 99.7779 9.24091 99.834 8.76486 99.834C8.48483 99.834 8.03679 99.89 7.75676 99.974L7.28071 100.114L7.39273 99.442C7.58875 98.0698 7.53274 98.1258 8.54084 98.1258C9.46493 98.1538 9.46493 98.1538 9.46493 98.5458ZM11.3131 98.9939C11.3131 99.4419 11.4531 100.45 11.5931 101.206C11.7612 101.962 11.8732 102.634 11.8732 102.718C11.8732 102.802 11.5651 102.858 11.1731 102.858H10.501L10.389 101.542C10.333 100.842 10.249 99.778 10.221 99.19L10.137 98.1538H10.7251H11.3131V98.9939ZM38.7838 98.3219C38.6718 98.4339 38.6158 98.8819 38.6158 99.3859V100.282H37.8877H37.1596L37.3837 99.89C37.6077 99.47 38.7278 98.1538 38.8678 98.1538C38.8958 98.1538 38.8678 98.2098 38.7838 98.3219ZM87.4526 100.366C87.4246 100.814 87.3966 100.478 87.3966 99.638C87.3966 98.77 87.4246 98.4058 87.4526 98.8259C87.4806 99.2179 87.4806 99.918 87.4526 100.366ZM32.0071 98.5739C31.9511 98.6579 31.2231 98.7139 30.299 98.7139C29.3749 98.7139 28.6468 98.6579 28.5908 98.5739C28.5348 98.4898 29.1229 98.4338 30.299 98.4338C31.4471 98.4338 32.0632 98.4898 32.0071 98.5739ZM68.6908 100.226C68.6627 100.534 68.6347 100.282 68.6347 99.694C68.6347 99.1059 68.6627 98.8819 68.6908 99.1619C68.7188 99.47 68.7188 99.946 68.6908 100.226ZM95.1533 100.702L95.2094 101.29H94.2853H93.3332V100.338C93.3332 99.8341 93.4172 99.2739 93.5012 99.1339C93.6412 98.8539 93.6972 98.8819 94.3693 99.47C94.9853 100.002 95.0973 100.17 95.1533 100.702ZM31.4191 99.4139C31.3631 99.4979 30.775 99.554 30.047 99.554C29.2909 99.554 28.7868 99.4979 28.7868 99.4139C28.7868 99.3299 29.3469 99.2739 30.159 99.2739C31.027 99.2739 31.4751 99.3299 31.4191 99.4139ZM10.081 101.374C10.165 102.802 10.165 102.83 9.85697 102.83C9.57694 102.83 9.57694 102.774 9.66095 101.962C9.71695 101.486 9.74496 100.702 9.77296 100.226C9.77296 98.9099 9.96898 99.638 10.081 101.374ZM30.859 100.002C30.803 100.086 30.355 100.142 29.8509 100.142C29.3469 100.142 28.9548 100.086 28.9548 100.002C28.9548 99.918 29.3749 99.862 29.9629 99.862C30.579 99.862 30.915 99.918 30.859 100.002ZM101.706 100.786C101.706 101.122 101.622 101.262 101.482 101.262C101.314 101.262 101.258 101.094 101.258 100.618C101.258 100.058 101.286 99.974 101.482 100.142C101.594 100.226 101.706 100.534 101.706 100.786ZM8.93288 101.29C8.84887 102.774 8.82087 102.83 8.40083 102.83C8.03679 102.83 8.03679 102.83 8.03679 101.57C8.03679 100.478 8.06479 100.282 8.28882 100.226C8.98888 100.058 8.98888 100.058 8.93288 101.29ZM18.0058 101.542C18.0058 102.718 17.9778 102.83 17.7257 102.83C17.4737 102.83 17.4457 102.718 17.4457 101.542C17.4457 100.366 17.4737 100.254 17.7257 100.254C17.9778 100.254 18.0058 100.366 18.0058 101.542ZM21.1141 101.542V102.83H19.7699H18.4258V101.542V100.254H19.7699H21.1141V101.542ZM21.9822 101.542C21.9822 102.578 21.9262 102.83 21.7581 102.83C21.5901 102.83 21.5341 102.578 21.5341 101.542C21.5341 100.506 21.5901 100.254 21.7581 100.254C21.9262 100.254 21.9822 100.506 21.9822 101.542ZM25.2305 101.542V102.83H23.8023H22.3742V101.542V100.254H23.8023H25.2305V101.542ZM26.0986 101.626C26.0986 102.606 26.0426 102.83 25.8745 102.83C25.7065 102.83 25.6505 102.606 25.6505 101.626C25.6505 100.646 25.7065 100.422 25.8745 100.422C26.0426 100.422 26.0986 100.646 26.0986 101.626ZM29.2349 101.626V102.83H27.8907H26.5466V101.626V100.422H27.8907H29.2349V101.626ZM30.075 101.71C30.075 102.886 30.047 102.998 29.7949 102.998C29.5429 102.998 29.5149 102.886 29.5149 101.71C29.5149 100.534 29.5429 100.422 29.7949 100.422C30.047 100.422 30.075 100.506 30.075 101.71ZM32.6512 100.562H33.0713V101.766V102.97H31.7831H30.495V101.682V100.366L31.3631 100.478C31.8391 100.506 32.4272 100.562 32.6512 100.562ZM7.58875 102.438C7.56074 102.774 7.53274 102.466 7.53274 101.766C7.53274 101.066 7.56074 100.786 7.58875 101.178C7.61675 101.57 7.61675 102.13 7.58875 102.438ZM33.9113 101.766C33.9113 102.886 33.8833 102.97 33.6313 102.97C33.3793 102.97 33.3513 102.858 33.3513 101.766C33.3513 100.646 33.3793 100.562 33.6313 100.562C33.8833 100.562 33.9113 100.674 33.9113 101.766ZM36.7676 101.766V102.97H35.4795H34.1914V101.766V100.562H35.4795H36.7676V101.766ZM37.7477 101.766C37.7477 102.886 37.7197 102.97 37.4677 102.97C37.2157 102.97 37.1877 102.858 37.1877 101.766C37.1877 100.646 37.2157 100.562 37.4677 100.562C37.7197 100.562 37.7477 100.674 37.7477 101.766ZM40.604 101.766V102.97H39.3159H38.0277V101.766V100.562H39.3159H40.604V101.766ZM41.4441 101.906C41.4441 103.026 41.4161 103.11 41.164 103.11C40.912 103.11 40.884 102.998 40.884 101.906C40.884 100.814 40.912 100.702 41.164 100.702C41.4161 100.702 41.4441 100.814 41.4441 101.906ZM44.1323 101.906V103.11H42.9282H41.7241V101.906V100.702H42.9282H44.1323V101.906ZM45.2804 101.85C45.2804 102.886 45.2524 102.998 45.0004 102.998C44.7484 102.998 44.7204 102.886 44.7204 101.85C44.7204 100.814 44.7484 100.702 45.0004 100.702C45.2524 100.702 45.2804 100.814 45.2804 101.85ZM47.8287 101.85V102.998H46.6806H45.5325V101.85V100.702H46.6806H47.8287V101.85ZM96.2455 101.122C96.3015 101.206 96.1615 101.262 95.9654 101.262C95.6854 101.262 95.6014 101.178 95.6014 100.982C95.6014 100.73 95.6574 100.702 95.8814 100.842C96.0214 100.926 96.1895 101.066 96.2455 101.122ZM48.6968 101.99C48.6968 103.026 48.6688 103.138 48.4168 103.138C48.1647 103.138 48.1367 103.026 48.1367 101.99C48.1367 100.954 48.1647 100.842 48.4168 100.842C48.6688 100.842 48.6968 100.954 48.6968 101.99ZM51.3851 101.99V103.138H50.2369H49.0888V101.99V100.842H50.2369H51.3851V101.99ZM52.2531 101.99C52.2531 103.026 52.2251 103.138 51.9731 103.138C51.7211 103.138 51.6931 103.026 51.6931 101.99C51.6931 100.954 51.7211 100.842 51.9731 100.842C52.2251 100.842 52.2531 100.954 52.2531 101.99ZM54.9414 101.99V103.138H53.7373H52.5332V101.99V100.842H53.7373H54.9414V101.99ZM55.9495 101.99C55.9495 103.026 55.9215 103.138 55.6695 103.138C55.4174 103.138 55.3894 103.026 55.3894 101.99C55.3894 100.954 55.4174 100.842 55.6695 100.842C55.9215 100.842 55.9495 100.954 55.9495 101.99ZM58.3577 101.99V103.138H57.2936H56.2295V101.99V100.842H57.2936H58.3577V101.99ZM6.86067 102.886C6.83267 103.222 6.80467 102.914 6.80467 102.214C6.80467 101.514 6.83267 101.234 6.86067 101.626C6.88868 101.962 6.88868 102.55 6.86067 102.886ZM59.1978 102.13C59.1978 103.166 59.1698 103.278 58.9178 103.278C58.6658 103.278 58.6378 103.166 58.6378 102.13C58.6378 101.094 58.6658 100.982 58.9178 100.982C59.1698 100.982 59.1978 101.094 59.1978 102.13ZM61.7741 102.046V103.11H60.71H59.6459V102.046V100.982H60.71H61.7741V102.046ZM62.6141 102.046C62.6141 103.026 62.5861 103.11 62.3341 103.11C62.0821 103.11 62.0541 102.998 62.0541 102.046C62.0541 101.066 62.0821 100.982 62.3341 100.982C62.5861 100.982 62.6141 101.094 62.6141 102.046ZM65.0504 102.13V103.278H64.0423H63.0342V102.13V100.982H64.0423H65.0504V102.13ZM66.0305 102.13C66.0305 103.166 66.0025 103.278 65.7505 103.278C65.4984 103.278 65.4704 103.166 65.4704 102.13C65.4704 101.094 65.4984 100.982 65.7505 100.982C66.0025 100.982 66.0305 101.094 66.0305 102.13ZM9.26891 102.438C9.24091 102.69 9.21291 102.494 9.21291 101.99C9.21291 101.486 9.24091 101.29 9.26891 101.514C9.29692 101.766 9.29692 102.186 9.26891 102.438ZM70.1189 101.262H71.575V102.27V103.278H68.9428H66.3105V102.186V101.094L67.4866 101.178C68.1307 101.234 69.3068 101.262 70.1189 101.262ZM72.5831 102.186C72.5831 103.166 72.5551 103.25 72.3031 103.25C72.0511 103.25 72.0231 103.138 72.0231 102.186C72.0231 101.234 72.0511 101.122 72.3031 101.122C72.5551 101.122 72.5831 101.234 72.5831 102.186ZM74.9914 102.186V103.25H73.9273H72.8632V102.186V101.122H73.9273H74.9914V102.186ZM75.8314 102.27C75.8314 103.166 75.8034 103.278 75.5514 103.278C75.2994 103.278 75.2714 103.166 75.2714 102.27C75.2714 101.374 75.2994 101.262 75.5514 101.262C75.8034 101.262 75.8314 101.374 75.8314 102.27ZM77.9597 102.27V103.278H77.1196H76.2795V102.27V101.262H77.1196H77.9597V102.27ZM78.9678 102.27C78.9678 103.166 78.9398 103.278 78.6877 103.278C78.4357 103.278 78.4077 103.166 78.4077 102.27C78.4077 101.374 78.4357 101.262 78.6877 101.262C78.9398 101.262 78.9678 101.374 78.9678 102.27ZM81.236 102.27V103.278H80.2279H79.2198V102.27V101.262H80.2279H81.236V102.27ZM82.2441 102.27C82.2441 103.166 82.2161 103.278 81.9641 103.278C81.712 103.278 81.684 103.166 81.684 102.27C81.684 101.374 81.712 101.262 81.9641 101.262C82.2161 101.262 82.2441 101.374 82.2441 102.27ZM84.2323 102.27V103.278H83.3922H82.5521V102.27V101.262H83.3922H84.2323V102.27ZM6.46864 102.55C6.46864 103.222 6.41263 103.698 6.32862 103.698C6.24462 103.698 6.18861 103.222 6.18861 102.55C6.18861 101.878 6.24462 101.402 6.32862 101.402C6.41263 101.402 6.46864 101.878 6.46864 102.55ZM85.0724 102.41C85.0724 103.306 85.0443 103.418 84.7923 103.418C84.5403 103.418 84.5123 103.306 84.5123 102.41C84.5123 101.514 84.5403 101.402 84.7923 101.402C85.0443 101.402 85.0724 101.514 85.0724 102.41ZM87.3406 102.41V103.418H86.4165H85.4924V102.41V101.402H86.4165H87.3406V102.41ZM88.0686 102.41C88.0686 103.194 88.0126 103.418 87.8446 103.418C87.6766 103.418 87.6206 103.222 87.6206 102.41C87.6206 101.598 87.6766 101.402 87.8446 101.402C88.0126 101.402 88.0686 101.626 88.0686 102.41ZM90.1969 102.326V103.25H89.2728H88.3487V102.326V101.402H89.2728H90.1969V102.326ZM91.0369 102.326C91.0369 103.054 90.9809 103.25 90.8129 103.25C90.6449 103.25 90.5889 103.054 90.5889 102.326C90.5889 101.598 90.6449 101.402 90.8129 101.402C91.0089 101.402 91.0369 101.626 91.0369 102.326ZM13.4413 102.186C13.4413 102.774 13.4133 102.83 13.0773 102.83H12.7132L13.0213 102.186C13.1893 101.822 13.3573 101.542 13.3853 101.542C13.4133 101.542 13.4413 101.85 13.4413 102.186ZM94.3413 101.71H96.0214V102.634V103.558H93.6692H91.317V102.55V101.514L91.961 101.626C92.3531 101.654 93.4172 101.71 94.3413 101.71ZM96.7215 102.466C96.7215 103.194 96.6655 103.39 96.4975 103.39C96.3295 103.39 96.2735 103.194 96.2735 102.466C96.2735 101.738 96.3295 101.542 96.4975 101.542C96.6935 101.542 96.7215 101.766 96.7215 102.466ZM98.8777 102.466V103.39H98.0376H97.1975V102.466V101.542H98.0376H98.8777V102.466ZM99.5778 102.578C99.5778 103.054 99.5218 103.418 99.4378 103.418C99.3538 103.418 99.2977 102.998 99.2977 102.494C99.2977 101.906 99.3538 101.598 99.4378 101.654C99.5218 101.682 99.5778 102.102 99.5778 102.578ZM102.714 102.466C102.714 103.194 102.658 103.39 102.49 103.39C102.322 103.39 102.266 103.194 102.266 102.466C102.266 101.738 102.322 101.542 102.49 101.542C102.658 101.542 102.714 101.766 102.714 102.466ZM101.986 102.634V103.558H100.978H99.9698V102.634V101.71H100.978H101.986V102.634ZM104.394 102.634V103.558H103.694H102.994V102.634V101.71H103.694H104.394V102.634ZM105.262 102.634C105.262 103.362 105.206 103.558 105.038 103.558C104.87 103.558 104.814 103.362 104.814 102.634C104.814 101.906 104.87 101.71 105.038 101.71C105.206 101.71 105.262 101.906 105.262 102.634ZM107.111 102.634V103.558H106.326H105.542V102.634V101.71H106.326H107.111V102.634ZM107.811 102.69C107.811 103.362 107.755 103.53 107.587 103.53C107.419 103.53 107.363 103.334 107.363 102.69C107.363 102.018 107.419 101.85 107.587 101.85C107.783 101.85 107.811 102.018 107.811 102.69ZM109.939 102.69V103.53H109.099H108.259V102.69V101.85H109.099H109.939V102.69ZM110.667 102.69C110.667 103.362 110.611 103.53 110.443 103.53C110.275 103.53 110.219 103.334 110.219 102.69C110.219 102.018 110.275 101.85 110.443 101.85C110.611 101.85 110.667 102.018 110.667 102.69ZM112.515 102.69V103.53H111.815H111.115V102.69V101.85H111.815H112.515V102.69ZM113.215 102.69C113.215 103.166 113.159 103.53 113.075 103.53C112.991 103.53 112.935 103.138 112.935 102.69C112.935 102.242 112.991 101.85 113.075 101.85C113.159 101.85 113.215 102.214 113.215 102.69ZM115.203 102.69V103.53H114.419H113.635V102.69V101.85H114.419H115.203V102.69ZM115.931 102.69C115.931 103.362 115.875 103.53 115.707 103.53C115.539 103.53 115.483 103.334 115.483 102.69C115.483 102.018 115.539 101.85 115.707 101.85C115.875 101.85 115.931 102.018 115.931 102.69ZM117.612 102.69V103.53H116.911H116.211V102.69V101.85H116.911H117.612V102.69ZM120.888 102.69C120.888 103.362 120.832 103.53 120.664 103.53C120.496 103.53 120.44 103.334 120.44 102.69C120.44 102.018 120.496 101.85 120.664 101.85C120.86 101.85 120.888 102.018 120.888 102.69ZM118.48 102.914C118.48 103.642 118.424 103.838 118.256 103.838C118.088 103.838 118.032 103.642 118.032 102.914C118.032 102.186 118.088 101.99 118.256 101.99C118.424 101.99 118.48 102.186 118.48 102.914ZM120.328 102.914V103.838H119.544H118.76V102.914V101.99H119.544H120.328V102.914ZM122.736 102.774V103.558H122.036H121.336V102.774V101.99H122.036H122.736V102.774ZM5.48854 103.11C5.48854 103.67 5.43254 104.118 5.34853 104.118C5.26452 104.118 5.20851 103.698 5.20851 103.11C5.20851 102.55 5.26452 102.102 5.34853 102.102C5.43254 102.102 5.48854 102.55 5.48854 103.11ZM123.604 102.97C123.604 103.642 123.548 103.81 123.38 103.81C123.212 103.81 123.156 103.614 123.156 102.97C123.156 102.298 123.212 102.13 123.38 102.13C123.548 102.13 123.604 102.298 123.604 102.97ZM125.732 102.97V103.81H124.808H123.884V102.97V102.13H124.808H125.732V102.97ZM126.432 102.97C126.432 103.642 126.376 103.81 126.208 103.81C126.04 103.81 125.984 103.614 125.984 102.97C125.984 102.298 126.04 102.13 126.208 102.13C126.404 102.13 126.432 102.298 126.432 102.97ZM128.645 102.718C128.701 103.054 128.785 103.446 128.813 103.558C128.897 103.782 128.757 103.81 127.889 103.81H126.88V102.97V102.13H127.721H128.561L128.645 102.718ZM4.87248 104.062C4.84448 104.37 4.81647 104.118 4.81647 103.53C4.81647 102.942 4.84448 102.718 4.87248 102.998C4.90048 103.306 4.90048 103.782 4.87248 104.062ZM4.31242 104.202C4.28442 104.51 4.25642 104.286 4.25642 103.754C4.25642 103.194 4.28442 102.97 4.31242 103.222C4.34043 103.474 4.34043 103.922 4.31242 104.202ZM5.88058 103.586C5.85257 103.782 5.82457 103.67 5.82457 103.334C5.79657 103.026 5.85257 102.886 5.88058 102.998C5.90858 103.138 5.90858 103.39 5.88058 103.586ZM3.89238 104.426C3.86438 104.678 3.83638 104.483 3.83638 103.978C3.83638 103.474 3.86438 103.278 3.89238 103.502C3.92039 103.754 3.92039 104.174 3.89238 104.426ZM17.5017 103.306C17.5577 103.362 17.5297 104.762 17.3897 106.443L17.1937 109.467L15.1775 109.523L13.1333 109.579V109.215C13.1333 108.683 13.4133 104.818 13.4973 103.922L13.5813 103.166L15.4855 103.222C16.5496 103.166 17.4457 103.222 17.5017 103.306ZM8.84887 103.502C8.82087 103.642 8.73686 105.07 8.68085 106.695C8.59684 109.411 8.56884 109.663 8.34482 109.663C8.20481 109.663 7.98078 109.719 7.84077 109.775C7.61675 109.859 7.61675 109.663 7.70076 106.975C7.84077 103.25 7.81277 103.306 8.42883 103.306C8.82087 103.25 8.90488 103.306 8.84887 103.502ZM10.557 106.191C8.87687 109.551 8.96088 109.579 9.10089 105.715L9.21291 103.278H10.613H12.0132L10.557 106.191ZM21.5341 103.726C21.5341 104.398 21.2541 108.515 21.1701 109.047L21.0861 109.523H19.3219H17.5577V109.047C17.5857 108.683 17.9498 103.474 17.9778 103.278C18.0058 103.25 18.7898 103.25 19.7699 103.25H21.5341V103.726ZM25.5385 103.866C25.5105 104.23 25.1465 109.467 25.1185 109.635C25.0905 109.663 24.3064 109.691 23.3263 109.691H21.5621V109.299C21.5621 108.655 21.8701 104.118 21.9262 103.754C21.9822 103.446 22.0382 103.446 23.7463 103.446H25.5105V103.866H25.5385ZM29.5149 103.642C29.5149 103.782 29.4029 105.183 29.2909 106.751C29.1789 108.319 29.0669 109.607 29.0669 109.635C29.0669 109.663 28.2548 109.691 27.2747 109.691H25.4545L25.6505 106.555L25.8745 103.418H27.6947C29.3189 103.39 29.5149 103.418 29.5149 103.642ZM33.4913 103.502C33.4913 103.586 33.3793 104.903 33.2673 106.471C33.1553 108.039 33.0432 109.411 33.0432 109.495C33.0432 109.635 32.5952 109.691 31.2791 109.691C29.5149 109.691 29.5149 109.691 29.5709 109.355C29.6269 109.187 29.7109 107.787 29.8229 106.219L29.9909 103.418H31.7551C32.6792 103.39 33.4913 103.446 33.4913 103.502ZM37.2437 104.146C37.1316 105.294 36.8796 108.655 36.8796 109.131V109.523H35.1155H33.3233L33.4073 108.711C33.5193 107.563 33.7713 104.146 33.7713 103.726C33.7713 103.39 33.7993 103.39 35.5355 103.39H37.2997L37.2437 104.146ZM41.108 103.642C41.08 103.782 40.968 105.155 40.856 106.695L40.688 109.495H38.9238C37.6077 109.495 37.1877 109.439 37.1877 109.299C37.1877 109.215 37.2997 107.955 37.4117 106.499C37.5237 105.043 37.6357 103.754 37.6357 103.614C37.6357 103.39 37.8317 103.362 39.4279 103.362C41.024 103.39 41.164 103.418 41.108 103.642ZM7.42073 106.051C7.36472 107.451 7.28072 108.879 7.25271 109.243L7.16871 109.915H3.69636H0.224023V108.515V107.143L3.80838 105.351C5.76857 104.342 7.42073 103.558 7.44873 103.558C7.50474 103.558 7.44873 104.679 7.42073 106.051ZM44.5804 106.163C44.5804 107.591 44.5244 108.963 44.4964 109.215L44.4124 109.663H42.7322C41.08 109.663 41.052 109.663 41.052 109.327C41.052 109.159 41.164 107.843 41.2761 106.387C41.3881 104.93 41.5001 103.726 41.5001 103.642C41.5001 103.586 42.2001 103.53 43.0682 103.53H44.6364V106.163H44.5804ZM48.4168 105.435C48.4168 106.471 48.3608 107.843 48.3047 108.487L48.2207 109.663H46.6246H45.0004V107.703C45.0004 106.611 45.0564 105.239 45.0844 104.651L45.1964 103.558H46.7926H48.4168V105.435ZM51.9731 104.342C51.9731 104.79 51.9171 106.163 51.8611 107.395L51.7771 109.635H50.2369H48.6968V106.807C48.6968 105.238 48.7528 103.866 48.7808 103.754C48.8648 103.558 49.1448 103.53 50.405 103.53H51.9451V104.342H51.9731ZM55.4454 104.846C55.3894 105.547 55.3614 106.891 55.3614 107.843V109.523H53.7093H52.0571L52.1691 108.655C52.2251 108.179 52.2531 106.835 52.2531 105.659V103.53H53.9053H55.5575L55.4454 104.846ZM58.8058 106.527L58.7498 109.523H57.1816H55.6135L55.6975 107.563C55.7535 106.499 55.8095 105.154 55.8095 104.566V103.53H57.3496H58.8618L58.8058 106.527ZM62.3341 105.575C62.3341 106.695 62.2781 108.039 62.2221 108.571L62.1381 109.551H60.682H59.1978V108.095C59.1978 107.283 59.2538 105.939 59.3098 105.099L59.3938 103.586H60.878H62.3341V105.575ZM65.7505 104.51C65.7505 104.987 65.6945 106.303 65.6385 107.507L65.5544 109.663H64.0703H62.6141V107.115C62.6141 105.715 62.6702 104.371 62.6982 104.118L62.8102 103.67H64.2663H65.7505V104.51ZM68.9708 104.791C68.9148 105.379 68.8868 106.723 68.8868 107.787V109.691H67.3746H65.8625L65.9745 108.823C66.0305 108.347 66.0585 107.003 66.0585 105.827V103.698H67.5706H69.0828L68.9708 104.791ZM72.1351 106.667V109.663H70.7069H69.2788V106.667V103.67H70.7069H72.1351V106.667ZM75.5514 106.611V109.523H74.0673H72.5831V106.611V103.698H74.0673H75.5514V106.611ZM78.5477 106.611V109.523H77.2036H75.8595V106.611V103.698H77.2036H78.5477V106.611ZM81.9641 106.611V109.523H80.4519H78.9678V106.611V103.698H80.4519H81.936V106.611H81.9641ZM84.6523 106.751V109.663H83.3642H82.0761V106.751V103.838H83.3642H84.6523V106.751ZM87.7886 106.751V109.663H86.5005H85.2124V106.751V103.838H86.5005H87.7886V106.751ZM90.6169 106.751V109.663H89.3288H88.0407V106.751V103.838H89.3288H90.6169V106.751ZM93.7532 106.667V109.523H92.4651H91.1769V106.667V103.81H92.4651H93.7532V106.667ZM96.5815 106.667V109.523H95.2934H94.0052V106.667V103.81H95.2934H96.5815V106.667ZM99.2977 106.667V109.523H98.0936H96.8895V106.667V103.81H98.0936H99.2977V106.667ZM102.266 106.807V109.663H101.062H99.8578V106.807V103.95H101.062H102.266V106.807ZM105.122 106.807V109.663H103.834H102.546V106.807V103.95H103.834H105.122V106.807ZM107.671 106.807V109.663H106.522H105.374V106.807V103.95H106.522H107.671V106.807ZM110.527 106.807V109.663H109.323H108.119V106.807V103.95H109.323H110.527V106.807ZM112.935 106.751V109.523H111.787H110.639V106.751V103.978H111.787H112.935V106.751ZM115.623 106.751V109.523H114.559H113.495V106.751V103.978H114.559H115.623V106.751ZM117.92 106.751V109.523H116.911H115.903V106.751V103.978H116.911H117.92V106.751ZM2.60426 105.266C2.57625 105.519 2.54825 105.351 2.54825 104.874C2.54825 104.398 2.57625 104.202 2.60426 104.399C2.63226 104.651 2.63226 105.014 2.60426 105.266ZM120.748 106.891V109.663H119.6H118.452V106.891V104.118H119.6H120.748V106.891ZM123.156 106.891V109.663H122.092H121.028V106.891V104.118H122.092H123.156V106.891ZM126.152 106.891V109.663H124.864H123.576V106.891V104.118H124.864H126.152V106.891ZM128.841 104.146C128.841 104.174 129.065 105.407 129.345 106.863C129.625 108.347 129.849 109.551 129.849 109.579C129.849 109.607 129.121 109.635 128.225 109.635H126.6V106.863V104.09H127.749C128.337 104.118 128.841 104.118 128.841 104.146ZM2.18422 105.491C2.15621 105.715 2.12821 105.547 2.12821 105.099C2.12821 104.651 2.15621 104.482 2.18422 104.706C2.21222 104.93 2.21222 105.267 2.18422 105.491ZM1.17612 105.911C1.14811 106.135 1.12011 105.995 1.12011 105.603C1.12011 105.211 1.14811 105.043 1.17612 105.211C1.20412 105.407 1.20412 105.715 1.17612 105.911ZM0.756076 105.715C0.70007 105.827 0.672066 105.799 0.672066 105.631C0.644064 105.463 0.70007 105.379 0.756076 105.435C0.784078 105.491 0.784078 105.603 0.756076 105.715ZM1.73617 105.715C1.68017 105.827 1.65216 105.799 1.65216 105.631C1.62416 105.463 1.68017 105.379 1.73617 105.435C1.76417 105.491 1.79218 105.603 1.73617 105.715Z" fill="#737678"/>
<path d="M23.4256 8.82631C23.4256 8.99433 23.4816 9.02241 23.5096 8.9104C23.5656 8.79839 23.5376 8.68638 23.4816 8.63037C23.4536 8.60237 23.3976 8.6863 23.4256 8.82631Z" fill="#737678"/>
<path d="M20.1914 26.6656C20.1914 26.8616 20.2194 26.9457 20.2754 26.8337C20.3034 26.7497 20.3034 26.5816 20.2754 26.4695C20.2194 26.3855 20.1914 26.4696 20.1914 26.6656Z" fill="#737678"/>
<path d="M20.0312 27.5045C20.0312 27.7005 20.0593 27.7845 20.1153 27.6725C20.1433 27.5885 20.1433 27.4204 20.1153 27.3084C20.0593 27.2524 20.0312 27.3085 20.0312 27.5045Z" fill="#737678"/>
<path d="M19.8906 28.286C19.8906 28.51 19.9186 28.5941 19.9746 28.4541C20.0026 28.314 20.0026 28.118 19.9746 28.034C19.9186 27.95 19.8906 28.034 19.8906 28.286Z" fill="#737678"/>
<path d="M111.683 28.3147C111.683 28.4827 111.739 28.5106 111.767 28.3986C111.823 28.2866 111.795 28.1746 111.739 28.1186C111.711 28.0626 111.655 28.1467 111.683 28.3147Z" fill="#737678"/>
<path d="M111.832 28.8752C111.832 29.0432 111.888 29.0712 111.916 28.9592C111.972 28.8472 111.944 28.7352 111.888 28.6792C111.86 28.6231 111.804 28.7072 111.832 28.8752Z" fill="#737678"/>
<path d="M111.961 29.4348C111.961 29.6028 112.017 29.6308 112.045 29.5187C112.101 29.4067 112.073 29.2947 112.017 29.2387C111.989 29.2107 111.933 29.2948 111.961 29.4348Z" fill="#737678"/>
<path d="M112.238 30.4426C112.238 30.6106 112.294 30.6386 112.322 30.5266C112.378 30.4146 112.35 30.3025 112.294 30.2465C112.266 30.1905 112.238 30.2746 112.238 30.4426Z" fill="#737678"/>
<path d="M112.387 31.0041C112.387 31.1721 112.443 31.2001 112.471 31.0881C112.527 30.9761 112.499 30.8641 112.443 30.8081C112.415 30.7521 112.387 30.8361 112.387 31.0041Z" fill="#737678"/>
<path d="M112.523 31.5637C112.523 31.7317 112.579 31.7597 112.607 31.6477C112.663 31.5356 112.635 31.4236 112.579 31.3676C112.551 31.3396 112.523 31.4237 112.523 31.5637Z" fill="#737678"/>
<path d="M112.759 32.3468C112.815 32.6269 112.927 32.963 112.983 33.131C113.067 33.327 113.095 33.2709 113.039 32.9069C112.983 32.6269 112.871 32.2909 112.815 32.1229C112.703 31.9269 112.703 32.0108 112.759 32.3468Z" fill="#737678"/>
<path d="M113.129 33.6916C113.129 33.8596 113.185 33.8876 113.213 33.7756C113.269 33.6636 113.241 33.5516 113.185 33.4956C113.157 33.4676 113.101 33.5516 113.129 33.6916Z" fill="#737678"/>
<path d="M113.227 34.1137C113.227 34.3657 113.843 36.6059 113.899 36.5779C113.955 36.4939 113.395 34.1697 113.283 34.0857C113.255 34.0297 113.227 34.0577 113.227 34.1137Z" fill="#737678"/>
<path d="M19.1953 40.2168C19.1953 41.0009 19.2233 41.3089 19.2513 40.8889C19.2793 40.4688 19.2793 39.8247 19.2513 39.4607C19.2233 39.0967 19.1953 39.4608 19.1953 40.2168Z" fill="#737678"/>
<path d="M18.9453 44.3599C18.8892 45.8161 18.8612 47.0202 18.9172 47.0762C18.9452 47.1322 19.0293 45.9561 19.0853 44.4999C19.1413 43.0438 19.1693 41.8398 19.1133 41.7837C19.0853 41.7277 19.0013 42.9038 18.9453 44.3599Z" fill="#737678"/>
<path d="M18.5949 51.3063C18.4829 53.5465 18.4269 55.3946 18.4829 55.4226C18.5389 55.4786 18.6509 53.6865 18.7349 51.4463C18.8469 49.2061 18.9029 47.3578 18.8469 47.3298C18.7909 47.3018 18.6789 49.094 18.5949 51.3063Z" fill="#737678"/>
<path d="M9.94123 51.7532C9.94123 51.9212 9.99723 51.9491 10.0252 51.8371C10.0812 51.7251 10.0532 51.6131 9.99723 51.5571C9.96923 51.5011 9.91322 51.5851 9.94123 51.7532Z" fill="#737678"/>
<path d="M9.78516 52.5103C9.78516 52.7064 9.81316 52.7904 9.86917 52.6784C9.89717 52.5944 9.89717 52.4264 9.86917 52.3144C9.81316 52.2584 9.78516 52.3143 9.78516 52.5103Z" fill="#737678"/>
<path d="M9.62109 53.3795C9.62109 53.5755 9.6491 53.6595 9.7051 53.5475C9.73311 53.4635 9.73311 53.2954 9.7051 53.1834C9.6491 53.0994 9.62109 53.1835 9.62109 53.3795Z" fill="#737678"/>
<path d="M9.50373 54.1632C9.50373 54.3312 9.55973 54.3593 9.58773 54.2473C9.64374 54.1353 9.61574 54.0233 9.55973 53.9673C9.53173 53.9393 9.47572 54.0232 9.50373 54.1632Z" fill="#737678"/>
<path d="M9.37891 54.9469C9.37891 55.1429 9.40691 55.2269 9.46292 55.1149C9.49092 55.0309 9.49092 54.8628 9.46292 54.7508C9.40691 54.6668 9.37891 54.7509 9.37891 54.9469Z" fill="#737678"/>
<path d="M9.19531 55.7287C9.19531 55.8967 9.25132 55.9248 9.27932 55.8127C9.33533 55.7007 9.30732 55.5887 9.25132 55.5327C9.22331 55.5047 9.19531 55.5886 9.19531 55.7287Z" fill="#737678"/>
<path d="M9.03906 56.5989C9.03906 56.7669 9.09507 56.7948 9.12307 56.6828C9.17908 56.5708 9.15107 56.4588 9.09507 56.4028C9.06706 56.3468 9.03906 56.4308 9.03906 56.5989Z" fill="#737678"/>
<path d="M8.93359 57.3552C8.93359 57.5512 8.9616 57.6351 9.0176 57.5231C9.04561 57.4391 9.04561 57.2711 9.0176 57.1591C8.9616 57.0751 8.93359 57.1592 8.93359 57.3552Z" fill="#737678"/>
<path d="M8.34748 64.5499C8.34748 64.718 8.40348 64.746 8.43148 64.634C8.48749 64.522 8.45949 64.41 8.40348 64.354C8.37548 64.298 8.31947 64.3819 8.34748 64.5499Z" fill="#737678"/>
<path d="M8.33984 65.1676C8.33984 65.3636 8.36785 65.4476 8.42385 65.3356C8.45186 65.2516 8.45186 65.0835 8.42385 64.9715C8.36785 64.9155 8.33984 64.9716 8.33984 65.1676Z" fill="#737678"/>
<path d="M8.23438 67.2964C8.23438 67.9685 8.26238 68.2484 8.29038 67.8844C8.31838 67.5484 8.31838 67.0164 8.29038 66.6803C8.26238 66.3723 8.23438 66.6244 8.23438 67.2964Z" fill="#737678"/>
<path d="M35.2058 75.0501C34.9257 75.1621 34.8137 75.2461 34.9257 75.2461C35.0377 75.2461 35.3738 75.1621 35.6258 75.0501C35.9058 74.938 36.0178 74.8541 35.9058 74.8541C35.7938 74.8541 35.4578 74.938 35.2058 75.0501Z" fill="#737678"/>
<path d="M33.7878 75.4719C33.5078 75.5839 33.3958 75.668 33.5078 75.668C33.6198 75.668 33.9558 75.5839 34.2078 75.4719C34.4599 75.3599 34.5999 75.276 34.4879 75.276C34.3759 75.276 34.0678 75.3879 33.7878 75.4719Z" fill="#737678"/>
<path d="M32.3659 75.8928C32.0859 76.0048 31.9739 76.0889 32.0859 76.0889C32.1979 76.0889 32.5339 76.0048 32.786 75.8928C33.066 75.7808 33.178 75.6969 33.066 75.6969C32.954 75.6969 32.6459 75.8088 32.3659 75.8928Z" fill="#737678"/>
<path d="M30.9206 76.3381C30.6406 76.4502 30.5286 76.5342 30.6406 76.5342C30.7526 76.5342 31.0886 76.4502 31.3406 76.3381C31.6207 76.2261 31.7327 76.1421 31.6207 76.1421C31.5087 76.1421 31.2006 76.2261 30.9206 76.3381Z" fill="#737678"/>
<path d="M29.73 76.6764C29.534 76.7604 29.534 76.8164 29.646 76.8164C29.758 76.8164 29.982 76.7604 30.15 76.6764C30.3461 76.5924 30.3461 76.5364 30.2341 76.5364C30.122 76.5644 29.898 76.6204 29.73 76.6764Z" fill="#737678"/>
<path d="M28.3277 77.1227C28.1316 77.2067 28.1316 77.2627 28.2437 77.2627C28.3557 77.2627 28.5797 77.2067 28.7477 77.1227C28.9437 77.0387 28.9437 76.9827 28.8317 76.9827C28.6917 76.9827 28.4677 77.0387 28.3277 77.1227Z" fill="#737678"/>
<path d="M26.9058 77.5436C26.7098 77.6276 26.7098 77.6836 26.8218 77.6836C26.9338 77.6836 27.1578 77.6276 27.3258 77.5436C27.5218 77.4596 27.5218 77.4036 27.4098 77.4036C27.2978 77.4036 27.0458 77.4596 26.9058 77.5436Z" fill="#737678"/>
<path d="M25.4644 77.9645C25.2684 78.0485 25.2684 78.1045 25.3804 78.1045C25.4924 78.1045 25.7164 78.0485 25.8844 77.9645C26.0804 77.8805 26.0804 77.8245 25.9684 77.8245C25.8564 77.8245 25.6324 77.8805 25.4644 77.9645Z" fill="#737678"/>
</svg>
