<svg width="144" height="110" viewBox="0 0 144 110" fill="none" xmlns="http://www.w3.org/2000/svg">
<path d="M71.7057 4.0139C70.3499 4.13427 67.2042 4.61582 65.7128 4.97694C60.8859 6.09039 56.7098 8.10664 53.3472 10.9956C50.283 13.6137 47.2729 17.887 45.6188 22.0097C43.6121 27.0353 42.663 31.79 42.5545 37.8688L42.4731 40.8481L41.4969 41.3596L40.4936 41.9014L37.131 40.9986L33.7684 40.1258L30.1076 42.1722L26.4467 44.2185L22.4605 71.2122C20.2911 86.0782 18.5013 98.2359 18.5013 98.2961C18.5013 98.3563 16.9014 98.3863 14.976 98.3863H11.4779L11.4237 98.6571C11.3965 98.8377 11.3152 99.2289 11.2881 99.5599C11.2338 99.891 11.1525 100.222 11.0711 100.282C10.9898 100.342 8.54921 101.035 5.62052 101.787C2.69184 102.539 0.197032 103.201 0.0614447 103.292C-0.10126 103.352 0.0614449 103.382 0.522442 103.382C0.902086 103.382 15.2743 103.984 32.4397 104.706L63.679 106L68.3161 105.819C80.546 105.278 143.35 102.359 143.811 102.298C144.299 102.238 144.082 102.148 140.204 100.673L136.055 99.1085V98.4767V97.8447H132.232C128.707 97.8447 128.408 97.8446 128.354 97.6039C128.327 97.4835 126.293 84.9647 123.88 69.7977C121.439 54.6308 119.405 42.1722 119.378 42.112C119.324 42.0518 117.317 41.1189 114.904 40.0054L110.511 37.9893L106.497 39.3134C103.948 40.156 102.376 40.6074 102.186 40.5472L101.915 40.4568V37.6582C101.915 32.6628 101.372 28.8107 100.179 24.7782C97.0606 14.3961 89.2236 7.26397 78.2139 4.76623C76.0174 4.28474 72.926 3.92362 71.7057 4.0139ZM76.1801 5.00706C83.3934 6.39135 89.1423 9.37058 93.481 14.035C95.4335 16.1115 96.8436 18.1879 98.0097 20.6857C98.7147 22.2204 99.8536 25.5006 99.7181 25.6511C99.6909 25.6811 99.2571 25.3802 98.769 24.9889C93.5895 20.8662 85.9695 18.1578 77.2919 17.3453C75.4208 17.1647 69.2923 17.1647 67.2314 17.3453C57.8216 18.1277 50.0118 20.9263 45.4018 25.1093C45.0222 25.4403 44.7239 25.6811 44.7239 25.6511C44.7239 25.4404 45.917 22.5214 46.5679 21.1371C50.6355 12.41 56.8454 7.41444 66.1195 5.3681C69.8346 4.49539 73.0074 4.4052 76.1801 5.00706ZM77.3462 17.8268C86.2678 18.6092 93.9149 21.3778 99.1486 25.7714C99.6096 26.1626 100.043 26.5839 100.098 26.7043C100.26 27.0654 100.884 30.5261 101.101 32.3618C101.21 33.2345 101.318 35.4012 101.345 37.1466L101.426 40.3365L100.64 40.0356L99.8536 39.7346L99.8265 37.8388C99.8265 36.7856 99.7452 35.8526 99.6909 35.7924C99.6367 35.7322 99.6638 35.4313 99.7723 35.0401C100.26 33.3548 98.9588 31.4289 97.5758 31.8803C96.6809 32.1511 96.3284 32.8733 96.5182 34.1071C96.6538 34.9798 96.5724 38.6814 96.4369 38.6814C96.3555 38.6814 96.3284 37.8689 96.3284 36.5748C96.3284 34.5887 96.3284 34.4383 96.0843 34.3781C95.8674 34.2878 95.8674 34.2576 96.003 33.8363C96.2741 33.084 96.3284 32.5424 96.1657 31.9405C95.9759 31.0979 95.8945 31.158 95.8945 32.1812C95.8945 32.8433 95.8131 33.2645 95.6504 33.6557L95.4064 34.1975L95.6776 34.348C95.9487 34.4683 95.9487 34.5284 95.9487 36.3641C95.9487 37.3873 95.9487 38.23 95.9216 38.23C95.8945 38.23 95.325 37.9892 94.62 37.7183L93.3455 37.2068L93.3183 35.341L93.2912 33.4452L93.5895 33.5354L93.8607 33.6258L93.5895 32.8734C93.4268 32.3919 93.3183 31.8804 93.3183 31.3688C93.3183 30.7368 93.3726 30.5863 93.6166 30.2854L93.9149 29.9543L93.5353 30.0445C93.1014 30.1348 92.8845 30.3154 92.6133 30.7969L92.4235 31.1581L92.3421 30.5562C92.2608 29.834 91.9896 29.2622 91.5286 28.7205C91.0405 28.1487 90.5253 27.938 89.766 27.938C89.1965 27.938 89.088 27.9983 88.7355 28.3594C88.2745 28.871 88.0576 29.6835 88.1389 30.5562C88.1932 31.0377 88.166 31.1581 88.0576 31.0377C87.9762 30.9474 87.8677 30.8873 87.8135 30.8873C87.7593 30.8873 87.7322 31.8201 87.7322 32.9335C87.7322 34.047 87.705 34.98 87.6508 34.98C87.5694 34.98 83.6645 33.686 83.5832 33.6258C83.5561 33.6258 83.4205 32.0006 83.2307 30.0747L82.9052 26.5237L75.5293 23.3639C71.4617 21.6185 68.0991 20.2041 68.072 20.2041C67.9635 20.2041 56.2488 27.0352 56.0861 27.1857C56.0047 27.276 55.8963 28.239 55.8149 30.1048C55.7336 31.6095 55.6522 33.1743 55.6251 33.5354L55.5709 34.1674L54.7031 34.6489C54.215 34.9197 53.8082 35.1304 53.7811 35.1304C53.754 35.1304 53.7269 34.4683 53.7269 33.6557C53.7269 32.2714 53.7269 32.1812 53.5099 32.1812C53.3201 32.1812 53.2659 32.0608 53.2116 31.4289C53.0489 29.9844 52.5879 29.3826 51.6931 29.5029C50.527 29.6534 49.7948 30.6465 49.7135 32.2414C49.6864 32.9637 49.6321 33.1744 49.4965 33.1744C49.361 33.1744 49.3338 33.0539 49.4152 32.4821C49.5237 31.4891 49.2796 30.9173 48.6288 30.5863C47.7068 30.1349 46.9475 30.6163 46.6221 31.8501C46.4594 32.5122 46.4594 33.4451 46.6492 33.9868C46.6763 34.0771 46.6492 34.1975 46.5407 34.2276C46.4323 34.2878 46.378 34.1372 46.378 33.6557C46.378 33.1141 46.3238 32.9637 46.0526 32.6928C45.4018 32.0609 44.29 32.3918 43.9375 33.3548C43.7477 33.8363 43.7205 34.7693 43.8832 35.2508C43.9646 35.4915 43.9646 35.6419 43.829 35.7924C43.6934 35.9729 43.6663 36.5448 43.6663 38.1096V40.186L43.368 40.3365C43.0968 40.487 43.0697 40.4568 43.0155 40.0054C42.907 39.4036 43.0426 36.0934 43.2595 33.9267C43.4494 31.9706 43.8832 29.5632 44.29 27.9081C44.5341 26.8849 44.6154 26.7645 45.2391 26.1025C46.1069 25.1696 48.2491 23.6047 49.8491 22.7319C54.4048 20.174 60.1266 18.5791 66.6619 17.9472C68.9126 17.6763 75.2852 17.6463 77.3462 17.8268ZM67.5025 61.1911C67.2856 81.3234 67.0958 97.8446 67.0415 97.9048C66.9873 97.965 61.9163 98.0252 55.7607 98.0553L44.5341 98.1155V90.2913C44.5069 70.851 43.5036 59.867 41.6325 58.2118C39.2462 56.1354 36.0192 68.6843 32.4397 94.1431C32.1956 95.9788 31.9516 97.6039 31.9244 97.7845L31.8702 98.0553H25.4434C21.9181 98.0553 19.0165 98.0253 19.0165 97.9952C19.0165 97.9651 20.7792 86.018 22.8943 71.4228C25.0095 56.8275 26.7721 44.8504 26.7721 44.7902C26.7721 44.6699 33.0363 41.1791 33.1176 41.2694C33.1447 41.2995 33.0634 42.5032 32.9549 43.9477C32.8193 45.3621 32.738 46.5657 32.738 46.5958C32.7651 46.656 55.7878 34.4382 55.8963 34.2877C55.9505 34.2275 56.059 32.6928 56.1403 30.827C56.2217 28.9612 56.3301 27.4265 56.3844 27.3663C56.4386 27.3362 59.0148 25.8015 62.1604 23.9959L67.8551 20.7156L67.8822 22.6417C67.8822 23.695 67.7195 41.0587 67.5025 61.1911ZM75.3395 23.7551C79.0546 25.3199 82.1188 26.6441 82.1731 26.7043C82.2273 26.7645 82.4171 28.3594 82.5798 30.2553C82.8239 32.9035 82.9324 33.7159 83.0679 33.8062C83.312 33.9567 92.0709 37.2669 92.2336 37.2669C92.2879 37.2669 92.3421 36.1837 92.3421 34.6489C92.3421 33.2345 92.3964 32.1812 92.4235 32.3618C92.4777 32.5424 92.4777 33.7762 92.4506 35.0702C92.3964 36.8457 92.4235 37.4475 92.5319 37.4475C92.6133 37.4475 96.8165 39.0425 101.887 40.9685C106.958 42.8945 111.135 44.4292 111.189 44.3991C111.216 44.369 111.162 43.0448 111.026 41.48C110.918 39.885 110.809 38.5911 110.809 38.5911C110.836 38.531 118.917 42.1722 119.026 42.2624C119.188 42.443 128.029 97.5137 127.893 97.5739C127.73 97.6642 111.433 97.8146 111.324 97.6942C111.27 97.6641 110.918 95.7683 110.538 93.5113C108.233 80.1198 105.792 68.9251 103.921 63.2375C103.27 61.2513 102.186 58.8138 101.671 58.1216C100.857 57.0684 100.071 56.8877 99.4469 57.61C97.8741 59.4457 96.925 65.5246 96.3826 77.5318C96.3013 79.2772 96.247 84.2726 96.2199 89.238V97.9349L91.7184 98.0253C89.2507 98.0855 82.7968 98.1155 77.4004 98.1155H67.611L67.8008 79.1266C67.9093 68.6843 68.072 52.2835 68.1805 42.6837C68.2889 33.1141 68.3703 24.2969 68.3703 23.0931C68.3703 21.5283 68.3974 20.9565 68.5059 20.9565C68.5601 20.8963 71.6515 22.1902 75.3395 23.7551ZM90.6066 28.6303C91.1761 28.9613 91.5828 29.5631 91.7727 30.3455C91.9082 30.9473 91.854 32.2113 91.6913 32.6326C91.6371 32.7831 91.6913 32.8733 91.854 32.9335C92.0981 33.0238 92.0981 33.1142 92.0981 34.9498C92.0981 36.3943 92.0709 36.8757 91.9625 36.8456C91.8811 36.8456 91.0405 36.5448 90.0642 36.1837L88.3287 35.5216L88.3016 33.8062C88.2745 32.121 88.2745 32.0909 88.5186 32.1511C88.7355 32.2113 88.7355 32.1812 88.6541 31.6997C88.5186 30.827 88.5728 29.6533 88.7897 29.1418C89.1151 28.3593 89.7931 28.1789 90.6066 28.6303ZM52.4524 30.2553C52.6151 30.5261 52.6693 30.8572 52.6422 31.79C52.6422 32.9035 52.6422 32.9937 52.832 32.9335C53.0489 32.8433 53.0489 32.9335 53.0489 34.1071V35.3711L51.6931 36.0632C50.9609 36.4243 50.2558 36.7854 50.1745 36.8155C50.066 36.8757 50.0118 36.5749 50.0118 35.4012C50.0118 34.348 50.066 33.8965 50.1474 33.8664C50.2287 33.8364 50.283 33.4151 50.3101 32.5123C50.3101 31.0678 50.4185 30.7668 51.1778 30.195C51.7202 29.8038 52.1812 29.8039 52.4524 30.2553ZM48.7373 31.5492C49.1169 31.8201 49.144 33.1142 48.7644 33.8966C48.6017 34.2276 48.6017 34.2577 48.8728 34.1975C49.0898 34.1373 49.1169 34.1975 49.1169 35.7022V37.2669L48.1407 37.7786C47.5983 38.0494 47.1102 38.2902 47.1102 38.2902C47.0831 38.2902 47.056 37.5077 47.056 36.5748C47.056 35.2206 47.0831 34.8294 47.2187 34.709C47.3814 34.5585 47.3814 34.4984 47.2187 34.1674C46.839 33.385 47.056 32.0007 47.5983 31.6396C47.8153 31.4289 48.5474 31.3987 48.7373 31.5492ZM98.5791 32.3015C99.2028 32.6627 99.5554 34.077 99.2571 35.0099C99.1757 35.2808 99.0672 35.6119 99.013 35.7323C98.9588 35.8828 99.013 35.9729 99.2299 36.0933C99.5282 36.2438 99.5282 36.2438 99.5282 37.929C99.5282 38.8318 99.5011 39.6143 99.4469 39.6143C99.3927 39.6143 98.8503 39.4036 98.2537 39.1629L97.1419 38.7416L97.1148 37.0564C97.0877 35.4313 97.0877 35.3711 97.3317 35.4613L97.5758 35.5216L97.3317 34.7994C96.925 33.5054 97.0877 32.5724 97.7385 32.3015C98.091 32.0608 98.2266 32.0608 98.5791 32.3015ZM45.5916 33.1744C45.9713 33.3549 45.9984 33.415 45.9984 33.9567C45.9984 34.2877 45.917 34.7391 45.8357 35.0099C45.5916 35.6118 45.6188 35.672 45.8899 35.6118C46.1069 35.5516 46.134 35.6119 46.134 37.2068V38.862L45.4289 39.223C45.0222 39.4035 44.6425 39.5842 44.5612 39.6444C44.4527 39.7046 44.3985 39.3134 44.3985 37.9592C44.3985 36.5448 44.4256 36.1836 44.5612 36.1234C44.7239 36.0633 44.7239 36.0332 44.5612 35.8526C44.3171 35.5818 44.1273 34.679 44.2086 34.1674C44.29 33.716 44.8323 32.9938 45.0764 32.9938C45.1306 32.9938 45.3476 33.0841 45.5916 33.1744ZM110.728 41.179C110.863 42.6536 110.945 43.8875 110.918 43.9176C110.89 43.9477 109.155 43.3158 107.067 42.5033C104.979 41.6908 103.27 41.0287 103.298 40.9986C103.325 40.9384 110.267 38.561 110.429 38.5309C110.457 38.5309 110.592 39.7346 110.728 41.179ZM36.7785 41.6005C38.3513 42.0218 39.6529 42.3828 39.68 42.4129C39.7071 42.443 38.3242 43.2255 36.5886 44.1584C34.8531 45.0913 33.4159 45.8436 33.3888 45.7834C33.3617 45.7533 33.4159 44.7302 33.5244 43.5565C33.7142 41.3597 33.7956 40.818 33.8769 40.818C33.8769 40.8481 35.2057 41.1792 36.7785 41.6005ZM101.182 58.3322C102.104 59.4757 103.243 62.3948 104.382 66.638C106.064 72.8372 108.667 85.4162 110.131 94.6849C110.375 96.0993 110.565 97.3933 110.592 97.5438C110.646 97.8146 110.619 97.8447 109.86 97.8447H109.074L108.992 96.8515C108.179 86.4694 106.199 76.1475 103.65 68.9853C102.376 65.4042 100.721 61.9735 99.4469 60.198L98.8774 59.4156L99.1215 58.874C99.4469 58.1216 99.8808 57.7303 100.342 57.7303C100.586 57.7002 100.776 57.7905 101.182 58.3322ZM41.6325 59.1448C41.7952 59.3855 41.985 59.7767 42.0935 59.9873C42.2562 60.4086 42.2562 60.4388 41.741 61.2513C41.0901 62.3046 40.0054 64.712 39.3546 66.5477C37.2666 72.2053 35.6395 79.7286 34.6091 88.3653C34.1752 92.0066 33.7413 96.6108 33.7413 97.4534C33.7413 98.2358 33.66 98.3262 32.982 98.3262H32.3583L32.521 97.1225C35.4226 76.0572 38.514 61.5221 40.5749 59.1146C41.0359 58.6031 41.28 58.6031 41.6325 59.1448ZM99.6096 61.131C103.216 66.9991 106.308 77.592 107.853 89.4487C108.124 91.5552 108.667 96.7914 108.667 97.3933C108.667 97.8146 108.667 97.8146 108.152 97.8146H107.636L107.555 96.6109C107.528 95.9789 107.474 94.5646 107.419 93.5113C107.257 89.0876 106.877 84.694 106.47 82.9787C105.955 80.7518 105.277 80.3907 104.816 82.0759C104.301 83.8815 104.057 87.2218 103.921 93.9025L103.84 97.8447H103.569C103.243 97.8447 103.216 97.5739 103.108 94.1132C102.945 89.0575 102.484 84.1523 101.996 82.3768C101.752 81.5041 101.318 80.9021 101.02 81.0526C100.559 81.2331 100.179 83.0087 99.935 85.8976C99.7723 87.9139 99.5825 93.0598 99.5825 95.7081C99.5825 97.7544 99.5825 97.8748 99.3655 97.8748C99.0944 97.8748 99.0944 97.9349 98.769 93.6917C98.6334 92.0065 98.3893 89.0875 98.2266 87.2518C97.7927 82.3767 97.5758 81.3836 96.9521 81.2031C96.6809 81.1128 96.6538 81.1129 96.708 80.2703C96.7351 79.8189 96.7894 78.5851 96.8436 77.5619C97.0334 72.3558 97.5216 66.4273 98.0097 63.4782C98.2537 61.9735 98.7147 60.0777 98.7961 60.0777C98.9045 59.9874 99.2299 60.499 99.6096 61.131ZM42.7172 62.455C43.2053 65.2537 43.6934 71.4228 43.829 76.5988C43.8561 77.923 43.9104 79.5179 43.9646 80.21L44.0188 81.4439L43.6663 81.5944C43.1782 81.805 42.9884 82.3767 42.8528 84.0619C42.446 88.9069 41.8223 97.0622 41.8223 97.4835C41.8223 97.8146 41.7681 97.9952 41.6596 97.9952C41.524 97.9952 41.4969 97.2428 41.4155 93.9927C41.3342 89.4486 41.1715 86.349 40.9274 84.3628C40.7376 82.7378 40.602 82.1662 40.2766 81.7749C40.1139 81.5342 40.0326 81.5041 39.8427 81.6245C39.1648 82.0759 38.8123 84.8143 38.4869 91.6455C38.1615 98.4465 38.2157 98.0253 37.9445 98.0253C37.7547 98.0253 37.7276 97.9651 37.7818 97.7244C37.9445 97.0322 37.9988 91.796 37.8632 88.9973C37.7005 84.8445 37.4835 83.0388 37.0768 82.1661C36.9412 81.8953 36.8327 81.8049 36.5886 81.835C36.3446 81.8651 36.2361 81.9855 36.1005 82.467C35.6667 83.7911 35.3141 87.4625 35.0701 93.2705C34.9887 94.9256 34.9074 96.7313 34.8802 97.2428C34.7989 98.1757 34.7989 98.1758 34.4735 98.1758C34.1481 98.1758 34.1481 98.1456 34.1481 97.634C34.1481 96.0391 34.9345 88.1547 35.4768 84.4231C36.7513 75.666 38.8936 67.6912 41.3071 62.8763C42.0392 61.4017 42.2833 61.0106 42.4189 61.1008C42.446 61.0707 42.6087 61.7027 42.7172 62.455ZM106.064 82.8582C106.443 84.6939 106.877 89.7194 107.013 93.6917C107.04 94.8654 107.094 96.2498 107.148 96.7914L107.202 97.7845H105.792H104.382L104.464 94.2034C104.626 86.981 104.897 83.099 105.304 81.9254L105.494 81.3836L105.711 81.6545C105.792 81.8651 105.955 82.4068 106.064 82.8582ZM97.2233 82.1962C97.3317 82.6175 98.1181 90.8329 98.4164 94.3539C98.5249 95.5877 98.6334 96.9418 98.6605 97.3331L98.7147 98.0854H97.7385H96.7894L96.708 94.1733C96.6538 92.0066 96.6538 88.3353 96.708 85.988C96.7894 82.2564 96.8165 81.7449 96.9792 81.7749C97.0605 81.7749 97.169 81.9555 97.2233 82.1962ZM101.643 82.5273C102.159 84.3931 102.62 90.1709 102.809 96.8817L102.837 97.9349H101.481H100.125V96.2798C100.125 91.6454 100.45 84.9948 100.776 83.1892C101.02 81.5341 101.291 81.3235 101.643 82.5273ZM40.6563 83.3397C40.9274 85.0249 41.1444 88.8468 41.2257 93.3307L41.3071 98.0553H40.1953H39.0835V97.002C39.0835 92.0366 39.7343 83.9115 40.1953 82.6476C40.358 82.0758 40.4664 82.2263 40.6563 83.3397ZM44.1544 83.4301C44.2086 84.0319 44.2358 87.1315 44.2358 90.3515C44.2358 93.5715 44.2086 96.6711 44.1544 97.2428L44.0731 98.2961H43.2324H42.3918V97.8146C42.3918 96.2497 43.2324 85.8073 43.5036 83.9114C43.6663 82.7679 43.829 82.3467 44.0188 82.3467C44.0731 82.3768 44.1273 82.8583 44.1544 83.4301ZM36.9412 83.1892C37.2395 84.5434 37.6462 92.4278 37.6462 97.3029V98.2961H36.5344H35.4226V96.8216C35.4226 93.5715 35.8565 86.319 36.1819 84.1523C36.4802 82.3768 36.67 82.1059 36.9412 83.1892ZM117.941 98.9581V99.7405H118.727C119.161 99.7405 123.12 99.6502 127.568 99.5599L135.622 99.3795L138.577 100.523C140.204 101.155 141.587 101.757 141.642 101.787C141.723 101.847 141.452 101.907 141.072 101.907C140.693 101.907 123.392 102.69 102.62 103.653C81.8477 104.616 64.8179 105.368 64.8179 105.338C64.7908 105.308 66.1195 101.366 66.3094 100.974C66.4178 100.764 67.3127 100.764 82.8239 100.764H99.2299V99.53V98.2961L102.457 98.266C104.22 98.266 108.45 98.2358 111.84 98.2057L117.995 98.1758V98.9581H117.941ZM135.676 98.5067V98.8076L132.747 98.898C131.147 98.9281 128.002 98.9882 125.751 99.0484C123.527 99.0785 121.005 99.1387 120.165 99.1989L118.619 99.2891V98.8377V98.3863L121.548 98.3562C123.148 98.3562 126.971 98.3262 130.062 98.2961L135.649 98.266V98.5067H135.676ZM98.7147 99.4095V100.373H82.4985H66.2551V99.53V98.6873H68.3161C69.4279 98.6873 75.6649 98.6271 82.1188 98.597C88.5728 98.5368 94.9725 98.5068 96.3013 98.4767L98.6876 98.4466V99.4095H98.7147ZM66.0382 99.5599V100.403H57.3606C52.5879 100.403 46.8119 100.372 44.5069 100.312L40.3037 100.222V99.53V98.8377L45.6188 98.8076C48.5203 98.8076 54.3235 98.7776 58.4724 98.7475L66.0382 98.7174V99.5599ZM25.823 99.4697V100.102H18.7454H11.6948V99.7405C11.6948 99.56 11.7219 99.259 11.7762 99.1085L11.8575 98.8377H18.8538H25.8501V99.4697H25.823ZM39.8427 99.9211V100.734L42.0664 100.824C43.2867 100.854 49.1169 100.944 55.0014 101.035C60.913 101.125 65.7399 101.185 65.767 101.215C65.7941 101.245 65.4687 102.208 65.0348 103.412L64.2756 105.549H63.679C62.296 105.549 4.40024 103.201 3.99347 103.141C3.61383 103.051 4.10194 102.9 7.46451 102.058C9.60679 101.516 11.4237 101.004 11.4237 100.944C11.4508 100.854 14.1896 100.824 18.881 100.824H26.284V99.9814V99.1387H33.0634H39.8427V99.9211Z" fill="white"/>
<path d="M94.7807 29.9543C94.8078 29.9543 94.9434 30.0747 95.0518 30.165C95.2688 30.3456 95.2688 30.3455 95.1332 30.1349C95.0518 30.0145 94.9162 29.9242 94.862 29.9242C94.8078 29.9242 94.7535 29.9242 94.7807 29.9543Z" fill="white"/>
</svg>
