<svg width="120" height="120" viewBox="0 0 120 120" fill="none" xmlns="http://www.w3.org/2000/svg">
<path d="M59.253 7.35674C59.0927 8.31894 58.9781 8.84599 58.8407 8.98344C58.7261 9.07508 58.4741 9.30413 58.2679 9.51031C57.6494 10.0831 57.2828 10.9994 57.237 12.099C57.2141 12.7176 57.1454 13.0612 57.0537 13.13C56.9392 13.2216 56.8934 14.2983 56.8476 18.1242L56.7788 23.0497L56.3665 23.1414C56.1374 23.2101 55.6792 23.3247 55.3355 23.4164L54.717 23.5996V24.9283C54.717 26.1883 54.7399 26.28 55.0148 26.532L55.3126 26.8069V31.366V35.9248L54.8773 35.9935C53.6861 36.1997 53.7777 36.0852 53.7777 37.1161C53.7777 37.7805 53.7319 38.0782 53.5944 38.1699C53.457 38.2844 53.4111 38.5366 53.4111 39.1552C53.4111 39.9799 53.4341 39.9798 53.8006 40.163C54.0068 40.2547 54.3504 40.5983 54.5566 40.919L54.9232 41.4918V45.1573C54.9232 60.7815 53.5715 77.1847 51.3722 88.25C50.8682 90.7013 49.9747 94.3668 49.6998 95.0541C49.5395 95.4436 49.5165 95.4435 48.6689 95.5351C47.7296 95.6038 46.7903 95.9016 46.103 96.3598L45.6678 96.6578L44.7972 96.3598C43.7663 96.0161 42.6666 96.0163 41.9564 96.3828C41.4753 96.6119 40.811 97.2534 40.811 97.4596C40.811 97.5283 41.1546 97.6427 41.6128 97.7343C43.2623 98.0321 45.0263 99.2463 45.6219 100.483C45.7594 100.781 45.9656 101.446 46.0801 101.95C46.3092 103.049 46.1947 104.195 45.7136 105.707C44.8201 108.502 41.7961 110.839 37.2371 112.259L36 112.648V113.313V114H59.5967H83.1934V113.473C83.1934 112.969 83.1705 112.946 82.8268 112.878C82.1624 112.74 80.5817 112.167 79.6653 111.732C78.2449 111.045 76.6871 109.968 75.4729 108.8C74.5107 107.86 74.2816 107.585 73.8463 106.646C72.9758 104.836 72.6321 103.004 72.907 101.812C73.159 100.713 74.0754 99.5902 75.2209 98.9487C75.8853 98.5822 77.6035 97.9865 78.0846 97.9865C78.474 97.9865 78.4282 97.8031 77.9242 97.2761C77.1682 96.5201 76.0914 96.3827 74.3503 96.8179C72.4947 97.299 70.9827 98.8341 70.2266 101.033C69.9976 101.675 69.9517 102.041 69.9517 103.278C69.9746 104.653 69.9976 104.836 70.387 106.005C70.9827 107.746 71.6241 108.777 72.8841 110.06C74.0754 111.251 74.946 111.87 76.5496 112.603C77.5577 113.061 77.6493 113.129 77.6493 113.427V113.748H75.9082H74.1671L72.2198 111.114C71.143 109.67 69.9517 108.021 69.5623 107.448C67.6379 104.561 66.0342 104.264 64.4993 106.532L63.9953 107.265L63.9036 106.692C63.8578 106.394 63.812 105.157 63.812 103.966C63.8349 101.721 64.0411 99.9796 64.5222 98.0323L64.7284 97.2305L65.6677 96.8638C67.111 96.2911 68.119 96.0621 69.6768 95.9705C70.4557 95.9247 70.8452 95.8788 70.5245 95.8788C69.9976 95.8558 69.9517 95.8329 69.6081 95.306C69.127 94.55 68.3939 92.6256 67.8899 90.8387C65.7135 82.9349 64.4077 66.8984 64.3618 48.1585L64.3389 41.1253L64.7284 40.713C64.9575 40.4839 65.2324 40.2547 65.3469 40.2089C65.5302 40.1631 65.5531 40.0256 65.5531 39.4758C65.5531 38.9947 65.4844 38.7428 65.3699 38.6511C65.2324 38.5366 65.1866 38.2387 65.1866 37.4139V36.3143L64.7513 36.2456C64.4993 36.1998 64.1557 36.131 63.9953 36.108L63.6746 36.0394V31.5492V27.036L63.9724 26.761C64.2473 26.509 64.2702 26.4175 64.2702 25.0887C64.2702 23.7371 64.2473 23.6913 64.0182 23.6455C63.8578 23.5996 63.4226 23.5079 63.0331 23.4392L62.3229 23.3018L62.2771 18.3304L62.2542 13.3591L61.9334 13.1758C61.6356 12.9925 61.6127 12.9467 61.6127 12.099C61.5898 10.9307 61.2691 10.1518 60.4901 9.44164L59.9174 8.93758L59.7112 7.49433C59.5967 6.71542 59.4821 6.05104 59.4363 6.00523C59.505 5.93649 59.3676 6.55492 59.253 7.35674ZM60.1923 9.51031C60.8567 9.89978 61.292 10.6328 61.3836 11.5263C61.4523 12.0761 61.4294 12.1908 61.292 12.1221C60.1007 11.641 58.7949 11.5722 58.0388 11.9617C57.6952 12.1449 57.6723 12.1448 57.6723 11.9386C57.6723 11.8241 57.7639 11.4347 57.8556 11.0681C57.993 10.587 58.1763 10.2892 58.6803 9.8081C59.0239 9.48737 59.3905 9.1895 59.505 9.1895C59.6196 9.2124 59.9403 9.34995 60.1923 9.51031ZM61.04 12.3281C61.4294 12.4885 61.544 12.5803 61.544 12.8094V13.0841H59.6654H57.7868V12.8094C57.7868 12.5803 57.8785 12.4885 58.2908 12.3281C58.5658 12.2365 58.8636 12.1219 58.9552 12.099C59.276 11.9845 60.536 12.1219 61.04 12.3281ZM62.0251 13.5653C62.0938 13.7257 62.1396 15.4896 62.1396 18.5137V23.2331L61.7731 23.1873L61.3836 23.1414L61.3149 18.5824L61.2462 14.0005L60.9712 13.7714C60.5818 13.4506 59.6196 13.4737 59.3218 13.7944C59.0927 14.0235 59.0927 14.1838 59.0927 18.5137C59.0927 22.9123 59.0927 22.981 58.8636 22.981C58.6345 22.981 58.6345 22.8894 58.6345 18.6282V14.2526L58.3367 13.9776C58.1305 13.7715 57.9243 13.6799 57.6265 13.6799C57.2599 13.6799 57.2141 13.657 57.3516 13.4966C57.4661 13.3592 57.9014 13.3132 59.7112 13.3132C61.7502 13.3361 61.8876 13.3362 62.0251 13.5653ZM60.9254 13.9548C61.0171 14.0465 61.0629 14.5732 61.0629 15.5354V16.9787H60.2381H59.4134V15.5813C59.4134 14.4587 59.4592 14.1379 59.5967 14.0005C59.8258 13.7714 60.7192 13.7257 60.9254 13.9548ZM58.1305 14.1609C58.3367 14.2754 58.3596 14.413 58.3596 15.6272V16.9787H57.7639H57.1683V15.5126V14.0463H57.5348C57.7639 14.0463 58.0159 14.0922 58.1305 14.1609ZM58.245 17.6203C58.245 17.8952 58.1992 17.9181 57.6494 17.9181C57.0996 17.9181 57.0537 17.8952 57.0537 17.6203C57.0537 17.3454 57.0996 17.3223 57.6494 17.3223C58.1992 17.3223 58.245 17.3683 58.245 17.6203ZM60.9483 17.6203C60.9483 17.8952 60.9254 17.9181 60.1923 17.9181C59.4592 17.9181 59.4363 17.8952 59.4363 17.6203C59.4363 17.3454 59.4592 17.3223 60.1923 17.3223C60.9254 17.3452 60.9483 17.3454 60.9483 17.6203ZM58.245 20.6901C58.245 22.981 58.2221 23.0955 58.0159 23.0955C57.9014 23.0955 57.6265 23.1413 57.4203 23.1642L57.0537 23.2331V20.7587V18.2846H57.6494H58.245V20.6901ZM60.9483 20.6901V23.0955H60.5589C60.3527 23.0955 59.9861 23.0498 59.8029 23.0269L59.4363 22.9351V20.5986V18.2617H60.1923H60.9483V20.6901ZM60.6505 23.5768C61.292 23.6455 62.3 23.7829 62.9185 23.8746L64.0182 24.0806V25.295V26.5091L63.6975 26.4405C63.1935 26.3259 63.1935 26.3029 63.1935 25.7301C63.1935 25.3636 63.1476 25.2033 63.0102 25.2033C62.8727 25.2033 62.8269 25.3406 62.8269 25.6843C62.8269 26.1654 62.8269 26.1655 62.4604 26.0968C62.2542 26.051 61.796 25.9822 61.4523 25.9364C60.8338 25.8677 60.8338 25.8677 60.8338 25.4782C60.8338 25.2033 60.7651 25.0887 60.6505 25.0887C60.536 25.0887 60.4672 25.2033 60.4672 25.4324V25.776H59.5967H58.7032V25.3637C58.7032 25.0888 58.6345 24.9513 58.5199 24.9513C58.4054 24.9513 58.3367 25.0657 58.3367 25.3406C58.3367 25.7301 58.3138 25.7531 57.7868 25.8219C57.4661 25.8677 57.0308 25.9135 56.7788 25.9364L56.3206 26.0051V25.4782C56.3206 25.0888 56.2748 24.9513 56.1374 24.9513C55.9999 24.9513 55.9541 25.0888 55.9541 25.4782C55.9541 26.0509 55.9312 26.0738 55.4501 26.1883L55.1294 26.257V25.0887V23.9204L55.5188 23.8287C56.0457 23.7141 58.245 23.4621 58.8865 23.4392C59.253 23.4621 60.0091 23.508 60.6505 23.5768ZM58.4512 26.4633C58.5429 26.6465 58.5887 27.3797 58.5887 28.2273V29.6706L58.0618 29.7393C57.7639 29.7851 57.3974 29.8539 57.237 29.8997L56.9392 29.9684V28.2502C56.9392 27.0131 56.8934 26.532 56.8017 26.532C56.5039 26.532 56.8705 26.3717 57.3287 26.28C58.2221 26.1197 58.3138 26.1425 58.4512 26.4633ZM60.4214 26.3715C60.3527 26.4861 60.3069 27.288 60.284 28.1356L60.2381 29.6934H59.5509H58.8636L58.8178 28.1356C58.7949 27.288 58.7261 26.4861 58.6803 26.3715C58.5887 26.1883 58.6574 26.1655 59.5509 26.1655C60.4214 26.1655 60.4902 26.1883 60.4214 26.3715ZM62.3 26.3715C62.5978 26.4174 62.6207 26.4634 62.4604 26.555C62.2771 26.6466 62.2542 26.8985 62.2542 28.3188V29.9684L62.0022 29.8997C61.8418 29.8539 61.4753 29.831 61.1774 29.831H60.6047V28.3877C60.6047 27.563 60.6734 26.7841 60.7422 26.555C60.8796 26.1655 60.9025 26.1655 61.4294 26.2342C61.7273 26.2571 62.1167 26.3257 62.3 26.3715ZM56.4123 26.6695C56.7101 26.807 56.7101 26.8069 56.7101 28.3647V29.9455L56.3894 30.0142C56.2061 30.0601 55.9999 30.1059 55.9083 30.1288C55.7937 30.1746 55.7479 29.7164 55.725 28.4106C55.725 26.4404 55.7479 26.3488 56.4123 26.6695ZM63.6287 26.6465C63.7662 26.6465 63.7891 26.6925 63.6746 26.7841C63.5829 26.8757 63.5371 27.4484 63.5371 28.571C63.5371 30.0143 63.5142 30.1975 63.3538 30.1288C63.2393 30.083 63.0331 30.0143 62.8727 29.9914C62.5978 29.9227 62.5978 29.8996 62.5978 28.3647C62.5978 26.8756 62.6207 26.8069 62.8727 26.6924C63.0102 26.6236 63.1935 26.5779 63.2851 26.6237C63.3767 26.6008 63.5371 26.6465 63.6287 26.6465ZM60.2381 31.572V33.2215H59.528H58.8178V31.572V29.9225H59.528H60.2381V31.572ZM58.6116 31.6866V33.3133L58.0618 33.382C57.741 33.4278 57.3974 33.4964 57.3057 33.5193C57.0996 33.611 57.0996 33.4735 57.0996 31.9615V30.312L57.6723 30.2433C57.9701 30.1975 58.2908 30.1517 58.3367 30.1288C58.4054 30.1059 58.497 30.0829 58.5428 30.0829C58.5658 30.06 58.6116 30.7702 58.6116 31.6866ZM61.796 30.1746H62.2542V31.8011V33.4278L61.5211 33.3589C61.1087 33.3131 60.7651 33.2903 60.7651 33.2674C60.7651 33.2674 60.7192 32.5342 60.6963 31.6407L60.6505 30.0142L60.9942 30.0829C61.2003 30.1287 61.544 30.1746 61.796 30.1746ZM56.5497 33.4278C56.5268 33.4736 56.2977 33.5193 56.0686 33.588L55.6563 33.6797V32.1219V30.5641L56.1145 30.4496L56.5497 30.3351L56.5956 31.847C56.5956 32.6946 56.5956 33.4049 56.5497 33.4278ZM63.5371 32.1906C63.5371 33.6568 63.5142 33.8173 63.3538 33.7715C63.2393 33.7256 63.0331 33.6568 62.8727 33.6339C62.5978 33.5651 62.5978 33.5424 62.5978 31.9387V30.312L63.0789 30.4266L63.56 30.5411V32.1906H63.5371ZM61.8189 33.7026H62.1396V34.7565V35.8103H61.3836H60.6276V34.6878V33.5424L61.0858 33.6339C61.292 33.6568 61.6356 33.7026 61.8189 33.7026ZM58.6116 34.8024V35.902L57.8556 35.9479L57.0996 35.9935V34.9626V33.9316L57.6036 33.8171C58.6574 33.588 58.6116 33.5653 58.6116 34.8024ZM60.3756 34.8252V35.9479H59.6654H58.9552V34.8252V33.7026H59.6654H60.3756V34.8252ZM63.5371 35.0771C63.5371 35.9477 63.5142 36.0624 63.3538 36.0165C63.2393 35.9707 63.0331 35.9479 62.8727 35.9479C62.5978 35.9479 62.5978 35.9248 62.5978 34.8939V33.8401L63.0789 33.9547L63.56 34.0692V35.0771H63.5371ZM56.5726 35.9935C56.5497 36.0164 56.3436 36.0623 56.0915 36.0852L55.6334 36.1539V35.1688V34.1838L56.0915 34.0692L56.5268 33.9547L56.5726 34.9398C56.5955 35.5125 56.5955 35.9706 56.5726 35.9935ZM63.7204 36.406C65.1408 36.6122 65.072 36.5664 65.072 37.2766C65.072 37.8493 65.0491 37.918 64.8429 37.8493C64.6368 37.7806 64.6138 37.8492 64.6138 38.399V39.0176L63.6516 38.9489C61.544 38.7885 61.5669 38.7886 61.544 38.3075C61.4982 37.7118 61.1774 37.7118 61.1316 38.3075L61.0858 38.7657H59.3218H57.5577L57.5119 38.399C57.489 38.147 57.3974 38.0096 57.2828 37.9867C57.0996 37.9408 57.0766 38.0325 57.0766 38.4907V39.0406H56.5726C56.2977 39.0406 55.7937 39.0864 55.4501 39.1093L54.8315 39.2008V38.5824C54.8315 38.1242 54.7857 37.9867 54.6712 37.9867C54.5337 37.9867 54.4879 38.17 54.465 38.6053C54.4192 39.1551 54.3963 39.2239 54.1442 39.2697C53.8922 39.3155 53.8693 39.2926 53.961 38.9261C54.0068 38.7199 54.0755 38.1471 54.0984 37.6202C54.1672 36.5664 54.0068 36.658 56.0228 36.4747C56.7559 36.406 57.5807 36.3144 57.8556 36.2915C58.6574 36.154 62.8727 36.2686 63.7204 36.406ZM65.4386 39.0176C65.4386 39.0863 65.3469 39.1321 65.2553 39.1321C65.1408 39.1321 65.072 39.0177 65.072 38.8802C65.072 38.674 65.0949 38.6511 65.2553 38.7657C65.3469 38.8344 65.4386 38.9489 65.4386 39.0176ZM60.8109 39.2008C60.9254 39.2924 60.9025 39.43 60.7192 39.8653C60.536 40.3006 60.4901 40.667 60.4901 41.6063V42.7748H59.3218H58.1534V41.7208C58.1534 40.7587 58.1076 40.5756 57.8098 39.957L57.4661 39.2697L57.9243 39.2239C58.7261 39.1093 60.6505 39.1092 60.8109 39.2008ZM57.2828 39.8881C57.489 40.415 57.5348 40.8045 57.5348 41.7667C57.5348 42.9809 57.5348 42.9809 57.2599 42.9809C57.0996 42.9809 56.8017 43.0269 56.6185 43.0498C56.2748 43.1185 56.2519 43.1184 56.2519 42.6831C56.2519 41.9271 56.0228 41.3086 55.3355 40.3693C54.9003 39.7508 54.7399 39.4529 54.8544 39.4071C55.1523 39.3154 55.5875 39.2696 56.3206 39.2467L57.0308 39.2239L57.2828 39.8881ZM64.2931 39.4299C64.4535 39.4986 64.3618 39.6592 63.8349 40.4152C63.2622 41.217 63.1706 41.4231 63.056 42.2249C62.9873 42.7289 62.8727 43.1185 62.8269 43.1185C62.7582 43.1185 62.4833 43.0726 62.1625 43.0039C61.8647 42.9352 61.4065 42.8665 61.1545 42.8207L60.6963 42.7518V41.6752C60.6963 40.7588 60.7422 40.5066 61.0171 39.8881L61.3378 39.178L62.7124 39.2467C63.4913 39.3154 64.2015 39.3612 64.2931 39.4299ZM54.9461 40.3921C55.2897 40.8961 55.6104 41.4918 55.6563 41.7208C55.8166 42.3852 55.9083 43.233 55.8166 43.233C55.7708 43.233 55.6104 43.2788 55.473 43.3017C55.221 43.3704 55.1981 43.3474 55.1981 42.6372C55.1981 41.5605 54.9919 41.0107 54.3275 40.3463C53.7548 39.7735 53.6861 39.4529 54.0984 39.4529C54.2588 39.4759 54.5337 39.7736 54.9461 40.3921ZM65.4386 39.7735C65.4157 39.8881 65.2553 40.0943 65.072 40.2317C64.3618 40.6899 64.2015 41.0108 64.1786 42.2479L64.1327 43.3704L63.7662 43.2789C63.56 43.233 63.3767 43.1872 63.3538 43.1643C63.3309 43.1414 63.3767 42.7747 63.4455 42.3394C63.56 41.6751 63.6975 41.3544 64.2244 40.5526C64.7513 39.7736 64.9117 39.5903 65.1637 39.5903C65.324 39.5903 65.4386 39.6361 65.4386 39.7735ZM60.1923 43.21C60.284 43.2787 60.3527 45.0199 60.3985 48.8458L60.4901 54.4127H59.1385H57.7868V53.3131C57.7868 51.2742 58.0388 43.3016 58.0847 43.21C58.1534 43.0954 60.032 43.0725 60.1923 43.21ZM57.489 48.1355C57.4432 50.8388 57.3745 53.3818 57.3287 53.7941L57.2599 54.5273H56.6643H56.0686L56.1603 53.9546C56.2061 53.6567 56.2748 51.1825 56.2977 48.4563L56.3665 43.508L56.733 43.3704C56.9392 43.2787 57.2141 43.233 57.3287 43.233C57.5807 43.233 57.5807 43.3703 57.489 48.1355ZM62.5062 43.439L62.804 43.5536L62.8956 48.5937C62.9415 51.3657 63.0102 53.8399 63.056 54.0919L63.1247 54.5501L62.048 54.4814C61.4523 54.4356 60.9483 54.3898 60.9254 54.3669C60.9025 54.344 60.8567 51.8011 60.8338 48.7313L60.788 43.1643L61.4982 43.233C61.8647 43.3017 62.3229 43.3932 62.5062 43.439ZM56.0915 44.0118C56.1832 44.6074 56.0686 52.0531 55.9312 53.6568L55.8625 54.6418H55.4501H55.0377L55.1064 52.8549C55.1523 51.8698 55.1981 49.4184 55.1981 47.3795V43.6912L55.473 43.5766C55.9083 43.3934 55.9999 43.462 56.0915 44.0118ZM63.8807 43.5766C64.064 43.5766 64.0869 44.0347 64.0869 49.0977L64.1098 54.619H63.7891H63.4684L63.3996 53.061C63.2622 50.1286 63.1705 44.5617 63.2393 43.989C63.308 43.5537 63.3767 43.4391 63.5142 43.4849C63.6058 43.5536 63.7662 43.5766 63.8807 43.5766ZM60.3069 54.8481C60.4214 54.8939 60.4901 55.0542 60.4901 55.3291V55.7186H59.1385H57.7868V55.3291C57.7868 55.1 57.8556 54.8938 57.9472 54.8709C58.1305 54.7564 60.0778 54.7565 60.3069 54.8481ZM57.3057 55.3063C57.3057 55.627 57.2599 55.7186 57.0766 55.7186C56.9621 55.7186 56.6872 55.7644 56.481 55.7873C56.1374 55.856 56.1145 55.856 56.1145 55.4437C56.1145 54.9855 56.2061 54.9167 56.9163 54.8937C57.2828 54.8937 57.3057 54.9168 57.3057 55.3063ZM62.4604 54.9627C63.0789 55.0543 63.0789 55.0541 63.0789 55.4665V55.879L62.4604 55.7873C62.1167 55.7415 61.6127 55.7186 61.3378 55.7186C60.8338 55.7186 60.8338 55.6958 60.8338 55.3063C60.8338 54.8939 60.8567 54.8937 61.3378 54.8937C61.6127 54.8937 62.1167 54.9168 62.4604 54.9627ZM55.8854 55.4208C55.8854 55.7416 55.8395 55.8332 55.6563 55.8332C55.5188 55.8332 55.3584 55.8789 55.2439 55.9019C55.0835 55.9706 55.0606 55.8789 55.0606 55.581C55.0606 55.077 55.1293 55.0083 55.5646 55.0083C55.8624 55.0083 55.8854 55.0314 55.8854 55.4208ZM64.1098 55.6269C64.1557 56.0622 64.1327 56.085 63.812 56.0392C63.5142 55.9934 63.4913 55.9477 63.4455 55.5582C63.3996 55.1229 63.4226 55.1001 63.7433 55.1459C64.0411 55.1917 64.064 55.2374 64.1098 55.6269ZM57.2599 59.9797C57.2141 62.1332 57.1454 64.3782 57.1225 64.9739L57.0537 66.0507L56.3665 66.0965C55.9541 66.1194 55.6792 66.0735 55.6792 66.0048C55.6792 65.9361 55.7937 63.9659 55.9083 61.5833C56.0457 59.2237 56.1374 57.0472 56.1374 56.7265C56.1374 56.1309 56.1145 56.1539 57.1225 56.0623C57.3287 56.0623 57.3286 56.2225 57.2599 59.9797ZM60.5131 58.9029C60.5589 60.4607 60.6047 62.706 60.6047 63.8973V66.0507H59.0698H57.5119L57.6036 62.9579C57.6494 61.2626 57.7181 59.0175 57.741 57.9637L57.8098 56.0623H59.1385H60.4672L60.5131 58.9029ZM62.7124 56.1768H63.1476L63.2393 58.2615C63.3538 60.919 63.5142 64.3783 63.6058 65.3634L63.6746 66.1194L62.3687 66.0737L61.0629 66.0279L60.9942 65.6612C60.9483 65.455 60.9254 63.21 60.9025 60.6441L60.8796 56.0164L61.5669 56.0851C61.9564 56.1538 62.4833 56.1768 62.7124 56.1768ZM55.725 57.6659C55.4959 62.9122 55.4272 64.2179 55.3584 65.0884L55.2668 66.0737H54.7857H54.3275L54.3962 65.4551C54.5337 64.218 54.6941 61.7209 54.8086 59.0863C54.9232 56.2456 54.9461 56.1996 55.4959 56.1996H55.7708L55.725 57.6659ZM64.1557 57.1847C64.2015 57.7116 64.2931 59.4985 64.3618 61.1938C64.4306 62.8662 64.5222 64.722 64.568 65.2947L64.6368 66.3256L64.2931 66.2339C64.1098 66.1881 63.9495 66.1424 63.9495 66.1424C63.9266 66.1195 63.8349 64.3555 63.7433 62.1791C63.6516 60.0027 63.5142 57.7576 63.4913 57.2077L63.4226 56.1538L63.7433 56.1996C64.064 56.2454 64.064 56.2454 64.1557 57.1847ZM57.0766 66.7151C57.0766 67.0817 57.0308 67.1275 56.733 67.1275C56.5497 67.1275 56.229 67.1732 56.0228 67.1961C55.6792 67.2649 55.6563 67.2649 55.6563 66.8525C55.6563 66.4401 55.6792 66.4402 56.1145 66.3715C57.1225 66.2799 57.0766 66.2799 57.0766 66.7151ZM60.6047 66.7151V67.1275H59.0239H57.4432V66.7151V66.3028H59.0239H60.6047V66.7151ZM63.56 66.6006C63.6287 66.6464 63.6746 66.8296 63.6746 67.0129C63.6746 67.3566 63.6516 67.3566 63.308 67.2879C63.1018 67.2421 62.5291 67.2192 62.0022 67.2192H61.0629V66.7838V66.3715L62.2542 66.463C62.9185 66.5088 63.4913 66.5777 63.56 66.6006ZM55.4272 66.9442C55.4272 67.3108 55.3814 67.3337 54.9919 67.4024C54.4879 67.4941 54.3733 67.4482 54.3733 67.1275C54.3733 66.8067 54.6941 66.5319 55.0835 66.5319C55.3814 66.5319 55.4272 66.5777 55.4272 66.9442ZM64.6138 67.0129C64.6138 67.3336 64.568 67.4939 64.4535 67.4939C64.064 67.4939 63.9036 67.3337 63.9036 66.9442C63.9036 66.5777 63.9495 66.5547 64.2473 66.5547C64.5909 66.5318 64.6138 66.5547 64.6138 67.0129ZM60.6505 70.2661C60.6963 71.801 60.7651 73.9086 60.788 74.9167L60.8796 76.7722H59.0239H57.1912V76.0393C57.1912 74.848 57.4432 68.0439 57.489 67.7461C57.5348 67.4941 57.5807 67.4939 59.0469 67.4939H60.5589L60.6505 70.2661ZM63.6287 67.6543C63.6516 67.6772 64.3618 76.7035 64.3618 76.9326C64.3618 77.0472 63.1247 77.0473 62.0938 76.9557C61.4982 76.887 61.292 76.8182 61.2462 76.6807C61.2003 76.5662 61.1545 74.4585 61.1087 71.9843L61.0171 67.4711L62.3 67.5628C63.0331 67.6086 63.6058 67.6314 63.6287 67.6543ZM56.9621 69.5558C56.9392 71.778 56.7559 76.6579 56.6872 76.7266C56.6185 76.7953 54.9461 77.0244 54.9003 76.9557C54.8773 76.9328 55.0148 74.9167 55.1981 72.4425C55.3814 69.9912 55.5417 67.9292 55.5417 67.8376C55.5417 67.723 55.8166 67.6544 56.6872 67.5856L56.9392 67.5628V69.5558H56.9621ZM55.2439 68.2729C55.1981 68.5937 55.0377 70.6555 54.8773 72.9007C54.717 75.1458 54.5337 77.0015 54.5108 77.0244C54.465 77.0702 54.2359 77.139 53.9839 77.1848C53.5486 77.2764 53.5257 77.2535 53.5257 76.9098C53.5257 76.7036 53.6632 75.2145 53.8006 73.588C53.961 71.9614 54.1213 70.1745 54.1672 69.6247C54.3046 67.7919 54.3046 67.7919 55.0377 67.7461C55.2897 67.7231 55.3126 67.746 55.2439 68.2729ZM64.6826 67.8606C64.7742 67.9981 65.4157 75.856 65.4386 76.7953C65.4386 77.1847 65.3928 77.2535 65.1408 77.2535C64.9804 77.2535 64.82 77.1847 64.7971 77.093C64.7742 77.0243 64.6138 75.1 64.4535 72.832C64.2931 70.564 64.1327 68.4792 64.0869 68.2042C64.0411 67.7461 64.0411 67.7002 64.316 67.7002C64.4535 67.7231 64.6368 67.769 64.6826 67.8606ZM60.5818 77.2076C60.8109 77.2763 60.8338 77.345 60.8338 78.0781V78.8571H58.8865H56.9392L57.0079 78.4448C57.0537 78.2157 57.0766 77.872 57.0766 77.6658C57.0766 77.2992 57.0996 77.2991 57.6494 77.2304C58.6345 77.1388 60.3069 77.1389 60.5818 77.2076ZM56.7101 77.9177C56.7101 78.2842 56.6643 78.6508 56.6185 78.7195C56.5726 78.7883 56.1832 78.88 55.7479 78.9258C55.3126 78.9716 54.8544 79.0403 54.7628 79.0632C54.6253 79.1319 54.5795 79.0404 54.6024 78.628C54.6253 77.62 54.7399 77.4138 55.1752 77.3221C55.4043 77.2763 55.8395 77.2304 56.1603 77.2304L56.7101 77.2076V77.9177ZM63.9036 77.4826C64.4993 77.5742 64.568 77.7116 64.5909 78.7654C64.6138 79.2694 64.5909 79.2694 64.2931 79.2236C63.9953 79.1548 61.8418 78.9258 61.4753 78.9258C61.3607 78.9258 61.3149 78.6739 61.3149 78.1012V77.2763L62.3458 77.368C62.9185 77.368 63.6058 77.4367 63.9036 77.4826ZM54.5108 78.3072L54.465 79.109L54.0526 79.2008C53.8235 79.2466 53.5257 79.2923 53.4111 79.3381C53.2279 79.3839 53.205 79.3153 53.2737 78.5822C53.3195 78.1469 53.3653 77.7574 53.3882 77.7345C53.4341 77.6886 54.1213 77.5054 54.3733 77.5054C54.5108 77.4825 54.5337 77.6428 54.5108 78.3072ZM65.5073 77.6886C65.576 77.7344 65.6677 78.1241 65.7135 78.5593C65.8051 79.4299 65.7135 79.5215 65.1866 79.2466C65.0033 79.1321 64.9575 78.9945 64.9575 78.3531C64.9575 77.7116 65.0033 77.5971 65.1637 77.5971C65.2782 77.5971 65.4386 77.6428 65.5073 77.6886ZM60.0091 79.2466H60.8109L60.8796 79.9795C60.9254 80.3919 60.9713 81.8811 61.0171 83.2786L61.0858 85.8445H58.8865H56.6872L56.7559 85.5695C56.8017 85.4321 56.8705 83.943 56.9163 82.2935L56.985 79.2694L57.7639 79.2236C58.1763 79.2007 58.7032 79.2007 58.8865 79.2236C59.0698 79.2236 59.5738 79.2466 60.0091 79.2466ZM56.6872 80.4608C56.6414 81.1251 56.5726 82.6142 56.5268 83.7368L56.4352 85.7986L55.1981 85.8673C54.5108 85.9131 53.9381 85.9133 53.9152 85.8903C53.8922 85.8674 54.0068 84.9052 54.1672 83.7368C54.3275 82.5913 54.4879 81.2625 54.5337 80.8272C54.5795 80.369 54.6483 79.865 54.6712 79.6818C54.7399 79.3381 54.7399 79.3382 56.3435 79.2694L56.733 79.2466L56.6872 80.4608ZM63.5371 79.4985C64.0869 79.5673 64.568 79.6817 64.6138 79.7504C64.6597 79.8421 64.7055 80.0483 64.7055 80.2545C64.7055 80.4378 64.8658 81.7207 65.0491 83.0723C65.4844 86.1193 65.4844 86.1194 65.1408 86.0277C64.9804 85.9819 64.1098 85.9131 63.1935 85.8673L61.5211 85.7758L61.4523 85.4778C61.4065 85.3174 61.3607 83.8513 61.3149 82.2018L61.2233 79.2466L61.8647 79.3153C62.2542 79.3611 62.9873 79.4298 63.5371 79.4985ZM54.0068 82.179C53.8693 83.3244 53.6861 84.6303 53.6173 85.0885L53.4799 85.9132L52.8384 86.0049C52.4948 86.0507 52.174 86.0734 52.174 86.0505C52.1511 86.0276 52.3573 84.6073 52.6322 82.8891L53.1133 79.7735L53.6632 79.6589C54.1672 79.5673 54.213 79.5674 54.2359 79.8194C54.2359 79.9568 54.1442 81.0106 54.0068 82.179ZM65.8968 81.0105C65.9884 81.6977 66.1946 83.1411 66.3779 84.195C66.5611 85.2717 66.6986 86.1422 66.6986 86.1651C66.6757 86.188 66.4924 86.1422 66.2862 86.0964C65.9197 86.0277 65.8739 85.959 65.7822 85.5008C65.5989 84.5616 65.0949 80.4379 65.0949 80.0484C65.0949 79.7048 65.1178 79.6818 65.4157 79.7276C65.7364 79.7505 65.7364 79.7504 65.8968 81.0105ZM56.3665 86.6004C56.3665 86.9899 56.3435 87.0128 55.9999 87.0128C55.7937 87.0128 55.1752 87.0587 54.6483 87.1045L53.6632 87.1732V86.7609V86.3485L54.3962 86.3027C54.7857 86.2798 55.4043 86.2569 55.7479 86.234L56.3665 86.2109V86.6004ZM61.0629 86.6004V87.0128H58.8178H56.5726V86.6004V86.1881H58.8178H61.0629V86.6004ZM64.8658 86.3942L65.6448 86.4631V86.8754V87.2877L64.9117 87.219C64.4993 87.1732 63.56 87.1045 62.8498 87.0586L61.5211 86.9669V86.5546V86.1423L62.7811 86.234C63.5142 86.3027 64.4306 86.3484 64.8658 86.3942ZM53.2966 86.5776C53.2966 87.0129 53.1591 87.1044 52.4948 87.196C51.8762 87.2876 51.8533 87.2877 51.922 87.0128C51.9679 86.8524 52.0137 86.6693 52.0137 86.5776C52.0137 86.4402 52.3344 86.3713 52.9988 86.3255C53.2508 86.3255 53.2966 86.3714 53.2966 86.5776ZM66.8361 86.5776C66.8361 86.6693 66.8819 86.8525 66.9048 86.99C66.9735 87.242 66.9506 87.2649 66.5611 87.2649C66.1488 87.2649 66.0113 87.1273 66.0113 86.6691C66.0113 86.4859 66.103 86.44 66.4237 86.44C66.6757 86.44 66.8361 86.486 66.8361 86.5776ZM56.2061 88.0437C56.1603 88.4102 56.0915 89.3725 56.0457 90.1514L55.9541 91.5718L55.0606 91.6633C54.5795 91.7092 53.8235 91.7322 53.3882 91.7322C52.678 91.7322 52.5864 91.7092 52.6551 91.526C52.701 91.4114 52.93 90.4722 53.1591 89.4413L53.5715 87.5627L54.5795 87.494C55.1294 87.4482 55.725 87.4252 55.9312 87.4023L56.2748 87.3795L56.2061 88.0437ZM61.2462 87.7001C61.2691 87.8833 61.3378 88.8456 61.3836 89.8078L61.4753 91.6177H58.9323H56.3894L56.4581 91.2969C56.5039 91.1136 56.5497 90.1743 56.5956 89.1892L56.6643 87.4023H58.9323H61.2003L61.2462 87.7001ZM64.3847 87.5627L65.8739 87.6314L66.0113 88.5019C66.103 88.983 66.3091 89.9223 66.4924 90.6096L66.8131 91.8696L65.3928 91.8009C62.2542 91.6406 61.9105 91.5948 61.8647 91.3886C61.8418 91.2741 61.7731 90.3347 61.7273 89.2809L61.6356 87.3564L62.2542 87.4251C62.6207 87.448 63.56 87.5169 64.3847 87.5627ZM52.9988 88.1124C52.8842 88.8913 52.2428 91.5259 52.1282 91.6633C52.0824 91.7092 51.7617 91.7779 51.418 91.8237C50.8453 91.8925 50.7995 91.8697 50.8682 91.6864C51.0286 91.2969 51.5326 89.2122 51.6471 88.4104L51.7846 87.6314L52.2657 87.5855C52.5406 87.5626 52.8384 87.5397 52.9071 87.5168C53.0675 87.4939 53.0675 87.6313 52.9988 88.1124ZM67.4317 89.5787C67.7066 90.6554 67.9586 91.6177 67.9815 91.6864C68.0273 91.8009 67.9128 91.8468 67.5692 91.8468C67.2942 91.8468 67.0651 91.8009 67.0422 91.7551C66.9735 91.6634 66.1259 87.9064 66.1259 87.7231C66.1259 87.6544 66.3091 87.6086 66.5153 87.6086H66.9048L67.4317 89.5787ZM61.3836 92.0528C61.4523 92.0987 61.5669 92.6026 61.6127 93.1524L61.7044 94.1834H58.9094H56.1374L56.1832 93.9086C56.229 93.7712 56.2748 93.313 56.3206 92.8777C56.3665 92.4653 56.4352 92.0758 56.4581 92.03C56.5039 91.9384 61.2003 91.9383 61.3836 92.0528ZM55.9541 92.6028C55.9083 92.9006 55.8395 93.3587 55.8166 93.6565L55.7479 94.1834H54.9461C54.5108 94.1834 53.5715 94.2293 52.8842 94.2751L51.6242 94.3438L51.8533 93.8856C51.9679 93.6336 52.174 93.1524 52.2657 92.8088C52.4948 92.0986 52.4489 92.1217 54.5566 92.0759L55.9999 92.0528L55.9541 92.6028ZM66.6528 92.2819C66.7444 92.3278 66.9735 92.8318 67.1797 93.4046L67.5233 94.4583L65.9655 94.3896C63.056 94.2522 62.0022 94.1834 61.9563 94.1147C61.9334 94.0689 61.8647 93.5877 61.8189 93.0379L61.7273 92.0528L64.0869 92.1446C65.4386 92.1675 66.5611 92.2361 66.6528 92.2819ZM51.9908 92.6256C51.922 92.8547 51.7617 93.3359 51.6013 93.6795C51.3493 94.2294 51.3035 94.2981 50.8453 94.3668C50.5704 94.4126 50.3184 94.4354 50.3184 94.4125C50.2496 94.3437 50.7995 92.3737 50.914 92.305C50.9827 92.2592 51.2806 92.2133 51.5784 92.2133H52.1282L51.9908 92.6256ZM68.3023 93.1068C68.4397 93.4963 68.6459 93.9774 68.7604 94.1377C68.875 94.2981 68.9437 94.4583 68.9437 94.4583C68.9437 94.4812 68.7146 94.4812 68.4168 94.4583L67.8899 94.4125L67.5692 93.5878C67.3859 93.1067 67.2026 92.6486 67.1568 92.5341C67.0651 92.3508 67.0881 92.3277 67.5233 92.3506C68.0503 92.3735 68.0503 92.3737 68.3023 93.1068ZM55.725 94.9852C55.473 96.5201 55.4272 96.6118 55.0606 96.8179C54.717 96.9783 54.6483 96.9785 53.709 96.6119C53.182 96.4057 52.3802 96.1307 51.922 96.0161L51.0973 95.8101L51.3722 95.2373L51.6471 94.6874L52.9759 94.6416C53.6861 94.6186 54.6253 94.5958 55.0377 94.5729L55.7708 94.5501L55.725 94.9852ZM61.7044 94.6416C61.7502 94.7103 61.796 94.9853 61.8418 95.306L61.9334 95.8788L61.2003 95.787C59.6425 95.5808 58.245 95.7413 56.0686 96.4056C55.8395 96.4744 55.8395 96.4744 55.9999 95.6038L56.1832 94.7105L56.8476 94.6646C58.1763 94.5501 61.6585 94.5499 61.7044 94.6416ZM50.8682 95.1687C50.7078 95.4207 50.5475 95.5581 50.3184 95.581C49.9747 95.6268 49.9518 95.5351 50.1122 95.0769C50.2038 94.8707 50.3413 94.779 50.6162 94.7561C50.8224 94.7332 51.0286 94.7333 51.0515 94.7333C51.0744 94.7562 51.0057 94.9625 50.8682 95.1687ZM66.1488 94.8707L67.7524 94.9624L68.0503 95.4206C68.2106 95.6726 68.3481 95.9016 68.3481 95.9474C68.3481 95.9933 68.1648 96.0161 67.9586 96.0161C67.4088 96.0161 65.851 96.4287 65.0949 96.7723C64.568 97.0243 64.4535 97.0242 64.2473 96.9097C64.1327 96.818 63.6287 96.5889 63.1706 96.4056C62.2313 96.0391 62.1396 95.9018 62.1167 95.1687L62.0938 94.7105L63.308 94.7791C63.9953 94.7562 65.2782 94.8248 66.1488 94.8707ZM68.9208 94.8707C69.127 94.9165 69.3332 95.077 69.4706 95.2832L69.6768 95.6268H69.1957C68.8292 95.6268 68.6688 95.5579 68.4855 95.3288C68.0961 94.8019 68.1877 94.7103 68.9208 94.8707ZM51.922 96.3141C52.5635 96.5203 53.4111 96.8409 53.8235 97.0242C54.6483 97.3908 54.6483 97.3908 54.9919 99.2006C55.3584 101.24 55.4272 104.997 55.1064 106.738L55.0377 107.15L54.6941 106.6C54.0297 105.524 53.3424 105.043 52.5406 105.043C51.5097 105.043 50.914 105.547 49.5395 107.608C48.9438 108.502 47.6838 110.243 46.7445 111.48L45.0492 113.748H43.4226H41.7732V113.359C41.7732 112.992 41.819 112.946 42.3459 112.763C43.2165 112.442 44.5681 111.709 45.2783 111.136C47.8671 109.143 49.3562 106.371 49.4936 103.347C49.6082 100.942 49.0354 99.4754 47.4089 97.8489L46.378 96.8179L46.7445 96.566C47.8442 95.7413 49.8831 95.6497 51.922 96.3141ZM61.7731 96.0392C62.1854 96.1308 62.9185 96.4056 63.3996 96.6347C64.1557 97.0013 64.2702 97.093 64.2015 97.2992C63.9724 98.101 63.5371 100.552 63.4226 101.675C63.2164 103.53 63.3538 106.188 63.7204 107.746C64.0869 109.395 64.4993 110.426 65.2095 111.595C65.6906 112.373 65.8051 112.648 65.8051 113.084V113.634H64.6826C64.064 113.634 63.56 113.611 63.56 113.565C63.56 113.038 62.4145 106.829 62.2313 106.44C61.7502 105.317 60.7422 104.676 59.4363 104.676C58.2221 104.699 57.2828 105.226 56.8246 106.165C56.6185 106.6 56.4581 107.471 56.1145 110.151C55.8624 112.03 55.6563 113.611 55.6563 113.656C55.6563 113.725 55.1752 113.748 54.5795 113.748H53.5028L53.5715 113.061C53.6173 112.626 53.8006 111.938 54.1672 111.091C55.221 108.594 55.6563 106.188 55.6792 103.141C55.6792 101.102 55.5417 99.7964 55.1752 98.1469C54.9919 97.3221 54.9919 97.0701 55.1064 97.0014C55.4272 96.7952 57.1683 96.1765 57.8327 96.0161C58.8178 95.8099 60.8567 95.8101 61.7731 96.0392ZM44.7056 96.7723C46.7216 97.3909 48.4627 99.4754 48.8293 101.743C49.3104 104.561 47.9358 108.204 45.6907 110.197C44.591 111.182 42.8041 112.213 41.6815 112.557C41.1775 112.717 41.1775 112.717 41.1775 113.221V113.725H38.7033H36.2291V113.336V112.946L37.6266 112.511C41.3837 111.32 44.3848 109.166 45.5303 106.852C46.2634 105.34 46.6071 102.912 46.2405 101.583C45.7136 99.6818 44.1328 98.1696 41.9794 97.5511C41.6128 97.4365 41.2921 97.2991 41.2921 97.2533C41.2921 97.1846 41.567 97.0013 41.9106 96.8638C42.6895 96.4744 43.6976 96.4516 44.7056 96.7723ZM77.1911 97.047C77.466 97.2074 77.718 97.3678 77.7409 97.4365C77.7638 97.5053 77.2369 97.7115 76.5955 97.9406C74.6253 98.5821 73.434 99.4985 72.7467 101.011C72.4718 101.606 72.4259 101.812 72.4259 102.866C72.4259 104.241 72.655 105.065 73.5027 106.761C73.9609 107.7 74.1671 107.975 75.2438 109.006C77.1224 110.816 78.978 111.938 81.5439 112.763C82.7123 113.152 82.8726 113.244 82.8726 113.473V113.748H80.3984H77.9242V113.29C77.9242 112.855 77.9242 112.855 77.0307 112.511C73.8922 111.32 71.3721 108.593 70.4786 105.409C70.135 104.149 70.1121 102.225 70.4786 101.194C70.8681 100.071 71.3034 99.3609 72.1969 98.4675C73.3881 97.2533 74.4191 96.818 75.9082 96.7951C76.5038 96.7951 76.8016 96.8638 77.1911 97.047ZM60.5131 105.157C61.1087 105.317 61.8418 105.982 62.048 106.6C62.1625 106.875 62.4145 108.456 62.6436 110.105C62.8727 111.755 63.1018 113.244 63.1247 113.427L63.1935 113.748H59.5967H55.977L56.0457 113.427C56.0915 113.244 56.2748 111.801 56.4581 110.22C56.8476 106.967 56.9621 106.555 57.3516 106.005C57.993 105.18 59.3218 104.836 60.5131 105.157ZM53.5257 105.707C53.7548 105.89 54.1442 106.394 54.3962 106.829L54.8315 107.631L54.6483 108.342C54.3962 109.418 53.8464 111.045 53.4341 111.824C53.1821 112.351 53.0904 112.717 53.0904 113.129V113.725H49.1958C46.126 113.725 45.3241 113.679 45.3929 113.565C45.4616 113.496 46.2634 112.396 47.2256 111.136C48.1649 109.876 49.2645 108.342 49.6769 107.723C50.0893 107.104 50.6162 106.394 50.8453 106.142C51.7158 105.226 52.701 105.066 53.5257 105.707ZM67.363 105.661C68.0961 106.005 68.371 106.302 69.4019 107.86C69.8601 108.548 70.9827 110.128 71.9449 111.388L73.686 113.679L69.9517 113.725C67.9128 113.748 66.1946 113.725 66.1717 113.702C66.1259 113.679 66.08 113.381 66.0342 113.015C65.9655 112.625 65.7593 112.076 65.3928 111.48C65.1178 110.976 64.6826 109.991 64.4306 109.258L63.9953 107.952L64.316 107.356C64.9346 106.211 65.8739 105.386 66.5382 105.363C66.6757 105.386 67.0422 105.524 67.363 105.661Z" fill="white"/>
<path d="M71.2739 96.0404C71.3426 96.0633 71.4801 96.0633 71.5717 96.0404C71.6405 95.9946 71.5947 95.9718 71.4114 95.9718C71.2281 95.9718 71.2052 96.0175 71.2739 96.0404Z" fill="white"/>
</svg>
