<svg width="144" height="110" viewBox="0 0 144 110" fill="none" xmlns="http://www.w3.org/2000/svg">
<path d="M71.6761 5.28136C71.5246 6.19011 71.4164 6.68787 71.2866 6.8177C71.1784 6.90424 70.9404 7.12057 70.7457 7.3153C70.1615 7.85622 69.8153 8.72163 69.772 9.7602C69.7504 10.3444 69.6855 10.6689 69.5989 10.7338C69.4907 10.8204 69.4475 11.8373 69.4042 15.4506L69.3393 20.1025L68.9498 20.1891C68.7335 20.254 68.3007 20.3622 67.9762 20.4488L67.392 20.6218V21.8767C67.392 23.0667 67.4136 23.1533 67.6733 23.3913L67.9545 23.651V27.9567V32.2623L67.5434 32.3272C66.4183 32.5219 66.5049 32.4138 66.5049 33.3875C66.5049 34.0149 66.4616 34.2961 66.3318 34.3827C66.202 34.4909 66.1587 34.729 66.1587 35.3132C66.1587 36.0921 66.1803 36.092 66.5265 36.2651C66.7213 36.3516 67.0458 36.6762 67.2405 36.9791L67.5867 37.52V40.9818C67.5867 55.738 66.3102 71.23 64.233 81.6805C63.757 83.9956 62.9132 87.4576 62.6536 88.1067C62.5021 88.4745 62.4805 88.4744 61.6799 88.5609C60.7928 88.6259 59.9057 88.907 59.2566 89.3398L58.8455 89.6212L58.0233 89.3398C57.0497 89.0152 56.0111 89.0154 55.3404 89.3615C54.886 89.5779 54.2585 90.1838 54.2585 90.3785C54.2585 90.4434 54.5831 90.5514 55.0158 90.638C56.5737 90.9193 58.2397 92.066 58.8022 93.2344C58.9321 93.5156 59.1268 94.1432 59.235 94.6192C59.4513 95.6578 59.3432 96.7397 58.8888 98.1677C58.045 100.807 55.1889 103.014 50.8832 104.356L49.7148 104.724V105.351V106H72.0006H94.2864V105.502C94.2864 105.026 94.2647 105.005 93.9402 104.94C93.3127 104.81 91.8198 104.269 90.9543 103.858C89.6128 103.209 88.1415 102.192 86.9948 101.089C86.0861 100.202 85.8697 99.9418 85.4586 99.0547C84.6364 97.3454 84.3119 95.6146 84.5715 94.4895C84.8095 93.4509 85.675 92.3907 86.7568 91.7849C87.3843 91.4387 89.007 90.8761 89.4614 90.8761C89.8292 90.8761 89.7859 90.7029 89.3099 90.2052C88.5959 89.4912 87.579 89.3614 85.9346 89.7725C84.182 90.2269 82.754 91.6766 82.04 93.7537C81.8236 94.3596 81.7804 94.7057 81.7804 95.8741C81.802 97.1723 81.8236 97.3455 82.1915 98.4489C82.754 100.093 83.3598 101.067 84.5499 102.279C85.675 103.404 86.4972 103.988 88.0117 104.68C88.9637 105.113 89.0503 105.178 89.0503 105.459V105.762H87.4059H85.7615L83.9224 103.274C82.9055 101.911 81.7804 100.353 81.4125 99.812C79.5951 97.0858 78.0805 96.8045 76.6308 98.9465L76.1548 99.6389L76.0683 99.098C76.025 98.8168 75.9817 97.6483 75.9817 96.5232C76.0034 94.4028 76.1981 92.7585 76.6525 90.9194L76.8472 90.1621L77.7343 89.8158C79.0974 89.2749 80.0494 89.0587 81.5207 88.9721C82.2564 88.9288 82.6242 88.8855 82.3213 88.8855C81.8236 88.8639 81.7804 88.8422 81.4558 88.3446C81.0015 87.6306 80.3091 85.8131 79.8331 84.1254C77.7776 76.6608 76.5443 61.5152 76.501 43.8164L76.4794 37.1739L76.8472 36.7845C77.0636 36.5681 77.3232 36.3517 77.4314 36.3084C77.6045 36.2651 77.6261 36.1353 77.6261 35.616C77.6261 35.1616 77.5612 34.9237 77.453 34.8372C77.3232 34.729 77.2799 34.4476 77.2799 33.6687V32.6302L76.8688 32.5653C76.6308 32.522 76.3063 32.457 76.1548 32.4354L75.8519 32.3705V28.1298V23.8673L76.1332 23.6077C76.3928 23.3697 76.4145 23.2831 76.4145 22.0282C76.4145 20.7517 76.3928 20.7084 76.1765 20.6652C76.025 20.6219 75.6139 20.5352 75.2461 20.4703L74.5754 20.3406L74.5321 15.6454L74.5105 10.9502L74.2075 10.7772C73.9263 10.6041 73.9046 10.5608 73.9046 9.7602C73.883 8.65673 73.5801 7.92117 72.8444 7.25043L72.3035 6.77438L72.1088 5.41132C72.0006 4.67567 71.8924 4.0482 71.8491 4.00493C71.9141 3.94002 71.7842 4.52409 71.6761 5.28136ZM72.5632 7.3153C73.1906 7.68312 73.6017 8.37545 73.6883 9.21928C73.7532 9.73856 73.7315 9.84687 73.6017 9.78196C72.4766 9.32759 71.2433 9.26264 70.5293 9.63046C70.2048 9.80355 70.1831 9.80343 70.1831 9.6087C70.1831 9.50051 70.2697 9.13274 70.3562 8.78654C70.486 8.33218 70.6591 8.0509 71.1351 7.59653C71.4597 7.29362 71.8059 7.0123 71.9141 7.0123C72.0222 7.03394 72.3252 7.16384 72.5632 7.3153ZM73.3637 9.97656C73.7315 10.128 73.8397 10.2147 73.8397 10.4311V10.6905H72.0655H70.2913V10.4311C70.2913 10.2147 70.3778 10.128 70.7673 9.97656C71.0269 9.89001 71.3082 9.78183 71.3948 9.7602C71.6977 9.65202 72.8877 9.78183 73.3637 9.97656ZM74.2941 11.145C74.359 11.2965 74.4023 12.9624 74.4023 15.8185V20.2757L74.0561 20.2324L73.6883 20.1891L73.6234 15.8833L73.5584 11.556L73.2988 11.3396C72.931 11.0367 72.0222 11.0585 71.741 11.3614C71.5246 11.5778 71.5246 11.7291 71.5246 15.8185C71.5246 19.9727 71.5246 20.0376 71.3082 20.0376C71.0919 20.0376 71.0919 19.9511 71.0919 15.9266V11.7941L70.8106 11.5344C70.6159 11.3397 70.4211 11.2532 70.1398 11.2532C69.7937 11.2532 69.7504 11.2316 69.8802 11.0802C69.9884 10.9503 70.3995 10.9069 72.1088 10.9069C74.0344 10.9285 74.1643 10.9287 74.2941 11.145ZM73.2555 11.5129C73.3421 11.5994 73.3853 12.097 73.3853 13.0057V14.3688H72.6064H71.8275V13.049C71.8275 11.9888 71.8708 11.6858 72.0006 11.556C72.217 11.3396 73.0608 11.2965 73.2555 11.5129ZM70.6159 11.7075C70.8106 11.8157 70.8322 11.9456 70.8322 13.0923V14.3688H70.2697H69.7071V12.9841V11.5993H70.0533C70.2697 11.5993 70.5077 11.6426 70.6159 11.7075ZM70.724 14.9748C70.724 15.2344 70.6808 15.256 70.1615 15.256C69.6422 15.256 69.5989 15.2344 69.5989 14.9748C69.5989 14.7151 69.6422 14.6933 70.1615 14.6933C70.6808 14.6933 70.724 14.7368 70.724 14.9748ZM73.2772 14.9748C73.2772 15.2344 73.2555 15.256 72.5632 15.256C71.8708 15.256 71.8491 15.2344 71.8491 14.9748C71.8491 14.7151 71.8708 14.6933 72.5632 14.6933C73.2555 14.715 73.2772 14.7151 73.2772 14.9748ZM70.724 17.8739C70.724 20.0376 70.7024 20.1458 70.5077 20.1458C70.3995 20.1458 70.1398 20.189 69.9451 20.2107L69.5989 20.2757V17.9388V15.6021H70.1615H70.724V17.8739ZM73.2772 17.8739V20.1458H72.9093C72.7146 20.1458 72.3684 20.1026 72.1953 20.0809L71.8491 19.9943V17.7875V15.5805H72.5632H73.2772V17.8739ZM72.9959 20.6003C73.6017 20.6652 74.5537 20.795 75.1379 20.8815L76.1765 21.0761V22.223V23.3697L75.8736 23.3049C75.3976 23.1967 75.3976 23.1749 75.3976 22.634C75.3976 22.2878 75.3543 22.1364 75.2245 22.1364C75.0946 22.1364 75.0514 22.2661 75.0514 22.5907C75.0514 23.0451 75.0514 23.0452 74.7052 22.9803C74.5105 22.937 74.0777 22.8721 73.7532 22.8288C73.169 22.7639 73.169 22.7639 73.169 22.3961C73.169 22.1365 73.1041 22.0282 72.9959 22.0282C72.8877 22.0282 72.8228 22.1364 72.8228 22.3528V22.6773H72.0006H71.1568V22.2879C71.1568 22.0283 71.0919 21.8985 70.9837 21.8985C70.8755 21.8985 70.8106 22.0065 70.8106 22.2661C70.8106 22.634 70.7889 22.6557 70.2913 22.7206C69.9884 22.7639 69.5773 22.8072 69.3393 22.8288L68.9066 22.8937V22.3961C68.9066 22.0283 68.8633 21.8985 68.7335 21.8985C68.6036 21.8985 68.5604 22.0283 68.5604 22.3961C68.5604 22.937 68.5387 22.9586 68.0844 23.0667L67.7815 23.1316V22.0282V20.9248L68.1493 20.8382C68.6469 20.73 70.724 20.492 71.3299 20.4703C71.6761 20.492 72.3901 20.5354 72.9959 20.6003ZM70.9188 23.3264C71.0053 23.4995 71.0486 24.1919 71.0486 24.9925V26.3556L70.5509 26.4204C70.2697 26.4637 69.9235 26.5286 69.772 26.5719L69.4907 26.6368V25.014C69.4907 23.8457 69.4475 23.3913 69.3609 23.3913C69.0796 23.3913 69.4258 23.2399 69.8586 23.1534C70.7024 23.0019 70.7889 23.0235 70.9188 23.3264ZM72.7795 23.2398C72.7146 23.348 72.6713 24.1053 72.6497 24.9059L72.6064 26.3771H71.9573H71.3082L71.265 24.9059C71.2433 24.1053 71.1784 23.348 71.1351 23.2398C71.0486 23.0667 71.1135 23.0452 71.9573 23.0452C72.7795 23.0452 72.8444 23.0667 72.7795 23.2398ZM74.5537 23.2398C74.835 23.2831 74.8566 23.3265 74.7052 23.4131C74.5321 23.4996 74.5105 23.7374 74.5105 25.0789V26.6368L74.2724 26.5719C74.121 26.5286 73.7748 26.507 73.4935 26.507H72.9526V25.144C72.9526 24.3651 73.0175 23.6294 73.0824 23.4131C73.2123 23.0452 73.2339 23.0451 73.7315 23.1101C74.0128 23.1317 74.3806 23.1965 74.5537 23.2398ZM68.9931 23.5212C69.2744 23.6511 69.2744 23.6509 69.2744 25.1222V26.6152L68.9715 26.6801C68.7984 26.7234 68.6036 26.7666 68.5171 26.7883C68.4089 26.8316 68.3656 26.3988 68.344 25.1655C68.344 23.3048 68.3656 23.2183 68.9931 23.5212ZM75.8087 23.4995C75.9385 23.4995 75.9601 23.5429 75.8519 23.6294C75.7654 23.716 75.7221 24.2568 75.7221 25.317C75.7221 26.6801 75.7005 26.8532 75.549 26.7883C75.4408 26.745 75.2461 26.6802 75.0946 26.6586C74.835 26.5936 74.835 26.5719 74.835 25.1222C74.835 23.7158 74.8566 23.651 75.0946 23.5428C75.2245 23.4779 75.3976 23.4346 75.4841 23.4779C75.5707 23.4563 75.7221 23.4995 75.8087 23.4995ZM72.6064 28.1514V29.7092H71.9357H71.265V28.1514V26.5935H71.9357H72.6064V28.1514ZM71.0702 28.2595V29.7959L70.5509 29.8607C70.248 29.904 69.9235 29.9688 69.8369 29.9905C69.6422 30.077 69.6422 29.9472 69.6422 28.5192V26.9613L70.1831 26.8965C70.4644 26.8532 70.7673 26.8099 70.8106 26.7883C70.8755 26.7666 70.962 26.745 71.0053 26.745C71.027 26.7233 71.0702 27.3941 71.0702 28.2595ZM74.0777 26.8316H74.5105V28.3677V29.9041L73.8181 29.839C73.4286 29.7957 73.1041 29.7742 73.1041 29.7525C73.1041 29.7525 73.0608 29.0601 73.0392 28.2162L72.9959 26.6801L73.3204 26.745C73.5152 26.7882 73.8397 26.8316 74.0777 26.8316ZM69.1229 29.9041C69.1013 29.9473 68.8849 29.9904 68.6686 30.0553L68.2791 30.142V28.6707V27.1995L68.7118 27.0913L69.1229 26.9831L69.1662 28.411C69.1662 29.2116 69.1662 29.8824 69.1229 29.9041ZM75.7221 28.7356C75.7221 30.1203 75.7005 30.2719 75.549 30.2286C75.4408 30.1853 75.2461 30.1203 75.0946 30.0987C74.835 30.0337 74.835 30.0122 74.835 28.4977V26.9613L75.2894 27.0695L75.7437 27.1777V28.7356H75.7221ZM74.0994 30.1635H74.4023V31.1589V32.1541H73.6883H72.9743V31.0941V30.0122L73.407 30.0987C73.6017 30.1203 73.9263 30.1635 74.0994 30.1635ZM71.0702 31.2022V32.2408L70.3562 32.2841L69.6422 32.3272V31.3535V30.3799L70.1182 30.2717C71.1135 30.0553 71.0702 30.0339 71.0702 31.2022ZM72.7362 31.2238V32.2841H72.0655H71.3948V31.2238V30.1635H72.0655H72.7362V31.2238ZM75.7221 31.4617C75.7221 32.2839 75.7005 32.3922 75.549 32.349C75.4408 32.3057 75.2461 32.2841 75.0946 32.2841C74.835 32.2841 74.835 32.2623 74.835 31.2887V30.2935L75.2894 30.4016L75.7437 30.5098V31.4617H75.7221ZM69.1446 32.3272C69.1229 32.3488 68.9282 32.3922 68.6902 32.4138L68.2575 32.4787V31.5484V30.618L68.6902 30.5098L69.1013 30.4016L69.1446 31.332C69.1662 31.8729 69.1662 32.3055 69.1446 32.3272ZM75.8952 32.7168C77.2367 32.9115 77.1718 32.8682 77.1718 33.539C77.1718 34.0799 77.1501 34.1448 76.9554 34.0799C76.7607 34.015 76.739 34.0798 76.739 34.599V35.1833L75.8303 35.1184C73.8397 34.9669 73.8614 34.967 73.8397 34.5126C73.7964 33.9501 73.4935 33.9501 73.4503 34.5126L73.407 34.9454H71.741H70.0749L70.0317 34.599C70.01 34.361 69.9235 34.2313 69.8153 34.2096C69.6422 34.1663 69.6206 34.2529 69.6206 34.6857V35.205H69.1446C68.8849 35.205 68.4089 35.2483 68.0844 35.2699L67.5002 35.3563V34.7723C67.5002 34.3396 67.4569 34.2096 67.3487 34.2096C67.2189 34.2096 67.1756 34.3828 67.154 34.7938C67.1107 35.3131 67.0891 35.3781 66.8511 35.4214C66.6131 35.4647 66.5914 35.443 66.678 35.0968C66.7213 34.9021 66.7862 34.3612 66.8078 33.8635C66.8727 32.8682 66.7213 32.9548 68.6253 32.7817C69.3177 32.7168 70.0966 32.6303 70.3562 32.6086C71.1135 32.4788 75.0946 32.587 75.8952 32.7168ZM77.5179 35.1833C77.5179 35.2482 77.4314 35.2915 77.3449 35.2915C77.2367 35.2915 77.1718 35.1833 77.1718 35.0535C77.1718 34.8588 77.1934 34.8372 77.3449 34.9454C77.4314 35.0103 77.5179 35.1184 77.5179 35.1833ZM73.1473 35.3563C73.2555 35.4429 73.2339 35.5728 73.0608 35.9839C72.8877 36.395 72.8444 36.7411 72.8444 37.6282V38.7318H71.741H70.6375V37.7364C70.6375 36.8276 70.5942 36.6547 70.3129 36.0705L69.9884 35.4214L70.4211 35.3781C71.1784 35.2699 72.9959 35.2698 73.1473 35.3563ZM69.8153 36.0054C70.01 36.5031 70.0533 36.8709 70.0533 37.7797C70.0533 38.9264 70.0533 38.9264 69.7937 38.9264C69.6422 38.9264 69.3609 38.9698 69.1878 38.9914C68.8633 39.0564 68.8416 39.0562 68.8416 38.6451C68.8416 37.9311 68.6253 37.347 67.9762 36.4599C67.5651 35.8757 67.4136 35.5944 67.5218 35.5511C67.8031 35.4646 68.2142 35.4213 68.9066 35.3996L69.5773 35.3781L69.8153 36.0054ZM76.4361 35.5727C76.5876 35.6376 76.501 35.7892 76.0034 36.5032C75.4625 37.2605 75.3759 37.4551 75.2677 38.2124C75.2028 38.6884 75.0946 39.0563 75.0514 39.0563C74.9865 39.0563 74.7268 39.013 74.4239 38.9481C74.1426 38.8832 73.7099 38.8184 73.4719 38.7751L73.0392 38.71V37.6932C73.0392 36.8278 73.0824 36.5896 73.3421 36.0054L73.645 35.3348L74.9432 35.3996C75.6788 35.4645 76.3496 35.5078 76.4361 35.5727ZM67.6084 36.4815C67.9329 36.9575 68.2358 37.52 68.2791 37.7364C68.4305 38.3638 68.5171 39.1645 68.4306 39.1645C68.3873 39.1645 68.2358 39.2077 68.106 39.2294C67.868 39.2943 67.8464 39.2726 67.8464 38.6018C67.8464 37.5849 67.6516 37.0656 67.0242 36.4381C66.4833 35.8972 66.4183 35.5945 66.8078 35.5945C66.9593 35.6161 67.2189 35.8973 67.6084 36.4815ZM77.5179 35.8972C77.4963 36.0054 77.3449 36.2001 77.1718 36.33C76.501 36.7627 76.3496 37.0658 76.3279 38.2342L76.2847 39.2942L75.9385 39.2078C75.7437 39.1645 75.5706 39.1213 75.549 39.0996C75.5274 39.078 75.5706 38.7317 75.6356 38.3206C75.7437 37.6931 75.8736 37.3903 76.3712 36.633C76.8689 35.8973 77.0203 35.7242 77.2583 35.7242C77.4098 35.7242 77.5179 35.7674 77.5179 35.8972ZM72.5632 39.1427C72.6497 39.2076 72.7146 40.8522 72.7579 44.4655L72.8444 49.7231H71.5679H70.2913V48.6846C70.2913 46.759 70.5293 39.2293 70.5726 39.1427C70.6375 39.0346 72.4117 39.0129 72.5632 39.1427ZM70.01 43.7946C69.9668 46.3477 69.9018 48.7495 69.8586 49.1389L69.7937 49.8313H69.2311H68.6686L68.7551 49.2904C68.7984 49.0091 68.8633 46.6724 68.8849 44.0976L68.9498 39.4242L69.296 39.2942C69.4907 39.2077 69.7504 39.1645 69.8586 39.1645C70.0966 39.1645 70.0966 39.2942 70.01 43.7946ZM74.7485 39.3591L75.0297 39.4673L75.1163 44.2273C75.1596 46.8454 75.2245 49.1821 75.2677 49.4201L75.3326 49.8529L74.3157 49.788C73.7532 49.7447 73.2772 49.7015 73.2555 49.6798C73.2339 49.6582 73.1906 47.2566 73.169 44.3573L73.1257 39.0996L73.7964 39.1645C74.1426 39.2294 74.5754 39.3158 74.7485 39.3591ZM68.6902 39.9C68.7767 40.4626 68.6686 47.4946 68.5387 49.0092L68.4738 49.9395H68.0844H67.6949L67.7598 48.2519C67.8031 47.3215 67.8464 45.0063 67.8464 43.0806V39.5972L68.106 39.489C68.5171 39.316 68.6036 39.3807 68.6902 39.9ZM76.0467 39.489C76.2198 39.489 76.2414 39.9217 76.2414 44.7034L76.263 49.918H75.9601H75.6572L75.5923 48.4465C75.4625 45.677 75.3759 40.4194 75.4408 39.8785C75.5057 39.4674 75.5707 39.3591 75.7005 39.4024C75.787 39.4673 75.9385 39.489 76.0467 39.489ZM72.6713 50.1343C72.7795 50.1776 72.8444 50.329 72.8444 50.5886V50.9565H71.5679H70.2913V50.5886C70.2913 50.3722 70.3562 50.1775 70.4428 50.1559C70.6159 50.0477 72.455 50.0478 72.6713 50.1343ZM69.8369 50.5671C69.8369 50.87 69.7937 50.9565 69.6206 50.9565C69.5124 50.9565 69.2527 50.9997 69.058 51.0213C68.7335 51.0863 68.7118 51.0863 68.7118 50.6968C68.7118 50.2641 68.7984 50.1991 69.4691 50.1774C69.8153 50.1774 69.8369 50.1992 69.8369 50.5671ZM74.7052 50.2425C75.2894 50.3291 75.2894 50.3289 75.2894 50.7183V51.108L74.7052 51.0213C74.3806 50.9781 73.9046 50.9565 73.645 50.9565C73.169 50.9565 73.169 50.9349 73.169 50.5671C73.169 50.1776 73.1906 50.1774 73.645 50.1774C73.9046 50.1774 74.3806 50.1992 74.7052 50.2425ZM68.4955 50.6752C68.4955 50.9782 68.4522 51.0647 68.2791 51.0647C68.1493 51.0647 67.9978 51.1079 67.8896 51.1295C67.7382 51.1944 67.7165 51.1078 67.7165 50.8265C67.7165 50.3505 67.7815 50.2856 68.1925 50.2856C68.4738 50.2856 68.4955 50.3074 68.4955 50.6752ZM76.263 50.8698C76.3063 51.2809 76.2847 51.3025 75.9817 51.2593C75.7005 51.216 75.6788 51.1728 75.6356 50.805C75.5923 50.3939 75.6139 50.3723 75.9168 50.4156C76.1981 50.4588 76.2198 50.502 76.263 50.8698ZM69.7937 54.9808C69.7504 57.0147 69.6855 59.135 69.6638 59.6976L69.5989 60.7145L68.9498 60.7578C68.5604 60.7795 68.3007 60.7361 68.3007 60.6712C68.3007 60.6063 68.4089 58.7456 68.5171 56.4954C68.6469 54.2668 68.7335 52.2113 68.7335 51.9084C68.7335 51.3458 68.7118 51.3676 69.6638 51.281C69.8586 51.281 69.8586 51.4324 69.7937 54.9808ZM72.8661 53.9638C72.9093 55.4351 72.9526 57.5557 72.9526 58.6808V60.7145H71.503H70.0317L70.1182 57.7936C70.1615 56.1925 70.2264 54.0721 70.248 53.0768L70.3129 51.281H71.5679H72.8228L72.8661 53.9638ZM74.9432 51.3892H75.3543L75.4408 53.3581C75.549 55.8679 75.7005 59.135 75.787 60.0654L75.8519 60.7794L74.6186 60.7363L73.3853 60.693L73.3204 60.3467C73.2772 60.1519 73.2555 58.0317 73.2339 55.6084L73.2123 51.2377L73.8614 51.3026C74.2292 51.3675 74.7268 51.3892 74.9432 51.3892ZM68.344 52.7956C68.1276 57.7504 68.0627 58.9835 67.9978 59.8057L67.9113 60.7363H67.4569H67.0242L67.0891 60.1521C67.2189 58.9837 67.3704 56.6253 67.4785 54.1371C67.5867 51.4542 67.6084 51.4108 68.1276 51.4108H68.3873L68.344 52.7956ZM76.3063 52.3411C76.3496 52.8387 76.4361 54.5264 76.501 56.1275C76.5659 57.707 76.6525 59.4596 76.6958 60.0006L76.7607 60.9742L76.4361 60.8876C76.263 60.8443 76.1116 60.8012 76.1116 60.8012C76.0899 60.7795 76.0034 59.1135 75.9168 57.0581C75.8303 55.0026 75.7005 52.8821 75.6788 52.3629L75.6139 51.3674L75.9168 51.4108C76.2197 51.454 76.2197 51.454 76.3063 52.3411ZM69.6206 61.3421C69.6206 61.6883 69.5773 61.7315 69.296 61.7315C69.1229 61.7315 68.82 61.7747 68.6253 61.7964C68.3007 61.8613 68.2791 61.8613 68.2791 61.4718C68.2791 61.0823 68.3007 61.0824 68.7118 61.0175C69.6638 60.931 69.6206 60.931 69.6206 61.3421ZM72.9526 61.3421V61.7315H71.4597H69.9668V61.3421V60.9527H71.4597H72.9526V61.3421ZM75.7437 61.2339C75.8086 61.2772 75.8519 61.4502 75.8519 61.6233C75.8519 61.9479 75.8303 61.9479 75.5057 61.883C75.311 61.8397 74.7701 61.8181 74.2724 61.8181H73.3853V61.4069V61.0175L74.5105 61.1039C75.1379 61.1472 75.6788 61.2122 75.7437 61.2339ZM68.0627 61.5584C68.0627 61.9046 68.0195 61.9263 67.6516 61.9912C67.1756 62.0777 67.0674 62.0344 67.0674 61.7315C67.0674 61.4286 67.3704 61.169 67.7382 61.169C68.0195 61.169 68.0627 61.2122 68.0627 61.5584ZM76.739 61.6233C76.739 61.9262 76.6958 62.0776 76.5876 62.0776C76.2198 62.0776 76.0683 61.9263 76.0683 61.5584C76.0683 61.2122 76.1116 61.1906 76.3928 61.1906C76.7174 61.1689 76.739 61.1906 76.739 61.6233ZM72.9959 64.6958C73.0392 66.1454 73.1041 68.1359 73.1257 69.0879L73.2123 70.8404H71.4597H69.7288V70.1482C69.7288 69.0231 69.9668 62.597 70.01 62.3157C70.0533 62.0777 70.0966 62.0776 71.4813 62.0776H72.9093L72.9959 64.6958ZM75.8087 62.2291C75.8303 62.2507 76.501 70.7756 76.501 70.9919C76.501 71.1001 75.3326 71.1002 74.359 71.0137C73.7964 70.9488 73.6017 70.8838 73.5584 70.754C73.5152 70.6458 73.4719 68.6553 73.4286 66.3185L73.3421 62.056L74.5537 62.1427C75.2461 62.1859 75.787 62.2075 75.8087 62.2291ZM69.5124 64.0249C69.4907 66.1236 69.3177 70.7324 69.2527 70.7973C69.1878 70.8622 67.6084 71.0786 67.5651 71.0137C67.5434 70.9921 67.6733 69.088 67.8464 66.7512C68.0195 64.4361 68.1709 62.4887 68.1709 62.4021C68.1709 62.294 68.4305 62.2291 69.2527 62.1642L69.4907 62.1427V64.0249H69.5124ZM67.8896 62.8133C67.8464 63.1162 67.6949 65.0636 67.5434 67.184C67.392 69.3044 67.2189 71.0569 67.1973 71.0786C67.154 71.1218 66.9376 71.1868 66.6996 71.2301C66.2885 71.3166 66.2669 71.2949 66.2669 70.9704C66.2669 70.7757 66.3967 69.3693 66.5265 67.8331C66.678 66.2969 66.8294 64.6092 66.8727 64.09C67.0025 62.359 67.0025 62.359 67.6949 62.3157C67.9329 62.2941 67.9545 62.3157 67.8896 62.8133ZM76.8039 62.4239C76.8905 62.5537 77.4963 69.9751 77.5179 70.8622C77.5179 71.23 77.4747 71.2949 77.2367 71.2949C77.0852 71.2949 76.9338 71.23 76.9121 71.1434C76.8905 71.0785 76.739 69.2611 76.5876 67.1191C76.4361 64.9771 76.2847 63.0081 76.2414 62.7485C76.1981 62.3157 76.1981 62.2724 76.4578 62.2724C76.5876 62.294 76.7607 62.3374 76.8039 62.4239ZM72.931 71.2516C73.1473 71.3165 73.169 71.3814 73.169 72.0738V72.8095H71.3299H69.4907L69.5557 72.4201C69.5989 72.2037 69.6206 71.8791 69.6206 71.6843C69.6206 71.3382 69.6422 71.3381 70.1615 71.2732C71.0919 71.1866 72.6713 71.1867 72.931 71.2516ZM69.2744 71.9223C69.2744 72.2685 69.2311 72.6146 69.1878 72.6796C69.1446 72.7445 68.7767 72.8311 68.3656 72.8744C67.9545 72.9176 67.5218 72.9825 67.4353 73.0041C67.3054 73.069 67.2622 72.9826 67.2838 72.5931C67.3054 71.6411 67.4136 71.4463 67.8247 71.3598C68.0411 71.3165 68.4522 71.2732 68.7551 71.2732L69.2744 71.2516V71.9223ZM76.0683 71.5113C76.6308 71.5978 76.6958 71.7276 76.7174 72.7229C76.739 73.1989 76.7174 73.1989 76.4361 73.1556C76.1548 73.0907 74.121 72.8744 73.7748 72.8744C73.6666 72.8744 73.6234 72.6364 73.6234 72.0955V71.3165L74.597 71.4031C75.1379 71.4031 75.787 71.468 76.0683 71.5113ZM67.1973 72.2901L67.154 73.0474L66.7645 73.134C66.5482 73.1773 66.2669 73.2205 66.1587 73.2638C65.9856 73.3071 65.964 73.2422 66.0289 72.5498C66.0722 72.1387 66.1154 71.7709 66.1371 71.7492C66.1803 71.7059 66.8294 71.5328 67.0674 71.5328C67.1973 71.5112 67.2189 71.6627 67.1973 72.2901ZM77.5829 71.7059C77.6478 71.7492 77.7343 72.1172 77.7776 72.5283C77.8641 73.3505 77.7776 73.437 77.2799 73.1774C77.1069 73.0692 77.0636 72.9393 77.0636 72.3334C77.0636 71.7276 77.1068 71.6195 77.2583 71.6195C77.3665 71.6195 77.5179 71.6626 77.5829 71.7059ZM72.3901 73.1774H73.1473L73.2123 73.8696C73.2555 74.259 73.2988 75.6655 73.3421 76.9853L73.407 79.4087H71.3299H69.2527L69.3177 79.149C69.3609 79.0192 69.4258 77.6128 69.4691 76.055L69.534 73.1989L70.2697 73.1556C70.6591 73.134 71.1568 73.134 71.3299 73.1556C71.503 73.1556 71.979 73.1774 72.3901 73.1774ZM69.2527 74.3241C69.2095 74.9515 69.1446 76.3579 69.1013 77.4181L69.0147 79.3654L67.8464 79.4302C67.1973 79.4735 66.6563 79.4736 66.6347 79.452C66.6131 79.4304 66.7213 78.5215 66.8727 77.4181C67.0242 76.3362 67.1756 75.0813 67.2189 74.6702C67.2622 74.2374 67.3271 73.7614 67.3487 73.5883C67.4136 73.2638 67.4136 73.2638 68.9282 73.1989L69.296 73.1774L69.2527 74.3241ZM75.7221 73.4153C76.2414 73.4802 76.6958 73.5883 76.739 73.6532C76.7823 73.7397 76.8256 73.9345 76.8256 74.1292C76.8256 74.3023 76.977 75.514 77.1501 76.7905C77.5612 79.6682 77.5612 79.6683 77.2367 79.5817C77.0852 79.5385 76.263 79.4735 75.3976 79.4302L73.8181 79.3438L73.7532 79.0624C73.7099 78.9109 73.6666 77.5262 73.6234 75.9684L73.5368 73.1774L74.1426 73.2422C74.5105 73.2855 75.2028 73.3504 75.7221 73.4153ZM66.7213 75.9468C66.5914 77.0286 66.4183 78.262 66.3534 78.6947L66.2236 79.4735L65.6178 79.5602C65.2932 79.6034 64.9903 79.6249 64.9903 79.6033C64.9687 79.5816 65.1634 78.2402 65.4231 76.6175L65.8774 73.675L66.3967 73.5668C66.8727 73.4802 66.916 73.4803 66.9376 73.7183C66.9376 73.8481 66.8511 74.8433 66.7213 75.9468ZM77.9507 74.8432C78.0372 75.4923 78.232 76.8555 78.4051 77.8508C78.5781 78.8677 78.708 79.6898 78.708 79.7115C78.6863 79.7331 78.5132 79.6899 78.3185 79.6466C77.9723 79.5817 77.929 79.5169 77.8425 79.0841C77.6694 78.197 77.1934 74.3025 77.1934 73.9346C77.1934 73.6101 77.215 73.5884 77.4963 73.6316C77.7992 73.6533 77.7992 73.6532 77.9507 74.8432ZM68.9498 80.1226C68.9498 80.4905 68.9282 80.5121 68.6036 80.5121C68.4089 80.5121 67.8247 80.5554 67.3271 80.5987L66.3967 80.6636V80.2741V79.8847L67.0891 79.8414C67.4569 79.8198 68.0411 79.7982 68.3656 79.7765L68.9498 79.7548V80.1226ZM73.3853 80.1226V80.5121H71.265H69.1446V80.1226V79.7332H71.265H73.3853V80.1226ZM76.977 79.9278L77.7127 79.9929V80.3823V80.7717L77.0203 80.7069C76.6308 80.6636 75.7437 80.5986 75.073 80.5554L73.8181 80.4687V80.0793V79.6899L75.0081 79.7765C75.7005 79.8415 76.5659 79.8846 76.977 79.9278ZM66.0505 80.1011C66.0505 80.5122 65.9207 80.5986 65.2932 80.6851C64.709 80.7717 64.6874 80.7717 64.7523 80.5121C64.7956 80.3606 64.8389 80.1876 64.8389 80.1011C64.8389 79.9713 65.1418 79.9062 65.7692 79.863C66.0072 79.863 66.0505 79.9064 66.0505 80.1011ZM78.8378 80.1011C78.8378 80.1876 78.8811 80.3607 78.9027 80.4905C78.9676 80.7285 78.946 80.7502 78.5781 80.7502C78.1887 80.7502 78.0589 80.6202 78.0589 80.1875C78.0589 80.0144 78.1454 79.9711 78.4483 79.9711C78.6863 79.9711 78.8378 80.0145 78.8378 80.1011ZM68.7984 81.4857C68.7551 81.8319 68.6902 82.7407 68.6469 83.4763L68.5604 84.8178L67.7165 84.9043C67.2622 84.9475 66.5482 84.9693 66.1371 84.9693C65.4663 84.9693 65.3798 84.9476 65.4447 84.7745C65.488 84.6663 65.7043 83.7793 65.9207 82.8057L66.3102 81.0314L67.2622 80.9666C67.7815 80.9233 68.344 80.9016 68.5387 80.8799L68.8633 80.8584L68.7984 81.4857ZM73.5584 81.1612C73.5801 81.3343 73.645 82.243 73.6883 83.1518L73.7748 84.8612H71.3731H68.9715L69.0364 84.5582C69.0796 84.3851 69.1229 83.4979 69.1662 82.5675L69.2311 80.8799H71.3731H73.5152L73.5584 81.1612ZM76.5227 81.0314L77.929 81.0963L78.0589 81.9184C78.1454 82.3728 78.3401 83.26 78.5132 83.9091L78.8161 85.0991L77.4747 85.0342C74.5105 84.8828 74.1859 84.8395 74.1426 84.6448C74.121 84.5366 74.0561 83.6495 74.0128 82.6542L73.9263 80.8366L74.5105 80.9015C74.8566 80.9231 75.7437 80.9882 76.5227 81.0314ZM65.7692 81.5506C65.6611 82.2862 65.0552 84.7744 64.947 84.9043C64.9038 84.9475 64.6009 85.0125 64.2763 85.0558C63.7354 85.1207 63.6921 85.0991 63.757 84.926C63.9085 84.5582 64.3845 82.5893 64.4927 81.832L64.6225 81.0963L65.0769 81.053C65.3365 81.0313 65.6178 81.0097 65.6827 80.9881C65.8342 80.9665 65.8342 81.0962 65.7692 81.5506ZM79.4003 82.9354C79.66 83.9523 79.898 84.8611 79.9196 84.926C79.9629 85.0342 79.8547 85.0775 79.5302 85.0775C79.2705 85.0775 79.0542 85.0342 79.0325 84.9909C78.9676 84.9043 78.167 81.356 78.167 81.1829C78.167 81.118 78.3401 81.0747 78.5349 81.0747H78.9027L79.4003 82.9354ZM73.6883 85.2721C73.7532 85.3154 73.8614 85.7914 73.9046 86.3106L73.9912 87.2843H71.3515H68.7335L68.7767 87.0248C68.82 86.895 68.8633 86.4623 68.9066 86.0512C68.9498 85.6617 69.0147 85.2938 69.0364 85.2506C69.0796 85.164 73.5152 85.1639 73.6883 85.2721ZM68.5604 85.7915C68.5171 86.0728 68.4522 86.5054 68.4306 86.7867L68.3656 87.2843H67.6084C67.1973 87.2843 66.3102 87.3277 65.6611 87.3709L64.471 87.4358L64.6874 87.0031C64.7956 86.7651 64.9903 86.3106 65.0769 85.9861C65.2932 85.3154 65.25 85.3372 67.2405 85.2939L68.6036 85.2721L68.5604 85.7915ZM78.6647 85.4885C78.7512 85.5318 78.9676 86.0079 79.1623 86.5488L79.4869 87.544L78.0156 87.4791C75.2677 87.3493 74.2724 87.2843 74.2292 87.2194C74.2075 87.1762 74.1426 86.7217 74.0994 86.2025L74.0128 85.2721L76.2414 85.3588C77.518 85.3804 78.5781 85.4452 78.6647 85.4885ZM64.8172 85.813C64.7523 86.0294 64.6009 86.4839 64.4494 86.8085C64.2114 87.3277 64.1681 87.3926 63.7354 87.4576C63.4758 87.5008 63.2378 87.5223 63.2378 87.5007C63.1728 87.4357 63.6921 85.5752 63.8003 85.5103C63.8652 85.467 64.1465 85.4236 64.4278 85.4236H64.947L64.8172 85.813ZM80.2225 86.2675C80.3524 86.6354 80.5471 87.0897 80.6553 87.2412C80.7634 87.3926 80.8284 87.544 80.8284 87.544C80.8284 87.5656 80.612 87.5656 80.3307 87.544L79.8331 87.5007L79.5302 86.7218C79.3571 86.2675 79.184 85.8348 79.1407 85.7266C79.0542 85.5535 79.0758 85.5317 79.4869 85.5534C79.9845 85.575 79.9845 85.5752 80.2225 86.2675ZM68.344 88.0416C68.106 89.4912 68.0627 89.5778 67.7165 89.7725C67.392 89.924 67.3271 89.9241 66.44 89.5779C65.9423 89.3832 65.1851 89.1234 64.7523 89.0152L63.9734 88.8206L64.233 88.2797L64.4927 87.7603L65.7476 87.717C66.4183 87.6954 67.3054 87.6738 67.6949 87.6522L68.3873 87.6306L68.344 88.0416ZM73.9912 87.717C74.0344 87.7819 74.0777 88.0417 74.121 88.3446L74.2075 88.8855L73.5152 88.7989C72.0439 88.6041 70.724 88.7556 68.6686 89.3831C68.4522 89.448 68.4522 89.448 68.6036 88.6258L68.7767 87.7821L69.4042 87.7388C70.6591 87.6306 73.9479 87.6305 73.9912 87.717ZM63.757 88.2148C63.6056 88.4528 63.4541 88.5826 63.2378 88.6043C62.9132 88.6475 62.8916 88.5609 63.043 88.1282C63.1296 87.9335 63.2594 87.8468 63.519 87.8252C63.7138 87.8036 63.9085 87.8037 63.9301 87.8037C63.9518 87.8253 63.8869 88.0201 63.757 88.2148ZM78.1887 87.9334L79.7033 88.02L79.9845 88.4528C80.136 88.6908 80.2658 88.9071 80.2658 88.9504C80.2658 88.9936 80.0927 89.0152 79.898 89.0152C79.3787 89.0152 77.9074 89.4049 77.1934 89.7294C76.6958 89.9674 76.5876 89.9673 76.3928 89.8591C76.2847 89.7726 75.8087 89.5562 75.3759 89.3831C74.4888 89.0369 74.4023 88.9072 74.3806 88.2148L74.359 87.7821L75.5057 87.847C76.1548 87.8253 77.3665 87.8901 78.1887 87.9334ZM80.8067 87.9334C81.0015 87.9767 81.1962 88.1283 81.326 88.323L81.5207 88.6476H81.0664C80.7202 88.6476 80.5687 88.5825 80.3956 88.3661C80.0278 87.8685 80.1143 87.7819 80.8067 87.9334ZM64.7523 89.2967C65.3581 89.4914 66.1587 89.7942 66.5482 89.9673C67.3271 90.3135 67.3271 90.3135 67.6516 92.0228C67.9978 93.9485 68.0627 97.497 67.7598 99.1413L67.6949 99.5308L67.3704 99.0114C66.7429 97.9945 66.0938 97.5402 65.3365 97.5402C64.3629 97.5402 63.8003 98.0162 62.5021 99.9635C61.9396 100.807 60.7495 102.452 59.8624 103.62L58.2613 105.762H56.7251H55.1673V105.394C55.1673 105.048 55.2106 105.005 55.7082 104.832C56.5304 104.529 57.807 103.836 58.4777 103.295C60.9226 101.413 62.329 98.795 62.4588 95.939C62.567 93.6671 62.0261 92.2824 60.4899 90.7462L59.5163 89.7725L59.8624 89.5346C60.901 88.7557 62.8267 88.6692 64.7523 89.2967ZM74.0561 89.037C74.4455 89.1235 75.1379 89.3831 75.5923 89.5995C76.3063 89.9456 76.4145 90.0323 76.3496 90.227C76.1332 90.9843 75.7221 93.2993 75.6139 94.3595C75.4192 96.1121 75.549 98.6219 75.8952 100.093C76.2414 101.651 76.6308 102.625 77.3016 103.728C77.756 104.464 77.8641 104.723 77.8641 105.135V105.654H76.8039C76.2198 105.654 75.7437 105.632 75.7437 105.589C75.7437 105.091 74.6619 99.2277 74.4888 98.8599C74.0344 97.7997 73.0824 97.194 71.8491 97.194C70.7024 97.2157 69.8153 97.7133 69.3826 98.6004C69.1878 99.0115 69.0364 99.8336 68.7118 102.365C68.4738 104.139 68.2791 105.632 68.2791 105.675C68.2791 105.74 67.8247 105.762 67.2622 105.762H66.2452L66.3102 105.113C66.3534 104.702 66.5265 104.053 66.8727 103.252C67.868 100.894 68.2791 98.622 68.3007 95.7444C68.3007 93.8187 68.1709 92.5854 67.8247 91.0276C67.6516 90.2487 67.6516 90.0107 67.7598 89.9458C68.0627 89.751 69.7071 89.1667 70.3346 89.0152C71.265 88.8205 73.1906 88.8206 74.0561 89.037ZM57.9368 89.7294C59.8408 90.3136 61.4852 92.2824 61.8314 94.4244C62.2857 97.0857 60.9875 100.526 58.8672 102.408C57.8286 103.339 56.1409 104.312 55.0807 104.637C54.6047 104.788 54.6047 104.788 54.6047 105.264V105.741H52.268H49.9312V105.373V105.005L51.251 104.594C54.7995 103.469 57.6339 101.435 58.7157 99.2495C59.4081 97.8215 59.7326 95.528 59.3864 94.2731C58.8888 92.4773 57.3959 91.0491 55.362 90.4649C55.0158 90.3567 54.7129 90.227 54.7129 90.1837C54.7129 90.1188 54.9726 89.9456 55.2971 89.8158C56.0327 89.448 56.9848 89.4265 57.9368 89.7294ZM88.6175 89.9889C88.8772 90.1403 89.1152 90.2918 89.1368 90.3567C89.1585 90.4216 88.6608 90.6164 88.055 90.8328C86.1943 91.4386 85.0691 92.3042 84.42 93.7322C84.1604 94.2947 84.1171 94.4894 84.1171 95.4847C84.1171 96.7829 84.3335 97.5618 85.1341 99.1629C85.5668 100.05 85.7615 100.31 86.7784 101.283C88.5526 102.993 90.3052 104.053 92.7285 104.832C93.832 105.2 93.9834 105.286 93.9834 105.502V105.762H91.6467H89.3099V105.329C89.3099 104.918 89.3099 104.918 88.4661 104.594C85.5019 103.469 83.1218 100.894 82.278 97.8863C81.9535 96.6962 81.9318 94.8789 82.278 93.9052C82.6458 92.845 83.0569 92.1742 83.9008 91.3304C85.0259 90.1836 85.9995 89.7726 87.4059 89.751C87.9685 89.751 88.2497 89.8158 88.6175 89.9889ZM72.8661 97.6483C73.4286 97.7998 74.121 98.4272 74.3157 99.0114C74.4239 99.271 74.6619 100.764 74.8783 102.322C75.0946 103.88 75.311 105.286 75.3326 105.459L75.3976 105.762H72.0006H68.582L68.6469 105.459C68.6902 105.286 68.8633 103.923 69.0364 102.43C69.4042 99.3575 69.5124 98.9682 69.8802 98.4489C70.486 97.67 71.741 97.3454 72.8661 97.6483ZM66.2669 98.1677C66.4833 98.3408 66.8511 98.8167 67.0891 99.2278L67.5002 99.9851L67.3271 100.656C67.0891 101.673 66.5698 103.209 66.1803 103.945C65.9423 104.442 65.8558 104.788 65.8558 105.178V105.741H62.1776C59.2782 105.741 58.521 105.697 58.5859 105.589C58.6508 105.524 59.4081 104.485 60.3168 103.295C61.2039 102.105 62.2425 100.656 62.6319 100.072C63.0214 99.4875 63.519 98.8167 63.7354 98.5787C64.5576 97.7132 65.488 97.5619 66.2669 98.1677ZM79.3354 98.1244C80.0278 98.4489 80.2874 98.7301 81.2611 100.201C81.6938 100.851 82.754 102.344 83.6628 103.534L85.3071 105.697L81.7804 105.741C79.8547 105.762 78.232 105.74 78.2103 105.719C78.1671 105.697 78.1238 105.416 78.0805 105.07C78.0156 104.702 77.8209 104.183 77.4747 103.62C77.215 103.144 76.8039 102.214 76.5659 101.521L76.1548 100.288L76.4578 99.7254C77.0419 98.6435 77.929 97.8648 78.5565 97.8432C78.6863 97.8648 79.0325 97.9946 79.3354 98.1244Z" fill="#737678"/>
<path d="M83.0298 89.0385C83.0947 89.0601 83.2245 89.0601 83.311 89.0385C83.3759 88.9952 83.3327 88.9736 83.1596 88.9736C82.9865 88.9736 82.9648 89.0168 83.0298 89.0385Z" fill="#737678"/>
</svg>
