<svg width="120" height="120" viewBox="0 0 120 120" fill="none" xmlns="http://www.w3.org/2000/svg">
<path d="M60 113.75C83.49 113.75 96.716 113.744 104.109 113.717C107.806 113.703 110.043 113.685 111.376 113.66C112.043 113.648 112.48 113.633 112.76 113.617C112.9 113.609 112.996 113.602 113.061 113.594C113.094 113.59 113.113 113.586 113.122 113.584C113.27 113.501 113.429 113.34 113.554 113.148C113.685 112.947 113.75 112.755 113.75 112.638C113.75 112.524 113.682 112.333 113.545 112.128C113.413 111.93 113.248 111.765 113.106 111.683C113.033 111.648 112.888 111.607 112.682 111.575C112.475 111.544 112.227 111.524 111.972 111.524H110.867V90.9414C110.867 84.1816 110.853 79.065 110.83 75.5957C110.818 73.8611 110.804 72.5388 110.788 71.6289C110.78 71.1737 110.772 70.8225 110.763 70.5752C110.758 70.4519 110.754 70.3558 110.749 70.2861C110.746 70.2324 110.742 70.2029 110.74 70.1904C110.707 70.0847 110.647 69.9555 110.572 69.8369C110.493 69.7113 110.413 69.6216 110.357 69.582L110.354 69.5791C110.284 69.5269 110.236 69.497 110.164 69.4727C110.085 69.4459 109.965 69.422 109.749 69.4043C109.315 69.3686 108.559 69.3613 107.113 69.3613H103.794V52.7861C103.794 45.4914 103.787 41.4052 103.757 39.1094C103.742 37.9608 103.721 37.2652 103.692 36.8418C103.678 36.6297 103.663 36.4926 103.646 36.4043C103.636 36.3479 103.628 36.3205 103.624 36.3105C103.479 36.112 103.474 36.0635 103.318 36.002C103.122 35.9246 102.734 35.8626 101.844 35.8223C100.083 35.7424 96.5073 35.749 88.9883 35.749H74.8848V28.0703C74.8848 26.0268 74.8786 24.1375 74.8652 22.7393C74.8586 22.0402 74.8498 21.4649 74.8398 21.0547C74.8349 20.8494 74.8299 20.6865 74.8242 20.5713C74.8215 20.5172 74.818 20.4754 74.8154 20.4453C74.7915 20.4171 74.7562 20.3766 74.708 20.3242C74.6071 20.2145 74.4589 20.059 74.2695 19.8633C73.8908 19.4718 73.3509 18.9238 72.7021 18.2715C71.4049 16.9671 69.6739 15.246 67.9258 13.5195C66.1777 11.7931 64.4128 10.0618 63.0488 8.7373C62.3668 8.07507 61.7854 7.51514 61.3564 7.1084C61.142 6.905 60.9666 6.74043 60.8359 6.62109C60.7707 6.56147 60.7174 6.51372 60.6768 6.47852C60.6564 6.46089 60.6397 6.44687 60.627 6.43652C60.6206 6.43138 60.6151 6.42767 60.6113 6.4248L60.6064 6.4209L60.5977 6.41406C60.5351 6.36712 60.3981 6.30985 60.2129 6.27637C60.0404 6.24522 59.8546 6.24129 59.6963 6.26953C59.6796 6.28018 59.655 6.29768 59.6211 6.32324C59.547 6.3791 59.4434 6.46415 59.3105 6.57812C59.0457 6.8054 58.6742 7.13991 58.208 7.57324C57.2761 8.43943 55.97 9.69382 54.3828 11.2559L50.1582 15.3848C48.8512 16.6597 47.7513 17.7335 47.1777 18.3076L47.1748 18.3105L45.167 20.2686L45.1416 27.8311L45.1152 35.5L45.1143 35.749H30.7178C23.0653 35.749 19.4304 35.7424 17.6426 35.8223C16.7391 35.8626 16.3455 35.9244 16.1475 36.002C15.9904 36.0635 15.9866 36.1103 15.8408 36.3105C15.8497 36.2978 15.8366 36.3096 15.8193 36.4043C15.8033 36.4926 15.7876 36.6297 15.7734 36.8418C15.7452 37.2653 15.724 37.9608 15.709 39.1094C15.679 41.4052 15.6729 45.4914 15.6729 52.7861V69.3613H12.3525C10.9052 69.3613 10.1509 69.362 9.71582 69.3945C9.4995 69.4107 9.38139 69.4332 9.30469 69.46C9.23723 69.4835 9.19225 69.5133 9.12598 69.5684C9.05902 69.6258 8.97381 69.7298 8.89355 69.8564C8.81693 69.9774 8.75645 70.1017 8.72363 70.1963C8.72225 70.2091 8.71985 70.2356 8.7168 70.2812C8.71225 70.3495 8.70765 70.4448 8.70312 70.5674C8.6941 70.8121 8.68585 71.1611 8.67773 71.6143C8.6615 72.5209 8.64742 73.8416 8.63574 75.5762C8.61239 79.0455 8.59863 84.1684 8.59863 90.9414V111.524H7.76172C7.60588 111.524 7.4281 111.542 7.26465 111.573C7.09921 111.604 6.96589 111.646 6.88867 111.685C6.7382 111.766 6.5742 111.929 6.44629 112.126C6.31508 112.328 6.25 112.52 6.25 112.638C6.25016 112.752 6.31867 112.942 6.45508 113.146C6.58408 113.34 6.74538 113.503 6.88477 113.587C6.89622 113.589 6.91538 113.59 6.94336 113.594C7.00915 113.602 7.10716 113.609 7.24805 113.617C7.52938 113.633 7.96776 113.648 8.63477 113.66C9.96852 113.685 12.2052 113.703 15.9004 113.717C23.2905 113.744 36.51 113.75 60 113.75ZM47.3379 21.1787L47.4131 21.1055L53.5791 15.0664V15.0674C56.2205 12.4768 57.7714 10.9697 58.6895 10.1279C59.1466 9.7087 59.456 9.44582 59.668 9.2959C59.7723 9.2221 59.8683 9.16534 59.9561 9.13379C60.0426 9.10269 60.1716 9.07936 60.293 9.15527L60.292 9.15625C60.3231 9.17571 60.3595 9.20586 60.3809 9.22461C60.4119 9.25181 60.4525 9.28823 60.501 9.33301C60.5983 9.42284 60.7325 9.55006 60.8994 9.70898C61.2334 10.027 61.7001 10.4767 62.2656 11.0244C63.3971 12.1203 64.9261 13.6101 66.5811 15.2266V15.2275L72.5869 21.1055L72.6621 21.1787V111.552H47.3379V21.1787ZM37.3809 90.8076C37.3809 81.8429 37.3743 76.7072 37.3477 73.7695C37.3343 72.3004 37.3158 71.3842 37.291 70.8145C37.2786 70.5293 37.265 70.3352 37.25 70.2041C37.2425 70.1386 37.2353 70.0919 37.2285 70.0596C37.2231 70.0341 37.219 70.022 37.2178 70.0186C37.1546 69.8954 37.1337 69.8404 37.0918 69.7686C37.0598 69.7138 37.0308 69.6796 36.9873 69.6504C36.882 69.5799 36.6569 69.5103 36.0605 69.4648C34.8885 69.3756 32.5017 69.3887 27.4082 69.3887H17.8955V38.001H45.0879V111.552H37.3809V90.8076ZM74.9385 38.0273H101.598V69.415H88.749C85.8739 69.4176 84.3113 69.4316 83.4326 69.501C82.8369 69.548 82.6111 69.6191 82.5049 69.6895C82.408 69.7537 82.4016 69.81 82.2715 70.0547C82.268 70.0665 82.2561 70.1117 82.2432 70.2227C82.2282 70.351 82.2136 70.5428 82.2012 70.8262C82.1764 71.3926 82.1579 72.3072 82.1445 73.7764C82.1179 76.7141 82.1113 81.8561 82.1113 90.834V111.578H74.9385V38.0273ZM10.8486 71.5332H35.1582V111.578H10.8486V71.5332ZM84.334 71.5332H108.645V111.578H84.334V71.5332Z" stroke="white" stroke-width="0.5"/>
<path d="M64.5645 38.0547L64.8379 37.7607L64.8438 37.7539L64.8506 37.7471L65.1445 37.4756V28.2383L64.8027 27.9385L64.4463 27.626H55.4717L55.1455 27.9961L55.1396 28.002L55.1348 28.0078L54.7539 28.3887L54.7803 32.9326L54.8066 37.4746L55.1016 37.7471L55.1084 37.7539L55.1143 37.7607L55.3867 38.0547H64.5645ZM57.0029 29.8789H63.002V35.8828H57.0029V29.8789Z" stroke="white" stroke-width="0.5"/>
<path d="M64.5918 53.791L64.8652 53.4971L64.8711 53.4902L64.8779 53.4844L65.1719 53.2109L65.1982 48.8291V48.8281C65.2116 47.6008 65.2117 46.4469 65.2051 45.5801C65.2017 45.1466 65.1972 44.7847 65.1914 44.5225C65.1885 44.3914 65.1848 44.286 65.1816 44.209C65.1801 44.1704 65.1792 44.1395 65.1777 44.1172C65.1761 44.0925 65.1753 44.0858 65.1758 44.0889C65.1757 44.0883 65.1746 44.0868 65.1738 44.084C65.1728 44.0803 65.1713 44.0748 65.1689 44.0684C65.1641 44.0554 65.1565 44.0384 65.1465 44.0186C65.1262 43.9783 65.0979 43.9306 65.0625 43.8789C64.9931 43.7775 64.9056 43.6723 64.8252 43.5908L64.5498 43.3359H55.415L55.1963 43.5752L55.1855 43.5869L55.1748 43.5967L55.0645 43.709C55.0275 43.7529 54.9911 43.8026 54.957 43.8545C54.8918 43.9538 54.8484 44.0458 54.8291 44.1064C54.8289 44.1096 54.8294 44.1132 54.8291 44.1172C54.8276 44.1396 54.8258 44.1704 54.8242 44.209C54.8211 44.286 54.8183 44.3914 54.8154 44.5225C54.8096 44.7847 54.8041 45.1466 54.8008 45.5801C54.7941 46.4468 54.7943 47.6008 54.8076 48.8281V48.8291L54.834 53.2109L55.1289 53.4844L55.1357 53.4902L55.1416 53.4971L55.4141 53.791H64.5918ZM57.0039 45.5879H63.0029V51.5928H57.0039V45.5879Z" stroke="white" stroke-width="0.5"/>
<path d="M60.0029 69.5557C62.3226 69.5557 63.5264 69.5481 64.2012 69.4512C64.535 69.4032 64.7051 69.3376 64.8096 69.2637C64.9096 69.1929 64.9755 69.097 65.0645 68.9189L65.0674 68.9121L65.0723 68.9053C65.1295 68.807 65.1843 68.6035 65.2148 67.9014C65.2446 67.2166 65.251 66.1069 65.251 64.248C65.251 61.9541 65.2512 60.7842 65.1797 60.127C65.1442 59.8009 65.0938 59.6299 65.0342 59.5195C64.9777 59.415 64.9027 59.3444 64.7617 59.2354L64.7549 59.2305L64.748 59.2246C64.7039 59.1853 64.6169 59.1211 63.9277 59.0869C63.2614 59.0539 62.1009 59.0479 60.0029 59.0479C57.9058 59.0479 56.7514 59.0604 56.0889 59.0967C55.4408 59.1322 55.3127 59.1905 55.2432 59.2373C55.1106 59.345 55.0388 59.4132 54.9834 59.5156C54.9245 59.6248 54.873 59.7942 54.8359 60.1182C54.7613 60.7714 54.7539 61.9416 54.7539 64.248C54.7539 66.1203 54.7603 67.2298 54.79 67.9111C54.8129 68.4353 54.8504 68.677 54.8916 68.8066L54.9336 68.9053L54.9395 68.916C55.028 69.087 55.0937 69.1804 55.1943 69.251C55.2999 69.3248 55.472 69.3919 55.8057 69.4414C56.48 69.5415 57.6845 69.5557 60.0029 69.5557ZM57.0029 61.2998H63.002V67.3037H57.0029V61.2998Z" stroke="white" stroke-width="0.5"/>
<path d="M60.0029 85.2744C61.0389 85.2744 62.0739 85.2625 62.8906 85.2393C63.2993 85.2276 63.6522 85.2136 63.9219 85.1963C64.2033 85.1783 64.367 85.1584 64.4199 85.1436L64.4307 85.1406C64.7084 85.0765 64.8889 84.9339 65.0146 84.7031L65.0205 84.6943C65.0714 84.6093 65.106 84.5386 65.1348 84.4209C65.1655 84.2947 65.1899 84.1087 65.208 83.793C65.2442 83.1606 65.251 82.06 65.251 79.9863C65.251 77.6793 65.2512 76.5024 65.1797 75.8418C65.1442 75.5143 65.0929 75.3431 65.0332 75.2324C64.9767 75.1276 64.9027 75.0564 64.7617 74.9473L64.7549 74.9424L64.748 74.9365C64.7039 74.8973 64.6169 74.833 63.9277 74.7988C63.2614 74.7658 62.1009 74.7598 60.0029 74.7598C57.9058 74.7598 56.7514 74.7723 56.0889 74.8086C55.4409 74.8441 55.3127 74.9024 55.2432 74.9492C55.1104 75.0571 55.0388 75.1255 54.9834 75.2285C54.9245 75.3381 54.873 75.5076 54.8359 75.833C54.7612 76.4897 54.7539 77.6669 54.7539 79.9863C54.7539 82.0614 54.7542 83.1684 54.7871 83.8047C54.8036 84.1232 54.8272 84.3081 54.8584 84.4307C54.8869 84.5425 54.9224 84.6045 54.9746 84.6777L54.9805 84.6855L54.9854 84.6943C55.11 84.9023 55.2955 85.0529 55.5859 85.1436C55.6391 85.1584 55.8028 85.1783 56.084 85.1963C56.3536 85.2135 56.7058 85.2276 57.1143 85.2393C57.9311 85.2625 58.9668 85.2744 60.0029 85.2744ZM57.0029 76.9043H63.002V83.0156H57.0029V76.9043Z" stroke="white" stroke-width="0.5"/>
<path d="M60.001 101.012C61.0369 101.012 62.0719 101 62.8887 100.977C63.2973 100.965 63.6502 100.951 63.9199 100.934C64.2014 100.916 64.365 100.896 64.418 100.881L64.4287 100.878C64.7065 100.814 64.8869 100.671 65.0127 100.44L65.0186 100.432C65.0695 100.347 65.1041 100.276 65.1328 100.158C65.1636 100.032 65.1889 99.8449 65.207 99.5273C65.2432 98.8916 65.25 97.7846 65.25 95.6973C65.25 93.6093 65.2497 92.4962 65.2168 91.8564C65.2003 91.5362 65.1758 91.3506 65.1445 91.2275C65.116 91.1152 65.0815 91.0527 65.0293 90.9795L65.0234 90.9717L65.0186 90.9629C64.8932 90.7537 64.7056 90.6032 64.4121 90.5127L64.4062 90.5107C64.4042 90.5102 64.4011 90.5096 64.3975 90.5088C64.3899 90.5071 64.3799 90.5051 64.3672 90.5029C64.3412 90.4985 64.3075 90.494 64.2656 90.4893C64.1817 90.4797 64.0719 90.4706 63.9385 90.4619C63.6716 90.4446 63.3185 90.4298 62.9072 90.418C62.0854 90.3943 61.0369 90.3816 59.9873 90.3799C58.9377 90.3782 57.8887 90.3877 57.0664 90.4072C56.6551 90.417 56.3016 90.4286 56.0342 90.4434C55.9004 90.4507 55.7898 90.4595 55.7051 90.4678C55.615 90.4766 55.5696 90.4845 55.5557 90.4883L55.5508 90.4893L55.4229 90.5361C55.3755 90.558 55.3241 90.5857 55.2725 90.6182C55.1687 90.6835 55.0851 90.7546 55.041 90.8076L55.0352 90.8145L54.9893 90.877C54.9757 90.9017 54.9631 90.9327 54.9512 90.9785C54.9233 91.0854 54.9001 91.261 54.8818 91.583C54.8637 91.9035 54.8511 92.3511 54.8398 92.9893L54.8057 95.54C54.7923 97.7331 54.7926 98.8805 54.8223 99.5303C54.8371 99.855 54.8583 100.043 54.8857 100.169C54.9107 100.283 54.9408 100.351 54.9854 100.436C55.1067 100.636 55.3139 100.789 55.5859 100.882C55.6412 100.897 55.8043 100.916 56.082 100.934C56.3517 100.951 56.7038 100.965 57.1123 100.977C57.9292 101 58.9648 101.012 60.001 101.012ZM57.001 92.6152H63V98.7266H57.001V92.6152Z" stroke="white" stroke-width="0.5"/>
<path d="M24.0674 50.5537C24.3244 50.811 24.7194 50.8852 25.0928 50.7832C25.4654 50.6814 25.771 50.4169 25.8643 50.0537L25.8662 50.0449L25.8691 50.0371C25.8665 50.0449 25.87 50.0342 25.875 49.9873C25.8794 49.9464 25.8833 49.8912 25.8867 49.8223C25.8936 49.6846 25.8978 49.5015 25.8994 49.2861C25.9027 48.8556 25.8961 48.3037 25.8828 47.7441V47.7412L25.8574 45.7959L25.5146 45.4941L25.5107 45.4912C25.2557 45.2591 25.0465 45.1826 24.7979 45.1826C24.5538 45.1827 24.3144 45.2825 24.0488 45.5L23.7119 45.7949L23.6865 47.7412V47.7441C23.6733 48.3016 23.6731 48.8461 23.6797 49.2705C23.683 49.4828 23.6886 49.6643 23.6943 49.8018C23.7003 49.9456 23.7063 50.0257 23.71 50.0479L23.7168 50.0684C23.7216 50.0814 23.7282 50.0982 23.7383 50.1182C23.7586 50.1586 23.7876 50.2068 23.8232 50.2588C23.8947 50.3631 23.9851 50.4713 24.0674 50.5537Z" stroke="white" stroke-width="0.5"/>
<path d="M30.4424 50.7217C30.8487 50.9347 31.4007 50.8509 31.7549 50.5186L31.7607 50.5137L32.1035 50.2139L32.1299 48.373V48.3711C32.1432 47.7727 32.143 47.2494 32.1299 46.8379C32.1167 46.4251 32.0895 46.1462 32.0576 46.0127C31.8312 45.3015 31.0939 44.9923 30.4717 45.3359L30.4707 45.3369C30.3385 45.4091 30.2578 45.4715 30.1992 45.5459C30.1412 45.6198 30.0905 45.7239 30.0508 45.9004C29.968 46.2692 29.9471 46.8717 29.9336 47.9756C29.9336 49.0765 29.9611 49.7172 30.0479 50.1172C30.0902 50.3123 30.1435 50.434 30.2031 50.5186C30.2605 50.6 30.3341 50.6618 30.4424 50.7217Z" stroke="white" stroke-width="0.5"/>
<path d="M37.2529 50.8271C37.4526 50.8271 37.5774 50.8077 37.6787 50.7676C37.7784 50.728 37.8772 50.66 38.0107 50.5264L38.3115 50.2256V48.085C38.3115 47.4466 38.2975 46.8629 38.2744 46.4209C38.2629 46.1995 38.2498 46.0165 38.2344 45.8809C38.2266 45.8128 38.2183 45.7599 38.2109 45.7217C38.2081 45.7069 38.2058 45.6964 38.2041 45.6895C38.0963 45.5107 37.8769 45.3516 37.5938 45.2686C37.3082 45.1849 36.9939 45.1881 36.7354 45.2959L36.7275 45.2998L36.6289 45.3398C36.5417 45.3795 36.4855 45.4178 36.4434 45.4629C36.3887 45.5214 36.3368 45.6138 36.2959 45.7949C36.2101 46.1752 36.1953 46.8292 36.1953 48.0576V50.2256L36.4961 50.5264C36.6297 50.66 36.7284 50.7281 36.8281 50.7676C36.9294 50.8077 37.0535 50.8271 37.2529 50.8271Z" stroke="white" stroke-width="0.5"/>
<path d="M24.7441 61.0312C24.8577 61.0312 25.048 60.9629 25.2529 60.8262C25.4489 60.6954 25.6132 60.5314 25.6963 60.3906C25.7426 60.2826 25.7842 60.1039 25.8125 59.7607C25.8416 59.4076 25.8555 58.902 25.8555 58.1553C25.8555 57.0227 25.8272 56.3998 25.7188 56.0195C25.6674 55.8395 25.6011 55.729 25.5215 55.6475C25.4596 55.5842 25.3805 55.5286 25.2715 55.4736L25.1523 55.4189L25.1494 55.418C24.8926 55.3037 24.8221 55.2806 24.7568 55.2822C24.6852 55.2841 24.5968 55.3163 24.3125 55.4443H24.3135L24.3076 55.4463C24.1508 55.5127 24.0469 55.5779 23.9697 55.6592C23.8939 55.7391 23.8283 55.8512 23.7764 56.0332C23.6677 56.4142 23.6328 57.0388 23.6328 58.1553C23.6328 58.902 23.6467 59.4076 23.6758 59.7607C23.7044 60.1078 23.7461 60.2869 23.793 60.3945C23.8748 60.5446 24.038 60.7075 24.2334 60.835C24.4349 60.9663 24.6266 61.0312 24.7441 61.0312Z" stroke="white" stroke-width="0.5"/>
<path d="M30.7939 61.0107C30.9909 61.0502 31.2192 61.0159 31.4893 60.875V60.874L31.4971 60.8711C31.6464 60.7994 31.7486 60.7282 31.8252 60.6416C31.901 60.5559 31.9649 60.4397 32.0156 60.2598C32.1213 59.8846 32.1562 59.2856 32.1562 58.2373C32.1562 57.2876 32.1293 56.6611 32.0508 56.2393C31.9731 55.8226 31.8539 55.6549 31.71 55.5615L31.7002 55.5547C31.553 55.4495 31.3458 55.3742 31.1309 55.3418C30.9674 55.3172 30.8181 55.3202 30.7031 55.3428L30.6006 55.3711L30.5898 55.375C30.5628 55.3842 30.4961 55.4258 30.3984 55.5137C30.3535 55.5541 30.3074 55.5988 30.2637 55.6445L30.1406 55.7812C30.0839 55.8496 30.0519 55.8974 30.0283 55.957C30.003 56.021 29.9814 56.113 29.9658 56.2734C29.934 56.602 29.9336 57.1471 29.9336 58.1836C29.9336 59.276 29.934 59.8025 29.9717 60.1104C29.9896 60.257 30.0148 60.3366 30.0439 60.3965C30.0744 60.4591 30.1155 60.5145 30.1943 60.6133C30.3954 60.8501 30.5964 60.9712 30.7939 61.0107Z" stroke="white" stroke-width="0.5"/>
<path d="M37.2842 60.9941C37.5226 60.9916 37.7721 60.8846 37.999 60.6367V60.6357L38.3115 60.2793V56.0312L38.0273 55.7031C37.6822 55.3377 37.2043 55.2278 36.8682 55.3662L36.8604 55.3701L36.8516 55.373C36.8244 55.3823 36.7578 55.4238 36.6602 55.5117C36.6152 55.5522 36.5692 55.5968 36.5254 55.6426L36.4023 55.7793C36.3457 55.8476 36.3136 55.8952 36.29 55.9551C36.2646 56.0195 36.2431 56.1121 36.2275 56.2744C36.1956 56.6064 36.1953 57.1582 36.1953 58.208V60.3438L36.5166 60.6436L36.5186 60.6455C36.7754 60.891 37.0422 60.9967 37.2842 60.9941Z" stroke="white" stroke-width="0.5"/>
<path d="M82.2334 50.8271C82.4331 50.8271 82.5578 50.8077 82.6592 50.7676C82.7589 50.728 82.8577 50.66 82.9912 50.5264L83.292 50.2256V48.085C83.292 47.4466 83.2779 46.8629 83.2549 46.4209C83.2433 46.1995 83.2303 46.0165 83.2148 45.8809C83.2071 45.8128 83.1988 45.7599 83.1914 45.7217C83.1884 45.7062 83.1863 45.6954 83.1846 45.6885C83.1372 45.6069 82.9935 45.4773 82.7793 45.3623C82.5751 45.2527 82.3663 45.1887 82.2246 45.1836C82.0763 45.2113 81.8337 45.2803 81.6904 45.3623C81.6098 45.4084 81.5162 45.4728 81.4355 45.542C81.3927 45.5787 81.3593 45.6128 81.334 45.6416L81.2832 45.7109C81.2822 45.7144 81.2791 45.724 81.2754 45.7422C81.2683 45.7768 81.2606 45.8268 81.2529 45.8926C81.2376 46.024 81.2235 46.2051 81.2119 46.4248C81.1889 46.8633 81.1758 47.4468 81.1758 48.085V50.2256L81.4766 50.5264C81.6101 50.66 81.7088 50.7281 81.8086 50.7676C81.9099 50.8077 82.0339 50.8271 82.2334 50.8271Z" stroke="white" stroke-width="0.5"/>
<path d="M88.6846 50.877C88.9779 50.8379 89.2477 50.6632 89.4111 50.3496V50.3486C89.422 50.3267 89.4446 50.2507 89.4688 50.0996C89.4913 49.9584 89.5113 49.7766 89.5283 49.5654C89.5623 49.1437 89.5829 48.6171 89.5879 48.0869C89.5929 47.5568 89.5829 47.0273 89.5547 46.5996C89.5406 46.3856 89.5221 46.2001 89.5 46.0547C89.4765 45.9001 89.4516 45.8173 89.4375 45.7891L89.4336 45.7812L89.4297 45.7715C89.3192 45.5006 89.0616 45.3057 88.751 45.2334C88.4403 45.1612 88.1094 45.2198 87.8721 45.416L87.8633 45.4229L87.7891 45.4834C87.6237 45.6302 87.5135 45.8246 87.4453 46.1973C87.3639 46.6424 87.3492 47.3118 87.376 48.3965V48.3994L87.4004 50.2393L87.7441 50.54L87.749 50.5439C88.0467 50.819 88.388 50.9164 88.6846 50.877Z" stroke="white" stroke-width="0.5"/>
<path d="M94.4385 50.7832C94.8079 50.8849 95.2027 50.8112 95.46 50.5537C95.5624 50.4512 95.6317 50.3636 95.6836 50.2607C95.7358 50.157 95.7775 50.0239 95.8066 49.8232C95.8664 49.4108 95.8677 48.7657 95.8408 47.6104V47.6074L95.8145 45.7686L95.4717 45.4678C95.2133 45.2581 94.9707 45.1695 94.749 45.1719C94.5267 45.1744 94.289 45.2685 94.043 45.4912L94.04 45.4941L93.6963 45.7949L93.6709 47.7412V47.7441C93.6576 48.3015 93.6574 48.8457 93.6641 49.2734C93.6706 49.6941 93.6839 49.984 93.6943 50.0713C93.7799 50.4247 94.0738 50.6828 94.4385 50.7832Z" stroke="white" stroke-width="0.5"/>
<path d="M82.2529 61.0049C82.4684 61.0049 82.5781 60.9846 82.665 60.9443C82.7537 60.9032 82.8458 60.8297 82.999 60.6641V60.6631L83.3115 60.3066V56.0586L83.0264 55.7295C82.6816 55.3384 82.2039 55.2289 81.8682 55.3672L81.8604 55.3711L81.8516 55.373L81.7822 55.4131C81.7499 55.4356 81.7091 55.4686 81.6602 55.5127C81.6152 55.5532 81.5692 55.5978 81.5254 55.6436L81.4023 55.7803C81.3457 55.8486 81.3136 55.8965 81.29 55.9561C81.2647 56.0201 81.2431 56.1119 81.2275 56.2725C81.1957 56.601 81.1953 57.1461 81.1953 58.1826V60.3066L81.5029 60.6582C81.6589 60.8273 81.7513 60.9027 81.8408 60.9443C81.9277 60.9846 82.0376 61.0049 82.2529 61.0049Z" stroke="white" stroke-width="0.5"/>
<path d="M88.7432 60.9834C88.9387 60.9356 89.1272 60.8135 89.2998 60.5947L89.4961 60.749L89.2998 60.5938L89.3066 60.5869C89.3873 60.4928 89.4275 60.4401 89.457 60.3799C89.4853 60.3222 89.5103 60.2422 89.5283 60.0918C89.5661 59.7769 89.5664 59.2364 89.5664 58.1309V56.0059L89.2852 55.6826C88.9277 55.3291 88.4807 55.2267 87.998 55.4463L87.9951 55.4473C87.8504 55.511 87.7517 55.5789 87.6768 55.665C87.6017 55.7514 87.5368 55.8719 87.4854 56.0615C87.3788 56.4547 87.3438 57.0823 87.3438 58.1572C87.3438 59.2606 87.3794 59.8852 87.4912 60.2725C87.5447 60.4576 87.6124 60.5754 87.6934 60.6621C87.7755 60.7499 87.8854 60.8211 88.0479 60.8936C88.3162 61.0103 88.5469 61.0312 88.7432 60.9834Z" stroke="white" stroke-width="0.5"/>
<path d="M94.5479 61.0244C94.7227 61.0593 94.9039 61.0365 95.1045 60.9473L95.1104 60.9453C95.291 60.8705 95.4113 60.7998 95.5 60.7139C95.5855 60.6309 95.6557 60.5194 95.7109 60.3408C95.8278 59.963 95.8633 59.3419 95.8633 58.21C95.8633 57.064 95.8342 56.4346 95.7256 56.0508C95.6741 55.8691 95.6088 55.7575 95.5293 55.6758C95.4471 55.5914 95.3334 55.5216 95.1602 55.4473L95.1562 55.4453C94.871 55.3168 94.7859 55.2871 94.7148 55.2871C94.6466 55.2872 94.5694 55.3151 94.2988 55.4434L94.29 55.4473L94.1709 55.502C94.0627 55.5567 93.985 55.612 93.9248 55.6758C93.8471 55.7582 93.7825 55.8736 93.7334 56.0674C93.6301 56.4751 93.6137 57.1521 93.6406 58.3916V58.3936L93.665 60.4463L93.9541 60.6924L93.957 60.6953C94.1746 60.8889 94.3697 60.9888 94.5479 61.0244Z" stroke="white" stroke-width="0.5"/>
<path d="M15.9697 82.6318C16.4959 83.2683 17.4602 83.1275 17.7598 82.3779L17.7617 82.375C17.7835 82.3228 17.8087 82.2237 17.833 82.0742C17.8566 81.9292 17.8772 81.7509 17.8936 81.5488C17.9262 81.1447 17.9424 80.6553 17.9424 80.166C17.9424 79.6767 17.9262 79.1911 17.8936 78.7939C17.8772 78.5952 17.8565 78.4217 17.833 78.2822C17.8094 78.1417 17.7846 78.0536 17.7656 78.0098C17.6286 77.7376 17.4375 77.5559 17.2178 77.459C16.9964 77.3614 16.7281 77.3412 16.4287 77.4219L16.4248 77.4229L16.2988 77.4727C16.2501 77.4966 16.1958 77.5272 16.1406 77.5645C16.0303 77.6391 15.9433 77.7202 15.9004 77.7803L15.8965 77.7852C15.8445 77.8546 15.8129 77.9066 15.7881 77.9727C15.762 78.0422 15.7389 78.1402 15.7217 78.3027C15.6867 78.6339 15.6797 79.1799 15.6797 80.2002C15.6797 81.2931 15.6801 81.8178 15.7207 82.124C15.7399 82.2689 15.7661 82.3468 15.7969 82.4053C15.8302 82.4686 15.8766 82.5249 15.9658 82.6279L15.9697 82.6318Z" stroke="white" stroke-width="0.5"/>
<path d="M28.2559 82.377C28.5657 83.0698 29.4148 83.2371 29.9453 82.7412L30.0479 82.6328L30.0508 82.6289C30.1399 82.5259 30.1864 82.4697 30.2197 82.4062C30.2505 82.3475 30.2766 82.2688 30.2959 82.1221C30.3365 81.8123 30.3369 81.2803 30.3369 80.1738C30.3369 79.1093 30.3365 78.5733 30.3018 78.2568C30.285 78.1042 30.2618 78.0209 30.2354 77.9619C30.209 77.9033 30.1728 77.8526 30.1025 77.7695C29.9918 77.6387 29.8069 77.5197 29.5898 77.4434C29.4274 77.3863 29.2616 77.3588 29.1152 77.3613L28.9756 77.374L28.9648 77.376C28.8502 77.3915 28.6735 77.4946 28.499 77.6846C28.372 77.8229 28.2689 77.9822 28.208 78.1318L28.1621 78.2773C28.0892 78.6495 28.0675 79.5589 28.0908 80.4609C28.1024 80.9083 28.1246 81.3445 28.1553 81.6963C28.1706 81.872 28.1884 82.0243 28.207 82.1455C28.2257 82.2674 28.2432 82.3423 28.2559 82.377Z" stroke="white" stroke-width="0.5"/>
<path d="M23.1416 83.0332L23.2832 83.0039C23.3434 82.9864 23.4388 82.9406 23.543 82.8721C23.6467 82.8038 23.7403 82.7249 23.8008 82.6543L23.8066 82.6484C23.8797 82.5687 23.9147 82.5258 23.9414 82.4727C23.9678 82.42 23.9939 82.341 24.0137 82.1875C24.0545 81.8701 24.0615 81.3157 24.0615 80.1992C24.0615 79.0659 24.0602 78.5204 24.0195 78.207C24.0002 78.0579 23.9745 77.9817 23.9453 77.9277C23.9138 77.8696 23.8705 77.8198 23.7812 77.7236L23.9639 77.5537L23.7803 77.7236L23.7734 77.7148C23.6309 77.5462 23.5558 77.4866 23.4775 77.4541C23.3919 77.4186 23.2712 77.4023 23.0029 77.4023C22.7346 77.4024 22.6065 77.4187 22.5166 77.4551C22.4382 77.4869 22.3642 77.5448 22.2402 77.7061L22.2363 77.7119L22.2314 77.7168L22.126 77.8428C22.0993 77.8775 22.0801 77.9077 22.0635 77.9395C22.0326 77.9986 22.0057 78.0786 21.9863 78.2275C21.9457 78.541 21.9453 79.08 21.9453 80.1992C21.9453 81.318 21.9457 81.8648 21.9834 82.1797C22.0015 82.3309 22.027 82.4074 22.0537 82.46C22.0813 82.5141 22.1186 82.56 22.1982 82.6465C22.4788 82.9474 22.8108 83.076 23.1416 83.0332Z" stroke="white" stroke-width="0.5"/>
<path d="M16.5498 93.1064C16.8521 93.1591 17.1982 93.0733 17.5068 92.8115V92.8105L17.8496 92.5107L17.876 90.6709V90.668C17.8893 90.0698 17.8891 89.5471 17.876 89.1357C17.8626 88.7174 17.8352 88.4361 17.8027 88.3047C17.5763 87.5766 16.844 87.287 16.2178 87.6328L16.2168 87.6338C16.0846 87.706 16.0039 87.7683 15.9453 87.8428C15.8872 87.9167 15.8366 88.0206 15.7969 88.1973C15.714 88.5661 15.6932 89.1688 15.6797 90.2734C15.6797 90.9117 15.6928 91.4544 15.7158 91.8555C15.7273 92.0562 15.7416 92.2183 15.7568 92.3379C15.7645 92.3978 15.7722 92.4442 15.7793 92.4775C15.7873 92.5151 15.7905 92.5224 15.7861 92.5137C15.9661 92.8605 16.2491 93.054 16.5498 93.1064Z" stroke="white" stroke-width="0.5"/>
<path d="M22.2461 92.8213C22.6798 93.2552 23.2984 93.2614 23.7646 92.8174L24.0615 92.5205V88.0781L23.7607 87.7773C23.6271 87.6436 23.5285 87.5747 23.4287 87.5352C23.3274 87.4951 23.2026 87.4766 23.0029 87.4766C22.8035 87.4766 22.6794 87.4951 22.5781 87.5352C22.4783 87.5746 22.3798 87.6435 22.2461 87.7773L21.9453 88.0781V92.5205L22.2461 92.8213Z" stroke="white" stroke-width="0.5"/>
<path d="M29.4199 93.1172C29.7248 93.0619 30.0132 92.8608 30.1934 92.5146C30.1957 92.5072 30.2001 92.4904 30.2061 92.4609C30.2145 92.4195 30.2231 92.3643 30.2314 92.2959C30.248 92.1592 30.2629 91.9806 30.2744 91.7715C30.2974 91.3537 30.3086 90.8266 30.3086 90.2969C30.3086 89.7673 30.2974 89.2386 30.2744 88.8174C30.2629 88.6066 30.2481 88.4255 30.2314 88.2861C30.2231 88.2165 30.2146 88.1595 30.2061 88.1162C30.2018 88.0947 30.1977 88.0777 30.1943 88.0654C30.1924 88.0586 30.1903 88.0543 30.1895 88.0518C30.0679 87.7905 29.803 87.5977 29.4854 87.5244C29.167 87.4511 28.8341 87.5063 28.5977 87.6914L28.5938 87.6943L28.5195 87.7549C28.3543 87.9016 28.2439 88.0955 28.1758 88.4678C28.0944 88.9129 28.0797 89.5829 28.1064 90.668V90.6709L28.1309 92.5098L28.4746 92.8105L28.4795 92.8154C28.7719 93.0856 29.1142 93.1726 29.4199 93.1172Z" stroke="white" stroke-width="0.5"/>
<path d="M15.8916 102.835C16.4303 103.509 17.4716 103.364 17.7617 102.681C17.8124 102.558 17.8571 102.344 17.8867 101.979C17.9159 101.619 17.9287 101.132 17.9287 100.479C17.9287 99.3908 17.8942 98.7654 17.7852 98.377C17.7327 98.1903 17.666 98.0725 17.5889 97.9883C17.5112 97.9036 17.4076 97.8356 17.2539 97.7705L17.2471 97.7676L17.2393 97.7646C16.974 97.6319 16.8383 97.5852 16.7334 97.5762C16.6379 97.568 16.5435 97.5888 16.3506 97.666L16.3438 97.6689L16.3359 97.6709L16.2607 97.7109C16.2275 97.7325 16.1868 97.7627 16.1406 97.8027C16.0536 97.8782 15.9656 97.9722 15.8965 98.0645L15.8887 98.0742L15.8184 98.168C15.8002 98.1963 15.7863 98.224 15.7744 98.2539C15.7491 98.3176 15.7274 98.4089 15.7119 98.5674C15.6801 98.8925 15.6797 99.4303 15.6797 100.453C15.6797 101.46 15.6867 101.999 15.7217 102.327C15.7388 102.488 15.7611 102.584 15.7871 102.653C15.8112 102.717 15.8422 102.768 15.8916 102.835Z" stroke="white" stroke-width="0.5"/>
<path d="M22.9932 103.336C23.2404 103.336 23.5088 103.222 23.749 102.961L24.0615 102.604V98.3564L23.7764 98.0264C23.4316 97.6355 22.9538 97.5267 22.6182 97.665L22.6104 97.668L22.6016 97.6709L22.5322 97.7109C22.5 97.7334 22.4589 97.7657 22.4102 97.8096C22.321 97.8899 22.2292 97.9879 22.1543 98.0752C22.0964 98.1448 22.0639 98.1936 22.04 98.2539C22.0147 98.318 21.9931 98.4099 21.9775 98.5703C21.9457 98.8989 21.9453 99.4434 21.9453 100.479V102.604L22.2568 102.961H22.2578C22.4844 103.222 22.7455 103.336 22.9932 103.336Z" stroke="white" stroke-width="0.5"/>
<path d="M28.2812 102.655C28.5725 103.363 29.609 103.507 30.1475 102.812V102.811L30.1523 102.806C30.2015 102.746 30.231 102.698 30.2549 102.636C30.2804 102.569 30.3031 102.472 30.3203 102.31C30.3553 101.978 30.3623 101.433 30.3623 100.426V98.3008L30.085 97.9814C29.8741 97.7844 29.6659 97.6736 29.459 97.6348C29.2506 97.5957 29.0223 97.6243 28.7676 97.7402L28.7646 97.7422C28.6199 97.806 28.5212 97.8738 28.4463 97.96C28.3712 98.0464 28.3063 98.1668 28.2549 98.3564C28.1483 98.7496 28.1133 99.3771 28.1133 100.452C28.1133 101.104 28.1271 101.591 28.1562 101.951C28.1859 102.317 28.2304 102.532 28.2812 102.654V102.655Z" stroke="white" stroke-width="0.5"/>
<path d="M89.4932 82.6514C89.7955 82.9877 90.1936 83.096 90.5381 83.0244C90.88 82.9532 91.187 82.7015 91.3086 82.2705L91.3096 82.2656C91.34 82.1639 91.3713 81.9129 91.3945 81.5518C91.4171 81.2012 91.4316 80.7737 91.4365 80.3408C91.4415 79.9082 91.4374 79.4724 91.4238 79.1045C91.4102 78.7347 91.3869 78.45 91.3584 78.3037C91.3166 78.1159 91.1959 77.9003 91.0312 77.7207C90.8638 77.5381 90.6819 77.4266 90.542 77.4004L90.5254 77.3965L90.5098 77.3916C90.468 77.3777 90.3798 77.3642 90.2646 77.3672C90.153 77.3701 90.0385 77.3876 89.9473 77.418L89.9375 77.4209L89.9287 77.4238L89.8027 77.4727C89.7539 77.4966 89.6998 77.528 89.6445 77.5654C89.5343 77.64 89.4472 77.7202 89.4043 77.7803L89.4004 77.7852C89.3481 77.8549 89.3168 77.9073 89.292 77.9736C89.2659 78.0432 89.2428 78.1403 89.2256 78.3027C89.1906 78.6339 89.1836 79.1795 89.1836 80.2002V82.3203L89.4902 82.6484L89.4932 82.6514Z" stroke="white" stroke-width="0.5"/>
<path d="M102.236 82.8906C102.715 83.1268 103.202 83.0212 103.555 82.6016L103.557 82.5986L103.841 82.2705L103.816 80.0938C103.803 79.0461 103.789 78.4873 103.751 78.1592C103.732 77.9971 103.71 77.9091 103.687 77.8545C103.667 77.8085 103.642 77.7777 103.6 77.7344C103.47 77.6166 103.264 77.4983 103.05 77.4199C102.944 77.381 102.842 77.3537 102.756 77.3408C102.667 77.3276 102.611 77.3319 102.585 77.3389C102.344 77.409 102.178 77.4806 102.057 77.5713C101.941 77.6578 101.853 77.7713 101.784 77.9492C101.713 78.1338 101.664 78.387 101.634 78.749C101.604 79.1097 101.594 79.5639 101.594 80.1436C101.594 81.2038 101.629 81.8266 101.732 82.2246C101.783 82.4174 101.847 82.546 101.923 82.6416C101.998 82.7368 102.096 82.8146 102.236 82.8906Z" stroke="white" stroke-width="0.5"/>
<path d="M96.291 83.0283C96.5178 83.0742 96.7676 83.0318 97.0283 82.873L97.0312 82.8711C97.1661 82.7913 97.2483 82.7255 97.3076 82.6475C97.366 82.5705 97.4167 82.4634 97.4551 82.2803C97.5352 81.8975 97.5498 81.2668 97.5498 80.0938V78.0332L97.249 77.7334C97.1007 77.598 97.0027 77.5296 96.9033 77.4902C96.8278 77.4604 96.7392 77.4429 96.6094 77.4355L96.4648 77.4316L96.4512 77.4307C96.2135 77.4174 96.1009 77.4288 96.0186 77.4609C95.9413 77.4911 95.8611 77.5519 95.7217 77.7168L95.7197 77.7188L95.6143 77.8447C95.5876 77.8795 95.5684 77.9096 95.5518 77.9414C95.5209 78.0005 95.4939 78.0799 95.4746 78.2285C95.4339 78.5419 95.4336 79.0813 95.4336 80.2012C95.4336 81.18 95.4406 81.7413 95.4727 82.0879C95.5042 82.4289 95.5562 82.5123 95.6104 82.5732H95.6113L95.6172 82.5811C95.829 82.8402 96.062 82.982 96.291 83.0283Z" stroke="white" stroke-width="0.5"/>
<path d="M90.2617 93.1113C90.5084 93.0991 90.7222 93.0379 90.8418 92.9551C91.0521 92.8075 91.1868 92.6292 91.2744 92.2549C91.367 91.8592 91.4014 91.2654 91.4014 90.3018C91.4014 89.3378 91.3671 88.7434 91.2744 88.3477C91.1976 88.0199 91.0852 87.8422 90.917 87.7041L90.8408 87.6475L90.832 87.6406C90.713 87.549 90.5299 87.4911 90.3135 87.4883C90.0993 87.4855 89.8741 87.5373 89.6865 87.6367C89.5562 87.7082 89.4761 87.77 89.418 87.8438C89.3599 87.9176 89.3092 88.0218 89.2695 88.1982C89.1866 88.567 89.1658 89.17 89.1523 90.2744C89.1523 91.3755 89.1799 92.016 89.2666 92.416C89.3089 92.6111 89.3623 92.7328 89.4219 92.8174C89.4782 92.8972 89.5504 92.9578 89.6553 93.0166C89.79 93.084 90.0161 93.1235 90.2617 93.1113Z" stroke="white" stroke-width="0.5"/>
<path d="M95.7656 92.8213C96.1993 93.2552 96.8179 93.2614 97.2842 92.8174L97.5811 92.5205V88.0781L97.2803 87.7773C97.1466 87.6436 97.048 87.5747 96.9482 87.5352C96.8469 87.4951 96.7222 87.4766 96.5225 87.4766C96.3079 87.4766 96.1858 87.4963 96.0898 87.5352C95.9952 87.5735 95.903 87.6399 95.7656 87.7773L95.4648 88.0781V92.5205L95.7656 92.8213Z" stroke="white" stroke-width="0.5"/>
<path d="M102.967 93.1172C103.272 93.0619 103.56 92.8608 103.74 92.5146C103.743 92.5072 103.747 92.4904 103.753 92.4609C103.761 92.4195 103.77 92.3643 103.778 92.2959C103.795 92.1592 103.81 91.9806 103.821 91.7715C103.844 91.3537 103.855 90.8266 103.855 90.2969C103.855 89.7673 103.844 89.2386 103.821 88.8174C103.81 88.6066 103.795 88.4255 103.778 88.2861C103.77 88.2165 103.761 88.1595 103.753 88.1162C103.749 88.0946 103.745 88.0777 103.741 88.0654C103.74 88.0601 103.738 88.0564 103.737 88.0537C103.442 87.4495 102.555 87.3004 102.025 87.7861L102.021 87.7891L101.68 88.0898V92.5117L102.021 92.8105L102.026 92.8154C102.319 93.0856 102.661 93.1726 102.967 93.1172Z" stroke="white" stroke-width="0.5"/>
<path d="M89.4453 102.91C89.9052 103.458 90.7674 103.424 91.1504 102.856H91.1514C91.2184 102.751 91.2714 102.623 91.3086 102.325C91.3467 102.02 91.3665 101.558 91.3799 100.796V100.793C91.4065 99.7789 91.3856 99.0918 91.3066 98.627C91.2274 98.1607 91.0984 97.9736 90.96 97.8838L90.9502 97.877L90.9414 97.8701C90.7938 97.7541 90.5809 97.6678 90.3652 97.6299C90.1429 97.5908 89.9647 97.6113 89.873 97.6572L89.8574 97.665L89.8398 97.6709C89.8127 97.6802 89.746 97.7217 89.6484 97.8096C89.6035 97.8501 89.5574 97.8947 89.5137 97.9404L89.3906 98.0771C89.334 98.1455 89.3019 98.1933 89.2783 98.2529C89.253 98.317 89.2314 98.4088 89.2158 98.5693C89.184 98.8979 89.1836 99.443 89.1836 100.479C89.1836 101.558 89.184 102.085 89.2217 102.396C89.2397 102.545 89.2652 102.628 89.2949 102.69C89.3256 102.755 89.3672 102.812 89.4453 102.91Z" stroke="white" stroke-width="0.5"/>
<path d="M96.5127 103.336C96.76 103.336 97.0284 103.222 97.2686 102.961L97.5811 102.604V98.3564L97.2969 98.0283C96.9032 97.5879 96.4425 97.5091 96.0605 97.7305L96.0537 97.7344C95.8779 97.8292 95.7775 97.8901 95.707 97.9609C95.6453 98.023 95.5959 98.1043 95.5576 98.2588C95.5174 98.4213 95.4927 98.6532 95.4795 99.0078C95.4664 99.36 95.4648 99.8181 95.4648 100.427V102.604L95.7764 102.961H95.7773C96.0039 103.222 96.265 103.336 96.5127 103.336Z" stroke="white" stroke-width="0.5"/>
<path d="M101.762 102.655C102.053 103.363 103.09 103.507 103.628 102.812V102.811L103.633 102.806C103.682 102.746 103.712 102.698 103.735 102.636C103.761 102.569 103.784 102.472 103.801 102.31C103.836 101.978 103.843 101.433 103.843 100.426V98.3008L103.562 97.9775C103.367 97.7849 103.161 97.6749 102.95 97.6357C102.737 97.5963 102.502 97.6248 102.248 97.7402L102.245 97.7422C102.1 97.806 102.002 97.8738 101.927 97.96C101.852 98.0464 101.787 98.1668 101.735 98.3564C101.629 98.7496 101.594 99.3771 101.594 100.452C101.594 101.104 101.608 101.591 101.637 101.951C101.666 102.317 101.711 102.532 101.762 102.654V102.655Z" stroke="white" stroke-width="0.5"/>
</svg>
