<svg width="143" height="108" viewBox="0 0 143 108" fill="none" xmlns="http://www.w3.org/2000/svg">
<g clip-path="url(#clip0_10234_84021)">
<path d="M7.50156 108H4.00156C3.80156 108 3.80156 107.8 4.00156 107.8C5.10156 107.8 6.60156 107.6 7.50156 108Z" fill="#7B7D7E"/>
<path d="M138.801 107.8C139.001 107.8 139.001 108 138.801 108H135.301C136.201 107.5 137.701 107.7 138.801 107.8Z" fill="#7B7D7E"/>
<path d="M3.99922 107.8V108H2.19922C2.49922 107.6 3.39922 107.8 3.99922 107.8Z" fill="#8A8E8E"/>
<path d="M140.199 108H138.699V107.8C139.199 107.8 139.899 107.6 140.199 108Z" fill="#8A8E8E"/>
<path d="M72 0L102.6 18.1L105 19.9V38.8C114.3 39.1 123.6 38.5 132.9 38.8C142.2 39.1 134 39 134.6 39.1C135.9 39.1 139 38.6 139.6 39.9L139.8 104.6C142.7 103.9 144.2 106.6 141.6 108.1H140.4C139.9 108.1 139.4 107.9 138.9 107.9C137.8 107.9 136.6 108 135.4 108.1H7.5C6.3 108 5.1 107.9 4 107.9C3.5 107.9 2.9 108.1 2.2 108.1H1C0.3 108 0.1 107.8 0 107.1V105.6C0.7 104.4 1.8 104.5 3 104.6V44C3.5 42.9 3 40.1 3.6 39.4C4.2 38.7 4.6 38.8 4.7 38.8H37.8V20.4C37.8 20.3 38.3 19.2 38.5 19L70.8 0H72ZM38.2 39.5H4.6C3.9 39.5 3.7 40.8 3.7 41.4V105C3 105 2.2 104.9 1.6 105C0.6 105.2 -0.1 106.6 1 107.1C2.1 107.6 5.7 107.1 6.9 107.2C49.1 108.8 92.1 106.5 134.4 107.5C136.1 106.7 140.4 107.8 141.8 107.1C143.2 106.4 142.4 105.7 142 105.3C141.6 104.9 139.8 105.1 139.1 105V40.1C139.1 40 138.1 39.5 138 39.5H104.6C104.4 32.9 105 26.3 104.3 19.8C93.5 13.2 82.7 6.8 71.7 0.6C60.5 6.4 49.8 13.3 38.8 19.6C38.3 20.3 38.6 22.4 38.6 23.4C38.6 24.4 38.4 24.5 38.3 25.1C38.1 29.9 38.5 34.7 38.3 39.5H38.2Z" fill="#737678"/>
<path d="M41.1031 31.7998H101.603C101.603 31.7998 102.003 32.0998 102.003 32.1998V73.9998C102.003 73.9998 101.703 74.3998 101.603 74.3998H41.1031C41.1031 74.3998 40.7031 74.0998 40.7031 73.9998V32.1998C40.7031 32.1998 41.0031 31.9998 41.1031 31.7998ZM101.203 32.4998H41.4031V73.4998H101.203V32.4998Z" fill="#757879"/>
<path d="M40.8008 21.3998C50.7008 15.0998 61.0008 9.2998 71.2008 3.2998C81.6008 8.9998 91.9008 15.0998 102.001 21.3998V29.1998H40.8008V21.3998ZM101.201 28.7998V21.6998C91.4008 15.5998 81.3008 9.7998 71.3008 4.0998C61.2008 9.7998 51.3008 15.5998 41.4008 21.6998V28.7998H101.201Z" fill="#737678"/>
<path d="M55.701 67.4001C54.401 68.7001 51.801 68.1001 51.301 66.3001C50.801 64.5001 51.101 61.7001 51.301 60.9001C51.801 58.5001 55.201 58.2001 56.201 60.4001C57.201 62.6001 56.801 66.3001 55.701 67.4001ZM55.201 60.3001C54.501 59.5001 52.801 59.6001 52.301 60.7001C52.301 62.4001 51.101 68.8001 54.701 67.1001C58.301 65.4001 55.801 60.9001 55.201 60.3001Z" fill="#737678"/>
<path d="M64.403 59.0994C65.803 58.7994 67.203 59.2994 67.703 60.6994C68.203 62.0994 68.103 65.1994 67.703 66.3994C66.903 68.7994 63.203 68.6994 62.803 66.0994C62.403 63.4994 62.203 59.5994 64.403 59.0994ZM66.703 66.6994C67.303 65.8994 67.403 60.7994 66.103 60.0994C63.103 58.3994 63.203 64.7994 63.803 66.3994C64.403 67.9994 66.003 67.5994 66.703 66.7994V66.6994Z" fill="#737678"/>
<path d="M52.9005 38.0994C54.1005 37.7994 55.5005 38.0994 56.1005 39.2994C56.7005 40.4994 56.7005 43.8994 56.4005 44.9994C55.7005 47.7994 51.7005 47.6994 51.3005 44.7994C50.9005 41.8994 50.8005 38.4994 53.0005 37.9994L52.9005 38.0994ZM55.2005 39.2994C54.7005 38.6994 53.4005 38.5994 52.8005 39.0994C51.8005 39.8994 51.8005 44.4994 52.6005 45.5994C53.4005 46.6994 55.2005 46.1994 55.5005 45.0994C55.8005 43.9994 55.7005 39.7994 55.2005 39.2994Z" fill="#737678"/>
<path d="M64.4005 38.0999C68.2005 37.1999 68.2005 41.5999 68.0005 44.1999C67.6005 48.0999 63.2005 47.8999 62.8005 45.1999C62.4005 42.4999 62.3005 38.5999 64.5005 38.0999H64.4005ZM64.9005 38.7999C62.8005 39.1999 62.8005 46.2999 65.1005 46.2999C67.4005 46.2999 67.1005 42.5999 67.0005 40.8999C66.9005 39.1999 66.3005 38.5999 64.9005 38.7999Z" fill="#737678"/>
<path d="M64.4004 48.5995C68.3004 47.6995 68.5004 52.8995 67.8004 55.4995C67.1004 58.0995 63.2004 58.2995 62.7004 55.4995C62.2004 52.6995 62.2004 49.1995 64.4004 48.6995V48.5995ZM64.9004 49.2995C63.2004 49.5995 63.3004 53.2995 63.5004 54.5995C63.8004 57.2995 66.5004 57.2995 66.9004 55.2995C67.3004 53.2995 67.5004 48.7995 64.9004 49.2995Z" fill="#737678"/>
<path d="M52.8998 48.6001C56.7998 47.7001 56.8998 52.7001 56.3998 55.3001C55.8998 57.9001 51.6998 58.2001 51.2998 55.6001C50.8998 53.0001 51.1998 51.3001 51.2998 50.4001C51.3998 49.5001 52.0998 48.7001 52.8998 48.5001V48.6001ZM53.3998 49.3001C51.4998 49.6001 51.5998 55.1001 52.4998 56.1001C53.3998 57.1001 55.0998 56.6001 55.4998 55.5001C55.8998 54.4001 55.5998 51.8001 55.4998 51.0001C55.3998 49.9001 54.5998 49.0001 53.3998 49.2001V49.3001Z" fill="#737678"/>
<path d="M87.4021 59.1C88.8021 58.8 90.5021 59.4 90.7021 60.9C90.9021 62.4 90.8021 65.5 90.7021 66.3C90.2021 68.5 86.6021 68.6 85.9021 66.5C85.2021 64.4 85.0021 59.6 87.5021 59L87.4021 59.1ZM87.9021 59.8C86.0021 60.1 86.3021 63.9 86.5021 65.4C86.8021 67.6 89.3021 67.9 89.9021 66C90.5021 64.1 90.5021 59.3 87.9021 59.8Z" fill="#737678"/>
<path d="M87.4033 48.5994C88.8033 48.2994 90.5033 48.8994 90.7033 50.3994C90.9033 51.8994 90.8033 54.9994 90.7033 55.7994C90.2033 57.8994 86.7033 58.1994 85.9033 55.9994C85.1033 53.7994 85.5033 51.2994 85.9033 49.9994C86.3033 48.6994 86.9033 48.6994 87.5033 48.5994H87.4033ZM87.9033 49.2994C86.1033 49.5994 86.3033 53.4994 86.5033 54.8994C86.8033 57.2994 89.5033 57.2994 90.0033 55.2994C90.5033 53.2994 90.6033 48.7994 88.0033 49.2994H87.9033Z" fill="#737678"/>
<path d="M87.4021 38.1C88.8021 37.8 90.5021 38.4 90.7021 39.9C90.9021 41.4 90.8021 44.5 90.7021 45.3C90.2021 47.6 86.3021 47.7 85.8021 45.1C85.3021 42.5 85.0021 38.6 87.5021 38L87.4021 38.1ZM87.9021 38.8C86.0021 39.1 86.3021 42.9 86.5021 44.4C86.8021 46.8 89.5021 46.8 90.0021 44.8C90.5021 42.8 90.6021 38.3 88.0021 38.8H87.9021Z" fill="#737678"/>
<path d="M75.8998 59.0994C77.2998 58.7994 78.9998 59.3994 79.1998 60.8994C79.3998 62.3994 79.2998 65.4994 79.1998 66.2994C78.6998 68.5994 74.6998 68.5994 74.2998 66.0994C73.8998 63.5994 74.1998 61.4994 74.2998 60.6994C74.3998 59.8994 75.2998 59.1994 75.8998 59.0994ZM76.3998 59.7994C74.2998 60.1994 74.5998 66.4994 75.9998 67.0994C78.3998 68.1994 78.5998 64.3994 78.4998 62.7994C78.3998 61.1994 78.1998 59.3994 76.3998 59.6994V59.7994Z" fill="#737678"/>
<path d="M76.9029 48.3998C77.7029 48.3998 78.8029 49.0998 79.1029 49.7998C79.4029 50.4998 79.4029 54.8998 79.2029 55.7998C78.7029 57.8998 75.5029 58.0998 74.5029 56.2998C73.5029 54.4998 74.1029 50.8998 74.3029 49.8998C74.5029 48.8998 75.9029 48.2998 76.8029 48.2998L76.9029 48.3998ZM78.2029 56.1998C78.8029 55.3998 78.8029 50.1998 77.6029 49.4998C74.7029 47.7998 74.7029 53.6998 75.1029 55.2998C75.5029 56.8998 77.5029 57.1998 78.2029 56.1998Z" fill="#737678"/>
<path d="M75.8998 38.0994C77.2998 37.7994 78.9998 38.3994 79.1998 39.8994C79.3998 41.3994 79.2998 44.4994 79.1998 45.2994C78.6998 47.6994 74.6998 47.4994 74.2998 45.0994C73.8998 42.6994 74.1998 40.3994 74.2998 39.6994C74.3998 38.9994 75.2998 38.1994 75.8998 38.0994ZM78.1998 45.6994C78.6998 44.8994 78.7998 39.8994 77.6998 39.0994C74.3998 36.5994 73.8998 45.7994 76.3998 46.1994C78.8998 46.5994 77.9998 45.8994 78.1998 45.6994Z" fill="#737678"/>
<path d="M102.002 76.7998V105H82.6016C82.6016 105 82.2016 104.7 82.2016 104.6V90.5998C82.2016 90.1998 80.7016 89.9998 80.3016 89.9998C75.7016 89.5998 66.6016 89.5998 62.0016 89.9998C57.4016 90.3998 60.4016 90.1998 60.4016 90.5998V105H40.6016V76.7998H101.802H102.002ZM101.202 77.1998H41.4016V104.4H59.6016V90.9998C59.6016 90.9998 60.1016 89.6998 60.3016 89.5998C60.6016 89.3998 63.2016 89.0998 63.8016 89.0998C68.3016 88.8998 74.4016 88.7998 78.8016 89.0998C83.2016 89.3998 81.5016 89.2998 81.9016 89.4998C82.3016 89.6998 82.9016 90.1998 82.9016 90.4998V104.4H101.102V77.1998H101.202Z" fill="#737678"/>
<path d="M80.0008 92.5V105H62.8008V92.5H80.0008ZM79.2008 93H63.8008L63.2008 93.6V104.1C63.2008 104.1 63.5008 104.5 63.6008 104.5H79.2008V93Z" fill="#747778"/>
<path d="M38.2 42V105H6V42H38.2ZM37.8 42.8H6.8V104.6H37.8V42.8Z" fill="#747779"/>
<path d="M15.8994 60.8004C17.4994 60.3004 19.0994 61.3004 19.3994 62.9004C19.6994 64.5004 19.5994 68.0004 19.3994 69.0004C18.7994 71.9004 14.6994 71.7004 14.1994 68.8004C13.6994 65.9004 13.9994 64.0004 14.1994 62.9004C14.3994 61.8004 15.1994 61.0004 15.7994 60.8004H15.8994ZM15.5994 62.1004C15.1994 62.5004 15.1994 68.3004 15.2994 69.1004C15.6994 70.9004 18.1994 70.5004 18.4994 69.1004C18.7994 67.7004 18.5994 63.7004 18.4994 62.9004C18.2994 61.7004 16.2994 61.4004 15.5994 62.1004Z" fill="#737678"/>
<path d="M26.6981 47.5997C27.8981 47.2997 29.4981 47.7997 29.9981 48.9997C30.4981 50.1997 30.3981 55.0997 29.9981 56.5997C29.2981 58.6997 25.4981 58.2997 25.0981 55.9997C24.6981 53.6997 24.8981 50.6997 25.0981 49.5997C25.2981 48.4997 25.8981 47.8997 26.6981 47.6997V47.5997ZM27.3981 48.2997C26.2981 48.2997 26.0981 48.8997 25.9981 49.7997C25.8981 50.6997 25.7981 54.7997 25.9981 55.7997C26.2981 57.3997 28.9981 57.5997 29.2981 55.0997C29.5981 52.5997 29.4981 50.5997 29.2981 49.5997C29.0981 48.5997 28.2981 48.1997 27.4981 48.1997L27.3981 48.2997Z" fill="#737678"/>
<path d="M26.7005 74.1003C27.8005 73.8003 29.3005 74.2003 29.9005 75.3003C30.5005 76.4003 30.5005 81.5003 29.9005 82.8003C29.0005 85.3003 25.4005 84.6003 25.0005 82.4003C24.6005 80.2003 24.8005 77.0003 25.0005 76.0003C25.2005 75.0003 25.8005 74.3003 26.6005 74.1003H26.7005ZM27.4005 74.8003C26.3005 74.8003 26.0005 75.4003 25.9005 76.4003C25.8005 77.4003 25.7005 81.4003 25.9005 82.4003C26.2005 84.0003 28.9005 84.2003 29.2005 81.7003C29.5005 79.2003 29.3005 76.7003 29.2005 76.0003C29.1005 75.3003 28.1005 74.8003 27.4005 74.9003V74.8003Z" fill="#737678"/>
<path d="M16.2 74.0998C17.3 73.8998 18.6 74.2998 19.1 75.2998C19.6 76.2998 19.7 81.1998 19.3 82.4998C18.6 85.3998 14.6 85.0998 14.2 81.6998C13.8 78.2998 14 75.7998 14.8 74.7998C15.6 73.7998 15.8 74.1998 16.1 74.0998H16.2ZM15.6 75.2998C15.2 75.7998 15.1 81.4998 15.3 82.2998C15.7 83.9998 18.2 83.7998 18.5 82.2998C18.8 80.7998 18.6 76.6998 18.5 75.8998C18.2 74.5998 16.4 74.4998 15.6 75.2998Z" fill="#737678"/>
<path d="M16.1987 87.3002C17.2987 87.0002 18.4987 87.5002 19.0987 88.5002C19.6987 89.5002 19.6987 94.6002 19.3987 95.7002C18.6987 98.4002 14.5987 98.1002 14.2987 95.1002C13.9987 92.1002 14.0987 90.1002 14.2987 89.1002C14.4987 88.1002 15.4987 87.4002 16.1987 87.2002V87.3002ZM15.5987 88.6002C15.1987 89.1002 15.0987 94.8002 15.2987 95.6002C15.6987 97.3002 18.1987 97.1002 18.4987 95.6002C18.7987 94.1002 18.5987 90.0002 18.4987 89.2002C18.1987 87.9002 16.3987 87.8002 15.5987 88.6002Z" fill="#737678"/>
<path d="M26.7005 87.2996C27.8005 86.9996 29.3005 87.3996 29.9005 88.4996C30.5005 89.5996 30.5005 94.7996 29.9005 95.9996C29.0005 98.1996 25.4005 97.9995 25.0005 95.5995C24.6005 93.1995 24.8005 90.2995 25.0005 89.1995C25.2005 88.0995 25.8005 87.4996 26.6005 87.2996H26.7005ZM27.4005 87.9996C26.8005 87.9996 26.1005 88.3995 26.0005 89.0995C25.9005 89.7995 25.9005 94.3996 26.0005 95.3996C26.2005 97.1996 28.8005 97.1995 29.2005 95.5995C29.6005 93.9995 29.4005 90.5995 29.2005 89.5995C29.0005 88.5995 28.3005 87.9996 27.4005 87.9996Z" fill="#737678"/>
<path d="M15.899 47.6002C16.999 47.3002 18.499 47.6002 19.099 48.6002C19.699 49.6002 19.699 54.7002 19.399 55.9002C18.799 58.7002 14.599 58.9002 14.199 55.2002C13.799 51.5002 13.699 48.3002 15.899 47.6002ZM15.599 48.8002C15.299 49.1002 15.299 49.7002 15.299 50.1002C15.299 51.1002 15.099 55.3002 15.299 56.1002C15.599 57.2002 17.599 57.3002 18.299 56.4002C18.999 55.5002 18.799 53.1002 18.799 52.4002C18.799 51.7002 18.499 49.1002 18.199 48.8002C17.599 48.2002 16.199 48.3002 15.599 48.8002Z" fill="#737678"/>
<path d="M26.6995 60.8004C28.0995 60.4004 29.7995 61.1004 29.9995 62.6004C30.1995 64.1004 30.2995 65.0004 30.2995 65.6004C30.2995 66.2004 30.0995 69.1004 29.8995 69.7004C29.1995 71.9004 25.3995 71.5004 25.0995 69.1004C24.7995 66.7004 24.8995 63.7004 25.0995 62.7004C25.2995 61.7004 25.9995 61.0004 26.6995 60.8004ZM27.3995 61.5004C26.2995 61.5004 25.9995 62.1004 25.8995 63.1004C25.7995 64.1004 25.6995 68.1004 25.8995 69.1004C26.1995 70.7004 28.8995 71.0004 29.1995 68.1004C29.4995 65.2004 29.7995 61.3004 27.3995 61.5004Z" fill="#737678"/>
<path d="M136.802 42V105H104.602V42H136.802ZM136.002 42.8H105.002V104.6H136.002V42.8Z" fill="#747779"/>
<path d="M114.401 74.0997C116.101 73.6997 117.501 74.5997 117.701 76.3997C117.901 78.1997 117.801 81.4997 117.601 82.4997C116.901 85.1997 112.901 85.1997 112.501 81.3997C112.101 77.5997 112.001 74.5997 114.401 74.0997ZM113.801 75.2997C113.401 75.7997 113.301 81.4997 113.501 82.2997C113.901 83.9997 116.401 83.7997 116.701 82.2997C117.001 80.7997 116.801 76.6997 116.701 75.8997C116.401 74.5997 114.601 74.4997 113.801 75.2997Z" fill="#737678"/>
<path d="M114.4 87.3002C116.4 86.8002 117.5 88.0002 117.7 89.9002C117.9 91.8002 117.8 94.5002 117.5 95.7002C116.8 98.5002 112.8 98.3002 112.4 94.9002C112 91.5002 111.9 87.9002 114.3 87.3002H114.4ZM114.9 88.0002C114.4 88.0002 113.6 88.8002 113.5 89.3002C113.3 90.3002 113.4 93.7002 113.5 94.8002C113.7 97.3002 116.3 97.1002 116.7 95.5002C117.1 93.9002 116.9 90.9002 116.7 89.8002C116.5 88.7002 116.2 87.8002 114.9 88.0002Z" fill="#737678"/>
<path d="M114.401 60.8003C115.501 60.5003 116.701 61.0003 117.301 62.0003C117.901 63.0003 117.901 67.7003 117.601 69.0003C116.901 72.2003 112.901 72.0003 112.501 68.1003C112.101 64.2003 112.001 61.3003 114.401 60.8003ZM116.401 62.1003C115.801 61.5003 114.401 61.5003 113.801 62.1003C113.201 62.7003 113.401 68.0003 113.501 68.9003C113.801 70.8003 116.301 70.6003 116.701 69.4003C117.101 68.2003 116.801 64.4003 116.701 63.4003C116.601 62.4003 116.701 62.4003 116.401 62.1003Z" fill="#737678"/>
<path d="M114.401 47.6C115.601 47.3 116.901 47.8 117.401 48.9C117.901 50 117.801 54.9 117.601 56C117.101 58.2 113.601 58.5 112.801 56.5C112.001 54.5 111.801 48.1 114.401 47.5V47.6ZM113.801 48.8C113.401 49.3 113.301 55 113.501 55.8C113.901 57.5 116.401 57.3 116.701 55.8C117.001 54.3 116.801 50.2 116.701 49.4C116.401 48.1 114.601 48 113.801 48.8Z" fill="#737678"/>
<path d="M124.901 60.8003C126.001 60.5003 127.501 61.0003 128.101 62.0003C128.701 63.0003 128.701 68.1003 128.301 69.4003C127.501 71.9003 123.701 71.5003 123.301 69.1003C122.901 66.7003 123.101 63.6003 123.301 62.7003C123.501 61.8003 124.501 61.0003 124.901 60.8003ZM124.601 62.1003C123.901 62.9003 124.001 68.2003 124.301 69.4003C124.601 70.6003 127.201 70.8003 127.501 68.9003C127.801 67.0003 127.701 63.8003 127.501 62.9003C127.301 62.0003 125.401 61.2003 124.601 62.1003Z" fill="#737678"/>
<path d="M124.901 47.6004C126.201 47.3004 127.401 47.6004 128.101 48.8004C128.801 50.0004 128.701 54.5004 128.401 55.8004C127.801 58.8004 123.701 58.4004 123.301 55.6004C122.901 52.8004 123.101 50.5004 123.301 49.4004C123.501 48.3004 124.201 47.7004 124.901 47.5004V47.6004ZM127.201 48.8004C126.501 48.0004 124.601 48.2004 124.301 49.1004C124.001 50.0004 123.901 52.9004 124.001 54.0004C124.101 55.1004 124.201 55.7004 124.401 56.1004C124.901 57.3004 127.101 57.1004 127.401 56.0004C127.701 54.9004 127.501 51.0004 127.401 50.0004C127.301 49.0004 127.401 49.1004 127.101 48.7004L127.201 48.8004Z" fill="#737678"/>
<path d="M124.901 74.1001C126.001 73.8001 127.501 74.3001 128.101 75.3001C128.701 76.3001 128.701 81.1001 128.401 82.3001C127.901 84.5001 124.801 85.1001 123.701 83.3001C122.601 81.5001 123.101 77.1001 123.401 76.0001C123.701 74.9001 124.601 74.3001 125.001 74.1001H124.901ZM127.201 75.3001C126.601 74.7001 125.301 74.5001 124.601 75.3001C123.901 76.1001 123.801 82.0001 124.401 82.9001C125.001 83.8001 127.101 83.5001 127.401 82.3001C127.701 81.1001 127.601 75.8001 127.101 75.3001H127.201Z" fill="#737678"/>
<path d="M124.9 87.2997C125.9 86.9997 127.1 87.2997 127.7 88.0997C128.3 88.8997 128.7 94.6997 128.1 95.9997C127.1 98.3997 123.6 97.9997 123.2 95.5997C122.8 93.1997 123 90.0997 123.2 89.1997C123.4 88.2997 124.4 87.4997 124.8 87.2997H124.9ZM124.6 96.3997C125.1 96.8997 126.7 96.7997 127.2 96.1997C127.7 95.5997 127.8 90.3997 127.5 89.3997C127.2 88.3997 125.6 87.4997 124.6 88.4997C123.6 89.4997 123.8 95.4997 124.6 96.3997Z" fill="#737678"/>
</g>
<defs>
<clipPath id="clip0_10234_84021">
<rect width="143" height="108" fill="white"/>
</clipPath>
</defs>
</svg>
