<svg width="99" height="53" viewBox="0 0 99 53" fill="none" xmlns="http://www.w3.org/2000/svg">
<path d="M93.0988 43.2204C92.4695 43.2209 91.8497 43.3746 91.293 43.6681C90.7363 43.9616 90.2593 44.3862 89.9033 44.9051L84.4854 42.4588C84.8702 41.5295 84.8717 40.4858 84.4895 39.5555L89.9 37.0966C90.4276 37.8597 91.2113 38.4084 92.1088 38.6432C93.0063 38.878 93.9583 38.7833 94.792 38.3764C95.6257 37.9694 96.2859 37.2771 96.653 36.4251C97.02 35.5731 97.0694 34.6177 96.7924 33.7323C96.5154 32.8469 95.9301 32.0901 95.1429 31.5992C94.3557 31.1083 93.4186 30.9158 92.5016 31.0567C91.5847 31.1975 90.7485 31.6624 90.1449 32.3669C89.5413 33.0714 89.2102 33.9689 89.2116 34.8966C89.2152 35.1162 89.2374 35.3351 89.2782 35.5509L83.5265 38.1645C82.9741 37.647 82.2825 37.3021 81.5367 37.1722C80.791 37.0422 80.0235 37.133 79.3286 37.4333C78.6338 37.7335 78.0417 38.2303 77.6253 38.8624C77.2088 39.4945 76.986 40.2345 76.9844 40.9915C76.9827 41.7485 77.2022 42.4895 77.6159 43.1234C78.0296 43.7574 78.6194 44.2567 79.313 44.56C80.0065 44.8633 80.7736 44.9575 81.5199 44.8308C82.2662 44.7042 82.9593 44.3623 83.514 43.8472L89.2807 46.4509C89.2407 46.6665 89.2187 46.885 89.215 47.1043C89.2148 47.8727 89.4425 48.6239 89.8693 49.2628C90.2961 49.9018 90.9028 50.3998 91.6127 50.694C92.3225 50.9881 93.1037 51.0651 93.8573 50.9152C94.611 50.7654 95.3032 50.3954 95.8466 49.852C96.3899 49.3087 96.7599 48.6164 96.9098 47.8628C97.0596 47.1091 96.9826 46.328 96.6885 45.6181C96.3944 44.9083 95.8963 44.3016 95.2574 43.8748C94.6184 43.448 93.8672 43.2202 93.0988 43.2204ZM93.0988 32.6767C93.5379 32.6765 93.9672 32.8066 94.3324 33.0504C94.6976 33.2942 94.9822 33.6409 95.1504 34.0465C95.3185 34.4521 95.3626 34.8985 95.2771 35.3292C95.1915 35.7599 94.9801 36.1555 94.6697 36.4661C94.3593 36.7766 93.9637 36.9881 93.5331 37.0739C93.1024 37.1596 92.656 37.1157 92.2503 36.9477C91.8446 36.7797 91.4979 36.4951 91.2539 36.1301C91.0099 35.765 90.8797 35.3357 90.8797 34.8966C90.8802 34.3081 91.1141 33.7439 91.5301 33.3277C91.9462 32.9115 92.5103 32.6773 93.0988 32.6767ZM80.8912 43.2204C80.4521 43.2206 80.0228 43.0905 79.6576 42.8467C79.2924 42.6029 79.0078 42.2562 78.8396 41.8506C78.6715 41.4449 78.6274 40.9986 78.7129 40.5679C78.7985 40.1372 79.0099 39.7416 79.3203 39.431C79.6307 39.1205 80.0263 38.909 80.4569 38.8232C80.8876 38.7375 81.334 38.7814 81.7397 38.9494C82.1454 39.1174 82.4921 39.4019 82.7361 39.767C82.9801 40.1321 83.1103 40.5614 83.1103 41.0005C83.1096 41.5889 82.8757 42.153 82.4597 42.5692C82.0437 42.9853 81.4796 43.2195 80.8912 43.2204ZM93.0988 49.3242C92.6598 49.3242 92.2306 49.194 91.8655 48.9501C91.5004 48.7062 91.2159 48.3595 91.0479 47.9538C90.8798 47.5482 90.8359 47.1018 90.9215 46.6712C91.0072 46.2406 91.2186 45.845 91.5291 45.5345C91.8396 45.2241 92.2351 45.0127 92.6657 44.927C93.0964 44.8413 93.5427 44.8853 93.9484 45.0533C94.354 45.2213 94.7007 45.5059 94.9447 45.8709C95.1886 46.236 95.3188 46.6652 95.3188 47.1043C95.3183 47.6929 95.0843 48.2573 94.6681 48.6735C94.2519 49.0898 93.6875 49.3238 93.0988 49.3242Z" fill="white"/>
</svg>
