<svg width="288" height="110" viewBox="0 0 288 110" fill="none" xmlns="http://www.w3.org/2000/svg">
<mask id="mask0_755_1034" style="mask-type:luminance" maskUnits="userSpaceOnUse" x="0" y="0" width="288" height="110">
<path d="M280 109.571H8C3.58172 109.571 0 105.99 0 101.571V7.99999C0 3.58172 3.58173 -7.62939e-06 8 -7.62939e-06H280C284.418 -7.62939e-06 288 3.58172 288 7.99999V101.571C288 105.99 284.418 109.571 280 109.571Z" fill="white"/>
</mask>
<g mask="url(#mask0_755_1034)">
<path d="M286.684 16.8951C286.701 16.9591 286.715 17.006 286.727 17.0424C286.75 17.12 286.771 17.1871 286.769 17.2707L286.739 20.923C286.71 24.4811 286.68 28.0388 286.662 31.5984C286.659 32.202 286.31 32.4592 285.983 32.6529C283.974 33.8486 281.966 35.0471 279.958 36.2458C278.009 37.4097 276.059 38.5737 274.107 39.7356C273.977 39.8133 273.838 39.8579 273.69 39.905C273.619 39.9279 273.541 39.9527 273.455 39.9846L273.393 40.0073L273.392 40.0579L273.522 40.1197C273.612 40.1624 273.687 40.1961 273.752 40.2251C273.875 40.2807 273.965 40.3223 274.049 40.3724L277.59 42.4731C280.395 44.1379 283.199 45.8025 286.01 47.455C286.623 47.8163 286.71 48.303 286.714 48.7751C286.737 51.6249 286.77 54.4762 286.803 57.3283C286.823 59.0455 286.842 60.7631 286.86 62.4808C286.863 62.6502 286.84 62.8118 286.815 62.983C286.805 63.0576 286.793 63.1357 286.784 63.2193L286.778 63.2724L287 63.4016L286.909 63.4623L286.906 63.8369L286.821 72.99L286.766 78.94L286.764 79.1114L286.618 79.1988C282.831 81.461 279.077 83.7007 275.259 85.9787L273.661 86.9325L273.618 86.9584C273.681 86.9773 273.728 86.9898 273.764 86.9994C273.838 87.0193 273.896 87.0349 273.96 87.0711L276.707 88.7001C279.878 90.58 283.048 92.4594 286.222 94.3327C286.64 94.5799 286.829 94.9209 286.835 95.4386C286.858 97.8376 286.884 100.236 286.91 102.635C286.936 104.921 286.961 107.207 286.983 109.493C286.985 109.642 286.944 109.773 286.905 109.9C286.89 109.949 286.874 110 286.86 110.055L286.821 110.217L286.995 110.329L286.607 110.587C286.506 110.654 286.416 110.718 286.331 110.777C286.185 110.879 286.046 110.976 285.899 111.06L282.728 112.863C279.931 114.453 277.039 116.097 274.205 117.73C273.905 117.902 273.643 117.983 273.382 117.983C273.123 117.983 272.865 117.904 272.568 117.735C269.59 116.032 266.552 114.317 263.615 112.659L260.924 111.139C260.776 111.056 260.627 110.969 260.455 110.869L260.102 110.664L259.847 110.517L259.718 110.598C259.624 110.657 259.538 110.713 259.458 110.765C259.287 110.875 259.138 110.97 258.985 111.058C257.909 111.671 256.832 112.283 255.755 112.895C253.023 114.447 250.199 116.052 247.433 117.65C247.087 117.852 246.785 117.946 246.486 117.946C246.192 117.946 245.898 117.856 245.561 117.663C242.711 116.021 239.799 114.375 236.983 112.783C235.985 112.219 234.988 111.655 233.991 111.09C233.774 110.966 233.56 110.841 233.231 110.65L233.043 110.54L232.859 110.65L232.86 110.577C232.747 110.652 232.652 110.717 232.568 110.774C232.413 110.881 232.291 110.964 232.164 111.037C231.065 111.663 229.967 112.287 228.868 112.912C226.085 114.495 223.206 116.131 220.385 117.756C220.098 117.922 219.843 118 219.582 118C219.318 118 219.052 117.918 218.743 117.741C216.093 116.227 213.437 114.724 210.78 113.222C209.476 112.484 208.172 111.746 206.868 111.007C206.736 110.933 206.629 110.84 206.506 110.733C206.447 110.682 206.383 110.626 206.308 110.565L206.188 110.469L206.185 110.51L206.14 110.489L206.019 110.553L206.018 110.528L205.943 110.58C205.869 110.631 205.806 110.677 205.749 110.719C205.636 110.801 205.538 110.871 205.429 110.934C204.202 111.633 202.975 112.331 201.748 113.029C199.02 114.58 196.199 116.184 193.434 117.774C193.196 117.911 192.969 117.978 192.743 117.978C192.428 117.978 192.153 117.845 191.949 117.729C189.215 116.174 186.476 114.626 183.737 113.079L180.153 111.053C179.996 110.965 179.841 110.874 179.623 110.746L179.43 110.633L179.269 110.54L179.152 110.61L179.146 110.467L179.018 110.392L179.139 110.308L179.13 110.102C179.123 109.94 179.115 109.8 179.109 109.675C179.096 109.442 179.086 109.258 179.087 109.073L179.119 105.6C179.15 102.355 179.182 98.9983 179.193 95.6971C179.194 95.0007 179.446 94.5707 180.061 94.2134C182.462 92.8026 184.896 91.3474 187.25 89.9402L189.267 88.7349L190.976 87.7138L192.345 86.8962L192.304 86.8723L191.469 86.3899C190.728 85.9624 190.035 85.5631 189.348 85.1565C188.017 84.3709 186.685 83.5839 185.354 82.7968C183.561 81.7363 181.767 80.6758 179.972 79.6182C179.556 79.3737 179.148 79.0759 179.145 78.3708C179.123 75.4661 179.09 72.5612 179.058 69.656C179.038 67.8721 179.017 66.088 179 64.3036C178.998 64.1528 179.04 64.0186 179.08 63.8888C179.097 63.8374 179.114 63.7834 179.128 63.7251L179.22 63.3568L179.557 63.5273C179.633 63.5656 179.703 63.5997 179.769 63.6318C179.916 63.7032 180.043 63.7648 180.169 63.8415L183.451 65.7934C186.22 67.4414 189.084 69.1454 191.908 70.8084C192.296 71.0376 192.517 71.3138 192.608 71.7089L192.61 71.4788L192.612 71.3074L192.758 71.2199C197.076 68.6422 201.338 66.0996 205.754 63.466L206.215 63.1911L206.214 63.2501L206.272 63.2119C206.351 63.1592 206.419 63.1121 206.48 63.0697C206.597 62.9886 206.692 62.9233 206.791 62.8669L210.068 61.0031C212.905 59.3907 215.838 57.7233 218.713 56.0704C218.976 55.9192 219.223 55.8457 219.466 55.8457C219.574 55.8457 219.682 55.86 219.794 55.8894C219.573 55.6636 219.417 55.359 219.413 54.8983C219.391 51.8361 219.356 48.7739 219.321 45.7116C219.303 44.1433 219.285 42.5749 219.269 41.0065C219.267 40.8522 219.3 40.7062 219.332 40.565C219.348 40.4977 219.364 40.4269 219.377 40.3507L219.414 40.1337L219.28 40.0347L219.359 39.9839L219.259 40.0035L219.262 39.6309L219.301 35.3837L219.4 24.6288L219.402 24.4573L219.548 24.37C222.394 22.6722 225.217 20.9864 228.089 19.2715L232.542 16.6125L233.003 16.3373L233.002 16.4029L233.046 16.3746C233.147 16.31 233.237 16.2507 233.321 16.1957C233.491 16.0841 233.635 15.9896 233.784 15.9041C234.892 15.2724 236.001 14.6425 237.11 14.0126C239.832 12.4657 242.647 10.8664 245.404 9.27476C245.716 9.09499 245.988 9.01128 246.262 9.01128C246.534 9.01128 246.805 9.09401 247.117 9.27151C250.002 10.923 252.945 12.5857 255.792 14.1936L258.758 15.8703C258.899 15.9483 259.04 16.0304 259.214 16.1313L259.554 16.3284L259.756 16.4448L259.793 16.4246L259.797 16.4684L259.811 16.4762L259.924 16.3997C260.005 16.3453 260.074 16.2966 260.136 16.2527C260.25 16.1722 260.344 16.1063 260.443 16.0497C261.543 15.423 262.643 14.7972 263.744 14.1714C266.599 12.5474 269.552 10.8681 272.447 9.20031C272.682 9.06548 272.906 9 273.133 9C273.46 9 273.747 9.13934 274.009 9.28986C276.689 10.8151 279.374 12.333 282.058 13.851L285.587 15.8466C285.741 15.9324 285.897 16.0232 286.086 16.1342L286.448 16.3454L286.871 16.5902L286.643 16.7432L286.684 16.8951ZM286.412 48.7774C286.408 48.2984 286.303 47.9806 285.857 47.7178C281.864 45.3696 277.883 42.9975 273.895 40.6342C273.775 40.5624 273.639 40.5119 273.393 40.3948C273.379 40.7454 273.357 40.9706 273.361 41.1946C273.411 45.7344 273.469 50.2754 273.508 54.8169C273.512 55.2935 273.622 55.606 274.066 55.8687C278.034 58.2034 281.989 60.5653 285.947 62.9172C286.095 63.004 286.253 63.0682 286.484 63.1846C286.514 62.916 286.562 62.7009 286.558 62.484C286.511 57.9134 286.449 53.3439 286.412 48.7774ZM219.954 71.0542C219.809 71.1088 219.668 71.1356 219.527 71.1356C219.364 71.1356 219.199 71.1001 219.021 71.0255C219.288 71.2437 219.442 71.5065 219.505 71.8469C219.571 71.5307 219.715 71.276 219.954 71.0542ZM219.073 102.826C219.242 102.77 219.405 102.743 219.57 102.743C219.721 102.743 219.87 102.766 220.027 102.813C219.772 102.595 219.625 102.334 219.566 102.001C219.494 102.334 219.336 102.598 219.073 102.826ZM219.763 72.3017C219.753 76.7582 219.699 81.2142 219.661 85.6708C219.659 85.9507 219.68 86.2311 219.693 86.6109C219.978 86.4778 220.184 86.3987 220.369 86.2882C224.277 83.9595 228.181 81.6266 232.09 79.2997C232.455 79.0817 232.694 78.8707 232.698 78.3716C232.719 73.7129 232.771 69.0549 232.81 64.3945C232.812 64.2305 232.782 64.0641 232.753 63.7611C232.373 63.975 232.121 64.1092 231.877 64.2566C228.092 66.5123 224.317 68.7804 220.521 71.0146C219.988 71.3283 219.765 71.6611 219.763 72.3017ZM273.689 71.054C273.552 71.0972 273.419 71.118 273.284 71.118C273.159 71.118 273.033 71.0994 272.901 71.061C273.128 71.2667 273.232 71.5009 273.28 71.7368C273.336 71.4141 273.499 71.2063 273.689 71.054ZM272.915 102.804C273.065 102.757 273.209 102.735 273.354 102.735C273.518 102.735 273.682 102.764 273.852 102.823C273.59 102.629 273.435 102.394 273.367 102.085C273.308 102.435 273.123 102.65 272.915 102.804ZM273.934 70.6111C277.85 68.3531 281.786 66.1284 285.714 63.8894C285.909 63.78 286.089 63.644 286.426 63.4193C286.04 63.1948 285.797 63.0527 285.552 62.9113C281.715 60.7448 277.872 58.5872 274.047 56.3993C273.768 56.2402 273.523 56.1537 273.274 56.1537C273.048 56.1536 272.819 56.2246 272.555 56.3767C268.691 58.6086 264.803 60.8024 260.925 63.011C260.706 63.1365 260.499 63.2838 260.207 63.4733C260.444 63.6457 260.607 63.7924 260.793 63.8988C264.727 66.1308 268.666 68.3495 272.593 70.5951C272.843 70.7371 273.061 70.8138 273.284 70.8138C273.488 70.8138 273.696 70.7491 273.934 70.6111ZM273.017 72.1965C273.013 71.7324 272.938 71.3967 272.482 71.1299C268.484 68.7804 264.5 66.4041 260.512 64.0374C260.393 63.9655 260.259 63.9156 260.049 63.8151C260.015 64.0843 259.962 64.2971 259.965 64.5104C260.013 69.0835 260.08 73.6577 260.107 78.2307C260.112 78.8077 260.319 79.1108 260.796 79.3913C264.719 81.698 268.628 84.0321 272.542 86.3518C272.686 86.4386 272.846 86.498 273.125 86.6275C273.144 86.2794 273.167 86.0542 273.165 85.8301C273.116 81.2855 273.059 76.7404 273.017 72.1965ZM259.848 78.654C259.8 78.9218 259.679 79.1321 259.467 79.3151C259.595 79.2731 259.72 79.2525 259.847 79.2525C259.966 79.2525 260.08 79.2717 260.187 79.302C260.013 79.1173 259.903 78.9071 259.848 78.654ZM259.939 47.7865L260.054 47.7181C259.97 47.7381 259.887 47.748 259.803 47.748C259.704 47.748 259.61 47.7339 259.521 47.7111C259.652 47.8565 259.74 48.0252 259.789 48.2263L259.791 48.0455L259.793 47.8739L259.939 47.7865ZM272.289 86.4493C268.359 84.2216 264.422 82.0022 260.495 79.768C260.266 79.638 260.062 79.5568 259.847 79.5568C259.68 79.5568 259.507 79.6055 259.311 79.7181C255.318 82.0135 251.313 84.2828 247.313 86.5592C247.169 86.6412 247.038 86.7475 246.761 86.9407C247.081 87.1261 247.277 87.2443 247.477 87.3548C251.41 89.5778 255.344 91.7984 259.274 94.0302C259.502 94.1604 259.707 94.2428 259.924 94.2428C260.09 94.2428 260.264 94.1943 260.46 94.0819C264.451 91.7853 268.455 89.5177 272.456 87.2419C272.6 87.1588 272.732 87.0541 272.951 86.902C272.69 86.7214 272.5 86.5669 272.289 86.4493ZM247.235 86.2805C251.17 83.9375 255.1 81.5839 259.039 79.2468C259.403 79.0311 259.568 78.8036 259.57 78.3632C259.598 73.6737 259.648 68.9818 259.689 64.2911C259.69 64.1788 259.668 64.0641 259.644 63.805C257.397 65.0243 255.3 66.3601 253.163 67.6193C251.007 68.8921 248.863 70.1845 246.699 71.4805C246.653 76.4944 246.609 81.4727 246.562 86.5693C246.848 86.448 247.056 86.3874 247.235 86.2805ZM259.5 63.4621C258.773 63.0397 258.182 62.6914 257.584 62.3545C254.126 60.3942 250.656 58.4529 247.21 56.4736C246.901 56.2963 246.633 56.1993 246.358 56.1993C246.11 56.1993 245.857 56.278 245.565 56.4475C241.755 58.6598 237.918 60.8227 234.091 63.0052C233.847 63.1442 233.612 63.2975 233.298 63.4912C233.508 63.657 233.643 63.8014 233.806 63.8929C237.764 66.1378 241.731 68.3709 245.681 70.6289C245.931 70.771 246.149 70.8469 246.371 70.8469C246.576 70.8469 246.785 70.782 247.024 70.6444C250.94 68.3863 254.876 66.1604 258.803 63.9238C258.998 63.8134 259.177 63.6773 259.5 63.4621ZM246.395 71.661L246.397 71.4776L246.398 71.3064L246.545 71.2189L246.751 71.0951C246.623 71.1329 246.497 71.1511 246.371 71.1511C246.281 71.1511 246.191 71.1416 246.098 71.1221C246.263 71.2881 246.35 71.4733 246.395 71.661ZM246.316 102.617L246.202 102.685C246.294 102.661 246.385 102.649 246.478 102.649C246.56 102.649 246.644 102.659 246.729 102.679C246.587 102.523 246.508 102.352 246.466 102.18L246.464 102.358L246.463 102.529L246.316 102.617ZM246.14 72.0948C246.136 71.6866 246.048 71.3967 245.666 71.1691C241.599 68.7732 237.543 66.3589 233.484 63.95C233.411 63.9049 233.324 63.8882 233.129 63.8151C233.112 64.1342 233.088 64.3594 233.091 64.5817C233.141 69.1226 233.2 73.6612 233.239 78.2022C233.243 78.6769 233.343 78.9979 233.789 79.2604C237.783 81.6111 241.763 83.9844 245.746 86.3517C245.868 86.4248 246.002 86.4777 246.195 86.5705C246.233 86.347 246.293 86.1605 246.29 85.9774C246.243 81.3491 246.184 76.7214 246.14 72.0948ZM232.977 78.6387C232.911 78.9998 232.719 79.2248 232.499 79.3923C232.654 79.3442 232.803 79.321 232.953 79.321C233.123 79.321 233.291 79.3502 233.47 79.4128C233.168 79.1854 233.034 78.9173 232.977 78.6387ZM245.247 86.4059C241.416 84.2335 237.578 82.0753 233.76 79.8832C233.468 79.7158 233.213 79.6253 232.953 79.6253C232.715 79.6252 232.471 79.7013 232.189 79.8642C228.333 82.1008 224.448 84.2899 220.573 86.498C220.376 86.6086 220.191 86.7416 219.929 86.9122C220.087 87.0482 220.191 87.1719 220.323 87.2467C224.378 89.5452 228.439 91.8347 232.494 94.1384C232.673 94.2412 232.837 94.2991 233.004 94.2991C233.146 94.2991 233.292 94.2572 233.451 94.1651C237.546 91.821 241.646 89.4881 245.744 87.1498C245.814 87.1083 245.87 87.0411 246.058 86.8748C245.734 86.6863 245.49 86.5443 245.247 86.4059ZM232.885 48.3325C232.938 48.0004 233.105 47.7891 233.3 47.6352C233.161 47.6791 233.026 47.7002 232.89 47.7002C232.757 47.7002 232.623 47.6792 232.484 47.6358C232.691 47.8261 232.821 48.0516 232.885 48.3325ZM232.89 47.396C233.095 47.396 233.303 47.3314 233.541 47.1944C237.458 44.9365 241.393 42.7106 245.321 40.4715C245.515 40.361 245.694 40.2273 246.035 40.0009C245.649 39.7769 245.406 39.6336 245.161 39.4946C241.324 37.3269 237.481 35.17 233.656 32.9814C233.377 32.8214 233.133 32.7346 232.884 32.7346C232.658 32.7346 232.429 32.8056 232.165 32.9577C228.3 35.1895 224.413 37.3852 220.535 39.5932C220.315 39.7186 220.106 39.8636 219.814 40.0519C220.051 40.2272 220.214 40.374 220.4 40.4798C224.335 42.7105 228.273 44.9305 232.198 47.176C232.449 47.3192 232.668 47.396 232.89 47.396ZM245.626 40.62C241.641 42.994 237.659 45.3743 233.674 47.7488C233.351 47.9384 233.172 48.144 233.168 48.5581C233.142 53.3071 233.095 58.0572 233.055 62.8061C233.054 62.8899 233.076 62.9749 233.114 63.2536C237.485 60.6468 241.753 58.0994 246.074 55.5211C246.119 50.5113 246.165 45.5086 246.212 40.4067C245.966 40.4941 245.78 40.5297 245.626 40.62ZM246.376 55.5239L246.374 55.6954L246.228 55.7829L245.942 55.9531C246.083 55.9141 246.22 55.8951 246.358 55.8951C246.513 55.8951 246.668 55.9189 246.83 55.9691C246.569 55.7379 246.44 55.4796 246.378 55.2133L246.376 55.5239ZM246.743 24.2025C246.601 24.2542 246.462 24.2794 246.322 24.2794C246.139 24.2794 245.973 24.2361 245.822 24.1754C246.095 24.3824 246.249 24.6327 246.303 24.9549C246.373 24.6567 246.515 24.4144 246.743 24.2025ZM246.627 54.6868C246.632 55.262 246.774 55.6286 247.307 55.9388C251.21 58.223 255.093 60.5428 258.982 62.8507C259.151 62.9511 259.334 63.0313 259.584 63.1615C259.626 62.9244 259.687 62.7407 259.686 62.5584C259.638 57.9289 259.579 53.297 259.537 48.6645C259.533 48.2147 259.411 47.9229 259.002 47.6841C255.008 45.325 251.025 42.9493 247.038 40.5803C246.917 40.5083 246.784 40.4596 246.521 40.3384C246.504 40.7216 246.482 40.9742 246.484 41.2268C246.534 45.7136 246.595 50.1988 246.627 54.6868ZM247.201 40.4519C251.209 42.7188 255.217 44.981 259.224 47.2557C259.426 47.3703 259.61 47.4438 259.803 47.4438C259.946 47.4438 260.093 47.4035 260.257 47.3097C264.326 44.9774 268.403 42.66 272.476 40.3373C272.57 40.282 272.651 40.203 272.863 40.0366C272.511 39.831 272.267 39.6866 272.018 39.5458C268.188 37.3764 264.348 35.2199 260.531 33.0236C260.245 32.8586 259.997 32.7753 259.748 32.7753C259.5 32.7753 259.25 32.8584 258.962 33.0261C255.128 35.2472 251.268 37.4232 247.42 39.6171C247.199 39.7419 246.991 39.8886 246.692 40.08C246.904 40.2368 247.043 40.361 247.201 40.4519ZM260.093 48.0483C260.048 53.0474 260.002 58.0459 259.956 63.0575C260.623 62.9138 271.55 56.4879 272.953 55.4302C272.997 50.4727 273.042 45.4813 273.088 40.298C268.666 42.9345 264.405 45.4771 260.093 48.0483ZM273.256 55.2937L273.255 55.4329L273.254 55.5835L273.134 55.6738C273.044 55.7413 272.905 55.8377 272.722 55.9584C272.911 55.8847 273.091 55.8496 273.274 55.8496C273.378 55.8496 273.482 55.8614 273.59 55.8856C273.405 55.7024 273.307 55.501 273.256 55.2937ZM273.332 24.3686C273.4 24.3283 273.468 24.2878 273.535 24.2475C273.41 24.2834 273.288 24.3012 273.166 24.3012C273.068 24.3012 272.97 24.2902 272.87 24.2675C273.04 24.4418 273.133 24.6383 273.182 24.8583L273.184 24.6276L273.186 24.4561L273.332 24.3686ZM286.464 78.9372C286.51 73.9244 286.556 68.9212 286.603 63.8341C286.383 63.9025 286.219 63.9197 286.087 63.9993C282.078 66.3856 278.072 68.782 274.061 71.1667C273.735 71.3621 273.563 71.5737 273.561 71.9837C273.534 76.7326 273.487 81.481 273.449 86.2299C273.448 86.3137 273.469 86.3987 273.507 86.6708C277.879 84.0623 282.149 81.5143 286.464 78.9372ZM286.681 109.496C286.635 104.812 286.577 100.127 286.533 95.4421C286.528 95.0565 286.412 94.798 286.069 94.5953C281.979 92.1816 277.897 89.7579 273.81 87.3358C273.762 87.3079 273.702 87.3019 273.52 87.2467C273.504 87.5402 273.481 87.763 273.484 87.9847C273.533 92.5542 273.59 97.1231 273.629 101.694C273.633 102.149 273.766 102.432 274.17 102.669C278.161 105.024 282.141 107.395 286.125 109.763C286.247 109.836 286.38 109.89 286.567 109.983C286.612 109.799 286.683 109.648 286.681 109.496ZM261.072 110.874C264.956 113.069 268.844 115.256 272.717 117.471C272.96 117.609 273.171 117.679 273.382 117.679C273.595 117.679 273.808 117.608 274.055 117.466C277.943 115.226 281.851 113.016 285.75 110.795C285.965 110.673 286.163 110.518 286.441 110.334C286.148 110.145 285.944 109.998 285.727 109.875C281.847 107.674 277.959 105.488 274.09 103.268C273.823 103.115 273.588 103.039 273.354 103.039C273.113 103.039 272.873 103.12 272.598 103.278C268.736 105.507 264.853 107.703 260.98 109.909C260.764 110.031 260.567 110.187 260.253 110.4C260.593 110.597 260.832 110.739 261.072 110.874ZM260.079 109.971C260.272 109.914 260.437 109.898 260.567 109.821C264.576 107.434 268.577 105.042 272.586 102.657C272.913 102.463 273.083 102.248 273.085 101.842C273.114 97.0952 273.16 92.3517 273.198 87.6051C273.199 87.5195 273.172 87.4339 273.137 87.2141C272.829 87.3727 272.601 87.4767 272.387 87.6027C268.528 89.9053 264.677 92.2144 260.81 94.5021C260.369 94.763 260.164 95.0364 260.162 95.5824C260.144 100.154 260.093 104.727 260.051 109.298C260.051 109.498 260.068 109.699 260.079 109.971ZM259.892 95.2235C259.949 94.924 260.086 94.6861 260.322 94.4784C260.188 94.5245 260.056 94.547 259.924 94.547C259.747 94.547 259.582 94.5047 259.435 94.4469C259.719 94.6766 259.841 94.9454 259.892 95.2235ZM259.731 110.025C259.749 109.703 259.772 109.477 259.772 109.253C259.72 104.714 259.662 100.174 259.622 95.6316C259.619 95.1592 259.526 94.8336 259.078 94.568C255.082 92.2238 251.101 89.8505 247.114 87.4856C246.993 87.4137 246.859 87.362 246.664 87.2681C246.627 87.4921 246.569 87.6781 246.57 87.8623C246.617 92.4894 246.677 97.1166 246.72 101.743C246.724 102.151 246.818 102.443 247.198 102.668C251.265 105.066 255.321 107.48 259.38 109.889C259.453 109.932 259.539 109.952 259.731 110.025ZM234.139 110.825C237.999 113.012 241.867 115.185 245.711 117.399C245.995 117.562 246.241 117.642 246.486 117.642C246.74 117.642 246.992 117.555 247.283 117.386C251.122 115.169 254.984 112.988 258.836 110.793C259.058 110.667 259.269 110.523 259.558 110.34C259.365 110.178 259.237 110.032 259.079 109.946C255.068 107.673 251.055 105.41 247.045 103.136C246.846 103.022 246.665 102.954 246.478 102.954C246.33 102.954 246.178 102.996 246.01 103.091C241.937 105.425 237.856 107.745 233.779 110.07C233.682 110.126 233.599 110.206 233.371 110.38C233.705 110.575 233.921 110.701 234.139 110.825ZM246.162 102.355C246.207 97.3251 246.254 92.3361 246.3 87.1451C241.882 89.7816 237.621 92.3242 233.305 94.8972C233.259 99.8945 233.213 104.894 233.166 110.113C237.611 107.459 241.877 104.913 246.162 102.355ZM233.003 94.8943L233.005 94.7228L233.151 94.6354C233.187 94.6141 233.222 94.5931 233.258 94.5718C233.173 94.5929 233.089 94.6033 233.004 94.6033C232.914 94.6033 232.824 94.5918 232.733 94.568C232.877 94.7346 232.958 94.9149 233.001 95.0999L233.003 94.8943ZM232.896 109.291C232.846 104.718 232.789 100.145 232.748 95.5698C232.743 95.0956 232.636 94.7771 232.19 94.5139C228.241 92.1906 224.311 89.8404 220.373 87.5011C220.207 87.4024 220.027 87.3298 219.735 87.192C219.715 87.5331 219.692 87.7333 219.693 87.933C219.743 92.5061 219.807 97.0791 219.839 101.654C219.843 102.182 220.018 102.489 220.472 102.756C224.396 105.062 228.306 107.392 232.221 109.715C232.387 109.814 232.567 109.888 232.826 110.016C232.856 109.722 232.898 109.506 232.896 109.291ZM207.017 110.742C210.975 112.987 214.941 115.219 218.893 117.477C219.142 117.619 219.36 117.696 219.583 117.696C219.788 117.696 219.996 117.631 220.235 117.492C224.152 115.236 228.088 113.01 232.015 110.773C232.208 110.662 232.388 110.525 232.712 110.311C231.984 109.89 231.394 109.54 230.796 109.201C227.337 107.244 223.869 105.302 220.423 103.322C220.114 103.145 219.845 103.048 219.57 103.048C219.322 103.048 219.07 103.126 218.779 103.295C214.994 105.496 211.182 107.643 207.379 109.811C207.109 109.965 206.844 110.123 206.497 110.328C206.72 110.508 206.853 110.65 207.017 110.742ZM206.301 110.061C206.637 109.884 206.888 109.769 207.125 109.626C210.937 107.355 214.737 105.068 218.562 102.816C219.099 102.501 219.309 102.161 219.31 101.526C219.322 97.0666 219.376 92.6064 219.415 88.1481C219.417 87.8682 219.392 87.5871 219.378 87.2015C219.042 87.3785 218.79 87.4962 218.554 87.6359C214.744 89.9075 210.941 92.1946 207.116 94.4449C206.58 94.7616 206.373 95.1033 206.372 95.7379C206.359 100.196 206.305 104.655 206.267 109.117C206.264 109.394 206.286 109.673 206.301 110.061ZM219.147 86.9365C218.998 86.7933 218.905 86.6513 218.775 86.5782C214.716 84.2774 210.65 81.9861 206.594 79.6811C206.417 79.5822 206.256 79.5294 206.095 79.5294C205.946 79.5294 205.798 79.5738 205.635 79.6675C201.535 82.0134 197.431 84.3493 193.331 86.6905C193.257 86.7315 193.198 86.798 193.026 86.9389C193.312 87.1272 193.515 87.2746 193.733 87.3976C197.592 89.5843 201.458 91.7579 205.304 93.969C205.595 94.1355 205.846 94.222 206.101 94.222C206.345 94.222 206.591 94.1425 206.877 93.9779C210.713 91.7567 214.576 89.5778 218.429 87.3822C218.652 87.2556 218.865 87.1136 219.147 86.9365ZM206.115 95.2638C206.186 94.9307 206.342 94.6669 206.602 94.4393C206.43 94.4981 206.266 94.5263 206.101 94.5263C205.967 94.5263 205.832 94.5073 205.693 94.4682C205.956 94.6938 206.071 94.9578 206.115 95.2638ZM205.983 109.253C205.937 104.709 205.879 100.164 205.837 95.6203C205.834 95.1515 205.747 94.8241 205.295 94.5573C201.321 92.2226 197.363 89.8595 193.4 87.507C193.256 87.422 193.1 87.3573 192.808 87.214C192.798 87.6448 192.784 87.9277 192.786 88.2093C192.836 92.6391 192.9 97.0667 192.923 101.497C192.927 102.151 193.11 102.535 193.694 102.877C197.574 105.141 201.429 107.45 205.294 109.744C205.463 109.844 205.646 109.917 205.921 110.048C205.947 109.735 205.986 109.493 205.983 109.253ZM180.301 110.788C184.233 113.012 188.171 115.231 192.097 117.464C192.326 117.594 192.529 117.674 192.743 117.674C192.911 117.674 193.086 117.624 193.284 117.51C197.274 115.216 201.281 112.948 205.28 110.669C205.425 110.586 205.554 110.481 205.771 110.33C205.533 110.162 205.364 110.025 205.179 109.918C201.223 107.679 197.263 105.442 193.31 103.195C193.083 103.067 192.88 102.988 192.668 102.988C192.498 102.988 192.323 103.038 192.123 103.153C188.132 105.447 184.127 107.715 180.128 109.992C179.982 110.076 179.852 110.183 179.582 110.37C179.906 110.56 180.102 110.676 180.301 110.788ZM192.356 72.1887C192.353 71.676 192.224 71.3474 191.755 71.0711C187.833 68.7613 183.926 66.4267 180.013 64.1021C179.844 63.9994 179.66 63.9197 179.421 63.7991C179.373 63.9934 179.3 64.1461 179.302 64.3006C179.348 68.9913 179.412 73.6796 179.447 78.3692C179.45 78.9075 179.735 79.1268 180.124 79.3556C183.252 81.1983 186.375 83.0499 189.501 84.8942C190.439 85.4492 191.386 85.9906 192.454 86.6086C192.476 86.2704 192.505 86.0447 192.503 85.823C192.453 81.2784 192.393 76.7339 192.356 72.1887ZM189.421 88.9966C186.353 90.828 183.29 92.6683 180.212 94.477C179.707 94.77 179.496 95.0944 179.495 95.6982C179.48 100.158 179.428 104.616 179.389 109.074C179.388 109.354 179.412 109.633 179.432 110.089C183.817 107.469 188.08 104.924 192.376 102.362C192.421 97.3418 192.466 92.3468 192.513 87.1498C191.344 87.8474 190.383 88.4226 189.421 88.9966ZM192.681 102.058L192.679 102.364L192.677 102.536L192.53 102.623C192.474 102.657 192.417 102.691 192.36 102.725C192.463 102.698 192.566 102.684 192.668 102.684C192.798 102.684 192.921 102.707 193.035 102.741C192.859 102.547 192.745 102.325 192.681 102.058ZM192.912 71.4816C192.866 76.5241 192.822 81.4976 192.776 86.4386C192.856 86.4849 192.88 86.5027 192.905 86.5099C192.923 86.5179 192.947 86.5261 192.966 86.5261C192.973 86.5261 192.978 86.5252 192.983 86.523C193.138 86.4481 193.297 86.3786 193.445 86.2936C197.546 83.846 201.647 81.3973 205.771 78.9349C205.816 73.9114 205.861 68.9201 205.908 63.7278C201.492 66.3614 197.23 68.9039 192.912 71.4816ZM206.073 78.9376L206.071 79.1091L205.925 79.1965L205.813 79.2634C205.907 79.2378 206.001 79.2251 206.094 79.2251H206.095C206.173 79.2251 206.25 79.2336 206.329 79.2509C206.193 79.0978 206.116 78.9307 206.074 78.7619L206.073 78.9376ZM206.177 64.4432C206.226 69.0721 206.283 73.6969 206.328 78.3251C206.333 78.734 206.425 79.0228 206.805 79.2503C210.872 81.6456 214.928 84.0622 218.987 86.47C219.059 86.5122 219.146 86.5318 219.339 86.6049C219.357 86.2841 219.382 86.06 219.379 85.836C219.329 81.2962 219.268 76.7546 219.235 72.2149C219.231 71.6866 219.065 71.3776 218.612 71.1103C214.667 68.7893 210.735 66.4463 206.799 64.114C206.651 64.0266 206.494 63.9583 206.275 63.8507C206.236 64.0742 206.176 64.259 206.177 64.4432ZM219.466 56.1499C219.276 56.1499 219.083 56.2082 218.862 56.3346C214.897 58.614 210.915 60.8684 206.94 63.1318C206.795 63.2143 206.66 63.3183 206.438 63.4657C206.656 63.6302 206.811 63.7776 206.992 63.8805C210.974 66.1355 214.959 68.3816 218.936 70.6444C219.147 70.764 219.335 70.8313 219.527 70.8313C219.691 70.8313 219.859 70.7819 220.048 70.6735C224.066 68.3698 228.095 66.0838 232.12 63.7908C232.241 63.7218 232.348 63.6303 232.575 63.4681C232.294 63.2839 232.112 63.1491 231.916 63.0397C227.984 60.8144 224.048 58.5938 220.124 56.3589C219.888 56.2243 219.68 56.1499 219.466 56.1499ZM219.715 54.896C219.719 55.4528 219.972 55.7148 220.403 55.9685C223.905 58.0245 227.398 60.0965 230.895 62.1638C231.461 62.4984 232.031 62.824 232.747 63.2393C232.759 62.8062 232.774 62.5227 232.771 62.241C232.721 57.7554 232.661 53.2696 232.63 48.7822C232.626 48.264 232.48 47.9432 232.018 47.6698C228.095 45.3643 224.186 43.0314 220.273 40.7086C220.103 40.6064 219.922 40.5268 219.674 40.402C219.635 40.6343 219.569 40.8197 219.571 41.0034C219.619 45.6346 219.682 50.2653 219.715 54.896ZM219.702 24.6316C219.655 29.6248 219.61 34.6227 219.564 39.6337C220.216 39.506 231.036 33.1514 232.561 32.0153C232.604 27.0602 232.65 22.067 232.696 16.8742C228.252 19.5273 224.003 22.0658 219.702 24.6316ZM232.863 32.0179L232.862 32.1696L232.741 32.2598C232.649 32.328 232.514 32.4213 232.341 32.5357C232.527 32.4644 232.704 32.4303 232.884 32.4303C232.985 32.4303 233.085 32.4409 233.188 32.4632C233.005 32.28 232.912 32.0763 232.865 31.8699L232.863 32.0179ZM233.01 16.9983C232.993 17.3311 232.967 17.5812 232.97 17.832C233.019 22.3462 233.076 26.8575 233.118 31.3681C233.123 31.8304 233.192 32.1674 233.65 32.4365C237.668 34.7974 241.671 37.1897 245.682 39.5706C245.78 39.6283 245.886 39.6687 246.062 39.7507C246.103 39.5403 246.172 39.3597 246.169 39.1814C246.122 34.527 246.062 29.8707 246.022 25.2156C246.018 24.7824 245.851 24.5323 245.489 24.3178C241.5 21.9641 237.517 19.5932 233.53 17.2323C233.389 17.1493 233.234 17.0976 233.01 16.9983ZM258.61 16.1355C254.727 13.9387 250.839 11.752 246.968 9.53615C246.711 9.38987 246.487 9.31546 246.262 9.31546C246.038 9.31546 245.813 9.38898 245.554 9.53862C241.692 11.768 237.808 13.9607 233.933 16.1682C233.715 16.2936 233.508 16.4392 233.209 16.6311C233.474 16.8129 233.666 16.9662 233.874 17.0869C237.807 19.3128 241.743 21.5322 245.672 23.7635C245.902 23.8935 246.106 23.9753 246.322 23.9753C246.488 23.9753 246.66 23.927 246.857 23.8152C250.847 21.5185 254.853 19.2511 258.853 16.971C258.998 16.8896 259.129 16.785 259.404 16.5925C259.054 16.3911 258.835 16.2598 258.61 16.1355ZM259.538 16.9146C259.158 17.1267 258.905 17.2616 258.659 17.4095C254.877 19.6628 251.101 21.9333 247.305 24.1675C246.77 24.4818 246.553 24.82 246.552 25.4558C246.541 29.9142 246.486 34.3678 246.449 38.8267C246.447 39.1036 246.469 39.3823 246.484 39.7632C246.77 39.6284 246.974 39.5481 247.161 39.4364C251.067 37.1077 254.972 34.7725 258.881 32.4491C259.25 32.2304 259.483 32.0165 259.485 31.5203C259.507 26.8587 259.559 22.2013 259.599 17.5432C259.6 17.3792 259.568 17.2153 259.538 16.9146ZM259.759 31.8167C259.69 32.1647 259.501 32.3827 259.286 32.5455C259.444 32.4952 259.596 32.471 259.748 32.471C259.91 32.471 260.073 32.4987 260.243 32.5562C259.939 32.3443 259.811 32.0863 259.759 31.8167ZM259.878 17.6359C259.927 22.2339 259.984 26.8325 260.028 31.4305C260.031 31.8375 260.112 32.1311 260.497 32.3587C264.562 34.7575 268.618 37.1735 272.677 39.5825C272.75 39.6259 272.835 39.6454 273.037 39.7233C273.055 39.4095 273.08 39.1862 273.077 38.9633C273.026 34.4229 272.968 29.8814 272.928 25.3422C272.923 24.8733 272.841 24.5442 272.389 24.2774C268.394 21.9302 264.415 19.5546 260.43 17.189C260.308 17.1171 260.175 17.0619 259.959 16.9537C259.926 17.2164 259.877 17.4268 259.878 17.6359ZM285.439 16.1118C281.578 13.9263 277.715 11.7485 273.859 9.55405C273.605 9.4081 273.379 9.30418 273.133 9.30418C272.968 9.30418 272.794 9.35126 272.597 9.46433C268.604 11.7645 264.595 14.0338 260.592 16.3144C260.445 16.3982 260.311 16.5052 260.092 16.6525C260.309 16.8189 260.469 16.9734 260.654 17.0774C264.587 19.3074 268.528 21.5262 272.455 23.7693C272.71 23.9143 272.935 23.997 273.166 23.997C273.364 23.997 273.566 23.9368 273.797 23.8039C277.74 21.5333 281.701 19.2937 285.652 17.0406C285.823 16.9443 285.98 16.8225 286.298 16.6092C285.923 16.3922 285.683 16.2473 285.439 16.1118ZM286.392 16.9746C284.184 18.1785 282.084 19.5095 279.946 20.7728C277.793 22.0455 275.647 23.3404 273.486 24.6304C273.441 29.6515 273.396 34.6239 273.351 39.699C273.61 39.6034 273.798 39.5666 273.953 39.4738C277.916 37.1154 281.868 34.748 285.83 32.3908C286.147 32.2031 286.358 32.02 286.36 31.597C286.384 26.8178 286.429 22.0421 286.467 17.264C286.468 17.2087 286.441 17.1546 286.392 16.9746Z" fill="url(#paint0_linear_755_1034)"/>
<path d="M111.684 102.105C111.701 102.041 111.715 101.994 111.727 101.958C111.75 101.88 111.771 101.813 111.769 101.729L111.739 98.077C111.71 94.5189 111.68 90.9612 111.662 87.4016C111.659 86.798 111.31 86.5408 110.983 86.3471C108.974 85.1514 106.966 83.9529 104.958 82.7542C103.009 81.5903 101.059 80.4263 99.107 79.2644C98.9769 79.1867 98.8377 79.1421 98.6904 79.095C98.6191 79.0721 98.5409 79.0473 98.4545 79.0154L98.3929 78.9927L98.3924 78.9421L98.5223 78.8803C98.6122 78.8376 98.687 78.8039 98.7515 78.7749C98.875 78.7193 98.9654 78.6777 99.0494 78.6276L102.59 76.5269C105.395 74.8621 108.199 73.1975 111.01 71.545C111.623 71.1837 111.71 70.697 111.714 70.2249C111.737 67.3751 111.77 64.5238 111.803 61.6717C111.823 59.9545 111.842 58.2369 111.86 56.5192C111.863 56.3498 111.84 56.1882 111.815 56.017C111.805 55.9424 111.793 55.8643 111.784 55.7807L111.778 55.7276L112 55.5984L111.909 55.5377L111.906 55.1631L111.821 46.01L111.766 40.06L111.764 39.8886L111.618 39.8012C107.831 37.539 104.077 35.2993 100.259 33.0213L98.6612 32.0675L98.6177 32.0416C98.6807 32.0227 98.7275 32.0102 98.7639 32.0006C98.8378 31.9807 98.8962 31.9651 98.9595 31.9289L101.707 30.2999C104.878 28.42 108.048 26.5406 111.222 24.6673C111.64 24.4201 111.829 24.0791 111.835 23.5614C111.858 21.1624 111.884 18.7637 111.91 16.3652C111.936 14.0792 111.961 11.7932 111.983 9.50739C111.985 9.3583 111.944 9.22717 111.905 9.10044C111.89 9.05104 111.874 8.9996 111.86 8.94475L111.821 8.78288L111.995 8.67058L111.607 8.41261C111.506 8.34559 111.416 8.28242 111.331 8.22343C111.185 8.12077 111.046 8.02384 110.899 7.93991L107.728 6.13671C104.931 4.54698 102.039 2.903 99.2048 1.2702C98.9049 1.09765 98.6434 1.01729 98.3821 1.01729C98.1234 1.01729 97.8648 1.09588 97.5683 1.26463C94.5897 2.96793 91.5521 4.68274 88.6147 6.3412L85.9244 7.86055C85.7756 7.94431 85.6273 8.03078 85.4555 8.13096L85.1023 8.33612L84.8472 8.48344L84.7185 8.40226C84.6242 8.34278 84.5383 8.28737 84.4575 8.23533C84.2865 8.12507 84.138 8.02951 83.9851 7.94244C82.9087 7.32919 81.8317 6.71703 80.7546 6.10493C78.0234 4.55265 75.1991 2.94755 72.433 1.35C72.0866 1.14837 71.7853 1.05425 71.4859 1.05425C71.1916 1.05425 70.8977 1.14408 70.5611 1.33706C67.7108 2.97861 64.7989 4.62502 61.9828 6.21723C60.9853 6.78119 59.9878 7.34516 58.9909 7.91011C58.7739 8.03359 58.5595 8.1585 58.2314 8.34977L58.0427 8.45976L57.859 8.35005L57.8596 8.42308C57.747 8.34834 57.6522 8.2833 57.5681 8.22558C57.4126 8.11885 57.291 8.03596 57.1643 7.96315C56.0655 7.33723 54.967 6.71268 53.8685 6.08808C51.0847 4.50534 48.2063 2.86874 45.3848 1.24404C45.0984 1.07771 44.8431 1 44.5825 1C44.3184 1 44.0518 1.08234 43.7435 1.25918C41.0931 2.7733 38.4366 4.27579 35.7802 5.77828C34.476 6.51595 33.1717 7.25362 31.8683 7.99262C31.7359 8.06719 31.6293 8.15993 31.5058 8.26738C31.4472 8.31849 31.3829 8.37445 31.308 8.43486L31.1882 8.5313L31.1847 8.48994L31.1401 8.5112L31.0185 8.44731L31.0175 8.47155L30.943 8.41977C30.8695 8.36861 30.8063 8.32284 30.7491 8.28148C30.6359 8.19948 30.538 8.12871 30.4293 8.06642C29.2023 7.36708 27.9751 6.66917 26.7478 5.97126C24.02 4.41997 21.1995 2.81587 18.4339 1.22603C18.1955 1.08884 17.9694 1.02214 17.7427 1.02214C17.4278 1.02214 17.1532 1.15509 16.949 1.27097C14.2152 2.82611 11.4761 4.37371 8.73713 5.92115L5.15262 7.94723C4.99636 8.03453 4.84059 8.12584 4.6228 8.25356L4.42983 8.36657L4.26947 8.46042L4.15171 8.39009L4.14569 8.53295L4.01793 8.60769L4.13886 8.69168L4.13005 8.89815C4.12305 9.0604 4.11545 9.20007 4.10878 9.3252C4.09625 9.55756 4.0864 9.74201 4.08733 9.92689L4.11933 13.3998C4.15013 16.6455 4.18196 20.0017 4.19295 23.3029C4.19426 23.9993 4.4458 24.4293 5.06112 24.7866C7.46204 26.1974 9.89595 27.6526 12.2496 29.0598L14.2666 30.2651L15.9765 31.2862L17.3453 32.1038L17.3039 32.1277L16.4686 32.6101C15.7277 33.0376 15.0355 33.4369 14.348 33.8435C13.0166 34.6291 11.6855 35.4161 10.3544 36.2032C8.56086 37.2637 6.76709 38.3242 4.97169 39.3818C4.55552 39.6263 4.14849 39.9241 4.14466 40.6292C4.12305 43.5339 4.09034 46.4388 4.05769 49.344C4.03762 51.1279 4.01749 52.912 4.0001 54.6964C3.99769 54.8472 4.03975 54.9814 4.0805 55.1112C4.09663 55.1626 4.11381 55.2166 4.1283 55.2749L4.22008 55.6432L4.55705 55.4727C4.63286 55.4344 4.70308 55.4003 4.76905 55.3682C4.91596 55.2968 5.04285 55.2352 5.16925 55.1585L8.45092 53.2066C11.2202 51.5586 14.0837 49.8546 16.9078 48.1916C17.2964 47.9624 17.517 47.6862 17.6084 47.2911L17.6105 47.5212L17.612 47.6926L17.7585 47.7801C22.0764 50.3578 26.3383 52.9004 30.754 55.534L31.215 55.8089L31.2144 55.7499L31.2718 55.7881C31.351 55.8408 31.4189 55.8879 31.4801 55.9303C31.5971 56.0114 31.6922 56.0767 31.7915 56.1331L35.0682 57.9969C37.9047 59.6093 40.8376 61.2767 43.7128 62.9296C43.9764 63.0808 44.2226 63.1543 44.4659 63.1543C44.5738 63.1543 44.6822 63.14 44.794 63.1106C44.5726 63.3364 44.4166 63.641 44.4131 64.1017C44.3913 67.1639 44.3563 70.2261 44.3212 73.2884C44.3033 74.8567 44.2853 76.4251 44.2692 77.9935C44.2672 78.1478 44.3004 78.2938 44.3324 78.435C44.3476 78.5023 44.3638 78.5731 44.3768 78.6493L44.4137 78.8663L44.2797 78.9653L44.3587 79.0161L44.2587 78.9965L44.2622 79.3691L44.301 83.6163L44.4002 94.3712L44.4018 94.5427L44.5482 94.63C47.3943 96.3278 50.2172 98.0136 53.089 99.7285L57.5418 102.387L58.0028 102.663L58.0022 102.597L58.0463 102.625C58.147 102.69 58.2372 102.749 58.3208 102.804C58.4905 102.916 58.6346 103.01 58.7836 103.096C59.8925 103.728 61.0011 104.358 62.1097 104.987C64.832 106.534 67.6469 108.134 70.4041 109.725C70.7155 109.905 70.9881 109.989 71.2621 109.989C71.5337 109.989 71.8052 109.906 72.1165 109.728C75.0017 108.077 77.9452 106.414 80.7917 104.806L83.7585 103.13C83.8992 103.052 84.0405 102.97 84.214 102.869L84.5541 102.672L84.7564 102.555L84.7928 102.575L84.7972 102.532L84.8108 102.524L84.9244 102.6C85.0051 102.655 85.0739 102.703 85.136 102.747C85.25 102.828 85.344 102.894 85.4432 102.95C86.5431 103.577 87.6434 104.203 88.7439 104.829C91.5994 106.453 94.5523 108.132 97.4472 109.8C97.682 109.935 97.9063 110 98.1334 110C98.4599 110 98.7473 109.861 99.0092 109.71C101.689 108.185 104.374 106.667 107.058 105.149L110.587 103.153C110.741 103.068 110.897 102.977 111.086 102.866L111.448 102.655L111.871 102.41L111.643 102.257L111.684 102.105ZM111.412 70.2226C111.408 70.7016 111.303 71.0194 110.857 71.2822C106.864 73.6304 102.883 76.0025 98.8954 78.3658C98.775 78.4376 98.6393 78.4881 98.3933 78.6052C98.379 78.2546 98.3572 78.0294 98.3608 77.8054C98.411 73.2656 98.4688 68.7246 98.5077 64.1831C98.5123 63.7065 98.6222 63.394 99.0665 63.1313C103.034 60.7966 106.989 58.4347 110.947 56.0828C111.095 55.996 111.253 55.9318 111.484 55.8154C111.514 56.084 111.562 56.2991 111.558 56.516C111.511 61.0866 111.449 65.6561 111.412 70.2226ZM44.9539 47.9458C44.8092 47.8912 44.6679 47.8644 44.5266 47.8644C44.3635 47.8644 44.1991 47.8999 44.0214 47.9745C44.2875 47.7563 44.4423 47.4935 44.5047 47.1531C44.571 47.4693 44.7152 47.724 44.9539 47.9458ZM44.0727 16.1738C44.2416 16.2298 44.4049 16.2566 44.5697 16.2566C44.7206 16.2566 44.8703 16.2343 45.0271 16.1871C44.7723 16.4051 44.6245 16.6655 44.5661 16.9991C44.4944 16.6658 44.3364 16.4019 44.0727 16.1738ZM44.7629 46.6983C44.7528 42.2418 44.6986 37.7858 44.6614 33.3292C44.659 33.0493 44.6796 32.7689 44.6932 32.3891C44.9783 32.5222 45.1836 32.6013 45.3689 32.7118C49.2766 35.0405 53.1807 37.3734 57.0902 39.7003C57.4555 39.9183 57.6944 40.1293 57.6981 40.6284C57.7188 45.2871 57.7706 49.9451 57.8101 54.6055C57.8125 54.7695 57.7824 54.9359 57.7529 55.2389C57.3728 55.025 57.1209 54.8908 56.8765 54.7434C53.0922 52.4877 49.3172 50.2196 45.5211 47.9854C44.9884 47.6717 44.7652 47.3389 44.7629 46.6983ZM98.6892 47.946C98.5521 47.9028 98.4186 47.882 98.2838 47.882C98.1586 47.882 98.0326 47.9006 97.9015 47.939C98.1284 47.7333 98.2324 47.4991 98.2799 47.2632C98.3359 47.5859 98.4992 47.7937 98.6892 47.946ZM97.9148 16.1962C98.0648 16.2425 98.2094 16.2649 98.3541 16.2649C98.5184 16.2648 98.6816 16.2364 98.8518 16.1769C98.5903 16.3706 98.4348 16.606 98.3672 16.9154C98.3076 16.5649 98.1232 16.3504 97.9148 16.1962ZM98.9338 48.3889C102.85 50.6469 106.786 52.8716 110.714 55.1106C110.909 55.22 111.089 55.356 111.426 55.5807C111.04 55.8052 110.797 55.9473 110.552 56.0887C106.715 58.2552 102.872 60.4128 99.0471 62.6007C98.768 62.7598 98.5235 62.8463 98.2741 62.8463C98.0483 62.8464 97.8185 62.7754 97.5553 62.6233C93.6906 60.3914 89.8031 58.1976 85.9254 55.989C85.7065 55.8635 85.4993 55.7162 85.2066 55.5267C85.4438 55.3543 85.6067 55.2076 85.7931 55.1012C89.7275 52.8692 93.6664 50.6505 97.593 48.4049C97.843 48.2629 98.0615 48.1862 98.2838 48.1862C98.488 48.1862 98.6955 48.2509 98.9338 48.3889ZM98.0168 46.8035C98.0133 47.2676 97.9383 47.6033 97.4815 47.8701C93.4836 50.2196 89.5003 52.5959 85.5123 54.9626C85.3926 55.0345 85.2592 55.0844 85.0491 55.1849C85.0149 54.9157 84.9624 54.7029 84.9653 54.4896C85.0131 49.9165 85.0799 45.3423 85.107 40.7693C85.1117 40.1923 85.3194 39.8892 85.7962 39.6087C89.7192 37.302 93.6276 34.9679 97.5417 32.6482C97.6863 32.5614 97.8456 32.502 98.1247 32.3725C98.1436 32.7206 98.1672 32.9458 98.1655 33.1699C98.1159 37.7145 98.0586 42.2596 98.0168 46.8035ZM84.848 40.346C84.7997 40.0782 84.6786 39.8679 84.4668 39.6849C84.5946 39.7269 84.7204 39.7475 84.8466 39.7475C84.9664 39.7475 85.0804 39.7283 85.187 39.698C85.0126 39.8827 84.903 40.0929 84.848 40.346ZM84.9394 71.2135L85.0539 71.2819C84.9705 71.2619 84.887 71.252 84.8028 71.252C84.7042 71.252 84.6099 71.2661 84.5212 71.2889C84.6522 71.1435 84.74 70.9748 84.7895 70.7737L84.7911 70.9545L84.7927 71.1261L84.9394 71.2135ZM97.2891 32.5507C93.359 34.7784 89.4223 36.9978 85.4946 39.232C85.2662 39.362 85.0618 39.4432 84.8466 39.4432C84.68 39.4432 84.5069 39.3945 84.3109 39.2819C80.3182 36.9865 76.3131 34.7172 72.3133 32.4408C72.1688 32.3588 72.0377 32.2525 71.761 32.0593C72.0808 31.8739 72.2773 31.7557 72.4768 31.6452C76.4098 29.4222 80.3441 27.2016 84.2737 24.9698C84.5021 24.8396 84.7072 24.7572 84.924 24.7572C85.0903 24.7572 85.2636 24.8057 85.4598 24.9181C89.4507 27.2147 93.4551 29.4823 97.4561 31.7581C97.6001 31.8412 97.7317 31.9459 97.9506 32.098C97.6904 32.2786 97.4998 32.4331 97.2891 32.5507ZM72.2354 32.7195C76.1697 35.0625 80.1004 37.4161 84.0394 39.7532C84.4035 39.9689 84.5681 40.1964 84.5705 40.6368C84.5982 45.3263 84.6478 50.0182 84.6891 54.7089C84.6897 54.8212 84.6684 54.9359 84.6443 55.195C82.3965 53.9757 80.3005 52.6399 78.1631 51.3807C76.0074 50.1079 73.863 48.8155 71.699 47.5195C71.653 42.5056 71.6087 37.5273 71.5621 32.4307C71.8477 32.552 72.056 32.6126 72.2354 32.7195ZM84.5003 55.5379C83.7732 55.9603 83.1819 56.3086 82.5842 56.6455C79.1255 58.6058 75.6563 60.5471 72.21 62.5264C71.9014 62.7037 71.6328 62.8007 71.3578 62.8007C71.1102 62.8007 70.8572 62.722 70.5648 62.5525C66.7551 60.3402 62.9183 58.1773 59.0908 55.9948C58.847 55.8558 58.6116 55.7025 58.2977 55.5088C58.5082 55.343 58.6429 55.1986 58.8063 55.1071C62.7642 52.8622 66.7308 50.6291 70.681 48.3711C70.9306 48.229 71.1491 48.1531 71.371 48.1531C71.5763 48.1531 71.7846 48.218 72.0236 48.3556C75.9401 50.6137 79.8756 52.8396 83.8034 55.0762C83.9981 55.1866 84.1769 55.3227 84.5003 55.5379ZM71.3952 47.339L71.3969 47.5224L71.3984 47.6936L71.5446 47.7811L71.7511 47.9049C71.6227 47.8671 71.4975 47.8489 71.371 47.8489C71.281 47.8489 71.1907 47.8584 71.0985 47.8779C71.2627 47.7119 71.3498 47.5267 71.3952 47.339ZM71.316 16.3831L71.2022 16.3151C71.294 16.3389 71.3854 16.3506 71.4776 16.3506C71.5604 16.3505 71.6437 16.341 71.7289 16.3213C71.5867 16.4768 71.5082 16.6476 71.4657 16.8205L71.4641 16.642L71.4625 16.4705L71.316 16.3831ZM71.1396 46.9052C71.1355 47.3134 71.0482 47.6033 70.6663 47.8309C66.5992 50.2268 62.5429 52.6411 58.4836 55.05C58.411 55.0951 58.3241 55.1118 58.1289 55.1849C58.1117 54.8658 58.0881 54.6406 58.0912 54.4183C58.1407 49.8774 58.1998 45.3388 58.2387 40.7978C58.2434 40.3231 58.3432 40.0021 58.7887 39.7396C62.7825 37.3889 66.7628 35.0156 70.7461 32.6483C70.8682 32.5752 71.0016 32.5223 71.1951 32.4295C71.2329 32.653 71.2931 32.8395 71.2901 33.0226C71.2428 37.6509 71.1844 42.2786 71.1396 46.9052ZM57.9765 40.3613C57.9113 40.0002 57.7192 39.7752 57.4995 39.6077C57.6538 39.6558 57.8028 39.679 57.9529 39.679C58.1232 39.679 58.2914 39.6498 58.4701 39.5872C58.1677 39.8146 58.0338 40.0827 57.9765 40.3613ZM70.2474 32.5941C66.4163 34.7665 62.5783 36.9247 58.7597 39.1168C58.4676 39.2842 58.2132 39.3747 57.9531 39.3747C57.7146 39.3748 57.4711 39.2987 57.1888 39.1358C53.3325 36.8992 49.4484 34.7101 45.573 32.502C45.376 32.3914 45.1913 32.2584 44.9292 32.0878C45.0869 31.9518 45.1913 31.8281 45.3228 31.7533C49.3781 29.4548 53.4387 27.1653 57.4939 24.8616C57.6731 24.7588 57.8368 24.7009 58.0041 24.7009C58.1465 24.7009 58.2915 24.7428 58.4511 24.8349C62.5458 27.179 66.6459 29.5119 70.7442 31.8502C70.8143 31.8917 70.8699 31.9589 71.0582 32.1252C70.7336 32.3137 70.4905 32.4557 70.2474 32.5941ZM57.8845 70.6675C57.9384 70.9996 58.1051 71.2109 58.2996 71.3648C58.1609 71.3209 58.0263 71.2998 57.8905 71.2998C57.7573 71.2998 57.6234 71.3208 57.4838 71.3642C57.6907 71.1739 57.8206 70.9484 57.8845 70.6675ZM57.8905 71.604C58.095 71.604 58.3028 71.6686 58.5413 71.8056C62.4584 74.0635 66.3933 76.2894 70.321 78.5285C70.5146 78.639 70.694 78.7727 71.0351 78.9991C70.6486 79.2231 70.4061 79.3664 70.1612 79.5054C66.3237 81.6731 62.4815 83.83 58.6564 86.0186C58.3769 86.1786 58.1329 86.2654 57.8837 86.2654C57.6585 86.2654 57.4289 86.1944 57.1652 86.0423C53.3 83.8105 49.4129 81.6148 45.5348 79.4068C45.3152 79.2814 45.1063 79.1364 44.8136 78.9481C45.0509 78.7728 45.2137 78.626 45.3996 78.5202C49.3351 76.2895 53.2734 74.0695 57.1983 71.824C57.4485 71.6808 57.6675 71.604 57.8905 71.604ZM70.6262 78.38C66.6413 76.006 62.6591 73.6257 58.6735 71.2512C58.3513 71.0616 58.172 70.856 58.1684 70.4419C58.1424 65.6929 58.0946 60.9428 58.0551 56.1939C58.0545 56.1101 58.0764 56.0251 58.1142 55.7464C62.4851 58.3532 66.7528 60.9006 71.0735 63.4789C71.119 68.4887 71.165 73.4914 71.2122 78.5933C70.9661 78.5059 70.7796 78.4703 70.6262 78.38ZM71.3756 63.4761L71.374 63.3046L71.2275 63.2171L70.9422 63.0469C71.0827 63.0859 71.2198 63.1049 71.3578 63.1049C71.5134 63.1049 71.6677 63.0811 71.8296 63.0309C71.569 63.2621 71.4403 63.5204 71.3784 63.7867L71.3756 63.4761ZM71.7432 94.7975C71.6008 94.7458 71.4615 94.7206 71.322 94.7206C71.1395 94.7206 70.9727 94.7639 70.8217 94.8246C71.0946 94.6176 71.2493 94.3673 71.3025 94.0451C71.3727 94.3433 71.5147 94.5856 71.7432 94.7975ZM71.627 64.3132C71.6317 63.738 71.7739 63.3714 72.3074 63.0612C76.2104 60.777 80.0927 58.4572 83.9816 56.1493C84.1509 56.0489 84.3344 55.9687 84.5841 55.8385C84.626 56.0756 84.6873 56.2593 84.6861 56.4416C84.6377 61.0711 84.5788 65.703 84.5369 70.3355C84.5334 70.7853 84.4106 71.0771 84.0023 71.3159C80.0078 73.675 76.0252 76.0507 72.0377 78.4197C71.9168 78.4917 71.784 78.5404 71.5208 78.6616C71.5043 78.2784 71.4824 78.0258 71.4837 77.7732C71.5338 73.2864 71.5952 68.8012 71.627 64.3132ZM72.2012 78.5481C76.2086 76.2812 80.2173 74.019 84.2235 71.7443C84.4258 71.6297 84.6099 71.5562 84.8028 71.5562C84.9456 71.5562 85.0933 71.5965 85.2567 71.6903C89.3261 74.0226 93.4027 76.34 97.4756 78.6627C97.57 78.718 97.6508 78.797 97.8627 78.9634C97.511 79.169 97.2673 79.3134 97.0182 79.4542C93.1878 81.6236 89.348 83.7801 85.5305 85.9764C85.245 86.1414 84.9969 86.2247 84.7481 86.2247C84.4997 86.2247 84.2504 86.1416 83.9621 85.9739C80.1276 83.7528 76.2682 81.5768 72.4196 79.3829C72.1994 79.2581 71.9911 79.1114 71.692 78.92C71.9043 78.7632 72.043 78.639 72.2012 78.5481ZM85.0933 70.9517C85.0479 65.9526 85.0025 60.9541 84.9565 55.9425C85.6227 56.0862 96.5497 62.5121 97.953 63.5698C97.9967 68.5273 98.0415 73.5187 98.0881 78.702C93.6665 76.0655 89.4047 73.5229 85.0933 70.9517ZM98.2564 63.7063L98.2552 63.5671L98.2538 63.4165L98.134 63.3262C98.0443 63.2587 97.9045 63.1623 97.7218 63.0416C97.9108 63.1153 98.0911 63.1504 98.274 63.1504C98.3778 63.1504 98.4824 63.1386 98.5896 63.1144C98.4046 63.2976 98.3068 63.499 98.2564 63.7063ZM98.3324 94.6314C98.4001 94.6717 98.4677 94.7122 98.5353 94.7525C98.4105 94.7166 98.2879 94.6988 98.166 94.6988C98.0679 94.6988 97.9703 94.7098 97.8702 94.7325C98.0398 94.5582 98.1334 94.3617 98.1823 94.1417L98.1843 94.3724L98.1858 94.5439L98.3324 94.6314ZM111.464 40.0628C111.51 45.0756 111.556 50.0788 111.603 55.1659C111.383 55.0975 111.219 55.0803 111.087 55.0007C107.078 52.6144 103.072 50.218 99.0607 47.8333C98.7354 47.6379 98.5631 47.4263 98.5613 47.0163C98.5336 42.2674 98.487 37.519 98.4487 32.7701C98.4481 32.6863 98.4693 32.6013 98.5071 32.3292C102.879 34.9377 107.149 37.4857 111.464 40.0628ZM111.681 9.50425C111.635 14.1884 111.577 18.8731 111.533 23.5579C111.528 23.9435 111.412 24.202 111.069 24.4047C106.979 26.8184 102.897 29.2421 98.8104 31.6642C98.7615 31.6921 98.7025 31.6981 98.5201 31.7533C98.5042 31.4598 98.4806 31.237 98.4835 31.0153C98.5325 26.4458 98.5903 21.8769 98.6292 17.3056C98.6334 16.8505 98.7662 16.5682 99.1698 16.3305C103.161 13.9757 107.141 11.6054 111.125 9.23686C111.247 9.16383 111.38 9.1097 111.567 9.017C111.612 9.20117 111.683 9.35213 111.681 9.50425ZM86.0723 8.12568C89.9558 5.93067 93.8441 3.74399 97.717 1.52932C97.9602 1.39086 98.171 1.32136 98.3821 1.32136C98.5949 1.32136 98.8079 1.39208 99.0547 1.53406C102.943 3.77428 106.851 5.98415 110.75 8.20465C110.965 8.32708 111.163 8.48223 111.441 8.6664C111.148 8.85475 110.944 9.00158 110.727 9.12457C106.847 11.3255 102.959 13.5123 99.0902 15.7316C98.8228 15.885 98.5881 15.9607 98.3542 15.9607C98.1132 15.9607 97.873 15.8804 97.5984 15.7221C93.7361 13.4932 89.8532 11.297 85.9797 9.0913C85.7643 8.96892 85.5672 8.81317 85.2527 8.59987C85.5932 8.4032 85.8315 8.26121 86.0723 8.12568ZM85.0785 9.02885C85.2715 9.0859 85.4374 9.10193 85.5672 9.17859C89.5764 11.5655 93.5774 13.9584 97.5859 16.343C97.9128 16.5367 98.0828 16.7518 98.0852 17.1583C98.1142 21.9048 98.1596 26.6483 98.1979 31.3949C98.1991 31.4805 98.1725 31.5661 98.1372 31.7859C97.8291 31.6273 97.6008 31.5233 97.3866 31.3973C93.5277 29.0947 89.6774 26.7856 85.8104 24.4979C85.369 24.237 85.1636 23.9636 85.1625 23.4176C85.1441 18.8457 85.0928 14.2727 85.0515 9.70202C85.0515 9.50188 85.0679 9.30103 85.0785 9.02885ZM84.8918 23.7765C84.9489 24.076 85.0861 24.3139 85.3221 24.5216C85.1881 24.4755 85.0563 24.453 84.924 24.453C84.7468 24.453 84.5821 24.4953 84.4351 24.5531C84.7188 24.3234 84.8413 24.0546 84.8918 23.7765ZM84.731 8.97537C84.7486 9.29745 84.7723 9.52325 84.7717 9.74729C84.7204 14.2859 84.6625 18.8263 84.6224 23.3684C84.6194 23.8408 84.5256 24.1664 84.0778 24.432C80.082 26.7762 76.1012 29.1495 72.1139 31.5144C71.9934 31.5863 71.8589 31.638 71.6642 31.7319C71.627 31.5079 71.5692 31.3219 71.5704 31.1377C71.617 26.5106 71.6766 21.8834 71.7203 17.2574C71.7243 16.8492 71.8176 16.557 72.1983 16.3317C76.2647 13.934 80.3206 11.5198 84.3799 9.1108C84.4525 9.06751 84.5392 9.04845 84.731 8.97537ZM59.1391 8.17497C62.999 5.98768 66.8673 3.81465 70.7106 1.60119C70.9949 1.43823 71.2413 1.35826 71.4859 1.35826C71.7399 1.35826 71.992 1.44451 72.2826 1.6137C76.1225 3.83128 79.9836 6.01207 83.8364 8.20702C84.0576 8.33303 84.269 8.47744 84.5581 8.65984C84.3645 8.82209 84.237 8.9676 84.0788 9.0544C80.0679 11.3267 76.0546 13.5901 72.0454 15.8641C71.8462 15.9783 71.6649 16.0464 71.4776 16.0464C71.3297 16.0464 71.1779 16.0041 71.0104 15.9087C66.9374 13.5746 62.8556 11.2554 58.7786 8.92966C58.6824 8.87442 58.5986 8.79423 58.3714 8.61953C58.7048 8.42512 58.9207 8.29922 59.1391 8.17497ZM71.162 16.6449C71.2074 21.6749 71.2541 26.6639 71.3001 31.8549C66.8819 29.2184 62.6213 26.6758 58.3053 24.1028C58.2592 19.1055 58.2132 14.1064 58.166 8.88681C62.6108 11.5406 66.8772 14.0875 71.162 16.6449ZM58.0032 24.1057L58.0048 24.2772L58.1514 24.3646C58.187 24.3859 58.2225 24.4069 58.2581 24.4282C58.1735 24.4071 58.0891 24.3967 58.0041 24.3967C57.9141 24.3967 57.8245 24.4082 57.7327 24.432C57.8774 24.2654 57.9577 24.0851 58.0013 23.9001L58.0032 24.1057ZM57.8957 9.70924C57.8462 14.2823 57.789 18.8553 57.7482 23.4302C57.7429 23.9044 57.6355 24.2229 57.1901 24.4861C53.2409 26.8094 49.3108 29.1596 45.373 31.4989C45.2073 31.5976 45.0273 31.6702 44.7351 31.808C44.7151 31.4669 44.6915 31.2667 44.6932 31.067C44.7434 26.4939 44.8065 21.9209 44.839 17.3461C44.8432 16.8178 45.0185 16.5106 45.4723 16.2437C49.3959 13.9383 53.3059 11.6077 57.2207 9.28489C57.3866 9.1863 57.5672 9.11201 57.8256 8.98429C57.8556 9.27789 57.8981 9.49357 57.8957 9.70924ZM32.0165 8.25758C35.975 6.01329 39.9405 3.78144 43.8931 1.52337C44.1419 1.38068 44.3603 1.30407 44.5825 1.30407C44.7877 1.30407 44.9962 1.36933 45.235 1.50795C49.1521 3.76359 53.0876 5.9901 57.0147 8.22729C57.2083 8.33837 57.3883 8.47507 57.7116 8.68898C56.984 9.1097 56.394 9.4603 55.7961 9.79896C52.3369 11.7563 48.8694 13.6976 45.4232 15.6775C45.1139 15.8552 44.8448 15.9525 44.5697 15.9525C44.3223 15.9525 44.07 15.874 43.7792 15.7048C39.9937 13.5045 36.1821 11.357 32.3788 9.18933C32.1092 9.0354 31.8436 8.87673 31.4966 8.67235C31.7202 8.49231 31.8531 8.34966 32.0165 8.25758ZM31.3013 8.93913C31.6369 9.11564 31.8878 9.23147 32.1252 9.37411C35.9366 11.6446 39.7375 13.9323 43.562 16.1838C44.099 16.4993 44.3091 16.8386 44.3102 17.4744C44.322 21.9334 44.3764 26.3936 44.4147 30.8519C44.4171 31.1318 44.3921 31.4129 44.3781 31.7985C44.0423 31.6215 43.7904 31.5038 43.5543 31.3641C39.7441 29.0925 35.9407 26.8054 32.1162 24.5551C31.5798 24.2384 31.3733 23.8967 31.3716 23.2621C31.3586 18.8037 31.3054 14.3453 31.2671 9.88278C31.2636 9.60581 31.2859 9.32713 31.3013 8.93913ZM44.1474 32.0635C43.998 32.2067 43.9055 32.3487 43.7751 32.4218C39.7163 34.7226 35.6505 37.0139 31.5941 39.3189C31.4169 39.4178 31.2562 39.4706 31.0945 39.4706C30.9464 39.4706 30.7976 39.4262 30.6346 39.3325C26.535 36.9866 22.4315 34.6507 18.3307 32.3095C18.257 32.2685 18.198 32.202 18.0257 32.0611C18.3125 31.8728 18.5148 31.7254 18.7333 31.6024C22.5919 29.4157 26.4583 27.2421 30.304 25.031C30.5947 24.8645 30.8465 24.778 31.1007 24.778C31.3446 24.778 31.591 24.8575 31.8767 25.0221C35.7131 27.2433 39.5765 29.4222 43.4292 31.6178C43.6522 31.7444 43.8647 31.8864 44.1474 32.0635ZM31.1153 23.7362C31.1864 24.0693 31.3424 24.3331 31.6024 24.5607C31.4304 24.5019 31.2657 24.4737 31.1007 24.4737C30.9667 24.4737 30.8321 24.4927 30.6925 24.5318C30.9557 24.3062 31.0711 24.0422 31.1153 23.7362ZM30.9832 9.74729C30.9366 14.2912 30.8788 18.8364 30.8368 23.3797C30.8338 23.8485 30.7471 24.1759 30.2946 24.4427C26.3214 26.7774 22.3635 29.1405 18.4003 31.493C18.2563 31.578 18.0999 31.6427 17.8085 31.786C17.7984 31.3552 17.7837 31.0723 17.7861 30.7907C17.8362 26.3609 17.9005 21.9333 17.9229 17.5035C17.9271 16.8492 18.11 16.4654 18.6936 16.1225C22.5742 13.8586 26.4288 11.5495 30.294 9.25641C30.4634 9.15601 30.6463 9.08293 30.9207 8.95218C30.9471 9.26539 30.9855 9.50662 30.9832 9.74729ZM5.30051 8.21242C9.23299 5.98773 13.1708 3.76949 17.0973 1.53588C17.3257 1.40623 17.5291 1.32626 17.7426 1.32626C17.9109 1.32626 18.0856 1.37594 18.2841 1.49011C22.2738 3.78381 26.2813 6.05184 30.2799 8.33066C30.425 8.41388 30.5543 8.51902 30.7714 8.66998C30.5329 8.83752 30.3642 8.97537 30.179 9.08177C26.2235 11.3214 22.2626 13.558 18.3101 15.8047C18.0827 15.9332 17.88 16.0118 17.6678 16.0118C17.4983 16.0118 17.3226 15.9616 17.1233 15.8469C13.1324 13.5527 9.12732 11.2851 5.12812 9.00808C4.98175 8.92371 4.85202 8.81736 4.58166 8.62961C4.90568 8.43999 5.10165 8.32356 5.30051 8.21242ZM17.3564 46.8113C17.3529 47.324 17.2236 47.6526 16.7551 47.9289C12.8326 50.2387 8.9255 52.5733 5.0131 54.8979C4.84365 55.0006 4.65955 55.0803 4.42119 55.2009C4.37279 55.0066 4.2996 54.8539 4.30196 54.6994C4.34801 50.0087 4.41178 45.3204 4.44662 40.6308C4.44958 40.0925 4.73454 39.8732 5.12407 39.6444C8.25216 37.8017 11.375 35.9501 14.5009 34.1058C15.4391 33.5508 16.3863 33.0094 17.4543 32.3914C17.4762 32.7296 17.505 32.9553 17.5026 33.177C17.4531 37.7216 17.393 42.2661 17.3564 46.8113ZM14.4206 30.0034C11.3533 28.172 8.28995 26.3317 5.21202 24.523C4.70741 24.23 4.49612 23.9056 4.49503 23.3018C4.4802 18.8423 4.42825 14.3839 4.38941 9.92552C4.38815 9.64568 4.41233 9.367 4.43191 8.91121C8.81693 11.5311 13.0799 14.0761 17.3765 16.6384C17.4214 21.6582 17.4662 26.6532 17.5128 31.8502C16.3444 31.1526 15.3831 30.5774 14.4206 30.0034ZM17.6813 16.9421L17.6786 16.6357L17.6771 16.464L17.5304 16.3766C17.4736 16.3427 17.417 16.309 17.3602 16.275C17.4634 16.3025 17.5655 16.3159 17.6679 16.3159C17.7978 16.3159 17.9208 16.2935 18.0345 16.2591C17.8594 16.453 17.7446 16.6754 17.6813 16.9421ZM17.9124 47.5184C17.8662 42.4759 17.8215 37.5024 17.7761 32.5614C17.8563 32.5151 17.8804 32.4973 17.9047 32.4901C17.9232 32.4821 17.9472 32.4739 17.9661 32.4739C17.9725 32.4739 17.9783 32.4748 17.9831 32.477C18.1384 32.5519 18.2971 32.6214 18.4452 32.7064C22.5458 35.154 26.6471 37.6027 30.7709 40.0651C30.8163 45.0886 30.8605 50.0799 30.9077 55.2722C26.4919 52.6386 22.2302 50.0961 17.9124 47.5184ZM31.073 40.0624L31.0714 39.8909L30.9249 39.8035L30.8129 39.7366C30.907 39.7622 31.0005 39.7749 31.0945 39.7749H31.0946C31.1727 39.7749 31.2503 39.7664 31.329 39.7491C31.1925 39.9022 31.1164 40.0693 31.0745 40.2381L31.073 40.0624ZM31.1774 54.5568C31.2264 49.9279 31.283 45.3031 31.3284 40.6749C31.3331 40.266 31.4246 39.9772 31.8046 39.7497C35.8718 37.3544 39.9276 34.9378 43.9875 32.53C44.0595 32.4878 44.1462 32.4682 44.3386 32.3951C44.3569 32.7159 44.3817 32.94 44.3793 33.164C44.3292 37.7038 44.2684 42.2454 44.2347 46.7851C44.2307 47.3134 44.0654 47.6224 43.6117 47.8897C39.6667 50.2107 35.7354 52.5537 31.7987 54.886C31.6512 54.9734 31.4942 55.0417 31.2747 55.1493C31.2364 54.9258 31.1763 54.741 31.1774 54.5568ZM44.4657 62.8501C44.2762 62.8501 44.0827 62.7918 43.8623 62.6654C39.8975 60.386 35.9148 58.1316 31.9398 55.8682C31.7946 55.7857 31.6595 55.6817 31.4381 55.5343C31.6559 55.3698 31.8106 55.2224 31.9918 55.1195C35.9738 52.8645 39.9594 50.6184 43.9362 48.3556C44.1471 48.236 44.3347 48.1687 44.5266 48.1687C44.6913 48.1687 44.8591 48.2181 45.0479 48.3265C49.066 50.6302 53.0952 52.9162 57.1197 55.2092C57.2408 55.2782 57.3482 55.3697 57.5754 55.5319C57.2939 55.7161 57.1116 55.8509 56.9162 55.9603C52.9843 58.1856 49.0483 60.4062 45.1241 62.6411C44.8883 62.7757 44.6796 62.8501 44.4657 62.8501ZM44.7151 64.104C44.7193 63.5472 44.9723 63.2852 45.4031 63.0315C48.9048 60.9755 52.3977 58.9035 55.8953 56.8362C56.4606 56.5016 57.0313 56.176 57.747 55.7607C57.7589 56.1938 57.7742 56.4773 57.7706 56.759C57.7211 61.2446 57.6615 65.7304 57.6302 70.2178C57.6255 70.736 57.4798 71.0568 57.0183 71.3302C53.0946 73.6357 49.1863 75.9686 45.2728 78.2914C45.1033 78.3936 44.9222 78.4732 44.6743 78.598C44.6348 78.3657 44.5687 78.1803 44.571 77.9966C44.6188 73.3654 44.682 68.7347 44.7151 64.104ZM44.7021 94.3684C44.6555 89.3752 44.61 84.3773 44.564 79.3663C45.2161 79.494 56.0364 85.8486 57.5612 86.9847C57.6042 91.9398 57.6497 96.933 57.6958 102.126C53.2517 99.4727 49.0034 96.9342 44.7021 94.3684ZM57.8632 86.9821L57.862 86.8304L57.7409 86.7402C57.6493 86.672 57.514 86.5787 57.3413 86.4643C57.5271 86.5356 57.7043 86.5697 57.8837 86.5697C57.9849 86.5697 58.0854 86.5591 58.1878 86.5368C58.0051 86.72 57.912 86.9237 57.8645 87.1301L57.8632 86.9821ZM58.0096 102.002C57.9926 101.669 57.9666 101.419 57.9702 101.168C58.0186 96.6538 58.0758 92.1425 58.1182 87.6319C58.1229 87.1696 58.1921 86.8326 58.65 86.5635C62.6679 84.2026 66.6712 81.8103 70.6823 79.4294C70.7795 79.3717 70.8864 79.3313 71.0617 79.2493C71.103 79.4597 71.172 79.6403 71.169 79.8186C71.1225 84.473 71.0623 89.1293 71.0215 93.7844C71.0179 94.2176 70.851 94.4677 70.4892 94.6822C66.4995 97.0359 62.5169 99.4068 58.5301 101.768C58.3891 101.851 58.2345 101.902 58.0096 102.002ZM83.6104 102.865C79.7275 105.061 75.8386 107.248 71.9675 109.464C71.711 109.61 71.487 109.685 71.2619 109.685C71.0382 109.685 70.8134 109.611 70.5542 109.461C66.692 107.232 62.8084 105.039 58.9332 102.832C58.7148 102.706 58.5077 102.561 58.2085 102.369C58.4735 102.187 58.6658 102.034 58.8743 101.913C62.8067 99.6872 66.7433 97.4678 70.6716 95.2365C70.9018 95.1065 71.1063 95.0247 71.322 95.0247C71.4878 95.0247 71.6604 95.073 71.8566 95.1848C75.8475 97.4815 79.8531 99.7489 83.853 102.029C83.9981 102.11 84.1285 102.215 84.4041 102.408C84.0541 102.609 83.8346 102.74 83.6104 102.865ZM84.5381 102.085C84.158 101.873 83.9055 101.738 83.6595 101.59C79.8774 99.3372 76.1013 97.0667 72.3051 94.8325C71.7704 94.5182 71.5533 94.18 71.5516 93.5442C71.5409 89.0858 71.486 84.6322 71.4489 80.1733C71.4465 79.8964 71.4689 79.6177 71.4842 79.2368C71.7699 79.3716 71.9741 79.4519 72.1605 79.5636C76.067 81.8923 79.9718 84.2275 83.8807 86.5509C84.2495 86.7696 84.4833 86.9835 84.485 87.4797C84.5068 92.1413 84.5587 96.7987 84.5989 101.457C84.6 101.621 84.5681 101.785 84.5381 102.085ZM84.7591 87.1833C84.6899 86.8353 84.501 86.6173 84.2857 86.4545C84.4438 86.5048 84.596 86.529 84.7481 86.529C84.9103 86.529 85.0729 86.5013 85.2429 86.4438C84.9391 86.6557 84.8109 86.9137 84.7591 87.1833ZM84.8785 101.364C84.9269 96.7661 84.9836 92.1675 85.0284 87.5695C85.0313 87.1625 85.1116 86.8689 85.497 86.6413C89.5616 84.2425 93.618 81.8265 97.6774 79.4175C97.75 79.3741 97.8355 79.3546 98.0373 79.2767C98.0551 79.5905 98.0804 79.8138 98.0769 80.0367C98.0262 84.5771 97.9683 89.1186 97.9277 93.6578C97.9229 94.1267 97.8408 94.4558 97.3893 94.7226C93.3938 97.0698 89.4147 99.4454 85.4302 101.811C85.3081 101.883 85.1748 101.938 84.9588 102.046C84.9263 101.784 84.8767 101.573 84.8785 101.364ZM110.439 102.888C106.578 105.074 102.715 107.252 98.8594 109.446C98.6054 109.592 98.3789 109.696 98.1333 109.696C97.968 109.696 97.794 109.649 97.5971 109.536C93.6045 107.235 89.5947 104.966 85.592 102.686C85.445 102.602 85.3111 102.495 85.0922 102.347C85.3094 102.181 85.4687 102.027 85.654 101.923C89.587 99.6926 93.5277 97.4738 97.4549 95.2307C97.7101 95.0857 97.9345 95.003 98.1661 95.003C98.3636 95.003 98.5663 95.0632 98.7975 95.1961C102.74 97.4667 106.701 99.7063 110.652 101.959C110.823 102.056 110.98 102.178 111.298 102.391C110.923 102.608 110.683 102.753 110.439 102.888ZM111.392 102.025C109.184 100.822 107.084 99.4905 104.946 98.2272C102.793 96.9545 100.647 95.6596 98.4865 94.3696C98.441 89.3485 98.3955 84.3761 98.3507 79.301C98.6104 79.3966 98.7979 79.4334 98.9532 79.5262C102.916 81.8846 106.868 84.252 110.83 86.6092C111.147 86.7969 111.358 86.98 111.36 87.403C111.384 92.1822 111.429 96.9579 111.467 101.736C111.468 101.791 111.441 101.845 111.392 102.025Z" fill="url(#paint1_linear_755_1034)"/>
<path d="M111.316 102.105C111.299 102.041 111.285 101.994 111.273 101.958C111.25 101.88 111.229 101.813 111.231 101.729L111.261 98.077C111.29 94.5189 111.32 90.9612 111.338 87.4016C111.341 86.798 111.69 86.5408 112.017 86.3471C114.026 85.1514 116.034 83.9529 118.042 82.7542C119.991 81.5903 121.941 80.4263 123.893 79.2644C124.023 79.1867 124.162 79.1421 124.31 79.095C124.381 79.0721 124.459 79.0473 124.545 79.0154L124.607 78.9927L124.608 78.9421L124.478 78.8803C124.388 78.8376 124.313 78.8039 124.248 78.7749C124.125 78.7193 124.035 78.6777 123.951 78.6276L120.41 76.5269C117.605 74.8621 114.801 73.1975 111.99 71.545C111.377 71.1837 111.29 70.697 111.286 70.2249C111.263 67.3751 111.23 64.5238 111.197 61.6717C111.177 59.9545 111.158 58.2369 111.14 56.5192C111.137 56.3498 111.16 56.1882 111.185 56.017C111.195 55.9424 111.207 55.8643 111.216 55.7807L111.222 55.7276L111 55.5984L111.091 55.5377L111.094 55.1631L111.179 46.01L111.234 40.06L111.236 39.8886L111.382 39.8012C115.169 37.539 118.923 35.2993 122.741 33.0213L124.339 32.0675L124.382 32.0416C124.319 32.0227 124.272 32.0102 124.236 32.0006C124.162 31.9807 124.104 31.9651 124.04 31.9289L121.293 30.2999C118.122 28.42 114.952 26.5406 111.778 24.6673C111.36 24.4201 111.171 24.0791 111.165 23.5614C111.142 21.1624 111.116 18.7637 111.09 16.3652C111.064 14.0792 111.039 11.7932 111.017 9.50739C111.015 9.3583 111.056 9.22717 111.095 9.10044C111.11 9.05104 111.126 8.9996 111.14 8.94475L111.179 8.78288L111.005 8.67058L111.393 8.41261C111.494 8.34559 111.584 8.28242 111.669 8.22343C111.815 8.12077 111.954 8.02384 112.101 7.93991L115.272 6.13671C118.069 4.54698 120.961 2.903 123.795 1.2702C124.095 1.09765 124.357 1.01729 124.618 1.01729C124.877 1.01729 125.135 1.09588 125.432 1.26463C128.41 2.96793 131.448 4.68274 134.385 6.3412L137.076 7.86055C137.224 7.94431 137.373 8.03078 137.545 8.13096L137.898 8.33612L138.153 8.48344L138.282 8.40226C138.376 8.34278 138.462 8.28737 138.542 8.23533C138.713 8.12507 138.862 8.02951 139.015 7.94244C140.091 7.32919 141.168 6.71703 142.245 6.10493C144.977 4.55265 147.801 2.94755 150.567 1.35C150.913 1.14837 151.215 1.05425 151.514 1.05425C151.808 1.05425 152.102 1.14408 152.439 1.33706C155.289 2.97861 158.201 4.62502 161.017 6.21723C162.015 6.78119 163.012 7.34516 164.009 7.91011C164.226 8.03359 164.44 8.1585 164.769 8.34977L164.957 8.45976L165.141 8.35005L165.14 8.42308C165.253 8.34834 165.348 8.2833 165.432 8.22558C165.587 8.11885 165.709 8.03596 165.836 7.96315C166.935 7.33723 168.033 6.71268 169.132 6.08808C171.915 4.50534 174.794 2.86874 177.615 1.24404C177.902 1.07771 178.157 1 178.418 1C178.682 1 178.948 1.08234 179.257 1.25918C181.907 2.7733 184.563 4.27579 187.22 5.77828C188.524 6.51595 189.828 7.25362 191.132 7.99262C191.264 8.06719 191.371 8.15993 191.494 8.26738C191.553 8.31849 191.617 8.37445 191.692 8.43486L191.812 8.5313L191.815 8.48994L191.86 8.5112L191.981 8.44731L191.982 8.47155L192.057 8.41977C192.131 8.36861 192.194 8.32284 192.251 8.28148C192.364 8.19948 192.462 8.12871 192.571 8.06642C193.798 7.36708 195.025 6.66917 196.252 5.97126C198.98 4.41997 201.801 2.81587 204.566 1.22603C204.804 1.08884 205.031 1.02214 205.257 1.02214C205.572 1.02214 205.847 1.15509 206.051 1.27097C208.785 2.82611 211.524 4.37371 214.263 5.92115L217.847 7.94723C218.004 8.03453 218.159 8.12584 218.377 8.25356L218.57 8.36657L218.731 8.46042L218.848 8.39009L218.854 8.53295L218.982 8.60769L218.861 8.69168L218.87 8.89815C218.877 9.0604 218.885 9.20007 218.891 9.3252C218.904 9.55756 218.914 9.74201 218.913 9.92689L218.881 13.3998C218.85 16.6455 218.818 20.0017 218.807 23.3029C218.806 23.9993 218.554 24.4293 217.939 24.7866C215.538 26.1974 213.104 27.6526 210.75 29.0598L208.733 30.2651L207.024 31.2862L205.655 32.1038L205.696 32.1277L206.531 32.6101C207.272 33.0376 207.965 33.4369 208.652 33.8435C209.983 34.6291 211.315 35.4161 212.646 36.2032C214.439 37.2637 216.233 38.3242 218.028 39.3818C218.444 39.6263 218.852 39.9241 218.855 40.6292C218.877 43.5339 218.91 46.4388 218.942 49.344C218.962 51.1279 218.983 52.912 219 54.6964C219.002 54.8472 218.96 54.9814 218.92 55.1112C218.903 55.1626 218.886 55.2166 218.872 55.2749L218.78 55.6432L218.443 55.4727C218.367 55.4344 218.297 55.4003 218.231 55.3682C218.084 55.2968 217.957 55.2352 217.831 55.1585L214.549 53.2066C211.78 51.5586 208.916 49.8546 206.092 48.1916C205.704 47.9624 205.483 47.6862 205.392 47.2911L205.39 47.5212L205.388 47.6926L205.242 47.7801C200.924 50.3578 196.662 52.9004 192.246 55.534L191.785 55.8089L191.786 55.7499L191.728 55.7881C191.649 55.8408 191.581 55.8879 191.52 55.9303C191.403 56.0114 191.308 56.0767 191.209 56.1331L187.932 57.9969C185.095 59.6093 182.162 61.2767 179.287 62.9296C179.024 63.0808 178.777 63.1543 178.534 63.1543C178.426 63.1543 178.318 63.14 178.206 63.1106C178.427 63.3364 178.583 63.641 178.587 64.1017C178.609 67.1639 178.644 70.2261 178.679 73.2884C178.697 74.8567 178.715 76.4251 178.731 77.9935C178.733 78.1478 178.7 78.2938 178.668 78.435C178.652 78.5023 178.636 78.5731 178.623 78.6493L178.586 78.8663L178.72 78.9653L178.641 79.0161L178.741 78.9965L178.738 79.3691L178.699 83.6163L178.6 94.3712L178.598 94.5427L178.452 94.63C175.606 96.3278 172.783 98.0136 169.911 99.7285L165.458 102.387L164.997 102.663L164.998 102.597L164.954 102.625C164.853 102.69 164.763 102.749 164.679 102.804C164.509 102.916 164.365 103.01 164.216 103.096C163.108 103.728 161.999 104.358 160.89 104.987C158.168 106.534 155.353 108.134 152.596 109.725C152.284 109.905 152.012 109.989 151.738 109.989C151.466 109.989 151.195 109.906 150.883 109.728C147.998 108.077 145.055 106.414 142.208 104.806L139.242 103.13C139.101 103.052 138.96 102.97 138.786 102.869L138.446 102.672L138.244 102.555L138.207 102.575L138.203 102.532L138.189 102.524L138.076 102.6C137.995 102.655 137.926 102.703 137.864 102.747C137.75 102.828 137.656 102.894 137.557 102.95C136.457 103.577 135.357 104.203 134.256 104.829C131.401 106.453 128.448 108.132 125.553 109.8C125.318 109.935 125.094 110 124.867 110C124.54 110 124.253 109.861 123.991 109.71C121.311 108.185 118.626 106.667 115.942 105.149L112.413 103.153C112.259 103.068 112.103 102.977 111.914 102.866L111.552 102.655L111.129 102.41L111.357 102.257L111.316 102.105ZM111.588 70.2226C111.592 70.7016 111.697 71.0194 112.143 71.2822C116.136 73.6304 120.117 76.0025 124.105 78.3658C124.225 78.4376 124.361 78.4881 124.607 78.6052C124.621 78.2546 124.643 78.0294 124.639 77.8054C124.589 73.2656 124.531 68.7246 124.492 64.1831C124.488 63.7065 124.378 63.394 123.934 63.1313C119.966 60.7966 116.011 58.4347 112.053 56.0828C111.905 55.996 111.747 55.9318 111.516 55.8154C111.486 56.084 111.438 56.2991 111.442 56.516C111.489 61.0866 111.551 65.6561 111.588 70.2226ZM178.046 47.9458C178.191 47.8912 178.332 47.8644 178.473 47.8644C178.636 47.8644 178.801 47.8999 178.979 47.9745C178.712 47.7563 178.558 47.4935 178.495 47.1531C178.429 47.4693 178.285 47.724 178.046 47.9458ZM178.927 16.1738C178.758 16.2298 178.595 16.2566 178.43 16.2566C178.279 16.2566 178.13 16.2343 177.973 16.1871C178.228 16.4051 178.375 16.6655 178.434 16.9991C178.506 16.6658 178.664 16.4019 178.927 16.1738ZM178.237 46.6983C178.247 42.2418 178.301 37.7858 178.339 33.3292C178.341 33.0493 178.32 32.7689 178.307 32.3891C178.022 32.5222 177.816 32.6013 177.631 32.7118C173.723 35.0405 169.819 37.3734 165.91 39.7003C165.545 39.9183 165.306 40.1293 165.302 40.6284C165.281 45.2871 165.229 49.9451 165.19 54.6055C165.188 54.7695 165.218 54.9359 165.247 55.2389C165.627 55.025 165.879 54.8908 166.123 54.7434C169.908 52.4877 173.683 50.2196 177.479 47.9854C178.012 47.6717 178.235 47.3389 178.237 46.6983ZM124.311 47.946C124.448 47.9028 124.581 47.882 124.716 47.882C124.841 47.882 124.967 47.9006 125.099 47.939C124.872 47.7333 124.768 47.4991 124.72 47.2632C124.664 47.5859 124.501 47.7937 124.311 47.946ZM125.085 16.1962C124.935 16.2425 124.791 16.2649 124.646 16.2649C124.482 16.2648 124.318 16.2364 124.148 16.1769C124.41 16.3706 124.565 16.606 124.633 16.9154C124.692 16.5649 124.877 16.3504 125.085 16.1962ZM124.066 48.3889C120.15 50.6469 116.214 52.8716 112.286 55.1106C112.091 55.22 111.911 55.356 111.574 55.5807C111.96 55.8052 112.203 55.9473 112.448 56.0887C116.285 58.2552 120.128 60.4128 123.953 62.6007C124.232 62.7598 124.477 62.8463 124.726 62.8463C124.952 62.8464 125.181 62.7754 125.445 62.6233C129.309 60.3914 133.197 58.1976 137.075 55.989C137.294 55.8635 137.501 55.7162 137.793 55.5267C137.556 55.3543 137.393 55.2076 137.207 55.1012C133.273 52.8692 129.334 50.6505 125.407 48.4049C125.157 48.2629 124.939 48.1862 124.716 48.1862C124.512 48.1862 124.304 48.2509 124.066 48.3889ZM124.983 46.8035C124.987 47.2676 125.062 47.6033 125.518 47.8701C129.516 50.2196 133.5 52.5959 137.488 54.9626C137.607 55.0345 137.741 55.0844 137.951 55.1849C137.985 54.9157 138.038 54.7029 138.035 54.4896C137.987 49.9165 137.92 45.3423 137.893 40.7693C137.888 40.1923 137.681 39.8892 137.204 39.6087C133.281 37.302 129.372 34.9679 125.458 32.6482C125.314 32.5614 125.154 32.502 124.875 32.3725C124.856 32.7206 124.833 32.9458 124.835 33.1699C124.884 37.7145 124.941 42.2596 124.983 46.8035ZM138.152 40.346C138.2 40.0782 138.321 39.8679 138.533 39.6849C138.405 39.7269 138.28 39.7475 138.153 39.7475C138.034 39.7475 137.92 39.7283 137.813 39.698C137.987 39.8827 138.097 40.0929 138.152 40.346ZM138.061 71.2135L137.946 71.2819C138.03 71.2619 138.113 71.252 138.197 71.252C138.296 71.252 138.39 71.2661 138.479 71.2889C138.348 71.1435 138.26 70.9748 138.211 70.7737L138.209 70.9545L138.207 71.1261L138.061 71.2135ZM125.711 32.5507C129.641 34.7784 133.578 36.9978 137.505 39.232C137.734 39.362 137.938 39.4432 138.153 39.4432C138.32 39.4432 138.493 39.3945 138.689 39.2819C142.682 36.9865 146.687 34.7172 150.687 32.4408C150.831 32.3588 150.962 32.2525 151.239 32.0593C150.919 31.8739 150.723 31.7557 150.523 31.6452C146.59 29.4222 142.656 27.2016 138.726 24.9698C138.498 24.8396 138.293 24.7572 138.076 24.7572C137.91 24.7572 137.736 24.8057 137.54 24.9181C133.549 27.2147 129.545 29.4823 125.544 31.7581C125.4 31.8412 125.268 31.9459 125.049 32.098C125.31 32.2786 125.5 32.4331 125.711 32.5507ZM150.765 32.7195C146.83 35.0625 142.9 37.4161 138.961 39.7532C138.597 39.9689 138.432 40.1964 138.43 40.6368C138.402 45.3263 138.352 50.0182 138.311 54.7089C138.31 54.8212 138.332 54.9359 138.356 55.195C140.603 53.9757 142.7 52.6399 144.837 51.3807C146.993 50.1079 149.137 48.8155 151.301 47.5195C151.347 42.5056 151.391 37.5273 151.438 32.4307C151.152 32.552 150.944 32.6126 150.765 32.7195ZM138.5 55.5379C139.227 55.9603 139.818 56.3086 140.416 56.6455C143.874 58.6058 147.344 60.5471 150.79 62.5264C151.099 62.7037 151.367 62.8007 151.642 62.8007C151.89 62.8007 152.143 62.722 152.435 62.5525C156.245 60.3402 160.082 58.1773 163.909 55.9948C164.153 55.8558 164.388 55.7025 164.702 55.5088C164.492 55.343 164.357 55.1986 164.194 55.1071C160.236 52.8622 156.269 50.6291 152.319 48.3711C152.069 48.229 151.851 48.1531 151.629 48.1531C151.424 48.1531 151.215 48.218 150.976 48.3556C147.06 50.6137 143.124 52.8396 139.197 55.0762C139.002 55.1866 138.823 55.3227 138.5 55.5379ZM151.605 47.339L151.603 47.5224L151.602 47.6936L151.455 47.7811L151.249 47.9049C151.377 47.8671 151.503 47.8489 151.629 47.8489C151.719 47.8489 151.809 47.8584 151.902 47.8779C151.737 47.7119 151.65 47.5267 151.605 47.339ZM151.684 16.3831L151.798 16.3151C151.706 16.3389 151.615 16.3506 151.522 16.3506C151.44 16.3505 151.356 16.341 151.271 16.3213C151.413 16.4768 151.492 16.6476 151.534 16.8205L151.536 16.642L151.537 16.4705L151.684 16.3831ZM151.86 46.9052C151.864 47.3134 151.952 47.6033 152.334 47.8309C156.401 50.2268 160.457 52.6411 164.516 55.05C164.589 55.0951 164.676 55.1118 164.871 55.1849C164.888 54.8658 164.912 54.6406 164.909 54.4183C164.859 49.8774 164.8 45.3388 164.761 40.7978C164.757 40.3231 164.657 40.0021 164.211 39.7396C160.217 37.3889 156.237 35.0156 152.254 32.6483C152.132 32.5752 151.998 32.5223 151.805 32.4295C151.767 32.653 151.707 32.8395 151.71 33.0226C151.757 37.6509 151.816 42.2786 151.86 46.9052ZM165.023 40.3613C165.089 40.0002 165.281 39.7752 165.501 39.6077C165.346 39.6558 165.197 39.679 165.047 39.679C164.877 39.679 164.709 39.6498 164.53 39.5872C164.832 39.8146 164.966 40.0827 165.023 40.3613ZM152.753 32.5941C156.584 34.7665 160.422 36.9247 164.24 39.1168C164.532 39.2842 164.787 39.3747 165.047 39.3747C165.285 39.3748 165.529 39.2987 165.811 39.1358C169.667 36.8992 173.552 34.7101 177.427 32.502C177.624 32.3914 177.809 32.2584 178.071 32.0878C177.913 31.9518 177.809 31.8281 177.677 31.7533C173.622 29.4548 169.561 27.1653 165.506 24.8616C165.327 24.7588 165.163 24.7009 164.996 24.7009C164.854 24.7009 164.708 24.7428 164.549 24.8349C160.454 27.179 156.354 29.5119 152.256 31.8502C152.186 31.8917 152.13 31.9589 151.942 32.1252C152.266 32.3137 152.51 32.4557 152.753 32.5941ZM165.115 70.6675C165.062 70.9996 164.895 71.2109 164.7 71.3648C164.839 71.3209 164.974 71.2998 165.11 71.2998C165.243 71.2998 165.377 71.3208 165.516 71.3642C165.309 71.1739 165.179 70.9484 165.115 70.6675ZM165.11 71.604C164.905 71.604 164.697 71.6686 164.459 71.8056C160.542 74.0635 156.607 76.2894 152.679 78.5285C152.485 78.639 152.306 78.7727 151.965 78.9991C152.351 79.2231 152.594 79.3664 152.839 79.5054C156.676 81.6731 160.519 83.83 164.344 86.0186C164.623 86.1786 164.867 86.2654 165.116 86.2654C165.342 86.2654 165.571 86.1944 165.835 86.0423C169.7 83.8105 173.587 81.6148 177.465 79.4068C177.685 79.2814 177.894 79.1364 178.186 78.9481C177.949 78.7728 177.786 78.626 177.6 78.5202C173.665 76.2895 169.727 74.0695 165.802 71.824C165.551 71.6808 165.332 71.604 165.11 71.604ZM152.374 78.38C156.359 76.006 160.341 73.6257 164.326 71.2512C164.649 71.0616 164.828 70.856 164.832 70.4419C164.858 65.6929 164.905 60.9428 164.945 56.1939C164.946 56.1101 164.924 56.0251 164.886 55.7464C160.515 58.3532 156.247 60.9006 151.926 63.4789C151.881 68.4887 151.835 73.4914 151.788 78.5933C152.034 78.5059 152.22 78.4703 152.374 78.38ZM151.624 63.4761L151.626 63.3046L151.772 63.2171L152.058 63.0469C151.917 63.0859 151.78 63.1049 151.642 63.1049C151.487 63.1049 151.332 63.0811 151.17 63.0309C151.431 63.2621 151.56 63.5204 151.622 63.7867L151.624 63.4761ZM151.257 94.7975C151.399 94.7458 151.538 94.7206 151.678 94.7206C151.861 94.7206 152.027 94.7639 152.178 94.8246C151.905 94.6176 151.751 94.3673 151.697 94.0451C151.627 94.3433 151.485 94.5856 151.257 94.7975ZM151.373 64.3132C151.368 63.738 151.226 63.3714 150.693 63.0612C146.79 60.777 142.907 58.4572 139.018 56.1493C138.849 56.0489 138.666 55.9687 138.416 55.8385C138.374 56.0756 138.313 56.2593 138.314 56.4416C138.362 61.0711 138.421 65.703 138.463 70.3355C138.467 70.7853 138.589 71.0771 138.998 71.3159C142.992 73.675 146.975 76.0507 150.962 78.4197C151.083 78.4917 151.216 78.5404 151.479 78.6616C151.496 78.2784 151.518 78.0258 151.516 77.7732C151.466 73.2864 151.405 68.8012 151.373 64.3132ZM150.799 78.5481C146.791 76.2812 142.783 74.019 138.776 71.7443C138.574 71.6297 138.39 71.5562 138.197 71.5562C138.054 71.5562 137.907 71.5965 137.743 71.6903C133.674 74.0226 129.597 76.34 125.524 78.6627C125.43 78.718 125.349 78.797 125.137 78.9634C125.489 79.169 125.733 79.3134 125.982 79.4542C129.812 81.6236 133.652 83.7801 137.469 85.9764C137.755 86.1414 138.003 86.2247 138.252 86.2247C138.5 86.2247 138.75 86.1416 139.038 85.9739C142.872 83.7528 146.732 81.5768 150.58 79.3829C150.801 79.2581 151.009 79.1114 151.308 78.92C151.096 78.7632 150.957 78.639 150.799 78.5481ZM137.907 70.9517C137.952 65.9526 137.998 60.9541 138.044 55.9425C137.377 56.0862 126.45 62.5121 125.047 63.5698C125.003 68.5273 124.958 73.5187 124.912 78.702C129.334 76.0655 133.595 73.5229 137.907 70.9517ZM124.744 63.7063L124.745 63.5671L124.746 63.4165L124.866 63.3262C124.956 63.2587 125.095 63.1623 125.278 63.0416C125.089 63.1153 124.909 63.1504 124.726 63.1504C124.622 63.1504 124.518 63.1386 124.41 63.1144C124.595 63.2976 124.693 63.499 124.744 63.7063ZM124.668 94.6314C124.6 94.6717 124.532 94.7122 124.465 94.7525C124.59 94.7166 124.712 94.6988 124.834 94.6988C124.932 94.6988 125.03 94.7098 125.13 94.7325C124.96 94.5582 124.867 94.3617 124.818 94.1417L124.816 94.3724L124.814 94.5439L124.668 94.6314ZM111.536 40.0628C111.49 45.0756 111.444 50.0788 111.397 55.1659C111.617 55.0975 111.781 55.0803 111.913 55.0007C115.922 52.6144 119.928 50.218 123.939 47.8333C124.265 47.6379 124.437 47.4263 124.439 47.0163C124.466 42.2674 124.513 37.519 124.551 32.7701C124.552 32.6863 124.531 32.6013 124.493 32.3292C120.121 34.9377 115.851 37.4857 111.536 40.0628ZM111.319 9.50425C111.365 14.1884 111.423 18.8731 111.467 23.5579C111.472 23.9435 111.588 24.202 111.931 24.4047C116.021 26.8184 120.103 29.2421 124.19 31.6642C124.238 31.6921 124.298 31.6981 124.48 31.7533C124.496 31.4598 124.519 31.237 124.516 31.0153C124.467 26.4458 124.41 21.8769 124.371 17.3056C124.367 16.8505 124.234 16.5682 123.83 16.3305C119.839 13.9757 115.859 11.6054 111.875 9.23686C111.753 9.16383 111.62 9.1097 111.433 9.017C111.388 9.20117 111.317 9.35213 111.319 9.50425ZM136.928 8.12568C133.044 5.93067 129.156 3.74399 125.283 1.52932C125.04 1.39086 124.829 1.32136 124.618 1.32136C124.405 1.32136 124.192 1.39208 123.945 1.53406C120.057 3.77428 116.149 5.98415 112.25 8.20465C112.035 8.32708 111.837 8.48223 111.559 8.6664C111.852 8.85475 112.056 9.00158 112.273 9.12457C116.153 11.3255 120.041 13.5123 123.91 15.7316C124.177 15.885 124.412 15.9607 124.646 15.9607C124.887 15.9607 125.127 15.8804 125.402 15.7221C129.264 13.4932 133.147 11.297 137.02 9.0913C137.236 8.96892 137.433 8.81317 137.747 8.59987C137.407 8.4032 137.168 8.26121 136.928 8.12568ZM137.921 9.02885C137.728 9.0859 137.563 9.10193 137.433 9.17859C133.424 11.5655 129.423 13.9584 125.414 16.343C125.087 16.5367 124.917 16.7518 124.915 17.1583C124.886 21.9048 124.84 26.6483 124.802 31.3949C124.801 31.4805 124.828 31.5661 124.863 31.7859C125.171 31.6273 125.399 31.5233 125.613 31.3973C129.472 29.0947 133.323 26.7856 137.19 24.4979C137.631 24.237 137.836 23.9636 137.838 23.4176C137.856 18.8457 137.907 14.2727 137.949 9.70202C137.949 9.50188 137.932 9.30103 137.921 9.02885ZM138.108 23.7765C138.051 24.076 137.914 24.3139 137.678 24.5216C137.812 24.4755 137.944 24.453 138.076 24.453C138.253 24.453 138.418 24.4953 138.565 24.5531C138.281 24.3234 138.159 24.0546 138.108 23.7765ZM138.269 8.97537C138.251 9.29745 138.228 9.52325 138.228 9.74729C138.28 14.2859 138.338 18.8263 138.378 23.3684C138.381 23.8408 138.474 24.1664 138.922 24.432C142.918 26.7762 146.899 29.1495 150.886 31.5144C151.007 31.5863 151.141 31.638 151.336 31.7319C151.373 31.5079 151.431 31.3219 151.43 31.1377C151.383 26.5106 151.323 21.8834 151.28 17.2574C151.276 16.8492 151.182 16.557 150.802 16.3317C146.735 13.934 142.679 11.5198 138.62 9.1108C138.547 9.06751 138.461 9.04845 138.269 8.97537ZM163.861 8.17497C160.001 5.98768 156.133 3.81465 152.289 1.60119C152.005 1.43823 151.759 1.35826 151.514 1.35826C151.26 1.35826 151.008 1.44451 150.717 1.6137C146.878 3.83128 143.016 6.01207 139.164 8.20702C138.942 8.33303 138.731 8.47744 138.442 8.65984C138.635 8.82209 138.763 8.9676 138.921 9.0544C142.932 11.3267 146.945 13.5901 150.955 15.8641C151.154 15.9783 151.335 16.0464 151.522 16.0464C151.67 16.0464 151.822 16.0041 151.99 15.9087C156.063 13.5746 160.144 11.2554 164.221 8.92966C164.318 8.87442 164.401 8.79423 164.629 8.61953C164.295 8.42512 164.079 8.29922 163.861 8.17497ZM151.838 16.6449C151.793 21.6749 151.746 26.6639 151.7 31.8549C156.118 29.2184 160.379 26.6758 164.695 24.1028C164.741 19.1055 164.787 14.1064 164.834 8.88681C160.389 11.5406 156.123 14.0875 151.838 16.6449ZM164.997 24.1057L164.995 24.2772L164.849 24.3646C164.813 24.3859 164.778 24.4069 164.742 24.4282C164.827 24.4071 164.911 24.3967 164.996 24.3967C165.086 24.3967 165.176 24.4082 165.267 24.432C165.123 24.2654 165.042 24.0851 164.999 23.9001L164.997 24.1057ZM165.104 9.70924C165.154 14.2823 165.211 18.8553 165.252 23.4302C165.257 23.9044 165.364 24.2229 165.81 24.4861C169.759 26.8094 173.689 29.1596 177.627 31.4989C177.793 31.5976 177.973 31.6702 178.265 31.808C178.285 31.4669 178.308 31.2667 178.307 31.067C178.257 26.4939 178.193 21.9209 178.161 17.3461C178.157 16.8178 177.982 16.5106 177.528 16.2437C173.604 13.9383 169.694 11.6077 165.779 9.28489C165.613 9.1863 165.433 9.11201 165.174 8.98429C165.144 9.27789 165.102 9.49357 165.104 9.70924ZM190.983 8.25758C187.025 6.01329 183.059 3.78144 179.107 1.52337C178.858 1.38068 178.64 1.30407 178.417 1.30407C178.212 1.30407 178.004 1.36933 177.765 1.50795C173.848 3.76359 169.912 5.9901 165.985 8.22729C165.792 8.33837 165.612 8.47507 165.288 8.68898C166.016 9.1097 166.606 9.4603 167.204 9.79896C170.663 11.7563 174.131 13.6976 177.577 15.6775C177.886 15.8552 178.155 15.9525 178.43 15.9525C178.678 15.9525 178.93 15.874 179.221 15.7048C183.006 13.5045 186.818 11.357 190.621 9.18933C190.891 9.0354 191.156 8.87673 191.503 8.67235C191.28 8.49231 191.147 8.34966 190.983 8.25758ZM191.699 8.93913C191.363 9.11564 191.112 9.23147 190.875 9.37411C187.063 11.6446 183.263 13.9323 179.438 16.1838C178.901 16.4993 178.691 16.8386 178.69 17.4744C178.678 21.9334 178.624 26.3936 178.585 30.8519C178.583 31.1318 178.608 31.4129 178.622 31.7985C178.958 31.6215 179.21 31.5038 179.446 31.3641C183.256 29.0925 187.059 26.8054 190.884 24.5551C191.42 24.2384 191.627 23.8967 191.628 23.2621C191.641 18.8037 191.695 14.3453 191.733 9.88278C191.736 9.60581 191.714 9.32713 191.699 8.93913ZM178.853 32.0635C179.002 32.2067 179.095 32.3487 179.225 32.4218C183.284 34.7226 187.35 37.0139 191.406 39.3189C191.583 39.4178 191.744 39.4706 191.905 39.4706C192.054 39.4706 192.202 39.4262 192.365 39.3325C196.465 36.9866 200.569 34.6507 204.669 32.3095C204.743 32.2685 204.802 32.202 204.974 32.0611C204.688 31.8728 204.485 31.7254 204.267 31.6024C200.408 29.4157 196.542 27.2421 192.696 25.031C192.405 24.8645 192.154 24.778 191.899 24.778C191.655 24.778 191.409 24.8575 191.123 25.0221C187.287 27.2433 183.424 29.4222 179.571 31.6178C179.348 31.7444 179.135 31.8864 178.853 32.0635ZM191.885 23.7362C191.814 24.0693 191.658 24.3331 191.398 24.5607C191.57 24.5019 191.734 24.4737 191.899 24.4737C192.033 24.4737 192.168 24.4927 192.307 24.5318C192.044 24.3062 191.929 24.0422 191.885 23.7362ZM192.017 9.74729C192.063 14.2912 192.121 18.8364 192.163 23.3797C192.166 23.8485 192.253 24.1759 192.705 24.4427C196.679 26.7774 200.637 29.1405 204.6 31.493C204.744 31.578 204.9 31.6427 205.192 31.786C205.202 31.3552 205.216 31.0723 205.214 30.7907C205.164 26.3609 205.1 21.9333 205.077 17.5035C205.073 16.8492 204.89 16.4654 204.306 16.1225C200.426 13.8586 196.571 11.5495 192.706 9.25641C192.537 9.15601 192.354 9.08293 192.079 8.95218C192.053 9.26539 192.014 9.50662 192.017 9.74729ZM217.699 8.21242C213.767 5.98773 209.829 3.76949 205.903 1.53588C205.674 1.40623 205.471 1.32626 205.257 1.32626C205.089 1.32626 204.914 1.37594 204.716 1.49011C200.726 3.78381 196.719 6.05184 192.72 8.33066C192.575 8.41388 192.446 8.51902 192.229 8.66998C192.467 8.83752 192.636 8.97537 192.821 9.08177C196.777 11.3214 200.737 13.558 204.69 15.8047C204.917 15.9332 205.12 16.0118 205.332 16.0118C205.502 16.0118 205.677 15.9616 205.877 15.8469C209.868 13.5527 213.873 11.2851 217.872 9.00808C218.018 8.92371 218.148 8.81736 218.418 8.62961C218.094 8.43999 217.898 8.32356 217.699 8.21242ZM205.644 46.8113C205.647 47.324 205.776 47.6526 206.245 47.9289C210.167 50.2387 214.074 52.5733 217.987 54.8979C218.156 55.0006 218.34 55.0803 218.579 55.2009C218.627 55.0066 218.7 54.8539 218.698 54.6994C218.652 50.0087 218.588 45.3204 218.553 40.6308C218.55 40.0925 218.265 39.8732 217.876 39.6444C214.748 37.8017 211.625 35.9501 208.499 34.1058C207.561 33.5508 206.614 33.0094 205.546 32.3914C205.524 32.7296 205.495 32.9553 205.497 33.177C205.547 37.7216 205.607 42.2661 205.644 46.8113ZM208.579 30.0034C211.647 28.172 214.71 26.3317 217.788 24.523C218.293 24.23 218.504 23.9056 218.505 23.3018C218.52 18.8423 218.572 14.3839 218.611 9.92552C218.612 9.64568 218.588 9.367 218.568 8.91121C214.183 11.5311 209.92 14.0761 205.624 16.6384C205.579 21.6582 205.534 26.6532 205.487 31.8502C206.656 31.1526 207.617 30.5774 208.579 30.0034ZM205.319 16.9421L205.321 16.6357L205.323 16.464L205.47 16.3766C205.526 16.3427 205.583 16.309 205.64 16.275C205.537 16.3025 205.434 16.3159 205.332 16.3159C205.202 16.3159 205.079 16.2935 204.965 16.2591C205.141 16.453 205.255 16.6754 205.319 16.9421ZM205.088 47.5184C205.134 42.4759 205.178 37.5024 205.224 32.5614C205.144 32.5151 205.12 32.4973 205.095 32.4901C205.077 32.4821 205.053 32.4739 205.034 32.4739C205.027 32.4739 205.022 32.4748 205.017 32.477C204.862 32.5519 204.703 32.6214 204.555 32.7064C200.454 35.154 196.353 37.6027 192.229 40.0651C192.184 45.0886 192.139 50.0799 192.092 55.2722C196.508 52.6386 200.77 50.0961 205.088 47.5184ZM191.927 40.0624L191.929 39.8909L192.075 39.8035L192.187 39.7366C192.093 39.7622 191.999 39.7749 191.906 39.7749H191.905C191.827 39.7749 191.75 39.7664 191.671 39.7491C191.807 39.9022 191.884 40.0693 191.926 40.2381L191.927 40.0624ZM191.823 54.5568C191.774 49.9279 191.717 45.3031 191.672 40.6749C191.667 40.266 191.575 39.9772 191.195 39.7497C187.128 37.3544 183.072 34.9378 179.013 32.53C178.941 32.4878 178.854 32.4682 178.661 32.3951C178.643 32.7159 178.618 32.94 178.621 33.164C178.671 37.7038 178.732 42.2454 178.765 46.7851C178.769 47.3134 178.935 47.6224 179.388 47.8897C183.333 50.2107 187.265 52.5537 191.201 54.886C191.349 54.9734 191.506 55.0417 191.725 55.1493C191.764 54.9258 191.824 54.741 191.823 54.5568ZM178.534 62.8501C178.724 62.8501 178.917 62.7918 179.138 62.6654C183.103 60.386 187.085 58.1316 191.06 55.8682C191.205 55.7857 191.34 55.6817 191.562 55.5343C191.344 55.3698 191.189 55.2224 191.008 55.1195C187.026 52.8645 183.041 50.6184 179.064 48.3556C178.853 48.236 178.665 48.1687 178.473 48.1687C178.309 48.1687 178.141 48.2181 177.952 48.3265C173.934 50.6302 169.905 52.9162 165.88 55.2092C165.759 55.2782 165.652 55.3697 165.425 55.5319C165.706 55.7161 165.888 55.8509 166.084 55.9603C170.016 58.1856 173.952 60.4062 177.876 62.6411C178.112 62.7757 178.32 62.8501 178.534 62.8501ZM178.285 64.104C178.281 63.5472 178.028 63.2852 177.597 63.0315C174.095 60.9755 170.602 58.9035 167.105 56.8362C166.539 56.5016 165.969 56.176 165.253 55.7607C165.241 56.1938 165.226 56.4773 165.229 56.759C165.279 61.2446 165.339 65.7304 165.37 70.2178C165.374 70.736 165.52 71.0568 165.982 71.3302C169.905 73.6357 173.814 75.9686 177.727 78.2914C177.897 78.3936 178.078 78.4732 178.326 78.598C178.365 78.3657 178.431 78.1803 178.429 77.9966C178.381 73.3654 178.318 68.7347 178.285 64.104ZM178.298 94.3684C178.345 89.3752 178.39 84.3773 178.436 79.3663C177.784 79.494 166.964 85.8486 165.439 86.9847C165.396 91.9398 165.35 96.933 165.304 102.126C169.748 99.4727 173.997 96.9342 178.298 94.3684ZM165.137 86.9821L165.138 86.8304L165.259 86.7402C165.351 86.672 165.486 86.5787 165.659 86.4643C165.473 86.5356 165.296 86.5697 165.116 86.5697C165.015 86.5697 164.915 86.5591 164.812 86.5368C164.995 86.72 165.088 86.9237 165.135 87.1301L165.137 86.9821ZM164.99 102.002C165.007 101.669 165.033 101.419 165.03 101.168C164.981 96.6538 164.924 92.1425 164.882 87.6319C164.877 87.1696 164.808 86.8326 164.35 86.5635C160.332 84.2026 156.329 81.8103 152.318 79.4294C152.22 79.3717 152.114 79.3313 151.938 79.2493C151.897 79.4597 151.828 79.6403 151.831 79.8186C151.878 84.473 151.938 89.1293 151.978 93.7844C151.982 94.2176 152.149 94.4677 152.511 94.6822C156.5 97.0359 160.483 99.4068 164.47 101.768C164.611 101.851 164.766 101.902 164.99 102.002ZM139.39 102.865C143.273 105.061 147.161 107.248 151.032 109.464C151.289 109.61 151.513 109.685 151.738 109.685C151.962 109.685 152.187 109.611 152.446 109.461C156.308 107.232 160.192 105.039 164.067 102.832C164.285 102.706 164.492 102.561 164.791 102.369C164.526 102.187 164.334 102.034 164.126 101.913C160.193 99.6872 156.257 97.4678 152.328 95.2365C152.098 95.1065 151.894 95.0247 151.678 95.0247C151.512 95.0247 151.34 95.073 151.143 95.1848C147.153 97.4815 143.147 99.7489 139.147 102.029C139.002 102.11 138.871 102.215 138.596 102.408C138.946 102.609 139.165 102.74 139.39 102.865ZM138.462 102.085C138.842 101.873 139.095 101.738 139.341 101.59C143.123 99.3372 146.899 97.0667 150.695 94.8325C151.23 94.5182 151.447 94.18 151.448 93.5442C151.459 89.0858 151.514 84.6322 151.551 80.1733C151.553 79.8964 151.531 79.6177 151.516 79.2368C151.23 79.3716 151.026 79.4519 150.839 79.5636C146.933 81.8923 143.028 84.2275 139.119 86.5509C138.75 86.7696 138.517 86.9835 138.515 87.4797C138.493 92.1413 138.441 96.7987 138.401 101.457C138.4 101.621 138.432 101.785 138.462 102.085ZM138.241 87.1833C138.31 86.8353 138.499 86.6173 138.714 86.4545C138.556 86.5048 138.404 86.529 138.252 86.529C138.09 86.529 137.927 86.5013 137.757 86.4438C138.061 86.6557 138.189 86.9137 138.241 87.1833ZM138.122 101.364C138.073 96.7661 138.016 92.1675 137.972 87.5695C137.969 87.1625 137.888 86.8689 137.503 86.6413C133.438 84.2425 129.382 81.8265 125.323 79.4175C125.25 79.3741 125.165 79.3546 124.963 79.2767C124.945 79.5905 124.92 79.8138 124.923 80.0367C124.974 84.5771 125.032 89.1186 125.072 93.6578C125.077 94.1267 125.159 94.4558 125.611 94.7226C129.606 97.0698 133.585 99.4454 137.57 101.811C137.692 101.883 137.825 101.938 138.041 102.046C138.074 101.784 138.123 101.573 138.122 101.364ZM112.561 102.888C116.422 105.074 120.285 107.252 124.141 109.446C124.395 109.592 124.621 109.696 124.867 109.696C125.032 109.696 125.206 109.649 125.403 109.536C129.396 107.235 133.405 104.966 137.408 102.686C137.555 102.602 137.689 102.495 137.908 102.347C137.691 102.181 137.531 102.027 137.346 101.923C133.413 99.6926 129.472 97.4738 125.545 95.2307C125.29 95.0857 125.065 95.003 124.834 95.003C124.636 95.003 124.434 95.0632 124.203 95.1961C120.26 97.4667 116.299 99.7063 112.348 101.959C112.177 102.056 112.02 102.178 111.702 102.391C112.077 102.608 112.317 102.753 112.561 102.888ZM111.608 102.025C113.816 100.822 115.916 99.4905 118.054 98.2272C120.207 96.9545 122.353 95.6596 124.514 94.3696C124.559 89.3485 124.604 84.3761 124.649 79.301C124.39 79.3966 124.202 79.4334 124.047 79.5262C120.084 81.8846 116.132 84.252 112.17 86.6092C111.853 86.7969 111.642 86.98 111.64 87.403C111.616 92.1822 111.571 96.9579 111.533 101.736C111.532 101.791 111.559 101.845 111.608 102.025Z" fill="url(#paint2_linear_755_1034)"/>
</g>
<defs>
<linearGradient id="paint0_linear_755_1034" x1="179" y1="63.5" x2="287" y2="63.5" gradientUnits="userSpaceOnUse">
<stop stop-color="#E5E4E2"/>
<stop offset="0.25" stop-color="#9D9D9D"/>
<stop offset="0.5" stop-color="#B7B6B3"/>
<stop offset="0.75" stop-color="#9D9D9D"/>
<stop offset="1" stop-color="#E5E4E2"/>
</linearGradient>
<linearGradient id="paint1_linear_755_1034" x1="3.99998" y1="55.5" x2="112" y2="55.5" gradientUnits="userSpaceOnUse">
<stop stop-color="#E5E4E2"/>
<stop offset="0.25" stop-color="#9D9D9D"/>
<stop offset="0.5" stop-color="#B7B6B3"/>
<stop offset="0.75" stop-color="#9D9D9D"/>
<stop offset="1" stop-color="#E5E4E2"/>
</linearGradient>
<linearGradient id="paint2_linear_755_1034" x1="219" y1="55.5" x2="111" y2="55.5" gradientUnits="userSpaceOnUse">
<stop stop-color="#E5E4E2"/>
<stop offset="0.25" stop-color="#9D9D9D"/>
<stop offset="0.5" stop-color="#B7B6B3"/>
<stop offset="0.75" stop-color="#9D9D9D"/>
<stop offset="1" stop-color="#E5E4E2"/>
</linearGradient>
</defs>
</svg>
