<svg width="201" height="187" viewBox="0 0 201 187" fill="none" xmlns="http://www.w3.org/2000/svg">
<path d="M0.81629 113.535C0.775363 113.276 0.732863 113.008 0.701905 112.748C-0.170677 106.403 -0.263026 99.975 0.613229 93.627C0.898143 91.5735 1.2754 89.5252 1.75708 87.4916C3.27715 81.1637 6.1499 75.0282 10.1691 69.8417C12.566 66.7382 15.3826 63.9761 18.5623 61.7064C28.3186 54.7304 38.7723 57.1043 50.0429 55.3921C58.0457 54.1696 66.0217 52.3912 73.5512 49.3372C81.0812 46.2836 88.0514 41.943 93.8436 36.1989C100.496 29.5942 102.947 21.4363 108.213 14.1657C109.882 11.8612 112.542 9.39896 116.348 7.35592C118.251 6.14556 120.296 5.1272 122.455 4.37552C124.623 3.6128 126.913 3.11572 129.337 2.94424C140.647 2.12313 152.105 7.18129 160.76 14.5108C170.004 22.3479 177.136 31.9376 182.051 42.4921C185.204 49.2388 187.441 56.3658 188.763 63.6895C191.51 78.9828 190.233 95.0694 184.714 110.057C168.8 153.286 124.678 189.911 77.1654 186.818C76.723 186.786 76.2907 186.753 75.8468 186.712C75.5807 186.703 75.3021 186.676 75.0335 186.647C73.631 186.524 72.2205 186.351 70.8254 186.145C67.1687 185.595 63.5624 184.782 60.0522 183.679C57.2901 182.803 54.5916 181.754 51.9675 180.531C48.9353 179.107 45.9901 177.588 43.1688 175.957C40.933 174.681 38.767 173.333 36.6798 171.902C31.9165 168.664 27.5373 165.028 23.5685 160.899C21.647 158.911 19.8189 156.806 18.1121 154.57C15.8249 151.62 13.7261 148.447 11.8219 145.029C8.13275 138.429 5.10364 131.306 3.04051 123.927C2.08345 120.511 1.32892 117.032 0.81629 113.535Z" fill="#EEEEEE"/>
<path d="M177.039 75.2639V156.64C177.039 160.994 173.516 164.525 169.174 164.525H40.2581C35.9051 164.525 32.3828 160.994 32.3828 156.64V75.2639C32.3828 72.8563 33.4637 70.6997 35.1548 69.2547C36.5358 68.0812 38.3167 67.3789 40.2581 67.3789H169.174C171.105 67.3789 172.876 68.0812 174.247 69.2347C175.958 70.6897 177.039 72.8463 177.039 75.2639Z" fill="#DCE3DE"/>
<path d="M177.039 75.2639L157.757 85.235L102.73 115.952L49.1938 84.7937L32.3828 75.2639C32.3828 72.8563 33.4637 70.6997 35.1548 69.2547C36.5358 68.0812 38.3167 67.3789 40.2581 67.3789H169.174C171.105 67.3789 172.876 68.0812 174.247 69.2347C175.958 70.6897 177.039 72.8463 177.039 75.2639Z" fill="#698B75"/>
<path d="M177.039 156.64L102.73 115.952L32.3833 156.64" stroke="#698B75" stroke-width="1.00066" stroke-miterlimit="10"/>
<path d="M172.523 68.1532L104.186 30.0056L36.8999 68.1532C36.8999 70.4104 37.9131 72.4329 39.4988 73.7869C40.7932 74.8873 42.4633 75.5458 44.2835 75.5458H165.149C166.96 75.5458 168.62 74.8873 169.905 73.8058C171.509 72.4418 172.523 70.4198 172.523 68.1532Z" fill="#698B75"/>
<path d="M163.381 25.2662C163.381 26.4398 161.619 45.0386 159.478 67.3789C158.918 73.1572 158.337 79.1864 157.757 85.235L102.73 115.952L47.774 84.7937L46.703 67.3789L43.9714 22.9086C66.1963 10.4494 163.381 22.2469 163.381 25.2662Z" fill="white"/>
<path d="M46.703 67.3789L43.9714 22.9086C66.1963 10.4494 163.381 22.2464 163.381 25.2662" stroke="#F9F9F9" stroke-width="1.27891" stroke-miterlimit="10"/>
<path d="M102.994 93.7397C119.535 93.7397 132.943 80.2975 132.943 63.7158C132.943 47.1341 119.535 33.6919 102.994 33.6919C86.454 33.6919 73.0454 47.1341 73.0454 63.7158C73.0454 80.2975 86.454 93.7397 102.994 93.7397Z" fill="#447158"/>
<path d="M87.8928 60.1989L92.7044 71.4535L120.571 55.9787" stroke="white" stroke-width="5.32516" stroke-miterlimit="10" stroke-linecap="round" stroke-linejoin="round"/>
<path d="M172.311 131.865C181.247 131.865 188.491 124.603 188.491 115.644C188.491 106.686 181.247 99.4243 172.311 99.4243C163.375 99.4243 156.131 106.686 156.131 115.644C156.131 124.603 163.375 131.865 172.311 131.865Z" fill="#447158"/>
<path d="M164.239 122.501L165.056 120.793C165.401 120.069 165.537 119.266 165.437 118.472L164.941 114.468C164.54 111.203 166.389 108.185 169.27 106.964C169.26 106.919 169.244 106.879 169.24 106.838C169.104 105.753 169.876 104.769 170.953 104.633C172.036 104.498 173.018 105.266 173.153 106.351C173.158 106.397 173.153 106.437 173.158 106.482C176.244 106.959 178.775 109.435 179.181 112.7L179.677 116.699C179.772 117.497 180.097 118.246 180.608 118.864L181.821 120.32" fill="white"/>
<path d="M168.934 123.524C165.392 123.524 164.459 122.876 164.418 122.716C164.421 122.271 167.017 120.774 172.847 120.049C174.342 119.864 175.831 119.766 177.154 119.766C180.696 119.766 181.63 120.413 181.671 120.574C181.668 121.019 179.072 122.515 173.242 123.24C171.747 123.425 170.257 123.524 168.934 123.524Z" fill="#447158"/>
<path d="M177.155 119.263V120.268C179.165 120.268 180.31 120.491 180.866 120.677C179.94 121.268 177.325 122.226 173.18 122.741C171.705 122.924 170.237 123.021 168.934 123.021C166.923 123.021 165.778 122.797 165.223 122.612C166.149 122.021 168.763 121.062 172.909 120.547C174.383 120.364 175.851 120.268 177.155 120.267L177.155 119.263ZM177.155 119.263C175.846 119.263 174.355 119.356 172.786 119.551C167.747 120.177 163.778 121.622 163.921 122.778C164.019 123.574 166.04 124.026 168.934 124.026C170.244 124.026 171.734 123.933 173.303 123.738C178.342 123.112 182.311 121.667 182.168 120.511C182.07 119.715 180.049 119.263 177.155 119.263Z" fill="white"/>
<path d="M175.259 119.764V119.788C175.259 121.12 174.183 122.199 172.855 122.199C171.718 122.199 170.765 121.408 170.515 120.344C171.235 120.218 171.996 120.105 172.782 120.007C173.639 119.899 174.471 119.82 175.259 119.764Z" fill="white"/>
<path d="M51.8667 1.00066V5.09621" stroke="#698B75" stroke-width="2.00132" stroke-miterlimit="10" stroke-linecap="round" stroke-linejoin="round"/>
<path d="M51.8667 10.926V15.0216" stroke="#698B75" stroke-width="2.00132" stroke-miterlimit="10" stroke-linecap="round" stroke-linejoin="round"/>
<path d="M58.8592 8.01086H54.7744" stroke="#698B75" stroke-width="2.00132" stroke-miterlimit="10" stroke-linecap="round" stroke-linejoin="round"/>
<path d="M48.9588 8.01086H44.874" stroke="#698B75" stroke-width="2.00132" stroke-miterlimit="10" stroke-linecap="round" stroke-linejoin="round"/>
<path d="M195.049 47.8012V50.7001" stroke="#698B75" stroke-width="1.41675" stroke-miterlimit="10" stroke-linecap="round" stroke-linejoin="round"/>
<path d="M195.049 54.8277V57.7266" stroke="#698B75" stroke-width="1.41675" stroke-miterlimit="10" stroke-linecap="round" stroke-linejoin="round"/>
<path d="M200 52.7636H197.108" stroke="#698B75" stroke-width="1.41675" stroke-miterlimit="10" stroke-linecap="round" stroke-linejoin="round"/>
<path d="M192.991 52.7636H190.099" stroke="#698B75" stroke-width="1.41675" stroke-miterlimit="10" stroke-linecap="round" stroke-linejoin="round"/>
<path d="M16.9182 89.1649V92.4993" stroke="#698B75" stroke-width="1.62957" stroke-miterlimit="10" stroke-linecap="round" stroke-linejoin="round"/>
<path d="M16.9182 97.2466V100.581" stroke="#698B75" stroke-width="1.62957" stroke-miterlimit="10" stroke-linecap="round" stroke-linejoin="round"/>
<path d="M22.6117 94.8731H19.2856" stroke="#698B75" stroke-width="1.62957" stroke-miterlimit="10" stroke-linecap="round" stroke-linejoin="round"/>
<path d="M14.5502 94.8731H11.2241" stroke="#698B75" stroke-width="1.62957" stroke-miterlimit="10" stroke-linecap="round" stroke-linejoin="round"/>
<path d="M111.851 145.48H20.866C19.7757 145.48 18.8921 144.593 18.8921 143.501V129.614C18.8921 128.521 19.7762 127.636 20.866 127.636H111.851C112.942 127.636 113.825 128.522 113.825 129.614V143.501C113.825 144.594 112.941 145.48 111.851 145.48Z" fill="white"/>
<path d="M18.8916 143.501V129.614C18.8916 128.521 19.7757 127.635 20.8655 127.635H111.851" stroke="#698B75" stroke-width="0.500357" stroke-miterlimit="10"/>
<path d="M88.0805 135.566H24.8721V137.549H88.0805V135.566Z" fill="#DCE3DE"/>
<path d="M99.6424 141.995C102.638 141.995 105.066 139.56 105.066 136.557C105.066 133.554 102.638 131.12 99.6424 131.12C96.6469 131.12 94.2185 133.554 94.2185 136.557C94.2185 139.56 96.6469 141.995 99.6424 141.995Z" fill="#447158"/>
<path d="M96.9077 135.92L97.7787 137.959L102.826 135.156" stroke="white" stroke-width="0.964405" stroke-miterlimit="10" stroke-linecap="round" stroke-linejoin="round"/>
</svg>
