<svg width="164" height="42" viewBox="0 0 164 42" fill="none" xmlns="http://www.w3.org/2000/svg">
<path d="M46.9514 32.2679H50.5885C51.6907 32.2679 53.0132 32.9314 53.0132 34.7009C53.0132 36.8021 51.6907 37.3551 50.6987 37.3551H47.6127V40.0093H46.9514V32.2679ZM47.6127 32.8208V36.6915H50.5885C51.36 36.6915 52.352 36.3597 52.352 34.7009C52.352 33.1526 51.4702 32.8208 50.5885 32.8208H47.6127Z" fill="black"/>
<path d="M61.7201 37.0232C62.2712 37.4656 62.6018 38.3503 62.9325 39.2351L63.2631 40.0092H62.6018L62.161 38.7927C61.7201 37.5762 61.1691 37.1338 60.2873 37.1338H57.9728V40.1198H57.3115V32.3784H60.9486C62.161 32.3784 63.3734 32.9314 63.3734 34.7008C63.3734 35.1432 63.2631 36.6915 61.7201 37.0232ZM60.8384 36.4703C61.7201 36.4703 62.6018 36.4703 62.6018 34.5902C62.6018 33.0419 61.7201 32.8208 60.8384 32.8208H57.9728V36.4703H60.8384Z" fill="black"/>
<path d="M67.4514 35.9174C67.4514 33.1527 69.5455 32.1573 71.3089 32.1573C73.0724 32.1573 75.0562 33.1527 75.0562 35.9174C75.0562 39.3458 72.7417 40.0093 71.3089 40.0093C69.7659 40.1199 67.4514 39.3458 67.4514 35.9174ZM74.395 36.028C74.395 33.595 72.852 32.8209 71.3089 32.8209C69.7659 32.8209 68.1127 33.595 68.1127 36.028C68.1127 38.9034 69.9864 39.4564 71.3089 39.4564C72.5213 39.4564 74.395 38.9034 74.395 36.028Z" fill="black"/>
<path d="M79.5752 32.2678H83.2123C84.3144 32.2678 85.637 32.9314 85.637 34.7008C85.637 36.8021 84.3144 37.355 83.3225 37.355H80.2365V40.0092H79.5752V32.2678ZM80.2365 32.8208V36.6915H83.2123C83.9838 36.6915 84.9757 36.3597 84.9757 34.7008C84.9757 33.1526 84.094 32.8208 83.2123 32.8208H80.2365Z" fill="black"/>
<path d="M90.5966 32.8208V35.6962H94.3439V36.3597H90.5966V39.3457H95.2256V40.0092H89.9353V32.2678H95.2256V32.9314H90.5966V32.8208Z" fill="black"/>
<path d="M104.263 37.0232C104.814 37.4656 105.145 38.3503 105.476 39.2351L105.806 40.0092H105.145L104.704 38.7927C104.263 37.5762 103.712 37.1338 102.831 37.1338H100.516V40.1198H99.8547V32.3784H103.492C104.704 32.3784 105.917 32.9314 105.917 34.7008C105.917 35.1432 105.806 36.6915 104.263 37.0232ZM103.492 36.4703C104.374 36.4703 105.255 36.4703 105.255 34.5902C105.255 33.0419 104.374 32.8208 103.492 32.8208H100.626V36.4703H103.492Z" fill="black"/>
<path d="M109.774 32.2678H115.726V32.9314H113.081V40.1198H112.419V32.9314H109.774V32.2678Z" fill="black"/>
<path d="M125.535 32.2678H126.306L123.33 37.355V40.0092H122.669V37.355L119.693 32.2678H120.465L123.11 36.6915L125.535 32.2678Z" fill="black"/>
<path d="M128.841 39.3458H129.503V40.0089H128.841V39.3458Z" fill="black"/>
<path d="M134.683 36.028C134.683 38.9034 136.556 39.4564 137.989 39.4564C138.65 39.4564 139.312 39.3458 139.973 39.014L140.303 39.4564C139.642 39.8987 138.76 40.0093 138.099 40.0093C136.666 40.0093 134.021 39.3458 134.021 35.9174C134.021 33.0421 136.005 32.1573 138.099 32.1573C138.871 32.1573 139.642 32.3785 140.303 32.7103L139.973 33.1527C139.312 32.8209 138.65 32.7103 138.099 32.7103C136.446 32.8209 134.683 33.3738 134.683 36.028Z" fill="black"/>
<path d="M144.271 35.9174C144.271 33.1527 146.365 32.1573 148.129 32.1573C149.892 32.1573 151.876 33.1527 151.876 35.9174C151.876 39.3458 149.562 40.0093 148.129 40.0093C146.586 40.1199 144.271 39.3458 144.271 35.9174ZM151.215 36.028C151.215 33.595 149.672 32.8209 148.129 32.8209C146.586 32.8209 144.933 33.595 144.933 36.028C144.933 38.9034 146.806 39.4564 148.129 39.4564C149.341 39.4564 151.215 38.9034 151.215 36.028Z" fill="black"/>
<path d="M159.922 38.1292L157.056 33.8161V40.0092H156.395V32.2678H156.836L160.142 37.4656L163.449 32.2678H163.89V40.0092H163.228V33.8161L160.473 38.1292H159.922Z" fill="black"/>
<path d="M54.446 12.0297C55.3277 12.0297 56.0992 12.1403 56.8707 12.472C57.6422 12.8038 58.3035 13.2462 58.8546 13.7991C59.4057 14.3521 59.8465 15.0156 60.1772 15.7898C60.5078 16.5639 60.6181 17.3381 60.6181 18.2228C60.6181 19.1075 60.5078 19.8817 60.1772 20.5452C59.8465 21.3193 59.5159 21.8723 58.9648 22.4253C58.4137 22.9782 57.7525 23.4206 56.8707 23.7523C55.989 24.0841 55.1073 24.1947 53.8949 24.1947H50.0374V29.3925H46.731V12.0297H54.446ZM54.446 21.2087C54.8869 21.2087 55.3277 21.0982 55.7686 20.9876C56.0992 20.7664 56.4299 20.5452 56.6503 20.324C56.8707 19.9922 57.0912 19.7711 57.2014 19.3287C57.3116 18.9969 57.4218 18.5546 57.4218 18.2228C57.4218 17.7804 57.3116 17.4486 57.2014 17.0063C57.0912 16.5639 56.8707 16.2321 56.5401 16.011C56.3197 15.6792 55.989 15.458 55.5482 15.2368C55.1073 15.0156 54.6664 14.905 54.2256 14.905H50.0374V21.2087H54.446Z" fill="black"/>
<path d="M58.6343 29.3925L67.4515 12.0296H67.7821L76.5993 29.3925H72.9622L71.6396 26.6277H63.4837L62.1612 29.3925H58.6343ZM65.137 23.7523H70.0966L67.6719 18.5545L65.137 23.7523Z" fill="black"/>
<path d="M89.2742 29.3925L82.0001 21.5405V29.3925H78.6936V12.0296H82.0001V20.8769L88.8334 12.0296H92.9113L85.7474 20.9875L93.5726 29.3925H89.2742Z" fill="black"/>
<path d="M99.8548 29.3925H96.5483V12.0296H99.8548V29.3925Z" fill="black"/>
<path d="M103.381 27.0702L105.145 24.416C106.027 24.9689 106.908 25.5219 107.79 25.9642C108.672 26.4066 109.664 26.6278 110.656 26.6278C111.207 26.6278 111.647 26.5172 112.088 26.4066C112.529 26.296 112.86 26.0748 113.08 25.8536C113.411 25.6325 113.631 25.4113 113.742 25.0795C113.852 24.8583 113.962 24.5266 113.962 24.3054C113.962 23.9736 113.852 23.6418 113.631 23.4206C113.411 23.1995 113.08 22.9783 112.75 22.8677C112.419 22.7571 111.978 22.5359 111.537 22.4253C111.096 22.3147 110.545 22.2041 109.994 22.0935C109.664 21.983 109.223 21.983 108.782 21.8724C108.341 21.7618 107.9 21.6512 107.349 21.5406C106.908 21.43 106.357 21.2088 105.916 20.9876C105.475 20.7664 105.035 20.4347 104.594 20.1029C104.263 19.7711 103.932 19.3288 103.712 18.7758C103.492 18.2228 103.381 17.6699 103.381 17.0063C103.381 16.011 103.602 15.1263 104.043 14.4627C104.483 13.7992 104.924 13.2462 105.586 12.9145C106.247 12.4721 106.908 12.2509 107.68 12.1403C108.451 12.0297 109.223 11.9191 109.884 11.9191C110.656 11.9191 111.207 11.9191 111.868 12.0297C112.419 12.1403 112.97 12.2509 113.411 12.4721C113.852 12.6933 114.403 12.9145 114.844 13.1356C115.285 13.4674 115.836 13.6886 116.387 14.131L114.513 16.7852C113.742 16.2322 112.86 15.7898 112.199 15.4581C111.427 15.1263 110.656 15.0157 109.774 15.0157C109.443 15.0157 109.223 15.0157 108.782 15.1263C108.451 15.2369 108.121 15.3475 107.79 15.4581C107.459 15.5687 107.239 15.7898 107.018 16.011C106.798 16.2322 106.688 16.564 106.688 16.8958C106.688 17.2275 106.798 17.5593 107.018 17.7805C107.239 18.0017 107.57 18.2228 108.01 18.3334C108.451 18.444 108.892 18.6652 109.333 18.7758C109.774 18.8864 110.215 18.997 110.656 19.1076C110.986 19.2182 111.427 19.2182 111.868 19.3288C112.309 19.4394 112.75 19.5499 113.301 19.6605C113.742 19.7711 114.293 19.9923 114.733 20.2135C115.174 20.4347 115.615 20.7664 115.946 21.0982C116.277 21.43 116.607 21.983 116.828 22.4253C117.048 22.8677 117.158 23.6418 117.158 24.416C117.158 25.3007 117.048 26.0748 116.717 26.7384C116.387 27.4019 115.946 27.9549 115.395 28.3972C114.844 28.8396 114.072 29.1714 113.301 29.3926C112.529 29.6138 111.647 29.7243 110.656 29.7243C109.774 29.7243 109.002 29.6138 108.231 29.5032C107.57 29.3926 106.908 29.1714 106.357 28.9502C105.806 28.729 105.255 28.3972 104.704 28.1761C104.483 27.8443 103.932 27.5125 103.381 27.0702Z" fill="black"/>
<path d="M131.156 14.9051H126.196V29.282H122.89V14.9051H117.93V11.9191H131.156V14.9051Z" fill="black"/>
<path d="M128.951 29.3925L137.769 12.0296H138.099L146.916 29.3925H143.279L141.957 26.6277H133.801L132.478 29.3925H128.951ZM135.454 23.7523H140.414L137.989 18.5545L135.454 23.7523Z" fill="black"/>
<path d="M163.669 29.3925L152.317 19.1075V29.3925H149.011V12.0296H149.341L160.694 22.5358V12.0296H164V29.3925H163.669Z" fill="black"/>
<path d="M1.10215 11.145L5.62097 7.93784C5.8414 7.82725 5.95161 7.60607 5.95161 7.38488V5.72601C5.95161 4.50951 4.95968 3.62478 3.85753 3.62478H2.09409C0.88172 3.62478 0 4.6201 0 5.72601V10.7026C0 11.145 0.66129 11.4768 1.10215 11.145Z" fill="#1B573E"/>
<path d="M36.2607 40.1199C38.1344 40.1199 39.5672 38.6823 39.5672 36.8022V14.4628C39.5672 13.3569 39.0161 12.2509 38.0242 11.698L20.8306 0.528261C19.7285 -0.245878 18.1855 -0.135287 17.0833 0.638853L1.43279 11.8086C0.551074 12.4721 0 13.4674 0 14.4628V36.6916C0 38.5717 1.4328 40.0094 3.30645 40.0094L36.2607 40.1199Z" fill="#1B573E"/>
<path d="M13.777 21.7618H15.6506V12.1404H21.3818C21.3818 12.1404 27.7743 13.0251 27.9947 19.9924C27.9947 19.9924 28.1049 26.5172 21.3818 27.7337H13.6667V41.8894H15.6506V29.835L20.8307 29.9456C20.8307 29.9456 29.3173 29.5032 29.9786 19.8818C29.9786 19.8818 30.199 12.1404 21.8227 10.0391H13.6667V21.7618H13.777Z" fill="white"/>
<path d="M17.7447 14.0204H21.1613C21.1613 14.0204 25.9006 15.2369 26.0108 19.4394C26.0108 19.4394 26.7823 24.6372 20.9409 25.8537H11.7931V42H9.69897V14.0204H17.7447Z" fill="white"/>
<path fill-rule="evenodd" clip-rule="evenodd" d="M22.8144 21.7619C22.1531 22.4254 21.051 23.089 19.6182 22.9784C16.3117 22.8678 14.4381 19.2183 16.0913 16.4535C16.2015 16.2323 16.4219 16.0111 16.5322 15.7899C16.7526 15.5687 16.8628 15.4582 17.0832 15.237C16.7526 15.237 16.3117 15.5687 16.0913 15.6793C15.2096 16.2323 14.4381 17.2276 14.1074 18.2229C12.6746 22.6466 17.9649 26.1855 21.4918 23.3101C21.9327 23.1995 22.7042 22.3148 22.8144 21.7619Z" fill="#1B573E"/>
<path fill-rule="evenodd" clip-rule="evenodd" d="M19.5081 17.67L17.9651 18.3335L19.5081 18.6653L19.7285 20.4348L20.6102 18.9971L22.2635 19.3288L21.1613 18.1123L22.043 16.5641L20.3898 17.2276L19.2877 16.0111L19.5081 17.67Z" fill="#1B573E"/>
</svg>
