<svg width="288" height="180" viewBox="0 0 288 180" fill="none" xmlns="http://www.w3.org/2000/svg">
<g clip-path="url(#clip0_8961_85870)">
<mask id="path-1-inside-1_8961_85870" fill="white">
<path d="M0 4C0 1.79086 1.79086 0 4 0H284C286.209 0 288 1.79086 288 4V180H0V4Z"/>
</mask>
<path d="M0 4C0 1.79086 1.79086 0 4 0H284C286.209 0 288 1.79086 288 4V180H0V4Z" fill="#F2F2F2"/>
<path d="M-1 4C-1 1.23858 1.23858 -1 4 -1H284C286.761 -1 289 1.23858 289 4H287C287 2.34315 285.657 1 284 1H4C2.34315 1 1 2.34315 1 4H-1ZM288 180H0H288ZM-1 180V4C-1 1.23858 1.23858 -1 4 -1V1C2.34315 1 1 2.34315 1 4V180H-1ZM284 -1C286.761 -1 289 1.23858 289 4V180H287V4C287 2.34315 285.657 1 284 1V-1Z" fill="#BBBBBB" mask="url(#path-1-inside-1_8961_85870)"/>
<path d="M82.9223 59.1006H86.9479V38.4992H99.2614C99.2614 38.4992 112.996 40.3936 113.469 55.3118C113.469 55.3118 113.706 69.2829 99.2614 71.8877H82.6855V107H86.9479V76.3869L98.0774 76.6237C98.0774 76.6237 116.311 75.6765 117.732 55.075C117.732 55.075 118.205 38.4992 100.209 34H82.6855V59.1006H82.9223Z" fill="#BBBBBB"/>
<path d="M91.4445 42.5244H98.7852C98.7852 42.5244 108.968 45.1292 109.204 54.1275C109.204 54.1275 110.862 65.257 98.3116 67.8618H78.6574V112H74.1582V42.5244H91.4445Z" fill="#BBBBBB"/>
<path fill-rule="evenodd" clip-rule="evenodd" d="M102.333 59.101C100.912 60.5218 98.5443 61.9426 95.466 61.7058C88.362 61.469 84.3364 53.6546 87.8884 47.7347C88.1252 47.2611 88.5988 46.7875 88.8356 46.3139C89.3092 45.8403 89.546 45.6035 90.0196 45.1299C89.3092 45.1299 88.362 45.8403 87.8884 46.0771C85.994 47.2611 84.3364 49.3923 83.6261 51.5234C80.5477 60.9954 91.914 68.5729 99.4915 62.4162C100.439 62.1794 102.096 60.285 102.333 59.101Z" fill="white"/>
<path fill-rule="evenodd" clip-rule="evenodd" d="M95.2312 50.3391L91.916 51.7599L95.2312 52.4703L95.7048 56.259L97.5992 53.1807L101.151 53.8911L98.7832 51.2863L100.678 47.9711L97.1256 49.3919L94.7576 46.7871L95.2312 50.3391Z" fill="white"/>
<path d="M81.1861 145H53C53.1799 143.81 53.8506 142.554 54.9284 142.018C56.0061 141.481 57.3447 141.504 58.4035 142.078C58.9578 140.352 60.4576 138.839 62.1839 138.289C63.9105 137.738 65.894 138.072 67.3451 139.157C67.817 138.631 68.7729 138.425 69.4659 138.565C70.1588 138.704 70.7615 139.228 70.9944 139.895C72.2957 139.184 74.1463 139.347 75.4856 139.984C76.8249 140.62 77.8264 141.924 78.0962 143.382C79.2338 142.864 80.577 143.909 81.1861 145Z" fill="#BBBBBB"/>
<path d="M223.66 88.2773C211.845 105.04 212.477 119.278 212.477 124.74C212.477 130.39 216.666 135.058 222.108 135.814V145H225.213V135.814C230.654 135.058 234.844 130.39 234.844 124.74C234.844 119.277 235.475 105.04 223.66 88.2773Z" fill="#808080"/>
<path d="M66.0541 81.7051C52.9444 100.304 53.6452 116.102 53.6452 122.163C53.6452 128.432 58.2941 133.611 64.3314 134.45V144.642H67.7768V134.45C73.8141 133.611 78.463 128.432 78.463 122.163C78.463 116.102 79.1638 100.304 66.0541 81.7051Z" fill="#808080"/>
<path d="M121.609 69.1895C105.818 91.5923 106.662 110.622 106.662 117.923C106.662 125.474 112.262 131.713 119.534 132.724V145H123.684V132.724C130.957 131.713 136.557 125.474 136.557 117.923C136.556 110.622 137.4 91.5923 121.609 69.1895Z" fill="#D4D4D4"/>
<path d="M105.501 83.3701C92.664 101.583 93.3501 117.052 93.3501 122.988C93.3501 129.126 97.9023 134.198 103.815 135.02V145H107.188V135.02C113.1 134.198 117.653 129.126 117.653 122.988C117.653 117.052 118.339 101.583 105.501 83.3701Z" fill="#808080"/>
<path d="M123.712 114.729H118.508V144.999H123.712V114.729Z" fill="#BBBBBB"/>
<path d="M118.508 114.729H76.8027V144.999H118.508V114.729Z" fill="#EAEAEA"/>
<path d="M112.699 126.992H81.5254V144.999H112.699V126.992Z" fill="white"/>
<path d="M111.623 145V128.067H82.5996V145H111.623Z" fill="#848484"/>
<path d="M111.623 129.321H82.5996V129.864H111.623V129.321Z" fill="#DDDDDD"/>
<path d="M111.623 130.575H82.5996V131.118H111.623V130.575Z" fill="#DDDDDD"/>
<path d="M111.623 131.829H82.5996V132.372H111.623V131.829Z" fill="#DDDDDD"/>
<path d="M111.623 133.083H82.5996V133.626H111.623V133.083Z" fill="#DDDDDD"/>
<path d="M111.623 134.338H82.5996V134.881H111.623V134.338Z" fill="#DDDDDD"/>
<path d="M111.623 135.592H82.5996V136.135H111.623V135.592Z" fill="#DDDDDD"/>
<path d="M111.623 136.846H82.5996V137.389H111.623V136.846Z" fill="#DDDDDD"/>
<path d="M111.623 138.1H82.5996V138.642H111.623V138.1Z" fill="#DDDDDD"/>
<path d="M111.623 139.354H82.5996V139.896H111.623V139.354Z" fill="#DDDDDD"/>
<path d="M111.623 140.607H82.5996V141.15H111.623V140.607Z" fill="#DDDDDD"/>
<path d="M111.623 141.861H82.5996V142.404H111.623V141.861Z" fill="#DDDDDD"/>
<path d="M111.623 143.115H82.5996V143.658H111.623V143.115Z" fill="#DDDDDD"/>
<path d="M118.508 123.446H76.8027V126.097H118.508V123.446Z" fill="#D8D8D8"/>
<path d="M87.4605 98.5498L72.1816 121.063H118.435L133.713 98.5498H87.4605Z" fill="#AFAFAF"/>
<path d="M72.1816 123.446H118.509V121.062H118.435H72.1816V123.446Z" fill="white"/>
<path opacity="0.4" d="M133.655 98.5498L118.376 121.063H108.254L123.533 98.5498H133.655Z" fill="#E7E7E7"/>
<path d="M118.508 121.062H108.254V123.447H118.508V121.062Z" fill="white"/>
<path d="M179.994 85.21H123.637V145H179.994V85.21Z" fill="#E7E7E7"/>
<path d="M147.098 92.9004H133.109V105.998H147.098V92.9004Z" fill="#A0A0A0"/>
<path d="M147.109 106.067H133.109V92.8428H147.109V106.067ZM133.179 105.998H147.04V92.9119H133.179V105.998Z" fill="#A0A0A0"/>
<path d="M146.612 93.3379H133.607V105.571H146.612V93.3379Z" fill="#C4C4C4"/>
<path d="M146.635 105.595H133.584V93.3154H146.635V105.595ZM133.63 105.549H146.589V93.3615H133.63V105.549Z" fill="#B7B7B7"/>
<path d="M139.89 93.7988H134.07V97.842H139.89V93.7988Z" fill="#E8E8E8"/>
<path d="M146.15 93.7988H140.33V97.842H146.15V93.7988Z" fill="#E8E8E8"/>
<path d="M139.89 98.3604H134.07V105.099H139.89V98.3604Z" fill="#E8E8E8"/>
<path d="M146.15 98.3604H140.33V105.099H146.15V98.3604Z" fill="#E8E8E8"/>
<path d="M134.533 94.6052H139.89V93.7988H134.07V97.842H134.533V94.6052Z" fill="#EFEFEF"/>
<path d="M140.793 94.6052H146.15V93.7988H140.33V97.842H140.793V94.6052Z" fill="#EFEFEF"/>
<path d="M134.533 99.1667H139.89V98.3604H134.07V105.099H134.533V99.1667Z" fill="#EFEFEF"/>
<path d="M140.793 99.1667H146.15V98.3604H140.33V105.099H140.793V99.1667Z" fill="#EFEFEF"/>
<g opacity="0.5">
<path d="M139.889 97.7157V94.2139C138.466 95.3888 137.066 96.5983 135.689 97.8309H139.762C139.797 97.7963 139.843 97.7617 139.889 97.7157Z" fill="#EDEDED"/>
</g>
<path d="M139.891 97.7148C139.845 97.7494 139.798 97.7955 139.764 97.83H139.891V97.7148Z" fill="#E8E8E8"/>
<path d="M140.33 93.7988V93.8564C140.353 93.8334 140.376 93.8219 140.399 93.7988H140.33Z" fill="#E8E8E8"/>
<g opacity="0.5">
<path d="M140.399 93.7988C140.376 93.8219 140.353 93.8334 140.33 93.8564V97.3237C141.626 96.1487 142.922 94.9623 144.229 93.7988H140.399Z" fill="#EDEDED"/>
</g>
<g opacity="0.5">
<path d="M146.149 96.0678V94.6855C144.83 95.7223 143.534 96.7705 142.238 97.8302H143.916C144.656 97.2428 145.397 96.6553 146.149 96.0678Z" fill="#EDEDED"/>
</g>
<g opacity="0.5">
<path d="M135.1 98.3604C134.753 98.6714 134.417 98.9824 134.07 99.2819V102.599C135.829 101.263 137.507 99.8233 139.161 98.3604H135.1Z" fill="#EDEDED"/>
</g>
<g opacity="0.5">
<path d="M139.89 99.7773C137.946 101.39 136.014 103.014 134.07 104.627V105.099H134.834C136.535 103.763 138.212 102.415 139.879 101.067V99.7773H139.89Z" fill="#EDEDED"/>
</g>
<g opacity="0.5">
<path d="M139.891 104.408C139.544 104.639 139.185 104.869 138.826 105.099H139.891V104.408Z" fill="#EDEDED"/>
</g>
<g opacity="0.5">
<path d="M141.591 98.3604C141.163 98.7059 140.747 99.0515 140.33 99.4086V100.71C141.302 99.9269 142.274 99.1436 143.257 98.3604H141.591Z" fill="#EDEDED"/>
</g>
<g opacity="0.5">
<path d="M146.15 100.042C144.218 101.413 142.297 102.784 140.33 104.108V105.099H142.436C143.651 104.281 144.889 103.486 146.138 102.703V100.042H146.15Z" fill="#EDEDED"/>
</g>
<path d="M169.098 92.9004H155.109V105.998H169.098V92.9004Z" fill="#A0A0A0"/>
<path d="M169.109 106.067H155.109V92.8428H169.109V106.067ZM155.179 105.998H169.04V92.9119H155.179V105.998Z" fill="#A0A0A0"/>
<path d="M168.612 93.3379H155.607V105.571H168.612V93.3379Z" fill="#C4C4C4"/>
<path d="M168.635 105.595H155.584V93.3154H168.635V105.595ZM155.63 105.549H168.589V93.3615H155.63V105.549Z" fill="#B7B7B7"/>
<path d="M161.89 93.7988H156.07V97.842H161.89V93.7988Z" fill="#E8E8E8"/>
<path d="M168.15 93.7988H162.33V97.842H168.15V93.7988Z" fill="#E8E8E8"/>
<path d="M161.89 98.3604H156.07V105.099H161.89V98.3604Z" fill="#E8E8E8"/>
<path d="M168.15 98.3604H162.33V105.099H168.15V98.3604Z" fill="#E8E8E8"/>
<path d="M156.533 94.6052H161.89V93.7988H156.07V97.842H156.533V94.6052Z" fill="#EFEFEF"/>
<path d="M162.793 94.6052H168.15V93.7988H162.33V97.842H162.793V94.6052Z" fill="#EFEFEF"/>
<path d="M156.533 99.1667H161.89V98.3604H156.07V105.099H156.533V99.1667Z" fill="#EFEFEF"/>
<path d="M162.793 99.1667H168.15V98.3604H162.33V105.099H162.793V99.1667Z" fill="#EFEFEF"/>
<g opacity="0.5">
<path d="M161.889 97.7157V94.2139C160.466 95.3888 159.066 96.5983 157.689 97.8309H161.762C161.797 97.7963 161.843 97.7617 161.889 97.7157Z" fill="#EDEDED"/>
</g>
<path d="M161.891 97.7148C161.845 97.7494 161.798 97.7955 161.764 97.83H161.891V97.7148Z" fill="#E8E8E8"/>
<path d="M162.33 93.7988V93.8564C162.353 93.8334 162.376 93.8219 162.399 93.7988H162.33Z" fill="#E8E8E8"/>
<g opacity="0.5">
<path d="M162.399 93.7988C162.376 93.8219 162.353 93.8334 162.33 93.8564V97.3237C163.626 96.1487 164.922 94.9623 166.229 93.7988H162.399Z" fill="#EDEDED"/>
</g>
<g opacity="0.5">
<path d="M168.149 96.0678V94.6855C166.83 95.7223 165.534 96.7705 164.238 97.8302H165.916C166.656 97.2428 167.397 96.6553 168.149 96.0678Z" fill="#EDEDED"/>
</g>
<g opacity="0.5">
<path d="M157.1 98.3604C156.753 98.6714 156.417 98.9824 156.07 99.2819V102.599C157.829 101.263 159.507 99.8233 161.161 98.3604H157.1Z" fill="#EDEDED"/>
</g>
<g opacity="0.5">
<path d="M161.89 99.7773C159.946 101.39 158.014 103.014 156.07 104.627V105.099H156.834C158.535 103.763 160.212 102.415 161.879 101.067V99.7773H161.89Z" fill="#EDEDED"/>
</g>
<g opacity="0.5">
<path d="M161.891 104.408C161.544 104.639 161.185 104.869 160.826 105.099H161.891V104.408Z" fill="#EDEDED"/>
</g>
<g opacity="0.5">
<path d="M163.591 98.3604C163.163 98.7059 162.747 99.0515 162.33 99.4086V100.71C163.302 99.9269 164.274 99.1436 165.257 98.3604H163.591Z" fill="#EDEDED"/>
</g>
<g opacity="0.5">
<path d="M168.15 100.042C166.218 101.413 164.297 102.784 162.33 104.108V105.099H164.436C165.651 104.281 166.889 103.486 168.138 102.703V100.042H168.15Z" fill="#EDEDED"/>
</g>
<path d="M179.994 108.694H123.637V123.015H179.994V108.694Z" fill="#D8D8D8"/>
<path d="M223.1 144.545H179.998V84.7544L201.549 53L223.1 84.7544V144.545Z" fill="#C4C4C4"/>
<path d="M201.549 53L179.998 84.7544H223.1L201.549 53Z" fill="#EAEAEA"/>
<path d="M212.093 119.092H192.109V137.802H212.093V119.092Z" fill="#A0A0A0"/>
<path d="M212.109 137.901H192.109V119.01H212.109V137.901ZM192.209 137.802H212.01V119.109H192.209V137.802Z" fill="#A0A0A0"/>
<path d="M211.399 119.718H192.82V137.194H211.399V119.718Z" fill="#C4C4C4"/>
<path d="M211.432 137.226H192.787V119.685H211.432V137.226ZM192.853 137.161H211.366V119.75H192.853V137.161Z" fill="#B7B7B7"/>
<path d="M201.796 120.376H193.482V126.152H201.796V120.376Z" fill="#E8E8E8"/>
<path d="M210.738 120.376H202.424V126.152H210.738V120.376Z" fill="#E8E8E8"/>
<path d="M201.796 126.893H193.482V136.519H201.796V126.893Z" fill="#E8E8E8"/>
<path d="M210.738 126.893H202.424V136.519H210.738V126.893Z" fill="#E8E8E8"/>
<path d="M194.144 121.528H201.796V120.376H193.482V126.152H194.144V121.528Z" fill="#EFEFEF"/>
<path d="M203.085 121.528H210.738V120.376H202.424V126.152H203.085V121.528Z" fill="#EFEFEF"/>
<path d="M194.144 128.044H201.796V126.893H193.482V136.519H194.144V128.044Z" fill="#EFEFEF"/>
<path d="M203.085 128.044H210.738V126.893H202.424V136.519H203.085V128.044Z" fill="#EFEFEF"/>
<g opacity="0.5">
<path d="M201.797 125.971V120.969C199.764 122.647 197.764 124.375 195.797 126.136H201.615C201.665 126.087 201.731 126.037 201.797 125.971Z" fill="#EDEDED"/>
</g>
<path d="M201.797 125.971C201.731 126.02 201.665 126.086 201.615 126.135H201.797V125.971Z" fill="#E8E8E8"/>
<path d="M202.424 120.376V120.458C202.457 120.425 202.49 120.409 202.523 120.376H202.424Z" fill="#E8E8E8"/>
<g opacity="0.5">
<path d="M202.523 120.376C202.49 120.409 202.457 120.425 202.424 120.458V125.411C204.275 123.733 206.126 122.038 207.994 120.376H202.523Z" fill="#EDEDED"/>
</g>
<g opacity="0.5">
<path d="M210.739 123.617V121.643C208.855 123.124 207.004 124.621 205.152 126.135H207.549C208.607 125.296 209.665 124.457 210.739 123.617Z" fill="#EDEDED"/>
</g>
<g opacity="0.5">
<path d="M194.953 126.893C194.458 127.337 193.978 127.781 193.482 128.209V132.948C195.995 131.039 198.392 128.982 200.755 126.893H194.953Z" fill="#EDEDED"/>
</g>
<g opacity="0.5">
<path d="M201.796 128.917C199.02 131.221 196.259 133.541 193.482 135.845V136.52H194.573C197.003 134.611 199.4 132.685 201.78 130.76V128.917H201.796Z" fill="#EDEDED"/>
</g>
<g opacity="0.5">
<path d="M201.796 135.531C201.3 135.86 200.788 136.189 200.275 136.519H201.796V135.531Z" fill="#EDEDED"/>
</g>
<g opacity="0.5">
<path d="M204.225 126.893C203.614 127.386 203.019 127.88 202.424 128.39V130.25C203.812 129.131 205.201 128.012 206.606 126.893H204.225Z" fill="#EDEDED"/>
</g>
<g opacity="0.5">
<path d="M210.738 129.295C207.978 131.253 205.234 133.211 202.424 135.104V136.519H205.432C207.168 135.351 208.936 134.215 210.721 133.096V129.295H210.738Z" fill="#EDEDED"/>
</g>
<path d="M135.283 136.16H127.127V125.339H135.283V136.16Z" fill="#C4C4C4" stroke="#A0A0A0" stroke-width="0.5"/>
<path d="M134.75 125.871H127.66V135.627H134.75V125.871Z" fill="#CECECE"/>
<path d="M129.136 125.871H127.66V135.627H134.75V134.975H129.136V125.871Z" fill="#E0E0E0"/>
<path d="M167.283 136.16H159.127V125.339H167.283V136.16Z" fill="#C4C4C4" stroke="#A0A0A0" stroke-width="0.5"/>
<path d="M166.75 125.871H159.66V135.627H166.75V125.871Z" fill="#CECECE"/>
<path d="M161.136 125.871H159.66V135.627H166.75V134.975H161.136V125.871Z" fill="#E0E0E0"/>
<path d="M179.994 137.919H172.914V144.999H179.994V137.919Z" fill="#D8D8D8"/>
<path d="M116.557 145H172.914V137.92H116.557V145Z" fill="#BBBBBB"/>
<path d="M179.994 85.21H123.637V90.5024H179.994V85.21Z" fill="#D8D8D8"/>
<path d="M223.097 142.139H179.994V144.999H223.097V142.139Z" fill="#F3F3F3"/>
<path d="M223.097 113.531H179.994V116.392H223.097V113.531Z" fill="#F3F3F3"/>
<path d="M223.097 84.9238H222.902L223.097 85.2098V84.9238Z" fill="#F3F3F3"/>
<path d="M179.994 84.9238V85.2098L180.188 84.9238H179.994Z" fill="#F3F3F3"/>
<path d="M179.994 85.2098V87.7845H223.097V85.2098L222.902 84.9238H180.188L179.994 85.2098Z" fill="#F3F3F3"/>
<path d="M226.058 85.2095L204.507 53.4551H201.545L223.096 85.2095H226.058Z" fill="#D8D8D8"/>
<path d="M226.057 85.209H223.096V87.5931H226.057V85.209Z" fill="white"/>
<path d="M155.915 121.559H144.479V137.919H155.915V121.559Z" fill="white"/>
<path d="M155.915 121.559H144.479V123.015H155.915V121.559Z" fill="white"/>
<path d="M155.057 137.919V122.417H145.336V137.919H155.057Z" fill="#848484"/>
<path d="M146.629 129.331H145.914V132.096H146.629V129.331Z" fill="white"/>
<path d="M146.832 129.331H146.629V132.096H146.832V129.331Z" fill="white"/>
<path d="M182.955 85.209H117.439V87.5931H182.955V85.209Z" fill="white"/>
<path d="M138.99 53.4551L117.439 85.2095H182.955L204.507 53.4551H138.99Z" fill="#AFAFAF"/>
<path d="M174.004 117.521H117.439V119.905H174.004V117.521Z" fill="white"/>
<path d="M179.994 108.694H123.637L117.646 117.521H174.004L179.994 108.694Z" fill="#BBBBBB"/>
<path d="M179.994 108.694L174.004 117.521H179.994V108.694Z" fill="#D8D8D8"/>
<path d="M179.994 117.521H174.004V119.905H179.994V117.521Z" fill="#BBBBBB"/>
<path d="M212.093 91.0918H192.109V109.802H212.093V91.0918Z" fill="#A0A0A0"/>
<path d="M212.109 109.901H192.109V91.0098H212.109V109.901ZM192.209 109.802H212.01V91.1085H192.209V109.802Z" fill="#A0A0A0"/>
<path d="M211.399 91.7178H192.82V109.194H211.399V91.7178Z" fill="#C4C4C4"/>
<path d="M211.432 109.226H192.787V91.6846H211.432V109.226ZM192.853 109.161H211.366V91.7504H192.853V109.161Z" fill="#B7B7B7"/>
<path d="M201.796 92.376H193.482V98.152H201.796V92.376Z" fill="#E8E8E8"/>
<path d="M210.738 92.376H202.424V98.152H210.738V92.376Z" fill="#E8E8E8"/>
<path d="M201.796 98.8926H193.482V108.519H201.796V98.8926Z" fill="#E8E8E8"/>
<path d="M210.738 98.8926H202.424V108.519H210.738V98.8926Z" fill="#E8E8E8"/>
<path d="M194.144 93.5279H201.796V92.376H193.482V98.152H194.144V93.5279Z" fill="#EFEFEF"/>
<path d="M203.085 93.5279H210.738V92.376H202.424V98.152H203.085V93.5279Z" fill="#EFEFEF"/>
<path d="M194.144 100.044H201.796V98.8926H193.482V108.519H194.144V100.044Z" fill="#EFEFEF"/>
<path d="M203.085 100.044H210.738V98.8926H202.424V108.519H203.085V100.044Z" fill="#EFEFEF"/>
<g opacity="0.5">
<path d="M201.797 97.9713V92.9688C199.764 94.6472 197.764 96.3751 195.797 98.1359H201.615C201.665 98.0865 201.731 98.0371 201.797 97.9713Z" fill="#EDEDED"/>
</g>
<path d="M201.797 97.9707C201.731 98.0201 201.665 98.0859 201.615 98.1353H201.797V97.9707Z" fill="#E8E8E8"/>
<path d="M202.424 92.376V92.4583C202.457 92.4253 202.49 92.4089 202.523 92.376H202.424Z" fill="#E8E8E8"/>
<g opacity="0.5">
<path d="M202.523 92.376C202.49 92.4089 202.457 92.4253 202.424 92.4583V97.4115C204.275 95.733 206.126 94.038 207.994 92.376H202.523Z" fill="#EDEDED"/>
</g>
<g opacity="0.5">
<path d="M210.739 95.6173V93.6426C208.855 95.1236 207.004 96.6211 205.152 98.135H207.549C208.607 97.2958 209.665 96.4565 210.739 95.6173Z" fill="#EDEDED"/>
</g>
<g opacity="0.5">
<path d="M194.953 98.8926C194.458 99.3369 193.978 99.7812 193.482 100.209V104.948C195.995 103.039 198.392 100.982 200.755 98.8926H194.953Z" fill="#EDEDED"/>
</g>
<g opacity="0.5">
<path d="M201.796 100.917C199.02 103.221 196.259 105.541 193.482 107.845V108.52H194.573C197.003 106.611 199.4 104.685 201.78 102.76V100.917H201.796Z" fill="#EDEDED"/>
</g>
<g opacity="0.5">
<path d="M201.796 107.531C201.3 107.86 200.788 108.189 200.275 108.519H201.796V107.531Z" fill="#EDEDED"/>
</g>
<g opacity="0.5">
<path d="M204.225 98.8926C203.614 99.3863 203.019 99.8799 202.424 100.39V102.25C203.812 101.131 205.201 100.012 206.606 98.8926H204.225Z" fill="#EDEDED"/>
</g>
<g opacity="0.5">
<path d="M210.738 101.295C207.978 103.253 205.234 105.211 202.424 107.104V108.519H205.432C207.168 107.351 208.936 106.215 210.721 105.096V101.295H210.738Z" fill="#EDEDED"/>
</g>
<path d="M154.828 119.905H153.74V137.92H154.828V119.905Z" fill="white"/>
<path d="M155.916 119.905H154.828V137.92H155.916V119.905Z" fill="#D8D8D8"/>
<path d="M154.828 119.905H153.74V123.016H154.828V119.905Z" fill="white"/>
<path d="M155.916 119.905H154.828V123.016H155.916V119.905Z" fill="#BBBBBB"/>
<path d="M140.486 119.905H139.398V137.92H140.486V119.905Z" fill="white"/>
<path d="M141.574 119.905H140.486V137.92H141.574V119.905Z" fill="#D8D8D8"/>
<path d="M140.486 119.905H139.398V123.016H140.486V119.905Z" fill="white"/>
<path d="M141.574 119.905H140.486V123.016H141.574V119.905Z" fill="#BBBBBB"/>
<path d="M121.262 119.905H120.174V137.92H121.262V119.905Z" fill="white"/>
<path d="M122.35 119.905H121.262V137.92H122.35V119.905Z" fill="#D8D8D8"/>
<path d="M121.262 119.905H120.174V123.016H121.262V119.905Z" fill="white"/>
<path d="M122.35 119.905H121.262V123.016H122.35V119.905Z" fill="#BBBBBB"/>
<path d="M172.381 119.905H171.293V137.92H172.381V119.905Z" fill="white"/>
<path d="M173.469 119.905H172.381V137.92H173.469V119.905Z" fill="#D8D8D8"/>
<path d="M172.381 119.905H171.293V123.016H172.381V119.905Z" fill="white"/>
<path d="M173.469 119.905H172.381V123.016H173.469V119.905Z" fill="#BBBBBB"/>
<path d="M224.765 111.814H179.994V113.531H224.765V111.814Z" fill="#BBBBBB"/>
<path d="M197.006 80.3496H206.998V70.9945H197.006V80.3496Z" fill="#A0A0A0"/>
<path d="M196.998 70.945H206.998V80.3906H196.998V70.945ZM206.948 70.9944H197.048V80.3413H206.948V70.9944Z" fill="#A0A0A0"/>
<path d="M197.353 80.0371H206.643V71.2991H197.353V80.0371Z" fill="#C4C4C4"/>
<path d="M197.338 71.2828H206.66V80.0537H197.338V71.2828ZM206.627 71.3157H197.371V80.0208H206.627V71.3157Z" fill="#B7B7B7"/>
<path d="M202.154 79.708H206.311V76.82H202.154V79.708Z" fill="#E8E8E8"/>
<path d="M197.683 79.708H201.84V76.82H197.683V79.708Z" fill="#E8E8E8"/>
<path d="M202.154 76.4502H206.311V71.6369H202.154V76.4502Z" fill="#E8E8E8"/>
<path d="M197.683 76.4502H201.84V71.6369H197.683V76.4502Z" fill="#E8E8E8"/>
<path d="M205.98 79.1321H202.154V79.708H206.311V76.82H205.98V79.1321Z" fill="#EFEFEF"/>
<path d="M201.509 79.1321H197.683V79.708H201.84V76.82H201.509V79.1321Z" fill="#EFEFEF"/>
<path d="M205.98 75.8742H202.154V76.4502H206.311V71.6369H205.98V75.8742Z" fill="#EFEFEF"/>
<path d="M201.509 75.8742H197.683V76.4502H201.84V71.6369H201.509V75.8742Z" fill="#EFEFEF"/>
<g opacity="0.5">
<path d="M202.154 76.9108V79.4121C203.171 78.5729 204.171 77.7089 205.154 76.8285H202.245C202.22 76.8532 202.187 76.8779 202.154 76.9108Z" fill="#EDEDED"/>
</g>
<path d="M202.153 76.9102C202.186 76.8855 202.219 76.8526 202.244 76.8279H202.153V76.9102Z" fill="#E8E8E8"/>
<path d="M201.84 79.708V79.6669C201.823 79.6833 201.807 79.6916 201.79 79.708H201.84Z" fill="#E8E8E8"/>
<g opacity="0.5">
<path d="M201.79 79.708C201.807 79.6916 201.823 79.6833 201.84 79.6669V77.1903C200.914 78.0295 199.989 78.877 199.055 79.708H201.79Z" fill="#EDEDED"/>
</g>
<g opacity="0.5">
<path d="M197.683 78.0869V79.0742C198.625 78.3337 199.551 77.585 200.477 76.828H199.278C198.749 77.2476 198.22 77.6672 197.683 78.0869Z" fill="#EDEDED"/>
</g>
<g opacity="0.5">
<path d="M205.575 76.4502C205.823 76.228 206.063 76.0059 206.311 75.792V73.4223C205.054 74.3768 203.856 75.4053 202.674 76.4502H205.575Z" fill="#EDEDED"/>
</g>
<g opacity="0.5">
<path d="M202.154 75.4375C203.542 74.2856 204.922 73.1255 206.311 71.9736V71.6362H205.765C204.55 72.5906 203.352 73.5533 202.162 74.516V75.4375H202.154Z" fill="#EDEDED"/>
</g>
<g opacity="0.5">
<path d="M202.154 72.1299C202.402 71.9653 202.658 71.8008 202.914 71.6362H202.154V72.1299Z" fill="#EDEDED"/>
</g>
<g opacity="0.5">
<path d="M200.939 76.4502C201.245 76.2034 201.542 75.9565 201.84 75.7015V74.7717C201.146 75.3312 200.451 75.8907 199.749 76.4502H200.939Z" fill="#EDEDED"/>
</g>
<g opacity="0.5">
<path d="M197.683 75.248C199.063 74.2689 200.435 73.2898 201.84 72.3436V71.636H200.336C199.468 72.2202 198.584 72.7879 197.691 73.3474V75.248H197.683Z" fill="#EDEDED"/>
</g>
<path d="M191.978 145H171.178C171.177 144.235 171.634 143.435 172.29 143.041C172.946 142.647 173.809 142.625 174.484 142.985C174.894 141.346 176.216 140.025 177.866 139.664C179.517 139.304 181.345 139.951 182.402 141.269C182.954 140.829 183.844 140.784 184.496 141.055C185.147 141.327 185.628 141.971 185.703 142.672C186.666 141.983 188.018 141.954 189.15 142.303C190.281 142.652 191.57 143.888 191.978 145Z" fill="#E0E0E0"/>
<path d="M225.968 145H199.793C200.084 143.969 200.727 143.08 201.691 142.613C202.655 142.146 203.82 142.112 204.809 142.523C205.027 141.874 205.723 141.243 206.362 140.996C207 140.75 207.746 140.803 208.344 141.137C209.665 139.073 212.033 138.038 214.465 138.342C216.897 138.647 219.08 140.44 219.852 142.766C220.895 142.191 222.088 142.043 223.215 142.429C224.342 142.815 225.496 143.906 225.968 145Z" fill="#E0E0E0"/>
</g>
<defs>
<clipPath id="clip0_8961_85870">
<rect width="288" height="180" fill="white"/>
</clipPath>
</defs>
</svg>
