<svg xmlns="http://www.w3.org/2000/svg" fill="none" viewBox="3.681130171543895 1.84 906.4783047426841 458.16" style="max-height: 500px" width="906.4783047426841" height="458.16">
<g clip-path="url(#clip0_867_67062)">
<path fill="#F2F2F2" d="M0 8.67927C0 3.88585 3.88583 0 8.67924 0H912V460H8.67924C3.88583 460 0 456.114 0 451.321V8.67927Z"/>
<path fill="#BBBBBB" d="M263.44 126.242H276.146V61.0666H315.013C315.013 61.0666 358.365 67.0598 359.859 114.256C359.859 114.256 360.607 158.455 315.013 166.696H262.692V277.778H276.146V180.93L311.276 181.679C311.276 181.679 368.829 178.682 373.313 113.507C373.313 113.507 374.808 61.0666 318.003 46.8329H262.692V126.242H263.44Z"/>
<path fill="#BBBBBB" d="M290.342 73.8054H313.513C313.513 73.8054 345.653 82.046 346.4 110.513C346.4 110.513 351.632 145.723 312.018 153.964H249.981V293.6H235.779V73.8054H290.342Z"/>
<path fill="white" d="M324.718 126.244C320.233 130.738 312.759 135.233 303.042 134.484C280.619 133.735 267.912 109.013 279.124 90.2847C279.871 88.7864 281.366 87.2881 282.114 85.7898C283.608 84.2915 284.356 83.5424 285.851 82.0441C283.608 82.0441 280.619 84.2915 279.124 85.0407C273.144 88.7864 267.912 95.5287 265.67 102.271C255.953 132.237 291.83 156.209 315.748 136.732C318.738 135.982 323.97 129.989 324.718 126.244Z" clip-rule="evenodd" fill-rule="evenodd"/>
<path fill="white" d="M302.297 98.5285L291.833 103.023L302.297 105.271L303.792 117.257L309.771 107.518L320.983 109.766L313.508 101.525L319.488 91.037L308.276 95.5319L300.802 87.2913L302.297 98.5285Z" clip-rule="evenodd" fill-rule="evenodd"/>
<path fill="#BBBBBB" d="M257.968 398.001H169C169.568 394.234 171.685 390.264 175.087 388.566C178.489 386.866 182.714 386.94 186.056 388.755C187.805 383.297 192.539 378.51 197.988 376.768C203.438 375.026 209.699 376.082 214.279 379.517C215.769 377.852 218.786 377.201 220.974 377.641C223.161 378.081 225.063 379.74 225.798 381.851C229.906 379.6 235.747 380.118 239.974 382.131C244.202 384.145 247.363 388.269 248.215 392.882C251.805 391.242 256.045 394.548 257.968 398.001Z"/>
<path fill="#808080" d="M707.689 218.55C670.396 271.579 672.389 316.623 672.389 333.906C672.389 351.778 685.613 366.548 702.788 368.94V397.999H712.59V368.94C729.766 366.548 742.99 351.778 742.99 333.906C742.99 316.622 744.983 271.579 707.689 218.55Z"/>
<path fill="#808080" d="M210.211 197.76C168.831 256.6 171.044 306.578 171.044 325.755C171.044 345.585 185.718 361.973 204.774 364.626V396.869H215.649V364.626C234.705 361.972 249.379 345.585 249.379 325.755C249.379 306.578 251.591 256.598 210.211 197.76Z"/>
<path fill="#D4D4D4" d="M385.571 158.165C335.727 229.04 338.391 289.242 338.391 312.341C338.391 336.227 356.065 355.967 379.021 359.164V398.002H392.121V359.164C415.076 355.967 432.751 336.229 432.751 312.341C432.75 289.242 435.413 229.04 385.571 158.165Z"/>
<path fill="#808080" d="M334.73 203.022C294.209 260.64 296.375 309.58 296.375 328.359C296.375 347.778 310.744 363.824 329.405 366.423V397.996H340.054V366.423C358.715 363.824 373.085 347.778 373.085 328.359C373.085 309.58 375.25 260.64 334.73 203.022Z"/>
<path fill="#BBBBBB" d="M392.214 302.242H375.786V398.007H392.214V302.242Z"/>
<path fill="#EAEAEA" d="M375.782 302.242H244.142V398.007H375.782V302.242Z"/>
<path fill="white" d="M357.443 341.037H259.047V398.005H357.443V341.037Z"/>
<path fill="#848484" d="M354.053 398.005V344.437H262.442V398.005H354.053Z"/>
<path fill="#DDDDDD" d="M354.049 348.404H262.438V350.122H354.049V348.404Z"/>
<path fill="#DDDDDD" d="M354.049 352.372H262.438V354.089H354.049V352.372Z"/>
<path fill="#DDDDDD" d="M354.049 356.339H262.438V358.056H354.049V356.339Z"/>
<path fill="#DDDDDD" d="M354.049 360.306H262.438V362.023H354.049V360.306Z"/>
<path fill="#DDDDDD" d="M354.049 364.271H262.438V365.988H354.049V364.271Z"/>
<path fill="#DDDDDD" d="M354.049 368.238H262.438V369.956H354.049V368.238Z"/>
<path fill="#DDDDDD" d="M354.049 372.206H262.438V373.923H354.049V372.206Z"/>
<path fill="#DDDDDD" d="M354.049 376.173H262.438V377.89H354.049V376.173Z"/>
<path fill="#DDDDDD" d="M354.049 380.144H262.438V381.862H354.049V380.144Z"/>
<path fill="#DDDDDD" d="M354.049 384.112H262.438V385.829H354.049V384.112Z"/>
<path fill="#DDDDDD" d="M354.049 388.079H262.438V389.796H354.049V388.079Z"/>
<path fill="#DDDDDD" d="M354.049 392.046H262.438V393.763H354.049V392.046Z"/>
<path fill="#D8D8D8" d="M375.782 329.817H244.141V338.202H375.782V329.817Z"/>
<path fill="#AFAFAF" d="M277.78 251.051L229.554 322.274H375.548L423.775 251.051H277.78Z"/>
<path fill="white" d="M229.554 329.82H375.782V322.278H375.548H229.554V329.82Z"/>
<path fill="#E7E7E7" d="M423.595 251.052L375.369 322.274H343.419L391.646 251.052H423.595Z" opacity="0.4"/>
<path fill="white" d="M375.786 322.279H343.419V329.821H375.786V322.279Z"/>
<path fill="#E7E7E7" d="M569.861 208.844H391.973V397.998H569.861V208.844Z"/>
<path fill="#A0A0A0" d="M466.017 232.761H421.864V274.102H466.017V232.761Z"/>
<path fill="#A0A0A0" d="M466.055 274.321H421.865V232.581H466.055V274.321ZM422.084 274.103H465.836V232.799H422.084V274.103Z"/>
<path fill="#C4C4C4" d="M464.474 234.148H423.425V272.761H464.474V234.148Z"/>
<path fill="#B7B7B7" d="M464.544 272.832H423.349V234.073H464.544V272.832ZM423.495 272.687H464.398V234.219H423.495V272.687Z"/>
<path fill="#E8E8E8" d="M443.265 235.598H424.896V248.36H443.265V235.598Z"/>
<path fill="#E8E8E8" d="M463.035 235.598H444.665V248.36H463.035V235.598Z"/>
<path fill="#E8E8E8" d="M443.265 249.994H424.896V271.264H443.265V249.994Z"/>
<path fill="#E8E8E8" d="M463.035 249.994H444.665V271.264H463.035V249.994Z"/>
<path fill="#EFEFEF" d="M426.356 238.143H443.265V235.598H424.896V248.36H426.356V238.143Z"/>
<path fill="#EFEFEF" d="M446.126 238.143H463.035V235.598H444.665V248.36H446.126V238.143Z"/>
<path fill="#EFEFEF" d="M426.356 252.539H443.265V249.994H424.896V271.264H426.356V252.539Z"/>
<path fill="#EFEFEF" d="M446.126 252.539H463.035V249.994H444.665V271.264H446.126V252.539Z"/>
<g opacity="0.5">
<path fill="#EDEDED" d="M443.276 247.957V236.904C438.784 240.613 434.365 244.43 430.019 248.321H442.874C442.983 248.212 443.13 248.103 443.276 247.957Z"/>
</g>
<path fill="#E8E8E8" d="M443.274 247.96C443.128 248.069 442.982 248.214 442.872 248.323H443.274V247.96Z"/>
<path fill="#E8E8E8" d="M444.667 235.598V235.78C444.74 235.707 444.813 235.671 444.886 235.598H444.667Z"/>
<g opacity="0.5">
<path fill="#EDEDED" d="M444.886 235.598C444.813 235.671 444.74 235.707 444.667 235.78V246.724C448.757 243.015 452.848 239.27 456.974 235.598H444.886Z"/>
</g>
<g opacity="0.5">
<path fill="#EDEDED" d="M463.021 242.76V238.397C458.857 241.669 454.767 244.978 450.677 248.323H455.972C458.31 246.468 460.647 244.614 463.021 242.76Z"/>
</g>
<g opacity="0.5">
<path fill="#EDEDED" d="M428.148 249.995C427.052 250.976 425.993 251.958 424.897 252.903V263.375C430.449 259.157 435.744 254.612 440.967 249.995H428.148Z"/>
</g>
<g opacity="0.5">
<path fill="#EDEDED" d="M443.267 254.468C437.132 259.558 431.033 264.685 424.897 269.775V271.266H427.308C432.676 267.048 437.972 262.794 443.231 258.54V254.468H443.267Z"/>
</g>
<g opacity="0.5">
<path fill="#EDEDED" d="M443.275 269.087C442.179 269.815 441.047 270.542 439.915 271.269H443.275V269.087Z"/>
</g>
<g opacity="0.5">
<path fill="#EDEDED" d="M448.648 249.995C447.296 251.085 445.982 252.176 444.667 253.303V257.412C447.735 254.939 450.802 252.467 453.907 249.995H448.648Z"/>
</g>
<g opacity="0.5">
<path fill="#EDEDED" d="M463.037 255.308C456.938 259.634 450.876 263.961 444.667 268.142V271.269H451.314C455.148 268.688 459.056 266.179 463 263.707V255.308H463.037Z"/>
</g>
<path fill="#A0A0A0" d="M535.462 232.761H491.308V274.102H535.462V232.761Z"/>
<path fill="#A0A0A0" d="M535.497 274.321H491.307V232.581H535.497V274.321ZM491.526 274.103H535.278V232.799H491.526V274.103Z"/>
<path fill="#C4C4C4" d="M533.926 234.148H492.876V272.761H533.926V234.148Z"/>
<path fill="#B7B7B7" d="M533.995 272.832H492.799V234.073H533.995V272.832ZM492.945 272.687H533.849V234.219H492.945V272.687Z"/>
<path fill="#E8E8E8" d="M512.71 235.598H494.34V248.36H512.71V235.598Z"/>
<path fill="#E8E8E8" d="M532.475 235.598H514.105V248.36H532.475V235.598Z"/>
<path fill="#E8E8E8" d="M512.71 249.994H494.34V271.264H512.71V249.994Z"/>
<path fill="#E8E8E8" d="M532.475 249.994H514.105V271.264H532.475V249.994Z"/>
<path fill="#EFEFEF" d="M495.801 238.143H512.71V235.598H494.34V248.36H495.801V238.143Z"/>
<path fill="#EFEFEF" d="M515.566 238.143H532.475V235.598H514.105V248.36H515.566V238.143Z"/>
<path fill="#EFEFEF" d="M495.801 252.539H512.71V249.994H494.34V271.264H495.801V252.539Z"/>
<path fill="#EFEFEF" d="M515.566 252.539H532.475V249.994H514.105V271.264H515.566V252.539Z"/>
<g opacity="0.5">
<path fill="#EDEDED" d="M512.714 247.957V236.904C508.222 240.613 503.803 244.43 499.457 248.321H512.312C512.421 248.212 512.568 248.103 512.714 247.957Z"/>
</g>
<path fill="#E8E8E8" d="M512.717 247.96C512.571 248.069 512.425 248.214 512.315 248.323H512.717V247.96Z"/>
<path fill="#E8E8E8" d="M514.105 235.598V235.78C514.178 235.707 514.251 235.671 514.324 235.598H514.105Z"/>
<g opacity="0.5">
<path fill="#EDEDED" d="M514.324 235.598C514.251 235.671 514.178 235.707 514.105 235.78V246.724C518.195 243.015 522.286 239.27 526.412 235.598H514.324Z"/>
</g>
<g opacity="0.5">
<path fill="#EDEDED" d="M532.468 242.76V238.397C528.304 241.669 524.214 244.978 520.124 248.323H525.419C527.756 246.468 530.094 244.614 532.468 242.76Z"/>
</g>
<g opacity="0.5">
<path fill="#EDEDED" d="M497.591 249.995C496.495 250.976 495.436 251.958 494.34 252.903V263.375C499.891 259.157 505.187 254.612 510.409 249.995H497.591Z"/>
</g>
<g opacity="0.5">
<path fill="#EDEDED" d="M512.71 254.468C506.575 259.558 500.476 264.685 494.34 269.775V271.266H496.751C502.119 267.048 507.415 262.794 512.674 258.54V254.468H512.71Z"/>
</g>
<g opacity="0.5">
<path fill="#EDEDED" d="M512.719 269.087C511.623 269.815 510.491 270.542 509.359 271.269H512.719V269.087Z"/>
</g>
<g opacity="0.5">
<path fill="#EDEDED" d="M518.086 249.995C516.734 251.085 515.42 252.176 514.105 253.303V257.412C517.173 254.939 520.24 252.467 523.345 249.995H518.086Z"/>
</g>
<g opacity="0.5">
<path fill="#EDEDED" d="M532.475 255.308C526.376 259.634 520.314 263.961 514.105 268.142V271.269H520.752C524.586 268.688 528.494 266.179 532.438 263.707V255.308H532.475Z"/>
</g>
<path fill="#D8D8D8" d="M569.861 283.147H391.973V328.452H569.861V283.147Z"/>
<path fill="#C4C4C4" d="M706 398H570V216.5H638H706V398Z"/>
<path fill="#EAEAEA" d="M637.893 106.948L569.868 207.407H705.918L637.893 106.948Z"/>
<path fill="#A0A0A0" d="M671.165 316.038H608.089V375.23H671.165V316.038Z"/>
<path fill="#A0A0A0" d="M671.218 375.543H608.089V315.778H671.218V375.543ZM608.402 375.231H670.905V316.09H608.402V375.231Z"/>
<path fill="#C4C4C4" d="M668.973 318.017H610.331V373.305H668.973V318.017Z"/>
<path fill="#B7B7B7" d="M669.076 373.408H610.226V317.912H669.076V373.408ZM610.434 373.199H668.868V318.12H610.434V373.199Z"/>
<path fill="#E8E8E8" d="M638.661 320.099H612.418V338.372H638.661V320.099Z"/>
<path fill="#E8E8E8" d="M666.884 320.099H640.641V338.372H666.884V320.099Z"/>
<path fill="#E8E8E8" d="M638.662 340.71H612.419V371.165H638.662V340.71Z"/>
<path fill="#E8E8E8" d="M666.884 340.71H640.641V371.165H666.884V340.71Z"/>
<path fill="#EFEFEF" d="M614.505 323.743H638.661V320.099H612.418V338.372H614.505V323.743Z"/>
<path fill="#EFEFEF" d="M642.728 323.743H666.884V320.099H640.641V338.372H642.728V323.743Z"/>
<path fill="#EFEFEF" d="M614.506 344.354H638.662V340.71H612.419V371.165H614.506V344.354Z"/>
<path fill="#EFEFEF" d="M642.728 344.354H666.884V340.71H640.641V371.165H642.728V344.354Z"/>
<g opacity="0.5">
<path fill="#EDEDED" d="M638.658 337.797V321.971C632.241 327.281 625.928 332.747 619.72 338.318H638.084C638.241 338.162 638.45 338.005 638.658 337.797Z"/>
</g>
<path fill="#E8E8E8" d="M638.667 337.8C638.458 337.956 638.249 338.165 638.093 338.321H638.667V337.8Z"/>
<path fill="#E8E8E8" d="M640.642 320.1V320.359C640.746 320.255 640.85 320.203 640.955 320.1H640.642Z"/>
<g opacity="0.5">
<path fill="#EDEDED" d="M640.955 320.1C640.85 320.204 640.746 320.256 640.642 320.36V336.03C646.485 330.72 652.328 325.358 658.224 320.1H640.955Z"/>
</g>
<g opacity="0.5">
<path fill="#EDEDED" d="M666.881 330.357V324.109C660.934 328.795 655.09 333.532 649.247 338.322H656.812C660.151 335.667 663.49 333.012 666.881 330.357Z"/>
</g>
<g opacity="0.5">
<path fill="#EDEDED" d="M617.063 340.71C615.498 342.116 613.985 343.522 612.419 344.875V359.869C620.35 353.83 627.915 347.322 635.375 340.71H617.063Z"/>
</g>
<g opacity="0.5">
<path fill="#EDEDED" d="M638.662 347.118C629.897 354.407 621.184 361.747 612.419 369.035V371.17H615.862C623.532 365.131 631.097 359.04 638.61 352.949V347.118H638.662Z"/>
</g>
<g opacity="0.5">
<path fill="#EDEDED" d="M638.659 368.049C637.094 369.09 635.477 370.131 633.859 371.172H638.659V368.049Z"/>
</g>
<g opacity="0.5">
<path fill="#EDEDED" d="M646.328 340.71C644.398 342.272 642.52 343.834 640.642 345.448V351.331C645.024 347.791 649.407 344.25 653.841 340.71H646.328Z"/>
</g>
<g opacity="0.5">
<path fill="#EDEDED" d="M666.884 348.316C658.172 354.511 649.511 360.706 640.642 366.693V371.17H650.137C655.615 367.474 661.198 363.882 666.832 360.342V348.316H666.884Z"/>
</g>
<path stroke-width="1.57822" stroke="#A0A0A0" fill="#C4C4C4" d="M428.727 370.037H402.982V335.798H428.727V370.037Z"/>
<path fill="#CECECE" d="M427.044 337.487H404.664V368.35H427.044V337.487Z"/>
<path fill="#E0E0E0" d="M409.322 337.487H404.664V368.35H427.044V366.287H409.322V337.487Z"/>
<path stroke-width="1.57822" stroke="#A0A0A0" fill="#C4C4C4" d="M529.73 370.037H503.986V335.798H529.73V370.037Z"/>
<path fill="#CECECE" d="M528.048 337.487H505.667V368.35H528.048V337.487Z"/>
<path fill="#E0E0E0" d="M510.326 337.487H505.667V368.35H528.048V366.287H510.326V337.487Z"/>
<path fill="#D8D8D8" d="M569.848 375.602H547.5V398.001H569.848V375.602Z"/>
<path fill="#BBBBBB" d="M369.612 398.002H547.5V375.603H369.612V398.002Z"/>
<path fill="#D8D8D8" d="M569.861 208.844H391.973V225.587H569.861V208.844Z"/>
<path fill="#F3F3F3" d="M705.905 388.949H569.855V397.999H705.905V388.949Z"/>
<path fill="#F3F3F3" d="M705.905 298.445H569.855V307.495H705.905V298.445Z"/>
<path fill="#F3F3F3" d="M705.901 207.943H705.288L705.901 208.848V207.943Z"/>
<path fill="#F3F3F3" d="M569.855 207.943V208.848L570.468 207.943H569.855Z"/>
<path fill="#F3F3F3" d="M569.855 208.848V216.993H705.905V208.848L705.292 207.943H570.468L569.855 208.848Z"/>
<path fill="#D8D8D8" d="M715.254 208.846L647.229 108.387H637.881L705.906 208.846H715.254Z"/>
<path fill="white" d="M715.254 208.843H705.907V216.386H715.254V208.843Z"/>
<path fill="white" d="M493.856 323.843H457.756V375.602H493.856V323.843Z"/>
<path fill="white" d="M493.856 323.843H457.756V328.451H493.856V323.843Z"/>
<path fill="#848484" d="M491.145 375.598V326.554H460.463V375.598H491.145Z"/>
<path fill="white" d="M464.546 348.428H462.289V357.177H464.546V348.428Z"/>
<path fill="white" d="M465.186 348.428H464.545V357.177H465.186V348.428Z"/>
<path fill="white" d="M579.197 208.843H372.4V216.385H579.197V208.843Z"/>
<path fill="#AFAFAF" d="M440.424 108.386L372.4 208.845H579.197L647.222 108.386H440.424Z"/>
<path fill="white" d="M550.942 311.07H372.4V318.612H550.942V311.07Z"/>
<path fill="#BBBBBB" d="M569.851 283.146H391.963L373.055 311.069H550.944L569.851 283.146Z"/>
<path fill="#D8D8D8" d="M569.858 283.146L550.951 311.069H569.858V283.146Z"/>
<path fill="#BBBBBB" d="M569.859 311.07H550.951V318.612H569.859V311.07Z"/>
<path fill="#A0A0A0" d="M671.165 227.457H608.089V286.649H671.165V227.457Z"/>
<path fill="#A0A0A0" d="M671.218 286.962H608.089V227.197H671.218V286.962ZM608.402 286.65H670.905V227.509H608.402V286.65Z"/>
<path fill="#C4C4C4" d="M668.973 229.431H610.331V284.719H668.973V229.431Z"/>
<path fill="#B7B7B7" d="M669.076 284.824H610.226V229.328H669.076V284.824ZM610.434 284.616H668.868V229.536H610.434V284.616Z"/>
<path fill="#E8E8E8" d="M638.661 231.514H612.418V249.788H638.661V231.514Z"/>
<path fill="#E8E8E8" d="M666.884 231.514H640.641V249.788H666.884V231.514Z"/>
<path fill="#E8E8E8" d="M638.661 252.128H612.418V282.583H638.661V252.128Z"/>
<path fill="#E8E8E8" d="M666.884 252.128H640.641V282.583H666.884V252.128Z"/>
<path fill="#EFEFEF" d="M614.505 235.159H638.661V231.514H612.418V249.788H614.505V235.159Z"/>
<path fill="#EFEFEF" d="M642.728 235.159H666.884V231.514H640.641V249.788H642.728V235.159Z"/>
<path fill="#EFEFEF" d="M614.505 255.772H638.661V252.128H612.418V282.583H614.505V255.772Z"/>
<path fill="#EFEFEF" d="M642.728 255.772H666.884V252.128H640.641V282.583H642.728V255.772Z"/>
<g opacity="0.5">
<path fill="#EDEDED" d="M638.658 249.215V233.388C632.241 238.699 625.928 244.165 619.72 249.735H638.084C638.241 249.579 638.45 249.423 638.658 249.215Z"/>
</g>
<path fill="#E8E8E8" d="M638.667 249.218C638.458 249.374 638.249 249.582 638.093 249.738H638.667V249.218Z"/>
<path fill="#E8E8E8" d="M640.642 231.515V231.775C640.746 231.671 640.85 231.619 640.955 231.515H640.642Z"/>
<g opacity="0.5">
<path fill="#EDEDED" d="M640.955 231.515C640.85 231.619 640.746 231.671 640.642 231.775V247.445C646.485 242.135 652.328 236.773 658.224 231.515H640.955Z"/>
</g>
<g opacity="0.5">
<path fill="#EDEDED" d="M666.881 241.774V235.527C660.934 240.212 655.09 244.95 649.247 249.739H656.812C660.151 247.084 663.49 244.429 666.881 241.774Z"/>
</g>
<g opacity="0.5">
<path fill="#EDEDED" d="M617.062 252.128C615.497 253.534 613.984 254.939 612.419 256.293V271.286C620.349 265.247 627.914 258.74 635.375 252.128H617.062Z"/>
</g>
<g opacity="0.5">
<path fill="#EDEDED" d="M638.662 258.536C629.897 265.824 621.184 273.165 612.419 280.453V282.588H615.862C623.532 276.549 631.097 270.457 638.61 264.366V258.536H638.662Z"/>
</g>
<g opacity="0.5">
<path fill="#EDEDED" d="M638.659 279.464C637.094 280.505 635.477 281.546 633.859 282.588H638.659V279.464Z"/>
</g>
<g opacity="0.5">
<path fill="#EDEDED" d="M646.328 252.128C644.398 253.69 642.52 255.252 640.642 256.865V262.748C645.024 259.208 649.407 255.668 653.841 252.128H646.328Z"/>
</g>
<g opacity="0.5">
<path fill="#EDEDED" d="M666.884 259.734C658.172 265.929 649.511 272.124 640.642 278.111V282.588H650.137C655.615 278.892 661.198 275.3 666.832 271.759V259.734H666.884Z"/>
</g>
<path fill="white" d="M490.418 318.605H486.984V375.597H490.418V318.605Z"/>
<path fill="#D8D8D8" d="M493.846 318.605H490.413V375.597H493.846V318.605Z"/>
<path fill="white" d="M490.418 318.605H486.984V328.446H490.418V318.605Z"/>
<path fill="#BBBBBB" d="M493.846 318.605H490.413V328.446H493.846V318.605Z"/>
<path fill="white" d="M445.16 318.605H441.726V375.597H445.16V318.605Z"/>
<path fill="#D8D8D8" d="M448.584 318.605H445.15V375.597H448.584V318.605Z"/>
<path fill="white" d="M445.16 318.605H441.726V328.446H445.16V318.605Z"/>
<path fill="#BBBBBB" d="M448.584 318.605H445.15V328.446H448.584V318.605Z"/>
<path fill="white" d="M384.462 318.605H381.028V375.597H384.462V318.605Z"/>
<path fill="#D8D8D8" d="M387.894 318.605H384.461V375.597H387.894V318.605Z"/>
<path fill="white" d="M384.462 318.605H381.028V328.446H384.462V318.605Z"/>
<path fill="#BBBBBB" d="M387.894 318.605H384.461V328.446H387.894V318.605Z"/>
<path fill="white" d="M545.83 318.605H542.396V375.597H545.83V318.605Z"/>
<path fill="#D8D8D8" d="M549.258 318.605H545.824V375.597H549.258V318.605Z"/>
<path fill="white" d="M545.83 318.605H542.396V328.446H545.83V318.605Z"/>
<path fill="#BBBBBB" d="M549.258 318.605H545.824V328.446H549.258V318.605Z"/>
<path fill="#BBBBBB" d="M711.172 293.015H569.855V298.445H711.172V293.015Z"/>
<path fill="#A0A0A0" d="M623.553 193.47H655.091V163.874H623.553V193.47Z"/>
<path fill="#A0A0A0" d="M623.526 163.72H655.091V193.602H623.526V163.72ZM654.934 163.876H623.683V193.446H654.934V163.876Z"/>
<path fill="#C4C4C4" d="M634.164 192.833H654.32V173.83H634.164V192.833Z"/>
<path fill="#B7B7B7" d="M624.595 164.784H654.021V192.532H624.595V164.784ZM653.916 164.888H624.7V192.428H653.916V164.888Z"/>
<path fill="#E8E8E8" d="M639.8 191.437H652.921V182.301H639.8V191.437Z"/>
<path fill="#E8E8E8" d="M625.68 191.437H638.801V182.301H625.68V191.437Z"/>
<path fill="#E8E8E8" d="M639.8 181.131H652.921V165.903H639.8V181.131Z"/>
<path fill="#E8E8E8" d="M625.68 181.131H638.801V165.903H625.68V181.131Z"/>
<path fill="#EFEFEF" d="M651.878 189.615H639.8V191.437H652.921V182.301H651.878V189.615Z"/>
<path fill="#EFEFEF" d="M637.758 189.615H625.68V191.437H638.801V182.301H637.758V189.615Z"/>
<path fill="#EFEFEF" d="M651.878 179.309H639.8V181.131H652.921V165.903H651.878V179.309Z"/>
<path fill="#EFEFEF" d="M637.758 179.309H625.68V181.131H638.801V165.903H637.758V179.309Z"/>
<g opacity="0.5">
<path fill="#EDEDED" d="M639.805 182.586V190.499C643.014 187.844 646.17 185.111 649.274 182.325H640.092C640.014 182.404 639.909 182.482 639.805 182.586Z"/>
</g>
<path fill="#E8E8E8" d="M639.801 182.59C639.905 182.512 640.01 182.409 640.088 182.331H639.801V182.59Z"/>
<path fill="#E8E8E8" d="M638.802 191.437V191.307C638.75 191.359 638.697 191.385 638.645 191.437H638.802Z"/>
<g opacity="0.5">
<path fill="#EDEDED" d="M638.645 191.437C638.697 191.385 638.75 191.359 638.802 191.307V183.472C635.88 186.127 632.958 188.808 630.011 191.437H638.645Z"/>
</g>
<g opacity="0.5">
<path fill="#EDEDED" d="M625.684 186.31V189.434C628.658 187.091 631.579 184.722 634.501 182.327H630.718C629.049 183.655 627.379 184.982 625.684 186.31Z"/>
</g>
<g opacity="0.5">
<path fill="#EDEDED" d="M650.6 181.131C651.383 180.428 652.139 179.725 652.922 179.048V171.551C648.957 174.571 645.174 177.825 641.444 181.131H650.6Z"/>
</g>
<g opacity="0.5">
<path fill="#EDEDED" d="M639.8 177.929C644.183 174.285 648.539 170.615 652.922 166.971V165.903H651.2C647.365 168.923 643.583 171.968 639.827 175.014V177.929H639.8Z"/>
</g>
<g opacity="0.5">
<path fill="#EDEDED" d="M639.79 167.464C640.573 166.943 641.382 166.422 642.19 165.902H639.79V167.464Z"/>
</g>
<g opacity="0.5">
<path fill="#EDEDED" d="M635.958 181.131C636.924 180.35 637.863 179.569 638.802 178.762V175.82C636.611 177.59 634.419 179.36 632.202 181.131H635.958Z"/>
</g>
<g opacity="0.5">
<path fill="#EDEDED" d="M625.68 177.33C630.037 174.232 634.367 171.135 638.802 168.141V165.903H634.054C631.315 167.751 628.524 169.547 625.706 171.317V177.33H625.68Z"/>
</g>
<path fill="#E0E0E0" d="M607.669 398H542.015C542.013 395.58 543.456 393.051 545.526 391.804C547.595 390.558 550.32 390.488 552.45 391.627C553.746 386.443 557.92 382.261 563.128 381.121C568.337 379.981 574.109 382.028 577.444 386.198C579.186 384.806 581.995 384.663 584.052 385.523C586.108 386.382 587.626 388.419 587.865 390.638C590.903 388.457 595.17 388.367 598.743 389.471C602.315 390.575 606.383 394.483 607.669 398Z"/>
<path fill="#E0E0E0" d="M714.964 397.996H632.343C633.262 394.734 635.292 391.922 638.335 390.444C641.378 388.966 645.054 388.861 648.178 390.16C648.864 388.107 651.063 386.11 653.077 385.33C655.091 384.55 657.448 384.717 659.333 385.774C663.504 379.244 670.977 375.97 678.654 376.934C686.331 377.897 693.223 383.569 695.659 390.929C698.951 389.109 702.715 388.642 706.273 389.863C709.831 391.082 713.475 394.535 714.964 397.996Z"/>
</g>
<defs>
<clipPath id="clip0_867_67062">
<rect fill="white" height="460" width="912"/>
</clipPath>
</defs>
</svg>