<svg width="870" height="535" viewBox="0 0 870 535" fill="none" xmlns="http://www.w3.org/2000/svg">
<rect width="870" height="535" rx="4" fill="#DBDBDB"/>
<path d="M233.711 165.696H246.993V97.5679H287.62C287.62 97.5679 332.935 103.833 334.498 153.166C334.498 153.166 335.279 199.368 287.62 207.982H232.93V324.096H246.993V222.86L283.714 223.643C283.714 223.643 343.874 220.511 348.561 152.383C348.561 152.383 350.124 97.5679 290.746 82.6895H232.93V165.696H233.711Z" fill="#BBBBBB"/>
<path d="M261.831 110.884H286.052C286.052 110.884 319.647 119.498 320.429 149.255C320.429 149.255 325.898 186.059 284.489 194.673H219.641V340.634H204.797V110.884H261.831Z" fill="#BBBBBB"/>
<path fill-rule="evenodd" clip-rule="evenodd" d="M297.767 165.697C293.079 170.395 285.266 175.094 275.109 174.311C251.67 173.527 238.388 147.686 250.108 128.109C250.889 126.543 252.452 124.977 253.233 123.411C254.796 121.844 255.577 121.061 257.14 119.495C254.796 119.495 251.67 121.844 250.108 122.627C243.858 126.543 238.388 133.591 236.045 140.638C225.888 171.961 263.39 197.02 288.391 176.66C291.517 175.877 296.986 169.612 297.767 165.697Z" fill="white"/>
<path fill-rule="evenodd" clip-rule="evenodd" d="M274.329 136.727L263.391 141.425L274.329 143.774L275.891 156.304L282.142 146.124L293.861 148.473L286.048 139.859L292.299 128.896L280.579 133.594L272.766 124.98L274.329 136.727Z" fill="white"/>
<path d="M227.998 449.764H135C135.593 445.827 137.806 441.676 141.362 439.901C144.918 438.125 149.335 438.202 152.828 440.099C154.657 434.394 159.606 429.39 165.301 427.569C170.998 425.748 177.543 426.852 182.33 430.442C183.887 428.702 187.041 428.022 189.328 428.481C191.614 428.941 193.602 430.676 194.371 432.882C198.665 430.529 204.77 431.07 209.189 433.175C213.608 435.28 216.912 439.591 217.803 444.413C221.556 442.699 225.988 446.155 227.998 449.764Z" fill="#BBBBBB"/>
<path d="M698.086 262.184C659.104 317.615 661.187 364.699 661.187 382.765C661.187 401.447 675.01 416.885 692.964 419.385V449.761H703.21V419.385C721.164 416.885 734.987 401.447 734.987 382.765C734.987 364.698 737.07 317.615 698.086 262.184Z" fill="#808080"/>
<path d="M178.077 240.454C134.823 301.959 137.135 354.201 137.135 374.247C137.135 394.976 152.474 412.105 172.393 414.879V448.583H183.761V414.879C203.68 412.104 219.019 394.976 219.019 374.247C219.019 354.201 221.331 301.958 178.077 240.454Z" fill="#808080"/>
<path d="M361.378 199.063C309.276 273.148 312.061 336.078 312.061 360.223C312.061 385.191 330.536 405.825 354.532 409.167V449.764H368.225V409.167C392.219 405.825 410.695 385.193 410.695 360.223C410.694 336.078 413.478 273.148 361.378 199.063Z" fill="#D4D4D4"/>
<path d="M308.238 245.953C265.882 306.181 268.146 357.337 268.146 376.967C268.146 397.266 283.166 414.039 302.673 416.756V449.759H313.804V416.756C333.31 414.039 348.33 397.266 348.33 376.967C348.33 357.337 350.594 306.181 308.238 245.953Z" fill="#808080"/>
<path d="M368.321 349.666H351.148V449.769H368.321V349.666Z" fill="#BBBBBB"/>
<path d="M351.154 349.666H213.551V449.769H351.154V349.666Z" fill="#EAEAEA"/>
<path d="M331.978 390.221H229.125V449.77H331.978V390.221Z" fill="white"/>
<path d="M328.445 449.767V393.772H232.685V449.767H328.445Z" fill="#848484"/>
<path d="M328.436 397.918H232.676V399.713H328.436V397.918Z" fill="#DDDDDD"/>
<path d="M328.436 402.067H232.676V403.862H328.436V402.067Z" fill="#DDDDDD"/>
<path d="M328.436 406.213H232.676V408.008H328.436V406.213Z" fill="#DDDDDD"/>
<path d="M328.436 410.36H232.676V412.155H328.436V410.36Z" fill="#DDDDDD"/>
<path d="M328.436 414.506H232.676V416.301H328.436V414.506Z" fill="#DDDDDD"/>
<path d="M328.436 418.652H232.676V420.447H328.436V418.652Z" fill="#DDDDDD"/>
<path d="M328.436 422.801H232.676V424.596H328.436V422.801Z" fill="#DDDDDD"/>
<path d="M328.436 426.947H232.676V428.742H328.436V426.947Z" fill="#DDDDDD"/>
<path d="M328.436 431.097H232.676V432.892H328.436V431.097Z" fill="#DDDDDD"/>
<path d="M328.436 435.243H232.676V437.038H328.436V435.243Z" fill="#DDDDDD"/>
<path d="M328.436 439.392H232.676V441.187H328.436V439.392Z" fill="#DDDDDD"/>
<path d="M328.436 443.536H232.676V445.331H328.436V443.536Z" fill="#DDDDDD"/>
<path d="M351.154 378.492H213.551V387.257H351.154V378.492Z" fill="#D8D8D8"/>
<path d="M248.7 296.159L198.289 370.608H350.896L401.308 296.159H248.7Z" fill="#AFAFAF"/>
<path d="M198.289 378.494H351.141V370.611H350.896H198.289V378.494Z" fill="white"/>
<path opacity="0.4" d="M401.124 296.159L350.713 370.608H317.316L367.728 296.159H401.124Z" fill="#E7E7E7"/>
<path d="M351.149 370.611H317.316V378.495H351.149V370.611Z" fill="white"/>
<path d="M554.02 252.038H368.074V449.76H554.02V252.038Z" fill="#E7E7E7"/>
<path d="M445.466 277.039H399.312V320.252H445.466V277.039Z" fill="#A0A0A0"/>
<path d="M445.504 320.482H399.312V276.851H445.504V320.482ZM399.542 320.254H445.275V277.079H399.542V320.254Z" fill="#A0A0A0"/>
<path d="M443.846 278.487H400.938V318.85H443.846V278.487Z" fill="#C4C4C4"/>
<path d="M443.913 318.926H400.852V278.411H443.913V318.926ZM401.004 318.774H443.76V278.563H401.004V318.774Z" fill="#B7B7B7"/>
<path d="M421.679 280.004H402.477V293.344H421.679V280.004Z" fill="#E8E8E8"/>
<path d="M442.343 280.004H423.141V293.344H442.343V280.004Z" fill="#E8E8E8"/>
<path d="M421.679 295.054H402.477V317.287H421.679V295.054Z" fill="#E8E8E8"/>
<path d="M442.343 295.054H423.141V317.287H442.343V295.054Z" fill="#E8E8E8"/>
<path d="M404.004 282.664H421.679V280.004H402.477V293.344H404.004V282.664Z" fill="#EFEFEF"/>
<path d="M424.668 282.664H442.343V280.004H423.141V293.344H424.668V282.664Z" fill="#EFEFEF"/>
<path d="M404.004 297.714H421.679V295.054H402.477V317.287H404.004V297.714Z" fill="#EFEFEF"/>
<path d="M424.668 297.714H442.343V295.054H423.141V317.287H424.668V297.714Z" fill="#EFEFEF"/>
<g opacity="0.5">
<path d="M421.686 292.925V281.371C416.99 285.248 412.371 289.238 407.828 293.305H421.266C421.38 293.191 421.533 293.077 421.686 292.925Z" fill="#EDEDED"/>
</g>
<path d="M421.693 292.928C421.541 293.042 421.388 293.194 421.273 293.308H421.693V292.928Z" fill="#E8E8E8"/>
<path d="M423.141 280.008V280.198C423.217 280.122 423.293 280.084 423.37 280.008H423.141Z" fill="#E8E8E8"/>
<g opacity="0.5">
<path d="M423.37 280.008C423.293 280.084 423.217 280.122 423.141 280.198V291.638C427.416 287.761 431.692 283.846 436.006 280.008H423.37Z" fill="#EDEDED"/>
</g>
<g opacity="0.5">
<path d="M442.329 287.492V282.932C437.977 286.352 433.701 289.811 429.426 293.307H434.961C437.404 291.369 439.848 289.431 442.329 287.492Z" fill="#EDEDED"/>
</g>
<g opacity="0.5">
<path d="M405.874 295.054C404.729 296.08 403.622 297.106 402.477 298.094V309.04C408.279 304.631 413.815 299.88 419.274 295.054H405.874Z" fill="#EDEDED"/>
</g>
<g opacity="0.5">
<path d="M421.679 299.73C415.265 305.051 408.89 310.41 402.477 315.731V317.289H404.996C410.608 312.881 416.143 308.434 421.64 303.987V299.73H421.679Z" fill="#EDEDED"/>
</g>
<g opacity="0.5">
<path d="M421.688 315.012C420.543 315.772 419.359 316.532 418.176 317.292H421.688V315.012Z" fill="#EDEDED"/>
</g>
<g opacity="0.5">
<path d="M427.302 295.054C425.889 296.194 424.515 297.334 423.141 298.512V302.807C426.347 300.223 429.554 297.638 432.799 295.054H427.302Z" fill="#EDEDED"/>
</g>
<g opacity="0.5">
<path d="M442.343 300.609C435.967 305.132 429.63 309.655 423.141 314.026V317.294H430.088C434.097 314.596 438.182 311.973 442.304 309.389V300.609H442.343Z" fill="#EDEDED"/>
</g>
<path d="M518.052 277.039H471.898V320.252H518.052V277.039Z" fill="#A0A0A0"/>
<path d="M518.09 320.482H471.898V276.851H518.09V320.482ZM472.127 320.254H517.861V277.079H472.127V320.254Z" fill="#A0A0A0"/>
<path d="M516.452 278.487H473.543V318.85H516.452V278.487Z" fill="#C4C4C4"/>
<path d="M516.534 318.926H473.473V278.411H516.534V318.926ZM473.625 318.774H516.381V278.563H473.625V318.774Z" fill="#B7B7B7"/>
<path d="M494.276 280.004H475.074V293.344H494.276V280.004Z" fill="#E8E8E8"/>
<path d="M514.936 280.004H495.734V293.344H514.936V280.004Z" fill="#E8E8E8"/>
<path d="M494.276 295.054H475.074V317.287H494.276V295.054Z" fill="#E8E8E8"/>
<path d="M514.936 295.054H495.734V317.287H514.936V295.054Z" fill="#E8E8E8"/>
<path d="M476.601 282.664H494.276V280.004H475.074V293.344H476.601V282.664Z" fill="#EFEFEF"/>
<path d="M497.261 282.664H514.936V280.004H495.734V293.344H497.261V282.664Z" fill="#EFEFEF"/>
<path d="M476.601 297.714H494.276V295.054H475.074V317.287H476.601V297.714Z" fill="#EFEFEF"/>
<path d="M497.261 297.714H514.936V295.054H495.734V317.287H497.261V297.714Z" fill="#EFEFEF"/>
<g opacity="0.5">
<path d="M494.276 292.925V281.371C489.58 285.248 484.961 289.238 480.418 293.305H493.856C493.97 293.191 494.123 293.077 494.276 292.925Z" fill="#EDEDED"/>
</g>
<path d="M494.283 292.928C494.131 293.042 493.978 293.194 493.863 293.308H494.283V292.928Z" fill="#E8E8E8"/>
<path d="M495.734 280.008V280.198C495.811 280.122 495.887 280.084 495.963 280.008H495.734Z" fill="#E8E8E8"/>
<g opacity="0.5">
<path d="M495.963 280.008C495.887 280.084 495.811 280.122 495.734 280.198V291.638C500.01 287.761 504.286 283.846 508.599 280.008H495.963Z" fill="#EDEDED"/>
</g>
<g opacity="0.5">
<path d="M514.934 287.492V282.932C510.582 286.352 506.307 289.811 502.031 293.307H507.567C510.01 291.369 512.453 289.431 514.934 287.492Z" fill="#EDEDED"/>
</g>
<g opacity="0.5">
<path d="M478.472 295.054C477.327 296.08 476.219 297.106 475.074 298.094V309.04C480.877 304.631 486.412 299.88 491.871 295.054H478.472Z" fill="#EDEDED"/>
</g>
<g opacity="0.5">
<path d="M494.276 299.73C487.863 305.051 481.488 310.41 475.074 315.731V317.289H477.594C483.206 312.881 488.741 308.434 494.238 303.987V299.73H494.276Z" fill="#EDEDED"/>
</g>
<g opacity="0.5">
<path d="M494.289 315.012C493.144 315.772 491.961 316.532 490.777 317.292H494.289V315.012Z" fill="#EDEDED"/>
</g>
<g opacity="0.5">
<path d="M499.895 295.054C498.483 296.194 497.109 297.334 495.734 298.512V302.807C498.941 300.223 502.148 297.638 505.393 295.054H499.895Z" fill="#EDEDED"/>
</g>
<g opacity="0.5">
<path d="M514.936 300.609C508.561 305.132 502.224 309.655 495.734 314.026V317.294H502.682C506.691 314.596 510.775 311.973 514.898 309.389V300.609H514.936Z" fill="#EDEDED"/>
</g>
<path d="M554.02 329.707H368.074V377.065H554.02V329.707Z" fill="#D8D8D8"/>
<path d="M696.328 449.241H554.168V259.52H625.248H696.328V449.241Z" fill="#C4C4C4"/>
<path d="M625.13 145.525L554.023 250.535H696.236L625.13 145.525Z" fill="#EAEAEA"/>
<path d="M659.922 364.088H593.988V425.962H659.922V364.088Z" fill="#A0A0A0"/>
<path d="M659.977 426.29H593.988V363.817H659.977V426.29ZM594.315 425.963H659.649V364.144H594.315V425.963Z" fill="#A0A0A0"/>
<path d="M657.63 366.158H596.332V423.95H657.63V366.158Z" fill="#C4C4C4"/>
<path d="M657.727 424.057H596.211V366.047H657.727V424.057ZM596.429 423.839H657.509V366.265H596.429V423.839Z" fill="#B7B7B7"/>
<path d="M625.935 368.333H598.504V387.434H625.935V368.333Z" fill="#E8E8E8"/>
<path d="M655.435 368.333H628.004V387.434H655.435V368.333Z" fill="#E8E8E8"/>
<path d="M625.935 389.878H598.504V421.713H625.935V389.878Z" fill="#E8E8E8"/>
<path d="M655.435 389.878H628.004V421.713H655.435V389.878Z" fill="#E8E8E8"/>
<path d="M600.685 372.142H625.935V368.333H598.504V387.434H600.685V372.142Z" fill="#EFEFEF"/>
<path d="M630.185 372.142H655.435V368.333H628.004V387.434H630.185V372.142Z" fill="#EFEFEF"/>
<path d="M600.685 393.687H625.935V389.878H598.504V421.713H600.685V393.687Z" fill="#EFEFEF"/>
<path d="M630.185 393.687H655.435V389.878H628.004V421.713H630.185V393.687Z" fill="#EFEFEF"/>
<g opacity="0.5">
<path d="M625.933 386.832V370.289C619.225 375.84 612.626 381.554 606.137 387.376H625.333C625.497 387.213 625.715 387.05 625.933 386.832Z" fill="#EDEDED"/>
</g>
<path d="M625.951 386.834C625.733 386.997 625.515 387.215 625.352 387.378H625.951V386.834Z" fill="#E8E8E8"/>
<path d="M628.004 368.334V368.605C628.113 368.497 628.222 368.443 628.331 368.334H628.004Z" fill="#E8E8E8"/>
<g opacity="0.5">
<path d="M628.331 368.334C628.222 368.443 628.113 368.497 628.004 368.606V384.986C634.112 379.435 640.22 373.83 646.382 368.334H628.331Z" fill="#EDEDED"/>
</g>
<g opacity="0.5">
<path d="M655.441 379.055V372.524C649.224 377.422 643.116 382.374 637.008 387.381H644.915C648.406 384.605 651.896 381.83 655.441 379.055Z" fill="#EDEDED"/>
</g>
<g opacity="0.5">
<path d="M603.358 389.879C601.722 391.348 600.14 392.817 598.504 394.232V409.905C606.793 403.592 614.701 396.79 622.5 389.879H603.358Z" fill="#EDEDED"/>
</g>
<g opacity="0.5">
<path d="M625.935 396.577C616.773 404.196 607.666 411.869 598.504 419.487V421.718H602.103C610.12 415.406 618.028 409.039 625.881 402.672V396.577H625.935Z" fill="#EDEDED"/>
</g>
<g opacity="0.5">
<path d="M625.931 418.457C624.295 419.545 622.605 420.634 620.914 421.722H625.931V418.457Z" fill="#EDEDED"/>
</g>
<g opacity="0.5">
<path d="M633.948 389.879C631.93 391.511 629.967 393.144 628.004 394.831V400.98C632.585 397.28 637.166 393.579 641.801 389.879H633.948Z" fill="#EDEDED"/>
</g>
<g opacity="0.5">
<path d="M655.435 397.828C646.328 404.304 637.275 410.78 628.004 417.038V421.718H637.929C643.656 417.854 649.491 414.099 655.381 410.399V397.828H655.435Z" fill="#EDEDED"/>
</g>
<path d="M406.503 420.533H379.593V384.744H406.503V420.533Z" fill="#C4C4C4" stroke="#A0A0A0" stroke-width="1.64971"/>
<path d="M404.738 386.508H381.344V418.769H404.738V386.508Z" fill="#CECECE"/>
<path d="M386.213 386.508H381.344V418.769H404.738V416.613H386.213V386.508Z" fill="#E0E0E0"/>
<path d="M512.073 420.533H485.163V384.744H512.073V420.533Z" fill="#C4C4C4" stroke="#A0A0A0" stroke-width="1.64971"/>
<path d="M510.312 386.508H486.918V418.769H510.312V386.508Z" fill="#CECECE"/>
<path d="M491.787 386.508H486.918V418.769H510.312V416.613H491.787V386.508Z" fill="#E0E0E0"/>
<path d="M554.009 426.349H530.648V449.763H554.009V426.349Z" fill="#D8D8D8"/>
<path d="M344.703 449.765H530.648V426.351H344.703V449.765Z" fill="#BBBBBB"/>
<path d="M554.02 252.038H368.074V269.54H554.02V252.038Z" fill="#D8D8D8"/>
<path d="M696.232 440.302H554.02V449.762H696.232V440.302Z" fill="#F3F3F3"/>
<path d="M696.232 345.696H554.02V355.156H696.232V345.696Z" fill="#F3F3F3"/>
<path d="M696.227 251.097H695.586L696.227 252.042V251.097Z" fill="#F3F3F3"/>
<path d="M554.02 251.097V252.042L554.66 251.097H554.02Z" fill="#F3F3F3"/>
<path d="M554.02 252.042V260.557H696.232V252.042L695.591 251.097H554.66L554.02 252.042Z" fill="#F3F3F3"/>
<path d="M705.999 252.038L634.893 147.028H625.121L696.227 252.038H705.999Z" fill="#D8D8D8"/>
<path d="M705.993 252.038H696.223V259.922H705.993V252.038Z" fill="white"/>
<path d="M474.571 372.245H436.836V426.348H474.571V372.245Z" fill="white"/>
<path d="M474.571 372.245H436.836V377.062H474.571V372.245Z" fill="white"/>
<path d="M471.734 426.344V375.078H439.663V426.344H471.734Z" fill="#848484"/>
<path d="M443.93 397.944H441.57V407.089H443.93V397.944Z" fill="white"/>
<path d="M444.599 397.944H443.93V407.089H444.599V397.944Z" fill="white"/>
<path d="M563.774 252.038H347.609V259.922H563.774V252.038Z" fill="white"/>
<path d="M418.714 147.028L347.609 252.038H563.774L634.88 147.028H418.714Z" fill="#AFAFAF"/>
<path d="M534.238 358.895H347.609V366.779H534.238V358.895Z" fill="white"/>
<path d="M554.015 329.707H368.069L348.305 358.895H534.251L554.015 329.707Z" fill="#BBBBBB"/>
<path d="M554.021 329.707L534.258 358.895H554.021V329.707Z" fill="#D8D8D8"/>
<path d="M554.022 358.895H534.258V366.779H554.022V358.895Z" fill="#BBBBBB"/>
<path d="M659.922 271.495H593.988V333.369H659.922V271.495Z" fill="#A0A0A0"/>
<path d="M659.977 333.693H593.988V271.221H659.977V333.693ZM594.315 333.366H659.649V271.547H594.315V333.366Z" fill="#A0A0A0"/>
<path d="M657.63 273.557H596.332V331.349H657.63V273.557Z" fill="#C4C4C4"/>
<path d="M657.727 331.459H596.211V273.449H657.727V331.459ZM596.429 331.241H657.509V273.667H596.429V331.241Z" fill="#B7B7B7"/>
<path d="M625.935 275.732H598.504V294.833H625.935V275.732Z" fill="#E8E8E8"/>
<path d="M655.435 275.732H628.004V294.833H655.435V275.732Z" fill="#E8E8E8"/>
<path d="M625.935 297.281H598.504V329.116H625.935V297.281Z" fill="#E8E8E8"/>
<path d="M655.435 297.281H628.004V329.116H655.435V297.281Z" fill="#E8E8E8"/>
<path d="M600.685 279.542H625.935V275.732H598.504V294.833H600.685V279.542Z" fill="#EFEFEF"/>
<path d="M630.185 279.542H655.435V275.732H628.004V294.833H630.185V279.542Z" fill="#EFEFEF"/>
<path d="M600.685 301.091H625.935V297.281H598.504V329.116H600.685V301.091Z" fill="#EFEFEF"/>
<path d="M630.185 301.091H655.435V297.281H628.004V329.116H630.185V301.091Z" fill="#EFEFEF"/>
<g opacity="0.5">
<path d="M625.933 294.237V277.694C619.225 283.245 612.626 288.959 606.137 294.782H625.333C625.497 294.618 625.715 294.455 625.933 294.237Z" fill="#EDEDED"/>
</g>
<path d="M625.951 294.24C625.733 294.403 625.515 294.621 625.352 294.784H625.951V294.24Z" fill="#E8E8E8"/>
<path d="M628.004 275.732V276.004C628.113 275.895 628.222 275.841 628.331 275.732H628.004Z" fill="#E8E8E8"/>
<g opacity="0.5">
<path d="M628.331 275.732C628.222 275.841 628.113 275.896 628.004 276.005V292.384C634.112 286.834 640.22 281.229 646.382 275.732H628.331Z" fill="#EDEDED"/>
</g>
<g opacity="0.5">
<path d="M655.441 286.458V279.928C649.224 284.825 643.116 289.777 637.008 294.784H644.915C648.406 292.009 651.896 289.233 655.441 286.458Z" fill="#EDEDED"/>
</g>
<g opacity="0.5">
<path d="M603.358 297.281C601.722 298.751 600.14 300.22 598.504 301.635V317.307C606.793 310.995 614.701 304.192 622.5 297.281H603.358Z" fill="#EDEDED"/>
</g>
<g opacity="0.5">
<path d="M625.935 303.981C616.773 311.6 607.666 319.273 598.504 326.892V329.123H602.103C610.12 322.81 618.028 316.443 625.881 310.076V303.981H625.935Z" fill="#EDEDED"/>
</g>
<g opacity="0.5">
<path d="M625.931 325.856C624.295 326.945 622.605 328.033 620.914 329.122H625.931V325.856Z" fill="#EDEDED"/>
</g>
<g opacity="0.5">
<path d="M633.948 297.281C631.93 298.914 629.967 300.546 628.004 302.233V308.383C632.585 304.682 637.166 300.982 641.801 297.281H633.948Z" fill="#EDEDED"/>
</g>
<g opacity="0.5">
<path d="M655.435 305.231C646.328 311.707 637.275 318.183 628.004 324.441V329.121H637.929C643.656 325.257 649.491 321.503 655.381 317.802V305.231H655.435Z" fill="#EDEDED"/>
</g>
<path d="M470.976 366.771H467.387V426.344H470.976V366.771Z" fill="white"/>
<path d="M474.566 366.771H470.977V426.344H474.566V366.771Z" fill="#D8D8D8"/>
<path d="M470.976 366.771H467.387V377.057H470.976V366.771Z" fill="white"/>
<path d="M474.566 366.771H470.977V377.057H474.566V366.771Z" fill="#BBBBBB"/>
<path d="M423.667 366.771H420.078V426.344H423.667V366.771Z" fill="white"/>
<path d="M427.257 366.771H423.668V426.344H427.257V366.771Z" fill="#D8D8D8"/>
<path d="M423.667 366.771H420.078V377.057H423.667V366.771Z" fill="white"/>
<path d="M427.257 366.771H423.668V377.057H427.257V366.771Z" fill="#BBBBBB"/>
<path d="M360.222 366.771H356.633V426.344H360.222V366.771Z" fill="white"/>
<path d="M363.812 366.771H360.223V426.344H363.812V366.771Z" fill="#D8D8D8"/>
<path d="M360.222 366.771H356.633V377.057H360.222V366.771Z" fill="white"/>
<path d="M363.812 366.771H360.223V377.057H363.812V366.771Z" fill="#BBBBBB"/>
<path d="M528.905 366.771H525.316V426.344H528.905V366.771Z" fill="white"/>
<path d="M532.491 366.771H528.902V426.344H532.491V366.771Z" fill="#D8D8D8"/>
<path d="M528.905 366.771H525.316V377.057H528.905V366.771Z" fill="white"/>
<path d="M532.491 366.771H528.902V377.057H532.491V366.771Z" fill="#BBBBBB"/>
<path d="M701.737 340.021H554.02V345.698H701.737V340.021Z" fill="#BBBBBB"/>
<path d="M610.146 235.969H643.113V205.032H610.146V235.969Z" fill="#A0A0A0"/>
<path d="M610.119 204.869H643.113V236.105H610.119V204.869ZM642.95 205.033H610.283V235.942H642.95V205.033Z" fill="#A0A0A0"/>
<path d="M621.232 235.302H642.301V215.438H621.232V235.302Z" fill="#C4C4C4"/>
<path d="M611.226 205.982H641.984V234.987H611.226V205.982ZM641.875 206.091H611.335V234.878H641.875V206.091Z" fill="#B7B7B7"/>
<path d="M627.124 233.845H640.84V224.294H627.124V233.845Z" fill="#E8E8E8"/>
<path d="M612.37 233.845H626.086V224.294H612.37V233.845Z" fill="#E8E8E8"/>
<path d="M627.124 223.068H640.84V207.151H627.124V223.068Z" fill="#E8E8E8"/>
<path d="M612.37 223.068H626.086V207.151H612.37V223.068Z" fill="#E8E8E8"/>
<path d="M639.749 231.94H627.124V233.845H640.84V224.294H639.749V231.94Z" fill="#EFEFEF"/>
<path d="M624.995 231.94H612.37V233.845H626.086V224.294H624.995V231.94Z" fill="#EFEFEF"/>
<path d="M639.749 221.164H627.124V223.068H640.84V207.151H639.749V221.164Z" fill="#EFEFEF"/>
<path d="M624.995 221.164H612.37V223.068H626.086V207.151H624.995V221.164Z" fill="#EFEFEF"/>
<g opacity="0.5">
<path d="M627.129 224.592V232.863C630.483 230.088 633.782 227.231 637.027 224.32H627.429C627.347 224.401 627.238 224.483 627.129 224.592Z" fill="#EDEDED"/>
</g>
<path d="M627.13 224.596C627.239 224.514 627.348 224.406 627.43 224.324H627.13V224.596Z" fill="#E8E8E8"/>
<path d="M626.086 233.845V233.709C626.031 233.763 625.977 233.79 625.922 233.845H626.086Z" fill="#E8E8E8"/>
<g opacity="0.5">
<path d="M625.922 233.845C625.977 233.79 626.031 233.763 626.086 233.709V225.519C623.032 228.294 619.978 231.097 616.897 233.845H625.922Z" fill="#EDEDED"/>
</g>
<g opacity="0.5">
<path d="M612.369 228.484V231.749C615.478 229.3 618.532 226.824 621.586 224.321H617.632C615.887 225.709 614.142 227.096 612.369 228.484Z" fill="#EDEDED"/>
</g>
<g opacity="0.5">
<path d="M638.413 223.068C639.231 222.334 640.022 221.599 640.84 220.892V213.055C636.695 216.212 632.741 219.613 628.842 223.068H638.413Z" fill="#EDEDED"/>
</g>
<g opacity="0.5">
<path d="M627.124 219.725C631.705 215.915 636.259 212.079 640.84 208.27V207.154H639.04C635.032 210.31 631.078 213.494 627.151 216.677V219.725H627.124Z" fill="#EDEDED"/>
</g>
<g opacity="0.5">
<path d="M627.116 208.784C627.934 208.24 628.78 207.696 629.625 207.152H627.116V208.784Z" fill="#EDEDED"/>
</g>
<g opacity="0.5">
<path d="M623.114 223.068C624.123 222.252 625.104 221.436 626.086 220.592V217.518C623.795 219.368 621.505 221.218 619.187 223.068H623.114Z" fill="#EDEDED"/>
</g>
<g opacity="0.5">
<path d="M612.37 219.098C616.924 215.86 621.45 212.622 626.086 209.493V207.153H621.123C618.26 209.085 615.342 210.962 612.397 212.812V219.098H612.37Z" fill="#EDEDED"/>
</g>
<path d="M593.526 449.762H524.898C524.896 447.233 526.405 444.589 528.568 443.286C530.731 441.982 533.579 441.91 535.806 443.1C537.161 437.681 541.523 433.31 546.967 432.118C552.412 430.927 558.446 433.066 561.932 437.425C563.753 435.97 566.689 435.821 568.84 436.719C570.989 437.617 572.575 439.747 572.825 442.067C576.001 439.787 580.462 439.692 584.196 440.846C587.929 442 592.182 446.086 593.526 449.762Z" fill="#E0E0E0"/>
<path d="M705.695 449.76H619.332C620.292 446.35 622.414 443.411 625.595 441.866C628.776 440.321 632.618 440.211 635.884 441.569C636.601 439.423 638.899 437.335 641.005 436.52C643.11 435.705 645.574 435.879 647.544 436.984C651.904 430.158 659.716 426.736 667.741 427.744C675.765 428.751 682.969 434.68 685.516 442.373C688.957 440.47 692.891 439.982 696.61 441.258C700.329 442.533 704.138 446.142 705.695 449.76Z" fill="#E0E0E0"/>
</svg>
