<svg width="275" height="244" viewBox="0 0 275 244" fill="none" xmlns="http://www.w3.org/2000/svg">
<path d="M233.964 175.641C233.588 173.008 233.374 171.299 233.322 170.504C232.489 158.112 231.57 146.353 230.575 135.232C230.561 135.094 230.722 135.004 230.832 135.089C234.236 137.751 237.168 139.964 239.634 141.731C240.172 142.111 240.777 142.307 241.458 142.321C244.909 142.388 246.514 139.507 248.404 136.956C249.808 135.061 250.422 132.671 248.813 130.767C248.451 130.333 247.904 129.838 247.166 129.272C239.844 123.659 234.345 119.489 230.67 116.766C230.542 116.67 230.561 116.466 230.708 116.399C235.331 114.228 239.492 111.519 243.2 108.268C248.423 103.683 247.442 98.0894 245.595 92.0814C243.219 84.3547 239.639 77.3042 234.855 70.9296C232.784 68.1684 230.237 66.107 227.219 64.7455C222.444 62.5936 217.445 61.275 212.218 60.794C212.037 60.775 211.894 60.6275 211.884 60.4465L211.48 53.7101C211.47 53.5053 211.58 53.3101 211.76 53.215C213.908 52.0867 213.941 50.5634 214.222 48.3115C214.255 48.0687 214.312 47.8307 214.403 47.6022C216.531 42.0798 214.336 35.0292 207.99 34.0294C205.181 33.5866 200.497 35.3052 198.392 32.744C198.383 32.7298 198.116 32.3585 197.588 31.6252C197.259 31.1635 196.636 31.0207 196.136 31.292C193.446 32.7583 192.165 34.9577 192.294 37.8904C192.389 40.0802 193.408 41.6798 195.26 42.7034C195.421 42.7939 195.512 42.9747 195.483 43.1557C194.903 47.2784 194.565 51.7535 195.612 55.7667C196.16 57.8566 197.431 59.2611 199.435 59.9799C200.016 60.1894 199.92 61.0415 199.306 61.1225C195.188 61.651 190.242 62.9221 186.757 64.5455C185.257 65.2453 183.829 66.5498 182.477 68.454C180.082 71.8246 177.988 75.4236 176.193 79.2561C176.131 79.3846 175.969 79.4179 175.86 79.3323L171.699 75.9379C171.604 75.8616 171.58 75.7284 171.642 75.6236C175.003 69.806 176.94 63.6409 177.459 57.1235C178.826 39.7993 168.628 22.8417 153.013 15.5055C139.469 9.14041 124.173 10.4115 111.576 18.6427C108.048 20.9516 104.801 23.9795 101.845 27.7262C92.4712 39.5995 89.8765 54.9574 95.3704 69.1492C100.317 81.9269 111.233 91.3913 124.415 94.9712C130.014 96.4946 135.289 96.8041 140.245 95.8948C140.492 95.8473 140.754 95.8948 140.973 96.0186C144.415 97.9942 147.019 97.1754 151.142 96.4803C151.332 96.4471 151.513 96.5898 151.523 96.7851C151.556 97.4754 151.885 98.0991 152.503 98.6607C156.612 102.384 160.72 105.411 164.824 107.739C168.661 109.92 173.098 111.795 177.388 110.191C178.554 109.753 179.93 108.563 180.906 107.673C181.001 107.582 181.158 107.654 181.158 107.782V126.363C181.158 126.739 181.429 127.058 181.801 127.12C182.443 127.22 182.929 127.406 183.248 127.677C182.462 156.446 183.367 185.206 184.89 213.941L185.133 219.135C175.159 223.877 164.814 227.081 154.098 228.742L154.036 197.717C154.036 197.474 153.831 197.288 153.593 197.307L153.565 197.312C153.317 197.331 153.127 197.54 153.127 197.788L153.112 228.913C151.008 229.27 148.904 229.27 146.795 228.918L146.857 193.779C146.862 193.584 147.019 193.427 147.214 193.432C150.094 193.46 152.26 193.446 153.722 193.389C155.069 193.332 155.883 192.632 156.155 191.29C156.612 189.014 155.322 188.086 153.674 186.729C148.371 182.373 143.063 178.036 137.75 173.723L137.64 161.916V158.917C137.635 158.388 137.207 157.96 136.679 157.96C133.298 157.97 130.676 157.955 128.804 157.917C127.686 157.893 126.972 158.146 126.991 159.355C127.024 161.416 127.005 163.054 126.929 164.259C126.919 164.449 126.691 164.544 126.543 164.42C116.131 155.799 110.78 151.352 110.48 151.076C108.214 149 106.167 148.182 103.768 150.195C88.1051 163.34 72.8564 175.898 58.0175 187.872C56.0133 189.49 56.4322 193.489 59.6218 193.532C61.569 193.556 63.4733 193.556 65.3347 193.527C65.5252 193.523 65.6775 193.675 65.6775 193.865L65.6822 202.777L65.6917 204.268C63.7589 203.244 61.7832 201.768 59.7599 199.835C56.9654 197.169 53.4662 193.989 50.8003 190.89C44.2972 183.325 38.8891 175.275 34.5806 166.734C32.9287 163.454 31.1529 159.693 29.2581 155.447C28.6345 154.052 28.0345 152.376 27.449 150.419C26.9492 148.743 26.3921 147.054 25.7874 145.344C27.4965 143.916 29.2866 142.459 31.148 140.979C33.4378 139.156 35.2232 137.708 36.5133 136.632C45.9918 128.711 55.4894 120.846 65.0155 113.034C71.3091 107.868 78.3645 101.855 85.039 96.1997C86.3863 95.0524 87.5241 94.3716 88.4524 94.1574C89.7902 93.8384 91.0471 94.1669 92.2134 95.1382C93.9797 96.6092 98.1833 100.07 104.829 105.526C107.986 108.121 110.095 109.887 111.152 110.829C112.232 111.796 113.36 112.705 114.532 113.567C116.369 115.076 118.197 116.623 120.016 118.218C120.387 118.542 120.94 118.551 121.316 118.232C121.525 118.056 121.625 117.742 121.616 117.299C121.554 114.543 121.535 111.482 121.554 108.106C121.558 107.764 121.839 107.483 122.182 107.488C128.776 107.516 132.699 107.516 133.96 107.488C135.807 107.45 135.512 108.73 135.517 110.296C135.522 114.191 135.522 118.075 135.517 121.951L135.479 130.368C135.474 130.715 135.631 131.048 135.903 131.267C146.162 139.622 156.245 147.882 166.143 156.047C167.557 157.213 168.028 158.684 167.561 160.46C167.176 161.931 166.205 162.693 164.648 162.736C161.649 162.822 158.035 162.845 153.808 162.812C153.436 162.807 153.132 163.112 153.132 163.483V180.817C153.132 181.012 153.293 181.174 153.489 181.174H153.689C153.893 181.174 154.055 181.012 154.055 180.808V164.026C154.055 163.84 154.203 163.693 154.388 163.693C158.449 163.66 161.53 163.664 163.62 163.707C165.138 163.74 166.181 163.569 166.752 163.193C168.761 161.893 169.232 159.18 168.247 157.137C167.98 156.585 167.166 155.742 165.805 154.605C156.24 146.621 146.591 138.723 136.855 130.906C136.588 130.692 136.436 130.368 136.436 130.03L136.388 115.043C136.407 112.939 136.393 110.839 136.346 108.74C136.312 107.302 135.579 106.593 134.137 106.617C131.837 106.655 127.967 106.645 122.521 106.588C121.24 106.574 120.607 107.14 120.616 108.297C120.64 111.249 120.664 114.186 120.692 117.109C120.692 117.324 120.44 117.438 120.278 117.295L114.918 112.63C104.22 103.703 96.8698 97.6524 92.866 94.4864C91.4474 93.3629 89.8336 92.9726 88.0245 93.3201C87.0389 93.5058 85.6203 94.4341 83.7684 96.1003C82.7449 97.0191 79.5219 99.7232 74.0994 104.213C58.1749 117.385 42.236 130.568 26.2925 143.76C24.6119 137.704 23.5694 133 23.1648 129.654C21.0987 112.615 22.4983 94.8007 28.1873 78.6332C29.6489 74.4772 31.2533 70.3735 32.9909 66.322C33.8907 64.2274 34.919 62.3373 36.0806 60.6472C36.4948 60.0427 36.3376 59.5379 35.6045 59.1334L42.4124 59.1906L63.926 59.0763C64.3307 59.0716 64.6448 58.7145 64.5925 58.3145C64.1022 54.7441 62.1359 52.9302 58.6939 52.873C58.4749 52.8682 58.2989 52.7015 58.2797 52.4874C57.7226 46.7651 51.448 44.1467 47.0158 47.8744L45.5352 50.031C45.4542 50.1453 45.3209 50.2167 45.1829 50.212L43.212 50.1882C43.5168 48.3411 44.2926 46.7177 45.5447 45.318C48.1631 42.3806 52.8381 36.8202 56.2421 33.4828C63.1832 26.6749 70.7622 20.8193 78.9839 15.9157C79.5885 15.554 81.569 14.4922 84.9253 12.7261C87.2627 11.4978 89.2813 10.5077 90.9904 9.76014C108.272 2.19067 127.372 -1.22753 146.038 0.395833C149.542 0.695826 153.841 1.1481 157.54 1.87642C176.002 5.49937 192.703 13.1783 207.561 24.642C210.984 27.2842 213.617 29.4694 215.454 31.207C217.782 33.4064 220.777 36.5866 224.438 40.7523C225.966 42.4994 228.689 46.0938 232.607 51.5352C233.659 52.992 234.678 54.6106 235.668 56.391C239.596 63.4654 243.238 70.6446 245.252 77.2858C246.842 82.5321 248.451 86.9501 249.265 91.7536C250.622 99.7183 251.731 106.545 251.674 114.01C251.621 120.799 251.255 126.811 250.574 132.053C250.226 134.733 250.079 136.19 250.122 136.414C250.15 136.547 250.141 136.685 250.098 136.814C249.693 138.028 249.293 138.994 249.07 140.008C246.494 151.696 241.924 162.75 235.368 173.171C234.864 173.975 234.398 174.799 233.964 175.641ZM149.167 152.466L149.195 152.414C149.338 152.152 149.272 151.823 149.043 151.633C135.604 140.522 121.917 129.243 107.982 117.799C101.022 112.081 96.6992 108.549 95.0188 107.206C93.1907 105.744 91.9291 104.926 91.2341 104.749C88.1159 103.959 86.0783 105.059 83.6312 107.296C82.9409 107.93 81.9506 108.734 80.6605 109.72C80.0892 110.153 78.6086 111.367 76.2187 113.352C59.6229 127.139 44.9886 139.041 29.8589 151.628C29.6875 151.771 29.7067 152.042 29.9017 152.152L29.9827 152.199C30.2302 152.342 30.5397 152.318 30.7587 152.137C45.8406 139.717 62.7697 125.749 81.5458 110.229C84.883 107.473 86.9587 104.621 90.6626 105.521C91.6481 105.763 92.9097 106.549 94.4426 107.877C95.7184 108.991 97.3037 110.324 99.2033 111.872C112.971 123.107 126.096 133.895 138.579 144.23C142.354 147.358 145.677 150.143 148.539 152.585C148.738 152.757 149.043 152.699 149.167 152.466Z" fill="#F3F3F3"/>
<path d="M60.1101 9.41135C58.8865 9.33036 58.8057 7.2072 56.9536 7.65947C56.6156 7.74046 55.6588 8.08798 54.0735 8.69729C53.8735 8.77352 53.6592 8.62581 53.6641 8.41174L53.6879 8.25471C53.7307 7.99767 53.9164 7.78817 54.164 7.71194L56.8109 6.89313C56.9204 6.85986 56.9919 6.75035 56.9822 6.6361L56.6489 3.21314C56.6346 3.04185 56.7584 2.88463 56.9297 2.87037L57.1059 2.85136C57.2917 2.83235 57.4582 2.97037 57.4725 3.15611C57.5535 4.11294 57.6582 4.98421 57.7915 5.76975C58.101 7.62638 59.7529 7.18361 61.619 7.2741C61.7952 7.28361 61.8665 7.51212 61.719 7.61212C61.1049 8.03588 60.3289 8.19291 59.3911 8.08341C59.1721 8.05964 59.0578 8.34044 59.234 8.47371L60.1956 9.18777C60.2958 9.26382 60.2338 9.42086 60.1101 9.41135Z" fill="black"/>
<path d="M223.937 10.5723C223.946 8.68243 225.056 7.09234 227.036 6.69711C228.969 6.31631 230.573 6.94939 231.844 8.59669C231.949 8.73472 232.102 8.82996 232.273 8.86799C232.354 8.88225 232.744 8.92521 233.449 8.9965C234.334 9.087 235.006 9.75352 235.463 10.9961C235.558 11.2436 235.801 11.4007 236.062 11.3816C237.638 11.2769 238.638 12.0862 239.071 13.8048C239.185 14.2666 238.838 14.7141 238.362 14.7141H220.533C220.124 14.7141 219.829 14.319 219.943 13.9286C220.248 12.9193 220.547 12.2195 220.843 11.8244C221.257 11.2721 221.88 10.9199 222.571 10.8533C223.48 10.7628 223.932 10.6723 223.937 10.5723ZM238.091 13.5955C237.757 12.4719 236.896 12.0292 235.506 12.2672C235.225 12.3147 234.963 12.1244 234.92 11.8434C234.701 10.4438 233.963 9.61532 232.568 9.76303C231.983 9.825 231.635 9.85352 231.53 9.84877C231.359 9.83926 231.216 9.725 231.159 9.56797C230.721 8.27787 229.874 7.59708 228.612 7.52085C226.056 7.36382 224.751 8.61114 224.699 11.2676C224.694 11.5151 224.294 11.6151 223.494 11.5676C222.69 11.5198 221.919 11.8771 221.433 12.5244L221.043 13.0481C220.8 13.3719 221.033 13.8289 221.433 13.8289H237.915C238.038 13.8287 238.124 13.7145 238.091 13.5955Z" fill="black"/>
<path d="M238.088 13.5968C238.122 13.7158 238.036 13.83 237.912 13.83H221.431C221.031 13.83 220.797 13.373 221.04 13.0492L221.431 12.5255C221.916 11.878 222.687 11.5209 223.492 11.5687C224.292 11.6162 224.692 11.5162 224.696 11.2687C224.749 8.61224 226.053 7.36492 228.61 7.52196C229.871 7.59819 230.719 8.27898 231.157 9.56907C231.214 9.72611 231.357 9.84036 231.528 9.84987C231.633 9.85462 231.98 9.8261 232.566 9.76413C233.961 9.6166 234.699 10.4449 234.918 11.8445C234.96 12.1253 235.222 12.3158 235.503 12.2683C236.893 12.0304 237.755 12.4732 238.088 13.5968Z" fill="white"/>
<path d="M233.962 175.641C237.356 192.846 239.87 210.18 241.512 227.642C241.531 227.818 241.422 227.98 241.255 228.032L240.627 228.223C240.47 228.27 240.37 228.432 240.398 228.594C240.689 230.351 240.936 231.403 241.136 231.755C242.588 234.316 243.936 236.897 245.183 239.496C245.711 240.596 245.901 241.672 245.754 242.724C245.735 242.848 245.835 242.962 245.963 242.962H257.584C257.846 243.338 257.86 243.662 257.632 243.923L172.534 243.909L177.49 243.8C177.581 243.8 177.666 243.757 177.719 243.681L177.928 243.405C178.014 243.29 177.919 243.133 177.781 243.157C177.328 243.229 176.929 243.157 176.571 242.952L196.471 242.729C196.614 242.729 196.742 242.629 196.771 242.486C197.28 240.163 197.166 237.658 196.428 234.969C196.333 234.626 195.966 234.44 195.633 234.569C192.763 235.673 190.063 235.906 187.602 233.659C187.369 233.445 187.016 233.421 186.759 233.607L182.879 236.354C182.441 236.13 182.008 236.006 181.585 235.983C183.389 234.674 185.179 233.436 186.964 232.279C187.645 231.836 187.245 230.779 186.412 230.817C186.25 230.822 186.064 230.736 185.85 230.56C185.731 230.46 185.66 230.318 185.65 230.16L185.131 219.134L184.888 213.94C185.093 213.474 185.345 213.269 185.636 213.326L186.469 229.227C186.488 229.617 186.812 229.927 187.207 229.927H197.766C197.994 229.927 198.18 229.732 198.17 229.503C198.109 228.161 198.237 226.656 198.556 224.995C198.98 222.791 199.203 221.201 199.237 220.229C199.256 219.653 199.694 215.754 200.556 208.532C201.046 204.395 201.298 199.511 201.898 195.421C202.127 193.869 201.908 191.96 202.108 190.108C202.388 187.518 202.836 183.691 203.46 178.621C203.688 176.764 203.855 174.912 203.955 173.065C204.007 172.113 204.221 170.261 204.593 167.514C205.102 163.696 205.259 160.701 205.859 158.226C206.04 157.474 205.997 156.612 205.726 155.645C204.617 151.68 203.403 147.538 202.089 143.229C202.046 143.091 202.117 142.939 202.255 142.882L202.274 142.872C202.407 142.815 202.555 142.887 202.598 143.025C205.012 150.961 206.492 155.764 207.044 157.426C207.378 158.43 207.568 159.016 207.611 159.182C207.792 159.863 208.363 161.806 209.325 165C209.73 166.343 210.244 168.18 210.867 170.508C211.71 173.636 212.262 175.459 212.524 175.983C213.371 177.664 213.981 179.382 214.357 181.148C214.819 183.324 215.171 184.79 215.423 185.552C216.037 187.418 216.713 189.218 217.442 190.955C217.97 192.207 218.48 193.802 218.97 195.735C219.674 198.492 220.317 200.577 220.893 202C222.383 205.652 223.283 208.332 223.593 210.041C223.783 211.107 224.316 212.093 224.64 213.207C224.783 213.707 225.064 214.492 225.487 215.564C227.149 219.796 228.672 223.985 230.053 228.127C230.129 228.365 230.362 228.517 230.615 228.494L239.898 227.589C240.017 227.58 240.131 227.542 240.236 227.48C240.593 227.284 240.707 226.818 240.569 226.089C240.417 225.28 240.017 222.562 239.374 217.939C239.289 217.32 239.036 214.983 238.617 210.922C238.198 206.847 237.684 203.286 237.07 200.244C236.256 196.216 235.951 190.961 234.994 186.881C234.328 184.019 234.266 181.544 233.647 178.792C232.919 175.56 232.381 171.98 232.371 168.199C232.362 164.686 231.809 160.073 231.567 156.036C231.376 152.87 231.095 150.142 230.724 147.852C230.458 146.219 230.567 144.077 230.396 142.715C230.067 140.126 229.815 137.498 229.639 134.827C229.601 134.284 229.329 133.78 228.896 133.451L224.368 130.057C224.011 129.79 223.559 129.681 223.116 129.752C217.76 130.623 212.457 131.08 207.201 131.114C204.859 131.128 202.212 130.966 199.265 130.618C195.314 130.157 192.686 129.809 191.382 129.576C190.015 129.328 187.744 128.729 184.574 127.781C183.722 128.005 183.279 127.967 183.245 127.676C182.926 127.405 182.441 127.219 181.798 127.119C181.427 127.057 181.155 126.738 181.155 126.362V107.782C181.155 107.653 180.998 107.582 180.903 107.672C179.927 108.562 178.551 109.753 177.385 110.191C173.096 111.795 168.659 109.919 164.821 107.739C160.718 105.411 156.609 102.383 152.501 98.6604C151.882 98.0986 151.553 97.475 151.52 96.7847C151.511 96.5895 151.33 96.4467 151.139 96.48C147.016 97.175 144.412 97.9938 140.97 96.0182C140.751 95.8944 140.49 95.8467 140.242 95.8944C135.286 96.8037 130.011 96.4942 124.413 94.9709C111.23 91.3909 100.314 81.9266 95.3678 69.1488C89.8739 54.9572 92.4686 39.5991 101.842 27.7259C104.799 23.9792 108.046 20.9514 111.573 18.6424C124.17 10.4111 139.466 9.14002 153.01 15.5051C168.626 22.8413 178.823 39.7991 177.457 57.1231C176.938 63.6405 175 69.8057 171.639 75.6232C171.577 75.728 171.601 75.8613 171.696 75.9375L175.857 79.3319C175.967 79.4177 176.128 79.3842 176.19 79.2557C177.985 75.4233 180.08 71.8243 182.474 68.4536C183.826 66.5492 185.255 65.2449 186.754 64.5451C190.239 62.9217 195.186 61.6506 199.304 61.1221C199.918 61.0412 200.013 60.1891 199.432 59.9796C197.428 59.2608 196.157 57.8562 195.609 55.7663C194.562 51.7531 194.9 47.278 195.481 43.1553C195.509 42.9743 195.419 42.7935 195.257 42.703C193.405 41.6795 192.386 40.0799 192.291 37.89C192.163 34.9573 193.443 32.7579 196.133 31.2916C196.633 31.0203 197.257 31.1631 197.585 31.6249C198.114 32.3579 198.38 32.7294 198.39 32.7437C200.494 35.3048 205.178 33.5862 207.987 34.029C214.333 35.0288 216.528 42.0793 214.4 47.6018C214.31 47.8303 214.252 48.0683 214.219 48.3111C213.938 50.563 213.905 52.0863 211.758 53.2146C211.577 53.3099 211.467 53.5051 211.477 53.7097L211.882 60.4461C211.891 60.6271 212.034 60.7746 212.215 60.7936C217.442 61.2744 222.441 62.5932 227.216 64.7451C230.234 66.1067 232.781 68.168 234.852 70.9292C239.637 77.3038 243.217 84.3545 245.592 92.081C247.439 98.0891 248.42 103.683 243.198 108.267C239.489 111.519 235.328 114.228 230.706 116.399C230.558 116.465 230.539 116.67 230.668 116.765C234.343 119.488 239.841 123.659 247.163 129.271C247.901 129.838 248.449 130.333 248.811 130.766C250.42 132.671 249.806 135.061 248.401 136.955C246.511 139.507 244.907 142.387 241.455 142.321C240.774 142.306 240.17 142.111 239.632 141.73C237.166 139.964 234.233 137.75 230.829 135.089C230.72 135.003 230.558 135.094 230.572 135.232C231.567 146.353 232.486 158.112 233.319 170.504C233.372 171.299 233.586 173.008 233.962 175.641ZM139.724 94.6279C139.728 94.5422 139.686 94.3327 139.605 94.0043C139.514 93.6521 139.671 93.2855 139.986 93.1283C140.452 92.895 141.042 92.6141 141.761 92.2952C143.975 91.305 144.623 92.576 146.313 93.5473C146.455 93.6283 146.627 93.6426 146.779 93.5853C148.003 93.1521 149.479 92.5998 151.202 91.9285C156.81 89.7481 161.694 86.3442 165.855 81.7169C168.735 78.5129 171.011 75.1615 172.687 71.6575C177.376 61.8457 177.786 49.9963 174.058 39.9417C171.63 33.3862 167.05 26.4498 161.19 21.9033C158.771 20.0275 156.924 18.7089 155.648 17.9424C152.359 15.9715 148.741 14.5384 144.803 13.6434C133.658 11.1107 123.261 12.7198 113.611 18.4707C112.074 19.3848 110.622 20.6653 109.265 21.6651C108.217 22.4317 107.194 23.317 106.189 24.3121C99.2911 31.1722 95.2063 39.1179 93.9448 48.1537C92.4927 58.5511 94.6683 68.0724 100.472 76.7227C105.337 83.9684 111.821 89.2147 119.924 92.4616C125.937 94.8658 132.416 95.718 139.367 95.018C139.567 94.9945 139.719 94.8279 139.724 94.6279ZM195.524 32.8625C194.653 33.6053 194.062 34.6383 193.753 35.9664C193.058 38.9799 194.134 41.0652 196.985 42.2268C198.661 42.9123 200.722 43.1123 203.174 42.8266C204.307 42.6981 206.378 41.703 207.763 41.884C208.292 41.9508 208.706 42.3743 208.758 42.9076L209.144 46.8781C209.173 47.1685 209.539 47.278 209.72 47.0495C210.748 45.7642 211.81 46.3783 213.033 46.9448C213.329 47.0828 213.676 46.9305 213.776 46.6163C214.662 43.7456 214.405 41.0415 213.01 38.504C211.643 36.0189 209.877 35.7571 207.378 35.2811C207.144 35.2335 206.902 35.2143 206.664 35.2288C204.945 35.3098 203.683 35.3621 202.879 35.3858C200.517 35.4526 198.594 34.648 197.109 32.9722C196.7 32.5102 195.995 32.4627 195.524 32.8625ZM196.424 43.6074C196.029 46.5971 195.905 49.387 196.057 51.9814C196.224 54.8378 196.805 58.475 200.009 58.8748C202.546 59.1939 204.669 58.0608 206.916 56.6754C207.073 56.5802 207.283 56.6707 207.359 56.8659C207.388 56.9374 207.373 57.0182 207.316 57.1087C205.817 59.5843 203.665 61.0172 200.861 61.4124C200.684 61.4362 200.542 61.579 200.518 61.7552C200.232 63.7786 200.513 66.4017 202.951 66.992C204.469 67.3586 205.916 67.2395 207.292 66.635C209.22 65.7877 210.953 64.2499 210.939 61.9695C210.925 59.7081 210.787 57.1849 210.525 54.4C210.492 54.062 210.396 53.6382 210.23 53.1194C210.153 52.8861 210.282 52.6386 210.515 52.5671C212.52 51.9673 213.362 50.6723 213.043 48.6776C213.024 48.5539 212.981 48.4349 212.919 48.3301C212.472 47.5541 211.848 47.2971 211.053 47.5493C210.953 47.5826 210.863 47.6398 210.792 47.7208L209.882 48.7729C209.782 48.8871 209.635 48.9539 209.482 48.9491C207.535 48.9111 207.754 45.0739 207.697 43.4553C207.683 43.022 207.264 42.7222 206.85 42.8412C203.298 43.8695 200.375 44.6408 196.724 43.4173C196.586 43.3741 196.443 43.4646 196.424 43.6074ZM199.166 62.1217C194.943 62.7073 190.925 63.8689 187.102 65.597C185.86 66.1635 184.845 66.9443 184.07 67.9393C181.456 71.2956 179.099 75.2518 177.009 79.8125C176.919 80.0078 176.976 80.2411 177.143 80.3791L180.409 83.0403C180.509 83.126 180.661 83.107 180.742 83.0022L182.899 80.1791C183.07 79.9506 183.432 80.0648 183.446 80.3506C183.47 80.8028 183.537 81.1123 183.646 81.2884C183.675 81.3359 183.713 81.3741 183.756 81.4074L219.427 108.701C219.513 108.767 219.637 108.758 219.713 108.682L227.883 100.517C227.987 100.412 228.044 100.274 228.044 100.127V96.4036C228.044 96.2465 228.002 96.0941 227.925 95.956L221.132 83.7591C221.056 83.621 221.108 83.4448 221.246 83.364L221.413 83.264C221.646 83.1308 221.937 83.2165 222.06 83.4545C224.16 87.4963 226.445 91.5667 228.906 95.6657C229.192 96.1418 229.635 96.7798 230.239 97.5843C230.349 97.7319 230.563 97.7558 230.701 97.6366C230.839 97.5176 231.025 97.3129 231.249 97.013C231.606 96.5465 232.358 96.7226 232.272 97.2511C232.186 97.8223 231.777 98.0746 231.377 98.4412C227.849 101.664 224.246 105.244 220.57 109.181C220.146 109.634 219.799 110.114 219.518 110.629C219.437 110.781 219.428 110.957 219.494 111.114C220.642 113.742 222.132 115.851 223.96 117.441C224.374 117.803 224.95 117.903 225.46 117.703C230.263 115.827 234.886 113.323 239.327 110.195C241.217 108.867 242.755 107.472 243.945 106.015C245.826 103.711 246.506 101.554 246.088 98.7313C244.793 90.0478 240.927 81.3595 236.08 74.2088C233.848 70.9097 231.291 67.8295 228.244 66.3061C223.474 63.9162 218.233 62.4166 212.515 61.8026C212.32 61.7835 212.153 61.9263 212.139 62.1168C211.796 66.7491 205.916 69.3102 202.089 67.7726C200.123 66.9823 199.256 65.2018 199.494 62.4311C199.509 62.2455 199.352 62.098 199.166 62.1217ZM167.55 81.2646C167.483 81.3503 167.498 81.4789 167.583 81.5454L176.195 88.5721C176.286 88.6436 176.419 88.6293 176.49 88.5341L179.818 84.0923C179.885 84.0066 179.871 83.8781 179.785 83.8115L171.173 76.7848C171.082 76.7133 170.949 76.7276 170.878 76.8229L167.55 81.2646ZM211.006 115.113C210.273 114.823 209.478 114.518 208.621 114.194C207.797 113.88 207.297 113.357 207.112 112.619C206.888 111.738 207.673 111.252 208.464 111.266C213.648 111.366 216.538 111.395 217.128 111.362C218.18 111.3 218.828 110.795 219.061 109.848C219.094 109.724 219.047 109.591 218.942 109.51L182.984 82.0549C182.803 81.9121 182.537 81.9501 182.399 82.1359L175.296 91.6002C175.101 91.862 175.153 92.2335 175.415 92.4285L208.964 117.594C209.468 117.974 210.187 117.874 210.568 117.365L211.349 116.322C211.663 115.908 211.491 115.304 211.006 115.113ZM158.052 89.7767L170.002 92.576C170.116 92.6046 170.235 92.5475 170.283 92.438L172.601 87.2537C172.663 87.1157 172.625 86.9537 172.506 86.8586L166.912 82.2931C166.798 82.2026 166.631 82.2169 166.541 82.3264C164.113 85.1685 161.266 87.5489 158.005 89.4723C157.876 89.5481 157.905 89.7434 158.052 89.7767ZM171.192 92.7521C171.101 92.9521 171.187 93.1901 171.387 93.2901C172.392 93.7899 173.168 94.3756 173.72 95.0372C173.81 95.1467 173.815 95.3038 173.729 95.418L173.615 95.5703C173.449 95.7893 173.125 95.8131 172.925 95.6226C171.806 94.542 170.787 93.8802 169.878 93.6374C167.055 92.8852 162.789 91.8664 157.086 90.581C156.886 90.5382 156.681 90.6573 156.624 90.8523C155.896 93.285 154.648 95.4083 152.877 97.2317C152.744 97.3697 152.749 97.5887 152.892 97.7172C157.947 102.259 163.694 106.767 169.973 109.048C174.496 110.69 177.724 109.652 181.008 106.177C181.218 105.953 181.332 105.658 181.332 105.353V98.2838C181.332 98.1267 181.256 97.9743 181.128 97.8743L174.068 92.5804C173.891 92.4472 173.844 92.2044 173.953 92.0139L175.386 89.5335C175.534 89.2717 175.467 88.9385 175.225 88.7575L174.187 87.9767C173.858 87.7292 173.382 87.8529 173.215 88.229L171.192 92.7521ZM155.144 91.3525L148.355 94.2469C148.269 94.2802 148.217 94.3659 148.217 94.4564C148.222 94.9087 147.874 95.1657 147.179 95.223C144.78 95.4277 143.775 95.4705 141.838 93.6901C141.671 93.5378 141.433 93.4949 141.224 93.5853L140.99 93.6853C140.709 93.8043 140.614 94.1566 140.8 94.3994C142.109 96.1465 145.18 96.5513 147.246 96.1513C149.44 95.7275 150.726 95.499 151.111 95.4752C151.164 95.4705 151.221 95.4752 151.273 95.4895L152.435 95.7942C152.697 95.861 152.973 95.761 153.13 95.542C154.268 93.9471 154.991 92.5998 155.301 91.4907C155.329 91.4002 155.234 91.3145 155.144 91.3525ZM142.621 92.7974C142.509 92.9713 143.071 93.5283 143.878 94.0409C144.685 94.5517 145.427 94.8232 145.539 94.6493C145.651 94.4754 145.089 93.9184 144.281 93.4058C143.475 92.8951 142.732 92.6236 142.621 92.7974ZM228.844 98.4841C228.849 98.8459 228.858 99.0459 228.887 99.0839C228.973 99.2124 229.158 99.2362 229.272 99.1267C229.496 98.922 229.606 98.7077 229.601 98.4792C229.601 98.2507 229.491 98.0364 229.268 97.8364C229.149 97.7269 228.968 97.7507 228.877 97.8839C228.854 97.9223 228.844 98.1174 228.844 98.4841ZM182.304 99.1172C182.161 102.312 182.304 105.244 182.204 108.772C182.037 114.404 182.051 120.093 182.237 125.839C182.246 126.096 182.418 126.325 182.67 126.401C195.238 130.167 208.068 131.043 221.156 129.029C221.684 128.948 221.998 128.886 222.103 128.843C222.217 128.795 222.241 128.643 222.141 128.567L217.828 125.33C217.609 125.168 217.309 125.168 217.09 125.334C214.971 126.939 211.967 124.849 210.073 123.483C209.544 123.102 209.23 122.764 209.13 122.464C208.792 121.454 207.911 121.526 207.34 120.736C206.612 119.736 206.807 118.927 207.878 118.336C208.03 118.251 208.045 118.032 207.902 117.927L182.627 98.9649C182.494 98.8697 182.308 98.9554 182.304 99.1172ZM212.277 123.706C213.053 124.13 213.843 124.044 214.638 123.444C214.895 123.249 215.262 123.449 215.238 123.773C215.219 124.006 215.076 124.301 214.805 124.654C214.705 124.787 214.795 124.973 214.962 124.973C217.171 124.954 219.38 122.873 220.479 121.078C221.489 119.441 222.203 118.394 222.627 117.932C222.731 117.817 222.727 117.636 222.617 117.527C221.265 116.208 220.327 114.927 219.799 113.694C219.342 112.614 219.085 112.033 219.028 111.942C218.956 111.828 218.818 111.776 218.694 111.819C217.623 112.166 216.352 112.319 214.881 112.285C213.629 112.252 211.515 112.209 208.545 112.157C207.959 112.147 207.783 112.952 208.326 113.18C209.216 113.556 210.235 113.918 211.377 114.275C212.61 114.656 212.905 115.456 212.253 116.67C211.496 118.089 210.173 118.946 208.288 119.236C208.011 119.283 207.84 119.56 207.921 119.831L207.997 120.083C208.145 120.569 208.664 120.84 209.149 120.693L211.672 119.912C212.106 119.778 212.439 120.302 212.129 120.635C211.734 121.059 211.101 121.383 210.22 121.611C210.054 121.654 209.959 121.83 210.006 121.992L210.049 122.13C210.125 122.378 210.363 122.535 210.62 122.511C211.106 122.468 211.739 122.263 212.525 121.897C212.891 121.725 213.315 121.906 213.362 122.259C213.429 122.744 213.077 123.111 212.31 123.358C212.153 123.411 212.129 123.625 212.277 123.706ZM218.618 124.435C218.494 124.53 218.485 124.711 218.599 124.815C220.17 126.229 222.232 127.191 223.96 128.595C226.178 130.4 227.464 131.447 227.821 131.747C229.054 132.775 231.615 134.566 235.514 137.117C235.623 137.189 235.728 137.269 235.823 137.36C236.352 137.865 236.79 138.236 237.128 138.469C237.547 138.76 237.851 139.036 238.042 139.307C238.318 139.702 238.604 139.969 238.899 140.112C239.008 140.164 239.446 140.473 240.203 141.03C243.398 143.392 247.349 137.36 248.339 135.413C249.029 134.061 248.996 132.813 248.249 131.671C247.839 131.047 246.892 130.248 245.411 129.281C245.269 129.186 245.131 129.081 245.002 128.967C242.341 126.591 239.736 124.544 237.19 122.825C236.476 122.345 236.004 121.65 235.242 121.331C235.228 121.321 235.209 121.312 235.195 121.302L229.825 117.284C229.582 117.103 229.254 117.079 228.982 117.217C227.364 118.055 225.54 119.088 223.803 118.55C223.455 118.446 223.079 118.588 222.884 118.898L220.361 123.002C220.246 123.187 220.094 123.349 219.918 123.482L218.618 124.435ZM201.308 209.318L198.918 230.341C198.89 230.57 198.695 230.741 198.466 230.741H197.185C196.985 230.741 196.824 230.898 196.814 231.098L196.724 233.241C196.719 233.288 196.728 233.336 196.747 233.379C197.942 236.43 198.299 239.558 197.823 242.762C197.809 242.857 197.88 242.938 197.976 242.938H231.343C231.51 242.938 231.639 242.795 231.619 242.629C231.558 242.129 231.277 241.7 231.291 241.081C231.362 237.297 231.8 233.474 231.162 229.818C231.124 229.608 230.929 229.47 230.724 229.503C230.32 229.565 229.986 229.56 229.715 229.499C229.558 229.46 229.396 229.208 229.22 228.742C225.292 218.225 221.765 207.528 218.085 196.793C216.966 193.37 215.842 189.904 214.704 186.39C211.729 177.188 209.23 168.071 206.583 158.907C206.568 158.85 206.483 158.859 206.478 158.916L201.308 209.318ZM239.36 228.594L232.224 229.289C232.139 229.299 232.072 229.375 232.081 229.46L232.32 231.879C232.339 232.093 232.596 232.188 232.753 232.041C234.757 230.136 237.095 229.798 239.756 231.031C239.832 231.065 239.917 231.008 239.908 230.927L239.708 228.884C239.694 228.708 239.537 228.58 239.36 228.594ZM195.348 230.794H188.559C188.335 230.794 188.14 230.951 188.088 231.17C187.916 231.907 188.045 232.498 188.478 232.95C190.649 235.207 193.044 234.631 195.538 233.498C195.681 233.431 195.776 233.288 195.776 233.126V231.222C195.776 230.984 195.586 230.794 195.348 230.794ZM233.138 242.929H244.264C244.645 242.929 244.959 242.614 244.954 242.233C244.95 241.372 244.735 240.577 244.321 239.848C243.06 237.615 242.308 236.245 242.065 235.745C241.132 233.826 240.241 232.617 239.389 232.117C237.723 231.141 236.009 231.165 234.243 232.179C233.424 232.65 232.843 233.231 232.505 233.931C232.467 234.007 232.448 234.093 232.448 234.178V242.243C232.448 242.624 232.757 242.929 233.138 242.929Z" fill="black"/>
<path d="M139.369 95.0186C132.419 95.7184 125.939 94.8663 119.927 92.4622C111.824 89.2154 105.34 83.9691 100.475 76.7232C94.6712 68.073 92.4956 58.5516 93.9476 48.1543C95.2092 39.1185 99.2939 31.1728 106.192 24.3126C107.197 23.3176 108.22 22.4322 109.268 21.6657C110.624 20.6659 112.076 19.3853 113.614 18.4713C123.264 12.7204 133.661 11.1113 144.806 13.644C148.743 14.539 152.361 15.9719 155.651 17.9429C156.927 18.7095 158.774 20.0281 161.193 21.9039C167.053 26.4504 171.633 33.3868 174.061 39.9422C177.789 49.9968 177.379 61.8463 172.69 71.6581C171.014 75.162 168.738 78.5135 165.858 81.7174C161.697 86.3449 156.813 89.7487 151.205 91.9291C149.481 92.6004 148.006 93.1526 146.782 93.5859C146.63 93.6431 146.458 93.6287 146.315 93.5479C144.625 92.5766 143.978 91.3055 141.764 92.2958C141.045 92.6148 140.455 92.8956 139.988 93.1289C139.674 93.2859 139.517 93.6526 139.608 94.0049C139.689 94.3334 139.731 94.5429 139.727 94.6285C139.722 94.8283 139.569 94.9948 139.369 95.0186ZM170.509 53.9433C170.509 34.3674 154.637 18.4952 135.061 18.4952C115.485 18.4952 99.6128 34.3674 99.6128 53.9433C99.6128 73.5193 115.485 89.3915 135.061 89.3915C154.637 89.3915 170.509 73.5193 170.509 53.9433Z" fill="#698B75"/>
<path d="M170.506 53.9433C170.506 73.5192 154.633 89.3914 135.058 89.3914C115.482 89.3914 99.6094 73.5192 99.6094 53.9433C99.6094 34.3673 115.482 18.4951 135.058 18.4951C154.633 18.4949 170.506 34.3671 170.506 53.9433ZM102.517 42.3825C96.1389 60.2939 105.517 79.9936 123.462 86.3827C141.408 92.7714 161.127 83.4358 167.503 65.5229C173.881 47.6114 164.503 27.9117 146.558 21.5227C128.612 15.134 108.893 24.4697 102.517 42.3825Z" fill="black"/>
<path d="M102.52 42.3818C108.896 24.4689 128.615 15.1333 146.561 21.522C164.506 27.9109 173.884 47.6108 167.506 65.5222C161.13 83.4351 141.411 92.7707 123.465 86.382C105.52 79.9932 96.1417 60.2933 102.52 42.3818ZM156.517 36.5708C160.511 41.4076 162.72 47.0062 162.825 53.2666C162.83 53.4713 162.996 53.6331 163.196 53.6331H163.325C163.591 53.6331 163.81 53.4189 163.815 53.1523C163.929 47.0729 161.03 40.4746 157.283 35.9376C153.541 31.4053 147.614 27.3063 141.625 26.2638C141.359 26.221 141.107 26.3923 141.054 26.6541L141.03 26.7826C140.992 26.9778 141.121 27.1681 141.321 27.2111C147.448 28.5061 152.528 31.7338 156.517 36.5708Z" fill="#F3F3F3"/>
<path d="M157.283 35.938C161.03 40.475 163.929 47.0732 163.815 53.1528C163.81 53.4193 163.591 53.6336 163.324 53.6336H163.196C162.996 53.6336 162.829 53.4718 162.824 53.267C162.72 47.0067 160.511 41.4081 156.517 36.5713C152.527 31.7345 147.448 28.5068 141.32 27.2117C141.12 27.1689 140.992 26.9785 141.03 26.7832L141.054 26.6547C141.106 26.3929 141.359 26.2214 141.625 26.2644C147.614 27.307 153.541 31.4058 157.283 35.938Z" fill="black"/>
<path d="M195.522 32.8629C195.993 32.4629 196.698 32.5106 197.108 32.9724C198.593 34.6482 200.516 35.4528 202.878 35.3861C203.682 35.3623 204.944 35.3098 206.662 35.229C206.9 35.2148 207.143 35.2338 207.376 35.2813C209.876 35.7573 211.642 36.0191 213.008 38.5043C214.403 41.0417 214.66 43.7458 213.775 46.6165C213.675 46.9307 213.327 47.083 213.032 46.945C211.809 46.3785 210.747 45.7644 209.719 47.0498C209.538 47.2783 209.171 47.1688 209.143 46.8783L208.757 42.9078C208.705 42.3746 208.291 41.951 207.762 41.8843C206.377 41.7033 204.306 42.6983 203.173 42.8268C200.721 43.1125 198.66 42.9126 196.984 42.227C194.132 41.0654 193.056 38.9803 193.751 35.9667C194.061 34.6387 194.651 33.6057 195.522 32.8629Z" fill="black"/>
<path d="M256.291 41.5556C256.514 41.6079 256.743 41.4841 256.819 41.2651L257.757 38.5705C257.828 38.38 258.024 38.2657 258.223 38.2944L258.238 38.2992C258.447 38.3467 258.581 38.5515 258.543 38.7657C258.381 39.6798 258.057 40.551 257.567 41.3794C257.452 41.5746 257.576 41.8174 257.795 41.8459C258.704 41.9554 259.533 42.1649 260.28 42.4744C260.485 42.5601 260.59 42.7839 260.523 42.9982C260.456 43.2077 260.237 43.3314 260.023 43.279L257.472 42.6791C257.276 42.6364 257.072 42.7364 256.991 42.9172L255.924 45.3023C255.824 45.5213 255.586 45.6403 255.348 45.588L255.153 45.5405C254.934 45.4882 254.82 45.2549 254.91 45.0502L255.915 42.7983C256.005 42.5983 255.891 42.3651 255.677 42.3175L253.192 41.7368C252.997 41.689 252.873 41.4892 252.92 41.294L252.958 41.1225C253.001 40.9415 253.182 40.8273 253.368 40.8702L256.291 41.5556Z" fill="black"/>
<path d="M196.426 43.6072C196.445 43.4644 196.588 43.3739 196.726 43.4167C200.377 44.6403 203.3 43.869 206.852 42.8407C207.266 42.7217 207.685 43.0217 207.699 43.4548C207.756 45.0734 207.537 48.9106 209.484 48.9486C209.637 48.9533 209.784 48.8868 209.884 48.7723L210.794 47.7203C210.865 47.6393 210.955 47.5823 211.055 47.5488C211.85 47.2965 212.474 47.5535 212.921 48.3296C212.983 48.4343 213.026 48.5533 213.045 48.6771C213.364 50.6718 212.522 51.9668 210.517 52.5666C210.284 52.6381 210.156 52.8856 210.232 53.1189C210.398 53.6379 210.493 54.0614 210.527 54.3995C210.789 57.1844 210.927 59.7076 210.941 61.9689C210.955 64.2493 209.222 65.7869 207.294 66.6344C205.919 67.239 204.471 67.358 202.953 66.9915C200.515 66.4012 200.234 63.778 200.52 61.7547C200.544 61.5784 200.687 61.4357 200.863 61.4119C203.667 61.0168 205.819 59.5838 207.318 57.1082C207.376 57.0177 207.39 56.9367 207.361 56.8654C207.285 56.6702 207.075 56.5797 206.918 56.6749C204.671 58.0602 202.548 59.1933 200.011 58.8743C196.807 58.4743 196.226 54.8373 196.059 51.9809C195.907 49.3868 196.031 46.5969 196.426 43.6072Z" fill="#E3C9B8"/>
<path d="M42.4102 59.189L46.2664 59.1224C46.7091 59.1129 46.8139 58.4987 46.3996 58.3464L46.1379 58.2464L63.2431 58.1036C63.4431 58.1036 63.5859 57.9036 63.5288 57.7133C62.6528 54.8522 60.7677 53.6191 57.8685 54.0144C57.6257 54.0476 57.4067 53.8716 57.3829 53.6288C57.3306 53.0338 57.2782 52.5005 57.2306 52.0292C57.0449 50.1106 55.5311 48.2873 53.9172 47.5922C51.7035 46.6354 49.6277 46.9924 47.6854 48.6538C47.5568 48.349 47.3331 48.0873 47.0141 47.873C51.4463 44.1453 57.7209 46.7637 58.278 52.486C58.297 52.7003 58.4732 52.8668 58.6922 52.8716C62.1342 52.9288 64.1003 54.7425 64.5908 58.3131C64.6431 58.713 64.329 59.0702 63.9243 59.0749L42.4102 59.189Z" fill="black"/>
<path d="M46.1378 58.2469L35.5214 58.2612C35.2071 58.2612 34.9881 57.9517 35.0929 57.6566C35.8974 55.2953 37.4685 54.3717 39.8059 54.886C40.044 54.9382 40.282 54.805 40.363 54.5765L41.02 52.7246C41.0628 52.6056 41.1295 52.4913 41.2105 52.3913C42.2816 51.0917 43.7336 50.7298 45.5617 51.301C45.8427 51.3868 46.1425 51.2391 46.2378 50.963C46.5378 50.106 47.0233 49.3349 47.6851 48.6541C49.6275 46.9926 51.7031 46.6355 53.9169 47.5925C55.5308 48.2876 57.0447 50.1109 57.2304 52.0295C57.2779 52.5008 57.3304 53.0341 57.3827 53.6291C57.4064 53.8719 57.6254 54.0481 57.8682 54.0147C60.7674 53.6196 62.6527 54.8525 63.5286 57.7137C63.5858 57.9042 63.4428 58.104 63.2428 58.104L46.1378 58.2469Z" fill="#F5FAFF"/>
<path d="M47.0175 47.873C47.3365 48.0873 47.5602 48.3491 47.6888 48.6538C47.027 49.3346 46.5414 50.1059 46.2414 50.9627C46.1462 51.2388 45.8464 51.3865 45.5654 51.3008C43.7373 50.7295 42.2852 51.0912 41.2141 52.391C41.1332 52.491 41.0666 52.6053 41.0237 52.7243L40.3666 54.5762C40.2857 54.8047 40.0476 54.938 39.8096 54.8857C37.4722 54.3714 35.9011 55.2952 35.0966 57.6564C34.9918 57.9516 35.2108 58.2609 35.5251 58.2609L46.1415 58.2467L46.4032 58.3467C46.8175 58.4989 46.7127 59.1132 46.27 59.1227L42.4138 59.1892L35.6059 59.132C34.7918 59.289 33.9873 59.17 34.1348 58.1275C34.5633 55.1806 36.2057 53.7237 39.0573 53.7477C39.3431 53.7524 39.6049 53.5906 39.7334 53.3334C40.5904 51.6053 41.752 50.5532 43.2136 50.1865L45.1844 50.2103C45.3225 50.215 45.4557 50.1436 45.5367 50.0293L47.0175 47.873Z" fill="black"/>
<path d="M199.168 62.1215C199.354 62.0977 199.511 62.2452 199.496 62.431C199.258 65.2017 200.125 66.9822 202.091 67.7725C205.919 69.3102 211.798 66.749 212.141 62.1167C212.155 61.9262 212.322 61.7835 212.517 61.8025C218.234 62.4165 223.476 63.9163 228.246 66.306C231.293 67.8294 233.85 70.9096 236.082 74.2088C240.929 81.3594 244.795 90.0477 246.09 98.7312C246.509 101.554 245.828 103.711 243.947 106.015C242.757 107.472 241.219 108.867 239.329 110.195C234.888 113.323 230.265 115.827 225.462 117.703C224.952 117.903 224.376 117.803 223.962 117.441C222.134 115.851 220.644 113.742 219.496 111.114C219.43 110.957 219.439 110.781 219.52 110.629C219.801 110.114 220.149 109.633 220.572 109.181C224.247 105.244 227.851 101.664 231.379 98.4411C231.779 98.0745 232.188 97.8223 232.274 97.251C232.36 96.7225 231.608 96.5464 231.251 97.013C231.027 97.313 230.841 97.5175 230.703 97.6365C230.565 97.7555 230.351 97.7318 230.241 97.5842C229.637 96.7797 229.194 96.1417 228.908 95.6656C226.447 91.5667 224.162 87.4964 222.062 83.4544C221.939 83.2164 221.648 83.1307 221.415 83.2639L221.248 83.3639C221.11 83.4449 221.058 83.621 221.134 83.759L227.927 95.9559C228.004 96.094 228.046 96.2464 228.046 96.4035V100.126C228.046 100.274 227.989 100.412 227.885 100.517L219.715 108.681C219.639 108.757 219.515 108.767 219.43 108.7L183.758 81.4071C183.715 81.3739 183.677 81.3356 183.648 81.2881C183.539 81.1119 183.472 80.8026 183.448 80.3503C183.434 80.0646 183.072 79.9503 182.901 80.1788L180.744 83.002C180.663 83.1067 180.511 83.1257 180.411 83.04L177.145 80.3788C176.978 80.2408 176.921 80.0075 177.012 79.8123C179.101 75.2515 181.458 71.2953 184.072 67.9391C184.848 66.944 185.862 66.1633 187.104 65.5967C190.927 63.8688 194.945 62.707 199.168 62.1215Z" fill="#DCE3DE"/>
<path d="M167.554 81.2651L170.881 76.8233C170.953 76.7281 171.086 76.7138 171.176 76.7853L179.788 83.812C179.874 83.8787 179.889 84.0072 179.822 84.0928L176.494 88.5345C176.423 88.6298 176.289 88.644 176.199 88.5726L167.587 81.5459C167.501 81.4793 167.487 81.3508 167.554 81.2651Z" fill="#698B75"/>
<path d="M14.6186 87.3919C14.4377 87.4014 14.3091 87.3729 14.2378 87.3157C14.1283 87.2299 14.0713 87.1157 14.0666 86.9777C14.0333 86.2016 14.0285 85.2638 14.0523 84.1593C14.0571 83.9212 13.9523 83.6975 13.7618 83.5595L10.7389 81.2933C10.6056 81.1886 10.5771 80.9981 10.6769 80.8648L10.7769 80.7316C10.8626 80.6173 11.0196 80.5888 11.1387 80.6648C12.2145 81.3361 13.2333 82.0121 14.1951 82.6882C14.2283 82.7119 14.3093 82.7214 14.4378 82.7167C14.5711 82.7119 14.6521 82.6977 14.6806 82.669C15.5852 81.9217 16.5468 81.1694 17.5703 80.4124C17.6846 80.3314 17.8416 80.3456 17.9368 80.4504L18.0463 80.5789C18.1559 80.7027 18.1416 80.8979 18.0178 81.0122L15.1804 83.5021C15.0042 83.6591 14.9139 83.8876 14.9376 84.1256C15.0472 85.2254 15.1139 86.1585 15.1424 86.9345C15.1471 87.0773 15.0996 87.1915 14.9996 87.2868C14.9281 87.3491 14.8044 87.3872 14.6186 87.3919Z" fill="black"/>
<path d="M211.008 115.114C211.493 115.304 211.665 115.909 211.35 116.323L210.57 117.366C210.189 117.875 209.47 117.975 208.965 117.594L175.417 92.4291C175.155 92.2338 175.102 91.8625 175.298 91.6008L182.401 82.1365C182.539 81.9507 182.805 81.9127 182.986 82.0555L218.944 109.51C219.049 109.591 219.096 109.725 219.063 109.848C218.829 110.796 218.182 111.3 217.13 111.362C216.54 111.396 213.65 111.367 208.465 111.267C207.675 111.253 206.89 111.738 207.113 112.619C207.299 113.357 207.799 113.881 208.622 114.195C209.48 114.519 210.274 114.823 211.008 115.114Z" fill="#2D2D2D"/>
<path d="M158.055 89.7767C157.908 89.7435 157.879 89.5482 158.008 89.472C161.269 87.5486 164.115 85.1683 166.544 82.3261C166.634 82.2166 166.801 82.2023 166.915 82.2928L172.509 86.8583C172.628 86.9536 172.666 87.1154 172.604 87.2534L170.286 92.4377C170.238 92.5472 170.119 92.6043 170.005 92.5757L158.055 89.7767Z" fill="#DCE3DE"/>
<path d="M171.192 92.7522L173.216 88.2295C173.383 87.8534 173.859 87.7297 174.187 87.9772L175.225 88.758C175.468 88.939 175.534 89.272 175.387 89.534L173.954 92.0144C173.844 92.2049 173.892 92.4477 174.068 92.5809L181.128 97.8748C181.257 97.9748 181.333 98.127 181.333 98.2843V105.354C181.333 105.659 181.218 105.954 181.009 106.177C177.724 109.653 174.496 110.691 169.974 109.048C163.694 106.768 157.948 102.259 152.892 97.7177C152.749 97.5892 152.744 97.3702 152.878 97.2322C154.649 95.4088 155.896 93.2855 156.624 90.8528C156.682 90.6576 156.886 90.5386 157.086 90.5815C162.79 91.8669 167.055 92.8857 169.878 93.6379C170.788 93.8807 171.806 94.5425 172.925 95.6231C173.125 95.8136 173.449 95.7896 173.615 95.5708L173.73 95.4185C173.815 95.3043 173.811 95.1472 173.72 95.0377C173.168 94.3759 172.392 93.7904 171.388 93.2906C171.188 93.1902 171.102 92.9522 171.192 92.7522Z" fill="#DCE3DE"/>
<path d="M155.304 91.4911C154.994 92.6004 154.271 93.9477 153.133 95.5424C152.976 95.7614 152.7 95.8614 152.438 95.7947L151.276 95.4899C151.224 95.4757 151.167 95.4709 151.115 95.4757C150.729 95.4994 149.443 95.728 147.249 96.1517C145.183 96.5517 142.112 96.147 140.803 94.3998C140.617 94.1571 140.712 93.8048 140.993 93.6858L141.227 93.5858C141.436 93.4953 141.674 93.5382 141.841 93.6905C143.778 95.4711 144.783 95.4281 147.182 95.2234C147.877 95.1662 148.225 94.9091 148.22 94.4569C148.22 94.3664 148.272 94.2806 148.358 94.2474L155.147 91.3529C155.237 91.3151 155.333 91.4008 155.304 91.4911Z" fill="#E3C9B8"/>
<path d="M142.62 92.7976C142.732 92.6239 143.474 92.8952 144.28 93.406C145.088 93.9188 145.65 94.4758 145.538 94.6495C145.426 94.8231 144.683 94.5519 143.877 94.0411C143.069 93.5283 142.508 92.9713 142.62 92.7976Z" fill="#E3C9B8"/>
<path d="M114.917 112.628L114.531 113.565C113.36 112.704 112.232 111.794 111.151 110.828C110.094 109.885 107.985 108.119 104.829 105.525C98.1833 100.069 93.9795 96.6078 92.2132 95.1367C91.0469 94.1655 89.79 93.8371 88.4522 94.156C87.5239 94.3702 86.3861 95.051 85.0388 96.1983C78.3644 101.854 71.309 107.867 65.0153 113.032C55.4892 120.844 45.9916 128.709 36.5131 136.631C35.223 137.707 33.4377 139.154 31.1478 140.978C29.2864 142.458 27.4963 143.915 25.7872 145.343L22.2215 148.356C21.9787 148.099 21.6835 147.909 21.3359 147.79L26.2918 143.758C42.2353 130.566 58.1742 117.383 74.0986 104.211C79.521 99.7213 82.7441 97.0171 83.7677 96.0983C85.6196 94.432 87.0384 93.5037 88.0237 93.3181C89.8328 92.9706 91.4467 93.3609 92.8653 94.4845C96.8692 97.6504 104.22 103.701 114.917 112.628Z" fill="black"/>
<path d="M229.601 98.4792C229.605 98.7077 229.496 98.922 229.272 99.1267C229.158 99.2362 228.972 99.2125 228.887 99.0839C228.858 99.0459 228.849 98.8459 228.844 98.4841C228.844 98.1176 228.853 97.9224 228.877 97.8843C228.967 97.7511 229.148 97.7273 229.267 97.8368C229.491 98.0364 229.601 98.2507 229.601 98.4792Z" fill="#DCE3DE"/>
<path d="M182.306 99.1169C182.311 98.9551 182.496 98.8693 182.63 98.9646L207.904 117.926C208.047 118.031 208.033 118.25 207.881 118.336C206.809 118.926 206.614 119.736 207.342 120.735C207.914 121.526 208.795 121.454 209.133 122.463C209.233 122.763 209.547 123.101 210.075 123.482C211.97 124.849 214.974 126.938 217.092 125.334C217.311 125.168 217.611 125.168 217.83 125.329L222.143 128.567C222.243 128.643 222.22 128.795 222.105 128.843C222.001 128.885 221.686 128.947 221.158 129.028C208.071 131.042 195.241 130.166 182.673 126.4C182.42 126.324 182.249 126.096 182.239 125.839C182.054 120.093 182.039 114.404 182.206 108.772C182.306 105.244 182.163 102.311 182.306 99.1169Z" fill="#DCE3DE"/>
<path d="M149.163 152.466C149.04 152.699 148.735 152.756 148.535 152.585C145.674 150.143 142.351 147.358 138.576 144.23C126.093 133.895 112.968 123.107 99.1998 111.871C97.3002 110.324 95.7149 108.991 94.439 107.877C92.9062 106.549 91.6446 105.763 90.659 105.521C86.9553 104.621 84.8795 107.472 81.5423 110.229C62.7661 125.749 45.8371 139.717 30.7552 152.137C30.5362 152.318 30.2267 152.342 29.9791 152.199L29.8982 152.152C29.7029 152.042 29.6839 151.771 29.8554 151.628C44.9848 139.041 59.6192 127.139 76.2151 113.352C78.605 111.367 80.0856 110.153 80.6569 109.719C81.947 108.734 82.9373 107.929 83.6276 107.296C86.0745 105.059 88.1121 103.959 91.2305 104.749C91.9255 104.926 93.1871 105.744 95.0152 107.206C96.6958 108.549 101.019 112.081 107.979 117.799C121.913 129.243 135.6 140.521 149.04 151.633C149.268 151.823 149.335 152.152 149.192 152.414L149.163 152.466Z" fill="black"/>
<path d="M136.384 115.042L136.251 124.22C136.251 124.278 136.227 124.335 136.179 124.373L135.851 124.639C135.765 124.706 135.641 124.653 135.636 124.544L135.513 121.949C135.517 118.074 135.517 114.189 135.513 110.295C135.508 108.729 135.803 107.448 133.956 107.486C132.694 107.515 128.771 107.515 122.178 107.486C121.835 107.481 121.554 107.762 121.549 108.105C121.53 111.48 121.549 114.541 121.611 117.298C121.621 117.741 121.521 118.055 121.311 118.231C120.935 118.55 120.383 118.54 120.012 118.217C118.193 116.622 116.365 115.074 114.527 113.565L114.913 112.628L120.273 117.293C120.435 117.436 120.688 117.322 120.688 117.107C120.659 114.184 120.635 111.247 120.611 108.295C120.602 107.138 121.235 106.572 122.516 106.586C127.962 106.643 131.833 106.653 134.132 106.615C135.574 106.591 136.308 107.3 136.341 108.738C136.389 110.838 136.403 112.937 136.384 115.042Z" fill="black"/>
<path d="M212.279 123.706C212.131 123.625 212.155 123.411 212.312 123.358C213.078 123.111 213.431 122.744 213.364 122.259C213.316 121.906 212.893 121.725 212.526 121.897C211.741 122.263 211.107 122.468 210.622 122.511C210.365 122.535 210.127 122.378 210.05 122.13L210.008 121.992C209.96 121.83 210.055 121.654 210.222 121.611C211.103 121.383 211.736 121.059 212.131 120.635C212.44 120.302 212.107 119.778 211.674 119.912L209.151 120.692C208.665 120.84 208.146 120.569 207.999 120.083L207.922 119.831C207.841 119.559 208.013 119.283 208.289 119.236C210.174 118.945 211.498 118.088 212.255 116.67C212.907 115.456 212.612 114.656 211.379 114.275C210.236 113.918 209.217 113.556 208.327 113.18C207.784 112.952 207.961 112.147 208.546 112.157C211.517 112.209 213.631 112.252 214.882 112.285C216.354 112.318 217.625 112.166 218.696 111.819C218.82 111.776 218.958 111.828 219.029 111.942C219.086 112.033 219.343 112.614 219.8 113.694C220.329 114.927 221.267 116.208 222.618 117.527C222.728 117.636 222.733 117.817 222.628 117.931C222.204 118.393 221.49 119.44 220.481 121.078C219.381 122.873 217.172 124.954 214.963 124.973C214.797 124.973 214.706 124.787 214.806 124.654C215.078 124.301 215.22 124.006 215.24 123.773C215.263 123.449 214.897 123.249 214.64 123.444C213.845 124.044 213.055 124.13 212.279 123.706Z" fill="#E3C9B8"/>
<path d="M135.515 121.949L135.639 124.544C135.643 124.654 135.767 124.706 135.853 124.639L136.181 124.373C136.229 124.335 136.253 124.278 136.253 124.221L136.386 115.042L136.434 130.029C136.434 130.367 136.586 130.69 136.853 130.905C146.588 138.722 156.238 146.62 165.802 154.603C167.164 155.741 167.978 156.584 168.245 157.136C169.23 159.178 168.759 161.892 166.75 163.192C166.178 163.568 165.136 163.739 163.617 163.706C161.527 163.663 158.447 163.658 154.386 163.692C154.201 163.692 154.053 163.839 154.053 164.025V180.806C154.053 181.011 153.891 181.173 153.686 181.173H153.486C153.291 181.173 153.129 181.011 153.129 180.816V163.482C153.129 163.111 153.434 162.806 153.805 162.811C158.033 162.844 161.646 162.82 164.646 162.735C166.202 162.692 167.174 161.93 167.559 160.459C168.026 158.683 167.555 157.212 166.14 156.046C156.243 147.881 146.16 139.621 135.9 131.266C135.629 131.047 135.472 130.714 135.477 130.366L135.515 121.949Z" fill="black"/>
<path d="M218.619 124.435L219.918 123.483C220.095 123.349 220.247 123.187 220.361 123.002L222.884 118.898C223.08 118.589 223.456 118.446 223.803 118.551C225.541 119.089 227.364 118.056 228.983 117.218C229.254 117.08 229.583 117.103 229.825 117.284L235.195 121.302C235.21 121.312 235.229 121.321 235.243 121.331C236.005 121.65 236.476 122.345 237.19 122.826C239.737 124.544 242.341 126.591 245.002 128.967C245.131 129.081 245.269 129.186 245.412 129.281C246.892 130.248 247.84 131.047 248.249 131.671C248.996 132.814 249.03 134.061 248.34 135.413C247.349 137.36 243.398 143.392 240.204 141.031C239.447 140.474 239.009 140.164 238.899 140.112C238.604 139.969 238.318 139.702 238.042 139.307C237.852 139.036 237.547 138.76 237.128 138.47C236.79 138.236 236.352 137.865 235.824 137.36C235.729 137.27 235.624 137.189 235.514 137.117C231.615 134.566 229.054 132.776 227.821 131.747C227.464 131.447 226.179 130.4 223.96 128.596C222.232 127.191 220.171 126.23 218.6 124.816C218.485 124.711 218.495 124.53 218.619 124.435Z" fill="#2D2D2D"/>
<path d="M184.574 127.782L184.351 127.848C184.203 127.891 184.108 128.029 184.113 128.177C184.179 130.676 184.113 134.513 183.917 139.679C183.741 144.311 183.751 152.28 183.936 163.587C183.941 163.825 183.951 164.196 183.965 164.706C184.37 180.183 184.826 193.065 185.336 203.343C185.502 206.671 185.602 209.999 185.636 213.327C185.345 213.269 185.093 213.474 184.888 213.941C183.365 185.205 182.461 156.446 183.246 127.677C183.28 127.967 183.722 128.005 184.574 127.782Z" fill="black"/>
<path d="M184.576 127.782C187.747 128.73 190.017 129.33 191.384 129.577C192.688 129.81 195.316 130.158 199.267 130.62C202.214 130.967 204.861 131.129 207.204 131.115C212.459 131.081 217.763 130.624 223.118 129.753C223.561 129.682 224.014 129.791 224.371 130.058L228.898 133.452C229.331 133.781 229.603 134.285 229.641 134.828C229.817 137.499 230.069 140.127 230.398 142.717C230.569 144.078 230.46 146.221 230.726 147.853C231.098 150.143 231.379 152.871 231.569 156.037C231.812 160.074 232.364 164.687 232.373 168.201C232.383 171.981 232.921 175.561 233.649 178.793C234.268 181.545 234.33 184.021 234.997 186.882C235.953 190.961 236.258 196.217 237.072 200.245C237.687 203.287 238.201 206.848 238.62 210.923C239.039 214.984 239.291 217.322 239.377 217.94C240.019 222.563 240.419 225.281 240.571 226.091C240.709 226.819 240.595 227.285 240.238 227.481C240.133 227.543 240.019 227.581 239.9 227.59L230.617 228.495C230.365 228.519 230.131 228.366 230.055 228.128C228.674 223.986 227.151 219.797 225.49 215.565C225.066 214.494 224.785 213.708 224.642 213.208C224.318 212.094 223.785 211.109 223.595 210.042C223.285 208.333 222.386 205.653 220.896 202.001C220.319 200.578 219.677 198.493 218.972 195.736C218.482 193.803 217.972 192.209 217.444 190.957C216.716 189.219 216.04 187.419 215.425 185.553C215.173 184.791 214.821 183.325 214.359 181.149C213.983 179.383 213.374 177.665 212.526 175.984C212.264 175.46 211.712 173.637 210.87 170.509C210.246 168.181 209.732 166.344 209.327 165.001C208.365 161.807 207.794 159.864 207.613 159.184C207.57 159.017 207.38 158.431 207.047 157.427C206.494 155.765 205.014 150.962 202.6 143.026C202.557 142.888 202.41 142.816 202.276 142.874L202.257 142.883C202.119 142.94 202.048 143.093 202.091 143.231C203.405 147.539 204.619 151.681 205.728 155.647C205.999 156.613 206.042 157.475 205.861 158.227C205.262 160.703 205.104 163.697 204.595 167.515C204.224 170.262 204.009 172.114 203.957 173.066C203.857 174.913 203.69 176.765 203.462 178.622C202.838 183.692 202.391 187.52 202.11 190.109C201.91 191.961 202.129 193.87 201.9 195.422C201.301 199.512 201.048 204.396 200.558 208.533C199.696 215.755 199.258 219.654 199.239 220.23C199.206 221.202 198.982 222.792 198.558 224.996C198.239 226.658 198.111 228.162 198.173 229.504C198.182 229.733 197.997 229.928 197.768 229.928H187.209C186.814 229.928 186.49 229.619 186.471 229.228L185.638 213.327C185.605 210 185.505 206.672 185.338 203.344C184.829 193.066 184.372 180.184 183.967 164.707C183.953 164.197 183.943 163.826 183.938 163.588C183.753 152.281 183.743 144.312 183.919 139.68C184.115 134.514 184.181 130.677 184.115 128.178C184.11 128.03 184.205 127.892 184.353 127.849L184.576 127.782Z" fill="#447158"/>
<path d="M21.3322 147.79C21.6797 147.909 21.9749 148.1 22.2177 148.357C18.8233 151.08 15.4433 153.817 12.0726 156.569C10.554 157.811 10.573 161.244 12.4774 162.434C12.9534 162.734 13.9007 162.862 15.3195 162.829C17.3666 162.786 20.6039 162.777 25.0314 162.805C25.2456 162.81 25.4169 162.986 25.4169 163.2L25.4074 238.443C25.3169 238.377 25.2504 238.262 25.2122 238.1C25.1836 237.977 25.0027 237.977 24.9741 238.1L24.9361 238.267C24.9266 238.315 24.8599 238.315 24.8504 238.267C24.8361 238.186 24.8171 238.134 24.7981 238.119C24.7314 238.062 24.6266 238.105 24.6171 238.196L24.4933 239.31L24.5361 164.015C24.5361 163.853 24.4029 163.719 24.2409 163.719C19.2946 163.748 16.3904 163.776 15.5241 163.81C13.9197 163.872 12.7772 163.719 12.1059 163.348C9.42095 161.858 9.51126 158.049 11.2823 155.874C11.3299 155.812 11.3823 155.759 11.4443 155.707L21.3322 147.79Z" fill="black"/>
<path d="M137.639 161.916C137.606 161.682 137.535 161.535 137.425 161.478C137.259 161.392 137.021 161.402 136.721 161.502L136.759 159.454C136.763 159.097 136.478 158.802 136.121 158.802H128.38C128.146 158.802 127.961 158.988 127.961 159.221V165.334C127.961 165.691 127.661 165.977 127.304 165.958C126.937 165.939 126.551 165.753 126.142 165.405C122.424 162.24 116.554 157.393 108.527 150.876C106.995 149.628 105.504 149.738 104.052 151.209C103.548 151.723 102.21 152.88 100.039 154.675C88.3469 164.344 74.8884 175.413 59.6637 187.886C58.1926 189.095 57.3881 190.004 58.2164 191.775C58.4212 192.213 58.8592 192.494 59.34 192.494H65.9716C66.3239 192.494 66.6094 192.78 66.6094 193.132L66.5572 205.238L66.4001 202.863C66.3954 202.777 66.3288 202.706 66.2431 202.701C66.1574 202.691 66.0766 202.748 66.0574 202.834L66.0193 202.996C65.9908 203.115 65.8288 203.129 65.7813 203.015L65.6813 202.777L65.6766 193.865C65.6766 193.674 65.5243 193.522 65.3338 193.527C63.4724 193.555 61.5681 193.555 59.6209 193.532C56.4313 193.489 56.0124 189.49 58.0166 187.871C72.8557 175.898 88.1042 163.339 103.767 150.195C106.166 148.181 108.213 149 110.479 151.076C110.779 151.352 116.13 155.798 126.542 164.42C126.69 164.544 126.918 164.448 126.928 164.258C127.004 163.054 127.023 161.416 126.99 159.355C126.971 158.145 127.685 157.893 128.804 157.917C130.674 157.955 133.298 157.969 136.678 157.96C137.206 157.96 137.635 158.388 137.639 158.916V161.916Z" fill="black"/>
<path d="M136.72 161.501L136.858 174.255C137.31 174.679 137.686 175.012 137.996 175.255C142.666 178.92 148.122 183.467 154.373 188.899C155.12 189.546 155.372 190.379 155.13 191.403C154.896 192.379 154.173 192.436 153.235 192.455C153.078 192.46 150.778 192.445 146.327 192.422C146.027 192.417 145.78 192.664 145.78 192.964L145.87 229.379C139.376 230.003 132.916 230.041 126.484 229.484C123.238 229.203 119.986 228.855 116.735 228.437C116.72 222.852 116.72 217.225 116.739 211.565C116.749 208.68 115.53 208.127 112.774 208.108C107.894 208.075 103.019 208.07 98.1439 208.085C96.5586 208.242 95.7113 209.037 95.5922 210.465C95.2827 214.231 95.6113 218.03 95.5495 221.786C87.8133 219.696 81.3149 215.268 74.469 211.312C72.8837 210.398 70.27 208.427 66.6185 205.395C66.6518 205.595 66.628 205.542 66.5566 205.238L66.6089 193.131C66.6089 192.779 66.3233 192.493 65.971 192.493H59.3394C58.8586 192.493 58.4206 192.212 58.2158 191.774C57.3875 190.003 58.1921 189.094 59.6631 187.885C74.8878 175.412 88.3464 164.343 100.039 154.674C102.209 152.879 103.547 151.722 104.052 151.208C105.504 149.737 106.994 149.628 108.527 150.875C116.553 157.393 122.423 162.239 126.141 165.405C126.551 165.752 126.936 165.938 127.303 165.957C127.66 165.976 127.96 165.691 127.96 165.333V159.22C127.96 158.987 128.146 158.801 128.379 158.801H136.12C136.477 158.801 136.763 159.097 136.758 159.454L136.72 161.501ZM143.894 186.509L144.037 186.39C144.275 186.195 144.265 185.833 144.023 185.652C141.423 183.729 139.281 181.629 136.582 179.534C130.593 174.897 125.004 169.985 119.191 165.505C118.11 164.672 114.973 162.11 109.774 157.811C108.513 156.769 107.175 156.398 105.756 156.688C104.904 156.864 103.704 157.583 102.167 158.844C89.3176 169.423 78.2682 178.406 69.0181 185.8C68.8419 185.938 68.8134 186.195 68.9561 186.366L69.0989 186.542C69.256 186.738 69.5417 186.766 69.7369 186.604L104.342 158.392C104.59 158.192 104.876 158.035 105.176 157.94C106.737 157.436 108.208 157.754 109.584 158.902C114.702 163.148 119.434 167 123.78 170.451C130.641 175.907 136.23 180.739 143.494 186.509C143.609 186.604 143.78 186.604 143.894 186.509Z" fill="#F3F3F3"/>
<path d="M143.896 186.509C143.782 186.605 143.611 186.605 143.496 186.509C136.232 180.739 130.642 175.907 123.782 170.452C119.436 167 114.704 163.149 109.586 158.902C108.21 157.755 106.739 157.436 105.178 157.941C104.878 158.036 104.592 158.193 104.345 158.393L69.739 186.605C69.5438 186.767 69.2582 186.738 69.101 186.543L68.9582 186.367C68.8155 186.195 68.844 185.938 69.0202 185.8C78.2702 178.407 89.3199 169.423 102.169 158.845C103.707 157.583 104.906 156.865 105.758 156.688C107.177 156.398 108.515 156.769 109.776 157.812C114.975 162.111 118.112 164.672 119.193 165.505C125.006 169.985 130.595 174.898 136.584 179.535C139.283 181.63 141.425 183.729 144.025 185.652C144.268 185.833 144.277 186.195 144.039 186.39L143.896 186.509Z" fill="black"/>
<path d="M218.089 196.792C216.951 197.854 215.809 198.816 214.652 199.677C213.167 200.786 211.924 202.11 210.553 203.181C209.353 204.114 206.892 205.98 203.169 208.775C202.879 208.989 202.26 209.17 201.312 209.318L206.483 158.916C206.487 158.859 206.573 158.849 206.587 158.907C209.234 168.071 211.734 177.188 214.709 186.39C215.847 189.904 216.97 193.369 218.089 196.792Z" fill="#DCE3DE"/>
<path d="M137.638 161.915L137.747 173.722C137.742 174.217 137.442 174.393 136.857 174.255L136.719 161.501C137.019 161.401 137.257 161.392 137.423 161.477C137.533 161.534 137.604 161.682 137.638 161.915Z" fill="black"/>
<path d="M146.796 228.918C146.796 232.541 146.825 236.159 146.882 239.772C146.896 240.9 146.696 241.876 146.273 242.7C146.23 242.781 146.292 242.881 146.387 242.881H151.024C151.481 242.881 151.909 242.643 152.152 242.252C152.923 241.01 153.285 239.667 153.237 238.22C153.137 235.126 153.095 232.022 153.114 228.913L153.128 197.788C153.128 197.54 153.318 197.331 153.566 197.312L153.594 197.307C153.832 197.288 154.037 197.473 154.037 197.716L154.099 228.742C154.118 232.089 154.123 235.445 154.109 238.82C154.104 240.42 153.775 241.715 153.133 242.705C153.066 242.805 153.137 242.943 153.256 242.943H171.728C171.876 242.943 171.995 242.834 172.009 242.691C172.199 240.825 173.185 239.549 174.96 238.863C177.212 237.997 179.421 237.035 181.587 235.983C182.011 236.007 182.444 236.13 182.882 236.354C180.688 237.492 178.421 238.473 176.094 239.292C175.746 239.411 174.96 239.868 173.746 240.663C173.651 240.725 173.57 240.805 173.504 240.901C173.28 241.229 173.161 241.7 173.147 242.315C173.137 242.576 173.342 242.795 173.604 242.81L176.574 242.952C176.931 243.157 177.331 243.228 177.784 243.157C177.922 243.133 178.017 243.29 177.931 243.405L177.722 243.681C177.669 243.757 177.584 243.8 177.493 243.8L172.537 243.909L0.390303 243.923C0.176049 243.923 0 243.747 0 243.533V243.257C0 243.086 0.142774 242.943 0.314251 242.943H25.822C25.8648 242.943 25.8888 242.886 25.8553 242.857C24.8985 241.976 24.4462 240.791 24.4985 239.31L24.6223 238.196C24.6318 238.106 24.7365 238.063 24.8032 238.12C24.8223 238.134 24.8413 238.187 24.8555 238.268C24.865 238.315 24.9318 238.315 24.9413 238.268L24.9793 238.101C25.0078 237.977 25.1888 237.977 25.2173 238.101C25.2553 238.263 25.3221 238.377 25.4125 238.444C25.3126 240.596 25.8029 242.933 28.5022 242.933C40.9752 242.938 53.4435 242.943 65.9119 242.947C66.0452 242.947 66.1404 242.814 66.0977 242.686C65.6977 241.476 65.5597 240.234 65.6882 238.958C65.9214 239.743 66.2214 239.943 66.5927 239.558L66.8783 241.9C66.9498 242.485 67.4448 242.928 68.0351 242.928H95.252C95.4043 242.928 95.528 242.804 95.528 242.652L95.5518 221.786C95.6138 218.03 95.2853 214.231 95.5946 210.465C95.7136 209.037 96.5609 208.242 98.1463 208.085C98.2177 208.408 98.3415 208.689 98.508 208.932C97.2179 209.06 96.5657 209.86 96.5514 211.327C96.5182 215.368 96.5229 219.144 96.5704 222.652L96.5229 242.728C96.5229 242.838 96.6086 242.923 96.7181 242.923H115.466C115.609 242.923 115.723 242.814 115.732 242.676L115.832 241.053C116.075 241.372 116.356 241.614 116.675 241.781L116.756 242.676C116.765 242.814 116.884 242.923 117.027 242.923H144.106C144.696 242.923 145.225 242.581 145.468 242.043C145.948 240.972 145.853 239.986 145.868 238.805C145.901 235.678 145.901 232.536 145.872 229.379L145.782 192.965C145.782 192.665 146.029 192.417 146.329 192.422C150.781 192.446 153.08 192.46 153.237 192.455C154.175 192.436 154.899 192.379 155.132 191.403C155.375 190.379 155.122 189.546 154.375 188.899C148.124 183.467 142.668 178.92 137.998 175.255C137.689 175.012 137.313 174.679 136.86 174.255C137.446 174.393 137.746 174.217 137.751 173.722C143.064 178.035 148.372 182.372 153.675 186.728C155.322 188.085 156.612 189.013 156.155 191.289C155.884 192.631 155.07 193.331 153.723 193.388C152.261 193.446 150.095 193.46 147.215 193.431C147.02 193.426 146.863 193.583 146.858 193.779L146.796 228.918Z" fill="black"/>
<path d="M66.5594 205.238C66.6309 205.542 66.6547 205.595 66.6214 205.395L66.5929 239.557C66.2216 239.943 65.9216 239.743 65.6883 238.958L65.6931 204.266L65.6836 202.776L65.7836 203.014C65.8311 203.129 65.9931 203.114 66.0216 202.995L66.0596 202.834C66.0786 202.748 66.1596 202.691 66.2454 202.7C66.3311 202.705 66.3976 202.776 66.4024 202.862L66.5594 205.238Z" fill="black"/>
<path d="M116.735 228.437L116.673 241.781C116.354 241.614 116.073 241.371 115.831 241.052V227.846C115.874 222.814 115.878 217.777 115.845 212.745C115.831 210.722 116.097 208.903 113.726 208.932C108.647 208.994 103.576 208.994 98.5063 208.932C98.3398 208.689 98.2158 208.408 98.1445 208.085C103.02 208.07 107.894 208.075 112.774 208.108C115.531 208.128 116.749 208.68 116.74 211.565C116.721 217.225 116.721 222.852 116.735 228.437Z" fill="black"/>
<path d="M98.5093 208.932C103.579 208.994 108.65 208.994 113.729 208.932C116.1 208.903 115.833 210.722 115.848 212.745C115.881 217.777 115.876 222.814 115.834 227.846C114.743 227.76 114.034 227.684 113.706 227.622C109.802 226.885 105.974 225.866 102.228 224.561C100.39 223.918 98.5046 223.285 96.5717 222.652C96.5242 219.143 96.5194 215.368 96.5527 211.326C96.567 209.86 97.2192 209.06 98.5093 208.932Z" fill="#F3F3F3"/>
<path d="M239.362 228.594C239.538 228.58 239.695 228.708 239.709 228.884L239.909 230.927C239.919 231.008 239.833 231.065 239.757 231.031C237.096 229.798 234.758 230.136 232.754 232.041C232.597 232.188 232.34 232.093 232.321 231.879L232.083 229.461C232.073 229.375 232.14 229.299 232.226 229.289L239.362 228.594Z" fill="#E3C9B8"/>
<path d="M195.778 231.221V233.126C195.778 233.288 195.682 233.431 195.54 233.497C193.045 234.63 190.65 235.206 188.479 232.95C188.046 232.497 187.918 231.907 188.089 231.169C188.141 230.95 188.337 230.793 188.56 230.793H195.349C195.587 230.793 195.778 230.983 195.778 231.221Z" fill="#E3C9B8"/>
<path d="M233.14 242.93C232.759 242.93 232.449 242.625 232.449 242.244V234.179C232.449 234.094 232.468 234.008 232.506 233.932C232.844 233.232 233.425 232.651 234.244 232.18C236.01 231.166 237.724 231.142 239.39 232.118C240.242 232.618 241.133 233.827 242.066 235.746C242.309 236.245 243.061 237.617 244.322 239.849C244.736 240.578 244.951 241.373 244.956 242.234C244.96 242.615 244.646 242.93 244.265 242.93H233.14Z" fill="black"/>
<path d="M176.573 242.953L173.602 242.81C173.34 242.796 173.135 242.577 173.145 242.315C173.159 241.701 173.278 241.229 173.502 240.901C173.569 240.806 173.649 240.725 173.745 240.663C174.959 239.868 175.744 239.411 176.092 239.292C178.42 238.473 180.686 237.492 182.88 236.354L186.76 233.608C187.017 233.422 187.37 233.446 187.603 233.66C190.064 235.907 192.764 235.674 195.634 234.569C195.968 234.441 196.334 234.626 196.429 234.969C197.167 237.659 197.282 240.163 196.772 242.486C196.744 242.629 196.615 242.729 196.472 242.729L176.573 242.953Z" fill="black"/>
<path d="M257.633 243.924C257.862 243.662 257.848 243.338 257.586 242.962L274.182 242.896C274.348 242.891 274.486 243.029 274.486 243.196V243.443C274.486 243.753 274.239 244 273.929 244L257.633 243.924Z" fill="black"/>
<path d="M138.017 55L149.361 43.6562C151.011 42.0062 151.011 39.5312 149.361 37.8812C148.742 37.0562 147.711 36.4375 146.68 36.4375C145.648 36.4375 144.617 36.85 143.792 37.675L132.242 49.225L120.898 37.8812C119.248 36.2312 116.567 36.2312 115.123 37.8812C114.298 38.5 113.68 39.5313 113.68 40.7688C113.68 42.0063 114.092 42.8313 114.917 43.6562L126.261 55L114.917 66.3438C114.298 67.1688 113.68 68.2 113.68 69.4375C113.68 70.4688 114.092 71.5 114.917 72.325C115.742 73.15 116.773 73.5625 117.805 73.5625C118.836 73.5625 119.867 73.15 120.692 72.325L132.036 60.9812L143.38 72.325C145.03 73.975 147.711 73.975 149.155 72.325C150.805 70.675 150.805 67.9938 149.155 66.55L138.017 55Z" fill="#C94444"/>
</svg>
