<svg width="37" height="37" viewBox="0 0 37 37" fill="none" xmlns="http://www.w3.org/2000/svg">
<rect x="0.219941" y="0.219941" width="36.439" height="36.439" rx="4.21951" fill="#ECECEC"/>
<rect x="0.219941" y="0.219941" width="36.439" height="36.439" rx="4.21951" stroke="#BBBBBB" stroke-width="0.439024"/>
<path d="M28.6838 7.46387H8.19369C6.82056 7.46387 5.70703 8.55606 5.70703 9.90289V26.9761C5.70703 28.3229 6.82056 29.4151 8.19369 29.4151H28.6838C30.0569 29.4151 31.1704 28.3229 31.1704 26.9761V9.90289C31.1704 8.55606 30.0569 7.46387 28.6838 7.46387ZM8.19369 12.817C8.19369 11.2073 9.52406 9.90289 11.1648 9.90289C12.8055 9.90289 14.1358 11.2078 14.1358 12.817C14.1358 14.4263 12.8055 15.7312 11.1648 15.7312C9.52406 15.7312 8.19369 14.4263 8.19369 12.817ZM26.4572 26.8044H10.649C9.63049 26.8044 9.04413 25.6687 9.6469 24.8634L12.7025 20.7809C13.1993 20.117 14.2104 20.117 14.7073 20.7809L16.058 22.5858L19.9874 16.3322C20.4728 15.5595 21.6187 15.5595 22.1046 16.3322L27.5165 24.9453C28.0273 25.758 27.431 26.8048 26.4582 26.8048L26.4572 26.8044Z" fill="#2D2D2D"/>
</svg>
