<svg xmlns="http://www.w3.org/2000/svg" width="160px" height="160px" viewBox="0 0 200 200">
  <rect x="0" y="0" width="200" height="200"
        fill="rgb(92.54902%,92.54902%,92.54902%)"/>

  <!-- Centered graphic -->
  <g transform="translate(20,20)">
    <path fill="rgb(17.647059%,17.647059%,17.647059%)"
      d="M 125.53125 31.21875 L 34.464844 31.21875 C 28.363281 31.21875 23.414062 36.074219 23.414062 42.058594 L 23.414062 117.941406 C 23.414062 123.925781 28.363281 128.78125 34.464844 128.78125 L 125.53125 128.78125 C 131.636719 128.78125 136.585938 123.925781 136.585938 117.941406 L 136.585938 42.058594 C 136.585938 36.074219 131.636719 31.21875 125.53125 31.21875 Z M 34.464844 55.011719 C 34.464844 47.855469 40.378906 42.058594 47.671875 42.058594 C 54.960938 42.058594 60.875 47.859375 60.875 55.011719 C 60.875 62.164062 54.960938 67.960938 47.671875 67.960938 C 40.378906 67.960938 34.464844 62.164062 34.464844 55.011719 Z M 115.636719 117.175781 L 45.378906 117.175781 C 40.851562 117.175781 38.246094 112.128906 40.925781 108.550781 L 54.503906 90.40625 C 56.714844 87.453125 61.207031 87.453125 63.414062 90.40625 L 69.417969 98.425781 L 86.882812 70.632812 C 89.039062 67.199219 94.132812 67.199219 96.292969 70.632812 L 120.34375 108.914062 C 122.613281 112.527344 119.964844 117.179688 115.640625 117.179688 Z"/>
  </g>
</svg>
