<svg width="290" height="342" viewBox="0 0 290 342" fill="none" xmlns="http://www.w3.org/2000/svg">
<rect x="0.5" y="0.5" width="289" height="341" rx="8.5" fill="#F2F2F2" stroke="#BBBBBB"/>
<path d="M157.636 73.3282H162.34V49.2569H176.727C176.727 49.2569 192.775 51.4704 193.328 68.9013C193.328 68.9013 193.605 85.2255 176.727 88.269H157.359V129.295H162.34V93.5259L175.344 93.8026C175.344 93.8026 196.648 92.6959 198.308 68.6246C198.308 68.6246 198.862 49.2569 177.834 44H157.359V73.3282H157.636Z" fill="#BBBBBB"/>
<path d="M167.592 53.9609H176.169C176.169 53.9609 188.067 57.0044 188.343 67.5183C188.343 67.5183 190.28 80.5223 175.616 83.5658H152.651V135.138H147.395V53.9609H167.592Z" fill="#BBBBBB"/>
<path fill-rule="evenodd" clip-rule="evenodd" d="M180.321 73.3291C178.661 74.9892 175.894 76.6492 172.297 76.3726C163.997 76.0959 159.293 66.9654 163.443 60.0484C163.72 59.495 164.273 58.9417 164.55 58.3883C165.103 57.8349 165.38 57.5582 165.933 57.0049C165.103 57.0049 163.997 57.8349 163.443 58.1116C161.23 59.495 159.293 61.9851 158.463 64.4753C154.866 75.5425 168.147 84.3963 177.001 77.2026C178.107 76.9259 180.044 74.7125 180.321 73.3291Z" fill="white"/>
<path fill-rule="evenodd" clip-rule="evenodd" d="M172.018 63.0906L168.145 64.7507L172.018 65.5808L172.571 70.0077L174.785 66.4108L178.935 67.2409L176.168 64.1974L178.382 60.3238L174.232 61.9839L171.465 58.9404L172.018 63.0906Z" fill="white"/>
<path d="M199.322 115.014H177.949V227.051H199.322V115.014Z" fill="#DBDBDB"/>
<path d="M185.419 118.654H181.266V122.931H185.419V118.654Z" fill="#D6D6D6"/>
<path d="M190.731 118.654H186.578V122.931H190.731V118.654Z" fill="#D6D6D6"/>
<path d="M185.419 125.915H181.266V130.192H185.419V125.915Z" fill="#D6D6D6"/>
<path d="M190.731 125.915H186.578V130.192H190.731V125.915Z" fill="#D6D6D6"/>
<path d="M185.419 133.182H181.266V137.458H185.419V133.182Z" fill="#D6D6D6"/>
<path d="M190.731 133.182H186.578V137.458H190.731V133.182Z" fill="#D6D6D6"/>
<path d="M185.419 140.44H181.266V144.717H185.419V140.44Z" fill="#D6D6D6"/>
<path d="M190.731 140.44H186.578V144.717H190.731V140.44Z" fill="#D6D6D6"/>
<path d="M185.419 147.707H181.266V151.984H185.419V147.707Z" fill="#D6D6D6"/>
<path d="M190.731 147.707H186.578V151.984H190.731V147.707Z" fill="#D6D6D6"/>
<path d="M185.419 154.967H181.266V159.243H185.419V154.967Z" fill="#D6D6D6"/>
<path d="M190.731 154.967H186.578V159.243H190.731V154.967Z" fill="#D6D6D6"/>
<path d="M185.419 162.232H181.266V166.509H185.419V162.232Z" fill="#D6D6D6"/>
<path d="M190.731 162.232H186.578V166.509H190.731V162.232Z" fill="#D6D6D6"/>
<path d="M185.419 169.495H181.266V173.772H185.419V169.495Z" fill="#D6D6D6"/>
<path d="M190.731 169.495H186.578V173.772H190.731V169.495Z" fill="#D6D6D6"/>
<path d="M185.419 176.759H181.266V181.035H185.419V176.759Z" fill="#D6D6D6"/>
<path d="M190.731 176.759H186.578V181.035H190.731V176.759Z" fill="#D6D6D6"/>
<path d="M185.419 184.021H181.266V188.297H185.419V184.021Z" fill="#D6D6D6"/>
<path d="M190.731 184.021H186.578V188.297H190.731V184.021Z" fill="#D6D6D6"/>
<path d="M185.419 191.285H181.266V195.562H185.419V191.285Z" fill="#D6D6D6"/>
<path d="M190.731 191.285H186.578V195.562H190.731V191.285Z" fill="#D6D6D6"/>
<path d="M185.419 198.546H181.266V202.822H185.419V198.546Z" fill="#D6D6D6"/>
<path d="M190.731 198.546H186.578V202.822H190.731V198.546Z" fill="#D6D6D6"/>
<path d="M185.419 205.812H181.266V210.089H185.419V205.812Z" fill="#D6D6D6"/>
<path d="M190.731 205.812H186.578V210.089H190.731V205.812Z" fill="#D6D6D6"/>
<path d="M185.419 213.073H181.266V217.35H185.419V213.073Z" fill="#D6D6D6"/>
<path d="M191.855 217.35H196.008V213.073H191.855V217.35Z" fill="#D6D6D6"/>
<path d="M191.855 210.085H196.008V205.808H191.855V210.085Z" fill="#D6D6D6"/>
<path d="M191.855 202.823H196.008V198.547H191.855V202.823Z" fill="#D6D6D6"/>
<path d="M191.855 195.557H196.008V191.28H191.855V195.557Z" fill="#D6D6D6"/>
<path d="M191.855 188.295H196.008V184.018H191.855V188.295Z" fill="#D6D6D6"/>
<path d="M191.855 181.029H196.008V176.753H191.855V181.029Z" fill="#D6D6D6"/>
<path d="M191.855 173.77H196.008V169.493H191.855V173.77Z" fill="#D6D6D6"/>
<path d="M191.855 166.504H196.008V162.227H191.855V166.504Z" fill="#D6D6D6"/>
<path d="M191.855 159.244H196.008V154.968H191.855V159.244Z" fill="#D6D6D6"/>
<path d="M191.855 151.979H196.008V147.702H191.855V151.979Z" fill="#D6D6D6"/>
<path d="M191.855 144.716H196.008V140.439H191.855V144.716Z" fill="#D6D6D6"/>
<path d="M191.855 137.451H196.008V133.175H191.855V137.451Z" fill="#D6D6D6"/>
<path d="M191.855 130.19H196.008V125.914H191.855V130.19Z" fill="#D6D6D6"/>
<path d="M191.855 122.926H196.008V118.649H191.855V122.926Z" fill="#D6D6D6"/>
<path d="M190.731 213.073H186.578V217.35H190.731V213.073Z" fill="#D6D6D6"/>
<path d="M216.17 115.014H199.32V227.051H216.17V115.014Z" fill="#A6A6A6"/>
<path d="M210.997 217.35H214.43V213.073H210.997V217.35Z" fill="#C7C7C7"/>
<path d="M206.614 217.35H210.047V213.073H206.614V217.35Z" fill="#C7C7C7"/>
<path d="M210.997 210.085H214.43V205.808H210.997V210.085Z" fill="#C7C7C7"/>
<path d="M206.614 210.085H210.047V205.808H206.614V210.085Z" fill="#C7C7C7"/>
<path d="M210.997 202.823H214.43V198.547H210.997V202.823Z" fill="#C7C7C7"/>
<path d="M206.614 202.823H210.047V198.547H206.614V202.823Z" fill="#C7C7C7"/>
<path d="M210.997 195.557H214.43V191.28H210.997V195.557Z" fill="#C7C7C7"/>
<path d="M206.614 195.557H210.047V191.28H206.614V195.557Z" fill="#C7C7C7"/>
<path d="M210.997 188.295H214.43V184.018H210.997V188.295Z" fill="#C7C7C7"/>
<path d="M206.614 188.295H210.047V184.018H206.614V188.295Z" fill="#C7C7C7"/>
<path d="M210.997 181.029H214.43V176.753H210.997V181.029Z" fill="#C7C7C7"/>
<path d="M206.614 181.029H210.047V176.753H206.614V181.029Z" fill="#C7C7C7"/>
<path d="M210.997 173.77H214.43V169.493H210.997V173.77Z" fill="#C7C7C7"/>
<path d="M206.614 173.77H210.047V169.493H206.614V173.77Z" fill="#C7C7C7"/>
<path d="M210.997 166.504H214.43V162.227H210.997V166.504Z" fill="#C7C7C7"/>
<path d="M206.614 166.504H210.047V162.227H206.614V166.504Z" fill="#C7C7C7"/>
<path d="M210.997 159.244H214.43V154.968H210.997V159.244Z" fill="#C7C7C7"/>
<path d="M206.614 159.244H210.047V154.968H206.614V159.244Z" fill="#C7C7C7"/>
<path d="M210.997 151.979H214.43V147.702H210.997V151.979Z" fill="#C7C7C7"/>
<path d="M206.614 151.979H210.047V147.702H206.614V151.979Z" fill="#C7C7C7"/>
<path d="M210.997 144.716H214.43V140.439H210.997V144.716Z" fill="#C7C7C7"/>
<path d="M206.614 144.716H210.047V140.439H206.614V144.716Z" fill="#C7C7C7"/>
<path d="M210.997 137.451H214.43V133.175H210.997V137.451Z" fill="#C7C7C7"/>
<path d="M206.614 137.451H210.047V133.175H206.614V137.451Z" fill="#C7C7C7"/>
<path d="M210.997 130.19H214.43V125.914H210.997V130.19Z" fill="#C7C7C7"/>
<path d="M206.614 130.19H210.047V125.914H206.614V130.19Z" fill="#C7C7C7"/>
<path d="M210.997 122.926H214.43V118.649H210.997V122.926Z" fill="#C7C7C7"/>
<path d="M205.703 118.654H202.27V122.931H205.703V118.654Z" fill="#C7C7C7"/>
<path d="M205.703 125.915H202.27V130.192H205.703V125.915Z" fill="#C7C7C7"/>
<path d="M205.703 133.182H202.27V137.458H205.703V133.182Z" fill="#C7C7C7"/>
<path d="M205.703 140.44H202.27V144.717H205.703V140.44Z" fill="#C7C7C7"/>
<path d="M205.703 147.707H202.27V151.984H205.703V147.707Z" fill="#C7C7C7"/>
<path d="M205.703 154.967H202.27V159.243H205.703V154.967Z" fill="#C7C7C7"/>
<path d="M205.703 162.232H202.27V166.509H205.703V162.232Z" fill="#C7C7C7"/>
<path d="M205.703 169.495H202.27V173.772H205.703V169.495Z" fill="#C7C7C7"/>
<path d="M205.703 176.759H202.27V181.035H205.703V176.759Z" fill="#C7C7C7"/>
<path d="M205.703 184.021H202.27V188.297H205.703V184.021Z" fill="#C7C7C7"/>
<path d="M205.703 191.285H202.27V195.562H205.703V191.285Z" fill="#C7C7C7"/>
<path d="M205.703 198.546H202.27V202.822H205.703V198.546Z" fill="#C7C7C7"/>
<path d="M205.703 205.812H202.27V210.089H205.703V205.812Z" fill="#C7C7C7"/>
<path d="M205.703 213.073H202.27V217.35H205.703V213.073Z" fill="#C7C7C7"/>
<path d="M206.614 122.926H210.047V118.649H206.614V122.926Z" fill="#C7C7C7"/>
<path d="M90.8029 112.567H68.5078V227.052H90.8029V112.567Z" fill="#D6D6D6"/>
<path d="M90.8015 110.288H67.9688V112.567H90.8015V110.288Z" fill="#C7C7C7"/>
<path d="M72.7786 115.926H70.5195V227.051H72.7786V115.926Z" fill="white"/>
<path d="M76.7865 115.926H74.5273V227.051H76.7865V115.926Z" fill="white"/>
<path d="M80.7865 115.926H78.5273V227.051H80.7865V115.926Z" fill="white"/>
<path d="M84.7864 115.926H82.5273V227.051H84.7864V115.926Z" fill="white"/>
<path d="M88.7903 115.926H86.5312V227.051H88.7903V115.926Z" fill="white"/>
<path d="M72.7786 118.807H70.5195V123.305H72.7786V118.807Z" fill="#D6D6D6"/>
<path d="M76.7865 118.807H74.5273V123.305H76.7865V118.807Z" fill="#D6D6D6"/>
<path d="M80.7865 118.807H78.5273V123.305H80.7865V118.807Z" fill="#D6D6D6"/>
<path d="M84.7864 118.807H82.5273V123.305H84.7864V118.807Z" fill="#D6D6D6"/>
<path d="M88.7903 118.807H86.5312V123.305H88.7903V118.807Z" fill="#D6D6D6"/>
<path d="M72.7786 126.122H70.5195V130.621H72.7786V126.122Z" fill="#D6D6D6"/>
<path d="M76.7865 126.122H74.5273V130.621H76.7865V126.122Z" fill="#D6D6D6"/>
<path d="M80.7865 126.122H78.5273V130.621H80.7865V126.122Z" fill="#D6D6D6"/>
<path d="M84.7864 126.122H82.5273V130.621H84.7864V126.122Z" fill="#D6D6D6"/>
<path d="M88.7903 126.122H86.5312V130.621H88.7903V126.122Z" fill="#D6D6D6"/>
<path d="M72.7786 133.438H70.5195V137.936H72.7786V133.438Z" fill="#D6D6D6"/>
<path d="M76.7865 133.438H74.5273V137.936H76.7865V133.438Z" fill="#D6D6D6"/>
<path d="M80.7865 133.438H78.5273V137.936H80.7865V133.438Z" fill="#D6D6D6"/>
<path d="M84.7864 133.438H82.5273V137.936H84.7864V133.438Z" fill="#D6D6D6"/>
<path d="M88.7903 133.438H86.5312V137.936H88.7903V133.438Z" fill="#D6D6D6"/>
<path d="M72.7786 140.751H70.5195V145.249H72.7786V140.751Z" fill="#D6D6D6"/>
<path d="M76.7865 140.751H74.5273V145.249H76.7865V140.751Z" fill="#D6D6D6"/>
<path d="M80.7865 140.751H78.5273V145.249H80.7865V140.751Z" fill="#D6D6D6"/>
<path d="M84.7864 140.751H82.5273V145.249H84.7864V140.751Z" fill="#D6D6D6"/>
<path d="M88.7903 140.751H86.5312V145.249H88.7903V140.751Z" fill="#D6D6D6"/>
<path d="M72.7786 148.065H70.5195V152.564H72.7786V148.065Z" fill="#D6D6D6"/>
<path d="M76.7865 148.065H74.5273V152.564H76.7865V148.065Z" fill="#D6D6D6"/>
<path d="M80.7865 148.065H78.5273V152.564H80.7865V148.065Z" fill="#D6D6D6"/>
<path d="M84.7864 148.065H82.5273V152.564H84.7864V148.065Z" fill="#D6D6D6"/>
<path d="M88.7903 148.065H86.5312V152.564H88.7903V148.065Z" fill="#D6D6D6"/>
<path d="M72.7786 155.378H70.5195V159.876H72.7786V155.378Z" fill="#D6D6D6"/>
<path d="M76.7865 155.378H74.5273V159.876H76.7865V155.378Z" fill="#D6D6D6"/>
<path d="M80.7865 155.378H78.5273V159.876H80.7865V155.378Z" fill="#D6D6D6"/>
<path d="M84.7864 155.378H82.5273V159.876H84.7864V155.378Z" fill="#D6D6D6"/>
<path d="M88.7903 155.378H86.5312V159.876H88.7903V155.378Z" fill="#D6D6D6"/>
<path d="M72.7786 162.691H70.5195V167.19H72.7786V162.691Z" fill="#D6D6D6"/>
<path d="M76.7865 162.691H74.5273V167.19H76.7865V162.691Z" fill="#D6D6D6"/>
<path d="M80.7865 162.691H78.5273V167.19H80.7865V162.691Z" fill="#D6D6D6"/>
<path d="M84.7864 162.691H82.5273V167.19H84.7864V162.691Z" fill="#D6D6D6"/>
<path d="M88.7903 162.691H86.5312V167.19H88.7903V162.691Z" fill="#D6D6D6"/>
<path d="M72.7786 170.006H70.5195V174.504H72.7786V170.006Z" fill="#D6D6D6"/>
<path d="M76.7865 170.006H74.5273V174.504H76.7865V170.006Z" fill="#D6D6D6"/>
<path d="M80.7865 170.006H78.5273V174.504H80.7865V170.006Z" fill="#D6D6D6"/>
<path d="M84.7864 170.006H82.5273V174.504H84.7864V170.006Z" fill="#D6D6D6"/>
<path d="M88.7903 170.006H86.5312V174.504H88.7903V170.006Z" fill="#D6D6D6"/>
<path d="M72.7786 177.32H70.5195V181.819H72.7786V177.32Z" fill="#D6D6D6"/>
<path d="M76.7865 177.32H74.5273V181.819H76.7865V177.32Z" fill="#D6D6D6"/>
<path d="M80.7865 177.32H78.5273V181.819H80.7865V177.32Z" fill="#D6D6D6"/>
<path d="M84.7864 177.32H82.5273V181.819H84.7864V177.32Z" fill="#D6D6D6"/>
<path d="M88.7903 177.32H86.5312V181.819H88.7903V177.32Z" fill="#D6D6D6"/>
<path d="M72.7786 184.637H70.5195V189.135H72.7786V184.637Z" fill="#D6D6D6"/>
<path d="M76.7865 184.637H74.5273V189.135H76.7865V184.637Z" fill="#D6D6D6"/>
<path d="M80.7865 184.637H78.5273V189.135H80.7865V184.637Z" fill="#D6D6D6"/>
<path d="M84.7864 184.637H82.5273V189.135H84.7864V184.637Z" fill="#D6D6D6"/>
<path d="M88.7903 184.637H86.5312V189.135H88.7903V184.637Z" fill="#D6D6D6"/>
<path d="M72.7786 191.946H70.5195V196.445H72.7786V191.946Z" fill="#D6D6D6"/>
<path d="M76.7865 191.946H74.5273V196.445H76.7865V191.946Z" fill="#D6D6D6"/>
<path d="M80.7865 191.946H78.5273V196.445H80.7865V191.946Z" fill="#D6D6D6"/>
<path d="M84.7864 191.946H82.5273V196.445H84.7864V191.946Z" fill="#D6D6D6"/>
<path d="M88.7903 191.946H86.5312V196.445H88.7903V191.946Z" fill="#D6D6D6"/>
<path d="M72.7786 199.261H70.5195V203.759H72.7786V199.261Z" fill="#D6D6D6"/>
<path d="M76.7865 199.261H74.5273V203.759H76.7865V199.261Z" fill="#D6D6D6"/>
<path d="M80.7865 199.261H78.5273V203.759H80.7865V199.261Z" fill="#D6D6D6"/>
<path d="M84.7864 199.261H82.5273V203.759H84.7864V199.261Z" fill="#D6D6D6"/>
<path d="M88.7903 199.261H86.5312V203.759H88.7903V199.261Z" fill="#D6D6D6"/>
<path d="M72.7786 206.576H70.5195V211.075H72.7786V206.576Z" fill="#D6D6D6"/>
<path d="M76.7865 206.576H74.5273V211.075H76.7865V206.576Z" fill="#D6D6D6"/>
<path d="M80.7865 206.576H78.5273V211.075H80.7865V206.576Z" fill="#D6D6D6"/>
<path d="M84.7864 206.576H82.5273V211.075H84.7864V206.576Z" fill="#D6D6D6"/>
<path d="M88.7903 206.576H86.5312V211.075H88.7903V206.576Z" fill="#D6D6D6"/>
<path d="M72.7786 213.892H70.5195V227.057H72.7786V213.892Z" fill="#D6D6D6"/>
<path d="M76.7865 213.892H74.5273V227.057H76.7865V213.892Z" fill="#D6D6D6"/>
<path d="M80.7865 213.892H78.5273V227.057H80.7865V213.892Z" fill="#D6D6D6"/>
<path d="M84.7864 213.892H82.5273V227.057H84.7864V213.892Z" fill="#D6D6D6"/>
<path d="M88.7903 213.892H86.5312V227.057H88.7903V213.892Z" fill="#D6D6D6"/>
<path d="M105.119 112.567H90.8047V227.052H105.119V112.567Z" fill="#DBDBDB"/>
<path d="M105.74 110.288H90.8047V112.567H105.74V110.288Z" fill="#C7C7C7"/>
<path d="M95.0833 115.926H92.8242V227.051H95.0833V115.926Z" fill="#C7C7C7"/>
<path d="M99.0833 115.926H96.8242V227.051H99.0833V115.926Z" fill="#C7C7C7"/>
<path d="M103.079 115.926H100.82V227.051H103.079V115.926Z" fill="#C7C7C7"/>
<path d="M95.0833 118.807H92.8242V123.305H95.0833V118.807Z" fill="#DBDBDB"/>
<path d="M99.0833 118.807H96.8242V123.305H99.0833V118.807Z" fill="#DBDBDB"/>
<path d="M103.079 118.807H100.82V123.305H103.079V118.807Z" fill="#DBDBDB"/>
<path d="M95.0833 126.122H92.8242V130.621H95.0833V126.122Z" fill="#DBDBDB"/>
<path d="M99.0833 126.122H96.8242V130.621H99.0833V126.122Z" fill="#DBDBDB"/>
<path d="M103.079 126.122H100.82V130.621H103.079V126.122Z" fill="#DBDBDB"/>
<path d="M95.0833 133.438H92.8242V137.936H95.0833V133.438Z" fill="#DBDBDB"/>
<path d="M99.0833 133.438H96.8242V137.936H99.0833V133.438Z" fill="#DBDBDB"/>
<path d="M103.079 133.438H100.82V137.936H103.079V133.438Z" fill="#DBDBDB"/>
<path d="M95.0833 140.751H92.8242V145.249H95.0833V140.751Z" fill="#DBDBDB"/>
<path d="M99.0833 140.751H96.8242V145.249H99.0833V140.751Z" fill="#DBDBDB"/>
<path d="M103.079 140.751H100.82V145.249H103.079V140.751Z" fill="#DBDBDB"/>
<path d="M95.0833 148.065H92.8242V152.564H95.0833V148.065Z" fill="#DBDBDB"/>
<path d="M99.0833 148.065H96.8242V152.564H99.0833V148.065Z" fill="#DBDBDB"/>
<path d="M103.079 148.065H100.82V152.564H103.079V148.065Z" fill="#DBDBDB"/>
<path d="M95.0833 155.378H92.8242V159.876H95.0833V155.378Z" fill="#DBDBDB"/>
<path d="M99.0833 155.378H96.8242V159.876H99.0833V155.378Z" fill="#DBDBDB"/>
<path d="M103.079 155.378H100.82V159.876H103.079V155.378Z" fill="#DBDBDB"/>
<path d="M95.0833 162.691H92.8242V167.19H95.0833V162.691Z" fill="#DBDBDB"/>
<path d="M99.0833 162.691H96.8242V167.19H99.0833V162.691Z" fill="#DBDBDB"/>
<path d="M103.079 162.691H100.82V167.19H103.079V162.691Z" fill="#DBDBDB"/>
<path d="M95.0833 170.006H92.8242V174.504H95.0833V170.006Z" fill="#DBDBDB"/>
<path d="M99.0833 170.006H96.8242V174.504H99.0833V170.006Z" fill="#DBDBDB"/>
<path d="M103.079 170.006H100.82V174.504H103.079V170.006Z" fill="#DBDBDB"/>
<path d="M95.0833 177.32H92.8242V181.819H95.0833V177.32Z" fill="#DBDBDB"/>
<path d="M99.0833 177.32H96.8242V181.819H99.0833V177.32Z" fill="#DBDBDB"/>
<path d="M103.079 177.32H100.82V181.819H103.079V177.32Z" fill="#DBDBDB"/>
<path d="M95.0833 184.637H92.8242V189.135H95.0833V184.637Z" fill="#DBDBDB"/>
<path d="M99.0833 184.637H96.8242V189.135H99.0833V184.637Z" fill="#DBDBDB"/>
<path d="M103.079 184.637H100.82V189.135H103.079V184.637Z" fill="#DBDBDB"/>
<path d="M95.0833 191.946H92.8242V196.445H95.0833V191.946Z" fill="#DBDBDB"/>
<path d="M99.0833 191.946H96.8242V196.445H99.0833V191.946Z" fill="#DBDBDB"/>
<path d="M103.079 191.946H100.82V196.445H103.079V191.946Z" fill="#DBDBDB"/>
<path d="M95.0833 199.261H92.8242V203.759H95.0833V199.261Z" fill="#DBDBDB"/>
<path d="M99.0833 199.261H96.8242V203.759H99.0833V199.261Z" fill="#DBDBDB"/>
<path d="M103.079 199.261H100.82V203.759H103.079V199.261Z" fill="#DBDBDB"/>
<path d="M95.0833 206.576H92.8242V211.075H95.0833V206.576Z" fill="#DBDBDB"/>
<path d="M99.0833 206.576H96.8242V211.075H99.0833V206.576Z" fill="#DBDBDB"/>
<path d="M103.079 206.576H100.82V211.075H103.079V206.576Z" fill="#DBDBDB"/>
<path d="M95.0833 213.892H92.8242V227.057H95.0833V213.892Z" fill="#DBDBDB"/>
<path d="M99.0833 213.892H96.8242V227.057H99.0833V213.892Z" fill="#DBDBDB"/>
<path d="M103.079 213.892H100.82V227.057H103.079V213.892Z" fill="#DBDBDB"/>
<path d="M64.7708 146.857H43.625V227.056H64.7708V146.857Z" fill="#D6D6D6"/>
<path d="M64.762 141.536H46.625V146.853H64.762V141.536Z" fill="#C7C7C7"/>
<path d="M62.4467 149.631H45.9375V209.581H62.4467V149.631Z" fill="#DBDBDB"/>
<path d="M62.4467 155.352H45.9375V156.767H62.4467V155.352Z" fill="white"/>
<path d="M62.4467 161.221H45.9375V162.636H62.4467V161.221Z" fill="white"/>
<path d="M62.4467 167.091H45.9375V168.506H62.4467V167.091Z" fill="white"/>
<path d="M62.4467 172.956H45.9375V174.372H62.4467V172.956Z" fill="white"/>
<path d="M62.4467 178.826H45.9375V180.242H62.4467V178.826Z" fill="white"/>
<path d="M62.4467 184.695H45.9375V186.111H62.4467V184.695Z" fill="white"/>
<path d="M62.4467 190.562H45.9375V191.977H62.4467V190.562Z" fill="white"/>
<path d="M62.4467 196.431H45.9375V197.846H62.4467V196.431Z" fill="white"/>
<path d="M62.4467 202.301H45.9375V203.716H62.4467V202.301Z" fill="white"/>
<path d="M62.4467 208.169H45.9375V209.585H62.4467V208.169Z" fill="white"/>
<path d="M78.0056 146.857H64.7617V227.056H78.0056V146.857Z" fill="#DBDBDB"/>
<path d="M76.0178 141.536H64.7617V146.853H76.0178V141.536Z" fill="#A6A6A6"/>
<path d="M76.7755 149.631H66.5898V209.581H76.7755V149.631Z" fill="#C7C7C7"/>
<path d="M76.7755 155.352H66.5898V156.767H76.7755V155.352Z" fill="white"/>
<path d="M76.7755 161.221H66.5898V162.636H76.7755V161.221Z" fill="white"/>
<path d="M76.7755 167.091H66.5898V168.506H76.7755V167.091Z" fill="white"/>
<path d="M76.7755 172.956H66.5898V174.372H76.7755V172.956Z" fill="white"/>
<path d="M76.7755 178.826H66.5898V180.242H76.7755V178.826Z" fill="white"/>
<path d="M76.7755 184.695H66.5898V186.111H76.7755V184.695Z" fill="white"/>
<path d="M76.7755 190.562H66.5898V191.977H76.7755V190.562Z" fill="white"/>
<path d="M76.7755 196.431H66.5898V197.846H76.7755V196.431Z" fill="white"/>
<path d="M76.7755 202.301H66.5898V203.716H76.7755V202.301Z" fill="white"/>
<path d="M76.7755 208.169H66.5898V209.585H76.7755V208.169Z" fill="white"/>
<path d="M228.698 148.21H217.402V161.552H228.698V148.21Z" fill="#DBDBDB"/>
<path d="M235.865 148.21H228.703V162.041H235.865V148.21Z" fill="#C7C7C7"/>
<path d="M236.334 154.1H229.227V162.041H236.334V154.1Z" fill="#DBDBDB"/>
<path d="M240.766 154.1H236.332V162.041H240.766V154.1Z" fill="#C7C7C7"/>
<path d="M231.331 160.685H213.07V227.057H231.331V160.685Z" fill="#D6D6D6"/>
<path d="M220.902 163.535H215.16V165.883H220.902V163.535Z" fill="white"/>
<path d="M228.245 163.535H222.504V165.883H228.245V163.535Z" fill="white"/>
<path d="M220.902 167.521H215.16V169.868H220.902V167.521Z" fill="white"/>
<path d="M228.245 167.521H222.504V169.868H228.245V167.521Z" fill="white"/>
<path d="M220.902 171.5H215.16V173.848H220.902V171.5Z" fill="white"/>
<path d="M228.245 171.5H222.504V173.848H228.245V171.5Z" fill="white"/>
<path d="M220.902 175.486H215.16V177.834H220.902V175.486Z" fill="white"/>
<path d="M228.245 175.486H222.504V177.834H228.245V175.486Z" fill="white"/>
<path d="M220.902 179.472H215.16V181.82H220.902V179.472Z" fill="white"/>
<path d="M228.245 179.472H222.504V181.82H228.245V179.472Z" fill="white"/>
<path d="M220.902 183.452H215.16V185.8H220.902V183.452Z" fill="white"/>
<path d="M228.245 183.452H222.504V185.8H228.245V183.452Z" fill="white"/>
<path d="M220.902 187.438H215.16V189.786H220.902V187.438Z" fill="white"/>
<path d="M228.245 187.438H222.504V189.786H228.245V187.438Z" fill="white"/>
<path d="M220.902 191.424H215.16V193.772H220.902V191.424Z" fill="white"/>
<path d="M228.245 191.424H222.504V193.772H228.245V191.424Z" fill="white"/>
<path d="M220.902 195.405H215.16V197.753H220.902V195.405Z" fill="white"/>
<path d="M228.245 195.405H222.504V197.753H228.245V195.405Z" fill="white"/>
<path d="M220.902 199.39H215.16V201.738H220.902V199.39Z" fill="white"/>
<path d="M228.245 199.39H222.504V201.738H228.245V199.39Z" fill="white"/>
<path d="M220.902 203.375H215.16V205.723H220.902V203.375Z" fill="white"/>
<path d="M228.245 203.375H222.504V205.723H228.245V203.375Z" fill="white"/>
<path d="M220.902 207.355H215.16V209.703H220.902V207.355Z" fill="white"/>
<path d="M228.245 207.355H222.504V209.703H228.245V207.355Z" fill="white"/>
<path d="M220.902 211.341H215.16V213.689H220.902V211.341Z" fill="white"/>
<path d="M228.245 211.341H222.504V213.689H228.245V211.341Z" fill="white"/>
<path d="M220.902 215.322H215.16V217.67H220.902V215.322Z" fill="white"/>
<path d="M228.245 215.322H222.504V217.67H228.245V215.322Z" fill="white"/>
<path d="M246.134 160.685H231.336V227.057H246.134V160.685Z" fill="#C7C7C7"/>
<path d="M239.925 217.674H244.641V215.326H239.925V217.674Z" fill="#D6D6D6"/>
<path d="M233.902 217.674H238.617V215.326H233.902V217.674Z" fill="#D6D6D6"/>
<path d="M239.925 213.684H244.641V211.336H239.925V213.684Z" fill="#D6D6D6"/>
<path d="M233.902 213.684H238.617V211.336H233.902V213.684Z" fill="#D6D6D6"/>
<path d="M239.925 209.704H244.641V207.356H239.925V209.704Z" fill="#D6D6D6"/>
<path d="M233.902 209.704H238.617V207.356H233.902V209.704Z" fill="#D6D6D6"/>
<path d="M239.925 205.718H244.641V203.37H239.925V205.718Z" fill="#D6D6D6"/>
<path d="M233.902 205.718H238.617V203.37H233.902V205.718Z" fill="#D6D6D6"/>
<path d="M239.925 201.732H244.641V199.385H239.925V201.732Z" fill="#D6D6D6"/>
<path d="M233.902 201.732H238.617V199.385H233.902V201.732Z" fill="#D6D6D6"/>
<path d="M239.925 197.752H244.641V195.404H239.925V197.752Z" fill="#D6D6D6"/>
<path d="M233.902 197.752H238.617V195.404H233.902V197.752Z" fill="#D6D6D6"/>
<path d="M239.925 193.767H244.641V191.419H239.925V193.767Z" fill="#D6D6D6"/>
<path d="M233.902 193.767H238.617V191.419H233.902V193.767Z" fill="#D6D6D6"/>
<path d="M239.925 189.786H244.641V187.438H239.925V189.786Z" fill="#D6D6D6"/>
<path d="M233.902 189.786H238.617V187.438H233.902V189.786Z" fill="#D6D6D6"/>
<path d="M239.925 185.801H244.641V183.453H239.925V185.801Z" fill="#D6D6D6"/>
<path d="M233.902 185.801H238.617V183.453H233.902V185.801Z" fill="#D6D6D6"/>
<path d="M239.925 181.814H244.641V179.467H239.925V181.814Z" fill="#D6D6D6"/>
<path d="M233.902 181.814H238.617V179.467H233.902V181.814Z" fill="#D6D6D6"/>
<path d="M239.925 177.835H244.641V175.487H239.925V177.835Z" fill="#D6D6D6"/>
<path d="M233.902 177.835H238.617V175.487H233.902V177.835Z" fill="#D6D6D6"/>
<path d="M239.925 173.849H244.641V171.501H239.925V173.849Z" fill="#D6D6D6"/>
<path d="M233.902 173.849H238.617V171.501H233.902V173.849Z" fill="#D6D6D6"/>
<path d="M239.925 169.863H244.641V167.515H239.925V169.863Z" fill="#D6D6D6"/>
<path d="M233.902 169.863H238.617V167.515H233.902V169.863Z" fill="#D6D6D6"/>
<path d="M239.925 165.882H244.641V163.534H239.925V165.882Z" fill="#D6D6D6"/>
<path d="M233.902 165.882H238.617V163.534H233.902V165.882Z" fill="#D6D6D6"/>
<path d="M165.372 183.805H143.832V227.053H165.372V183.805Z" fill="#C7C7C7"/>
<path d="M151.032 187.548H147.219V190.197H151.032V187.548Z" fill="#DBDBDB"/>
<path d="M151.032 193.209H147.219V195.858H151.032V193.209Z" fill="#DBDBDB"/>
<path d="M151.032 198.866H147.219V201.515H151.032V198.866Z" fill="#DBDBDB"/>
<path d="M151.032 204.525H147.219V207.174H151.032V204.525Z" fill="#DBDBDB"/>
<path d="M151.032 210.187H147.219V212.835H151.032V210.187Z" fill="#DBDBDB"/>
<path d="M151.032 215.845H147.219V218.493H151.032V215.845Z" fill="#DBDBDB"/>
<path d="M151.032 221.503H147.219V224.152H151.032V221.503Z" fill="#DBDBDB"/>
<path d="M156.52 187.548H152.707V190.197H156.52V187.548Z" fill="#DBDBDB"/>
<path d="M156.52 193.209H152.707V195.858H156.52V193.209Z" fill="#DBDBDB"/>
<path d="M156.52 198.866H152.707V201.515H156.52V198.866Z" fill="#DBDBDB"/>
<path d="M156.52 204.525H152.707V207.174H156.52V204.525Z" fill="#DBDBDB"/>
<path d="M156.52 210.187H152.707V212.835H156.52V210.187Z" fill="#DBDBDB"/>
<path d="M156.52 215.845H152.707V218.493H156.52V215.845Z" fill="#DBDBDB"/>
<path d="M156.52 221.503H152.707V224.152H156.52V221.503Z" fill="#DBDBDB"/>
<path d="M161.985 187.548H158.172V190.197H161.985V187.548Z" fill="#DBDBDB"/>
<path d="M161.985 193.209H158.172V195.858H161.985V193.209Z" fill="#DBDBDB"/>
<path d="M161.985 198.866H158.172V201.515H161.985V198.866Z" fill="#DBDBDB"/>
<path d="M161.985 204.525H158.172V207.174H161.985V204.525Z" fill="#DBDBDB"/>
<path d="M161.985 210.187H158.172V212.835H161.985V210.187Z" fill="#DBDBDB"/>
<path d="M161.985 215.845H158.172V218.493H161.985V215.845Z" fill="#DBDBDB"/>
<path d="M161.985 221.503H158.172V224.152H161.985V221.503Z" fill="#DBDBDB"/>
<path d="M165.37 179.3H151.031V183.808H165.37V179.3Z" fill="#DBDBDB"/>
<path d="M165.368 176.508H156.277V179.3H165.368V176.508Z" fill="#D6D6D6"/>
<path d="M180.484 183.805H165.371V227.053H180.484V183.805Z" fill="#A6A6A6"/>
<path d="M175.839 223.731H178.941V221.083H175.839V223.731Z" fill="#C7C7C7"/>
<path d="M175.839 218.074H178.941V215.425H175.839V218.074Z" fill="#C7C7C7"/>
<path d="M175.839 212.411H178.941V209.762H175.839V212.411Z" fill="#C7C7C7"/>
<path d="M175.839 206.753H178.941V204.104H175.839V206.753Z" fill="#C7C7C7"/>
<path d="M175.839 201.097H178.941V198.448H175.839V201.097Z" fill="#C7C7C7"/>
<path d="M175.839 195.434H178.941V192.785H175.839V195.434Z" fill="#C7C7C7"/>
<path d="M175.839 189.771H178.941V187.122H175.839V189.771Z" fill="#C7C7C7"/>
<path d="M171.374 223.731H174.477V221.083H171.374V223.731Z" fill="#C7C7C7"/>
<path d="M171.374 218.074H174.477V215.425H171.374V218.074Z" fill="#C7C7C7"/>
<path d="M171.374 212.411H174.477V209.762H171.374V212.411Z" fill="#C7C7C7"/>
<path d="M171.374 206.753H174.477V204.104H171.374V206.753Z" fill="#C7C7C7"/>
<path d="M171.374 201.097H174.477V198.448H171.374V201.097Z" fill="#C7C7C7"/>
<path d="M171.374 195.434H174.477V192.785H171.374V195.434Z" fill="#C7C7C7"/>
<path d="M171.374 189.771H174.477V187.122H171.374V189.771Z" fill="#C7C7C7"/>
<path d="M166.925 223.731H170.027V221.083H166.925V223.731Z" fill="#C7C7C7"/>
<path d="M166.925 218.074H170.027V215.425H166.925V218.074Z" fill="#C7C7C7"/>
<path d="M166.925 212.411H170.027V209.762H166.925V212.411Z" fill="#C7C7C7"/>
<path d="M166.925 206.753H170.027V204.104H166.925V206.753Z" fill="#C7C7C7"/>
<path d="M166.925 201.097H170.027V198.448H166.925V201.097Z" fill="#C7C7C7"/>
<path d="M166.925 195.434H170.027V192.785H166.925V195.434Z" fill="#C7C7C7"/>
<path d="M166.925 189.771H170.027V187.122H166.925V189.771Z" fill="#C7C7C7"/>
<path d="M178.196 179.3H165.371V183.808H178.196V179.3Z" fill="#C7C7C7"/>
<path d="M172.321 176.508H165.371V179.3H172.321V176.508Z" fill="#DBDBDB"/>
<path d="M220.879 123.518H188.324V223.471H220.879V123.518Z" fill="#848484"/>
<path d="M220.759 113.459H196.402V123.512H220.759V113.459Z" fill="#C4C4C4"/>
<path d="M200.515 115.014H198.434V121.964H200.515V115.014Z" fill="#848484"/>
<path d="M204.152 115.014H202.07V121.964H204.152V115.014Z" fill="#848484"/>
<path d="M207.796 115.014H205.715V121.964H207.796V115.014Z" fill="#848484"/>
<path d="M211.441 115.014H209.359V121.964H211.441V115.014Z" fill="#848484"/>
<path d="M215.089 115.014H213.008V121.964H215.089V115.014Z" fill="#848484"/>
<path d="M218.73 115.014H216.648V121.964H218.73V115.014Z" fill="#848484"/>
<path d="M231.84 113.459H220.762V123.512H231.84V113.459Z" fill="#848484"/>
<path d="M224.083 115.014H222.312V121.964H224.083V115.014Z" fill="#C4C4C4"/>
<path d="M227.181 115.014H225.41V121.964H227.181V115.014Z" fill="#C4C4C4"/>
<path d="M230.283 115.014H228.512V121.964H230.283V115.014Z" fill="#C4C4C4"/>
<path d="M237.33 123.518H220.762V223.471H237.33V123.518Z" fill="#C4C4C4"/>
<path d="M201.764 108.365H201.02V113.461H201.764V108.365Z" fill="#E7E7E7"/>
<path d="M216.139 108.365H215.395V113.461H216.139V108.365Z" fill="#E7E7E7"/>
<path d="M219.442 99.4561H197.719V108.364H219.442V99.4561Z" fill="#C6C6C6"/>
<path d="M201 130.398H194.992V139.598H201V130.398Z" fill="#E7E7E7"/>
<path d="M213.23 130.398H207.223V139.598H213.23V130.398Z" fill="#E7E7E7"/>
<path d="M201 144.901H194.992V154.101H201V144.901Z" fill="#E7E7E7"/>
<path d="M213.23 144.901H207.223V154.101H213.23V144.901Z" fill="#E7E7E7"/>
<path d="M201 159.396H194.992V168.596H201V159.396Z" fill="#E7E7E7"/>
<path d="M213.23 159.396H207.223V168.596H213.23V159.396Z" fill="#E7E7E7"/>
<path d="M201 173.898H194.992V183.098H201V173.898Z" fill="#E7E7E7"/>
<path d="M213.23 173.898H207.223V183.098H213.23V173.898Z" fill="#E7E7E7"/>
<path d="M201 188.395H194.992V197.594H201V188.395Z" fill="#E7E7E7"/>
<path d="M213.23 188.395H207.223V197.594H213.23V188.395Z" fill="#E7E7E7"/>
<path d="M201 202.893H194.992V212.092H201V202.893Z" fill="#E7E7E7"/>
<path d="M213.23 202.893H207.223V212.092H213.23V202.893Z" fill="#E7E7E7"/>
<path d="M227.254 130.398H223.801V139.598H227.254V130.398Z" fill="#E7E7E7"/>
<path d="M234.285 130.398H230.832V139.598H234.285V130.398Z" fill="#E7E7E7"/>
<path d="M227.254 144.901H223.801V154.101H227.254V144.901Z" fill="#E7E7E7"/>
<path d="M234.285 144.901H230.832V154.101H234.285V144.901Z" fill="#E7E7E7"/>
<path d="M227.254 159.396H223.801V168.596H227.254V159.396Z" fill="#E7E7E7"/>
<path d="M234.285 159.396H230.832V168.596H234.285V159.396Z" fill="#E7E7E7"/>
<path d="M227.254 173.898H223.801V183.098H227.254V173.898Z" fill="#E7E7E7"/>
<path d="M234.285 173.898H230.832V183.098H234.285V173.898Z" fill="#E7E7E7"/>
<path d="M227.254 188.395H223.801V197.594H227.254V188.395Z" fill="#E7E7E7"/>
<path d="M234.285 188.395H230.832V197.594H234.285V188.395Z" fill="#E7E7E7"/>
<path d="M227.254 202.893H223.801V212.092H227.254V202.893Z" fill="#E7E7E7"/>
<path d="M234.285 202.893H230.832V212.092H234.285V202.893Z" fill="#E7E7E7"/>
<path d="M134.615 95.2402H117.203V223.467H134.615V95.2402Z" fill="#C4C4C4"/>
<path d="M134.615 102.427H117.203V103.773H134.615V102.427Z" fill="#848484"/>
<path d="M122.206 107.733H119V115.231H122.206V107.733Z" fill="#E7E7E7"/>
<path d="M122.206 117.195H119V124.693H122.206V117.195Z" fill="#E7E7E7"/>
<path d="M122.206 126.649H119V134.147H122.206V126.649Z" fill="#E7E7E7"/>
<path d="M122.206 136.104H119V143.602H122.206V136.104Z" fill="#E7E7E7"/>
<path d="M122.206 145.566H119V153.064H122.206V145.566Z" fill="#E7E7E7"/>
<path d="M122.206 155.026H119V162.524H122.206V155.026Z" fill="#E7E7E7"/>
<path d="M122.206 164.479H119V171.976H122.206V164.479Z" fill="#E7E7E7"/>
<path d="M122.206 173.938H119V181.435H122.206V173.938Z" fill="#E7E7E7"/>
<path d="M122.206 183.398H119V190.896H122.206V183.398Z" fill="#E7E7E7"/>
<path d="M122.206 192.854H119V200.352H122.206V192.854Z" fill="#E7E7E7"/>
<path d="M122.206 202.31H119V209.807H122.206V202.31Z" fill="#E7E7E7"/>
<path d="M122.206 211.771H119V219.268H122.206V211.771Z" fill="#E7E7E7"/>
<path d="M122.206 107.733H119V115.231H122.206V107.733Z" fill="#E7E7E7"/>
<path d="M122.206 117.195H119V124.693H122.206V117.195Z" fill="#E7E7E7"/>
<path d="M122.206 126.649H119V134.147H122.206V126.649Z" fill="#E7E7E7"/>
<path d="M122.206 136.104H119V143.602H122.206V136.104Z" fill="#E7E7E7"/>
<path d="M122.206 145.566H119V153.064H122.206V145.566Z" fill="#E7E7E7"/>
<path d="M122.206 155.026H119V162.524H122.206V155.026Z" fill="#E7E7E7"/>
<path d="M122.206 164.479H119V171.976H122.206V164.479Z" fill="#E7E7E7"/>
<path d="M122.206 173.938H119V181.435H122.206V173.938Z" fill="#E7E7E7"/>
<path d="M122.206 183.398H119V190.896H122.206V183.398Z" fill="#E7E7E7"/>
<path d="M122.206 192.854H119V200.352H122.206V192.854Z" fill="#E7E7E7"/>
<path d="M122.206 202.31H119V209.807H122.206V202.31Z" fill="#E7E7E7"/>
<path d="M122.206 211.771H119V219.268H122.206V211.771Z" fill="#E7E7E7"/>
<path d="M127.511 107.733H124.305V115.231H127.511V107.733Z" fill="#E7E7E7"/>
<path d="M127.511 117.195H124.305V124.693H127.511V117.195Z" fill="#E7E7E7"/>
<path d="M127.511 126.649H124.305V134.147H127.511V126.649Z" fill="#E7E7E7"/>
<path d="M127.511 136.104H124.305V143.602H127.511V136.104Z" fill="#E7E7E7"/>
<path d="M127.511 145.566H124.305V153.064H127.511V145.566Z" fill="#E7E7E7"/>
<path d="M127.511 155.026H124.305V162.524H127.511V155.026Z" fill="#E7E7E7"/>
<path d="M127.511 164.479H124.305V171.976H127.511V164.479Z" fill="#E7E7E7"/>
<path d="M127.511 173.938H124.305V181.435H127.511V173.938Z" fill="#E7E7E7"/>
<path d="M127.511 183.398H124.305V190.896H127.511V183.398Z" fill="#E7E7E7"/>
<path d="M127.511 192.854H124.305V200.352H127.511V192.854Z" fill="#E7E7E7"/>
<path d="M127.511 202.31H124.305V209.807H127.511V202.31Z" fill="#E7E7E7"/>
<path d="M127.511 211.771H124.305V219.268H127.511V211.771Z" fill="#E7E7E7"/>
<path d="M127.511 107.733H124.305V115.231H127.511V107.733Z" fill="#E7E7E7"/>
<path d="M127.511 117.195H124.305V124.693H127.511V117.195Z" fill="#E7E7E7"/>
<path d="M127.511 126.649H124.305V134.147H127.511V126.649Z" fill="#E7E7E7"/>
<path d="M127.511 136.104H124.305V143.602H127.511V136.104Z" fill="#E7E7E7"/>
<path d="M127.511 145.566H124.305V153.064H127.511V145.566Z" fill="#E7E7E7"/>
<path d="M127.511 155.026H124.305V162.524H127.511V155.026Z" fill="#E7E7E7"/>
<path d="M127.511 164.479H124.305V171.976H127.511V164.479Z" fill="#E7E7E7"/>
<path d="M127.511 173.938H124.305V181.435H127.511V173.938Z" fill="#E7E7E7"/>
<path d="M127.511 183.398H124.305V190.896H127.511V183.398Z" fill="#E7E7E7"/>
<path d="M127.511 192.854H124.305V200.352H127.511V192.854Z" fill="#E7E7E7"/>
<path d="M127.511 202.31H124.305V209.807H127.511V202.31Z" fill="#E7E7E7"/>
<path d="M127.511 211.771H124.305V219.268H127.511V211.771Z" fill="#E7E7E7"/>
<path d="M132.823 107.733H129.617V115.231H132.823V107.733Z" fill="#E7E7E7"/>
<path d="M132.823 117.195H129.617V124.693H132.823V117.195Z" fill="#E7E7E7"/>
<path d="M132.823 126.649H129.617V134.147H132.823V126.649Z" fill="#E7E7E7"/>
<path d="M132.823 136.104H129.617V143.602H132.823V136.104Z" fill="#E7E7E7"/>
<path d="M132.823 145.566H129.617V153.064H132.823V145.566Z" fill="#E7E7E7"/>
<path d="M132.823 155.026H129.617V162.524H132.823V155.026Z" fill="#E7E7E7"/>
<path d="M132.823 164.479H129.617V171.976H132.823V164.479Z" fill="#E7E7E7"/>
<path d="M132.823 173.938H129.617V181.435H132.823V173.938Z" fill="#E7E7E7"/>
<path d="M132.823 183.398H129.617V190.896H132.823V183.398Z" fill="#E7E7E7"/>
<path d="M132.823 192.854H129.617V200.352H132.823V192.854Z" fill="#E7E7E7"/>
<path d="M132.823 202.31H129.617V209.807H132.823V202.31Z" fill="#E7E7E7"/>
<path d="M132.823 211.771H129.617V219.268H132.823V211.771Z" fill="#E7E7E7"/>
<path d="M132.823 107.733H129.617V115.231H132.823V107.733Z" fill="#E7E7E7"/>
<path d="M132.823 117.195H129.617V124.693H132.823V117.195Z" fill="#E7E7E7"/>
<path d="M132.823 126.649H129.617V134.147H132.823V126.649Z" fill="#E7E7E7"/>
<path d="M132.823 136.104H129.617V143.602H132.823V136.104Z" fill="#E7E7E7"/>
<path d="M132.823 145.566H129.617V153.064H132.823V145.566Z" fill="#E7E7E7"/>
<path d="M132.823 155.026H129.617V162.524H132.823V155.026Z" fill="#E7E7E7"/>
<path d="M132.823 164.479H129.617V171.976H132.823V164.479Z" fill="#E7E7E7"/>
<path d="M132.823 173.938H129.617V181.435H132.823V173.938Z" fill="#E7E7E7"/>
<path d="M132.823 183.398H129.617V190.896H132.823V183.398Z" fill="#E7E7E7"/>
<path d="M132.823 192.854H129.617V200.352H132.823V192.854Z" fill="#E7E7E7"/>
<path d="M132.823 202.31H129.617V209.807H132.823V202.31Z" fill="#E7E7E7"/>
<path d="M132.823 211.771H129.617V219.268H132.823V211.771Z" fill="#E7E7E7"/>
<path d="M117.202 95.2402H87.4336V223.467H117.202V95.2402Z" fill="#848484"/>
<path d="M117.202 102.427H87.4336V103.773H117.202V102.427Z" fill="#C4C4C4"/>
<path d="M117.205 88.0381H98.0469V95.2396H117.205V88.0381Z" fill="#C4C4C4"/>
<path d="M117.205 95.2402H126.207V88.0387H117.205V95.2402Z" fill="#E7E7E7"/>
<path d="M95.8288 107.733H90.625V115.231H95.8288V107.733Z" fill="#E7E7E7"/>
<path d="M95.8288 117.195H90.625V124.693H95.8288V117.195Z" fill="#E7E7E7"/>
<path d="M95.8288 126.649H90.625V134.147H95.8288V126.649Z" fill="#E7E7E7"/>
<path d="M95.8288 136.104H90.625V143.602H95.8288V136.104Z" fill="#E7E7E7"/>
<path d="M95.8288 145.566H90.625V153.064H95.8288V145.566Z" fill="#E7E7E7"/>
<path d="M95.8288 155.026H90.625V162.524H95.8288V155.026Z" fill="#E7E7E7"/>
<path d="M95.8288 164.479H90.625V171.976H95.8288V164.479Z" fill="#E7E7E7"/>
<path d="M95.8288 173.938H90.625V181.435H95.8288V173.938Z" fill="#E7E7E7"/>
<path d="M95.8288 183.398H90.625V190.896H95.8288V183.398Z" fill="#E7E7E7"/>
<path d="M95.8288 192.854H90.625V200.352H95.8288V192.854Z" fill="#E7E7E7"/>
<path d="M95.8288 202.31H90.625V209.807H95.8288V202.31Z" fill="#E7E7E7"/>
<path d="M95.8288 211.771H90.625V219.268H95.8288V211.771Z" fill="#E7E7E7"/>
<path d="M95.8288 107.733H90.625V115.231H95.8288V107.733Z" fill="#E7E7E7"/>
<path d="M95.8288 117.195H90.625V124.693H95.8288V117.195Z" fill="#E7E7E7"/>
<path d="M95.8288 126.649H90.625V134.147H95.8288V126.649Z" fill="#E7E7E7"/>
<path d="M95.8288 136.104H90.625V143.602H95.8288V136.104Z" fill="#E7E7E7"/>
<path d="M95.8288 145.566H90.625V153.064H95.8288V145.566Z" fill="#E7E7E7"/>
<path d="M95.8288 155.026H90.625V162.524H95.8288V155.026Z" fill="#E7E7E7"/>
<path d="M95.8288 164.479H90.625V171.976H95.8288V164.479Z" fill="#E7E7E7"/>
<path d="M95.8288 173.938H90.625V181.435H95.8288V173.938Z" fill="#E7E7E7"/>
<path d="M95.8288 183.398H90.625V190.896H95.8288V183.398Z" fill="#E7E7E7"/>
<path d="M95.8288 192.854H90.625V200.352H95.8288V192.854Z" fill="#E7E7E7"/>
<path d="M95.8288 202.31H90.625V209.807H95.8288V202.31Z" fill="#E7E7E7"/>
<path d="M95.8288 211.771H90.625V219.268H95.8288V211.771Z" fill="#E7E7E7"/>
<path d="M104.454 107.733H99.25V115.231H104.454V107.733Z" fill="#E7E7E7"/>
<path d="M104.454 117.195H99.25V124.693H104.454V117.195Z" fill="#E7E7E7"/>
<path d="M104.454 126.649H99.25V134.147H104.454V126.649Z" fill="#E7E7E7"/>
<path d="M104.454 136.104H99.25V143.602H104.454V136.104Z" fill="#E7E7E7"/>
<path d="M104.454 145.566H99.25V153.064H104.454V145.566Z" fill="#E7E7E7"/>
<path d="M104.454 155.026H99.25V162.524H104.454V155.026Z" fill="#E7E7E7"/>
<path d="M104.454 164.479H99.25V171.976H104.454V164.479Z" fill="#E7E7E7"/>
<path d="M104.454 173.938H99.25V181.435H104.454V173.938Z" fill="#E7E7E7"/>
<path d="M104.454 183.398H99.25V190.896H104.454V183.398Z" fill="#E7E7E7"/>
<path d="M104.454 192.854H99.25V200.352H104.454V192.854Z" fill="#E7E7E7"/>
<path d="M104.454 202.31H99.25V209.807H104.454V202.31Z" fill="#E7E7E7"/>
<path d="M104.454 211.771H99.25V219.268H104.454V211.771Z" fill="#E7E7E7"/>
<path d="M104.454 107.733H99.25V115.231H104.454V107.733Z" fill="#E7E7E7"/>
<path d="M104.454 117.195H99.25V124.693H104.454V117.195Z" fill="#E7E7E7"/>
<path d="M104.454 126.649H99.25V134.147H104.454V126.649Z" fill="#E7E7E7"/>
<path d="M104.454 136.104H99.25V143.602H104.454V136.104Z" fill="#E7E7E7"/>
<path d="M104.454 145.566H99.25V153.064H104.454V145.566Z" fill="#E7E7E7"/>
<path d="M104.454 155.026H99.25V162.524H104.454V155.026Z" fill="#E7E7E7"/>
<path d="M104.454 164.479H99.25V171.976H104.454V164.479Z" fill="#E7E7E7"/>
<path d="M104.454 173.938H99.25V181.435H104.454V173.938Z" fill="#E7E7E7"/>
<path d="M104.454 183.398H99.25V190.896H104.454V183.398Z" fill="#E7E7E7"/>
<path d="M104.454 192.854H99.25V200.352H104.454V192.854Z" fill="#E7E7E7"/>
<path d="M104.454 202.31H99.25V209.807H104.454V202.31Z" fill="#E7E7E7"/>
<path d="M104.454 211.771H99.25V219.268H104.454V211.771Z" fill="#E7E7E7"/>
<path d="M113.071 107.733H107.867V115.231H113.071V107.733Z" fill="#E7E7E7"/>
<path d="M113.071 117.195H107.867V124.693H113.071V117.195Z" fill="#E7E7E7"/>
<path d="M113.071 126.649H107.867V134.147H113.071V126.649Z" fill="#E7E7E7"/>
<path d="M113.071 136.104H107.867V143.602H113.071V136.104Z" fill="#E7E7E7"/>
<path d="M113.071 145.566H107.867V153.064H113.071V145.566Z" fill="#E7E7E7"/>
<path d="M113.071 155.026H107.867V162.524H113.071V155.026Z" fill="#E7E7E7"/>
<path d="M113.071 164.479H107.867V171.976H113.071V164.479Z" fill="#E7E7E7"/>
<path d="M113.071 173.938H107.867V181.435H113.071V173.938Z" fill="#E7E7E7"/>
<path d="M113.071 183.398H107.867V190.896H113.071V183.398Z" fill="#E7E7E7"/>
<path d="M113.071 192.854H107.867V200.352H113.071V192.854Z" fill="#E7E7E7"/>
<path d="M113.071 202.31H107.867V209.807H113.071V202.31Z" fill="#E7E7E7"/>
<path d="M113.071 211.771H107.867V219.268H113.071V211.771Z" fill="#E7E7E7"/>
<path d="M113.071 107.733H107.867V115.231H113.071V107.733Z" fill="#E7E7E7"/>
<path d="M113.071 117.195H107.867V124.693H113.071V117.195Z" fill="#E7E7E7"/>
<path d="M113.071 126.649H107.867V134.147H113.071V126.649Z" fill="#E7E7E7"/>
<path d="M113.071 136.104H107.867V143.602H113.071V136.104Z" fill="#E7E7E7"/>
<path d="M113.071 145.566H107.867V153.064H113.071V145.566Z" fill="#E7E7E7"/>
<path d="M113.071 155.026H107.867V162.524H113.071V155.026Z" fill="#E7E7E7"/>
<path d="M113.071 164.479H107.867V171.976H113.071V164.479Z" fill="#E7E7E7"/>
<path d="M113.071 173.938H107.867V181.435H113.071V173.938Z" fill="#E7E7E7"/>
<path d="M113.071 183.398H107.867V190.896H113.071V183.398Z" fill="#E7E7E7"/>
<path d="M113.071 192.854H107.867V200.352H113.071V192.854Z" fill="#E7E7E7"/>
<path d="M113.071 202.31H107.867V209.807H113.071V202.31Z" fill="#E7E7E7"/>
<path d="M113.071 211.771H107.867V219.268H113.071V211.771Z" fill="#E7E7E7"/>
<path d="M76.1442 223.465H52.5469V149.442L76.1442 134.146V223.465Z" fill="#C6C6C6"/>
<path d="M73.1093 223.465H55.1992V151.514L73.1093 139.908V223.465Z" fill="#C6C6C6"/>
<path opacity="0.3" d="M73.1093 223.465H55.1992V151.514L73.1093 139.908V223.465Z" fill="black"/>
<g opacity="0.3">
<path d="M73.1081 152.757H57.25V153.329H73.1081V152.757Z" fill="black"/>
<path d="M73.1081 157.435H57.25V158.007H73.1081V157.435Z" fill="black"/>
<path d="M73.1081 162.11H57.25V162.683H73.1081V162.11Z" fill="black"/>
<path d="M73.1081 166.786H57.25V167.358H73.1081V166.786Z" fill="black"/>
<path d="M73.1081 171.463H57.25V172.035H73.1081V171.463Z" fill="black"/>
<path d="M73.1081 176.138H57.25V176.71H73.1081V176.138Z" fill="black"/>
<path d="M73.1081 180.813H57.25V181.386H73.1081V180.813Z" fill="black"/>
<path d="M73.1081 185.49H57.25V186.062H73.1081V185.49Z" fill="black"/>
<path d="M73.1081 190.167H57.25V190.739H73.1081V190.167Z" fill="black"/>
<path d="M73.1081 194.842H57.25V195.414H73.1081V194.842Z" fill="black"/>
<path d="M73.1081 199.519H57.25V200.091H73.1081V199.519Z" fill="black"/>
<path d="M73.1081 204.193H57.25V204.766H73.1081V204.193Z" fill="black"/>
<path d="M73.1081 208.87H57.25V209.442H73.1081V208.87Z" fill="black"/>
<path d="M73.1081 213.547H57.25V214.119H73.1081V213.547Z" fill="black"/>
<path d="M73.1081 218.224H57.25V218.796H73.1081V218.224Z" fill="black"/>
<path d="M73.1081 222.899H57.25V223.472H73.1081V222.899Z" fill="black"/>
<path d="M64.8945 147.328V223.472H65.4667V147.328H64.8945Z" fill="black"/>
</g>
<path d="M73.1083 139.908V142.483L57.2501 152.757V223.465H55.2031V151.51L73.1083 139.908Z" fill="#C6C6C6"/>
<path opacity="0.2" d="M73.1083 139.908V142.483L57.2501 152.757V223.465H55.2031V151.51L73.1083 139.908Z" fill="black"/>
<path d="M96.9313 134.146H76.1406V223.465H96.9313V134.146Z" fill="#C6C6C6"/>
<path opacity="0.2" d="M96.9313 134.146H76.1406V223.465H96.9313V134.146Z" fill="black"/>
<g opacity="0.2">
<path d="M94.9121 139.908H78.1562V141.931H94.9121V139.908Z" fill="black"/>
<path d="M94.9121 144.486H78.1562V146.509H94.9121V144.486Z" fill="black"/>
<path d="M94.9121 149.067H78.1562V151.09H94.9121V149.067Z" fill="black"/>
<path d="M94.9121 153.646H78.1562V155.668H94.9121V153.646Z" fill="black"/>
<path d="M94.9121 158.228H78.1562V160.25H94.9121V158.228Z" fill="black"/>
<path d="M94.9121 162.812H78.1562V164.834H94.9121V162.812Z" fill="black"/>
<path d="M94.9121 167.387H78.1562V169.409H94.9121V167.387Z" fill="black"/>
<path d="M94.9121 171.97H78.1562V173.992H94.9121V171.97Z" fill="black"/>
<path d="M94.9121 176.548H78.1562V178.57H94.9121V176.548Z" fill="black"/>
<path d="M94.9121 181.128H78.1562V183.15H94.9121V181.128Z" fill="black"/>
<path d="M94.9121 185.711H78.1562V187.733H94.9121V185.711Z" fill="black"/>
<path d="M94.9121 190.29H78.1562V192.312H94.9121V190.29Z" fill="black"/>
<path d="M94.9121 194.872H78.1562V196.894H94.9121V194.872Z" fill="black"/>
<path d="M94.9121 199.447H78.1562V201.47H94.9121V199.447Z" fill="black"/>
<path d="M94.9121 204.03H78.1562V206.053H94.9121V204.03Z" fill="black"/>
<path d="M94.9121 208.614H78.1562V210.637H94.9121V208.614Z" fill="black"/>
<path d="M94.9121 213.191H78.1562V215.214H94.9121V213.191Z" fill="black"/>
<path d="M94.9121 217.773H78.1562V219.796H94.9121V217.773Z" fill="black"/>
</g>
<path d="M182.892 128.898H164.188V223.47H182.892V128.898Z" fill="#C6C6C6"/>
<path opacity="0.2" d="M182.892 128.898H164.188V223.47H182.892V128.898Z" fill="black"/>
<path d="M164.188 128.898H184.012V125.801H164.188V128.898Z" fill="#C6C6C6"/>
<path d="M164.186 125.802H180.996V120.963H164.186V125.802Z" fill="#C6C6C6"/>
<path opacity="0.2" d="M164.186 125.802H180.996V120.963H164.186V125.802Z" fill="black"/>
<path d="M164.188 120.957H177.047V110.283H164.188V120.957Z" fill="#C6C6C6"/>
<path opacity="0.3" d="M164.188 120.957H177.047V110.283H164.188V120.957Z" fill="black"/>
<g opacity="0.3">
<path d="M168.512 132.479H165.977V142.428H168.512V132.479Z" fill="black"/>
</g>
<g opacity="0.3">
<path d="M168.512 146.035H165.977V155.984H168.512V146.035Z" fill="black"/>
</g>
<g opacity="0.3">
<path d="M168.512 159.584H165.977V169.533H168.512V159.584Z" fill="black"/>
</g>
<g opacity="0.3">
<path d="M168.512 173.133H165.977V183.082H168.512V173.133Z" fill="black"/>
</g>
<g opacity="0.3">
<path d="M168.512 186.688H165.977V196.637H168.512V186.688Z" fill="black"/>
</g>
<g opacity="0.3">
<path d="M168.512 200.239H165.977V210.188H168.512V200.239Z" fill="black"/>
</g>
<g opacity="0.3">
<path d="M172.711 132.479H170.176V142.428H172.711V132.479Z" fill="black"/>
</g>
<g opacity="0.3">
<path d="M172.711 146.035H170.176V155.984H172.711V146.035Z" fill="black"/>
</g>
<g opacity="0.3">
<path d="M172.711 159.584H170.176V169.533H172.711V159.584Z" fill="black"/>
</g>
<g opacity="0.3">
<path d="M172.711 173.133H170.176V183.082H172.711V173.133Z" fill="black"/>
</g>
<g opacity="0.3">
<path d="M172.711 186.688H170.176V196.637H172.711V186.688Z" fill="black"/>
</g>
<g opacity="0.3">
<path d="M172.711 200.239H170.176V210.188H172.711V200.239Z" fill="black"/>
</g>
<g opacity="0.3">
<path d="M176.903 132.479H174.367V142.428H176.903V132.479Z" fill="black"/>
</g>
<g opacity="0.3">
<path d="M176.903 146.035H174.367V155.984H176.903V146.035Z" fill="black"/>
</g>
<g opacity="0.3">
<path d="M176.903 159.584H174.367V169.533H176.903V159.584Z" fill="black"/>
</g>
<g opacity="0.3">
<path d="M176.903 173.133H174.367V183.082H176.903V173.133Z" fill="black"/>
</g>
<g opacity="0.3">
<path d="M176.903 186.688H174.367V196.637H176.903V186.688Z" fill="black"/>
</g>
<g opacity="0.3">
<path d="M176.903 200.239H174.367V210.188H176.903V200.239Z" fill="black"/>
</g>
<g opacity="0.3">
<path d="M181.098 132.479H178.562V142.428H181.098V132.479Z" fill="black"/>
</g>
<g opacity="0.3">
<path d="M181.098 146.035H178.562V155.984H181.098V146.035Z" fill="black"/>
</g>
<g opacity="0.3">
<path d="M181.098 159.584H178.562V169.533H181.098V159.584Z" fill="black"/>
</g>
<g opacity="0.3">
<path d="M181.098 173.133H178.562V183.082H181.098V173.133Z" fill="black"/>
</g>
<g opacity="0.3">
<path d="M181.098 186.688H178.562V196.637H181.098V186.688Z" fill="black"/>
</g>
<g opacity="0.3">
<path d="M181.098 200.239H178.562V210.188H181.098V200.239Z" fill="black"/>
</g>
<path d="M164.181 128.898H125.84V223.47H164.181V128.898Z" fill="#C6C6C6"/>
<path d="M164.189 120.957H127.684V125.796H164.189V120.957Z" fill="#C6C6C6"/>
<path d="M164.192 110.289H136.723V120.963H164.192V110.289Z" fill="#C6C6C6"/>
<path opacity="0.2" d="M164.192 110.289H136.723V120.963H164.192V110.289Z" fill="black"/>
<path d="M164.185 125.796H124.695V128.894H164.185V125.796Z" fill="#C6C6C6"/>
<path opacity="0.2" d="M164.185 125.796H124.695V128.894H164.185V125.796Z" fill="black"/>
<g opacity="0.3">
<path d="M134.716 132.479H129.512V142.428H134.716V132.479Z" fill="black"/>
</g>
<g opacity="0.3">
<path d="M134.716 146.035H129.512V155.984H134.716V146.035Z" fill="black"/>
</g>
<g opacity="0.3">
<path d="M134.716 159.584H129.512V169.533H134.716V159.584Z" fill="black"/>
</g>
<g opacity="0.3">
<path d="M134.716 173.133H129.512V183.082H134.716V173.133Z" fill="black"/>
</g>
<g opacity="0.3">
<path d="M134.716 186.688H129.512V196.637H134.716V186.688Z" fill="black"/>
</g>
<g opacity="0.3">
<path d="M134.716 200.239H129.512V210.188H134.716V200.239Z" fill="black"/>
</g>
<g opacity="0.3">
<path d="M143.317 132.479H138.113V142.428H143.317V132.479Z" fill="black"/>
</g>
<g opacity="0.3">
<path d="M143.317 146.035H138.113V155.984H143.317V146.035Z" fill="black"/>
</g>
<g opacity="0.3">
<path d="M143.317 159.584H138.113V169.533H143.317V159.584Z" fill="black"/>
</g>
<g opacity="0.3">
<path d="M143.317 173.133H138.113V183.082H143.317V173.133Z" fill="black"/>
</g>
<g opacity="0.3">
<path d="M143.317 186.688H138.113V196.637H143.317V186.688Z" fill="black"/>
</g>
<g opacity="0.3">
<path d="M143.317 200.239H138.113V210.188H143.317V200.239Z" fill="black"/>
</g>
<g opacity="0.3">
<path d="M151.923 132.479H146.719V142.428H151.923V132.479Z" fill="black"/>
</g>
<g opacity="0.3">
<path d="M151.923 146.035H146.719V155.984H151.923V146.035Z" fill="black"/>
</g>
<g opacity="0.3">
<path d="M151.923 159.584H146.719V169.533H151.923V159.584Z" fill="black"/>
</g>
<g opacity="0.3">
<path d="M151.923 173.133H146.719V183.082H151.923V173.133Z" fill="black"/>
</g>
<g opacity="0.3">
<path d="M151.923 186.688H146.719V196.637H151.923V186.688Z" fill="black"/>
</g>
<g opacity="0.3">
<path d="M151.923 200.239H146.719V210.188H151.923V200.239Z" fill="black"/>
</g>
<g opacity="0.3">
<path d="M160.52 132.479H155.316V142.428H160.52V132.479Z" fill="black"/>
</g>
<g opacity="0.3">
<path d="M160.52 146.035H155.316V155.984H160.52V146.035Z" fill="black"/>
</g>
<g opacity="0.3">
<path d="M160.52 159.584H155.316V169.533H160.52V159.584Z" fill="black"/>
</g>
<g opacity="0.3">
<path d="M160.52 173.133H155.316V183.082H160.52V173.133Z" fill="black"/>
</g>
<g opacity="0.3">
<path d="M160.52 186.688H155.316V196.637H160.52V186.688Z" fill="black"/>
</g>
<g opacity="0.3">
<path d="M160.52 200.239H155.316V210.188H160.52V200.239Z" fill="black"/>
</g>
<path opacity="0.3" d="M151.919 214.093H138.113V223.465H151.919V214.093Z" fill="black"/>
<path d="M221.267 169.538H202.562V223.466H221.267V169.538Z" fill="#C6C6C6"/>
<path opacity="0.2" d="M221.267 169.538H202.562V223.466H221.267V169.538Z" fill="black"/>
<path d="M202.559 169.543H222.383V166.445H202.559V169.543Z" fill="#C6C6C6"/>
<path d="M202.565 166.44H219.375V161.602H202.565V166.44Z" fill="#C6C6C6"/>
<path opacity="0.2" d="M202.565 166.44H219.375V161.602H202.565V166.44Z" fill="black"/>
<g opacity="0.3">
<path d="M206.899 173.123H204.363V183.072H206.899V173.123Z" fill="black"/>
</g>
<g opacity="0.3">
<path d="M206.899 186.673H204.363V196.622H206.899V186.673Z" fill="black"/>
</g>
<g opacity="0.3">
<path d="M206.899 200.229H204.363V210.177H206.899V200.229Z" fill="black"/>
</g>
<g opacity="0.3">
<path d="M211.086 173.123H208.551V183.072H211.086V173.123Z" fill="black"/>
</g>
<g opacity="0.3">
<path d="M211.086 186.673H208.551V196.622H211.086V186.673Z" fill="black"/>
</g>
<g opacity="0.3">
<path d="M211.086 200.229H208.551V210.177H211.086V200.229Z" fill="black"/>
</g>
<g opacity="0.3">
<path d="M215.278 173.123H212.742V183.072H215.278V173.123Z" fill="black"/>
</g>
<g opacity="0.3">
<path d="M215.278 186.673H212.742V196.622H215.278V186.673Z" fill="black"/>
</g>
<g opacity="0.3">
<path d="M215.278 200.229H212.742V210.177H215.278V200.229Z" fill="black"/>
</g>
<g opacity="0.3">
<path d="M219.473 173.123H216.938V183.072H219.473V173.123Z" fill="black"/>
</g>
<g opacity="0.3">
<path d="M219.473 186.673H216.938V196.622H219.473V186.673Z" fill="black"/>
</g>
<g opacity="0.3">
<path d="M219.473 200.229H216.938V210.177H219.473V200.229Z" fill="black"/>
</g>
<path d="M202.563 169.538H164.223V223.466H202.563V169.538Z" fill="#C6C6C6"/>
<path d="M202.564 161.601H166.059V166.439H202.564V161.601Z" fill="#C6C6C6"/>
<path d="M202.568 166.44H163.078V169.538H202.568V166.44Z" fill="#C6C6C6"/>
<path opacity="0.2" d="M202.568 166.44H163.078V169.538H202.568V166.44Z" fill="black"/>
<g opacity="0.3">
<path d="M173.091 173.123H167.887V183.072H173.091V173.123Z" fill="black"/>
</g>
<g opacity="0.3">
<path d="M173.091 186.673H167.887V196.622H173.091V186.673Z" fill="black"/>
</g>
<g opacity="0.3">
<path d="M173.091 200.229H167.887V210.177H173.091V200.229Z" fill="black"/>
</g>
<g opacity="0.3">
<path d="M181.696 173.123H176.492V183.072H181.696V173.123Z" fill="black"/>
</g>
<g opacity="0.3">
<path d="M181.696 186.673H176.492V196.622H181.696V186.673Z" fill="black"/>
</g>
<g opacity="0.3">
<path d="M181.696 200.229H176.492V210.177H181.696V200.229Z" fill="black"/>
</g>
<g opacity="0.3">
<path d="M190.298 173.123H185.094V183.072H190.298V173.123Z" fill="black"/>
</g>
<g opacity="0.3">
<path d="M190.298 186.673H185.094V196.622H190.298V186.673Z" fill="black"/>
</g>
<g opacity="0.3">
<path d="M190.298 200.229H185.094V210.177H190.298V200.229Z" fill="black"/>
</g>
<g opacity="0.3">
<path d="M198.895 173.123H193.691V183.072H198.895V173.123Z" fill="black"/>
</g>
<g opacity="0.3">
<path d="M198.895 186.673H193.691V196.622H198.895V186.673Z" fill="black"/>
</g>
<g opacity="0.3">
<path d="M198.895 200.229H193.691V210.177H198.895V200.229Z" fill="black"/>
</g>
<path d="M50.8483 63.3316C51.1043 63.2039 51.3679 63.0918 51.6375 62.9962C51.9132 62.8913 52.202 62.8249 52.4958 62.7989C52.5873 62.7902 52.6796 62.8003 52.7671 62.8285C52.795 62.8358 52.8217 62.8475 52.846 62.863L52.9003 62.9025L52.994 62.9814C53.1037 63.0804 53.2075 63.1858 53.3047 63.2971C53.502 63.5141 53.6747 63.741 53.8473 63.9729L53.6303 63.8989C53.9201 63.8182 54.2151 63.7572 54.5132 63.7164C54.6652 63.6947 54.8184 63.6831 54.9719 63.6818C55.0523 63.6747 55.1332 63.6747 55.2136 63.6818C55.2589 63.6875 55.3035 63.6974 55.3468 63.7114C55.3931 63.7288 55.4376 63.7502 55.48 63.7756C55.6111 63.8676 55.7276 63.979 55.8253 64.106C55.919 64.2244 56.0028 64.3477 56.0867 64.476C56.2435 64.7263 56.3804 64.9885 56.4961 65.2603C56.3037 65.0334 56.1212 64.8065 55.9289 64.5894C55.8351 64.4859 55.7365 64.3773 55.6329 64.2836C55.5416 64.1884 55.4369 64.107 55.3221 64.0419C55.2126 64.0055 55.0964 63.9937 54.9818 64.0074C54.8425 64.0174 54.704 64.0372 54.5675 64.0666C54.2912 64.1159 54.0101 64.185 53.7388 64.254L53.6056 64.2935L53.5267 64.18C53.3689 63.9531 53.1962 63.7312 53.0335 63.5141C52.9496 63.4056 52.8608 63.302 52.772 63.2083L52.703 63.1442L52.6684 63.1195C52.6194 63.1016 52.5678 63.0916 52.5155 63.0899C52.2424 63.0905 51.9698 63.1169 51.7017 63.1689C51.4057 63.2231 51.1295 63.2823 50.8483 63.3316Z" fill="#424242"/>
<path d="M53.9516 71.7259C54.2894 71.4596 54.6454 71.2173 55.017 71.0008C55.3934 70.7647 55.7999 70.5805 56.2255 70.4533C56.3559 70.42 56.4909 70.4083 56.625 70.4188C56.6704 70.4262 56.715 70.4378 56.7582 70.4533L56.847 70.4927L57.0048 70.5766C57.2021 70.695 57.3797 70.8232 57.5573 70.9515C57.9075 71.2178 58.2232 71.499 58.5438 71.79L58.2084 71.7456C58.6063 71.5405 59.0184 71.3641 59.4415 71.2178C59.6589 71.1414 59.8814 71.0804 60.1074 71.0353C60.2275 71.0086 60.3496 70.9921 60.4724 70.986C60.5397 70.9812 60.6073 70.9812 60.6747 70.986C60.7465 70.9994 60.8173 71.0176 60.8868 71.0403C61.1086 71.1367 61.3134 71.2683 61.4935 71.4299C61.6685 71.5728 61.8333 71.7277 61.9867 71.8936C62.2917 72.2144 62.5704 72.5591 62.8203 72.9245C62.475 72.6483 62.1396 72.3671 61.7943 72.1106C61.6217 71.9774 61.4491 71.8541 61.2715 71.7407C61.1082 71.6301 60.9306 71.5422 60.7437 71.4793C60.5777 71.4619 60.4098 71.4786 60.2505 71.5286C60.0509 71.5841 59.8549 71.6517 59.6635 71.7308C59.2689 71.8837 58.8743 72.0712 58.4994 72.2537L58.312 72.3523L58.164 72.2093C57.8631 71.9232 57.5474 71.642 57.2317 71.3757C57.0745 71.2431 56.9098 71.1196 56.7385 71.0057C56.7013 70.9776 56.6617 70.9528 56.6201 70.9317L56.5658 70.9021C56.4893 70.8871 56.4106 70.8871 56.334 70.9021C55.9337 70.9799 55.5421 71.0972 55.165 71.2524C54.7457 71.4003 54.3511 71.568 53.9516 71.7259Z" fill="#424242"/>
<path d="M238.9 59.306C239.131 59.1366 239.374 58.9817 239.625 58.8423C239.882 58.6949 240.157 58.5821 240.443 58.5069C240.532 58.4912 240.622 58.4912 240.71 58.5069C240.739 58.5025 240.769 58.5025 240.799 58.5069L240.858 58.5365L240.961 58.5957C241.09 58.6795 241.208 58.7683 241.321 58.8571C241.548 59.0396 241.756 59.2369 241.963 59.4391L241.741 59.3997C242.012 59.2717 242.292 59.1629 242.579 59.0741C242.726 59.027 242.876 58.9907 243.028 58.9656C243.108 58.9523 243.189 58.944 243.27 58.9409H243.403C243.452 58.9528 243.499 58.9676 243.546 58.9853C243.693 59.0518 243.826 59.1437 243.941 59.2566C244.052 59.3556 244.157 59.461 244.256 59.5723C244.454 59.7936 244.632 60.0312 244.789 60.2826C244.567 60.0902 244.35 59.8929 244.123 59.7154C244.01 59.6266 243.901 59.5378 243.783 59.4589C243.676 59.3824 243.56 59.3194 243.438 59.2714C243.322 59.2538 243.204 59.2623 243.092 59.2961C242.958 59.3275 242.826 59.3687 242.698 59.4194C242.431 59.5131 242.165 59.6266 241.908 59.7449L241.78 59.7992L241.686 59.7055C241.494 59.5033 241.287 59.3109 241.085 59.1284C240.986 59.0371 240.882 58.9514 240.774 58.8719L240.695 58.8176H240.661C240.61 58.8067 240.558 58.8067 240.508 58.8176C240.239 58.8641 239.974 58.9351 239.718 59.0297C239.437 59.084 239.171 59.2073 238.9 59.306Z" fill="#424242"/>
<path d="M231.869 58.1665C232.111 57.8198 232.376 57.4902 232.663 57.18C232.952 56.8455 233.284 56.5503 233.65 56.302C233.764 56.2312 233.889 56.1795 234.02 56.1491H234.158H234.252L234.429 56.1836C234.656 56.2379 234.863 56.3069 235.07 56.376C235.48 56.524 235.869 56.7016 236.264 56.8693L235.929 56.9235C236.251 56.6102 236.594 56.3186 236.955 56.0505C237.141 55.9153 237.335 55.7917 237.537 55.6805C237.643 55.6227 237.754 55.5716 237.867 55.5276C237.931 55.506 237.997 55.4895 238.064 55.4783C238.137 55.4734 238.209 55.4734 238.281 55.4783C238.522 55.5069 238.756 55.5717 238.977 55.6707C239.189 55.7594 239.386 55.863 239.584 55.9666C239.969 56.1868 240.336 56.4357 240.684 56.7114C240.269 56.5486 239.87 56.376 239.46 56.2182C239.26 56.1422 239.056 56.0779 238.849 56.0258C238.662 55.9663 238.468 55.9331 238.272 55.9271C238.095 55.9588 237.927 56.0278 237.778 56.1294C237.607 56.2436 237.443 56.3671 237.285 56.4993C236.955 56.7607 236.634 57.0518 236.328 57.3428L236.175 57.4908L235.993 57.397C235.623 57.2096 235.238 57.037 234.858 56.9038C234.674 56.8203 234.485 56.7494 234.291 56.6917L234.158 56.6522H234.094C234.016 56.6616 233.941 56.685 233.872 56.7213C233.521 56.9168 233.191 57.1465 232.885 57.4069C232.525 57.6042 232.2 57.8952 231.869 58.1665Z" fill="#424242"/>
<path d="M43.9189 69.6637C44.1606 69.3156 44.4277 68.9859 44.718 68.6771C45.0043 68.34 45.3364 68.0445 45.7045 67.7992C45.8165 67.7243 45.9422 67.6723 46.0744 67.6462C46.1203 67.641 46.1666 67.641 46.2125 67.6462H46.3063C46.3663 67.6525 46.4258 67.6641 46.4838 67.6808C46.7015 67.7308 46.9158 67.7951 47.1251 67.8731C47.5345 68.0211 47.9241 68.1938 48.3187 68.3664L47.9833 68.4207C48.3044 68.106 48.6473 67.8142 49.0093 67.5476C49.1931 67.409 49.3878 67.2853 49.5913 67.1777C49.6972 67.1179 49.8077 67.0667 49.9218 67.0247C49.981 67.0247 50.055 66.9902 50.1191 66.9705C50.1914 66.9656 50.2639 66.9656 50.3361 66.9705C50.5761 66.9975 50.8106 67.0607 51.0316 67.1579C51.2391 67.2473 51.4416 67.3477 51.6383 67.4588C52.0232 67.6773 52.3909 67.9246 52.7383 68.1987C52.3239 68.0359 51.9244 67.8682 51.515 67.7054C51.3128 67.6314 51.1106 67.5624 50.9034 67.5081C50.7163 67.4501 50.5221 67.4185 50.3263 67.4144C50.1487 67.4438 49.9801 67.5129 49.833 67.6167C49.6609 67.7276 49.4961 67.8495 49.3398 67.9817C49.0093 68.2431 48.6887 68.539 48.3829 68.8251L48.2299 68.9731L48.0474 68.8794C47.6775 68.6969 47.2928 68.5242 46.9129 68.3861C46.7281 68.3047 46.5387 68.2339 46.3457 68.174C46.3013 68.174 46.252 68.1444 46.2125 68.1395H46.1484C46.0709 68.1489 45.9956 68.1723 45.9264 68.2086C45.5673 68.4027 45.2285 68.6324 44.9153 68.8942C44.5749 69.1211 44.2494 69.3973 43.9189 69.6637Z" fill="#424242"/>
<path d="M65.0558 223.466C65.0558 223.466 64.6414 221.533 63.8128 221.232C62.9841 220.931 62.476 221.804 62.476 221.804C62.476 221.804 62.2837 219.954 61.1048 219.397C59.9259 218.839 59.0479 219.979 59.0479 219.979C59.0479 219.979 58.1453 217.631 56.5323 217.631C54.9194 217.631 54.1104 221.084 54.1104 221.084C54.1104 221.084 53.1585 220.063 52.1818 220.64C51.2052 221.217 51.1953 223.486 51.1953 223.486L65.0558 223.466Z" fill="#C4C4C4"/>
<path d="M202.594 223.466C202.594 223.466 202.179 221.533 201.351 221.232C200.522 220.931 200.019 221.804 200.019 221.804C200.019 221.804 199.822 219.954 198.648 219.397C197.474 218.839 196.591 219.979 196.591 219.979C196.591 219.979 195.688 217.631 194.075 217.631C192.462 217.631 191.648 221.084 191.648 221.084C191.648 221.084 190.701 220.063 189.725 220.64C188.748 221.217 188.738 223.486 188.738 223.486L202.594 223.466Z" fill="#848484"/>
<path d="M101.697 223.466H87.1211C87.1211 223.466 87.6144 221.414 88.5663 221.266C88.8573 221.24 89.1492 221.304 89.403 221.448C89.6569 221.593 89.8606 221.812 89.9869 222.075C89.9869 222.075 89.9425 219.209 91.7478 218.721C93.5531 218.232 95.0625 220.763 95.0625 220.763C95.0625 220.763 96.197 219.323 97.7359 219.411C99.2749 219.5 99.6744 221.878 99.6744 221.878C99.6744 221.878 101.075 221.064 101.697 223.466Z" fill="#C4C4C4"/>
<path d="M52.1037 223.465H44.4336C44.4336 223.465 44.4336 222.326 45.2031 222.02C45.4081 221.932 45.6364 221.912 45.8534 221.965C46.0704 222.017 46.2646 222.139 46.4066 222.311C46.4066 222.311 46.7124 220.21 48.1182 220.21C49.524 220.21 50.1997 222.02 50.1997 222.02C50.319 221.847 50.4862 221.713 50.6808 221.634C50.8754 221.555 51.0888 221.535 51.2948 221.576C52.0741 221.675 52.1037 223.465 52.1037 223.465Z" fill="#848484"/>
<path d="M107.713 223.466H100.043C100.043 223.466 100.043 222.326 100.812 222.02C101.018 221.932 101.246 221.913 101.463 221.965C101.68 222.018 101.874 222.139 102.016 222.311C102.016 222.311 102.337 220.195 103.733 220.195C105.128 220.195 105.789 222.02 105.789 222.02C105.909 221.848 106.076 221.713 106.27 221.635C106.465 221.556 106.678 221.535 106.884 221.576C107.683 221.675 107.713 223.466 107.713 223.466Z" fill="#848484"/>
<path d="M233.885 223.465H226.215C226.215 223.465 226.215 222.326 226.984 222.02C227.189 221.932 227.418 221.912 227.635 221.965C227.852 222.017 228.046 222.139 228.188 222.311C228.188 222.311 228.494 220.21 229.899 220.21C231.305 220.21 231.981 222.02 231.981 222.02C232.1 221.847 232.267 221.712 232.462 221.633C232.656 221.555 232.87 221.535 233.076 221.576C233.855 221.675 233.885 223.465 233.885 223.465Z" fill="#848484"/>
<path d="M245.077 223.466H232.43C232.43 223.466 232.459 221.587 233.702 221.084C234.04 220.942 234.415 220.913 234.771 221.002C235.127 221.091 235.444 221.292 235.675 221.577C235.675 221.577 236.169 218.124 238.502 218.124C240.835 218.124 241.925 221.084 241.925 221.084C242.121 220.798 242.397 220.577 242.718 220.447C243.039 220.317 243.391 220.285 243.73 220.354C245.027 220.521 245.077 223.466 245.077 223.466Z" fill="#C4C4C4"/>
<path d="M247.82 223.466H42V227.052H247.82V223.466Z" fill="#C7C7C7"/>
<path d="M56.431 223.466C56.7532 224.639 56.7532 225.878 56.431 227.052C56.2576 226.471 56.1745 225.867 56.1844 225.261C56.1765 224.654 56.2597 224.049 56.431 223.466Z" fill="#E7E7E7"/>
<path d="M72.519 223.466C72.6903 224.049 72.7735 224.654 72.7656 225.261C72.7756 225.867 72.6924 226.471 72.519 227.052C72.1968 225.878 72.1968 224.639 72.519 223.466Z" fill="#E7E7E7"/>
<path d="M88.6068 223.466C88.929 224.639 88.929 225.878 88.6068 227.052C88.4334 226.471 88.3502 225.867 88.3602 225.261C88.3523 224.654 88.4355 224.049 88.6068 223.466Z" fill="#E7E7E7"/>
<path d="M104.691 223.466C104.862 224.049 104.945 224.654 104.938 225.261C104.947 225.867 104.864 226.471 104.691 227.052C104.369 225.878 104.369 224.639 104.691 223.466Z" fill="#E7E7E7"/>
<path d="M120.779 223.466C121.101 224.639 121.101 225.878 120.779 227.052C120.605 226.471 120.522 225.867 120.532 225.261C120.524 224.654 120.607 224.049 120.779 223.466Z" fill="#E7E7E7"/>
<path d="M136.867 223.466C137.038 224.049 137.121 224.654 137.113 225.261C137.123 225.867 137.04 226.471 136.867 227.052C136.544 225.878 136.544 224.639 136.867 223.466Z" fill="#E7E7E7"/>
<path d="M152.958 223.466C153.281 224.639 153.281 225.878 152.958 227.052C152.785 226.471 152.702 225.867 152.712 225.261C152.704 224.654 152.787 224.049 152.958 223.466Z" fill="#E7E7E7"/>
<path d="M169.039 223.466C169.21 224.049 169.293 224.654 169.285 225.261C169.295 225.867 169.212 226.471 169.039 227.052C168.716 225.878 168.716 224.639 169.039 223.466Z" fill="#E7E7E7"/>
<path d="M185.134 223.466C185.456 224.639 185.456 225.878 185.134 227.052C184.961 226.471 184.878 225.867 184.888 225.261C184.88 224.654 184.963 224.049 185.134 223.466Z" fill="#E7E7E7"/>
<path d="M201.21 223.466C201.382 224.049 201.465 224.654 201.457 225.261C201.467 225.867 201.384 226.471 201.21 227.052C200.888 225.878 200.888 224.639 201.21 223.466Z" fill="#E7E7E7"/>
<path d="M217.302 223.466C217.624 224.639 217.624 225.878 217.302 227.052C217.129 226.471 217.046 225.867 217.055 225.261C217.048 224.654 217.131 224.049 217.302 223.466Z" fill="#E7E7E7"/>
<path d="M233.394 223.466C233.565 224.049 233.648 224.654 233.641 225.261C233.651 225.867 233.567 226.471 233.394 227.052C233.072 225.878 233.072 224.639 233.394 223.466Z" fill="#E7E7E7"/>
<path d="M43.5234 227.051L68.8718 226.933L94.2201 226.889L144.912 226.805L195.604 226.889L220.952 226.933L246.3 227.051L220.952 227.175L195.604 227.219L144.912 227.298L94.2201 227.214L68.8718 227.175L43.5234 227.051Z" fill="#E7E7E7"/>
</svg>
