<svg width="24" height="24" viewBox="0 0 24 24" fill="none" xmlns="http://www.w3.org/2000/svg">
<g clip-path="url(#clip0_3587_57894)">
<mask id="mask0_3587_57894" style="mask-type:luminance" maskUnits="userSpaceOnUse" x="0" y="0" width="24" height="24">
<path d="M0 1.90735e-06H24V24H0V1.90735e-06Z" fill="white"/>
</mask>
<g mask="url(#mask0_3587_57894)">
<path d="M19.0312 19.0781C18.3344 19.0781 17.6869 19.2632 17.1077 19.5624C16.2209 17.6212 14.2737 16.2656 12 16.2656C9.72637 16.2656 7.77909 17.6212 6.89231 19.5624C6.31313 19.2632 5.66559 19.0781 4.96875 19.0781C2.63878 19.0781 0.703125 20.9669 0.703125 23.2969H23.2969C23.2969 20.9669 21.3612 19.0781 19.0312 19.0781Z" stroke="#A3DB54" stroke-width="1.40625" stroke-miterlimit="10"/>
<path d="M0.808594 2.31553C0.808594 2.31553 1.25358 1.62933 2.44195 1.125C3.60052 0.646638 5.70225 0.285888 8.33044 1.731C10.4604 2.97112 12.245 5.25065 10.3693 7.42242C6.45084 7.49568 4.17731 6.3734 1.94334 3.89297C1.16503 3.03914 0.808594 2.31553 0.808594 2.31553Z" stroke="#A3DB54" stroke-width="1.40625" stroke-miterlimit="10"/>
<path d="M23.1782 2.31553C23.1782 2.31553 22.7021 1.62933 21.5137 1.125C20.3551 0.646638 18.3003 0.285888 15.672 1.731C13.5421 2.97112 11.7575 5.25065 13.6332 7.42242C17.5517 7.49568 19.7783 6.3734 22.0123 3.89297C22.7906 3.03914 23.1782 2.31553 23.1782 2.31553Z" stroke="#A3DB54" stroke-width="1.40625" stroke-miterlimit="10"/>
<path d="M18.512 3.46211C16.5427 4.26044 14.7594 5.60331 13.6326 7.4215C12.4804 9.22609 12.0351 11.3862 12.0002 13.5098C11.9652 11.3862 11.5199 9.22609 10.3677 7.4215C9.24095 5.60331 7.45759 4.26044 5.48828 3.46211" stroke="#A3DB54" stroke-width="1.40625" stroke-miterlimit="10"/>
<path d="M12 13.3594V16.2656" stroke="#A3DB54" stroke-width="1.40625" stroke-miterlimit="10"/>
</g>
</g>
<defs>
<clipPath id="clip0_3587_57894">
<rect width="24" height="24" fill="white"/>
</clipPath>
</defs>
</svg>
