<svg width="24" height="24" viewBox="0 0 24 24" fill="none" xmlns="http://www.w3.org/2000/svg">
<path d="M5.4805 20.475C5.32062 20.3161 5.06222 20.3169 4.90327 20.4767L4.89995 20.48C4.74101 20.6399 4.74179 20.8984 4.90167 21.0573C4.98132 21.1364 5.08534 21.176 5.18945 21.176C5.29429 21.176 5.39917 21.1358 5.4789 21.0556L5.48222 21.0523C5.64116 20.8923 5.64038 20.6339 5.4805 20.475Z" fill="#2D2D2D"/>
<path d="M20.9991 21.0436L20.9964 21.039C20.884 20.8436 20.6346 20.7762 20.4391 20.8887C20.2437 21.0011 20.1764 21.2506 20.2888 21.446L20.2915 21.4506C20.367 21.5819 20.5044 21.6554 20.6457 21.6554C20.7147 21.6554 20.7847 21.6379 20.8488 21.6009C21.0442 21.4886 21.1115 21.2391 20.9991 21.0436Z" fill="#2D2D2D"/>
<path d="M18.9838 2.3446H18.9785C18.753 2.3446 18.5703 2.52734 18.5703 2.75277C18.5703 2.9782 18.753 3.16093 18.9785 3.16093H18.9838C19.2093 3.16093 19.392 2.9782 19.392 2.75277C19.392 2.52734 19.2093 2.3446 18.9838 2.3446Z" fill="#2D2D2D"/>
<path d="M21.5918 2.3446H20.2648C20.0394 2.3446 19.8566 2.52734 19.8566 2.75277C19.8566 2.9782 20.0394 3.16093 20.2648 3.16093H21.1837V5.12007H20.9453H3.06508H2.81633V3.16093H17.6591C17.8845 3.16093 18.0673 2.9782 18.0673 2.75277C18.0673 2.52734 17.8845 2.3446 17.6591 2.3446H2.40816C2.18273 2.3446 2 2.52734 2 2.75277V5.52824C2 5.75367 2.18273 5.9364 2.40816 5.9364H2.73402C3.38035 8.77472 5.27484 11.0842 7.76684 12.3267L4.68098 17.6716C4.47707 17.6045 4.26172 17.569 4.04082 17.569C3.4957 17.569 2.9832 17.7813 2.59777 18.1668C2.21227 18.5523 2 19.0647 2 19.6098C2 20.155 2.2123 20.6675 2.59777 21.0529C2.98508 21.4402 3.49828 21.651 4.03645 21.651C4.12547 21.651 4.21516 21.6452 4.30504 21.6335C4.52859 21.6044 4.68625 21.3997 4.65719 21.1762C4.62816 20.9526 4.4232 20.795 4.19984 20.824C3.81934 20.8734 3.44586 20.7465 3.17504 20.4757C2.94375 20.2444 2.81637 19.9369 2.81637 19.6098C2.81637 19.2828 2.94375 18.9753 3.17504 18.744C3.40629 18.5127 3.71383 18.3853 4.04086 18.3853C4.36793 18.3853 4.67543 18.5127 4.90668 18.744C5.18426 19.0216 5.31004 19.4038 5.25172 19.7927C5.21828 20.0156 5.37191 20.2234 5.59484 20.2569C5.8177 20.2902 6.02563 20.1367 6.05906 19.9137C6.15473 19.2756 5.93977 18.6226 5.48395 18.1668C5.45316 18.136 5.42125 18.1067 5.38895 18.0782L8.51656 12.6609C9.60242 13.0898 10.781 13.3242 12.0053 13.3242C13.1503 13.3242 14.2554 13.1194 15.282 12.7419L19.6283 20.3024C19.7038 20.4337 19.8412 20.5072 19.9826 20.5072C20.0516 20.5072 20.1215 20.4897 20.1856 20.4528C20.3811 20.3405 20.4484 20.091 20.3361 19.8955L16.0412 12.4247C18.6327 11.2081 20.6126 8.85101 21.2763 5.93636H21.5918C21.8173 5.93636 22 5.75363 22 5.5282V2.75277C22 2.52734 21.8173 2.3446 21.5918 2.3446ZM12.0052 12.5078C8.00324 12.5078 4.53332 9.77257 3.57273 5.93636H20.4376C19.4771 9.77257 16.0071 12.5078 12.0052 12.5078Z" fill="#2D2D2D"/>
<path d="M18.8838 6.41251C18.6777 6.32122 18.4366 6.41431 18.3454 6.62044C17.6556 8.1779 16.422 9.42466 14.8718 10.1311C14.6667 10.2245 14.5762 10.4666 14.6697 10.6717C14.7381 10.822 14.8863 10.9108 15.0413 10.9108C15.0979 10.9108 15.1554 10.899 15.2103 10.8739C16.9426 10.0846 18.3211 8.69138 19.0918 6.95103C19.1831 6.74485 19.09 6.50376 18.8838 6.41251Z" fill="#2D2D2D"/>
<path d="M14.2649 10.7876C14.1957 10.5801 13.976 10.4651 13.7676 10.5236C13.5553 10.5825 13.4275 10.8002 13.4809 11.0152C13.5271 11.201 13.6936 11.3252 13.8767 11.3252C13.9091 11.3252 13.942 11.3213 13.9748 11.3132C13.9854 11.3106 13.9964 11.3074 14.0067 11.304C14.2206 11.2326 14.3362 11.0015 14.2649 10.7876Z" fill="#2D2D2D"/>
</svg>
