<svg width="24" height="24" viewBox="0 0 24 24" fill="none" xmlns="http://www.w3.org/2000/svg">
<path d="M12.0005 8.51794C9.91837 8.51794 8.21484 10.2215 8.21484 12.3036C8.21484 14.3856 9.91837 16.0892 12.0005 16.0892C14.0825 16.0892 15.7861 14.3856 15.7861 12.3036C15.7861 10.2215 14.0825 8.51794 12.0005 8.51794ZM12.0005 14.8273C10.6124 14.8273 9.47671 13.6916 9.47671 12.3036C9.47671 10.9155 10.6124 9.77982 12.0005 9.77982C13.3885 9.77982 14.5242 10.9155 14.5242 12.3036C14.5242 13.6916 13.3885 14.8273 12.0005 14.8273Z" fill="#2D2D2D"/>
<path d="M12 17.7927C9.64974 17.7927 7.39414 18.7707 5.78526 20.49L5.35938 20.9474L6.27423 21.8149L6.70011 21.3575C8.08817 19.8748 9.9652 19.0546 12 19.0546C14.0347 19.0546 15.9118 19.8748 17.2998 21.3575L17.7257 21.8149L18.6406 20.9474L18.2147 20.49C16.6058 18.7864 14.3502 17.7927 12 17.7927Z" fill="#2D2D2D"/>
<path d="M17.207 9.44849V10.7104C18.6897 10.7104 20.062 11.3097 21.0873 12.3981L22.0021 11.5306C20.7718 10.2056 19.021 9.44849 17.207 9.44849Z" fill="#2D2D2D"/>
<path d="M20.2168 5.04775C20.2168 3.39155 18.8603 2.03503 17.2041 2.03503C15.5479 2.03503 14.1914 3.39155 14.1914 5.04775C14.1914 6.70396 15.5479 8.06047 17.2041 8.06047C18.8603 8.06047 20.2168 6.70396 20.2168 5.04775ZM15.4533 5.04775C15.4533 4.08557 16.2419 3.29691 17.2041 3.29691C18.1663 3.29691 18.955 4.08557 18.955 5.04775C18.955 6.00993 18.1663 6.7986 17.2041 6.7986C16.2419 6.7986 15.4533 6.00993 15.4533 5.04775Z" fill="#2D2D2D"/>
<path d="M6.79511 9.44849C4.98117 9.44849 3.23032 10.2056 2 11.5306L2.91486 12.3981C3.92435 11.3097 5.31241 10.7104 6.79511 10.7104V9.44849Z" fill="#2D2D2D"/>
<path d="M9.80668 5.04775C9.80668 3.39155 8.45017 2.03503 6.79397 2.03503C5.13776 2.03503 3.78125 3.39155 3.78125 5.04775C3.78125 6.70396 5.13776 8.06047 6.79397 8.06047C8.45017 8.06047 9.80668 6.70396 9.80668 5.04775ZM6.79397 6.7986C5.83179 6.7986 5.04312 6.00993 5.04312 5.04775C5.04312 4.08557 5.83179 3.29691 6.79397 3.29691C7.75614 3.29691 8.54481 4.08557 8.54481 5.04775C8.54481 6.00993 7.75614 6.7986 6.79397 6.7986Z" fill="#2D2D2D"/>
</svg>
