<svg width="500" height="320" viewBox="0 0 500 320" fill="none" xmlns="http://www.w3.org/2000/svg">
<path d="M250 303.482C332.843 303.482 400 294.927 400 284.374C400 273.821 332.843 265.266 250 265.266C167.157 265.266 100 273.821 100 284.374C100 294.927 167.157 303.482 250 303.482Z" fill="#F5F5F5"/>
<path d="M224.952 248.959C224.979 246.987 224.9 244.254 224.43 241.044C224.033 238.34 222.767 229.704 218.213 223.177C211.33 213.313 203.528 217.711 195.53 207.513C190.953 201.676 192.24 198.618 187.005 193.946C182.382 189.819 177.418 188.299 172.129 187.429C158.745 185.228 136.91 187.293 136.91 187.293C138.753 208.456 145.868 217.207 152.007 221.29C160.623 227.02 167.25 223.51 174.929 230.369C184.926 239.298 178.364 249.414 187.687 258.704C187.687 258.704 191.769 262.771 223.444 268.791L224.952 248.959Z" fill="#F5F5F5"/>
<path d="M223.444 268.791C223.444 268.791 198.974 227.146 189.653 218.985C180.332 210.822 136.91 187.293 136.91 187.293" stroke="#D6D6D6" stroke-width="0.291388" stroke-miterlimit="10" stroke-linecap="round" stroke-linejoin="round"/>
<path d="M168.332 205.053L141 206.583" stroke="#D6D6D6" stroke-width="0.291388" stroke-miterlimit="10" stroke-linecap="round" stroke-linejoin="round"/>
<path d="M173.977 208.435L175.79 188.165" stroke="#D6D6D6" stroke-width="0.291388" stroke-miterlimit="10" stroke-linecap="round" stroke-linejoin="round"/>
<path d="M186.406 216.466L162.75 225.206" stroke="#D6D6D6" stroke-width="0.291388" stroke-miterlimit="10" stroke-linecap="round" stroke-linejoin="round"/>
<path d="M196.414 226.854L199.458 211.486" stroke="#D6D6D6" stroke-width="0.291388" stroke-miterlimit="10" stroke-linecap="round" stroke-linejoin="round"/>
<path d="M204.05 237.743L181.133 241.929" stroke="#D6D6D6" stroke-width="0.291388" stroke-miterlimit="10" stroke-linecap="round" stroke-linejoin="round"/>
<path d="M210.027 246.921L218.652 223.828" stroke="#D6D6D6" stroke-width="0.291388" stroke-miterlimit="10" stroke-linecap="round" stroke-linejoin="round"/>
<path d="M215.468 255.6L188.961 259.507" stroke="#D6D6D6" stroke-width="0.291388" stroke-miterlimit="10" stroke-linecap="round" stroke-linejoin="round"/>
<path d="M218.496 42.0329C216.823 42.2963 215.681 43.8662 215.944 45.5393L228.594 125.915C228.858 127.588 230.428 128.731 232.101 128.468L290.637 119.255C292.311 118.991 293.453 117.421 293.19 115.748L282.623 48.6127L263.181 35L218.496 42.0329Z" fill="#F5F5F5"/>
<path d="M267.721 50.9578L282.621 48.6127L263.18 35L265.428 49.2891C265.601 50.3828 266.627 51.1299 267.721 50.9578Z" fill="#D6D6D6"/>
<path d="M263.18 35L265.428 49.2891C265.601 50.3828 266.627 51.1305 267.721 50.9578L282.621 48.6127" stroke="#262626" stroke-width="0.171441" stroke-miterlimit="10" stroke-linecap="round" stroke-linejoin="round"/>
<path d="M250.814 89.4948C250.492 87.4469 250.389 85.7738 250.505 84.4748C250.62 83.1765 251.047 81.9351 251.786 80.7519C252.208 80.0449 252.713 79.4148 253.302 78.8592C253.89 78.3048 254.422 77.7317 254.899 77.1404C255.374 76.5504 255.754 75.9121 256.038 75.227C256.322 74.5425 256.384 73.6972 256.226 72.6898C255.958 70.9898 255.302 69.8741 254.259 69.3448C253.215 68.8155 252.051 68.6522 250.767 68.8536C248.927 69.1433 247.74 69.8554 247.208 70.9879C246.674 72.1217 246.458 73.5695 246.558 75.3321L239.842 76.3889C239.574 74.6889 239.609 73.1003 239.945 71.6242C240.282 70.1488 240.886 68.8442 241.757 67.7111C242.627 66.5786 243.742 65.6382 245.101 64.8905C246.459 64.1434 248.006 63.6328 249.742 63.3594C253.49 62.7693 256.569 63.0678 258.979 64.2529C261.388 65.4392 262.864 67.7493 263.405 71.1856C263.58 72.2969 263.619 73.2861 263.525 74.1546C263.43 75.023 263.211 75.8314 262.866 76.5791C262.522 77.3268 262.066 78.0483 261.499 78.7416C260.932 79.4361 260.282 80.16 259.548 80.9159C258.877 81.6267 258.347 82.2699 257.957 82.8468C257.568 83.4243 257.295 84.0099 257.14 84.6025C256.984 85.1963 256.92 85.8026 256.946 86.4201C256.972 87.0389 257.046 87.7303 257.166 88.4931L250.814 89.4948ZM252.188 99.5754L251.115 92.7553L258.143 91.6491L259.217 98.4692L252.188 99.5754Z" fill="#D6D6D6"/>
<path d="M294.528 43.6685C292.082 43.0798 289.622 44.5858 289.033 47.0317L260.753 164.543C260.164 166.989 261.67 169.449 264.116 170.038L349.697 190.634C352.143 191.223 354.603 189.717 355.192 187.271L378.813 89.1174L359.857 59.3911L294.528 43.6685Z" fill="#F5F5F5"/>
<path d="M357.028 83.8742L378.813 89.1169L359.857 59.3906L354.829 80.2815C354.445 81.8807 355.429 83.4894 357.028 83.8742Z" fill="#D6D6D6"/>
<path d="M359.857 59.3906L354.829 80.2815C354.445 81.8807 355.429 83.4894 357.028 83.8742L378.813 89.1169" stroke="#262626" stroke-width="0.254722" stroke-miterlimit="10" stroke-linecap="round" stroke-linejoin="round"/>
<path d="M311.938 127.169C312.658 124.175 313.467 121.82 314.363 120.103C315.259 118.386 316.55 116.925 318.236 115.721C319.218 114.991 320.269 114.412 321.393 113.984C322.514 113.557 323.571 113.072 324.56 112.532C325.548 111.992 326.432 111.331 327.211 110.553C327.989 109.774 328.555 108.649 328.91 107.177C329.508 104.691 329.241 102.788 328.109 101.468C326.977 100.149 325.472 99.2633 323.595 98.8115C320.904 98.1639 318.872 98.468 317.498 99.72C316.122 100.973 315.002 102.837 314.139 105.313L304.32 102.951C304.918 100.465 305.868 98.3041 307.168 96.4689C308.468 94.635 310.038 93.1871 311.878 92.1265C313.716 91.0666 315.78 90.4084 318.069 90.1543C320.357 89.8997 322.771 90.078 325.309 90.6887C330.789 92.0077 334.846 94.1651 337.48 97.1609C340.113 100.157 340.827 104.167 339.618 109.191C339.227 110.816 338.72 112.196 338.098 113.334C337.474 114.472 336.714 115.457 335.817 116.288C334.918 117.118 333.883 117.85 332.713 118.48C331.54 119.111 330.236 119.735 328.799 120.356C327.474 120.951 326.381 121.533 325.52 122.103C324.657 122.674 323.95 123.323 323.401 124.049C322.85 124.775 322.417 125.571 322.102 126.434C321.786 127.298 321.495 128.289 321.226 129.404L311.938 127.169ZM308.099 141.787L310.498 131.816L320.774 134.289L318.374 144.26L308.099 141.787Z" fill="#D6D6D6"/>
<path d="M371.888 274.636V175.074C371.888 163.231 362.288 153.63 350.444 153.63H277.218L269.911 138.254C267.763 133.734 263.205 130.854 258.201 130.854H210.68V274.637H371.888V274.636Z" fill="#447158"/>
<path d="M371.889 274.636H210.519L195.295 195.365C192.656 181.622 201.657 170.481 215.401 170.481H327.002C340.745 170.481 354.026 181.623 356.665 195.365L371.889 274.636Z" fill="#698B75"/>
<path d="M288.014 195.723L276.138 210.746L257.967 195.723L249.602 206.305L267.772 221.329L255.897 236.352L268.697 246.935L280.572 231.912L298.744 246.935L307.11 236.352L288.938 221.329L300.814 206.305L288.014 195.723Z" fill="#447158"/>
<path d="M371.889 274.636L356.665 195.365C354.026 181.622 340.745 170.481 327.002 170.481H215.401H210.52" stroke="#262626" stroke-width="0.291388" stroke-miterlimit="10" stroke-linecap="round" stroke-linejoin="round"/>
<path d="M348.219 264.943C347.191 264.943 346.275 264.216 346.072 263.17L332.994 195.782C332.763 194.595 333.539 193.446 334.726 193.215C335.916 192.982 337.063 193.761 337.293 194.948L350.372 262.335C350.602 263.522 349.827 264.671 348.639 264.902C348.498 264.929 348.358 264.943 348.219 264.943Z" fill="#DCE3DE"/>
<path d="M185.125 143.902C201.961 144.787 211.831 143.134 217.872 141.265C217.872 141.265 218.135 141.184 230.29 137.353L229.355 143.902C228.305 144.538 226.817 145.408 224.996 146.368C221.808 148.048 218.704 149.422 214.535 151.005C206.262 154.144 202.126 155.714 196.268 156.586C191.936 157.231 188.294 157.26 185.806 157.171L185.125 143.902Z" fill="#F7A99C"/>
<path d="M192.34 144.138L193.969 156.881L196.059 156.617C196.319 155.291 196.613 152.892 195.939 150.02C195.278 147.205 193.989 145.216 193.177 144.145C192.898 144.143 192.619 144.14 192.34 144.138Z" fill="#FF7769"/>
<path d="M165.922 134.617C167.42 135.444 169.425 136.476 171.857 137.523C174.119 138.497 176.549 139.543 179.682 140.33C179.682 140.33 181.96 140.902 191.335 141.776C192.318 143.831 193.558 147.054 193.972 151.174C194.322 154.655 193.963 157.585 193.546 159.638C186.798 160.049 180.051 160.46 173.303 160.871L165.922 134.617Z" fill="#698B75"/>
<path d="M157.547 134.617C158.794 134.617 160.041 134.617 161.288 134.617C162.833 134.617 164.377 134.617 165.922 134.617C168.233 135.984 171.564 138.379 174.238 142.328C177.333 146.9 178.15 151.491 178.716 157.643C179.344 164.469 179.613 174.393 178.575 186.175L136.473 185.835C136.473 178.562 136.473 171.29 136.473 164.018C136.678 158.513 137.327 153.985 137.94 150.685C138.931 145.352 139.743 143.692 140.619 142.392C143.108 138.703 146.667 137.114 148.274 136.395C152.036 134.716 155.481 134.544 157.547 134.617Z" fill="#698B75"/>
<mask id="mask0_3157_127141" style="mask-type:luminance" maskUnits="userSpaceOnUse" x="136" y="134" width="44" height="52">
<path d="M157.547 134.617C158.794 134.617 160.041 134.617 161.288 134.617C162.833 134.617 164.377 134.617 165.922 134.617C168.233 135.984 171.564 138.379 174.238 142.328C177.333 146.9 178.15 151.491 178.716 157.643C179.344 164.469 179.742 174.053 178.704 185.835H136.473C136.473 178.562 136.473 171.29 136.473 164.018C136.678 158.513 137.327 153.985 137.94 150.685C138.931 145.352 139.743 143.692 140.619 142.392C143.108 138.703 146.667 137.114 148.274 136.395C152.036 134.716 155.481 134.544 157.547 134.617Z" fill="white"/>
</mask>
<g mask="url(#mask0_3157_127141)">
<path d="M179.379 157.119C175.095 157.377 175.036 155.403 170.744 155.403C166.45 155.403 166.45 157.121 162.157 157.121C157.866 157.121 157.866 155.403 153.573 155.403C149.279 155.403 149.279 157.121 144.984 157.121C140.689 157.121 140.732 155.661 136.445 155.405C136.188 155.389 135.535 156.006 135.535 155.749C135.535 155.491 137.253 155.491 137.253 155.232C137.253 154.974 135.535 154.974 135.535 154.716C135.535 154.456 137.253 154.456 137.253 154.197C137.253 153.938 136.083 152.838 136.342 152.822C140.626 152.564 140.686 154.538 144.978 154.538C149.271 154.538 149.271 152.82 153.564 152.82C157.856 152.82 157.856 154.538 162.148 154.538C166.443 154.538 166.443 152.82 170.738 152.82C175.032 152.82 174.989 154.28 179.277 154.536C179.533 154.552 180.186 153.935 180.186 154.192C180.186 154.45 178.469 154.45 178.469 154.709C178.469 154.967 180.186 154.967 180.186 155.225C180.186 155.485 178.438 155.628 178.481 155.884C178.596 156.589 179.638 157.103 179.379 157.119Z" fill="#FFF9EB"/>
<path d="M180.059 164.034C175.507 164.246 175.459 162.211 170.903 162.211C166.344 162.211 166.344 164.034 161.785 164.034C157.229 164.034 157.229 162.211 152.672 162.211C148.111 162.211 148.111 164.034 143.551 164.034C138.991 164.034 139.028 162.422 134.473 162.212C134.263 162.202 133.52 162.913 133.52 162.702C133.52 162.491 135.343 162.491 135.343 162.28C135.343 162.068 133.52 162.068 133.52 161.857C133.52 161.645 135.343 161.645 135.343 161.433C135.343 161.221 134.177 160.108 134.389 160.098C138.941 159.885 138.988 161.92 143.545 161.92C148.104 161.92 148.104 160.097 152.662 160.097C157.219 160.097 157.219 161.92 161.776 161.92C166.336 161.92 166.336 160.097 170.896 160.097C175.456 160.097 175.419 161.709 179.975 161.92C180.185 161.93 180.928 161.219 180.928 161.429C180.928 161.641 179.105 161.641 179.105 161.851C179.105 162.063 180.928 162.063 180.928 162.274C180.928 162.486 179.084 162.62 179.114 162.83C179.214 163.511 180.271 164.024 180.059 164.034Z" fill="#FFF9EB"/>
<path d="M180.072 171.556C175.455 171.833 175.392 169.707 170.766 169.707C166.139 169.707 166.139 171.557 161.512 171.557C156.887 171.557 156.887 169.707 152.261 169.707C147.632 169.707 147.632 171.557 143.004 171.557C138.375 171.557 138.422 169.983 133.801 169.708C133.527 169.692 132.82 170.357 132.82 170.082C132.82 169.806 134.671 169.806 134.671 169.53C134.671 169.253 132.82 169.253 132.82 168.976C132.82 168.699 134.671 168.699 134.671 168.421C134.671 168.144 133.413 166.96 133.69 166.943C138.307 166.666 138.371 168.792 142.997 168.792C147.624 168.792 147.624 166.941 152.251 166.941C156.877 166.941 156.877 168.792 161.502 168.792C166.131 168.792 166.131 166.941 170.759 166.941C175.388 166.941 175.341 168.516 179.962 168.79C180.236 168.806 180.942 168.141 180.942 168.416C180.942 168.692 179.091 168.692 179.091 168.968C179.091 169.245 180.942 169.245 180.942 169.521C180.942 169.799 179.059 169.953 179.104 170.227C179.229 170.986 180.349 171.539 180.072 171.556Z" fill="#FFF9EB"/>
</g>
<path d="M159.028 113.31C158.443 113.559 157.597 113.965 156.663 114.6C155.735 115.23 151.402 118.176 151.317 122.078C151.282 123.727 152.03 124.353 151.46 125.486C150.797 126.805 149.552 126.408 148.6 127.775C147.312 129.623 147.937 132.723 147.937 132.723L157.452 132.823L174.607 132.758C176.38 128.539 175.975 126.243 175.191 124.912C174.842 124.319 174.58 124.193 174.265 123.449C173.427 121.471 174.428 120.35 174.276 117.481C174.209 116.212 174.135 114.823 173.203 113.529C172.168 112.089 170.658 111.583 169.887 111.324C167.193 110.421 164.772 111.185 163.836 111.54L159.028 113.31Z" fill="#262626"/>
<path d="M161.736 138.01C159.382 138.019 157.466 136.117 157.457 133.763L157.422 124.589L165.948 124.557L165.983 133.731C165.992 136.085 164.091 138.001 161.736 138.01Z" fill="#F7A99C"/>
<path d="M165.971 131.163L160.418 128.311C160.474 128.792 160.79 131.044 162.771 132.599C164.035 133.592 165.364 133.819 165.978 133.883L165.971 131.163Z" fill="#FF7769"/>
<path d="M157.217 121.746C157.19 121.608 156.824 121.399 156.712 121.327C156.523 121.205 156.318 121.109 156.104 121.039C155.688 120.906 155.231 120.874 154.803 120.972C153.953 121.167 153.199 121.882 153.058 122.756C152.975 123.264 153.093 123.79 153.311 124.257C153.638 124.958 154.193 125.548 154.864 125.934C155.419 126.254 156.052 126.435 156.691 126.473C156.819 126.48 158.13 126.45 158.12 126.4C157.819 124.849 157.518 123.298 157.217 121.746Z" fill="#F7A99C"/>
<path d="M156.045 121.836C156.145 122.521 156.747 126.131 160.002 128.682C160.601 129.152 164.586 132.276 168.233 130.751C172.919 128.792 172.407 121.096 172.374 120.679C172.263 119.27 171.934 115.12 168.497 112.906C165.692 111.099 162.652 111.763 162.222 111.865C161.767 111.972 158.874 112.701 157.103 115.538C155.496 118.113 155.879 120.716 156.045 121.836Z" fill="#F7A99C"/>
<path d="M169.717 120.684C169.793 121.285 170.256 121.722 170.752 121.659C171.248 121.596 171.589 121.059 171.514 120.458C171.438 119.858 170.975 119.421 170.479 119.484C169.983 119.545 169.642 120.083 169.717 120.684Z" fill="#262626"/>
<path d="M164.299 121.364C164.375 121.965 164.838 122.401 165.334 122.339C165.831 122.277 166.172 121.739 166.096 121.138C166.02 120.537 165.557 120.101 165.061 120.163C164.565 120.226 164.224 120.763 164.299 121.364Z" fill="#262626"/>
<path d="M168.079 121.584L168.909 122.705C169.062 122.911 169.005 123.204 168.786 123.337L168.023 123.801" stroke="#262626" stroke-width="0.446186" stroke-miterlimit="10" stroke-linecap="round" stroke-linejoin="round"/>
<path d="M169.157 126.278C168.915 126.044 168.426 125.633 167.686 125.409C166.708 125.113 165.879 125.32 165.555 125.42" stroke="#262626" stroke-width="0.446186" stroke-miterlimit="10" stroke-linecap="round" stroke-linejoin="round"/>
<path d="M162.486 124.193C162.571 124.867 163.186 125.345 163.86 125.261C164.534 125.176 165.012 124.561 164.928 123.887C164.843 123.213 164.228 122.735 163.554 122.819C162.879 122.904 162.401 123.519 162.486 124.193Z" fill="#FF7769"/>
<path d="M156.642 124.829C156.646 124.694 156.658 123.779 155.923 123.118C155.348 122.6 154.678 122.567 154.496 122.563" stroke="#262626" stroke-width="0.446186" stroke-miterlimit="10" stroke-linecap="round" stroke-linejoin="round"/>
<path d="M155.995 123.3C155.955 123.294 155.462 123.225 155.118 123.597C154.835 123.903 154.861 124.282 154.866 124.345" stroke="#262626" stroke-width="0.446186" stroke-miterlimit="10" stroke-linecap="round" stroke-linejoin="round"/>
<path d="M155.939 120.995C155.939 120.995 156.545 121.049 157.001 121.502C157.458 121.955 157.62 122.732 157.62 122.732C158.552 122.655 161.418 122.299 163.885 119.992C165.611 118.379 166.341 116.561 166.643 115.622C166.901 116.276 167.489 117.447 168.739 118.183C170.088 118.977 171.872 119.067 172.101 118.603C172.143 118.517 172.096 118.266 172.001 117.765C171.967 117.583 171.931 117.315 171.843 117.058C171.67 116.555 171.447 116.07 171.179 115.61C170.643 114.691 169.931 113.875 169.092 113.22C168.547 112.795 167.948 112.439 167.311 112.168C165.29 111.308 162.483 111.308 160.068 112.596C160.068 112.596 157.371 114.034 156.182 116.849C155.774 117.817 155.671 118.784 155.645 119.119C155.594 119.783 155.669 120.218 155.77 120.552C155.827 120.741 155.891 120.892 155.939 120.995Z" fill="#262626"/>
<path d="M171.737 122.249C171.971 122.219 172.195 122.261 172.394 122.351C172.37 123.012 172.307 123.813 172.162 124.663C172.123 124.672 172.085 124.685 172.044 124.69C171.37 124.775 170.754 124.297 170.67 123.623C170.585 122.948 171.063 122.333 171.737 122.249Z" fill="#FF7769"/>
<path d="M160.746 113.781C162.529 113.774 163.97 112.379 163.964 110.665C163.957 108.951 162.506 107.567 160.722 107.574C158.938 107.58 157.497 108.975 157.504 110.689C157.51 112.403 158.962 113.787 160.746 113.781Z" fill="#262626"/>
<path d="M159.028 113.31C159.028 113.31 152.897 115.873 151.749 118.025C150.601 120.177 152.127 123.662 151.579 124.699C151.032 125.737 148.808 126.167 148.27 127.027C147.732 127.888 147.804 131.551 147.804 131.551" stroke="#262626" stroke-width="0.312849" stroke-miterlimit="10" stroke-linecap="round" stroke-linejoin="round"/>
<path d="M163.836 111.539C163.836 111.539 168.031 110.075 171.044 111.539C174.057 113.004 175.025 114.618 175.205 116.375C175.384 118.133 173.726 121.68 173.995 122.564C174.264 123.448 175.456 124.732 176.102 126.096C176.747 127.458 175.02 131.702 175.02 131.702" stroke="#262626" stroke-width="0.312849" stroke-miterlimit="10" stroke-linecap="round" stroke-linejoin="round"/>
<path d="M221.006 140.28L218.16 149.571C218.16 149.571 220.762 148.448 221.286 148.203C221.81 147.959 222.502 147.629 222.502 147.629L224.141 139.291L221.006 140.28Z" fill="#FF7769"/>
<path opacity="0.5" d="M244.971 128.29C257.499 117.787 259.139 99.1159 248.636 86.5883C238.132 74.0606 219.461 72.4199 206.933 82.9236C194.406 93.4274 192.765 112.098 203.269 124.626C213.773 137.153 232.443 138.794 244.971 128.29Z" fill="#CDEBF5"/>
<path d="M237.64 72.9679C219.615 66.5113 199.77 75.8887 193.314 93.9126C186.857 111.936 196.234 131.782 214.258 138.239C232.282 144.696 252.128 135.318 258.585 117.294C265.041 99.2704 255.664 79.4245 237.64 72.9679ZM216.586 131.742C202.15 126.571 194.639 110.676 199.81 96.2395C204.982 81.8034 220.877 74.2925 235.313 79.4639C249.749 84.6353 257.259 100.531 252.089 114.967C246.917 129.403 231.021 136.914 216.586 131.742Z" fill="#BBBBBB"/>
<path d="M196.105 188.92C192.209 187.525 190.182 183.235 191.578 179.339L208.802 131.257L222.91 136.311L205.686 184.392C204.291 188.289 200.001 190.316 196.105 188.92Z" fill="#BBBBBB"/>
<path d="M238.956 122.538C238.239 122.538 237.524 122.266 236.974 121.723C235.869 120.628 235.861 118.846 236.955 117.741C238.943 115.734 240.498 113.29 241.451 110.675C242.515 107.753 242.637 105.206 242.614 103.947C242.588 102.453 242.532 99.3452 240.757 96.2511C238.285 91.9419 233.894 90.24 232.121 89.7076C230.631 89.2608 229.786 87.6909 230.233 86.2018C230.68 84.712 232.252 83.8667 233.739 84.3141C236.744 85.2157 242.286 87.6015 245.641 93.4493C248.137 97.7991 248.212 102.038 248.244 103.847C248.28 105.862 248.048 109.017 246.741 112.604C245.513 115.976 243.512 119.124 240.956 121.705C240.406 122.26 239.681 122.538 238.956 122.538Z" fill="white"/>
<path d="M211.734 81.752C201.534 86.9327 195.929 100.547 198.807 111.492C198.823 111.548 198.838 111.605 198.853 111.662" stroke="#262626" stroke-width="0.312849" stroke-miterlimit="10" stroke-linecap="round" stroke-linejoin="round"/>
<path d="M209.424 137.353L195.914 175.112" stroke="#262626" stroke-width="0.312849" stroke-miterlimit="10" stroke-linecap="round" stroke-linejoin="round"/>
<path d="M209.016 145.644L198.973 174.571" stroke="#262626" stroke-width="0.312849" stroke-miterlimit="10" stroke-linecap="round" stroke-linejoin="round"/>
<path d="M256.227 113.31C260.521 102.706 255.814 88.756 246.459 82.3876C246.41 82.3551 246.361 82.3226 246.312 82.29" stroke="white" stroke-width="0.312849" stroke-miterlimit="10" stroke-linecap="round" stroke-linejoin="round"/>
<path d="M148.852 165.422C157.96 173.366 166.007 175.99 171.619 176.921C183.284 178.858 202.993 176.566 205.595 177.16C206.517 177.37 206.991 177.29 207.942 177.13C208.277 177.074 208.813 176.957 209.167 176.522C209.265 176.402 209.433 176.196 209.421 175.929C209.4 175.468 208.848 175.023 208.848 175.023C208.962 175.066 209.327 175.189 209.757 175.053C209.88 175.014 210.311 174.858 210.514 174.452C210.748 173.983 210.599 173.34 210.124 172.886C210.886 173.267 211.702 173.022 211.978 172.507C212.157 172.175 212.152 171.654 211.846 171.294C211.633 171.043 211.354 170.965 211.24 170.94C211.478 170.937 212.118 170.895 212.607 170.424C212.746 170.291 212.975 170.071 213.011 169.733C213.064 169.233 212.655 168.852 212.579 168.782C212.173 168.404 211.662 168.378 210.793 168.356C209.002 168.311 207.093 168.324 207.093 168.324L209.9 166.092C210.199 165.56 210.214 164.94 209.921 164.55C209.498 163.988 208.411 163.878 207.64 164.61C205.724 165.72 203.809 166.831 201.893 167.942C201.893 167.942 199.979 168.963 198.194 169.186C196.407 169.409 181.639 165.9 178.577 164.72C175.515 163.54 161.736 156.587 161.736 156.587L148.852 165.422Z" fill="#F7A99C"/>
<path d="M163.705 157.576L158.117 171.664C158.897 172.21 159.798 172.781 160.821 173.335C161.847 173.89 162.82 174.332 163.705 174.686C164.864 173.946 167.213 172.226 168.892 169.102C170.754 165.636 170.743 162.393 170.659 161.021C168.34 159.873 166.023 158.725 163.705 157.576Z" fill="#FF7769"/>
<path d="M165.988 155.64C165.988 155.64 155.61 149.558 153.144 145.986C150.678 142.414 149.365 135.952 149.364 135.947C149.379 136.022 147.237 136.887 147.023 136.985C146.191 137.367 145.391 137.819 144.634 138.334C143.119 139.362 141.772 140.64 140.674 142.107C137.26 146.669 136.35 153.153 137.885 158.591C138.548 160.941 139.692 163.162 141.301 165.005C143.329 167.327 145.965 168.989 148.584 170.562C151.118 172.083 153.725 173.485 156.356 174.829C156.478 174.892 158.641 175.936 158.63 175.968C160.216 174.079 162.37 171.063 163.946 166.909C165.696 162.298 165.997 158.222 165.988 155.64Z" fill="#698B75"/>
<path d="M175.707 186.175C175.707 186.175 186.616 222.452 187.253 227.683C187.891 232.914 182.979 273.869 182.979 273.869H167.988L160.078 233.297C160.078 233.297 159.057 240.569 154.209 245.672C149.36 250.776 131.626 268.383 131.626 268.383L120.398 257.411L133.922 232.659C134.688 227.399 135.091 222.948 135.319 219.604C135.68 214.322 135.86 211.681 135.592 208.555C135.048 202.205 133.627 201.113 133.741 196.792C133.812 194.147 134.454 190.375 137.166 185.835C150.013 185.948 162.86 186.061 175.707 186.175Z" fill="#2D2D2D"/>
<path d="M169.094 273.869V289.094H193.505L192.867 284.713C192.867 284.713 185.212 280.418 184.021 279.44C182.83 278.462 181.555 276.548 181.299 275.952C181.044 275.357 181.299 273.868 181.299 273.868H169.094V273.869Z" fill="#F7A99C"/>
<path d="M167.86 279.611C168.158 279.528 168.608 279.452 169.093 279.59C170.342 279.945 170.669 281.391 171.209 282.163L185.211 282.322C185.182 281.613 185.152 280.902 185.124 280.193C185.853 279.956 186.581 279.72 187.31 279.483C188.837 281.187 190.322 282.175 191.444 282.773C193.167 283.691 195.401 284.416 196.311 285.969C196.753 286.722 196.775 287.488 196.777 287.629C196.784 288.024 196.794 288.578 196.396 288.946C196.101 289.22 195.722 289.259 195.546 289.265C186.508 289.208 177.471 289.152 168.434 289.095C168.117 289.095 167.859 288.838 167.859 288.52L167.86 279.611Z" fill="#2D2D2D"/>
<path d="M195.576 290.838H168.936C168.341 290.838 167.859 290.355 167.859 289.761V288.566H196.653V289.761C196.653 290.356 196.171 290.838 195.576 290.838Z" fill="black"/>
<path d="M120.648 257.654L110.02 268.556L127.498 285.597L130.099 282.015C130.099 282.015 127.617 273.595 127.446 272.064C127.276 270.532 127.699 268.271 127.932 267.667C128.165 267.062 129.387 266.174 129.387 266.174L120.648 257.654Z" fill="#F7A99C"/>
<path d="M115.754 260.903C116.025 261.052 116.401 261.311 116.652 261.749C117.298 262.875 116.524 264.139 116.371 265.069L126.286 274.958C126.76 274.429 127.235 273.9 127.709 273.372C128.396 273.711 129.083 274.05 129.77 274.39C129.674 276.675 130.047 278.419 130.433 279.63C131.027 281.491 132.12 283.57 131.687 285.317C131.477 286.165 130.959 286.728 130.862 286.831C130.591 287.118 130.212 287.521 129.67 287.507C129.267 287.497 128.969 287.262 128.839 287.142C122.407 280.792 115.976 274.443 109.544 268.094C109.317 267.872 109.313 267.509 109.534 267.282L115.754 260.903Z" fill="#2D2D2D"/>
<path d="M127.763 288.291L108.688 269.695C108.262 269.279 108.254 268.598 108.669 268.172L109.503 267.316L130.12 287.416L129.286 288.272C128.872 288.698 128.19 288.707 127.763 288.291Z" fill="black"/>
<path d="M229.834 144.09C229.271 144.587 228.411 144.534 227.914 143.972L224.536 140.151C224.039 139.589 224.092 138.729 224.655 138.232C225.217 137.734 226.077 137.787 226.574 138.35L229.952 142.17C230.449 142.733 230.396 143.593 229.834 144.09Z" fill="#F7A99C"/>
<path d="M231.587 142.927C231.025 143.424 230.165 143.372 229.668 142.809L226.29 138.988C225.793 138.426 225.846 137.566 226.408 137.068C226.971 136.571 227.831 136.624 228.328 137.187L231.706 141.007C232.203 141.57 232.15 142.429 231.587 142.927Z" fill="#F7A99C"/>
<path d="M233.318 142.221C232.756 142.718 231.896 142.665 231.398 142.103L228.021 138.282C227.523 137.72 227.576 136.86 228.139 136.362C228.702 135.865 229.561 135.918 230.059 136.481L233.436 140.301C233.934 140.864 233.881 141.723 233.318 142.221Z" fill="#F7A99C"/>
<path d="M235.334 141.226C234.771 141.723 233.911 141.67 233.414 141.107L230.036 137.287C229.539 136.724 229.592 135.865 230.155 135.367C230.717 134.87 231.577 134.923 232.074 135.486L235.452 139.306C235.949 139.869 235.896 140.728 235.334 141.226Z" fill="#F7A99C"/>
<path d="M210.097 165.568C209.908 165.799 209.66 166.085 209.353 166.4C208.806 166.961 208.299 167.379 207.925 167.664C207.423 168.045 206.76 168.492 205.934 168.911" stroke="#262626" stroke-width="0.312849" stroke-miterlimit="10" stroke-linecap="round" stroke-linejoin="round"/>
<path d="M212.333 170.632C212.333 170.632 212.086 170.876 211.238 170.94C210.39 171.003 209.422 170.786 209.422 170.786" stroke="#262626" stroke-width="0.312849" stroke-miterlimit="10" stroke-linecap="round" stroke-linejoin="round"/>
<path d="M211.167 173.045C211.167 173.045 210.838 173.066 209.977 172.941C209.116 172.815 208.273 172.546 208.273 172.546" stroke="#262626" stroke-width="0.312849" stroke-miterlimit="10" stroke-linecap="round" stroke-linejoin="round"/>
<path d="M209.422 175.112C209.422 175.112 208.705 175.038 208.275 174.931C207.844 174.823 207.324 174.572 207.324 174.572" stroke="#262626" stroke-width="0.312849" stroke-miterlimit="10" stroke-linecap="round" stroke-linejoin="round"/>
<path d="M225.949 137.951L229.491 142.327" stroke="#262626" stroke-width="0.312849" stroke-miterlimit="10" stroke-linecap="round" stroke-linejoin="round"/>
<path d="M227.719 136.793L230.29 140.279" stroke="#262626" stroke-width="0.312849" stroke-miterlimit="10" stroke-linecap="round" stroke-linejoin="round"/>
<path d="M229.695 136.192L232.595 139.458" stroke="#262626" stroke-width="0.312849" stroke-miterlimit="10" stroke-linecap="round" stroke-linejoin="round"/>
<path d="M224.256 138.859C224.256 138.859 224.02 139.522 224.422 139.998C224.824 140.474 228.082 144.128 228.082 144.128" stroke="#262626" stroke-width="0.312849" stroke-miterlimit="10" stroke-linecap="round" stroke-linejoin="round"/>
<path opacity="0.5" d="M137.242 155.041C137.242 155.041 138.714 165.635 145.218 171.948C151.722 178.261 159.026 178.165 159.026 178.165L158.63 175.969C156.835 175.194 154.492 174.043 151.922 172.365C150.212 171.248 147.119 169.199 143.975 165.731C140.709 162.129 138.603 158.334 137.242 155.041Z" fill="#447158"/>
<path d="M153.03 144.783C153.03 144.783 153.617 146.588 155.574 148.485C157.531 150.383 165.99 155.64 165.99 155.64C165.99 155.64 165.901 157.342 165.66 159.433C165.457 161.193 165.176 163.158 164.421 165.568C164.137 166.474 163.033 169.832 160.442 173.592C159.753 174.592 159.115 175.394 158.633 175.968C152.43 173.272 149.133 170.768 147.253 168.913C146.723 168.39 143.287 164.94 143.285 164.943" stroke="#262626" stroke-width="0.312849" stroke-miterlimit="10" stroke-linecap="round" stroke-linejoin="round"/>
<path d="M174.113 141.509C175.201 144.107 176.266 147.117 177.141 150.511C178.553 155.98 179.076 160.912 179.206 164.942" stroke="#262626" stroke-width="0.312849" stroke-miterlimit="10" stroke-linecap="round" stroke-linejoin="round"/>
<path d="M162.724 207.146C162.724 207.146 170.567 237.083 171.045 244.831C171.523 252.578 173.627 273.869 173.627 273.869H167.988L160.078 233.297L162.724 207.146Z" fill="black"/>
<path d="M156.656 242.463C157.783 240.446 159.254 237.331 160.078 233.297C160.246 232.476 160.317 231.957 160.786 227.136C161.415 220.68 161.893 215.39 161.92 215.09C162.099 213.099 162.375 210.077 162.723 206.333C162.723 206.333 163.201 198.92 163.44 195.094" stroke="#262626" stroke-width="0.312849" stroke-miterlimit="10" stroke-linecap="round" stroke-linejoin="round"/>
<path d="M146.656 185.835C146.656 185.835 144.79 221.828 143.929 226.132C143.068 230.436 140.878 239.905 137.167 244.783C133.456 249.661 125.051 261.946 125.051 261.946" stroke="#262626" stroke-width="0.312849" stroke-miterlimit="10" stroke-linecap="round" stroke-linejoin="round"/>
<path d="M162.871 207.707C162.871 207.707 170.037 237.03 170.542 240.931C171.046 244.832 173.629 273.87 173.629 273.87" stroke="#262626" stroke-width="0.312849" stroke-miterlimit="10" stroke-linecap="round" stroke-linejoin="round"/>
<path d="M120.645 257.654L129.385 266.175L128.35 267.077L119.273 259.061L120.645 257.654Z" fill="#FF7769"/>
<path d="M169.094 273.869H181.299L181.193 275.39H169.094V273.869Z" fill="#FF7769"/>
<path d="M173.837 94.3907C174.056 93.4834 174.301 92.7689 174.573 92.2489C174.844 91.7284 175.235 91.286 175.746 90.9206C176.044 90.6991 176.363 90.5239 176.703 90.3944C177.044 90.2648 177.363 90.1178 177.664 89.9545C177.963 89.7912 178.231 89.5903 178.467 89.3545C178.703 89.1179 178.874 88.7776 178.982 88.3308C179.163 87.5775 179.083 86.9999 178.739 86.6001C178.396 86.2003 177.94 85.9319 177.371 85.7949C176.555 85.5984 175.939 85.691 175.522 86.0702C175.105 86.45 174.766 87.015 174.504 87.7658L171.527 87.0494C171.709 86.296 171.996 85.6409 172.391 85.0847C172.785 84.5291 173.261 84.0898 173.818 83.7682C174.375 83.4472 175.001 83.2476 175.695 83.1707C176.388 83.0937 177.12 83.1475 177.889 83.3327C179.551 83.7326 180.78 84.3864 181.579 85.2949C182.378 86.2034 182.594 87.4185 182.227 88.9415C182.109 89.4339 181.955 89.8525 181.766 90.1973C181.577 90.542 181.346 90.8405 181.075 91.0926C180.803 91.3442 180.489 91.5663 180.134 91.7571C179.778 91.9486 179.383 92.1382 178.948 92.3259C178.546 92.5061 178.215 92.6825 177.953 92.8552C177.692 93.0286 177.477 93.225 177.311 93.4453C177.144 93.6655 177.012 93.907 176.917 94.168C176.821 94.4301 176.733 94.7298 176.652 95.0683L173.837 94.3907ZM172.674 98.8219L173.401 95.7991L176.516 96.5487L175.789 99.5715L172.674 98.8219Z" fill="#698B75"/>
<path d="M166.083 100.164C165.893 99.589 165.784 99.1116 165.755 98.7325C165.726 98.3533 165.79 97.9747 165.947 97.5987C166.035 97.3747 166.15 97.1688 166.294 96.9811C166.437 96.7934 166.563 96.6026 166.672 96.4099C166.781 96.2171 166.86 96.015 166.909 95.8042C166.958 95.5933 166.936 95.3468 166.842 95.064C166.684 94.5866 166.442 94.2963 166.116 94.1936C165.79 94.091 165.446 94.0992 165.086 94.2187C164.569 94.3895 164.262 94.6516 164.163 95.0033C164.063 95.3556 164.069 95.7829 164.182 96.286L162.297 96.9104C162.138 96.433 162.073 95.9738 162.1 95.5326C162.127 95.0915 162.239 94.6867 162.435 94.3188C162.632 93.9509 162.908 93.6268 163.264 93.3464C163.619 93.0661 164.041 92.8453 164.529 92.6838C165.58 92.3353 166.482 92.2746 167.233 92.5011C167.984 92.7283 168.519 93.3239 168.839 94.2881C168.942 94.6003 169.001 94.8832 169.015 95.1378C169.029 95.3925 169.005 95.6359 168.941 95.868C168.877 96.1001 168.78 96.3298 168.65 96.5563C168.52 96.7834 168.367 97.0231 168.191 97.2758C168.032 97.5123 167.91 97.7232 167.825 97.9078C167.741 98.093 167.69 98.2744 167.673 98.4528C167.657 98.6311 167.667 98.8094 167.704 98.9859C167.741 99.1629 167.795 99.3588 167.866 99.5728L166.083 100.164ZM166.959 103.003L166.325 101.089L168.298 100.436L168.932 102.35L166.959 103.003Z" fill="#698B75"/>
<path d="M285.007 63.7695L270.906 122.36" stroke="#262626" stroke-width="0.171441" stroke-miterlimit="10" stroke-linecap="round" stroke-linejoin="round"/>
</svg>
