<svg width="24" height="24" viewBox="0 0 24 24" fill="none" xmlns="http://www.w3.org/2000/svg">
<g clip-path="url(#clip0_3587_69269)">
<path d="M6.26172 10.9563V14.0867C6.26172 14.3748 6.49482 14.6084 6.78345 14.6084H10.9573C11.2457 14.6084 11.4791 14.3748 11.4791 14.0867V10.9563C11.4791 10.6684 11.2457 10.4346 10.9573 10.4346H6.78345C6.49482 10.4346 6.26172 10.6684 6.26172 10.9563ZM7.30519 11.478H10.4356V13.565H7.30519V11.478Z" fill="#696AA7"/>
<path d="M24.0001 9.91296C24.0001 6.74867 21.4253 4.17388 18.261 4.17388C16.8981 4.17388 15.6085 4.66708 14.5969 5.50496C14.4726 2.4492 11.9554 0 8.8698 0C5.7055 0 3.13071 2.57479 3.13071 5.73908C3.13071 6.51557 3.2986 7.28467 3.60175 7.99467L0.208948 10.5391C-0.0216039 10.7119 -0.0687333 11.039 0.104499 11.2695C0.277222 11.4996 0.603815 11.5472 0.834622 11.374L2.08724 10.4347V22.9563H0.52204C0.233404 22.9563 0.00030486 23.1902 0.00030486 23.4781C0.00030486 23.7662 0.233404 23.9998 0.52204 23.9998H23.4784C23.7668 23.9998 24.0001 23.7662 24.0001 23.4781V21.3911C24.0001 19.9528 22.8298 18.7825 21.3914 18.7825H18.7828V15.6256C21.7032 15.3611 24.0001 12.9015 24.0001 9.91296ZM8.8698 1.04347C11.4591 1.04347 13.5654 3.15028 13.5654 5.73908C13.5654 6.09854 13.5211 6.45596 13.4401 6.80446C13.343 6.95426 13.2538 7.10966 13.1703 7.26939L9.18289 4.27833C8.99768 4.13898 8.74242 4.13898 8.55721 4.27833L4.46053 7.35091C4.27226 6.83732 4.17418 6.29852 4.17418 5.73908C4.17418 3.15028 6.28048 1.04347 8.8698 1.04347ZM10.435 22.9563H7.30459V17.739H10.435V22.9563ZM14.6089 22.9563H11.4785V17.2172C11.4785 16.9294 11.2451 16.6955 10.9567 16.6955H6.78286C6.49422 16.6955 6.26112 16.9294 6.26112 17.2172V22.9563H3.13071V9.65209L8.8698 5.34778L14.6089 9.65209V22.9563ZM21.3914 19.8259C22.2543 19.8259 22.9566 20.5283 22.9566 21.3911V22.9563H15.6523V19.8259H21.3914ZM15.6523 18.7825V15.0251C16.3012 15.3578 17.0056 15.5614 17.7393 15.6271V18.7825H15.6523ZM18.261 14.6086C17.3202 14.6086 16.425 14.3327 15.6523 13.8145V10.4347L16.9045 11.374C16.9985 11.4443 17.108 11.4782 17.217 11.4782C17.376 11.4782 17.5322 11.4063 17.6348 11.2695C17.8081 11.039 17.7612 10.7119 17.5306 10.5391L14.1376 7.99416C14.2374 7.76081 14.3223 7.52312 14.3908 7.2783C15.2531 6.0188 16.6943 5.21735 18.261 5.21735C20.8503 5.21735 22.9566 7.32416 22.9566 9.91296C22.9566 12.502 20.8503 14.6086 18.261 14.6086Z" fill="#696AA7"/>
</g>
<defs>
<clipPath id="clip0_3587_69269">
<rect width="24" height="24" fill="white"/>
</clipPath>
</defs>
</svg>
