<svg width="24" height="24" viewBox="0 0 24 24" fill="none" xmlns="http://www.w3.org/2000/svg">
<path d="M18.989 6.17992V8.51325C18.989 8.66796 18.9275 8.81633 18.8181 8.92573C18.7087 9.03512 18.5603 9.09658 18.4056 9.09658C18.2509 9.09658 18.1025 9.03512 17.9931 8.92573C17.8838 8.81633 17.8223 8.66796 17.8223 8.51325V7.01817L14.7306 10.0935C14.6203 10.1995 14.4728 10.2579 14.3198 10.2562C14.1669 10.2544 14.0207 10.1927 13.9128 10.0842C13.805 9.9757 13.744 9.82919 13.7431 9.67621C13.7423 9.52324 13.8015 9.37604 13.9081 9.26633L17.0115 6.17992H15.489C15.3343 6.17992 15.1859 6.11846 15.0765 6.00906C14.9671 5.89966 14.9056 5.75129 14.9056 5.59658C14.9056 5.44187 14.9671 5.2935 15.0765 5.1841C15.1859 5.07471 15.3343 5.01325 15.489 5.01325H17.8223C18.1317 5.01325 18.4285 5.13616 18.6473 5.35496C18.866 5.57375 18.989 5.8705 18.989 6.17992ZM18.461 14.7777C18.7991 15.1166 18.9889 15.5758 18.9889 16.0546C18.9889 16.5333 18.7991 16.9925 18.461 17.3315L17.929 17.944C13.151 22.5162 1.52571 10.8944 6.02904 6.10233L6.69929 5.519C7.03885 5.19045 7.49399 5.00862 7.96646 5.01276C8.43893 5.01691 8.89081 5.2067 9.22454 5.54117C9.24204 5.55925 10.323 6.96392 10.323 6.96392C10.6436 7.30076 10.8221 7.74819 10.8215 8.21324C10.8208 8.67829 10.641 9.12522 10.3195 9.46117L9.64338 10.3111C10.0172 11.2194 10.5668 12.0449 11.2607 12.7401C11.9545 13.4354 12.7789 13.9867 13.6865 14.3623L14.541 13.6827C14.877 13.3613 15.3238 13.1816 15.7887 13.181C16.2536 13.1803 16.7009 13.3588 17.0377 13.6792C17.0377 13.6792 18.443 14.7602 18.461 14.7777ZM17.659 15.6258C17.659 15.6258 16.263 14.5513 16.245 14.5338C16.1248 14.4147 15.9624 14.3478 15.7932 14.3478C15.6239 14.3478 15.4616 14.4147 15.3414 14.5338C15.3256 14.549 14.149 15.487 14.149 15.487C14.0698 15.5501 13.9754 15.5915 13.8753 15.607C13.7751 15.6226 13.6727 15.6118 13.578 15.5757C12.4015 15.1382 11.3329 14.4527 10.4448 13.5658C9.55665 12.6788 8.86972 11.6112 8.43063 10.4353C8.39221 10.3397 8.37981 10.2357 8.39466 10.1337C8.40952 10.0318 8.45111 9.93557 8.51521 9.85492C8.51521 9.85492 9.45263 8.67833 9.46838 8.66258C9.58753 8.54241 9.65439 8.38002 9.65439 8.21079C9.65439 8.04156 9.58753 7.87917 9.46838 7.759C9.45088 7.7415 8.37638 6.345 8.37638 6.345C8.25448 6.23555 8.09533 6.17688 7.93155 6.181C7.76778 6.18512 7.61179 6.25173 7.49554 6.36717L6.82529 6.9505C3.53296 10.9067 13.6089 20.4243 17.0756 17.1483L17.6076 16.5358C17.7331 16.4207 17.8086 16.2612 17.8182 16.0913C17.8278 15.9213 17.7706 15.7543 17.659 15.6258Z" fill="white"/>
</svg>
