<svg width="31" height="30" viewBox="0 0 31 30" fill="none" xmlns="http://www.w3.org/2000/svg">
<rect x="0.441406" width="30" height="30" rx="5" fill="#F1F4F1"/>
<path d="M19.8893 10.6667H15.8893C15.2805 10.6689 14.684 10.8382 14.1649 11.1562C13.6458 11.4742 13.2239 11.9287 12.9453 12.47C12.5456 12.1665 12.0579 12.0015 11.556 12C10.9372 12 10.3437 12.2458 9.90607 12.6834C9.46849 13.121 9.22266 13.7145 9.22266 14.3333C9.22461 14.68 9.30458 15.0218 9.45666 15.3333H8.55599V8.66667C8.55599 8.48986 8.48575 8.32029 8.36073 8.19526C8.2357 8.07024 8.06613 8 7.88932 8C7.71251 8 7.54294 8.07024 7.41792 8.19526C7.29289 8.32029 7.22266 8.48986 7.22266 8.66667V20.6667C7.22266 20.8435 7.29289 21.013 7.41792 21.1381C7.54294 21.2631 7.71251 21.3333 7.88932 21.3333C8.06613 21.3333 8.2357 21.2631 8.36073 21.1381C8.48575 21.013 8.55599 20.8435 8.55599 20.6667V19.3333H21.8893V20.6667C21.8893 20.8435 21.9596 21.013 22.0846 21.1381C22.2096 21.2631 22.3792 21.3333 22.556 21.3333C22.7328 21.3333 22.9024 21.2631 23.0274 21.1381C23.1524 21.013 23.2227 20.8435 23.2227 20.6667V14C23.2216 13.1163 22.8701 12.269 22.2452 11.6441C21.6203 11.0193 20.7731 10.6677 19.8893 10.6667ZM13.8893 14C13.8893 13.4696 14.1 12.9609 14.4751 12.5858C14.8502 12.2107 15.3589 12 15.8893 12H19.8893C20.4198 12 20.9285 12.2107 21.3035 12.5858C21.6786 12.9609 21.8893 13.4696 21.8893 14V15.3333H13.8893V14ZM10.556 14.3333C10.556 14.1356 10.6146 13.9422 10.7245 13.7778C10.8344 13.6133 10.9906 13.4851 11.1733 13.4095C11.356 13.3338 11.5571 13.314 11.7511 13.3525C11.9451 13.3911 12.1232 13.4864 12.2631 13.6262C12.4029 13.7661 12.4982 13.9443 12.5368 14.1382C12.5754 14.3322 12.5556 14.5333 12.4799 14.716C12.4042 14.8987 12.276 15.0549 12.1116 15.1648C11.9471 15.2747 11.7538 15.3333 11.556 15.3333C11.2908 15.3333 11.0364 15.228 10.8489 15.0404C10.6613 14.8529 10.556 14.5985 10.556 14.3333ZM8.55599 18V16.6667H21.8893V18H8.55599Z" fill="#447158"/>
</svg>
