<svg width="31" height="30" viewBox="0 0 31 30" fill="none" xmlns="http://www.w3.org/2000/svg">
<rect x="0.328125" width="30" height="30" rx="5" fill="#F1F4F1"/>
<path d="M8.47624 11.6196L9.73774 10.3575L12.1988 12.8178C12.3245 12.9392 12.4928 13.0064 12.6675 13.0049C12.8422 13.0033 13.0094 12.9333 13.1329 12.8097C13.2565 12.6861 13.3266 12.519 13.3281 12.3443C13.3296 12.1695 13.2624 12.0012 13.1411 11.8755L10.6807 9.4145L11.9429 8.153C12.0361 8.05972 12.0996 7.94087 12.1252 7.8115C12.1509 7.68212 12.1376 7.54804 12.087 7.42624C12.0364 7.30443 11.9508 7.20038 11.841 7.12725C11.7313 7.05413 11.6023 7.01522 11.4704 7.01545H8.29565C8.04185 7.01545 7.79844 7.11627 7.61898 7.29574C7.43952 7.4752 7.3387 7.71861 7.3387 7.97241V11.1471C7.33846 11.279 7.37737 11.408 7.45049 11.5178C7.52362 11.6276 7.62767 11.7132 7.74948 11.7638C7.87128 11.8144 8.00536 11.8277 8.13474 11.802C8.26411 11.7763 8.38297 11.7129 8.47624 11.6196Z" fill="#447158"/>
<path d="M19.9744 20.6097L18.7122 21.8719C18.6192 21.9652 18.5559 22.084 18.5304 22.2133C18.5049 22.3425 18.5182 22.4765 18.5688 22.5981C18.6194 22.7198 18.7049 22.8238 18.8145 22.8968C18.9241 22.9699 19.053 23.0089 19.1847 23.0088H22.3595C22.6133 23.0088 22.8567 22.908 23.0361 22.7285C23.2156 22.549 23.3164 22.3056 23.3164 22.0518V18.8771C23.3165 18.7453 23.2775 18.6164 23.2043 18.5067C23.1312 18.397 23.0271 18.3115 22.9053 18.261C22.7835 18.2105 22.6495 18.1973 22.5202 18.2229C22.3909 18.2486 22.2721 18.3121 22.1789 18.4053L20.9174 19.6668L18.457 17.2064C18.3313 17.085 18.163 17.0179 17.9883 17.0194C17.8135 17.0209 17.6464 17.091 17.5228 17.2145C17.3993 17.3381 17.3292 17.5052 17.3277 17.68C17.3261 17.8547 17.3933 18.023 17.5147 18.1487L19.9744 20.6097Z" fill="#447158"/>
<path d="M22.3634 7.00746H19.1886C19.0568 7.00736 18.9279 7.04636 18.8182 7.11954C18.7086 7.19272 18.6231 7.29678 18.5726 7.41855C18.522 7.54033 18.5088 7.67436 18.5345 7.80367C18.5602 7.93298 18.6236 8.05177 18.7168 8.14501L19.9783 9.40651L17.518 11.8669C17.3929 11.9918 17.3226 12.1613 17.3226 12.3381C17.3225 12.5149 17.3927 12.6844 17.5176 12.8095C17.6426 12.9345 17.8121 13.0048 17.9889 13.0049C18.1657 13.0049 18.3352 12.9348 18.4603 12.8098L20.9213 10.3495L22.1828 11.6116C22.276 11.7049 22.3949 11.7684 22.5243 11.794C22.6536 11.8197 22.7877 11.8064 22.9095 11.7558C23.0313 11.7052 23.1354 11.6196 23.2085 11.5098C23.2816 11.4 23.3205 11.271 23.3203 11.1392V7.96442C23.3203 7.71062 23.2195 7.46721 23.04 7.28775C22.8606 7.10828 22.6172 7.00746 22.3634 7.00746Z" fill="#447158"/>
<path d="M8.27927 23.0088H11.454C11.5858 23.0089 11.7148 22.9699 11.8244 22.8967C11.9341 22.8235 12.0196 22.7195 12.0701 22.5977C12.1206 22.4759 12.1339 22.3419 12.1082 22.2126C12.0825 22.0833 12.019 21.9645 11.9258 21.8712L10.6643 20.6097L13.1247 18.1487C13.1883 18.0873 13.2391 18.0137 13.274 17.9324C13.3089 17.8511 13.3273 17.7637 13.3281 17.6752C13.3289 17.5867 13.312 17.499 13.2785 17.4171C13.245 17.3352 13.1955 17.2608 13.1329 17.1982C13.0704 17.1356 12.996 17.0861 12.9141 17.0526C12.8322 17.0191 12.7444 17.0023 12.6559 17.003C12.5674 17.0038 12.48 17.0222 12.3987 17.0571C12.3174 17.092 12.2439 17.1428 12.1824 17.2064L9.72136 19.6668L8.4592 18.4046C8.36589 18.3116 8.24709 18.2483 8.11783 18.2228C7.98857 18.1973 7.85464 18.2106 7.73297 18.2612C7.61131 18.3118 7.50736 18.3973 7.43426 18.5069C7.36117 18.6165 7.32221 18.7454 7.32232 18.8771V22.0518C7.32232 22.3056 7.42314 22.549 7.6026 22.7285C7.78207 22.908 8.02547 23.0088 8.27927 23.0088Z" fill="#447158"/>
</svg>
