<svg width="80" height="22" viewBox="0 0 80 22" fill="none" xmlns="http://www.w3.org/2000/svg">
<path d="M22.9062 16.4775H24.6805C25.2181 16.4775 25.8633 16.8001 25.8633 17.6603C25.8633 18.6819 25.2181 18.9507 24.7342 18.9507H23.2288V20.241H22.9062V16.4775ZM23.2288 16.7464V18.6281H24.6805C25.0568 18.6281 25.5407 18.4668 25.5407 17.6603C25.5407 16.9076 25.1106 16.7464 24.6805 16.7464H23.2288Z" fill="black"/>
<path d="M30.1193 18.7932C30.3881 19.0083 30.5494 19.4384 30.7107 19.8685L30.872 20.2449H30.5494L30.3344 19.6535C30.1193 19.0621 29.8505 18.847 29.4204 18.847H28.2913V20.2986H27.9688V16.5352H29.743C30.3344 16.5352 30.9258 16.804 30.9258 17.6642C30.9258 17.8793 30.872 18.6319 30.1193 18.7932ZM29.6892 18.5244C30.1193 18.5244 30.5494 18.5244 30.5494 17.6104C30.5494 16.8577 30.1193 16.7502 29.6892 16.7502H28.2913V18.5244H29.6892Z" fill="black"/>
<path d="M32.9023 18.2547C32.9023 16.9106 33.9239 16.4268 34.7841 16.4268C35.6443 16.4268 36.612 16.9106 36.612 18.2547C36.612 19.9214 35.483 20.244 34.7841 20.244C34.0314 20.2977 32.9023 19.9214 32.9023 18.2547ZM36.2895 18.3085C36.2895 17.1257 35.5368 16.7493 34.7841 16.7493C34.0314 16.7493 33.2249 17.1257 33.2249 18.3085C33.2249 19.7063 34.1389 19.9752 34.7841 19.9752C35.3755 19.9752 36.2895 19.7063 36.2895 18.3085Z" fill="black"/>
<path d="M38.8008 16.4775H40.575C41.1126 16.4775 41.7578 16.8001 41.7578 17.6603C41.7578 18.6819 41.1126 18.9507 40.6287 18.9507H39.1234V20.241H38.8008V16.4775ZM39.1234 16.7464V18.6281H40.575C40.9513 18.6281 41.4352 18.4668 41.4352 17.6603C41.4352 16.9076 41.0051 16.7464 40.575 16.7464H39.1234Z" fill="black"/>
<path d="M44.1859 16.7464V18.1442H46.0138V18.4668H44.1859V19.9184H46.4439V20.241H43.8633V16.4775H46.4439V16.8001H44.1859V16.7464Z" fill="black"/>
<path d="M50.8537 18.7932C51.1225 19.0083 51.2838 19.4384 51.4451 19.8685L51.6064 20.2449H51.2838L51.0687 19.6535C50.8537 19.0621 50.5849 18.847 50.1547 18.847H49.0257V20.2986H48.7031V16.5352H50.4773C51.0687 16.5352 51.6601 16.804 51.6601 17.6642C51.6601 17.8793 51.6064 18.6319 50.8537 18.7932ZM50.4773 18.5244C50.9074 18.5244 51.3375 18.5244 51.3375 17.6104C51.3375 16.8577 50.9074 16.7502 50.4773 16.7502H49.0795V18.5244H50.4773Z" fill="black"/>
<path d="M53.5352 16.4775H56.4384V16.8001H55.1481V20.2948H54.8255V16.8001H53.5352V16.4775Z" fill="black"/>
<path d="M61.2284 16.4775H61.6047L60.1531 18.9507V20.241H59.8305V18.9507L58.3789 16.4775H58.7553L60.0456 18.6281L61.2284 16.4775Z" fill="black"/>
<path d="M62.8555 19.918H63.1756V20.2381H62.8555V19.918Z" fill="black"/>
<path d="M65.6976 18.3085C65.6976 19.7063 66.6116 19.9752 67.3105 19.9752C67.6331 19.9752 67.9557 19.9214 68.2782 19.7601L68.4395 19.9752C68.1169 20.1902 67.6868 20.244 67.3643 20.244C66.6653 20.244 65.375 19.9214 65.375 18.2547C65.375 16.8569 66.3427 16.4268 67.3643 16.4268C67.7406 16.4268 68.1169 16.5343 68.4395 16.6956L68.2782 16.9106C67.9557 16.7493 67.6331 16.6956 67.3643 16.6956C66.5578 16.7493 65.6976 17.0182 65.6976 18.3085Z" fill="black"/>
<path d="M70.375 18.2547C70.375 16.9106 71.3965 16.4268 72.2567 16.4268C73.117 16.4268 74.0847 16.9106 74.0847 18.2547C74.0847 19.9214 72.9557 20.244 72.2567 20.244C71.504 20.2977 70.375 19.9214 70.375 18.2547ZM73.7621 18.3085C73.7621 17.1257 73.0094 16.7493 72.2567 16.7493C71.504 16.7493 70.6976 17.1257 70.6976 18.3085C70.6976 19.7063 71.6116 19.9752 72.2567 19.9752C72.8481 19.9752 73.7621 19.7063 73.7621 18.3085Z" fill="black"/>
<path d="M78.0017 19.327L76.6038 17.2302V20.241H76.2812V16.4775H76.4963L78.1092 19.0044L79.7221 16.4775H79.9372V20.241H79.6146V17.2302L78.2705 19.327H78.0017Z" fill="black"/>
<path d="M26.5486 6.64258C26.9787 6.64258 27.3551 6.69634 27.7314 6.85763C28.1078 7.01892 28.4303 7.23398 28.6992 7.5028C28.968 7.77162 29.183 8.0942 29.3443 8.47054C29.5056 8.84689 29.5594 9.22324 29.5594 9.65335C29.5594 10.0835 29.5056 10.4598 29.3443 10.7824C29.183 11.1587 29.0217 11.4275 28.7529 11.6964C28.4841 11.9652 28.1615 12.1802 27.7314 12.3415C27.3013 12.5028 26.8712 12.5566 26.2798 12.5566H24.3981V15.0835H22.7852V6.64258H26.5486ZM26.5486 11.105C26.7637 11.105 26.9787 11.0512 27.1938 10.9974C27.3551 10.8899 27.5164 10.7824 27.6239 10.6749C27.7314 10.5136 27.8389 10.406 27.8927 10.191C27.9465 10.0297 28.0002 9.81464 28.0002 9.65335C28.0002 9.43829 27.9465 9.277 27.8927 9.06195C27.8389 8.84689 27.7314 8.6856 27.5701 8.57807C27.4626 8.41678 27.3013 8.30925 27.0863 8.20173C26.8712 8.0942 26.6561 8.04044 26.4411 8.04044H24.3981V11.105H26.5486Z" fill="black"/>
<path d="M28.5977 15.0835L32.8988 6.64258H33.06L37.3611 15.0835H35.5869L34.9418 13.7394H30.9633L30.3181 15.0835H28.5977ZM31.7697 12.3415H34.1891L33.0063 9.81464L31.7697 12.3415Z" fill="black"/>
<path d="M43.5519 15.0835L40.0035 11.2663V15.0835H38.3906V6.64258H40.0035V10.9437L43.3369 6.64258H45.3261L41.8315 10.9974L45.6487 15.0835H43.5519Z" fill="black"/>
<path d="M48.6949 15.0835H47.082V6.64258H48.6949V15.0835Z" fill="black"/>
<path d="M50.4375 13.9516L51.2977 12.6612C51.7278 12.9301 52.1579 13.1989 52.588 13.4139C53.0182 13.629 53.502 13.7365 53.9859 13.7365C54.2547 13.7365 54.4698 13.6827 54.6848 13.629C54.8999 13.5752 55.0612 13.4677 55.1687 13.3602C55.33 13.2526 55.4375 13.1451 55.4913 12.9838C55.5451 12.8763 55.5988 12.715 55.5988 12.6075C55.5988 12.4462 55.5451 12.2849 55.4375 12.1774C55.33 12.0698 55.1687 11.9623 55.0074 11.9085C54.8461 11.8548 54.6311 11.7473 54.416 11.6935C54.201 11.6397 53.9321 11.586 53.6633 11.5322C53.502 11.4784 53.287 11.4784 53.0719 11.4247C52.8569 11.3709 52.6418 11.3171 52.373 11.2634C52.1579 11.2096 51.8891 11.1021 51.6741 10.9946C51.459 10.887 51.244 10.7257 51.0289 10.5645C50.8676 10.4032 50.7063 10.1881 50.5988 9.91929C50.4913 9.65047 50.4375 9.38165 50.4375 9.05907C50.4375 8.5752 50.545 8.14509 50.7601 7.8225C50.9751 7.49992 51.1902 7.2311 51.5128 7.06981C51.8354 6.85476 52.1579 6.74723 52.5343 6.69347C52.9106 6.6397 53.287 6.58594 53.6096 6.58594C53.9859 6.58594 54.2547 6.58594 54.5773 6.6397C54.8461 6.69347 55.1149 6.74723 55.33 6.85476C55.5451 6.96228 55.8139 7.06981 56.0289 7.17734C56.244 7.33863 56.5128 7.44616 56.7816 7.66121L55.8676 8.95154C55.4913 8.68272 55.0612 8.46767 54.7386 8.30638C54.3623 8.14509 53.9859 8.09132 53.5558 8.09132C53.3945 8.09132 53.287 8.09132 53.0719 8.14509C52.9106 8.19885 52.7493 8.25261 52.588 8.30638C52.4268 8.36014 52.3192 8.46767 52.2117 8.5752C52.1042 8.68272 52.0504 8.84401 52.0504 9.0053C52.0504 9.1666 52.1042 9.32789 52.2117 9.43541C52.3192 9.54294 52.4805 9.65047 52.6956 9.70423C52.9106 9.758 53.1257 9.86552 53.3407 9.91929C53.5558 9.97305 53.7709 10.0268 53.9859 10.0806C54.1472 10.1343 54.3623 10.1343 54.5773 10.1881C54.7924 10.2419 55.0074 10.2956 55.2762 10.3494C55.4913 10.4032 55.7601 10.5107 55.9752 10.6182C56.1902 10.7257 56.4053 10.887 56.5666 11.0483C56.7279 11.2096 56.8892 11.4784 56.9967 11.6935C57.1042 11.9085 57.158 12.2849 57.158 12.6612C57.158 13.0913 57.1042 13.4677 56.9429 13.7903C56.7816 14.1129 56.5666 14.3817 56.2977 14.5967C56.0289 14.8118 55.6526 14.9731 55.2762 15.0806C54.8999 15.1881 54.4698 15.2419 53.9859 15.2419C53.5558 15.2419 53.1795 15.1881 52.8031 15.1344C52.4805 15.0806 52.1579 14.9731 51.8891 14.8656C51.6203 14.758 51.3515 14.5967 51.0827 14.4892C50.9751 14.3279 50.7063 14.1666 50.4375 13.9516Z" fill="black"/>
<path d="M63.979 8.03756H61.5596V15.0268H59.9467V8.03756H57.5273V6.58594H63.979V8.03756Z" fill="black"/>
<path d="M62.9023 15.0835L67.2034 6.64258H67.3647L71.6658 15.0835H69.8916L69.2465 13.7394H65.2679L64.6228 15.0835H62.9023ZM66.0744 12.3415H68.4938L67.311 9.81464L66.0744 12.3415Z" fill="black"/>
<path d="M79.842 15.0835L74.3043 10.0835V15.0835H72.6914V6.64258H72.8527L78.3904 11.7501V6.64258H80.0033V15.0835H79.842Z" fill="black"/>
<path d="M0.537637 6.20867L2.74195 4.64952C2.84948 4.59576 2.90324 4.48823 2.90324 4.3807V3.57425C2.90324 2.98284 2.41937 2.55273 1.88173 2.55273H1.02151C0.43011 2.55273 0 3.03661 0 3.57425V5.99361C0 6.20867 0.322582 6.36996 0.537637 6.20867Z" fill="#1B573E"/>
<path d="M17.6883 20.2952C18.6022 20.2952 19.3012 19.5963 19.3012 18.6823V7.82206C19.3012 7.28442 19.0324 6.74678 18.5485 6.47796L10.1613 1.04783C9.62371 0.671482 8.87101 0.725246 8.33338 1.10159L0.698928 6.53173C0.268818 6.85431 0 7.33818 0 7.82206V18.6286C0 19.5425 0.698928 20.2415 1.61291 20.2415L17.6883 20.2952Z" fill="#1B573E"/>
<path d="M6.72564 11.3718H7.63962V6.69436H10.4353C10.4353 6.69436 13.5536 7.12447 13.6612 10.5116C13.6612 10.5116 13.7149 13.6836 10.4353 14.275H6.67188V20.2589H7.63962V15.2966L10.1665 15.3503C10.1665 15.3503 14.3063 15.1353 14.6289 10.4578C14.6289 10.4578 14.7364 6.69436 10.6504 5.67285H6.67188V11.3718H6.72564Z" fill="white"/>
<path d="M8.65522 7.61035H10.3219C10.3219 7.61035 12.6337 8.20175 12.6875 10.2448C12.6875 10.2448 13.0638 12.7717 10.2144 13.3631H5.75198V20.2583H4.73047V7.61035H8.65522Z" fill="white"/>
<path fill-rule="evenodd" clip-rule="evenodd" d="M11.1303 11.3762C10.8077 11.6987 10.27 12.0213 9.57112 11.9676C7.95821 11.9138 7.04422 10.1396 7.85068 8.7955C7.90444 8.68798 8.01197 8.58045 8.06573 8.47292C8.17326 8.36539 8.22703 8.31163 8.33455 8.2041C8.17326 8.2041 7.95821 8.36539 7.85068 8.41916C7.42057 8.68798 7.04423 9.17185 6.88293 9.65572C6.18401 11.8063 8.76466 13.5267 10.4851 12.1289C10.7002 12.0751 11.0765 11.645 11.1303 11.3762Z" fill="#1B573E"/>
<path fill-rule="evenodd" clip-rule="evenodd" d="M9.52194 9.38428L8.76953 9.70674L9.52194 9.86797L9.62942 10.7279L10.0594 10.0292L10.8655 10.1904L10.3281 9.59925L10.758 8.84684L9.95188 9.1693L9.41445 8.57812L9.52194 9.38428Z" fill="#1B573E"/>
</svg>
