<svg width="1224" height="536" viewBox="0 0 1224 536" fill="none" xmlns="http://www.w3.org/2000/svg">
<g opacity="0.2">
<circle cx="25.4988" cy="42.7498" r="1.7" fill="white"/>
<circle cx="71.3992" cy="42.7498" r="1.7" fill="white"/>
<circle cx="117.3" cy="42.7498" r="1.7" fill="white"/>
<circle cx="163.2" cy="42.7498" r="1.7" fill="white"/>
<circle cx="209.098" cy="42.7498" r="1.7" fill="white"/>
<circle cx="254.999" cy="42.7498" r="1.7" fill="white"/>
<circle cx="300.899" cy="42.7498" r="1.7" fill="white"/>
<circle cx="346.8" cy="42.7498" r="1.7" fill="white"/>
<circle cx="392.7" cy="42.7498" r="1.7" fill="white"/>
<circle cx="438.598" cy="42.7498" r="1.7" fill="white"/>
<circle cx="484.499" cy="42.7498" r="1.7" fill="white"/>
<circle cx="530.399" cy="42.7498" r="1.7" fill="white"/>
<circle cx="576.3" cy="42.7498" r="1.7" fill="white"/>
<circle cx="622.2" cy="42.7498" r="1.7" fill="white"/>
<circle cx="668.098" cy="42.7498" r="1.7" fill="white"/>
<circle cx="713.999" cy="42.7498" r="1.7" fill="white"/>
<circle cx="759.899" cy="42.7498" r="1.7" fill="white"/>
<circle cx="805.8" cy="42.7498" r="1.7" fill="white"/>
<circle cx="851.7" cy="42.7498" r="1.7" fill="white"/>
<circle cx="897.598" cy="42.7498" r="1.7" fill="white"/>
<circle cx="943.499" cy="42.7498" r="1.7" fill="white"/>
<circle cx="989.399" cy="42.7498" r="1.7" fill="white"/>
<circle cx="1035.3" cy="42.7498" r="1.7" fill="white"/>
<circle cx="1081.2" cy="42.7498" r="1.7" fill="white"/>
<circle cx="1127.1" cy="42.7498" r="1.7" fill="white"/>
<circle cx="1173" cy="42.7498" r="1.7" fill="white"/>
<circle cx="1218.9" cy="42.7498" r="1.7" fill="white"/>
<circle cx="25.4988" cy="88.6502" r="1.7" fill="white"/>
<circle cx="71.3992" cy="88.6502" r="1.7" fill="white"/>
<circle cx="117.3" cy="88.6502" r="1.7" fill="white"/>
<circle cx="163.2" cy="88.6502" r="1.7" fill="white"/>
<circle cx="209.098" cy="88.6502" r="1.7" fill="white"/>
<circle cx="254.999" cy="88.6502" r="1.7" fill="white"/>
<circle cx="300.899" cy="88.6502" r="1.7" fill="white"/>
<circle cx="346.8" cy="88.6502" r="1.7" fill="white"/>
<circle cx="392.7" cy="88.6502" r="1.7" fill="white"/>
<circle cx="438.598" cy="88.6502" r="1.7" fill="white"/>
<circle cx="484.499" cy="88.6502" r="1.7" fill="white"/>
<circle cx="530.399" cy="88.6502" r="1.7" fill="white"/>
<circle cx="576.3" cy="88.6502" r="1.7" fill="white"/>
<circle cx="622.2" cy="88.6502" r="1.7" fill="white"/>
<circle cx="668.098" cy="88.6502" r="1.7" fill="white"/>
<circle cx="713.999" cy="88.6502" r="1.7" fill="white"/>
<circle cx="759.899" cy="88.6502" r="1.7" fill="white"/>
<circle cx="805.8" cy="88.6502" r="1.7" fill="white"/>
<circle cx="851.7" cy="88.6502" r="1.7" fill="white"/>
<circle cx="897.598" cy="88.6502" r="1.7" fill="white"/>
<circle cx="943.499" cy="88.6502" r="1.7" fill="white"/>
<circle cx="989.399" cy="88.6502" r="1.7" fill="white"/>
<circle cx="1035.3" cy="88.6502" r="1.7" fill="white"/>
<circle cx="1081.2" cy="88.6502" r="1.7" fill="white"/>
<circle cx="1127.1" cy="88.6502" r="1.7" fill="white"/>
<circle cx="1173" cy="88.6502" r="1.7" fill="white"/>
<circle cx="1218.9" cy="88.6502" r="1.7" fill="white"/>
<circle cx="25.4988" cy="134.55" r="1.7" fill="white"/>
<circle cx="71.3992" cy="134.55" r="1.7" fill="white"/>
<circle cx="117.3" cy="134.55" r="1.7" fill="white"/>
<circle cx="163.2" cy="134.55" r="1.7" fill="white"/>
<circle cx="209.098" cy="134.55" r="1.7" fill="white"/>
<circle cx="254.999" cy="134.55" r="1.7" fill="white"/>
<circle cx="300.899" cy="134.55" r="1.7" fill="white"/>
<circle cx="346.8" cy="134.55" r="1.7" fill="white"/>
<circle cx="392.7" cy="134.55" r="1.7" fill="white"/>
<circle cx="438.598" cy="134.55" r="1.7" fill="white"/>
<circle cx="484.499" cy="134.55" r="1.7" fill="white"/>
<circle cx="530.399" cy="134.55" r="1.7" fill="white"/>
<circle cx="576.3" cy="134.55" r="1.7" fill="white"/>
<circle cx="622.2" cy="134.55" r="1.7" fill="white"/>
<circle cx="668.098" cy="134.55" r="1.7" fill="white"/>
<circle cx="713.999" cy="134.55" r="1.7" fill="white"/>
<circle cx="759.899" cy="134.55" r="1.7" fill="white"/>
<circle cx="805.8" cy="134.55" r="1.7" fill="white"/>
<circle cx="851.7" cy="134.55" r="1.7" fill="white"/>
<circle cx="897.598" cy="134.55" r="1.7" fill="white"/>
<circle cx="943.499" cy="134.55" r="1.7" fill="white"/>
<circle cx="989.399" cy="134.55" r="1.7" fill="white"/>
<circle cx="1035.3" cy="134.55" r="1.7" fill="white"/>
<circle cx="1081.2" cy="134.55" r="1.7" fill="white"/>
<circle cx="1127.1" cy="134.55" r="1.7" fill="white"/>
<circle cx="1173" cy="134.55" r="1.7" fill="white"/>
<circle cx="1218.9" cy="134.55" r="1.7" fill="white"/>
<circle cx="25.4988" cy="180.45" r="1.7" fill="white"/>
<circle cx="71.3992" cy="180.45" r="1.7" fill="white"/>
<circle cx="117.3" cy="180.45" r="1.7" fill="white"/>
<circle cx="163.2" cy="180.45" r="1.7" fill="white"/>
<circle cx="209.098" cy="180.45" r="1.7" fill="white"/>
<circle cx="254.999" cy="180.45" r="1.7" fill="white"/>
<circle cx="300.899" cy="180.45" r="1.7" fill="white"/>
<circle cx="346.8" cy="180.45" r="1.7" fill="white"/>
<circle cx="392.7" cy="180.45" r="1.7" fill="white"/>
<circle cx="438.598" cy="180.45" r="1.7" fill="white"/>
<circle cx="484.499" cy="180.45" r="1.7" fill="white"/>
<circle cx="530.399" cy="180.45" r="1.7" fill="white"/>
<circle cx="576.3" cy="180.45" r="1.7" fill="white"/>
<circle cx="622.2" cy="180.45" r="1.7" fill="white"/>
<circle cx="668.098" cy="180.45" r="1.7" fill="white"/>
<circle cx="713.999" cy="180.45" r="1.7" fill="white"/>
<circle cx="759.899" cy="180.45" r="1.7" fill="white"/>
<circle cx="805.8" cy="180.45" r="1.7" fill="white"/>
<circle cx="851.7" cy="180.45" r="1.7" fill="white"/>
<circle cx="897.598" cy="180.45" r="1.7" fill="white"/>
<circle cx="943.499" cy="180.45" r="1.7" fill="white"/>
<circle cx="989.399" cy="180.45" r="1.7" fill="white"/>
<circle cx="1035.3" cy="180.45" r="1.7" fill="white"/>
<circle cx="1081.2" cy="180.45" r="1.7" fill="white"/>
<circle cx="1127.1" cy="180.45" r="1.7" fill="white"/>
<circle cx="1173" cy="180.45" r="1.7" fill="white"/>
<circle cx="1218.9" cy="180.45" r="1.7" fill="white"/>
<circle cx="25.4988" cy="226.35" r="1.7" fill="white"/>
<circle cx="71.3992" cy="226.35" r="1.7" fill="white"/>
<circle cx="117.3" cy="226.35" r="1.7" fill="white"/>
<circle cx="163.2" cy="226.35" r="1.7" fill="white"/>
<circle cx="209.098" cy="226.35" r="1.7" fill="white"/>
<circle cx="254.999" cy="226.35" r="1.7" fill="white"/>
<circle cx="300.899" cy="226.35" r="1.7" fill="white"/>
<circle cx="346.8" cy="226.35" r="1.7" fill="white"/>
<circle cx="392.7" cy="226.35" r="1.7" fill="white"/>
<circle cx="438.598" cy="226.35" r="1.7" fill="white"/>
<circle cx="484.499" cy="226.35" r="1.7" fill="white"/>
<circle cx="530.399" cy="226.35" r="1.7" fill="white"/>
<circle cx="576.3" cy="226.35" r="1.7" fill="white"/>
<circle cx="622.2" cy="226.35" r="1.7" fill="white"/>
<circle cx="668.098" cy="226.35" r="1.7" fill="white"/>
<circle cx="713.999" cy="226.35" r="1.7" fill="white"/>
<circle cx="759.899" cy="226.35" r="1.7" fill="white"/>
<circle cx="805.8" cy="226.35" r="1.7" fill="white"/>
<circle cx="851.7" cy="226.35" r="1.7" fill="white"/>
<circle cx="897.598" cy="226.35" r="1.7" fill="white"/>
<circle cx="943.499" cy="226.35" r="1.7" fill="white"/>
<circle cx="989.399" cy="226.35" r="1.7" fill="white"/>
<circle cx="1035.3" cy="226.35" r="1.7" fill="white"/>
<circle cx="1081.2" cy="226.35" r="1.7" fill="white"/>
<circle cx="1127.1" cy="226.35" r="1.7" fill="white"/>
<circle cx="1173" cy="226.35" r="1.7" fill="white"/>
<circle cx="1218.9" cy="226.35" r="1.7" fill="white"/>
<circle cx="25.4988" cy="272.25" r="1.7" fill="white"/>
<circle cx="71.3992" cy="272.25" r="1.7" fill="white"/>
<circle cx="117.3" cy="272.25" r="1.7" fill="white"/>
<circle cx="163.2" cy="272.25" r="1.7" fill="white"/>
<circle cx="209.098" cy="272.25" r="1.7" fill="white"/>
<circle cx="254.999" cy="272.25" r="1.7" fill="white"/>
<circle cx="300.899" cy="272.25" r="1.7" fill="white"/>
<circle cx="346.8" cy="272.25" r="1.7" fill="white"/>
<circle cx="392.7" cy="272.25" r="1.7" fill="white"/>
<circle cx="438.598" cy="272.25" r="1.7" fill="white"/>
<circle cx="484.499" cy="272.25" r="1.7" fill="white"/>
<circle cx="530.399" cy="272.25" r="1.7" fill="white"/>
<circle cx="576.3" cy="272.25" r="1.7" fill="white"/>
<circle cx="622.2" cy="272.25" r="1.7" fill="white"/>
<circle cx="668.098" cy="272.25" r="1.7" fill="white"/>
<circle cx="713.999" cy="272.25" r="1.7" fill="white"/>
<circle cx="759.899" cy="272.25" r="1.7" fill="white"/>
<circle cx="805.8" cy="272.25" r="1.7" fill="white"/>
<circle cx="851.7" cy="272.25" r="1.7" fill="white"/>
<circle cx="897.598" cy="272.25" r="1.7" fill="white"/>
<circle cx="943.499" cy="272.25" r="1.7" fill="white"/>
<circle cx="989.399" cy="272.25" r="1.7" fill="white"/>
<circle cx="1035.3" cy="272.25" r="1.7" fill="white"/>
<circle cx="1081.2" cy="272.25" r="1.7" fill="white"/>
<circle cx="1127.1" cy="272.25" r="1.7" fill="white"/>
<circle cx="1173" cy="272.25" r="1.7" fill="white"/>
<circle cx="1218.9" cy="272.25" r="1.7" fill="white"/>
<circle cx="25.4988" cy="318.15" r="1.7" fill="white"/>
<circle cx="71.3992" cy="318.15" r="1.7" fill="white"/>
<circle cx="117.3" cy="318.15" r="1.7" fill="white"/>
<circle cx="163.2" cy="318.15" r="1.7" fill="white"/>
<circle cx="209.098" cy="318.15" r="1.7" fill="white"/>
<circle cx="254.999" cy="318.15" r="1.7" fill="white"/>
<circle cx="300.899" cy="318.15" r="1.7" fill="white"/>
<circle cx="346.8" cy="318.15" r="1.7" fill="white"/>
<circle cx="392.7" cy="318.15" r="1.7" fill="white"/>
<circle cx="438.598" cy="318.15" r="1.7" fill="white"/>
<circle cx="484.499" cy="318.15" r="1.7" fill="white"/>
<circle cx="530.399" cy="318.15" r="1.7" fill="white"/>
<circle cx="576.3" cy="318.15" r="1.7" fill="white"/>
<circle cx="622.2" cy="318.15" r="1.7" fill="white"/>
<circle cx="668.098" cy="318.15" r="1.7" fill="white"/>
<circle cx="713.999" cy="318.15" r="1.7" fill="white"/>
<circle cx="759.899" cy="318.15" r="1.7" fill="white"/>
<circle cx="805.8" cy="318.15" r="1.7" fill="white"/>
<circle cx="851.7" cy="318.15" r="1.7" fill="white"/>
<circle cx="897.598" cy="318.15" r="1.7" fill="white"/>
<circle cx="943.499" cy="318.15" r="1.7" fill="white"/>
<circle cx="989.399" cy="318.15" r="1.7" fill="white"/>
<circle cx="1035.3" cy="318.15" r="1.7" fill="white"/>
<circle cx="1081.2" cy="318.15" r="1.7" fill="white"/>
<circle cx="1127.1" cy="318.15" r="1.7" fill="white"/>
<circle cx="1173" cy="318.15" r="1.7" fill="white"/>
<circle cx="1218.9" cy="318.15" r="1.7" fill="white"/>
<circle cx="25.4988" cy="364.05" r="1.7" fill="white"/>
<circle cx="71.3992" cy="364.05" r="1.7" fill="white"/>
<circle cx="117.3" cy="364.05" r="1.7" fill="white"/>
<circle cx="163.2" cy="364.05" r="1.7" fill="white"/>
<circle cx="209.098" cy="364.05" r="1.7" fill="white"/>
<circle cx="254.999" cy="364.05" r="1.7" fill="white"/>
<circle cx="300.899" cy="364.05" r="1.7" fill="white"/>
<circle cx="346.8" cy="364.05" r="1.7" fill="white"/>
<circle cx="392.7" cy="364.05" r="1.7" fill="white"/>
<circle cx="438.598" cy="364.05" r="1.7" fill="white"/>
<circle cx="484.499" cy="364.05" r="1.7" fill="white"/>
<circle cx="530.399" cy="364.05" r="1.7" fill="white"/>
<circle cx="576.3" cy="364.05" r="1.7" fill="white"/>
<circle cx="622.2" cy="364.05" r="1.7" fill="white"/>
<circle cx="668.098" cy="364.05" r="1.7" fill="white"/>
<circle cx="713.999" cy="364.05" r="1.7" fill="white"/>
<circle cx="759.899" cy="364.05" r="1.7" fill="white"/>
<circle cx="805.8" cy="364.05" r="1.7" fill="white"/>
<circle cx="851.7" cy="364.05" r="1.7" fill="white"/>
<circle cx="897.598" cy="364.05" r="1.7" fill="white"/>
<circle cx="943.499" cy="364.05" r="1.7" fill="white"/>
<circle cx="989.399" cy="364.05" r="1.7" fill="white"/>
<circle cx="1035.3" cy="364.05" r="1.7" fill="white"/>
<circle cx="1081.2" cy="364.05" r="1.7" fill="white"/>
<circle cx="1127.1" cy="364.05" r="1.7" fill="white"/>
<circle cx="1173" cy="364.05" r="1.7" fill="white"/>
<circle cx="1218.9" cy="364.05" r="1.7" fill="white"/>
<circle cx="25.4988" cy="409.95" r="1.7" fill="white"/>
<circle cx="71.3992" cy="409.95" r="1.7" fill="white"/>
<circle cx="117.3" cy="409.95" r="1.7" fill="white"/>
<circle cx="163.2" cy="409.95" r="1.7" fill="white"/>
<circle cx="209.098" cy="409.95" r="1.7" fill="white"/>
<circle cx="254.999" cy="409.95" r="1.7" fill="white"/>
<circle cx="300.899" cy="409.95" r="1.7" fill="white"/>
<circle cx="346.8" cy="409.95" r="1.7" fill="white"/>
<circle cx="392.7" cy="409.95" r="1.7" fill="white"/>
<circle cx="438.598" cy="409.95" r="1.7" fill="white"/>
<circle cx="484.499" cy="409.95" r="1.7" fill="white"/>
<circle cx="530.399" cy="409.95" r="1.7" fill="white"/>
<circle cx="576.3" cy="409.95" r="1.7" fill="white"/>
<circle cx="622.2" cy="409.95" r="1.7" fill="white"/>
<circle cx="668.098" cy="409.95" r="1.7" fill="white"/>
<circle cx="713.999" cy="409.95" r="1.7" fill="white"/>
<circle cx="759.899" cy="409.95" r="1.7" fill="white"/>
<circle cx="805.8" cy="409.95" r="1.7" fill="white"/>
<circle cx="851.7" cy="409.95" r="1.7" fill="white"/>
<circle cx="897.598" cy="409.95" r="1.7" fill="white"/>
<circle cx="943.499" cy="409.95" r="1.7" fill="white"/>
<circle cx="989.399" cy="409.95" r="1.7" fill="white"/>
<circle cx="1035.3" cy="409.95" r="1.7" fill="white"/>
<circle cx="1081.2" cy="409.95" r="1.7" fill="white"/>
<circle cx="1127.1" cy="409.95" r="1.7" fill="white"/>
<circle cx="1173" cy="409.95" r="1.7" fill="white"/>
<circle cx="1218.9" cy="409.95" r="1.7" fill="white"/>
<circle cx="25.4988" cy="455.85" r="1.7" fill="white"/>
<circle cx="71.3992" cy="455.85" r="1.7" fill="white"/>
<circle cx="117.3" cy="455.85" r="1.7" fill="white"/>
<circle cx="163.2" cy="455.85" r="1.7" fill="white"/>
<circle cx="209.098" cy="455.85" r="1.7" fill="white"/>
<circle cx="254.999" cy="455.85" r="1.7" fill="white"/>
<circle cx="300.899" cy="455.85" r="1.7" fill="white"/>
<circle cx="346.8" cy="455.85" r="1.7" fill="white"/>
<circle cx="392.7" cy="455.85" r="1.7" fill="white"/>
<circle cx="438.598" cy="455.85" r="1.7" fill="white"/>
<circle cx="484.499" cy="455.85" r="1.7" fill="white"/>
<circle cx="530.399" cy="455.85" r="1.7" fill="white"/>
<circle cx="576.3" cy="455.85" r="1.7" fill="white"/>
<circle cx="622.2" cy="455.85" r="1.7" fill="white"/>
<circle cx="668.098" cy="455.85" r="1.7" fill="white"/>
<circle cx="713.999" cy="455.85" r="1.7" fill="white"/>
<circle cx="759.899" cy="455.85" r="1.7" fill="white"/>
<circle cx="805.8" cy="455.85" r="1.7" fill="white"/>
<circle cx="851.7" cy="455.85" r="1.7" fill="white"/>
<circle cx="897.598" cy="455.85" r="1.7" fill="white"/>
<circle cx="943.499" cy="455.85" r="1.7" fill="white"/>
<circle cx="989.399" cy="455.85" r="1.7" fill="white"/>
<circle cx="1035.3" cy="455.85" r="1.7" fill="white"/>
<circle cx="1081.2" cy="455.85" r="1.7" fill="white"/>
<circle cx="1127.1" cy="455.85" r="1.7" fill="white"/>
<circle cx="1173" cy="455.85" r="1.7" fill="white"/>
<circle cx="1218.9" cy="455.85" r="1.7" fill="white"/>
<circle cx="25.4988" cy="501.75" r="1.7" fill="white"/>
<circle cx="71.3992" cy="501.75" r="1.7" fill="white"/>
<circle cx="117.3" cy="501.75" r="1.7" fill="white"/>
<circle cx="163.2" cy="501.75" r="1.7" fill="white"/>
<circle cx="209.098" cy="501.75" r="1.7" fill="white"/>
<circle cx="254.999" cy="501.75" r="1.7" fill="white"/>
<circle cx="300.899" cy="501.75" r="1.7" fill="white"/>
<circle cx="346.8" cy="501.75" r="1.7" fill="white"/>
<circle cx="392.7" cy="501.75" r="1.7" fill="white"/>
<circle cx="438.598" cy="501.75" r="1.7" fill="white"/>
<circle cx="484.499" cy="501.75" r="1.7" fill="white"/>
<circle cx="530.399" cy="501.75" r="1.7" fill="white"/>
<circle cx="576.3" cy="501.75" r="1.7" fill="white"/>
<circle cx="622.2" cy="501.75" r="1.7" fill="white"/>
<circle cx="668.098" cy="501.75" r="1.7" fill="white"/>
<circle cx="713.999" cy="501.75" r="1.7" fill="white"/>
<circle cx="759.899" cy="501.75" r="1.7" fill="white"/>
<circle cx="805.8" cy="501.75" r="1.7" fill="white"/>
<circle cx="851.7" cy="501.75" r="1.7" fill="white"/>
<circle cx="897.598" cy="501.75" r="1.7" fill="white"/>
<circle cx="943.499" cy="501.75" r="1.7" fill="white"/>
<circle cx="989.399" cy="501.75" r="1.7" fill="white"/>
<circle cx="1035.3" cy="501.75" r="1.7" fill="white"/>
<circle cx="1081.2" cy="501.75" r="1.7" fill="white"/>
<circle cx="1127.1" cy="501.75" r="1.7" fill="white"/>
<circle cx="1173" cy="501.75" r="1.7" fill="white"/>
<circle cx="1218.9" cy="501.75" r="1.7" fill="white"/>
</g>
</svg>
