<svg width="19" height="18" viewBox="0 0 19 18" fill="none" xmlns="http://www.w3.org/2000/svg">
<path fill-rule="evenodd" clip-rule="evenodd" d="M7.81847 8.08715C8.20236 7.83515 8.71934 7.78918 9.17068 8.06906L11.9934 9.81891C12.4432 10.0978 12.6411 10.5798 12.6411 11.0175C12.6411 11.4552 12.4432 11.9373 11.9934 12.2161L9.17068 13.966C8.71934 14.2458 8.20236 14.1999 7.81847 13.9479C7.44117 13.7001 7.19922 13.2639 7.19922 12.7674V9.26761C7.19922 8.77114 7.44117 8.33488 7.81847 8.08715ZM8.50769 9.13692C8.49229 9.14705 8.45503 9.18414 8.45503 9.26761V12.7674C8.45503 12.8509 8.49229 12.8879 8.50769 12.8981L8.50878 12.8987L11.3317 11.1487C11.3494 11.1378 11.3853 11.0998 11.3853 11.0175C11.3853 10.9352 11.3494 10.8972 11.3317 10.8863L8.50903 9.13642L8.50769 9.13692Z" fill="#737678"/>
<path fill-rule="evenodd" clip-rule="evenodd" d="M6.73666 6.08729e-06C6.5526 -4.41452e-05 6.41148 -8.60193e-05 6.28811 0.0131502C5.1544 0.134822 4.28665 1.0658 4.23399 2.19354C3.23697 2.49119 2.52653 3.41371 2.51372 4.47178C2.0107 4.62276 1.57682 4.86088 1.22164 5.24454C0.675787 5.83414 0.506629 6.56077 0.500191 7.40954C0.493996 8.22557 0.639402 9.25676 0.819971 10.5374L1.1875 13.1441C1.32866 14.1455 1.44333 14.9589 1.62177 15.5963C1.80844 16.2633 2.08359 16.812 2.59304 17.2338C3.09846 17.6523 3.69808 17.8327 4.40681 17.9178C5.09209 18 5.95419 18 7.02756 18H11.9723C13.0457 18 13.9079 18 14.5931 17.9178C15.3019 17.8327 15.9015 17.6523 16.407 17.2338C16.9164 16.812 17.1915 16.2633 17.3782 15.5963C17.5566 14.9589 17.6713 14.1455 17.8125 13.1441L18.18 10.5374C18.3606 9.25676 18.506 8.22557 18.4998 7.40954C18.4934 6.56077 18.3242 5.83414 17.7783 5.24454C17.4231 4.86079 16.9891 4.62265 16.4859 4.47168C16.473 3.41371 15.7627 2.49129 14.7658 2.19359C14.7131 1.06582 13.8453 0.134822 12.7117 0.0131502C12.5883 -8.60193e-05 12.4472 -4.41452e-05 12.2631 6.08729e-06H6.73666ZM15.2018 4.25118C15.087 3.74247 14.6326 3.34884 14.0726 3.34884H4.92705C4.36703 3.34884 3.91261 3.74248 3.79778 4.25121C4.57286 4.18603 5.52302 4.18604 6.66682 4.18605H12.3331C13.4767 4.18604 14.4268 4.18603 15.2018 4.25118ZM13.4915 2.09303C13.4023 1.6546 13.0383 1.31123 12.5776 1.2618C12.5305 1.25674 12.4634 1.25582 12.2283 1.25582H6.77152C6.53638 1.25582 6.46923 1.25674 6.42212 1.2618C5.96148 1.31123 5.59744 1.6546 5.50826 2.09303H13.4915ZM2.14316 6.09769C2.39675 5.82377 2.77809 5.64209 3.51907 5.54353C4.27351 5.44318 5.28345 5.44186 6.71408 5.44186H12.2859C13.7165 5.44186 14.7264 5.44318 15.4809 5.54353C16.2218 5.64209 16.6032 5.82377 16.8568 6.09769C17.1045 6.36523 17.2388 6.72933 17.244 7.41909C17.2494 8.1308 17.1187 9.06931 16.9292 10.4134L16.5751 12.9251C16.4263 13.9806 16.3221 14.7106 16.1689 15.2579C16.0213 15.7849 15.8477 16.0664 15.6061 16.2665C15.3604 16.47 15.0304 16.6005 14.4435 16.6709C13.8418 16.7432 13.0552 16.7442 11.9317 16.7442H7.0682C5.94476 16.7442 5.15817 16.7432 4.55643 16.6709C3.96953 16.6005 3.63965 16.47 3.39393 16.2665C3.15223 16.0664 2.97862 15.7849 2.8311 15.2579C2.67791 14.7106 2.57368 13.9806 2.42485 12.9251L2.07073 10.4134C1.88123 9.06931 1.75056 8.1308 1.75596 7.41909C1.7612 6.72933 1.89547 6.36523 2.14316 6.09769Z" fill="#737678"/>
</svg>
