<svg width="15" height="18" viewBox="0 0 15 18" fill="none" xmlns="http://www.w3.org/2000/svg">
<path d="M7.4784 0C3.78885 0 0.664062 3.14279 0.664062 6.86496C0.664062 10.7632 4.28611 14.7498 6.72238 17.5517C6.73194 17.5629 7.1257 18 7.61059 18H7.65334C8.1388 18 8.52975 17.5629 8.53931 17.5517C10.8254 14.9236 14.1645 10.5894 14.1645 6.86496C14.1645 3.14222 11.7271 0 7.4784 0ZM7.70397 16.7968C7.68428 16.8165 7.65559 16.8384 7.63028 16.857C7.6044 16.839 7.57628 16.8165 7.55547 16.7968L7.26127 16.4581C4.95157 13.8087 1.78854 10.1799 1.78854 6.8644C1.78854 3.75255 4.39412 1.12391 7.47784 1.12391C11.3193 1.12391 13.0389 4.00681 13.0389 6.8644C13.0389 9.38111 11.2439 12.7236 7.70397 16.7968ZM7.43396 3.40604C5.57034 3.40604 4.05886 4.91697 4.05886 6.78115C4.05886 8.64533 5.57034 10.1563 7.43396 10.1563C9.29758 10.1563 10.8091 8.64477 10.8091 6.78115C10.8091 4.91753 9.29814 3.40604 7.43396 3.40604ZM7.43396 9.03122C6.19305 9.03122 5.15802 7.99731 5.15802 6.7564C5.15802 5.51548 6.16717 4.50633 7.40809 4.50633C8.64956 4.50633 9.65816 5.51548 9.65816 6.7564C9.65872 7.99731 8.67544 9.03122 7.43396 9.03122Z" fill="#737678"/>
</svg>
