<svg width="13" height="14" viewBox="0 0 13 14" fill="none" xmlns="http://www.w3.org/2000/svg">
<path d="M1.44444 2.99957H5V1.66623C5.00044 1.43068 5.09422 1.20446 5.26089 1.03779C5.42711 0.871566 5.65333 0.777788 5.88889 0.777344H12.1111C12.3467 0.777788 12.5729 0.871122 12.7396 1.03779C12.9062 1.20446 12.9996 1.43068 13 1.66623V12.3329C12.9996 12.5685 12.9058 12.7947 12.7396 12.9609C12.5729 13.1276 12.3467 13.2213 12.1111 13.2218H1.44444C1.20889 13.2213 0.983111 13.1276 0.816444 12.9609C0.649777 12.7942 0.556 12.5685 0.555555 12.3329V3.88845C0.556 3.6529 0.649777 3.42668 0.816444 3.26001C0.982667 3.09379 1.20889 3.00001 1.44444 2.99957ZM8.11111 12.3329H9.88889V10.1107H8.11111V12.3329ZM5.88889 12.3329H7.22222V10.1107C7.22267 9.87512 7.31644 9.6489 7.48311 9.48268C7.64933 9.31601 7.87556 9.22223 8.11111 9.22179H9.88889C10.1244 9.22223 10.3507 9.31601 10.5173 9.48268C10.6836 9.6489 10.7773 9.87512 10.7778 10.1107V12.3329H12.1111L12.1116 1.66623H5.88889V12.3329ZM1.44444 12.3329H5V3.88845H1.44444V12.3329ZM7.22222 6.99957C7.22222 7.08757 7.24844 7.17334 7.29733 7.24668C7.34578 7.31957 7.41556 7.37645 7.49644 7.41023C7.57778 7.44401 7.66711 7.45246 7.75333 7.43557C7.83956 7.41823 7.91867 7.37601 7.98089 7.31379C8.04311 7.25157 8.08533 7.17245 8.10267 7.08623C8.11956 7.00001 8.11111 6.91068 8.07733 6.82934C8.04356 6.74845 7.98667 6.67868 7.91378 6.63023C7.84044 6.58134 7.75467 6.55512 7.66667 6.55512C7.54889 6.55512 7.43556 6.60179 7.35244 6.68534C7.26889 6.76846 7.22222 6.88179 7.22222 6.99957ZM7.22222 5.22179C7.22222 5.30979 7.24844 5.39557 7.29733 5.4689C7.34578 5.54179 7.41556 5.59868 7.49644 5.63245C7.57778 5.66623 7.66711 5.67468 7.75333 5.65779C7.83956 5.64045 7.91867 5.59823 7.98089 5.53601C8.04311 5.47379 8.08533 5.39468 8.10267 5.30845C8.11956 5.22223 8.11111 5.1329 8.07733 5.05157C8.04356 4.97068 7.98667 4.9009 7.91378 4.85246C7.84044 4.80357 7.75467 4.77734 7.66667 4.77734C7.54889 4.77734 7.43556 4.82401 7.35244 4.90757C7.26889 4.99068 7.22222 5.10401 7.22222 5.22179ZM7.22222 3.44401C7.22222 3.53201 7.24844 3.61779 7.29733 3.69112C7.34578 3.76401 7.41556 3.8209 7.49644 3.85468C7.57778 3.88845 7.66711 3.8969 7.75333 3.88001C7.83956 3.86268 7.91867 3.82045 7.98089 3.75823C8.04311 3.69601 8.08533 3.6169 8.10267 3.53068C8.11956 3.44445 8.11111 3.35512 8.07733 3.27379C8.04356 3.1929 7.98667 3.12312 7.91378 3.07468C7.84044 3.02579 7.75467 2.99957 7.66667 2.99957C7.54889 2.99957 7.43556 3.04623 7.35244 3.12979C7.26889 3.2129 7.22222 3.32623 7.22222 3.44401ZM9.88889 6.99957C9.88889 7.08757 9.91511 7.17334 9.964 7.24668C10.0124 7.31957 10.0822 7.37645 10.1631 7.41023C10.2444 7.44401 10.3338 7.45246 10.42 7.43557C10.5062 7.41823 10.5853 7.37601 10.6476 7.31379C10.7098 7.25157 10.752 7.17245 10.7693 7.08623C10.7862 7.00001 10.7778 6.91068 10.744 6.82934C10.7102 6.74845 10.6533 6.67868 10.5804 6.63023C10.5071 6.58134 10.4213 6.55512 10.3333 6.55512C10.2156 6.55512 10.1022 6.60179 10.0191 6.68534C9.93556 6.76846 9.88889 6.88179 9.88889 6.99957ZM9.88889 5.22179C9.88889 5.30979 9.91511 5.39557 9.964 5.4689C10.0124 5.54179 10.0822 5.59868 10.1631 5.63245C10.2444 5.66623 10.3338 5.67468 10.42 5.65779C10.5062 5.64045 10.5853 5.59823 10.6476 5.53601C10.7098 5.47379 10.752 5.39468 10.7693 5.30845C10.7862 5.22223 10.7778 5.1329 10.744 5.05157C10.7102 4.97068 10.6533 4.9009 10.5804 4.85246C10.5071 4.80357 10.4213 4.77734 10.3333 4.77734C10.2156 4.77734 10.1022 4.82401 10.0191 4.90757C9.93556 4.99068 9.88889 5.10401 9.88889 5.22179ZM9.88889 3.44401C9.88889 3.53201 9.91511 3.61779 9.964 3.69112C10.0124 3.76401 10.0822 3.8209 10.1631 3.85468C10.2444 3.88845 10.3338 3.8969 10.42 3.88001C10.5062 3.86268 10.5853 3.82045 10.6476 3.75823C10.7098 3.69601 10.752 3.6169 10.7693 3.53068C10.7862 3.44445 10.7778 3.35512 10.744 3.27379C10.7102 3.1929 10.6533 3.12312 10.5804 3.07468C10.5071 3.02579 10.4213 2.99957 10.3333 2.99957C10.2156 2.99957 10.1022 3.04623 10.0191 3.12979C9.93556 3.2129 9.88889 3.32623 9.88889 3.44401Z" fill="#737678"/>
</svg>
