<svg width="25" height="24" viewBox="0 0 25 24" fill="none" xmlns="http://www.w3.org/2000/svg">
<path fill-rule="evenodd" clip-rule="evenodd" d="M8.83203 8.625C8.21103 8.625 7.70703 8.121 7.70703 7.5C7.70703 6.879 8.21103 6.375 8.83203 6.375C9.45303 6.375 9.95703 6.879 9.95703 7.5C9.95703 8.121 9.45303 8.625 8.83203 8.625ZM8.83203 5.25C7.58947 5.25 6.58203 6.25744 6.58203 7.5C6.58203 8.74256 7.58947 9.75 8.83203 9.75C10.0746 9.75 11.082 8.74256 11.082 7.5C11.082 6.25744 10.0746 5.25 8.83203 5.25ZM21.207 12.6345L17.832 9.1875L12.2402 14.8749L9.95703 12.5625L5.45703 16.6896V5.25C5.45703 4.629 5.96103 4.125 6.58203 4.125H20.082C20.703 4.125 21.207 4.629 21.207 5.25V12.6345ZM21.207 18.75C21.207 19.371 20.703 19.875 20.082 19.875H17.175L13.0305 15.6759L17.832 10.8744L21.207 14.2494V18.75ZM6.58203 19.875C5.96103 19.875 5.45703 19.371 5.45703 18.75V18.2218L9.9261 14.2191L15.5826 19.875H6.58203ZM20.082 3H6.58203C5.33947 3 4.33203 4.00744 4.33203 5.25V18.75C4.33203 19.9926 5.33947 21 6.58203 21H20.082C21.3246 21 22.332 19.9926 22.332 18.75V5.25C22.332 4.00744 21.3246 3 20.082 3Z" fill="#737678"/>
</svg>
