<svg width="24" height="24" viewBox="0 0 24 24" fill="none" xmlns="http://www.w3.org/2000/svg">
<path d="M13.125 16.5H10.875C10.8258 16.5 10.777 16.4903 10.7315 16.4715C10.686 16.4526 10.6446 16.425 10.6098 16.3902C10.575 16.3554 10.5474 16.314 10.5285 16.2685C10.5097 16.223 10.5 16.1742 10.5 16.125V15C10.5 14.9508 10.5097 14.902 10.5285 14.8565C10.5474 14.811 10.575 14.7696 10.6098 14.7348C10.6446 14.7 10.686 14.6724 10.7315 14.6535C10.777 14.6347 10.8258 14.625 10.875 14.625H13.125C13.1742 14.625 13.223 14.6347 13.2685 14.6535C13.314 14.6724 13.3554 14.7 13.3902 14.7348C13.425 14.7696 13.4526 14.811 13.4715 14.8565C13.4903 14.902 13.5 14.9508 13.5 15V16.125C13.5 16.1742 13.4903 16.223 13.4715 16.2685C13.4526 16.314 13.425 16.3554 13.3902 16.3902C13.3554 16.425 13.314 16.4526 13.2685 16.4715C13.223 16.4903 13.1742 16.5 13.125 16.5ZM11.25 15.75H12.75V15.375H11.25V15.75Z" fill="#2D2D2D"/>
<path d="M12.5625 15.375H11.4375C11.3883 15.375 11.3395 15.3653 11.294 15.3465C11.2485 15.3276 11.2071 15.3 11.1723 15.2652C11.1375 15.2304 11.1099 15.189 11.091 15.1435C11.0722 15.098 11.0625 15.0492 11.0625 15V11.25C11.0625 11.2008 11.0722 11.152 11.091 11.1065C11.1099 11.061 11.1375 11.0196 11.1723 10.9848C11.2071 10.95 11.2485 10.9224 11.294 10.9035C11.3395 10.8847 11.3883 10.875 11.4375 10.875H12.5625C12.6117 10.875 12.6605 10.8847 12.706 10.9035C12.7515 10.9224 12.7929 10.95 12.8277 10.9848C12.8625 11.0196 12.8901 11.061 12.909 11.1065C12.9278 11.152 12.9375 11.2008 12.9375 11.25V15C12.9375 15.0492 12.9278 15.098 12.909 15.1435C12.8901 15.189 12.8625 15.2304 12.8277 15.2652C12.7929 15.3 12.7515 15.3276 12.706 15.3465C12.6605 15.3653 12.6117 15.375 12.5625 15.375ZM11.8125 14.625H12.1875V11.625H11.8125V14.625Z" fill="#2D2D2D"/>
<path d="M14.625 11.625H9.375C9.07663 11.625 8.79048 11.5065 8.5795 11.2955C8.36853 11.0845 8.25 10.7984 8.25 10.5C8.25 10.2016 8.36853 9.91548 8.5795 9.7045C8.79048 9.49353 9.07663 9.375 9.375 9.375H14.625C14.9234 9.375 15.2095 9.49353 15.4205 9.7045C15.6315 9.91548 15.75 10.2016 15.75 10.5C15.75 10.7984 15.6315 11.0845 15.4205 11.2955C15.2095 11.5065 14.9234 11.625 14.625 11.625ZM9.375 10.125C9.27554 10.125 9.18016 10.1645 9.10983 10.2348C9.03951 10.3052 9 10.4005 9 10.5C9 10.5995 9.03951 10.6948 9.10983 10.7652C9.18016 10.8355 9.27554 10.875 9.375 10.875H14.625C14.7245 10.875 14.8198 10.8355 14.8902 10.7652C14.9605 10.6948 15 10.5995 15 10.5C15 10.4005 14.9605 10.3052 14.8902 10.2348C14.8198 10.1645 14.7245 10.125 14.625 10.125H9.375Z" fill="#2D2D2D"/>
<path d="M9.23143 16.5H8.6649C8.50487 16.4995 8.34934 16.447 8.22173 16.3505C8.09412 16.2539 8.00134 16.1185 7.95738 15.9646L7.87023 15.6563L4.86985 15.6667C4.89124 15.768 4.88849 15.8728 4.86184 15.9728C4.83518 16.0729 4.78537 16.1652 4.71642 16.2424C4.64739 16.3232 4.56164 16.3881 4.4651 16.4326C4.36855 16.4771 4.26351 16.5001 4.15721 16.5H3.49181C3.31481 16.4993 3.14396 16.4351 3.01029 16.319C2.87663 16.203 2.78903 16.0429 2.76341 15.8678L1.75707 8.76638C1.71736 8.48593 1.78629 8.20091 1.94978 7.96961C2.11326 7.73831 2.35894 7.57821 2.63657 7.52205C2.91419 7.46589 3.20278 7.51793 3.4433 7.66751C3.68383 7.81709 3.85812 8.05291 3.93053 8.32675L4.90355 11.6446H8.2943C8.64868 11.6457 8.99076 11.7746 9.25767 12.0078C9.52457 12.2409 9.69834 12.5625 9.74705 12.9135L9.96202 15.6781C9.97423 15.7812 9.96444 15.8858 9.9333 15.985C9.90216 16.0841 9.85037 16.1755 9.78134 16.2531C9.71232 16.3308 9.62763 16.3929 9.53284 16.4355C9.43805 16.478 9.33533 16.5 9.23143 16.5ZM2.8568 8.25001C2.80518 8.25 2.75415 8.26107 2.70718 8.28248C2.66021 8.3039 2.61838 8.33515 2.58453 8.37412C2.55068 8.41309 2.52559 8.45888 2.51097 8.50839C2.49634 8.5579 2.49252 8.60997 2.49975 8.66108L3.5061 15.7625L4.15721 15.75C4.1359 15.6486 4.13875 15.5436 4.16554 15.4435C4.19232 15.3434 4.24228 15.251 4.31139 15.1738C4.38038 15.0931 4.46603 15.0284 4.56244 14.984C4.65884 14.9396 4.76373 14.9167 4.86986 14.9167H7.88377C8.04387 14.9171 8.1995 14.9695 8.32719 15.0661C8.45487 15.1627 8.5477 15.2982 8.59166 15.4521L8.67882 15.7604L9.23143 15.75C9.23033 15.7449 9.22374 15.7474 9.21898 15.7478C9.21678 15.7478 9.21532 15.7473 9.21495 15.7449L9.00145 12.9928C8.97384 12.8254 8.88752 12.6732 8.75795 12.5636C8.62837 12.454 8.46401 12.3941 8.2943 12.3946H4.62267C4.54159 12.3946 4.46269 12.3684 4.39778 12.3198C4.33288 12.2712 4.28547 12.2029 4.26267 12.1251L3.20799 8.52796C3.18878 8.44913 3.14379 8.37897 3.08017 8.32862C3.01655 8.27827 2.93793 8.2506 2.8568 8.25001Z" fill="#2D2D2D"/>
<path d="M20.5066 16.5H19.8412C19.7349 16.5 19.6299 16.477 19.5334 16.4325C19.4369 16.3881 19.3511 16.3233 19.282 16.2425C19.213 16.1618 19.1622 16.067 19.1332 15.9648C19.1043 15.8625 19.0978 15.7552 19.1142 15.6502L16.1146 15.6667L16.041 15.9644C15.9971 16.1184 15.9043 16.2538 15.7767 16.3504C15.6491 16.447 15.4935 16.4995 15.3335 16.5H14.7669C14.663 16.5001 14.5603 16.4781 14.4655 16.4355C14.3707 16.393 14.286 16.3308 14.217 16.2532C14.148 16.1755 14.0962 16.0841 14.0651 15.985C14.0339 15.8858 14.0241 15.7813 14.0364 15.6781L14.2491 12.935C14.294 12.5801 14.4663 12.2535 14.7339 12.0162C15.0016 11.7788 15.3463 11.6468 15.7041 11.6446H19.0948L20.0704 8.31705C20.145 8.04467 20.3206 7.81095 20.5615 7.66344C20.8023 7.51592 21.0903 7.46569 21.3668 7.52295C21.6434 7.58022 21.8877 7.74068 22.0502 7.9717C22.2126 8.20272 22.281 8.48695 22.2413 8.76657L21.235 15.8676C21.2094 16.0427 21.1218 16.2029 20.9881 16.319C20.8545 16.4351 20.6836 16.4993 20.5066 16.5ZM16.1146 14.9167H19.1285C19.2347 14.9168 19.3397 14.9398 19.4361 14.9843C19.5326 15.0287 19.6183 15.0935 19.6874 15.1742C19.7564 15.2549 19.8072 15.3496 19.8362 15.4518C19.8652 15.554 19.8718 15.6612 19.8554 15.7662L20.5066 15.75L21.4986 8.66129C21.5059 8.61016 21.5021 8.55807 21.4875 8.50855C21.4728 8.45902 21.4478 8.41321 21.4139 8.37422C21.38 8.33522 21.3382 8.30396 21.2912 8.28253C21.2442 8.26111 21.1932 8.25002 21.1416 8.25003C21.062 8.2501 20.9847 8.27644 20.9217 8.32494C20.8587 8.37345 20.8134 8.44141 20.7929 8.51828L19.7357 12.1251C19.7129 12.2029 19.6655 12.2712 19.6006 12.3198C19.5357 12.3684 19.4568 12.3947 19.3757 12.3946H15.7041C15.531 12.3951 15.3639 12.458 15.2336 12.5719C15.1033 12.6857 15.0184 12.8428 14.9947 13.0143L14.7834 15.7449L14.7823 15.755L15.3335 15.75L15.4067 15.4523C15.4506 15.2983 15.5434 15.1628 15.6711 15.0662C15.7988 14.9696 15.9545 14.9171 16.1146 14.9167Z" fill="#2D2D2D"/>
</svg>
