<svg width="24" height="24" viewBox="0 0 24 24" fill="none" xmlns="http://www.w3.org/2000/svg">
<path d="M18.4364 6.46494H17.0064V5.56494C17.0064 4.9019 16.743 4.26602 16.2742 3.79717C15.8053 3.32833 15.1694 3.06494 14.5064 3.06494H9.50641C8.84337 3.06494 8.20748 3.32833 7.73864 3.79717C7.2698 4.26602 7.00641 4.9019 7.00641 5.56494V6.46494H5.56641C4.90337 6.46494 4.26748 6.72833 3.79864 7.19717C3.3298 7.66602 3.06641 8.3019 3.06641 8.96494V18.4349C3.06641 19.098 3.3298 19.7339 3.79864 20.2027C4.26748 20.6715 4.90337 20.9349 5.56641 20.9349H18.4364C18.7647 20.9349 19.0898 20.8703 19.3931 20.7446C19.6964 20.619 19.972 20.4349 20.2042 20.2027C20.4363 19.9706 20.6205 19.695 20.7461 19.3916C20.8717 19.0883 20.9364 18.7632 20.9364 18.4349V8.96494C20.9364 8.63664 20.8717 8.31155 20.7461 8.00823C20.6205 7.70492 20.4363 7.42932 20.2042 7.19717C19.972 6.96503 19.6964 6.78088 19.3931 6.65524C19.0898 6.52961 18.7647 6.46494 18.4364 6.46494ZM8.00641 5.56494C8.00641 5.16712 8.16444 4.78559 8.44575 4.50428C8.72705 4.22298 9.10858 4.06494 9.50641 4.06494H14.5064C14.9042 4.06494 15.2858 4.22298 15.5671 4.50428C15.8484 4.78559 16.0064 5.16712 16.0064 5.56494V6.46494H8.00641V5.56494ZM19.9364 18.4349C19.9364 18.8328 19.7784 19.2143 19.4971 19.4956C19.2158 19.7769 18.8342 19.9349 18.4364 19.9349H5.56641C5.16858 19.9349 4.78705 19.7769 4.50575 19.4956C4.22444 19.2143 4.06641 18.8328 4.06641 18.4349V8.96494C4.06641 8.56712 4.22444 8.18559 4.50575 7.90428C4.78705 7.62298 5.16858 7.46494 5.56641 7.46494H18.4364C18.8342 7.46494 19.2158 7.62298 19.4971 7.90428C19.7784 8.18559 19.9364 8.56712 19.9364 8.96494V18.4349Z" fill="#2D2D2D"/>
<path d="M14.5039 13.675C14.5039 13.8077 14.4512 13.9348 14.3575 14.0286C14.2637 14.1224 14.1365 14.175 14.0039 14.175H12.5039V15.675C12.5039 15.8077 12.4512 15.9348 12.3575 16.0286C12.2637 16.1224 12.1365 16.175 12.0039 16.175C11.8713 16.175 11.7441 16.1224 11.6504 16.0286C11.5566 15.9348 11.5039 15.8077 11.5039 15.675V14.175H10.0039C9.8713 14.175 9.74412 14.1224 9.65035 14.0286C9.55658 13.9348 9.50391 13.8077 9.50391 13.675C9.50391 13.5424 9.55658 13.4153 9.65035 13.3215C9.74412 13.2277 9.8713 13.175 10.0039 13.175H11.5039V11.675C11.5039 11.5424 11.5566 11.4153 11.6504 11.3215C11.7441 11.2277 11.8713 11.175 12.0039 11.175C12.1359 11.1771 12.2619 11.2305 12.3552 11.3238C12.4485 11.4171 12.5018 11.5431 12.5039 11.675V13.175H14.0039C14.1359 13.1771 14.2619 13.2305 14.3552 13.3238C14.4485 13.4171 14.5018 13.5431 14.5039 13.675Z" fill="#2D2D2D"/>
</svg>
