<svg width="19" height="18" viewBox="0 0 19 18" fill="none" xmlns="http://www.w3.org/2000/svg">
<path fill-rule="evenodd" clip-rule="evenodd" d="M4.83203 5.625C4.21103 5.625 3.70703 5.121 3.70703 4.5C3.70703 3.879 4.21103 3.375 4.83203 3.375C5.45303 3.375 5.95703 3.879 5.95703 4.5C5.95703 5.121 5.45303 5.625 4.83203 5.625ZM4.83203 2.25C3.58947 2.25 2.58203 3.25744 2.58203 4.5C2.58203 5.74256 3.58947 6.75 4.83203 6.75C6.07459 6.75 7.08203 5.74256 7.08203 4.5C7.08203 3.25744 6.07459 2.25 4.83203 2.25ZM17.207 9.6345L13.832 6.1875L8.24021 11.8749L5.95703 9.5625L1.45703 13.6896V2.25C1.45703 1.629 1.96103 1.125 2.58203 1.125H16.082C16.703 1.125 17.207 1.629 17.207 2.25V9.6345ZM17.207 15.75C17.207 16.371 16.703 16.875 16.082 16.875H13.175L9.03053 12.6759L13.832 7.87444L17.207 11.2494V15.75ZM2.58203 16.875C1.96103 16.875 1.45703 16.371 1.45703 15.75V15.2218L5.9261 11.2191L11.5826 16.875H2.58203ZM16.082 0H2.58203C1.33947 0 0.332031 1.00744 0.332031 2.25V15.75C0.332031 16.9926 1.33947 18 2.58203 18H16.082C17.3246 18 18.332 16.9926 18.332 15.75V2.25C18.332 1.00744 17.3246 0 16.082 0Z" fill="white"/>
</svg>
