<svg width="24" height="24" viewBox="0 0 24 24" fill="none" xmlns="http://www.w3.org/2000/svg">
<path d="M21.6667 21.3334H19.3334V20.3334H20.3334C20.5175 20.3334 20.6667 20.1841 20.6667 20V19.3857C20.6667 18.6378 20.0745 18.0289 19.3334 18.0014V17.3333H20C20.1841 17.3333 20.3334 17.1841 20.3334 17C20.3334 16.8159 20.1841 16.6667 20 16.6667H19.3334V16H20C20.1841 16 20.3334 15.8508 20.3334 15.6667C20.3334 15.4826 20.1841 15.3334 20 15.3334H19.3334V15C19.3334 14.8159 19.1841 14.6667 19 14.6667C18.8159 14.6667 18.6667 14.8159 18.6667 15V15.3333H14.6667V15C14.6667 14.8159 14.5175 14.6667 14.3334 14.6667C14.1493 14.6667 14.0001 14.8159 14.0001 15V15.3333H13.3334C13.1493 15.3333 13.0001 15.4826 13.0001 15.6667C13.0001 15.8508 13.1493 16 13.3334 16H14V16.6667H13.3333C13.1492 16.6667 13 16.8159 13 17C13 17.184 13.1492 17.3333 13.3333 17.3333H14V18.0013C13.2589 18.0289 12.6667 18.6378 12.6667 19.3857V20C12.6667 20.1841 12.8159 20.3334 13 20.3334H14V21.3334H7.00001V18H10.6667C10.8931 18 11.0536 17.7792 10.9838 17.5639L6.98376 5.23051C6.88407 4.92316 6.44927 4.92316 6.34962 5.23051L2.34961 17.5639C2.27977 17.7792 2.44031 18 2.66668 18H6.33337V21.3334H2.33332C2.14922 21.3334 2 21.4826 2 21.6667C2 21.8507 2.14922 22 2.33332 22H21.6667C21.8508 22 22 21.8508 22 21.6667C22 21.4827 21.8508 21.3334 21.6667 21.3334ZM3.1252 17.3333L6.66669 6.41379L10.2081 17.3333H7.00001V14.8047L7.90239 13.9024C8.03255 13.7722 8.03255 13.5611 7.90239 13.431C7.77224 13.3008 7.56118 13.3008 7.43099 13.431L6.66669 14.1953L5.90239 13.431C5.77223 13.3008 5.56118 13.3008 5.43098 13.431C5.30083 13.5611 5.30083 13.7722 5.43098 13.9024L6.33337 14.8047V17.3333H3.1252ZM14.6667 18V17.3333H18.6667V18H14.6667ZM18.6667 16V16.6667H14.6667V16H18.6667ZM13.3333 19.3857C13.3333 18.9885 13.6551 18.6667 14.0523 18.6667H19.281C19.6782 18.6667 20 18.9885 20 19.3857V19.6667H13.3333V19.3857ZM14.6667 20.3334H18.6667V21.3334H14.6667V20.3334Z" fill="#2D2D2D"/>
<path d="M15.2513 9.66669H19.1263C19.7988 9.66669 20.3347 9.07973 20.3347 8.37501C20.3347 7.74008 19.8997 7.20079 19.3218 7.10016C19.213 5.79535 18.4262 5 17.3347 5C16.622 5 16.0206 5.2716 15.5341 5.71899C15.3218 5.91422 15.163 6.10992 15.0544 6.27496C14.2675 6.37934 13.668 7.10133 13.668 7.96434C13.668 8.89802 14.3698 9.66669 15.2513 9.66669ZM15.2513 6.92868C15.3753 6.92868 15.489 6.85989 15.5466 6.75008C15.5606 6.72344 15.5945 6.66723 15.6484 6.59149C15.7409 6.46157 15.8534 6.3311 15.9854 6.20973C16.3566 5.86836 16.8031 5.66672 17.3347 5.66672C18.1252 5.66672 18.668 6.27707 18.668 7.41672C18.668 7.60083 18.8172 7.75004 19.0013 7.75004H19.1263C19.4164 7.75004 19.668 8.02563 19.668 8.37505C19.668 8.72446 19.4164 9.00005 19.1263 9.00005H15.2513C14.7522 9.00005 14.3347 8.54274 14.3347 7.96438C14.3347 7.38598 14.7522 6.92868 15.2513 6.92868Z" fill="#2D2D2D"/>
<path d="M8.6693 3C9.40653 3 10.0026 3.5961 10.0026 4.33333C10.0026 4.51743 10.1519 4.66665 10.3359 4.66665C10.52 4.66665 10.6693 4.51739 10.6693 4.33333C10.6693 3.41207 11.4147 2.66664 12.3359 2.66664C12.52 2.66664 12.6693 2.51738 12.6693 2.33332C12.6693 2.14926 12.52 2 12.3359 2C11.4649 2 10.7065 2.47672 10.3056 3.18332C9.94383 2.66926 9.34633 2.33332 8.66926 2.33332C8.48516 2.33332 8.33594 2.48258 8.33594 2.66664C8.33594 2.8507 8.4852 3 8.6693 3Z" fill="#2D2D2D"/>
</svg>
