<svg width="13" height="14" viewBox="0 0 13 14" fill="none" xmlns="http://www.w3.org/2000/svg">
<path d="M6.38267 0.58539L6.43289 0.608946L12.2107 3.72006L11.7893 4.50228L10.6667 3.89783V8.11072L12.4444 8.11117V9.00006L10.3867 8.99961L7.55556 11.4263V13.4445H6.66667V12.5556L5.77778 12.5552V13.4445H4.88889V11.4267L2.05733 8.99961L0 9.00006V8.11117L1.77778 8.11072V3.89739L0.655111 4.50228L0.233778 3.72006L6.01156 0.608946C6.12667 0.546723 6.26222 0.539168 6.38267 0.58539ZM5.77778 10.7774V11.6663L6.66667 11.6667V10.7778L5.77778 10.7774ZM4.88889 8.99961H3.42311L4.88889 10.2561V8.99961ZM9.02089 8.99961H7.55556V10.2556L9.02089 8.99961ZM6.66667 8.99961H5.77778V9.8885L6.66667 9.88895V8.99961ZM6.66667 5.88895H5.77778V8.11117H6.66667V5.88895ZM6.22222 1.5045L2.66667 3.41872V8.11072H4.88889V5.4445C4.88889 5.2165 5.06044 5.0285 5.28133 5.00317L5.33333 5.00006H7.11111C7.33911 5.00006 7.52711 5.17161 7.55244 5.3925L7.55556 5.4445V8.11072H9.77778V3.41917L6.22222 1.5045ZM6.22222 2.77783C6.46756 2.77783 6.66667 2.97695 6.66667 3.22228C6.66667 3.46761 6.46756 3.66672 6.22222 3.66672C5.97689 3.66672 5.77778 3.46761 5.77778 3.22228C5.77778 2.97695 5.97689 2.77783 6.22222 2.77783Z" fill="#737678"/>
</svg>
