<svg width="20" height="20" viewBox="0 0 20 20" fill="none" xmlns="http://www.w3.org/2000/svg">
<path d="M10.3827 3.58539L10.4329 3.60895L16.2107 6.72006L15.7893 7.50228L14.6667 6.89783V11.1107L16.4444 11.1112V12.0001L14.3867 11.9996L11.5556 14.4263V16.4445H10.6667V15.5556L9.77778 15.5552V16.4445H8.88889V14.4267L6.05733 11.9996L4 12.0001V11.1112L5.77778 11.1107V6.89739L4.65511 7.50228L4.23378 6.72006L10.0116 3.60895C10.1267 3.54672 10.2622 3.53917 10.3827 3.58539ZM9.77778 13.7774V14.6663L10.6667 14.6667V13.7778L9.77778 13.7774ZM8.88889 11.9996H7.42311L8.88889 13.2561V11.9996ZM13.0209 11.9996H11.5556V13.2556L13.0209 11.9996ZM10.6667 11.9996H9.77778V12.8885L10.6667 12.8889V11.9996ZM10.6667 8.88895H9.77778V11.1112H10.6667V8.88895ZM10.2222 4.5045L6.66667 6.41872V11.1107H8.88889V8.4445C8.88889 8.2165 9.06044 8.0285 9.28133 8.00317L9.33333 8.00006H11.1111C11.3391 8.00006 11.5271 8.17161 11.5524 8.3925L11.5556 8.4445V11.1107H13.7778V6.41917L10.2222 4.5045ZM10.2222 5.77783C10.4676 5.77783 10.6667 5.97695 10.6667 6.22228C10.6667 6.46761 10.4676 6.66672 10.2222 6.66672C9.97689 6.66672 9.77778 6.46761 9.77778 6.22228C9.77778 5.97695 9.97689 5.77783 10.2222 5.77783Z" fill="#447158"/>
</svg>
