<svg width="24" height="24" viewBox="0 0 24 24" fill="none" xmlns="http://www.w3.org/2000/svg">
<path d="M9.21274 2C8.35009 2 7.53881 2.33594 6.92811 2.94605C6.60576 3.26839 6.35967 3.64648 6.19659 4.06976C6.1235 4.25948 6.21803 4.47249 6.40772 4.54554C6.5974 4.61862 6.81045 4.52409 6.8835 4.3344C7.00939 4.00765 7.19951 3.7157 7.44849 3.46667C7.92005 2.99558 8.54661 2.73613 9.21274 2.73613C10.5885 2.73613 11.7078 3.85515 11.7078 5.23069C11.7078 5.43397 11.8726 5.59877 12.0759 5.59877C12.2792 5.59877 12.4439 5.43397 12.4439 5.23069C12.4439 3.44929 10.9944 2 9.21274 2Z" fill="#2D2D2D"/>
<path d="M21.2544 21.2638C20.4289 21.2638 20.0372 20.9983 19.5838 20.691C19.1 20.3631 18.5517 19.9913 17.5001 19.9913C16.4485 19.9913 15.9001 20.3631 15.4164 20.691C15.1916 20.8434 14.9792 20.9874 14.7217 21.0921C14.5334 21.1687 14.4428 21.3834 14.5194 21.5717C14.596 21.7599 14.8108 21.8506 14.999 21.774C15.3281 21.6401 15.583 21.4673 15.8294 21.3003C16.2829 20.9929 16.6746 20.7275 17.5001 20.7275C18.3256 20.7275 18.7173 20.993 19.1708 21.3003C19.6545 21.6282 20.2028 21.9999 21.2544 21.9999C21.4577 21.9999 21.6225 21.8351 21.6225 21.6318C21.6225 21.4286 21.4577 21.2638 21.2544 21.2638Z" fill="#2D2D2D"/>
<path d="M13.7451 21.2638C12.9196 21.2638 12.5281 20.9983 12.0748 20.691C11.591 20.3631 11.0427 19.9913 9.99129 19.9913C8.93989 19.9913 8.39161 20.3631 7.9079 20.691C7.45455 20.9984 7.06302 21.2638 6.2376 21.2638C5.41252 21.2638 5.0212 20.9983 4.56804 20.691C4.08448 20.3631 3.5364 19.9914 2.48527 19.9914C2.28199 19.9914 2.11719 20.1562 2.11719 20.3595C2.11719 20.5627 2.28199 20.7275 2.48527 20.7275C3.31035 20.7275 3.70167 20.993 4.15491 21.3003C4.63846 21.6283 5.18655 22 6.23768 22C7.28908 22 7.83736 21.6283 8.32106 21.3004C8.77442 20.993 9.16594 20.7275 9.99137 20.7275C10.8168 20.7275 11.2084 20.993 11.6618 21.3004C12.1455 21.6283 12.6938 22 13.7453 22C13.9486 22 14.1133 21.8352 14.1133 21.6319C14.1133 21.4286 13.9484 21.2638 13.7451 21.2638Z" fill="#2D2D2D"/>
<path d="M21.2535 15.8854C20.428 15.8854 20.0363 15.6199 19.5829 15.3126C19.0991 14.9846 18.5508 14.6129 17.4992 14.6129C17.2504 14.6129 17.0241 14.633 16.8073 14.674C16.6076 14.7119 16.4764 14.9046 16.5143 15.1043C16.5522 15.304 16.7448 15.4351 16.9446 15.3972C17.1156 15.3647 17.297 15.349 17.4992 15.349C18.3248 15.349 18.7164 15.6145 19.1699 15.9218C19.6537 16.2497 20.202 16.6215 21.2536 16.6215C21.4569 16.6215 21.6217 16.4567 21.6217 16.2534C21.6217 16.0501 21.4568 15.8854 21.2535 15.8854Z" fill="#2D2D2D"/>
<path d="M5.26237 15.7137C5.00506 15.609 4.79276 15.465 4.56804 15.3126C4.08448 14.9846 3.5364 14.6129 2.48527 14.6129C2.28199 14.6129 2.11719 14.7777 2.11719 14.981C2.11719 15.1843 2.28195 15.3491 2.48519 15.3491C3.31027 15.3491 3.70159 15.6146 4.15476 15.9219C4.40112 16.089 4.65581 16.2617 4.98483 16.3956C5.03026 16.4141 5.07725 16.4228 5.12346 16.4228C5.26874 16.4228 5.40639 16.3362 5.46448 16.1934C5.5412 16.0051 5.45065 15.7903 5.26237 15.7137Z" fill="#2D2D2D"/>
<path d="M16.8851 3.46671C17.3566 2.99562 17.983 2.73617 18.6493 2.73617C20.025 2.73617 21.1443 3.85519 21.1443 5.23073C21.1443 5.43401 21.3091 5.59881 21.5124 5.59881C21.7157 5.59881 21.8805 5.43401 21.8805 5.23073C21.8804 3.44929 20.4309 2 18.6493 2C17.7866 2 16.9753 2.33594 16.3646 2.94605C15.7542 3.5564 15.4181 4.36772 15.4181 5.23069V8.11548H6.71685V5.47604C6.71685 5.27276 6.55205 5.10795 6.34877 5.10795C6.14549 5.10795 5.98068 5.27276 5.98068 5.47604V18.5647C5.32635 18.515 4.97128 18.2752 4.56807 18.0018C4.08448 17.6738 3.53644 17.3021 2.48527 17.3021C2.28199 17.3021 2.11719 17.4669 2.11719 17.6702C2.11719 17.8735 2.28199 18.0383 2.48527 18.0383C3.31035 18.0383 3.70167 18.3038 4.15483 18.6111C4.63843 18.939 5.18647 19.3107 6.2376 19.3107C7.289 19.3107 7.83728 18.939 8.32099 18.6111C8.77434 18.3037 9.1659 18.0383 9.99129 18.0383C10.8168 18.0383 11.2083 18.3038 11.6617 18.6111C12.1455 18.939 12.6937 19.3107 13.7452 19.3107C14.7968 19.3107 15.3451 18.939 15.8289 18.6111C16.2824 18.3037 16.674 18.0383 17.4995 18.0383C18.3251 18.0383 18.7167 18.3038 19.1702 18.6111C19.6539 18.939 20.2023 19.3107 21.2539 19.3107C21.4572 19.3107 21.622 19.1459 21.622 18.9427C21.622 18.7394 21.4572 18.5746 21.2539 18.5746C20.4284 18.5746 20.0367 18.3091 19.5832 18.0018C19.0995 17.6738 18.5512 17.3021 17.4996 17.3021C16.9245 17.3021 16.5001 17.4134 16.1543 17.5678V5.23069C16.1543 4.56436 16.4138 3.93788 16.8851 3.46671ZM15.418 18.0002C15.4173 18.0007 15.4165 18.0013 15.4158 18.0018C14.9623 18.3091 14.5707 18.5746 13.7451 18.5746C12.9197 18.5746 12.5282 18.3091 12.0748 18.0018C11.591 17.6738 11.0428 17.3021 9.99133 17.3021C8.93993 17.3021 8.39165 17.6738 7.90794 18.0018C7.55271 18.2426 7.23458 18.457 6.71681 18.5389V16.4136H15.418V18.0002ZM15.4181 11.8964H14.727C14.5237 11.8964 14.3589 12.0612 14.3589 12.2645C14.3589 12.4678 14.5237 12.6326 14.727 12.6326H15.4181V15.6774H6.71685V12.6326H13.5001C13.7034 12.6326 13.8681 12.4678 13.8681 12.2645C13.8681 12.0612 13.7034 11.8964 13.5001 11.8964H6.71681V8.85165H15.4181V11.8964Z" fill="#2D2D2D"/>
</svg>
