<svg width="31" height="30" viewBox="0 0 31 30" fill="none" xmlns="http://www.w3.org/2000/svg">
<rect x="0.777344" width="30" height="30" rx="5" fill="#F1F4F1"/>
<path d="M17.393 9.2069V8.10345C17.393 7.49379 16.8993 7 16.2896 7H10.2206C9.61098 7 9.11719 7.49379 9.11719 8.10345V23" stroke="#447158" stroke-width="2.06897"/>
<path d="M20.7105 9.20703H14.0898V11.4139H20.7105V9.20703Z" stroke="#447158" stroke-width="1.10345" stroke-linejoin="round"/>
<path d="M12.4297 11.4131H22.3607" stroke="#447158" stroke-width="1.10345" stroke-linejoin="round"/>
<path d="M17.4002 13.0684C17.0956 13.0684 16.8485 13.3155 16.8485 13.6201C16.8485 13.9246 17.0956 14.1718 17.4002 14.1718C17.7047 14.1718 17.9519 13.9246 17.9519 13.6201C17.9519 13.3155 17.7047 13.0684 17.4002 13.0684ZM14.6416 13.0684C14.337 13.0684 14.0898 13.3155 14.0898 13.6201C14.0898 13.9246 14.337 14.1718 14.6416 14.1718C14.9461 14.1718 15.1933 13.9246 15.1933 13.6201C15.1933 13.3155 14.9461 13.0684 14.6416 13.0684ZM20.1588 13.0684C19.8543 13.0684 19.6071 13.3155 19.6071 13.6201C19.6071 13.9246 19.8543 14.1718 20.1588 14.1718C20.4634 14.1718 20.7105 13.9246 20.7105 13.6201C20.7105 13.3155 20.4634 13.0684 20.1588 13.0684ZM17.4002 15.2753C17.0956 15.2753 16.8485 15.5224 16.8485 15.827C16.8485 16.1315 17.0956 16.3787 17.4002 16.3787C17.7047 16.3787 17.9519 16.1315 17.9519 15.827C17.9519 15.5224 17.7047 15.2753 17.4002 15.2753ZM20.1588 15.2753C19.8543 15.2753 19.6071 15.5224 19.6071 15.827C19.6071 16.1315 19.8543 16.3787 20.1588 16.3787C20.4634 16.3787 20.7105 16.1315 20.7105 15.827C20.7105 15.5224 20.4634 15.2753 20.1588 15.2753ZM14.6416 15.2753C14.337 15.2753 14.0898 15.5224 14.0898 15.827C14.0898 16.1315 14.337 16.3787 14.6416 16.3787C14.9461 16.3787 15.1933 16.1315 15.1933 15.827C15.1933 15.5224 14.9461 15.2753 14.6416 15.2753ZM17.4002 17.4822C17.0956 17.4822 16.8485 17.7293 16.8485 18.0339C16.8485 18.3384 17.0956 18.5856 17.4002 18.5856C17.7047 18.5856 17.9519 18.3384 17.9519 18.0339C17.9519 17.7293 17.7047 17.4822 17.4002 17.4822ZM20.1588 17.4822C19.8543 17.4822 19.6071 17.7293 19.6071 18.0339C19.6071 18.3384 19.8543 18.5856 20.1588 18.5856C20.4634 18.5856 20.7105 18.3384 20.7105 18.0339C20.7105 17.7293 20.4634 17.4822 20.1588 17.4822ZM14.6416 17.4822C14.337 17.4822 14.0898 17.7293 14.0898 18.0339C14.0898 18.3384 14.337 18.5856 14.6416 18.5856C14.9461 18.5856 15.1933 18.3384 15.1933 18.0339C15.1933 17.7293 14.9461 17.4822 14.6416 17.4822ZM17.4002 19.689C17.0956 19.689 16.8485 19.9362 16.8485 20.2408C16.8485 20.5453 17.0956 20.7925 17.4002 20.7925C17.7047 20.7925 17.9519 20.5453 17.9519 20.2408C17.9519 19.9362 17.7047 19.689 17.4002 19.689ZM20.1588 19.689C19.8543 19.689 19.6071 19.9362 19.6071 20.2408C19.6071 20.5453 19.8543 20.7925 20.1588 20.7925C20.4634 20.7925 20.7105 20.5453 20.7105 20.2408C20.7105 19.9362 20.4634 19.689 20.1588 19.689ZM14.6416 19.689C14.337 19.689 14.0898 19.9362 14.0898 20.2408C14.0898 20.5453 14.337 20.7925 14.6416 20.7925C14.9461 20.7925 15.1933 20.5453 15.1933 20.2408C15.1933 19.9362 14.9461 19.689 14.6416 19.689ZM17.4002 21.8959C17.0956 21.8959 16.8485 22.1431 16.8485 22.4477C16.8485 22.7522 17.0956 22.9994 17.4002 22.9994C17.7047 22.9994 17.9519 22.7522 17.9519 22.4477C17.9519 22.1431 17.7047 21.8959 17.4002 21.8959ZM20.1588 21.8959C19.8543 21.8959 19.6071 22.1431 19.6071 22.4477C19.6071 22.7522 19.8543 22.9994 20.1588 22.9994C20.4634 22.9994 20.7105 22.7522 20.7105 22.4477C20.7105 22.1431 20.4634 21.8959 20.1588 21.8959ZM14.6416 21.8959C14.337 21.8959 14.0898 22.1431 14.0898 22.4477C14.0898 22.7522 14.337 22.9994 14.6416 22.9994C14.9461 22.9994 15.1933 22.7522 15.1933 22.4477C15.1933 22.1431 14.9461 21.8959 14.6416 21.8959Z" fill="#447158"/>
<path d="M20.1541 13.0684C19.8495 13.0684 19.6024 13.3155 19.6024 13.6201C19.6024 13.9246 19.8495 14.1718 20.1541 14.1718C20.4586 14.1718 20.7058 13.9246 20.7058 13.6201C20.7058 13.3155 20.4586 13.0684 20.1541 13.0684ZM17.3955 13.0684C17.0909 13.0684 16.8438 13.3155 16.8438 13.6201C16.8438 13.9246 17.0909 14.1718 17.3955 14.1718C17.7 14.1718 17.9472 13.9246 17.9472 13.6201C17.9472 13.3155 17.7 13.0684 17.3955 13.0684ZM20.1541 15.2753C19.8495 15.2753 19.6024 15.5224 19.6024 15.827C19.6024 16.1315 19.8495 16.3787 20.1541 16.3787C20.4586 16.3787 20.7058 16.1315 20.7058 15.827C20.7058 15.5224 20.4586 15.2753 20.1541 15.2753ZM17.3955 15.2753C17.0909 15.2753 16.8438 15.5224 16.8438 15.827C16.8438 16.1315 17.0909 16.3787 17.3955 16.3787C17.7 16.3787 17.9472 16.1315 17.9472 15.827C17.9472 15.5224 17.7 15.2753 17.3955 15.2753ZM20.1541 17.4822C19.8495 17.4822 19.6024 17.7293 19.6024 18.0339C19.6024 18.3384 19.8495 18.5856 20.1541 18.5856C20.4586 18.5856 20.7058 18.3384 20.7058 18.0339C20.7058 17.7293 20.4586 17.4822 20.1541 17.4822ZM17.3955 17.4822C17.0909 17.4822 16.8438 17.7293 16.8438 18.0339C16.8438 18.3384 17.0909 18.5856 17.3955 18.5856C17.7 18.5856 17.9472 18.3384 17.9472 18.0339C17.9472 17.7293 17.7 17.4822 17.3955 17.4822ZM20.1541 19.689C19.8495 19.689 19.6024 19.9362 19.6024 20.2408C19.6024 20.5453 19.8495 20.7925 20.1541 20.7925C20.4586 20.7925 20.7058 20.5453 20.7058 20.2408C20.7058 19.9362 20.4586 19.689 20.1541 19.689ZM17.3955 19.689C17.0909 19.689 16.8438 19.9362 16.8438 20.2408C16.8438 20.5453 17.0909 20.7925 17.3955 20.7925C17.7 20.7925 17.9472 20.5453 17.9472 20.2408C17.9472 19.9362 17.7 19.689 17.3955 19.689ZM20.1541 21.8959C19.8495 21.8959 19.6024 22.1431 19.6024 22.4477C19.6024 22.7522 19.8495 22.9994 20.1541 22.9994C20.4586 22.9994 20.7058 22.7522 20.7058 22.4477C20.7058 22.1431 20.4586 21.8959 20.1541 21.8959ZM17.3955 21.8959C17.0909 21.8959 16.8438 22.1431 16.8438 22.4477C16.8438 22.7522 17.0909 22.9994 17.3955 22.9994C17.7 22.9994 17.9472 22.7522 17.9472 22.4477C17.9472 22.1431 17.7 21.8959 17.3955 21.8959Z" fill="#447158"/>
</svg>
