<svg width="24" height="24" viewBox="0 0 24 24" fill="none" xmlns="http://www.w3.org/2000/svg">
<path d="M19.1885 7.15527H16.2657C15.8166 7.15527 15.4527 7.51893 15.4527 7.96813V10.0782H13.3427C12.8935 10.0782 12.5295 10.4418 12.5295 10.891V13.0012H10.4194C9.97023 13.0012 9.60644 13.3653 9.60644 13.814V16.0259H7.39505C7.17927 16.0259 6.9725 16.1115 6.8201 16.2637C6.66758 16.4161 6.58203 16.6238 6.58203 16.8387L6.58229 18.5394C6.58229 18.989 6.94635 19.3526 7.39528 19.3526H19.1885C19.6377 19.3526 20.0014 18.989 20.0014 18.5394V7.9681C20.0015 7.51893 19.6377 7.15527 19.1885 7.15527Z" fill="#2D2D2D"/>
<path d="M14.9079 4.81214C14.6987 4.59764 14.356 4.59352 14.1416 4.80221C10.6649 8.18899 7.35736 11.4969 4.15883 14.6951C4.05705 14.7969 4 14.9352 4 15.0787V18.7878C4 19.0867 4.24256 19.3299 4.54197 19.3299C4.84109 19.3299 5.08407 19.0868 5.08407 18.7878V15.3029C8.2307 12.1562 11.4839 8.90469 14.8978 5.5785C15.1121 5.36984 15.1164 5.0265 14.9079 4.81214Z" fill="#2D2D2D"/>
</svg>
