<svg width="24" height="24" viewBox="0 0 24 24" fill="none" xmlns="http://www.w3.org/2000/svg">
<path d="M18.8571 6.85714H14.2857V5.14286C14.2851 4.84 14.1646 4.54914 13.9503 4.33486C13.7366 4.12114 13.4457 4.00057 13.1429 4H5.14286C4.84 4.00057 4.54914 4.12057 4.33486 4.33486C4.12057 4.54914 4.00057 4.84 4 5.14286V18.8571C4.00057 19.16 4.12114 19.4509 4.33486 19.6646C4.54914 19.8789 4.84 19.9994 5.14286 20H18.8571C19.16 19.9994 19.4503 19.8789 19.6646 19.6646C19.8789 19.4503 19.9994 19.16 20 18.8571V8C19.9994 7.69714 19.8789 7.40629 19.6646 7.192C19.4509 6.97829 19.16 6.85771 18.8571 6.85714ZM10.2857 18.8571H8V16H10.2857V18.8571ZM13.1429 18.8571H11.4286V16C11.428 15.6971 11.3074 15.4063 11.0931 15.1926C10.8794 14.9783 10.5886 14.8577 10.2857 14.8571H8C7.69714 14.8577 7.40629 14.9783 7.192 15.1926C6.97829 15.4063 6.85771 15.6971 6.85714 16V18.8571H5.14286L5.14229 5.14286H13.1429V18.8571ZM18.8571 18.8571H14.2857V8H18.8571V18.8571ZM17.1429 12C17.1429 12.1131 17.1091 12.2234 17.0463 12.3177C16.984 12.4114 16.8943 12.4846 16.7903 12.528C16.6857 12.5714 16.5709 12.5823 16.46 12.5606C16.3491 12.5383 16.2474 12.484 16.1674 12.404C16.0874 12.324 16.0331 12.2223 16.0109 12.1114C15.9891 12.0006 16 11.8857 16.0434 11.7811C16.0869 11.6771 16.16 11.5874 16.2537 11.5251C16.348 11.4623 16.4583 11.4286 16.5714 11.4286C16.7229 11.4286 16.8686 11.4886 16.9754 11.596C17.0829 11.7029 17.1429 11.8486 17.1429 12ZM16 9.71429C16 9.60114 16.0337 9.49086 16.0966 9.39657C16.1589 9.30286 16.2486 9.22971 16.3526 9.18629C16.4571 9.14286 16.572 9.132 16.6829 9.15371C16.7937 9.176 16.8954 9.23029 16.9754 9.31029C17.0554 9.39029 17.1097 9.492 17.132 9.60286C17.1537 9.71372 17.1429 9.82857 17.0994 9.93314C17.056 10.0371 16.9829 10.1269 16.8891 10.1891C16.7949 10.252 16.6846 10.2857 16.5714 10.2857C16.42 10.2857 16.2743 10.2257 16.1674 10.1183C16.06 10.0114 16 9.86571 16 9.71429ZM11.4286 12C11.4286 12.1131 11.3949 12.2234 11.332 12.3177C11.2697 12.4114 11.18 12.4846 11.076 12.528C10.9714 12.5714 10.8566 12.5823 10.7457 12.5606C10.6349 12.5383 10.5331 12.484 10.4531 12.404C10.3731 12.324 10.3189 12.2223 10.2966 12.1114C10.2749 12.0006 10.2857 11.8857 10.3291 11.7811C10.3726 11.6771 10.4457 11.5874 10.5394 11.5251C10.6337 11.4623 10.744 11.4286 10.8571 11.4286C11.0086 11.4286 11.1543 11.4886 11.2611 11.596C11.3686 11.7029 11.4286 11.8486 11.4286 12ZM11.4286 9.71429C11.4286 9.82743 11.3949 9.93771 11.332 10.032C11.2697 10.1257 11.18 10.1989 11.076 10.2423C10.9714 10.2857 10.8566 10.2966 10.7457 10.2749C10.6349 10.2526 10.5331 10.1983 10.4531 10.1183C10.3731 10.0383 10.3189 9.93657 10.2966 9.82571C10.2749 9.71486 10.2857 9.6 10.3291 9.49543C10.3726 9.39143 10.4457 9.30171 10.5394 9.23943C10.6337 9.17657 10.744 9.14286 10.8571 9.14286C11.0086 9.14286 11.1543 9.20286 11.2611 9.31029C11.3686 9.41714 11.4286 9.56286 11.4286 9.71429ZM11.4286 7.42857C11.4286 7.54171 11.3949 7.652 11.332 7.74629C11.2697 7.84 11.18 7.91314 11.076 7.95657C10.9714 8 10.8566 8.01086 10.7457 7.98914C10.6349 7.96686 10.5331 7.91257 10.4531 7.83257C10.3731 7.75257 10.3189 7.65086 10.2966 7.54C10.2749 7.42914 10.2857 7.31429 10.3291 7.20971C10.3726 7.10571 10.4457 7.016 10.5394 6.95371C10.6337 6.89086 10.744 6.85714 10.8571 6.85714C11.0086 6.85714 11.1543 6.91714 11.2611 7.02457C11.3686 7.13143 11.4286 7.27714 11.4286 7.42857ZM8 12C8 12.1131 7.96629 12.2234 7.90343 12.3177C7.84114 12.4114 7.75143 12.4846 7.64743 12.528C7.54286 12.5714 7.428 12.5823 7.31714 12.5606C7.20629 12.5383 7.10457 12.484 7.02457 12.404C6.94457 12.324 6.89029 12.2223 6.868 12.1114C6.84629 12.0006 6.85714 11.8857 6.90057 11.7811C6.944 11.6771 7.01714 11.5874 7.11086 11.5251C7.20514 11.4623 7.31543 11.4286 7.42857 11.4286C7.58 11.4286 7.72571 11.4886 7.83257 11.596C7.94 11.7029 8 11.8486 8 12ZM8 9.71429C8 9.82743 7.96629 9.93771 7.90343 10.032C7.84114 10.1257 7.75143 10.1989 7.64743 10.2423C7.54286 10.2857 7.428 10.2966 7.31714 10.2749C7.20629 10.2526 7.10457 10.1983 7.02457 10.1183C6.94457 10.0383 6.89029 9.93657 6.868 9.82571C6.84629 9.71486 6.85714 9.6 6.90057 9.49543C6.944 9.39143 7.01714 9.30171 7.11086 9.23943C7.20514 9.17657 7.31543 9.14286 7.42857 9.14286C7.58 9.14286 7.72571 9.20286 7.83257 9.31029C7.94 9.41714 8 9.56286 8 9.71429ZM8 7.42857C8 7.54171 7.96629 7.652 7.90343 7.74629C7.84114 7.84 7.75143 7.91314 7.64743 7.95657C7.54286 8 7.428 8.01086 7.31714 7.98914C7.20629 7.96686 7.10457 7.91257 7.02457 7.83257C6.94457 7.75257 6.89029 7.65086 6.868 7.54C6.84629 7.42914 6.85714 7.31429 6.90057 7.20971C6.944 7.10571 7.01714 7.016 7.11086 6.95371C7.20514 6.89086 7.31543 6.85714 7.42857 6.85714C7.58 6.85714 7.72571 6.91714 7.83257 7.02457C7.94 7.13143 8 7.27714 8 7.42857Z" fill="#447158"/>
</svg>
