<svg width="17" height="16" viewBox="0 0 17 16" fill="none" xmlns="http://www.w3.org/2000/svg">
<path fill-rule="evenodd" clip-rule="evenodd" d="M8.49768 0C4.08742 0 0.5 3.58842 0.5 7.99993C0.5 9.74948 1.06421 11.372 2.02334 12.689L1.02653 15.6613L4.10148 14.6785C5.3662 15.5157 6.87547 16 8.50232 16C12.9126 16 16.5 12.4114 16.5 8.00007C16.5 3.58857 12.9126 0.000132243 8.50232 0.000132243L8.49768 0ZM6.26428 4.06361C6.10916 3.69209 5.9916 3.67802 5.75659 3.66847C5.67658 3.66382 5.5874 3.65918 5.48855 3.65918C5.18282 3.65918 4.86316 3.74851 4.67035 3.94601C4.43535 4.18586 3.85227 4.74546 3.85227 5.89307C3.85227 7.04067 4.68919 8.15058 4.80198 8.30588C4.91955 8.46091 6.43359 10.8501 8.78442 11.8238C10.6228 12.5857 11.1683 12.5151 11.5867 12.4258C12.1979 12.2941 12.9643 11.8424 13.1571 11.297C13.35 10.7514 13.3499 10.2857 13.2934 10.187C13.237 10.0882 13.0818 10.0319 12.8468 9.91421C12.6118 9.7966 11.4691 9.23222 11.2528 9.15696C11.0412 9.07706 10.8391 9.10533 10.6793 9.33111C10.4536 9.64621 10.2327 9.96611 10.0539 10.1588C9.91288 10.3094 9.68238 10.3282 9.48971 10.2482C9.23108 10.1401 8.50711 9.88593 7.61367 9.09113C6.92246 8.47511 6.45232 7.70858 6.31604 7.47816C6.17963 7.24309 6.30196 7.10651 6.40997 6.97961C6.52754 6.83374 6.64035 6.73034 6.75791 6.59389C6.87548 6.45758 6.9413 6.38696 7.01654 6.22702C7.09656 6.07186 7.04002 5.91191 6.98362 5.79431C6.92723 5.67671 6.45709 4.5291 6.26428 4.06361Z" fill="#20A853"/>
</svg>
