<svg width="24" height="24" viewBox="0 0 24 24" fill="none" xmlns="http://www.w3.org/2000/svg">
<g clip-path="url(#clip0_352_46985)">
<path d="M24 12.0733C24 8.87127 22.7363 5.80038 20.4869 3.53619C18.2375 1.27201 15.1867 5.15425e-06 12.0055 5.15425e-06C8.98525 -0.00280238 6.07508 1.14143 3.85634 3.20415C1.6376 5.26687 0.273647 8.09621 0.0369209 11.127C-0.199805 14.1578 0.708128 17.1669 2.57936 19.5533C4.45059 21.9397 7.14736 23.5277 10.131 24V15.5625H7.08783V12.0733H10.1327V9.41373C10.1327 6.38851 11.9233 4.71549 14.6632 4.71549C15.9757 4.71549 17.3482 4.95178 17.3482 4.95178V7.92354H15.8352C14.3445 7.92354 13.8818 8.85491 13.8818 9.8087V12.0733H17.2077L16.6765 15.5625H13.8801V24C16.7014 23.5503 19.2707 22.102 21.1258 19.9157C22.9809 17.7294 24.0001 14.9485 24 12.0733Z" fill="#2A6AF6"/>
<path d="M16.67 15.4663L17.2012 12H13.8753V9.75013C13.8753 8.80257 14.3379 7.87729 15.8287 7.87729H17.3417V4.92322C17.3417 4.92322 15.9692 4.68848 14.6566 4.68848C11.9151 4.68848 10.1262 6.35056 10.1262 9.35603V12H7.08301V15.4663H10.1279V23.8488C11.3699 24.0442 12.6349 24.0442 13.877 23.8488V15.4663H16.67Z" fill="white"/>
</g>
<defs>
<clipPath id="clip0_352_46985">
<rect width="24" height="24" fill="white"/>
</clipPath>
</defs>
</svg>
