<svg width="24" height="21" viewBox="0 0 24 21" fill="none" xmlns="http://www.w3.org/2000/svg">
<rect x="21.3111" y="17.7369" width="2.62438" height="2.62438" rx="1.31219" stroke="#2867B2" stroke-width="0.129068"/>
<path d="M22.1463 20.0493V18.5435H22.6324C22.75 18.5435 22.8461 18.5636 22.9207 18.6038C22.9952 18.6425 23.0504 18.6948 23.0863 18.7608C23.1221 18.8268 23.1401 18.9013 23.1401 18.9845C23.1401 19.0648 23.1214 19.1387 23.0841 19.2061C23.0483 19.2735 22.9924 19.3273 22.9164 19.3674C22.8404 19.4076 22.7428 19.4276 22.6238 19.4276H22.3269V20.0493H22.1463ZM22.9422 20.0493L22.6109 19.376H22.8131L23.1551 20.0493H22.9422ZM22.3269 19.2857H22.6195C22.7342 19.2857 22.8181 19.2577 22.8712 19.2018C22.9257 19.1458 22.9529 19.0741 22.9529 18.9867C22.9529 18.8977 22.9264 18.8275 22.8733 18.7758C22.8217 18.7228 22.7364 18.6963 22.6174 18.6963H22.3269V19.2857Z" fill="#2867B2"/>
<path fill-rule="evenodd" clip-rule="evenodd" d="M18.807 0H1.44217C0.646491 0 0 0.655534 0 1.46026V18.7934C0 19.5982 0.646491 20.2537 1.44217 20.2537H18.807C19.6027 20.2537 20.2537 19.5982 20.2537 18.7934V1.46026C20.2537 0.655534 19.6027 0 18.807 0ZM6.12133 17.3603H3.11944V7.69461H6.12585V17.3603H6.12133ZM4.62038 6.3745C3.65743 6.3745 2.87983 5.59238 2.87983 4.63394C2.87983 3.67551 3.65743 2.89339 4.62038 2.89339C5.57881 2.89339 6.36094 3.67551 6.36094 4.63394C6.36094 5.5969 5.58334 6.3745 4.62038 6.3745ZM17.3739 17.3603H14.372V12.6586C14.372 11.5374 14.3494 10.0952 12.8123 10.0952C11.2481 10.0952 11.0084 11.3158 11.0084 12.5772V17.3603H8.00655V7.69461H10.8864V9.01468H10.9271C11.3294 8.2552 12.3105 7.455 13.7708 7.455C16.8088 7.455 17.3739 9.45773 17.3739 12.0619V17.3603Z" fill="#3A68AD"/>
</svg>
