<svg width="24" height="24" viewBox="0 0 24 24" fill="none" xmlns="http://www.w3.org/2000/svg">
<g clip-path="url(#clip0_352_47019)">
<circle cx="12" cy="12" r="12" fill="black"/>
<path d="M18.2093 10.35V7.66267C14.7364 7.51477 14.6269 4.32261 14.6226 4.02248V4H11.9411V14.4662C11.9408 14.9183 11.7996 15.3588 11.5375 15.7251C11.2754 16.0913 10.9059 16.3646 10.4814 16.5061C10.0569 16.6476 9.59916 16.6501 9.1732 16.5133C8.74724 16.3764 8.37479 16.1072 8.10882 15.7438C7.84285 15.3805 7.69691 14.9416 7.69175 14.4895C7.6866 14.0374 7.8225 13.5952 8.08011 13.2257C8.33773 12.8563 8.70394 12.5784 9.12667 12.4317C9.54939 12.2849 10.0071 12.2768 10.4347 12.4083V9.63618C9.46415 9.50863 8.47824 9.68332 7.60835 10.137C6.73845 10.5906 6.02589 11.3017 5.56563 12.1754C5.10537 13.0492 4.91926 14.0441 5.03212 15.0275C5.14498 16.0109 5.55144 16.9362 6.19734 17.6801C6.84323 18.4239 7.69788 18.9509 8.64737 19.1909C9.59687 19.4309 10.5961 19.3724 11.512 19.0234C12.4278 18.6743 13.2167 18.0511 13.7736 17.237C14.3304 16.4228 14.6287 15.4563 14.6288 14.4662C14.6288 14.398 14.6269 14.3302 14.6241 14.2627V9.10888C15.8596 10.2526 18.2093 10.35 18.2093 10.35Z" fill="#7CF1EE"/>
<path d="M18.9998 11.012V8.32468C15.5269 8.1764 15.4174 4.98423 15.4131 4.6845V4.66162H12.7316V15.1282C12.7316 15.5808 12.5904 16.0218 12.3282 16.3885C12.0661 16.7552 11.6962 17.0289 11.2714 17.1706C10.8466 17.3124 10.3884 17.315 9.96197 17.1781C9.53559 17.0411 9.16276 16.7716 8.89653 16.408C8.63031 16.0443 8.48426 15.6049 8.47916 15.1524C8.47406 14.6999 8.61018 14.2573 8.86814 13.8875C9.1261 13.5178 9.49276 13.2398 9.91595 13.0931C10.3391 12.9464 10.7973 12.9384 11.2252 13.0703V10.2982C10.2547 10.1706 9.26877 10.3453 8.39887 10.799C7.52898 11.2527 6.81642 11.9637 6.35616 12.8375C5.89589 13.7112 5.70979 14.7061 5.82265 15.6895C5.93551 16.673 6.34197 17.5982 6.98786 18.3421C7.63376 19.0859 8.4884 19.6129 9.4379 19.8529C10.3874 20.0929 11.3866 20.0345 12.3025 19.6854C13.2183 19.3363 14.0072 18.7131 14.5641 17.899C15.1209 17.0848 15.4193 16.1183 15.4193 15.1282C15.4193 15.06 15.4174 14.9922 15.4147 14.9247V9.7709C16.6505 10.9146 18.9998 11.012 18.9998 11.012Z" fill="white"/>
<path d="M14.6899 4.66162C14.8194 5.37428 15.1968 6.48921 16.2993 7.14113C15.4572 6.14925 15.4143 4.86907 15.4127 4.6845V4.66162H14.6899Z" fill="#FF004F"/>
<path d="M18.9998 11.0123V8.32493C18.7342 8.31446 18.47 8.28255 18.2095 8.22949V10.3458C18.2095 10.3458 15.8602 10.2484 14.6228 9.10503V14.2585C14.6255 14.3263 14.6274 14.3938 14.6274 14.462C14.6275 15.3431 14.3911 16.2078 13.9437 16.9638C13.4962 17.7198 12.8544 18.3389 12.0866 18.755C11.3188 19.1711 10.4538 19.3687 9.58374 19.3267C8.71368 19.2848 7.87118 19.0048 7.146 18.5167C7.81289 19.2137 8.6704 19.6935 9.60857 19.8943C10.5467 20.0951 11.5228 20.008 12.4117 19.6439C13.3006 19.2799 14.0617 18.6556 14.5976 17.8511C15.1334 17.0466 15.4195 16.0986 15.4193 15.1285C15.4193 15.0603 15.4173 14.9924 15.4146 14.925V9.77115C16.6504 10.9149 18.9998 11.0123 18.9998 11.0123Z" fill="#E8445A"/>
<path d="M10.4345 12.4039C9.92225 12.2467 9.37022 12.2906 8.88858 12.527C8.40695 12.7634 8.03112 13.1748 7.83611 13.6791C7.64109 14.1834 7.64122 14.7436 7.83648 15.2478C8.03173 15.752 8.40775 16.1633 8.8895 16.3994C8.62554 16.0351 8.48164 15.596 8.47822 15.1443C8.47479 14.6926 8.612 14.2513 8.87041 13.883C9.12881 13.5146 9.49528 13.2379 9.91786 13.092C10.3404 12.9462 10.7977 12.9386 11.2248 13.0704V10.2982C11.0191 10.2717 10.8119 10.2585 10.6045 10.2588C10.5476 10.2588 10.491 10.2588 10.4345 10.2623V12.4039Z" fill="#FF004F"/>
</g>
<defs>
<clipPath id="clip0_352_47019">
<rect width="24" height="24" fill="white"/>
</clipPath>
</defs>
</svg>
