<svg width="24" height="24" viewBox="0 0 24 24" fill="none" xmlns="http://www.w3.org/2000/svg">
<path d="M23.5063 6.61086C23.369 6.1043 23.1015 5.6425 22.7303 5.27138C22.3592 4.90026 21.8974 4.63274 21.3909 4.49543C19.512 4 12 4 12 4C12 4 4.488 4 2.60914 4.49543C1.58057 4.77143 0.771429 5.58229 0.493714 6.61086C0 8.488 0 12.3829 0 12.3829C0 12.3829 0 16.2966 0.493714 18.1549C0.771429 19.1834 1.58229 19.9943 2.60914 20.2703C4.488 20.7657 12 20.7657 12 20.7657C12 20.7657 19.512 20.7657 21.3909 20.2703C21.8974 20.133 22.3592 19.8655 22.7303 19.4943C23.1015 19.1232 23.369 18.6614 23.5063 18.1549C24 16.2777 24 12.3829 24 12.3829C24 12.3829 24 8.488 23.5063 6.61086Z" fill="#E83323"/>
<path d="M9 16.2137L15.2469 12.6171L9 9V16.2137Z" fill="white"/>
</svg>
