<svg width="150" height="93" viewBox="0 0 150 93" fill="none" xmlns="http://www.w3.org/2000/svg">
<path d="M30.4097 7.96973H4.80273V53.9714H30.4097V7.96973Z" fill="#EBEBEB"/>
<path d="M29.1245 9.3042H5.82812V52.6013H29.1245V9.3042Z" fill="#FAFAFA"/>
<path d="M29.1245 9.81386L5.82812 39.4488V9.3042H29.1245V9.81386Z" fill="#F5F5F5"/>
<path d="M29.6299 21.7583H5.82812V22.2187H29.6299V21.7583Z" fill="#EBEBEB"/>
<path d="M29.6299 32.0693H5.82812V32.5297H29.6299V32.0693Z" fill="#EBEBEB"/>
<path d="M29.6299 42.3804H5.82812V42.8408H29.6299V42.3804Z" fill="#EBEBEB"/>
<path d="M16.8906 21.9882L16.8906 53.8267H18.0684L18.0684 21.9882H16.8906Z" fill="#EBEBEB"/>
<path d="M10.8496 9.3042H10.3164V21.9899H10.8496V9.3042Z" fill="#EBEBEB"/>
<path d="M15.4492 9.3042H14.916V21.9899H15.4492V9.3042Z" fill="#EBEBEB"/>
<path d="M20.043 9.3042H19.5098V21.9899H20.043V9.3042Z" fill="#EBEBEB"/>
<path d="M24.6484 9.3042H24.1152V21.9899H24.6484V9.3042Z" fill="#EBEBEB"/>
<path d="M4.80816 7.18896H3.72461V54.2549H4.80816V7.18896Z" fill="#F5F5F5"/>
<path d="M31.4976 54.3856L30.4141 53.9723V7.18896H31.4976V54.3856Z" fill="#E0E0E0"/>
<path d="M31.4987 6.71582H3.72461V7.97069H31.4987V6.71582Z" fill="#E0E0E0"/>
<path d="M32.2322 54.54H2.95703V55.7092H32.2322V54.54Z" fill="#E0E0E0"/>
<path d="M30.4142 53.9717L32.2301 54.5392H2.95703L4.80721 53.9717H30.4142Z" fill="#EBEBEB"/>
<path d="M140.562 36.646C140.562 36.646 138.751 36.5154 138.918 40.5755C139.085 44.6356 139.5 46.7984 139.5 46.7984C139.5 46.7984 139.447 47.6999 138.749 47.5222C138.051 47.3445 136.74 46.4686 136.091 47.1239C135.442 47.7792 135.663 48.837 136.549 50.0726C137.436 51.3082 139.295 54.0599 139.462 54.3104C139.629 54.561 139.691 55.0171 139.196 54.9721C138.702 54.9272 135.367 53.7965 134.924 55.4111C134.481 57.0258 137.528 60.0387 137.854 60.3728C138.179 60.7068 138.198 60.921 138.068 61.1244C137.937 61.3278 136.849 60.8417 135.888 60.5591C134.926 60.2764 133.761 60.1158 133.584 61.0687C133.406 62.0217 134.748 64.8119 139.77 67.7435L142.186 68.9491L144.473 67.4908C149.184 64.0646 150.229 61.1629 149.959 60.2314C149.689 59.2999 148.543 59.5762 147.614 59.9531C146.685 60.3299 145.655 60.9231 145.503 60.7347C145.351 60.5462 145.346 60.3321 145.638 59.9659C145.929 59.5997 148.657 56.2998 148.055 54.7366C147.453 53.1734 144.25 54.6338 143.772 54.7259C143.295 54.818 143.303 54.3554 143.443 54.0942C143.582 53.8329 145.156 50.897 145.916 49.5865C146.676 48.276 146.813 47.216 146.076 46.6078C145.34 45.9996 144.149 47.0232 143.473 47.2695C142.796 47.5158 142.655 46.6271 142.655 46.6271C142.655 46.6271 142.849 44.4343 142.61 40.3763C142.37 36.3183 140.528 36.646 140.528 36.646" fill="#EBEBEB"/>
<path d="M140.704 40.2812C140.705 40.3098 140.705 40.3384 140.704 40.3669L140.723 40.6153C140.738 40.8294 140.759 41.1614 140.787 41.5747C140.843 42.4077 140.916 43.6133 141.001 45.1016C141.166 48.0824 141.361 52.2003 141.558 56.7487C141.755 61.297 141.941 65.4192 142.089 68.3979C142.166 69.8862 142.226 71.0897 142.269 71.927C142.29 72.3424 142.305 72.6636 142.316 72.8885C142.316 72.9934 142.316 73.0769 142.316 73.1369C142.317 73.1654 142.317 73.194 142.316 73.2225C142.316 73.2225 142.316 73.1947 142.316 73.1369C142.316 73.079 142.316 72.9955 142.297 72.8885C142.282 72.6743 142.258 72.3424 142.23 71.9291C142.175 71.0982 142.104 69.8926 142.016 68.4022C141.849 65.4214 141.656 61.3034 141.457 56.753C141.258 52.2025 141.076 48.0867 140.926 45.1058C140.851 43.6197 140.789 42.4141 140.748 41.5768C140.727 41.1635 140.71 40.8402 140.699 40.6174C140.699 40.5104 140.699 40.4269 140.699 40.3669C140.699 40.3069 140.704 40.2812 140.704 40.2812Z" fill="#E0E0E0"/>
<path d="M137.881 48.4229C137.935 48.4584 137.986 48.5001 138.031 48.5471C138.125 48.6327 138.245 48.7612 138.414 48.9154C138.733 49.2323 139.164 49.6799 139.626 50.1831C140.089 50.6863 140.483 51.1274 140.808 51.4679L141.168 51.8577C141.215 51.902 141.258 51.9515 141.294 52.0054C141.294 52.0054 141.234 51.9669 141.142 51.8834C141.05 51.7999 140.928 51.6692 140.761 51.5129C140.444 51.1938 140.022 50.7399 139.558 50.2281L138.369 48.9432C138.226 48.7912 138.106 48.6605 138.007 48.5535C137.96 48.5148 137.918 48.471 137.881 48.4229Z" fill="#E0E0E0"/>
<path d="M141.531 51.936C141.514 51.9188 142.399 50.9938 143.506 49.8695C144.613 48.7453 145.527 47.8502 145.544 47.8694C145.562 47.8887 144.688 48.8117 143.572 49.9359C142.457 51.0601 141.551 51.9552 141.531 51.936Z" fill="#E0E0E0"/>
<path d="M141.52 58.9353C141.571 58.8938 141.627 58.8579 141.687 58.8282L142.16 58.5627C142.558 58.3485 143.108 58.0273 143.702 57.6633C144.295 57.2992 144.824 56.9523 145.201 56.6975L145.65 56.3956C145.703 56.3537 145.761 56.3198 145.824 56.2949C145.777 56.3433 145.727 56.3871 145.672 56.4255C145.571 56.5048 145.423 56.6161 145.243 56.751C144.873 57.0187 144.35 57.3763 143.744 57.7425C143.138 58.1087 142.592 58.4106 142.186 58.6205C141.971 58.7254 141.815 58.8068 141.697 58.8603C141.641 58.8924 141.582 58.9176 141.52 58.9353Z" fill="#E0E0E0"/>
<path d="M137.518 56.4795C137.576 56.4999 137.632 56.5264 137.685 56.5587C137.79 56.6144 137.94 56.6979 138.113 56.8007C138.481 57.0148 138.987 57.3039 139.541 57.6337C140.096 57.9635 140.595 58.2761 140.955 58.4903C141.135 58.6038 141.278 58.6937 141.383 58.7601C141.437 58.7894 141.487 58.8262 141.531 58.8693C141.472 58.8494 141.416 58.8228 141.364 58.7901C141.259 58.7344 141.109 58.6509 140.936 58.5481C140.569 58.334 140.064 58.0449 139.509 57.7151C138.955 57.3853 138.456 57.0727 138.096 56.8585C137.916 56.7472 137.773 56.6551 137.668 56.5887C137.563 56.5223 137.514 56.4923 137.518 56.4795Z" fill="#E0E0E0"/>
<path d="M136.727 62.6655C136.802 62.6906 136.874 62.7252 136.941 62.7683L137.504 63.0788C137.977 63.3422 138.626 63.7212 139.341 64.1302C140.056 64.5393 140.701 64.929 141.166 65.201L141.712 65.5371C141.782 65.5745 141.847 65.6198 141.907 65.6721C141.832 65.6441 141.761 65.6097 141.692 65.5693L141.129 65.2588C140.658 64.9932 140.007 64.6163 139.292 64.2052C138.577 63.794 137.932 63.4086 137.47 63.1345L136.921 62.7983C136.853 62.7594 136.788 62.715 136.727 62.6655Z" fill="#E0E0E0"/>
<path d="M141.801 65.5713C141.867 65.5163 141.938 65.4689 142.015 65.43L142.602 65.0724C143.098 64.7704 143.782 64.3507 144.529 63.8668C145.276 63.3828 145.932 62.931 146.407 62.599L146.972 62.2072C147.038 62.1542 147.11 62.109 147.186 62.0723C147.126 62.131 147.062 62.1854 146.994 62.235C146.865 62.3357 146.679 62.4791 146.445 62.6526C145.979 62.9974 145.323 63.462 144.578 63.9374C143.833 64.4128 143.146 64.8325 142.651 65.1195C142.398 65.263 142.193 65.3765 142.047 65.4535C141.968 65.4997 141.886 65.5391 141.801 65.5713Z" fill="#E0E0E0"/>
<path d="M145.431 69.7407H138.748L140.93 86.2509H143.251L145.431 69.7407Z" fill="#E0E0E0"/>
<path d="M139.094 71.7693C139.094 71.7693 139.094 71.7928 139.13 71.8292C139.174 71.8798 139.229 71.9194 139.291 71.9449C139.407 71.9851 139.532 71.9981 139.654 71.9829C139.777 71.9676 139.894 71.9246 139.997 71.8571C140.267 71.7093 140.503 71.4159 140.854 71.2875C141.254 71.1585 141.686 71.1668 142.081 71.311C142.484 71.448 142.869 71.6343 143.227 71.8656C143.525 72.053 143.835 72.2197 144.156 72.3646C144.375 72.4627 144.606 72.5297 144.843 72.5637C144.908 72.5733 144.973 72.5776 145.038 72.5766C145.081 72.5766 145.105 72.5766 145.105 72.5766C144.788 72.5279 144.479 72.4349 144.188 72.3004C143.875 72.1471 143.571 71.9755 143.278 71.7864C142.917 71.5469 142.526 71.3547 142.115 71.2147C141.697 71.0632 141.239 71.058 140.818 71.1997C140.639 71.2719 140.474 71.374 140.329 71.5016C140.208 71.6083 140.08 71.7071 139.946 71.7971C139.853 71.8611 139.748 71.9043 139.637 71.9239C139.526 71.9435 139.413 71.9389 139.304 71.9106C139.225 71.8779 139.154 71.8298 139.094 71.7693Z" fill="#F5F5F5"/>
<path d="M139.34 74.8126C139.34 74.8126 139.393 74.744 139.498 74.6348C139.649 74.4839 139.831 74.3683 140.032 74.2965C140.329 74.1884 140.645 74.1403 140.961 74.1551C141.351 74.1855 141.739 74.2384 142.124 74.3136C142.516 74.39 142.917 74.4066 143.314 74.3629C143.639 74.321 143.955 74.2308 144.252 74.0952C144.452 74.0057 144.641 73.8936 144.815 73.7611C144.882 73.7166 144.942 73.6624 144.993 73.6005C144.747 73.7625 144.488 73.9057 144.22 74.0288C143.927 74.1514 143.619 74.2322 143.304 74.2686C142.915 74.3038 142.524 74.2843 142.141 74.2108C141.752 74.1343 141.359 74.0835 140.963 74.0588C140.635 74.0486 140.308 74.1062 140.004 74.228C139.797 74.311 139.613 74.4416 139.466 74.6091C139.428 74.6556 139.394 74.7058 139.366 74.759C139.354 74.7752 139.345 74.7933 139.34 74.8126Z" fill="#F5F5F5"/>
<path d="M144.672 76.4392C144.618 76.3955 144.555 76.3628 144.488 76.3428C144.31 76.2771 144.123 76.2374 143.933 76.225C143.653 76.2073 143.372 76.2231 143.096 76.2721C142.786 76.3235 142.454 76.4092 142.1 76.4863C141.774 76.5621 141.44 76.5995 141.105 76.5976C140.833 76.5909 140.565 76.5328 140.314 76.4263C140.086 76.3206 139.882 76.169 139.715 75.9809C139.74 76.0459 139.779 76.105 139.828 76.1543C139.955 76.2985 140.109 76.4152 140.282 76.497C140.539 76.618 140.817 76.6865 141.1 76.6983C141.444 76.7065 141.787 76.6705 142.122 76.5912C142.477 76.5162 142.809 76.4285 143.113 76.3771C143.382 76.3252 143.656 76.3022 143.929 76.3085C144.181 76.3207 144.431 76.3646 144.672 76.4392Z" fill="#F5F5F5"/>
<path d="M139.926 78.7284C140.128 78.6413 140.353 78.6189 140.568 78.6641C140.804 78.7215 141.032 78.8063 141.247 78.9168C141.524 79.0502 141.823 79.1322 142.13 79.1588C142.688 79.2092 143.248 79.0793 143.727 78.7883C143.871 78.7014 144.004 78.5987 144.125 78.4821C144.207 78.3964 144.247 78.3472 144.243 78.3408C144.066 78.4787 143.881 78.606 143.688 78.7219C143.216 78.9827 142.676 79.0968 142.138 79.0496C141.506 79.0153 141.02 78.6363 140.581 78.587C140.413 78.5576 140.239 78.5724 140.078 78.6299C139.971 78.6748 139.922 78.7241 139.926 78.7284Z" fill="#F5F5F5"/>
<path d="M140.301 81.8975C140.492 81.9024 140.683 81.8643 140.858 81.7861C141.194 81.6748 141.609 81.4178 142.095 81.2251C142.321 81.1328 142.561 81.082 142.804 81.0752C143.002 81.0755 143.197 81.1201 143.376 81.2058C143.538 81.2928 143.679 81.4141 143.789 81.5613C143.78 81.5101 143.758 81.4622 143.725 81.4221C143.645 81.3036 143.538 81.206 143.412 81.1373C143.226 81.0362 143.018 80.9804 142.806 80.9745C142.549 80.975 142.295 81.0252 142.057 81.1223C141.554 81.3236 141.151 81.5891 140.83 81.7155C140.509 81.8418 140.299 81.8804 140.301 81.8975Z" fill="#F5F5F5"/>
<path d="M140.629 83.374C140.765 83.4396 140.909 83.4858 141.057 83.5111C141.405 83.5952 141.759 83.6546 142.115 83.6888C142.471 83.7242 142.829 83.735 143.186 83.7209C143.335 83.7255 143.483 83.7075 143.627 83.6674C143.627 83.6353 142.95 83.6674 142.128 83.5796C141.306 83.4918 140.637 83.3419 140.629 83.374Z" fill="#F5F5F5"/>
<path d="M141.635 9.86084H121V23.4288H141.635V9.86084Z" fill="#E0E0E0"/>
<path d="M140.91 10.416H121.721V22.8212H140.91V10.416Z" fill="#FAFAFA"/>
<path d="M134.443 14.938H128.184V18.3514H134.443V14.938Z" fill="#E0E0E0"/>
<path d="M147.436 86.4707C147.436 86.5028 114.428 86.5263 73.7222 86.5263C33.0162 86.5263 0 86.5028 0 86.4707C0 86.4385 33.0012 86.415 73.7222 86.415C114.443 86.415 147.436 86.4407 147.436 86.4707Z" fill="#2D2D2D"/>
<path d="M55.541 -0.000915527H99.729V42.0842C99.729 43.0054 99.363 43.8888 98.7116 44.5402C98.0602 45.1916 97.1768 45.5575 96.2556 45.5575H55.541V-0.000915527Z" fill="#EBEBEB"/>
<path d="M96.0801 13.5592C96.0801 13.6513 88.0948 13.7262 78.2444 13.7262C68.3939 13.7262 60.4043 13.6513 60.4043 13.5592C60.4043 13.4671 68.3896 13.3922 78.2444 13.3922C88.0991 13.3922 96.0801 13.4671 96.0801 13.5592Z" fill="url(#paint0_linear_53236_25749)"/>
<path d="M78.4521 16.6485C78.4521 16.7406 74.5076 16.8155 69.6402 16.8155C64.7728 16.8155 60.8262 16.7406 60.8262 16.6485C60.8262 16.5564 64.7728 16.4814 69.6402 16.4814C74.5076 16.4814 78.4521 16.5521 78.4521 16.6485Z" fill="url(#paint1_linear_53236_25749)"/>
<path d="M85.4983 16.3599C85.4983 16.452 84.4533 16.5269 83.1642 16.5269C81.8751 16.5269 80.8301 16.452 80.8301 16.3599C80.8301 16.2678 81.8751 16.1929 83.1642 16.1929C84.4533 16.1929 85.4983 16.2678 85.4983 16.3599Z" fill="url(#paint2_linear_53236_25749)"/>
<path d="M97.0333 16.1695C97.0333 16.2616 94.9647 16.3365 92.4122 16.3365C89.8596 16.3365 87.791 16.2616 87.791 16.1695C87.791 16.0774 89.8596 16.0024 92.4122 16.0024C94.9647 16.0024 97.0333 16.0774 97.0333 16.1695Z" fill="url(#paint3_linear_53236_25749)"/>
<path d="M76.9831 19.5972C76.9831 19.6914 73.272 19.7664 68.6937 19.7664C64.1154 19.7664 60.4043 19.6914 60.4043 19.5972C60.4043 19.503 64.1154 19.4302 68.6937 19.4302C73.272 19.4302 76.9831 19.5051 76.9831 19.5972Z" fill="url(#paint4_linear_53236_25749)"/>
<path d="M97.033 19.5137C97.033 19.6058 92.9814 19.6807 87.9834 19.6807C82.9853 19.6807 78.9316 19.6058 78.9316 19.5137C78.9316 19.4216 82.9832 19.3467 87.9834 19.3467C92.9836 19.3467 97.033 19.4195 97.033 19.5137Z" fill="url(#paint5_linear_53236_25749)"/>
<path d="M97.0349 22.4866C97.0349 22.5786 95.2318 22.6536 93.0047 22.6536C90.7777 22.6536 88.9746 22.5786 88.9746 22.4866C88.9746 22.3945 90.7798 22.3174 93.0047 22.3174C95.2297 22.3174 97.0349 22.3923 97.0349 22.4866Z" fill="url(#paint6_linear_53236_25749)"/>
<path d="M80.3579 10.2501C80.3579 10.3422 75.9852 10.4171 70.5931 10.4171C65.2011 10.4171 60.8262 10.3422 60.8262 10.2501C60.8262 10.158 65.1989 10.0831 70.5931 10.0831C75.9873 10.0831 80.3579 10.158 80.3579 10.2501Z" fill="#796CAF"/>
<path d="M107.525 25.5181H21.9696C20.2465 25.5181 18.8496 26.915 18.8496 28.6381V83.1005C18.8496 84.8237 20.2465 86.2205 21.9696 86.2205H107.525C109.248 86.2205 110.645 84.8237 110.645 83.1005V28.6381C110.645 26.915 109.248 25.5181 107.525 25.5181Z" fill="#2D2D2D"/>
<path d="M15.1406 81.73H114.592V83.229C114.592 84.2399 114.19 85.2094 113.475 85.9242C112.761 86.6391 111.791 87.0407 110.78 87.0407H18.9523C17.9414 87.0407 16.9719 86.6391 16.257 85.9242C15.5422 85.2094 15.1406 84.2399 15.1406 83.229V81.73Z" fill="#2D2D2D"/>
<path d="M108.055 27.9292H21.4453V79.1924H108.055V27.9292Z" fill="url(#paint7_linear_53236_25749)"/>
<path d="M55.8281 81.7302H56.2157H57.3464L61.5414 81.7131L75.574 81.6831H75.6768L75.6254 81.773L75.0687 82.7281L74.4798 83.7367L74.4626 83.7667H74.4284L57.0616 83.7346H57.0466V83.7217L56.1365 82.242L55.9074 81.8673L55.8345 81.7431C55.8345 81.7431 55.8667 81.788 55.9202 81.8737L56.1643 82.2484C56.3785 82.5804 56.6868 83.0643 57.0916 83.6917L57.068 83.6789L74.4348 83.6468L74.3834 83.6768L74.9723 82.6681L75.5291 81.7131L75.5805 81.803L61.6056 81.773L57.3828 81.7473H56.235H55.9331L55.8281 81.7302Z" fill="url(#paint8_linear_53236_25749)"/>
<path d="M110.643 81.73C110.643 81.7621 90.0857 81.7857 64.7485 81.7857C39.4114 81.7857 18.8496 81.7621 18.8496 81.73C18.8496 81.6979 39.3943 81.6743 64.7485 81.6743C90.1028 81.6743 110.643 81.7 110.643 81.73Z" fill="url(#paint9_linear_53236_25749)"/>
<path d="M87.2098 17.6914C87.8914 17.6914 88.545 17.9621 89.0269 18.4441C89.5088 18.926 89.7795 19.5796 89.7795 20.2611V25.5225H82.1133V20.6637C82.113 20.2733 82.1897 19.8866 82.339 19.5259C82.4882 19.1652 82.7072 18.8374 82.9832 18.5613C83.2593 18.2853 83.587 18.0664 83.9478 17.9171C84.3085 17.7678 84.6951 17.6911 85.0855 17.6914H87.2098Z" fill="#2D2D2D"/>
<path d="M87.2103 17.6915C87.2103 17.7237 79.9766 17.7408 71.0534 17.7344C62.1302 17.7279 54.8965 17.6937 54.8965 17.6637C54.8965 17.6337 62.128 17.6144 71.0534 17.6209C79.9788 17.6273 87.2103 17.6616 87.2103 17.6915Z" fill="#2D2D2D"/>
<path d="M87.1491 17.685L83.9498 17.6636L79.3051 17.6914H45.1839C43.7925 17.6914 42.458 18.2442 41.4741 19.2281C40.4903 20.212 39.9375 21.5464 39.9375 22.9379V79.3147H84.1276V20.5673C84.2582 17.6914 87.1491 17.685 87.1491 17.685Z" fill="#FAFAFA"/>
<path d="M87.1491 17.6848L60.5036 17.7427H47.1819H45.5159C45.2375 17.7427 44.9634 17.7427 44.6893 17.7662C44.4169 17.7951 44.147 17.8445 43.882 17.914C43.0821 18.1203 42.3436 18.5159 41.7286 19.0675C41.1137 19.6191 40.6404 20.3104 40.3487 21.0832C40.3058 21.2139 40.2459 21.3381 40.2159 21.4708L40.1153 21.8691C40.063 22.1383 40.0308 22.4111 40.0189 22.685C39.9953 23.7878 40.0189 24.9035 40.0189 26.0128L40.0553 79.3017L39.9482 79.1946L84.1383 79.2246L84.0612 79.3017L84.0826 47.6089L84.1083 31.7624L84.1233 23.8392V21.8584V20.867C84.1169 20.7018 84.1233 20.5364 84.1426 20.3723C84.154 20.2075 84.1805 20.044 84.2218 19.8841C84.3597 19.2296 84.7428 18.6526 85.2925 18.2716C85.564 18.0823 85.864 17.9378 86.1812 17.8433C86.4956 17.7485 86.821 17.6952 87.1491 17.6848ZM87.1491 17.6848C86.8188 17.6994 86.4919 17.7577 86.1769 17.8583C85.8605 17.9529 85.5612 18.0975 85.2904 18.2866C84.7444 18.6679 84.3657 19.2444 84.2325 19.8969C84.1918 20.0562 84.166 20.2189 84.1554 20.383C84.1379 20.5473 84.1322 20.7126 84.1383 20.8777V23.8478L84.1554 31.771L84.1811 47.6174L84.2004 79.3103V79.3916H84.1212L39.9311 79.4195H39.8262V79.3124L39.8604 26.0235C39.8604 24.9121 39.8604 23.805 39.8754 22.6893C39.8879 22.4082 39.9208 22.1283 39.9739 21.852L40.081 21.4451C40.111 21.3081 40.1731 21.1796 40.2159 21.0468C40.5161 20.2546 41.0023 19.5461 41.6336 18.9811C42.265 18.4161 43.0229 18.0112 43.8435 17.8005C44.1156 17.7301 44.3926 17.68 44.6722 17.6506C44.9527 17.6356 45.2332 17.6206 45.5095 17.627H47.1755H60.4972L87.1491 17.6848Z" fill="#2D2D2D"/>
<path d="M46.6007 27.8354H54.3098L54.3227 30.418H53.9522C53.8323 29.4943 53.4868 28.869 52.9157 28.5421C52.4652 28.3345 51.9726 28.2341 51.4767 28.2487V34.9942C51.4767 35.4674 51.5581 35.7801 51.723 35.9342C51.8879 36.0884 52.2305 36.1655 52.753 36.1655V36.491H48.1897V36.1655C48.6886 36.1655 49.0227 36.0863 49.1854 35.93C49.3482 35.7736 49.4338 35.4631 49.4338 34.9942V28.2487C48.9382 28.2369 48.4463 28.3372 47.9948 28.5421C47.3824 28.8783 47.0354 29.5015 46.9562 30.418H46.5879L46.6007 27.8354Z" fill="#796CAF"/>
<path d="M78.0669 28.4258C78.0669 28.5179 73.8141 28.5928 68.5676 28.5928C63.3212 28.5928 59.0684 28.5179 59.0684 28.4258C59.0684 28.3337 63.3212 28.2588 68.5676 28.2588C73.8141 28.2588 78.0669 28.3252 78.0669 28.4258Z" fill="#796CAF"/>
<path d="M66.7942 31.4543C66.7942 31.5464 65.1496 31.6214 63.1217 31.6214C61.0938 31.6214 59.4492 31.5464 59.4492 31.4543C59.4492 31.3622 61.0938 31.2852 63.1217 31.2852C65.1496 31.2852 66.7942 31.3601 66.7942 31.4543Z" fill="url(#paint10_linear_53236_25749)"/>
<path d="M57.5333 40.7144C57.5333 40.8065 54.4111 40.8814 50.5587 40.8814C46.7063 40.8814 43.582 40.8065 43.582 40.7144C43.582 40.6223 46.7042 40.5474 50.5587 40.5474C54.4133 40.5474 57.5333 40.633 57.5333 40.7144Z" fill="url(#paint11_linear_53236_25749)"/>
<path d="M73.3302 40.7144C73.3302 40.8065 70.2059 40.8814 66.3556 40.8814C62.5054 40.8814 59.3789 40.8065 59.3789 40.7144C59.3789 40.6223 62.5011 40.5474 66.3556 40.5474C70.2101 40.5474 73.3302 40.633 73.3302 40.7144Z" fill="#796CAF"/>
<path d="M57.5333 43.187C57.5333 43.2791 54.4111 43.3541 50.5587 43.3541C46.7063 43.3541 43.582 43.2791 43.582 43.187C43.582 43.095 46.7042 43.02 50.5587 43.02C54.4133 43.02 57.5333 43.095 57.5333 43.187Z" fill="url(#paint12_linear_53236_25749)"/>
<path d="M57.5333 45.6604C57.5333 45.7525 54.4111 45.8274 50.5587 45.8274C46.7063 45.8274 43.582 45.7525 43.582 45.6604C43.582 45.5683 46.7042 45.4912 50.5587 45.4912C54.4133 45.4912 57.5333 45.5576 57.5333 45.6604Z" fill="#796CAF"/>
<path d="M66.7942 36.4912C66.7942 36.5833 65.1496 36.6583 63.1217 36.6583C61.0938 36.6583 59.4492 36.5833 59.4492 36.4912C59.4492 36.3992 61.0938 36.3242 63.1217 36.3242C65.1496 36.3242 66.7942 36.3992 66.7942 36.4912Z" fill="url(#paint13_linear_53236_25749)"/>
<path d="M79.5341 40.7144C79.5341 40.8065 78.4377 40.8814 77.0865 40.8814C75.7353 40.8814 74.6367 40.8065 74.6367 40.7144C74.6367 40.6223 75.7331 40.5474 77.0865 40.5474C78.4399 40.5474 79.5341 40.633 79.5341 40.7144Z" fill="url(#paint14_linear_53236_25749)"/>
<path d="M80.8426 31.4543C80.8426 31.5464 78.0202 31.6214 74.5404 31.6214C71.0607 31.6214 68.2383 31.5464 68.2383 31.4543C68.2383 31.3622 71.0585 31.2852 74.5404 31.2852C78.0224 31.2852 80.8426 31.3601 80.8426 31.4543Z" fill="url(#paint15_linear_53236_25749)"/>
<path d="M80.2765 33.8662C80.2765 33.9583 75.6147 34.0333 69.8629 34.0333C64.1111 34.0333 59.4492 33.9583 59.4492 33.8662C59.4492 33.7742 64.1111 33.6992 69.8629 33.6992C75.6147 33.6992 80.2765 33.7806 80.2765 33.8662Z" fill="url(#paint16_linear_53236_25749)"/>
<path d="M79.5327 43.187C79.5327 43.2791 75.0208 43.3541 69.4681 43.3541C63.9154 43.3541 59.3906 43.2791 59.3906 43.187C59.3906 43.095 63.9004 43.02 69.4681 43.02C75.0357 43.02 79.5327 43.095 79.5327 43.187Z" fill="url(#paint17_linear_53236_25749)"/>
<path d="M79.5377 50.3457C79.5377 50.4378 75.3042 50.5128 70.0834 50.5128C64.8627 50.5128 60.627 50.4378 60.627 50.3457C60.627 50.2537 64.8605 50.1787 70.0834 50.1787C75.3063 50.1787 79.5377 50.2537 79.5377 50.3457Z" fill="#796CAF"/>
<path d="M79.5377 52.7525C79.5377 52.8446 75.3042 52.9195 70.0834 52.9195C64.8627 52.9195 60.627 52.8446 60.627 52.7525C60.627 52.6604 64.8605 52.5854 70.0834 52.5854C75.3063 52.5854 79.5377 52.6604 79.5377 52.7525Z" fill="url(#paint18_linear_53236_25749)"/>
<path d="M79.5377 55.1592C79.5377 55.2513 75.3042 55.3262 70.0834 55.3262C64.8627 55.3262 60.627 55.2513 60.627 55.1592C60.627 55.0671 64.8605 54.9922 70.0834 54.9922C75.3063 54.9922 79.5377 55.0671 79.5377 55.1592Z" fill="url(#paint19_linear_53236_25749)"/>
<path d="M79.5377 57.5674C79.5377 57.6595 75.3042 57.7344 70.0834 57.7344C64.8627 57.7344 60.627 57.6595 60.627 57.5674C60.627 57.4753 64.8605 57.4004 70.0834 57.4004C75.3063 57.4004 79.5377 57.4753 79.5377 57.5674Z" fill="url(#paint20_linear_53236_25749)"/>
<path d="M71.5129 59.9742C71.5129 60.0191 70.9026 60.062 69.9175 60.0919C68.9325 60.1219 67.562 60.1412 66.063 60.1412C64.564 60.1412 63.1978 60.1219 62.2084 60.0919C61.2191 60.062 60.6152 60.0191 60.6152 59.9742C60.6152 59.9292 61.2234 59.8864 62.2084 59.8564C63.1935 59.8264 64.564 59.8071 66.063 59.8071C67.562 59.8071 68.926 59.8264 69.9175 59.8564C70.909 59.8864 71.5129 59.927 71.5129 59.9742Z" fill="url(#paint21_linear_53236_25749)"/>
<path d="M76.1106 45.7886C76.1106 45.8807 72.4702 45.9556 67.9733 45.9556C63.4763 45.9556 59.8359 45.8807 59.8359 45.7886C59.8359 45.6965 63.4763 45.6216 67.9733 45.6216C72.4702 45.6216 76.1106 45.6965 76.1106 45.7886Z" fill="url(#paint22_linear_53236_25749)"/>
<path d="M57.2016 50.6184L58.2059 69.1973L40.0404 71.4714L40.0254 50.46L57.2016 50.6184Z" fill="#E0E0E0"/>
<path d="M33.6839 49.3309L33.5566 69.04L58.208 69.1992L58.3353 49.4901L33.6839 49.3309Z" fill="#F5F5F5"/>
<path d="M34.5234 50.5779L34.4121 67.8052L57.3311 67.9532L57.4424 50.7259L34.5234 50.5779Z" fill="#796CAF"/>
<g opacity="0.2">
<path d="M34.4102 67.8026L42.4854 57.147L47.3999 63.8774L50.7876 60.3184L57.3318 67.9504L34.4102 67.8026Z" fill="black"/>
</g>
<g opacity="0.2">
<path d="M49.5596 55.8799C49.5575 56.237 49.4495 56.5855 49.2493 56.8812C49.049 57.1769 48.7656 57.4066 48.4348 57.5412C48.104 57.6758 47.7408 57.7093 47.3909 57.6374C47.0411 57.5655 46.7205 57.3915 46.4696 57.1373C46.2188 56.8831 46.0489 56.5602 45.9816 56.2095C45.9143 55.8588 45.9525 55.496 46.0914 55.167C46.2303 54.838 46.4637 54.5576 46.762 54.3613C47.0603 54.1649 47.4101 54.0615 47.7672 54.064C48.0042 54.0654 48.2386 54.1135 48.4569 54.2056C48.6753 54.2976 48.8734 54.4318 49.0398 54.6004C49.2063 54.7691 49.3379 54.9689 49.4271 55.1884C49.5163 55.408 49.5613 55.643 49.5596 55.8799Z" fill="black"/>
</g>
<path d="M60.5807 73.8465C60.5807 73.9219 60.5583 73.9956 60.5165 74.0583C60.4746 74.121 60.415 74.1698 60.3454 74.1987C60.2757 74.2275 60.1991 74.2351 60.1252 74.2204C60.0512 74.2056 59.9833 74.1693 59.93 74.116C59.8767 74.0627 59.8404 73.9948 59.8257 73.9209C59.811 73.8469 59.8185 73.7703 59.8474 73.7006C59.8762 73.631 59.9251 73.5715 59.9878 73.5296C60.0504 73.4877 60.1241 73.4653 60.1995 73.4653C60.2497 73.4651 60.2994 73.4747 60.3457 73.4938C60.3921 73.5128 60.4342 73.5409 60.4697 73.5763C60.5051 73.6118 60.5332 73.6539 60.5523 73.7003C60.5713 73.7467 60.581 73.7964 60.5807 73.8465Z" fill="#2D2D2D"/>
<path d="M62.8424 73.8465C62.8424 73.9219 62.8201 73.9956 62.7782 74.0583C62.7363 74.121 62.6768 74.1698 62.6071 74.1987C62.5375 74.2275 62.4608 74.2351 62.3869 74.2203C62.3129 74.2056 62.245 74.1693 62.1917 74.116C62.1384 74.0627 62.1021 73.9948 62.0874 73.9209C62.0727 73.8469 62.0802 73.7703 62.1091 73.7006C62.1379 73.631 62.1868 73.5715 62.2495 73.5296C62.3122 73.4877 62.3859 73.4653 62.4612 73.4653C62.5623 73.4653 62.6593 73.5055 62.7308 73.577C62.8023 73.6485 62.8424 73.7454 62.8424 73.8465Z" fill="#2D2D2D"/>
<path d="M65.1041 73.8465C65.1041 73.9219 65.0818 73.9956 65.0399 74.0583C64.998 74.121 64.9385 74.1698 64.8688 74.1987C64.7992 74.2275 64.7225 74.2351 64.6486 74.2203C64.5747 74.2056 64.5067 74.1693 64.4534 74.116C64.4001 74.0627 64.3638 73.9948 64.3491 73.9209C64.3344 73.8469 64.342 73.7703 64.3708 73.7006C64.3997 73.631 64.4485 73.5715 64.5112 73.5296C64.5739 73.4877 64.6476 73.4653 64.723 73.4653C64.8241 73.4653 64.921 73.5055 64.9925 73.577C65.064 73.6485 65.1041 73.7454 65.1041 73.8465Z" fill="#2D2D2D"/>
<path d="M73.4378 64.9883C73.4378 65.0804 70.3135 65.1553 66.4611 65.1553C62.6087 65.1553 59.4844 65.0804 59.4844 64.9883C59.4844 64.8962 62.6087 64.8213 66.4611 64.8213C70.3135 64.8213 73.4378 64.8962 73.4378 64.9883Z" fill="#796CAF"/>
<path d="M79.6393 67.4624C79.6393 67.5545 75.1274 67.6295 69.5618 67.6295C63.9963 67.6295 59.4844 67.5545 59.4844 67.4624C59.4844 67.3704 63.9963 67.2954 69.5618 67.2954C75.1274 67.2954 79.6393 67.3704 79.6393 67.4624Z" fill="url(#paint23_linear_53236_25749)"/>
<path d="M124.496 71.8609L124.377 83.7329L139.225 83.8814L139.344 72.0094L124.496 71.8609Z" fill="#F5F5F5"/>
<path d="M124.485 72.3363L124.418 82.7134L138.223 82.8025L138.29 72.4255L124.485 72.3363Z" fill="#796CAF"/>
<path opacity="0.2" d="M124.418 82.7093L129.281 76.2915L132.243 80.3452L134.283 78.2016L138.224 82.7992L124.418 82.7093Z" fill="black"/>
<g opacity="0.2">
<path d="M133.543 75.5384C133.542 75.7536 133.477 75.9638 133.357 76.1422C133.237 76.3207 133.066 76.4594 132.867 76.5409C132.668 76.6224 132.449 76.643 132.238 76.6C132.027 76.557 131.833 76.4524 131.682 76.2995C131.531 76.1465 131.428 75.9521 131.387 75.7408C131.346 75.5294 131.369 75.3107 131.452 75.1123C131.536 74.9139 131.676 74.7447 131.856 74.6262C132.035 74.5076 132.246 74.445 132.461 74.4462C132.75 74.4479 133.025 74.5639 133.228 74.7686C133.431 74.9734 133.544 75.2502 133.543 75.5384Z" fill="black"/>
</g>
<path d="M121.805 70.3451L121.729 82.2168L136.577 82.3127L136.653 70.441L121.805 70.3451Z" fill="#F5F5F5"/>
<path d="M122.311 71.0956L122.244 81.4727L136.05 81.5618L136.117 71.1848L122.311 71.0956Z" fill="#796CAF"/>
<path opacity="0.2" d="M122.238 81.47L127.101 75.0522L130.063 79.1059L132.104 76.9624L136.044 81.56L122.238 81.47Z" fill="black"/>
<g opacity="0.2">
<path d="M131.363 74.2897C131.362 74.5053 131.297 74.7157 131.175 74.8941C131.054 75.0724 130.883 75.2108 130.683 75.2917C130.483 75.3725 130.264 75.3921 130.053 75.348C129.842 75.3039 129.649 75.1981 129.498 75.0439C129.347 74.8898 129.245 74.6944 129.206 74.4825C129.166 74.2705 129.191 74.0516 129.276 73.8535C129.361 73.6554 129.503 73.4871 129.684 73.37C129.865 73.2528 130.077 73.1921 130.292 73.1954C130.579 73.2 130.852 73.3174 131.053 73.5223C131.253 73.7273 131.365 74.003 131.363 74.2897Z" fill="black"/>
</g>
<path d="M119.866 69.3226L119.789 81.1943L134.637 81.2902L134.714 69.4185L119.866 69.3226Z" fill="#F5F5F5"/>
<path d="M120.372 70.0717L120.305 80.4487L134.11 80.5379L134.177 70.1608L120.372 70.0717Z" fill="#796CAF"/>
<path opacity="0.2" d="M120.305 80.4453L125.168 74.0254L128.129 78.0812L130.168 75.9355L134.11 80.5331L120.305 80.4453Z" fill="black"/>
<g opacity="0.2">
<path d="M129.426 73.2643C129.424 73.4799 129.359 73.6902 129.238 73.8686C129.117 74.047 128.945 74.1854 128.746 74.2662C128.546 74.347 128.326 74.3666 128.115 74.3225C127.904 74.2784 127.711 74.1726 127.56 74.0185C127.41 73.8644 127.308 73.669 127.268 73.457C127.229 73.2451 127.253 73.0261 127.338 72.8281C127.424 72.63 127.566 72.4617 127.747 72.3445C127.928 72.2274 128.139 72.1666 128.355 72.17C128.642 72.1745 128.915 72.292 129.115 72.4969C129.316 72.7018 129.427 72.9776 129.426 73.2643Z" fill="black"/>
</g>
<path d="M118.179 70.8663L118.061 82.7383L132.909 82.8868L133.028 71.0148L118.179 70.8663Z" fill="#F5F5F5"/>
<path d="M118.198 71.3476L118.131 81.7246L131.936 81.8138L132.003 71.4367L118.198 71.3476Z" fill="url(#paint24_linear_53236_25749)"/>
<path opacity="0.2" d="M118.125 81.7227L122.988 75.3027L125.95 79.3564L127.988 77.2129L131.931 81.8105L118.125 81.7227Z" fill="black"/>
<g opacity="0.2">
<path d="M127.258 74.5396C127.256 74.7552 127.191 74.9656 127.07 75.144C126.949 75.3224 126.778 75.4608 126.578 75.5416C126.378 75.6224 126.158 75.642 125.947 75.5979C125.736 75.5538 125.543 75.448 125.392 75.2939C125.242 75.1398 125.14 74.9443 125.1 74.7324C125.061 74.5204 125.085 74.3015 125.17 74.1035C125.256 73.9054 125.398 73.7371 125.579 73.6199C125.76 73.5027 125.971 73.442 126.187 73.4454C126.474 73.4488 126.748 73.5659 126.949 73.7711C127.149 73.9762 127.261 74.2526 127.258 74.5396Z" fill="black"/>
</g>
<path d="M141.105 75.0083H132.533V86.4713H141.105V75.0083Z" fill="#2D2D2D"/>
<path d="M116.121 75.0083V86.4691H133.252V75.0083H116.121ZM126.518 77.7193H122.877C122.668 77.7193 122.468 77.6363 122.32 77.4885C122.172 77.3407 122.089 77.1403 122.089 76.9313C122.089 76.7223 122.172 76.5218 122.32 76.3741C122.468 76.2263 122.668 76.1432 122.877 76.1432H126.518C126.727 76.1432 126.927 76.2263 127.075 76.3741C127.223 76.5218 127.306 76.7223 127.306 76.9313C127.306 77.1403 127.223 77.3407 127.075 77.4885C126.927 77.6363 126.727 77.7193 126.518 77.7193Z" fill="#796CAF"/>
<path d="M104.995 85.2739L89.0518 84.2974C88.9511 84.0683 88.8848 83.9355 88.8848 83.9355L84.5634 84.0233L83.1565 83.9355L83.1008 84.0511L68.5949 84.3402C65.7019 84.3402 62.6611 86.1047 62.6611 88.3596C62.6247 90.501 63.6654 92.8352 66.2565 92.7816L86.0195 92.7153L105.785 92.7816C108.376 92.8352 109.061 91.2827 109.065 89.4175C109.367 85.9655 107.204 85.3017 104.995 85.2739Z" fill="url(#paint25_linear_53236_25749)"/>
<path d="M68.0742 92.7829H68.1684H68.449L69.5197 92.7722L73.4984 92.7551L86.7751 92.738L86.7195 92.7958C86.6916 92.3675 86.6638 91.8985 86.6338 91.4317C86.5738 90.4766 86.516 89.5344 86.4603 88.6479L86.5096 88.6993L74.2822 87.3159L70.6589 86.9026L69.6824 86.7848L69.4297 86.7527C69.4015 86.7503 69.3735 86.7453 69.3462 86.7377H69.4319L69.6846 86.7613L70.6632 86.8577L74.2907 87.2388L86.5203 88.5622H86.5653V88.6072C86.6231 89.5023 86.6809 90.4424 86.7409 91.391C86.7708 91.8578 86.7987 92.3225 86.8265 92.7551V92.815H86.7687L73.492 92.7958L69.5132 92.7786H68.4425H68.162L68.0742 92.7829Z" fill="#2D2D2D"/>
<path d="M72.1464 87.1129C72.1336 87.1279 71.9323 86.9673 71.5875 86.7553C71.1335 86.479 70.6454 86.2631 70.1356 86.1129C69.6248 85.9673 69.0971 85.8895 68.566 85.8816C68.1591 85.8816 67.9064 85.9073 67.9043 85.8816C67.9604 85.8591 68.0196 85.8454 68.0799 85.8409C68.2408 85.816 68.4032 85.8017 68.566 85.7981C69.654 85.7663 70.725 86.0739 71.6303 86.6782C71.7666 86.768 71.8968 86.8668 72.0201 86.9737C72.1057 87.0615 72.1507 87.1022 72.1464 87.1129Z" fill="#2D2D2D"/>
<path d="M103.755 86.265C103.755 86.295 100.618 87.0552 96.7331 87.9631C92.8486 88.8711 89.69 89.582 89.6836 89.552C89.6772 89.5221 92.8208 88.7619 96.7074 87.8539C100.594 86.9459 103.748 86.2457 103.755 86.265Z" fill="#2D2D2D"/>
<path d="M101.099 85.957C100.668 86.1099 100.254 86.308 99.8653 86.548C99.4983 86.8195 99.1629 87.1313 98.8652 87.4774C98.9129 87.3481 98.9857 87.2294 99.0794 87.1283C99.4955 86.6063 100.061 86.2238 100.7 86.0319C100.828 85.9833 100.963 85.9579 101.099 85.957Z" fill="#2D2D2D"/>
<path d="M95.1631 67.8559L100.215 76.6485C100.522 77.183 100.692 77.7853 100.709 78.4014C100.727 79.0176 100.591 79.6286 100.315 80.1797C99.9968 80.8157 99.5034 81.3476 98.8931 81.7129C98.2827 82.0782 97.5808 82.2617 96.8698 82.2419L89.1136 82.0277L88.9102 79.2075L95.7391 77.8948L91.1351 69.9245L95.1631 67.8559Z" fill="#FFBE9D"/>
<path d="M76.3425 82.9014L83.4734 84.7901L83.6297 82.6487L77.0577 78.8328L81.8587 69.9245L77.8307 67.8559L72.7792 76.6485C72.4923 77.1812 72.3264 77.7707 72.2933 78.3748C72.2602 78.979 72.3607 79.583 72.5877 80.1439C72.8146 80.7048 73.1625 81.2087 73.6064 81.6198C74.0504 82.0309 74.5795 82.3391 75.1561 82.5224L76.3425 82.9014Z" fill="#FFBE9D"/>
<path d="M93.0181 73.5002L97.8919 70.9305C97.2922 69.7148 96.5939 68.5503 95.8041 67.4486C94.2944 65.3607 91.9495 63.9024 89.2942 63.3456L83.688 63.412C83.0032 63.4725 82.3302 63.6274 81.6879 63.8724V63.851C78.645 64.5213 75.2637 71.1575 75.2637 71.1575L79.7135 73.4938L79.812 74.1919C79.9424 75.1169 80.3449 75.9823 80.9684 76.678L79.6835 85.173L94.0609 85.4707L92.2343 79.3933L93.0181 73.5002Z" fill="#796CAF"/>
<path d="M81.0957 76.7247C81.0174 76.6802 80.9454 76.6255 80.8816 76.5619C80.6968 76.3994 80.5322 76.2154 80.3912 76.0137C79.9291 75.3348 79.7165 74.5168 79.7895 73.6989C79.8621 73.2619 79.9724 72.832 80.1192 72.414C80.2477 72.0264 80.3805 71.6838 80.494 71.3969C80.6075 71.1099 80.7081 70.8808 80.7766 70.7244C80.8079 70.6403 80.8497 70.5605 80.9009 70.4868C80.8812 70.5742 80.8532 70.6595 80.8173 70.7416C80.751 70.9236 80.6674 71.1527 80.5668 71.4247C80.4661 71.6967 80.3398 72.0671 80.2177 72.4461C80.0767 72.8605 79.9707 73.286 79.9008 73.7181C79.8651 74.1503 79.9064 74.5853 80.0229 75.003C80.115 75.3464 80.2594 75.6736 80.4512 75.973C80.6447 76.2411 80.8603 76.4925 81.0957 76.7247Z" fill="#2D2D2D"/>
<path d="M78.9368 87.2237L78.123 77.748H95.659L94.4962 87.3415L78.9368 87.2237Z" fill="#2D2D2D"/>
<path d="M88.011 82.8026C88.0114 83.0239 87.9462 83.2403 87.8235 83.4245C87.7009 83.6086 87.5263 83.7522 87.322 83.8371C87.1176 83.922 86.8927 83.9443 86.6757 83.9012C86.4586 83.8581 86.2592 83.7516 86.1028 83.5952C85.9463 83.4387 85.8398 83.2394 85.7968 83.0223C85.7537 82.8053 85.776 82.5804 85.8609 82.376C85.9458 82.1717 86.0894 81.9971 86.2735 81.8745C86.4577 81.7518 86.6741 81.6865 86.8953 81.687C87.1912 81.687 87.475 81.8045 87.6842 82.0137C87.8935 82.223 88.011 82.5067 88.011 82.8026Z" fill="#FAFAFA"/>
<path d="M86.584 89.0742L89.5627 89.4896V92.7274L86.8238 92.6567L86.584 89.0742Z" fill="#FFBE9D"/>
<path d="M89.5685 89.4902H90.9069C91.1671 89.4902 91.4227 89.5589 91.6479 89.6893L92.3524 90.1005C92.751 90.3214 93.1629 90.5174 93.5858 90.6872C94.3996 90.9485 95.7679 91.3018 96.057 91.5245C96.8793 92.1669 96.6288 92.91 96.1769 92.9871C95.7808 93.0578 89.5664 92.7301 89.5664 92.7301L89.5685 89.4902Z" fill="#796CAF"/>
<path d="M91.7591 92.4554C91.6553 92.1873 91.6065 91.9011 91.6156 91.6138C91.587 91.3249 91.6191 91.0331 91.7098 90.7573C91.7314 91.038 91.7371 91.3196 91.727 91.601C91.7545 91.8849 91.7652 92.1702 91.7591 92.4554Z" fill="#2D2D2D"/>
<path d="M92.399 92.4404C92.3291 91.9278 92.3334 91.4078 92.4119 90.8964C92.4637 91.1506 92.4802 91.4107 92.4611 91.6695C92.4764 91.9281 92.4555 92.1875 92.399 92.4404Z" fill="#2D2D2D"/>
<path d="M93.1468 92.5695C93.0315 92.0475 92.9897 91.512 93.0226 90.9785C93.0981 91.2352 93.1377 91.5011 93.1404 91.7686C93.1791 92.0341 93.1812 92.3035 93.1468 92.5695Z" fill="#2D2D2D"/>
<path d="M91.1813 91.5986C91.0857 91.5859 90.993 91.5569 90.9072 91.5129C90.6637 91.4108 90.4376 91.2714 90.237 91.0997C90.1749 91.0461 90.1106 90.9862 90.0464 90.9198C89.9741 90.8518 89.9159 90.7703 89.8751 90.6799C89.8518 90.6257 89.8431 90.5664 89.8499 90.5078C89.8566 90.4492 89.8786 90.3934 89.9136 90.3459C89.9548 90.2956 90.0139 90.2634 90.0785 90.2559C90.1398 90.2492 90.2019 90.2557 90.2605 90.2752C90.4937 90.3591 90.699 90.5064 90.8532 90.7004C91.0074 90.8944 91.1046 91.1276 91.1337 91.3737C91.1628 91.6199 91.1228 91.8693 91.0181 92.094C90.9134 92.3186 90.7482 92.5097 90.541 92.6458C90.4485 92.7122 90.3437 92.7595 90.2327 92.7849C90.1757 92.7987 90.1162 92.7987 90.0592 92.7849C90.0297 92.7752 90.0025 92.7596 89.9793 92.739C89.9561 92.7183 89.9374 92.6932 89.9243 92.665C89.9053 92.6143 89.8988 92.5598 89.9055 92.5061C89.9123 92.4524 89.9319 92.4011 89.9629 92.3567C90.0095 92.2775 90.0672 92.2054 90.1342 92.1425C90.3246 91.9589 90.5485 91.8135 90.7937 91.7142C90.8805 91.6723 90.974 91.6462 91.07 91.6371C91.07 91.6371 90.9757 91.6757 90.8109 91.7549C90.5793 91.8668 90.3692 92.0182 90.1898 92.2025C90.13 92.2589 90.0788 92.3239 90.0378 92.3952C90.0159 92.4278 90.0016 92.465 89.996 92.504C89.9905 92.5429 89.9938 92.5826 90.0057 92.62C90.0274 92.6552 90.0606 92.6816 90.0997 92.6949C90.1387 92.7082 90.1812 92.7075 90.2198 92.6929C90.3163 92.6682 90.4072 92.6253 90.4875 92.5665C90.6769 92.4399 90.8277 92.2635 90.9232 92.0567C91.0188 91.8498 91.0554 91.6207 91.0291 91.3944C91.0027 91.1681 90.9144 90.9534 90.7739 90.7741C90.6334 90.5948 90.4461 90.4577 90.2327 90.378C90.1939 90.3588 90.1502 90.3518 90.1074 90.358C90.0646 90.3641 90.0247 90.383 89.9928 90.4123C89.9683 90.4463 89.9531 90.486 89.9486 90.5277C89.9441 90.5694 89.9505 90.6115 89.9671 90.65C90.0488 90.802 90.1602 90.936 90.2948 91.044C90.5608 91.2723 90.8597 91.4592 91.1813 91.5986Z" fill="#2D2D2D"/>
<path d="M96.1729 92.9848C96.2407 92.9249 96.296 92.8521 96.3356 92.7707C96.3747 92.6592 96.3871 92.5401 96.3719 92.423C96.3566 92.3058 96.3141 92.1939 96.2478 92.0961C96.055 91.7969 95.762 91.576 95.4212 91.473C95.0422 91.3359 94.5925 91.2717 94.1364 91.1282C93.3569 90.8944 92.6127 90.5558 91.9243 90.1218C91.6631 89.9547 91.4596 89.8048 91.3226 89.6935C91.2479 89.6418 91.1796 89.5814 91.1191 89.5136C91.1999 89.554 91.2766 89.6021 91.3483 89.6571C91.4917 89.7534 91.6995 89.8926 91.9671 90.0511C92.6592 90.4614 93.3984 90.7864 94.1685 91.019C94.6161 91.1582 95.0636 91.2332 95.4533 91.3724C95.8122 91.4887 96.1166 91.7315 96.3099 92.0555C96.3776 92.164 96.418 92.2873 96.4277 92.4148C96.4374 92.5423 96.4161 92.6703 96.3656 92.7878C96.3318 92.8481 96.285 92.9 96.2285 92.9399C96.2028 92.9784 96.175 92.9891 96.1729 92.9848Z" fill="#2D2D2D"/>
<path d="M94.1469 65.6725C94.1496 65.6881 94.1496 65.704 94.1469 65.7196V65.8524C94.1362 65.9766 94.1191 66.15 94.0998 66.3706C94.0527 66.831 93.9863 67.4884 93.905 68.315V68.3642L93.86 68.3407L91.2603 66.9723L91.3224 66.9552L89.9177 69.3279L89.8877 69.3771L89.8406 69.3429L87.485 67.5291H87.5535L86.5235 68.3364L85.1188 69.4349L85.0674 69.4756L85.0374 69.4178L83.699 66.9445L83.7654 66.9659L80.9302 68.2293L80.8766 68.2529V68.1972L80.4484 65.6746L80.4912 65.7003L78.8594 66.3299L78.4312 66.4884L78.3198 66.5291L78.2812 66.5398C78.2812 66.5398 78.292 66.5398 78.3155 66.5205L78.4247 66.4734L78.853 66.2978L80.4655 65.6554L80.5019 65.6425V65.6811C80.6282 66.3834 80.7781 67.2293 80.9516 68.1994L80.8916 68.1672L83.7204 66.8824L83.7654 66.8631L83.7889 66.9038C84.2172 67.6876 84.6626 68.5141 85.1316 69.3771L85.0481 69.36L86.4529 68.2593L87.4829 67.452L87.5171 67.4263L87.5514 67.452L89.907 69.2701L89.8299 69.285L91.2453 66.9295L91.2667 66.8931L91.3053 66.9124L93.875 68.2957L93.8257 68.3214L94.0527 66.3813C94.0806 66.1672 94.102 65.9894 94.117 65.8652C94.117 65.8117 94.1319 65.7689 94.1362 65.7325C94.1382 65.7122 94.1418 65.6922 94.1469 65.6725Z" fill="#F5F5F5"/>
<path d="M96.2304 68.0581C96.2292 68.0791 96.2257 68.1 96.2197 68.1202C96.2069 68.1673 96.1919 68.2272 96.1747 68.3022C96.1298 68.4671 96.0698 68.7026 95.9906 69.0024C95.8257 69.6192 95.5859 70.5014 95.2903 71.6085L95.2775 71.6514L95.239 71.6321L92.2174 70.1845L92.2774 70.1674C91.5043 71.268 90.6478 72.4908 89.7334 73.797L89.6948 73.8506L89.6499 73.8035L87.213 71.3237L86.699 70.8034H86.7675L83.4741 72.8698L83.4269 72.8998L83.3991 72.8527L81.6217 69.7134L81.6774 69.7348L78.2897 70.9019L78.2576 70.9126L78.2469 70.8804C77.9257 69.9511 77.6708 69.2123 77.4952 68.7005C77.4117 68.4521 77.3453 68.2572 77.3004 68.1202C77.279 68.0581 77.264 68.0088 77.2511 67.9703C77.2441 67.9539 77.2398 67.9366 77.2383 67.9189C77.2477 67.9342 77.2549 67.9508 77.2597 67.9681L77.3175 68.1137C77.3668 68.2508 77.4374 68.4414 77.5317 68.6876C77.7137 69.1973 77.9792 69.9318 78.3133 70.859L78.2704 70.8376L81.6453 69.6534L81.6817 69.6406L81.701 69.6748L83.489 72.8056L83.4141 72.7863L86.7076 70.7156L86.744 70.692L86.7761 70.7241C86.946 70.8983 87.1173 71.0717 87.29 71.2445L89.7334 73.7264H89.6499L92.2067 70.1053L92.2281 70.0731L92.2645 70.0903L95.2754 71.5593L95.2261 71.5828L95.9585 68.9853L96.1598 68.2893C96.1833 68.2165 96.2004 68.1566 96.2154 68.1116C96.2183 68.0932 96.2233 68.0753 96.2304 68.0581Z" fill="#F5F5F5"/>
<path d="M94.0649 53.1194C93.6353 53.1644 93.2011 53.1205 92.7892 52.9904C92.3774 52.8604 91.9967 52.647 91.6708 52.3635C92.4503 52.7575 93.4889 52.2157 93.7651 51.387C94.0414 50.5583 93.8144 49.0143 93.1334 48.4661C92.8064 48.2059 92.4235 48.0248 92.0149 47.9372C91.6062 47.8495 91.1829 47.8576 90.7778 47.9607C89.9748 48.1749 89.1247 49.3976 88.8613 50.1857L88.8763 50.2092C88.7542 50.16 88.6279 50.115 88.5037 50.0722C87.6151 49.7581 86.6684 49.6433 85.7305 49.736C84.7901 49.8334 83.904 50.2236 83.1973 50.8516L88.6429 59.6036C89.6322 59.5179 90.508 58.8498 91.0262 58.0039C91.5445 57.1581 91.7436 56.1495 91.7929 55.158C91.8057 54.9075 91.8036 54.6569 91.7929 54.4064L93.5424 54.6869C93.2285 54.2655 92.8331 53.9116 92.3796 53.6462C92.6796 53.7536 93.0064 53.7603 93.3106 53.6653C93.6147 53.5702 93.8795 53.3786 94.0649 53.1194Z" fill="#2D2D2D"/>
<path d="M87.1833 66.7028C87.8941 66.6879 88.5712 66.3971 89.0715 65.892C89.5719 65.3869 89.8561 64.707 89.8643 63.9961L89.9907 53.107C89.9971 52.8896 89.9205 52.6779 89.7766 52.5149C89.6326 52.3518 89.432 52.2496 89.2155 52.2291L84.6157 51.0663C83.1403 50.9121 82.1638 52.7237 82.0696 54.2013C81.9668 55.8438 81.9047 57.8524 82.0996 59.0794C82.4915 61.542 84.3802 61.8633 84.3802 61.8633C84.3802 61.8633 84.3802 62.8162 84.3802 63.9833C84.3818 64.3468 84.4558 64.7063 84.5978 65.0409C84.7398 65.3756 84.947 65.6786 85.2073 65.9323C85.4676 66.186 85.7758 66.3854 86.114 66.5188C86.4521 66.6522 86.8134 66.7169 87.1769 66.7093L87.1833 66.7028Z" fill="#FFBE9D"/>
<path d="M83.0274 55.7974C83.0267 55.88 83.0584 55.9596 83.1156 56.0192C83.1728 56.0788 83.251 56.1137 83.3336 56.1165C83.3738 56.1197 83.4142 56.1148 83.4524 56.1021C83.4907 56.0895 83.5261 56.0693 83.5564 56.0427C83.5867 56.0162 83.6114 55.9838 83.6291 55.9476C83.6467 55.9113 83.6569 55.8719 83.6591 55.8317C83.6602 55.7493 83.629 55.6697 83.5722 55.61C83.5153 55.5504 83.4374 55.5154 83.355 55.5126C83.3147 55.5094 83.2742 55.5143 83.2358 55.5269C83.1974 55.5396 83.1619 55.5597 83.1314 55.5862C83.1009 55.6128 83.076 55.6451 83.0581 55.6814C83.0402 55.7176 83.0298 55.7571 83.0274 55.7974Z" fill="#2D2D2D"/>
<path d="M82.5 55.2459C82.5385 55.2887 82.7784 55.111 83.1189 55.111C83.4594 55.111 83.7078 55.2823 83.7442 55.2416C83.7806 55.201 83.7227 55.1474 83.6135 55.0682C83.4659 54.9675 83.2912 54.9137 83.1124 54.914C82.9353 54.9135 82.7627 54.9698 82.6199 55.0746C82.5236 55.1538 82.5 55.2288 82.5 55.2459Z" fill="#2D2D2D"/>
<path d="M86.2617 55.7976C86.2606 55.8804 86.2921 55.9602 86.3494 56.02C86.4067 56.0797 86.4852 56.1144 86.568 56.1167C86.6083 56.1199 86.6488 56.115 86.6872 56.1024C86.7256 56.0897 86.7611 56.0696 86.7916 56.043C86.8221 56.0165 86.847 55.9842 86.8649 55.9479C86.8827 55.9117 86.8932 55.8722 86.8956 55.8319C86.8962 55.7493 86.8645 55.6697 86.8073 55.6101C86.7501 55.5505 86.6719 55.5156 86.5894 55.5128C86.549 55.5093 86.5084 55.5139 86.4699 55.5265C86.4313 55.539 86.3957 55.5591 86.3652 55.5857C86.3346 55.6123 86.3097 55.6447 86.2919 55.6811C86.2742 55.7175 86.2639 55.7571 86.2617 55.7976Z" fill="#2D2D2D"/>
<path d="M85.8508 55.3104C85.8894 55.3511 86.1292 55.1755 86.4697 55.1755C86.8102 55.1755 87.0586 55.3468 87.095 55.304C87.1314 55.2612 87.0736 55.2119 86.9643 55.1327C86.8172 55.0309 86.6422 54.9771 86.4633 54.9785C86.2864 54.9774 86.1138 55.0329 85.9707 55.1369C85.8658 55.2183 85.8315 55.2911 85.8508 55.3104Z" fill="#2D2D2D"/>
<path d="M84.6152 57.8337C84.4358 57.7776 84.2503 57.7438 84.0627 57.7331C83.977 57.7331 83.8956 57.7074 83.8807 57.6474C83.8725 57.5578 83.8927 57.4679 83.9385 57.3905L84.1954 56.7288C84.5509 55.7887 84.81 55.0156 84.7715 55.0006C84.7329 54.9857 84.4139 55.7373 84.0562 56.6795L83.81 57.3433C83.7566 57.4484 83.7407 57.5685 83.765 57.6838C83.7772 57.715 83.7966 57.7428 83.8215 57.7651C83.8464 57.7874 83.8762 57.8036 83.9085 57.8123C83.9567 57.8253 84.0064 57.8318 84.0562 57.8316C84.2417 57.856 84.4295 57.8567 84.6152 57.8337Z" fill="#2D2D2D"/>
<path d="M84.3809 61.8571C85.5411 61.8748 86.6835 61.5702 87.6808 60.977C87.6808 60.977 86.8799 62.6687 84.413 62.4374L84.3809 61.8571Z" fill="#EB996E"/>
<path d="M84.7602 58.6517C84.8249 58.5706 84.9091 58.5071 85.005 58.4674C85.1009 58.4277 85.2053 58.413 85.3084 58.4248C85.3838 58.4324 85.4569 58.4554 85.5231 58.4922C85.5894 58.529 85.6475 58.5789 85.6939 58.6389C85.7395 58.6953 85.7667 58.7645 85.7716 58.8369C85.7766 58.9093 85.7592 58.9815 85.7217 59.0436C85.667 59.1045 85.5955 59.1478 85.5162 59.168C85.4369 59.1882 85.3534 59.1844 85.2763 59.1571C85.1184 59.0987 84.973 59.0108 84.848 58.898C84.8096 58.8711 84.7768 58.8369 84.7516 58.7974C84.7391 58.7787 84.7324 58.7567 84.7324 58.7342C84.7324 58.7117 84.7391 58.6897 84.7516 58.671" fill="#EB996E"/>
<path d="M85.6168 58.0663C85.5611 58.0663 85.5611 58.4325 85.2442 58.6959C84.9273 58.9593 84.5354 58.9101 84.5332 58.9679C84.5311 59.0257 84.621 59.0407 84.7859 59.045C85.0033 59.0452 85.2139 58.9695 85.3812 58.8308C85.5417 58.6992 85.6446 58.5102 85.6682 58.304C85.6832 58.1563 85.6403 58.0663 85.6168 58.0663Z" fill="#2D2D2D"/>
<path d="M85.6952 54.715C85.7295 54.8071 86.0679 54.7643 86.4683 54.8114C86.8687 54.8585 87.1899 54.9677 87.2413 54.8863C87.2649 54.8456 87.2092 54.76 87.0807 54.6722C86.9068 54.5625 86.7102 54.4937 86.5058 54.4711C86.3014 54.4484 86.0945 54.4725 85.9008 54.5416C85.7552 54.5994 85.6803 54.6722 85.6952 54.715Z" fill="#2D2D2D"/>
<path d="M82.5553 54.6195C82.6153 54.6966 82.8487 54.6195 83.1314 54.6195C83.4141 54.6195 83.6517 54.673 83.7053 54.5917C83.731 54.551 83.6924 54.4739 83.5875 54.4011C83.4489 54.3112 83.2857 54.267 83.1207 54.2747C82.9547 54.2777 82.7938 54.3324 82.6603 54.431C82.5618 54.5039 82.5297 54.5831 82.5553 54.6195Z" fill="#2D2D2D"/>
<path d="M89.7197 56.169C89.8195 56.1152 89.9321 56.0898 90.0454 56.0954C90.1586 56.1011 90.2681 56.1377 90.3621 56.2012C90.5897 56.334 90.7645 56.5414 90.8568 56.7883C90.9491 57.0352 90.9533 57.3063 90.8686 57.5559C90.784 57.8056 90.6158 58.0183 90.3923 58.1581C90.1689 58.2979 89.9041 58.3563 89.6426 58.3233" fill="#FFBE9D"/>
<path d="M89.891 57.5892C89.891 57.5721 89.9853 57.6085 90.1052 57.5549C90.1795 57.513 90.2396 57.4498 90.2777 57.3735C90.3159 57.2972 90.3303 57.2112 90.3193 57.1266C90.3191 57.0423 90.294 56.96 90.2471 56.8899C90.2002 56.8198 90.1337 56.7651 90.0559 56.7326C89.9317 56.6812 89.8418 56.7069 89.8418 56.6877C89.8418 56.6684 89.9253 56.6106 90.0881 56.647C90.1822 56.6694 90.2665 56.7221 90.3279 56.7969C90.4024 56.8887 90.4452 57.0021 90.45 57.1202C90.463 57.228 90.4398 57.337 90.3839 57.4301C90.3281 57.5231 90.2428 57.595 90.1416 57.6342C89.9681 57.6834 89.8782 57.5978 89.891 57.5892Z" fill="#EB996E"/>
<path d="M90.5632 58.0883C90.5632 58.0883 90.6061 58.1118 90.6767 58.1675L90.9787 58.4073L92.0494 59.311L92.0858 59.341L92.0558 59.3774C91.6596 59.8528 91.2185 60.4481 90.7238 61.0691C90.6103 61.2104 90.499 61.3475 90.3898 61.476L90.2977 61.583V61.4417C90.2549 60.4395 90.2185 59.5508 90.1992 58.9127C90.1992 58.6108 90.1863 58.3581 90.1821 58.1632C90.1737 58.072 90.1737 57.9803 90.1821 57.8891C90.2035 57.9782 90.215 58.0694 90.2163 58.1611C90.2292 58.3559 90.2463 58.6065 90.2677 58.9106C90.3063 59.553 90.3534 60.4331 90.4026 61.4374L90.3063 61.4031L90.636 61.0006C91.1307 60.3796 91.5761 59.7885 91.983 59.3153V59.3817L90.9444 58.448L90.6575 58.1932C90.6223 58.1618 90.5907 58.1266 90.5632 58.0883Z" fill="url(#paint26_linear_53236_25749)"/>
<path d="M85.5823 49.9892C84.9784 49.9946 84.3765 50.0606 83.7857 50.1862C83.1916 50.3134 82.6502 50.6181 82.2332 51.0599C82.0279 51.2825 81.8812 51.5528 81.8065 51.8462C81.7317 52.1397 81.7312 52.4472 81.8049 52.7409C81.889 53.0316 82.0703 53.2847 82.3186 53.4578C82.5669 53.6308 82.8671 53.7134 83.169 53.6917C83.623 53.6317 84.0577 53.2955 84.4967 53.4283C84.9356 53.5611 85.1391 54.06 85.5674 54.1392C85.9956 54.2185 86.3618 53.8394 86.7858 53.8009C87.2569 53.7602 87.6638 54.1457 87.8737 54.5697C88.0835 54.9937 88.1627 55.4691 88.3726 55.8909C88.4307 56.0314 88.518 56.1579 88.6288 56.262C88.7395 56.3662 88.8712 56.4455 89.015 56.4948C89.151 56.5227 89.2916 56.5179 89.4253 56.4806C89.559 56.4434 89.6819 56.3748 89.7838 56.2807C89.9849 56.0886 90.1388 55.8526 90.2335 55.5911C90.456 55.0441 90.549 54.453 90.5051 53.8641C90.4612 53.2752 90.2818 52.7044 89.9807 52.1964C89.6796 51.6883 89.2651 51.2568 88.7695 50.9356C88.274 50.6144 87.7108 50.4121 87.1242 50.3447" fill="#2D2D2D"/>
<path d="M91.5831 52.6058C91.5638 52.6058 91.506 52.4067 91.3561 52.1047C90.9537 51.3175 90.274 50.7072 89.4481 50.3916C89.1333 50.2717 88.9256 50.2353 88.9278 50.216C88.9299 50.1968 88.9834 50.216 89.0777 50.216C89.2129 50.2346 89.3462 50.2654 89.476 50.3081C89.9059 50.45 90.3013 50.6806 90.6366 50.9848C90.9738 51.2876 91.2431 51.6583 91.4268 52.0726C91.4833 52.1966 91.5278 52.3256 91.5595 52.4581C91.5756 52.5057 91.5836 52.5556 91.5831 52.6058Z" fill="#796CAF"/>
<path d="M93.4725 48.9986C93.2802 48.9208 93.0818 48.8592 92.8793 48.8145C92.387 48.7308 91.8808 48.8058 91.4338 49.0286C90.9905 49.2602 90.6083 49.5933 90.3182 50.0008C90.089 50.3113 89.982 50.5276 89.9648 50.519C89.9751 50.4623 89.9954 50.4079 90.0248 50.3584C90.0903 50.2188 90.1662 50.0842 90.2518 49.9558C90.534 49.5214 90.9244 49.1679 91.3846 48.9301C91.8474 48.6961 92.3763 48.6274 92.8836 48.7352C93.037 48.768 93.1849 48.8228 93.3226 48.898C93.4232 48.9536 93.4768 48.9858 93.4725 48.9986Z" fill="url(#paint27_linear_53236_25749)"/>
<path d="M91.1045 51.8906C91.1319 52.0586 91.1319 52.23 91.1045 52.3981C91.0614 52.806 90.9574 53.2052 90.7961 53.5823C90.6357 53.9589 90.4191 54.3091 90.1537 54.6209C90.0504 54.7558 89.9252 54.8723 89.7832 54.9656C90.1509 54.5328 90.4598 54.0532 90.7019 53.5394C90.9065 53.0094 91.0418 52.4552 91.1045 51.8906Z" fill="url(#paint28_linear_53236_25749)"/>
<path d="M91.1713 51.9448C91.1996 51.9879 91.2199 52.0358 91.2312 52.0861C91.2757 52.2178 91.308 52.3532 91.3276 52.4908C91.3971 52.9486 91.3746 53.4157 91.2614 53.8646C91.1481 54.3136 90.9464 54.7355 90.668 55.1055C90.5847 55.2171 90.4916 55.321 90.3897 55.416C90.3168 55.4845 90.2762 55.5188 90.2697 55.5123C90.2633 55.5059 90.4089 55.3453 90.6038 55.0584C90.8558 54.686 91.042 54.2732 91.1541 53.8378C91.2617 53.401 91.2943 52.9492 91.2505 52.5015C91.2141 52.1589 91.152 51.949 91.1713 51.9448Z" fill="url(#paint29_linear_53236_25749)"/>
<path d="M97.6548 52.5055C97.4188 52.5798 97.2184 52.7382 97.0917 52.9507C96.9649 53.1631 96.9207 53.4147 96.9673 53.6577C97.014 53.9006 97.1483 54.1179 97.3447 54.2683C97.5411 54.4187 97.786 54.4916 98.0327 54.4733C98.2794 54.4549 98.5107 54.3465 98.6827 54.1687C98.8547 53.9909 98.9554 53.7561 98.9656 53.509C98.9758 53.2618 98.8947 53.0195 98.738 52.8282C98.5812 52.6368 98.3595 52.5098 98.1152 52.4712" fill="#EBEBEB"/>
<path d="M100.55 48.2969C100.279 48.3818 100.049 48.5635 99.9028 48.8073C99.7568 49.051 99.7056 49.34 99.7587 49.6191C99.8119 49.8982 99.9658 50.1481 100.191 50.3211C100.417 50.4942 100.698 50.5784 100.981 50.5578C101.264 50.5371 101.53 50.413 101.728 50.2091C101.926 50.0052 102.042 49.7357 102.054 49.4518C102.066 49.1679 101.974 48.8895 101.794 48.6694C101.614 48.4494 101.36 48.3031 101.079 48.2583" fill="#EBEBEB"/>
<path d="M106.727 29.7522C104.8 29.5894 102.832 30.022 101.502 31.4396C100.841 32.1567 100.349 33.0119 100.06 33.943C99.7709 34.8742 99.6929 35.858 99.8316 36.8231C97.7715 37.6796 96.6494 40.3007 97.4482 42.3907C98.2469 44.4808 100.838 45.6671 102.941 44.924C103.416 46.1287 104.198 47.1887 105.208 47.9994C106.218 48.8101 107.422 49.3435 108.701 49.5471C109.98 49.7508 111.29 49.6175 112.502 49.1606C113.714 48.7036 114.785 47.9387 115.612 46.9412C117.631 47.3973 119.894 47.3695 121.608 46.1789C123.321 44.9883 124.074 42.38 122.781 40.7611C125.109 40.1937 126.291 37.2878 125.601 34.9922C124.912 32.6966 122.843 31.052 120.637 30.1205C119.179 29.5038 117.359 29.1825 116.115 30.1612C115.614 29.3912 114.937 28.7521 114.139 28.297C113.342 27.8419 112.447 27.584 111.529 27.5448C110.612 27.5056 109.698 27.6863 108.865 28.0717C108.031 28.4572 107.302 29.0363 106.738 29.7607" fill="#F5F5F5"/>
<path d="M106.732 29.7518C106.732 29.7518 106.771 29.7004 106.85 29.6019C106.968 29.4576 107.093 29.3196 107.225 29.1886C107.742 28.6802 108.349 28.2728 109.015 27.9873C109.498 27.7782 110.006 27.6342 110.527 27.559C111.15 27.4723 111.784 27.4918 112.401 27.6168C113.114 27.7605 113.795 28.0349 114.409 28.4263C115.102 28.8685 115.694 29.4523 116.146 30.1394H116.09C116.619 29.7408 117.261 29.5204 117.923 29.5098C118.625 29.4971 119.324 29.6087 119.988 29.8396C120.692 30.0784 121.37 30.3891 122.011 30.7669C122.692 31.1595 123.321 31.635 123.885 32.1823C124.482 32.7557 124.972 33.4298 125.335 34.1738C125.515 34.562 125.652 34.9683 125.746 35.3859C125.831 35.8143 125.861 36.2519 125.834 36.6878C125.78 37.5882 125.491 38.4587 124.996 39.2126C124.738 39.595 124.417 39.9303 124.046 40.204C123.667 40.4833 123.239 40.6883 122.784 40.8079L122.812 40.7244C123.093 41.0831 123.29 41.5002 123.388 41.945C123.485 42.3971 123.497 42.8634 123.422 43.3198C123.264 44.2573 122.815 45.1212 122.138 45.7888C121.426 46.452 120.544 46.9029 119.589 47.0908C118.623 47.2882 117.63 47.3179 116.653 47.1786C116.296 47.1336 115.943 47.063 115.596 46.9902L115.651 46.9709C115.02 47.7389 114.241 48.3729 113.361 48.8354C112.481 49.298 111.517 49.5797 110.526 49.6641C109.535 49.7485 108.538 49.6339 107.592 49.3269C106.646 49.0199 105.772 48.5269 105.019 47.8767C104.082 47.0846 103.351 46.0762 102.891 44.9387L102.955 44.9665C102.363 45.1571 101.737 45.2222 101.119 45.1576C100.5 45.0931 99.9017 44.9004 99.3616 44.5918C98.848 44.3145 98.3976 43.9336 98.039 43.4732C97.6803 43.0128 97.4212 42.483 97.278 41.9172C97.0364 40.8527 97.1886 39.7367 97.7063 38.7757C98.1643 37.8889 98.9126 37.1859 99.8263 36.7842L99.8049 36.8249C99.6824 35.9764 99.7276 35.1121 99.9376 34.2809C100.206 33.2056 100.744 32.2165 101.501 31.4071C101.72 31.178 101.961 30.9694 102.218 30.784C102.668 30.4604 103.166 30.2096 103.694 30.0409C104.678 29.7383 105.713 29.6385 106.737 29.7475C106.737 29.7475 106.668 29.7475 106.535 29.7475C106.403 29.7475 106.206 29.7326 105.944 29.7326C105.183 29.7329 104.427 29.8521 103.702 30.0859C103.179 30.2562 102.687 30.5077 102.242 30.8311C101.988 31.0151 101.751 31.2223 101.535 31.45C101.305 31.6993 101.094 31.9664 100.906 32.2487C100.489 32.8771 100.182 33.5714 99.9976 34.3023C99.7937 35.1251 99.7516 35.9796 99.8734 36.8185V36.8463L99.8456 36.8592C98.951 37.257 98.219 37.9482 97.7705 38.8185C97.2607 39.7604 97.1086 40.8548 97.3422 41.9C97.4884 42.4544 97.7487 42.9721 98.1063 43.4201C98.464 43.8681 98.9112 44.2365 99.4194 44.5018C99.9479 44.8029 100.533 44.9907 101.138 45.0534C101.743 45.116 102.355 45.0522 102.933 44.8659L102.978 44.8509L102.998 44.8959C103.467 46.0395 104.208 47.0509 105.158 47.8416C106.108 48.6322 107.238 49.1781 108.448 49.4314C109.754 49.6739 111.101 49.5671 112.353 49.1219C113.605 48.6767 114.717 47.9088 115.576 46.8959L115.598 46.8702H115.63C115.975 46.943 116.324 47.0137 116.679 47.0565C117.642 47.1935 118.621 47.1645 119.574 46.9709C120.509 46.7887 121.374 46.348 122.071 45.6989C122.73 45.0479 123.167 44.2056 123.32 43.2919C123.401 42.8556 123.391 42.4071 123.291 41.9748C123.19 41.5424 123.001 41.1356 122.735 40.7801L122.684 40.7158L122.765 40.6944C123.206 40.5772 123.621 40.379 123.99 40.1098C124.347 39.8381 124.655 39.508 124.902 39.1333C125.388 38.3953 125.672 37.5423 125.724 36.66C125.753 36.2299 125.725 35.7979 125.641 35.3752C125.55 34.9656 125.415 34.5671 125.238 34.1867C124.883 33.4519 124.4 32.7857 123.812 32.2187C123.255 31.676 122.632 31.2048 121.958 30.8161C121.324 30.4396 120.653 30.1296 119.956 29.891C119.302 29.6628 118.613 29.5511 117.921 29.5612C117.275 29.5692 116.648 29.7821 116.131 30.1694L116.099 30.1951L116.075 30.1608C115.224 28.8725 113.898 27.9739 112.386 27.6618C111.776 27.5354 111.149 27.513 110.531 27.5954C109.294 27.771 108.142 28.3288 107.238 29.1908C107.064 29.3621 106.936 29.4991 106.857 29.5955C106.777 29.6919 106.732 29.7518 106.732 29.7518Z" fill="#2D2D2D"/>
<path d="M119.976 36.4268C119.976 36.5189 116.177 36.5938 111.494 36.5938C106.81 36.5938 103.014 36.5189 103.014 36.4268C103.014 36.3347 106.81 36.2598 111.494 36.2598C116.177 36.2598 119.976 36.3347 119.976 36.4268Z" fill="url(#paint30_linear_53236_25749)"/>
<path d="M119.976 38.2776C119.976 38.3696 116.177 38.4446 111.494 38.4446C106.81 38.4446 103.014 38.3696 103.014 38.2776C103.014 38.1855 106.81 38.1084 111.494 38.1084C116.177 38.1084 119.976 38.1748 119.976 38.2776Z" fill="url(#paint31_linear_53236_25749)"/>
<path d="M119.976 40.1079C119.976 40.2 116.177 40.275 111.494 40.275C106.81 40.275 103.014 40.2 103.014 40.1079C103.014 40.0159 106.81 39.9409 111.494 39.9409C116.177 39.9409 119.976 40.0159 119.976 40.1079Z" fill="url(#paint32_linear_53236_25749)"/>
<path d="M119.976 41.9478C119.976 42.0399 116.177 42.1148 111.494 42.1148C106.81 42.1148 103.014 42.0399 103.014 41.9478C103.014 41.8557 106.81 41.7808 111.494 41.7808C116.177 41.7808 119.976 41.8557 119.976 41.9478Z" fill="url(#paint33_linear_53236_25749)"/>
<defs>
<linearGradient id="paint0_linear_53236_25749" x1="91.8019" y1="13.4075" x2="91.7974" y2="13.8767" gradientUnits="userSpaceOnUse">
<stop stop-color="#DFF2FF"/>
<stop offset="0.295134" stop-color="#73A7D0"/>
<stop offset="0.57639" stop-color="#A491EF"/>
<stop offset="1" stop-color="#302E6D"/>
</linearGradient>
<linearGradient id="paint1_linear_53236_25749" x1="76.3384" y1="16.4968" x2="76.3293" y2="16.9659" gradientUnits="userSpaceOnUse">
<stop stop-color="#DFF2FF"/>
<stop offset="0.295134" stop-color="#73A7D0"/>
<stop offset="0.57639" stop-color="#A491EF"/>
<stop offset="1" stop-color="#302E6D"/>
</linearGradient>
<linearGradient id="paint2_linear_53236_25749" x1="84.9385" y1="16.2083" x2="84.9045" y2="16.675" gradientUnits="userSpaceOnUse">
<stop stop-color="#DFF2FF"/>
<stop offset="0.295134" stop-color="#73A7D0"/>
<stop offset="0.57639" stop-color="#A491EF"/>
<stop offset="1" stop-color="#302E6D"/>
</linearGradient>
<linearGradient id="paint3_linear_53236_25749" x1="95.925" y1="16.0178" x2="95.9078" y2="16.4864" gradientUnits="userSpaceOnUse">
<stop stop-color="#DFF2FF"/>
<stop offset="0.295134" stop-color="#73A7D0"/>
<stop offset="0.57639" stop-color="#A491EF"/>
<stop offset="1" stop-color="#302E6D"/>
</linearGradient>
<linearGradient id="paint4_linear_53236_25749" x1="74.9949" y1="19.4457" x2="74.9852" y2="19.9177" gradientUnits="userSpaceOnUse">
<stop stop-color="#DFF2FF"/>
<stop offset="0.295134" stop-color="#73A7D0"/>
<stop offset="0.57639" stop-color="#A491EF"/>
<stop offset="1" stop-color="#302E6D"/>
</linearGradient>
<linearGradient id="paint5_linear_53236_25749" x1="94.8622" y1="19.3621" x2="94.8534" y2="19.8311" gradientUnits="userSpaceOnUse">
<stop stop-color="#DFF2FF"/>
<stop offset="0.295134" stop-color="#73A7D0"/>
<stop offset="0.57639" stop-color="#A491EF"/>
<stop offset="1" stop-color="#302E6D"/>
</linearGradient>
<linearGradient id="paint6_linear_53236_25749" x1="96.0683" y1="22.3329" x2="96.0483" y2="22.8042" gradientUnits="userSpaceOnUse">
<stop stop-color="#DFF2FF"/>
<stop offset="0.295134" stop-color="#73A7D0"/>
<stop offset="0.57639" stop-color="#A491EF"/>
<stop offset="1" stop-color="#302E6D"/>
</linearGradient>
<linearGradient id="paint7_linear_53236_25749" x1="97.6683" y1="30.2917" x2="65.8507" y2="83.1371" gradientUnits="userSpaceOnUse">
<stop stop-color="#DFF2FF"/>
<stop offset="0.295134" stop-color="#73A7D0"/>
<stop offset="0.57639" stop-color="#A491EF"/>
<stop offset="1" stop-color="#302E6D"/>
</linearGradient>
<linearGradient id="paint8_linear_53236_25749" x1="73.2966" y1="81.7791" x2="72.9876" y2="84.6727" gradientUnits="userSpaceOnUse">
<stop stop-color="#DFF2FF"/>
<stop offset="0.295134" stop-color="#73A7D0"/>
<stop offset="0.57639" stop-color="#A491EF"/>
<stop offset="1" stop-color="#302E6D"/>
</linearGradient>
<linearGradient id="paint9_linear_53236_25749" x1="99.6352" y1="81.6794" x2="99.635" y2="81.8358" gradientUnits="userSpaceOnUse">
<stop stop-color="#DFF2FF"/>
<stop offset="0.295134" stop-color="#73A7D0"/>
<stop offset="0.57639" stop-color="#A491EF"/>
<stop offset="1" stop-color="#302E6D"/>
</linearGradient>
<linearGradient id="paint10_linear_53236_25749" x1="65.9134" y1="31.3007" x2="65.8915" y2="31.7718" gradientUnits="userSpaceOnUse">
<stop stop-color="#DFF2FF"/>
<stop offset="0.295134" stop-color="#73A7D0"/>
<stop offset="0.57639" stop-color="#A491EF"/>
<stop offset="1" stop-color="#302E6D"/>
</linearGradient>
<linearGradient id="paint11_linear_53236_25749" x1="55.8603" y1="40.5628" x2="55.8488" y2="41.0317" gradientUnits="userSpaceOnUse">
<stop stop-color="#DFF2FF"/>
<stop offset="0.295134" stop-color="#73A7D0"/>
<stop offset="0.57639" stop-color="#A491EF"/>
<stop offset="1" stop-color="#302E6D"/>
</linearGradient>
<linearGradient id="paint12_linear_53236_25749" x1="55.8603" y1="43.0354" x2="55.8488" y2="43.5043" gradientUnits="userSpaceOnUse">
<stop stop-color="#DFF2FF"/>
<stop offset="0.295134" stop-color="#73A7D0"/>
<stop offset="0.57639" stop-color="#A491EF"/>
<stop offset="1" stop-color="#302E6D"/>
</linearGradient>
<linearGradient id="paint13_linear_53236_25749" x1="65.9134" y1="36.3396" x2="65.8918" y2="36.8078" gradientUnits="userSpaceOnUse">
<stop stop-color="#DFF2FF"/>
<stop offset="0.295134" stop-color="#73A7D0"/>
<stop offset="0.57639" stop-color="#A491EF"/>
<stop offset="1" stop-color="#302E6D"/>
</linearGradient>
<linearGradient id="paint14_linear_53236_25749" x1="78.9468" y1="40.5628" x2="78.9144" y2="41.0297" gradientUnits="userSpaceOnUse">
<stop stop-color="#DFF2FF"/>
<stop offset="0.295134" stop-color="#73A7D0"/>
<stop offset="0.57639" stop-color="#A491EF"/>
<stop offset="1" stop-color="#302E6D"/>
</linearGradient>
<linearGradient id="paint15_linear_53236_25749" x1="79.3311" y1="31.3007" x2="79.3183" y2="31.7725" gradientUnits="userSpaceOnUse">
<stop stop-color="#DFF2FF"/>
<stop offset="0.295134" stop-color="#73A7D0"/>
<stop offset="0.57639" stop-color="#A491EF"/>
<stop offset="1" stop-color="#302E6D"/>
</linearGradient>
<linearGradient id="paint16_linear_53236_25749" x1="77.7789" y1="33.7146" x2="77.7713" y2="34.1837" gradientUnits="userSpaceOnUse">
<stop stop-color="#DFF2FF"/>
<stop offset="0.295134" stop-color="#73A7D0"/>
<stop offset="0.57639" stop-color="#A491EF"/>
<stop offset="1" stop-color="#302E6D"/>
</linearGradient>
<linearGradient id="paint17_linear_53236_25749" x1="77.1172" y1="43.0354" x2="77.1093" y2="43.5045" gradientUnits="userSpaceOnUse">
<stop stop-color="#DFF2FF"/>
<stop offset="0.295134" stop-color="#73A7D0"/>
<stop offset="0.57639" stop-color="#A491EF"/>
<stop offset="1" stop-color="#302E6D"/>
</linearGradient>
<linearGradient id="paint18_linear_53236_25749" x1="77.2699" y1="52.6008" x2="77.2615" y2="53.0699" gradientUnits="userSpaceOnUse">
<stop stop-color="#DFF2FF"/>
<stop offset="0.295134" stop-color="#73A7D0"/>
<stop offset="0.57639" stop-color="#A491EF"/>
<stop offset="1" stop-color="#302E6D"/>
</linearGradient>
<linearGradient id="paint19_linear_53236_25749" x1="77.2699" y1="55.0076" x2="77.2615" y2="55.4766" gradientUnits="userSpaceOnUse">
<stop stop-color="#DFF2FF"/>
<stop offset="0.295134" stop-color="#73A7D0"/>
<stop offset="0.57639" stop-color="#A491EF"/>
<stop offset="1" stop-color="#302E6D"/>
</linearGradient>
<linearGradient id="paint20_linear_53236_25749" x1="77.2699" y1="57.4158" x2="77.2615" y2="57.8848" gradientUnits="userSpaceOnUse">
<stop stop-color="#DFF2FF"/>
<stop offset="0.295134" stop-color="#73A7D0"/>
<stop offset="0.57639" stop-color="#A491EF"/>
<stop offset="1" stop-color="#302E6D"/>
</linearGradient>
<linearGradient id="paint21_linear_53236_25749" x1="70.206" y1="59.8225" x2="70.1914" y2="60.2913" gradientUnits="userSpaceOnUse">
<stop stop-color="#DFF2FF"/>
<stop offset="0.295134" stop-color="#73A7D0"/>
<stop offset="0.57639" stop-color="#A491EF"/>
<stop offset="1" stop-color="#302E6D"/>
</linearGradient>
<linearGradient id="paint22_linear_53236_25749" x1="74.159" y1="45.637" x2="74.1492" y2="46.106" gradientUnits="userSpaceOnUse">
<stop stop-color="#DFF2FF"/>
<stop offset="0.295134" stop-color="#73A7D0"/>
<stop offset="0.57639" stop-color="#A491EF"/>
<stop offset="1" stop-color="#302E6D"/>
</linearGradient>
<linearGradient id="paint23_linear_53236_25749" x1="77.2223" y1="67.3108" x2="77.2144" y2="67.7799" gradientUnits="userSpaceOnUse">
<stop stop-color="#DFF2FF"/>
<stop offset="0.295134" stop-color="#73A7D0"/>
<stop offset="0.57639" stop-color="#A491EF"/>
<stop offset="1" stop-color="#302E6D"/>
</linearGradient>
<linearGradient id="paint24_linear_53236_25749" x1="118.826" y1="72.5961" x2="125.615" y2="81.9082" gradientUnits="userSpaceOnUse">
<stop stop-color="#DFF2FF"/>
<stop offset="0.295134" stop-color="#73A7D0"/>
<stop offset="0.57639" stop-color="#A491EF"/>
<stop offset="1" stop-color="#302E6D"/>
</linearGradient>
<linearGradient id="paint25_linear_53236_25749" x1="103.525" y1="84.3432" x2="101.204" y2="96.3202" gradientUnits="userSpaceOnUse">
<stop stop-color="#DFF2FF"/>
<stop offset="0.295134" stop-color="#73A7D0"/>
<stop offset="0.57639" stop-color="#A491EF"/>
<stop offset="1" stop-color="#302E6D"/>
</linearGradient>
<linearGradient id="paint26_linear_53236_25749" x1="91.8567" y1="58.0593" x2="89.7609" y2="59.1246" gradientUnits="userSpaceOnUse">
<stop stop-color="#DFF2FF"/>
<stop offset="0.295134" stop-color="#73A7D0"/>
<stop offset="0.57639" stop-color="#A491EF"/>
<stop offset="1" stop-color="#302E6D"/>
</linearGradient>
<linearGradient id="paint27_linear_53236_25749" x1="93.052" y1="48.77" x2="91.9843" y2="50.7779" gradientUnits="userSpaceOnUse">
<stop stop-color="#DFF2FF"/>
<stop offset="0.295134" stop-color="#73A7D0"/>
<stop offset="0.57639" stop-color="#A491EF"/>
<stop offset="1" stop-color="#302E6D"/>
</linearGradient>
<linearGradient id="paint28_linear_53236_25749" x1="90.9642" y1="52.0323" x2="89.3993" y2="52.7036" gradientUnits="userSpaceOnUse">
<stop stop-color="#DFF2FF"/>
<stop offset="0.295134" stop-color="#73A7D0"/>
<stop offset="0.57639" stop-color="#A491EF"/>
<stop offset="1" stop-color="#302E6D"/>
</linearGradient>
<linearGradient id="paint29_linear_53236_25749" x1="91.2355" y1="52.1092" x2="89.8469" y2="52.5291" gradientUnits="userSpaceOnUse">
<stop stop-color="#DFF2FF"/>
<stop offset="0.295134" stop-color="#73A7D0"/>
<stop offset="0.57639" stop-color="#A491EF"/>
<stop offset="1" stop-color="#302E6D"/>
</linearGradient>
<linearGradient id="paint30_linear_53236_25749" x1="117.942" y1="36.2752" x2="117.932" y2="36.7442" gradientUnits="userSpaceOnUse">
<stop stop-color="#DFF2FF"/>
<stop offset="0.295134" stop-color="#73A7D0"/>
<stop offset="0.57639" stop-color="#A491EF"/>
<stop offset="1" stop-color="#302E6D"/>
</linearGradient>
<linearGradient id="paint31_linear_53236_25749" x1="117.942" y1="38.1239" x2="117.932" y2="38.5959" gradientUnits="userSpaceOnUse">
<stop stop-color="#DFF2FF"/>
<stop offset="0.295134" stop-color="#73A7D0"/>
<stop offset="0.57639" stop-color="#A491EF"/>
<stop offset="1" stop-color="#302E6D"/>
</linearGradient>
<linearGradient id="paint32_linear_53236_25749" x1="117.942" y1="39.9563" x2="117.932" y2="40.4253" gradientUnits="userSpaceOnUse">
<stop stop-color="#DFF2FF"/>
<stop offset="0.295134" stop-color="#73A7D0"/>
<stop offset="0.57639" stop-color="#A491EF"/>
<stop offset="1" stop-color="#302E6D"/>
</linearGradient>
<linearGradient id="paint33_linear_53236_25749" x1="117.942" y1="41.7962" x2="117.932" y2="42.2652" gradientUnits="userSpaceOnUse">
<stop stop-color="#DFF2FF"/>
<stop offset="0.295134" stop-color="#73A7D0"/>
<stop offset="0.57639" stop-color="#A491EF"/>
<stop offset="1" stop-color="#302E6D"/>
</linearGradient>
</defs>
</svg>
