<svg xmlns="http://www.w3.org/2000/svg" width="90" height="90" viewBox="0 0 90 90">
  <g id="Group_56889" data-name="Group 56889" transform="translate(-364 -1081)">
    <rect id="Rectangle_27305" data-name="Rectangle 27305" width="90" height="90" rx="12" transform="translate(364 1081)" fill="#fafafa"/>
    <g id="Page-1" transform="translate(386.107 1103.108)">
      <g id="_019---House-Maintanence" data-name="019---House-Maintanence" transform="translate(0 0)">
        <path id="Path" d="M37.008,5.081V13.33l-.077.086L31,8.025V5.081A1.088,1.088,0,0,1,32.081,4h3.845a1.088,1.088,0,0,1,1.081,1.081Z" transform="translate(-4.392 -0.567)" fill="#3bbf7b" fill-rule="evenodd"/>
        <path id="Path-2" data-name="Path" d="M31.668,31.742l-5.081,5.133H7.172A2.169,2.169,0,0,1,5,34.7V18.688L19.162,5.83,33.436,18.8Z" transform="translate(-0.708 -0.826)" fill="#ecf0f1" fill-rule="evenodd"/>
        <path id="Path-3" data-name="Path" d="M36.907,16.385a10.161,10.161,0,0,0-4.18,2.232L18.454,5.648,4.291,18.505l-1.047.953a1.058,1.058,0,0,1-1.536-.1L.266,17.647a1.17,1.17,0,0,1,.1-1.6L17.733.283a1.059,1.059,0,0,1,1.442,0L26.608,7.03l5.931,5.39Z" transform="translate(0 0)" fill="#7ed8aa" fill-rule="evenodd"/>
        <path id="Path-4" data-name="Path" d="M25.441,29.717v10.3H16v-10.3A1.722,1.722,0,0,1,17.717,28h6.008A1.722,1.722,0,0,1,25.441,29.717Z" transform="translate(-2.267 -3.967)" fill="#cb8252" fill-rule="evenodd"/>
        <path id="Path-5" data-name="Path" d="M50.362,35.695a10.261,10.261,0,0,1-10.978,3.038L28.715,51.067a3.948,3.948,0,0,1-6.935-2.584,3.9,3.9,0,0,1,.961-2.584l6.223-7.2L33.4,33.566a10.277,10.277,0,0,1,1.425-11.313,9.74,9.74,0,0,1,.987-.987A10.207,10.207,0,0,1,43.5,18.743a.8.8,0,0,1,.549,1.313l-5.038,5.819,1,6.085,6.171.112,5.038-5.819a.8.8,0,0,1,1.373.352,10.253,10.253,0,0,1-2.232,9.09Z" transform="translate(-3.086 -2.65)" fill="#d6dce0" fill-rule="evenodd"/>
        <path id="Path-6" data-name="Path" d="M26.631,53.416A.858.858,0,0,1,25.98,52l1.575-1.838a.858.858,0,0,1,1.3,1.116l-1.575,1.838a.858.858,0,0,1-.652.3Z" transform="translate(-3.651 -7.067)" fill="#7f8c8d" fill-rule="evenodd"/>
      </g>
    </g>
  </g>
</svg>
