<svg xmlns="http://www.w3.org/2000/svg" width="90" height="90" viewBox="0 0 90 90">
  <g id="Group_56888" data-name="Group 56888" transform="translate(-364 -1081)">
    <rect id="Rectangle_27305" data-name="Rectangle 27305" width="90" height="90" rx="12" transform="translate(364 1081)" fill="#fafafa"/>
    <g id="building" transform="translate(382.218 1078.258)">
      <g id="Group_56892" data-name="Group 56892" transform="translate(11.008 26.43)">
        <path id="Path_116942" data-name="Path 116942" d="M112.814,53.093a.808.808,0,0,0-.808-.808h-5.991l-.044,0-.037,0-.041.006-.038.007-.039.01-.038.011-.037.014-.037.014-.035.017-.036.018-.032.02-.035.023-.029.022-.035.028-.011.009-.016.015-.031.03-.026.029-.025.03-.024.033-.021.031-.021.035-.018.034-.017.035-.016.038-.013.034c0,.013-.009.027-.013.041s-.006.023-.009.034-.006.028-.009.042,0,.025-.006.037,0,.027,0,.04,0,.028,0,.042,0,.015,0,.023,0,.01,0,.015,0,.029,0,.043,0,.025,0,.037,0,.027.006.041,0,.026.007.038.006.025.01.038.007.026.011.038.009.024.013.036.009.025.015.037.011.023.017.035.012.024.019.036l.019.032.023.036.022.029.028.035.009.011L110.205,59h-4.19l-.045,0-.036,0-.042.006-.037.007-.039.01-.038.011-.037.013-.037.015-.034.016-.037.019-.031.019-.037.024-.027.02-.037.03-.01.008-.014.014-.033.032-.025.027-.026.032-.024.032-.022.032-.021.034-.018.034-.017.035-.016.038c0,.012-.009.023-.013.035s-.009.027-.012.04l-.009.035c0,.014-.006.027-.008.041s0,.025-.006.038,0,.026,0,.039,0,.029,0,.043,0,.015,0,.022,0,.01,0,.014,0,.029,0,.044,0,.024,0,.037,0,.027.006.041,0,.026.007.038.006.025.01.037.007.026.011.039.008.024.013.035.01.026.015.039.01.022.016.033.013.026.02.038l.018.03.025.038.02.026.03.037.008.01,4.78,5.373h-4.19l-.045,0-.036,0-.042.006-.037.007-.039.01-.038.011-.037.013-.037.015-.034.016-.037.019-.031.019-.037.024-.027.02-.037.03-.01.008-.014.014-.033.033-.024.027-.027.032-.023.031-.022.033-.02.033-.019.036-.016.033c-.006.013-.011.026-.016.039l-.012.033q-.007.021-.013.042c0,.011-.006.022-.009.033s-.006.028-.009.043,0,.024-.006.037,0,.027,0,.041,0,.028,0,.041,0,.015,0,.023,0,.01,0,.015,0,.028,0,.043,0,.025,0,.038,0,.026.006.04,0,.026.007.039.006.024.009.036.007.027.011.04.008.023.013.034.01.026.015.039l.016.033c.006.013.013.026.02.038l.018.03.025.038.02.026.03.037.008.01,5.977,6.719a.808.808,0,0,0,1.208-1.074l-4.78-5.374h4.176c.026,0,.051,0,.077,0l.027,0,.048-.007.032-.007.042-.011.033-.011.039-.014.032-.014.037-.018.031-.017.034-.021.031-.021.03-.022.032-.026.011-.009.014-.014.033-.032.025-.027.026-.032.024-.032.022-.032.021-.034.018-.034.017-.035c.006-.012.011-.025.016-.038l.013-.035c0-.013.009-.027.012-.04l.009-.035c0-.014.006-.027.008-.041s0-.025.006-.038,0-.026,0-.039,0-.029,0-.043,0-.015,0-.022,0-.01,0-.014,0-.029,0-.044,0-.024,0-.037,0-.027-.006-.041,0-.026-.007-.038-.006-.025-.01-.037-.007-.026-.011-.039-.008-.023-.013-.035-.01-.026-.015-.039-.01-.022-.016-.033-.013-.026-.02-.038l-.018-.03-.025-.038-.02-.026-.03-.037-.008-.01-4.78-5.373h4.176c.026,0,.051,0,.077,0l.027,0,.049-.007.032-.007.042-.011.032-.01.04-.015.031-.013.038-.018.03-.016.035-.021.03-.02.032-.024.029-.024.012-.01.016-.015.031-.03.026-.029.025-.03.024-.033.021-.031.021-.035.018-.034.017-.035c.006-.012.011-.025.016-.038l.013-.034c0-.013.009-.027.013-.041s.006-.023.009-.034.006-.028.009-.042,0-.025.006-.037,0-.027,0-.04,0-.028,0-.042,0-.015,0-.023,0-.01,0-.015,0-.029,0-.043,0-.025,0-.037,0-.027-.006-.041,0-.026-.007-.038-.006-.025-.01-.038-.007-.026-.011-.038-.009-.024-.013-.036-.009-.025-.015-.037l-.017-.035c-.006-.012-.012-.024-.019-.036l-.019-.032-.023-.036-.022-.029-.028-.035-.009-.011L107.83,53.9h4.176a.808.808,0,0,0,.808-.809Z" transform="translate(-105.221 -52.285)" fill="#5c6c75"/>
        <path id="Path_116943" data-name="Path 116943" d="M340.986,60.623c.026,0,.052,0,.077,0l.027,0,.049-.007.032-.007.042-.011.032-.01.04-.015.031-.013.038-.018.03-.016.035-.021.03-.02.032-.024.029-.024.012-.01.016-.015.031-.03.026-.029.025-.03.025-.033.021-.031.021-.035.018-.034.017-.035c.006-.012.011-.025.016-.038l.013-.034c0-.013.009-.027.013-.041s.006-.023.009-.034.006-.028.009-.042,0-.025.006-.037,0-.027,0-.04,0-.028,0-.042,0-.015,0-.023,0-.01,0-.015,0-.029,0-.043,0-.025,0-.037,0-.027-.006-.041,0-.026-.007-.038-.006-.025-.01-.038-.007-.026-.011-.038-.009-.024-.013-.036-.009-.025-.015-.037l-.017-.035c-.006-.012-.012-.024-.019-.036l-.019-.032-.023-.036-.022-.029-.028-.035-.009-.011L336.81,53.9h4.176a.808.808,0,1,0,0-1.617h-5.991l-.044,0-.037,0-.041.006-.037.007-.039.01-.037.011-.038.014-.036.014-.036.017-.035.018-.033.02-.035.022-.029.022-.035.028-.011.009-.016.015-.031.03-.026.029-.025.03-.024.033-.021.031-.021.035-.018.034-.017.035-.016.038-.013.034c0,.013-.009.027-.013.041s-.006.023-.009.034-.006.028-.009.042,0,.025-.006.037,0,.027,0,.04,0,.028,0,.042,0,.015,0,.023,0,.01,0,.015,0,.029,0,.043,0,.025,0,.037,0,.027.006.041,0,.026.007.038.006.025.01.038.007.026.011.038.009.024.013.036.009.025.015.037.011.023.017.035.012.024.019.036l.019.032.023.036.022.029.028.035.009.011,4.78,5.374H335l-.045,0-.035,0-.042.006-.036.007-.04.01-.037.01-.038.014-.036.014-.035.017-.036.019-.031.019-.037.024-.027.02-.037.03-.01.008-.014.014-.033.032-.025.027-.026.032-.024.032-.022.032-.021.034-.018.034-.017.035-.016.038-.013.035c0,.013-.009.027-.012.04l-.009.035c0,.014-.006.027-.008.041s0,.025-.006.038,0,.026,0,.039,0,.029,0,.043,0,.015,0,.022,0,.01,0,.014,0,.029,0,.044,0,.024,0,.037,0,.027.006.041,0,.026.007.038.006.025.01.037.007.026.011.039.008.024.013.035.01.026.015.039.01.022.016.033.013.026.02.038l.018.03.025.038.02.026.03.037.008.01,4.78,5.373H335l-.045,0-.035,0-.042.006-.036.007-.04.01-.037.01-.038.014-.036.014-.035.017-.036.019-.031.019-.037.024-.027.02-.037.03-.01.008-.014.014-.033.033L334.4,66l-.027.032-.023.031-.022.033-.02.033-.019.036-.016.033c-.006.013-.011.026-.016.039l-.012.033q-.007.021-.013.042l-.009.033c0,.014-.006.028-.009.043s0,.024-.005.037,0,.027,0,.041,0,.028,0,.041,0,.015,0,.023,0,.01,0,.015,0,.028,0,.043,0,.025,0,.038,0,.026.006.04,0,.026.007.039.006.024.009.036.007.027.011.04.008.023.013.034.01.026.016.039l.016.033c.006.013.013.026.02.038l.018.03.025.038.02.026.03.037.008.01,5.977,6.719a.808.808,0,1,0,1.208-1.074l-4.78-5.374h4.176c.026,0,.051,0,.077,0l.027,0,.048-.007.032-.007.042-.011.033-.011.039-.014.032-.014.037-.018.031-.017.034-.021.031-.021.03-.022.032-.026.011-.009.014-.014.033-.032.025-.027.026-.032.024-.032.022-.032.021-.034.018-.034.017-.035c.006-.012.011-.025.016-.038l.013-.035c0-.013.009-.027.012-.04l.009-.035c0-.014.006-.027.008-.041s0-.025.006-.038,0-.026,0-.039,0-.029,0-.043,0-.015,0-.022,0-.01,0-.014,0-.029,0-.044,0-.024,0-.037,0-.027-.006-.041,0-.026-.007-.038-.006-.025-.01-.037-.007-.026-.011-.039-.008-.023-.013-.035-.01-.026-.015-.039-.01-.022-.016-.033-.013-.026-.02-.038l-.018-.03-.025-.038-.02-.026-.03-.037L341.59,66l-4.78-5.373h4.176Z" transform="translate(-310.246 -52.287)" fill="#5c6c75"/>
      </g>
      <g id="Group_56893" data-name="Group 56893" transform="translate(11.007 23.409)">
        <path id="Path_116944" data-name="Path 116944" d="M106.027,48.2a.808.808,0,0,1-.808-.808V24.217a.808.808,0,0,1,1.617,0V47.4A.808.808,0,0,1,106.027,48.2Z" transform="translate(-105.219 -23.409)" fill="#7d8c97"/>
        <path id="Path_116945" data-name="Path 116945" d="M163.157,48.2a.808.808,0,0,1-.808-.808V24.217a.808.808,0,0,1,1.617,0V47.4A.808.808,0,0,1,163.157,48.2Z" transform="translate(-156.372 -23.409)" fill="#7d8c97"/>
        <path id="Path_116946" data-name="Path 116946" d="M335.007,48.2a.808.808,0,0,1-.808-.808V24.217a.808.808,0,1,1,1.616,0V47.4A.808.808,0,0,1,335.007,48.2Z" transform="translate(-310.244 -23.409)" fill="#7d8c97"/>
        <path id="Path_116947" data-name="Path 116947" d="M392.137,48.2a.808.808,0,0,1-.808-.808V24.217a.808.808,0,1,1,1.616,0V47.4A.808.808,0,0,1,392.137,48.2Z" transform="translate(-361.398 -23.409)" fill="#7d8c97"/>
      </g>
      <path id="Path_116948" data-name="Path 116948" d="M.539,303.073H53.024a.539.539,0,0,1,.539.539v18.33a.539.539,0,0,1-.539.539H.539A.539.539,0,0,1,0,321.942v-18.33a.539.539,0,0,1,.539-.539Z" transform="translate(0 -250.407)" fill="#7ed8aa"/>
      <path id="Path_116949" data-name="Path 116949" d="M53.024,459.141H.539A.539.539,0,0,1,0,458.6v2.6a.539.539,0,0,0,.539.539H53.024a.539.539,0,0,0,.539-.539v-2.6A.539.539,0,0,1,53.024,459.141Z" transform="translate(0 -389.665)" fill="#3bbf7b"/>
      <path id="Path_116950" data-name="Path 116950" d="M481.022,303.073H478a.539.539,0,0,1,.539.539v18.33a.539.539,0,0,1-.539.539h3.018a.539.539,0,0,0,.539-.539v-18.33A.539.539,0,0,0,481.022,303.073Z" transform="translate(-427.998 -250.407)" fill="#3bbf7b"/>
      <g id="Group_56894" data-name="Group 56894" transform="translate(6.56 66.025)">
        <path id="Path_116951" data-name="Path 116951" d="M64.4,433.281a.806.806,0,0,1-.572-.237l-.891-.891a.808.808,0,0,1,1.143-1.143l.891.891a.808.808,0,0,1-.572,1.38Z" transform="translate(-62.702 -430.773)" fill="#3bbf7b"/>
        <path id="Path_116952" data-name="Path 116952" d="M136.927,433.281a.806.806,0,0,1-.572-.237l-.891-.891a.808.808,0,0,1,1.143-1.143l.891.891a.808.808,0,0,1-.572,1.38Z" transform="translate(-127.64 -430.773)" fill="#3bbf7b"/>
        <path id="Path_116953" data-name="Path 116953" d="M209.452,433.281a.806.806,0,0,1-.572-.237l-.891-.891a.808.808,0,1,1,1.143-1.143l.891.891a.808.808,0,0,1-.572,1.38Z" transform="translate(-192.578 -430.773)" fill="#3bbf7b"/>
        <path id="Path_116954" data-name="Path 116954" d="M281.977,433.281a.806.806,0,0,1-.572-.237l-.891-.891a.808.808,0,1,1,1.143-1.143l.891.891a.808.808,0,0,1-.572,1.38Z" transform="translate(-257.516 -430.773)" fill="#3bbf7b"/>
        <path id="Path_116955" data-name="Path 116955" d="M354.5,433.281a.806.806,0,0,1-.572-.237l-.891-.891a.808.808,0,0,1,1.143-1.143l.891.891a.808.808,0,0,1-.572,1.38Z" transform="translate(-322.453 -430.773)" fill="#3bbf7b"/>
        <path id="Path_116956" data-name="Path 116956" d="M427.027,433.281a.806.806,0,0,1-.572-.237l-.891-.891a.808.808,0,0,1,1.143-1.143l.891.891a.808.808,0,0,1-.572,1.38Z" transform="translate(-387.391 -430.773)" fill="#3bbf7b"/>
      </g>
      <path id="Path_116957" data-name="Path 116957" d="M104.048,252.912v10.325h7.838V252.912a.215.215,0,0,0-.216-.216h-7.407A.216.216,0,0,0,104.048,252.912Z" transform="translate(-93.163 -205.3)" fill="#7d8c97"/>
      <path id="Path_116958" data-name="Path 116958" d="M111.671,252.7h-1.933a.216.216,0,0,1,.216.215v8.175h-5.905v2.15h7.838V252.911A.216.216,0,0,0,111.671,252.7Z" transform="translate(-93.163 -205.3)" fill="#5c6c75"/>
      <path id="Path_116959" data-name="Path 116959" d="M78.669,357.566V353.88a.431.431,0,0,1,.431-.431H91.386a.431.431,0,0,1,.431.431v3.686a.431.431,0,0,1-.431.431H79.1a.431.431,0,0,1-.431-.431Z" transform="translate(-70.439 -295.513)" fill="#7d8c97"/>
      <path id="Path_116960" data-name="Path 116960" d="M183.686,353.449h-1.933a.431.431,0,0,1,.431.431v3.686a.431.431,0,0,1-.431.431h1.933a.431.431,0,0,0,.431-.431V353.88A.431.431,0,0,0,183.686,353.449Z" transform="translate(-162.739 -295.513)" fill="#5c6c75"/>
      <path id="Path_116961" data-name="Path 116961" d="M333.028,252.912v10.325h7.838V252.912a.215.215,0,0,0-.215-.216h-7.407A.216.216,0,0,0,333.028,252.912Z" transform="translate(-298.188 -205.3)" fill="#7d8c97"/>
      <path id="Path_116962" data-name="Path 116962" d="M340.65,252.7h-1.933a.216.216,0,0,1,.216.215v8.175h-5.905v2.15h7.838V252.911A.215.215,0,0,0,340.65,252.7Z" transform="translate(-298.187 -205.3)" fill="#5c6c75"/>
      <path id="Path_116963" data-name="Path 116963" d="M307.649,357.566V353.88a.431.431,0,0,1,.431-.431h12.286a.431.431,0,0,1,.431.431v3.686a.431.431,0,0,1-.431.431H308.08A.431.431,0,0,1,307.649,357.566Z" transform="translate(-275.464 -295.513)" fill="#7d8c97"/>
      <path id="Path_116964" data-name="Path 116964" d="M412.666,353.449h-1.933a.431.431,0,0,1,.431.431v3.686a.431.431,0,0,1-.431.431h1.933a.431.431,0,0,0,.431-.431V353.88A.431.431,0,0,0,412.666,353.449Z" transform="translate(-367.764 -295.513)" fill="#5c6c75"/>
    </g>
  </g>
</svg>
