<svg width="38" height="36" viewBox="0 0 38 36" fill="none" xmlns="http://www.w3.org/2000/svg">
<path d="M5.56485 16.2385C-1.85534 20.4924 -1.85456 27.3759 5.56485 31.6298C12.9843 35.8837 25.015 35.8798 32.4352 31.6298C39.8553 27.3798 39.8546 20.4924 32.4352 16.2385C25.0157 11.9846 12.985 11.9884 5.56485 16.2385Z" fill="#FAFAFA"/>
<path d="M24.6929 29.9867L8.11719 20.4928L13.2407 17.5584L29.8164 27.0523L24.6929 29.9867Z" fill="#E0E0E0"/>
<path d="M8.87645 26.311C10.0045 26.9646 10.0045 28.0242 8.87645 28.677C7.74837 29.3297 5.91944 29.3305 4.79137 28.677C3.66329 28.0234 3.66329 26.9646 4.79137 26.311C5.91944 25.6575 7.74837 25.6575 8.87645 26.311Z" fill="#E0E0E0"/>
<path d="M10.6094 9.46027V12.4875L14.7186 10.1324L14.7202 7.10516L10.6094 9.46027Z" fill="#73A7D0"/>
<path d="M10.6094 12.4878L15.3072 15.1786L19.4196 12.8242L14.7186 10.1327L10.6094 12.4878Z" fill="#73A7D0"/>
<path opacity="0.3" d="M10.6094 12.4878L15.3072 15.1786L19.4196 12.8242L14.7186 10.1327L10.6094 12.4878Z" fill="white"/>
<path d="M19.421 12.8241L19.4194 15.8513L15.3086 18.2064V15.1784L19.421 12.8241Z" fill="#73A7D0"/>
<path d="M15.3086 18.2062L20.0064 20.897L24.118 18.5426L19.4194 15.8511L15.3086 18.2062Z" fill="#73A7D0"/>
<path opacity="0.3" d="M15.3086 18.2062L20.0064 20.897L24.118 18.5426L19.4194 15.8511L15.3086 18.2062Z" fill="white"/>
<path d="M24.1174 18.5425V21.5697L20.0059 23.924V20.8968L24.1174 18.5425Z" fill="#73A7D0"/>
<path d="M20.0059 23.9243L24.7045 26.6159L28.8153 24.2616L24.1174 21.57L20.0059 23.9243Z" fill="#73A7D0"/>
<path opacity="0.3" d="M20.0059 23.9243L24.7045 26.6159L28.8153 24.2616L24.1174 21.57L20.0059 23.9243Z" fill="white"/>
<path d="M28.8139 24.2616V27.2888L24.7031 29.6431V26.6159L28.8139 24.2616Z" fill="#73A7D0"/>
<path d="M10.6078 9.45986L6.20313 6.93692L4.73438 7.77764L5.32219 4.07753L11.7819 3.74109L10.3139 4.58181L14.7186 7.10475L10.6078 9.45986Z" fill="#73A7D0"/>
<path opacity="0.3" d="M10.6078 9.45986L6.20313 6.93692L4.73438 7.77764L5.32219 4.07753L11.7819 3.74109L10.3139 4.58181L14.7186 7.10475L10.6078 9.45986Z" fill="white"/>
<path d="M20.0035 23.9241V20.8969L15.3057 18.2061V15.1781L10.6078 12.4874V9.46014L6.20313 6.93719L4.73438 7.77792V8.4508L6.20313 7.61008L10.02 9.79581V12.8238L14.7186 15.5154V18.5426L19.4165 21.2334V24.2606L24.1151 26.9521V29.3065L24.7021 29.6429V26.6157L20.0035 23.9241Z" fill="#73A7D0"/>
<path opacity="0.3" d="M20.0035 23.9241V20.8969L15.3057 18.2061V15.1781L10.6078 12.4874V9.46014L6.20313 6.93719L4.73438 7.77792V8.4508L6.20313 7.61008L10.02 9.79581V12.8238L14.7186 15.5154V18.5426L19.4165 21.2334V24.2606L24.1151 26.9521V29.3065L24.7021 29.6429V26.6157L20.0035 23.9241Z" fill="black"/>
<path d="M11.7805 3.74109V4.41398L10.8995 4.91826L10.3125 4.58181L11.7805 3.74109Z" fill="#73A7D0"/>
<path opacity="0.3" d="M11.7805 3.74109V4.41398L10.8995 4.91826L10.3125 4.58181L11.7805 3.74109Z" fill="black"/>
<path d="M13.0759 11.8913H13.0814C13.1555 11.8767 13.2311 11.871 13.3067 11.8743C13.3127 11.8745 13.3186 11.8724 13.3232 11.8683C13.3277 11.8643 13.3304 11.8586 13.3308 11.8526C13.3308 11.8465 13.3285 11.8407 13.3243 11.8362C13.3201 11.8317 13.3143 11.829 13.3082 11.8287C13.2298 11.8255 13.1513 11.8314 13.0743 11.8464C13.0684 11.8477 13.0632 11.8513 13.0598 11.8564C13.0565 11.8614 13.0552 11.8676 13.0564 11.8735C13.0575 11.8781 13.0599 11.8822 13.0634 11.8854C13.0668 11.8886 13.0712 11.8906 13.0759 11.8913ZM12.6222 12.2734C12.622 12.2182 12.6385 12.1643 12.6697 12.1187C12.672 12.1136 12.6724 12.1079 12.6708 12.1025C12.6692 12.0972 12.6657 12.0926 12.661 12.0896C12.6563 12.0866 12.6506 12.0854 12.6451 12.0862C12.6395 12.087 12.6344 12.0897 12.6307 12.0939C12.595 12.1468 12.576 12.209 12.5762 12.2726C12.5764 12.3041 12.5803 12.3356 12.5879 12.3662C12.5893 12.371 12.5923 12.3753 12.5964 12.3783C12.6004 12.3814 12.6054 12.3831 12.6105 12.3832H12.6136C12.6196 12.3817 12.6247 12.378 12.6279 12.3728C12.6311 12.3676 12.6322 12.3613 12.6307 12.3554C12.6246 12.3285 12.6217 12.301 12.6222 12.2734ZM13.1266 12.9076C13.0938 12.8883 13.0626 12.8689 13.0346 12.8496C12.9985 12.8256 12.9636 12.7997 12.9301 12.7722C12.9259 12.768 12.9201 12.7657 12.9141 12.7657C12.9081 12.7657 12.9024 12.768 12.8981 12.7722C12.8959 12.7743 12.8942 12.7769 12.893 12.7796C12.8918 12.7824 12.8911 12.7854 12.8911 12.7885C12.8911 12.7915 12.8918 12.7945 12.893 12.7973C12.8942 12.8001 12.8959 12.8026 12.8981 12.8047C12.9324 12.834 12.9683 12.8614 13.0057 12.8867C13.0354 12.9068 13.0673 12.9269 13.1008 12.947C13.1047 12.9477 13.1087 12.9477 13.1125 12.947C13.1166 12.9469 13.1206 12.9458 13.1241 12.9437C13.1277 12.9417 13.1306 12.9389 13.1328 12.9354C13.1352 12.9308 13.1359 12.9255 13.1347 12.9204C13.1336 12.9153 13.1307 12.9108 13.1266 12.9076ZM13.4205 13.0623C13.348 13.0282 13.2809 12.995 13.2225 12.9641C13.2198 12.9627 13.2169 12.9618 13.2139 12.9616C13.2109 12.9613 13.2079 12.9617 13.205 12.9626C13.2022 12.9635 13.1995 12.9649 13.1972 12.9668C13.1949 12.9687 13.193 12.9711 13.1917 12.9737C13.1903 12.9764 13.1894 12.9792 13.1892 12.9822C13.1889 12.9852 13.1893 12.9882 13.1902 12.991C13.1911 12.9938 13.1925 12.9965 13.1945 12.9987C13.1964 13.001 13.1987 13.0029 13.2014 13.0043C13.2599 13.036 13.3277 13.0692 13.401 13.1033C13.4041 13.104 13.4073 13.104 13.4103 13.1033C13.4148 13.1034 13.4191 13.1022 13.4229 13.0998C13.4266 13.0975 13.4296 13.0941 13.4314 13.0901C13.4328 13.0874 13.4337 13.0844 13.4339 13.0814C13.4341 13.0783 13.4337 13.0752 13.4327 13.0723C13.4317 13.0694 13.4301 13.0667 13.428 13.0645C13.4259 13.0622 13.4233 13.0604 13.4205 13.0592V13.0623ZM12.6799 12.4768C12.6785 12.4741 12.6765 12.4717 12.6742 12.4698C12.6719 12.4679 12.6692 12.4664 12.6663 12.4656C12.6633 12.4647 12.6603 12.4644 12.6573 12.4648C12.6542 12.4651 12.6513 12.466 12.6487 12.4675C12.6432 12.4703 12.6391 12.4751 12.6372 12.4809C12.6353 12.4867 12.6358 12.493 12.6385 12.4984C12.6828 12.5776 12.7376 12.6504 12.8015 12.715C12.8058 12.7194 12.8117 12.7219 12.8178 12.722C12.8209 12.7221 12.8239 12.7216 12.8267 12.7206C12.8295 12.7195 12.8321 12.7179 12.8342 12.7158C12.8385 12.7114 12.8409 12.7056 12.8409 12.6995C12.8409 12.6935 12.8385 12.6876 12.8342 12.6833C12.7729 12.6211 12.721 12.5505 12.6799 12.4737V12.4768ZM12.9862 11.8936C12.984 11.888 12.9797 11.8835 12.9742 11.8809C12.9687 11.8783 12.9624 11.8779 12.9566 11.8797C12.9191 11.8924 12.8824 11.9074 12.8467 11.9246C12.805 11.9444 12.7656 11.9685 12.729 11.9965C12.7265 11.9982 12.7245 12.0005 12.7229 12.003C12.7214 12.0056 12.7204 12.0084 12.7199 12.0114C12.7195 12.0143 12.7196 12.0173 12.7204 12.0202C12.7211 12.0231 12.7225 12.0258 12.7243 12.0282C12.7282 12.0328 12.7338 12.0358 12.7399 12.0365C12.746 12.0373 12.7521 12.0357 12.757 12.0321C12.7916 12.0067 12.8284 11.9844 12.867 11.9656C12.9009 11.9493 12.9358 11.9351 12.9714 11.923C12.9747 11.9221 12.9778 11.9205 12.9804 11.9183C12.983 11.9161 12.9851 11.9133 12.9865 11.9102C12.9879 11.9071 12.9886 11.9037 12.9886 11.9003C12.9885 11.8969 12.9877 11.8936 12.9862 11.8905V11.8936ZM15.198 13.1489C15.2634 13.1853 15.3274 13.2201 15.389 13.2525C15.3925 13.2533 15.3963 13.2533 15.3999 13.2525C15.405 13.2528 15.4101 13.2512 15.4143 13.2481C15.4185 13.2451 15.4214 13.2407 15.4227 13.2357C15.424 13.2307 15.4235 13.2254 15.4213 13.2207C15.4192 13.2161 15.4154 13.2123 15.4108 13.21C15.3492 13.1775 15.286 13.1435 15.2206 13.1064C15.2151 13.1035 15.2088 13.1028 15.2029 13.1043C15.1969 13.1059 15.1918 13.1097 15.1886 13.1149C15.1858 13.1202 15.1852 13.1264 15.187 13.1322C15.1887 13.138 15.1926 13.1429 15.198 13.1458V13.1489ZM15.7694 13.4583C15.8029 13.4792 15.8318 13.4977 15.8583 13.5171C15.8858 13.5371 15.9118 13.5591 15.9362 13.5828C15.9383 13.585 15.9409 13.5868 15.9437 13.5879C15.9465 13.5891 15.9495 13.5898 15.9526 13.5898C15.9588 13.5893 15.9647 13.5866 15.969 13.582C15.9732 13.5778 15.9756 13.5721 15.9756 13.5662C15.9756 13.5602 15.9732 13.5545 15.969 13.5503C15.9419 13.5251 15.9133 13.5016 15.8832 13.4799C15.8559 13.4606 15.8255 13.4405 15.7904 13.4196C15.7853 13.4165 15.7791 13.4156 15.7732 13.4171C15.7674 13.4185 15.7624 13.4222 15.7593 13.4273C15.7562 13.4325 15.7552 13.4386 15.7567 13.4444C15.7582 13.4502 15.7619 13.4552 15.7671 13.4583H15.7694ZM13.4189 11.8874C13.4939 11.8989 13.5678 11.917 13.6395 11.9416H13.6466C13.652 11.9414 13.6572 11.9394 13.6613 11.9359C13.6654 11.9324 13.6681 11.9276 13.669 11.9223C13.6699 11.917 13.669 11.9116 13.6663 11.9069C13.6636 11.9022 13.6594 11.8986 13.6544 11.8967C13.58 11.8714 13.5036 11.8525 13.4259 11.8403C13.4229 11.8397 13.4198 11.8398 13.4168 11.8405C13.4138 11.8412 13.411 11.8424 13.4085 11.8442C13.406 11.8461 13.4039 11.8484 13.4024 11.851C13.4008 11.8536 13.3998 11.8566 13.3994 11.8596C13.399 11.8625 13.3991 11.8655 13.3999 11.8684C13.4006 11.8713 13.402 11.874 13.4038 11.8764C13.4056 11.8788 13.4079 11.8808 13.4105 11.8823C13.4131 11.8838 13.4159 11.8847 13.4189 11.8851V11.8874ZM15.0093 13.0383L15.1028 13.094C15.1067 13.095 15.1107 13.095 15.1145 13.094C15.1186 13.094 15.1227 13.0929 15.1262 13.0909C15.1298 13.0889 15.1327 13.0859 15.1348 13.0824C15.1363 13.0798 15.1373 13.077 15.1377 13.074C15.1381 13.071 15.1379 13.068 15.1371 13.0651C15.1363 13.0622 15.1349 13.0596 15.133 13.0572C15.1312 13.0549 15.1289 13.0529 15.1262 13.0515L15.0335 12.9958C14.9961 12.9721 14.9602 12.9463 14.9259 12.9184C14.9208 12.9149 14.9147 12.9135 14.9086 12.9143C14.9025 12.9152 14.897 12.9183 14.8931 12.9231C14.8913 12.9254 14.89 12.9282 14.8892 12.931C14.8885 12.9339 14.8883 12.9369 14.8888 12.9399C14.8892 12.9428 14.8902 12.9457 14.8918 12.9482C14.8933 12.9508 14.8954 12.953 14.8978 12.9548C14.9344 12.9873 14.9726 13.0128 15.0093 13.036V13.0383ZM14.4955 12.5681L14.5127 12.5866C14.5172 12.5913 14.5233 12.5941 14.5298 12.5944C14.5356 12.5941 14.5411 12.592 14.5454 12.5882C14.5497 12.584 14.552 12.5783 14.552 12.5723C14.552 12.5664 14.5497 12.5607 14.5454 12.5565L14.5283 12.5371C14.4753 12.4783 14.4199 12.4172 14.3646 12.36C14.3626 12.3573 14.3601 12.3551 14.3572 12.3534C14.3543 12.3517 14.3511 12.3507 14.3477 12.3504C14.3444 12.3501 14.341 12.3505 14.3379 12.3516C14.3347 12.3527 14.3318 12.3544 14.3294 12.3567C14.327 12.359 14.3251 12.3618 14.3238 12.3649C14.3226 12.368 14.322 12.3713 14.3222 12.3746C14.3223 12.3779 14.3232 12.3811 14.3247 12.3841C14.3263 12.3871 14.3284 12.3897 14.331 12.3917C14.388 12.4459 14.4425 12.5062 14.4955 12.5657V12.5681ZM14.7933 12.8774C14.7954 12.8795 14.7978 12.8811 14.8005 12.8821C14.8032 12.8832 14.806 12.8837 14.8089 12.8836C14.8122 12.8837 14.8154 12.883 14.8184 12.8817C14.8214 12.8803 14.824 12.8784 14.8261 12.8759C14.8283 12.8739 14.83 12.8714 14.8312 12.8687C14.8324 12.8659 14.833 12.863 14.833 12.86C14.833 12.8571 14.8324 12.8541 14.8312 12.8514C14.83 12.8487 14.8283 12.8462 14.8261 12.8442C14.77 12.7931 14.7107 12.7336 14.639 12.657C14.6346 12.6528 14.6287 12.6504 14.6226 12.6504C14.6165 12.6504 14.6106 12.6528 14.6062 12.657C14.602 12.6612 14.5996 12.6669 14.5996 12.6729C14.5996 12.6788 14.602 12.6845 14.6062 12.6887C14.6664 12.753 14.7299 12.8142 14.7965 12.872L14.7933 12.8774ZM14.1385 12.2177C14.1712 12.2432 14.204 12.2711 14.2383 12.3028C14.2427 12.3063 14.2482 12.3083 14.2539 12.3082C14.257 12.3082 14.2602 12.3076 14.2631 12.3064C14.2661 12.3052 14.2688 12.3034 14.271 12.3012C14.2753 12.2969 14.2777 12.2911 14.2777 12.285C14.2777 12.2789 14.2753 12.2731 14.271 12.2687C14.2359 12.2363 14.2024 12.2076 14.1681 12.1813C14.1416 12.1605 14.1096 12.1373 14.0738 12.1125C14.0687 12.1098 14.0628 12.109 14.0572 12.1103C14.0516 12.1116 14.0467 12.115 14.0434 12.1197C14.0401 12.1244 14.0387 12.1301 14.0394 12.1358C14.0401 12.1414 14.0429 12.1467 14.0473 12.1504C14.0831 12.1744 14.1135 12.1968 14.14 12.2177H14.1385ZM15.1972 13.944C15.1532 13.9244 15.1105 13.9022 15.0693 13.8775L14.9804 13.821C14.9753 13.8187 14.9695 13.8183 14.9642 13.8199C14.9588 13.8215 14.9542 13.825 14.9511 13.8297C14.9481 13.8344 14.9469 13.84 14.9477 13.8455C14.9485 13.851 14.9513 13.856 14.9555 13.8597C14.9851 13.879 15.0147 13.8976 15.0459 13.9162C15.0886 13.9421 15.1329 13.9653 15.1785 13.9858C15.1815 13.9865 15.1847 13.9865 15.1878 13.9858C15.1923 13.9857 15.1967 13.9843 15.2004 13.9819C15.2041 13.9794 15.2071 13.9759 15.2089 13.9718C15.2106 13.9689 15.2116 13.9657 15.2119 13.9624C15.2122 13.9591 15.2118 13.9557 15.2107 13.9525C15.2096 13.9494 15.2078 13.9465 15.2055 13.9441C15.2031 13.9417 15.2003 13.9398 15.1972 13.9386V13.944ZM15.615 14.036C15.5193 14.0384 15.4239 14.0245 15.3328 13.995C15.3299 13.9941 15.3268 13.9938 15.3238 13.994C15.3207 13.9943 15.3177 13.9952 15.3151 13.9966C15.3124 13.9981 15.31 14.0001 15.3081 14.0024C15.3062 14.0048 15.3048 14.0076 15.304 14.0105C15.3022 14.0163 15.3028 14.0224 15.3056 14.0278C15.3083 14.0331 15.3131 14.0372 15.3188 14.0391C15.4076 14.067 15.5001 14.0816 15.5932 14.0824H15.6166C15.6196 14.0824 15.6226 14.0818 15.6254 14.0807C15.6282 14.0795 15.6308 14.0778 15.6329 14.0756C15.635 14.0734 15.6366 14.0709 15.6377 14.0681C15.6388 14.0652 15.6393 14.0622 15.6392 14.0592C15.6399 14.0557 15.6398 14.0521 15.6389 14.0486C15.638 14.0452 15.6363 14.0419 15.634 14.0392C15.6317 14.0364 15.6288 14.0343 15.6255 14.0328C15.6222 14.0313 15.6186 14.0306 15.615 14.0306V14.036ZM13.7237 13.1992L13.521 13.1102C13.5154 13.1079 13.5091 13.1078 13.5035 13.1099C13.4978 13.1121 13.4932 13.1164 13.4906 13.1218C13.4893 13.1245 13.4886 13.1274 13.4884 13.1304C13.4882 13.1334 13.4887 13.1364 13.4897 13.1392C13.4907 13.142 13.4923 13.1446 13.4943 13.1468C13.4964 13.149 13.4988 13.1508 13.5016 13.152C13.5678 13.1814 13.6364 13.2116 13.7058 13.2409C13.7089 13.2417 13.7121 13.2417 13.7152 13.2409C13.7205 13.241 13.7256 13.2393 13.7297 13.2359C13.7338 13.2326 13.7367 13.228 13.7377 13.2228C13.7387 13.2177 13.7379 13.2123 13.7353 13.2077C13.7328 13.2031 13.7287 13.1995 13.7237 13.1976V13.1992ZM16.0438 13.6315C16.0402 13.6267 16.0349 13.6234 16.0289 13.6224C16.023 13.6214 16.0168 13.6227 16.0118 13.6261C16.0094 13.6278 16.0072 13.63 16.0056 13.6325C16.004 13.635 16.0029 13.6379 16.0024 13.6408C16.0019 13.6438 16.002 13.6468 16.0026 13.6497C16.0033 13.6526 16.0046 13.6554 16.0064 13.6578C16.0333 13.6929 16.0488 13.7352 16.0508 13.7793C16.0509 13.799 16.0466 13.8185 16.0384 13.8365C16.037 13.8392 16.0363 13.8421 16.0361 13.8451C16.036 13.8481 16.0364 13.851 16.0374 13.8538C16.0384 13.8567 16.04 13.8592 16.042 13.8614C16.0441 13.8636 16.0465 13.8654 16.0493 13.8667C16.0526 13.8674 16.0561 13.8674 16.0594 13.8667C16.0638 13.8666 16.0681 13.8653 16.0718 13.863C16.0755 13.8607 16.0785 13.8574 16.0805 13.8535C16.0913 13.8292 16.0969 13.8028 16.0968 13.7762C16.094 13.7238 16.0755 13.6735 16.0438 13.6315ZM15.9768 13.9107C15.9496 13.9319 15.9201 13.9498 15.8887 13.9641C15.8462 13.9851 15.8015 14.0012 15.7554 14.0121C15.7494 14.0135 15.7442 14.0173 15.741 14.0225C15.7378 14.0277 15.7368 14.034 15.7382 14.0399C15.7395 14.0449 15.7424 14.0493 15.7465 14.0524C15.7506 14.0555 15.7557 14.0571 15.7608 14.0569H15.7663C15.8156 14.0447 15.8634 14.0274 15.9089 14.0051C15.9434 13.9893 15.9758 13.9696 16.0056 13.9463C16.0078 13.9442 16.0096 13.9417 16.0108 13.9389C16.012 13.9361 16.0126 13.9331 16.0126 13.9301C16.0126 13.927 16.012 13.924 16.0108 13.9212C16.0096 13.9184 16.0078 13.9159 16.0056 13.9138C16.0021 13.9103 15.9975 13.9081 15.9925 13.9075C15.9876 13.9069 15.9825 13.9081 15.9783 13.9107H15.9768ZM15.6969 13.3624L15.5051 13.2595C15.4997 13.2567 15.4934 13.2561 15.4876 13.2579C15.4818 13.2596 15.4769 13.2635 15.4739 13.2688C15.4724 13.2714 15.4715 13.2743 15.4712 13.2773C15.4708 13.2803 15.4711 13.2833 15.472 13.2862C15.4729 13.2891 15.4743 13.2918 15.4762 13.2941C15.4782 13.2964 15.4806 13.2983 15.4833 13.2997C15.5519 13.3361 15.6158 13.3693 15.6743 13.4018C15.6778 13.4029 15.6816 13.4029 15.6852 13.4018C15.6893 13.402 15.6934 13.401 15.697 13.3989C15.7006 13.3969 15.7035 13.3939 15.7055 13.3902C15.7078 13.3855 15.7083 13.3801 15.707 13.375C15.7058 13.37 15.7027 13.3655 15.6985 13.3624H15.6969ZM14.7123 13.6431C14.707 13.64 14.7007 13.639 14.6947 13.6405C14.6887 13.6419 14.6835 13.6457 14.6803 13.6509C14.6787 13.6534 14.6777 13.6562 14.6773 13.6591C14.6768 13.6621 14.677 13.6651 14.6777 13.6679C14.6784 13.6708 14.6797 13.6735 14.6815 13.6759C14.6833 13.6783 14.6855 13.6803 14.6881 13.6818C14.7551 13.7228 14.8152 13.7591 14.8658 13.7955C14.8699 13.7966 14.8742 13.7966 14.8783 13.7955C14.8821 13.7955 14.8859 13.7945 14.8893 13.7928C14.8927 13.791 14.8956 13.7885 14.8978 13.7854C14.9011 13.7804 14.9023 13.7743 14.9012 13.7683C14.9 13.7624 14.8966 13.7572 14.8916 13.7537C14.8417 13.7236 14.7816 13.6841 14.7138 13.6431H14.7123ZM13.9592 12.087C13.9632 12.087 13.9672 12.086 13.9707 12.0841C13.9742 12.0822 13.9772 12.0795 13.9794 12.0762C13.9824 12.0709 13.9833 12.0647 13.9818 12.0588C13.9804 12.0529 13.9767 12.0478 13.9716 12.0444C13.9043 12.0049 13.8345 11.9695 13.7627 11.9385C13.76 11.9372 13.757 11.9365 13.7539 11.9364C13.7509 11.9363 13.7479 11.9368 13.745 11.9379C13.7422 11.9389 13.7396 11.9406 13.7374 11.9427C13.7352 11.9448 13.7335 11.9473 13.7323 11.9501C13.731 11.9528 13.7303 11.9558 13.7302 11.9588C13.7301 11.9618 13.7306 11.9648 13.7317 11.9676C13.7328 11.9704 13.7344 11.973 13.7366 11.9752C13.7387 11.9774 13.7412 11.9791 13.744 11.9802C13.814 12.0105 13.8819 12.0451 13.9475 12.0839C13.9515 12.0863 13.9561 12.0874 13.9607 12.087H13.9592ZM14.0301 13.3245C13.9607 13.2959 13.8921 13.268 13.8251 13.2394C13.8194 13.2371 13.813 13.2371 13.8073 13.2394C13.8016 13.2417 13.7971 13.2462 13.7947 13.2518C13.7934 13.2545 13.7928 13.2575 13.7927 13.2605C13.7927 13.2634 13.7932 13.2664 13.7944 13.2692C13.7956 13.2719 13.7973 13.2744 13.7995 13.2765C13.8017 13.2786 13.8043 13.2801 13.8072 13.2812L14.0122 13.3662C14.015 13.3669 14.0179 13.3669 14.0208 13.3662C14.0261 13.3665 14.0314 13.3649 14.0357 13.3616C14.04 13.3584 14.0429 13.3538 14.0441 13.3485C14.0452 13.3433 14.0444 13.3379 14.0418 13.3332C14.0393 13.3285 14.0351 13.3249 14.0301 13.3229V13.3245ZM14.6195 13.5929C14.5595 13.5588 14.4971 13.5271 14.4301 13.4954C14.4246 13.4929 14.4185 13.4926 14.4128 13.4945C14.4072 13.4963 14.4025 13.5003 14.3996 13.5055C14.397 13.511 14.3966 13.5174 14.3987 13.5232C14.4007 13.529 14.405 13.5337 14.4106 13.5364C14.476 13.5681 14.5376 13.599 14.5977 13.6323C14.6012 13.6334 14.605 13.6334 14.6086 13.6323C14.6127 13.6323 14.6167 13.6312 14.6203 13.6292C14.6238 13.6272 14.6268 13.6242 14.6288 13.6207C14.6304 13.6182 14.6314 13.6154 14.6319 13.6124C14.6323 13.6095 14.6322 13.6065 14.6315 13.6036C14.6307 13.6007 14.6294 13.598 14.6277 13.5957C14.6259 13.5933 14.6236 13.5913 14.6211 13.5898L14.6195 13.5929ZM14.3326 13.4505C14.3022 13.4366 14.2695 13.4227 14.2352 13.4088L14.1322 13.3662C14.1268 13.365 14.1211 13.3658 14.1162 13.3684C14.1113 13.3709 14.1075 13.3751 14.1054 13.3803C14.1033 13.3854 14.1032 13.3911 14.105 13.3963C14.1067 13.4015 14.1103 13.4059 14.1151 13.4088L14.2172 13.4505C14.2507 13.4645 14.2835 13.4784 14.3139 13.4923C14.317 13.493 14.3202 13.493 14.3232 13.4923C14.3278 13.4924 14.3322 13.4912 14.336 13.4887C14.3398 13.4862 14.3427 13.4826 14.3443 13.4784C14.3458 13.4757 14.3467 13.4728 14.3469 13.4697C14.3472 13.4667 14.3469 13.4637 14.3459 13.4608C14.345 13.4579 14.3434 13.4552 14.3414 13.4529C14.3394 13.4506 14.3369 13.4488 14.3342 13.4475L14.3326 13.4505Z" fill="white"/>
<path d="M19.4222 17.7385C19.3817 17.7238 19.3443 17.7083 19.3053 17.6929C19.2663 17.6774 19.2328 17.6612 19.193 17.6418C19.1903 17.6405 19.1874 17.6398 19.1844 17.6396C19.1814 17.6395 19.1784 17.6399 19.1755 17.6409C19.1727 17.6419 19.1701 17.6435 19.1679 17.6455C19.1657 17.6475 19.1639 17.6499 19.1626 17.6527C19.1599 17.6581 19.1594 17.6644 19.1613 17.6702C19.1632 17.676 19.1673 17.6808 19.1728 17.6836C19.2133 17.7029 19.2507 17.7199 19.2874 17.7346C19.324 17.7493 19.3653 17.7664 19.4066 17.7818H19.4144C19.4192 17.7817 19.4238 17.7801 19.4277 17.7774C19.4316 17.7746 19.4346 17.7708 19.4363 17.7664C19.4378 17.7608 19.4373 17.7549 19.4347 17.7497C19.4321 17.7446 19.4276 17.7406 19.4222 17.7385ZM19.4129 16.8243C19.4125 16.8184 19.4099 16.8128 19.4056 16.8086C19.4012 16.8045 19.3955 16.8021 19.3895 16.8019C19.2943 16.804 19.1997 16.8164 19.1073 16.839C19.1013 16.8405 19.0962 16.8442 19.0929 16.8494C19.0897 16.8546 19.0887 16.8609 19.0901 16.8668C19.0916 16.8717 19.0946 16.8759 19.0987 16.879C19.1027 16.8821 19.1076 16.8838 19.1127 16.8839H19.1182C19.2073 16.8622 19.2985 16.8503 19.3903 16.8483C19.3935 16.8483 19.3966 16.8477 19.3995 16.8464C19.4024 16.8451 19.405 16.8433 19.4072 16.8409C19.4093 16.8386 19.4109 16.8358 19.4119 16.8328C19.4129 16.8298 19.4132 16.8267 19.4129 16.8235V16.8243ZM19.7863 17.8553C19.7037 17.8305 19.6226 17.805 19.5454 17.778C19.5425 17.777 19.5394 17.7766 19.5363 17.7768C19.5333 17.777 19.5303 17.7778 19.5275 17.7792C19.5248 17.7806 19.5223 17.7825 19.5203 17.7848C19.5183 17.7871 19.5168 17.7898 19.5158 17.7926C19.5148 17.7955 19.5144 17.7985 19.5147 17.8015C19.5149 17.8045 19.5157 17.8074 19.5171 17.8101C19.5185 17.8127 19.5204 17.8151 19.5227 17.817C19.525 17.8189 19.5277 17.8204 19.5306 17.8213C19.6086 17.8476 19.6865 17.8723 19.7731 17.8986H19.7801C19.785 17.8985 19.7897 17.8969 19.7936 17.894C19.7975 17.8911 19.8004 17.887 19.8019 17.8824C19.8034 17.8767 19.8025 17.8708 19.7996 17.8657C19.7967 17.8607 19.7919 17.8569 19.7863 17.8553ZM19.0847 17.5846C19.0127 17.5461 18.9444 17.5013 18.8804 17.4508C18.8762 17.4466 18.8704 17.4442 18.8644 17.4442C18.8584 17.4442 18.8527 17.4466 18.8485 17.4508C18.8462 17.4529 18.8445 17.4554 18.8433 17.4582C18.8421 17.461 18.8414 17.464 18.8414 17.467C18.8414 17.4701 18.8421 17.4731 18.8433 17.4759C18.8445 17.4787 18.8462 17.4812 18.8485 17.4833C18.9144 17.5355 18.9848 17.5818 19.0589 17.6217C19.0625 17.6228 19.0663 17.6228 19.0699 17.6217C19.074 17.6216 19.078 17.6205 19.0815 17.6185C19.0851 17.6165 19.088 17.6136 19.0901 17.6101C19.0921 17.6057 19.0926 17.6008 19.0916 17.5961C19.0906 17.5914 19.0882 17.5871 19.0847 17.5838V17.5846ZM19.8128 16.8359C19.72 16.8195 19.6263 16.8086 19.5322 16.8034C19.5291 16.8032 19.526 16.8036 19.5231 16.8046C19.5202 16.8056 19.5175 16.8071 19.5152 16.8091C19.5128 16.8111 19.5109 16.8136 19.5096 16.8163C19.5082 16.8191 19.5074 16.822 19.5072 16.8251C19.5072 16.8311 19.5094 16.8368 19.5134 16.8413C19.5175 16.8457 19.523 16.8485 19.529 16.8491C19.6213 16.8543 19.7132 16.8649 19.8042 16.8808C19.8097 16.8809 19.8151 16.8791 19.8193 16.8757C19.8236 16.8723 19.8265 16.8675 19.8276 16.8622C19.8285 16.8567 19.8274 16.8511 19.8246 16.8463C19.8217 16.8415 19.8173 16.8378 19.812 16.8359H19.8128ZM20.148 17.9644L19.9188 17.8932L19.904 17.8886C19.9011 17.8876 19.898 17.8873 19.895 17.8875C19.8919 17.8878 19.889 17.8887 19.8863 17.8901C19.8836 17.8916 19.8812 17.8936 19.8793 17.896C19.8774 17.8983 19.876 17.9011 19.8752 17.904C19.8737 17.9099 19.8745 17.9161 19.8773 17.9214C19.8802 17.9267 19.885 17.9307 19.8908 17.9326L19.9056 17.9365L20.134 18.0046H20.1402C20.1456 18.0043 20.1507 18.0022 20.1547 17.9986C20.1586 17.995 20.1612 17.9902 20.1621 17.985C20.1629 17.9797 20.1619 17.9743 20.1592 17.9697C20.1565 17.9651 20.1523 17.9616 20.1473 17.9597L20.148 17.9644ZM21.227 17.6086C21.2313 17.6126 21.237 17.6148 21.243 17.6148C21.2489 17.6148 21.2546 17.6126 21.259 17.6086C21.263 17.6043 21.2653 17.5986 21.2653 17.5927C21.2653 17.5868 21.263 17.5812 21.259 17.5769C21.1888 17.5212 21.1186 17.4655 21.0493 17.4121C21.0443 17.4084 21.0381 17.4068 21.0319 17.4077C21.0258 17.4086 21.0202 17.4118 21.0165 17.4168C21.0147 17.4191 21.0134 17.4218 21.0126 17.4247C21.0119 17.4276 21.0117 17.4306 21.0121 17.4336C21.0126 17.4365 21.0136 17.4394 21.0151 17.4419C21.0167 17.4445 21.0188 17.4467 21.0212 17.4485C21.0867 17.498 21.1561 17.5529 21.2262 17.6086H21.227ZM18.7198 17.2033C18.7198 17.1898 18.7214 17.1763 18.7245 17.1631C18.7253 17.1602 18.7255 17.1571 18.7252 17.1542C18.7248 17.1512 18.7238 17.1483 18.7223 17.1457C18.7207 17.1431 18.7187 17.1408 18.7163 17.139C18.7138 17.1372 18.7111 17.1359 18.7081 17.1352C18.7022 17.134 18.6959 17.1351 18.6907 17.1383C18.6855 17.1414 18.6817 17.1464 18.6801 17.1522C18.6761 17.169 18.674 17.1861 18.6738 17.2033C18.6781 17.2762 18.7082 17.3452 18.7588 17.3982C18.7635 17.403 18.77 17.4058 18.7767 17.4059C18.7812 17.4061 18.7857 17.4049 18.7895 17.4026C18.7933 17.4002 18.7963 17.3968 18.7982 17.3927C18.8 17.3886 18.8006 17.3841 18.7998 17.3797C18.7991 17.3753 18.797 17.3713 18.7939 17.368C18.7499 17.3238 18.7233 17.2653 18.719 17.2033H18.7198ZM20.2221 16.9403C20.134 16.9109 20.042 16.8854 19.9508 16.863C19.9478 16.8622 19.9447 16.862 19.9417 16.8624C19.9386 16.8628 19.9357 16.8639 19.9331 16.8655C19.9304 16.8671 19.9282 16.8692 19.9264 16.8717C19.9246 16.8742 19.9234 16.877 19.9227 16.88C19.9216 16.8859 19.9228 16.8921 19.9262 16.8972C19.9295 16.9022 19.9347 16.9058 19.9407 16.9071C20.0303 16.9279 20.12 16.9535 20.2073 16.9844H20.2151C20.2204 16.9841 20.2255 16.982 20.2295 16.9784C20.2335 16.9749 20.2361 16.9701 20.2369 16.9648C20.2377 16.9595 20.2367 16.9542 20.234 16.9496C20.2313 16.945 20.2271 16.9414 20.2221 16.9396V16.9403ZM21.8764 18.0618C21.9419 18.0966 22.0043 18.1275 22.0635 18.1569C22.0668 18.1576 22.0703 18.1576 22.0736 18.1569C22.078 18.157 22.0822 18.1559 22.0859 18.1537C22.0896 18.1515 22.0927 18.1484 22.0947 18.1446C22.0972 18.1391 22.0976 18.1329 22.0957 18.1271C22.0938 18.1214 22.0899 18.1166 22.0846 18.1136C22.0253 18.085 21.9629 18.0541 21.8982 18.0193C21.8956 18.0172 21.8924 18.0157 21.8891 18.0149C21.8858 18.0141 21.8823 18.014 21.879 18.0147C21.8756 18.0154 21.8725 18.0168 21.8697 18.0188C21.867 18.0208 21.8647 18.0234 21.8631 18.0264C21.8615 18.0294 21.8605 18.0327 21.8603 18.0361C21.8601 18.0395 21.8607 18.0429 21.862 18.046C21.8632 18.0492 21.8652 18.052 21.8677 18.0544C21.8702 18.0567 21.8732 18.0584 21.8764 18.0595V18.0618ZM20.6938 17.2157C20.7616 17.2582 20.8325 17.3077 20.9113 17.3649C20.9154 17.3679 20.9203 17.3695 20.9253 17.3696C20.9289 17.3696 20.9325 17.3687 20.9358 17.3671C20.939 17.3655 20.9418 17.3632 20.944 17.3603C20.9458 17.3579 20.9471 17.3551 20.9478 17.3522C20.9484 17.3493 20.9485 17.3463 20.948 17.3433C20.9475 17.3403 20.9464 17.3375 20.9448 17.335C20.9432 17.3325 20.941 17.3303 20.9386 17.3286C20.8606 17.2698 20.7865 17.2203 20.7179 17.1739C20.7155 17.1722 20.7127 17.1711 20.7097 17.1705C20.7068 17.1699 20.7037 17.17 20.7008 17.1706C20.6979 17.1713 20.6951 17.1725 20.6927 17.1743C20.6903 17.1761 20.6883 17.1783 20.6867 17.1809C20.6844 17.1834 20.6828 17.1864 20.6818 17.1897C20.6809 17.193 20.6807 17.1964 20.6813 17.1998C20.6819 17.2031 20.6833 17.2063 20.6853 17.2091C20.6873 17.2118 20.6899 17.2141 20.693 17.2157H20.6938ZM18.7627 17.0741C18.7659 17.0741 18.7691 17.0734 18.7721 17.0721C18.775 17.0707 18.7777 17.0688 18.7799 17.0664C18.8066 17.037 18.837 17.011 18.8703 16.9891C18.9074 16.9636 18.9471 16.942 18.9888 16.9249C18.9916 16.9237 18.9941 16.922 18.9962 16.9198C18.9984 16.9176 19 16.9151 19.0011 16.9122C19.0022 16.9094 19.0027 16.9064 19.0026 16.9034C19.0025 16.9004 19.0018 16.8974 19.0005 16.8947C18.9994 16.8919 18.9977 16.8894 18.9956 16.8873C18.9935 16.8853 18.991 16.8836 18.9882 16.8825C18.9854 16.8814 18.9825 16.8809 18.9795 16.881C18.9765 16.8811 18.9736 16.8818 18.9709 16.8831C18.9266 16.9016 18.8843 16.9244 18.8446 16.9512C18.8085 16.9752 18.7753 17.0032 18.7456 17.0347C18.7413 17.039 18.7389 17.0449 18.7389 17.0509C18.7389 17.057 18.7413 17.0628 18.7456 17.0672C18.7476 17.0694 18.7501 17.0712 18.753 17.0725C18.7558 17.0737 18.7588 17.0742 18.7619 17.0741H18.7627ZM22.4572 18.3395C22.455 18.3374 22.4524 18.3359 22.4496 18.3348C22.4468 18.3338 22.4438 18.3333 22.4408 18.3334C22.4378 18.3335 22.4348 18.3342 22.4321 18.3354C22.4294 18.3367 22.4269 18.3384 22.4249 18.3406C22.4228 18.3428 22.4212 18.3454 22.4202 18.3482C22.4191 18.351 22.4186 18.3539 22.4187 18.3569C22.4188 18.3599 22.4195 18.3628 22.4208 18.3655C22.422 18.3683 22.4238 18.3707 22.426 18.3727C22.4524 18.3924 22.4744 18.4173 22.4908 18.4457C22.5072 18.4742 22.5175 18.5057 22.5211 18.5382C22.5211 18.5412 22.5217 18.5442 22.5229 18.5469C22.5241 18.5496 22.5259 18.5521 22.5281 18.5541C22.5303 18.5562 22.5329 18.5577 22.5357 18.5587C22.5385 18.5597 22.5415 18.5601 22.5445 18.5599C22.5507 18.5593 22.5565 18.5565 22.5607 18.5519C22.5648 18.5473 22.5672 18.5413 22.5671 18.5351C22.5633 18.4967 22.5515 18.4595 22.5324 18.4258C22.5133 18.3921 22.4875 18.3627 22.4564 18.3395H22.4572ZM22.1454 18.7881C22.049 18.7962 21.952 18.7897 21.8577 18.7687C21.8521 18.7685 21.8467 18.7702 21.8423 18.7736C21.8379 18.777 21.8349 18.7818 21.8338 18.7872C21.8327 18.7926 21.8335 18.7982 21.8362 18.803C21.8388 18.8079 21.8432 18.8116 21.8483 18.8136C21.9198 18.8289 21.9927 18.8369 22.0658 18.8376C22.094 18.8376 22.1221 18.836 22.15 18.8329C22.156 18.8323 22.1615 18.8293 22.1653 18.8247C22.1691 18.8201 22.1709 18.8141 22.1703 18.8082C22.1697 18.8022 22.1667 18.7968 22.162 18.793C22.1574 18.7892 22.1514 18.7874 22.1454 18.7881ZM21.8062 17.9705C21.7447 17.935 21.687 17.8994 21.6308 17.8607C21.6284 17.8586 21.6254 17.857 21.6223 17.856C21.6192 17.8551 21.6158 17.8548 21.6126 17.8552C21.6093 17.8556 21.6062 17.8567 21.6034 17.8584C21.6006 17.86 21.5981 17.8623 21.5963 17.865C21.5944 17.8677 21.5931 17.8707 21.5925 17.8739C21.5919 17.8771 21.592 17.8804 21.5927 17.8836C21.5935 17.8868 21.5949 17.8897 21.5969 17.8923C21.5989 17.8949 21.6014 17.8971 21.6043 17.8986C21.662 17.9373 21.7205 17.976 21.7836 18.01C21.7874 18.0112 21.7915 18.0112 21.7953 18.01C21.7994 18.0101 21.8033 18.0091 21.8068 18.007C21.8102 18.005 21.813 18.002 21.8148 17.9984C21.817 17.9935 21.8173 17.988 21.8157 17.9829C21.8141 17.9778 21.8108 17.9734 21.8062 17.9705ZM21.715 18.7301C21.6688 18.7148 21.6235 18.697 21.5794 18.6767C21.5474 18.662 21.5162 18.6457 21.4843 18.6287C21.4788 18.6261 21.4726 18.6257 21.4669 18.6274C21.4611 18.6291 21.4562 18.6329 21.4531 18.638C21.4516 18.6406 21.4507 18.6435 21.4503 18.6465C21.45 18.6495 21.4503 18.6526 21.4511 18.6555C21.452 18.6583 21.4535 18.661 21.4554 18.6633C21.4573 18.6657 21.4597 18.6676 21.4624 18.6689C21.4952 18.6867 21.5279 18.703 21.5599 18.7177C21.6056 18.7388 21.6525 18.7573 21.7002 18.7734H21.7072C21.7121 18.7736 21.7169 18.7722 21.7208 18.7693C21.7248 18.7665 21.7277 18.7625 21.7291 18.7579C21.7306 18.7525 21.73 18.7467 21.7274 18.7416C21.7248 18.7366 21.7204 18.7328 21.715 18.7308V18.7301ZM22.3535 18.3108C22.3573 18.3108 22.3611 18.3099 22.3645 18.3081C22.3679 18.3064 22.3708 18.3039 22.373 18.3008C22.3748 18.2983 22.376 18.2955 22.3766 18.2926C22.3772 18.2896 22.3773 18.2866 22.3767 18.2836C22.3761 18.2807 22.3749 18.2779 22.3732 18.2754C22.3715 18.2729 22.3693 18.2707 22.3668 18.2691C22.3358 18.2482 22.3038 18.2288 22.2709 18.2111C22.2405 18.1948 22.2093 18.1786 22.1773 18.1631C22.1746 18.1617 22.1717 18.1608 22.1686 18.1605C22.1656 18.1602 22.1625 18.1606 22.1596 18.1615C22.1566 18.1624 22.1539 18.164 22.1516 18.166C22.1493 18.168 22.1475 18.1704 22.1461 18.1732C22.1436 18.1785 22.1433 18.1846 22.1452 18.1903C22.1471 18.1959 22.151 18.2005 22.1563 18.2033C22.1882 18.2196 22.2186 18.2351 22.2483 18.2513C22.2818 18.2699 22.313 18.2884 22.341 18.3078C22.3448 18.3101 22.3491 18.3114 22.3535 18.3116V18.3108ZM22.486 18.6264C22.4638 18.6532 22.4375 18.6765 22.4081 18.6952C22.3687 18.7214 22.3259 18.7422 22.281 18.7571C22.2754 18.7594 22.2708 18.7636 22.2682 18.7691C22.2656 18.7745 22.2652 18.7808 22.267 18.7865C22.2686 18.791 22.2715 18.7949 22.2754 18.7977C22.2793 18.8004 22.284 18.8019 22.2888 18.802H22.2958C22.3451 18.7859 22.3918 18.763 22.4346 18.7339C22.4674 18.7128 22.4966 18.6867 22.5211 18.6566C22.5249 18.6517 22.5267 18.6456 22.5259 18.6395C22.5252 18.6334 22.5221 18.6279 22.5172 18.6241C22.5125 18.6208 22.5068 18.6194 22.5011 18.6199C22.4954 18.6205 22.49 18.6231 22.486 18.6272V18.6264ZM21.3907 18.5761C21.333 18.5421 21.2722 18.505 21.2075 18.4648C21.205 18.4631 21.2022 18.4619 21.1993 18.4614C21.1963 18.4608 21.1933 18.4609 21.1904 18.4615C21.1875 18.4622 21.1847 18.4634 21.1823 18.4652C21.1799 18.4669 21.1778 18.4692 21.1763 18.4717C21.1746 18.4742 21.1734 18.4771 21.1729 18.4801C21.1723 18.483 21.1723 18.4861 21.173 18.4891C21.1736 18.492 21.1749 18.4948 21.1767 18.4973C21.1785 18.4998 21.1807 18.5019 21.1833 18.5034C21.2481 18.5437 21.3089 18.5808 21.3673 18.6156C21.3712 18.6166 21.3752 18.6166 21.379 18.6156C21.383 18.6156 21.387 18.6146 21.3905 18.6127C21.3941 18.6108 21.3971 18.6081 21.3993 18.6048C21.4011 18.5998 21.4013 18.5944 21.3998 18.5894C21.3982 18.5844 21.395 18.58 21.3907 18.5769V18.5761ZM20.6025 17.1066C20.562 17.0834 20.5222 17.0625 20.4833 17.044C20.4451 17.0254 20.4014 17.0061 20.3539 16.9875C20.351 16.9864 20.348 16.9858 20.345 16.9859C20.342 16.986 20.339 16.9866 20.3362 16.9879C20.3335 16.9891 20.331 16.9909 20.3289 16.993C20.3269 16.9952 20.3253 16.9978 20.3242 17.0007C20.323 17.0034 20.3223 17.0063 20.3223 17.0093C20.3222 17.0123 20.3228 17.0153 20.324 17.0181C20.3251 17.0208 20.3269 17.0233 20.3291 17.0254C20.3313 17.0274 20.3339 17.029 20.3367 17.03C20.3835 17.0486 20.4264 17.0672 20.463 17.085C20.4996 17.1027 20.541 17.1236 20.5799 17.1461C20.5835 17.1472 20.5873 17.1472 20.5909 17.1461C20.5949 17.1462 20.5989 17.1453 20.6025 17.1434C20.606 17.1415 20.609 17.1387 20.6111 17.1352C20.6131 17.1303 20.6133 17.1249 20.6118 17.1198C20.6102 17.1147 20.607 17.1104 20.6025 17.1074V17.1066ZM20.8364 18.242L20.7413 18.1902C20.707 18.1716 20.668 18.1531 20.6259 18.1345C20.6206 18.1332 20.615 18.1338 20.61 18.1362C20.6051 18.1386 20.6011 18.1426 20.5989 18.1476C20.5967 18.1526 20.5963 18.1582 20.5978 18.1634C20.5993 18.1687 20.6027 18.1732 20.6072 18.1763C20.6485 18.1941 20.6852 18.2126 20.7195 18.2304C20.7538 18.2482 20.7834 18.2652 20.8138 18.2822C20.8174 18.283 20.8211 18.283 20.8247 18.2822C20.8288 18.2822 20.8329 18.2812 20.8364 18.2791C20.84 18.2771 20.8429 18.2742 20.845 18.2706C20.8471 18.2659 20.8476 18.2606 20.8464 18.2555C20.8451 18.2505 20.8421 18.246 20.838 18.2428L20.8364 18.242ZM21.1147 18.4075C21.0571 18.372 20.9955 18.3348 20.93 18.2962C20.9274 18.2946 20.9246 18.2936 20.9216 18.2931C20.9187 18.2927 20.9157 18.2928 20.9128 18.2936C20.9099 18.2943 20.9071 18.2956 20.9047 18.2973C20.9023 18.2991 20.9003 18.3013 20.8988 18.3039C20.8956 18.3091 20.8947 18.3154 20.8961 18.3213C20.8976 18.3273 20.9013 18.3324 20.9066 18.3356C20.9721 18.3735 21.0329 18.4129 21.0906 18.4462C21.0944 18.4472 21.0984 18.4472 21.1023 18.4462C21.1063 18.4462 21.1102 18.4452 21.1138 18.4433C21.1173 18.4414 21.1203 18.4387 21.1225 18.4354C21.1245 18.4308 21.1249 18.4257 21.1238 18.4209C21.1227 18.416 21.12 18.4116 21.1163 18.4083L21.1147 18.4075ZM21.5303 17.8421C21.5339 17.8421 21.5374 17.8411 21.5405 17.8394C21.5436 17.8376 21.5463 17.8351 21.5482 17.8321C21.55 17.8297 21.5513 17.827 21.5521 17.8241C21.5528 17.8212 21.553 17.8182 21.5526 17.8153C21.5521 17.8123 21.5511 17.8095 21.5496 17.8069C21.548 17.8044 21.546 17.8021 21.5435 17.8004L21.4624 17.7385L21.3588 17.6558C21.3544 17.6517 21.3487 17.6495 21.3428 17.6495C21.3368 17.6495 21.3311 17.6517 21.3268 17.6558C21.3246 17.6578 21.3228 17.6604 21.3216 17.6632C21.3204 17.6659 21.3198 17.669 21.3198 17.672C21.3198 17.675 21.3204 17.678 21.3216 17.6808C21.3228 17.6836 21.3246 17.6861 21.3268 17.6882L21.4313 17.771C21.4593 17.7934 21.4874 17.8151 21.5147 17.8352C21.5168 17.8376 21.5195 17.8395 21.5224 17.8408C21.5254 17.8422 21.5286 17.8429 21.5318 17.8429L21.5303 17.8421ZM20.5074 18.0858C20.4373 18.0587 20.3585 18.0309 20.2673 18.0015C20.2614 17.9997 20.2551 18.0003 20.2496 18.003C20.2441 18.0057 20.2398 18.0104 20.2377 18.0162C20.236 18.0219 20.2365 18.0281 20.2393 18.0334C20.2421 18.0388 20.2468 18.0428 20.2525 18.0448C20.3437 18.0742 20.4217 18.1012 20.4911 18.1283H20.4996C20.5042 18.1283 20.5087 18.1269 20.5125 18.1242C20.5162 18.1216 20.5191 18.1179 20.5207 18.1136C20.5222 18.1085 20.5219 18.1029 20.5197 18.098C20.5176 18.0931 20.5138 18.089 20.509 18.0866L20.5074 18.0858Z" fill="white"/>
<path d="M28.4727 30.8094C29.0535 30.5271 29.6639 30.8992 29.9071 31.0879C30.2392 31.3454 30.4864 31.7639 30.8692 31.9982C31.2519 32.2326 31.6035 32.3849 31.8093 32.5288C32.0152 32.6726 32.1773 32.907 31.8421 33.0702C31.5069 33.2334 31.1405 33.1058 30.9066 32.9665C30.6727 32.8273 30.4856 32.6572 29.9882 32.4522C29.4908 32.2473 28.956 32.0392 28.6535 31.8335C28.3511 31.6277 27.8778 31.0941 28.4727 30.8094Z" fill="#E0E0E0"/>
<path opacity="0.8" d="M22.1648 23.9256C22.6894 23.6712 23.2406 24.0068 23.4605 24.1778C23.7606 24.4098 23.9836 24.788 24.3297 24.9999C24.6758 25.2119 24.9931 25.3464 25.1795 25.4795C25.3658 25.6125 25.5124 25.8213 25.2083 25.9683C24.9043 26.1152 24.5737 26 24.3656 25.8747C24.1574 25.7494 23.9851 25.5962 23.5353 25.4106C23.0855 25.225 22.5998 25.0378 22.3293 24.8522C22.0587 24.6666 21.6276 24.1863 22.1648 23.9256Z" fill="#73A7D0"/>
<path d="M29.27 28.3345C28.778 28.6671 29.4259 29.0167 29.7564 29.1559C30.2063 29.3462 30.9367 29.4877 31.3452 29.7066C31.7538 29.9255 32.0149 30.1273 32.2722 30.248C32.5295 30.3686 32.9325 30.4584 33.2171 30.2666C33.5016 30.0747 33.2786 29.8644 33.0362 29.7321C32.7937 29.5999 32.4983 29.4908 32.1381 29.2054C31.7779 28.92 31.417 28.6145 31.0591 28.4413C30.7013 28.268 29.7736 27.9958 29.27 28.3345Z" fill="#E0E0E0"/>
<path d="M35.7558 25.0979L34.8624 25.6091L33.3921 24.7676V13.9488L32.4121 13.3873L34.0937 12.105L34.9863 11.593L36.7357 14.8406L35.8423 15.3518L35.7558 15.3023V25.0979Z" fill="#73A7D0"/>
<path opacity="0.8" d="M35.7558 25.0979L34.8624 25.6091L33.3921 24.7676V13.9488L32.4121 13.3873L34.0937 12.105L34.9863 11.593L36.7357 14.8406L35.8423 15.3518L35.7558 15.3023V25.0979Z" fill="white"/>
<path d="M34.8624 25.6093L33.3921 24.7678V13.949L32.4121 13.3875L34.0937 12.1051L35.8423 15.352L34.8624 14.7905V25.6093Z" fill="#73A7D0"/>
<path opacity="0.7" d="M34.8624 25.6093L33.3921 24.7678V13.949L32.4121 13.3875L34.0937 12.1051L35.8423 15.352L34.8624 14.7905V25.6093Z" fill="white"/>
<path d="M35.7547 25.0981L34.8613 25.6093V14.7905L35.7547 15.3025V25.0981Z" fill="#73A7D0"/>
<path opacity="0.5" d="M35.7547 25.0981L34.8613 25.6093V14.7905L35.7547 15.3025V25.0981Z" fill="white"/>
<path d="M15.5808 30.4142L16.4516 30.9131L17.8853 30.0917V22.7278L18.8411 22.1802L17.2016 20.9296L16.3308 20.4307L14.625 23.5972L15.4958 24.096L15.5808 24.0473V30.4142Z" fill="#455A64"/>
<path d="M16.4519 30.9131L17.8856 30.0917V22.7279L18.8413 22.1803L17.2018 20.9296L15.4961 24.0961L16.4519 23.5485V30.9131Z" fill="#37474F"/>
<path d="M15.5801 30.4141L16.4509 30.913V23.5483L15.5801 24.0472V30.4141Z" fill="#263238"/>
<path d="M12.4215 30.2476L13.074 30.6212L14.1483 30.0055V25.8947L14.8648 25.4848L13.6354 24.5474L12.9828 24.1738L11.7051 26.5467L12.3576 26.9203L12.4215 26.8839V30.2476Z" fill="#73A7D0"/>
<path opacity="0.1" d="M12.3576 26.9203L13.6354 24.5474L12.9828 24.1738L11.7051 26.5467L12.3576 26.9203Z" fill="white"/>
<path d="M13.0739 30.6213L14.1482 30.0057V25.8949L14.8646 25.4849L13.6352 24.5475L12.3574 26.9204L13.0739 26.5105V30.6213Z" fill="#73A7D0"/>
<path opacity="0.1" d="M13.0739 30.6213L14.1482 30.0057V25.8949L14.8646 25.4849L13.6352 24.5475L12.3574 26.9204L13.0739 26.5105V30.6213Z" fill="black"/>
<path opacity="0.3" d="M12.4219 30.2473L13.0744 30.6209V26.5101L12.4219 26.8836V30.2473Z" fill="black"/>
<path d="M2.50347 22.6159V12.125L2.36081 12.207L1.5625 11.7491L3.22148 8.66852L4.04551 9.14031L5.61795 10.3407L4.70349 10.8643V22.2918L3.32127 23.0838L2.50347 22.6159Z" fill="#F5F5F5"/>
<path d="M3.24353 8.7475L4.00909 9.18604L5.51371 10.3338L4.70215 10.7979L4.64524 10.8311V22.2586L3.31993 23.0181L2.55748 22.5827V12.0261L2.38441 12.1251L2.35713 12.1406L1.636 11.7275L3.24353 8.7475ZM3.19753 8.59281L1.48242 11.7747L2.35791 12.2759L2.44288 12.2272V22.6484L3.31837 23.1496L4.75828 22.3251V10.8976L5.71874 10.3477L4.07302 9.09091L3.19753 8.58972V8.59281Z" fill="#E6E6E6"/>
<path d="M3.31788 23.1495L4.7578 22.325V10.8975L5.71826 10.3476L4.07097 9.09076L2.35742 12.2727L3.31788 11.7228V23.1495Z" fill="#EBEBEB"/>
<path d="M2.44336 22.6486L3.31884 23.1497V11.723L2.44336 12.2242V22.6486Z" fill="#E0E0E0"/>
<path d="M6.28405 21.6901V14.7175L6.14918 14.7949L5.39453 14.3625L6.96308 11.4506L7.74111 11.8968L9.2278 13.0307L8.36323 13.5265V21.3845L7.05663 22.1332L6.28405 21.6901Z" fill="#F5F5F5"/>
<path d="M6.98436 11.5257L7.70783 11.9403L9.13059 13.0231L8.36347 13.4624L8.30967 13.4933V21.3514L7.05686 22.0707L6.33808 21.6592V14.621L6.17436 14.7146L6.14864 14.7293L5.46649 14.3387L6.98358 11.5226M6.9407 11.3734L5.32227 14.3836L6.14942 14.8569L6.22738 14.8113V21.7219L7.05453 22.1952L8.4157 21.4156V13.5575L9.32315 13.0378L7.76396 11.8498L6.93681 11.3764L6.9407 11.3734Z" fill="#E6E6E6"/>
<path d="M7.05784 22.1949L8.41901 21.4153V13.5572L9.32646 13.0375L7.76961 11.8495L6.15039 14.8566L7.05784 14.3368V22.1949Z" fill="#EBEBEB"/>
<path d="M6.23242 21.7221L7.05957 22.1954V14.3373L6.23242 14.8107V21.7221Z" fill="#E0E0E0"/>
<path d="M9.25536 25.3986H4.42188L4.9216 27.4652C4.9598 27.7142 5.14456 27.9579 5.47745 28.1481C6.22976 28.5789 7.44904 28.5789 8.20057 28.1481C8.55919 27.9432 8.74629 27.6771 8.76188 27.4079L9.25536 25.3986Z" fill="#37474F"/>
<path d="M8.66365 26.8155C8.76619 26.7569 8.86347 26.6896 8.95444 26.6144L9.22652 25.51C9.08528 25.6641 8.91998 25.7947 8.73693 25.8967C7.71644 26.4806 6.08163 26.4953 5.02684 25.9439L5.15002 25.452L5.11182 25.4001H4.42188L4.9216 27.466C4.9598 27.715 5.14456 27.9587 5.47745 28.1489C6.01303 28.4583 6.78561 28.5434 7.45762 28.4127C6.25314 28.5016 5.42599 27.9795 5.30204 27.4977C5.25292 27.3051 5.16639 26.879 5.16639 26.879C6.16973 27.3856 7.70241 27.3654 8.66365 26.8155Z" fill="#263238"/>
<path d="M9.5043 24.7873C9.4766 24.9212 9.42169 25.048 9.34293 25.1601C9.18477 25.3821 8.97723 25.5649 8.7364 25.6946C7.68706 26.2963 5.98443 26.2963 4.93431 25.6946C4.69373 25.5656 4.48622 25.3835 4.32779 25.1624C4.24958 25.0501 4.19497 24.9233 4.16719 24.7896C4.07364 24.3379 4.33013 23.8669 4.93509 23.5197C5.98521 22.9179 7.68784 22.9179 8.73718 23.5197C9.34137 23.8646 9.59785 24.3356 9.5043 24.7873Z" fill="#455A64"/>
<path d="M9.3437 25.1627C9.18554 25.3846 8.97801 25.5675 8.73718 25.6971C7.68784 26.2988 5.98521 26.2988 4.93509 25.6971C4.69426 25.5675 4.48672 25.3846 4.32857 25.1627C4.25036 25.0503 4.19574 24.9236 4.16797 24.7899L4.28725 25.6027C4.34182 25.9299 4.58739 26.2493 5.02552 26.4999C6.02652 27.0723 7.6473 27.0723 8.6483 26.4999C9.0802 26.2524 9.32577 25.9369 9.38424 25.6143L9.39048 25.5726L9.50586 24.7899C9.47792 24.9238 9.42274 25.0506 9.3437 25.1627Z" fill="#37474F"/>
<path d="M8.42191 23.6984C7.54642 23.1972 6.12834 23.1972 5.25363 23.6984C4.75859 23.983 4.5442 24.3659 4.60891 24.7356C4.6588 25.0194 4.87397 25.2955 5.25363 25.509C6.12834 26.0102 7.54642 26.0102 8.42191 25.509C8.80079 25.2917 9.01596 25.0156 9.06585 24.7356C9.13134 24.3659 8.91695 23.983 8.42191 23.6984Z" fill="#263238"/>
<path d="M4.75781 25.0789C4.8887 25.2585 5.05837 25.4067 5.25441 25.5128C6.12912 26.014 7.5472 26.014 8.42269 25.5128C8.61873 25.4067 8.7884 25.2585 8.91929 25.0789C8.91305 24.7788 8.71036 24.4803 8.31043 24.2514C7.49731 23.7873 6.17901 23.7873 5.36668 24.2514C4.96986 24.4803 4.76405 24.7758 4.75781 25.0789Z" fill="#FAFAFA"/>
<path d="M5.62017 17.4144L6.89637 18.6975L5.60692 17.9063C5.55535 18.3457 5.58174 18.7907 5.68488 19.2211C5.68488 19.2211 6.30855 19.7007 6.65703 20.0982L5.66071 19.5591C5.66071 19.5591 5.50479 20.2351 5.66071 21.3148C5.70281 21.5979 5.94838 22.1579 6.09573 22.5716C6.16296 22.7629 6.24318 22.9495 6.33584 23.1301L6.35299 23.1641C6.60922 23.0574 6.87428 22.9558 7.14818 22.8594C7.36023 22.5283 7.6861 21.6868 7.84981 20.9861C8.48674 18.3023 6.60246 16.4917 5.00195 15.767C5.00741 15.767 5.49232 16.5489 5.62017 17.4144Z" fill="#73A7D0"/>
<path d="M6.79006 17.672C7.04343 17.9945 7.16583 18.3936 7.24846 18.7881C7.32814 19.1855 7.36369 19.5903 7.35449 19.9954C7.34506 20.8063 7.1423 21.6036 6.76278 22.3219C6.76021 22.3264 6.7586 22.3314 6.75804 22.3366C6.75747 22.3418 6.75797 22.347 6.7595 22.352C6.76103 22.357 6.76356 22.3616 6.76693 22.3656C6.77031 22.3696 6.77446 22.3729 6.77915 22.3752C6.78845 22.3802 6.79935 22.3812 6.80943 22.3782C6.81952 22.3751 6.82798 22.3682 6.83294 22.359C7.20447 21.6261 7.39601 20.8165 7.39191 19.9962C7.39442 19.5886 7.35207 19.1819 7.26561 18.7834C7.1783 18.3897 7.04889 17.9907 6.79006 17.672Z" fill="white"/>
<path d="M11.4582 18.9738C11.4247 19.0218 10.8743 19.8084 10.0892 21.3127L8.58384 21.6994L9.72516 21.7899L9.20829 22.7954L7.7333 23.2416L8.9253 23.3236C8.9253 23.3236 8.70545 24.4907 7.91182 25.0422C7.47213 25.3461 7.271 25.3709 7.09715 25.2881C6.88432 25.1876 6.75802 24.8697 6.62939 24.3909C6.50076 23.9122 6.58106 22.9129 6.95526 21.916C7.0573 21.6488 7.19721 21.3975 7.37079 21.1696C8.37023 19.8393 10.4174 19.0512 11.4582 18.9738Z" fill="#73A7D0"/>
<path opacity="0.1" d="M11.4582 18.9738C11.4247 19.0218 10.8743 19.8084 10.0892 21.3127L8.58384 21.6994L9.72516 21.7899L9.20829 22.7954L7.7333 23.2416L8.9253 23.3236C8.9253 23.3236 8.70545 24.4907 7.91182 25.0422C7.47213 25.3461 7.271 25.3709 7.09715 25.2881C6.88432 25.1876 6.75802 24.8697 6.62939 24.3909C6.50076 23.9122 6.58106 22.9129 6.95526 21.916C7.0573 21.6488 7.19721 21.3975 7.37079 21.1696C8.37023 19.8393 10.4174 19.0512 11.4582 18.9738Z" fill="black"/>
<path d="M9.90383 19.6157C9.14606 20.0325 8.44209 20.5732 7.9143 21.2677C7.64613 21.6126 7.4341 21.997 7.28595 22.407C7.14486 22.8179 7.07295 23.2491 7.07312 23.6832C7.07229 23.6835 7.07158 23.6841 7.07108 23.6849C7.07058 23.6856 7.07031 23.6865 7.07031 23.6874C7.07031 23.6883 7.07058 23.6892 7.07108 23.6899C7.07158 23.6907 7.07229 23.6913 7.07312 23.6917C7.0734 23.6911 7.07355 23.6904 7.07355 23.6897C7.07355 23.6891 7.0734 23.6884 7.07312 23.6878C7.11539 23.2613 7.21206 22.8418 7.36079 22.4395C7.50867 22.038 7.71144 21.6585 7.96342 21.3118C8.47171 20.6157 9.15776 20.0643 9.90227 19.6273C9.90275 19.6269 9.90315 19.6264 9.90342 19.6259C9.90369 19.6254 9.90383 19.6248 9.90383 19.6242C9.90383 19.6236 9.90369 19.623 9.90342 19.6224C9.90315 19.6219 9.90275 19.6214 9.90227 19.6211C9.90309 19.6205 9.90369 19.6196 9.90397 19.6186C9.90425 19.6177 9.9042 19.6166 9.90383 19.6157Z" fill="white"/>
<path d="M2.05664 18.7089C2.20842 18.7191 2.35942 18.7384 2.50881 18.7669C3.09701 18.8842 3.66836 19.073 4.20988 19.3292C4.41102 19.4228 4.61137 19.5264 4.80783 19.6386C4.90606 19.6953 5.00325 19.7546 5.0994 19.8165C5.5742 20.1145 5.99573 20.4888 6.34675 20.924C6.50931 21.1328 6.64497 21.361 6.75058 21.6031C6.76384 21.6341 6.77865 21.665 6.79112 21.6967C6.82309 21.7787 6.85115 21.8583 6.87766 21.9372C7.1895 22.8298 7.17156 23.4292 7.09205 24.0897C7.03046 24.6017 6.80515 25.1725 6.69679 25.2622C6.682 25.274 6.66576 25.2839 6.64846 25.2916C6.49254 25.3728 6.26334 25.2994 5.84469 25.0194C5.00663 24.4594 4.76495 23.1948 4.76495 23.1948L6.00451 23.0897L4.46169 22.6503L3.90662 21.6108L5.09706 21.4964L3.52384 21.122C2.68032 19.5698 2.09406 18.7607 2.0582 18.7112L2.05664 18.7089Z" fill="#73A7D0"/>
<path d="M2.50803 18.7674C3.09623 18.8846 3.66758 19.0734 4.2091 19.3296C4.41024 19.4232 4.61059 19.5269 4.80705 19.639C4.90528 19.6957 5.00247 19.755 5.09862 19.8169C5.57342 20.1149 5.99495 20.4892 6.34597 20.9245C6.50853 21.1333 6.64419 21.3614 6.7498 21.6035C6.76306 21.6345 6.77787 21.6654 6.79034 21.6971C6.82231 21.7791 6.85037 21.8588 6.87688 21.9377C7.18872 22.8302 7.17078 23.4296 7.09127 24.0901C7.02968 24.6021 6.80438 25.1729 6.69601 25.2627C6.68122 25.2744 6.66498 25.2843 6.64768 25.292C6.6165 25.3075 6.58263 25.317 6.54789 25.3199C6.7233 24.5318 6.49721 22.4806 5.96865 21.6004C5.42293 20.6855 4.04929 19.3111 2.05664 18.7117C2.20808 18.7213 2.35881 18.7399 2.50803 18.7674Z" fill="#73A7D0"/>
<path opacity="0.2" d="M2.50803 18.7674C3.09623 18.8846 3.66758 19.0734 4.2091 19.3296C4.41024 19.4232 4.61059 19.5269 4.80705 19.639C4.90528 19.6957 5.00247 19.755 5.09862 19.8169C5.57342 20.1149 5.99495 20.4892 6.34597 20.9245C6.50853 21.1333 6.64419 21.3614 6.7498 21.6035C6.76306 21.6345 6.77787 21.6654 6.79034 21.6971C6.82231 21.7791 6.85037 21.8588 6.87688 21.9377C7.18872 22.8302 7.17078 23.4296 7.09127 24.0901C7.02968 24.6021 6.80438 25.1729 6.69601 25.2627C6.68122 25.2744 6.66498 25.2843 6.64768 25.292C6.6165 25.3075 6.58263 25.317 6.54789 25.3199C6.7233 24.5318 6.49721 22.4806 5.96865 21.6004C5.42293 20.6855 4.04929 19.3111 2.05664 18.7117C2.20808 18.7213 2.35881 18.7399 2.50803 18.7674Z" fill="black"/>
<path d="M6.55583 25.3196C6.64326 24.7333 6.654 24.1383 6.58779 23.5492C6.52887 22.9567 6.3771 22.3768 6.13796 21.8307C5.8807 21.2893 5.48466 20.8252 5.05666 20.4122C4.62129 20.0042 4.13283 19.6559 3.60428 19.3766C3.60324 19.3759 3.60202 19.3755 3.60077 19.3755C3.59952 19.3755 3.5983 19.3759 3.59726 19.3766C3.59678 19.3769 3.59639 19.3774 3.59611 19.3779C3.59584 19.3785 3.5957 19.3791 3.5957 19.3797C3.5957 19.3803 3.59584 19.3808 3.59611 19.3814C3.59639 19.3819 3.59678 19.3824 3.59726 19.3827C4.09642 19.7012 4.56163 20.0692 4.98572 20.481C5.1994 20.6837 5.39867 20.9007 5.58211 21.1307C5.77006 21.3559 5.93193 21.6013 6.06468 21.8624C6.30809 22.3985 6.46589 22.9689 6.53244 23.5531C6.61182 24.1381 6.61444 24.7309 6.54023 25.3165C6.54023 25.3165 6.54023 25.3212 6.54023 25.3219C6.54054 25.324 6.54166 25.3258 6.54334 25.3271C6.54503 25.3283 6.54713 25.3288 6.5492 25.3285C6.55127 25.3282 6.55313 25.3271 6.55437 25.3254C6.55561 25.3238 6.55614 25.3217 6.55583 25.3196Z" fill="white"/>
<path d="M20.1714 1.42131C20.5269 1.21713 21.0188 1.24652 21.5622 1.55744C22.6474 2.17618 23.5276 3.69134 23.5268 4.93502C23.5268 5.55919 23.3054 5.99695 22.9475 6.19959C22.854 6.25218 22.4798 6.47725 22.3839 6.53139C22.0284 6.73558 21.5373 6.70619 20.9947 6.39527C19.9087 5.77652 19.0293 4.26136 19.0293 3.01768C19.0293 2.39893 19.2491 1.95962 19.6046 1.75621" fill="#73A7D0"/>
<path opacity="0.5" d="M20.1714 1.42131C20.5269 1.21713 21.0188 1.24652 21.5622 1.55744C22.6474 2.17618 23.5276 3.69134 23.5268 4.93502C23.5268 5.55919 23.3054 5.99695 22.9475 6.19959C22.854 6.25218 22.4798 6.47725 22.3839 6.53139C22.0284 6.73558 21.5373 6.70619 20.9947 6.39527C19.9087 5.77652 19.0293 4.26136 19.0293 3.01768C19.0293 2.39893 19.2491 1.95962 19.6046 1.75621" fill="white"/>
<path opacity="0.2" d="M23.2395 3.59717C23.4197 4.02029 23.5168 4.47364 23.5257 4.93289L20.9935 6.39313C20.5971 6.15574 20.2499 5.84545 19.9707 5.47893L23.2395 3.59717Z" fill="white"/>
<path opacity="0.3" d="M19.9718 5.47875C19.4066 4.75945 19.0293 3.82979 19.0293 3.01536C19.0293 2.39661 19.2491 1.9573 19.6046 1.75389L20.1714 1.42131C20.5269 1.21713 21.0188 1.24652 21.5622 1.55744C22.2724 1.96504 22.8953 2.75394 23.2407 3.5993L19.9718 5.47875Z" fill="white"/>
<path d="M20.9947 1.88927C22.0799 2.51189 22.96 4.02318 22.96 5.26686C22.96 6.51054 22.0799 7.01482 20.9947 6.39298C19.9095 5.77114 19.0277 4.25907 19.0293 3.01539C19.0309 1.77171 19.9102 1.26666 20.9947 1.88927Z" fill="#73A7D0"/>
<path d="M20.9918 2.45246C21.8057 2.91652 22.466 4.05269 22.466 4.98622C22.466 5.91976 21.8057 6.30106 20.9918 5.83082C20.1779 5.36057 19.5176 4.22981 19.5176 3.29705C19.5176 2.36428 20.1795 1.9853 20.9918 2.45246Z" fill="#FAFAFA"/>
<path d="M20.9943 2.96801C21.5619 3.29285 22.0218 4.0833 22.0218 4.73376C22.0218 5.38422 21.5611 5.64719 20.9943 5.32157C20.4275 4.99595 19.9668 4.20551 19.9668 3.55273C19.9668 2.89995 20.4268 2.63853 20.9943 2.96801Z" fill="#73A7D0"/>
<path d="M20.9929 3.48929C21.1584 3.59647 21.2961 3.74084 21.3949 3.9107C21.4936 4.08056 21.5506 4.27111 21.5613 4.46691C21.5613 4.82656 21.3071 4.97274 20.9929 4.79253C20.8278 4.68582 20.6903 4.54209 20.5914 4.37295C20.4925 4.2038 20.4351 4.01397 20.4238 3.81877C20.4238 3.45526 20.6788 3.30986 20.9929 3.48929Z" fill="#FAFAFA"/>
<path d="M20.994 3.86606C21.0639 3.91124 21.122 3.9721 21.1637 4.04372C21.2054 4.11534 21.2296 4.1957 21.2341 4.2783C21.2341 4.43298 21.1266 4.49177 20.994 4.41597C20.9242 4.37079 20.866 4.30992 20.8243 4.2383C20.7826 4.16668 20.7585 4.08632 20.7539 4.00373C20.7539 3.85214 20.8615 3.79026 20.994 3.86606Z" fill="#73A7D0"/>
<path d="M18.2332 5.72345C18.2332 5.72345 18.1849 6.32441 17.905 6.48451C17.6252 6.64461 17.4739 6.15812 17.6548 6.05448L18.2332 5.72345Z" fill="#37474F"/>
<path d="M18.2327 5.72355C18.2327 5.72355 17.687 5.46445 17.4048 5.62455C17.1226 5.78465 17.4734 6.15822 17.6543 6.05458L18.2327 5.72355Z" fill="#455A64"/>
<path d="M20.4146 4.54541L17.2464 6.36066L17.1855 6.25393L20.424 4.39923L20.4146 4.54541Z" fill="#263238"/>
<path d="M17.3201 6.13404C17.3511 6.15178 17.3761 6.17824 17.3919 6.21007C17.4077 6.24189 17.4137 6.27766 17.409 6.31284C17.4043 6.34802 17.3893 6.38104 17.3657 6.40772C17.3421 6.4344 17.3111 6.45355 17.2765 6.46274C17.242 6.47193 17.2055 6.47075 17.1716 6.45935C17.1377 6.44795 17.108 6.42685 17.0862 6.3987C17.0645 6.37056 17.0516 6.33664 17.0492 6.30123C17.0469 6.26582 17.0551 6.23052 17.073 6.19978C17.0849 6.17936 17.1007 6.16146 17.1195 6.1471C17.1384 6.13274 17.1599 6.12221 17.1829 6.11611C17.2058 6.11 17.2297 6.10844 17.2533 6.11152C17.2769 6.1146 17.2996 6.12225 17.3201 6.13404Z" fill="#263238"/>
<path d="M20.3511 4.50766C20.2357 4.66235 20.4454 4.92222 20.4454 4.92222L20.9911 4.14105L20.3511 4.50766Z" fill="#73A7D0"/>
<path d="M20.3511 4.50766C20.2357 4.66235 20.4454 4.92222 20.4454 4.92222L20.9911 4.14105L20.3511 4.50766Z" fill="#37474F"/>
<path d="M20.0332 4.21994C20.0332 4.21994 20.1572 4.52932 20.345 4.50766L20.9859 4.14105L20.0332 4.21994Z" fill="#455A64"/>
<path d="M22.1172 6.51449C22.2367 6.70639 22.4005 6.86732 22.5951 6.98396C22.8121 7.10947 23.0604 7.17167 23.3115 7.1634C23.3232 7.16342 23.3348 7.16049 23.345 7.15489C23.3832 7.13169 23.9025 6.83623 23.9118 6.83082C23.9217 6.8252 23.9299 6.81709 23.9356 6.80731C23.9413 6.79753 23.9443 6.78643 23.9443 6.77513C23.9443 6.76383 23.9413 6.75273 23.9356 6.74296C23.9299 6.73318 23.9217 6.72507 23.9118 6.71945C23.7468 6.6305 23.6061 6.50291 23.502 6.34777C23.3979 6.19263 23.3336 6.01463 23.3146 5.82922L22.1172 6.51449Z" fill="#73A7D0"/>
<path opacity="0.3" d="M22.1172 6.51449C22.2367 6.70639 22.4005 6.86732 22.5951 6.98396C22.8121 7.10947 23.0604 7.17167 23.3115 7.1634C23.3232 7.16342 23.3348 7.16049 23.345 7.15489C23.3832 7.13169 23.9025 6.83623 23.9118 6.83082C23.9217 6.8252 23.9299 6.81709 23.9356 6.80731C23.9413 6.79753 23.9443 6.78643 23.9443 6.77513C23.9443 6.76383 23.9413 6.75273 23.9356 6.74296C23.9299 6.73318 23.9217 6.72507 23.9118 6.71945C23.7468 6.6305 23.6061 6.50291 23.502 6.34777C23.3979 6.19263 23.3336 6.01463 23.3146 5.82922L22.1172 6.51449Z" fill="white"/>
<path d="M22.7531 5.86945C22.7186 6.10143 22.7567 6.33834 22.8622 6.54816C22.9678 6.75799 23.1357 6.93062 23.3433 7.04275C23.3554 7.04998 23.3649 7.06093 23.3702 7.07395C23.3756 7.08698 23.3765 7.10137 23.3729 7.11497C23.3693 7.12857 23.3614 7.14064 23.3503 7.14937C23.3392 7.15811 23.3255 7.16303 23.3113 7.1634C23.06 7.17153 22.8115 7.10935 22.5941 6.98396C22.0866 6.66454 22.0234 6.28787 22.0234 6.28787L22.7531 5.86945Z" fill="#73A7D0"/>
<path d="M31.5304 25.9579C31.426 25.6563 31.3698 24.9161 31.2638 24.1171L29.668 24.4977C29.668 24.4977 30.2753 26.3307 30.3486 26.5125C30.4694 26.8118 31.5304 25.9579 31.5304 25.9579Z" fill="#FFBDA7"/>
<path d="M31.8991 26.3451C31.8712 26.2081 31.8108 26.0798 31.7229 25.9707C31.6869 25.9307 31.6489 25.8925 31.6091 25.8563C31.5718 25.8014 31.5429 25.7415 31.5233 25.6784C31.5141 25.655 31.5015 25.6331 31.4859 25.6134C31.4574 25.5843 31.4207 25.5646 31.3806 25.5569C31.206 25.5105 31.0212 25.5569 30.8536 25.6242C30.6222 25.7061 30.4129 25.84 30.2424 26.0156C30.2143 26.0428 30.1948 26.0776 30.1863 26.1156C30.1779 26.1537 30.1808 26.1934 30.1949 26.2298C30.2276 26.3667 30.3508 26.9112 30.3453 27.0419C30.3525 27.2179 30.3245 27.3935 30.2627 27.5586C30.2438 27.6118 30.2209 27.6635 30.1941 27.7133C30.1773 27.7449 30.1522 27.7714 30.1214 27.79C30.0907 27.8087 30.0555 27.8188 30.0195 27.8192C29.8234 27.8229 29.6307 27.8696 29.455 27.9561C29.3682 27.9931 29.2969 28.0587 29.2532 28.1419C29.2096 28.2251 29.1964 28.3207 29.2157 28.4125C29.2157 28.4125 29.25 28.6298 29.5782 28.8232C29.7661 28.9338 30.2097 29.0637 30.4864 28.9778C30.5059 28.9701 30.5239 28.9639 30.5418 28.9554C30.8451 28.8139 31.595 28.4457 31.602 28.3908C31.602 28.3908 31.602 28.3846 31.602 28.3815C31.6161 28.2036 31.634 28.0265 31.6519 27.8494C31.6657 27.717 31.6863 27.5853 31.7135 27.4549C31.726 27.3985 31.7361 27.342 31.7447 27.2832C31.7829 27.0466 31.9022 26.3745 31.8991 26.3451Z" fill="#455A64"/>
<path d="M32.0013 26.4644C32.133 26.5286 32.0286 26.9447 31.914 27.2378C31.7752 27.592 31.7175 27.6477 31.737 27.9579C31.7565 28.268 31.7643 28.4629 31.6349 28.5658C31.5055 28.6687 30.5762 29.1172 30.5762 29.1172C30.7367 28.7566 30.8396 28.3732 30.881 27.9811C30.959 27.3028 31.0369 26.8681 31.3667 26.5827C31.6965 26.2973 32.0013 26.4644 32.0013 26.4644Z" fill="black"/>
<path d="M29.2168 28.4135C29.2168 28.4135 29.3883 28.7685 30.0603 28.9039C30.4867 28.9898 30.6957 28.791 30.7487 28.2635C30.8064 27.6912 30.8812 26.985 31.1065 26.6803C31.3318 26.3755 31.6717 26.2796 31.9001 26.3384C31.961 26.3693 32.0072 26.4226 32.0288 26.4869C32.0288 26.4869 31.7692 26.3067 31.4051 26.6122C31.1127 26.8589 31.034 27.4754 30.9818 27.9951C30.9295 28.5149 30.8602 29.1166 30.454 29.1483C30.0478 29.18 29.5146 28.9805 29.2659 28.7299C29.2258 28.6886 29.1996 28.6361 29.1908 28.5794C29.182 28.5228 29.1911 28.4649 29.2168 28.4135Z" fill="#37474F"/>
<path d="M30.2237 27.6404C30.207 27.6505 30.1925 27.6637 30.181 27.6794C30.1695 27.695 30.1612 27.7128 30.1567 27.7316C30.1498 27.7858 30.1578 27.8408 30.1798 27.8909C30.2017 27.941 30.2368 27.9843 30.2814 28.0163C30.3336 28.0526 30.3812 28.0441 30.3024 27.9273C30.2518 27.84 30.2247 27.7412 30.2237 27.6404Z" fill="#FAFAFA"/>
<path d="M30.3265 27.3307C30.3035 27.3507 30.2883 27.3781 30.2836 27.408C30.2774 27.456 30.3475 27.6579 30.4395 27.7089C30.5315 27.7599 30.4878 27.6486 30.4481 27.5944C30.4011 27.5096 30.3604 27.4214 30.3265 27.3307Z" fill="#FAFAFA"/>
<path d="M30.342 26.9529C30.3249 26.9879 30.3199 27.0277 30.328 27.0658C30.3812 27.1447 30.4607 27.2025 30.5525 27.229C30.6133 27.229 30.6383 27.1957 30.558 27.1517C30.4948 27.1168 30.3608 27.0101 30.342 26.9529Z" fill="#FAFAFA"/>
<path d="M31.1473 12.6796C31.2611 13.4051 31.3126 13.9504 31.1832 15.7641C31.1255 16.5623 30.8838 19.9994 30.8838 19.9994C31.0949 20.7229 31.2197 21.4684 31.2557 22.2207C31.3024 23.4744 31.3968 25.0143 31.3968 25.0143C31.3968 25.0143 31.1309 24.8372 30.6086 24.9857C30.3401 25.0729 30.1046 25.2391 29.9335 25.4622C29.9335 25.4622 29.2739 23.5549 28.895 22.1813C28.6308 21.2207 28.4491 20.9043 28.3025 19.5864C28.1225 17.9668 27.8286 15.6922 27.8286 15.6922L26.9258 12.6812L31.1473 12.6796Z" fill="#37474F"/>
<path d="M28.8717 16.4835C28.3751 16.9181 28.2682 17.2809 28.2417 17.5415C28.2152 17.8022 28.3704 20.1155 28.3704 20.1248C28.3478 19.9662 28.3252 19.7891 28.3025 19.5834C28.1225 17.9654 27.8293 15.6922 27.8286 15.6891L26.9258 12.6782H29.7846L29.5429 14.406C29.6154 15.1501 29.3675 16.0488 28.8717 16.4835Z" fill="#263238"/>
<path d="M25.6577 25.0618C25.6935 25.2165 25.7356 25.3364 25.5906 25.5259C25.4456 25.7154 25.1307 25.8136 24.818 25.8043C24.5939 25.7942 24.3802 25.7075 24.2131 25.5591C24.0322 25.4199 23.9059 25.2985 23.8381 25.2412C23.7703 25.184 23.5013 25.1105 23.2456 25.0595C22.9774 25.0061 22.4598 24.8947 22.197 24.5134C21.9343 24.1321 21.9795 23.7996 21.9795 23.7996L25.6577 25.0618Z" fill="#263238"/>
<path d="M23.683 23.5551C24.2326 23.743 25.0683 23.8575 25.5665 23.9882C25.7161 24.1267 25.6842 24.7532 25.6857 25.1754C25.4947 25.6101 24.8843 25.7215 24.4797 25.5475C24.27 25.433 24.1297 25.2714 23.9239 25.1461C23.7588 25.0551 23.5792 24.9928 23.393 24.962C23.1774 24.9131 22.9654 24.8498 22.7584 24.7725C22.2181 24.5265 21.9491 24.0702 21.9788 23.6997C22.0068 23.3749 22.2228 23.1452 22.7584 23.2256C23.0016 23.2612 23.3049 23.4267 23.683 23.5551Z" fill="#455A64"/>
<path d="M24.2461 23.6956C24.1487 23.5695 23.9608 23.6437 23.8142 23.8216C23.6677 23.9995 23.6287 24.2857 23.6466 24.3391C23.6646 24.3924 23.7347 24.435 23.755 24.3615C23.7753 24.288 23.8104 24.0374 23.9265 23.885C23.9972 23.7916 24.0952 23.7219 24.2072 23.6855L24.2461 23.6956Z" fill="#E0E0E0"/>
<path d="M23.551 23.5069C23.4629 23.3792 23.2493 23.4403 23.098 23.6043C22.9468 23.7683 22.8984 23.9864 22.9125 24.0382C22.9265 24.09 22.9904 24.1364 23.0169 24.066C23.0578 23.9207 23.1264 23.7844 23.2188 23.6646C23.2952 23.5768 23.3989 23.5167 23.5135 23.4937L23.551 23.5069Z" fill="#E0E0E0"/>
<path d="M23.8639 23.6114C23.7758 23.4838 23.5903 23.5465 23.4383 23.7104C23.3206 23.848 23.2536 24.0212 23.248 24.2015C23.2621 24.2534 23.326 24.2998 23.3517 24.2286C23.3775 24.1575 23.4235 23.9192 23.5435 23.7777C23.6172 23.691 23.716 23.6289 23.8265 23.5998L23.8639 23.6114Z" fill="#E0E0E0"/>
<path d="M25.5853 23.5549C25.5853 23.5726 25.5627 24.1334 25.5627 24.1334C25.5627 24.1334 25.5112 24.353 25.0209 24.4149C24.5305 24.4768 24.1727 24.2927 24.0791 24.1628C24.0791 24.1628 24.0191 23.5819 23.9902 23.3398L25.5853 23.5549Z" fill="#FFBDA7"/>
<path d="M29.7821 13.9969C29.7283 14.8322 29.3712 15.9127 28.1566 16.7279C27.6031 17.1533 27.2008 17.5787 26.7424 18.0311C26.1741 18.5895 25.7742 18.9283 25.7742 18.9283C25.8622 19.5855 25.8898 20.2492 25.8568 20.9114C25.803 22.0452 25.598 23.548 25.598 23.548C25.3332 23.7337 25.0104 23.8198 24.6874 23.7909C24.1549 23.7398 23.9632 23.5418 23.9632 23.5418C23.9632 23.5418 23.4362 20.0436 23.3644 19.3521C23.2927 18.6607 23.1578 18.2693 23.7542 17.1517C24.222 16.2863 26.2739 12.6813 26.2739 12.6813H29.7821V13.9969Z" fill="#37474F"/>
<path d="M19.1944 14.0166L17.6735 16.4359C17.6637 16.4513 17.6592 16.4693 17.6603 16.4875C17.6615 16.5056 17.6684 16.5229 17.6801 16.5369C17.6917 16.5509 17.7075 16.561 17.7252 16.5656C17.7429 16.5702 17.7616 16.5692 17.7787 16.5627L20.4847 15.5573L19.1944 14.0166Z" fill="#FFA8A7"/>
<path d="M17.7787 16.5627C17.7616 16.5692 17.7429 16.5702 17.7252 16.5656C17.7075 16.5609 17.6917 16.5509 17.6801 16.5369C17.6684 16.5229 17.6615 16.5056 17.6603 16.4874C17.6592 16.4693 17.6637 16.4513 17.6735 16.4359L17.9705 15.9633C17.9873 16.05 18.0278 16.1304 18.0877 16.1957C18.1475 16.2611 18.2243 16.3088 18.3096 16.3338L18.3572 16.3469L17.7787 16.5627Z" fill="#263238"/>
<path d="M33.4931 5.01234L33.2873 5.17941L33.0394 5.38205L20.4879 15.5558C20.1644 15.5321 19.862 15.3878 19.6413 15.1521C19.2943 14.8087 19.1026 14.3229 19.1985 14.0174L31.7499 3.84833L32.2247 3.46161C31.9269 3.72922 33.1953 5.27531 33.4931 5.01234Z" fill="#73A7D0"/>
<path d="M32.7102 5.65051L32.2502 6.0233C32.12 6.13545 31.8027 5.92276 31.5049 5.62112C31.1089 5.22203 30.8095 4.61565 30.981 4.46793L31.3202 4.19259L31.4433 4.09668C31.2711 4.24518 31.5704 4.85078 31.9665 5.25064C32.2518 5.53913 32.5574 5.74641 32.6954 5.66134C32.7014 5.65948 32.7066 5.65567 32.7102 5.65051Z" fill="#EBEBEB"/>
<path d="M32.5947 5.74248C32.2938 6.0039 31.0262 4.4493 31.3271 4.18788L31.7832 3.81354C31.4822 4.07573 32.7499 5.62956 33.0508 5.36814L32.5947 5.74248Z" fill="#73A7D0"/>
<path d="M33.4943 5.01226L33.0406 5.38196C32.7467 5.64029 31.511 4.15066 31.7464 3.84824C31.7507 3.84227 31.7557 3.83682 31.7612 3.832L32.2212 3.46307C31.9281 3.72914 33.1965 5.27523 33.4943 5.01226Z" fill="#EBEBEB"/>
<path opacity="0.15" d="M17.6855 16.5413L17.6738 16.4361L19.449 14.9348L32.5189 4.34574C32.4963 4.31558 32.5002 4.30011 32.5251 4.29547C32.8557 4.7402 33.3265 5.1594 33.4934 5.01244L33.2876 5.17951L33.0397 5.38215L20.4882 15.5559L17.7822 16.5614C17.766 16.5684 17.7479 16.5703 17.7306 16.5667C17.7133 16.5631 17.6975 16.5542 17.6855 16.5413Z" fill="black"/>
<path d="M35.4168 3.44551L33.4904 5.01249C33.3634 5.12464 33.0476 4.91658 32.7506 4.61881C32.353 4.22049 32.049 3.61335 32.2174 3.4633L34.1507 1.89246C34.5366 1.58308 35.2695 2.27918 35.4885 2.8724C35.5735 3.09128 35.5681 3.30088 35.4168 3.44551Z" fill="#F28F8F"/>
<path opacity="0.1" d="M34.7453 3.32778C34.3345 3.0447 34.0289 2.5033 34.0632 2.1336C34.0639 2.07715 34.0785 2.02174 34.1056 1.97214C34.1328 1.92255 34.1717 1.88027 34.2191 1.84897C34.6175 1.65407 35.2848 2.30839 35.4922 2.8699C35.574 3.08647 35.5701 3.2922 35.4267 3.43683C35.2793 3.55362 35.0244 3.52268 34.7453 3.32778Z" fill="black"/>
<path d="M29.725 6.4263C29.541 6.27162 29.4381 5.7859 29.5309 5.52061C29.6237 5.25533 29.9986 4.62884 30.0485 3.87011C30.0984 3.11137 29.0701 1.9489 28.1837 2.04016C27.2973 2.13143 26.8257 2.61792 26.5871 3.27766C26.4421 3.67829 26.5528 3.73398 26.4967 3.96369C26.3868 4.4177 26.28 5.03799 26.4772 5.64359C26.5188 5.77622 26.5969 5.8947 26.7027 5.9857C26.8084 6.0767 26.9377 6.13661 27.0759 6.1587C27.2646 6.19591 27.4582 6.20218 27.6489 6.17726C27.6609 6.37323 27.6625 6.5697 27.6536 6.76584C27.6518 6.83341 27.6244 6.89781 27.5768 6.94624C27.5293 6.99467 27.4652 7.0236 27.3971 7.02726C27.3971 7.02726 29.9129 6.58099 29.725 6.4263Z" fill="#FFBDA7"/>
<path d="M27.1367 5.18593C27.159 5.25229 27.2062 5.30753 27.2686 5.34009C27.331 5.37266 27.4036 5.38001 27.4713 5.36062C27.539 5.34122 27.5966 5.29658 27.6319 5.23605C27.6671 5.17552 27.6774 5.10379 27.6606 5.03589L27.1367 5.18593Z" fill="#B16668"/>
<path d="M27.3398 5.3738C27.3654 5.30608 27.4098 5.24694 27.4679 5.20326C27.526 5.15959 27.5954 5.13317 27.6681 5.12708C27.6662 5.166 27.6558 5.20405 27.6375 5.23853C27.6192 5.27301 27.5934 5.30308 27.5621 5.32662C27.5308 5.35015 27.4947 5.36658 27.4563 5.37473C27.4179 5.38288 27.3781 5.38257 27.3398 5.3738Z" fill="#F28F8F"/>
<path d="M27.701 4.15182C27.6949 4.16959 27.6924 4.18838 27.6937 4.20712C27.6949 4.22586 27.6999 4.24416 27.7083 4.26099C27.7167 4.27781 27.7284 4.29282 27.7426 4.30514C27.7569 4.31747 27.7735 4.32687 27.7915 4.3328C27.8191 4.34275 27.8492 4.34425 27.8777 4.33712C27.9062 4.32998 27.932 4.31454 27.9516 4.29277C27.9712 4.271 27.9838 4.2439 27.9877 4.21497C27.9917 4.18604 27.9868 4.1566 27.9737 4.13045C27.9606 4.10429 27.94 4.08262 27.9144 4.06822C27.8888 4.05382 27.8594 4.04735 27.8301 4.04965C27.8008 4.05195 27.7728 4.06291 27.7498 4.08112C27.7268 4.09933 27.7098 4.12395 27.701 4.15182Z" fill="#263238"/>
<path d="M27.7109 3.62714L28.0345 3.74934C28.0501 3.70549 28.048 3.65734 28.0287 3.61496C28.0094 3.57258 27.9743 3.53925 27.9308 3.52195C27.9094 3.51395 27.8867 3.51033 27.8638 3.51133C27.841 3.51233 27.8187 3.51792 27.7981 3.52775C27.7776 3.53759 27.7592 3.55148 27.7442 3.56856C27.7292 3.58565 27.7179 3.60558 27.7109 3.62714Z" fill="#263238"/>
<path d="M26.6371 3.70404L26.9622 3.57797C26.955 3.55652 26.9435 3.53676 26.9283 3.51988C26.9131 3.50301 26.8947 3.48938 26.874 3.47982C26.8534 3.47027 26.831 3.46499 26.8082 3.46431C26.7854 3.46363 26.7627 3.46756 26.7416 3.47587C26.698 3.49334 26.6628 3.52677 26.6434 3.56924C26.6239 3.61171 26.6217 3.65997 26.6371 3.70404Z" fill="#263238"/>
<path d="M26.7032 4.08435C26.7042 4.10967 26.7128 4.13412 26.7278 4.15465C26.7427 4.17518 26.7635 4.19089 26.7874 4.19982C26.8113 4.20874 26.8373 4.2105 26.8622 4.20485C26.8871 4.19921 26.9098 4.18643 26.9274 4.16809C26.9451 4.14975 26.9569 4.12667 26.9614 4.10173C26.9659 4.07678 26.9629 4.05107 26.9528 4.0278C26.9427 4.00453 26.9259 3.98472 26.9045 3.97084C26.8831 3.95697 26.8581 3.94964 26.8326 3.94977C26.8152 3.95017 26.798 3.95397 26.7821 3.96095C26.7662 3.96793 26.7518 3.97796 26.7398 3.99046C26.7277 4.00295 26.7183 4.01768 26.712 4.03379C26.7058 4.0499 26.7027 4.06708 26.7032 4.08435Z" fill="#263238"/>
<path d="M26.5918 4.71654L27.097 4.94084L27.2568 3.95703C27.0689 3.88974 26.8249 4.34143 26.5918 4.71654Z" fill="#F0997A"/>
<path d="M27.6523 6.17495C27.6523 6.17495 28.1318 6.1038 28.2674 6.02723C28.6362 5.8184 28.7703 5.65753 28.8521 5.42859C28.8275 5.58471 28.7649 5.73253 28.6698 5.85932C28.5748 5.98611 28.45 6.08806 28.3064 6.15639C28.0982 6.24357 27.8813 6.3089 27.6594 6.3513L27.6523 6.17495Z" fill="#F0997A"/>
<path d="M30.2666 3.48185C30.2432 3.31267 30.1604 3.15711 30.0327 3.04254C30.0128 3.0267 29.99 3.01464 29.9657 3.00697C30.0795 2.30237 29.5322 2.01542 29.2492 1.96824C29.1177 1.95133 28.9874 1.92549 28.8594 1.8909C28.8266 1.87953 28.7954 1.86393 28.7667 1.8445C28.6786 1.78417 28.631 1.69677 28.5328 1.62484C28.3106 1.46165 27.9559 1.48175 27.8389 1.75942C27.6869 1.58849 27.4975 1.60473 27.2815 1.67666C27.2218 1.69387 27.1675 1.72581 27.1236 1.76949C27.0797 1.81318 27.0477 1.86719 27.0305 1.92648C27.0138 1.9883 27.0112 2.05301 27.0227 2.11597C26.973 2.08974 26.9182 2.07412 26.862 2.07013C26.8058 2.06614 26.7494 2.07387 26.6964 2.09281C26.6434 2.11175 26.5949 2.14149 26.5542 2.18011C26.5135 2.21873 26.4813 2.26538 26.4598 2.31706C26.4538 2.33406 26.4499 2.35172 26.4482 2.36966C26.447 2.38898 26.447 2.40835 26.4482 2.42766C26.4482 2.53053 26.4614 2.62102 26.3983 2.7208C26.385 2.74185 26.3684 2.76065 26.3491 2.77648C26.3312 2.7951 26.3095 2.80972 26.2854 2.81937C26.2613 2.82902 26.2354 2.83348 26.2095 2.83246C26.1835 2.83144 26.1581 2.82495 26.1349 2.81343C26.1116 2.80192 26.0911 2.78563 26.0747 2.76566C26.0568 2.94664 26.1363 3.07503 26.332 3.05569C26.302 3.10775 26.284 3.16574 26.2793 3.22552C26.2746 3.2853 26.2832 3.34537 26.3047 3.40142C26.3234 3.44929 26.3522 3.49263 26.3891 3.52853C26.4261 3.56442 26.4704 3.59202 26.5191 3.60947C26.5286 3.49593 26.5548 3.38439 26.5971 3.27844C26.6243 3.2011 26.6555 3.12994 26.689 3.05801C26.8176 3.11252 26.9529 3.14972 27.0913 3.16861C27.5953 3.25294 28.1127 3.20248 28.5905 3.02243C28.5175 3.18628 28.4633 3.35778 28.4291 3.53367C28.4169 3.61195 28.4225 3.69194 28.4454 3.76781C28.4683 3.84367 28.508 3.91351 28.5616 3.97221C28.6131 4.01939 28.5944 4.10447 28.5811 4.16325C28.5555 4.23466 28.5408 4.30949 28.5375 4.38523C28.538 4.3963 28.5401 4.40724 28.5437 4.41771C28.55 4.43557 28.5602 4.45177 28.5737 4.46511C28.5873 4.47844 28.6036 4.48854 28.6217 4.49465C28.6397 4.50077 28.6589 4.50273 28.6778 4.50038C28.6967 4.49804 28.7148 4.49146 28.7308 4.48113C28.7842 4.42958 28.8264 4.36772 28.8548 4.29937C29.031 3.93741 29.4106 3.92813 29.5658 4.10911C29.7209 4.29009 29.7139 4.47726 29.5658 4.8052C29.466 5.02331 29.2375 5.13082 29.0676 5.06043C29.0366 5.04767 29.0084 5.02931 28.9842 5.00629C28.9795 5.14706 29.0161 5.33346 29.1619 5.43787C29.2721 5.50543 29.4019 5.53455 29.5307 5.52063C29.5751 5.39301 29.6866 5.18341 29.7911 4.91503C29.869 4.78122 29.947 4.65129 30.0132 4.52831C30.0343 4.48964 30.053 4.45097 30.0694 4.4123C30.2245 4.0627 30.3079 3.79587 30.2666 3.48185Z" fill="#263238"/>
<path d="M30.0254 6.46686C30.9609 6.38101 31.3632 6.69889 31.5978 6.97191C31.8325 7.24494 32.8904 8.98284 33.3129 9.96278C33.4837 10.3596 33.5788 10.672 33.2132 11.0293C32.8234 11.4099 31.0248 12.9204 31.0248 12.9204L30.3653 11.8925L31.6212 10.2528L30.5298 8.47392L30.0254 6.46686Z" fill="#37474F"/>
<path d="M30.5526 6.60329C31.0258 6.83532 31.3548 7.7704 31.3969 8.48118C31.4296 9.03419 31.3065 9.75812 31.2277 10.7922C31.1921 11.2629 31.1877 11.7355 31.2145 12.2068C31.2394 12.6956 31.2807 13.5541 31.2807 13.5541C31.2807 13.5541 30.813 14.4939 29.1275 14.6594C26.6757 14.9007 25.6973 13.7057 25.6973 13.7057C25.6973 13.7057 25.8672 13.1643 25.8867 11.1534C25.9015 9.64984 25.7487 8.19888 26.0481 7.66289C26.1775 7.48423 26.1767 7.30711 26.5158 7.18182C26.7497 7.09519 27.8139 6.83764 28.231 6.74869C29.6217 6.45401 30.0575 6.3612 30.5526 6.60329Z" fill="#455A64"/>
<path d="M27.4181 6.94945C27.6318 7.00359 27.73 7.05542 28.0535 7.12657C28.514 7.23991 29.0001 7.18699 29.4248 6.9773C29.8216 6.77388 29.8926 6.50318 29.8926 6.50318C29.8926 6.50318 29.725 6.2085 29.6587 6.11183C29.5924 6.01515 29.5285 6.0252 29.5285 6.0252L29.5574 6.13735C29.5574 6.13735 29.5574 6.32452 29.1013 6.43821C28.6335 6.555 27.8781 6.56428 27.6614 6.50009V6.43744C27.5491 6.46683 27.5133 6.54882 27.3862 6.72052C27.3075 6.82666 27.2229 6.9284 27.1328 7.02525L27.4181 6.94945Z" fill="#37474F"/>
<path d="M21.1917 13.0664C20.7808 13.1639 20.5883 13.3069 20.3879 13.3301C20.2705 13.3442 20.1521 13.348 20.034 13.3417L19.6582 13.6418C19.6582 13.6418 19.7362 12.9945 19.8476 12.7516C19.9591 12.5088 20.0605 12.6542 20.1361 12.5041C20.2117 12.3541 20.1938 12.2466 20.3567 12.1886C20.5197 12.1306 20.483 11.9813 20.7348 11.9356C20.9866 11.89 21.99 12.0362 21.99 12.0362L21.1917 13.0664Z" fill="#FFA8A7"/>
<path d="M26.5712 7.16339C25.5265 7.39542 25.2646 7.65916 24.7695 8.58806C24.2129 9.63219 23.5292 10.9648 23.5292 10.9648C23.5292 10.9648 22.1088 11.5325 21.2629 11.8326C20.9893 11.9301 20.4701 13.2078 20.9222 13.2379C20.9222 13.2379 23.2423 12.8365 23.9291 12.7043C24.7547 12.5449 24.8857 12.3794 25.3324 11.7042C25.7791 11.029 26.7949 9.10703 26.7949 9.10703C26.7949 9.10703 27.2751 7.7017 26.5712 7.16339Z" fill="#37474F"/>
</svg>
