<svg width="38" height="36" viewBox="0 0 38 36" fill="none" xmlns="http://www.w3.org/2000/svg">
<path d="M19.3492 35.6274C29.6536 35.6274 38.007 35.1393 38.007 34.5373C38.007 33.9352 29.6536 33.4471 19.3492 33.4471C9.04478 33.4471 0.691406 33.9352 0.691406 34.5373C0.691406 35.1393 9.04478 35.6274 19.3492 35.6274Z" fill="white"/>
<path d="M32.0788 4.58502C32.0912 4.42983 32.071 4.27377 32.0196 4.12682C31.9683 3.97986 31.8869 3.84524 31.7806 3.73155C31.6743 3.61786 31.5455 3.52761 31.4024 3.46656C31.2593 3.40551 31.105 3.375 30.9495 3.37698H12.3823C12.0557 3.38163 11.7426 3.50801 11.5043 3.73143C11.2659 3.95485 11.1193 4.25922 11.0933 4.58502L10.6668 11.0212L7.99366 30.8076C7.96758 30.9582 7.97526 31.1128 8.01614 31.2601C8.05703 31.4074 8.1301 31.5438 8.23008 31.6593C8.33006 31.7749 8.45444 31.8669 8.59425 31.9285C8.73406 31.9901 8.8858 32.0199 9.03851 32.0156H27.607C27.9408 32.0067 28.261 31.881 28.5117 31.6602C28.7624 31.4395 28.9278 31.1378 28.9792 30.8076L31.6523 11.0212L32.0788 4.58502Z" fill="#EDC86C"/>
<path opacity="0.2" d="M30.9502 3.41107C31.1008 3.40919 31.2501 3.4389 31.3887 3.49799C31.5274 3.55718 31.6528 3.64458 31.7559 3.75482C31.8588 3.86493 31.9375 3.99533 31.9873 4.13763C32.0371 4.28003 32.0568 4.4316 32.0449 4.58197V4.58295L31.6182 11.0185L28.9453 30.8027C28.8951 31.1249 28.7339 31.4193 28.4893 31.6347C28.2446 31.8501 27.9322 31.9726 27.6064 31.9814H9.03711C8.88972 31.9854 8.74337 31.9568 8.6084 31.8974C8.47333 31.8379 8.3525 31.7493 8.25586 31.6376C8.15917 31.5258 8.08837 31.3934 8.04883 31.2509C8.0093 31.1085 8.00212 30.9591 8.02734 30.8134V30.8124L10.7002 11.0253V11.0234L11.127 4.58783C11.1523 4.27044 11.2951 3.97344 11.5273 3.7558C11.7306 3.56533 11.9899 3.44739 12.2646 3.41791L12.3828 3.41107H30.9502Z" fill="black" stroke="black" stroke-width="0.0678571"/>
<path d="M30.9551 11.0551L28.2871 30.8021C28.2372 31.1247 28.0758 31.4194 27.8311 31.6351C27.5863 31.8509 27.2733 31.974 26.9473 31.9828H8.37891C8.23147 31.9866 8.08514 31.9574 7.9502 31.8978C7.81515 31.8382 7.69428 31.7497 7.59766 31.6381C7.50101 31.5263 7.43026 31.3937 7.39062 31.2513C7.35115 31.1093 7.34332 30.9602 7.36816 30.8148H7.36914V30.8129L10.0381 11.0551H30.9551Z" fill="#EDC86C" stroke="black" stroke-width="0.0678571"/>
<path d="M15.1446 2.90424H12.3789V3.03846H15.1446V2.90424Z" fill="#EDC86C"/>
<path d="M11.072 3.18209L11.0156 3.05994C11.2377 2.95754 11.4793 2.90442 11.7238 2.90424V3.03846C11.4987 3.03862 11.2763 3.08762 11.072 3.18209Z" fill="#EDC86C"/>
<path d="M11.7256 3.40436H30.2939C30.4452 3.40252 30.5954 3.43257 30.7344 3.49225C30.8734 3.55193 30.9987 3.64009 31.1016 3.75104C31.2043 3.86186 31.2829 3.99285 31.332 4.1358C31.3812 4.27899 31.3998 4.43126 31.3867 4.58209V4.58307L30.9629 10.9874H10.0459L10.4697 4.58112C10.4951 4.26373 10.6379 3.96672 10.8701 3.74908C11.0734 3.55861 11.3327 3.44072 11.6074 3.41119L11.7256 3.40436Z" fill="#EDC86C" stroke="black" stroke-width="0.0678571"/>
<path opacity="0.9" d="M11.0468 9.44515L11.3446 4.94453C11.3582 4.77296 11.4354 4.61266 11.5609 4.495C11.6864 4.37733 11.8513 4.31075 12.0232 4.30829H29.8715C29.9535 4.30708 30.0348 4.32304 30.1102 4.35514C30.1856 4.38724 30.2535 4.43479 30.3094 4.49471C30.3654 4.55463 30.4082 4.6256 30.4351 4.70307C30.462 4.78054 30.4724 4.86279 30.4657 4.94453L30.1679 9.44515C30.154 9.61661 30.0767 9.77673 29.9513 9.89434C29.8258 10.0119 29.6611 10.0786 29.4893 10.0814H11.641C11.5591 10.0824 11.4779 10.0663 11.4026 10.0341C11.3273 10.002 11.2595 9.95441 11.2036 9.89453C11.1476 9.83465 11.1048 9.76376 11.0778 9.68639C11.0508 9.60901 11.0403 9.52685 11.0468 9.44515Z" fill="white"/>
<g opacity="0.4">
<path d="M28.5894 5.04489L28.3869 5.23415C28.3819 5.23897 28.376 5.24276 28.3696 5.2453C28.3631 5.24783 28.3562 5.24906 28.3493 5.24891H27.2763C27.2687 5.24909 27.2612 5.24762 27.2543 5.24461C27.2473 5.2416 27.2411 5.23711 27.2361 5.23146L27.0617 5.04354C27.0544 5.0357 27.0495 5.02589 27.0477 5.01532C27.0459 5.00474 27.0472 4.99386 27.0514 4.98402C27.0557 4.97417 27.0628 4.9658 27.0717 4.95992C27.0807 4.95404 27.0912 4.95091 27.1019 4.95093H28.5545C28.5654 4.95105 28.5759 4.95446 28.5848 4.96071C28.5937 4.96696 28.6004 4.97575 28.6042 4.98592C28.608 4.9961 28.6086 5.00718 28.606 5.0177C28.6033 5.02823 28.5975 5.03771 28.5894 5.04489Z" fill="#A9883A"/>
<path d="M28.3026 8.53354H26.85C26.8389 8.53355 26.8281 8.53023 26.819 8.52402C26.8099 8.5178 26.8028 8.50898 26.7988 8.49869C26.7947 8.48841 26.7938 8.47714 26.7963 8.46635C26.7987 8.45557 26.8043 8.44577 26.8124 8.43823L27.0136 8.25032C27.024 8.24103 27.0373 8.23579 27.0512 8.23555H28.1242C28.1319 8.23534 28.1395 8.23693 28.1465 8.24019C28.1535 8.24346 28.1596 8.2483 28.1644 8.25434L28.3401 8.44226C28.3469 8.44997 28.3514 8.45943 28.3531 8.46956C28.3548 8.47968 28.3536 8.49009 28.3497 8.49958C28.3458 8.50908 28.3393 8.51729 28.331 8.52329C28.3227 8.52929 28.3128 8.53284 28.3026 8.53354Z" fill="#A9883A"/>
<path d="M28.4443 6.77905L28.341 6.87703C28.3307 6.88632 28.3174 6.89156 28.3035 6.8918H27.044C27.0366 6.89164 27.0292 6.88996 27.0224 6.88686C27.0156 6.88377 27.0096 6.87932 27.0045 6.8738C26.9995 6.86827 26.9957 6.86178 26.9932 6.85472C26.9908 6.84767 26.9898 6.84019 26.9904 6.83274L27.0038 6.64348C27.0048 6.62959 27.0111 6.61661 27.0213 6.60714C27.0315 6.59768 27.0449 6.59243 27.0588 6.59247H28.3223C28.3298 6.59238 28.3373 6.59389 28.3442 6.5969C28.3512 6.5999 28.3574 6.60434 28.3625 6.60992L28.4483 6.70254C28.4532 6.7078 28.4569 6.71396 28.4593 6.72068C28.4617 6.72739 28.4627 6.73452 28.4624 6.74164C28.462 6.74876 28.4602 6.75574 28.4571 6.76216C28.454 6.76858 28.4497 6.77432 28.4443 6.77905Z" fill="#A9883A"/>
<path d="M28.6157 6.88263L28.5097 8.3363C28.5087 8.34691 28.5047 8.357 28.4981 8.36536C28.4915 8.37372 28.4826 8.37998 28.4726 8.38339C28.4625 8.3868 28.4516 8.38721 28.4413 8.38457C28.431 8.38193 28.4217 8.37636 28.4145 8.36852L28.2415 8.1806C28.2363 8.17506 28.2323 8.1685 28.2297 8.16134C28.2272 8.15418 28.2262 8.14657 28.2267 8.13899L28.3058 7.05846C28.3061 7.05154 28.3077 7.04474 28.3107 7.0385C28.3137 7.03226 28.318 7.02671 28.3233 7.02222L28.5245 6.8343C28.5328 6.82679 28.5433 6.82203 28.5545 6.82066C28.5656 6.81929 28.577 6.82138 28.5869 6.82665C28.5968 6.83191 28.6049 6.8401 28.6101 6.85011C28.6152 6.86012 28.6172 6.87147 28.6157 6.88263Z" fill="#A9883A"/>
<path d="M28.7407 5.15749L28.6347 6.61519C28.634 6.62591 28.6301 6.63617 28.6236 6.64472C28.6171 6.65326 28.6083 6.65972 28.5981 6.66329C28.588 6.66686 28.5771 6.66738 28.5666 6.6648C28.5562 6.66221 28.5468 6.65663 28.5395 6.64875L28.3651 6.45949C28.3603 6.454 28.3567 6.44761 28.3544 6.4407C28.3521 6.43379 28.3512 6.42649 28.3517 6.41922L28.4295 5.33869C28.4308 5.32491 28.437 5.31205 28.4469 5.30245L28.6481 5.11319C28.6562 5.10557 28.6664 5.10058 28.6774 5.09886C28.6883 5.09715 28.6996 5.0988 28.7096 5.10359C28.7196 5.10839 28.7279 5.1161 28.7335 5.12572C28.739 5.13534 28.7415 5.14641 28.7407 5.15749Z" fill="#A9883A"/>
</g>
<path opacity="0.4" d="M26.2566 9.14166C26.2608 9.09154 26.2835 9.04478 26.3201 9.01034C26.3568 8.97591 26.4048 8.95623 26.4551 8.95509H28.7352C28.7619 8.95484 28.7883 8.96011 28.8128 8.97057C28.8373 8.98103 28.8594 8.99645 28.8777 9.01587C28.8959 9.03528 28.91 9.05827 28.9189 9.08338C28.9279 9.1085 28.9316 9.13519 28.9297 9.1618C28.9254 9.21214 28.9026 9.25909 28.8657 9.29356C28.8287 9.32803 28.7803 9.34756 28.7299 9.34837H26.4551C26.428 9.34962 26.4009 9.34506 26.3757 9.335C26.3505 9.32494 26.3278 9.30961 26.309 9.29004C26.2902 9.27047 26.2758 9.24711 26.2668 9.22152C26.2577 9.19593 26.2542 9.1687 26.2566 9.14166Z" fill="#A9883A"/>
<path opacity="0.4" d="M23.405 9.14166C23.4093 9.09154 23.4319 9.04478 23.4685 9.01034C23.5052 8.97591 23.5532 8.95623 23.6035 8.95509H25.8836C25.9103 8.95484 25.9367 8.96011 25.9612 8.97057C25.9857 8.98103 26.0078 8.99645 26.0261 9.01587C26.0443 9.03528 26.0584 9.05827 26.0674 9.08338C26.0763 9.1085 26.08 9.13519 26.0781 9.1618C26.0738 9.21214 26.051 9.25909 26.0141 9.29356C25.9772 9.32803 25.9288 9.34756 25.8783 9.34837H23.5981C23.5715 9.34884 23.545 9.34371 23.5205 9.33331C23.4959 9.32291 23.4738 9.30746 23.4556 9.28798C23.4374 9.2685 23.4235 9.24541 23.4148 9.2202C23.4061 9.195 23.4027 9.16824 23.405 9.14166Z" fill="#A9883A"/>
<path opacity="0.4" d="M20.5534 9.14165C20.5577 9.09154 20.5803 9.04477 20.617 9.01033C20.6536 8.9759 20.7017 8.95622 20.7519 8.95508H23.0321C23.0586 8.95501 23.0849 8.96042 23.1092 8.97096C23.1336 8.98151 23.1555 8.99696 23.1736 9.01635C23.1917 9.03575 23.2057 9.05867 23.2146 9.08369C23.2234 9.10871 23.2271 9.1353 23.2252 9.16179C23.2212 9.21224 23.1985 9.25937 23.1615 9.2939C23.1245 9.32842 23.076 9.34785 23.0254 9.34836H20.7452C20.7187 9.34864 20.6924 9.34337 20.668 9.33289C20.6436 9.3224 20.6217 9.30693 20.6036 9.28747C20.5856 9.268 20.5718 9.24498 20.5631 9.21987C20.5545 9.19476 20.5512 9.16812 20.5534 9.14165Z" fill="#A9883A"/>
<path opacity="0.4" d="M17.7038 9.14165C17.7081 9.09154 17.7307 9.04477 17.7674 9.01033C17.804 8.9759 17.8521 8.95622 17.9023 8.95508H20.1825C20.209 8.95501 20.2353 8.96042 20.2596 8.97096C20.284 8.98151 20.3059 8.99696 20.324 9.01635C20.3421 9.03575 20.3561 9.05867 20.3649 9.08369C20.3738 9.10871 20.3775 9.1353 20.3756 9.16179C20.3716 9.21224 20.3489 9.25937 20.3119 9.2939C20.2749 9.32842 20.2263 9.34785 20.1758 9.34836H17.8956C17.8691 9.34864 17.8428 9.34337 17.8184 9.33289C17.794 9.3224 17.7721 9.30693 17.754 9.28747C17.736 9.268 17.7222 9.24498 17.7135 9.21987C17.7049 9.19476 17.7016 9.16812 17.7038 9.14165Z" fill="#A9883A"/>
<path opacity="0.1" d="M11.4059 20.1981L12.2455 13.9874C12.2769 13.7838 12.3786 13.5977 12.5331 13.4616C12.6875 13.3255 12.8848 13.2479 13.0905 13.2424H19.2966C19.3907 13.2398 19.4843 13.2582 19.5704 13.2962C19.6566 13.3342 19.7333 13.3909 19.7949 13.4622C19.8565 13.5335 19.9015 13.6176 19.9267 13.7084C19.9518 13.7992 19.9565 13.8945 19.9404 13.9874L19.1007 20.1981C19.0697 20.4015 18.9682 20.5876 18.814 20.7237C18.6598 20.8599 18.4627 20.9375 18.2571 20.943H12.0497C11.9555 20.9456 11.862 20.9272 11.7758 20.8892C11.6896 20.8512 11.613 20.7945 11.5514 20.7232C11.4898 20.6519 11.4448 20.5678 11.4196 20.477C11.3944 20.3862 11.3897 20.2909 11.4059 20.1981Z" fill="#263238"/>
<path opacity="0.1" d="M20.244 20.1981L21.0877 13.9874C21.119 13.7839 21.2208 13.5978 21.3752 13.4616C21.5297 13.3255 21.7269 13.2479 21.9327 13.2425H28.1387C28.233 13.2396 28.3266 13.2579 28.4129 13.2958C28.4992 13.3337 28.576 13.3904 28.6376 13.4618C28.6993 13.5331 28.7443 13.6173 28.7694 13.7082C28.7944 13.7992 28.7989 13.8945 28.7825 13.9874L27.9443 20.1981C27.9127 20.4016 27.8108 20.5875 27.6564 20.7236C27.5021 20.8597 27.3049 20.9374 27.0993 20.9431H20.8865C20.7924 20.9457 20.6989 20.9273 20.6128 20.8893C20.5266 20.8513 20.45 20.7946 20.3885 20.7232C20.327 20.6519 20.2821 20.5678 20.2571 20.477C20.2321 20.3861 20.2277 20.2909 20.244 20.1981Z" fill="#263238"/>
<path opacity="0.1" d="M10.2101 29.0462L11.0497 22.8328C11.0813 22.6294 11.1832 22.4435 11.3375 22.3074C11.4919 22.1713 11.6891 22.0936 11.8947 22.0879H18.1008C18.1949 22.0853 18.2885 22.1037 18.3747 22.1417C18.4608 22.1797 18.5375 22.2364 18.5991 22.3077C18.6607 22.379 18.7057 22.4631 18.7309 22.5539C18.756 22.6447 18.7607 22.74 18.7446 22.8328L17.905 29.0449C17.8736 29.2481 17.772 29.4338 17.6178 29.5697C17.4636 29.7056 17.2667 29.783 17.0613 29.7885H10.8539C10.76 29.791 10.6668 29.7727 10.5808 29.7348C10.4949 29.6969 10.4184 29.6405 10.3568 29.5695C10.2953 29.4986 10.2502 29.4148 10.2248 29.3243C10.1994 29.2339 10.1944 29.1389 10.2101 29.0462Z" fill="#263238"/>
<path opacity="0.1" d="M19.0521 29.0462L19.8904 22.8328C19.922 22.6294 20.0239 22.4435 20.1783 22.3074C20.3326 22.1713 20.5298 22.0936 20.7354 22.0879H26.9415C27.0356 22.0853 27.1292 22.1037 27.2154 22.1417C27.3015 22.1797 27.3782 22.2364 27.4398 22.3077C27.5014 22.379 27.5464 22.4631 27.5716 22.5539C27.5968 22.6447 27.6014 22.74 27.5853 22.8328L26.747 29.0449C26.7151 29.2481 26.6132 29.4337 26.4588 29.5695C26.3045 29.7054 26.1075 29.7828 25.902 29.7885H19.6946C19.6008 29.791 19.5076 29.7727 19.4216 29.7348C19.3357 29.697 19.2593 29.6405 19.1979 29.5695C19.1364 29.4985 19.0914 29.4147 19.0662 29.3242C19.0411 29.2337 19.0362 29.1388 19.0521 29.0462Z" fill="#263238"/>
<path d="M10.9918 20.1981L11.8355 13.9874C11.8668 13.7838 11.9686 13.5977 12.123 13.4616C12.2774 13.3255 12.4747 13.2479 12.6805 13.2424H18.8865C18.9807 13.2398 19.0742 13.2582 19.1604 13.2962C19.2466 13.3342 19.3232 13.3909 19.3848 13.4622C19.4464 13.5335 19.4915 13.6176 19.5166 13.7084C19.5418 13.7992 19.5465 13.8945 19.5303 13.9874L18.6907 20.1981C18.6596 20.4015 18.5581 20.5876 18.4039 20.7237C18.2497 20.8599 18.0526 20.9375 17.847 20.943H11.6356C11.5415 20.9456 11.4479 20.9272 11.3618 20.8892C11.2756 20.8512 11.1989 20.7945 11.1373 20.7232C11.0757 20.6519 11.0307 20.5678 11.0055 20.477C10.9804 20.3862 10.9757 20.2909 10.9918 20.1981Z" fill="#EDC86C"/>
<path opacity="0.2" d="M10.9918 20.1981L11.8355 13.9874C11.8668 13.7838 11.9686 13.5977 12.123 13.4616C12.2774 13.3255 12.4747 13.2479 12.6805 13.2424H18.8865C18.9807 13.2398 19.0742 13.2582 19.1604 13.2962C19.2466 13.3342 19.3232 13.3909 19.3848 13.4622C19.4464 13.5335 19.4915 13.6176 19.5166 13.7084C19.5418 13.7992 19.5465 13.8945 19.5303 13.9874L18.6907 20.1981C18.6596 20.4015 18.5581 20.5876 18.4039 20.7237C18.2497 20.8599 18.0526 20.9375 17.847 20.943H11.6356C11.5415 20.9456 11.4479 20.9272 11.3618 20.8892C11.2756 20.8512 11.1989 20.7945 11.1373 20.7232C11.0757 20.6519 11.0307 20.5678 11.0055 20.477C10.9804 20.3862 10.9757 20.2909 10.9918 20.1981Z" fill="white"/>
<path d="M19.8339 20.1981L20.6722 13.9874C20.7035 13.7839 20.8053 13.5978 20.9597 13.4616C21.1141 13.3255 21.3114 13.2479 21.5172 13.2425H27.7232C27.8174 13.2396 27.9111 13.2579 27.9974 13.2958C28.0837 13.3337 28.1605 13.3904 28.2221 13.4618C28.2838 13.5331 28.3288 13.6173 28.3538 13.7082C28.3789 13.7992 28.3834 13.8945 28.367 13.9874L27.5287 20.1981C27.4971 20.4016 27.3953 20.5875 27.2409 20.7236C27.0865 20.8597 26.8894 20.9374 26.6837 20.9431H20.4763C20.3822 20.9457 20.2887 20.9273 20.2026 20.8893C20.1165 20.8513 20.0399 20.7946 19.9784 20.7232C19.9169 20.6519 19.872 20.5678 19.847 20.477C19.822 20.3861 19.8175 20.2909 19.8339 20.1981Z" fill="#EDC86C"/>
<path opacity="0.2" d="M19.8339 20.1981L20.6722 13.9874C20.7035 13.7839 20.8053 13.5978 20.9597 13.4616C21.1141 13.3255 21.3114 13.2479 21.5172 13.2425H27.7232C27.8174 13.2396 27.9111 13.2579 27.9974 13.2958C28.0837 13.3337 28.1605 13.3904 28.2221 13.4618C28.2838 13.5331 28.3288 13.6173 28.3538 13.7082C28.3789 13.7992 28.3834 13.8945 28.367 13.9874L27.5287 20.1981C27.4971 20.4016 27.3953 20.5875 27.2409 20.7236C27.0865 20.8597 26.8894 20.9374 26.6837 20.9431H20.4763C20.3822 20.9457 20.2887 20.9273 20.2026 20.8893C20.1165 20.8513 20.0399 20.7946 19.9784 20.7232C19.9169 20.6519 19.872 20.5678 19.847 20.477C19.822 20.3861 19.8175 20.2909 19.8339 20.1981Z" fill="white"/>
<path d="M9.79799 29.0462L10.6376 22.8328C10.6692 22.6294 10.7711 22.4435 10.9254 22.3074C11.0798 22.1713 11.277 22.0936 11.4826 22.0879H17.6887C17.7828 22.0853 17.8764 22.1037 17.9625 22.1417C18.0487 22.1797 18.1254 22.2364 18.187 22.3077C18.2486 22.379 18.2936 22.4631 18.3188 22.5539C18.3439 22.6447 18.3486 22.74 18.3325 22.8328L17.4929 29.0449C17.4615 29.2481 17.3599 29.4338 17.2057 29.5697C17.0515 29.7056 16.8546 29.783 16.6492 29.7885H10.4418C10.3479 29.791 10.2547 29.7727 10.1687 29.7348C10.0828 29.6969 10.0063 29.6405 9.9447 29.5695C9.88314 29.4986 9.83806 29.4148 9.8127 29.3243C9.78733 29.2339 9.78231 29.1389 9.79799 29.0462Z" fill="#EDC86C"/>
<path opacity="0.2" d="M9.79799 29.0462L10.6376 22.8328C10.6692 22.6294 10.7711 22.4435 10.9254 22.3074C11.0798 22.1713 11.277 22.0936 11.4826 22.0879H17.6887C17.7828 22.0853 17.8764 22.1037 17.9625 22.1417C18.0487 22.1797 18.1254 22.2364 18.187 22.3077C18.2486 22.379 18.2936 22.4631 18.3188 22.5539C18.3439 22.6447 18.3486 22.74 18.3325 22.8328L17.4929 29.0449C17.4615 29.2481 17.3599 29.4338 17.2057 29.5697C17.0515 29.7056 16.8546 29.783 16.6492 29.7885H10.4418C10.3479 29.791 10.2547 29.7727 10.1687 29.7348C10.0828 29.6969 10.0063 29.6405 9.9447 29.5695C9.88314 29.4986 9.83806 29.4148 9.8127 29.3243C9.78733 29.2339 9.78231 29.1389 9.79799 29.0462Z" fill="white"/>
<path d="M18.64 29.0462L19.4824 22.8328C19.514 22.6294 19.6158 22.4435 19.7702 22.3074C19.9245 22.1713 20.1217 22.0936 20.3274 22.0879H26.5334C26.6276 22.0853 26.7211 22.1037 26.8073 22.1417C26.8934 22.1797 26.9701 22.2364 27.0317 22.3077C27.0933 22.379 27.1383 22.4631 27.1635 22.5539C27.1887 22.6447 27.1933 22.74 27.1772 22.8328L26.3389 29.0449C26.307 29.2481 26.2051 29.4337 26.0507 29.5695C25.8964 29.7054 25.6994 29.7828 25.4939 29.7885H19.2825C19.1887 29.791 19.0954 29.7727 19.0095 29.7348C18.9236 29.697 18.8472 29.6405 18.7857 29.5695C18.7243 29.4985 18.6793 29.4147 18.6541 29.3242C18.6289 29.2337 18.6241 29.1388 18.64 29.0462Z" fill="#EDC86C"/>
<path opacity="0.2" d="M18.64 29.0462L19.4824 22.8328C19.514 22.6294 19.6158 22.4435 19.7702 22.3074C19.9245 22.1713 20.1217 22.0936 20.3274 22.0879H26.5334C26.6276 22.0853 26.7211 22.1037 26.8073 22.1417C26.8934 22.1797 26.9701 22.2364 27.0317 22.3077C27.0933 22.379 27.1383 22.4631 27.1635 22.5539C27.1887 22.6447 27.1933 22.74 27.1772 22.8328L26.3389 29.0449C26.307 29.2481 26.2051 29.4337 26.0507 29.5695C25.8964 29.7054 25.6994 29.7828 25.4939 29.7885H19.2825C19.1887 29.791 19.0954 29.7727 19.0095 29.7348C18.9236 29.697 18.8472 29.6405 18.7857 29.5695C18.7243 29.4985 18.6793 29.4147 18.6541 29.3242C18.6289 29.2337 18.6241 29.1388 18.64 29.0462Z" fill="white"/>
<path d="M14.9105 19.6774C14.8165 19.6795 14.7232 19.6608 14.6373 19.6226C14.5513 19.5845 14.4749 19.5278 14.4134 19.4566C14.3519 19.3854 14.3068 19.3015 14.2815 19.2109C14.2561 19.1203 14.2511 19.0252 14.2667 18.9324L14.7643 15.2546C14.7961 15.0511 14.898 14.8652 15.0523 14.7289C15.2066 14.5926 15.4036 14.5146 15.6093 14.5083C15.7035 14.5059 15.7971 14.5245 15.8832 14.5627C15.9694 14.6008 16.046 14.6577 16.1076 14.7291C16.1692 14.8004 16.2142 14.8846 16.2394 14.9755C16.2645 15.0664 16.2692 15.1617 16.2531 15.2546L15.7568 18.9324C15.7247 19.1359 15.6225 19.3217 15.468 19.4577C15.3134 19.5938 15.1162 19.6715 14.9105 19.6774Z" fill="white"/>
<path d="M12.6788 17.0936C12.7109 16.89 12.813 16.704 12.9676 16.5677C13.1221 16.4315 13.3193 16.3535 13.5252 16.3473H17.2029C17.2971 16.3451 17.3905 16.3639 17.4765 16.4021C17.5626 16.4404 17.6391 16.4972 17.7007 16.5685C17.7622 16.6398 17.8072 16.7239 17.8325 16.8147C17.8577 16.9054 17.8626 17.0007 17.8467 17.0936C17.8146 17.2968 17.7127 17.4824 17.5584 17.6185C17.4041 17.7545 17.2072 17.8323 17.0017 17.8385H13.3267C13.2323 17.8412 13.1386 17.823 13.0521 17.7851C12.9657 17.7472 12.8887 17.6906 12.8268 17.6193C12.7648 17.5481 12.7194 17.464 12.6938 17.3731C12.6682 17.2822 12.6631 17.1867 12.6788 17.0936Z" fill="white"/>
<path d="M11.9929 27.7672C11.7421 27.4773 11.8065 27.0035 12.1351 26.7135L15.0859 24.1122C15.4145 23.8223 15.8906 23.8223 16.1388 24.1122C16.3896 24.4022 16.3252 24.8773 15.9966 25.1672L13.0458 27.7672C12.7172 28.0572 12.2397 28.0572 11.9929 27.7672Z" fill="white"/>
<path d="M12.4847 24.1122C12.8133 23.8223 13.2895 23.8223 13.5389 24.1122L15.7856 26.7135C16.0364 27.0035 15.972 27.4773 15.6434 27.7672C15.3148 28.0572 14.8386 28.0572 14.5905 27.7672L12.3425 25.1672C12.0917 24.8773 12.1561 24.4022 12.4847 24.1122Z" fill="white"/>
<path d="M21.5167 17.0936C21.5488 16.89 21.6509 16.704 21.8054 16.5678C21.96 16.4315 22.1572 16.3535 22.363 16.3473H26.0381C26.1323 16.3449 26.2259 16.3635 26.3121 16.4017C26.3982 16.4398 26.4749 16.4967 26.5364 16.568C26.598 16.6394 26.643 16.7236 26.6682 16.8145C26.6933 16.9054 26.698 17.0007 26.6819 17.0936C26.6498 17.2968 26.5479 17.4825 26.3936 17.6185C26.2393 17.7545 26.0424 17.8323 25.8369 17.8386H22.1632C22.069 17.8411 21.9754 17.8227 21.8891 17.7847C21.8028 17.7467 21.726 17.69 21.6642 17.6188C21.6024 17.5476 21.5571 17.4636 21.5316 17.3728C21.5061 17.282 21.501 17.1866 21.5167 17.0936Z" fill="white"/>
<path d="M20.4779 24.7805C20.51 24.577 20.6122 24.3912 20.7667 24.2552C20.9213 24.1191 21.1185 24.0414 21.3242 24.0355H24.9993C25.0933 24.0334 25.1866 24.0521 25.2725 24.0903C25.3585 24.1284 25.4349 24.1851 25.4964 24.2563C25.5579 24.3275 25.603 24.4114 25.6283 24.502C25.6537 24.5926 25.6587 24.6877 25.6431 24.7805C25.6113 24.9839 25.5094 25.1699 25.3551 25.3062C25.2008 25.4424 25.0038 25.5205 24.7981 25.5268H21.1217C21.0275 25.5289 20.9341 25.5102 20.848 25.4719C20.762 25.4337 20.6855 25.3769 20.6239 25.3055C20.5624 25.2342 20.5174 25.1501 20.4921 25.0594C20.4669 24.9686 20.462 24.8733 20.4779 24.7805Z" fill="white"/>
<path d="M20.1695 27.0988C20.2016 26.8956 20.3036 26.7099 20.4579 26.5739C20.6121 26.4379 20.809 26.3601 21.0145 26.3538H24.6896C24.7837 26.3515 24.8772 26.3701 24.9633 26.4082C25.0494 26.4462 25.126 26.5029 25.1877 26.5741C25.2493 26.6453 25.2945 26.7293 25.3199 26.82C25.3453 26.9107 25.3504 27.0059 25.3348 27.0988C25.3027 27.3024 25.2005 27.4884 25.046 27.6246C24.8915 27.7609 24.6943 27.8388 24.4884 27.8451H20.8133C20.7191 27.8475 20.6256 27.8289 20.5394 27.7907C20.4532 27.7526 20.3766 27.6957 20.315 27.6244C20.2534 27.553 20.2084 27.4688 20.1833 27.3779C20.1581 27.287 20.1534 27.1917 20.1695 27.0988Z" fill="white"/>
</svg>
