<svg xmlns="http://www.w3.org/2000/svg" width="90" height="90" viewBox="0 0 90 90">
  <g id="Group_61412" data-name="Group 61412" transform="translate(-320 -1078)">
    <g id="Group_56887" data-name="Group 56887" transform="translate(-44 -3)">
      <rect id="Rectangle_27305" data-name="Rectangle 27305" width="90" height="90" rx="12" transform="translate(364 1081)" fill="#fafafa"/>
    </g>
    <g id="labor-day" transform="translate(288.711 1095.645)">
      <path id="Path_117002" data-name="Path 117002" d="M124.341,138.8a2.58,2.58,0,0,0-1.318-3.332l-7.3-3.318a3.265,3.265,0,0,0-4.04,1.129l-3.619,5.372a4.531,4.531,0,0,0,.134,5.266l7.7,10.274a4.6,4.6,0,0,1,.923,2.758v9.575h15.36v-10.1a4.578,4.578,0,0,1,.424-1.922l2.661-5.756a5.2,5.2,0,0,0,.461-2.644l-.446-5.009-3.216-2.963-5.9,4.233S123.8,140.122,124.341,138.8Z" transform="translate(-46.885 -117.769)" fill="#f1ccbd"/>
      <path id="Path_117003" data-name="Path 117003" d="M124.341,138.8a2.58,2.58,0,0,0-1.318-3.332l-7.3-3.318a3.265,3.265,0,0,0-4.04,1.129l-3.619,5.372a4.531,4.531,0,0,0,.134,5.266l7.7,10.274a4.6,4.6,0,0,1,.923,2.758v9.575h15.36v-10.1a4.578,4.578,0,0,1,.424-1.922l2.661-5.756a5.2,5.2,0,0,0,.461-2.644l-.446-5.009-3.216-2.963-5.9,4.233S123.8,140.122,124.341,138.8Z" transform="translate(-46.885 -117.769)" fill="#f1ccbd"/>
      <path id="Path_117004" data-name="Path 117004" d="M146.73,141.948l-.582.418a6.993,6.993,0,0,1-1.886-2.887l-6.308-6.308-2.252-1.023a3.265,3.265,0,0,0-4.04,1.129l-2.007,2.978a7.432,7.432,0,0,0,2.591-.039.726.726,0,0,1,.652.2l19.315,19.315a4.587,4.587,0,0,1,.369-1.226l2.119-4.584Z" transform="translate(-66.867 -117.77)" fill="#eaad9c"/>
      <path id="Path_117005" data-name="Path 117005" d="M84.024,33.385a.726.726,0,0,1,.2.652,7.572,7.572,0,0,0,8.445,8.894.4.4,0,0,0,.217-.686l-4.6-4.6a1.271,1.271,0,0,1-.019-1.8l2.372-2.372a1.271,1.271,0,0,1,1.8.019l4.6,4.6a.4.4,0,0,0,.686-.217,7.572,7.572,0,0,0-8.894-8.445.726.726,0,0,1-.652-.2L68.555,9.617a.726.726,0,0,1-.2-.652A7.572,7.572,0,0,0,59.912.071a.4.4,0,0,0-.217.686l4.6,4.6a1.271,1.271,0,0,1,.019,1.8L61.941,9.525a1.271,1.271,0,0,1-1.8-.019l-4.6-4.6a.4.4,0,0,0-.686.217,7.572,7.572,0,0,0,8.894,8.445.726.726,0,0,1,.652.2Z" transform="translate(0 0)" fill="#ebf4ff"/>
      <g id="Group_56900" data-name="Group 56900" transform="translate(59.572 0)">
        <path id="Path_117006" data-name="Path 117006" d="M135.546,31.523a7.514,7.514,0,0,0-6.742-2.088.726.726,0,0,1-.652-.2L108.534,9.617a.726.726,0,0,1-.2-.652A7.572,7.572,0,0,0,99.891.071a.4.4,0,0,0-.217.686l1,1a7.58,7.58,0,0,1,6.031,8.831.726.726,0,0,0,.2.652l19.618,19.618a.726.726,0,0,0,.652.2,7.58,7.58,0,0,1,8.831,6.031l1,1a.4.4,0,0,0,.686-.217,7.52,7.52,0,0,0-2.152-6.356Z" transform="translate(-99.551 0)" fill="#dae9fd"/>
      </g>
      <path id="Path_117007" data-name="Path 117007" d="M189.265,95.343a2.523,2.523,0,0,1-.315-3.61l2.532-2.939a2.661,2.661,0,0,1,3.692-.309,2.523,2.523,0,0,1,.315,3.61l-2.532,2.939A2.661,2.661,0,0,1,189.265,95.343Z" transform="translate(-119.274 -78.492)" fill="#f1ccbd"/>
      <path id="Path_117008" data-name="Path 117008" d="M203.5,88.489a2.667,2.667,0,0,0-3.317-.047c.021.016.043.03.064.047a2.523,2.523,0,0,1,.315,3.61l-2.532,2.939a2.605,2.605,0,0,1-.375.356,2.66,2.66,0,0,0,3.628-.356l2.532-2.939A2.523,2.523,0,0,0,203.5,88.489Z" transform="translate(-127.596 -78.495)" fill="#eaad9c"/>
      <path id="Path_117009" data-name="Path 117009" d="M226.766,126.239a2.523,2.523,0,0,1-.315-3.61l2.532-2.939a2.661,2.661,0,0,1,3.692-.309,2.523,2.523,0,0,1,.315,3.61l-2.532,2.939A2.661,2.661,0,0,1,226.766,126.239Z" transform="translate(-152.768 -106.087)" fill="#f1ccbd"/>
      <path id="Path_117010" data-name="Path 117010" d="M241,119.384a2.667,2.667,0,0,0-3.317-.047c.021.016.043.03.064.047a2.523,2.523,0,0,1,.315,3.61l-2.532,2.939a2.607,2.607,0,0,1-.375.356,2.66,2.66,0,0,0,3.628-.356l2.532-2.939A2.523,2.523,0,0,0,241,119.384Z" transform="translate(-161.09 -106.088)" fill="#eaad9c"/>
      <path id="Path_117011" data-name="Path 117011" d="M264.267,157.134a2.523,2.523,0,0,1-.315-3.61l2.532-2.939a2.661,2.661,0,0,1,3.692-.308,2.523,2.523,0,0,1,.315,3.61l-2.532,2.939A2.661,2.661,0,0,1,264.267,157.134Z" transform="translate(-186.261 -133.681)" fill="#f1ccbd"/>
      <path id="Path_117012" data-name="Path 117012" d="M278.5,150.28a2.667,2.667,0,0,0-3.317-.047c.021.016.043.03.064.047a2.523,2.523,0,0,1,.315,3.61l-2.532,2.939a2.606,2.606,0,0,1-.375.356,2.66,2.66,0,0,0,3.628-.356l2.532-2.939A2.523,2.523,0,0,0,278.5,150.28Z" transform="translate(-194.585 -133.683)" fill="#eaad9c"/>
      <path id="Path_117013" data-name="Path 117013" d="M114.894,140.984l.912-1.142a2.269,2.269,0,0,1,.245-.262c.614-.559,1.366-1.333,2.176-1.058l2.766,1.138c1.32.555,2.174.392,2.719-.933.372-.9.819-1.828.242-2.54a2.571,2.571,0,0,0-.936-.722l-7.3-3.318a3.265,3.265,0,0,0-4.04,1.129l-3.619,5.372a4.531,4.531,0,0,0,.134,5.266l7.7,10.274a4.6,4.6,0,0,1,.923,2.758v9.575h15.36v-9.235C131.849,156.774,114.894,140.984,114.894,140.984Z" transform="translate(-46.881 -117.769)" fill="#f1ccbd"/>
      <path id="Path_117014" data-name="Path 117014" d="M182.46,171.908a2.33,2.33,0,0,1,2.313-.476l2.53,1.064a2.62,2.62,0,0,0,3.419-1.315,2.579,2.579,0,0,0-.359-2.666,2.58,2.58,0,0,1-3,.751l-2.587-1.088a2.322,2.322,0,0,0-2.558.737l-.18.225-.011.014a1.871,1.871,0,0,0,.151,2.46Z" transform="translate(-113.29 -150.096)" fill="#eaad9c"/>
      <path id="Path_117015" data-name="Path 117015" d="M178.94,426.928v-5.711a3.253,3.253,0,0,1,3.253-3.253h12.494a3.253,3.253,0,0,1,3.253,3.253v5.711a1.084,1.084,0,0,1-1.084,1.084H180.024A1.084,1.084,0,0,1,178.94,426.928Z" transform="translate(-110.884 -373.302)" fill="#7ed8aa"/>
      <path id="Path_117016" data-name="Path 117016" d="M299.114,417.964h-3.253a3.253,3.253,0,0,1,3.253,3.253v5.711a1.085,1.085,0,0,1-1.085,1.084h3.253a1.085,1.085,0,0,0,1.084-1.084v-5.711A3.253,3.253,0,0,0,299.114,417.964Z" transform="translate(-215.312 -373.302)" fill="#3bbf7b"/>
      <circle id="Ellipse_3490" data-name="Ellipse 3490" cx="0.813" cy="0.813" r="0.813" transform="translate(81.387 47.987)" fill="#fff"/>
      <path id="Path_117017" data-name="Path 117017" d="M301.768,188.03a2.523,2.523,0,0,1-.315-3.61l2.532-2.939a2.661,2.661,0,0,1,3.692-.308,2.523,2.523,0,0,1,.315,3.61l-2.532,2.939A2.661,2.661,0,0,1,301.768,188.03Z" transform="translate(-219.755 -161.275)" fill="#f1ccbd"/>
      <path id="Path_117018" data-name="Path 117018" d="M316,181.176a2.667,2.667,0,0,0-3.317-.047c.021.016.043.03.064.047a2.523,2.523,0,0,1,.315,3.61l-2.532,2.939a2.607,2.607,0,0,1-.375.356,2.66,2.66,0,0,0,3.628-.356l2.532-2.939a2.523,2.523,0,0,0-.315-3.61Z" transform="translate(-228.077 -161.277)" fill="#eaad9c"/>
    </g>
  </g>
</svg>
