<svg xmlns="http://www.w3.org/2000/svg" width="90" height="90" viewBox="0 0 90 90">
  <g id="Group_56890" data-name="Group 56890" transform="translate(-364 -1081)">
    <rect id="Rectangle_27305" data-name="Rectangle 27305" width="90" height="90" rx="12" transform="translate(364 1081)" fill="#fafafa"/>
    <g id="construction-worker" transform="translate(388.239 1097.936)">
      <g id="Group_56895" data-name="Group 56895" transform="translate(5.962 19.838)">
        <path id="Path_116965" data-name="Path 116965" d="M171.786,110.85l.946-3.025a2.218,2.218,0,0,1,2.542,1.328c.877,1.79-1.419,5.467-3.4,5.776A10.082,10.082,0,0,1,171.786,110.85Z" transform="translate(-145.977 -107.771)" fill="#f7dcc1"/>
        <path id="Path_116966" data-name="Path 116966" d="M36.064,110.85l-.946-3.025a2.218,2.218,0,0,0-2.542,1.328c-.878,1.79,1.419,5.467,3.4,5.776A10.082,10.082,0,0,0,36.064,110.85Z" transform="translate(-32.384 -107.771)" fill="#f7dcc1"/>
        <path id="Path_116967" data-name="Path 116967" d="M76.407,177.094H89.8v13.9H76.407Z" transform="translate(-68.303 -164.333)" fill="#f7dcc1"/>
      </g>
      <g id="Group_56896" data-name="Group 56896" transform="translate(14.066 32.599)">
        <path id="Path_116968" data-name="Path 116968" d="M76.407,177.093v2.266s2.623,5.988,7.914,5.988a8,8,0,0,0,5.476-2.035v-6.22H76.407Z" transform="translate(-76.407 -177.093)" fill="#e2b691"/>
      </g>
      <path id="Path_116969" data-name="Path 116969" d="M71.778,48.154q.006-.19.006-.379c0-7.857,2.293-16.721-11.654-16.851l-.312,0-.313,0c-13.947.13-11.654,8.994-11.654,16.851q0,.19.006.379c0,.126-.014,5.847.85,7.309s5.98,8.142,10.83,8.142c0,0,.565,0,.57,0,4.85,0,9.966-6.68,10.83-8.142s.85-7.309.85-7.309Z" transform="translate(-38.928 -25.229)" fill="#f7dcc1"/>
      <path id="Path_116970" data-name="Path 116970" d="M65.661,31.608C67.228,23.964,67.6,14.164,52.4,14.164s-14.42,10.291-13.177,17.21c0,0,1.292-.459,2.111,2.217.272-.676-.312-6.881,1.014-10.6C43.771,19,46.333,19.536,46.953,19.8c.8.709,1.152,2.835,4.075,2.392s4.967-3.537,8.965-1.86c3.386,1.627,3.512,8.183,3.3,12.9.412-.862,1.208-2.059,2.364-1.627Z" transform="translate(-31.508 -11.557)" fill="#240703"/>
      <path id="Path_116971" data-name="Path 116971" d="M41.425,236.957c-.249-6.209-5.027-7.643-7.9-7.942-1.245-.13-6.316-.046-6.316-.046-.121,2.078-2.591,4.069-6.453,4.144-3.862-.075-6.664-2.535-6.664-4.144,0,0-4.86-.084-6.105.046-2.869.3-7.646,1.733-7.9,7.942a19.929,19.929,0,0,0,0,3.76s6.983,2.137,20.18,2.208c.1,0,.871,0,.969,0,13.2-.071,20.18-2.208,20.18-2.208A19.952,19.952,0,0,0,41.425,236.957Z" transform="translate(0 -186.8)" fill="#0a0a0a"/>
      <path id="Path_116972" data-name="Path 116972" d="M83.155,228.983c-.121,2.079-2.591,3.193-6.453,3.268-3.862-.075-6.664-1.659-6.664-3.268,0,0-.621-.011-1.475-.018l5.427,13.943q1.083.026,2.228.033c.1,0,.871,0,.969,0q1.075-.006,2.093-.03l5.488-13.946C83.84,228.972,83.155,228.983,83.155,228.983Z" transform="translate(-55.941 -186.817)" fill="#fff"/>
      <path id="Path_116973" data-name="Path 116973" d="M112.511,229.907l4.115,3.23,4.04-5.514.264.376-4.3,5.761-4.08-3.483Z" transform="translate(-91.799 -185.723)" fill="#ccc"/>
      <path id="Path_116974" data-name="Path 116974" d="M75.29,229.843l-4.061,3.294-4.04-5.514-.264.376,4.3,5.761,4.122-3.483Z" transform="translate(-54.605 -185.723)" fill="#ccc"/>
      <path id="Path_116975" data-name="Path 116975" d="M102.887,254.861l-2.188,2.5,1.1,6.714h2.171l1.1-6.714Z" transform="translate(-82.162 -207.947)" fill="#0a0a0a"/>
      <path id="Path_116976" data-name="Path 116976" d="M106.115,242.4a1.69,1.69,0,0,0-1.88-1.566h0a1.69,1.69,0,0,0-1.88,1.566,2.472,2.472,0,0,0,1.7,2.108,1.056,1.056,0,0,0,.37,0A2.472,2.472,0,0,0,106.115,242.4Z" transform="translate(-83.51 -196.504)" fill="#0a0a0a"/>
      <path id="Path_116977" data-name="Path 116977" d="M112.587,220.823l6.73-4.482,1.5,2.077-4.115,5.825Z" transform="translate(-91.861 -176.518)" fill="#fff"/>
      <path id="Path_116978" data-name="Path 116978" d="M76.108,220.823l-6.66-4.482-1.57,2.077,4.115,5.825Z" transform="translate(-55.382 -176.518)" fill="#fff"/>
      <path id="Path_116979" data-name="Path 116979" d="M58.352,227.623l-2.149.157s.162,2.222.333,5.778h2.747l-2.13,2.086,5.128,6.123,1.675.057,1.909.02Z" transform="translate(-45.856 -185.723)" fill="#3f3f3f"/>
      <path id="Path_116980" data-name="Path 116980" d="M124.231,227.623l2.2.157s-.162,2.222-.333,5.778h-2.747l2.13,2.086-5.128,6.123-1.668.052-1.916.025Z" transform="translate(-95.276 -185.723)" fill="#3f3f3f"/>
      <g id="Group_56898" data-name="Group 56898" transform="translate(5.049 0)">
        <path id="Path_116981" data-name="Path 116981" d="M35.289,61.221a.949.949,0,0,1-.944.953H32.959a.949.949,0,0,1-.944-.953V58.265a.949.949,0,0,1,.944-.953h1.385a.949.949,0,0,1,.944.953Z" transform="translate(-31.169 -46.762)" fill="#3bbf7b"/>
        <path id="Path_116982" data-name="Path 116982" d="M181.161,61.221a.949.949,0,0,1-.944.953h-1.385a.949.949,0,0,1-.944-.953V58.265a.949.949,0,0,1,.944-.953h1.385a.949.949,0,0,1,.944.953Z" transform="translate(-150.19 -46.762)" fill="#3bbf7b"/>
        <path id="Path_116983" data-name="Path 116983" d="M50.024,4.488H50c-4.785,0-14.433,2.606-14.307,14.363,3.085-.064,25.55-.064,28.635,0C64.457,7.094,54.808,4.488,50.024,4.488Z" transform="translate(-34.172 -3.662)" fill="#7ed8aa"/>
        <path id="Path_116984" data-name="Path 116984" d="M109.16,10.55a1.259,1.259,0,1,1-2.518,0V1.271a1.259,1.259,0,1,1,2.518,0Z" transform="translate(-92.059 0)" fill="#3bbf7b"/>
        <g id="Group_56897" data-name="Group 56897" transform="translate(8.539 1.08)">
          <path id="Path_116985" data-name="Path 116985" d="M142.336,12.8a1.259,1.259,0,1,1-2.518,0V7.14a1.259,1.259,0,1,1,2.518,0Z" transform="translate(-127.667 -5.869)" fill="#3bbf7b"/>
          <path id="Path_116986" data-name="Path 116986" d="M76.326,12.8a1.259,1.259,0,1,1-2.518,0V7.14a1.259,1.259,0,1,1,2.518,0Z" transform="translate(-73.808 -5.869)" fill="#3bbf7b"/>
        </g>
        <path id="Path_116987" data-name="Path 116987" d="M58.613,74.8c-2.676-.477-11.1-.651-15.349-.651s-12.674.175-15.349.651c-.441.1-.59.477-.43,1.348.094.667.146,1.067.776,1s11.465-.7,15-.7,14.374.636,15,.7.681-.336.776-1C59.2,75.272,59.053,74.891,58.613,74.8Z" transform="translate(-27.422 -60.496)" fill="#3bbf7b"/>
      </g>
    </g>
  </g>
</svg>
