<svg width="150" height="115" viewBox="0 0 150 115" fill="none" xmlns="http://www.w3.org/2000/svg">
<path d="M150 100.755H0V100.83H150V100.755Z" fill="#E0E0E0"/>
<path d="M113.802 103.521H103.482V103.596H113.802V103.521Z" fill="#E0E0E0"/>
<path d="M125.943 103.308H120.135V103.383H125.943V103.308Z" fill="#E0E0E0"/>
<path d="M74.202 103.485H66.498V103.56H74.202V103.485Z" fill="#E0E0E0"/>
<path d="M79.7698 104.55H74.5078V104.625H79.7698V104.55Z" fill="#E0E0E0"/>
<path d="M43.4009 102.727H27.5039V102.802H43.4009V102.727Z" fill="#E0E0E0"/>
<path d="M71.1038 87.3757H13.1768C12.723 87.3749 12.2881 87.1941 11.9675 86.8729C11.6469 86.5518 11.4668 86.1165 11.4668 85.6627V4.23371C11.4707 3.78251 11.6526 3.3511 11.9727 3.03317C12.2929 2.71524 12.7256 2.53648 13.1768 2.53571H71.1038C71.5581 2.53571 71.9938 2.71618 72.3151 3.03743C72.6363 3.35868 72.8168 3.79439 72.8168 4.24871V85.6627C72.8168 86.117 72.6363 86.5527 72.3151 86.874C71.9938 87.1952 71.5581 87.3757 71.1038 87.3757ZM13.1768 2.59571C12.7429 2.5965 12.327 2.76943 12.0205 3.07652C11.714 3.38362 11.5418 3.7998 11.5418 4.23371V85.6627C11.5418 86.0966 11.714 86.5128 12.0205 86.8199C12.327 87.127 12.7429 87.2999 13.1768 87.3007H71.1038C71.538 87.2999 71.9542 87.1271 72.2612 86.8201C72.5682 86.5131 72.741 86.0969 72.7418 85.6627V4.23371C72.741 3.79952 72.5682 3.38335 72.2612 3.07634C71.9542 2.76933 71.538 2.5965 71.1038 2.59571H13.1768Z" fill="#E0E0E0"/>
<path d="M135.997 87.3757H78.0665C77.6124 87.3749 77.1772 87.1942 76.8561 86.8731C76.535 86.552 76.3543 86.1168 76.3535 85.6627V4.23371C76.3583 3.78224 76.5407 3.35083 76.8614 3.03298C77.182 2.71514 77.615 2.53647 78.0665 2.53571H135.997C136.447 2.53727 136.879 2.71638 137.199 3.03422C137.518 3.35207 137.7 3.78303 137.704 4.23371V85.6627C137.704 86.116 137.524 86.5508 137.204 86.8719C136.884 87.1929 136.45 87.3741 135.997 87.3757ZM78.0665 2.59571C77.6323 2.5965 77.2162 2.76933 76.9091 3.07634C76.6021 3.38335 76.4293 3.79952 76.4285 4.23371V85.6627C76.4293 86.0969 76.6021 86.5131 76.9091 86.8201C77.2162 87.1271 77.6323 87.2999 78.0665 87.3007H135.997C136.431 87.2999 136.847 87.1271 137.154 86.8201C137.461 86.5131 137.634 86.0969 137.635 85.6627V4.23371C137.634 3.79952 137.461 3.38335 137.154 3.07634C136.847 2.76933 136.431 2.5965 135.997 2.59571H78.0665Z" fill="#E0E0E0"/>
<path d="M130.212 9.81598H85.002V48.684H130.212V9.81598Z" fill="#E0E0E0"/>
<path d="M131.214 9.81598H86.0039V48.684H131.214V9.81598Z" fill="#F0F0F0"/>
<path d="M129.41 46.8597V11.6397L87.8062 11.6397V46.8597H129.41Z" fill="#FAFAFA"/>
<path d="M116.115 46.8597V11.6397H113.397V46.8597H116.115Z" fill="#E0E0E0"/>
<path d="M101.818 46.8597V11.6397H99.1004V46.8597H101.818Z" fill="#E0E0E0"/>
<path d="M117.076 48.0143V10.2803H114.358V48.0143H117.076Z" fill="#F0F0F0"/>
<path d="M102.773 48.0187V10.2847H100.055V48.0187H102.773Z" fill="#F0F0F0"/>
<path d="M129.41 46.8568V11.6368H128.651V46.8568H129.41Z" fill="#E0E0E0"/>
<path d="M53.2048 40.5126C53.2048 40.5126 47.7028 31.0356 55.3378 23.4786C55.3378 23.4786 57.3298 24.7776 57.2998 26.5236C57.2698 28.2696 55.1638 28.7106 55.6168 30.1686C56.0698 31.6266 58.0528 33.0516 56.7508 34.2576C55.4488 35.4636 56.9608 36.5316 56.8738 38.0076C56.7868 39.4836 53.2048 40.5126 53.2048 40.5126Z" fill="#E0E0E0"/>
<path d="M54.0661 42.0629C54.0661 42.0629 56.2981 31.3289 46.6741 26.5709C46.6741 26.5709 45.1921 28.4309 45.7741 30.0779C46.3561 31.7249 48.4891 31.4789 48.5191 33.0059C48.5491 34.5329 47.1181 36.5129 48.7321 37.2449C50.3461 37.9769 49.2511 39.4709 49.8001 40.8449C50.3491 42.2189 54.0661 42.0629 54.0661 42.0629Z" fill="#E6E6E6"/>
<path d="M49.166 39.3355C49.166 39.3355 49.262 48.6025 52.967 48.6025C56.672 48.6025 56.765 39.3355 56.765 39.3355H49.166Z" fill="#F0F0F0"/>
<path d="M26.9121 45.1172C26.9121 45.1172 27.1191 48.6032 35.0301 48.6032C42.9411 48.6032 43.1511 45.1172 43.1511 45.1172H26.9121Z" fill="#E6E6E6"/>
<path d="M110.311 66.1348H106.135C105.615 66.1348 105.193 66.5566 105.193 67.0768V73.9828C105.193 74.5031 105.615 74.9248 106.135 74.9248H110.311C110.832 74.9248 111.253 74.5031 111.253 73.9828V67.0768C111.253 66.5566 110.832 66.1348 110.311 66.1348Z" fill="#F0F0F0"/>
<path d="M121.387 69.0089H118.576C118.227 69.0089 117.943 69.2923 117.943 69.6419V74.2919C117.943 74.6415 118.227 74.9249 118.576 74.9249H121.387C121.737 74.9249 122.02 74.6415 122.02 74.2919V69.6419C122.02 69.2923 121.737 69.0089 121.387 69.0089Z" fill="#E6E6E6"/>
<path d="M121.807 68.4361H118.156C118.039 68.4361 117.943 68.5315 117.943 68.6491V68.8891C117.943 69.0067 118.039 69.1021 118.156 69.1021H121.807C121.925 69.1021 122.02 69.0067 122.02 68.8891V68.6491C122.02 68.5315 121.925 68.4361 121.807 68.4361Z" fill="#F0F0F0"/>
<path d="M95.5254 70.0357C95.5254 70.0357 95.6754 74.9257 101.402 74.9257C107.129 74.9257 107.282 70.0357 107.282 70.0357H95.5254Z" fill="#E6E6E6"/>
<path d="M81.2861 63.5757H89.9531V61.8657H81.2861V63.5757Z" fill="#E0E0E0"/>
<path d="M133.042 61.8692H89.9531V63.5792H133.042V61.8692Z" fill="#F0F0F0"/>
<path d="M81.2861 76.6348H89.9531V74.9248H81.2861V76.6348Z" fill="#E0E0E0"/>
<path d="M133.042 74.9254H89.9531V76.6354H133.042V74.9254Z" fill="#F0F0F0"/>
<path d="M84.4096 63.5757H82.8105V100.752H84.4096V63.5757Z" fill="#E0E0E0"/>
<path d="M91.5521 63.5757H89.9531V100.752H91.5521V63.5757Z" fill="#F0F0F0"/>
<path d="M127.494 63.5757H125.895V100.752H127.494V63.5757Z" fill="#E0E0E0"/>
<path d="M133.042 63.5757H131.443V100.752H133.042V63.5757Z" fill="#F0F0F0"/>
<path d="M26.9108 50.7774H18.7148V98.5044H26.9108V50.7774Z" fill="#E6E6E6"/>
<path d="M60.707 98.502H20.291V100.755H60.707V98.502Z" fill="#E6E6E6"/>
<path d="M26.9064 98.502H62.2734L62.2734 50.775L26.9064 50.775L26.9064 98.502Z" fill="#F0F0F0"/>
<path d="M30.1336 80.4683H59.0566V68.8103H30.1336V80.4683Z" fill="#E6E6E6"/>
<path d="M30.1336 94.251H59.0566V82.593H30.1336V94.251Z" fill="#E6E6E6"/>
<path d="M47.8399 70.0893H41.3449C41.1335 70.0885 40.931 70.0042 40.7815 69.8547C40.632 69.7052 40.5477 69.5027 40.5469 69.2913C40.5469 69.0794 40.6309 68.8761 40.7804 68.726C40.93 68.5758 41.133 68.4911 41.3449 68.4903H47.8399C48.0518 68.4911 48.2548 68.5758 48.4043 68.726C48.5539 68.8761 48.6379 69.0794 48.6379 69.2913C48.6371 69.5027 48.5528 69.7052 48.4033 69.8547C48.2538 70.0042 48.0513 70.0885 47.8399 70.0893Z" fill="#F0F0F0"/>
<path d="M30.1336 66.6841H59.0566V55.0261H30.1336V66.6841Z" fill="#E6E6E6"/>
<path d="M47.8399 56.3066H41.3449C41.133 56.3058 40.93 56.221 40.7804 56.0709C40.6309 55.9208 40.5469 55.7175 40.5469 55.5056C40.5477 55.2942 40.632 55.0917 40.7815 54.9422C40.931 54.7927 41.1335 54.7084 41.3449 54.7076H47.8399C48.0513 54.7084 48.2538 54.7927 48.4033 54.9422C48.5528 55.0917 48.6371 55.2942 48.6379 55.5056C48.6379 55.7175 48.5539 55.9208 48.4043 56.0709C48.2548 56.221 48.0518 56.3058 47.8399 56.3066Z" fill="#F0F0F0"/>
<path d="M47.8399 83.8705H41.3449C41.1335 83.8698 40.931 83.7854 40.7815 83.6359C40.632 83.4865 40.5477 83.2839 40.5469 83.0725C40.5469 82.8606 40.6309 82.6573 40.7804 82.5072C40.93 82.3571 41.133 82.2723 41.3449 82.2715H47.8399C48.0518 82.2723 48.2548 82.3571 48.4043 82.5072C48.5539 82.6573 48.6379 82.8606 48.6379 83.0725C48.6371 83.2839 48.5528 83.4865 48.4033 83.6359C48.2538 83.7854 48.0513 83.8698 47.8399 83.8705Z" fill="#F0F0F0"/>
<path d="M63.3711 48.6036H26.9121V50.7786H63.3711V48.6036Z" fill="#E6E6E6"/>
<path d="M17.5701 50.7745H26.9121V48.5995H17.5701V50.7745Z" fill="#E0E0E0"/>
<path d="M36.0471 11.6397H22.7871V26.2017H36.0471V11.6397Z" fill="#E6E6E6"/>
<path d="M37.4812 11.6397H23.7832V26.2017H37.4812V11.6397Z" fill="#F0F0F0"/>
<path d="M36.334 25.0537V12.7867H24.931V25.0537H36.334Z" fill="#FAFAFA"/>
<path d="M33.5684 22.0799V15.7589H27.6944V22.0799H33.5684Z" fill="#F0F0F0"/>
<path d="M50.0228 7.34039H39.9668V18.1434H50.0228V7.34039Z" fill="#E6E6E6"/>
<path d="M51.0946 7.34039H40.9336V18.1434H51.0946V7.34039Z" fill="#F0F0F0"/>
<path d="M50.2383 17.2919V8.19293H41.7813V17.2919H50.2383Z" fill="#FAFAFA"/>
<path d="M46.0122 10.44L43.6992 14.448H48.3252L46.0122 10.44Z" fill="#F0F0F0"/>
<path d="M74.999 114.303C107.124 114.303 133.166 112.783 133.166 110.907C133.166 109.032 107.124 107.511 74.999 107.511C42.8743 107.511 16.832 109.032 16.832 110.907C16.832 112.783 42.8743 114.303 74.999 114.303Z" fill="#F5F5F5"/>
<path d="M125.944 29.7808H96.5141C94.9617 29.7808 93.7031 31.0393 93.7031 32.5918V40.5958C93.7031 42.1483 94.9617 43.4068 96.5141 43.4068H125.944C127.497 43.4068 128.755 42.1483 128.755 40.5958V32.5918C128.755 31.0393 127.497 29.7808 125.944 29.7808Z" fill="url(#paint0_linear_53236_26327)"/>
<path d="M120.108 32.0792H97.1189C96.8472 32.0792 96.627 32.2994 96.627 32.5712V33.1112C96.627 33.3829 96.8472 33.6032 97.1189 33.6032H120.108C120.38 33.6032 120.6 33.3829 120.6 33.1112V32.5712C120.6 32.2994 120.38 32.0792 120.108 32.0792Z" fill="url(#paint1_linear_53236_26327)"/>
<path d="M112.827 35.7515H97.1189C96.8472 35.7515 96.627 35.9718 96.627 36.2435V36.7835C96.627 37.0553 96.8472 37.2755 97.1189 37.2755H112.827C113.099 37.2755 113.319 37.0553 113.319 36.7835V36.2435C113.319 35.9718 113.099 35.7515 112.827 35.7515Z" fill="url(#paint2_linear_53236_26327)"/>
<path d="M108.615 39.4239H97.1189C96.8472 39.4239 96.627 39.6442 96.627 39.9159V40.4559C96.627 40.7276 96.8472 40.9479 97.1189 40.9479H108.615C108.887 40.9479 109.107 40.7276 109.107 40.4559V39.9159C109.107 39.6442 108.887 39.4239 108.615 39.4239Z" fill="url(#paint3_linear_53236_26327)"/>
<path d="M122.859 39.4239H111.363C111.091 39.4239 110.871 39.6442 110.871 39.9159V40.4559C110.871 40.7276 111.091 40.9479 111.363 40.9479H122.859C123.131 40.9479 123.351 40.7276 123.351 40.4559V39.9159C123.351 39.6442 123.131 39.4239 122.859 39.4239Z" fill="url(#paint4_linear_53236_26327)"/>
<g opacity="0.5">
<path d="M120.11 32.079H97.1209C96.8492 32.079 96.6289 32.2993 96.6289 32.571V33.111C96.6289 33.3827 96.8492 33.603 97.1209 33.603H120.11C120.382 33.603 120.602 33.3827 120.602 33.111V32.571C120.602 32.2993 120.382 32.079 120.11 32.079Z" fill="white"/>
<path d="M112.829 35.7513H97.1209C96.8492 35.7513 96.6289 35.9716 96.6289 36.2433V36.7833C96.6289 37.0551 96.8492 37.2753 97.1209 37.2753H112.829C113.101 37.2753 113.321 37.0551 113.321 36.7833V36.2433C113.321 35.9716 113.101 35.7513 112.829 35.7513Z" fill="white"/>
<path d="M108.617 39.4237H97.1209C96.8492 39.4237 96.6289 39.644 96.6289 39.9157V40.4557C96.6289 40.7274 96.8492 40.9477 97.1209 40.9477H108.617C108.889 40.9477 109.109 40.7274 109.109 40.4557V39.9157C109.109 39.644 108.889 39.4237 108.617 39.4237Z" fill="white"/>
<path d="M122.867 39.4237H111.371C111.099 39.4237 110.879 39.644 110.879 39.9157V40.4557C110.879 40.7274 111.099 40.9477 111.371 40.9477H122.867C123.139 40.9477 123.359 40.7274 123.359 40.4557V39.9157C123.359 39.644 123.139 39.4237 122.867 39.4237Z" fill="white"/>
</g>
<path d="M102.373 26.605H68.9677C66.6912 26.605 64.8457 28.4505 64.8457 30.727V42.463C64.8457 44.7396 66.6912 46.585 68.9677 46.585H102.373C104.649 46.585 106.495 44.7396 106.495 42.463V30.727C106.495 28.4505 104.649 26.605 102.373 26.605Z" fill="url(#paint5_linear_53236_26327)"/>
<path d="M103.554 29.9742H69.8519C69.4526 29.9742 69.1289 30.2979 69.1289 30.6972V31.4862C69.1289 31.8855 69.4526 32.2092 69.8519 32.2092H103.554C103.953 32.2092 104.277 31.8855 104.277 31.4862V30.6972C104.277 30.2979 103.953 29.9742 103.554 29.9742Z" fill="url(#paint6_linear_53236_26327)"/>
<path d="M92.8769 35.3589H69.8519C69.4526 35.3589 69.1289 35.6826 69.1289 36.0819V36.8709C69.1289 37.2702 69.4526 37.5939 69.8519 37.5939H92.8769C93.2762 37.5939 93.5999 37.2702 93.5999 36.8709V36.0819C93.5999 35.6826 93.2762 35.3589 92.8769 35.3589Z" fill="url(#paint7_linear_53236_26327)"/>
<path d="M86.7029 40.7437H69.8519C69.4526 40.7437 69.1289 41.0674 69.1289 41.4667V42.2557C69.1289 42.655 69.4526 42.9787 69.8519 42.9787H86.7029C87.1022 42.9787 87.4259 42.655 87.4259 42.2557V41.4667C87.4259 41.0674 87.1022 40.7437 86.7029 40.7437Z" fill="url(#paint8_linear_53236_26327)"/>
<path d="M104.781 40.7437H90.7406C90.3413 40.7437 90.0176 41.0674 90.0176 41.4667V42.2557C90.0176 42.655 90.3413 42.9787 90.7406 42.9787H104.781C105.18 42.9787 105.504 42.655 105.504 42.2557V41.4667C105.504 41.0674 105.18 40.7437 104.781 40.7437Z" fill="url(#paint9_linear_53236_26327)"/>
<g opacity="0.5">
<path d="M103.554 29.9745H69.8519C69.4526 29.9745 69.1289 30.2982 69.1289 30.6975V31.4865C69.1289 31.8858 69.4526 32.2095 69.8519 32.2095H103.554C103.953 32.2095 104.277 31.8858 104.277 31.4865V30.6975C104.277 30.2982 103.953 29.9745 103.554 29.9745Z" fill="white"/>
<path d="M92.8769 35.3593H69.8519C69.4526 35.3593 69.1289 35.683 69.1289 36.0823V36.8713C69.1289 37.2706 69.4526 37.5943 69.8519 37.5943H92.8769C93.2762 37.5943 93.5999 37.2706 93.5999 36.8713V36.0823C93.5999 35.683 93.2762 35.3593 92.8769 35.3593Z" fill="white"/>
<path d="M86.7029 40.744H69.8519C69.4526 40.744 69.1289 41.0677 69.1289 41.467V42.256C69.1289 42.6553 69.4526 42.979 69.8519 42.979H86.7029C87.1022 42.979 87.4259 42.6553 87.4259 42.256V41.467C87.4259 41.0677 87.1022 40.744 86.7029 40.744Z" fill="white"/>
<path d="M104.781 40.744H90.7406C90.3413 40.744 90.0176 41.0677 90.0176 41.467V42.256C90.0176 42.6553 90.3413 42.979 90.7406 42.979H104.781C105.18 42.979 105.504 42.6553 105.504 42.256V41.467C105.504 41.0677 105.18 40.744 104.781 40.744Z" fill="white"/>
</g>
<path d="M81.6009 50.2051H65.5119C64.4482 50.2051 63.5859 51.0674 63.5859 52.1311V76.2331C63.5859 77.2968 64.4482 78.1591 65.5119 78.1591H81.6009C82.6646 78.1591 83.5269 77.2968 83.5269 76.2331V52.1311C83.5269 51.0674 82.6646 50.2051 81.6009 50.2051Z" fill="url(#paint10_linear_53236_26327)"/>
<path opacity="0.4" d="M81.6009 50.2051H65.5119C64.4482 50.2051 63.5859 51.0674 63.5859 52.1311V76.2331C63.5859 77.2968 64.4482 78.1591 65.5119 78.1591H81.6009C82.6646 78.1591 83.5269 77.2968 83.5269 76.2331V52.1311C83.5269 51.0674 82.6646 50.2051 81.6009 50.2051Z" fill="black"/>
<path d="M80.8645 53.1216H66.2485C66.053 53.1216 65.8945 53.2801 65.8945 53.4756V54.0066C65.8945 54.2022 66.053 54.3606 66.2485 54.3606H80.8645C81.06 54.3606 81.2185 54.2022 81.2185 54.0066V53.4756C81.2185 53.2801 81.06 53.1216 80.8645 53.1216Z" fill="#FAFAFA"/>
<path d="M76.2115 56.1041H66.2485C66.053 56.1041 65.8945 56.2626 65.8945 56.4581V56.9891C65.8945 57.1846 66.053 57.3431 66.2485 57.3431H76.2115C76.407 57.3431 76.5655 57.1846 76.5655 56.9891V56.4581C76.5655 56.2626 76.407 56.1041 76.2115 56.1041Z" fill="#FAFAFA"/>
<path d="M80.8645 59.088H66.2485C66.053 59.088 65.8945 59.2464 65.8945 59.442V59.973C65.8945 60.1685 66.053 60.327 66.2485 60.327H80.8645C81.06 60.327 81.2185 60.1685 81.2185 59.973V59.442C81.2185 59.2464 81.06 59.088 80.8645 59.088Z" fill="#FAFAFA"/>
<path d="M71.6815 62.0704H66.2485C66.053 62.0704 65.8945 62.2289 65.8945 62.4244V62.9554C65.8945 63.1509 66.053 63.3094 66.2485 63.3094H71.6815C71.877 63.3094 72.0355 63.1509 72.0355 62.9554V62.4244C72.0355 62.2289 71.877 62.0704 71.6815 62.0704Z" fill="#FAFAFA"/>
<path d="M79.2811 62.0704H73.8481C73.6526 62.0704 73.4941 62.2289 73.4941 62.4244V62.9554C73.4941 63.1509 73.6526 63.3094 73.8481 63.3094H79.2811C79.4767 63.3094 79.6351 63.1509 79.6351 62.9554V62.4244C79.6351 62.2289 79.4767 62.0704 79.2811 62.0704Z" fill="#FAFAFA"/>
<path d="M80.8645 65.0557H66.2485C66.053 65.0557 65.8945 65.2142 65.8945 65.4097V65.9407C65.8945 66.1362 66.053 66.2947 66.2485 66.2947H80.8645C81.06 66.2947 81.2185 66.1362 81.2185 65.9407V65.4097C81.2185 65.2142 81.06 65.0557 80.8645 65.0557Z" fill="#FAFAFA"/>
<path d="M80.8645 68.0381H66.2485C66.053 68.0381 65.8945 68.1966 65.8945 68.3921V68.9232C65.8945 69.1187 66.053 69.2771 66.2485 69.2771H80.8645C81.06 69.2771 81.2185 69.1187 81.2185 68.9232V68.3921C81.2185 68.1966 81.06 68.0381 80.8645 68.0381Z" fill="#FAFAFA"/>
<path d="M78.2725 71.022H66.2485C66.053 71.022 65.8945 71.1805 65.8945 71.376V71.907C65.8945 72.1025 66.053 72.261 66.2485 72.261H78.2725C78.468 72.261 78.6265 72.1025 78.6265 71.907V71.376C78.6265 71.1805 78.468 71.022 78.2725 71.022Z" fill="#FAFAFA"/>
<path d="M71.8585 74.0045H66.2485C66.053 74.0045 65.8945 74.1629 65.8945 74.3585V74.8895C65.8945 75.085 66.053 75.2434 66.2485 75.2434H71.8585C72.054 75.2434 72.2125 75.085 72.2125 74.8895V74.3585C72.2125 74.1629 72.054 74.0045 71.8585 74.0045Z" fill="#FAFAFA"/>
<path d="M85.9557 50.0352H63.6387L73.5057 57.8862L88.6347 63.5862V52.7082C88.6331 51.9987 88.3501 51.3189 87.8479 50.8178C87.3457 50.3166 86.6651 50.0352 85.9557 50.0352Z" fill="url(#paint11_linear_53236_26327)"/>
<path opacity="0.4" d="M85.9557 50.0352H63.6387L73.5057 57.8862L88.6347 63.5862V52.7082C88.6331 51.9987 88.3501 51.3189 87.8479 50.8178C87.3457 50.3166 86.6651 50.0352 85.9557 50.0352Z" fill="black"/>
<path d="M84.9761 54.0782H68.6471C68.4019 54.0782 68.2031 54.277 68.2031 54.5222V55.3502C68.2031 55.5954 68.4019 55.7942 68.6471 55.7942H84.9761C85.2213 55.7942 85.4201 55.5954 85.4201 55.3502V54.5222C85.4201 54.277 85.2213 54.0782 84.9761 54.0782Z" fill="#FAFAFA"/>
<path d="M124.547 71.2871V55.5911C124.547 54.3883 123.572 53.4131 122.369 53.4131H95.1139C93.911 53.4131 92.9359 54.3883 92.9359 55.5911V71.2871C92.9359 72.49 93.911 73.4651 95.1139 73.4651H122.369C123.572 73.4651 124.547 72.49 124.547 71.2871Z" fill="url(#paint12_linear_53236_26327)"/>
<path d="M129.527 66.3125V50.6165C129.527 49.4137 128.552 48.4385 127.349 48.4385H100.094C98.8915 48.4385 97.9163 49.4137 97.9163 50.6165V66.3125C97.9163 67.5154 98.8915 68.4905 100.094 68.4905H127.349C128.552 68.4905 129.527 67.5154 129.527 66.3125Z" fill="url(#paint13_linear_53236_26327)"/>
<path opacity="0.5" d="M129.527 66.3125V50.6165C129.527 49.4137 128.552 48.4385 127.349 48.4385H100.094C98.8915 48.4385 97.9163 49.4137 97.9163 50.6165V66.3125C97.9163 67.5154 98.8915 68.4905 100.094 68.4905H127.349C128.552 68.4905 129.527 67.5154 129.527 66.3125Z" fill="white"/>
<path d="M126.762 60.9338V51.2708C126.762 50.7356 126.328 50.3018 125.793 50.3018H116.886C116.351 50.3018 115.917 50.7356 115.917 51.2708V60.9338C115.917 61.469 116.351 61.9028 116.886 61.9028H125.793C126.328 61.9028 126.762 61.469 126.762 60.9338Z" fill="url(#paint14_linear_53236_26327)"/>
<path opacity="0.7" d="M126.762 60.9338V51.2708C126.762 50.7356 126.328 50.3018 125.793 50.3018H116.886C116.351 50.3018 115.917 50.7356 115.917 51.2708V60.9338C115.917 61.469 116.351 61.9028 116.886 61.9028H125.793C126.328 61.9028 126.762 61.469 126.762 60.9338Z" fill="white"/>
<path d="M114.217 65.607V58.203C114.217 57.7921 113.884 57.459 113.473 57.459H106.648C106.237 57.459 105.904 57.7921 105.904 58.203V65.607C105.904 66.0179 106.237 66.351 106.648 66.351H113.473C113.884 66.351 114.217 66.0179 114.217 65.607Z" fill="url(#paint15_linear_53236_26327)"/>
<path opacity="0.3" d="M114.217 65.607V58.203C114.217 57.7921 113.884 57.459 113.473 57.459H106.648C106.237 57.459 105.904 57.7921 105.904 58.203V65.607C105.904 66.0179 106.237 66.351 106.648 66.351H113.473C113.884 66.351 114.217 66.0179 114.217 65.607Z" fill="white"/>
<path d="M110.057 18.6633V14.6643C110.057 13.4415 109.065 12.4503 107.843 12.4503L34.6036 12.4503C33.3809 12.4503 32.3896 13.4415 32.3896 14.6643V18.6633C32.3896 19.886 33.3809 20.8773 34.6036 20.8773L107.843 20.8773C109.065 20.8773 110.057 19.886 110.057 18.6633Z" fill="url(#paint16_linear_53236_26327)"/>
<path opacity="0.5" d="M110.057 18.6633V14.6643C110.057 13.4415 109.065 12.4503 107.843 12.4503L34.6036 12.4503C33.3809 12.4503 32.3896 13.4415 32.3896 14.6643V18.6633C32.3896 19.886 33.3809 20.8773 34.6036 20.8773L107.843 20.8773C109.065 20.8773 110.057 19.886 110.057 18.6633Z" fill="white"/>
<path d="M96.1992 22.2873V19.3863H75.1242V22.2873H96.1992Z" fill="url(#paint17_linear_53236_26327)"/>
<path opacity="0.5" d="M96.1992 22.2873V19.3863H75.1242V22.2873H96.1992Z" fill="white"/>
<path d="M117.615 6.21355V2.21455C117.615 0.991792 116.624 0.000549316 115.401 0.000549316L42.1622 0.000549316C40.9395 0.000549316 39.9482 0.991792 39.9482 2.21455V6.21355C39.9482 7.43631 40.9395 8.42755 42.1622 8.42755L115.401 8.42755C116.624 8.42755 117.615 7.43631 117.615 6.21355Z" fill="url(#paint18_linear_53236_26327)"/>
<path d="M39.1121 44.3127C38.8481 44.9127 38.5571 45.5607 38.3021 46.1937C38.0471 46.8267 37.7831 47.4777 37.5521 48.1257C37.0782 49.3889 36.6981 50.6855 36.4151 52.0047L36.3281 52.4847L36.2981 52.6647C36.2981 52.7157 36.2981 52.7817 36.2801 52.8417C36.2687 53.1338 36.2747 53.4263 36.2981 53.7177C36.3551 54.3507 36.4571 55.0287 36.5981 55.7067C36.8501 57.0657 37.1711 58.4667 37.4981 59.8467L35.9591 60.4467C35.2417 59.1389 34.6307 57.7755 34.1321 56.3697C33.8694 55.638 33.6569 54.8893 33.4961 54.1287C33.406 53.7079 33.3498 53.2805 33.3281 52.8507C33.3281 52.7307 33.3281 52.6167 33.3281 52.4877C33.3281 52.3587 33.3281 52.2147 33.3491 52.1307L33.4091 51.5307C33.4988 50.758 33.636 49.9915 33.8201 49.2357C33.9881 48.4857 34.2041 47.7567 34.4201 47.0367C34.6361 46.3167 34.9061 45.6087 35.1911 44.9127C35.3321 44.5647 35.4911 44.2197 35.6291 43.8747C35.7671 43.5297 35.9291 43.1997 36.1211 42.8307L39.1121 44.3127Z" fill="#E4897B"/>
<path d="M37.413 59.442L38.583 60.585L36.03 61.785C36.03 61.785 35.412 60.702 35.841 59.724L37.413 59.442Z" fill="#E4897B"/>
<path d="M39.5302 62.2856L37.3732 63.1676L36.0352 61.7726L38.5852 60.5846L39.5302 62.2856Z" fill="#E4897B"/>
<path opacity="0.4" d="M83.227 61.0565C78.9823 60.5799 74.9742 58.8555 71.7093 56.1013C68.4445 53.3471 66.0696 49.6867 64.8847 45.5829C63.6999 41.4791 63.7584 37.1162 65.0528 33.0457C66.3472 28.9751 68.8194 25.3797 72.1569 22.714C75.4944 20.0483 79.5473 18.432 83.8032 18.0693C88.0592 17.7067 92.3272 18.614 96.0675 20.6766C99.8079 22.7393 102.853 25.8645 104.817 29.6574C106.782 33.4503 107.577 37.7404 107.104 41.9855C106.789 44.8059 105.922 47.5367 104.552 50.0218C103.181 52.5069 101.335 54.6976 99.1173 56.4687C96.8999 58.2398 94.3552 59.5565 91.6287 60.3437C88.9021 61.1309 86.0472 61.3731 83.227 61.0565Z" fill="#FAFAFA"/>
<path opacity="0.4" d="M98.937 22.5726L66.087 48.8196C65.949 48.5196 65.814 48.2196 65.688 47.9196C64.8645 45.9607 64.3377 43.8899 64.125 41.7756L92.499 19.1046C94.8285 19.8817 97.0065 21.0549 98.937 22.5726Z" fill="#FAFAFA"/>
<path opacity="0.4" d="M106.519 34.0716L75.6341 58.7466C72.7 57.2171 70.1574 55.0327 68.2031 52.3626L101.926 25.4166C104.1 27.9117 105.671 30.8729 106.519 34.0716Z" fill="#FAFAFA"/>
<path d="M61.3162 31.3351L61.0312 31.2391C61.5248 29.7826 62.1452 28.3722 62.8852 27.0241L63.1463 27.1681C62.416 28.5011 61.8037 29.8954 61.3162 31.3351ZM64.9582 24.3331L64.7152 24.1561C67.1807 20.8224 70.4074 18.1265 74.1262 16.2931L74.2612 16.5631C70.5846 18.3776 67.395 21.0447 64.9582 24.3421V24.3331ZM97.8352 16.9741C96.8549 16.4482 95.8407 15.9882 94.7992 15.5971L94.9072 15.3151C95.9589 15.7154 96.9831 16.1844 97.9732 16.7191L97.8352 16.9741Z" fill="url(#paint19_linear_53236_26327)"/>
<path opacity="0.3" d="M61.3162 31.3351L61.0312 31.2391C61.5248 29.7826 62.1452 28.3722 62.8852 27.0241L63.1463 27.1681C62.416 28.5011 61.8037 29.8954 61.3162 31.3351ZM64.9582 24.3331L64.7152 24.1561C67.1807 20.8224 70.4074 18.1265 74.1262 16.2931L74.2612 16.5631C70.5846 18.3776 67.395 21.0447 64.9582 24.3421V24.3331ZM97.8352 16.9741C96.8549 16.4482 95.8407 15.9882 94.7992 15.5971L94.9072 15.3151C95.9589 15.7154 96.9831 16.1844 97.9732 16.7191L97.8352 16.9741Z" fill="black"/>
<path d="M107.963 28.557C105.186 22.7956 100.297 18.3241 94.3115 16.0695C88.3259 13.8149 81.7022 13.9502 75.8136 16.4472C69.925 18.9442 65.2231 23.6115 62.6827 29.4814C60.1423 35.3514 59.9581 41.9739 62.1684 47.976C60.1644 48.678 58.1844 49.431 56.2164 50.208C53.3784 51.334 50.5664 52.51 47.7804 53.736C44.9964 54.969 42.2244 56.226 39.4794 57.54C38.1024 58.185 36.7434 58.866 35.3724 59.526C34.6592 59.8325 34.013 60.2758 33.4704 60.831C33.1768 61.1384 32.9182 61.4775 32.6994 61.842C32.4325 62.2731 32.2303 62.7411 32.0994 63.231C31.8737 64.1138 31.9713 65.0483 32.3746 65.8654C32.778 66.6825 33.4604 67.3283 34.2984 67.686C34.7638 67.8812 35.2548 68.0085 35.7564 68.064C36.1801 68.112 36.6078 68.112 37.0314 68.064C37.8013 67.9706 38.5453 67.727 39.2214 67.347C40.5804 66.66 41.9484 65.997 43.2984 65.292C45.9984 63.915 48.6984 62.478 51.3654 61.02C54.0324 59.562 56.7024 58.035 59.3064 56.469C61.1064 55.38 62.9244 54.267 64.7064 53.103C68.1283 58.505 73.4973 62.3834 79.7009 63.9347C85.9044 65.4859 92.467 64.5911 98.0288 61.4355C103.591 58.2799 107.725 53.1056 109.576 46.9847C111.426 40.8637 110.851 34.2654 107.969 28.557H107.963ZM94.3254 57.216C90.839 58.9369 86.9206 59.5853 83.0657 59.0794C79.2108 58.5734 75.5925 56.9358 72.6682 54.3735C69.744 51.8112 67.6452 48.4393 66.6372 44.6843C65.6292 40.9292 65.7573 36.9596 67.0053 33.2774C68.2533 29.5951 70.5651 26.3656 73.6484 23.9972C76.7317 21.6287 80.4481 20.2277 84.3276 19.9713C88.2072 19.715 92.0756 20.6147 95.4438 22.5567C98.812 24.4988 101.529 27.396 103.25 30.882C104.394 33.1971 105.07 35.7147 105.24 38.2912C105.411 40.8676 105.072 43.4523 104.243 45.8977C103.414 48.3432 102.112 50.6014 100.41 52.5434C98.7083 54.4854 96.6408 56.0731 94.3254 57.216Z" fill="url(#paint20_linear_53236_26327)"/>
<path opacity="0.3" d="M107.963 28.557C105.186 22.7956 100.297 18.3241 94.3115 16.0695C88.3259 13.8149 81.7022 13.9502 75.8136 16.4472C69.925 18.9442 65.2231 23.6115 62.6827 29.4814C60.1423 35.3514 59.9581 41.9739 62.1684 47.976C60.1644 48.678 58.1844 49.431 56.2164 50.208C53.3784 51.334 50.5664 52.51 47.7804 53.736C44.9964 54.969 42.2244 56.226 39.4794 57.54C38.1024 58.185 36.7434 58.866 35.3724 59.526C34.6592 59.8325 34.013 60.2758 33.4704 60.831C33.1768 61.1384 32.9182 61.4775 32.6994 61.842C32.4325 62.2731 32.2303 62.7411 32.0994 63.231C31.8737 64.1138 31.9713 65.0483 32.3746 65.8654C32.778 66.6825 33.4604 67.3283 34.2984 67.686C34.7638 67.8812 35.2548 68.0085 35.7564 68.064C36.1801 68.112 36.6078 68.112 37.0314 68.064C37.8013 67.9706 38.5453 67.727 39.2214 67.347C40.5804 66.66 41.9484 65.997 43.2984 65.292C45.9984 63.915 48.6984 62.478 51.3654 61.02C54.0324 59.562 56.7024 58.035 59.3064 56.469C61.1064 55.38 62.9244 54.267 64.7064 53.103C68.1283 58.505 73.4973 62.3834 79.7009 63.9347C85.9044 65.4859 92.467 64.5911 98.0288 61.4355C103.591 58.2799 107.725 53.1056 109.576 46.9847C111.426 40.8637 110.851 34.2654 107.969 28.557H107.963ZM94.3254 57.216C90.839 58.9369 86.9206 59.5853 83.0657 59.0794C79.2108 58.5734 75.5925 56.9358 72.6682 54.3735C69.744 51.8112 67.6452 48.4393 66.6372 44.6843C65.6292 40.9292 65.7573 36.9596 67.0053 33.2774C68.2533 29.5951 70.5651 26.3656 73.6484 23.9972C76.7317 21.6287 80.4481 20.2277 84.3276 19.9713C88.2072 19.715 92.0756 20.6147 95.4438 22.5567C98.812 24.4988 101.529 27.396 103.25 30.882C104.394 33.1971 105.07 35.7147 105.24 38.2912C105.411 40.8676 105.072 43.4523 104.243 45.8977C103.414 48.3432 102.112 50.6014 100.41 52.5434C98.7083 54.4854 96.6408 56.0731 94.3254 57.216Z" fill="black"/>
<path d="M47.4023 33.5994C47.4023 33.7764 47.4953 33.9204 47.6123 33.9204C47.7293 33.9204 47.8223 33.7764 47.8223 33.5994C47.8223 33.4224 47.7293 33.2784 47.6123 33.2784C47.4953 33.2784 47.4023 33.4344 47.4023 33.5994Z" fill="#263238"/>
<path d="M47.4844 33.9215C47.6967 34.4648 47.9824 34.9766 48.3334 35.4425C48.212 35.5293 48.0731 35.5885 47.9265 35.616C47.7798 35.6435 47.6289 35.6385 47.4844 35.6015V33.9215Z" fill="#DE5753"/>
<path d="M46.7816 32.6131C46.7649 32.6131 46.7483 32.6093 46.7333 32.602C46.7182 32.5948 46.705 32.5842 46.6946 32.5711C46.679 32.5482 46.6727 32.5201 46.6772 32.4928C46.6817 32.4654 46.6965 32.4408 46.7186 32.4241C46.8507 32.3239 47.0051 32.2571 47.1686 32.2294C47.3321 32.2017 47.4998 32.214 47.6576 32.2651C47.6718 32.2689 47.685 32.2757 47.6963 32.285C47.7077 32.2943 47.717 32.3058 47.7237 32.3189C47.7303 32.332 47.7341 32.3464 47.7349 32.3611C47.7356 32.3757 47.7333 32.3904 47.728 32.4041C47.7227 32.4178 47.7146 32.4302 47.7042 32.4406C47.6939 32.451 47.6814 32.4591 47.6677 32.4644C47.654 32.4697 47.6394 32.472 47.6247 32.4713C47.61 32.4705 47.5957 32.4667 47.5826 32.4601C47.4573 32.4216 47.3246 32.4139 47.1956 32.4373C47.0667 32.4608 46.9453 32.5149 46.8416 32.5951C46.8238 32.6069 46.8029 32.6131 46.7816 32.6131Z" fill="#263238"/>
<path d="M41.3437 34.9352C41.6437 36.5462 41.9737 39.5012 40.8457 40.5782C40.8457 40.5782 41.2867 42.2132 44.2837 42.2132C47.5837 42.2132 45.8557 40.5782 45.8557 40.5782C44.0557 40.1462 44.1067 38.8142 44.4187 37.5602L41.3437 34.9352Z" fill="#E4897B"/>
<path d="M39.495 41.4276C39.852 40.8726 39.252 39.5256 39.252 39.5256C39.252 39.5256 44.556 38.1906 46.725 40.2396C47.175 40.6626 46.677 41.2866 46.677 41.2866L39.495 41.4276Z" fill="url(#paint21_linear_53236_26327)"/>
<path opacity="0.1" d="M39.495 41.4276C39.852 40.8726 39.252 39.5256 39.252 39.5256C39.252 39.5256 44.556 38.1906 46.725 40.2396C47.175 40.6626 46.677 41.2866 46.677 41.2866L39.495 41.4276Z" fill="black"/>
<path d="M30.7202 102.637C30.4412 102.637 29.9942 102.172 29.8622 101.998C29.8565 101.989 29.8535 101.979 29.8535 101.969C29.8535 101.959 29.8565 101.949 29.8622 101.941C29.8671 101.932 29.8741 101.925 29.8825 101.921C29.891 101.916 29.9005 101.913 29.9102 101.914C29.9432 101.914 30.6782 101.98 30.8792 102.241C30.9011 102.268 30.9167 102.3 30.925 102.334C30.9333 102.369 30.934 102.404 30.9272 102.439C30.9246 102.483 30.9082 102.526 30.8803 102.561C30.8523 102.596 30.8142 102.621 30.7712 102.634L30.7202 102.637ZM30.0242 102.037C30.2432 102.289 30.5942 102.574 30.7442 102.538C30.7442 102.538 30.8042 102.523 30.8222 102.427C30.8262 102.407 30.8255 102.386 30.8203 102.366C30.8151 102.347 30.8055 102.328 30.7922 102.313C30.57 102.144 30.3026 102.046 30.0242 102.031V102.037Z" fill="url(#paint22_linear_53236_26327)"/>
<path d="M30.0581 102.03C30.0042 102.035 29.9499 102.035 29.8961 102.03C29.8866 102.029 29.8775 102.025 29.8701 102.019C29.8626 102.014 29.857 102.006 29.8541 101.997C29.8499 101.988 29.8477 101.979 29.8477 101.97C29.8477 101.96 29.8499 101.951 29.8541 101.943C29.8751 101.925 30.3161 101.466 30.6491 101.466C30.6889 101.465 30.7285 101.472 30.7652 101.488C30.8019 101.503 30.8349 101.526 30.8621 101.556C30.8919 101.581 30.9124 101.615 30.92 101.653C30.9277 101.691 30.922 101.731 30.9041 101.766C30.8171 101.934 30.3581 102.03 30.0581 102.03ZM30.0191 101.925C30.3191 101.925 30.7541 101.832 30.8261 101.7C30.8261 101.7 30.8471 101.661 30.7991 101.613C30.7816 101.594 30.7602 101.579 30.7364 101.569C30.7125 101.559 30.6868 101.554 30.6611 101.556C30.4151 101.612 30.1916 101.74 30.0191 101.925Z" fill="url(#paint23_linear_53236_26327)"/>
<path d="M50.5165 109.446C50.2891 109.444 50.0623 109.423 49.8385 109.383C49.8274 109.38 49.8174 109.375 49.8103 109.366C49.8031 109.357 49.7993 109.346 49.7995 109.335C49.7978 109.324 49.7992 109.314 49.8035 109.304C49.8077 109.294 49.8147 109.286 49.8235 109.281C49.8565 109.263 50.6245 108.822 50.9935 108.924C51.0277 108.931 51.06 108.946 51.0884 108.967C51.1168 108.987 51.1406 109.013 51.1585 109.044C51.182 109.077 51.1946 109.117 51.1946 109.158C51.1946 109.198 51.182 109.238 51.1585 109.272C51.0715 109.407 50.7985 109.446 50.5165 109.446ZM50.0095 109.305C50.4175 109.365 50.9755 109.362 51.0775 109.218C51.0925 109.2 51.1045 109.167 51.0775 109.104C51.0546 109.066 51.018 109.039 50.9755 109.029C50.7415 108.969 50.2765 109.167 50.0095 109.305Z" fill="url(#paint24_linear_53236_26327)"/>
<path d="M49.851 109.387C49.8412 109.39 49.8308 109.39 49.821 109.387C49.8127 109.381 49.8062 109.374 49.8024 109.365C49.7987 109.355 49.7978 109.345 49.8 109.336C49.8203 109.023 49.9402 108.726 50.142 108.487C50.1828 108.451 50.2307 108.425 50.2825 108.41C50.3343 108.395 50.3887 108.392 50.442 108.4C50.586 108.4 50.628 108.487 50.637 108.544C50.676 108.793 50.151 109.27 49.884 109.39L49.851 109.387ZM50.388 108.487C50.322 108.486 50.258 108.51 50.208 108.553C50.0384 108.742 49.9333 108.981 49.908 109.234C50.178 109.069 50.538 108.697 50.508 108.547C50.508 108.547 50.508 108.496 50.406 108.487H50.388Z" fill="url(#paint25_linear_53236_26327)"/>
<path d="M47.4258 109.333H49.6308L49.8498 104.23H47.6448L47.4258 109.333Z" fill="#E4897B"/>
<path d="M27.7969 100.572L29.6389 101.778L33.7069 98.3429L31.8619 97.1339L27.7969 100.572Z" fill="#E4897B"/>
<path d="M29.9402 101.664L28.0262 100.095C27.9923 100.067 27.9499 100.052 27.9062 100.052C27.8624 100.052 27.82 100.067 27.7862 100.095L26.2082 101.334C26.17 101.364 26.1392 101.403 26.1181 101.447C26.0969 101.491 26.0859 101.539 26.0859 101.587C26.0859 101.636 26.0969 101.684 26.1181 101.728C26.1392 101.772 26.17 101.811 26.2082 101.841C26.8862 102.378 27.2432 102.606 28.0862 103.296C28.6052 103.719 29.8862 105.015 30.6092 105.6C31.3322 106.185 31.9952 105.555 31.7552 105.252C30.6782 103.887 30.2552 102.72 30.1322 101.997C30.1109 101.866 30.0426 101.748 29.9402 101.664Z" fill="#263238"/>
<path d="M49.6201 109.077H47.2201C47.1763 109.077 47.1339 109.092 47.0996 109.119C47.0653 109.146 47.0412 109.184 47.0311 109.227L46.5961 111.186C46.5851 111.233 46.5852 111.283 46.5961 111.33C46.6071 111.378 46.6287 111.422 46.6594 111.46C46.69 111.498 46.7289 111.528 46.773 111.549C46.8171 111.569 46.8654 111.58 46.9141 111.579C47.7811 111.564 49.0351 111.513 50.1271 111.513C51.4021 111.513 52.5061 111.582 54.0001 111.582C54.9001 111.582 55.1581 110.667 54.7771 110.586C53.0551 110.208 51.6451 110.169 50.1571 109.248C49.9974 109.142 49.8115 109.083 49.6201 109.077Z" fill="#263238"/>
<path d="M36.498 41.235C34.587 42.135 33.498 48.165 33.498 48.165L38.169 50.028C38.8528 48.3585 39.4054 46.6383 39.822 44.883C40.464 42.105 38.454 40.305 36.498 41.235Z" fill="#263238"/>
<path d="M38.9804 44.6341C37.8254 45.8041 37.2974 48.0961 37.0664 49.5871L38.1854 50.0341C38.8497 48.412 39.3912 46.7423 39.8054 45.0391C39.7064 44.4031 39.4604 44.1481 38.9804 44.6341Z" fill="#203048"/>
<path d="M49.2415 41.1937C49.2415 41.1937 51.5875 43.8457 49.3735 60.2437H37.5865C37.5055 58.4437 38.6425 49.6087 36.8965 41.0827C38.1991 40.8301 39.517 40.6637 40.8415 40.5847C42.51 40.4856 44.183 40.4856 45.8515 40.5847C46.9955 40.6998 48.1289 40.9034 49.2415 41.1937Z" fill="#263238"/>
<path d="M50.3227 47.5589L48.3367 44.1359C47.9533 45.733 47.7968 47.3761 47.8717 49.0169C47.9257 50.1929 49.0027 54.5489 49.9717 55.1849C50.2288 52.6513 50.346 50.1054 50.3227 47.5589Z" fill="#203048"/>
<path d="M50.5963 43.5367C50.8963 44.9947 51.1963 46.4887 51.5173 47.9527C51.8383 49.4167 52.1713 50.8867 52.5583 52.3057C52.6573 52.6567 52.7503 53.0167 52.8583 53.3527L52.9393 53.6107L52.9783 53.7397V53.7247C52.9573 53.6977 52.9333 53.6947 52.9513 53.7247C53.0746 53.8594 53.2322 53.9579 53.4073 54.0097C53.6909 54.1153 53.983 54.1966 54.2803 54.2527C55.6987 54.4775 57.1348 54.5709 58.5703 54.5317L58.8553 56.1637C58.4533 56.2927 58.0783 56.3857 57.6823 56.4787C57.2863 56.5717 56.8963 56.6497 56.4973 56.7097C55.6718 56.8472 54.8348 56.9035 53.9983 56.8777C53.5334 56.8652 53.0709 56.8049 52.6183 56.6977C52.0428 56.5719 51.502 56.3209 51.0343 55.9627C50.7288 55.7161 50.4767 55.4099 50.2933 55.0627C50.2453 54.9727 50.2033 54.8707 50.1643 54.7837L50.1103 54.6427L49.9993 54.3427C49.8463 53.9617 49.7203 53.5867 49.5823 53.2117C49.0753 51.7117 48.6523 50.1967 48.2803 48.6847C47.9083 47.1727 47.5873 45.6637 47.3203 44.1127L50.5963 43.5367Z" fill="#E4897B"/>
<path d="M46.2997 42.8013C45.6787 44.8143 48.1957 50.8173 48.1957 50.8173L53.2087 49.5573C53.2087 49.5573 53.0167 46.4373 51.8737 43.9623C50.1517 40.2303 47.0437 40.3863 46.2997 42.8013Z" fill="#263238"/>
<path d="M58.5277 54.5304L61.0238 54.4674L59.8238 57.0654C59.8238 57.0654 58.8068 57.2004 57.9728 55.8294L57.0938 54.7794L58.1047 54.5784C58.2439 54.5491 58.3856 54.533 58.5277 54.5304Z" fill="#E4897B"/>
<path d="M62.5992 54.9504L61.1712 57.1044L59.8242 57.0654L61.0242 54.4674L62.5992 54.9504Z" fill="#E4897B"/>
<path d="M49.8502 104.23L49.7362 106.861H47.5312L47.6453 104.23H49.8502Z" fill="#CE6F64"/>
<path d="M31.8568 97.1339L33.7018 98.3429L31.6018 100.113L29.7598 98.9069L31.8568 97.1339Z" fill="#CE6F64"/>
<path d="M41.4795 33.2193C41.6115 35.4003 41.5785 36.6873 42.6795 37.8063C44.3355 39.4953 47.0325 38.4963 47.5545 36.3063C48.0255 34.3443 47.7315 31.1043 45.5955 30.2343C45.1242 30.0441 44.6123 29.9767 44.1078 30.0385C43.6034 30.1003 43.1229 30.2893 42.7114 30.5877C42.3 30.886 41.9711 31.2841 41.7556 31.7444C41.5401 32.2047 41.4451 32.7122 41.4795 33.2193Z" fill="#E4897B"/>
<path d="M38.9106 32.8358C39.4536 34.8248 40.7316 37.1168 42.3846 37.2638C44.4366 37.4438 45.3636 35.3228 45.6336 33.1328C46.8636 32.2898 46.2186 31.3628 47.4516 31.2458C49.0356 31.0958 48.5286 28.1978 46.4436 27.7328C46.4436 27.7328 47.1426 29.0378 45.6756 28.3778C44.2804 27.7148 42.7305 27.4461 41.1936 27.6008C41.1936 27.6008 43.0656 28.5368 41.2356 28.9538C39.4056 29.3708 38.8596 30.4988 39.7026 31.1798C39.7026 31.1828 38.5536 31.5278 38.9106 32.8358Z" fill="#263238"/>
<path d="M44.387 33.5821C44.4273 34.1243 44.6457 34.6379 45.008 35.0431C45.488 35.5741 45.989 35.2441 46.073 34.5991C46.151 34.0201 45.992 33.0451 45.404 32.7511C44.816 32.4571 44.348 32.9281 44.387 33.5821Z" fill="#E4897B"/>
<path d="M45.1953 60.2434C45.1953 60.2434 47.3433 75.7984 45.6513 82.0324C42.9693 91.9024 32.7153 100.233 32.7153 100.233L29.2383 97.9534C29.2383 97.9534 37.9713 90.9184 39.0393 82.6534C39.9993 75.2344 37.5903 66.2614 37.5903 60.2404L45.1953 60.2434Z" fill="url(#paint26_linear_53236_26327)"/>
<path opacity="0.1" d="M45.1953 60.2434C45.1953 60.2434 47.3433 75.7984 45.6513 82.0324C42.9693 91.9024 32.7153 100.233 32.7153 100.233L29.2383 97.9534C29.2383 97.9534 37.9713 90.9184 39.0393 82.6534C39.9993 75.2344 37.5903 66.2614 37.5903 60.2404L45.1953 60.2434Z" fill="black"/>
<path d="M46.0841 69.1346C45.5123 68.4795 44.8828 67.8771 44.2031 67.3346C44.5691 72.3836 44.8691 79.8626 44.5361 85.1756C44.9839 84.1571 45.3568 83.1073 45.6521 82.0346C46.4771 78.9896 46.3901 73.7306 46.0841 69.1346Z" fill="url(#paint27_linear_53236_26327)"/>
<path opacity="0.3" d="M46.0841 69.1346C45.5123 68.4795 44.8828 67.8771 44.2031 67.3346C44.5691 72.3836 44.8691 79.8626 44.5361 85.1756C44.9839 84.1571 45.3568 83.1073 45.6521 82.0346C46.4771 78.9896 46.3901 73.7306 46.0841 69.1346Z" fill="black"/>
<path d="M34.1138 99.4562C34.1288 99.4562 32.7668 100.356 32.7668 100.356L28.9688 97.8662L30.1688 96.8732L34.1138 99.4562Z" fill="url(#paint28_linear_53236_26327)"/>
<path opacity="0.3" d="M34.1138 99.4562C34.1288 99.4562 32.7668 100.356 32.7668 100.356L28.9688 97.8662L30.1688 96.8732L34.1138 99.4562Z" fill="black"/>
<path d="M49.374 60.2433C49.374 60.2433 52.692 74.3133 52.926 81.0363C53.19 88.5723 50.559 106.35 50.559 106.35H46.824C46.824 106.35 46.365 88.4343 46.2 81.5703C46.017 74.0853 41.625 60.2433 41.625 60.2433H49.374Z" fill="url(#paint29_linear_53236_26327)"/>
<path opacity="0.1" d="M49.374 60.2433C49.374 60.2433 52.692 74.3133 52.926 81.0363C53.19 88.5723 50.559 106.35 50.559 106.35H46.824C46.824 106.35 46.365 88.4343 46.2 81.5703C46.017 74.0853 41.625 60.2433 41.625 60.2433H49.374Z" fill="black"/>
<path d="M51.2754 104.865C51.2934 104.865 51.0654 106.413 51.0654 106.413H46.5234L46.4004 105.03L51.2754 104.865Z" fill="url(#paint30_linear_53236_26327)"/>
<path opacity="0.3" d="M51.2754 104.865C51.2934 104.865 51.0654 106.413 51.0654 106.413H46.5234L46.4004 105.03L51.2754 104.865Z" fill="black"/>
<path d="M106.802 46.7228C107.057 46.9628 107.258 47.1668 107.468 47.3948C107.678 47.6228 107.876 47.8448 108.068 48.0758C108.458 48.5348 108.824 49.0178 109.178 49.5038C109.885 50.4787 110.514 51.5079 111.059 52.5818L111.17 52.8008C111.225 52.9068 111.27 53.0172 111.305 53.1308C111.378 53.3503 111.422 53.5781 111.437 53.8088C111.457 54.2155 111.401 54.6224 111.272 55.0088C111.053 55.6506 110.728 56.251 110.309 56.7848C109.556 57.7529 108.667 58.6076 107.669 59.3228L106.922 58.4648C107.273 58.0538 107.639 57.6128 107.966 57.1718C108.299 56.7445 108.6 56.2933 108.866 55.8218C109.115 55.4104 109.3 54.9632 109.412 54.4958C109.451 54.3286 109.458 54.1556 109.433 53.9858C109.423 53.9287 109.405 53.8732 109.379 53.8208C109.368 53.7978 109.355 53.7757 109.34 53.7548L109.244 53.5928C108.666 52.6494 108.038 51.7371 107.363 50.8598C107.03 50.4188 106.673 49.9958 106.313 49.5788C106.136 49.3688 105.953 49.1648 105.77 48.9608C105.587 48.7568 105.389 48.5528 105.23 48.3938L106.802 46.7228Z" fill="#E4897B"/>
<path d="M107.214 58.2128L104.973 57.8468L106.146 59.8088C106.146 59.8088 107.589 59.7578 108 58.9088L107.214 58.2128Z" fill="#E4897B"/>
<path d="M103.314 58.7528L104.382 60.3458L106.143 59.8088L104.97 57.8468L103.314 58.7528Z" fill="#E4897B"/>
<path d="M107.101 109.419C106.949 109.432 106.797 109.39 106.672 109.302C106.634 109.266 106.607 109.221 106.591 109.172C106.576 109.123 106.574 109.07 106.585 109.02C106.587 108.987 106.598 108.956 106.617 108.93C106.635 108.903 106.661 108.883 106.69 108.87C106.951 108.753 107.635 109.191 107.713 109.242C107.722 109.247 107.729 109.255 107.733 109.265C107.736 109.275 107.737 109.285 107.734 109.296C107.733 109.306 107.729 109.315 107.721 109.323C107.714 109.331 107.705 109.336 107.695 109.338C107.501 109.387 107.301 109.414 107.101 109.419ZM106.801 108.954C106.779 108.95 106.757 108.95 106.735 108.954C106.722 108.96 106.711 108.969 106.703 108.982C106.695 108.994 106.69 109.008 106.69 109.023C106.682 109.056 106.683 109.091 106.692 109.124C106.702 109.157 106.72 109.187 106.744 109.212C106.858 109.314 107.152 109.329 107.545 109.251C107.32 109.102 107.067 109.001 106.801 108.954Z" fill="url(#paint31_linear_53236_26327)"/>
<path d="M107.704 109.335H107.677C107.464 109.212 107.053 108.735 107.104 108.474C107.114 108.433 107.136 108.396 107.169 108.369C107.201 108.342 107.242 108.326 107.284 108.324C107.324 108.318 107.366 108.321 107.405 108.334C107.444 108.346 107.479 108.367 107.509 108.396C107.755 108.612 107.758 109.26 107.758 109.296C107.757 109.305 107.755 109.314 107.75 109.321C107.745 109.329 107.739 109.336 107.731 109.341L107.704 109.335ZM107.32 108.435H107.296C107.23 108.435 107.215 108.471 107.209 108.498C107.179 108.651 107.434 109.017 107.647 109.188C107.652 108.936 107.58 108.689 107.44 108.48C107.422 108.463 107.401 108.45 107.377 108.442C107.354 108.435 107.329 108.432 107.305 108.435H107.32Z" fill="url(#paint32_linear_53236_26327)"/>
<path d="M96.8802 109.419C96.6887 109.437 96.4968 109.389 96.3372 109.281C96.3012 109.249 96.2735 109.209 96.2562 109.164C96.239 109.119 96.2328 109.071 96.2382 109.023C96.2402 108.994 96.2494 108.966 96.2652 108.941C96.2809 108.916 96.3026 108.896 96.3282 108.882C96.6072 108.726 97.5012 109.182 97.6032 109.239C97.6126 109.245 97.62 109.254 97.6248 109.264C97.6296 109.274 97.6315 109.285 97.6302 109.296C97.6285 109.307 97.6235 109.316 97.616 109.324C97.6084 109.331 97.5987 109.336 97.5882 109.338C97.3553 109.388 97.1183 109.415 96.8802 109.419ZM96.4812 108.954C96.4469 108.952 96.4126 108.959 96.3822 108.975C96.3714 108.98 96.3623 108.988 96.356 108.998C96.3496 109.008 96.3462 109.02 96.3462 109.032C96.3416 109.063 96.3447 109.095 96.3551 109.125C96.3656 109.155 96.3831 109.182 96.4062 109.203C96.5442 109.326 96.9132 109.347 97.4112 109.263C97.1208 109.108 96.8064 109.004 96.4812 108.954Z" fill="url(#paint33_linear_53236_26327)"/>
<path d="M97.5812 109.336H97.5572C97.2902 109.216 96.7592 108.736 96.8012 108.475C96.8012 108.415 96.8552 108.34 97.0022 108.325C97.0559 108.319 97.1102 108.324 97.1618 108.34C97.2134 108.356 97.2612 108.383 97.3022 108.418C97.5842 108.652 97.6382 109.258 97.6382 109.285C97.6394 109.294 97.638 109.303 97.6343 109.312C97.6306 109.32 97.6247 109.327 97.6172 109.333C97.6058 109.338 97.5932 109.339 97.5812 109.336ZM97.0442 108.436H97.0112C96.9152 108.436 96.9092 108.484 96.9062 108.496C96.8822 108.649 97.2422 109.03 97.5062 109.195C97.4801 108.938 97.3753 108.696 97.2062 108.502C97.1607 108.463 97.1039 108.44 97.0442 108.436Z" fill="url(#paint34_linear_53236_26327)"/>
<path d="M101.123 39.8248C101.036 41.1808 100.802 43.9348 101.843 44.6968C101.843 44.6968 101.654 46.0858 99.1972 46.4098C96.4972 46.7608 97.7302 45.2368 97.7302 45.2368C99.1612 44.6908 98.9782 43.6018 98.5882 42.6058L101.123 39.8248Z" fill="#E4897B"/>
<path d="M95.5376 37.4288C95.5228 37.4288 95.5081 37.4256 95.4947 37.4194C95.4812 37.4132 95.4692 37.4041 95.4596 37.3928C95.3739 37.291 95.2654 37.2108 95.1429 37.1587C95.0204 37.1066 94.8874 37.084 94.7546 37.0928C94.7406 37.0953 94.7262 37.095 94.7123 37.0918C94.6984 37.0886 94.6853 37.0826 94.6738 37.0742C94.6623 37.0658 94.6526 37.0551 94.6454 37.0428C94.6381 37.0305 94.6334 37.0169 94.6316 37.0028C94.6282 36.9746 94.6361 36.9461 94.6535 36.9237C94.6709 36.9012 94.6965 36.8865 94.7246 36.8828C94.894 36.8685 95.0644 36.8954 95.2211 36.9612C95.3778 37.027 95.5163 37.1298 95.6246 37.2608C95.6376 37.2764 95.6459 37.2954 95.6486 37.3156C95.6513 37.3357 95.6482 37.3562 95.6398 37.3747C95.6313 37.3932 95.6178 37.409 95.6008 37.4201C95.5838 37.4313 95.564 37.4374 95.5436 37.4378L95.5376 37.4288Z" fill="#263238"/>
<path d="M95.0671 38.757C94.9607 39.1872 94.7962 39.601 94.5781 39.987C94.6783 40.0409 94.7891 40.072 94.9026 40.0782C95.0162 40.0845 95.1297 40.0656 95.2351 40.023L95.0671 38.757Z" fill="#DE5753"/>
<path d="M95.1864 38.4268C95.2104 38.6068 95.1354 38.7628 95.0184 38.7808C94.9014 38.7988 94.7844 38.6608 94.7634 38.4808C94.7424 38.3008 94.8144 38.1448 94.9314 38.1298C95.0484 38.1148 95.1654 38.2348 95.1864 38.4268Z" fill="#263238"/>
<path d="M94.99 38.1331L94.543 38.0641C94.543 38.0641 94.807 38.3731 94.99 38.1331Z" fill="#263238"/>
<path d="M100.054 109.287H97.8043L97.6543 104.082H99.9043L100.054 109.287Z" fill="#E4897B"/>
<path d="M110.266 109.287H108.016L107.293 104.082H109.543L110.266 109.287Z" fill="#E4897B"/>
<path d="M107.879 109.036H110.405C110.448 109.035 110.489 109.051 110.522 109.079C110.555 109.107 110.576 109.146 110.582 109.189L110.882 111.19C110.887 111.24 110.882 111.291 110.866 111.34C110.851 111.388 110.825 111.432 110.791 111.47C110.757 111.508 110.715 111.538 110.669 111.558C110.623 111.579 110.572 111.589 110.522 111.589C109.643 111.574 109.217 111.523 108.107 111.523C107.423 111.523 106.424 111.592 105.482 111.592C104.54 111.592 104.489 110.659 104.882 110.575C106.643 110.197 106.922 109.675 107.513 109.174C107.616 109.088 107.745 109.04 107.879 109.036Z" fill="#263238"/>
<path d="M97.7253 109.036H100.248C100.292 109.035 100.334 109.05 100.367 109.079C100.4 109.107 100.422 109.146 100.428 109.189L100.728 111.19C100.734 111.24 100.729 111.291 100.713 111.34C100.697 111.388 100.672 111.432 100.638 111.47C100.604 111.508 100.562 111.538 100.516 111.558C100.469 111.579 100.419 111.589 100.368 111.589C99.4893 111.574 99.0633 111.523 97.9533 111.523C97.2693 111.523 95.8533 111.592 94.9113 111.592C93.9693 111.592 93.9183 110.659 94.3113 110.575C96.0723 110.197 96.7653 109.675 97.3593 109.174C97.4625 109.088 97.5913 109.04 97.7253 109.036Z" fill="#263238"/>
<path d="M97.6543 104.082L97.7323 106.767H99.9823L99.9043 104.082H97.6543Z" fill="#CE6F64"/>
<path d="M109.543 104.082H107.293L107.668 106.767H109.915L109.543 104.082Z" fill="#CE6F64"/>
<path d="M101.152 37.0177C101.305 39.2437 101.416 40.1827 100.45 41.4637C98.9955 43.3867 96.2295 43.0897 95.4135 40.9537C94.6785 39.0307 94.5525 35.7157 96.5985 34.5517C97.0486 34.2937 97.5571 34.155 98.0759 34.1488C98.5946 34.1425 99.1063 34.2689 99.5625 34.5159C100.019 34.763 100.404 35.1224 100.682 35.5603C100.961 35.9981 101.123 36.4998 101.152 37.0177Z" fill="#E4897B"/>
<path d="M102.453 39.0841C103.701 39.7801 104.628 38.0641 104.628 38.0641C104.628 38.0641 102.39 38.3071 102.591 36.9751C102.855 35.2081 101.589 33.0601 98.4154 33.3361C98.2384 33.3511 98.0704 33.3721 97.9054 33.3991C97.5731 33.2416 97.1974 33.2009 96.8391 33.2837C96.4808 33.3665 96.1609 33.5678 95.9314 33.8551C95.0314 33.9301 93.8164 35.0041 94.6414 36.4231C94.6993 36.26 94.789 36.1101 94.9054 35.9821C94.9744 36.8131 95.7004 38.1331 96.6064 38.2201C96.8014 39.3571 96.0454 40.6741 96.3064 41.8621C96.6934 43.5751 99.5824 43.9621 99.5824 43.9621C99.4828 43.7482 99.4457 43.5104 99.4754 43.2763C99.5051 43.0422 99.6005 42.8213 99.7504 42.6391C101.712 43.5391 103.005 42.6601 103.005 42.6601C101.667 42.1621 102.072 41.2741 102.072 41.2741C102.534 41.4792 103.058 41.4972 103.533 41.3244C104.008 41.1515 104.397 40.8012 104.619 40.3471C104.175 40.3682 103.734 40.2602 103.35 40.036C102.965 39.8119 102.654 39.4813 102.453 39.0841Z" fill="#263238"/>
<path d="M97.3865 38.5622C97.3918 38.7758 97.3548 38.9884 97.2775 39.1877C97.2003 39.3869 97.0844 39.5689 96.9365 39.7232C96.5405 40.1342 96.0545 39.8462 95.9225 39.3212C95.8055 38.8472 95.8715 38.0642 96.3875 37.8482C96.5011 37.8036 96.624 37.788 96.7451 37.803C96.8662 37.818 96.9816 37.863 97.0809 37.934C97.1802 38.0049 97.2601 38.0995 97.3135 38.2093C97.3669 38.319 97.392 38.4403 97.3865 38.5622Z" fill="#E4897B"/>
<path d="M99.2539 59.3012C99.2539 59.3012 99.8239 74.1092 101.18 82.8032C102.272 89.8292 107.123 106.245 107.123 106.245H110.189C110.189 106.245 107.66 90.3902 107.105 83.4452C105.701 65.8682 109.346 62.0942 105.905 58.4342L99.2539 59.3012Z" fill="#263238"/>
<path d="M101.819 63.9843C101.819 63.9843 100.433 63.7443 99.623 66.3843C99.923 71.3853 100.436 78.0213 101.183 82.8033C101.348 83.8683 101.6 85.1523 101.909 86.5593C101.324 78.1113 101.819 63.9843 101.819 63.9843Z" fill="#161F33"/>
<path d="M96.8637 59.6131C96.8637 59.6131 94.3377 75.9961 94.4847 82.8511C94.6377 89.9821 97.2507 106.251 97.2507 106.251H100.29C100.29 106.251 99.8097 90.4051 100.077 83.4031C100.377 75.7681 103.494 58.7521 103.494 58.7521L96.8637 59.6131Z" fill="#263238"/>
<path d="M110.633 106.389H106.556L106.238 105.021L110.603 105.051L110.633 106.389Z" fill="url(#paint35_linear_53236_26327)"/>
<path opacity="0.2" d="M110.633 106.389H106.556L106.238 105.021L110.603 105.051L110.633 106.389Z" fill="black"/>
<path d="M105.756 44.7004C106.929 44.8144 108.711 48.1474 108.711 48.1474L105.75 50.4184C105.75 50.4184 103.299 48.2674 103.59 47.0584C103.893 45.8014 104.631 44.5954 105.756 44.7004Z" fill="url(#paint36_linear_53236_26327)"/>
<path opacity="0.1" d="M105.756 44.7004C106.929 44.8144 108.711 48.1474 108.711 48.1474L105.75 50.4184C105.75 50.4184 103.299 48.2674 103.59 47.0584C103.893 45.8014 104.631 44.5954 105.756 44.7004Z" fill="black"/>
<path d="M104.867 46.1346C104.568 46.054 104.258 46.0196 103.949 46.0326C103.791 46.3606 103.67 46.7045 103.586 47.0586C103.286 48.2586 105.746 50.4186 105.746 50.4186L105.965 50.2506L104.867 46.1346Z" fill="url(#paint37_linear_53236_26327)"/>
<path opacity="0.3" d="M104.867 46.1346C104.568 46.054 104.258 46.0196 103.949 46.0326C103.791 46.3606 103.67 46.7045 103.586 47.0586C103.286 48.2586 105.746 50.4186 105.746 50.4186L105.965 50.2506L104.867 46.1346Z" fill="black"/>
<path d="M95.8619 49.3352C95.0069 51.4982 94.1069 53.6972 93.3899 55.8662C93.3419 56.0042 93.3029 56.1362 93.2609 56.2712L93.1589 56.6042C93.1311 56.7022 93.1311 56.8061 93.1589 56.9042C93.3282 57.2792 93.5969 57.6009 93.9359 57.8342C94.8329 58.4777 95.8102 59.0012 96.8429 59.3912L96.5729 60.4952C95.3024 60.3277 94.0738 59.9269 92.9489 59.3132C92.2566 58.9433 91.6928 58.3722 91.3319 57.6752C91.1247 57.2297 91.0527 56.7332 91.1249 56.2472C91.1317 56.1877 91.1417 56.1286 91.1549 56.0702L91.1849 55.9442L91.2359 55.7162C91.2719 55.5632 91.3079 55.4162 91.3469 55.2662C91.6469 54.0662 92.0309 52.9262 92.4359 51.7952C92.8409 50.6642 93.2639 49.5482 93.7409 48.4352L95.8619 49.3352Z" fill="#E4897B"/>
<path d="M94.0371 46.2997C94.0371 46.2997 93.0231 46.8127 96.8631 59.6137L105.917 58.4317C105.281 54.7657 104.981 52.4947 105.752 44.7007C104.454 44.6077 103.15 44.6077 101.852 44.7007C100.47 44.7811 99.0953 44.9616 97.7391 45.2407C96.0021 45.6277 94.0371 46.2997 94.0371 46.2997Z" fill="url(#paint38_linear_53236_26327)"/>
<path opacity="0.1" d="M94.0371 46.2997C94.0371 46.2997 93.0231 46.8127 96.8631 59.6137L105.917 58.4317C105.281 54.7657 104.981 52.4947 105.752 44.7007C104.454 44.6077 103.15 44.6077 101.852 44.7007C100.47 44.7811 99.0953 44.9616 97.7391 45.2407C96.0021 45.6277 94.0371 46.2997 94.0371 46.2997Z" fill="black"/>
<path d="M105.985 57.8824L106.504 58.6354C106.543 58.6954 106.477 58.7674 106.375 58.7824L96.8796 60.0244C96.7986 60.0244 96.7236 60.0034 96.7116 59.9524L96.5256 59.1514C96.5106 59.0974 96.5766 59.0404 96.6666 59.0284L105.835 57.8284C105.862 57.824 105.89 57.8266 105.917 57.836C105.943 57.8455 105.966 57.8614 105.985 57.8824Z" fill="url(#paint39_linear_53236_26327)"/>
<path opacity="0.2" d="M105.985 57.8824L106.504 58.6354C106.543 58.6954 106.477 58.7674 106.375 58.7824L96.8796 60.0244C96.7986 60.0244 96.7236 60.0034 96.7116 59.9524L96.5256 59.1514C96.5106 59.0974 96.5766 59.0404 96.6666 59.0284L105.835 57.8284C105.862 57.824 105.89 57.8266 105.917 57.836C105.943 57.8455 105.966 57.8614 105.985 57.8824Z" fill="black"/>
<path d="M104.889 59.0677L105.135 59.0347C105.183 59.0347 105.216 58.9987 105.21 58.9687L104.958 57.9307C104.948 57.913 104.933 57.8991 104.914 57.8914C104.896 57.8838 104.875 57.8828 104.856 57.8887L104.61 57.9187C104.559 57.9187 104.526 57.9547 104.535 57.9877L104.787 59.0227C104.793 59.0557 104.841 59.0737 104.889 59.0677Z" fill="#263238"/>
<path d="M98.9355 59.8354L99.1815 59.8024C99.2295 59.8024 99.2655 59.7664 99.2565 59.7364L99.0045 58.6984C98.9946 58.6809 98.9793 58.667 98.961 58.6589C98.9426 58.6508 98.922 58.6489 98.9025 58.6534L98.6565 58.6864C98.6085 58.6864 98.5725 58.7224 98.5815 58.7524L98.8335 59.7904C98.8395 59.8354 98.8875 59.8534 98.9355 59.8354Z" fill="#263238"/>
<path d="M94.4609 50.6436C94.7099 51.8016 95.0609 53.2686 95.5739 55.1256L95.6849 50.4186L94.4609 50.6436Z" fill="url(#paint40_linear_53236_26327)"/>
<path opacity="0.3" d="M94.4609 50.6436C94.7099 51.8016 95.0609 53.2686 95.5739 55.1256L95.6849 50.4186L94.4609 50.6436Z" fill="black"/>
<path d="M94.0414 46.2991C92.9164 46.7521 91.9414 50.6011 91.9414 50.6011L95.8114 52.4851C95.8114 52.4851 97.6804 47.7781 96.8434 46.8601C96.0064 45.9421 95.3374 45.7801 94.0414 46.2991Z" fill="url(#paint41_linear_53236_26327)"/>
<path opacity="0.1" d="M94.0414 46.2991C92.9164 46.7521 91.9414 50.6011 91.9414 50.6011L95.8114 52.4851C95.8114 52.4851 97.6804 47.7781 96.8434 46.8601C96.0064 45.9421 95.3374 45.7801 94.0414 46.2991Z" fill="black"/>
<path d="M100.813 106.389H96.736L96.418 105.021L100.957 105.051L100.813 106.389Z" fill="url(#paint42_linear_53236_26327)"/>
<path opacity="0.2" d="M100.813 106.389H96.736L96.418 105.021L100.957 105.051L100.813 106.389Z" fill="black"/>
<path d="M96.9067 59.0185L96.5797 58.8835C96.4993 58.8508 96.4117 58.84 96.3257 58.8521C96.2398 58.8642 96.1586 58.8988 96.0904 58.9524C96.0221 59.006 95.9693 59.0767 95.9372 59.1574C95.9051 59.238 95.8949 59.3257 95.9077 59.4115L96.1447 60.9745C96.1561 61.0528 96.1847 61.1275 96.2284 61.1933C96.2722 61.2591 96.3301 61.3144 96.3978 61.3552C96.4655 61.3959 96.5415 61.4212 96.6201 61.429C96.6988 61.4368 96.7782 61.4271 96.8527 61.4005C96.9716 61.3573 97.083 61.2956 97.1827 61.2175C97.2912 61.1276 97.377 61.0133 97.4333 60.8841C97.4896 60.7549 97.5147 60.6143 97.5067 60.4735L97.4737 59.8255C97.468 59.6504 97.4113 59.4808 97.3106 59.3375C97.2098 59.1941 97.0695 59.0833 96.9067 59.0185Z" fill="#E4897B"/>
<defs>
<linearGradient id="paint0_linear_53236_26327" x1="82.9355" y1="35.7635" x2="130.663" y2="36.2345" gradientUnits="userSpaceOnUse">
<stop stop-color="#556255"/>
<stop offset="1" stop-color="#60A560"/>
</linearGradient>
<linearGradient id="paint1_linear_53236_26327" x1="89.2627" y1="32.7483" x2="121.79" y2="34.7114" gradientUnits="userSpaceOnUse">
<stop stop-color="#556255"/>
<stop offset="1" stop-color="#60A560"/>
</linearGradient>
<linearGradient id="paint2_linear_53236_26327" x1="91.4993" y1="36.4207" x2="114.19" y2="37.3742" gradientUnits="userSpaceOnUse">
<stop stop-color="#556255"/>
<stop offset="1" stop-color="#60A560"/>
</linearGradient>
<linearGradient id="paint3_linear_53236_26327" x1="92.7932" y1="40.093" x2="109.771" y2="40.6264" gradientUnits="userSpaceOnUse">
<stop stop-color="#556255"/>
<stop offset="1" stop-color="#60A560"/>
</linearGradient>
<linearGradient id="paint4_linear_53236_26327" x1="107.037" y1="40.093" x2="124.015" y2="40.6264" gradientUnits="userSpaceOnUse">
<stop stop-color="#556255"/>
<stop offset="1" stop-color="#60A560"/>
</linearGradient>
<linearGradient id="paint5_linear_53236_26327" x1="52.0516" y1="35.3775" x2="108.764" y2="35.8311" gradientUnits="userSpaceOnUse">
<stop stop-color="#556255"/>
<stop offset="1" stop-color="#60A560"/>
</linearGradient>
<linearGradient id="paint6_linear_53236_26327" x1="58.3318" y1="30.9555" x2="106.021" y2="33.8329" gradientUnits="userSpaceOnUse">
<stop stop-color="#556255"/>
<stop offset="1" stop-color="#60A560"/>
</linearGradient>
<linearGradient id="paint7_linear_53236_26327" x1="61.6117" y1="36.3403" x2="94.8764" y2="37.7376" gradientUnits="userSpaceOnUse">
<stop stop-color="#556255"/>
<stop offset="1" stop-color="#60A560"/>
</linearGradient>
<linearGradient id="paint8_linear_53236_26327" x1="63.5083" y1="41.725" x2="88.3997" y2="42.5068" gradientUnits="userSpaceOnUse">
<stop stop-color="#556255"/>
<stop offset="1" stop-color="#60A560"/>
</linearGradient>
<linearGradient id="paint9_linear_53236_26327" x1="85.2604" y1="41.725" x2="106.334" y2="42.2852" gradientUnits="userSpaceOnUse">
<stop stop-color="#556255"/>
<stop offset="1" stop-color="#60A560"/>
</linearGradient>
<linearGradient id="paint10_linear_53236_26327" x1="57.4603" y1="62.4787" x2="84.6148" y2="62.553" gradientUnits="userSpaceOnUse">
<stop stop-color="#556255"/>
<stop offset="1" stop-color="#60A560"/>
</linearGradient>
<linearGradient id="paint11_linear_53236_26327" x1="55.9602" y1="55.985" x2="89.9968" y2="56.2258" gradientUnits="userSpaceOnUse">
<stop stop-color="#556255"/>
<stop offset="1" stop-color="#60A560"/>
</linearGradient>
<linearGradient id="paint12_linear_53236_26327" x1="110.668" y1="47.2534" x2="110.601" y2="74.5591" gradientUnits="userSpaceOnUse">
<stop stop-color="#556255"/>
<stop offset="1" stop-color="#60A560"/>
</linearGradient>
<linearGradient id="paint13_linear_53236_26327" x1="115.648" y1="42.2788" x2="115.582" y2="69.5845" gradientUnits="userSpaceOnUse">
<stop stop-color="#556255"/>
<stop offset="1" stop-color="#60A560"/>
</linearGradient>
<linearGradient id="paint14_linear_53236_26327" x1="122" y1="46.7381" x2="121.935" y2="62.5355" gradientUnits="userSpaceOnUse">
<stop stop-color="#556255"/>
<stop offset="1" stop-color="#60A560"/>
</linearGradient>
<linearGradient id="paint15_linear_53236_26327" x1="110.567" y1="54.7275" x2="110.517" y2="66.836" gradientUnits="userSpaceOnUse">
<stop stop-color="#556255"/>
<stop offset="1" stop-color="#60A560"/>
</linearGradient>
<linearGradient id="paint16_linear_53236_26327" x1="75.956" y1="9.86157" x2="75.9512" y2="21.3371" gradientUnits="userSpaceOnUse">
<stop stop-color="#556255"/>
<stop offset="1" stop-color="#60A560"/>
</linearGradient>
<linearGradient id="paint17_linear_53236_26327" x1="86.946" y1="18.4951" x2="86.9439" y2="22.4456" gradientUnits="userSpaceOnUse">
<stop stop-color="#556255"/>
<stop offset="1" stop-color="#60A560"/>
</linearGradient>
<linearGradient id="paint18_linear_53236_26327" x1="83.5146" y1="-2.58814" x2="83.5098" y2="8.88736" gradientUnits="userSpaceOnUse">
<stop stop-color="#556255"/>
<stop offset="1" stop-color="#60A560"/>
</linearGradient>
<linearGradient id="paint19_linear_53236_26327" x1="49.6831" y1="22.3488" x2="99.985" y2="22.7939" gradientUnits="userSpaceOnUse">
<stop stop-color="#556255"/>
<stop offset="1" stop-color="#60A560"/>
</linearGradient>
<linearGradient id="paint20_linear_53236_26327" x1="7.81667" y1="38.0177" x2="114.93" y2="38.6204" gradientUnits="userSpaceOnUse">
<stop stop-color="#556255"/>
<stop offset="1" stop-color="#60A560"/>
</linearGradient>
<linearGradient id="paint21_linear_53236_26327" x1="36.8985" y1="40.121" x2="47.3296" y2="40.2526" gradientUnits="userSpaceOnUse">
<stop stop-color="#556255"/>
<stop offset="1" stop-color="#60A560"/>
</linearGradient>
<linearGradient id="paint22_linear_53236_26327" x1="29.5223" y1="102.231" x2="30.9906" y2="102.24" gradientUnits="userSpaceOnUse">
<stop stop-color="#556255"/>
<stop offset="1" stop-color="#60A560"/>
</linearGradient>
<linearGradient id="paint23_linear_53236_26327" x1="29.5172" y1="101.715" x2="30.982" y2="101.726" gradientUnits="userSpaceOnUse">
<stop stop-color="#556255"/>
<stop offset="1" stop-color="#60A560"/>
</linearGradient>
<linearGradient id="paint24_linear_53236_26327" x1="49.3701" y1="109.144" x2="51.2706" y2="109.163" gradientUnits="userSpaceOnUse">
<stop stop-color="#556255"/>
<stop offset="1" stop-color="#60A560"/>
</linearGradient>
<linearGradient id="paint25_linear_53236_26327" x1="49.5407" y1="108.832" x2="50.6849" y2="108.836" gradientUnits="userSpaceOnUse">
<stop stop-color="#556255"/>
<stop offset="1" stop-color="#60A560"/>
</linearGradient>
<linearGradient id="paint26_linear_53236_26327" x1="23.9968" y1="77.7998" x2="47.2318" y2="77.8378" gradientUnits="userSpaceOnUse">
<stop stop-color="#556255"/>
<stop offset="1" stop-color="#60A560"/>
</linearGradient>
<linearGradient id="paint27_linear_53236_26327" x1="43.5582" y1="75.1679" x2="46.417" y2="75.1692" gradientUnits="userSpaceOnUse">
<stop stop-color="#556255"/>
<stop offset="1" stop-color="#60A560"/>
</linearGradient>
<linearGradient id="paint28_linear_53236_26327" x1="27.3882" y1="98.4024" x2="34.3944" y2="98.4421" gradientUnits="userSpaceOnUse">
<stop stop-color="#556255"/>
<stop offset="1" stop-color="#60A560"/>
</linearGradient>
<linearGradient id="paint29_linear_53236_26327" x1="38.1477" y1="80.4871" x2="53.5622" y2="80.5017" gradientUnits="userSpaceOnUse">
<stop stop-color="#556255"/>
<stop offset="1" stop-color="#60A560"/>
</linearGradient>
<linearGradient id="paint30_linear_53236_26327" x1="44.9025" y1="105.545" x2="51.5415" y2="105.625" gradientUnits="userSpaceOnUse">
<stop stop-color="#556255"/>
<stop offset="1" stop-color="#60A560"/>
</linearGradient>
<linearGradient id="paint31_linear_53236_26327" x1="106.222" y1="109.101" x2="107.799" y2="109.113" gradientUnits="userSpaceOnUse">
<stop stop-color="#556255"/>
<stop offset="1" stop-color="#60A560"/>
</linearGradient>
<linearGradient id="paint32_linear_53236_26327" x1="106.897" y1="108.769" x2="107.794" y2="108.771" gradientUnits="userSpaceOnUse">
<stop stop-color="#556255"/>
<stop offset="1" stop-color="#60A560"/>
</linearGradient>
<linearGradient id="paint33_linear_53236_26327" x1="95.808" y1="109.101" x2="97.7065" y2="109.119" gradientUnits="userSpaceOnUse">
<stop stop-color="#556255"/>
<stop offset="1" stop-color="#60A560"/>
</linearGradient>
<linearGradient id="paint34_linear_53236_26327" x1="96.5409" y1="108.768" x2="97.6844" y2="108.772" gradientUnits="userSpaceOnUse">
<stop stop-color="#556255"/>
<stop offset="1" stop-color="#60A560"/>
</linearGradient>
<linearGradient id="paint35_linear_53236_26327" x1="104.888" y1="105.621" x2="110.872" y2="105.695" gradientUnits="userSpaceOnUse">
<stop stop-color="#556255"/>
<stop offset="1" stop-color="#60A560"/>
</linearGradient>
<linearGradient id="paint36_linear_53236_26327" x1="101.986" y1="47.2073" x2="108.992" y2="47.2315" gradientUnits="userSpaceOnUse">
<stop stop-color="#556255"/>
<stop offset="1" stop-color="#60A560"/>
</linearGradient>
<linearGradient id="paint37_linear_53236_26327" x1="102.822" y1="47.9568" x2="106.096" y2="47.9637" gradientUnits="userSpaceOnUse">
<stop stop-color="#556255"/>
<stop offset="1" stop-color="#60A560"/>
</linearGradient>
<linearGradient id="paint38_linear_53236_26327" x1="90.2294" y1="51.2093" x2="106.572" y2="51.2596" gradientUnits="userSpaceOnUse">
<stop stop-color="#556255"/>
<stop offset="1" stop-color="#60A560"/>
</linearGradient>
<linearGradient id="paint39_linear_53236_26327" x1="93.4542" y1="58.7914" x2="107.056" y2="59.0286" gradientUnits="userSpaceOnUse">
<stop stop-color="#556255"/>
<stop offset="1" stop-color="#60A560"/>
</linearGradient>
<linearGradient id="paint40_linear_53236_26327" x1="94.0849" y1="52.4852" x2="95.7517" y2="52.4869" gradientUnits="userSpaceOnUse">
<stop stop-color="#556255"/>
<stop offset="1" stop-color="#60A560"/>
</linearGradient>
<linearGradient id="paint41_linear_53236_26327" x1="90.3693" y1="48.851" x2="97.3383" y2="48.8721" gradientUnits="userSpaceOnUse">
<stop stop-color="#556255"/>
<stop offset="1" stop-color="#60A560"/>
</linearGradient>
<linearGradient id="paint42_linear_53236_26327" x1="95.0236" y1="105.621" x2="101.204" y2="105.7" gradientUnits="userSpaceOnUse">
<stop stop-color="#556255"/>
<stop offset="1" stop-color="#60A560"/>
</linearGradient>
</defs>
</svg>
